<?xml version="1.0" encoding="UTF-8"?>
<svg id="AI_Data_Science_Systems" data-name="AI, Data Science &amp;amp; Systems" xmlns="http://www.w3.org/2000/svg" viewBox="0 0 180 180">
  <defs>
    <style>
      .cls-1 {
        stroke: #000;
        stroke-miterlimit: 10;
        stroke-width: 2px;
      }
    </style>
  </defs>
  <path class="cls-1" d="M174.19,97.23c-8.99-18.31-14.98-30.53-16.03-32.73C157.7,19.37,138.29.11,93.33.11,57.58.11,28.49,29.19,28.49,64.95c0,1.09.89,1.98,1.98,1.98s1.98-.89,1.98-1.98c0-33.57,27.31-60.88,60.88-60.88,42.92,0,60.56,17.64,60.88,60.9q0,.55,16.43,34.01c1.01,2.05.98,3.09.8,3.37-.15.25-.82.54-2.19.55-4.56.04-12.97,0-13.05,0h0c-.52,0-1.02.21-1.4.58-.37.37-.58.88-.58,1.4v29.91c0,4.57-3.72,8.29-8.29,8.29h-35.23c-10.64,0-19.31-8.66-19.31-19.31v-10.3c0-1.09-.89-1.98-1.98-1.98s-1.98.89-1.98,1.98v10.3c0,12.83,10.44,23.26,23.26,23.26h11.71v30.88c0,1.09.89,1.98,1.98,1.98s1.98-.89,1.98-1.98v-30.88h19.56c6.75,0,12.25-5.49,12.25-12.25v-27.92c2.79,0,7.9.02,11.12,0,2.69-.02,4.54-.84,5.52-2.43,1.09-1.77.89-4.13-.61-7.19Z"/>
  <path class="cls-1" d="M64.27,106.08c-5.94,0-10.77,4.83-10.77,10.77,0,5.26,3.8,9.65,8.79,10.58v14.26l-10.01,12.69c-.28.35-.43.78-.43,1.23v22.31c0,1.09.89,1.98,1.98,1.98s1.98-.89,1.98-1.98v-21.62l10.01-12.69c.28-.35.43-.78.43-1.23v-14.94c5-.93,8.79-5.32,8.79-10.58,0-5.94-4.83-10.77-10.77-10.77ZM64.27,123.67c-3.76,0-6.81-3.06-6.81-6.81s3.06-6.81,6.81-6.81,6.81,3.06,6.81,6.81-3.06,6.81-6.81,6.81Z"/>
  <path class="cls-1" d="M39.77,76.19c-5.94,0-10.77,4.83-10.77,10.77,0,5.26,3.8,9.65,8.79,10.58v80.37c0,1.09.89,1.98,1.98,1.98s1.98-.89,1.98-1.98v-80.37c5-.93,8.79-5.32,8.79-10.58,0-5.94-4.83-10.77-10.77-10.77ZM39.77,93.78c-3.76,0-6.81-3.06-6.81-6.81s3.06-6.81,6.81-6.81,6.81,3.06,6.81,6.81-3.06,6.81-6.81,6.81Z"/>
  <path class="cls-1" d="M17.25,141.69v-14.26c5-.93,8.79-5.32,8.79-10.58,0-5.94-4.83-10.77-10.77-10.77s-10.77,4.83-10.77,10.77c0,5.26,3.8,9.65,8.79,10.58v14.94c0,.44.15.88.43,1.23l10.01,12.69v21.63c0,1.09.89,1.98,1.98,1.98s1.98-.89,1.98-1.98v-22.31c0-.44-.15-.88-.42-1.23l-10.01-12.69ZM8.46,116.85c0-3.76,3.06-6.81,6.81-6.81s6.81,3.06,6.81,6.81-3.06,6.81-6.81,6.81-6.81-3.06-6.81-6.81Z"/>
</svg>