<?xml version="1.0" encoding="UTF-8"?>
<svg id="AI_Data_Science_Systems" data-name="AI, Data Science &amp;amp; Systems" xmlns="http://www.w3.org/2000/svg" viewBox="0 0 180 180">
  <defs>
    <style>
      .cls-1 {
        stroke: #000;
        stroke-miterlimit: 10;
        stroke-width: 2px;
      }
    </style>
  </defs>
  <path class="cls-1" d="M69.68,130.24c.25.11.52.16.78.16.77,0,1.5-.45,1.82-1.2.43-1-.03-2.17-1.04-2.6-2.47-1.06-4.38-3.02-5.37-5.51-1-2.49-.96-5.23.1-7.7.43-1-.03-2.17-1.04-2.6-1.01-.43-2.17.03-2.6,1.04-1.48,3.44-1.53,7.25-.14,10.73,1.39,3.48,4.05,6.2,7.49,7.68Z"/>
  <path class="cls-1" d="M115.07,110.8c-1,.43-1.47,1.59-1.04,2.6,2.19,5.1-.18,11.02-5.28,13.21-1,.43-1.47,1.59-1.04,2.6.32.75,1.05,1.2,1.82,1.2.26,0,.53-.05.78-.16,7.1-3.05,10.4-11.3,7.35-18.41-.43-1-1.59-1.47-2.6-1.04Z"/>
  <path class="cls-1" d="M38.29,135.01c-1.09,0-1.98.89-1.98,1.98,0,5.55-4.51,10.06-10.06,10.06-1.09,0-1.98.89-1.98,1.98s.89,1.98,1.98,1.98c7.73,0,14.01-6.29,14.01-14.01,0-1.09-.89-1.98-1.98-1.98Z"/>
  <path class="cls-1" d="M153.74,147.05c-5.55,0-10.06-4.51-10.06-10.06,0-1.09-.89-1.98-1.98-1.98s-1.98.89-1.98,1.98c0,7.73,6.29,14.01,14.01,14.01,1.09,0,1.98-.89,1.98-1.98s-.89-1.98-1.98-1.98Z"/>
  <path class="cls-1" d="M159.04,115.47c.14-1.2.21-2.4.21-3.58,0-17.01-13.84-30.86-30.86-30.86-3.77,0-7.43.67-10.92,2-5.27-10.25-15.86-16.77-27.48-16.77s-22.21,6.52-27.48,16.77c-3.49-1.33-7.15-2-10.92-2-17.01,0-30.86,13.84-30.86,30.86,0,1.18.07,2.38.21,3.58C8.6,119.7.11,131.46.11,144.65c0,17.01,13.84,30.86,30.86,30.86h118.07c17.01,0,30.86-13.84,30.86-30.86,0-13.19-8.49-24.95-20.85-29.19ZM4.06,144.65c0-12.01,8.07-22.66,19.63-25.9.98-.27,1.59-1.24,1.41-2.24-.27-1.55-.41-3.11-.41-4.63,0-3.1.53-6.08,1.5-8.85,2.58,6.76,9.11,11.59,16.76,11.59,1.09,0,1.98-.89,1.98-1.98s-.89-1.98-1.98-1.98c-7.5,0-13.62-5.93-13.96-13.35,4.8-7.41,13.13-12.33,22.59-12.33,3.85,0,7.58.8,11.08,2.39.48.22,1.03.23,1.53.05.49-.19.89-.57,1.1-1.05,4.03-9.21,12.81-15.36,22.71-16.08v101.27h-35.65c1.03-1.18,1.87-2.52,2.47-4.02,1.39-3.48,1.34-7.29-.14-10.73-.43-1-1.59-1.47-2.6-1.04-1,.43-1.47,1.59-1.04,2.6,1.06,2.47,1.09,5.2.1,7.7-.99,2.48-2.88,4.42-5.32,5.49h-14.88c-14.83,0-26.9-12.07-26.9-26.9ZM149.04,171.55h-14.88c-2.44-1.06-4.33-3.01-5.32-5.49-1-2.49-.96-5.23.1-7.7.43-1-.03-2.17-1.04-2.6-1.01-.43-2.17.03-2.6,1.04-1.48,3.44-1.53,7.25-.14,10.73.6,1.49,1.44,2.84,2.47,4.02h-35.65v-101.27c9.91.73,18.69,6.88,22.71,16.08.21.48.61.86,1.1,1.05.5.19,1.04.17,1.53-.05,3.5-1.59,7.23-2.39,11.08-2.39,9.47,0,17.8,4.92,22.59,12.33-.34,7.42-6.46,13.35-13.96,13.35-1.09,0-1.98.89-1.98,1.98s.89,1.98,1.98,1.98c7.66,0,14.19-4.83,16.76-11.59.97,2.77,1.5,5.75,1.5,8.85,0,1.52-.14,3.08-.41,4.63-.17,1,.44,1.97,1.41,2.24,11.56,3.24,19.63,13.89,19.63,25.9,0,14.83-12.07,26.9-26.9,26.9Z"/>
  <path class="cls-1" d="M149.2,78.33c1.09,0,1.98-.89,1.98-1.98v-41.79h20.37v77.01c0,1.09.89,1.98,1.98,1.98s1.98-.89,1.98-1.98V32.59c0-1.09-.89-1.98-1.98-1.98h-24.32c-1.09,0-1.98.89-1.98,1.98v43.77c0,1.09.89,1.98,1.98,1.98Z"/>
  <path class="cls-1" d="M101.62,59.58c1.09,0,1.98-.89,1.98-1.98V8.45h20.37v62.33c0,1.09.89,1.98,1.98,1.98s1.98-.89,1.98-1.98V6.47c0-1.09-.89-1.98-1.98-1.98h-24.32c-1.09,0-1.98.89-1.98,1.98v51.13c0,1.09.89,1.98,1.98,1.98Z"/>
  <path class="cls-1" d="M54.05,72.76c1.09,0,1.98-.89,1.98-1.98v-36.21h20.37v23.04c0,1.09.89,1.98,1.98,1.98s1.98-.89,1.98-1.98v-25.01c0-1.09-.89-1.98-1.98-1.98h-24.32c-1.09,0-1.98.89-1.98,1.98v38.19c0,1.09.89,1.98,1.98,1.98Z"/>
  <path class="cls-1" d="M6.48,113.55c1.09,0,1.98-.89,1.98-1.98V8.45h20.37v67.91c0,1.09.89,1.98,1.98,1.98s1.98-.89,1.98-1.98V6.47c0-1.09-.89-1.98-1.98-1.98H6.48c-1.09,0-1.98.89-1.98,1.98v105.11c0,1.09.89,1.98,1.98,1.98Z"/>
</svg>