<?xml version="1.0" encoding="UTF-8"?>
<svg id="AI_Data_Science_Systems" data-name="AI, Data Science &amp;amp; Systems" xmlns="http://www.w3.org/2000/svg" viewBox="0 0 180 180">
  <defs>
    <style>
      .cls-1 {
        stroke: #000;
        stroke-miterlimit: 10;
        stroke-width: 2px;
      }
    </style>
  </defs>
  <path class="cls-1" d="M73.85,143.72c-5.9,0-10.7,4.8-10.7,10.7v10.68c0,5.9,4.8,10.7,10.7,10.7s10.7-4.8,10.7-10.7v-10.68c0-5.9-4.8-10.7-10.7-10.7ZM80.78,165.1c0,3.82-3.11,6.92-6.92,6.92s-6.92-3.11-6.92-6.92v-10.68c0-3.82,3.11-6.92,6.92-6.92s6.92,3.11,6.92,6.92v10.68Z"/>
  <path class="cls-1" d="M24.17,172.03h-4.62v-26.42c0-.76-.46-1.45-1.16-1.74-.7-.29-1.52-.13-2.06.4l-6.51,6.45c-.74.73-.75,1.93-.01,2.67.73.74,1.93.75,2.67.01l3.29-3.26v21.89h-4.62c-1.04,0-1.89.85-1.89,1.89s.85,1.89,1.89,1.89h13.02c1.04,0,1.89-.85,1.89-1.89s-.85-1.89-1.89-1.89Z"/>
  <path class="cls-1" d="M110.36,172.03h-4.62v-26.42c0-.76-.46-1.45-1.16-1.74-.7-.29-1.52-.13-2.06.4l-6.51,6.45c-.74.73-.75,1.93-.01,2.67.73.74,1.93.75,2.67.01l3.29-3.26v21.89h-4.62c-1.04,0-1.89.85-1.89,1.89s.85,1.89,1.89,1.89h13.02c1.04,0,1.89-.85,1.89-1.89s-.85-1.89-1.89-1.89Z"/>
  <path class="cls-1" d="M51.64,172.03h-4.62v-26.42c0-.76-.46-1.45-1.16-1.74-.7-.29-1.51-.13-2.06.4l-6.51,6.45c-.74.73-.75,1.93-.01,2.67.73.74,1.93.75,2.67.01l3.29-3.26v21.89h-4.62c-1.04,0-1.89.85-1.89,1.89s.85,1.89,1.89,1.89h13.02c1.04,0,1.89-.85,1.89-1.89s-.85-1.89-1.89-1.89Z"/>
  <path class="cls-1" d="M160.04,143.72c-5.9,0-10.7,4.8-10.7,10.7v10.68c0,5.9,4.8,10.7,10.7,10.7s10.7-4.8,10.7-10.7v-10.68c0-5.9-4.8-10.7-10.7-10.7ZM166.97,165.1c0,3.82-3.11,6.92-6.92,6.92s-6.92-3.11-6.92-6.92v-10.68c0-3.82,3.11-6.92,6.92-6.92s6.92,3.11,6.92,6.92v10.68Z"/>
  <path class="cls-1" d="M137.83,172.03h-4.62v-26.42c0-.76-.46-1.45-1.16-1.74-.7-.29-1.51-.13-2.06.4l-6.51,6.45c-.74.73-.75,1.93-.01,2.67.73.74,1.93.75,2.67.01l3.29-3.26v21.89h-4.62c-1.04,0-1.89.85-1.89,1.89s.85,1.89,1.89,1.89h13.02c1.04,0,1.89-.85,1.89-1.89s-.85-1.89-1.89-1.89Z"/>
  <path class="cls-1" d="M180,61.92c0-18.84-15.33-34.16-34.16-34.16-4.88,0-9.73,1.06-14.15,3.07-7.52-16.24-23.67-26.63-41.69-26.63s-34.17,10.39-41.69,26.63c-4.42-2.01-9.27-3.07-14.15-3.07C15.33,27.76,0,43.08,0,61.92s15.33,34.16,34.16,34.16h32.14c1.04,0,1.89-.85,1.89-1.89v-16.59c0-1.04-.85-1.89-1.89-1.89h-7.59l19.44-16.74,19.44,16.74h-7.59c-1.04,0-1.89.85-1.89,1.89v31.29h-10.79c-.79,0-1.5.49-1.77,1.23s-.06,1.57.54,2.09l24.52,21.12c.35.3.79.46,1.23.46s.88-.15,1.23-.46l24.52-21.12c.6-.52.81-1.35.54-2.09-.27-.74-.98-1.23-1.77-1.23h-10.79v-12.81h30.25c18.84,0,34.16-15.33,34.16-34.16ZM145.84,92.31h-32.14c-1.04,0-1.89.85-1.89,1.89v16.59c0,1.04.85,1.89,1.89,1.89h7.59l-19.44,16.74-19.44-16.74h7.59c1.04,0,1.89-.85,1.89-1.89v-31.29h10.79c.79,0,1.5-.49,1.77-1.23.27-.74.06-1.57-.54-2.09l-24.52-21.12c-.71-.61-1.76-.61-2.46,0l-24.52,21.12c-.6.51-.81,1.35-.54,2.09.27.74.98,1.23,1.77,1.23h10.79v12.81h-30.25c-16.76,0-30.39-13.63-30.39-30.39s13.63-30.39,30.39-30.39c4.94,0,9.85,1.22,14.2,3.52.47.25,1.02.29,1.53.11.5-.18.9-.56,1.1-1.06,6.53-15.88,21.84-26.14,39-26.14s32.47,10.26,39,26.14c.2.49.6.88,1.1,1.06.5.18,1.05.14,1.53-.11,4.35-2.3,9.26-3.52,14.2-3.52,16.75,0,30.39,13.63,30.39,30.39s-13.63,30.39-30.39,30.39Z"/>
</svg>