<?xml version="1.0" encoding="UTF-8"?>
<svg id="AI_Data_Science_Systems" data-name="AI, Data Science &amp;amp; Systems" xmlns="http://www.w3.org/2000/svg" viewBox="0 0 180 180">
  <defs>
    <style>
      .cls-1 {
        stroke: #000;
        stroke-miterlimit: 10;
        stroke-width: 2px;
      }
    </style>
  </defs>
  <path class="cls-1" d="M90,64.12c18.21,0,37.56-5,37.56-14.26V14.26c0-9.26-19.35-14.26-37.56-14.26s-37.56,5-37.56,14.26v35.6c0,9.26,19.35,14.26,37.56,14.26ZM90,60.26c-19.29,0-33.7-5.49-33.7-10.4v-11.22c6.55,5.03,20.42,7.69,33.7,7.69s27.15-2.66,33.7-7.69v11.22c0,4.91-14.41,10.4-33.7,10.4ZM123.7,32.06c0,4.91-14.41,10.4-33.7,10.4s-33.7-5.49-33.7-10.4v-11.22c6.55,5.03,20.42,7.69,33.7,7.69s27.15-2.66,33.7-7.69v11.22ZM90,3.87c19.29,0,33.7,5.49,33.7,10.4s-14.41,10.4-33.7,10.4-33.7-5.49-33.7-10.4,14.41-10.4,33.7-10.4Z"/>
  <path class="cls-1" d="M107.62,140.89h-15.69v-60.52c0-1.07-.87-1.93-1.93-1.93s-1.93.87-1.93,1.93v60.52h-15.69c-1.07,0-1.93.87-1.93,1.93v35.24c0,1.07.87,1.93,1.93,1.93h35.24c1.07,0,1.93-.87,1.93-1.93v-35.24c0-1.07-.87-1.93-1.93-1.93ZM105.69,176.13h-31.38v-31.38h31.38v31.38Z"/>
  <path class="cls-1" d="M178.07,140.89h-15.69v-14.41c0-.68-.36-1.32-.95-1.67l-47.62-28.03v-16.42c0-1.07-.87-1.93-1.93-1.93s-1.93.87-1.93,1.93v17.52c0,.68.36,1.32.95,1.67l47.62,28.03v13.3h-15.69c-1.07,0-1.93.87-1.93,1.93v35.24c0,1.07.87,1.93,1.93,1.93h35.24c1.07,0,1.93-.87,1.93-1.93v-35.24c0-1.07-.87-1.93-1.93-1.93ZM176.13,176.13h-31.38v-31.38h31.38v31.38Z"/>
  <path class="cls-1" d="M68.13,78.44c-1.07,0-1.93.87-1.93,1.93v15.24l-47.62,28.03c-.59.35-.95.98-.95,1.67v15.59H1.93C.87,140.89,0,141.76,0,142.82v35.24c0,1.07.87,1.93,1.93,1.93h35.24c1.07,0,1.93-.87,1.93-1.93v-35.24c0-1.07-.87-1.93-1.93-1.93h-15.69v-14.48l47.62-28.03c.59-.35.95-.98.95-1.67v-16.34c0-1.07-.87-1.93-1.93-1.93ZM35.24,176.13H3.87v-31.38h31.38v31.38Z"/>
</svg>