<?xml version="1.0" encoding="UTF-8"?>
<svg id="AI_Data_Science_Systems" data-name="AI, Data Science &amp;amp; Systems" xmlns="http://www.w3.org/2000/svg" viewBox="0 0 180 180">
  <defs>
    <style>
      .cls-1 {
        stroke: #000;
        stroke-miterlimit: 10;
        stroke-width: 2px;
      }
    </style>
  </defs>
  <path class="cls-1" d="M140.22,47.54c-1.06-.15-2.06.58-2.21,1.65-.16,1.07.58,2.06,1.65,2.21,25.03,3.65,31.64,8.8,31.64,11.01,0,1.89-4.8,6.02-22.81,9.52-15.61,3.03-36.38,4.7-58.5,4.7s-42.89-1.67-58.5-4.7c-18-3.5-22.81-7.63-22.81-9.52,0-2.21,6.61-7.36,31.65-11.01,1.07-.16,1.8-1.15,1.65-2.21-.15-1.07-1.14-1.8-2.21-1.65-15.96,2.33-34.98,6.8-34.98,14.87v19.64c0,1.71.85,3.28,2.39,4.72.08.11,66.88,55.23,66.88,55.23v33.37c0,3.82,8.66,4.63,15.93,4.63s15.93-.8,15.93-4.63v-33.37s66.8-55.12,66.88-55.23c1.54-1.44,2.39-3.01,2.39-4.72v-19.64c0-8.07-19.02-12.55-34.98-14.87ZM90,80.54c28.57,0,68.76-3.36,81.3-12.19v13.71c0,1.89-4.8,6.02-22.81,9.52-15.61,3.03-36.38,4.7-58.5,4.7s-42.89-1.67-58.5-4.7c-18-3.5-22.81-7.63-22.81-9.52v-13.71c12.54,8.83,52.73,12.19,81.3,12.19ZM102.74,139.58c-.45.37-.71.92-.71,1.51v33.58c-1.33.59-5.52,1.44-12.03,1.44s-10.7-.85-12.03-1.44v-33.58c0-.58-.26-1.13-.71-1.51l-56.26-46.41c17.83,5,46.89,7.01,69,7.01s51.17-2.01,69-7.01l-56.26,46.41Z"/>
  <path class="cls-1" d="M90,67.79c5.86,0,10.62-4.76,10.62-10.62,0-5.19-3.74-9.51-8.67-10.43v-30.05c0-1.08-.87-1.95-1.95-1.95s-1.95.87-1.95,1.95v30.05c-4.93.92-8.67,5.24-8.67,10.43,0,5.86,4.76,10.62,10.62,10.62ZM90,50.45c3.71,0,6.72,3.01,6.72,6.72s-3.01,6.72-6.72,6.72-6.72-3.01-6.72-6.72,3.01-6.72,6.72-6.72Z"/>
  <path class="cls-1" d="M59.65,53.05c5.86,0,10.62-4.76,10.62-10.62,0-5.19-3.74-9.51-8.67-10.43V1.95c0-1.08-.87-1.95-1.95-1.95s-1.95.87-1.95,1.95v30.05c-4.93.92-8.67,5.24-8.67,10.43,0,5.86,4.76,10.62,10.62,10.62ZM59.65,35.71c3.71,0,6.72,3.01,6.72,6.72s-3.01,6.72-6.72,6.72-6.72-3.01-6.72-6.72,3.01-6.72,6.72-6.72Z"/>
  <path class="cls-1" d="M120.35,53.05c5.86,0,10.62-4.76,10.62-10.62,0-5.19-3.74-9.51-8.67-10.43V1.95c0-1.08-.87-1.95-1.95-1.95s-1.95.87-1.95,1.95v30.05c-4.93.92-8.67,5.24-8.67,10.43,0,5.86,4.76,10.62,10.62,10.62ZM120.35,35.71c3.71,0,6.72,3.01,6.72,6.72s-3.01,6.72-6.72,6.72-6.72-3.01-6.72-6.72,3.01-6.72,6.72-6.72Z"/>
</svg>