<?xml version="1.0" encoding="UTF-8"?>
<svg id="AI_Data_Science_Systems" data-name="AI, Data Science &amp;amp; Systems" xmlns="http://www.w3.org/2000/svg" viewBox="0 0 180 180">
  <defs>
    <style>
      .cls-1 {
        stroke: #000;
        stroke-miterlimit: 10;
        stroke-width: 2px;
      }
    </style>
  </defs>
  <path class="cls-1" d="M164.44,1.56H15.56C6.98,1.56,0,8.54,0,17.12v109.75c0,8.58,6.98,15.56,15.56,15.56h57.8v11.29l-21.46,10.45c-.7.34-1.14,1.05-1.14,1.83v10.41c0,1.12.91,2.03,2.03,2.03h74.43c1.12,0,2.03-.91,2.03-2.03v-10.41c0-.78-.44-1.49-1.14-1.83l-21.46-10.45v-11.29h57.8c8.58,0,15.56-6.98,15.56-15.56V17.12c0-8.58-6.98-15.56-15.56-15.56ZM103.72,156.82l21.46,10.45v7.11H54.82v-7.11l21.46-10.45c.7-.34,1.14-1.05,1.14-1.83v-12.56h25.16v12.56c0,.78.44,1.49,1.14,1.83ZM175.94,126.87c0,6.34-5.16,11.5-11.5,11.5H15.56c-6.34,0-11.5-5.16-11.5-11.5V17.12c0-6.34,5.16-11.5,11.5-11.5h148.87c6.34,0,11.5,5.16,11.5,11.5v109.75Z"/>
  <path class="cls-1" d="M163.53,15.99H16.47c-1.12,0-2.03.91-2.03,2.03v107.95c0,1.12.91,2.03,2.03,2.03h147.07c1.12,0,2.03-.91,2.03-2.03V18.02c0-1.12-.91-2.03-2.03-2.03ZM161.5,123.94H18.5V20.05h143.01v103.89Z"/>
  <path class="cls-1" d="M42.87,90.97c6.09,0,11.05-4.96,11.05-11.05,0-2.57-.89-4.92-2.36-6.8l17.08-19.4c1.66.99,3.58,1.57,5.65,1.57s3.99-.58,5.65-1.57l17.08,19.4c-1.47,1.88-2.36,4.24-2.36,6.8,0,6.09,4.96,11.05,11.05,11.05s11.05-4.96,11.05-11.05c0-2.57-.89-4.92-2.36-6.8l17.08-19.4c1.65.99,3.58,1.57,5.65,1.57,6.09,0,11.05-4.96,11.05-11.05s-4.96-11.05-11.05-11.05-11.05,4.96-11.05,11.05c0,2.57.89,4.92,2.36,6.8l-17.08,19.4c-1.66-.99-3.58-1.57-5.65-1.57s-3.99.58-5.65,1.57l-17.08-19.4c1.47-1.88,2.36-4.24,2.36-6.8,0-6.09-4.96-11.05-11.05-11.05s-11.05,4.96-11.05,11.05c0,2.57.89,4.92,2.36,6.8l-17.08,19.4c-1.66-.99-3.58-1.57-5.65-1.57-6.09,0-11.05,4.96-11.05,11.05s4.96,11.05,11.05,11.05ZM137.13,37.24c3.86,0,6.99,3.14,6.99,6.99s-3.14,6.99-6.99,6.99-6.99-3.14-6.99-6.99,3.14-6.99,6.99-6.99ZM112.7,79.91c0,3.86-3.14,6.99-6.99,6.99s-6.99-3.14-6.99-6.99,3.14-6.99,6.99-6.99,6.99,3.14,6.99,6.99ZM74.29,37.24c3.86,0,6.99,3.14,6.99,6.99s-3.14,6.99-6.99,6.99-6.99-3.14-6.99-6.99,3.14-6.99,6.99-6.99ZM42.87,72.92c3.86,0,6.99,3.14,6.99,6.99s-3.14,6.99-6.99,6.99-6.99-3.14-6.99-6.99,3.14-6.99,6.99-6.99Z"/>
  <path class="cls-1" d="M42.87,99.54c-1.12,0-2.03.91-2.03,2.03v8.26c0,1.12.91,2.03,2.03,2.03s2.03-.91,2.03-2.03v-8.26c0-1.12-.91-2.03-2.03-2.03Z"/>
  <path class="cls-1" d="M74.29,63.86c-1.12,0-2.03.91-2.03,2.03v43.94c0,1.12.91,2.03,2.03,2.03s2.03-.91,2.03-2.03v-43.94c0-1.12-.91-2.03-2.03-2.03Z"/>
  <path class="cls-1" d="M105.71,99.54c-1.12,0-2.03.91-2.03,2.03v8.26c0,1.12.91,2.03,2.03,2.03s2.03-.91,2.03-2.03v-8.26c0-1.12-.91-2.03-2.03-2.03Z"/>
  <path class="cls-1" d="M137.13,63.86c-1.12,0-2.03.91-2.03,2.03v43.94c0,1.12.91,2.03,2.03,2.03s2.03-.91,2.03-2.03v-43.94c0-1.12-.91-2.03-2.03-2.03Z"/>
</svg>