<?xml version="1.0" encoding="UTF-8"?>
<svg id="AI_Data_Science_Systems" data-name="AI, Data Science &amp;amp; Systems" xmlns="http://www.w3.org/2000/svg" viewBox="0 0 180 180">
  <defs>
    <style>
      .cls-1 {
        stroke: #000;
        stroke-miterlimit: 10;
        stroke-width: 2px;
      }
    </style>
  </defs>
  <path class="cls-1" d="M168.36,50.37c6.42,0,11.64-5.22,11.64-11.64V11.64c0-6.42-5.22-11.64-11.64-11.64H11.64C5.22,0,0,5.22,0,11.64v27.09c0,6.42,5.22,11.64,11.64,11.64h76.23v14.45H11.64c-6.42,0-11.64,5.22-11.64,11.64v27.09c0,6.42,5.22,11.64,11.64,11.64h76.23v14.45H11.64c-6.42,0-11.64,5.22-11.64,11.64v27.09c0,6.42,5.22,11.64,11.64,11.64h156.73c6.42,0,11.64-5.22,11.64-11.64v-27.09c0-6.42-5.22-11.64-11.64-11.64h-76.23v-14.45h76.23c6.42,0,11.64-5.22,11.64-11.64v-27.09c0-6.42-5.22-11.64-11.64-11.64h-76.23v-14.45h76.23ZM4.27,38.73V11.64c0-4.06,3.3-7.36,7.36-7.36h156.73c4.06,0,7.36,3.3,7.36,7.36v27.09c0,4.06-3.3,7.36-7.36,7.36H11.64c-4.06,0-7.36-3.3-7.36-7.36ZM175.73,141.27v27.09c0,4.06-3.3,7.36-7.36,7.36H11.64c-4.06,0-7.36-3.3-7.36-7.36v-27.09c0-4.06,3.3-7.36,7.36-7.36h156.73c4.06,0,7.36,3.3,7.36,7.36ZM175.73,76.45v27.09c0,4.06-3.3,7.36-7.36,7.36H11.64c-4.06,0-7.36-3.3-7.36-7.36v-27.09c0-4.06,3.3-7.36,7.36-7.36h156.73c4.06,0,7.36,3.3,7.36,7.36Z"/>
  <path class="cls-1" d="M34.67,13.55c-6.42,0-11.64,5.22-11.64,11.64s5.22,11.64,11.64,11.64,11.64-5.22,11.64-11.64-5.22-11.64-11.64-11.64ZM34.67,32.54c-4.06,0-7.36-3.3-7.36-7.36s3.3-7.36,7.36-7.36,7.36,3.3,7.36,7.36-3.3,7.36-7.36,7.36Z"/>
  <path class="cls-1" d="M72.82,14.39c-1.18,0-2.14.96-2.14,2.14v17.31c0,1.18.96,2.14,2.14,2.14s2.14-.96,2.14-2.14v-17.31c0-1.18-.96-2.14-2.14-2.14Z"/>
  <path class="cls-1" d="M92.14,33.84v-17.31c0-1.18-.96-2.14-2.14-2.14s-2.14.96-2.14,2.14v17.31c0,1.18.96,2.14,2.14,2.14s2.14-.96,2.14-2.14Z"/>
  <path class="cls-1" d="M107.18,35.98c1.18,0,2.14-.96,2.14-2.14v-17.31c0-1.18-.96-2.14-2.14-2.14s-2.14.96-2.14,2.14v17.31c0,1.18.96,2.14,2.14,2.14Z"/>
  <path class="cls-1" d="M124.35,35.98c1.18,0,2.14-.96,2.14-2.14v-17.31c0-1.18-.96-2.14-2.14-2.14s-2.14.96-2.14,2.14v17.31c0,1.18.96,2.14,2.14,2.14Z"/>
  <path class="cls-1" d="M141.53,35.98c1.18,0,2.14-.96,2.14-2.14v-17.31c0-1.18-.96-2.14-2.14-2.14s-2.14.96-2.14,2.14v17.31c0,1.18.96,2.14,2.14,2.14Z"/>
  <path class="cls-1" d="M34.67,78.36c-6.42,0-11.64,5.22-11.64,11.64s5.22,11.64,11.64,11.64,11.64-5.22,11.64-11.64-5.22-11.64-11.64-11.64ZM34.67,97.36c-4.06,0-7.36-3.3-7.36-7.36s3.3-7.36,7.36-7.36,7.36,3.3,7.36,7.36-3.3,7.36-7.36,7.36Z"/>
  <path class="cls-1" d="M72.82,79.21c-1.18,0-2.14.96-2.14,2.14v17.31c0,1.18.96,2.14,2.14,2.14s2.14-.96,2.14-2.14v-17.31c0-1.18-.96-2.14-2.14-2.14Z"/>
  <path class="cls-1" d="M87.86,81.34v17.31c0,1.18.96,2.14,2.14,2.14s2.14-.96,2.14-2.14v-17.31c0-1.18-.96-2.14-2.14-2.14s-2.14.96-2.14,2.14Z"/>
  <path class="cls-1" d="M107.18,100.79c1.18,0,2.14-.96,2.14-2.14v-17.31c0-1.18-.96-2.14-2.14-2.14s-2.14.96-2.14,2.14v17.31c0,1.18.96,2.14,2.14,2.14Z"/>
  <path class="cls-1" d="M124.35,100.79c1.18,0,2.14-.96,2.14-2.14v-17.31c0-1.18-.96-2.14-2.14-2.14s-2.14.96-2.14,2.14v17.31c0,1.18.96,2.14,2.14,2.14Z"/>
  <path class="cls-1" d="M141.53,100.79c1.18,0,2.14-.96,2.14-2.14v-17.31c0-1.18-.96-2.14-2.14-2.14s-2.14.96-2.14,2.14v17.31c0,1.18.96,2.14,2.14,2.14Z"/>
  <path class="cls-1" d="M34.67,143.18c-6.42,0-11.64,5.22-11.64,11.64s5.22,11.64,11.64,11.64,11.64-5.22,11.64-11.64-5.22-11.64-11.64-11.64ZM34.67,162.18c-4.06,0-7.36-3.3-7.36-7.36s3.3-7.36,7.36-7.36,7.36,3.3,7.36,7.36-3.3,7.36-7.36,7.36Z"/>
  <path class="cls-1" d="M72.82,144.02c-1.18,0-2.14.96-2.14,2.14v17.31c0,1.18.96,2.14,2.14,2.14s2.14-.96,2.14-2.14v-17.31c0-1.18-.96-2.14-2.14-2.14Z"/>
  <path class="cls-1" d="M87.86,146.16v17.31c0,1.18.96,2.14,2.14,2.14s2.14-.96,2.14-2.14v-17.31c0-1.18-.96-2.14-2.14-2.14s-2.14.96-2.14,2.14Z"/>
  <path class="cls-1" d="M107.18,165.61c1.18,0,2.14-.96,2.14-2.14v-17.31c0-1.18-.96-2.14-2.14-2.14s-2.14.96-2.14,2.14v17.31c0,1.18.96,2.14,2.14,2.14Z"/>
  <path class="cls-1" d="M124.35,165.61c1.18,0,2.14-.96,2.14-2.14v-17.31c0-1.18-.96-2.14-2.14-2.14s-2.14.96-2.14,2.14v17.31c0,1.18.96,2.14,2.14,2.14Z"/>
  <path class="cls-1" d="M141.53,165.61c1.18,0,2.14-.96,2.14-2.14v-17.31c0-1.18-.96-2.14-2.14-2.14s-2.14.96-2.14,2.14v17.31c0,1.18.96,2.14,2.14,2.14Z"/>
</svg>