<?xml version="1.0" encoding="UTF-8"?>
<svg id="AI_Data_Science_Systems" data-name="AI, Data Science &amp;amp; Systems" xmlns="http://www.w3.org/2000/svg" viewBox="0 0 180 180">
  <defs>
    <style>
      .cls-1 {
        stroke: #000;
        stroke-miterlimit: 10;
        stroke-width: 2px;
      }
    </style>
  </defs>
  <g>
    <g>
      <path class="cls-1" d="M31.32,33.4H2.08c-1.15,0-2.08-.93-2.08-2.08V2.08C0,.93.93,0,2.08,0h29.24c1.15,0,2.08.93,2.08,2.08v29.24c0,1.15-.93,2.08-2.08,2.08ZM4.16,29.24h25.08V4.16H4.16v25.08Z"/>
      <path class="cls-1" d="M31.32,131.14H2.08c-1.15,0-2.08-.93-2.08-2.08v-29.24c0-1.15.93-2.08,2.08-2.08h29.24c1.15,0,2.08.93,2.08,2.08v29.24c0,1.15-.93,2.08-2.08,2.08ZM4.16,126.97h25.08v-25.08H4.16v25.08Z"/>
    </g>
    <g>
      <path class="cls-1" d="M52.61,82.27h-29.24c-1.15,0-2.08-.93-2.08-2.08v-29.24c0-1.15.93-2.08,2.08-2.08h29.24c1.15,0,2.08.93,2.08,2.08v29.24c0,1.15-.93,2.08-2.08,2.08ZM25.45,78.11h25.08v-25.08h-25.08v25.08Z"/>
      <path class="cls-1" d="M52.61,180h-29.24c-1.15,0-2.08-.93-2.08-2.08v-29.24c0-1.15.93-2.08,2.08-2.08h29.24c1.15,0,2.08.93,2.08,2.08v29.24c0,1.15-.93,2.08-2.08,2.08ZM25.45,175.84h25.08v-25.07h-25.08v25.07Z"/>
    </g>
  </g>
  <g>
    <path class="cls-1" d="M177.92,33.4h-29.24c-1.15,0-2.08-.93-2.08-2.08V2.08c0-1.15.93-2.08,2.08-2.08h29.24c1.15,0,2.08.93,2.08,2.08v29.24c0,1.15-.93,2.08-2.08,2.08ZM150.76,29.24h25.08V4.16h-25.08v25.08Z"/>
    <path class="cls-1" d="M177.92,82.27h-29.24c-1.15,0-2.08-.93-2.08-2.08v-29.24c0-1.15.93-2.08,2.08-2.08h29.24c1.15,0,2.08.93,2.08,2.08v29.24c0,1.15-.93,2.08-2.08,2.08ZM150.76,78.11h25.08v-25.08h-25.08v25.08Z"/>
    <path class="cls-1" d="M177.92,131.14h-29.24c-1.15,0-2.08-.93-2.08-2.08v-29.24c0-1.15.93-2.08,2.08-2.08h29.24c1.15,0,2.08.93,2.08,2.08v29.24c0,1.15-.93,2.08-2.08,2.08ZM150.76,126.97h25.08v-25.08h-25.08v25.08Z"/>
    <path class="cls-1" d="M177.92,180h-29.24c-1.15,0-2.08-.93-2.08-2.08v-29.24c0-1.15.93-2.08,2.08-2.08h29.24c1.15,0,2.08.93,2.08,2.08v29.24c0,1.15-.93,2.08-2.08,2.08ZM150.76,175.84h25.08v-25.07h-25.08v25.07Z"/>
  </g>
  <path class="cls-1" d="M97.6,127.93c-.24,0-.48-.04-.72-.13-.82-.3-1.36-1.08-1.36-1.95v-15.72h-23.55c-1.15,0-2.08-.93-2.08-2.08s.93-2.08,2.08-2.08h25.63c1.15,0,2.08.93,2.08,2.08v12.13l25.6-30.17-25.6-30.17v12.13c0,1.15-.93,2.08-2.08,2.08h-25.63c-1.15,0-2.08-.93-2.08-2.08s.93-2.08,2.08-2.08h23.55v-15.72c0-.87.54-1.65,1.36-1.95.82-.3,1.74-.06,2.31.61l30.42,35.84c.66.78.66,1.92,0,2.69l-30.42,35.84c-.4.48-.99.73-1.59.73Z"/>
</svg>