<?xml version="1.0" encoding="UTF-8"?>
<svg id="AI_Data_Science_Systems" data-name="AI, Data Science &amp;amp; Systems" xmlns="http://www.w3.org/2000/svg" viewBox="0 0 180 180">
  <defs>
    <style>
      .cls-1 {
        stroke: #000;
        stroke-miterlimit: 10;
        stroke-width: 2px;
      }
    </style>
  </defs>
  <path class="cls-1" d="M177.81,157.25H22.75V2.19c0-1.15-.93-2.08-2.08-2.08H2.19C1.04.11.11,1.04.11,2.19v157.14c0,1.15.93,2.08,2.08,2.08h16.41v16.41c0,1.15.93,2.08,2.08,2.08h157.14c1.15,0,2.08-.93,2.08-2.08v-18.49c0-1.15-.93-2.08-2.08-2.08ZM4.27,56.65h14.33v48.22H4.27v-48.22ZM4.27,4.27h14.33v48.22H4.27V4.27ZM4.27,109.03h14.33v48.22H4.27v-48.22ZM22.75,161.41h48.22v14.33H22.75v-14.33ZM75.13,161.41h48.22v14.33h-48.22v-14.33ZM175.73,175.73h-48.22v-14.33h48.22v14.33Z"/>
  <path class="cls-1" d="M39.94,142.18c.36.02.72.03,1.07.03,15.9,0,22.94-22.02,29.76-43.32,5.49-17.16,11.17-34.9,20.58-34.9,6.66-.21,10.28,8.28,14.13,17.27,4.24,9.88,8.63,20.09,18.1,19.7,12.45-.06,18.03-21.54,24.48-46.42,1.07-4.13,2.18-8.38,3.32-12.51.57.07,1.14.13,1.73.13,7.26,0,13.17-5.91,13.17-13.17,0-4.82-2.61-9.04-6.49-11.33,4.47-9.32,9.35-13.7,14.84-13.37,1.14.06,2.13-.8,2.2-1.95.07-1.15-.8-2.13-1.95-2.2-7.43-.44-13.64,4.8-18.96,16-.91-.2-1.85-.31-2.81-.31-7.26,0-13.17,5.91-13.17,13.17,0,5.22,3.05,9.72,7.46,11.85-1.15,4.19-2.27,8.48-3.36,12.66-5.52,21.29-11.23,43.3-20.5,43.3-.03,0-.06,0-.09,0-6.62.29-10.28-8.19-14.14-17.18-4.24-9.87-8.63-20.06-18.02-19.79-12.39,0-18.26,18.36-24.48,37.79-6.48,20.26-13.2,41.21-26.62,40.4-1.13-.06-2.13.8-2.2,1.95-.07,1.15.8,2.13,1.95,2.2ZM144.09,28.99c0-4.97,4.04-9.01,9.01-9.01s9.01,4.04,9.01,9.01-4.04,9.01-9.01,9.01-9.01-4.04-9.01-9.01Z"/>
  <path class="cls-1" d="M44.32,31.07h12.27c1.15,0,2.08-.93,2.08-2.08s-.93-2.08-2.08-2.08h-12.27c-1.15,0-2.08.93-2.08,2.08s.93,2.08,2.08,2.08Z"/>
  <path class="cls-1" d="M76.85,31.07h12.27c1.15,0,2.08-.93,2.08-2.08s-.93-2.08-2.08-2.08h-12.27c-1.15,0-2.08.93-2.08,2.08s.93,2.08,2.08,2.08Z"/>
  <path class="cls-1" d="M109.38,31.07h12.27c1.15,0,2.08-.93,2.08-2.08s-.93-2.08-2.08-2.08h-12.27c-1.15,0-2.08.93-2.08,2.08s.93,2.08,2.08,2.08Z"/>
</svg>