<?xml version="1.0" encoding="UTF-8"?>
<svg id="Layer_1" data-name="Layer 1" xmlns="http://www.w3.org/2000/svg" viewBox="0 0 180 180">
  <defs>
    <style>
      .cls-1 {
        stroke: #000;
        stroke-miterlimit: 10;
        stroke-width: 2px;
      }
    </style>
  </defs>
  <path class="cls-1" d="M21.49,170.92h-11.61V14.95l2.26,4.22c.51.96,1.7,1.31,2.66.8.96-.51,1.32-1.7.8-2.66l-5.95-11.13c-.34-.64-1.01-1.04-1.73-1.04s-1.39.4-1.73,1.04L.23,17.32c-.51.96-.15,2.15.8,2.66.29.16.61.23.92.23.7,0,1.38-.38,1.73-1.04l2.26-4.22v157.93c0,1.08.88,1.96,1.96,1.96h13.58c1.08,0,1.96-.88,1.96-1.96s-.88-1.96-1.96-1.96Z"/>
  <g>
    <path class="cls-1" d="M124.5,164.47H52.29c-3.47,0-6.29-2.82-6.29-6.29v-87.68c0-3.47,2.82-6.29,6.29-6.29h72.21c3.47,0,6.29,2.82,6.29,6.29v87.68c0,3.47-2.82,6.29-6.29,6.29ZM52.29,66.47c-2.22,0-4.03,1.81-4.03,4.03v87.68c0,2.22,1.81,4.03,4.03,4.03h72.21c2.22,0,4.03-1.81,4.03-4.03v-87.68c0-2.22-1.81-4.03-4.03-4.03H52.29Z"/>
    <path class="cls-1" d="M116.45,97.99h-56.11c-.62,0-1.13-.51-1.13-1.13v-17.81c0-.62.51-1.13,1.13-1.13h56.11c.62,0,1.13.51,1.13,1.13v17.81c0,.62-.51,1.13-1.13,1.13ZM61.47,95.72h53.85v-15.55h-53.85v15.55Z"/>
    <g>
      <path class="cls-1" d="M74.54,116.01h-11.93c-.62,0-1.13-.51-1.13-1.13v-9.1c0-.62.51-1.13,1.13-1.13h11.93c.62,0,1.13.51,1.13,1.13v9.1c0,.62-.51,1.13-1.13,1.13ZM63.74,113.75h9.67v-6.84h-9.67v6.84Z"/>
      <path class="cls-1" d="M94.36,116.05h-11.93c-.62,0-1.13-.51-1.13-1.13v-9.1c0-.62.51-1.13,1.13-1.13h11.93c.62,0,1.13.51,1.13,1.13v9.1c0,.62-.51,1.13-1.13,1.13ZM83.56,113.79h9.67v-6.84h-9.67v6.84Z"/>
      <path class="cls-1" d="M114.19,116.09h-11.93c-.62,0-1.13-.51-1.13-1.13v-9.1c0-.62.51-1.13,1.13-1.13h11.93c.62,0,1.13.51,1.13,1.13v9.1c0,.62-.51,1.13-1.13,1.13ZM103.38,113.83h9.67v-6.84h-9.67v6.84Z"/>
    </g>
    <g>
      <path class="cls-1" d="M74.54,133.03h-11.93c-.62,0-1.13-.51-1.13-1.13v-9.1c0-.62.51-1.13,1.13-1.13h11.93c.62,0,1.13.51,1.13,1.13v9.1c0,.62-.51,1.13-1.13,1.13ZM63.74,130.77h9.67v-6.84h-9.67v6.84Z"/>
      <path class="cls-1" d="M94.36,133.07h-11.93c-.62,0-1.13-.51-1.13-1.13v-9.1c0-.62.51-1.13,1.13-1.13h11.93c.62,0,1.13.51,1.13,1.13v9.1c0,.62-.51,1.13-1.13,1.13ZM83.56,130.81h9.67v-6.84h-9.67v6.84Z"/>
      <path class="cls-1" d="M114.19,133.11h-11.93c-.62,0-1.13-.51-1.13-1.13v-9.1c0-.62.51-1.13,1.13-1.13h11.93c.62,0,1.13.51,1.13,1.13v9.1c0,.62-.51,1.13-1.13,1.13ZM103.38,130.85h9.67v-6.84h-9.67v6.84Z"/>
    </g>
    <path class="cls-1" d="M74.54,150.05h-11.93c-.62,0-1.13-.51-1.13-1.13v-9.1c0-.62.51-1.13,1.13-1.13h11.93c.62,0,1.13.51,1.13,1.13v9.1c0,.62-.51,1.13-1.13,1.13ZM63.74,147.79h9.67v-6.84h-9.67v6.84Z"/>
    <path class="cls-1" d="M114.19,150.09h-31.76c-.62,0-1.13-.51-1.13-1.13v-9.1c0-.62.51-1.13,1.13-1.13h31.76c.62,0,1.13.51,1.13,1.13v9.1c0,.62-.51,1.13-1.13,1.13ZM83.56,147.83h29.49v-6.84h-29.49v6.84Z"/>
  </g>
  <path class="cls-1" d="M54.88,49.12h3.93v-5.83c0-1.08-.88-1.96-1.96-1.96h-24.14c-1.08,0-1.96.88-1.96,1.96v113.17c0,1.08.88,1.96,1.96,1.96s1.96-.88,1.96-1.96V45.25h20.21v3.87Z"/>
  <path class="cls-1" d="M54.88,46.53v9.27c0,1.08.88,1.96,1.96,1.96s1.96-.88,1.96-1.96v-9.27h-3.93Z"/>
  <g>
    <path class="cls-1" d="M86.43,41.15v14.64c0,1.08.88,1.96,1.96,1.96s1.96-.88,1.96-1.96v-14.64h-3.93Z"/>
    <path class="cls-1" d="M112.53,5.16h-24.14c-1.08,0-1.96.88-1.96,1.96v34.21h3.93V9.08h20.21v54.48c0,1.08.88,1.96,1.96,1.96s1.96-.88,1.96-1.96V7.12c0-1.08-.88-1.96-1.96-1.96Z"/>
  </g>
  <rect class="cls-1" x="43.47" y="139.18" width="3.93" height="67.41" transform="translate(218.31 127.45) rotate(90)"/>
  <path class="cls-1" d="M178.04,170.92h-7.85V43.29c0-1.08-.88-1.96-1.96-1.96h-24.14c-1.08,0-1.96.88-1.96,1.96v127.63h-67.43c-1.08,0-1.96.88-1.96,1.96s.88,1.96,1.96,1.96h103.35c1.08,0,1.96-.88,1.96-1.96s-.88-1.96-1.96-1.96ZM166.26,170.92h-20.21V45.25h20.21v125.66Z"/>
  <rect class="cls-1" x="30.75" y="150.09" width="3.93" height="23.43"/>
  <rect class="cls-1" x="110.57" y="164.47" width="3.93" height="8.41"/>
  <rect class="cls-1" x="54.88" y="163.16" width="3.93" height="9.72"/>
  <rect class="cls-1" x="86.43" y="163.66" width="3.93" height="8.06"/>
</svg>