<?xml version="1.0" encoding="UTF-8"?>
<svg id="Layer_1" data-name="Layer 1" xmlns="http://www.w3.org/2000/svg" viewBox="0 0 180 180">
  <defs>
    <style>
      .cls-1 {
        stroke-width: 2px;
      }

      .cls-1, .cls-2 {
        stroke: #000;
        stroke-miterlimit: 10;
      }

      .cls-2 {
        stroke-width: .5px;
      }
    </style>
  </defs>
  <path class="cls-2" d="M157.5,32.14h-8c-12.77,0-25.2-4.5-35.01-12.68L92.06.75c-1.19-1-2.93-1-4.12,0l-22.47,18.73c-9.8,8.17-22.23,12.66-34.98,12.66h-7.98c-1.78,0-3.21,1.44-3.21,3.21v65.46c0,20.47,10.17,39.46,27.2,50.81l41.74,27.82c.54.36,1.16.54,1.78.54s1.24-.18,1.78-.54l41.74-27.82c17.03-11.35,27.2-30.35,27.2-50.81V35.36c0-1.78-1.44-3.21-3.21-3.21ZM154.29,100.82c0,18.31-9.1,35.31-24.33,45.47l-39.95,26.64-39.95-26.64c-15.24-10.16-24.33-27.15-24.33-45.47v-62.25h4.77c14.26,0,28.14-5.03,39.1-14.16l20.42-17.02,20.37,17c10.96,9.14,24.85,14.18,39.12,14.18h4.79v62.25Z"/>
  <rect class="cls-1" x="98.69" y="57.17" width="6.43" height="65.67" transform="translate(89.97 -45.43) rotate(43.51)"/>
  <circle class="cls-1" cx="124.51" cy="66.19" r="3.21"/>
  <circle class="cls-1" cx="79.3" cy="113.81" r="3.21"/>
  <rect class="cls-1" x="64.18" y="86.09" width="6.43" height="32.83" transform="translate(-53.35 80.81) rotate(-46.49)"/>
  <circle class="cls-1" cx="55.49" cy="91.21" r="3.21"/>
  <circle class="cls-1" cx="79.3" cy="113.81" r="3.21"/>
</svg>