<?xml version="1.0" encoding="UTF-8"?>
<svg id="Layer_1" data-name="Layer 1" xmlns="http://www.w3.org/2000/svg" viewBox="0 0 180 180">
  <defs>
    <style>
      .cls-1 {
        stroke: #000;
        stroke-miterlimit: 10;
        stroke-width: 2px;
      }
    </style>
  </defs>
  <g>
    <path class="cls-1" d="M124.77,56.82c-.64-.44-1.51-.28-1.95.36l-26.16,37.91c-.44.64-.28,1.51.36,1.95.24.17.52.25.8.25.45,0,.88-.21,1.16-.61l26.16-37.91c.44-.64.28-1.51-.36-1.95Z"/>
    <path class="cls-1" d="M136.84,65.15c-.64-.44-1.51-.28-1.95.36l-26.16,37.91c-.44.64-.28,1.51.36,1.95.24.17.52.25.8.25.45,0,.88-.21,1.16-.61l26.16-37.91c.44-.64.28-1.51-.36-1.95Z"/>
  </g>
  <g>
    <path class="cls-1" d="M66.43,39.83h33.36c1.15,0,2.08-.93,2.08-2.08s-.93-2.08-2.08-2.08h-33.36c-1.15,0-2.08.93-2.08,2.08s.93,2.08,2.08,2.08Z"/>
    <path class="cls-1" d="M75.14,140.02h-16.15c-5.01,0-9.09-4.08-9.09-9.09,0-1.15-.93-2.08-2.08-2.08s-2.08.93-2.08,2.08c0,5.01-4.08,9.09-9.09,9.09-1.15,0-2.08.93-2.08,2.08s.93,2.08,2.08,2.08c4.69,0,8.82-2.45,11.18-6.13,2.36,3.68,6.49,6.13,11.18,6.13h16.15c1.15,0,2.08-.93,2.08-2.08s-.93-2.08-2.08-2.08Z"/>
    <path class="cls-1" d="M118.92,140.02h-13.79c-1.15,0-2.08.93-2.08,2.08s.93,2.08,2.08,2.08h13.79c1.15,0,2.08-.93,2.08-2.08s-.93-2.08-2.08-2.08Z"/>
  </g>
  <path class="cls-1" d="M91.76,76.39h-55.56c-1.15,0-2.08.93-2.08,2.08s.93,2.08,2.08,2.08h52.69l2.87-4.16Z"/>
  <path class="cls-1" d="M76.37,99.13c0-.29.08-.57.25-.81l1.09-1.57h-41.51c-1.15,0-2.08.93-2.08,2.08s.93,2.08,2.08,2.08h40.19l-.02-1.78Z"/>
  <path class="cls-1" d="M105.8,56.03H36.19c-1.15,0-2.08.93-2.08,2.08s.93,2.08,2.08,2.08h66.74l2.87-4.16Z"/>
  <path class="cls-1" d="M155.06,67.59v101.07c0,3.95-3.22,7.17-7.17,7.17H18.33c-3.95,0-7.17-3.22-7.17-7.17V11.34c0-3.95,3.22-7.17,7.17-7.17h105.69v25.46l4.16-6.04V7.11l6.73,6.73,2.4-3.48L127.58.61c-.39-.39-.92-.61-1.47-.61H18.33C12.08,0,6.99,5.09,6.99,11.34v157.33c0,6.25,5.09,11.34,11.34,11.34h129.56c6.25,0,11.34-5.09,11.34-11.34V61.55l-4.16,6.04Z"/>
  <path class="cls-1" d="M176.97,23.49l-27.23-18.79c-1.54-1.06-3.4-1.46-5.25-1.12-1.85.34-3.45,1.37-4.51,2.91l-63.37,91.83c-.16.24-.25.52-.25.81l.34,38.51c0,.46.23.88.61,1.14.24.16.52.25.8.25.16,0,.33-.03.49-.09l36.12-13.35c.27-.1.5-.28.67-.52l63.37-91.84c2.2-3.18,1.39-7.56-1.79-9.75ZM79.5,135.62l-.13-14.69c3.08-.29,6.13.49,8.7,2.27,2.57,1.78,4.39,4.35,5.21,7.33l-13.78,5.09ZM95.93,129.55c-1.02-3.52-3.2-6.55-6.26-8.66-3.06-2.11-6.67-3.07-10.32-2.78l-.16-18c4.5-.33,8.63,2.79,9.46,7.32.07.37.28.69.58.9.31.21.69.29,1.05.23,2.36-.43,4.74.08,6.71,1.44,1.97,1.36,3.29,3.41,3.73,5.76.14.76.87,1.27,1.63,1.13,2.36-.43,4.74.08,6.71,1.44,1.77,1.22,3.02,3.01,3.56,5.07l-16.69,6.17ZM114.77,121.05c-.86-2.02-2.27-3.76-4.12-5.04-2.22-1.53-4.84-2.24-7.49-2.06-.77-2.54-2.36-4.74-4.58-6.27-2.22-1.53-4.84-2.24-7.49-2.06-1.42-4.68-5.6-7.95-10.37-8.31l48.56-70.38,34.16,23.57-48.67,70.54ZM176.45,31.65l-11.42,16.55-34.16-23.57,3.25-4.71h0l2.06-2.99.12-.18h0l3.98-5.76h0l2.01-2.91c.63-.92,1.59-1.54,2.7-1.74,1.11-.2,2.23.03,3.15.67l27.23,18.79c1.91,1.32,2.39,3.94,1.07,5.85Z"/>
</svg>