<?xml version="1.0" encoding="UTF-8"?>
<svg id="Layer_1" data-name="Layer 1" xmlns="http://www.w3.org/2000/svg" viewBox="0 0 180 180">
  <defs>
    <style>
      .cls-1 {
        stroke: #000;
        stroke-miterlimit: 10;
        stroke-width: 4px;
      }
    </style>
  </defs>
  <path class="cls-1" d="M150,120h-15.79v-3.16h15.79c14.8,0,26.84-12.04,26.84-26.84s-12.04-26.84-26.84-26.84c-1.08,0-2.15.09-3.2.21l-1.97.23.22-1.97c.12-1.05.21-2.12.21-3.2,0-14.8-12.04-26.84-26.84-26.84-1.06,0-2.13.08-3.29.24l-1.06.15-.53-.93c-8.73-15.25-25.01-24.72-42.49-24.72-26.99,0-48.95,21.96-48.95,48.95,0,4.14.56,8.29,1.72,12.67l.43,1.65-1.68.31c-11.25,2.05-19.42,11.83-19.42,23.26,0,13.06,10.62,23.68,23.68,23.68h18.95v3.16h-18.95c-14.8,0-26.84-12.04-26.84-26.84,0-12.39,8.47-23.08,20.37-26.02-.96-4.07-1.42-7.97-1.42-11.88C18.95,26.53,42.32,3.16,71.05,3.16c18.26,0,35.29,9.7,44.7,25.4.91-.09,1.79-.14,2.67-.14,16.54,0,30,13.46,30,30,0,.55-.02,1.09-.06,1.63.54-.03,1.09-.06,1.63-.06,16.54,0,30,13.46,30,30s-13.46,30-30,30Z"/>
  <path class="cls-1" d="M127.89,176.84H52.11c-4.35,0-7.89-3.54-7.89-7.89v-63.16c0-4.35,3.54-7.89,7.89-7.89h75.79c4.35,0,7.89,3.54,7.89,7.89v63.16c0,4.35-3.54,7.89-7.89,7.89ZM52.11,101.05c-2.61,0-4.74,2.12-4.74,4.74v63.16c0,2.61,2.12,4.74,4.74,4.74h75.79c2.61,0,4.74-2.12,4.74-4.74v-63.16c0-2.61-2.12-4.74-4.74-4.74H52.11Z"/>
  <path class="cls-1" d="M123.16,101.05H56.84v-20.53c0-18.28,14.88-33.16,33.16-33.16s33.16,14.87,33.16,33.16v20.53ZM60,97.89h60v-17.37c0-16.54-13.46-30-30-30s-30,13.46-30,30v17.37Z"/>
  <rect class="cls-1" x="88.42" y="143.68" width="3.16" height="6.32"/>
  <rect class="cls-1" x="88.42" y="131.05" width="3.16" height="12.63"/>
</svg>