<?xml version="1.0" encoding="UTF-8"?>
<svg id="Modern_Office" data-name="Modern Office" xmlns="http://www.w3.org/2000/svg" viewBox="0 0 180 180">
  <defs>
    <style>
      .cls-1 {
        stroke: #000;
        stroke-miterlimit: 10;
        stroke-width: 2px;
      }
    </style>
  </defs>
  <path class="cls-1" d="M37.48,31.67c-6.35,4.2-14.24,9.43-13.57,19.01.08,1.14,1.02,2.02,2.16,2.02h22.17c1.2,0,2.17-.97,2.17-2.17s-.97-2.17-2.17-2.17h-19.96c.68-5.84,6.22-9.51,11.59-13.07,5.22-3.46,10.15-6.72,10.52-11.96.12-1.72-.54-4.56-2.83-6.92-1.68-1.73-4.81-3.77-10.15-3.54-9.76.4-12.37,6.45-12.47,6.71-.46,1.11.07,2.38,1.18,2.83,1.11.46,2.38-.07,2.83-1.18.02-.04,1.74-3.75,8.64-4.03,2.96-.13,5.33.65,6.86,2.22,1.27,1.31,1.67,2.9,1.62,3.59-.22,3.11-4.29,5.81-8.59,8.66Z"/>
  <path class="cls-1" d="M58.81,41.46h19.43v9.61c0,1.2.97,2.17,2.17,2.17s2.17-.97,2.17-2.17v-28.02c0-1.2-.97-2.17-2.17-2.17s-2.17.97-2.17,2.17v14.07h-16.11l9.57-21.78c.48-1.1-.02-2.38-1.11-2.86-1.1-.48-2.38.02-2.86,1.11l-10.91,24.82c-.29.67-.23,1.45.17,2.06.4.61,1.08.98,1.82.98Z"/>
  <path class="cls-1" d="M94.45,65.4c.26.1.53.15.79.15.87,0,1.69-.52,2.02-1.38L121.17,2.96c.44-1.12-.12-2.37-1.23-2.81-1.12-.44-2.37.11-2.81,1.23l-23.92,61.21c-.44,1.12.12,2.37,1.23,2.81Z"/>
  <path class="cls-1" d="M130.51,16.64h21.21c-.5,7.25-3.54,10.42-7.02,14.05-4.04,4.21-8.62,8.98-8.99,20.32-.04,1.2.9,2.2,2.1,2.24.02,0,.05,0,.07,0,1.17,0,2.13-.93,2.17-2.1.31-9.67,3.94-13.45,7.78-17.45,4.08-4.25,8.3-8.65,8.3-19.22,0-1.2-.97-2.17-2.17-2.17h-23.45c-1.2,0-2.17.97-2.17,2.17s.97,2.17,2.17,2.17Z"/>
  <path class="cls-1" d="M172.41,75.71H7.59c-1.2,0-2.17.97-2.17,2.17v99.96c0,1.2.97,2.17,2.17,2.17h164.81c1.2,0,2.17-.97,2.17-2.17v-99.96c0-1.2-.97-2.17-2.17-2.17ZM87.83,175.66h-47.56v-71.56h47.56v71.56ZM92.17,175.66v-71.56h47.56v71.56h-47.56ZM170.24,175.66h-26.18v-73.73c0-1.2-.97-2.17-2.17-2.17H38.11c-1.2,0-2.17.97-2.17,2.17v73.73H9.76v-95.62h160.48v95.62Z"/>
  <path class="cls-1" d="M54.21,139.56c.45,0,.91-.14,1.3-.44l19.69-14.87c.96-.72,1.15-2.08.42-3.04-.72-.95-2.08-1.15-3.04-.42l-19.69,14.87c-.96.72-1.15,2.08-.42,3.04.43.56,1.08.86,1.73.86Z"/>
  <path class="cls-1" d="M54.21,159.41c.45,0,.91-.14,1.3-.44l19.69-14.87c.96-.72,1.15-2.08.42-3.04-.72-.95-2.08-1.15-3.04-.42l-19.69,14.86c-.96.72-1.15,2.08-.42,3.04.43.56,1.08.86,1.73.86Z"/>
  <path class="cls-1" d="M124.48,120.8l-19.69,14.87c-.96.72-1.15,2.08-.42,3.04.43.56,1.08.86,1.73.86.45,0,.91-.14,1.3-.44l19.69-14.87c.96-.72,1.15-2.08.42-3.04-.72-.95-2.08-1.15-3.04-.42Z"/>
  <path class="cls-1" d="M124.48,140.64l-19.69,14.86c-.96.72-1.15,2.08-.42,3.04.43.56,1.08.86,1.73.86.45,0,.91-.14,1.3-.44l19.69-14.87c.96-.72,1.15-2.08.42-3.04-.72-.95-2.08-1.15-3.04-.42Z"/>
</svg>