<?xml version="1.0" encoding="UTF-8"?>
<svg id="Modern_Office" data-name="Modern Office" xmlns="http://www.w3.org/2000/svg" viewBox="0 0 180 180">
  <defs>
    <style>
      .cls-1 {
        stroke: #000;
        stroke-miterlimit: 10;
        stroke-width: 2px;
      }
    </style>
  </defs>
  <path class="cls-1" d="M177.69,19.38c1.27,0,2.31-1.03,2.31-2.31V2.31c0-1.27-1.03-2.31-2.31-2.31H2.31C1.03,0,0,1.03,0,2.31v14.77C0,18.35,1.03,19.38,2.31,19.38h2.31v80.84h-2.31C1.03,100.22,0,101.26,0,102.53v14.77C0,118.57,1.03,119.61,2.31,119.61h52.54l-17.81,55.78h-3.78c-1.27,0-2.31,1.03-2.31,2.31s1.03,2.31,2.31,2.31h11.24c1.27,0,2.31-1.03,2.31-2.31s-1.03-2.31-2.31-2.31h-2.62l17.81-55.78h60.61l17.8,55.78h-2.61c-1.27,0-2.31,1.03-2.31,2.31s1.03,2.31,2.31,2.31h11.24c1.27,0,2.31-1.03,2.31-2.31s-1.03-2.31-2.31-2.31h-3.78l-17.8-55.78h52.54c1.27,0,2.31-1.03,2.31-2.31v-14.77c0-1.27-1.03-2.31-2.31-2.31h-2.31V19.38h2.31ZM4.62,4.62h170.77v10.15H4.62V4.62ZM175.38,114.99H4.62v-10.15h170.77v10.15ZM170.77,100.22H9.23V19.38h161.54v80.84Z"/>
  <path class="cls-1" d="M94.15,158.83h-1.85v-26.77c0-1.27-1.03-2.31-2.31-2.31s-2.31,1.03-2.31,2.31v26.77h-1.85c-1.27,0-2.31,1.03-2.31,2.31s1.03,2.31,2.31,2.31h8.31c1.27,0,2.31-1.03,2.31-2.31s-1.03-2.31-2.31-2.31Z"/>
  <path class="cls-1" d="M127.94,43.65h19.21c1.27,0,2.31-1.03,2.31-2.31s-1.03-2.31-2.31-2.31h-19.21c-1.27,0-2.31,1.03-2.31,2.31s1.03,2.31,2.31,2.31Z"/>
  <path class="cls-1" d="M127.94,62.11h19.21c1.27,0,2.31-1.03,2.31-2.31s-1.03-2.31-2.31-2.31h-19.21c-1.27,0-2.31,1.03-2.31,2.31s1.03,2.31,2.31,2.31Z"/>
  <path class="cls-1" d="M127.94,80.57h19.21c1.27,0,2.31-1.03,2.31-2.31s-1.03-2.31-2.31-2.31h-19.21c-1.27,0-2.31,1.03-2.31,2.31s1.03,2.31,2.31,2.31Z"/>
  <path class="cls-1" d="M30.63,80.2c.39.25.82.37,1.26.37.75,0,1.49-.37,1.94-1.05l11.33-17.41h7.78c.78,0,1.51-.39,1.93-1.05l11.33-17.41h6.53l11.33,17.41c.43.65,1.15,1.05,1.93,1.05h9.12c.78,0,1.51-.39,1.93-1.05l8.34-12.81c.42.49,1.04.81,1.74.81,1.27,0,2.31-1.03,2.31-2.31v-5.42s0,0,0,0c0-.75-.37-1.48-1.05-1.92-.67-.44-1.49-.48-2.18-.18,0,0,0,0-.01,0l-5.01,2.2c-1.17.51-1.7,1.87-1.18,3.04.29.66.85,1.11,1.49,1.29l-7.64,11.73h-6.61l-11.33-17.41c-.43-.65-1.15-1.05-1.93-1.05h-9.03c-.78,0-1.51.39-1.93,1.05l-11.33,17.41h-7.78c-.78,0-1.51.39-1.93,1.05l-12.02,18.46c-.69,1.07-.39,2.5.68,3.19Z"/>
  <path class="cls-1" d="M58.01,75.96h-8.54c-1.27,0-2.31,1.03-2.31,2.31s1.03,2.31,2.31,2.31h8.54c1.27,0,2.31-1.03,2.31-2.31s-1.03-2.31-2.31-2.31Z"/>
  <path class="cls-1" d="M80.1,75.96h-8.54c-1.27,0-2.31,1.03-2.31,2.31s1.03,2.31,2.31,2.31h8.54c1.27,0,2.31-1.03,2.31-2.31s-1.03-2.31-2.31-2.31Z"/>
  <path class="cls-1" d="M102.18,75.96h-8.54c-1.27,0-2.31,1.03-2.31,2.31s1.03,2.31,2.31,2.31h8.54c1.27,0,2.31-1.03,2.31-2.31s-1.03-2.31-2.31-2.31Z"/>
</svg>