<?xml version="1.0" encoding="UTF-8"?>
<svg id="Modern_Office" data-name="Modern Office" xmlns="http://www.w3.org/2000/svg" viewBox="0 0 180 180">
  <defs>
    <style>
      .cls-1 {
        stroke: #000;
        stroke-miterlimit: 10;
        stroke-width: 2px;
      }
    </style>
  </defs>
  <path class="cls-1" d="M172.41,64.33c-1.04-.56-2.34-.16-2.9.88l-15.75,29.56h-32.62c-1.18,0-2.14.96-2.14,2.14s.96,2.14,2.14,2.14h33.91c.79,0,1.52-.44,1.89-1.14l16.35-30.69c.56-1.04.16-2.34-.88-2.9Z"/>
  <path class="cls-1" d="M147.84,113.19c-2.19-4.82-7.03-7.93-12.33-7.93h-25.22c-6.24,0-9.55-4.86-9.59-9.67-.01-1.25-.01-4.16-.02-7.76,1.5.82,3.22,1.28,5.02,1.28h30.69c5.77,0,10.47-4.7,10.47-10.47s-4.7-10.47-10.47-10.47h-23.59l-8.09-20.36c7.83-4.36,13.15-12.72,13.15-22.3C117.88,11.44,106.44,0,92.37,0s-25.51,11.44-25.51,25.51c0,5.34,1.65,10.3,4.47,14.41-3.58,2.55-11.09,8.81-15.76,19.12-3.02-6.57-6.22-11.21-11.01-12.2-4.67-.97-9.99,1.73-16.75,8.48C-.66,83.81-.66,130.15,27.82,158.64c14.24,14.24,32.95,21.36,51.66,21.36s37.41-7.12,51.66-21.36c1.48-1.48,2.77-3,3.89-4.56l7.9,17.35c2.2,4.82,7.04,7.93,12.33,7.93,1.94,0,3.83-.41,5.61-1.22,6.8-3.1,9.81-11.14,6.74-17.88l-19.76-47.07ZM92.37,4.29c11.7,0,21.22,9.52,21.22,21.22s-9.52,21.22-21.22,21.22-21.22-9.52-21.22-21.22,9.52-21.22,21.22-21.22ZM128.1,155.61c-26.81,26.81-70.44,26.81-97.25,0-26.81-26.81-26.81-70.44,0-97.25,4.93-4.93,8.91-7.41,11.87-7.41.34,0,.66.03.97.1,4.7.98,8.1,9.6,12.03,19.59,4.72,11.97,10.59,26.88,21.91,38.19,10.97,10.97,22.82,13.17,35.35,15.5,3.52.65,7.17,1.33,10.84,2.22,5.87,1.42,10.03,5.07,11.42,10.02,1.66,5.9-.95,12.84-7.15,19.04ZM159.09,174.24c-1.22.55-2.51.84-3.83.84-3.62,0-6.93-2.13-8.43-5.42l-9.12-20.03c2.32-4.8,2.95-9.7,1.67-14.22-1.8-6.39-7.23-11.26-14.54-13.03-3.78-.91-7.48-1.6-11.06-2.27-12.38-2.3-23.08-4.29-33.11-14.32-10.69-10.69-16.38-25.13-20.95-36.73-.6-1.51-1.17-2.98-1.75-4.39,3.97-11.89,12.67-18.99,16.09-21.41,4.64,4.79,11.13,7.77,18.31,7.77,2.96,0,5.81-.51,8.45-1.45l8.56,21.53c.32.82,1.11,1.35,1.99,1.35h25.04c3.41,0,6.18,2.77,6.18,6.18s-2.77,6.18-6.18,6.18h-30.69c-2.55,0-4.8-1.53-5.74-3.9l-6.52-16.42c-.44-1.1-1.68-1.64-2.78-1.2-1.1.44-1.64,1.68-1.2,2.78l6.52,16.42c.12.31.27.61.42.91,0,5.54,0,10.47.02,12.21.06,7.94,6.03,13.92,13.87,13.92h25.22c3.62,0,6.92,2.13,8.4,5.36l19.76,47.07c2.12,4.64.06,10.15-4.59,12.26Z"/>
</svg>