<?xml version="1.0" encoding="UTF-8"?>
<svg id="Modern_Office" data-name="Modern Office" xmlns="http://www.w3.org/2000/svg" viewBox="0 0 180 180">
  <defs>
    <style>
      .cls-1 {
        stroke: #000;
        stroke-miterlimit: 10;
        stroke-width: 2px;
      }
    </style>
  </defs>
  <path class="cls-1" d="M148.38,62.27H31.62c-1.34,0-2.43,1.09-2.43,2.43v78.81c0,1.34,1.09,2.43,2.43,2.43h116.76c1.34,0,2.43-1.09,2.43-2.43v-78.81c0-1.34-1.09-2.43-2.43-2.43ZM102.08,67.13v5.92l-5.88,4.62c-.59.46-.93,1.17-.93,1.91v3.12h-10.54v-3.12c0-.75-.34-1.45-.93-1.91l-5.88-4.62v-5.92h24.16ZM72.82,141.08c-3.93,0-7.12-3.19-7.12-7.12v-32.73h48.59v32.73c0,3.93-3.19,7.12-7.12,7.12h-34.35ZM119.16,109.62h3.03c5.07,0,9.19,4.12,9.19,9.19s-4.12,9.19-9.19,9.19h-3.03v-18.38ZM145.95,141.08h-29.15c1.48-1.99,2.37-4.45,2.37-7.12v-1.09h3.03c7.75,0,14.06-6.31,14.06-14.06s-6.31-14.06-14.06-14.06h-3.03v-5.96c0-1.34-1.09-2.43-2.43-2.43h-53.46c-1.34,0-2.43,1.09-2.43,2.43v35.16c0,2.67.89,5.13,2.37,7.12h-29.15v-73.95h39v7.1c0,.75.34,1.45.93,1.91l5.88,4.62v4.37c0,1.34,1.09,2.43,2.43,2.43h15.41c1.34,0,2.43-1.09,2.43-2.43v-4.37l5.88-4.62c.59-.46.93-1.17.93-1.91v-7.1h39v73.95Z"/>
  <path class="cls-1" d="M148.38,22.48h-44.84c-1.34,0-2.43,1.09-2.43,2.43v21.98c0,1.34,1.09,2.43,2.43,2.43h44.84c1.34,0,2.43-1.09,2.43-2.43v-21.98c0-1.34-1.09-2.43-2.43-2.43ZM145.95,44.46h-39.97v-17.12h39.97v17.12Z"/>
  <path class="cls-1" d="M74.51,40.28c2.41,0,4.38-1.96,4.38-4.38s-1.96-4.38-4.38-4.38-4.38,1.96-4.38,4.38,1.96,4.38,4.38,4.38Z"/>
  <path class="cls-1" d="M56.38,40.28c2.41,0,4.38-1.96,4.38-4.38s-1.96-4.38-4.38-4.38-4.38,1.96-4.38,4.38,1.96,4.38,4.38,4.38Z"/>
  <path class="cls-1" d="M38.24,40.28c2.41,0,4.38-1.96,4.38-4.38s-1.96-4.38-4.38-4.38-4.38,1.96-4.38,4.38,1.96,4.38,4.38,4.38Z"/>
  <path class="cls-1" d="M154.22,0H25.78C11.57,0,0,11.57,0,25.78v123.57C0,163.55,11.53,175.1,25.72,175.14l2.21,3.68c.44.73,1.23,1.18,2.09,1.18h9.65c.85,0,1.65-.45,2.09-1.18l2.21-3.68h92.09l2.21,3.68c.44.73,1.23,1.18,2.09,1.18h9.65c.85,0,1.65-.45,2.09-1.18l2.21-3.68c14.19-.04,25.72-11.59,25.72-25.78V25.78c0-14.22-11.57-25.78-25.78-25.78ZM175.14,149.35c0,11.54-9.38,20.92-20.92,20.92h-1.31c-.85,0-1.65.45-2.09,1.18l-2.21,3.68h-6.89l-2.21-3.68c-.44-.73-1.23-1.18-2.09-1.18H42.58c-.85,0-1.65.45-2.09,1.18l-2.21,3.68h-6.89l-2.21-3.68c-.44-.73-1.23-1.18-2.09-1.18h-1.31c-11.54,0-20.92-9.38-20.92-20.92V25.78C4.86,14.25,14.25,4.86,25.78,4.86h128.43c11.54,0,20.92,9.38,20.92,20.92v123.57Z"/>
</svg>