<?xml version="1.0" encoding="UTF-8"?>
<svg id="Modern_Office" data-name="Modern Office" xmlns="http://www.w3.org/2000/svg" viewBox="0 0 180 180">
  <defs>
    <style>
      .cls-1 {
        stroke: #000;
        stroke-miterlimit: 10;
        stroke-width: 2px;
      }
    </style>
  </defs>
  <path class="cls-1" d="M156.1,73.35h-10.49V30.2c0-16.65-13.55-30.2-30.2-30.2H30.2C13.55,0,0,13.55,0,30.2v51.68C0,98.09,12.84,111.36,28.91,112.05l12.09,23.07c.37.71,1.1,1.15,1.9,1.15s1.53-.44,1.9-1.15l12.08-23.04h22.18v25.26c0,13.18,10.72,23.9,23.9,23.9h32.15l9.23,17.61c.37.71,1.1,1.15,1.9,1.15s1.53-.44,1.9-1.15l9.25-17.65c12.58-.68,22.6-11.12,22.6-23.87v-40.08c0-13.18-10.72-23.9-23.9-23.9ZM55.58,107.79c-.8,0-1.53.44-1.9,1.15l-10.78,20.57-10.78-20.57c-.37-.71-1.12-1.15-1.92-1.15-14.29,0-25.92-11.63-25.92-25.92V30.2C4.29,15.91,15.91,4.29,30.2,4.29h85.2c14.29,0,25.92,11.63,25.92,25.92v51.68c0,14.29-11.63,25.92-25.92,25.92h-59.82ZM175.71,137.34c0,10.82-8.8,19.62-19.63,19.62-.8,0-1.53.44-1.9,1.15l-7.94,15.14-7.94-15.14c-.37-.71-1.1-1.15-1.9-1.15h-33.45c-10.82,0-19.62-8.8-19.62-19.62v-25.26h32.06c16.65,0,30.2-13.55,30.2-30.2v-4.24h10.49c10.82,0,19.62,8.8,19.62,19.62v40.08Z"/>
  <path class="cls-1" d="M110.24,35.11H33.43c-1.18,0-2.14.96-2.14,2.14s.96,2.14,2.14,2.14h76.81c1.18,0,2.14-.96,2.14-2.14s-.96-2.14-2.14-2.14Z"/>
  <path class="cls-1" d="M110.24,53.6H33.43c-1.18,0-2.14.96-2.14,2.14s.96,2.14,2.14,2.14h76.81c1.18,0,2.14-.96,2.14-2.14s-.96-2.14-2.14-2.14Z"/>
  <path class="cls-1" d="M72.8,72.1h-39.37c-1.18,0-2.14.96-2.14,2.14s.96,2.14,2.14,2.14h39.37c1.18,0,2.14-.96,2.14-2.14s-.96-2.14-2.14-2.14Z"/>
</svg>