<?xml version="1.0" encoding="UTF-8"?>
<svg id="Modern_Office" data-name="Modern Office" xmlns="http://www.w3.org/2000/svg" viewBox="0 0 180 180">
  <defs>
    <style>
      .cls-1 {
        stroke: #000;
        stroke-miterlimit: 10;
        stroke-width: 2px;
      }
    </style>
  </defs>
  <path class="cls-1" d="M113.38,49.51c-1.11-.64-2.52-.26-3.15.84l-19.71,34.13c-.17-.02-.34-.03-.52-.03-1.19,0-2.3.38-3.2,1.03l-19.66-11.35c-1.1-.64-2.52-.26-3.15.84-.64,1.1-.26,2.51.84,3.15l19.65,11.35c-.02.17-.03.34-.03.52,0,3.05,2.48,5.54,5.54,5.54s5.54-2.48,5.54-5.54c0-1.19-.38-2.3-1.03-3.2l19.71-34.14c.64-1.1.26-2.51-.84-3.15Z"/>
  <path class="cls-1" d="M140.76,134.49c-4.04-2.18-6.52-3.68-6.53-6.87,0-1.05.51-2.2,1.39-3.08.87-.87,1.96-1.36,3.06-1.36,2.45,0,4.44,1.99,4.44,4.44,0,1.27,1.03,2.31,2.31,2.31s2.31-1.03,2.31-2.31c0-4.2-2.87-7.72-6.75-8.75v-3.48c0-1.27-1.03-2.31-2.31-2.31s-2.31,1.03-2.31,2.31v3.5c-1.48.42-2.86,1.22-4.02,2.39-1.75,1.75-2.74,4.07-2.73,6.35.03,6.1,4.77,8.66,8.95,10.92,4.55,2.46,7.33,4.25,7.48,8.32.07,1.84-.62,3.61-1.94,4.98-1.41,1.47-3.39,2.31-5.43,2.31-4.07,0-7.37-3.31-7.37-7.37,0-1.27-1.03-2.31-2.31-2.31s-2.31,1.03-2.31,2.31c0,5.82,4.17,10.68,9.69,11.76v3.4c0,1.27,1.03,2.31,2.31,2.31s2.31-1.03,2.31-2.31v-3.4c2.44-.48,4.71-1.69,6.44-3.49,2.2-2.28,3.35-5.25,3.23-8.36-.26-7-5.61-9.89-9.9-12.21Z"/>
  <path class="cls-1" d="M138.67,97.35c-22.79,0-41.33,18.54-41.33,41.33s18.54,41.33,41.33,41.33,41.33-18.54,41.33-41.33-18.54-41.33-41.33-41.33ZM138.67,175.38c-20.24,0-36.71-16.47-36.71-36.71s16.47-36.71,36.71-36.71,36.71,16.47,36.71,36.71-16.47,36.71-36.71,36.71Z"/>
  <path class="cls-1" d="M102.98,174.4c-4.27.65-8.63.98-12.98.98-47.08,0-85.38-38.3-85.38-85.38S42.92,4.62,90,4.62s85.38,38.3,85.38,85.38c0,4.35-.33,8.71-.98,12.98-.19,1.26.67,2.44,1.93,2.63,1.26.19,2.44-.67,2.63-1.93.69-4.49,1.03-9.1,1.03-13.67C180,40.37,139.63,0,90,0S0,40.37,0,90s40.37,90,90,90c4.58,0,9.18-.35,13.68-1.03,1.26-.19,2.13-1.37,1.93-2.63-.19-1.26-1.36-2.13-2.63-1.93Z"/>
  <path class="cls-1" d="M158.73,91.74c-.03,1.27.98,2.33,2.25,2.36,1.29.05,2.33-.97,2.36-2.25l.02-.58c.01-.42.03-.84.03-1.27,0-40.46-32.92-73.38-73.38-73.38S16.62,49.54,16.62,90s32.92,73.38,73.38,73.38c.43,0,.85-.01,1.27-.03l.58-.02c1.27-.03,2.28-1.09,2.25-2.36-.03-1.27-1.09-2.3-2.36-2.25l-.62.02c-.37.01-.74.03-1.12.03-11.69,0-22.71-2.94-32.36-8.11l3.77-6.54c.64-1.1.26-2.52-.84-3.15-1.11-.64-2.52-.26-3.15.84l-3.77,6.53c-8.9-5.56-16.43-13.1-21.99-21.99l6.53-3.77c1.1-.64,1.48-2.05.84-3.15-.64-1.1-2.05-1.48-3.15-.84l-6.54,3.77c-4.83-9.01-7.69-19.22-8.05-30.05h7.55c1.27,0,2.31-1.03,2.31-2.31s-1.03-2.31-2.31-2.31h-7.55c.36-10.83,3.22-21.04,8.05-30.05l6.54,3.77c.36.21.76.31,1.15.31.8,0,1.57-.41,2-1.15.64-1.1.26-2.52-.84-3.15l-6.53-3.77c5.56-8.9,13.1-16.43,21.99-21.99l3.77,6.53c.43.74,1.2,1.15,2,1.15.39,0,.79-.1,1.15-.31,1.1-.64,1.48-2.05.84-3.15l-3.77-6.54c9.01-4.83,19.22-7.69,30.05-8.05v7.55c0,1.27,1.03,2.31,2.31,2.31s2.31-1.03,2.31-2.31v-7.55c10.83.36,21.04,3.22,30.05,8.05l-3.77,6.54c-.64,1.1-.26,2.51.84,3.15.36.21.76.31,1.15.31.8,0,1.57-.41,2-1.15l3.77-6.53c8.9,5.56,16.43,13.1,21.99,21.99l-6.53,3.77c-1.1.64-1.48,2.05-.84,3.15.43.74,1.2,1.15,2,1.15.39,0,.79-.1,1.15-.31l6.54-3.77c5.17,9.65,8.11,20.67,8.11,32.36,0,.37-.01.75-.03,1.12l-.02.62Z"/>
</svg>