<?xml version="1.0" encoding="UTF-8"?>
<svg id="Modern_Office" data-name="Modern Office" xmlns="http://www.w3.org/2000/svg" viewBox="0 0 180 180">
  <defs>
    <style>
      .cls-1 {
        stroke: #000;
        stroke-miterlimit: 10;
        stroke-width: 2px;
      }
    </style>
  </defs>
  <path class="cls-1" d="M168.46,69.98c6.36,0,11.54-5.18,11.54-11.54V11.54C180,5.18,174.82,0,168.46,0h-75.06C87.04,0,81.86,5.18,81.86,11.54v46.9c0,6.36,5.18,11.54,11.54,11.54h28.82v7.75l-10.52,4.04c-.89.34-1.48,1.2-1.48,2.15v4.91h-54.35v-4.23c0-6.36-5.18-11.54-11.54-11.54h-18.35c-1.95,0-3.78.49-5.39,1.35l-15.57-24.01,16.52-27.42h14.32v4.5c-5.16,3.97-8.2,10.1-8.2,16.64,0,1.27,1.03,2.31,2.31,2.31h37.36c1.27,0,2.31-1.03,2.31-2.31,0-6.54-3.04-12.67-8.2-16.64v-7.42c0-7.05-5.74-12.79-12.79-12.79-6.48,0-11.83,4.84-12.67,11.1h-15.75c-.81,0-1.56.42-1.98,1.12L.33,49.26c-.46.76-.44,1.71.04,2.45l16.64,25.67c-1.6,1.98-2.56,4.5-2.56,7.23v4.23H2.31C1.03,88.84,0,89.87,0,91.15v14.77c0,1.27,1.03,2.31,2.31,2.31h5.08v69.47c0,1.27,1.03,2.31,2.31,2.31s2.31-1.03,2.31-2.31v-33.58h156v33.58c0,1.27,1.03,2.31,2.31,2.31s2.31-1.03,2.31-2.31v-69.47h5.08c1.27,0,2.31-1.03,2.31-2.31v-14.77c0-1.27-1.03-2.31-2.31-2.31h-26.05v-4.91c0-.96-.59-1.81-1.48-2.15l-10.52-4.04v-7.75h28.82ZM40.48,20.07c0-4.51,3.67-8.18,8.18-8.18s8.18,3.67,8.18,8.18v8.6c0,.76.38,1.48,1.01,1.91,3.85,2.62,6.38,6.71,7.02,11.24h-32.42c.64-4.53,3.17-8.62,7.02-11.24.63-.43,1.01-1.14,1.01-1.91v-8.6ZM86.48,58.44V11.54c0-3.82,3.11-6.92,6.92-6.92h25.09l-10.77,14.8c-.75,1.03-.52,2.47.51,3.22.41.3.88.44,1.36.44.71,0,1.42-.33,1.87-.95l12.74-17.51h13.23l-26.09,35.85c-.75,1.03-.52,2.47.51,3.22.41.3.89.44,1.36.44.71,0,1.42-.33,1.87-.95l28.06-38.56h25.32c3.82,0,6.92,3.11,6.92,6.92v46.9c0,3.82-3.11,6.92-6.92,6.92h-75.06c-3.82,0-6.92-3.11-6.92-6.92ZM19.07,84.6c0-3.82,3.11-6.92,6.92-6.92h18.35c3.82,0,6.92,3.11,6.92,6.92v4.23H19.07v-4.23ZM168,139.5H12v-31.27h156v31.27ZM175.38,103.61H4.62v-10.15h170.77v10.15ZM136.5,81.47l10.52,4.04v3.32h-32.19v-3.32l10.52-4.04c.89-.34,1.48-1.2,1.48-2.15v-9.34h8.19v9.34c0,.96.59,1.81,1.48,2.15Z"/>
</svg>