<?xml version="1.0" encoding="UTF-8"?>
<svg id="Modern_Office" data-name="Modern Office" xmlns="http://www.w3.org/2000/svg" viewBox="0 0 180 180">
  <defs>
    <style>
      .cls-1 {
        stroke: #000;
        stroke-miterlimit: 10;
        stroke-width: 2px;
      }
    </style>
  </defs>
  <path class="cls-1" d="M177.63,0h-14.76c-1.31,0-2.37,1.06-2.37,2.37v54.27h-27.1c.88-1.47,1.4-3.18,1.4-5.01,0-5.38-4.37-9.75-9.75-9.75h-1.52V7.9C123.53,3.55,119.99,0,115.63,0h-51.26C60.01,0,56.47,3.55,56.47,7.9v33.98h-1.52c-5.38,0-9.75,4.37-9.75,9.75,0,1.83.52,3.54,1.4,5.01h-27.1V2.37C19.5,1.06,18.44,0,17.13,0H2.37C1.06,0,0,1.06,0,2.37v175.26c0,1.31,1.06,2.37,2.37,2.37h175.26c1.31,0,2.37-1.06,2.37-2.37V2.37C180,1.06,178.94,0,177.63,0ZM61.2,7.9c0-1.75,1.42-3.17,3.17-3.17h21.75l-8.48,11.65c-.77,1.06-.54,2.54.52,3.31.42.31.91.45,1.39.45.73,0,1.45-.34,1.92-.98l10.51-14.44h11.75l-16.14,22.19c-.77,1.06-.54,2.54.52,3.31.42.31.91.45,1.39.45.73,0,1.45-.34,1.92-.98l18.17-24.97h6.05c1.75,0,3.17,1.42,3.17,3.17v33.98h-57.6V7.9ZM49.93,51.63c0-2.76,2.25-5.01,5.01-5.01h70.12c2.76,0,5.01,2.25,5.01,5.01s-2.25,5.01-5.01,5.01H54.94c-2.76,0-5.01-2.25-5.01-5.01ZM160.5,175.26H19.5v-99.12h141.01v99.12ZM165.24,175.26v-101.49c0-1.31-1.06-2.37-2.37-2.37H17.13c-1.31,0-2.37,1.06-2.37,2.37v101.49H4.74V4.74h10.02v54.27c0,1.31,1.06,2.37,2.37,2.37h145.74c1.31,0,2.37-1.06,2.37-2.37V4.74h10.02v170.53h-10.02Z"/>
  <path class="cls-1" d="M62.04,146.98l-2.83,14.58c-.25,1.28.59,2.53,1.87,2.78.15.03.3.04.45.04,1.11,0,2.1-.79,2.32-1.92l2.45-12.65h47.37l2.45,12.65c.22,1.13,1.21,1.92,2.32,1.92.15,0,.3-.01.45-.04,1.28-.25,2.12-1.49,1.87-2.78l-2.83-14.58s0,0,0-.01l-6.85-35.31h7.36c1.31,0,2.37-1.06,2.37-2.37v-3.65c0-7.43-6.05-13.48-13.48-13.48h-34.7c-7.43,0-13.48,6.05-13.48,13.48v3.65c0,1.31,1.06,2.37,2.37,2.37h7.36l-6.85,35.31s0,0,0,.01ZM63.9,105.65c0-4.82,3.92-8.74,8.74-8.74h34.7c4.82,0,8.74,3.92,8.74,8.74v1.28h-52.19v-1.28ZM106.28,111.66l6.49,33.42h-45.53l6.49-33.42h32.56Z"/>
</svg>