<?xml version="1.0" encoding="UTF-8"?>
<svg id="Modern_Office" data-name="Modern Office" xmlns="http://www.w3.org/2000/svg" viewBox="0 0 180 180">
  <defs>
    <style>
      .cls-1 {
        stroke: #000;
        stroke-miterlimit: 10;
        stroke-width: 2px;
      }
    </style>
  </defs>
  <path class="cls-1" d="M37.08,115.55H4.62v-37.09c0-1.27-1.03-2.31-2.31-2.31S0,77.18,0,78.46C0,78.46,0,117.94,0,117.98c.14,8.9,7.17,15.1,17.2,15.1h32.46v29.71c0,6.94-5.65,12.59-12.59,12.59H2.31C1.03,175.38,0,176.42,0,177.69s1.03,2.31,2.31,2.31h34.77c9.49,0,17.2-7.72,17.2-17.21,0,0,0-32.1,0-32.14-.14-8.9-7.17-15.1-17.2-15.1ZM4.87,120.16h32.2c5.53,0,11.1,2.59,12.34,8.31H17.21c-5.53,0-11.1-2.59-12.34-8.31Z"/>
  <path class="cls-1" d="M180,78.46c0-1.27-1.03-2.31-2.31-2.31s-2.31,1.03-2.31,2.31v37.09h-32.46c-10.03,0-17.07,6.2-17.2,15.1,0,.04,0,32.14,0,32.14,0,9.49,7.71,17.21,17.2,17.21h34.77c1.27,0,2.31-1.03,2.31-2.31s-1.03-2.31-2.31-2.31h-34.77c-6.94,0-12.59-5.65-12.59-12.59v-29.71h32.46c10.03,0,17.06-6.2,17.2-15.1,0-.04.01-39.52.01-39.52ZM162.79,128.47h-32.2c1.23-5.71,6.8-8.31,12.34-8.31h32.2c-1.23,5.71-6.8,8.31-12.34,8.31Z"/>
  <path class="cls-1" d="M111.49,175.38c-7.01,0-12.72-5.65-12.72-12.59v-63.1h35.98c5.34,0,9.69-4.35,9.69-9.69s-4.35-9.69-9.69-9.69H45.25c-5.34,0-9.69,4.35-9.69,9.69s4.35,9.69,9.69,9.69h35.98v63.1c0,6.94-5.71,12.59-12.72,12.59-1.27,0-2.31,1.03-2.31,2.31s1.03,2.31,2.31,2.31h42.97c1.27,0,2.31-1.03,2.31-2.31s-1.03-2.31-2.31-2.31ZM40.18,90c0-2.8,2.28-5.08,5.08-5.08h89.49c2.8,0,5.08,2.28,5.08,5.08s-2.28,5.08-5.08,5.08H45.25c-2.8,0-5.08-2.28-5.08-5.08ZM80.31,175.38c3.4-3.14,5.53-7.63,5.53-12.59v-63.1h8.31v63.1c0,4.97,2.13,9.45,5.53,12.59h-19.37Z"/>
  <path class="cls-1" d="M87.69,46.77v11.55c0,1.27,1.03,2.31,2.31,2.31s2.31-1.03,2.31-2.31v-11.55c0-1.27-1.03-2.31-2.31-2.31s-2.31,1.03-2.31,2.31Z"/>
  <path class="cls-1" d="M74.18,42.99l-5.66,10.07c-.62,1.11-.23,2.52.88,3.14.36.2.75.3,1.13.3.81,0,1.59-.42,2.01-1.18l5.66-10.07c.62-1.11.23-2.52-.88-3.14-1.11-.62-2.52-.23-3.14.88Z"/>
  <path class="cls-1" d="M102.68,42.11c-1.11.62-1.5,2.03-.88,3.14l5.66,10.07c.42.75,1.21,1.18,2.01,1.18.38,0,.77-.1,1.13-.3,1.11-.62,1.5-2.03.88-3.14l-5.66-10.07c-.62-1.11-2.03-1.51-3.14-.88Z"/>
  <path class="cls-1" d="M27.14,4.62h60.55v7.02c-12.92.86-24.32,8.87-29.45,20.91-.3.71-.23,1.53.2,2.18.43.65,1.15,1.03,1.92,1.03h59.26c.77,0,1.5-.39,1.92-1.03s.5-1.46.2-2.18c-5.13-12.04-16.52-20.05-29.45-20.91v-7.02h60.55c1.27,0,2.31-1.03,2.31-2.31s-1.03-2.31-2.31-2.31H27.14c-1.27,0-2.31,1.03-2.31,2.31s1.03,2.31,2.31,2.31ZM115.91,31.14h-51.82c5.29-9.2,15.11-14.98,25.91-14.98s20.62,5.78,25.91,14.98Z"/>
</svg>