<?xml version="1.0" encoding="UTF-8"?>
<svg id="Modern_Office" data-name="Modern Office" xmlns="http://www.w3.org/2000/svg" viewBox="0 0 180 180">
  <defs>
    <style>
      .cls-1 {
        stroke: #000;
        stroke-miterlimit: 10;
        stroke-width: 2px;
      }
    </style>
  </defs>
  <path class="cls-1" d="M177.69,87.69H61.06c.03-1.42.04-3.4-.02-5.77.12-2.99,1.94-5.93,4.06-9.32,3.11-4.98,6.97-11.18,6.97-20.27,0-6.36-5.18-11.54-11.54-11.54h-31.15c-.75,0-1.44.36-1.88.97-9.41,13.17-9.74,38.06-9.59,45.94H2.31C1.03,87.69,0,88.73,0,90v87.69c0,1.27,1.03,2.31,2.31,2.31h175.38c1.27,0,2.31-1.03,2.31-2.31v-87.69c0-1.27-1.03-2.31-2.31-2.31ZM175.38,107h-98.7v-14.69h98.7v14.69ZM67.46,52.33c0,7.77-3.33,13.11-6.27,17.83-.26.42-.52.84-.78,1.25-.85-8.57-2.73-18.46-6.71-26.01h6.84c3.82,0,6.92,3.11,6.92,6.92ZM30.61,45.41h17.76c7.89,12.22,8.18,35.13,8.07,42.29H22.55c-.12-7.16.18-30.07,8.07-42.29ZM4.62,92.31h67.45v83.08H4.62v-83.08ZM76.68,111.62h47.04v63.77h-47.04v-63.77ZM175.38,175.38h-47.04v-63.77h47.04v63.77Z"/>
  <path class="cls-1" d="M114.96,136.62c-1.27,0-2.31,1.03-2.31,2.31v9.15c0,1.27,1.03,2.31,2.31,2.31s2.31-1.03,2.31-2.31v-9.15c0-1.27-1.03-2.31-2.31-2.31Z"/>
  <path class="cls-1" d="M63.3,126.97c-1.27,0-2.31,1.03-2.31,2.31v9.15c0,1.27,1.03,2.31,2.31,2.31s2.31-1.03,2.31-2.31v-9.15c0-1.27-1.03-2.31-2.31-2.31Z"/>
  <path class="cls-1" d="M137.11,150.38c1.27,0,2.31-1.03,2.31-2.31v-9.15c0-1.27-1.03-2.31-2.31-2.31s-2.31,1.03-2.31,2.31v9.15c0,1.27,1.03,2.31,2.31,2.31Z"/>
  <path class="cls-1" d="M2.31,4.62h175.38c1.27,0,2.31-1.03,2.31-2.31s-1.03-2.31-2.31-2.31H2.31C1.03,0,0,1.03,0,2.31s1.03,2.31,2.31,2.31Z"/>
  <path class="cls-1" d="M95.81,14.77c-1.27,0-2.31,1.03-2.31,2.31s1.03,2.31,2.31,2.31h60.45c1.27,0,2.31-1.03,2.31-2.31s-1.03-2.31-2.31-2.31h-60.45Z"/>
</svg>