<?xml version="1.0" encoding="UTF-8"?>
<svg id="Modern_Office" data-name="Modern Office" xmlns="http://www.w3.org/2000/svg" viewBox="0 0 180 180">
  <defs>
    <style>
      .cls-1 {
        stroke: #000;
        stroke-miterlimit: 10;
        stroke-width: 2px;
      }
    </style>
  </defs>
  <path class="cls-1" d="M36.09,79.11v21.79c0,1.31,1.06,2.37,2.37,2.37s2.37-1.06,2.37-2.37v-21.79c0-1.31-1.06-2.37-2.37-2.37s-2.37,1.06-2.37,2.37Z"/>
  <path class="cls-1" d="M167.29,114.49v-18.05c0-16.22-13.19-29.41-29.41-29.41s-29.41,13.19-29.41,29.41v18.05c-7.02.04-12.71,5.76-12.71,12.79v37.56c0,7.05,5.74,12.79,12.79,12.79h58.67c7.05,0,12.79-5.74,12.79-12.79v-37.56c0-7.03-5.7-12.74-12.71-12.79ZM113.2,96.45c0-13.6,11.07-24.67,24.67-24.67s24.67,11.07,24.67,24.67v18.04h-49.35v-18.04ZM175.26,164.84c0,4.44-3.61,8.05-8.05,8.05h-58.67c-4.44,0-8.05-3.61-8.05-8.05v-37.56c0-4.44,3.61-8.05,8.05-8.05h58.67c4.44,0,8.05,3.61,8.05,8.05v37.56Z"/>
  <path class="cls-1" d="M137.88,139.17c-2.35,0-4.26,1.91-4.26,4.26,0,1.47.75,2.78,1.89,3.54v7.35c0,1.31,1.06,2.37,2.37,2.37s2.37-1.06,2.37-2.37v-7.35c1.14-.77,1.89-2.07,1.89-3.54,0-2.35-1.91-4.26-4.26-4.26Z"/>
  <path class="cls-1" d="M153.95,61.62c1.31,0,2.37-1.06,2.37-2.37V23.68c0-1.31-1.06-2.37-2.37-2.37H21.32c-1.31,0-2.37,1.06-2.37,2.37v132.63c0,1.31,1.06,2.37,2.37,2.37h63.54c1.31,0,2.37-1.06,2.37-2.37s-1.06-2.37-2.37-2.37H23.68V26.05h127.89v33.2c0,1.31,1.06,2.37,2.37,2.37Z"/>
  <path class="cls-1" d="M87.28,172.89H4.74V7.11h165.79v68.47c0,1.31,1.06,2.37,2.37,2.37s2.37-1.06,2.37-2.37V4.74c0-1.31-1.06-2.37-2.37-2.37H2.37c-1.31,0-2.37,1.06-2.37,2.37v170.53c0,1.31,1.06,2.37,2.37,2.37h84.91c1.31,0,2.37-1.06,2.37-2.37s-1.06-2.37-2.37-2.37Z"/>
</svg>