<?xml version="1.0" encoding="UTF-8"?>
<svg id="Modern_Office" data-name="Modern Office" xmlns="http://www.w3.org/2000/svg" viewBox="0 0 180 180">
  <defs>
    <style>
      .cls-1 {
        stroke: #000;
        stroke-miterlimit: 10;
        stroke-width: 2px;
      }
    </style>
  </defs>
  <path class="cls-1" d="M117.15,156.39h-54.31c-1.18,0-2.14.96-2.14,2.14s.96,2.14,2.14,2.14h54.31c1.18,0,2.14-.96,2.14-2.14s-.96-2.14-2.14-2.14Z"/>
  <path class="cls-1" d="M180,113.19c0-8.06-6.55-14.61-14.61-14.61h-4.09v-5.98c.07-1,.34-7.4-4.3-12.68-3.62-4.12-9.16-6.42-16.48-6.84-9.55-15.43-17.06-15.43-50.52-15.43s-40.97,0-50.52,15.43c-7.32.43-12.86,2.73-16.48,6.84-4.64,5.28-4.38,11.68-4.3,12.68v5.98h-4.09C6.55,98.58,0,105.14,0,113.19,0,118.39,2.08,121.88,4.09,125.25c2.16,3.61,4.2,7.02,4.01,12.95v29.36c0,5.65,4.6,10.25,10.25,10.25h143.29c5.65,0,10.25-4.6,10.25-10.25v-29.43c-.18-5.86,1.86-9.27,4.02-12.88,2.01-3.37,4.09-6.85,4.09-12.05ZM26.22,82.75c2.99-3.41,7.89-5.24,14.56-5.44.73-.02,1.4-.41,1.77-1.04,8.6-14.34,13.78-14.34,47.45-14.34s38.85,0,47.45,14.34c.37.62,1.04,1.02,1.77,1.04,6.64.2,11.52,2.02,14.52,5.4,3.72,4.2,3.29,9.56,3.29,9.6,0,.07-.01.14-.01.21v6.22c-8.08,1.06-14.34,7.96-14.34,16.32v5.18c-14.55-5.91-33.1-9.15-52.68-9.15s-38.13,3.24-52.68,9.15v-5.18c0-8.36-6.26-15.27-14.34-16.32v-6.22c0-.07,0-.14-.01-.21,0-.05-.48-5.32,3.25-9.56ZM37.32,124.88c14.26-6.14,32.9-9.51,52.68-9.51s38.41,3.37,52.68,9.51v14.39H37.32v-14.39ZM12.39,167.56v-29.3c.21-7.11-2.36-11.41-4.62-15.21-1.87-3.13-3.49-5.84-3.49-9.86,0-5.69,4.63-10.33,10.33-10.33h6.23c6.72,0,12.2,5.47,12.2,12.2v58.46h-14.68c-3.29,0-5.96-2.68-5.96-5.96ZM37.32,143.55h105.36v29.96H37.32v-29.96ZM172.23,123.05c-2.27,3.8-4.84,8.1-4.62,15.14v29.36c0,3.29-2.68,5.96-5.97,5.96h-14.68v-58.46c0-6.73,5.47-12.2,12.2-12.2h6.23c5.69,0,10.33,4.63,10.33,10.33,0,4.02-1.62,6.73-3.49,9.86Z"/>
  <path class="cls-1" d="M55.08,104.34c1.18,0,2.14-.96,2.14-2.14v-8.65c0-7.05,5.74-12.79,12.79-12.79h39.98c7.05,0,12.79,5.74,12.79,12.79v8.65c0,1.18.96,2.14,2.14,2.14s2.14-.96,2.14-2.14v-8.65c0-9.42-7.66-17.08-17.08-17.08h-39.98c-9.42,0-17.08,7.66-17.08,17.08v8.65c0,1.18.96,2.14,2.14,2.14Z"/>
  <path class="cls-1" d="M13.33,25.58h4.3v4.3c0,1.18.96,2.14,2.14,2.14s2.14-.96,2.14-2.14v-4.3h4.3c1.18,0,2.14-.96,2.14-2.14s-.96-2.14-2.14-2.14h-4.3v-4.3c0-1.18-.96-2.14-2.14-2.14s-2.14.96-2.14,2.14v4.3h-4.3c-1.18,0-2.14.96-2.14,2.14s.96,2.14,2.14,2.14Z"/>
  <path class="cls-1" d="M154.03,12.92h4.3v4.3c0,1.18.96,2.14,2.14,2.14s2.14-.96,2.14-2.14v-4.3h4.3c1.18,0,2.14-.96,2.14-2.14s-.96-2.14-2.14-2.14h-4.3v-4.3c0-1.18-.96-2.14-2.14-2.14s-2.14.96-2.14,2.14v4.3h-4.3c-1.18,0-2.14.96-2.14,2.14s.96,2.14,2.14,2.14Z"/>
  <path class="cls-1" d="M67.38,12.92h1.91v1.91c0,1.18.96,2.14,2.14,2.14s2.14-.96,2.14-2.14v-1.91h1.91c1.18,0,2.14-.96,2.14-2.14s-.96-2.14-2.14-2.14h-1.91v-1.91c0-1.18-.96-2.14-2.14-2.14s-2.14.96-2.14,2.14v1.91h-1.91c-1.18,0-2.14.96-2.14,2.14s.96,2.14,2.14,2.14Z"/>
  <path class="cls-1" d="M128.65,32.81h1.91v1.91c0,1.18.96,2.14,2.14,2.14s2.14-.96,2.14-2.14v-1.91h1.91c1.18,0,2.14-.96,2.14-2.14s-.96-2.14-2.14-2.14h-1.91v-1.91c0-1.18-.96-2.14-2.14-2.14s-2.14.96-2.14,2.14v1.91h-1.91c-1.18,0-2.14.96-2.14,2.14s.96,2.14,2.14,2.14Z"/>
  <path class="cls-1" d="M47.54,45.02c2.13,0,3.85-1.73,3.85-3.85s-1.73-3.85-3.85-3.85-3.85,1.73-3.85,3.85,1.73,3.85,3.85,3.85Z"/>
  <path class="cls-1" d="M98.38,34.53c2.13,0,3.85-1.73,3.85-3.85s-1.73-3.85-3.85-3.85-3.85,1.73-3.85,3.85,1.73,3.85,3.85,3.85Z"/>
  <path class="cls-1" d="M159.58,47.4c-2.13,0-3.85,1.73-3.85,3.85s1.73,3.85,3.85,3.85,3.85-1.73,3.85-3.85-1.73-3.85-3.85-3.85Z"/>
</svg>