<?xml version="1.0" encoding="UTF-8"?>
<svg id="Modern_Office" data-name="Modern Office" xmlns="http://www.w3.org/2000/svg" viewBox="0 0 180 180">
  <defs>
    <style>
      .cls-1 {
        stroke: #000;
        stroke-miterlimit: 10;
        stroke-width: 2px;
      }
    </style>
  </defs>
  <path class="cls-1" d="M168.19,88.14h-11.54V27.85c0-1.03-.83-1.86-1.86-1.86s-1.86.83-1.86,1.86v11.86h-21.5c-1.18-3.7-3.03-6.9-5.56-9.57-5.13-5.42-11.86-7.44-16.65-8.18.11-.84.18-1.7.18-2.58,0-10.69-8.69-19.38-19.38-19.38s-19.38,8.69-19.38,19.38c0,.87.06,1.73.18,2.58-4.8.74-11.52,2.77-16.65,8.18-2.53,2.67-4.38,5.88-5.56,9.57h-21.5v-11.86c0-1.03-.83-1.86-1.86-1.86s-1.86.83-1.86,1.86v60.29h-11.54c-1.03,0-1.86.83-1.86,1.86s.83,1.86,1.86,1.86h11.54v60.29c0,1.03.83,1.86,1.86,1.86s1.86-.83,1.86-1.86v-11.86h21.5c1.18,3.7,3.03,6.9,5.56,9.57,5.13,5.42,11.86,7.44,16.65,8.18-.11.84-.18,1.7-.18,2.58,0,10.69,8.69,19.38,19.38,19.38s19.38-8.69,19.38-19.38c0-.87-.06-1.73-.18-2.58,4.8-.74,11.52-2.77,16.65-8.18,2.53-2.67,4.38-5.88,5.56-9.57h21.5v11.86c0,1.03.83,1.86,1.86,1.86s1.86-.83,1.86-1.86v-60.29h11.54c1.03,0,1.86-.83,1.86-1.86s-.83-1.86-1.86-1.86ZM90,3.72c8.63,0,15.66,7.02,15.66,15.66s-7.02,15.66-15.66,15.66-15.66-7.02-15.66-15.66,7.02-15.66,15.66-15.66ZM56.85,32.7c4.52-4.78,10.56-6.5,14.8-7.11,2.59,7.65,9.84,13.17,18.36,13.17s15.76-5.52,18.36-13.17c4.23.61,10.28,2.33,14.8,7.11,4.45,4.7,6.47,11.44,6,20.03-.42,7.6-.55,8.3-1.03,10.91l-.22,1.23c-.99,5.51-4.69,5.51-5.92,5.5-4.39,0-4.96-1.91-5.53-5.02-.56-3.08-1.22-7.46-1.3-8.01-.31-3.4-3.07-9.65-11.38-9.5h-27.5c-8.36-.2-11.11,6.1-11.42,9.5-.08.55-.74,4.93-1.3,8.01-.57,3.11-1.13,5.01-5.53,5.02-1.23,0-4.94,0-5.92-5.5l-.22-1.23c-.48-2.61-.61-3.31-1.03-10.91-.47-8.59,1.55-15.33,6-20.03ZM47.66,43.44c-.54,2.91-.72,6.08-.53,9.5.43,7.84.57,8.59,1.08,11.38l.22,1.21c.98,5.44,4.47,8.57,9.58,8.57h.01c7.72,0,8.68-5.25,9.19-8.07.61-3.33,1.34-8.26,1.35-8.31.02-.26.58-6.29,7.67-6.15h27.58c6.84-.15,7.57,5.51,7.63,6.15,0,.04.74,4.98,1.35,8.31.51,2.82,1.47,8.07,9.19,8.07h.01c5.11,0,8.6-3.12,9.58-8.57l.22-1.21c.52-2.8.66-3.55,1.08-11.38.19-3.42,0-6.58-.53-9.5h20.58v44.7H27.08v-44.7h20.58ZM90,176.28c-8.63,0-15.66-7.02-15.66-15.66s7.02-15.66,15.66-15.66,15.66,7.02,15.66,15.66-7.02,15.66-15.66,15.66ZM123.15,147.3c-4.52,4.78-10.56,6.5-14.8,7.11-2.59-7.65-9.84-13.17-18.36-13.17s-15.76,5.52-18.36,13.17c-4.23-.61-10.28-2.33-14.8-7.11-4.45-4.7-6.47-11.44-6-20.03.42-7.6.55-8.3,1.03-10.91l.22-1.23c.97-5.42,4.59-5.5,5.87-5.5h.06c4.39,0,4.96,1.91,5.53,5.02.56,3.08,1.22,7.46,1.3,8.01.3,3.36,2.99,9.51,11.04,9.51.11,0,.22,0,.33,0h27.5c.11,0,.23,0,.34,0,8.09,0,10.78-6.15,11.08-9.51.08-.55.74-4.93,1.3-8.01.57-3.11,1.13-5.01,5.53-5.02,1.23,0,4.94,0,5.92,5.5l.22,1.22c.48,2.61.61,3.31,1.03,10.91.47,8.59-1.55,15.33-6,20.03ZM132.34,136.56c.54-2.91.72-6.08.53-9.5-.43-7.84-.57-8.59-1.08-11.39l-.22-1.21c-.98-5.44-4.47-8.56-9.58-8.56h-.01c-7.72,0-8.68,5.25-9.19,8.07-.61,3.33-1.34,8.26-1.35,8.29-.06.65-.78,6.28-7.67,6.16h-27.58c-6.82.14-7.57-5.51-7.63-6.15,0-.04-.74-4.98-1.35-8.31-.51-2.82-1.47-8.07-9.19-8.07h-.01c-5.11,0-8.6,3.12-9.58,8.56l-.22,1.21c-.52,2.8-.66,3.55-1.08,11.38-.19,3.42,0,6.59.53,9.5h-20.58v-44.7h125.85v44.7h-20.58Z"/>
</svg>