<?xml version="1.0" encoding="UTF-8"?>
<svg id="Modern_Office" data-name="Modern Office" xmlns="http://www.w3.org/2000/svg" viewBox="0 0 180 180">
  <defs>
    <style>
      .cls-1 {
        stroke: #000;
        stroke-miterlimit: 10;
        stroke-width: 2px;
      }
    </style>
  </defs>
  <path class="cls-1" d="M179.61,49.96L147.32,1.06C146.88.4,146.14,0,145.35,0H34.65C33.86,0,33.12.4,32.68,1.06L.39,49.96c-.25.37-.39.82-.39,1.3v126.37c0,1.31,1.06,2.37,2.37,2.37h175.26c1.31,0,2.37-1.06,2.37-2.37V51.27c0-.48-.15-.93-.39-1.3ZM32.29,10.25v19.6c0,1.31,1.06,2.37,2.37,2.37s2.37-1.06,2.37-2.37V4.74h105.96v25.12c0,1.31,1.06,2.37,2.37,2.37s2.37-1.06,2.37-2.37V10.25l25.52,38.64H6.77L32.29,10.25ZM28.75,175.26v-92.16h57.91v92.16H28.75ZM175.26,175.26h-83.87v-94.53c0-1.31-1.06-2.37-2.37-2.37H26.38c-1.31,0-2.37,1.06-2.37,2.37v94.53H4.74V53.63h170.53v121.63Z"/>
  <path class="cls-1" d="M74.27,121.77c-1.31,0-2.37,1.06-2.37,2.37v10.09c0,1.31,1.06,2.37,2.37,2.37s2.37-1.06,2.37-2.37v-10.09c0-1.31-1.06-2.37-2.37-2.37Z"/>
  <path class="cls-1" d="M109.91,121.75h48.47c1.31,0,2.37-1.06,2.37-2.37v-38.65c0-1.31-1.06-2.37-2.37-2.37h-48.47c-1.31,0-2.37,1.06-2.37,2.37v38.65c0,1.31,1.06,2.37,2.37,2.37ZM112.27,83.1h43.73v33.91h-43.73v-33.91Z"/>
</svg>