<?xml version="1.0" encoding="UTF-8"?>
<svg id="Modern_Office" data-name="Modern Office" xmlns="http://www.w3.org/2000/svg" viewBox="0 0 180 180">
  <defs>
    <style>
      .cls-1 {
        stroke: #000;
        stroke-miterlimit: 10;
        stroke-width: 2px;
      }
    </style>
  </defs>
  <path class="cls-1" d="M177.8,175.61h-78.22v-91.73h47.23c1.21,0,2.2-.98,2.2-2.2s-.98-2.2-2.2-2.2h-47.23V2.2c0-1.21-.98-2.2-2.2-2.2h-14.79c-1.21,0-2.2.98-2.2,2.2v77.29h-47.23c-1.21,0-2.2.98-2.2,2.2s.98,2.2,2.2,2.2h47.23v91.73H2.2C.98,175.61,0,176.59,0,177.8s.98,2.2,2.2,2.2h175.61c1.21,0,2.2-.98,2.2-2.2s-.98-2.2-2.2-2.2ZM84.8,175.61V4.39h10.4v171.22h-10.4Z"/>
  <path class="cls-1" d="M14.67,125.89v3.67c0,1.21.98,2.2,2.2,2.2h21.61v20.01h-18.26c-4.65,0-8.43,3.78-8.43,8.43v.25c-1.24.75-2.08,2.1-2.08,3.65,0,2.36,1.92,4.27,4.27,4.27s4.27-1.92,4.27-4.27c0-1.55-.84-2.9-2.08-3.65v-.25c0-2.23,1.81-4.04,4.04-4.04h18.26v4.29c-1.24.75-2.08,2.1-2.08,3.65,0,2.36,1.92,4.27,4.27,4.27s4.27-1.92,4.27-4.27c0-1.55-.84-2.9-2.08-3.65v-4.29h18.26c2.23,0,4.04,1.81,4.04,4.04v.25c-1.24.75-2.08,2.1-2.08,3.65,0,2.36,1.92,4.27,4.27,4.27s4.27-1.92,4.27-4.27c0-1.55-.84-2.9-2.08-3.65v-.25c0-4.65-3.78-8.43-8.43-8.43h-18.26v-20.01h21.61c1.21,0,2.2-.98,2.2-2.2v-8.95c0-9.59-14.84-10.7-26-10.7s-26,1.11-26,10.7v.85c-4.49-.91-7.87-4.88-7.87-9.62v-4.99h3.36c6.61,0,11.41-4.78,11.44-11.37.75-13.13-4.3-29.29-9.16-34.45-1.36-1.44-2.78-2.17-4.22-2.17h-3.6c-1.21,0-2.2.98-2.2,2.2v50.78c0,7.17,5.35,13.11,12.26,14.06ZM19.06,120.6c0-2.88,3.75-6.31,21.61-6.31s21.61,3.43,21.61,6.31v6.76H19.06v-6.76ZM6.8,63.24h1.4c2.79.43,9.89,17.09,9.01,32.03,0,.04,0,.09,0,.13,0,4.15-2.9,7.05-7.05,7.05h-3.36v-39.21Z"/>
  <path class="cls-1" d="M169.85,106.84h3.36v4.99c0,4.75-3.39,8.72-7.87,9.62v-.85c0-9.59-14.84-10.7-26-10.7s-26,1.11-26,10.7v8.95c0,1.21.98,2.2,2.2,2.2h21.61v20.01h-18.26c-4.65,0-8.43,3.78-8.43,8.43v.25c-1.24.75-2.08,2.1-2.08,3.65,0,2.36,1.92,4.27,4.27,4.27s4.27-1.92,4.27-4.27c0-1.55-.84-2.9-2.08-3.65v-.25c0-2.23,1.81-4.04,4.04-4.04h18.26v4.29c-1.24.75-2.08,2.1-2.08,3.65,0,2.36,1.92,4.27,4.27,4.27s4.27-1.92,4.27-4.27c0-1.55-.84-2.9-2.08-3.65v-4.29h18.26c2.23,0,4.04,1.81,4.04,4.04v.25c-1.24.75-2.08,2.1-2.08,3.65,0,2.36,1.92,4.27,4.27,4.27s4.27-1.92,4.27-4.27c0-1.55-.84-2.9-2.08-3.65v-.25c0-4.65-3.78-8.43-8.43-8.43h-18.26v-20.01h21.61c1.21,0,2.2-.98,2.2-2.2v-3.67c6.92-.95,12.26-6.89,12.26-14.06v-50.78c0-1.21-.98-2.2-2.2-2.2h-3.6c-1.44,0-2.87.73-4.22,2.17-4.86,5.16-9.92,21.31-9.16,34.45.03,6.59,4.83,11.37,11.44,11.37ZM160.94,127.36h-43.22v-6.76c0-2.88,3.75-6.31,21.61-6.31s21.61,3.43,21.61,6.31v6.76ZM171.81,63.24h1.4v39.21h-3.36c-4.15,0-7.05-2.9-7.05-7.05,0-.04,0-.09,0-.13-.88-14.95,6.22-31.6,9.01-32.03Z"/>
</svg>