<?xml version="1.0" encoding="UTF-8"?>
<svg id="Modern_Office" data-name="Modern Office" xmlns="http://www.w3.org/2000/svg" viewBox="0 0 180 180">
  <defs>
    <style>
      .cls-1 {
        stroke: #000;
        stroke-miterlimit: 10;
        stroke-width: 2px;
      }
    </style>
  </defs>
  <path class="cls-1" d="M177.81,84.49H2.19C.98,84.49,0,85.47,0,86.68v15.4c0,.5.17.99.49,1.38l8.75,10.79v63.55c0,1.21.98,2.2,2.2,2.2h157.12c1.21,0,2.2-.98,2.2-2.2v-63.55l8.75-10.79c.32-.39.49-.88.49-1.38v-15.4c0-1.21-.98-2.2-2.2-2.2ZM175.61,101.3l-8.75,10.79c-.32.39-.49.88-.49,1.38v62.13H13.63v-62.13c0-.5-.17-.99-.49-1.38l-8.75-10.79v-12.43h171.22v12.43Z"/>
  <path class="cls-1" d="M43.09,74.09c1.21,0,2.2-.98,2.2-2.2v-8.64c0-9.5,6.42-11.99,12.63-14.4,0,0,9.77-3.81,15.94-6.2,4.3,3.81,9.96,6.13,16.14,6.13s11.84-2.32,16.14-6.13c6.16,2.39,15.93,6.2,15.93,6.2,6.21,2.41,12.63,4.9,12.63,14.4v8.64c0,1.21.98,2.2,2.2,2.2s2.2-.98,2.2-2.2v-8.64c0-12.5-9.29-16.11-15.44-18.49,0,0-8.71-3.4-14.3-5.57,3.15-4.11,5.02-9.24,5.02-14.8,0-13.45-10.94-24.39-24.39-24.39s-24.39,10.94-24.39,24.39c0,5.56,1.88,10.69,5.02,14.8-5.59,2.17-14.3,5.57-14.3,5.57-6.15,2.39-15.44,5.99-15.44,18.49v8.64c0,1.21.98,2.2,2.2,2.2ZM90,4.39c11.03,0,20,8.97,20,20s-8.97,20-20,20-20-8.97-20-20,8.97-20,20-20Z"/>
  <path class="cls-1" d="M87.8,58.33v13.56c0,1.21.98,2.2,2.2,2.2s2.2-.98,2.2-2.2v-13.56c0-1.21-.98-2.2-2.2-2.2s-2.2.98-2.2,2.2Z"/>
  <path class="cls-1" d="M106.07,64.18c-1.21,0-2.2.98-2.2,2.2s.98,2.2,2.2,2.2h10.29c1.21,0,2.2-.98,2.2-2.2s-.98-2.2-2.2-2.2h-10.29Z"/>
  <path class="cls-1" d="M55.56,150.74h68.89c1.21,0,2.2-.98,2.2-2.2v-25.97c0-1.21-.98-2.2-2.2-2.2H55.56c-1.21,0-2.2.98-2.2,2.2v25.97c0,1.21.98,2.2,2.2,2.2ZM57.75,124.77h64.5v21.58H57.75v-21.58Z"/>
</svg>