<?xml version="1.0" encoding="UTF-8"?>
<svg id="Modern_Office" data-name="Modern Office" xmlns="http://www.w3.org/2000/svg" viewBox="0 0 180 180">
  <defs>
    <style>
      .cls-1 {
        stroke: #000;
        stroke-miterlimit: 10;
        stroke-width: 2px;
      }
    </style>
  </defs>
  <path class="cls-1" d="M177.57,0H2.43C1.09,0,0,1.09,0,2.43v63.39c0,1.34,1.09,2.43,2.43,2.43s2.43-1.09,2.43-2.43V4.86h170.27v60.95c0,1.34,1.09,2.43,2.43,2.43s2.43-1.09,2.43-2.43V2.43C180,1.09,178.91,0,177.57,0Z"/>
  <path class="cls-1" d="M21.83,56.78h32.52c1.34,0,2.43-1.09,2.43-2.43V21.83c0-1.34-1.09-2.43-2.43-2.43H21.83c-1.34,0-2.43,1.09-2.43,2.43v32.52c0,1.34,1.09,2.43,2.43,2.43ZM24.26,24.26h27.65v27.65h-27.65v-27.65Z"/>
  <path class="cls-1" d="M73.74,56.78h32.52c1.34,0,2.43-1.09,2.43-2.43V21.83c0-1.34-1.09-2.43-2.43-2.43h-32.52c-1.34,0-2.43,1.09-2.43,2.43v32.52c0,1.34,1.09,2.43,2.43,2.43ZM76.17,24.26h27.65v27.65h-27.65v-27.65Z"/>
  <path class="cls-1" d="M177.57,111.75c-1.34,0-2.43,1.09-2.43,2.43v60.95H4.86v-60.95c0-1.34-1.09-2.43-2.43-2.43s-2.43,1.09-2.43,2.43v63.39c0,1.34,1.09,2.43,2.43,2.43h175.14c1.34,0,2.43-1.09,2.43-2.43v-63.39c0-1.34-1.09-2.43-2.43-2.43Z"/>
  <path class="cls-1" d="M123.22,125.65v32.52c0,1.34,1.09,2.43,2.43,2.43h32.52c1.34,0,2.43-1.09,2.43-2.43v-32.52c0-1.34-1.09-2.43-2.43-2.43h-32.52c-1.34,0-2.43,1.09-2.43,2.43ZM128.09,128.09h27.65v27.65h-27.65v-27.65Z"/>
  <path class="cls-1" d="M71.31,158.17c0,1.34,1.09,2.43,2.43,2.43h32.52c1.34,0,2.43-1.09,2.43-2.43v-32.52c0-1.34-1.09-2.43-2.43-2.43h-32.52c-1.34,0-2.43,1.09-2.43,2.43v32.52ZM76.17,128.09h27.65v27.65h-27.65v-27.65Z"/>
  <path class="cls-1" d="M19.4,158.17c0,1.34,1.09,2.43,2.43,2.43h32.52c1.34,0,2.43-1.09,2.43-2.43v-32.52c0-1.34-1.09-2.43-2.43-2.43H21.83c-1.34,0-2.43,1.09-2.43,2.43v32.52ZM24.26,128.09h27.65v27.65h-27.65v-27.65Z"/>
  <path class="cls-1" d="M127.79,52.21c.47.48,1.1.71,1.72.71s1.25-.24,1.72-.71l10.69-10.69,10.69,10.69c.47.48,1.1.71,1.72.71s1.25-.24,1.72-.71c.95-.95.95-2.49,0-3.44l-10.69-10.69,10.69-10.69c.95-.95.95-2.49,0-3.44-.95-.95-2.49-.95-3.44,0l-10.69,10.69-10.69-10.69c-.95-.95-2.49-.95-3.44,0-.95.95-.95,2.49,0,3.44l10.69,10.69-10.69,10.69c-.95.95-.95,2.49,0,3.44Z"/>
</svg>