<?xml version="1.0" encoding="UTF-8"?>
<svg id="Modern_Office" data-name="Modern Office" xmlns="http://www.w3.org/2000/svg" viewBox="0 0 180 180">
  <defs>
    <style>
      .cls-1 {
        stroke: #000;
        stroke-miterlimit: 10;
        stroke-width: 2px;
      }
    </style>
  </defs>
  <path class="cls-1" d="M148.38,131.69H31.62c-1.34,0-2.43,1.09-2.43,2.43v19.12c0,1.34,1.09,2.43,2.43,2.43h116.76c1.34,0,2.43-1.09,2.43-2.43v-19.12c0-1.34-1.09-2.43-2.43-2.43ZM145.95,150.81H34.05v-14.25h111.89v14.25Z"/>
  <path class="cls-1" d="M148.38,48.72h-71.28c-1.34,0-2.43,1.09-2.43,2.43v41.69c0,1.34,1.09,2.43,2.43,2.43h71.28c1.34,0,2.43-1.09,2.43-2.43v-41.69c0-1.34-1.09-2.43-2.43-2.43ZM145.95,90.41h-66.42v-36.83h26.48l-9.02,12.4c-.79,1.09-.55,2.61.54,3.4.43.31.93.47,1.43.47.75,0,1.49-.35,1.97-1l11.1-15.26h12.55l-17.11,23.51c-.79,1.09-.55,2.61.54,3.4.43.31.93.47,1.43.47.75,0,1.49-.35,1.97-1l19.19-26.37h15.35v36.83Z"/>
  <path class="cls-1" d="M50.21,52.05h-18.59c-1.34,0-2.43,1.09-2.43,2.43s1.09,2.43,2.43,2.43h18.59c1.34,0,2.43-1.09,2.43-2.43s-1.09-2.43-2.43-2.43Z"/>
  <path class="cls-1" d="M50.21,69.56h-18.59c-1.34,0-2.43,1.09-2.43,2.43s1.09,2.43,2.43,2.43h18.59c1.34,0,2.43-1.09,2.43-2.43s-1.09-2.43-2.43-2.43Z"/>
  <path class="cls-1" d="M50.21,87.08h-18.59c-1.34,0-2.43,1.09-2.43,2.43s1.09,2.43,2.43,2.43h18.59c1.34,0,2.43-1.09,2.43-2.43s-1.09-2.43-2.43-2.43Z"/>
  <path class="cls-1" d="M154.22,0H25.78C11.57,0,0,11.57,0,25.78v136.22c0,7.24,5.89,13.14,13.14,13.14h4.8l2.21,3.68c.44.73,1.23,1.18,2.09,1.18h9.65c.85,0,1.65-.45,2.09-1.18l2.21-3.68h107.65l2.21,3.68c.44.73,1.23,1.18,2.09,1.18h9.65c.85,0,1.65-.45,2.09-1.18l2.21-3.68h4.8c7.24,0,13.14-5.89,13.14-13.14V25.78C180,11.57,168.43,0,154.22,0ZM4.86,32.58h170.27v78.84H4.86V32.58ZM25.78,4.86h128.43c11.53,0,20.92,9.38,20.92,20.92v1.93H4.86v-1.93C4.86,14.25,14.25,4.86,25.78,4.86ZM166.86,170.27h-6.18c-.85,0-1.65.45-2.09,1.18l-2.21,3.68h-6.89l-2.21-3.68c-.44-.73-1.23-1.18-2.09-1.18H34.8c-.85,0-1.65.45-2.09,1.18l-2.21,3.68h-6.89l-2.21-3.68c-.44-.73-1.23-1.18-2.09-1.18h-6.18c-4.56,0-8.27-3.71-8.27-8.27v-45.72h170.27v45.72c0,4.56-3.71,8.27-8.27,8.27Z"/>
</svg>