<?xml version="1.0" encoding="UTF-8"?>
<svg id="Modern_Office" data-name="Modern Office" xmlns="http://www.w3.org/2000/svg" viewBox="0 0 180 180">
  <defs>
    <style>
      .cls-1 {
        stroke: #000;
        stroke-miterlimit: 10;
        stroke-width: 2px;
      }
    </style>
  </defs>
  <path class="cls-1" d="M132.65,109.68c-2.06-4.53-6.62-7.46-11.6-7.46h-21.76c-5.72,0-8.75-4.46-8.78-8.86-.01-1.49-.02-5.97-.02-11.26,1.37.7,2.91,1.1,4.53,1.1h28.56c5.45,0,9.88-4.43,9.88-9.88s-4.43-9.88-9.88-9.88h-21.85l-7.45-18.74c7.27-4.1,12.2-11.89,12.2-20.82,0-13.17-10.71-23.88-23.88-23.88s-23.88,10.71-23.88,23.88c0,4.77,1.41,9.21,3.82,12.94-26.16,33.94-20.17,58.87-14.2,70.79,6.94,13.84,19.34,21.96,27.44,21.96.11,0,.21,0,.32,0h35.18l16.53,34.44c2.07,4.53,6.62,7.46,11.6,7.46,1.83,0,3.6-.39,5.28-1.15,3.1-1.41,5.46-3.94,6.65-7.13,1.19-3.19,1.07-6.65-.31-9.69l-18.39-43.81ZM82.61,4.27c10.81,0,19.61,8.8,19.61,19.61s-8.8,19.61-19.61,19.61-19.61-8.8-19.61-19.61,8.8-19.61,19.61-19.61ZM142.93,166.42c-1.11.51-2.29.76-3.51.76-3.31,0-6.34-1.95-7.74-5l-17.13-35.69c-.36-.74-1.1-1.21-1.93-1.21h-36.58c-.07,0-.13,0-.2,0-5.88,0-17.23-6.72-23.69-19.6-5.47-10.92-10.86-33.76,13.11-65.4,4.36,4.6,10.51,7.47,17.33,7.47,2.73,0,5.34-.47,7.78-1.31l7.91,19.91c.32.81,1.11,1.35,1.98,1.35h23.3c3.09,0,5.61,2.52,5.61,5.61s-2.52,5.61-5.61,5.61h-28.56c-2.31,0-4.36-1.39-5.21-3.54l-6.07-15.28c-.44-1.1-1.68-1.63-2.77-1.2s-1.63,1.68-1.2,2.77l6.07,15.28c.11.29.24.56.38.83,0,7.04,0,13.71.02,15.6.06,7.46,5.67,13.09,13.05,13.09h21.76c3.31,0,6.34,1.95,7.69,4.9l18.39,43.81c1.94,4.25.05,9.29-4.2,11.22Z"/>
  <path class="cls-1" d="M171.61,28.23c-1.18,0-2.14.96-2.14,2.14v59.72h-54.27c-1.18,0-2.14.96-2.14,2.14s.96,2.14,2.14,2.14h54.27v83.51c0,1.18.96,2.14,2.14,2.14s2.14-.96,2.14-2.14V30.36c0-1.18-.96-2.14-2.14-2.14Z"/>
  <path class="cls-1" d="M96.55,139.14h-49.81l-18.34-58.29c-.28-.89-1.1-1.49-2.04-1.49H8.39c-1.18,0-2.14.96-2.14,2.14v96.38c0,1.18.96,2.14,2.14,2.14h98.16c1.18,0,2.14-.96,2.14-2.14v-25.49c0-4.29-1.24-7.66-3.69-10-3.38-3.24-7.85-3.24-8.45-3.23ZM104.42,175.73H10.53v-92.11h14.26l18.34,58.29c.28.89,1.1,1.49,2.04,1.49h51.49s3.21-.07,5.42,2.08c1.55,1.51,2.34,3.83,2.34,6.89v23.35Z"/>
  <path class="cls-1" d="M139.57,83.62h10.46c.98,0,1.84-.67,2.07-1.62l8.84-35.86c.28-1.15-.42-2.3-1.56-2.58-1.15-.28-2.3.42-2.58,1.56l-8.44,34.24h-8.78c-1.18,0-2.14.96-2.14,2.14s.96,2.14,2.14,2.14Z"/>
</svg>