<?xml version="1.0" encoding="UTF-8"?>
<svg id="Modern_Office" data-name="Modern Office" xmlns="http://www.w3.org/2000/svg" viewBox="0 0 180 180">
  <defs>
    <style>
      .cls-1 {
        stroke: #000;
        stroke-miterlimit: 10;
        stroke-width: 2px;
      }
    </style>
  </defs>
  <path class="cls-1" d="M177.69,13.16c-1.27,0-2.31,1.03-2.31,2.31v80.98h-9.96v-6.56c0-6.87-5.59-12.46-12.46-12.46H27.04c-6.87,0-12.46,5.59-12.46,12.46v6.56H4.62V15.47c0-1.27-1.03-2.31-2.31-2.31S0,14.19,0,15.47v83.29c0,1.27,1.03,2.31,2.31,2.31h12.27v66.47c0,6.87,5.59,12.46,12.46,12.46h125.92c6.87,0,12.46-5.59,12.46-12.46v-66.47h12.27c1.27,0,2.31-1.03,2.31-2.31V15.47c0-1.27-1.03-2.31-2.31-2.31ZM160.8,167.54c0,4.33-3.52,7.85-7.85,7.85H27.04c-4.33,0-7.85-3.52-7.85-7.85v-77.65c0-4.33,3.52-7.85,7.85-7.85h125.92c4.33,0,7.85,3.52,7.85,7.85v77.65Z"/>
  <path class="cls-1" d="M41.67,24.6c.59,0,1.18-.23,1.63-.68,12.45-12.45,29.04-19.31,46.7-19.31,17.66,0,34.25,6.86,46.7,19.31.9.9,2.36.9,3.26,0,.9-.9.9-2.36,0-3.26C126.64,7.34,108.9,0,90,0c-18.89,0-36.64,7.34-49.96,20.67-.9.9-.9,2.36,0,3.26.45.45,1.04.68,1.63.68Z"/>
  <path class="cls-1" d="M125.28,37.66c.59,0,1.18-.23,1.63-.68.9-.9.9-2.36,0-3.26-20.35-20.35-53.47-20.35-73.82,0-.9.9-.9,2.36,0,3.26.9.9,2.36.9,3.26,0,18.55-18.55,48.74-18.55,67.3,0,.45.45,1.04.68,1.63.68Z"/>
  <path class="cls-1" d="M113.86,50.04c.9-.9.9-2.36,0-3.26-13.15-13.15-34.56-13.15-47.71,0-.9.9-.9,2.36,0,3.26.45.45,1.04.68,1.63.68s1.18-.23,1.63-.68c11.35-11.35,29.83-11.36,41.19,0,.9.9,2.36.9,3.26,0Z"/>
  <path class="cls-1" d="M79.2,59.83c-.9.9-.9,2.36,0,3.26.9.9,2.36.9,3.26,0,2.01-2.01,4.69-3.12,7.54-3.12s5.52,1.11,7.54,3.12c.45.45,1.04.68,1.63.68s1.18-.23,1.63-.68c.9-.9.9-2.36,0-3.26-2.88-2.89-6.72-4.47-10.8-4.47s-7.92,1.59-10.8,4.47Z"/>
  <path class="cls-1" d="M126.29,100.21H53.71c-1.27,0-2.31,1.03-2.31,2.31v17.46c0,1.27,1.03,2.31,2.31,2.31h72.57c1.27,0,2.31-1.03,2.31-2.31v-17.46c0-1.27-1.03-2.31-2.31-2.31ZM123.98,117.68H56.02v-12.85h67.96v12.85Z"/>
  <path class="cls-1" d="M69.39,137.57c-2.29,0-4.15,1.86-4.15,4.15s1.86,4.15,4.15,4.15,4.15-1.86,4.15-4.15-1.86-4.15-4.15-4.15Z"/>
  <path class="cls-1" d="M90,137.57c-2.29,0-4.15,1.86-4.15,4.15s1.86,4.15,4.15,4.15,4.15-1.86,4.15-4.15-1.86-4.15-4.15-4.15Z"/>
  <path class="cls-1" d="M110.6,137.57c-2.29,0-4.15,1.86-4.15,4.15s1.86,4.15,4.15,4.15,4.15-1.86,4.15-4.15-1.86-4.15-4.15-4.15Z"/>
</svg>