<?xml version="1.0" encoding="UTF-8"?>
<svg id="Industrial_Operations" data-name="Industrial Operations" xmlns="http://www.w3.org/2000/svg" viewBox="0 0 180 180">
  <defs>
    <style>
      .cls-1 {
        stroke: #000;
        stroke-miterlimit: 10;
        stroke-width: 2px;
      }
    </style>
  </defs>
  <path class="cls-1" d="M177.92,130.64h-17.42c-3.23-8.79-11.72-14.81-21.18-14.81s-17.95,6.02-21.18,14.81h-6.94c-3.23-8.79-11.72-14.81-21.18-14.81s-17.95,6.02-21.18,14.81h-6.94c-3.23-8.79-11.72-14.81-21.18-14.81s-17.95,6.02-21.18,14.81H2.08c-1.15,0-2.08.93-2.08,2.08v45.2c0,1.15.93,2.08,2.08,2.08h35.49c1.15,0,2.08-.93,2.08-2.08v-10.58h100.69v10.58c0,1.15.93,2.08,2.08,2.08h35.49c1.15,0,2.08-.93,2.08-2.08v-45.2c0-1.15-.93-2.08-2.08-2.08ZM139.31,120c7.19,0,13.7,4.26,16.69,10.64h-33.38c2.99-6.38,9.5-10.64,16.69-10.64ZM90,120c7.19,0,13.7,4.26,16.69,10.64h-33.38c2.99-6.38,9.5-10.64,16.69-10.64ZM40.69,120c7.19,0,13.7,4.26,16.69,10.64H24c2.99-6.38,9.5-10.64,16.69-10.64ZM175.84,175.84h-31.33v-10.58c0-1.15-.93-2.08-2.08-2.08H37.57c-1.15,0-2.08.93-2.08,2.08v10.58H4.16v-41.03h171.67v41.03Z"/>
  <path class="cls-1" d="M67.96,34.09v73.25c0,1.15.93,2.08,2.08,2.08h88.04c1.15,0,2.08-.93,2.08-2.08V34.09c0-1.15-.93-2.08-2.08-2.08h-88.04c-1.15,0-2.08.93-2.08,2.08ZM122.76,36.17v24h-17.4v-24h17.4ZM72.12,36.17h29.07v26.08c0,1.15.93,2.08,2.08,2.08h21.57c1.15,0,2.08-.93,2.08-2.08v-26.08h29.07v69.09h-83.88V36.17Z"/>
  <path class="cls-1" d="M2.08,118.59c1.15,0,2.08-.93,2.08-2.08V4.16h71.41v11.91c0,1.15.93,2.08,2.08,2.08s2.08-.93,2.08-2.08V2.08C79.74.93,78.81,0,77.66,0H2.08C.93,0,0,.93,0,2.08v114.42c0,1.15.93,2.08,2.08,2.08Z"/>
  <path class="cls-1" d="M177.92,0h-75.58c-1.15,0-2.08.93-2.08,2.08v13.99c0,1.15.93,2.08,2.08,2.08s2.08-.93,2.08-2.08V4.16h71.41v112.34c0,1.15.93,2.08,2.08,2.08s2.08-.93,2.08-2.08V2.08C180,.93,179.07,0,177.92,0Z"/>
  <path class="cls-1" d="M54.3,49.6H21c-1.15,0-2.08.93-2.08,2.08s.93,2.08,2.08,2.08h33.3c1.15,0,2.08-.93,2.08-2.08s-.93-2.08-2.08-2.08Z"/>
  <path class="cls-1" d="M54.3,66.26h-16.65c-1.15,0-2.08.93-2.08,2.08s.93,2.08,2.08,2.08h16.65c1.15,0,2.08-.93,2.08-2.08s-.93-2.08-2.08-2.08Z"/>
  <path class="cls-1" d="M54.3,82.92H21c-1.15,0-2.08.93-2.08,2.08s.93,2.08,2.08,2.08h33.3c1.15,0,2.08-.93,2.08-2.08s-.93-2.08-2.08-2.08Z"/>
</svg>