<?xml version="1.0" encoding="UTF-8"?>
<svg id="Industrial_Operations" data-name="Industrial Operations" xmlns="http://www.w3.org/2000/svg" viewBox="0 0 180 180">
  <defs>
    <style>
      .cls-1 {
        stroke: #000;
        stroke-miterlimit: 10;
        stroke-width: 2px;
      }
    </style>
  </defs>
  <path class="cls-1" d="M177.97,100.53c1.12,0,2.03-.91,2.03-2.03s-.91-2.03-2.03-2.03h-39.29v-1.5c0-1.12-.91-2.03-2.03-2.03h-12.79v-8.84c0-1.12-.91-2.03-2.03-2.03h-42.91v-18.8l36.24-40.5c.33-.37.52-.85.52-1.35V2.03c0-1.12-.91-2.03-2.03-2.03H10.21c-1.12,0-2.03.91-2.03,2.03v19.38c0,.5.18.98.52,1.35l36.26,40.52v18.78H2.03C.91,82.06,0,82.97,0,84.09v93.88c0,1.12.91,2.03,2.03,2.03h119.81c1.12,0,2.03-.91,2.03-2.03v-8.84h12.79c1.12,0,2.03-.91,2.03-2.03v-1.5h39.29c1.12,0,2.03-.91,2.03-2.03s-.91-2.03-2.03-2.03h-39.29v-14.52h39.29c1.12,0,2.03-.91,2.03-2.03s-.91-2.03-2.03-2.03h-39.29v-1.5c0-1.12-.91-2.03-2.03-2.03h-12.79v-16.78h12.79c1.12,0,2.03-.91,2.03-2.03v-1.5h39.29c1.12,0,2.03-.91,2.03-2.03s-.91-2.03-2.03-2.03h-39.29v-14.52h39.29ZM12.24,4.06h99.38v16.58l-35.65,39.85h-28.07L12.24,20.64V4.06ZM49.02,64.54h25.84v17.52h-25.84v-17.52ZM39.53,175.94v-10.76h44.81v10.76h-44.81ZM119.81,175.94h-31.41v-12.79c0-1.12-.91-2.03-2.03-2.03h-13.67l13.22-15.98c.71-.86.59-2.14-.27-2.86-.86-.72-2.14-.59-2.86.27l-15.36,18.57h-29.93c-1.12,0-2.03.91-2.03,2.03v12.79H4.06v-89.81h115.75v89.81ZM134.62,143.48v21.58h-10.76v-21.58h10.76ZM134.62,118.58h-10.76v-21.58h10.76v21.58Z"/>
  <path class="cls-1" d="M38.93,102.54c-7.25,0-13.14,5.9-13.14,13.14s5.9,13.14,13.14,13.14,13.14-5.9,13.14-13.14-5.9-13.14-13.14-13.14ZM38.93,124.77c-5.01,0-9.08-4.07-9.08-9.08s4.07-9.08,9.08-9.08,9.08,4.07,9.08,9.08-4.07,9.08-9.08,9.08Z"/>
  <path class="cls-1" d="M84.95,102.54c-7.25,0-13.14,5.9-13.14,13.14s5.9,13.14,13.14,13.14,13.14-5.9,13.14-13.14-5.9-13.14-13.14-13.14ZM84.95,124.77c-5.01,0-9.08-4.07-9.08-9.08s4.07-9.08,9.08-9.08,9.08,4.07,9.08,9.08-4.07,9.08-9.08,9.08Z"/>
  <path class="cls-1" d="M177.97,68.04h-34.02c-8.26,0-14.98-6.72-14.98-14.98s6.72-14.98,14.98-14.98h17.01c10.5,0,19.04-8.54,19.04-19.04S171.46,0,160.96,0h-28.74c-1.12,0-2.03.91-2.03,2.03s.91,2.03,2.03,2.03h28.74c8.26,0,14.98,6.72,14.98,14.98s-6.72,14.98-14.98,14.98h-17.01c-10.5,0-19.04,8.54-19.04,19.04s8.54,19.04,19.04,19.04h34.02c1.12,0,2.03-.91,2.03-2.03s-.91-2.03-2.03-2.03Z"/>
</svg>