<?xml version="1.0" encoding="UTF-8"?>
<svg id="Industrial_Operations" data-name="Industrial Operations" xmlns="http://www.w3.org/2000/svg" viewBox="0 0 180 180">
  <defs>
    <style>
      .cls-1 {
        stroke: #000;
        stroke-miterlimit: 10;
        stroke-width: 2px;
      }
    </style>
  </defs>
  <path class="cls-1" d="M169.85,13.53H10.15C4.55,13.53,0,18.09,0,23.68v132.63c0,5.6,4.55,10.15,10.15,10.15h159.7c5.6,0,10.15-4.55,10.15-10.15V23.68c0-5.6-4.55-10.15-10.15-10.15ZM175.94,156.32c0,3.36-2.73,6.09-6.09,6.09H10.15c-3.36,0-6.09-2.73-6.09-6.09V23.68c0-3.36,2.73-6.09,6.09-6.09h159.7c3.36,0,6.09,2.73,6.09,6.09v132.63Z"/>
  <path class="cls-1" d="M161.73,29.77H18.27c-1.12,0-2.03.91-2.03,2.03v100.15c0,1.12.91,2.03,2.03,2.03h143.46c1.12,0,2.03-.91,2.03-2.03V31.8c0-1.12-.91-2.03-2.03-2.03ZM159.7,129.92H20.3V33.83h139.4v96.09Z"/>
  <path class="cls-1" d="M129.78,73.41l6.1-4.57v30.14c0,1.12.91,2.03,2.03,2.03s2.03-.91,2.03-2.03v-34.2c0-.77-.43-1.47-1.12-1.82-.69-.34-1.51-.27-2.13.19l-9.35,7.01c-.9.67-1.08,1.95-.41,2.84.67.9,1.95,1.08,2.84.41Z"/>
  <path class="cls-1" d="M93,72.48c1.03.44,2.22-.05,2.66-1.08,1.19-2.81,3.93-4.63,6.99-4.63,4.18,0,7.58,3.4,7.58,7.58,0,3.48-3.49,6.05-7.54,9.02-5.13,3.77-10.93,8.05-10.93,15.65,0,1.12.91,2.03,2.03,2.03h19.21c1.12,0,2.03-.91,2.03-2.03s-.91-2.03-2.03-2.03h-16.96c.95-4.37,4.91-7.29,9.07-10.35,4.52-3.32,9.19-6.76,9.19-12.29,0-6.42-5.22-11.64-11.64-11.64-4.69,0-8.9,2.79-10.73,7.11-.44,1.03.05,2.22,1.08,2.66Z"/>
  <path class="cls-1" d="M35.3,56.84h17.07c1.12,0,2.03-.91,2.03-2.03s-.91-2.03-2.03-2.03h-17.07c-1.12,0-2.03.91-2.03,2.03s.91,2.03,2.03,2.03Z"/>
  <path class="cls-1" d="M35.3,74.89h35.22c1.12,0,2.03-.91,2.03-2.03s-.91-2.03-2.03-2.03h-35.22c-1.12,0-2.03.91-2.03,2.03s.91,2.03,2.03,2.03Z"/>
  <path class="cls-1" d="M35.3,92.93h17.07c1.12,0,2.03-.91,2.03-2.03s-.91-2.03-2.03-2.03h-17.07c-1.12,0-2.03.91-2.03,2.03s.91,2.03,2.03,2.03Z"/>
  <path class="cls-1" d="M35.3,110.98h35.22c1.12,0,2.03-.91,2.03-2.03s-.91-2.03-2.03-2.03h-35.22c-1.12,0-2.03.91-2.03,2.03s.91,2.03,2.03,2.03Z"/>
  <circle class="cls-1" cx="58.89" cy="148.2" r="4.29"/>
  <circle class="cls-1" cx="79.63" cy="148.2" r="4.29"/>
  <path class="cls-1" d="M100.37,143.91c-2.36,0-4.29,1.92-4.29,4.29s1.92,4.29,4.29,4.29,4.29-1.92,4.29-4.29-1.92-4.29-4.29-4.29Z"/>
  <circle class="cls-1" cx="121.11" cy="148.2" r="4.29"/>
</svg>