<?xml version="1.0" encoding="UTF-8"?>
<svg id="Industrial_Operations" data-name="Industrial Operations" xmlns="http://www.w3.org/2000/svg" viewBox="0 0 180 180">
  <defs>
    <style>
      .cls-1 {
        stroke: #000;
        stroke-miterlimit: 10;
        stroke-width: 2px;
      }
    </style>
  </defs>
  <path class="cls-1" d="M177.68,147.39c-3.49-5-9.27-13.05-15.58-21.75V10.01c0-1.05-.85-1.89-1.89-1.89H19.79c-1.05,0-1.89.85-1.89,1.89v115.63c-6.31,8.7-12.09,16.75-15.58,21.75-1.67,2.4-2.32,5.1-2.32,9.62,0,10.88,6.43,14.5,6.71,14.65.28.15.59.23.9.23h164.77c.32,0,.63-.08.9-.23.27-.15,6.71-3.77,6.71-14.65,0-4.52-.65-7.22-2.32-9.62ZM158.31,120.42c-5.11-7.03-10.32-14.17-14.76-20.23V28.56c0-1.05-.85-1.89-1.89-1.89h-40.55v-14.76h57.2v108.51ZM79.77,46.21h20.47c3.13,0,5.68,2.55,5.68,5.68v6.76h-31.84v-6.76c0-3.13,2.55-5.68,5.68-5.68ZM97.32,11.9v30.51h-14.64V11.9h14.64ZM21.69,11.9h57.2v14.76h-40.55c-1.05,0-1.89.85-1.89,1.89v71.63c-4.44,6.07-9.65,13.21-14.76,20.23V11.9ZM171.82,168.1H8.18c-1.11-.82-4.39-3.87-4.39-11.09,0-4.24.63-6,1.64-7.45,11.08-15.91,45.49-62.7,45.84-63.17.62-.84.44-2.03-.4-2.65-.84-.62-2.03-.44-2.65.4-.1.14-3.28,4.47-7.98,10.88V30.45h38.65v12.01c-4.81.44-8.6,4.5-8.6,9.43v8.15l-6.16,10.66c-.34.59-.34,1.31,0,1.89l6.41,11.1c.35.61.99.95,1.64.95.32,0,.65-.08.95-.25.91-.52,1.22-1.68.69-2.59l-5.86-10.16,5.32-9.21h33.44l5.32,9.21-5.86,10.16c-.52.91-.21,2.06.69,2.59.3.17.62.25.95.25.65,0,1.29-.34,1.64-.95l6.41-11.1c.34-.59.34-1.31,0-1.89l-6.16-10.66v-8.15c0-4.93-3.78-8.98-8.6-9.43v-12.01h38.65v64.56c-4.7-6.41-7.88-10.73-7.98-10.87-.62-.84-1.81-1.02-2.65-.4-.84.62-1.02,1.81-.4,2.65.35.47,34.75,47.27,45.84,63.17,1.02,1.46,1.64,3.21,1.64,7.45,0,7.24-3.3,10.28-4.39,11.09Z"/>
  <path class="cls-1" d="M150.31,143.18H29.69c-1.05,0-1.89.85-1.89,1.89s.85,1.89,1.89,1.89h120.62c1.05,0,1.89-.85,1.89-1.89s-.85-1.89-1.89-1.89Z"/>
  <path class="cls-1" d="M45.03,128.15h89.94c1.05,0,1.89-.85,1.89-1.89s-.85-1.89-1.89-1.89H45.03c-1.05,0-1.89.85-1.89,1.89s.85,1.89,1.89,1.89Z"/>
  <path class="cls-1" d="M58.35,111.2h63.29c1.05,0,1.89-.85,1.89-1.89s-.85-1.89-1.89-1.89h-63.29c-1.05,0-1.89.85-1.89,1.89s.85,1.89,1.89,1.89Z"/>
</svg>