<?xml version="1.0" encoding="UTF-8"?>
<svg id="Industrial_Operations" data-name="Industrial Operations" xmlns="http://www.w3.org/2000/svg" viewBox="0 0 180 180">
  <defs>
    <style>
      .cls-1 {
        stroke: #000;
        stroke-miterlimit: 10;
        stroke-width: 2px;
      }
    </style>
  </defs>
  <path class="cls-1" d="M2.9,4.96h174c1.14,0,2.06-.92,2.06-2.06s-.92-2.06-2.06-2.06H2.9C1.76.84.84,1.76.84,2.9s.92,2.06,2.06,2.06Z"/>
  <path class="cls-1" d="M177.1,27.4c1.14,0,2.06-.92,2.06-2.06s-.92-2.06-2.06-2.06H3.1c-1.14,0-2.06.92-2.06,2.06s.92,2.06,2.06,2.06h69.11v12.38h-7.34c-1.14,0-2.06.92-2.06,2.06v17.02c0,1.14.92,2.06,2.06,2.06h8.44l7.95,16.82c.34.72,1.07,1.18,1.87,1.18h4.81v28.87c0,1.14.92,2.06,2.06,2.06s2.06-.92,2.06-2.06v-28.87h4.81c.8,0,1.52-.46,1.87-1.18l7.95-16.82h8.44c1.14,0,2.06-.92,2.06-2.06v-17.02c0-1.14-.92-2.06-2.06-2.06h-7.34v-12.38h69.31ZM95.57,74.8h-11.14l-6.56-13.87h24.26l-6.56,13.87ZM113.07,56.8h-46.13v-12.89h46.13v12.89ZM103.67,39.78h-27.33v-12.38h27.33v12.38Z"/>
  <path class="cls-1" d="M90,118.34c-1.14,0-2.06.92-2.06,2.06v27.02c0,1.14.92,2.06,2.06,2.06s2.06-.92,2.06-2.06v-27.02c0-1.14-.92-2.06-2.06-2.06Z"/>
  <path class="cls-1" d="M66.6,149.45c.12.02.24.03.35.03.98,0,1.86-.71,2.03-1.71l2.75-15.87c.12-.69-.12-1.4-.64-1.88l-12.94-11.8,4.38-14.59c.33-1.09-.29-2.24-1.38-2.57-1.09-.33-2.24.29-2.57,1.38l-4.76,15.84c-.23.76,0,1.58.59,2.12l13.06,11.91-2.56,14.76c-.19,1.12.56,2.19,1.68,2.38Z"/>
  <path class="cls-1" d="M108.27,131.9l2.75,15.87c.17,1,1.05,1.71,2.03,1.71.12,0,.24,0,.35-.03,1.12-.19,1.87-1.26,1.68-2.38l-2.56-14.76,13.06-11.91c.59-.53.81-1.36.59-2.12l-4.76-15.84c-.33-1.09-1.48-1.71-2.57-1.38-1.09.33-1.71,1.48-1.38,2.57l4.38,14.59-12.94,11.8c-.52.47-.76,1.18-.64,1.88Z"/>
  <path class="cls-1" d="M135.27,88.94c-.37-.62-1.04-1-1.77-1h-30.02c-1.14,0-2.06.92-2.06,2.06s.92,2.06,2.06,2.06h28.85l41.02,68.31H6.84l41.02-68.31h28.85c1.14,0,2.06-.92,2.06-2.06s-.92-2.06-2.06-2.06h-30.02c-.72,0-1.4.38-1.77,1,0,0-43.54,72.18-43.68,72.4-.2.32-.32.69-.32,1.09v14.67c0,1.14.92,2.06,2.06,2.06h174c1.14,0,2.06-.92,2.06-2.06v-14.67c0-.33-.08-.64-.22-.91-.02-.04-43.58-72.58-43.58-72.58ZM174.94,175.04H5.06v-10.54h169.88v10.54Z"/>
</svg>