<?xml version="1.0" encoding="UTF-8"?>
<svg id="Industrial_Operations" data-name="Industrial Operations" xmlns="http://www.w3.org/2000/svg" viewBox="0 0 180 180">
  <defs>
    <style>
      .cls-1 {
        stroke: #000;
        stroke-miterlimit: 10;
        stroke-width: 2px;
      }
    </style>
  </defs>
  <path class="cls-1" d="M177.92,150.27h-19.43c-.54-20.89-10.46-39.48-25.71-51.7l28.27-54.18c10.72-1.63,18.96-10.9,18.96-22.07,0-12.31-10.01-22.32-22.32-22.32s-22.32,10.01-22.32,22.32c0,3.54.83,6.89,2.3,9.86l-28.25,54.16c-6.16-1.82-12.67-2.82-19.41-2.82-37.19,0-67.53,29.78-68.48,66.75H2.08C.93,150.27,0,151.21,0,152.36v25.56c0,1.15.93,2.08,2.08,2.08h175.84c1.15,0,2.08-.93,2.08-2.08v-25.56c0-1.15-.93-2.08-2.08-2.08ZM157.68,4.16c10.01,0,18.16,8.14,18.16,18.16s-8.15,18.16-18.16,18.16-18.16-8.14-18.16-18.16,8.14-18.16,18.16-18.16ZM140.24,36.24c3.81,4.77,9.53,7.94,15.99,8.36l-26.84,51.45c-4.9-3.45-10.26-6.3-15.98-8.39l26.82-51.42ZM90,87.69c34.79,0,63.23,27.75,64.33,62.28H25.67c1.1-34.53,29.54-62.28,64.33-62.28ZM175.84,175.84H4.16v-21.4h171.67v21.4Z"/>
  <path class="cls-1" d="M52.31,55.74c-1.01.54-1.39,1.81-.85,2.82.38.7,1.09,1.1,1.84,1.1.33,0,.67-.08.98-.25,6.59-3.54,30.33-14.27,59.21-3.82,1.08.39,2.27-.17,2.67-1.25.39-1.08-.17-2.28-1.25-2.67-30.51-11.03-55.63.32-62.6,4.07Z"/>
  <path class="cls-1" d="M26.3,54.83c.39,0,.78-.11,1.12-.33,18.66-11.99,40.29-18.33,62.58-18.33,10.71,0,21.32,1.46,31.53,4.34,1.11.31,2.26-.33,2.57-1.44.31-1.11-.33-2.26-1.44-2.57-10.58-2.99-21.57-4.5-32.66-4.5-23.08,0-45.5,6.57-64.83,18.99-.97.62-1.25,1.91-.63,2.88.4.62,1.07.96,1.75.96Z"/>
  <path class="cls-1" d="M90,105.23c-17.46,0-33.36,9.61-41.48,25.08-.53,1.02-.14,2.28.88,2.81.31.16.64.24.97.24.75,0,1.47-.4,1.85-1.11,7.4-14.1,21.88-22.85,37.79-22.85,1.15,0,2.08-.93,2.08-2.08s-.93-2.08-2.08-2.08Z"/>
</svg>