<?xml version="1.0" encoding="UTF-8"?>
<svg id="Industrial_Operations" data-name="Industrial Operations" xmlns="http://www.w3.org/2000/svg" viewBox="0 0 180 180">
  <defs>
    <style>
      .cls-1 {
        stroke: #000;
        stroke-miterlimit: 10;
        stroke-width: 2px;
      }
    </style>
  </defs>
  <path class="cls-1" d="M153.76,144.05c-6.56,0-11.9,5.34-11.9,11.9s5.34,11.9,11.9,11.9,11.9-5.34,11.9-11.9-5.34-11.9-11.9-11.9ZM153.76,163.98c-4.43,0-8.03-3.6-8.03-8.03s3.6-8.03,8.03-8.03,8.03,3.6,8.03,8.03-3.6,8.03-8.03,8.03Z"/>
  <path class="cls-1" d="M153.76,131.89h-40.19v-12.45c7.3-2.82,15.17-6.81,21.26-12.96,4.49-4.53,7.51-9.84,8.73-15.36,1.37-6.21.39-13.19-3.01-21.35-7.75-18.61-19.75-24.84-31.94-28.13,3.13-4.32,4.98-9.63,4.98-15.36,0-14.49-11.79-26.29-26.29-26.29s-26.29,11.79-26.29,26.29c0,5.73,1.85,11.04,4.98,15.36-12.18,3.29-24.19,9.52-31.93,28.13-3.4,8.16-4.38,15.14-3.01,21.35,1.22,5.51,4.24,10.83,8.73,15.36,6.09,6.15,13.96,10.14,21.26,12.96v12.45H4.12c-1.07,0-1.93.87-1.93,1.93v44.24c0,1.07.87,1.93,1.93,1.93h149.64c13.26,0,24.05-10.79,24.05-24.05s-10.79-24.05-24.05-24.05ZM87.31,3.86c12.36,0,22.42,10.06,22.42,22.42s-10.06,22.42-22.42,22.42-22.42-10.06-22.42-22.42S74.94,3.86,87.31,3.86ZM34.83,90.29c-1.2-5.41-.28-11.63,2.8-19.03,7.84-18.83,20.08-23.63,31.15-26.34,4.76,4.73,11.3,7.66,18.52,7.66s13.77-2.93,18.53-7.66c11.07,2.72,23.31,7.51,31.16,26.35,3.08,7.4,4,13.62,2.8,19.03-1.06,4.8-3.72,9.46-7.7,13.48-7.49,7.57-18.15,11.69-26.59,14.43-1.95.64-4.12-.33-4.95-2.2-.44-.98-.46-2.08-.07-3.08.39-1,1.14-1.8,2.13-2.23l.09-.04c1.86-.83,18.29-8.48,20.8-21.83,1.35-7.17-1.6-14.47-8.76-21.69-.75-.76-1.97-.76-2.73-.01-.76.75-.76,1.97-.01,2.73,6.21,6.27,8.81,12.41,7.71,18.26-.77,4.1-3.23,7.64-6.12,10.51v-13.45c0-1.07-.87-1.93-1.93-1.93h-48.67c-1.07,0-1.93.87-1.93,1.93v13.45c-2.89-2.87-5.34-6.41-6.11-10.51-1.1-5.85,1.49-11.99,7.71-18.26.75-.76.75-1.98-.01-2.73-.76-.75-1.98-.75-2.73.01-7.16,7.22-10.11,14.52-8.76,21.69,2.51,13.35,18.93,21,20.8,21.83l.09.04c.98.44,1.74,1.23,2.13,2.23.39,1,.36,2.1-.07,3.08-.82,1.86-3,2.83-4.95,2.19-8.44-2.74-19.1-6.86-26.59-14.43-3.97-4.02-6.64-8.67-7.7-13.48ZM64.9,120.86c1.03.36,2.04.7,3.02,1.02.82.27,1.65.39,2.47.39,3.05,0,5.91-1.77,7.21-4.7.85-1.93.91-4.07.15-6.04-.76-1.97-2.24-3.52-4.17-4.37l-.09-.04c-.33-.15-4.35-1.97-8.59-5.17v-14.85h44.81v14.86c-4.24,3.2-8.25,5.02-8.58,5.17l-.09.04c-1.93.85-3.41,2.41-4.17,4.37-.76,1.97-.71,4.11.15,6.04,1.3,2.93,4.16,4.7,7.21,4.7.82,0,1.65-.13,2.47-.39.98-.32,1.99-.66,3.02-1.01v11.04h-44.81v-11.04ZM153.76,176.14H6.05v-40.38h147.71c11.13,0,20.19,9.06,20.19,20.19s-9.06,20.19-20.19,20.19Z"/>
  <path class="cls-1" d="M130.37,154.01H20.43c-1.07,0-1.93.87-1.93,1.93s.87,1.93,1.93,1.93h109.93c1.07,0,1.93-.87,1.93-1.93s-.87-1.93-1.93-1.93Z"/>
</svg>