<?xml version="1.0" encoding="UTF-8"?>
<svg id="Industrial_Operations" data-name="Industrial Operations" xmlns="http://www.w3.org/2000/svg" viewBox="0 0 180 180">
  <defs>
    <style>
      .cls-1 {
        stroke: #000;
        stroke-miterlimit: 10;
        stroke-width: 2px;
      }
    </style>
  </defs>
  <path class="cls-1" d="M145.48,115.47H4.29c-1.12,0-2.03.91-2.03,2.03v60.47c0,1.12.91,2.03,2.03,2.03h141.2c17.79,0,32.26-14.47,32.26-32.26s-14.47-32.26-32.26-32.26ZM145.48,175.94H6.32v-56.41h139.17c15.55,0,28.2,12.65,28.2,28.2s-12.65,28.2-28.2,28.2Z"/>
  <path class="cls-1" d="M117.68,131.19H21.14c-1.12,0-2.03.91-2.03,2.03s.91,2.03,2.03,2.03h96.54c1.12,0,2.03-.91,2.03-2.03s-.91-2.03-2.03-2.03Z"/>
  <path class="cls-1" d="M117.68,160.22H21.14c-1.12,0-2.03.91-2.03,2.03s.91,2.03,2.03,2.03h96.54c1.12,0,2.03-.91,2.03-2.03s-.91-2.03-2.03-2.03Z"/>
  <circle class="cls-1" cx="103.08" cy="147.74" r="4.29"/>
  <circle class="cls-1" cx="80.63" cy="147.74" r="4.29"/>
  <circle class="cls-1" cx="58.18" cy="147.74" r="4.29"/>
  <circle class="cls-1" cx="35.73" cy="147.74" r="4.29"/>
  <path class="cls-1" d="M10.67,35.67l22.69,69.83c.35,1.07,1.49,1.65,2.56,1.3,1.07-.35,1.65-1.49,1.3-2.56L15.76,38.21c1.92.63,3.96.97,6.08.97,6.31,0,11.92-3,15.51-7.64l24.03,73.96c.28.86,1.07,1.4,1.93,1.4.21,0,.42-.03.63-.1,1.07-.35,1.65-1.49,1.3-2.56L41.33,30.64h48.16v2.33c0,1.12.91,2.03,2.03,2.03h3.4v12.41c0,.76.43,1.46,1.11,1.81l12.41,6.33v8.19c0,1.12.91,2.03,2.03,2.03s2.03-.91,2.03-2.03v-8.19l12.41-6.33c.68-.35,1.11-1.05,1.11-1.81v-12.41h3.4c1.12,0,2.03-.91,2.03-2.03V6.21c0-1.12-.91-2.03-2.03-2.03h-37.89c-1.12,0-2.03.91-2.03,2.03v2.33h-51.48C34.48,3.39,28.55,0,21.85,0,11.04,0,2.26,8.79,2.26,19.59c0,6.65,3.33,12.53,8.41,16.07ZM121.94,46.17l-11.48,5.86-11.48-5.86v-11.17h22.96v11.17ZM93.55,8.24h33.83v22.7h-33.83V8.24ZM89.49,12.6v13.98h-49.34c.83-2.17,1.29-4.53,1.29-6.99s-.46-4.82-1.29-6.99h49.34ZM21.85,4.06c8.56,0,15.53,6.97,15.53,15.53s-6.97,15.53-15.53,15.53-15.53-6.97-15.53-15.53,6.97-15.53,15.53-15.53Z"/>
  <path class="cls-1" d="M145.48,129.39c-10.12,0-18.35,8.23-18.35,18.35s8.23,18.35,18.35,18.35,18.35-8.23,18.35-18.35-8.23-18.35-18.35-18.35ZM145.48,162.02c-7.88,0-14.29-6.41-14.29-14.29s6.41-14.29,14.29-14.29,14.29,6.41,14.29,14.29-6.41,14.29-14.29,14.29Z"/>
</svg>