<?xml version="1.0" encoding="UTF-8"?>
<svg id="Industrial_Operations" data-name="Industrial Operations" xmlns="http://www.w3.org/2000/svg" viewBox="0 0 180 180">
  <defs>
    <style>
      .cls-1 {
        stroke: #000;
        stroke-miterlimit: 10;
        stroke-width: 2px;
      }
    </style>
  </defs>
  <path class="cls-1" d="M179.54,110.3c-.37-.43-.91-.68-1.48-.68H57.47c-.57,0-1.11.25-1.48.68-.37.43-.53,1.01-.43,1.57,3.81,22.62,8.48,50.39,9.07,54.32,1.76,9.29,6.38,13.81,14.13,13.81h78c7.75,0,12.37-4.52,14.14-13.88.58-3.86,5.25-31.63,9.06-54.25.09-.56-.06-1.14-.43-1.57ZM167.1,165.48c-1.79,9.45-6.46,10.66-10.33,10.66h-78c-3.87,0-8.54-1.21-10.32-10.59-.56-3.76-4.95-29.88-8.69-52.06h116.03c-3.74,22.18-8.12,48.3-8.68,51.99Z"/>
  <path class="cls-1" d="M86.48,72.49c0-6.18-5.03-11.2-11.2-11.2s-11.2,5.03-11.2,11.2,5.03,11.2,11.2,11.2,11.2-5.03,11.2-11.2ZM67.94,72.49c0-4.05,3.29-7.34,7.34-7.34s7.34,3.29,7.34,7.34-3.29,7.34-7.34,7.34-7.34-3.29-7.34-7.34Z"/>
  <path class="cls-1" d="M102.51,72.49c0-13.31-9.61-24.42-22.25-26.77V1.93c0-1.07-.87-1.93-1.93-1.93h-21.32c-1.07,0-1.93.87-1.93,1.93v43.33h-18.85V1.93c0-1.07-.87-1.93-1.93-1.93H12.97c-1.07,0-1.93.87-1.93,1.93v43.33H1.93C.87,45.26,0,46.13,0,47.2v50.6c0,1.07.87,1.93,1.93,1.93h73.34c15.02,0,27.23-12.22,27.23-27.23ZM58.94,3.87h17.46v41.4h-17.46V3.87ZM14.9,3.87h17.46v41.4H14.9V3.87ZM3.87,49.13h71.41c12.88,0,23.37,10.48,23.37,23.37s-10.48,23.37-23.37,23.37H3.87v-46.73Z"/>
  <path class="cls-1" d="M109.49,85.68l41.5,18.07c.25.11.51.16.77.16.24,0,.48-.04.71-.13.48-.19.86-.56,1.06-1.03l8.51-19.55c.43-.98-.02-2.12-1-2.54l-41.5-18.07c-.47-.2-1-.21-1.48-.03-.48.19-.86.56-1.06,1.03l-8.51,19.55c-.43.98.02,2.12,1,2.54ZM119.77,66.91l37.95,16.53-6.97,16-37.95-16.53,6.97-16Z"/>
  <path class="cls-1" d="M86.11,137.41h63.31c1.07,0,1.93-.87,1.93-1.93s-.87-1.93-1.93-1.93h-63.31c-1.07,0-1.93.87-1.93,1.93s.87,1.93,1.93,1.93Z"/>
  <path class="cls-1" d="M86.11,157.66h63.31c1.07,0,1.93-.87,1.93-1.93s-.87-1.93-1.93-1.93h-63.31c-1.07,0-1.93.87-1.93,1.93s.87,1.93,1.93,1.93Z"/>
</svg>