<?xml version="1.0" encoding="UTF-8"?>
<svg id="Industrial_Operations" data-name="Industrial Operations" xmlns="http://www.w3.org/2000/svg" viewBox="0 0 180 180">
  <defs>
    <style>
      .cls-1 {
        stroke: #000;
        stroke-miterlimit: 10;
        stroke-width: 2px;
      }
    </style>
  </defs>
  <path class="cls-1" d="M116.07,167.45l-15.33-5.7v-6.65h36.02c5.33,0,9.67-4.34,9.67-9.67v-47.12c0-5.33-4.34-9.67-9.67-9.67H43.24c-5.33,0-9.67,4.34-9.67,9.67v47.12c0,5.33,4.34,9.67,9.67,9.67h36.02v6.65l-15.33,5.7c-.76.28-1.26,1-1.26,1.81v8.81c0,1.07.87,1.93,1.93,1.93h50.79c1.07,0,1.93-.87,1.93-1.93v-8.81c0-.81-.5-1.53-1.26-1.81ZM43.24,151.23c-3.2,0-5.8-2.6-5.8-5.8v-47.12c0-3.2,2.6-5.8,5.8-5.8h93.52c3.2,0,5.8,2.6,5.8,5.8v47.12c0,3.2-2.6,5.8-5.8,5.8h-36.02v-14.16c0-5.92-4.82-10.74-10.74-10.74s-10.74,4.82-10.74,10.74v14.16h-36.02ZM113.46,176.13h-46.92v-5.53l15.33-5.7c.76-.28,1.26-1,1.26-1.81v-26.03c0-3.79,3.08-6.87,6.87-6.87s6.87,3.08,6.87,6.87v26.03c0,.81.5,1.53,1.26,1.81l15.33,5.7v5.53Z"/>
  <path class="cls-1" d="M49.85,176.13H8.27v-39.81h14.91c1.07,0,1.93-.87,1.93-1.93s-.87-1.93-1.93-1.93H6.34c-1.07,0-1.93.87-1.93,1.93v43.68c0,1.07.87,1.93,1.93,1.93h43.51c1.07,0,1.93-.87,1.93-1.93s-.87-1.93-1.93-1.93Z"/>
  <path class="cls-1" d="M173.66,132.46h-16.84c-1.07,0-1.93.87-1.93,1.93s.87,1.93,1.93,1.93h14.91v39.81h-41.58c-1.07,0-1.93.87-1.93,1.93s.87,1.93,1.93,1.93h43.51c1.07,0,1.93-.87,1.93-1.93v-43.68c0-1.07-.87-1.93-1.93-1.93Z"/>
  <path class="cls-1" d="M43.27,79.76c.36.28.78.42,1.2.42.57,0,1.14-.25,1.52-.73,2.44-3.08,9.96-6.97,12.58-8.17l16.99-7.02c3.94,3.21,8.97,5.14,14.44,5.14s10.49-1.93,14.44-5.14l16.92,6.99c2.69,1.24,10.21,5.12,12.65,8.2.38.48.95.73,1.52.73.42,0,.84-.14,1.2-.42.84-.66.98-1.88.31-2.72-3.51-4.43-13.64-9.12-14.14-9.35l-15.46-6.39c3.4-4,5.46-9.17,5.46-14.82v-10.11h3.31c1.07,0,1.93-.87,1.93-1.93v-5.98c0-.48-.18-.94-.49-1.29l-2.29-2.55c-.4-13.65-11.63-24.63-25.37-24.63s-24.97,10.98-25.37,24.63l-2.29,2.55c-.32.35-.49.81-.49,1.29v5.98c0,1.07.87,1.93,1.93,1.93h3.31v10.11c0,5.65,2.06,10.82,5.46,14.82l-15.53,6.42c-.43.2-10.56,4.88-14.07,9.32-.66.84-.52,2.05.31,2.72ZM65.72,29.21l2.28-2.54c.32-.35.49-.81.49-1.29,0-11.86,9.65-21.51,21.51-21.51s21.51,9.65,21.51,21.51c0,.48.18.94.49,1.29l2.28,2.54v3.31h-48.57v-3.31ZM70.96,36.38h38.08v10.11c0,10.5-8.54,19.04-19.04,19.04s-19.04-8.54-19.04-19.04v-10.11Z"/>
</svg>