<?xml version="1.0" encoding="UTF-8"?>
<svg id="Industrial_Operations" data-name="Industrial Operations" xmlns="http://www.w3.org/2000/svg" viewBox="0 0 180 180">
  <defs>
    <style>
      .cls-1 {
        stroke: #000;
        stroke-miterlimit: 10;
        stroke-width: 2px;
      }
    </style>
  </defs>
  <path class="cls-1" d="M177.33,152.16l-14.94-9.68c-.51-.33-1.14-.4-1.71-.19l-31.41,11.43c-3.83-7.8-12.58-11.71-20.8-9.64l-15.9-43.68c.36-.42.7-.88.96-1.39.92-1.76,1.1-3.77.51-5.66s-1.89-3.45-3.64-4.37l-2.46-1.29-8.36-22.97c-.36-1-1.48-1.52-2.48-1.16-1,.37-1.52,1.47-1.16,2.48l6.91,18.98-14.76-7.74-7.19-31.01c10.68-2.15,18.75-11.61,18.75-22.91,0-12.89-10.49-23.38-23.38-23.38s-23.38,10.49-23.38,23.38c0,3.55.8,6.91,2.22,9.93-2.55,1.99-5.28,4.48-7.97,7.59-8.51,9.86-18.02,27.98-15.04,58.34.93,9.46,7.04,31.2,8.36,35.79l-17.28,27.92s-.05.08-.07.12c-1.44,2.73-1.72,5.86-.81,8.8.92,2.95,2.92,5.36,5.65,6.8,1.66.87,3.51,1.33,5.37,1.33,4.29,0,8.19-2.34,10.2-6.12l19.72-32.44s.04-.07.06-.1c.77-1.46,1.21-3.04,1.31-4.68.07-.86,1.47-9.52,2.72-17.15l10.28,18.64-2.33,27.53c-.72,2.93-.29,5.98,1.24,8.59,1.55,2.67,4.05,4.56,7.04,5.35.96.25,1.96.38,2.95.38,5.24,0,9.83-3.54,11.16-8.61.02-.09.04-.19.05-.28l3.49-32.37c2.09-8.84-2.17-16.81-7.11-26.03-2.62-4.89-5.48-10.26-7.76-16.45l18.16,6.34c.8.28,1.61.41,2.42.41s1.58-.14,2.33-.39l15.58,42.82c-8.73,4.31-12.58,14.81-8.58,23.77,3.03,6.77,9.7,10.8,16.68,10.8,2.48,0,5-.51,7.41-1.59,8.19-3.66,12.34-12.64,10.24-21.06l30.5-11.1,14.13,9.15c.9.58,2.09.32,2.67-.57.58-.9.32-2.09-.57-2.67ZM56.28,3.87c10.76,0,19.51,8.75,19.51,19.51s-8.75,19.51-19.51,19.51-19.51-8.75-19.51-19.51S45.52,3.87,56.28,3.87ZM85.78,98.94l-27.57-9.63c-1.12-.39-2.02-1.19-2.52-2.26l-12.11-30.21c-.4-.99-1.52-1.48-2.51-1.08-.99.4-1.47,1.52-1.08,2.51l12.21,30.43c.96,2.01,2.64,3.52,4.74,4.25l4.73,1.65c2.49,7.65,5.93,14.11,9.03,19.91,4.78,8.92,8.55,15.97,6.73,23.42-.02.08-.03.17-.04.25l-3.49,32.34c-.93,3.3-3.95,5.6-7.39,5.6-.66,0-1.32-.09-1.96-.26-1.99-.52-3.65-1.79-4.68-3.56-1.03-1.77-1.32-3.84-.79-5.83.03-.11.05-.22.06-.33l2.4-28.28c.03-.38-.05-.76-.23-1.1l-13.25-24.03c-.4-.72-1.21-1.11-2.02-.97-.81.14-1.45.78-1.58,1.59-.6,3.61-3.59,21.66-3.68,23.04-.06,1.08-.35,2.11-.84,3.06l-19.72,32.44s-.04.07-.06.1c-1.33,2.53-3.94,4.11-6.81,4.11-1.25,0-2.45-.3-3.57-.89-3.73-1.96-5.18-6.58-3.25-10.32l17.69-28.59c.29-.46.37-1.03.21-1.56-.07-.26-7.48-25.89-8.46-35.92-2.24-22.85,2.59-41.97,13.98-55.27,2.39-2.8,4.85-5.06,7.15-6.89,4.23,6.07,11.25,10.06,19.19,10.06.26,0,.51-.01.76-.02l7.49,32.31c.13.55.49,1.01.99,1.27l23.08,12.1c.84.44,1.46,1.19,1.75,2.09.28.91.2,1.87-.25,2.72-.81,1.55-2.67,2.29-4.33,1.71ZM118.78,174.88c-7.24,3.23-15.75-.02-18.99-7.26-1.57-3.51-1.67-7.41-.3-11,1.37-3.59,4.06-6.42,7.56-7.99,7.24-3.23,15.75.02,18.99,7.26,3.23,7.24-.02,15.75-7.26,18.99Z"/>
  <path class="cls-1" d="M103.03,102.52c.29.78,1.03,1.27,1.82,1.27.22,0,.44-.04.66-.12l46.39-16.88c1-.37,1.52-1.47,1.16-2.48l-11.31-31.09c-.18-.48-.53-.87-1-1.09-.47-.22-1-.24-1.48-.06l-46.39,16.88c-.48.18-.87.53-1.09,1-.22.46-.24,1-.06,1.48l11.31,31.09ZM138.77,56.37l9.99,27.45-42.76,15.56-9.99-27.45,42.76-15.56Z"/>
  <path class="cls-1" d="M107.46,114.71l7.14,19.61c.37,1,1.48,1.52,2.48,1.16,1-.37,1.52-1.47,1.16-2.48l-6.47-17.79,42.76-15.56,9.99,27.45-33.06,12.03c-1,.36-1.52,1.47-1.16,2.48.29.78,1.03,1.27,1.82,1.27.22,0,.44-.04.66-.12l34.88-12.69c.48-.18.87-.53,1.09-1,.22-.46.24-1,.06-1.48l-11.31-31.09c-.37-1-1.48-1.52-2.48-1.16l-46.39,16.89c-1,.36-1.52,1.47-1.16,2.48Z"/>
</svg>