<?xml version="1.0" encoding="UTF-8"?>
<svg id="Industrial_Operations" data-name="Industrial Operations" xmlns="http://www.w3.org/2000/svg" viewBox="0 0 180 180">
  <defs>
    <style>
      .cls-1 {
        stroke: #000;
        stroke-miterlimit: 10;
        stroke-width: 2px;
      }
    </style>
  </defs>
  <path class="cls-1" d="M178.3,157.54h-39.47c-2.91,0-5.28-2.37-5.28-5.28V16.33c0-.94-.76-1.7-1.7-1.7h-15.51c-.94,0-1.7.76-1.7,1.7v68.4h-9.51L83.41,15.82c-.22-.71-.88-1.19-1.62-1.19h-41.87c-.69,0-1.31.42-1.57,1.06l-21.25,52.27c-.08.2-.13.42-.13.64v10.32h-1.86c-4.79,0-8.68,3.89-8.68,8.68v44.79C2.49,135.84,0,140.9,0,146.53,0,156.92,8.45,165.37,18.83,165.37c8.35,0,15.44-5.46,17.9-13h40.75c3.93,7.71,11.94,13,21.18,13s17.24-5.29,21.18-13h10.32c.05,4.74,3.92,8.58,8.67,8.58h39.47c.94,0,1.7-.76,1.7-1.7s-.76-1.7-1.7-1.7ZM41.06,18.03h39.48l16.44,52.14-11.22,9.13c-.4.32-.63.81-.63,1.32v28.04c0,2.91-2.37,5.28-5.28,5.28h-24.72s-10.49-33.82-10.49-33.82c-.22-.71-.88-1.2-1.62-1.2h-22.65v-9.99l20.69-50.9ZM18.83,161.97c-8.51,0-15.43-6.92-15.43-15.43s6.92-15.43,15.43-15.43,15.43,6.92,15.43,15.43-6.92,15.43-15.43,15.43ZM37.5,148.96c.1-.8.16-1.61.16-2.43,0-10.38-8.45-18.83-18.83-18.83-3.26,0-6.33.83-9.01,2.3v-42.4c0-2.91,2.37-5.28,5.28-5.28h26.66l10.49,33.82c.22.71.88,1.2,1.62,1.2h25.98c4.79,0,8.68-3.89,8.68-8.67v-27.23l9.55-7.77,4.19,13.28c.22.71.88,1.19,1.62,1.19h10.76v35.9c-4.22-3.85-9.84-6.2-15.99-6.2-8.96,0-16.78,4.99-20.82,12.33h-18.73c-.94,0-1.7.76-1.7,1.7s.76,1.7,1.7,1.7h17.19c-.9,2.51-1.4,5.21-1.4,8.03,0,2.57.41,5.04,1.17,7.36h-38.57ZM98.66,161.97c-11.23,0-20.36-9.13-20.36-20.36s9.13-20.36,20.36-20.36,20.36,9.13,20.36,20.36-9.13,20.36-20.36,20.36ZM118.04,127.89V18.03h12.11v130.93h-8.9c.76-2.32,1.17-4.79,1.17-7.36,0-5.11-1.62-9.84-4.38-13.71Z"/>
  <path class="cls-1" d="M44.02,64.8c3.15.11,4.51,2.75,5.04,4.32l8.39,24.91c.23.69.88,1.16,1.61,1.16h14.59c.94,0,1.7-.76,1.7-1.7s-.76-1.7-1.7-1.7h-13.37l-8-23.75c-1.35-4.02-4.4-6.5-8.14-6.63-.92-.03-1.73.7-1.76,1.64-.03.94.7,1.73,1.64,1.76Z"/>
  <path class="cls-1" d="M32.49,94.04h-9.5c-.94,0-1.7.76-1.7,1.7s.76,1.7,1.7,1.7h9.5c.94,0,1.7-.76,1.7-1.7s-.76-1.7-1.7-1.7Z"/>
  <path class="cls-1" d="M32.49,108h-9.5c-.94,0-1.7.76-1.7,1.7s.76,1.7,1.7,1.7h9.5c.94,0,1.7-.76,1.7-1.7s-.76-1.7-1.7-1.7Z"/>
</svg>