<?xml version="1.0" encoding="UTF-8"?>
<svg id="Industrial_Operations" data-name="Industrial Operations" xmlns="http://www.w3.org/2000/svg" viewBox="0 0 180 180">
  <defs>
    <style>
      .cls-1 {
        stroke: #000;
        stroke-miterlimit: 10;
        stroke-width: 2px;
      }
    </style>
  </defs>
  <circle class="cls-1" cx="103.42" cy="146.36" r="4.4"/>
  <circle class="cls-1" cx="80.39" cy="146.36" r="4.4" transform="translate(-85.51 165.28) rotate(-67.73)"/>
  <circle class="cls-1" cx="57.36" cy="146.36" r="4.4" transform="translate(-22.81 11.14) rotate(-9.26)"/>
  <circle class="cls-1" cx="34.34" cy="146.36" r="4.4"/>
  <path class="cls-1" d="M146.91,127.54c-10.38,0-18.82,8.44-18.82,18.82s8.44,18.82,18.82,18.82,18.82-8.44,18.82-18.82-8.44-18.82-18.82-18.82ZM146.91,161.01c-8.08,0-14.66-6.57-14.66-14.66s6.57-14.66,14.66-14.66,14.66,6.57,14.66,14.66-6.57,14.66-14.66,14.66Z"/>
  <path class="cls-1" d="M148.07,113.29v-38.56c0-1.15-.93-2.08-2.08-2.08h-31.63c-1.15,0-2.08.93-2.08,2.08v38.53h-41.31V46.47h10.64v14.2c0,8.09,1.27,28.11,13.06,39.29.4.38.92.57,1.43.57.55,0,1.1-.22,1.51-.65.79-.83.76-2.15-.08-2.94-10.62-10.07-11.76-28.72-11.76-36.27V20.4c0-.71-.37-1.38-.97-1.76l-13.84-8.76V2.63c0-1.15-.93-2.08-2.08-2.08H2.08C.93.55,0,1.48,0,2.63v174.73c0,1.15.93,2.08,2.08,2.08h144.82c18.25,0,33.09-14.85,33.09-33.09s-14.22-32.45-31.93-33.06ZM70.96,14.81l10.64,6.74v20.76h-10.64V14.81ZM116.44,76.81h27.47v36.45h-27.47v-36.45ZM4.16,4.71h62.63v122.82H4.16V4.71ZM146.91,175.29H4.16v-43.58h64.71c1.15,0,2.08-.93,2.08-2.08v-12.19h75.95c15.95,0,28.93,12.98,28.93,28.93s-12.98,28.93-28.93,28.93Z"/>
  <path class="cls-1" d="M118.9,159.94H21.11c-1.15,0-2.08.93-2.08,2.08s.93,2.08,2.08,2.08h97.79c1.15,0,2.08-.93,2.08-2.08s-.93-2.08-2.08-2.08Z"/>
  <path class="cls-1" d="M47.61,23.8h-24.26c-1.15,0-2.08.93-2.08,2.08s.93,2.08,2.08,2.08h24.26c1.15,0,2.08-.93,2.08-2.08s-.93-2.08-2.08-2.08Z"/>
  <path class="cls-1" d="M47.61,42.31h-24.26c-1.15,0-2.08.93-2.08,2.08s.93,2.08,2.08,2.08h24.26c1.15,0,2.08-.93,2.08-2.08s-.93-2.08-2.08-2.08Z"/>
  <path class="cls-1" d="M47.61,60.81h-24.26c-1.15,0-2.08.93-2.08,2.08s.93,2.08,2.08,2.08h24.26c1.15,0,2.08-.93,2.08-2.08s-.93-2.08-2.08-2.08Z"/>
</svg>