<?xml version="1.0" encoding="UTF-8"?>
<svg id="Industrial_Operations" data-name="Industrial Operations" xmlns="http://www.w3.org/2000/svg" viewBox="0 0 180 180">
  <defs>
    <style>
      .cls-1 {
        stroke: #000;
        stroke-miterlimit: 10;
        stroke-width: 2px;
      }
    </style>
  </defs>
  <path class="cls-1" d="M172.67,167.79c-5.4-.05-10.14-3.72-11.54-8.93-1.4-5.21.87-10.77,5.46-13.47,2.52-1.35,3.38-3.8,2.18-6.24-.86-1.75-4.72-8.43-5.81-10.06-1.51-2.26-4.06-2.74-6.42-1.28-4.7,2.66-10.64,1.85-14.46-1.97-3.82-3.82-4.63-9.76-2.01-14.39,1.51-2.44,1.02-4.98-1.24-6.49-1.63-1.09-8.3-4.94-10.06-5.81-2.43-1.2-4.88-.34-6.2,2.1-2.74,4.65-8.29,6.92-13.51,5.53-5.21-1.4-8.89-6.14-8.93-11.46.09-2.86-1.61-4.83-4.32-5.01-1.95-.13-9.66-.13-11.62,0-2.71.18-4.4,2.14-4.32,4.92-.05,5.4-3.72,10.14-8.93,11.54-5.22,1.4-10.77-.88-13.47-5.46-1.35-2.52-3.8-3.37-6.24-2.18-1.76.87-8.44,4.72-10.06,5.81-2.26,1.51-2.75,4.06-1.28,6.42,2.66,4.7,1.85,10.64-1.97,14.46-3.82,3.82-9.76,4.63-14.39,2.01-2.43-1.51-4.98-1.02-6.49,1.24-1.09,1.63-4.94,8.3-5.81,10.06-1.2,2.44-.35,4.89,2.1,6.2,4.65,2.74,6.92,8.29,5.53,13.51-1.4,5.21-6.14,8.89-11.46,8.93-2.88-.08-4.83,1.61-5,4.32-.13,1.97-.13,3.18,0,5.15.08,1.15,1.06,2,2.22,1.94,1.15-.08,2.02-1.07,1.94-2.22-.12-1.79-.12-2.82,0-4.61.01-.22.06-.33.07-.34,0,0,.16-.1.74-.09,7.26-.06,13.65-5,15.53-12.02,1.88-7.02-1.18-14.49-7.51-18.21-.42-.23-.52-.39-.52-.39,0,0,0-.12.11-.34.78-1.58,4.55-8.12,5.53-9.58.14-.21.23-.26.23-.26.03-.01.2,0,.68.29,6.32,3.58,14.32,2.49,19.46-2.65,5.14-5.14,6.22-13.14,2.6-19.52-.25-.41-.25-.6-.26-.6.01-.03.08-.12.27-.24,1.46-.98,8-4.75,9.58-5.53.22-.11.33-.11.33-.11.02,0,.18.11.44.59,3.68,6.26,11.16,9.32,18.17,7.44,7.02-1.88,11.96-8.26,12.02-15.61-.01-.48.08-.64.08-.64,0,0,.1-.06.35-.08,1.76-.12,9.31-.12,11.06,0,.24.02.34.07.34.07,0,.02.1.18.08.73.06,7.26,5,13.65,12.02,15.53,7.02,1.88,14.49-1.18,18.21-7.51.23-.42.39-.52.39-.52,0-.02.12,0,.34.11,1.58.78,8.12,4.55,9.59,5.53.18.12.25.22.26.23,0,0,0,.19-.29.68-3.58,6.32-2.49,14.32,2.65,19.46,5.14,5.14,13.14,6.22,19.52,2.61.41-.25.6-.25.6-.26,0,0,.1.06.24.26.98,1.47,4.76,8.01,5.53,9.58.11.22.11.33.11.33,0,.02-.11.18-.59.44-6.26,3.68-9.32,11.16-7.44,18.17,1.88,7.02,8.26,11.96,15.61,12.02.48-.01.64.08.64.08,0,0,.06.1.08.35.12,1.79.12,2.82,0,4.6-.08,1.15.79,2.14,1.94,2.22.05,0,.09,0,.14,0,1.09,0,2-.84,2.08-1.94.13-1.97.13-3.18,0-5.15-.18-2.71-2.16-4.37-4.92-4.32Z"/>
  <path class="cls-1" d="M90,152.58c-13.97,0-25.34,11.37-25.34,25.34,0,1.15.93,2.08,2.08,2.08s2.08-.93,2.08-2.08c0-11.68,9.5-21.17,21.17-21.17s21.17,9.5,21.17,21.17c0,1.15.93,2.08,2.08,2.08s2.08-.93,2.08-2.08c0-13.97-11.37-25.34-25.34-25.34Z"/>
  <path class="cls-1" d="M90,123.43c-30.04,0-54.48,24.44-54.48,54.48,0,1.15.93,2.08,2.08,2.08s2.08-.93,2.08-2.08c0-27.75,22.57-50.32,50.32-50.32s50.32,22.57,50.32,50.32c0,1.15.93,2.08,2.08,2.08s2.08-.93,2.08-2.08c0-30.04-24.44-54.48-54.48-54.48Z"/>
  <path class="cls-1" d="M14.1,41.54s113.95,37.34,113.99,37.36c3.68,1.11,7.57,1.71,11.6,1.71,22.22,0,40.3-18.08,40.3-40.3S161.92,0,139.7,0H21.41C9.61,0,0,9.61,0,21.41,0,30.65,5.88,38.54,14.1,41.54ZM175.84,40.3c0,19.93-16.21,36.14-36.14,36.14s-36.14-16.21-36.14-36.14S119.77,4.16,139.7,4.16s36.14,16.21,36.14,36.14ZM121.88,4.16c-13.31,6.59-22.48,20.31-22.48,36.14,0,11.27,4.66,21.47,12.14,28.8L28.1,41.75c8.54-2.82,14.72-10.87,14.72-20.34,0-7.07-3.44-13.35-8.74-17.25h87.8ZM21.41,4.16c9.51,0,17.25,7.74,17.25,17.25s-7.74,17.25-17.25,17.25S4.16,30.92,4.16,21.41,11.9,4.16,21.41,4.16Z"/>
  <path class="cls-1" d="M118.73,40.3c0,11.56,9.41,20.97,20.97,20.97s20.97-9.41,20.97-20.97-9.41-20.97-20.97-20.97-20.97,9.41-20.97,20.97ZM156.51,40.3c0,9.27-7.54,16.81-16.81,16.81s-16.81-7.54-16.81-16.81,7.54-16.81,16.81-16.81,16.81,7.54,16.81,16.81Z"/>
  <path class="cls-1" d="M22.43,64.56H5.78c-1.15,0-2.08.93-2.08,2.08s.93,2.08,2.08,2.08h16.65c1.15,0,2.08-.93,2.08-2.08s-.93-2.08-2.08-2.08Z"/>
  <path class="cls-1" d="M22.43,83.07H5.78c-1.15,0-2.08.93-2.08,2.08s.93,2.08,2.08,2.08h16.65c1.15,0,2.08-.93,2.08-2.08s-.93-2.08-2.08-2.08Z"/>
  <path class="cls-1" d="M22.43,101.58H5.78c-1.15,0-2.08.93-2.08,2.08s.93,2.08,2.08,2.08h16.65c1.15,0,2.08-.93,2.08-2.08s-.93-2.08-2.08-2.08Z"/>
</svg>