<?xml version="1.0" encoding="UTF-8"?>
<svg id="Industrial_Operations" data-name="Industrial Operations" xmlns="http://www.w3.org/2000/svg" viewBox="0 0 180 180">
  <defs>
    <style>
      .cls-1 {
        stroke: #000;
        stroke-miterlimit: 10;
        stroke-width: 2px;
      }
    </style>
  </defs>
  <path class="cls-1" d="M178.02,114.97h-10.97L147.03,1.64c-.17-.95-.99-1.64-1.95-1.64h-22.46c-.96,0-1.78.69-1.95,1.64l-12.84,72.7c-.19,1.08.53,2.1,1.61,2.3,1.08.19,2.1-.53,2.3-1.61L124.28,3.96h19.14l3.53,19.97h-13.1c-1.09,0-1.98.89-1.98,1.98s.89,1.98,1.98,1.98h13.8l3.2,18.1h-16.99c-1.09,0-1.98.89-1.98,1.98s.89,1.98,1.98,1.98h17.69l3.36,19.03h-21.06c-1.09,0-1.98.89-1.98,1.98s.89,1.98,1.98,1.98h21.76l3.36,19.03h-25.12c-1.09,0-1.98.89-1.98,1.98s.89,1.98,1.98,1.98h25.82l3.36,19.03h-44.1v-29.17c0-1.09-.89-1.98-1.98-1.98h-47.25v-39.93c0-1.09-.89-1.98-1.98-1.98h-16.51c-1.09,0-1.98.89-1.98,1.98v39.93h-11.11V1.98c0-1.09-.89-1.98-1.98-1.98h-16.51c-1.09,0-1.98.89-1.98,1.98v81.83H1.98C.89,83.81,0,84.7,0,85.79v92.23c0,1.09.89,1.98,1.98,1.98h176.04c1.09,0,1.98-.89,1.98-1.98v-61.07c0-1.09-.89-1.98-1.98-1.98ZM53.19,45.87h12.55v37.95h-12.55v-37.95ZM21.6,3.96h12.55v79.85h-12.55V3.96ZM3.96,87.77h111v88.27h-34.06v-25.09c0-1.09-.89-1.98-1.98-1.98h-38.92c-1.09,0-1.98.89-1.98,1.98v25.09H3.96v-88.27ZM41.99,176.04v-23.11h34.96v23.11h-34.96ZM176.04,176.04h-57.11v-57.11h57.11v57.11Z"/>
  <path class="cls-1" d="M158.9,145.5h-22.84c-1.09,0-1.98.89-1.98,1.98s.89,1.98,1.98,1.98h22.84c1.09,0,1.98-.89,1.98-1.98s-.89-1.98-1.98-1.98Z"/>
  <path class="cls-1" d="M99.3,136.56c1.09,0,1.98-.89,1.98-1.98v-31.97c0-1.09-.89-1.98-1.98-1.98H19.62c-1.09,0-1.98.89-1.98,1.98v31.97c0,1.09.89,1.98,1.98,1.98h79.68ZM21.6,120.58h22.6v12.03h-22.6v-12.03ZM70.76,120.58v12.03h-22.6v-12.03h22.6ZM48.16,116.62v-12.03h22.6v12.03h-22.6ZM97.32,132.6h-22.6v-12.03h22.6v12.03ZM97.32,116.62h-22.6v-12.03h22.6v12.03ZM21.6,104.59h22.6v12.03h-22.6v-12.03Z"/>
</svg>