<?xml version="1.0" encoding="UTF-8"?>
<svg id="Industrial_Operations" data-name="Industrial Operations" xmlns="http://www.w3.org/2000/svg" viewBox="0 0 180 180">
  <defs>
    <style>
      .cls-1 {
        stroke: #000;
        stroke-miterlimit: 10;
        stroke-width: 2px;
      }
    </style>
  </defs>
  <path class="cls-1" d="M117.9,130.9h-57.55c-1.1,0-1.99.89-1.99,1.99s.89,1.99,1.99,1.99h57.55c1.1,0,1.99-.89,1.99-1.99s-.89-1.99-1.99-1.99Z"/>
  <path class="cls-1" d="M117.9,160.16H20.58c-1.1,0-1.99.89-1.99,1.99s.89,1.99,1.99,1.99h97.32c1.1,0,1.99-.89,1.99-1.99s-.89-1.99-1.99-1.99Z"/>
  <circle class="cls-1" cx="103.19" cy="147.53" r="4.21"/>
  <circle class="cls-1" cx="80.56" cy="147.53" r="4.21"/>
  <circle class="cls-1" cx="57.92" cy="147.53" r="4.21"/>
  <path class="cls-1" d="M145.93,129.08c-10.17,0-18.44,8.27-18.44,18.44s8.27,18.44,18.44,18.44,18.44-8.27,18.44-18.44-8.27-18.44-18.44-18.44ZM145.93,161.98c-7.97,0-14.46-6.48-14.46-14.46s6.48-14.46,14.46-14.46,14.46,6.48,14.46,14.46-6.48,14.46-14.46,14.46Z"/>
  <path class="cls-1" d="M147.39,115.09v-62.18c0-1.1-.89-1.99-1.99-1.99h-10.47c-1.1,0-1.99.89-1.99,1.99s.89,1.99,1.99,1.99h8.48v60.15h-48.31v-20.3c0-1.1-.89-1.99-1.99-1.99s-1.99.89-1.99,1.99v20.3h-38.01l18.86-31.39c3.43.9,7.03,1.38,10.74,1.38,23.45,0,42.52-19.08,42.52-42.52S106.13,0,82.69,0s-42.52,19.08-42.52,42.52c0,11.08,4.26,21.18,11.23,28.76l-26.3,43.78H3.59c-1.1,0-1.99.89-1.99,1.99v60.96c0,1.1.89,1.99,1.99,1.99h142.34c17.91,0,32.47-14.57,32.47-32.47s-13.78-31.67-31.01-32.43ZM44.15,42.52c0-21.25,17.29-38.53,38.53-38.53s38.53,17.29,38.53,38.53-17.29,38.53-38.53,38.53-38.53-17.29-38.53-38.53ZM54.32,74.16c3.97,3.57,8.62,6.4,13.72,8.28l-33.96,56.53c-2.28,3.79-7.21,5.02-10.99,2.74-1.83-1.1-3.13-2.85-3.65-4.93s-.2-4.23.91-6.06l33.98-56.55ZM145.93,176.01H5.59v-56.97h17.11l-5.78,9.62c-1.65,2.75-2.13,5.97-1.36,9.08.78,3.11,2.71,5.73,5.46,7.38,1.93,1.16,4.06,1.71,6.16,1.71,4.08,0,8.06-2.07,10.31-5.82l13.21-21.98h95.23c15.71,0,28.48,12.78,28.48,28.48s-12.78,28.48-28.48,28.48Z"/>
  <path class="cls-1" d="M58.53,44.52c1.1,0,1.99-.89,1.99-1.99,0-12.22,9.94-22.16,22.16-22.16,1.1,0,1.99-.89,1.99-1.99s-.89-1.99-1.99-1.99c-14.42,0-26.15,11.73-26.15,26.15,0,1.1.89,1.99,1.99,1.99Z"/>
</svg>