<?xml version="1.0" encoding="UTF-8"?>
<svg id="Industrial_Operations" data-name="Industrial Operations" xmlns="http://www.w3.org/2000/svg" viewBox="0 0 180 180">
  <defs>
    <style>
      .cls-1 {
        stroke: #000;
        stroke-miterlimit: 10;
        stroke-width: 2px;
      }
    </style>
  </defs>
  <path class="cls-1" d="M177.92,36.09c1.15,0,2.08-.93,2.08-2.08v-16.66c0-1.15-.93-2.08-2.08-2.08h-7.58v-5.78c0-5.23-4.25-9.49-9.49-9.49s-9.49,4.25-9.49,9.49v5.78H28.63v-5.78c0-5.23-4.25-9.49-9.49-9.49s-9.49,4.25-9.49,9.49v5.78H2.08C.93,15.27,0,16.2,0,17.35v16.66C0,35.16.93,36.09,2.08,36.09h7.58v105.56H2.08C.93,141.65,0,142.58,0,143.73v34.19c0,1.15.93,2.08,2.08,2.08h175.84c1.15,0,2.08-.93,2.08-2.08v-34.19c0-1.15-.93-2.08-2.08-2.08h-7.58V36.09h7.58ZM155.53,9.49c0-2.93,2.39-5.32,5.32-5.32s5.32,2.39,5.32,5.32v5.78h-10.64v-5.78ZM13.82,9.49c0-2.93,2.39-5.32,5.32-5.32s5.32,2.39,5.32,5.32v5.78h-10.64v-5.78ZM4.16,19.43h171.67v12.49H4.16v-12.49ZM137.02,141.65v-12.72c0-1.15-.93-2.08-2.08-2.08h-23.49c-3.01-9.25-11.61-15.57-21.45-15.57s-18.44,6.32-21.45,15.57h-23.49c-1.15,0-2.08.93-2.08,2.08v12.72h-14.34V36.09h36.69v10.64h-20.26c-1.15,0-2.08.93-2.08,2.08v26.63c0,1.15.93,2.08,2.08,2.08h25.06c.96,0,1.79-.65,2.02-1.58,2.04-8.24,9.39-13.99,17.86-13.99s15.82,5.75,17.86,13.99c.23.93,1.06,1.58,2.02,1.58h25.06c1.15,0,2.08-.93,2.08-2.08v-26.63c0-1.15-.93-2.08-2.08-2.08h-20.26v-10.64h36.69v105.56h-14.34ZM132.86,141.65H47.14v-10.64h22.98c.96,0,1.79-.65,2.02-1.58,2.04-8.24,9.39-13.99,17.86-13.99s15.82,5.75,17.86,13.99c.23.93,1.06,1.58,2.02,1.58h22.98v10.64ZM110.52,36.09v12.72c0,1.15.93,2.08,2.08,2.08h20.26v22.47h-21.41c-3.01-9.24-11.61-15.57-21.45-15.57s-18.44,6.32-21.45,15.57h-21.41v-22.47h20.26c1.15,0,2.08-.93,2.08-2.08v-12.72h41.04ZM13.82,36.09h10.64v105.56h-10.64V36.09ZM175.84,175.84H4.16v-30.02h171.67v30.02ZM166.18,141.65h-10.64V36.09h10.64v105.56Z"/>
  <path class="cls-1" d="M32.33,158.74h-11.56c-1.15,0-2.08.93-2.08,2.08s.93,2.08,2.08,2.08h11.56c1.15,0,2.08-.93,2.08-2.08s-.93-2.08-2.08-2.08Z"/>
  <path class="cls-1" d="M159.23,158.74h-11.56c-1.15,0-2.08.93-2.08,2.08s.93,2.08,2.08,2.08h11.56c1.15,0,2.08-.93,2.08-2.08s-.93-2.08-2.08-2.08Z"/>
</svg>