<?xml version="1.0" encoding="UTF-8"?>
<svg id="Industrial_Operations" data-name="Industrial Operations" xmlns="http://www.w3.org/2000/svg" viewBox="0 0 180 180">
  <defs>
    <style>
      .cls-1 {
        stroke: #000;
        stroke-miterlimit: 10;
        stroke-width: 2px;
      }
    </style>
  </defs>
  <path class="cls-1" d="M118.39,129.94h-38.98c-1.15,0-2.08.93-2.08,2.08s.93,2.08,2.08,2.08h38.98c1.15,0,2.08-.93,2.08-2.08s-.93-2.08-2.08-2.08Z"/>
  <path class="cls-1" d="M118.39,159.71h-16.77c-1.15,0-2.08.93-2.08,2.08s.93,2.08,2.08,2.08h16.77c1.15,0,2.08-.93,2.08-2.08s-.93-2.08-2.08-2.08Z"/>
  <path class="cls-1" d="M165.73,146.91c0-10.38-8.44-18.82-18.82-18.82s-18.82,8.44-18.82,18.82,8.44,18.82,18.82,18.82,18.82-8.44,18.82-18.82ZM132.25,146.91c0-8.08,6.57-14.65,14.66-14.65s14.66,6.57,14.66,14.65-6.57,14.66-14.66,14.66-14.66-6.57-14.66-14.66Z"/>
  <path class="cls-1" d="M89.56,167l-21.02-9.97v-78.88h30.01c5.74,0,10.41-4.67,10.41-10.41V10.41c0-5.74-4.67-10.41-10.41-10.41H10.41C4.67,0,0,4.67,0,10.41v57.32C0,73.48,4.67,78.15,10.41,78.15h30.01v78.88l-21.02,9.97c-.73.35-1.19,1.08-1.19,1.88v9.04c0,1.15.93,2.08,2.08,2.08h68.37c1.15,0,2.08-.93,2.08-2.08v-9.04c0-.8-.46-1.54-1.19-1.88ZM4.16,67.74V10.41c0-3.44,2.8-6.25,6.25-6.25h38.5l-15.58,16.94c-.78.85-.72,2.16.12,2.94.4.37.91.55,1.41.55.56,0,1.12-.23,1.53-.67L54.57,4.16h17.92l-39.16,42.58c-.78.85-.72,2.16.12,2.94.4.37.91.55,1.41.55.56,0,1.12-.23,1.53-.67L78.15,4.16h20.4c3.44,0,6.25,2.8,6.25,6.25v57.32c0,3.44-2.8,6.25-6.25,6.25H10.41c-3.44,0-6.25-2.8-6.25-6.25ZM86.58,175.84H22.38v-5.64l21.02-9.97c.73-.35,1.19-1.08,1.19-1.88v-80.2h19.79v80.2c0,.8.46,1.54,1.19,1.88l21.02,9.97v5.64Z"/>
  <path class="cls-1" d="M178.97,66.26c.64-.37,1.03-1.06,1.03-1.79v-30.38c0-1.15-.93-2.08-2.08-2.08h-57.93c-1.15,0-2.08.93-2.08,2.08s.93,2.08,2.08,2.08h55.85v27.1l-37.47,22.07c-.64.37-1.03,1.06-1.03,1.79v26.68h-57.93c-1.15,0-2.08.93-2.08,2.08s.93,2.08,2.08,2.08h67.49c15.95,0,28.93,12.98,28.93,28.93s-12.98,28.93-28.93,28.93h-45.28c-1.15,0-2.08.93-2.08,2.08s.93,2.08,2.08,2.08h45.28c18.25,0,33.09-14.85,33.09-33.09s-14.85-33.09-33.09-33.09h-5.4v-25.49l37.47-22.07Z"/>
  <path class="cls-1" d="M2.08,117.98h27.47c1.15,0,2.08-.93,2.08-2.08s-.93-2.08-2.08-2.08H2.08C.93,113.81,0,114.75,0,115.9s.93,2.08,2.08,2.08Z"/>
  <path class="cls-1" d="M15.81,129.94H2.08C.93,129.94,0,130.87,0,132.02s.93,2.08,2.08,2.08h13.73c1.15,0,2.08-.93,2.08-2.08s-.93-2.08-2.08-2.08Z"/>
</svg>