<?xml version="1.0" encoding="UTF-8"?>
<svg id="Industrial_Operations" data-name="Industrial Operations" xmlns="http://www.w3.org/2000/svg" viewBox="0 0 180 180">
  <defs>
    <style>
      .cls-1 {
        stroke: #000;
        stroke-miterlimit: 10;
        stroke-width: 2px;
      }
    </style>
  </defs>
  <path class="cls-1" d="M177.92,46.29h-60.01v-6.93h29.91c1.15,0,2.08-.93,2.08-2.08s-.93-2.08-2.08-2.08h-57.72c-2.93,0-5.32-2.38-5.32-5.32s2.38-5.32,5.32-5.32h57.72c1.15,0,2.08-.93,2.08-2.08s-.93-2.08-2.08-2.08h-29.91v-6.93h59.81c1.15,0,2.08-.93,2.08-2.08s-.93-2.08-2.08-2.08h-60.24c-1.27-4.31-5.26-7.46-9.97-7.46h-34.82c-4.71,0-8.7,3.15-9.97,7.46H2.08C.93,9.31,0,10.24,0,11.39s.93,2.08,2.08,2.08h60.21v32.82H2.28c-1.15,0-2.08.93-2.08,2.08s.93,2.08,2.08,2.08h60.01v1.93c0,.91.59,1.72,1.46,1.99l13.4,4.17v7.07h-7.68c-1.15,0-2.08.93-2.08,2.08v15.35c0,1.15.93,2.08,2.08,2.08h6.19l6.78,9.31c.39.54,1.02.86,1.68.86h11.95c.67,0,1.29-.32,1.68-.86l6.77-9.31h6.19c1.15,0,2.08-.93,2.08-2.08v-15.35c0-1.15-.93-2.08-2.08-2.08h-7.68v-7.07l13.4-4.17c.87-.27,1.46-1.08,1.46-1.99v-1.93h60.01c1.15,0,2.08-.93,2.08-2.08s-.93-2.08-2.08-2.08ZM108.64,80.95h-5.17c-.67,0-1.29.32-1.68.86l-6.77,9.31h-9.84l-6.78-9.31c-.39-.54-1.02-.86-1.68-.86h-5.17v-11.19h37.08v11.19ZM100.34,55.01c-.87.27-1.46,1.08-1.46,1.99v8.6h-17.56v-8.6c0-.91-.59-1.72-1.46-1.99l-13.4-4.17V12.25c0-3.44,2.8-6.24,6.24-6.24h34.82c3.44,0,6.24,2.8,6.24,6.24v8.16h-23.65c-5.22,0-9.48,4.25-9.48,9.48s4.25,9.48,9.48,9.48h23.65v11.49l-13.4,4.17Z"/>
  <path class="cls-1" d="M90.1,136.48c-1.15,0-2.08.93-2.08,2.08v3.7c0,1.15.93,2.08,2.08,2.08s2.08-.93,2.08-2.08v-3.7c0-1.15-.93-2.08-2.08-2.08Z"/>
  <path class="cls-1" d="M90.1,169.76c-1.15,0-2.08.93-2.08,2.08v3.7c0,1.15.93,2.08,2.08,2.08s2.08-.93,2.08-2.08v-3.7c0-1.15-.93-2.08-2.08-2.08Z"/>
  <path class="cls-1" d="M90.1,153.12c-1.15,0-2.08.93-2.08,2.08v3.7c0,1.15.93,2.08,2.08,2.08s2.08-.93,2.08-2.08v-3.7c0-1.15-.93-2.08-2.08-2.08Z"/>
  <path class="cls-1" d="M90.1,119.84c-1.15,0-2.08.93-2.08,2.08v3.7c0,1.15.93,2.08,2.08,2.08s2.08-.93,2.08-2.08v-3.7c0-1.15-.93-2.08-2.08-2.08Z"/>
  <path class="cls-1" d="M90.1,103.2c-1.15,0-2.08.93-2.08,2.08v3.7c0,1.15.93,2.08,2.08,2.08s2.08-.93,2.08-2.08v-3.7c0-1.15-.93-2.08-2.08-2.08Z"/>
  <path class="cls-1" d="M28.06,170.2c-.92-.69-2.22-.5-2.91.42l-2.22,2.96c-.69.92-.5,2.22.42,2.91.37.28.81.42,1.25.42.63,0,1.26-.29,1.67-.83l2.22-2.96c.69-.92.5-2.22-.42-2.91Z"/>
  <path class="cls-1" d="M56.19,136.12l2.22-2.96c.69-.92.5-2.22-.42-2.91-.92-.69-2.22-.5-2.91.42l-2.22,2.96c-.69.92-.5,2.22.42,2.91.37.28.81.42,1.24.42.63,0,1.26-.29,1.67-.83Z"/>
  <path class="cls-1" d="M38.04,156.89c-.92-.69-2.22-.5-2.91.42l-2.22,2.96c-.69.92-.5,2.22.42,2.91.37.28.81.42,1.25.42.63,0,1.26-.29,1.67-.83l2.22-2.96c.69-.92.5-2.22-.42-2.91Z"/>
  <path class="cls-1" d="M63.26,123.22c.37.28.81.42,1.24.42.63,0,1.26-.29,1.67-.83l2.22-2.96c.69-.92.5-2.22-.42-2.91-.92-.69-2.22-.5-2.91.42l-2.22,2.96c-.69.92-.5,2.22.42,2.91Z"/>
  <path class="cls-1" d="M76.14,109.49l2.22-2.96c.69-.92.5-2.22-.42-2.91-.92-.69-2.22-.5-2.91.42l-2.22,2.96c-.69.92-.5,2.22.42,2.91.37.28.81.42,1.24.42.63,0,1.26-.29,1.67-.83Z"/>
  <path class="cls-1" d="M48.02,143.57c-.92-.69-2.22-.5-2.91.42l-2.22,2.96c-.69.92-.5,2.22.42,2.91.37.28.81.42,1.25.42.63,0,1.26-.29,1.67-.83l2.22-2.96c.69-.92.5-2.22-.42-2.91Z"/>
  <path class="cls-1" d="M145.07,157.3c-.69-.92-1.99-1.11-2.91-.42-.92.69-1.11,1.99-.42,2.91l2.22,2.96c.41.55,1.03.83,1.67.83.43,0,.87-.13,1.25-.42.92-.69,1.11-1.99.42-2.91l-2.22-2.96Z"/>
  <path class="cls-1" d="M135.1,143.99c-.69-.92-1.99-1.11-2.91-.42-.92.69-1.11,1.99-.42,2.91l2.22,2.96c.41.55,1.03.83,1.67.83.43,0,.87-.14,1.25-.42.92-.69,1.11-1.99.42-2.91l-2.22-2.96Z"/>
  <path class="cls-1" d="M125.12,130.67c-.69-.92-1.99-1.11-2.91-.42-.92.69-1.11,1.99-.42,2.91l2.22,2.96c.41.55,1.03.83,1.67.83.43,0,.87-.13,1.24-.42.92-.69,1.11-1.99.42-2.91l-2.22-2.96Z"/>
  <path class="cls-1" d="M155.05,170.62c-.69-.92-1.99-1.11-2.91-.42-.92.69-1.11,1.99-.42,2.91l2.22,2.96c.41.55,1.03.83,1.67.83.43,0,.87-.13,1.25-.42.92-.69,1.11-1.99.42-2.91l-2.22-2.96Z"/>
  <path class="cls-1" d="M115.7,123.64c.43,0,.87-.14,1.24-.42.92-.69,1.11-1.99.42-2.91l-2.22-2.96c-.69-.92-1.99-1.11-2.91-.42-.92.69-1.11,1.99-.42,2.91l2.22,2.96c.41.55,1.03.83,1.67.83Z"/>
  <path class="cls-1" d="M107.39,106.99l-2.22-2.96c-.69-.92-1.99-1.11-2.91-.42-.92.69-1.11,1.99-.42,2.91l2.22,2.96c.41.55,1.03.83,1.67.83.43,0,.87-.13,1.24-.42.92-.69,1.11-1.99.42-2.91Z"/>
  <path class="cls-1" d="M71.62,139.84c-1.07-.43-2.28.09-2.71,1.15l-1.38,3.43c-.43,1.07.09,2.28,1.15,2.71.25.1.52.15.78.15.82,0,1.6-.49,1.93-1.3l1.38-3.43c.43-1.07-.09-2.28-1.15-2.71Z"/>
  <path class="cls-1" d="M65.42,155.27c-1.07-.43-2.28.09-2.71,1.15l-1.38,3.43c-.43,1.07.09,2.28,1.15,2.71.25.1.52.15.78.15.82,0,1.6-.49,1.93-1.3l1.38-3.43c.43-1.07-.09-2.28-1.15-2.71Z"/>
  <path class="cls-1" d="M77.83,124.4c-1.07-.43-2.28.09-2.71,1.15l-1.38,3.43c-.43,1.07.09,2.28,1.15,2.71.25.1.52.15.78.15.82,0,1.6-.49,1.93-1.3l1.38-3.43c.43-1.07-.09-2.28-1.15-2.71Z"/>
  <path class="cls-1" d="M59.21,170.71c-1.06-.43-2.28.09-2.71,1.15l-1.38,3.43c-.43,1.07.09,2.28,1.15,2.71.25.1.52.15.78.15.82,0,1.6-.49,1.93-1.3l1.38-3.43c.43-1.07-.09-2.28-1.15-2.71Z"/>
  <path class="cls-1" d="M123.7,171.87c-.43-1.07-1.64-1.58-2.71-1.15-1.07.43-1.58,1.64-1.15,2.71l1.38,3.43c.33.81,1.11,1.3,1.93,1.3.26,0,.52-.05.78-.15,1.07-.43,1.58-1.64,1.15-2.71l-1.38-3.43Z"/>
  <path class="cls-1" d="M111.28,140.99c-.43-1.06-1.64-1.58-2.71-1.15-1.07.43-1.58,1.64-1.15,2.71l1.38,3.43c.33.81,1.11,1.3,1.93,1.3.26,0,.52-.05.78-.15,1.07-.43,1.58-1.64,1.15-2.71l-1.38-3.43Z"/>
  <path class="cls-1" d="M117.49,156.43c-.43-1.07-1.64-1.58-2.71-1.15-1.07.43-1.58,1.64-1.15,2.71l1.38,3.43c.33.81,1.11,1.3,1.93,1.3.26,0,.52-.05.78-.15,1.07-.43,1.58-1.64,1.15-2.71l-1.38-3.43Z"/>
  <path class="cls-1" d="M105.07,125.55c-.43-1.07-1.64-1.58-2.71-1.15-1.07.43-1.58,1.64-1.15,2.71l1.38,3.43c.33.81,1.11,1.3,1.93,1.3.26,0,.52-.05.78-.15,1.07-.43,1.58-1.64,1.15-2.71l-1.38-3.43Z"/>
  <path class="cls-1" d="M2.28,31.96h35.51c1.15,0,2.08-.93,2.08-2.08s-.93-2.08-2.08-2.08H2.28c-1.15,0-2.08.93-2.08,2.08s.93,2.08,2.08,2.08Z"/>
</svg>