<?xml version="1.0" encoding="UTF-8"?>
<svg id="Industrial_Operations" data-name="Industrial Operations" xmlns="http://www.w3.org/2000/svg" viewBox="0 0 180 180">
  <defs>
    <style>
      .cls-1 {
        stroke: #000;
        stroke-miterlimit: 10;
        stroke-width: 2px;
      }
    </style>
  </defs>
  <path class="cls-1" d="M71.31,108.69c-1.71-1.71-4.5-1.71-6.22,0-1.71,1.71-1.71,4.5,0,6.22.86.86,1.98,1.28,3.11,1.28s2.25-.43,3.11-1.29c1.71-1.71,1.71-4.5,0-6.22,0,0,0,0,0,0Z"/>
  <path class="cls-1" d="M85.84,94.16c-1.72-1.71-4.5-1.71-6.22,0-1.71,1.71-1.71,4.5,0,6.22.86.86,1.98,1.29,3.11,1.29,1.13,0,2.25-.43,3.11-1.29.83-.83,1.29-1.93,1.29-3.11s-.46-2.28-1.29-3.11h0Z"/>
  <path class="cls-1" d="M100.37,85.84c.83-.83,1.29-1.93,1.29-3.11s-.46-2.28-1.29-3.11h0c-1.71-1.71-4.5-1.71-6.22,0-.83.83-1.29,1.93-1.29,3.11s.46,2.28,1.29,3.11c.86.86,1.98,1.28,3.11,1.28s2.25-.43,3.11-1.29Z"/>
  <path class="cls-1" d="M114.91,65.09c-.83-.83-1.93-1.29-3.11-1.29s-2.28.46-3.11,1.29c-.83.83-1.29,1.93-1.29,3.11s.46,2.28,1.29,3.11c.83.83,1.93,1.29,3.11,1.29s2.28-.46,3.11-1.29c.83-.83,1.29-1.93,1.29-3.11s-.46-2.28-1.29-3.11h0Z"/>
  <path class="cls-1" d="M33.8,14.21c-.7-.35-1.55-.28-2.18.2l-8.55,6.42c-.92.69-1.11,2-.42,2.92.69.92,2,1.11,2.91.42l5.22-3.92v27.14c0,1.15.93,2.08,2.08,2.08s2.08-.93,2.08-2.08v-31.3c0-.79-.45-1.51-1.15-1.86Z"/>
  <path class="cls-1" d="M31.72,0C14.23,0,0,14.23,0,31.72s14.23,31.72,31.72,31.72,31.72-14.23,31.72-31.72S49.22,0,31.72,0ZM31.72,59.28c-15.2,0-27.56-12.36-27.56-27.56S16.53,4.16,31.72,4.16s27.56,12.36,27.56,27.56-12.36,27.56-27.56,27.56Z"/>
  <path class="cls-1" d="M138.65,22.37c1.06.45,2.28-.05,2.73-1.11,1.06-2.5,3.5-4.12,6.21-4.12,3.72,0,6.74,3.02,6.74,6.74,0,3.08-3.16,5.41-6.83,8.1-4.75,3.49-10.12,7.45-10.12,14.54,0,1.15.93,2.08,2.08,2.08h17.63c1.15,0,2.08-.93,2.08-2.08s-.93-2.08-2.08-2.08h-15.29c.96-3.79,4.48-6.38,8.17-9.1,4.19-3.08,8.52-6.27,8.52-11.46,0-6.01-4.89-10.9-10.9-10.9-4.39,0-8.34,2.61-10.05,6.66-.45,1.06.05,2.28,1.11,2.73Z"/>
  <path class="cls-1" d="M35.44,144.89c3.74-2.8,7.04-6.21,7.04-11.42,0-1.15-.93-2.08-2.08-2.08h-15.16c-1.15,0-2.08.93-2.08,2.08s.93,2.08,2.08,2.08h12.76c-1.04,3.36-4.54,5.73-8.21,8.22l-.6.41c-.73.5-1.07,1.41-.84,2.26.23.86.98,1.47,1.86,1.54,6.17.43,8.99,4.34,8.99,7.78,0,3.91-3.53,7.1-7.87,7.1-3.2,0-6.05-1.72-7.28-4.39-.48-1.05-1.72-1.5-2.76-1.03-1.05.48-1.5,1.72-1.02,2.76,1.9,4.14,6.24,6.82,11.06,6.82,6.63,0,12.03-5.05,12.03-11.26,0-4.29-2.71-8.82-7.93-10.86Z"/>
  <path class="cls-1" d="M148.28,63.45c17.49,0,31.72-14.23,31.72-31.72S165.77,0,148.28,0s-31.72,14.23-31.72,31.72,14.23,31.72,31.72,31.72ZM148.28,4.16c15.2,0,27.56,12.36,27.56,27.56s-12.36,27.56-27.56,27.56-27.56-12.36-27.56-27.56,12.36-27.56,27.56-27.56Z"/>
  <path class="cls-1" d="M31.72,116.55c-17.49,0-31.72,14.23-31.72,31.72s14.23,31.72,31.72,31.72,31.72-14.23,31.72-31.72-14.23-31.72-31.72-31.72ZM31.72,175.84c-15.2,0-27.56-12.36-27.56-27.56s12.36-27.56,27.56-27.56,27.56,12.36,27.56,27.56-12.36,27.56-27.56,27.56Z"/>
  <path class="cls-1" d="M148.28,116.55c-17.49,0-31.72,14.23-31.72,31.72s14.23,31.72,31.72,31.72,31.72-14.23,31.72-31.72-14.23-31.72-31.72-31.72ZM148.28,175.84c-15.2,0-27.56-12.36-27.56-27.56s12.36-27.56,27.56-27.56,27.56,12.36,27.56,27.56-12.36,27.56-27.56,27.56Z"/>
  <circle class="cls-1" cx="80.19" cy="30.8" r="4.4"/>
  <circle class="cls-1" cx="99.81" cy="30.8" r="4.4"/>
  <circle class="cls-1" cx="80.19" cy="148.28" r="4.4"/>
  <circle class="cls-1" cx="99.81" cy="148.28" r="4.4"/>
  <path class="cls-1" d="M154.08,144.58c-1.15,0-2.08.93-2.08,2.08v6.98h-11.03l8.95-21.22c.45-1.06-.05-2.28-1.11-2.73-1.06-.45-2.28.05-2.73,1.11l-10.17,24.11c-.27.64-.2,1.38.18,1.96.39.58,1.04.93,1.74.93h14.16v7.12c0,1.15.93,2.08,2.08,2.08s2.08-.93,2.08-2.08v-18.27c0-1.15-.93-2.08-2.08-2.08Z"/>
</svg>