<?xml version="1.0" encoding="UTF-8"?>
<svg id="Industrial_Operations" data-name="Industrial Operations" xmlns="http://www.w3.org/2000/svg" viewBox="0 0 180 180">
  <defs>
    <style>
      .cls-1 {
        stroke: #000;
        stroke-miterlimit: 10;
        stroke-width: 2px;
      }
    </style>
  </defs>
  <path class="cls-1" d="M59.98,136.16c1.1,0,2-.9,2-2v-9.56c0-1.1-.9-2-2-2s-2,.9-2,2v9.56c0,1.1.9,2,2,2Z"/>
  <path class="cls-1" d="M43.98,136.16c1.1,0,2-.9,2-2v-9.56c0-1.1-.9-2-2-2s-2,.9-2,2v9.56c0,1.1.9,2,2,2Z"/>
  <path class="cls-1" d="M75.98,136.16c1.1,0,2-.9,2-2v-9.56c0-1.1-.9-2-2-2s-2,.9-2,2v9.56c0,1.1.9,2,2,2Z"/>
  <path class="cls-1" d="M47.51,33.32c0-6.86-5.58-12.45-12.45-12.45s-12.45,5.58-12.45,12.45,5.58,12.45,12.45,12.45,12.45-5.58,12.45-12.45ZM26.62,33.32c0-4.66,3.79-8.45,8.45-8.45s8.45,3.79,8.45,8.45-3.79,8.45-8.45,8.45-8.45-3.79-8.45-8.45Z"/>
  <path class="cls-1" d="M176.41,61.91h-4.35v-12.49c4.82-3.72,7.94-9.56,7.94-16.11,0-11.21-9.12-20.34-20.34-20.34-5.35,0-10.21,2.08-13.85,5.46h-50.01l-9.72-5.22c-.29-.16-.62-.24-.95-.24h-25.95c-5.8-6.86-14.46-11.23-24.12-11.23C17.65,1.75,3.49,15.91,3.49,33.32c0,13.39,8.38,24.85,20.17,29.44l15.68,49.34h-6.3c-5.51,0-10,4.49-10,10v20.57h-5.68c-.81,0-1.53.49-1.85,1.23l-5.71,13.68H2C.9,157.57,0,158.47,0,159.57v16.68c0,1.1.9,2,2,2h116.02c1.1,0,2-.9,2-2v-16.68c0-1.1-.9-2-2-2h-7.81l-5.71-13.68c-.31-.74-1.04-1.23-1.85-1.23h-5.68v-20.57c0-5.51-4.49-10-10-10h-6.12l-18.57-58.44h22.86c.33,0,.66-.08.95-.24l9.72-5.22h50.01c.46.43.95.84,1.45,1.23v12.49h-4.35c-1.1,0-2,.9-2,2v19.17c0,1.1.9,2,2,2h2.8v10.77c0,.75.42,1.44,1.09,1.78l10.86,5.54v7.12c0,1.1.9,2,2,2s2-.9,2-2v-7.12l10.86-5.54c.67-.34,1.09-1.03,1.09-1.78v-10.77h2.8c1.1,0,2-.9,2-2v-19.17c0-1.1-.9-2-2-2ZM176,33.32c0,9.01-7.33,16.34-16.34,16.34s-16.34-7.33-16.34-16.34,7.33-16.34,16.34-16.34,16.34,7.33,16.34,16.34ZM7.49,33.32c0-15.2,12.37-27.57,27.57-27.57s27.57,12.37,27.57,27.57-12.37,27.57-27.57,27.57S7.49,48.52,7.49,33.32ZM107.03,160.34c.31.74,1.04,1.23,1.85,1.23h7.15v12.68H4v-12.68h7.15c.81,0,1.53-.49,1.85-1.23l5.71-13.68h82.62l5.71,13.68ZM92.97,122.1v20.57H27.05v-20.57c0-3.31,2.69-6,6-6h53.93c3.31,0,6,2.69,6,6ZM61.59,112.1c-3.51-10.85-7.24-22.74-10.09-32.75-.3-1.06-1.41-1.68-2.47-1.38-1.06.3-1.68,1.41-1.38,2.47,2.76,9.68,6.33,21.1,9.74,31.65h-13.84l-15.23-47.94c2.18.48,4.44.74,6.76.74,9.22,0,17.54-3.98,23.31-10.31l18.28,57.51h-15.06ZM95.3,44.2c-.33,0-.66.08-.95.24l-9.72,5.22h-22.56c2.9-4.77,4.57-10.36,4.57-16.34s-1.67-11.57-4.57-16.34h22.56l9.72,5.22c.29.16.62.24.95.24h47.19c-2,3.15-3.17,6.88-3.17,10.88s1.16,7.73,3.17,10.88h-47.19ZM151.26,51.83c2.56,1.17,5.4,1.82,8.4,1.82s5.84-.66,8.4-1.82v10.08h-16.8v-10.08ZM169.61,94.63l-9.95,5.08-9.95-5.08v-9.54h19.89v9.54ZM174.41,81.08h-29.49v-15.17h29.49v15.17Z"/>
</svg>