<?xml version="1.0" encoding="UTF-8"?>
<svg id="Industrial_Operations" data-name="Industrial Operations" xmlns="http://www.w3.org/2000/svg" viewBox="0 0 180 180">
  <defs>
    <style>
      .cls-1 {
        stroke: #000;
        stroke-miterlimit: 10;
        stroke-width: 2px;
      }
    </style>
  </defs>
  <path class="cls-1" d="M178,172.58h-62.06v-60.07c0-1.11-.9-2-2-2h-47.87c-1.11,0-2,.9-2,2v60.07H2C.9,172.58,0,173.48,0,174.59s.9,2,2,2h175.99c1.11,0,2-.9,2-2s-.9-2-2-2ZM111.93,172.58h-43.87v-58.07h43.87v58.07Z"/>
  <path class="cls-1" d="M21.35,146.37c2.01,3.47,5.74,5.63,9.76,5.63h13.65c6.21,0,11.27-5.05,11.27-11.27s-5.05-11.27-11.27-11.27h-7.14l-12.56-21.75,12.56-21.75h12.65v8c0,1.11.9,2,2,2h75.47c1.11,0,2-.9,2-2v-8h12.65l12.56,21.75-12.56,21.75h-7.15c-6.21,0-11.27,5.05-11.27,11.27s5.05,11.27,11.27,11.27h13.65c4.01,0,7.75-2.16,9.76-5.63l19.06-33.02c2.01-3.48,2.01-7.79,0-11.27l-19.06-33.02c-2.01-3.47-5.74-5.63-9.76-5.63h-19.15v-8c0-1.11-.9-2-2-2h-7.22c1.36-1.75,2.18-3.95,2.18-6.33,0-3.42-1.68-6.45-4.25-8.34,2.57-1.88,4.25-4.91,4.25-8.34s-1.68-6.45-4.25-8.34c2.57-1.88,4.25-4.91,4.25-8.34,0-5.7-4.64-10.34-10.34-10.34h-44.71c-5.7,0-10.34,4.64-10.34,10.34,0,3.42,1.68,6.45,4.25,8.34-2.57,1.88-4.25,4.91-4.25,8.34s1.68,6.45,4.25,8.34c-2.57,1.88-4.25,4.91-4.25,8.34,0,2.39.82,4.58,2.18,6.33h-7.22c-1.11,0-2,.9-2,2v8h-19.15c-4.01,0-7.75,2.16-9.76,5.63L2.29,102.08c-2.01,3.47-2.01,7.79,0,11.27l19.06,33.02ZM129.74,67.44h19.15c2.59,0,4.99,1.39,6.29,3.63l19.06,33.02c1.29,2.24,1.29,5.02,0,7.26l-19.06,33.02c-1.29,2.24-3.7,3.63-6.29,3.63h-13.65c-4,0-7.26-3.26-7.26-7.26s3.26-7.26,7.26-7.26h8.3c.72,0,1.38-.38,1.73-1l13.71-23.75c.36-.62.36-1.38,0-2l-13.71-23.75c-.36-.62-1.02-1-1.73-1h-13.81v-14.52ZM61.31,13.75c0-3.49,2.84-6.33,6.33-6.33h44.71c3.49,0,6.33,2.84,6.33,6.33s-2.84,6.33-6.33,6.33h-44.71c-3.49,0-6.33-2.84-6.33-6.33ZM61.31,30.42c0-3.49,2.84-6.33,6.33-6.33h44.71c3.49,0,6.33,2.84,6.33,6.33s-2.84,6.33-6.33,6.33h-44.71c-3.49,0-6.33-2.84-6.33-6.33ZM67.64,40.76h44.71c3.49,0,6.33,2.84,6.33,6.33s-2.84,6.33-6.33,6.33h-44.71c-3.49,0-6.33-2.84-6.33-6.33s2.84-6.33,6.33-6.33ZM54.27,57.44h71.46v34.52H54.27v-34.52ZM5.76,104.09l19.06-33.02c1.29-2.24,3.7-3.63,6.29-3.63h19.15v14.52h-13.81c-.72,0-1.38.38-1.73,1l-13.71,23.75c-.36.62-.36,1.38,0,2l13.71,23.75c.36.62,1.02,1,1.73,1h8.3c4,0,7.26,3.26,7.26,7.26s-3.26,7.26-7.26,7.26h-13.65c-2.58,0-4.99-1.39-6.29-3.63L5.76,111.35c-1.29-2.24-1.29-5.02,0-7.26Z"/>
  <circle class="cls-1" cx="66.03" cy="74.7" r="4.23" transform="translate(-23.65 31.14) rotate(-22.62)"/>
  <circle class="cls-1" cx="113.97" cy="74.7" r="4.23"/>
</svg>