<?xml version="1.0" encoding="UTF-8"?>
<svg id="Industrial_Operations" data-name="Industrial Operations" xmlns="http://www.w3.org/2000/svg" viewBox="0 0 180 180">
  <defs>
    <style>
      .cls-1 {
        stroke: #000;
        stroke-miterlimit: 10;
        stroke-width: 2px;
      }
    </style>
  </defs>
  <path class="cls-1" d="M178.79,36.9L90.72,1.68c-.46-.18-.97-.18-1.44,0L1.21,36.9C.48,37.2,0,37.91,0,38.7v102.6c0,.79.48,1.5,1.21,1.79l88.07,35.23c.23.09.47.14.72.14s.49-.05.72-.14l88.07-35.23c.73-.29,1.21-1,1.21-1.79V38.7c0-.79-.48-1.5-1.21-1.79ZM90,71.84l-38.83-15.53,82.86-33.15,38.83,15.53h0l-82.86,33.15ZM90,5.55l38.83,15.53L45.97,54.23,7.14,38.7,90,5.55ZM3.87,41.55l84.2,33.68v98.44S3.87,139.99,3.87,139.99V41.55ZM91.93,173.67v-98.44s84.2-33.68,84.2-33.68v98.44l-84.2,33.68Z"/>
  <path class="cls-1" d="M57.7,84.8l-25.55-10.22c-.99-.4-2.12.09-2.51,1.08-.4.99.09,2.12,1.08,2.51l25.55,10.22c.24.09.48.14.72.14.77,0,1.49-.46,1.8-1.22.4-.99-.09-2.12-1.08-2.51Z"/>
</svg>