<?xml version="1.0" encoding="UTF-8"?>
<svg id="Industrial_Operations" data-name="Industrial Operations" xmlns="http://www.w3.org/2000/svg" viewBox="0 0 180 180">
  <defs>
    <style>
      .cls-1 {
        stroke: #000;
        stroke-miterlimit: 10;
        stroke-width: 2px;
      }
    </style>
  </defs>
  <path class="cls-1" d="M36.94,54.57c.22.09.45.13.67.13.76,0,1.48-.46,1.76-1.22.93-2.45,2.21-4.75,3.79-6.86.63-.83.46-2.02-.37-2.64-.83-.63-2.02-.46-2.64.37-1.79,2.38-3.24,5-4.3,7.78-.37.97.12,2.07,1.09,2.44Z"/>
  <path class="cls-1" d="M36.58,72.84c.15,0,.31-.02.47-.06,1.01-.26,1.62-1.29,1.36-2.3-.58-2.27-.87-4.62-.87-6.98,0-.27,0-.54.01-.81.03-1.04-.79-1.91-1.83-1.94-1.05-.03-1.91.79-1.94,1.83,0,.3-.01.61-.01.92,0,2.68.33,5.34.99,7.92.22.85.99,1.42,1.83,1.42Z"/>
  <path class="cls-1" d="M39.62,78.53c-.87.58-1.1,1.75-.52,2.62,1.65,2.48,3.64,4.71,5.91,6.64.36.3.79.45,1.22.45.53,0,1.07-.23,1.44-.66.68-.79.58-1.99-.22-2.66-2-1.7-3.76-3.67-5.21-5.86-.58-.87-1.75-1.1-2.62-.53Z"/>
  <path class="cls-1" d="M53.07,90.8c-.38.97.11,2.07,1.08,2.44,2.77,1.07,5.69,1.75,8.66,2.01.06,0,.11,0,.17,0,.97,0,1.79-.74,1.88-1.72.09-1.04-.68-1.95-1.72-2.05-2.62-.23-5.19-.83-7.63-1.77-.97-.38-2.07.11-2.44,1.08Z"/>
  <path class="cls-1" d="M71.16,93.48c0,1.04.85,1.89,1.89,1.89h8.39c1.04,0,1.89-.85,1.89-1.89s-.85-1.89-1.89-1.89h-8.39c-1.04,0-1.89.85-1.89,1.89Z"/>
  <path class="cls-1" d="M66.38,35.41h8.39c1.04,0,1.89-.85,1.89-1.89s-.85-1.89-1.89-1.89h-8.39c-1.04,0-1.89.85-1.89,1.89s.85,1.89,1.89,1.89Z"/>
  <path class="cls-1" d="M48.94,40.49c.36,0,.73-.1,1.05-.32,2.18-1.47,4.55-2.62,7.05-3.42.99-.32,1.54-1.38,1.22-2.37-.32-.99-1.38-1.54-2.37-1.22-2.83.91-5.52,2.21-8,3.88-.87.58-1.1,1.75-.51,2.62.36.54.96.84,1.57.84Z"/>
  <path class="cls-1" d="M84.84,35.41h8.39c1.04,0,1.89-.85,1.89-1.89s-.85-1.89-1.89-1.89h-8.39c-1.04,0-1.89.85-1.89,1.89s.85,1.89,1.89,1.89Z"/>
  <path class="cls-1" d="M165.36,143c-2.12,1.55-4.44,2.77-6.91,3.62-.98.34-1.51,1.42-1.17,2.4.27.78,1,1.27,1.78,1.27.21,0,.41-.03.62-.1,2.82-.98,5.48-2.37,7.9-4.14.84-.62,1.02-1.8.41-2.64-.62-.84-1.8-1.02-2.64-.41Z"/>
  <path class="cls-1" d="M155.61,92.15c-1.9-.37-3.85-.56-5.79-.56h-2.92c-1.04,0-1.89.85-1.89,1.89s.85,1.89,1.89,1.89h2.92c1.71,0,3.41.16,5.07.49.12.02.24.04.36.04.89,0,1.68-.63,1.85-1.53.2-1.02-.47-2.02-1.49-2.21Z"/>
  <path class="cls-1" d="M136.82,91.6h-8.39c-1.04,0-1.89.85-1.89,1.89s.85,1.89,1.89,1.89h8.39c1.04,0,1.89-.85,1.89-1.89s-.85-1.89-1.89-1.89Z"/>
  <path class="cls-1" d="M149.18,148.07h-8.39c-1.04,0-1.89.85-1.89,1.89s.85,1.89,1.89,1.89h8.39c1.04,0,1.89-.85,1.89-1.89s-.85-1.89-1.89-1.89Z"/>
  <path class="cls-1" d="M175.5,109.82c-.97.37-1.46,1.47-1.08,2.44.94,2.43,1.5,4.99,1.69,7.61.07,1,.9,1.76,1.88,1.76.04,0,.09,0,.13,0,1.04-.07,1.83-.97,1.75-2.01-.21-2.99-.86-5.92-1.93-8.71-.37-.97-1.47-1.46-2.44-1.08Z"/>
  <path class="cls-1" d="M177.44,127.88c-1-.29-2.05.28-2.34,1.28-.74,2.5-1.84,4.88-3.29,7.07-.57.87-.34,2.04.53,2.62.32.21.68.31,1.04.31.61,0,1.21-.3,1.58-.85,1.65-2.5,2.92-5.22,3.76-8.09.29-1-.28-2.05-1.28-2.34Z"/>
  <path class="cls-1" d="M172.39,101.77c-1.98-2.24-4.28-4.17-6.83-5.74-.89-.55-2.05-.27-2.6.62-.55.89-.27,2.05.62,2.6,2.23,1.37,4.24,3.06,5.97,5.02.37.42.89.64,1.42.64.44,0,.89-.16,1.25-.47.78-.69.85-1.88.16-2.66Z"/>
  <path class="cls-1" d="M118.36,91.6h-8.39c-1.04,0-1.89.85-1.89,1.89s.85,1.89,1.89,1.89h8.39c1.04,0,1.89-.85,1.89-1.89s-.85-1.89-1.89-1.89Z"/>
  <path class="cls-1" d="M99.9,91.6h-8.39c-1.04,0-1.89.85-1.89,1.89s.85,1.89,1.89,1.89h8.39c1.04,0,1.89-.85,1.89-1.89s-.85-1.89-1.89-1.89Z"/>
  <path class="cls-1" d="M130.71,148.07h-8.39c-1.04,0-1.89.85-1.89,1.89s.85,1.89,1.89,1.89h8.39c1.04,0,1.89-.85,1.89-1.89s-.85-1.89-1.89-1.89Z"/>
  <path class="cls-1" d="M112.25,148.07h-8.39c-1.04,0-1.89.85-1.89,1.89s.85,1.89,1.89,1.89h8.39c1.04,0,1.89-.85,1.89-1.89s-.85-1.89-1.89-1.89Z"/>
  <path class="cls-1" d="M92.16,176.22h-3.91v-41.79c0-1.04-.85-1.89-1.89-1.89h-44.86l-4.55-34.07c-.13-.94-.93-1.64-1.87-1.64h-17.01c-.95,0-1.75.7-1.87,1.64l-10.39,77.75H1.89C.85,176.22,0,177.07,0,178.11s.85,1.89,1.89,1.89h90.28c1.04,0,1.89-.85,1.89-1.89s-.85-1.89-1.89-1.89ZM84.47,136.32v39.9h-37.13l-5.33-39.9h42.46ZM9.62,176.22l10.11-75.61h13.71l10.11,75.61H9.62Z"/>
  <path class="cls-1" d="M58.44,151.57h13.03c1.04,0,1.89-.85,1.89-1.89s-.85-1.89-1.89-1.89h-13.03c-1.04,0-1.89.85-1.89,1.89s.85,1.89,1.89,1.89Z"/>
  <path class="cls-1" d="M71.46,162.25h-13.03c-1.04,0-1.89.85-1.89,1.89s.85,1.89,1.89,1.89h13.03c1.04,0,1.89-.85,1.89-1.89s-.85-1.89-1.89-1.89Z"/>
  <path class="cls-1" d="M101.32,21.09c.51,0,1.02-.21,1.39-.61,1.53-1.66,3.14-3.19,4.81-4.62v47.59c0,1.04.85,1.89,1.89,1.89h60.62c1.04,0,1.89-.85,1.89-1.89V15.86c1.67,1.43,3.28,2.96,4.81,4.62.71.77,1.9.82,2.67.11.77-.71.82-1.9.11-2.67C168.88,6.37,154.75,0,139.71,0s-29.17,6.37-39.79,17.92c-.71.77-.66,1.96.11,2.67.36.33.82.5,1.28.5ZM127.07,61.55v-23.25h25.28v23.25h-25.28ZM168.14,12.91v48.64h-12v-25.14c0-1.04-.85-1.89-1.89-1.89h-29.06c-1.04,0-1.89.85-1.89,1.89v25.14h-12V12.91c8.4-5.94,18.18-9.14,28.42-9.14s20.02,3.2,28.42,9.14Z"/>
</svg>