<?xml version="1.0" encoding="UTF-8"?>
<svg id="Industrial_Operations" data-name="Industrial Operations" xmlns="http://www.w3.org/2000/svg" viewBox="0 0 180 180">
  <defs>
    <style>
      .cls-1 {
        stroke: #000;
        stroke-miterlimit: 10;
        stroke-width: 2px;
      }
    </style>
  </defs>
  <path class="cls-1" d="M133.19,14.46H45.01c-1.12,0-2.03.91-2.03,2.03v53.53c0,1.12.91,2.03,2.03,2.03h88.18c1.12,0,2.03-.91,2.03-2.03V16.49c0-1.12-.91-2.03-2.03-2.03ZM131.15,67.99H47.04V18.52h84.11v49.46Z"/>
  <path class="cls-1" d="M173.33,112.19s-23.65-28.45-23.65-28.45V10.17c0-5.6-4.56-10.17-10.17-10.17H38.68c-5.6,0-10.17,4.56-10.17,10.17v73.62s-21.9,28.46-21.89,28.47c-.26.34-.43.77-.43,1.23v64.48c0,1.12.91,2.03,2.03,2.03h163.55c1.12,0,2.03-.91,2.03-2.03v-64.48c0-.49-.18-.94-.48-1.29ZM32.58,10.17c0-3.36,2.74-6.1,6.1-6.1h100.83c3.36,0,6.1,2.74,6.1,6.1v72.28H32.58V10.17ZM31.55,86.51h115.14l20.75,24.94H12.36l19.19-24.94ZM169.74,175.93H10.26v-60.42h159.48v60.42Z"/>
  <path class="cls-1" d="M50.82,96.95h-14.14c-1.12,0-2.03.91-2.03,2.03s.91,2.03,2.03,2.03h14.14c1.12,0,2.03-.91,2.03-2.03s-.91-2.03-2.03-2.03Z"/>
  <path class="cls-1" d="M31.77,139.63h44.1c1.12,0,2.03-.91,2.03-2.03s-.91-2.03-2.03-2.03H31.77c-1.12,0-2.03.91-2.03,2.03s.91,2.03,2.03,2.03Z"/>
  <path class="cls-1" d="M31.77,155.89h44.1c1.12,0,2.03-.91,2.03-2.03s-.91-2.03-2.03-2.03H31.77c-1.12,0-2.03.91-2.03,2.03s.91,2.03,2.03,2.03Z"/>
  <path class="cls-1" d="M104.14,139.63h44.1c1.12,0,2.03-.91,2.03-2.03s-.91-2.03-2.03-2.03h-44.1c-1.12,0-2.03.91-2.03,2.03s.91,2.03,2.03,2.03Z"/>
  <path class="cls-1" d="M104.14,155.89h44.1c1.12,0,2.03-.91,2.03-2.03s-.91-2.03-2.03-2.03h-44.1c-1.12,0-2.03.91-2.03,2.03s.91,2.03,2.03,2.03Z"/>
  <path class="cls-1" d="M59.43,56.13h14.57c.75,0,1.44-.41,1.79-1.07l11.08-20.62h13.63c1.12,0,2.03-.91,2.03-2.03s-.91-2.03-2.03-2.03h-14.84c-.75,0-1.44.41-1.79,1.07l-11.08,20.62h-13.36c-1.12,0-2.03.91-2.03,2.03s.91,2.03,2.03,2.03Z"/>
  <circle class="cls-1" cx="115.86" cy="35.34" r="4.29"/>
  <circle class="cls-1" cx="115.86" cy="51.17" r="4.29"/>
</svg>