<?xml version="1.0" encoding="UTF-8"?>
<svg id="Industrial_Operations" data-name="Industrial Operations" xmlns="http://www.w3.org/2000/svg" viewBox="0 0 180 180">
  <defs>
    <style>
      .cls-1 {
        stroke: #000;
        stroke-miterlimit: 10;
        stroke-width: 2px;
      }
    </style>
  </defs>
  <path class="cls-1" d="M27.34,100.99h125.32c1.12,0,2.03-.91,2.03-2.03v-33.42c0-1.12-.91-2.03-2.03-2.03H27.34c-1.12,0-2.03.91-2.03,2.03v33.42c0,1.12.91,2.03,2.03,2.03ZM29.37,84.28h37.71v12.65H29.37v-12.65ZM108.86,84.28v12.65h-37.71v-12.65h37.71ZM71.14,80.22v-12.65h37.71v12.65h-37.71ZM112.92,96.93v-12.65h37.71v12.65h-37.71ZM150.63,80.22h-37.71v-12.65h37.71v12.65ZM67.08,67.57v12.65H29.37v-12.65h37.71Z"/>
  <path class="cls-1" d="M177.97,43c1.12,0,2.03-.91,2.03-2.03v-10.01c0-.88-.56-1.65-1.4-1.93L90.63.1c-.41-.14-.86-.14-1.27,0L1.4,29.03C.56,29.31,0,30.08,0,30.96v10.01c0,1.12.91,2.03,2.03,2.03h6.57v114.42H2.03C.91,157.42,0,158.33,0,159.45v18.52c0,1.12.91,2.03,2.03,2.03h175.94c1.12,0,2.03-.91,2.03-2.03v-18.52c0-1.12-.91-2.03-2.03-2.03h-6.57V43h6.57ZM4.06,32.43L90,4.17l85.94,28.26v6.51H4.06v-6.51ZM175.94,175.94H4.06v-14.46h171.88v14.46ZM76.58,157.42H29.37v-23.93h47.21v23.93ZM150.63,157.42h-47.21v-23.93h47.21v23.93ZM167.34,157.42h-12.65v-25.96c0-1.12-.91-2.03-2.03-2.03h-51.27c-1.12,0-2.03.91-2.03,2.03v25.96h-18.71v-25.96c0-1.12-.91-2.03-2.03-2.03H27.34c-1.12,0-2.03.91-2.03,2.03v25.96h-12.65V43h154.68v114.42Z"/>
  <path class="cls-1" d="M82.76,27.33h14.48c1.12,0,2.03-.91,2.03-2.03s-.91-2.03-2.03-2.03h-14.48c-1.12,0-2.03.91-2.03,2.03s.91,2.03,2.03,2.03Z"/>
</svg>