<?xml version="1.0" encoding="UTF-8"?>
<svg id="Industrial_Operations" data-name="Industrial Operations" xmlns="http://www.w3.org/2000/svg" viewBox="0 0 180 180">
  <defs>
    <style>
      .cls-1 {
        stroke: #000;
        stroke-miterlimit: 10;
        stroke-width: 2px;
      }
    </style>
  </defs>
  <path class="cls-1" d="M159.25,20.78C148.55,7.25,125.26.25,89.99,0,54.74.25,31.45,7.25,20.75,20.78c-7.68,9.72-5.64,19.1-5.55,19.5.05.23.15.44.28.63.32.47,7.73,11.41,13.85,17.58.3,1.45,1.12,5.83,1.36,10.9-1.93,1.04-3.68,2.38-5.11,3.97-.31.35-.48.79-.48,1.26v18.67c0,.28.06.56.19.82,1.48,3.08,3.79,6.38,7.39,9.42v19.15c0,31.6,25.71,57.32,57.32,57.32s57.31-25.71,57.31-57.32v-19.15c3.6-3.04,5.91-6.35,7.39-9.42.12-.26.19-.53.19-.82v-18.67c0-.46-.17-.91-.48-1.26-1.42-1.59-3.18-2.94-5.11-3.97.25-5.08,1.07-9.45,1.36-10.9,6.13-6.16,13.54-17.11,13.85-17.58.13-.19.22-.41.28-.63.09-.39,2.13-9.78-5.55-19.5ZM143.54,122.68c0,6.33-1.11,12.4-3.14,18.04l-30.59-5.74c-1.03-.19-2.01.48-2.2,1.51-.19,1.02.48,2.01,1.51,2.2l29.85,5.6c-1.87,4.23-4.28,8.17-7.13,11.74l-22.63,3.27c-1.03.15-1.75,1.11-1.6,2.14.14.94.94,1.62,1.87,1.62.09,0,.18,0,.27-.02l18.2-2.63c-9.7,9.76-23.13,15.81-37.94,15.81s-28.24-6.05-37.94-15.81l18.2,2.63c.09.01.18.02.27.02.92,0,1.73-.68,1.87-1.62.15-1.03-.57-1.99-1.6-2.14l-22.63-3.27c-2.85-3.57-5.26-7.51-7.13-11.74l29.85-5.6c1.03-.19,1.7-1.18,1.51-2.2-.19-1.03-1.18-1.7-2.2-1.51l-30.59,5.74c-2.02-5.64-3.14-11.71-3.14-18.04v-16.39c6.84,4.34,17.06,7.68,32.34,8.19,3.59,0,6.61-4.86,10.11-10.48,1.85-2.98,5.3-8.51,6.73-8.55,1.87-.05,6.84-.05,8.71,0,1.43.03,4.88,5.57,6.73,8.55,3.5,5.62,6.52,10.48,10.17,10.48h0c15.24-.52,25.44-3.85,32.28-8.19v16.38ZM151.12,92.86c-3.91,7.75-14.03,16.98-39.92,17.86-1.49,0-5.01-5.66-6.91-8.7-3.42-5.5-6.38-10.24-9.85-10.33-1.91-.05-6.98-.05-8.89,0-3.47.08-6.43,4.83-9.85,10.33-1.89,3.04-5.41,8.7-6.84,8.7-25.96-.88-36.08-10.11-39.98-17.86v-17.48c2.76-2.78,6.95-4.55,10.88-4.55h74.25l-8.34,10.89c-.63.83-.48,2.01.35,2.65.34.26.75.39,1.15.39.57,0,1.13-.25,1.5-.74l10.11-13.19h12.62l-15.09,19.69c-.63.83-.48,2.01.35,2.65.34.26.75.39,1.15.39.57,0,1.13-.25,1.5-.74l16.85-21.98h4.09c3.92,0,8.11,1.77,10.88,4.55v17.48ZM140.24,67.05H39.76c-1.8,0-3.62.29-5.37.82-.23-3.46-.69-6.48-1.03-8.43,14.88-.3,29.28-6.9,32.78-8.62,6.82,2.69,15.1,4.22,23.86,4.22s17.04-1.53,23.86-4.22c3.5,1.72,17.91,8.33,32.78,8.62-.35,1.95-.8,4.96-1.03,8.43-1.75-.53-3.57-.82-5.37-.82ZM161.18,39.12c-1.26,1.84-7.75,11.19-13.03,16.56-11.81.12-23.91-4.4-29.74-6.94,4.05-2.14,7.34-4.76,9.6-7.75.63-.83.46-2.02-.37-2.64-.83-.63-2.02-.46-2.64.37-5.66,7.5-19.73,12.55-34.99,12.55s-29.32-5.04-34.99-12.55c-.63-.83-1.81-1-2.64-.37-.83.63-1,1.81-.37,2.64,2.26,2.99,5.56,5.61,9.6,7.75-5.76,2.5-17.63,6.94-29.29,6.94-.15,0-.3,0-.46,0-5.28-5.37-11.77-14.71-13.03-16.56-.24-1.55-.95-8.62,4.89-16C30.55,14.47,47.61,4.08,89.99,3.78c42.28.3,59.35,10.64,66.23,19.25,5.94,7.44,5.22,14.52,4.96,16.09Z"/>
</svg>