<?xml version="1.0" encoding="UTF-8"?>
<svg id="Physical_Security" data-name="Physical Security" xmlns="http://www.w3.org/2000/svg" viewBox="0 0 180 180">
  <defs>
    <style>
      .cls-1 {
        stroke: #000;
        stroke-miterlimit: 10;
        stroke-width: 2px;
      }
    </style>
  </defs>
  <path class="cls-1" d="M160.02,128.44c-.24-.12-24.13-12.45-23.6-59.97,0-.02,0-.04,0-.07,0-20.88-13.86-38.58-32.86-44.4v-10.44c0-7.48-6.08-13.56-13.56-13.56s-13.56,6.08-13.56,13.56v10.44c-19,5.82-32.86,23.52-32.86,44.4,0,.02,0,.04,0,.07.53,47.32-23.36,59.85-23.6,59.97-.62.3-1.01.93-1.01,1.62v24.62c0,1,.81,1.8,1.8,1.8h43.98c.93,13.12,11.9,23.52,25.25,23.52s24.32-10.4,25.25-23.52h43.98c1,0,1.8-.81,1.8-1.8v-24.62c0-.69-.39-1.31-1.01-1.62ZM80.04,13.56c0-5.49,4.47-9.96,9.96-9.96s9.96,4.47,9.96,9.96v9.5c-3.21-.7-6.54-1.09-9.96-1.09s-6.75.38-9.96,1.09v-9.5ZM90,176.39c-11.37,0-20.71-8.78-21.63-19.91h43.27c-.92,11.13-10.27,19.91-21.63,19.91ZM22.58,152.87v-21.01h21.15c1,0,1.8-.81,1.8-1.8s-.81-1.8-1.8-1.8h-17.25c7.57-6.43,21.13-23.1,20.71-59.84,0-.02,0-.03,0-.05.02-23.59,19.22-42.78,42.82-42.78s42.8,19.19,42.82,42.78c0,.01,0,.02,0,.03-.42,36.75,13.14,53.42,20.71,59.86h-66.54c-1,0-1.8.81-1.8,1.8s.81,1.8,1.8,1.8h70.44v21.01H22.58Z"/>
  <path class="cls-1" d="M91.8,43.94c0-1-.81-1.8-1.8-1.8-14.4,0-26.18,11.72-26.27,26.12v.05c0,.99.8,1.78,1.8,1.78h0c.99,0,1.8-.82,1.8-1.82.07-12.42,10.24-22.53,22.66-22.53,1,0,1.8-.81,1.8-1.8Z"/>
</svg>