<?xml version="1.0" encoding="UTF-8"?>
<svg id="Physical_Security" data-name="Physical Security" xmlns="http://www.w3.org/2000/svg" viewBox="0 0 180 180">
  <defs>
    <style>
      .cls-1 {
        stroke: #000;
        stroke-miterlimit: 10;
        stroke-width: 2px;
      }
    </style>
  </defs>
  <path class="cls-1" d="M167.14,0H12.86C8.26,0,4.51,3.74,4.51,8.35v154.29c0,4.6,3.74,8.35,8.35,8.35h9.7v6.99c0,1.12.91,2.03,2.03,2.03s2.03-.91,2.03-2.03v-6.99h126.77v6.99c0,1.12.91,2.03,2.03,2.03s2.03-.91,2.03-2.03v-6.99h9.7c4.6,0,8.35-3.74,8.35-8.35V8.35c0-4.6-3.74-8.35-8.35-8.35ZM171.43,162.63c0,2.36-1.92,4.29-4.29,4.29H12.86c-2.36,0-4.29-1.92-4.29-4.29V8.35c0-2.36,1.92-4.29,4.29-4.29h154.29c2.36,0,4.29,1.92,4.29,4.29v154.29Z"/>
  <path class="cls-1" d="M155.41,18.05H24.59c-1.12,0-2.03.91-2.03,2.03v17.99c0,1.12.91,2.03,2.03,2.03h4.74v17.72h-4.74c-1.12,0-2.03.91-2.03,2.03v51.27c0,1.12.91,2.03,2.03,2.03h4.74v17.72h-4.74c-1.12,0-2.03.91-2.03,2.03v18c0,1.12.91,2.03,2.03,2.03h130.83c1.12,0,2.03-.91,2.03-2.03V20.08c0-1.12-.91-2.03-2.03-2.03ZM153.38,148.87H26.62v-13.94h4.74c1.12,0,2.03-.91,2.03-2.03v-21.78c0-1.12-.91-2.03-2.03-2.03h-4.74v-47.21h4.74c1.12,0,2.03-.91,2.03-2.03v-21.78c0-1.12-.91-2.03-2.03-2.03h-4.74v-13.93h126.77v126.77Z"/>
  <path class="cls-1" d="M135.09,96.96c1.12,0,2.03-.91,2.03-2.03v-18.88c0-1.12-.91-2.03-2.03-2.03s-2.03.91-2.03,2.03v18.88c0,1.12.91,2.03,2.03,2.03Z"/>
</svg>