<?xml version="1.0" encoding="UTF-8"?>
<svg id="Physical_Security" data-name="Physical Security" xmlns="http://www.w3.org/2000/svg" viewBox="0 0 180 180">
  <defs>
    <style>
      .cls-1 {
        stroke: #000;
        stroke-miterlimit: 10;
        stroke-width: 2px;
      }
    </style>
  </defs>
  <path class="cls-1" d="M99.17,143.26h-18.35c-1,0-1.8.81-1.8,1.8s.81,1.8,1.8,1.8h18.35c1,0,1.8-.81,1.8-1.8s-.81-1.8-1.8-1.8Z"/>
  <path class="cls-1" d="M160.34,66.7c-1.47-1.14-2.98-2.23-4.52-3.28-.62-16.92-7.6-32.74-19.74-44.62C123.69,6.68,107.33,0,90,0s-33.69,6.67-46.07,18.79c-12.14,11.88-19.12,27.7-19.74,44.62-1.54,1.05-3.05,2.14-4.52,3.28-.44.34-.7.87-.7,1.42v24.3c0,.69.39,1.32,1.01,1.62.62.3,1.36.23,1.9-.2,2.58-2.01,5.29-3.86,8.08-5.6v31.72c0,33.11,26.93,60.04,60.04,60.04s60.04-26.93,60.04-60.04v-31.72c2.79,1.73,5.5,3.59,8.08,5.6.32.25.71.38,1.11.38.27,0,.54-.06.79-.18.62-.3,1.01-.93,1.01-1.62v-24.3c0-.56-.26-1.08-.7-1.42ZM90,3.61c32.4,0,59.54,25.43,62.07,57.36-36.16-22.47-87.97-22.47-124.14,0C30.46,29.03,57.6,3.61,90,3.61ZM90,176.39c-31.12,0-56.43-25.32-56.43-56.43v-4.7c14.61,11.7,36.05,10.78,49.58-2.75,1.83-1.83,4.26-2.84,6.85-2.84s5.02,1.01,6.85,2.84c7.26,7.26,16.79,10.89,26.33,10.89,8.24,0,16.48-2.72,23.25-8.14v4.7c0,31.12-25.32,56.43-56.43,56.43ZM146.43,110.46c-13.15,12.6-34.09,12.44-47.03-.5-2.51-2.51-5.85-3.89-9.4-3.89s-6.89,1.38-9.4,3.89c-12.94,12.94-33.88,13.1-47.03.5v-24.35c33.55-18.86,79.32-18.86,112.86,0v24.35ZM157.43,88.82c-18.99-13.62-43.21-20.43-67.43-20.43s-48.43,6.81-67.43,20.43v-19.81c37.38-28.47,97.47-28.47,134.85,0v19.81Z"/>
  <path class="cls-1" d="M60.99,91.85c-2.15,0-3.9,1.75-3.9,3.9s1.75,3.9,3.9,3.9,3.9-1.75,3.9-3.9-1.75-3.9-3.9-3.9Z"/>
  <path class="cls-1" d="M119.01,99.66c2.15,0,3.9-1.75,3.9-3.9s-1.75-3.9-3.9-3.9-3.9,1.75-3.9,3.9,1.75,3.9,3.9,3.9Z"/>
</svg>