<?xml version="1.0" encoding="UTF-8"?>
<svg id="Physical_Security" data-name="Physical Security" xmlns="http://www.w3.org/2000/svg" viewBox="0 0 180 180">
  <defs>
    <style>
      .cls-1 {
        stroke: #000;
        stroke-miterlimit: 10;
        stroke-width: 2px;
      }
    </style>
  </defs>
  <path class="cls-1" d="M178.11,4.3H35.3c-6.82,0-12.38,5.55-12.38,12.37v54.54c0,6.82,5.55,12.37,12.38,12.37h46.04v29.93H18.78v-6.32c0-1.04-.84-1.89-1.89-1.89H1.89C.84,105.31,0,106.16,0,107.2v66.62c0,1.04.84,1.89,1.89,1.89h15.01c1.04,0,1.89-.84,1.89-1.89v-6.97l95.38-29.31c.79-.24,1.33-.97,1.33-1.8v-20.33c0-1.04-.84-1.89-1.89-1.89h-5.45v-29.93h44.27c1.04,0,1.89-.84,1.89-1.89v-12.17h13.28c1.04,0,1.89-.84,1.89-1.89v-31.91l9.95-9.61c.37-.36.58-.84.58-1.36V6.18c0-1.04-.84-1.89-1.89-1.89ZM15.01,171.93H3.77v-62.85h11.24v62.85ZM111.72,134.33l-92.94,28.56v-45.61h92.94v17.05ZM104.39,113.51h-19.27v-29.93h19.27v29.93ZM165.71,65.76h-11.4v-15.37l11.4-11.01v26.38ZM176.23,23.97l-25.11,24.27c-.37.36-.58.85-.58,1.36v30.22H35.3c-4.74,0-8.6-3.86-8.6-8.6V16.67c0-4.74,3.86-8.6,8.6-8.6h140.92v15.9Z"/>
  <path class="cls-1" d="M50.96,56.83c1.04,0,1.89-.84,1.89-1.89v-22.01c0-1.04-.84-1.89-1.89-1.89s-1.89.84-1.89,1.89v22.01c0,1.04.84,1.89,1.89,1.89Z"/>
  <path class="cls-1" d="M67.1,56.83c1.04,0,1.89-.84,1.89-1.89v-22.01c0-1.04-.84-1.89-1.89-1.89s-1.89.84-1.89,1.89v22.01c0,1.04.84,1.89,1.89,1.89Z"/>
  <path class="cls-1" d="M83.23,56.83c1.04,0,1.89-.84,1.89-1.89v-22.01c0-1.04-.84-1.89-1.89-1.89s-1.89.84-1.89,1.89v22.01c0,1.04.84,1.89,1.89,1.89Z"/>
</svg>