<?xml version="1.0" encoding="UTF-8"?>
<svg id="Physical_Security" data-name="Physical Security" xmlns="http://www.w3.org/2000/svg" viewBox="0 0 180 180">
  <defs>
    <style>
      .cls-1 {
        stroke: #000;
        stroke-miterlimit: 10;
        stroke-width: 2px;
      }
    </style>
  </defs>
  <path class="cls-1" d="M90,152.39c14.41,0,26.13-11.72,26.13-26.13s-11.72-26.13-26.13-26.13-26.13,11.72-26.13,26.13,11.72,26.13,26.13,26.13ZM90,103.78c12.4,0,22.48,10.09,22.48,22.48s-10.09,22.48-22.48,22.48-22.48-10.09-22.48-22.48,10.08-22.48,22.48-22.48Z"/>
  <path class="cls-1" d="M90,136.44c5.61,0,10.18-4.56,10.18-10.18s-4.57-10.18-10.18-10.18-10.18,4.56-10.18,10.18,4.56,10.18,10.18,10.18ZM90,119.73c3.6,0,6.53,2.93,6.53,6.53s-2.93,6.53-6.53,6.53-6.53-2.93-6.53-6.53,2.93-6.53,6.53-6.53Z"/>
  <path class="cls-1" d="M137.22,62.21H42.78c-1.01,0-1.82.82-1.82,1.82s.82,1.82,1.82,1.82h94.44c1.01,0,1.82-.82,1.82-1.82s-.82-1.82-1.82-1.82Z"/>
  <path class="cls-1" d="M178.18,9.22H1.82c-1.01,0-1.82.82-1.82,1.82v34.82c0,1.01.82,1.82,1.82,1.82h16.84v22.45c0,7.66,6.23,13.89,13.89,13.89h.01v29.31c0,31.67,25.77,57.44,57.44,57.44s57.44-25.77,57.44-57.44v-29.31h.01c7.66,0,13.89-6.23,13.89-13.89v-22.45h16.84c1.01,0,1.82-.82,1.82-1.82V11.04c0-1.01-.82-1.82-1.82-1.82ZM113.24,44.04l21.48-31.17h27.34l-21.48,31.17h-27.34ZM81.47,44.04l21.47-31.17h27.34l-21.48,31.17h-27.34ZM49.71,44.04l21.48-31.17h27.34l-21.47,31.17h-27.34ZM17.95,44.04l21.48-31.17h27.34l-21.48,31.17h-27.34ZM3.64,12.86h31.36l-21.48,31.17H3.64V12.86ZM143.79,113.34c0,29.66-24.13,53.79-53.79,53.79s-53.79-24.13-53.79-53.79v-29.31h107.59v29.31ZM157.7,70.14c0,5.65-4.6,10.24-10.24,10.24H32.55c-5.65,0-10.24-4.6-10.24-10.24v-22.45h135.4v22.45ZM176.36,44.04h-31.36l21.48-31.17h9.88v31.17Z"/>
</svg>