<?xml version="1.0" encoding="UTF-8"?>
<svg id="Physical_Security" data-name="Physical Security" xmlns="http://www.w3.org/2000/svg" viewBox="0 0 180 180">
  <defs>
    <style>
      .cls-1 {
        stroke: #000;
        stroke-miterlimit: 10;
        stroke-width: 2px;
      }
    </style>
  </defs>
  <path class="cls-1" d="M173.62,0H6.38c-1.09,0-1.98.89-1.98,1.98v176.04c0,1.09.89,1.98,1.98,1.98h167.24c1.09,0,1.98-.89,1.98-1.98V1.98c0-1.09-.89-1.98-1.98-1.98ZM39.64,176.04v-18c0-1.09-.89-1.98-1.98-1.98h-3.58v-15.02h3.58c1.09,0,1.98-.89,1.98-1.98V58.54c0-1.09-.89-1.98-1.98-1.98h-3.58v-15.02h3.58c1.09,0,1.98-.89,1.98-1.98v-18h100.72v154.47H39.64ZM171.64,176.04h-27.32V19.58c0-1.09-.89-1.98-1.98-1.98H37.66c-1.09,0-1.98.89-1.98,1.98v18h-3.58c-1.09,0-1.98.89-1.98,1.98v18.98c0,1.09.89,1.98,1.98,1.98h3.58v76.55h-3.58c-1.09,0-1.98.89-1.98,1.98v18.98c0,1.09.89,1.98,1.98,1.98h3.58v16.02H8.36V3.96h163.28v172.08Z"/>
  <path class="cls-1" d="M127.06,92.75h-16.18c-1.09,0-1.98.89-1.98,1.98s.89,1.98,1.98,1.98h16.18c1.09,0,1.98-.89,1.98-1.98s-.89-1.98-1.98-1.98Z"/>
  <path class="cls-1" d="M123.54,104.05c-2.31,0-4.18,1.88-4.18,4.18s1.88,4.18,4.18,4.18,4.18-1.88,4.18-4.18-1.88-4.18-4.18-4.18Z"/>
</svg>