<?xml version="1.0" encoding="UTF-8"?>
<svg id="Physical_Security" data-name="Physical Security" xmlns="http://www.w3.org/2000/svg" viewBox="0 0 180 180">
  <defs>
    <style>
      .cls-1 {
        stroke: #000;
        stroke-miterlimit: 10;
        stroke-width: 2px;
      }
    </style>
  </defs>
  <path class="cls-1" d="M177.86,87.86h-34.25v-19.18c0-1.18-.96-2.14-2.14-2.14h-5.26v-26.21h5.26c1.18,0,2.14-.96,2.14-2.14V2.14c0-1.18-.96-2.14-2.14-2.14H2.14C.96,0,0,.96,0,2.14v175.73c0,1.18.96,2.14,2.14,2.14h175.73c1.18,0,2.14-.96,2.14-2.14v-87.86c0-1.18-.96-2.14-2.14-2.14ZM131.94,66.54h-5.26c-1.18,0-2.14.96-2.14,2.14v36.12c0,1.18.96,2.14,2.14,2.14h34.25v53.99H19.07V19.07h105.47v19.12c0,1.18.96,2.14,2.14,2.14h5.26v26.21ZM139.34,36.06h-10.52v-19.12c0-1.18-.96-2.14-2.14-2.14h-36.84V4.27h49.5v31.78ZM85.56,4.27v10.52h-26.21V4.27h26.21ZM4.27,4.27h50.8v10.52H16.94c-1.18,0-2.14.96-2.14,2.14v146.13c0,1.18.96,2.14,2.14,2.14h38.14v10.52H4.27V4.27ZM59.35,175.73v-10.52h26.21v10.52h-26.21ZM175.73,175.73h-85.89v-10.52h73.23c1.18,0,2.14-.96,2.14-2.14v-58.27c0-1.18-.96-2.14-2.14-2.14h-34.25v-31.84h10.52v19.18c0,1.18.96,2.14,2.14,2.14h34.25v83.59Z"/>
  <path class="cls-1" d="M38.94,92.68c-1.18,0-2.14.96-2.14,2.14s.96,2.14,2.14,2.14c24.32,0,44.11,19.79,44.11,44.11,0,1.18.96,2.14,2.14,2.14s2.14-.96,2.14-2.14c0-26.68-21.7-48.38-48.38-48.38Z"/>
  <path class="cls-1" d="M38.94,107.48c-1.18,0-2.14.96-2.14,2.14s.96,2.14,2.14,2.14c16.16,0,29.31,13.15,29.31,29.31,0,1.18.96,2.14,2.14,2.14s2.14-.96,2.14-2.14c0-18.52-15.07-33.58-33.58-33.58Z"/>
  <path class="cls-1" d="M38.94,122.28c-1.18,0-2.14.96-2.14,2.14s.96,2.14,2.14,2.14c8,0,14.51,6.51,14.51,14.51,0,1.18.96,2.14,2.14,2.14s2.14-.96,2.14-2.14c0-10.36-8.43-18.78-18.78-18.78Z"/>
  <path class="cls-1" d="M38.94,137.02c-2.23,0-4.04,1.81-4.04,4.04s1.81,4.04,4.04,4.04,4.04-1.81,4.04-4.04-1.81-4.04-4.04-4.04Z"/>
</svg>