<?xml version="1.0" encoding="UTF-8"?>
<svg id="Physical_Security" data-name="Physical Security" xmlns="http://www.w3.org/2000/svg" viewBox="0 0 180 180">
  <defs>
    <style>
      .cls-1 {
        stroke: #000;
        stroke-miterlimit: 10;
        stroke-width: 2px;
      }
    </style>
  </defs>
  <path class="cls-1" d="M178.18,7.85H31.34c-1.01,0-1.82.82-1.82,1.82v93.29c0,1.01.82,1.82,1.82,1.82s1.82-.82,1.82-1.82V11.5h143.19v133.35h-77.9c-1.01,0-1.82.82-1.82,1.82s.82,1.82,1.82,1.82h79.72c1.01,0,1.82-.82,1.82-1.82V9.67c0-1.01-.82-1.82-1.82-1.82Z"/>
  <path class="cls-1" d="M164.11,134.43c1.01,0,1.82-.82,1.82-1.82V23.74c0-1.01-.82-1.82-1.82-1.82h-42.21c-1.01,0-1.82.82-1.82,1.82v108.87c0,1.01.82,1.82,1.82,1.82h42.21ZM123.73,25.56h38.56v105.22h-38.56V25.56Z"/>
  <path class="cls-1" d="M106.01,103.78v27.01h-4.44c-1.01,0-1.82.82-1.82,1.82s.82,1.82,1.82,1.82h6.26c1.01,0,1.82-.82,1.82-1.82V23.74c0-1.01-.82-1.82-1.82-1.82h-62.43c-1.01,0-1.82.82-1.82,1.82v63.92c0,1.01.82,1.82,1.82,1.82s1.82-.82,1.82-1.82v-7.34l12.86-12.27c.35-.34.56-.81.56-1.3l.2-15.37,17.98-2.52c.39-.05.75-.23,1.03-.51l12.77-12.59,13.38,6.56v14.61c-15.04.23-28.74,7.53-44.16,23.46-5.93,6.13-17.34,26.35-19.78,30.73l-33.77,4.35c-.05,0-.11.02-.16.03-2.71.6-5.02,2.23-6.51,4.57-1.49,2.34-1.97,5.13-1.37,7.84.37,1.64,1.13,3.18,2.22,4.46,2.49,2.93,6.36,4.25,10.12,3.44l38.39-5.31s.1-.02.15-.03c1.45-.32,2.79-.94,3.97-1.83.7-.53,8.76-7.39,13.89-11.76l-5.01,24.24-27.32,11.21s-.06.03-.1.04c-2.5,1.2-4.39,3.3-5.31,5.92-.92,2.62-.77,5.44.43,7.94.39.81.88,1.57,1.45,2.24,2.02,2.38,4.94,3.66,7.92,3.66,1.5,0,3.02-.33,4.44-1l31.68-13.24s.08-.03.11-.05c7.52-3.78,10.19-14.27,13-25.37,3.07-12.11,6.25-24.59,15.71-28.71ZM93.07,31.92c-.7-.34-1.53-.2-2.08.34l-13.26,13.07-18.93,2.65c-.89.12-1.56.88-1.57,1.78l-.21,16.17-9.78,9.34V25.56h58.78v12.7l-12.94-6.34ZM86.76,131.59c-2.6,10.24-5.06,19.92-11.05,22.98l-31.66,13.23s-.06.02-.08.04c-2.76,1.32-6.08.62-8.05-1.71-.37-.44-.69-.93-.94-1.46-.78-1.62-.88-3.46-.28-5.15.59-1.68,1.8-3.04,3.4-3.82l28.17-11.56c.56-.23.97-.72,1.09-1.32l6.28-30.4c.16-.76-.19-1.54-.86-1.94-.67-.4-1.52-.32-2.11.18-6.75,5.76-17.05,14.53-17.76,15.07-.75.56-1.6.96-2.51,1.17l-38.38,5.3s-.1.02-.15.03c-2.45.55-4.99-.3-6.62-2.22-.71-.84-1.19-1.81-1.44-2.89-.8-3.6,1.45-7.19,5.04-8.03l34.6-4.46c.58-.07,1.08-.42,1.36-.93.13-.24,13.46-24.37,19.65-30.77,18.45-19.05,31.78-22.24,41.54-22.36v39.29c-12.26,4.19-15.97,18.79-19.25,31.73Z"/>
</svg>