<?xml version="1.0" encoding="UTF-8"?>
<svg id="Physical_Security" data-name="Physical Security" xmlns="http://www.w3.org/2000/svg" viewBox="0 0 180 180">
  <defs>
    <style>
      .cls-1 {
        stroke: #000;
        stroke-miterlimit: 10;
        stroke-width: 2px;
      }
    </style>
  </defs>
  <path class="cls-1" d="M179.25,4.6c-.48-.37-1.09-.49-1.67-.34L1.44,50.39c-.85.22-1.44.99-1.44,1.87v18.54c0,.6.28,1.17.75,1.53.34.26.76.4,1.18.4.16,0,.33-.02.49-.06l5.96-1.56v102.76c0,1.07.87,1.94,1.94,1.94h159.35c1.07,0,1.94-.87,1.94-1.94V28.36l6.94-1.82c.85-.22,1.44-.99,1.44-1.87V6.13c0-.6-.28-1.17-.75-1.53ZM30.29,126.97h119.42v12.41H30.29v-12.41ZM149.71,123.1H30.29v-12.41h119.42v12.41ZM30.29,143.25h119.42v12.41H30.29v-12.41ZM149.71,106.82H30.29v-12.41h119.42v12.41ZM30.29,171.94v-12.41h119.42v12.41H30.29ZM167.74,171.94h-14.16v-79.46c0-1.07-.87-1.94-1.94-1.94H28.36c-1.07,0-1.94.87-1.94,1.94v79.46h-14.16v-101.83L167.74,29.37v142.56ZM176.13,23.18L3.87,68.3v-14.54L176.13,8.64v14.54Z"/>
  <path class="cls-1" d="M81.99,74.66h16.01c1.07,0,1.94-.87,1.94-1.94s-.87-1.94-1.94-1.94h-16.01c-1.07,0-1.94.87-1.94,1.94s.87,1.94,1.94,1.94Z"/>
</svg>