<?xml version="1.0" encoding="UTF-8"?>
<svg id="Physical_Security" data-name="Physical Security" xmlns="http://www.w3.org/2000/svg" viewBox="0 0 180 180">
  <defs>
    <style>
      .cls-1 {
        stroke: #000;
        stroke-miterlimit: 10;
        stroke-width: 2px;
      }
    </style>
  </defs>
  <path class="cls-1" d="M90,118.49c-33.28,0-59.72,28.21-60.83,29.41-.7.76-.7,1.93,0,2.69,1.11,1.2,27.55,29.41,60.83,29.41s59.72-28.21,60.83-29.41c.7-.76.7-1.93,0-2.69-1.11-1.2-27.55-29.41-60.83-29.41ZM116.8,149.24c0,14.78-12.02,26.8-26.8,26.8s-26.8-12.02-26.8-26.8,12.02-26.8,26.8-26.8,26.8,12.02,26.8,26.8ZM69.86,126.02c-6.5,5.64-10.62,13.96-10.62,23.23s4.14,17.59,10.65,23.23c-18.22-6.28-32.25-19.06-36.49-23.23,4.24-4.17,18.24-16.94,36.46-23.22ZM110.09,172.48c6.52-5.64,10.66-13.96,10.66-23.24s-4.11-17.57-10.6-23.21c18.19,6.29,32.2,19.05,36.44,23.21-4.24,4.17-18.27,16.96-36.5,23.24Z"/>
  <path class="cls-1" d="M90,162.07c7.07,0,12.82-5.75,12.82-12.82s-5.75-12.82-12.82-12.82-12.82,5.75-12.82,12.82,5.75,12.82,12.82,12.82ZM90,140.38c4.89,0,8.86,3.97,8.86,8.86s-3.97,8.86-8.86,8.86-8.86-3.97-8.86-8.86,3.97-8.86,8.86-8.86Z"/>
  <path class="cls-1" d="M59.26,100.19h61.49c1.09,0,1.98-.89,1.98-1.98v-37.74h9.24c.84,0,1.59-.53,1.87-1.33.28-.79.02-1.68-.63-2.2l-41.96-33.55c-.72-.58-1.75-.58-2.47,0l-41.96,33.55c-.66.53-.91,1.41-.63,2.2.28.79,1.03,1.33,1.87,1.33h9.24v37.74c0,1.09.89,1.98,1.98,1.98ZM81.88,96.23v-19.87h16.24v19.87h-16.24ZM118.76,96.23h-16.68v-21.85c0-1.09-.89-1.98-1.98-1.98h-20.2c-1.09,0-1.98.89-1.98,1.98v21.85h-16.68v-35.76h57.52v35.76ZM90,27.47l36.31,29.03H53.69l36.31-29.03Z"/>
  <path class="cls-1" d="M158.22,0H21.78C10.99,0,2.2,8.79,2.2,19.58v112.06c0,7.17,3.94,13.76,10.27,17.21.96.52,2.16.17,2.69-.79.52-.96.17-2.16-.79-2.69-5.06-2.75-8.2-8.02-8.2-13.73V19.58c0-8.61,7.01-15.62,15.62-15.62h136.43c8.61,0,15.62,7.01,15.62,15.62v112.06c0,5.72-3.14,10.98-8.2,13.74-.96.52-1.32,1.73-.79,2.69.36.66,1.04,1.03,1.74,1.03.32,0,.64-.08.95-.24,6.33-3.45,10.27-10.04,10.27-17.21V19.58c0-10.8-8.79-19.58-19.58-19.58Z"/>
</svg>