<?xml version="1.0" encoding="UTF-8"?>
<svg id="Physical_Security" data-name="Physical Security" xmlns="http://www.w3.org/2000/svg" viewBox="0 0 180 180">
  <defs>
    <style>
      .cls-1 {
        stroke: #000;
        stroke-miterlimit: 10;
        stroke-width: 2px;
      }
    </style>
  </defs>
  <path class="cls-1" d="M175.63,89.18h0s-13.06-15.16-13.06-15.16l-11.55-23.98c-.22-.46-.5-.9-.79-1.32,10.04-3.24,17.32-12.66,17.32-23.76,0-13.76-11.2-24.96-24.96-24.96s-24.96,11.2-24.96,24.96c0,3.28.64,6.42,1.8,9.29-5.32,1.47-10.48,5.38-12.92,7.97l-21.61,22.97c-3.07,3.27-3.35,8.22-.66,11.8l10.11,15.37c.08,1.93.21,3.92.41,5.97.86,8.81,9.22,31.46,11.02,36.24l-19.22,29.62s-.06.09-.08.14c-2.74,5.21-.73,11.68,4.48,14.43,1.53.8,3.25,1.23,4.97,1.23,3.96,0,7.56-2.16,9.42-5.64l21.55-33.87s.05-.08.07-.13c.71-1.35,1.12-2.81,1.21-4.33.06-.92.04-12.13.03-19.09l15.96,20.43-9.47,29.13s-.02.07-.03.1c-.73,2.76-.33,5.64,1.1,8.1s3.75,4.22,6.51,4.95c.89.23,1.81.35,2.72.35,4.83,0,9.06-3.25,10.31-7.92l10.78-33.89s.02-.08.03-.12c2.03-8.34-4.13-18.07-10.65-28.36-6.91-10.92-14.03-22.16-12.01-32.24l2.79,5.8c.36.74.81,1.43,1.34,2.05l13.87,16.1c1.78,2.07,4.37,3.25,7.1,3.25,2.24,0,4.41-.81,6.11-2.27,3.91-3.37,4.35-9.29.98-13.21ZM142.59,3.61c11.77,0,21.35,9.58,21.35,21.35s-9.58,21.35-21.35,21.35-21.35-9.58-21.35-21.35,9.58-21.35,21.35-21.35ZM174.28,95.72c-.11,1.53-.82,2.93-1.98,3.93-1.04.9-2.38,1.39-3.75,1.39-1.68,0-3.27-.73-4.36-2l-13.87-16.1c-.33-.38-.61-.8-.82-1.26l-4.72-9.79c-.3-.62-.93-1.02-1.63-1.02h0c-.69,0-1.33.4-1.62,1.03-6.12,12.86,2.92,27.13,10.89,39.72,6.08,9.6,11.83,18.68,10.21,25.52l-10.77,33.87s-.02.06-.03.09c-.82,3.11-3.63,5.27-6.83,5.27-.61,0-1.21-.08-1.81-.23-1.83-.48-3.36-1.64-4.31-3.28-.94-1.62-1.21-3.5-.74-5.32l9.75-29.99c.19-.57.08-1.2-.29-1.67l-19.79-25.34c-.47-.61-1.28-.85-2.01-.59-.73.25-1.22.94-1.21,1.71.03,9.2.04,23.22,0,24.12-.06.99-.32,1.93-.77,2.81l-21.55,33.87s-.05.08-.07.13c-1.23,2.33-3.63,3.78-6.27,3.78-1.15,0-2.26-.27-3.29-.81-3.43-1.8-4.76-6.04-3-9.48l19.67-30.31c.31-.48.38-1.09.17-1.62-.1-.26-9.82-25.93-11.05-35.59l6.24,9.48s.05.07.07.1c1.75,2.31,4.42,3.63,7.32,3.63,2.02,0,3.94-.65,5.55-1.87,1.95-1.48,3.21-3.64,3.55-6.07.33-2.39-.28-4.77-1.71-6.7l-14.26-24.78,14.16-12.94c.74-.67.79-1.81.12-2.55-.67-.74-1.81-.79-2.55-.12l-15.23,13.92c-.62.57-.77,1.5-.35,2.23l15.03,26.13c.04.07.08.13.13.19.9,1.19,1.29,2.65,1.09,4.13-.2,1.48-.97,2.79-2.15,3.69-.98.74-2.14,1.14-3.37,1.14-1.74,0-3.35-.79-4.41-2.16l-20.42-31.05s-.05-.07-.07-.1c-1.66-2.18-1.5-5.21.38-7.2l21.61-22.97c2.32-2.47,7.36-6.09,11.92-7.13,4.34,7.38,12.36,12.35,21.53,12.35,1.26,0,2.5-.1,3.71-.28.07.09.13.18.21.25.53.5.96,1.07,1.27,1.71l11.65,24.19c.07.14.16.27.26.39l13.22,15.34c1,1.17,1.49,2.65,1.38,4.18Z"/>
  <path class="cls-1" d="M16.17,40.92h70.88c1,0,1.8-.81,1.8-1.8s-.81-1.8-1.8-1.8H16.17c-1,0-1.8.81-1.8,1.8s.81,1.8,1.8,1.8Z"/>
  <path class="cls-1" d="M71.36,54.11H29.67c-1,0-1.8.81-1.8,1.8s.81,1.8,1.8,1.8h41.69c1,0,1.8-.81,1.8-1.8s-.81-1.8-1.8-1.8Z"/>
  <path class="cls-1" d="M63.96,72.72c0-1-.81-1.8-1.8-1.8H3.91c-1,0-1.8.81-1.8,1.8s.81,1.8,1.8,1.8h58.25c1,0,1.8-.81,1.8-1.8Z"/>
  <path class="cls-1" d="M71.36,87.71H29.67c-1,0-1.8.81-1.8,1.8s.81,1.8,1.8,1.8h41.69c1,0,1.8-.81,1.8-1.8s-.81-1.8-1.8-1.8Z"/>
  <path class="cls-1" d="M79.6,104.51H16.17c-1,0-1.8.81-1.8,1.8s.81,1.8,1.8,1.8h63.43c1,0,1.8-.81,1.8-1.8s-.81-1.8-1.8-1.8Z"/>
</svg>