<?xml version="1.0" encoding="UTF-8"?>
<svg id="Physical_Security" data-name="Physical Security" xmlns="http://www.w3.org/2000/svg" viewBox="0 0 180 180">
  <defs>
    <style>
      .cls-1 {
        stroke: #000;
        stroke-miterlimit: 10;
        stroke-width: 2px;
      }
    </style>
  </defs>
  <path class="cls-1" d="M159.92,4.51H20.08C9.01,4.51,0,13.52,0,24.59v130.83c0,11.07,9.01,20.08,20.08,20.08h139.85c11.07,0,20.08-9.01,20.08-20.08V24.59c0-11.07-9.01-20.08-20.08-20.08ZM175.94,155.41c0,8.83-7.18,16.02-16.02,16.02H20.08c-8.83,0-16.02-7.18-16.02-16.02V24.59c0-8.83,7.18-16.02,16.02-16.02h139.85c8.83,0,16.02,7.18,16.02,16.02v130.83Z"/>
  <path class="cls-1" d="M159.92,22.55H20.13c-.11,0-.22,0-.33.02-.06,0-.13.02-.19.04-.92.22-1.56,1.03-1.56,1.98v48.06c-.01.59.24,1.15.69,1.53.36.32.83.52,1.35.52h139.81c.06,0,.12,0,.18,0,.11,0,.21-.02.32-.05.92-.22,1.56-1.03,1.56-1.98V24.6c.01-.59-.24-1.15-.69-1.53-.36-.32-.83-.52-1.35-.52ZM157.9,70.63H22.09V26.61s39.1,0,39.1,0l-18.39,26.69c-.64.92-.4,2.19.52,2.82.35.24.75.36,1.15.36.65,0,1.28-.31,1.67-.88l19.97-28.99h19.26s-11.73,17.03-11.73,17.03c-.64.92-.4,2.19.52,2.82.35.24.75.36,1.15.36.65,0,1.28-.31,1.67-.88l13.32-19.34h67.6s-.01,44.02-.01,44.02Z"/>
  <path class="cls-1" d="M62.16,102.08h-16.41c-1.12,0-2.03.91-2.03,2.03s.91,2.03,2.03,2.03h16.41c1.12,0,2.03-.91,2.03-2.03s-.91-2.03-2.03-2.03Z"/>
  <path class="cls-1" d="M62.16,120.13h-16.41c-1.12,0-2.03.91-2.03,2.03s.91,2.03,2.03,2.03h16.41c1.12,0,2.03-.91,2.03-2.03s-.91-2.03-2.03-2.03Z"/>
  <path class="cls-1" d="M62.16,138.17h-16.41c-1.12,0-2.03.91-2.03,2.03s.91,2.03,2.03,2.03h16.41c1.12,0,2.03-.91,2.03-2.03s-.91-2.03-2.03-2.03Z"/>
  <path class="cls-1" d="M98.2,102.08h-16.41c-1.12,0-2.03.91-2.03,2.03s.91,2.03,2.03,2.03h16.41c1.12,0,2.03-.91,2.03-2.03s-.91-2.03-2.03-2.03Z"/>
  <path class="cls-1" d="M98.2,120.13h-16.41c-1.12,0-2.03.91-2.03,2.03s.91,2.03,2.03,2.03h16.41c1.12,0,2.03-.91,2.03-2.03s-.91-2.03-2.03-2.03Z"/>
  <path class="cls-1" d="M98.2,138.17h-16.41c-1.12,0-2.03.91-2.03,2.03s.91,2.03,2.03,2.03h16.41c1.12,0,2.03-.91,2.03-2.03s-.91-2.03-2.03-2.03Z"/>
  <path class="cls-1" d="M134.25,102.08h-16.41c-1.12,0-2.03.91-2.03,2.03s.91,2.03,2.03,2.03h16.41c1.12,0,2.03-.91,2.03-2.03s-.91-2.03-2.03-2.03Z"/>
  <path class="cls-1" d="M134.25,120.13h-16.41c-1.12,0-2.03.91-2.03,2.03s.91,2.03,2.03,2.03h16.41c1.12,0,2.03-.91,2.03-2.03s-.91-2.03-2.03-2.03Z"/>
  <path class="cls-1" d="M134.25,138.17h-16.41c-1.12,0-2.03.91-2.03,2.03s.91,2.03,2.03,2.03h16.41c1.12,0,2.03-.91,2.03-2.03s-.91-2.03-2.03-2.03Z"/>
</svg>