<?xml version="1.0" encoding="UTF-8"?>
<svg id="Physical_Security" data-name="Physical Security" xmlns="http://www.w3.org/2000/svg" viewBox="0 0 180 180">
  <defs>
    <style>
      .cls-1 {
        stroke: #000;
        stroke-miterlimit: 10;
        stroke-width: 2px;
      }
    </style>
  </defs>
  <path class="cls-1" d="M46.79,150.28c-.98,0-1.77.79-1.77,1.77s.79,1.77,1.77,1.77h16.55c.98,0,1.77-.79,1.77-1.77s-.79-1.77-1.77-1.77h-16.55Z"/>
  <path class="cls-1" d="M91.81,46.22c.98,0,1.77-.79,1.77-1.77v-16.5c0-.98-.79-1.77-1.77-1.77H18.32c-.98,0-1.77.79-1.77,1.77v107.56c0,.98.79,1.77,1.77,1.77h73.49c.98,0,1.77-.79,1.77-1.77v-23.57c0-.98-.79-1.77-1.77-1.77s-1.77.79-1.77,1.77v21.8H20.08V29.72h29.64l-10.83,18.75c-.49.85-.2,1.93.65,2.42.28.16.58.24.88.24.61,0,1.21-.32,1.53-.88l11.85-20.52h15.02l-28.61,49.55c-.49.85-.2,1.93.65,2.42.28.16.58.24.88.24.61,0,1.21-.32,1.53-.88l29.63-51.32h17.12v14.73c0,.98.79,1.77,1.77,1.77Z"/>
  <path class="cls-1" d="M108.35,110.17c-.98,0-1.77.79-1.77,1.77v49.59c0,2.93-2.38,5.31-5.31,5.31H8.84c-2.93,0-5.31-2.38-5.31-5.31V18.48c0-2.93,2.38-5.31,5.31-5.31h92.44c2.29,0,4.37,1.53,5.06,3.72.3.93,1.29,1.44,2.22,1.15.93-.29,1.45-1.29,1.15-2.22-1.17-3.7-4.56-6.19-8.43-6.19H8.84C3.97,9.63,0,13.6,0,18.48v143.05c0,4.88,3.97,8.84,8.84,8.84h92.44c4.88,0,8.84-3.97,8.84-8.84v-49.59c0-.98-.79-1.77-1.77-1.77Z"/>
  <path class="cls-1" d="M178.59,89.86L134.83,14.07c-1.65-2.86-3.96-4.44-6.5-4.44s-4.85,1.58-6.5,4.44l-43.76,75.8c-1.65,2.86-1.86,5.65-.59,7.85,1.27,2.2,3.79,3.41,7.09,3.41h87.52c3.3,0,5.82-1.21,7.09-3.41,1.27-2.2,1.06-4.99-.59-7.85ZM176.12,95.95c-.6,1.05-2.07,1.64-4.03,1.64h-87.52c-1.96,0-3.43-.6-4.03-1.64-.6-1.05-.39-2.62.59-4.31L124.89,15.84c.98-1.7,2.23-2.67,3.44-2.67s2.46.97,3.44,2.67l43.76,75.8c.98,1.7,1.19,3.27.59,4.31Z"/>
  <path class="cls-1" d="M128.33,69.03c.98,0,1.77-.79,1.77-1.77v-24.28c0-.98-.79-1.77-1.77-1.77s-1.77.79-1.77,1.77v24.28c0,.98.79,1.77,1.77,1.77Z"/>
  <circle class="cls-1" cx="128.33" cy="81.73" r="3.34"/>
</svg>