<?xml version="1.0" encoding="UTF-8"?>
<svg id="Physical_Security" data-name="Physical Security" xmlns="http://www.w3.org/2000/svg" viewBox="0 0 180 180">
  <defs>
    <style>
      .cls-1 {
        stroke: #000;
        stroke-miterlimit: 10;
        stroke-width: 2px;
      }
    </style>
  </defs>
  <path class="cls-1" d="M165.92,33.19c-.11-.59-.51-1.08-1.06-1.31L90.71.15c-.45-.19-.97-.19-1.42,0L15.14,31.88c-.55.23-.95.73-1.06,1.31-.12.59.07,1.19.49,1.62l16.21,16.39v69.58c0,32.65,26.57,59.22,59.22,59.22s59.22-26.57,59.22-59.22V51.2l16.21-16.39c.42-.42.6-1.03.49-1.62ZM90,176.39c-30.67,0-55.61-24.95-55.61-55.61v-45.26h13.86c8.27,13.02,24.16,21.07,41.76,21.07s33.49-8.05,41.76-21.07h13.86v45.26c0,30.66-24.95,55.61-55.61,55.61ZM52.6,75.52h74.8c-7.92,10.85-21.93,17.46-37.4,17.46s-29.48-6.62-37.4-17.46ZM146.64,48.67h-16.88c-1,0-1.8.81-1.8,1.8s.81,1.8,1.8,1.8h15.85v19.64H34.39v-19.64h15.85c1,0,1.8-.81,1.8-1.8s-.81-1.8-1.8-1.8h-16.88l-14.36-14.52L90,3.77l71.01,30.39-14.36,14.52Z"/>
  <path class="cls-1" d="M65.96,107.55c-2.15,0-3.9,1.75-3.9,3.9s1.75,3.9,3.9,3.9,3.9-1.75,3.9-3.9-1.75-3.9-3.9-3.9Z"/>
  <path class="cls-1" d="M114.04,107.55c-2.15,0-3.9,1.75-3.9,3.9s1.75,3.9,3.9,3.9,3.9-1.75,3.9-3.9-1.75-3.9-3.9-3.9Z"/>
  <path class="cls-1" d="M99.79,141.05h-19.57c-1,0-1.8.81-1.8,1.8s.81,1.8,1.8,1.8h19.57c1,0,1.8-.81,1.8-1.8s-.81-1.8-1.8-1.8Z"/>
  <path class="cls-1" d="M89.29,23.71l-12.95,5.53c-.66.28-1.1.94-1.1,1.66v12.72c0,8.13,6.62,14.75,14.75,14.75s14.75-6.62,14.75-14.75v-12.72c0-.72-.43-1.38-1.1-1.66l-12.95-5.53c-.45-.19-.96-.19-1.42,0ZM101.14,32.08v11.53c0,6.14-5,11.14-11.14,11.14s-11.14-5-11.14-11.14v-11.53l11.14-4.76,11.14,4.76Z"/>
</svg>