<?xml version="1.0" encoding="UTF-8"?>
<svg id="Physical_Security" data-name="Physical Security" xmlns="http://www.w3.org/2000/svg" viewBox="0 0 180 180">
  <defs>
    <style>
      .cls-1 {
        stroke: #000;
        stroke-miterlimit: 10;
        stroke-width: 2px;
      }
    </style>
  </defs>
  <path class="cls-1" d="M179.69,51.39c-.58-2.07-1.93-3.79-3.8-4.84L107.64,8.26c-1.87-1.05-4.04-1.3-6.11-.72-2.07.58-3.79,1.93-4.84,3.8l-20.17,35.94c-3.35,1.04-25.55,8.11-25.55,8.11-6.26,2.07-11.67,3.85-19,19.29C24.68,90.03.39,145.5.14,146.06c-.38.86.02,1.86.87,2.24.22.1.45.14.68.14.65,0,1.28-.38,1.56-1.02.24-.56,24.52-55.98,31.79-71.29,6.71-14.13,11.25-15.63,17-17.53,0,0,16.14-5.17,22.07-7.02l-14,24.94c-.46.82-.17,1.85.65,2.31.82.46,1.85.17,2.31-.65L99.65,12.99c.6-1.08,1.6-1.85,2.79-2.19,1.2-.34,2.45-.19,3.53.41l68.26,38.3c1.08.6,1.85,1.6,2.19,2.8.34,1.2.19,2.45-.41,3.53l-54.85,97.75c-.6,1.08-1.6,1.85-2.79,2.19-1.2.34-2.45.19-3.53-.41l-34.59-19.42c3.17-8.26,7.89-17.7,21.21-30.01,5.09-4.7,8.11-11.09,8.09-17.09-.01-3.84-1.31-7.13-3.65-9.26-6-5.47-17.31-2.51-25.77,6.77-16.78,19.47-34.2,25.08-34.46,25.16-.9.28-1.4,1.23-1.12,2.12.28.9,1.23,1.4,2.12,1.12.75-.23,18.53-5.88,36-26.16,6.91-7.58,16.51-10.56,20.95-6.51,1.63,1.49,2.53,3.89,2.54,6.76.02,5.07-2.6,10.52-7,14.59-16.27,15.04-20.37,26.45-23.66,35.62-4.21,11.71-7.25,20.17-33.09,30.43-.87.35-1.3,1.33-.95,2.2.26.67.9,1.07,1.58,1.07.21,0,.42-.04.63-.12,27.26-10.82,30.69-20.36,35.03-32.44.12-.34.25-.69.37-1.04l34.12,19.16c1.21.68,2.55,1.03,3.91,1.03.73,0,1.47-.1,2.2-.3,2.07-.58,3.79-1.93,4.84-3.8l54.85-97.75c1.05-1.87,1.3-4.03.72-6.11Z"/>
</svg>