<?xml version="1.0" encoding="UTF-8"?>
<svg id="Physical_Security" data-name="Physical Security" xmlns="http://www.w3.org/2000/svg" viewBox="0 0 180 180">
  <defs>
    <style>
      .cls-1 {
        stroke: #000;
        stroke-miterlimit: 10;
        stroke-width: 2px;
      }
    </style>
  </defs>
  <path class="cls-1" d="M177.92,57.33c1.15,0,2.08-.93,2.08-2.08v-18.51c0-1.15-.93-2.08-2.08-2.08h-34.82V8.56c0-4.72-3.84-8.56-8.56-8.56H8.56C3.84,0,0,3.84,0,8.56v162.88C0,176.16,3.84,180,8.56,180h125.97c4.72,0,8.56-3.84,8.56-8.56v-26.09h34.82c1.15,0,2.08-.93,2.08-2.08v-18.51c0-1.15-.93-2.08-2.08-2.08h-34.82v-21.34h34.82c1.15,0,2.08-.93,2.08-2.08v-18.51c0-1.15-.93-2.08-2.08-2.08h-34.82v-21.34h34.82ZM175.84,38.82v14.34h-32.74v-14.34h32.74ZM138.93,171.44c0,2.42-1.97,4.4-4.4,4.4H8.56c-2.42,0-4.4-1.97-4.4-4.4V8.56c0-2.42,1.97-4.4,4.4-4.4h125.97c2.42,0,4.4,1.97,4.4,4.4v162.88ZM175.84,126.84v14.34h-32.74v-14.34h32.74ZM175.84,82.83v14.34h-32.74v-14.34h32.74Z"/>
  <path class="cls-1" d="M24.89,20.96c-2.17,0-3.93,1.76-3.93,3.93s1.76,3.93,3.93,3.93,3.93-1.76,3.93-3.93-1.76-3.93-3.93-3.93Z"/>
  <path class="cls-1" d="M118.21,20.96c-2.17,0-3.93,1.76-3.93,3.93s1.76,3.93,3.93,3.93,3.93-1.76,3.93-3.93-1.76-3.93-3.93-3.93Z"/>
  <path class="cls-1" d="M118.21,151.18c-2.17,0-3.93,1.76-3.93,3.93s1.76,3.93,3.93,3.93,3.93-1.76,3.93-3.93-1.76-3.93-3.93-3.93Z"/>
  <path class="cls-1" d="M24.89,151.18c-2.17,0-3.93,1.76-3.93,3.93s1.76,3.93,3.93,3.93,3.93-1.76,3.93-3.93-1.76-3.93-3.93-3.93Z"/>
  <path class="cls-1" d="M90.79,87.92h-14.34c-.81-1.9-2.7-3.24-4.9-3.24s-4.08,1.34-4.9,3.24h-14.34c-1.15,0-2.08.93-2.08,2.08s.93,2.08,2.08,2.08h14.34c.81,1.9,2.7,3.24,4.9,3.24s4.08-1.34,4.9-3.24h14.34c1.15,0,2.08-.93,2.08-2.08s-.93-2.08-2.08-2.08Z"/>
</svg>