<?xml version="1.0" encoding="UTF-8"?>
<svg id="Physical_Security" data-name="Physical Security" xmlns="http://www.w3.org/2000/svg" viewBox="0 0 180 180">
  <defs>
    <style>
      .cls-1 {
        stroke: #000;
        stroke-miterlimit: 10;
        stroke-width: 2px;
      }
    </style>
  </defs>
  <path class="cls-1" d="M123.29,119.82h-8.65v-18.17c0-13.59-11.05-24.64-24.64-24.64s-24.64,11.05-24.64,24.64v18.17h-8.65c-3.28,0-5.95,2.67-5.95,5.95v48.29c0,3.28,2.67,5.95,5.95,5.95h66.59c3.28,0,5.95-2.67,5.95-5.95v-48.29c0-3.28-2.67-5.95-5.95-5.95ZM69.05,101.65c0-11.55,9.4-20.95,20.95-20.95s20.95,9.4,20.95,20.95v18.17h-41.9v-18.17ZM125.55,174.05c0,1.24-1.01,2.26-2.26,2.26H56.71c-1.24,0-2.26-1.01-2.26-2.26v-48.29c0-1.24,1.01-2.26,2.26-2.26h66.59c1.24,0,2.26,1.01,2.26,2.26v48.29Z"/>
  <path class="cls-1" d="M179.14,55.76L90.98.28c-.6-.38-1.36-.38-1.97,0L.86,55.76c-.7.44-1.02,1.28-.79,2.07.23.79.95,1.33,1.77,1.33h10.98v90.74c0,1.02.83,1.85,1.85,1.85h23.09c1.02,0,1.85-.83,1.85-1.85s-.83-1.85-1.85-1.85h-21.25V59.17h146.98v88.9h-21.25c-1.02,0-1.85.83-1.85,1.85s.83,1.85,1.85,1.85h23.09c1.02,0,1.85-.83,1.85-1.85V59.17h10.98c.82,0,1.54-.54,1.77-1.33.23-.79-.09-1.63-.79-2.07ZM8.24,55.48L90,4.03l81.76,51.45H8.24Z"/>
  <path class="cls-1" d="M80,36.53c0,1.02.83,1.85,1.85,1.85h16.32c1.02,0,1.85-.83,1.85-1.85s-.83-1.85-1.85-1.85h-16.32c-1.02,0-1.85.83-1.85,1.85Z"/>
  <path class="cls-1" d="M90,142.43c-2.3,0-4.17,1.87-4.17,4.16,0,1.63.95,3.03,2.32,3.71v6.78c0,1.02.83,1.85,1.85,1.85s1.85-.83,1.85-1.85v-6.78c1.37-.68,2.32-2.08,2.32-3.71,0-2.3-1.87-4.16-4.17-4.16Z"/>
</svg>