<?xml version="1.0" encoding="UTF-8"?>
<svg id="Physical_Security" data-name="Physical Security" xmlns="http://www.w3.org/2000/svg" viewBox="0 0 180 180">
  <defs>
    <style>
      .cls-1 {
        stroke: #000;
        stroke-miterlimit: 10;
        stroke-width: 2px;
      }
    </style>
  </defs>
  <path class="cls-1" d="M86.28,41.04C86.28,18.41,67.87,0,45.24,0S4.19,18.41,4.19,41.04c0,16.09,9.33,30.59,23.88,37.29v84.5c0,.49.19.96.54,1.3l15.32,15.32c.36.36.83.54,1.3.54s.94-.18,1.3-.54l15.32-15.32c.35-.35.54-.82.54-1.3v-5.73c0-.56-.26-1.09-.69-1.44l-4.15-3.31v-5.15l4.15-3.31c.44-.35.69-.88.69-1.44v-12.35c0-.56-.26-1.09-.69-1.44l-4.15-3.31v-5.15l4.15-3.31c.44-.35.69-.88.69-1.44v-6.32c0-.56-.26-1.09-.69-1.44l-4.15-3.31v-5.15l4.15-3.31c.44-.35.69-.88.69-1.44v-16.12c14.55-6.7,23.88-21.2,23.88-37.29ZM59.84,75.44c-.68.29-1.12.96-1.12,1.7v16.43l-4.15,3.31c-.44.35-.69.88-.69,1.44v6.93c0,.56.26,1.09.69,1.44l4.15,3.31v4.54l-4.15,3.31c-.44.35-.69.88-.69,1.44v6.93c0,.56.26,1.09.69,1.44l4.15,3.31v10.57l-4.15,3.31c-.44.35-.69.88-.69,1.44v6.93c0,.56.26,1.09.69,1.44l4.15,3.31v4.08l-13.48,13.48-13.48-13.48v-84.93c0-.74-.44-1.41-1.12-1.7-13.82-5.88-22.75-19.38-22.75-34.39C7.88,20.45,24.64,3.69,45.24,3.69s37.35,16.76,37.35,37.35c0,15.02-8.93,28.52-22.75,34.39Z"/>
  <path class="cls-1" d="M45.24,15.93c-5.11,0-9.27,4.16-9.27,9.27s4.16,9.27,9.27,9.27,9.27-4.16,9.27-9.27-4.16-9.27-9.27-9.27ZM45.24,30.77c-3.08,0-5.58-2.5-5.58-5.58s2.5-5.58,5.58-5.58,5.58,2.5,5.58,5.58-2.5,5.58-5.58,5.58Z"/>
  <path class="cls-1" d="M43.38,79.81c-1.02,0-1.85.83-1.85,1.85v35.7c0,1.02.83,1.85,1.85,1.85s1.85-.83,1.85-1.85v-35.7c0-1.02-.83-1.85-1.85-1.85Z"/>
  <path class="cls-1" d="M43.38,127.61c-1.02,0-1.85.83-1.85,1.85v22.82c0,1.02.83,1.85,1.85,1.85s1.85-.83,1.85-1.85v-22.82c0-1.02-.83-1.85-1.85-1.85Z"/>
  <path class="cls-1" d="M175.27,126.75l-4.05-4.05c-.4-.4-.95-.59-1.51-.53l-5.27.59-3.64-3.64.59-5.27c.06-.56-.13-1.11-.53-1.51l-8.73-8.73c-.4-.4-.95-.59-1.51-.53l-5.28.59-3.64-3.64.59-5.28c.06-.56-.13-1.11-.53-1.51l-4.47-4.47c-.4-.4-.95-.59-1.51-.53l-5.27.59-3.64-3.64.59-5.28c.06-.56-.13-1.11-.53-1.51l-11.4-11.4c5.55-15.02,1.89-31.88-9.48-43.25-4.03-4.03-8.76-7.12-14.05-9.2-.95-.37-2.02.1-2.39,1.05-.37.95.1,2.02,1.05,2.39,4.82,1.88,9.12,4.7,12.79,8.37,10.62,10.62,13.85,26.48,8.23,40.41-.28.69-.12,1.47.41,1.99l11.62,11.62-.59,5.27c-.06.56.13,1.11.53,1.51l4.9,4.9c.4.4.96.59,1.51.53l5.27-.59,3.21,3.21-.59,5.28c-.06.56.13,1.11.53,1.51l4.9,4.9c.4.4.95.59,1.51.53l5.28-.59,7.47,7.48-.59,5.27c-.06.56.13,1.11.53,1.51l4.9,4.9c.4.4.96.59,1.51.53l5.27-.59,2.88,2.88v19.06h-19.06l-60.06-60.06c-.52-.52-1.31-.68-1.99-.41-5.4,2.18-11.34,3.07-17.17,2.58-1-.08-1.91.67-1.99,1.68-.09,1.01.67,1.91,1.68,1.99,5.99.5,12.09-.32,17.72-2.39l59.75,59.75c.35.35.82.54,1.3.54h21.67c1.02,0,1.85-.83,1.85-1.85v-21.67c0-.49-.19-.96-.54-1.3Z"/>
</svg>