<?xml version="1.0" encoding="UTF-8"?>
<svg id="VPN_Privacy_Transactions" data-name="VPN, Privacy &amp;amp; Transactions" xmlns="http://www.w3.org/2000/svg" viewBox="0 0 180 180">
  <defs>
    <style>
      .cls-1 {
        stroke: #000;
        stroke-miterlimit: 10;
        stroke-width: 2px;
      }
    </style>
  </defs>
  <path class="cls-1" d="M94.55,66.59h-9.16c-1.02,0-1.85.83-1.85,1.85s.83,1.85,1.85,1.85h9.16c1.02,0,1.85-.83,1.85-1.85s-.83-1.85-1.85-1.85Z"/>
  <path class="cls-1" d="M114.54,70.3h9.16c1.02,0,1.85-.83,1.85-1.85s-.83-1.85-1.85-1.85h-9.16c-1.02,0-1.85.83-1.85,1.85s.83,1.85,1.85,1.85Z"/>
  <path class="cls-1" d="M36.25,66.59h-9.16c-1.02,0-1.85.83-1.85,1.85s.83,1.85,1.85,1.85h9.16c1.02,0,1.85-.83,1.85-1.85s-.83-1.85-1.85-1.85Z"/>
  <path class="cls-1" d="M56.24,70.3h9.16c1.02,0,1.85-.83,1.85-1.85s-.83-1.85-1.85-1.85h-9.16c-1.02,0-1.85.83-1.85,1.85s.83,1.85,1.85,1.85Z"/>
  <path class="cls-1" d="M94.55,92.78h-9.16c-1.02,0-1.85.83-1.85,1.85s.83,1.85,1.85,1.85h9.16c1.02,0,1.85-.83,1.85-1.85s-.83-1.85-1.85-1.85Z"/>
  <path class="cls-1" d="M114.54,96.49h9.16c1.02,0,1.85-.83,1.85-1.85s-.83-1.85-1.85-1.85h-9.16c-1.02,0-1.85.83-1.85,1.85s.83,1.85,1.85,1.85Z"/>
  <path class="cls-1" d="M36.25,92.78h-9.16c-1.02,0-1.85.83-1.85,1.85s.83,1.85,1.85,1.85h9.16c1.02,0,1.85-.83,1.85-1.85s-.83-1.85-1.85-1.85Z"/>
  <path class="cls-1" d="M69.29,86.17c-.72-.72-1.9-.72-2.62,0l-5.84,5.84-5.84-5.84c-.72-.72-1.9-.72-2.62,0-.72.72-.72,1.9,0,2.62l5.84,5.84-5.84,5.84c-.72.72-.72,1.9,0,2.62.36.36.84.54,1.31.54s.95-.18,1.31-.54l5.84-5.84,5.84,5.84c.36.36.84.54,1.31.54s.95-.18,1.31-.54c.72-.72.72-1.9,0-2.62l-5.84-5.84,5.84-5.84c.72-.72.72-1.9,0-2.62Z"/>
  <path class="cls-1" d="M94.55,118.98h-9.16c-1.02,0-1.85.83-1.85,1.85s.83,1.85,1.85,1.85h9.16c1.02,0,1.85-.83,1.85-1.85s-.83-1.85-1.85-1.85Z"/>
  <path class="cls-1" d="M65.4,118.98h-9.16c-1.02,0-1.85.83-1.85,1.85s.83,1.85,1.85,1.85h9.16c1.02,0,1.85-.83,1.85-1.85s-.83-1.85-1.85-1.85Z"/>
  <path class="cls-1" d="M36.25,118.98h-9.16c-1.02,0-1.85.83-1.85,1.85s.83,1.85,1.85,1.85h9.16c1.02,0,1.85-.83,1.85-1.85s-.83-1.85-1.85-1.85Z"/>
  <path class="cls-1" d="M150.8,105.02V24.05c0-7.43-6.04-13.47-13.47-13.47h-9.84v-5.06c0-1.02-.83-1.85-1.85-1.85s-1.85.83-1.85,1.85v5.06h-21.41v-5.06c0-1.02-.83-1.85-1.85-1.85s-1.85.83-1.85,1.85v5.06h-21.41v-5.06c0-1.02-.83-1.85-1.85-1.85s-1.85.83-1.85,1.85v5.06h-21.41v-5.06c0-1.02-.83-1.85-1.85-1.85s-1.85.83-1.85,1.85v5.06h-21.41v-5.06c0-1.02-.83-1.85-1.85-1.85s-1.85.83-1.85,1.85v5.06h-9.84C6.04,10.58,0,16.62,0,24.05v114.67c0,7.43,6.04,13.47,13.47,13.47h91.94v7.58c0,9.28,16.38,16.55,37.3,16.55s37.3-7.27,37.3-16.55v-38.58c0-8.05-12.31-14.58-29.2-16.18ZM142.7,153.39c-19.8,0-33.59-6.77-33.59-12.85v-11.92c5.98,5.52,18.63,9.24,33.59,9.24s27.61-3.72,33.59-9.24v11.92c0,6.08-13.79,12.85-33.59,12.85ZM142.7,108.46c19.8,0,33.59,6.77,33.59,12.85s-13.79,12.85-33.59,12.85-33.59-6.77-33.59-12.85,13.79-12.85,33.59-12.85ZM13.47,14.29h9.84v5.06c0,1.02.83,1.85,1.85,1.85s1.85-.83,1.85-1.85v-5.06h21.41v5.06c0,1.02.83,1.85,1.85,1.85s1.85-.83,1.85-1.85v-5.06h21.41v5.06c0,1.02.83,1.85,1.85,1.85s1.85-.83,1.85-1.85v-5.06h21.41v5.06c0,1.02.83,1.85,1.85,1.85s1.85-.83,1.85-1.85v-5.06h21.41v5.06c0,1.02.83,1.85,1.85,1.85s1.85-.83,1.85-1.85v-5.06h9.84c5.38,0,9.76,4.38,9.76,9.76v12.38H3.71v-12.38c0-5.38,4.38-9.76,9.76-9.76ZM13.47,148.48c-5.38,0-9.76-4.38-9.76-9.76V40.14h143.38v64.61c-1.44-.07-2.9-.11-4.39-.11-20.92,0-37.3,7.27-37.3,16.56v27.29H13.47ZM142.7,172.62c-19.8,0-33.59-6.77-33.59-12.85v-11.92c5.98,5.52,18.63,9.24,33.59,9.24s27.61-3.72,33.59-9.24v11.92c0,6.08-13.79,12.85-33.59,12.85Z"/>
</svg>