<?xml version="1.0" encoding="UTF-8"?>
<svg id="VPN_Privacy_Transactions" data-name="VPN, Privacy &amp;amp; Transactions" xmlns="http://www.w3.org/2000/svg" viewBox="0 0 180 180">
  <defs>
    <style>
      .cls-1 {
        stroke: #000;
        stroke-miterlimit: 10;
        stroke-width: 2px;
      }
    </style>
  </defs>
  <path class="cls-1" d="M39.42,81.5c-22.1,0-39.42,7.68-39.42,17.48v60.49c0,9.8,17.32,17.48,39.42,17.48s39.42-7.68,39.42-17.48v-60.49c0-9.8-17.31-17.48-39.42-17.48ZM39.42,153.07c-20.95,0-35.56-7.18-35.56-13.62v-12.34c6.3,5.86,19.7,9.81,35.56,9.81s29.26-3.95,35.56-9.81v12.34c0,6.44-14.6,13.62-35.56,13.62ZM39.42,133.06c-20.95,0-35.56-7.18-35.56-13.62v-12.8c6.3,5.86,19.7,9.81,35.56,9.81s29.26-3.95,35.56-9.81v12.8c0,6.44-14.6,13.62-35.56,13.62ZM39.42,173.08c-20.95,0-35.56-7.18-35.56-13.62v-12.34c6.3,5.86,19.7,9.81,35.56,9.81s29.26-3.95,35.56-9.81v12.34c0,6.44-14.6,13.62-35.56,13.62ZM39.42,112.6c-20.95,0-35.56-7.18-35.56-13.62s14.6-13.62,35.56-13.62,35.56,7.18,35.56,13.62-14.6,13.62-35.56,13.62Z"/>
  <path class="cls-1" d="M140.58,101.51c-22.1,0-39.42,7.68-39.42,17.48v40.48c0,9.8,17.31,17.48,39.42,17.48s39.42-7.68,39.42-17.48v-40.48c0-9.8-17.31-17.48-39.42-17.48ZM140.58,105.37c20.96,0,35.56,7.18,35.56,13.62s-14.6,13.62-35.56,13.62-35.56-7.18-35.56-13.62,14.6-13.62,35.56-13.62ZM140.58,153.07c-20.96,0-35.56-7.18-35.56-13.62v-12.8c6.3,5.86,19.7,9.81,35.56,9.81s29.26-3.95,35.56-9.81v12.8c0,6.44-14.6,13.62-35.56,13.62ZM140.58,173.08c-20.96,0-35.56-7.18-35.56-13.62v-12.34c6.3,5.86,19.7,9.81,35.56,9.81s29.26-3.95,35.56-9.81v12.34c0,6.44-14.6,13.62-35.56,13.62Z"/>
  <path class="cls-1" d="M131.94,30.75c.36.61,1,.95,1.67.95.33,0,.67-.09.98-.27.92-.54,1.22-1.72.68-2.64-1.2-2.04-2.55-4.02-4.02-5.88-.66-.84-1.88-.98-2.71-.32-.84.66-.98,1.88-.32,2.71,1.36,1.72,2.62,3.56,3.73,5.45Z"/>
  <path class="cls-1" d="M138.05,47.73c.15.95.97,1.63,1.9,1.63.1,0,.2,0,.31-.02,1.05-.17,1.77-1.16,1.6-2.21-.37-2.34-.91-4.68-1.59-6.94-.31-1.02-1.39-1.6-2.41-1.29-1.02.31-1.6,1.39-1.29,2.41.63,2.1,1.13,4.26,1.47,6.43Z"/>
  <path class="cls-1" d="M114.61,13.44c1.89,1.11,3.72,2.36,5.45,3.72.35.28.78.41,1.19.41.57,0,1.14-.25,1.52-.74.66-.84.51-2.05-.32-2.71-1.86-1.46-3.84-2.81-5.88-4.01-.92-.54-2.1-.23-2.64.69-.54.92-.23,2.1.69,2.64Z"/>
  <path class="cls-1" d="M138.65,59.4v6.86c0,1.07.86,1.93,1.93,1.93s1.93-.86,1.93-1.93v-6.86c0-1.07-.86-1.93-1.93-1.93s-1.93.86-1.93,1.93Z"/>
  <path class="cls-1" d="M140.58,76.35c-1.07,0-1.93.86-1.93,1.93v6.86c0,1.07.86,1.93,1.93,1.93s1.93-.86,1.93-1.93v-6.86c0-1.07-.86-1.93-1.93-1.93Z"/>
  <path class="cls-1" d="M40.36,45.46c.15.04.3.05.45.05.87,0,1.66-.6,1.88-1.48.51-2.14,1.18-4.25,1.97-6.29.39-.99-.1-2.11-1.1-2.5-.99-.39-2.11.11-2.5,1.1-.86,2.2-1.57,4.49-2.13,6.8-.25,1.04.39,2.08,1.43,2.33Z"/>
  <path class="cls-1" d="M39.42,64.28c1.07,0,1.93-.86,1.93-1.93v-6.86c0-1.07-.86-1.93-1.93-1.93s-1.93.86-1.93,1.93v6.86c0,1.07.86,1.93,1.93,1.93Z"/>
  <path class="cls-1" d="M61.9,15.27c.37,0,.74-.11,1.07-.33,1.83-1.22,3.75-2.33,5.72-3.29.96-.47,1.36-1.62.89-2.58-.47-.96-1.62-1.35-2.58-.89-2.13,1.04-4.21,2.23-6.18,3.55-.89.59-1.12,1.79-.53,2.68.37.56.98.86,1.61.86Z"/>
  <path class="cls-1" d="M85.8,3.06c-2.36.19-4.73.54-7.04,1.04-1.04.23-1.7,1.26-1.47,2.3.2.9,1,1.52,1.88,1.52.14,0,.27-.01.41-.04,2.14-.47,4.33-.79,6.52-.96,1.06-.08,1.86-1.01,1.77-2.08-.08-1.06-1.01-1.86-2.08-1.77Z"/>
  <path class="cls-1" d="M104.62,8.9c.83,0,1.6-.54,1.85-1.38.31-1.02-.27-2.1-1.29-2.4-2.26-.68-4.6-1.22-6.94-1.58-1.05-.17-2.04.55-2.21,1.61-.17,1.05.55,2.04,1.61,2.21,2.17.34,4.33.83,6.43,1.47.19.06.37.08.56.08Z"/>
  <path class="cls-1" d="M47.4,28.06c.34.23.72.35,1.1.35.61,0,1.21-.29,1.58-.82,1.26-1.8,2.65-3.53,4.13-5.14.72-.78.67-2.01-.11-2.73-.78-.72-2.01-.67-2.73.11-1.6,1.74-3.11,3.61-4.46,5.55-.61.87-.4,2.08.48,2.69Z"/>
</svg>