<?xml version="1.0" encoding="UTF-8"?>
<svg id="VPN_Privacy_Transactions" data-name="VPN, Privacy &amp;amp; Transactions" xmlns="http://www.w3.org/2000/svg" viewBox="0 0 180 180">
  <defs>
    <style>
      .cls-1 {
        stroke: #000;
        stroke-miterlimit: 10;
        stroke-width: 2px;
      }
    </style>
  </defs>
  <path class="cls-1" d="M122.21,116.45h-35.5c-1.21,0-2.2.98-2.2,2.2s.98,2.2,2.2,2.2h33.31v15.89c0,.9.55,1.71,1.39,2.04.26.1.53.15.8.15.6,0,1.18-.24,1.6-.7l34.14-36.51c.79-.84.79-2.16,0-3l-34.14-36.51c-.62-.66-1.57-.87-2.41-.54-.84.33-1.39,1.14-1.39,2.04v15.89h-33.31c-1.21,0-2.2.98-2.2,2.2s.98,2.2,2.2,2.2h35.5c1.21,0,2.2-.98,2.2-2.2v-12.53l28.94,30.95-28.94,30.95v-12.53c0-1.21-.98-2.2-2.2-2.2Z"/>
  <path class="cls-1" d="M46.22,130.62v6.68c0,1.21.98,2.2,2.2,2.2s2.2-.98,2.2-2.2v-6.68c4.04-.51,7.84-2.37,10.68-5.32,3.22-3.34,4.9-7.69,4.74-12.23-.38-10.31-8.15-14.5-15-18.2-5.98-3.23-11.15-6.02-11.18-12.25,0-2.06.98-4.29,2.64-5.95,1.67-1.67,3.77-2.6,5.92-2.6,4.72,0,8.56,3.84,8.56,8.56,0,1.21.98,2.2,2.2,2.2s2.19-.98,2.19-2.2c0-6.39-4.66-11.7-10.75-12.75v-6.73c0-1.21-.98-2.19-2.2-2.19s-2.2.98-2.2,2.19v6.74c-2.52.47-4.9,1.72-6.84,3.67-2.5,2.52-3.93,5.82-3.92,9.07.04,8.83,7.18,12.69,13.48,16.09,6.38,3.45,12.41,6.7,12.7,14.5.12,3.34-1.12,6.54-3.51,9.02-2.53,2.62-6.07,4.13-9.72,4.13-7.29,0-13.23-5.93-13.23-13.23,0-1.21-.98-2.2-2.2-2.2s-2.2.98-2.2,2.2c0,8.97,6.74,16.38,15.43,17.47Z"/>
  <path class="cls-1" d="M169.02,0H10.98C4.92,0,0,4.92,0,10.98v158.05c0,6.05,4.92,10.98,10.98,10.98h158.05c6.05,0,10.98-4.92,10.98-10.98V10.98C180,4.92,175.08,0,169.02,0ZM175.61,169.02c0,3.63-2.95,6.59-6.59,6.59H10.98c-3.63,0-6.59-2.95-6.59-6.59V32.66h171.22v136.36ZM175.61,28.27H4.39V10.98c0-3.63,2.95-6.59,6.59-6.59h158.05c3.63,0,6.59,2.95,6.59,6.59v17.3Z"/>
  <path class="cls-1" d="M158.04,11.19c-2.56,0-4.63,2.08-4.63,4.63s2.08,4.63,4.63,4.63,4.63-2.08,4.63-4.63-2.08-4.63-4.63-4.63Z"/>
  <path class="cls-1" d="M139.78,11.19c-2.56,0-4.63,2.08-4.63,4.63s2.08,4.63,4.63,4.63,4.63-2.08,4.63-4.63-2.08-4.63-4.63-4.63Z"/>
  <path class="cls-1" d="M121.53,11.19c-2.56,0-4.63,2.08-4.63,4.63s2.08,4.63,4.63,4.63,4.63-2.08,4.63-4.63-2.08-4.63-4.63-4.63Z"/>
</svg>