<?xml version="1.0" encoding="UTF-8"?>
<svg id="VPN_Privacy_Transactions" data-name="VPN, Privacy &amp;amp; Transactions" xmlns="http://www.w3.org/2000/svg" viewBox="0 0 180 180">
  <defs>
    <style>
      .cls-1 {
        stroke: #000;
        stroke-miterlimit: 10;
        stroke-width: 2px;
      }
    </style>
  </defs>
  <path class="cls-1" d="M52.99,96v5.35c0,1.06.86,1.92,1.92,1.92s1.92-.86,1.92-1.92v-5.35c3.28-.44,6.37-1.96,8.69-4.36,2.66-2.76,4.04-6.34,3.9-10.08-.31-8.49-6.69-11.93-12.32-14.97-4.85-2.62-9.04-4.88-9.06-9.89,0-1.65.79-3.43,2.12-4.77,1.34-1.34,3.02-2.08,4.74-2.08,3.78,0,6.86,3.08,6.86,6.86,0,1.06.86,1.92,1.92,1.92s1.92-.86,1.92-1.92c0-5.24-3.79-9.61-8.78-10.52v-5.39c0-1.06-.86-1.92-1.92-1.92s-1.92.86-1.92,1.92v5.4c-2.05.4-3.97,1.44-5.55,3.02-2.07,2.08-3.25,4.81-3.24,7.5.03,7.29,5.9,10.46,11.08,13.25,5.18,2.8,10.07,5.44,10.3,11.73.1,2.69-.91,5.28-2.83,7.27-2.04,2.12-4.9,3.33-7.85,3.33-5.89,0-10.68-4.79-10.68-10.68,0-1.06-.86-1.92-1.92-1.92s-1.92.86-1.92,1.92c0,7.35,5.5,13.43,12.6,14.38Z"/>
  <path class="cls-1" d="M162.82,22.26H17.18c-1.06,0-1.92.86-1.92,1.92v93.79c0,1.06.86,1.92,1.92,1.92h145.63c1.06,0,1.92-.86,1.92-1.92V24.18c0-1.06-.86-1.92-1.92-1.92ZM160.9,116.04H19.1V26.1h141.79v89.94Z"/>
  <path class="cls-1" d="M166.13,7H13.87C6.22,7,0,13.22,0,20.87v100.41c0,7.65,6.22,13.87,13.87,13.87h55.44v11l-20.09,12.09c-.58.35-.93.97-.93,1.65v11.2c0,1.06.86,1.92,1.92,1.92h79.58c1.06,0,1.92-.86,1.92-1.92v-11.2c0-.67-.35-1.3-.93-1.65l-20.09-12.09v-11h55.44c7.65,0,13.87-6.22,13.87-13.87V20.87c0-7.65-6.22-13.87-13.87-13.87ZM107.78,148.88l20.09,12.09v8.19H52.13v-8.19l20.09-12.09c.58-.35.93-.97.93-1.65v-12.09h33.69v12.09c0,.67.35,1.3.93,1.65ZM176.16,121.28c0,5.53-4.5,10.03-10.03,10.03H13.87c-5.53,0-10.03-4.5-10.03-10.03V20.87c0-5.53,4.5-10.03,10.03-10.03h152.26c5.53,0,10.03,4.5,10.03,10.03v100.41Z"/>
  <path class="cls-1" d="M86.17,72.99h52.82c1.06,0,1.92-.86,1.92-1.92v-17.68c0-1.06-.86-1.92-1.92-1.92h-52.82c-1.06,0-1.92.86-1.92,1.92v17.68c0,1.06.86,1.92,1.92,1.92ZM88.09,55.31h48.98v13.84h-48.98v-13.84Z"/>
  <path class="cls-1" d="M86.17,90.68h52.82c1.06,0,1.92-.86,1.92-1.92s-.86-1.92-1.92-1.92h-52.82c-1.06,0-1.92.86-1.92,1.92s.86,1.92,1.92,1.92Z"/>
</svg>