<?xml version="1.0" encoding="UTF-8"?>
<svg id="VPN_Privacy_Transactions" data-name="VPN, Privacy &amp;amp; Transactions" xmlns="http://www.w3.org/2000/svg" viewBox="0 0 180 180">
  <defs>
    <style>
      .cls-1 {
        stroke: #000;
        stroke-miterlimit: 10;
        stroke-width: 2px;
      }
    </style>
  </defs>
  <path class="cls-1" d="M27.59,43.43h-9.22c-1,0-1.82.81-1.82,1.82s.81,1.82,1.82,1.82h9.22c1,0,1.82-.81,1.82-1.82s-.81-1.82-1.82-1.82Z"/>
  <path class="cls-1" d="M32.91,73.78H4.59v-13.4h112.66v4.91c0,1,.81,1.82,1.82,1.82s1.82-.81,1.82-1.82V14.99c0-5.33-4.34-9.67-9.67-9.67H10.62C5.29,5.32.95,9.65.95,14.99v66.77c0,5.33,4.34,9.67,9.67,9.67h19.91c1,0,1.82-.81,1.82-1.82s-.81-1.82-1.82-1.82H10.62c-3.33,0-6.03-2.71-6.03-6.03v-4.33h28.32c1,0,1.82-.81,1.82-1.82s-.81-1.82-1.82-1.82ZM4.59,14.99c0-3.33,2.71-6.03,6.03-6.03h100.6c3.33,0,6.03,2.71,6.03,6.03v41.76H4.59V14.99Z"/>
  <path class="cls-1" d="M71.44,119.76h-10.66c-1,0-1.82.81-1.82,1.82s.81,1.82,1.82,1.82h10.66c1,0,1.82-.81,1.82-1.82s-.81-1.82-1.82-1.82Z"/>
  <path class="cls-1" d="M169.95,75.69H50.03c-5.01,0-9.09,4.08-9.09,9.09v80.81c0,5.01,4.08,9.09,9.09,9.09h119.93c5.01,0,9.1-4.08,9.1-9.09v-80.81c0-5.01-4.08-9.09-9.1-9.09ZM175.41,165.59c0,3.01-2.45,5.46-5.46,5.46H50.03c-3.01,0-5.46-2.45-5.46-5.46v-7.1h130.84v7.1ZM175.41,154.85H44.57v-16.07h130.84v16.07ZM175.41,135.15H44.57v-50.37c0-3.01,2.45-5.46,5.46-5.46h119.93c3.01,0,5.46,2.45,5.46,5.46v50.37Z"/>
  <path class="cls-1" d="M139.3,39.17c2.12,0,3.84-1.72,3.84-3.84s-1.72-3.84-3.84-3.84-3.84,1.72-3.84,3.84,1.72,3.84,3.84,3.84Z"/>
  <path class="cls-1" d="M161.33,39.17c2.12,0,3.84-1.72,3.84-3.84s-1.72-3.84-3.84-3.84-3.84,1.72-3.84,3.84,1.72,3.84,3.84,3.84Z"/>
  <path class="cls-1" d="M161.33,61.21c2.12,0,3.84-1.72,3.84-3.84s-1.72-3.84-3.84-3.84-3.84,1.72-3.84,3.84,1.72,3.84,3.84,3.84Z"/>
</svg>