<?xml version="1.0" encoding="UTF-8"?>
<svg id="VPN_Privacy_Transactions" data-name="VPN, Privacy &amp;amp; Transactions" xmlns="http://www.w3.org/2000/svg" viewBox="0 0 180 180">
  <defs>
    <style>
      .cls-1 {
        stroke: #000;
        stroke-miterlimit: 10;
        stroke-width: 2px;
      }
    </style>
  </defs>
  <path class="cls-1" d="M90,101.29c17.26,0,31.3-14.04,31.3-31.3s-14.04-31.3-31.3-31.3-31.3,14.04-31.3,31.3,14.04,31.3,31.3,31.3ZM90,41.97c15.45,0,28.02,12.57,28.02,28.02s-12.57,28.02-28.02,28.02-28.02-12.57-28.02-28.02,12.57-28.02,28.02-28.02Z"/>
  <path class="cls-1" d="M90,82.93c7.14,0,12.94-5.81,12.94-12.94s-5.81-12.94-12.94-12.94-12.94,5.81-12.94,12.94,5.81,12.94,12.94,12.94ZM90,60.32c5.33,0,9.67,4.34,9.67,9.67s-4.34,9.67-9.67,9.67-9.67-4.34-9.67-9.67,4.34-9.67,9.67-9.67Z"/>
  <path class="cls-1" d="M114.76,110.82h-49.52c-5.42,0-9.83,4.41-9.83,9.83v49.52c0,5.42,4.41,9.83,9.83,9.83h49.52c5.42,0,9.83-4.41,9.83-9.83v-49.52c0-5.42-4.41-9.83-9.83-9.83ZM121.31,170.17c0,3.61-2.94,6.55-6.55,6.55h-49.52c-3.61,0-6.55-2.94-6.55-6.55v-49.52c0-3.61,2.94-6.55,6.55-6.55h49.52c3.61,0,6.55,2.94,6.55,6.55v49.52Z"/>
  <path class="cls-1" d="M175.23,68.97c-.09-.11-8.12-10.15-21.09-20.9l10.53-11.99c.6-.68.53-1.71-.15-2.31-.68-.6-1.71-.53-2.31.15l-10.62,12.09c-.4-.32-.81-.64-1.22-.96-6.61-5.15-14.96-10.77-24.49-15.27l8.93-17.18c.42-.8.1-1.79-.7-2.21-.8-.42-1.79-.1-2.21.7l-9.01,17.33c-9.52-4.15-20.11-7.09-31.25-7.35V1.64c0-.9-.73-1.64-1.64-1.64s-1.64.73-1.64,1.64v19.42c-11.14.27-21.73,3.2-31.25,7.35l-9.01-17.33c-.42-.8-1.41-1.11-2.21-.7-.8.42-1.12,1.41-.7,2.21l8.93,17.18c-9.53,4.5-17.87,10.12-24.49,15.27-.41.32-.82.64-1.22.96l-10.62-12.09c-.6-.68-1.63-.75-2.31-.15-.68.6-.75,1.63-.15,2.31l10.53,12c-12.97,10.75-21.01,20.79-21.09,20.9-.47.6-.47,1.44,0,2.04.18.23,18.55,23.13,45.04,37.08.24.13.5.19.76.19.59,0,1.16-.32,1.45-.87.42-.8.11-1.79-.69-2.21-22.69-11.96-39.31-30.65-43.15-35.2,5.79-6.84,40.52-45.68,81.82-45.68s76.02,38.85,81.82,45.68c-3.84,4.55-20.44,23.23-43.15,35.2-.8.42-1.11,1.41-.69,2.21.42.8,1.41,1.1,2.21.69,26.49-13.95,44.86-36.85,45.04-37.08.47-.6.47-1.44,0-2.04Z"/>
  <path class="cls-1" d="M103.4,132.01c-.64-.64-1.68-.64-2.32,0l-11.09,11.09-11.09-11.09c-.64-.64-1.68-.64-2.32,0-.64.64-.64,1.68,0,2.32l11.09,11.09-11.09,11.09c-.64.64-.64,1.68,0,2.32.32.32.74.48,1.16.48s.84-.16,1.16-.48l11.09-11.09,11.09,11.09c.32.32.74.48,1.16.48s.84-.16,1.16-.48c.64-.64.64-1.68,0-2.32l-11.09-11.09,11.09-11.09c.64-.64.64-1.68,0-2.32Z"/>
  <path class="cls-1" d="M34.95,142c-1.88,0-3.41,1.53-3.41,3.41s1.53,3.4,3.41,3.4,3.41-1.53,3.41-3.4-1.53-3.41-3.41-3.41Z"/>
  <path class="cls-1" d="M15.26,142c-1.88,0-3.41,1.53-3.41,3.41s1.53,3.4,3.41,3.4,3.41-1.53,3.41-3.4-1.53-3.41-3.41-3.41Z"/>
  <path class="cls-1" d="M164.74,142c-1.88,0-3.41,1.53-3.41,3.41s1.53,3.4,3.41,3.4,3.41-1.53,3.41-3.4-1.53-3.41-3.41-3.41Z"/>
  <path class="cls-1" d="M145.05,142c-1.88,0-3.4,1.53-3.4,3.41s1.53,3.4,3.4,3.4,3.41-1.53,3.41-3.4-1.53-3.41-3.41-3.41Z"/>
</svg>