<?xml version="1.0" encoding="UTF-8"?>
<svg id="VPN_Privacy_Transactions" data-name="VPN, Privacy &amp;amp; Transactions" xmlns="http://www.w3.org/2000/svg" viewBox="0 0 180 180">
  <defs>
    <style>
      .cls-1 {
        stroke: #000;
        stroke-miterlimit: 10;
        stroke-width: 2px;
      }
    </style>
  </defs>
  <path class="cls-1" d="M47.54,32.73l39.31-13.85,39.31,13.85c.22.08.44.11.65.11.81,0,1.57-.51,1.86-1.31.36-1.03-.18-2.15-1.2-2.51l-39.96-14.08c-.42-.15-.88-.15-1.31,0l-39.96,14.08c-1.02.36-1.56,1.48-1.2,2.51.36,1.02,1.49,1.56,2.51,1.2Z"/>
  <path class="cls-1" d="M89.54,166.13h-40.63v-21.26c0-1.09-.88-1.97-1.97-1.97s-1.97.88-1.97,1.97v21.26H5.75v-32.99h73.11c1.09,0,1.97-.88,1.97-1.97s-.88-1.97-1.97-1.97h-7.83v-4.13l6.42-6.69c.35-.37.55-.85.55-1.36v-58.02c0-.51-.2-1-.55-1.36l-6.42-6.69v-4.13h31.65v4.13l-6.42,6.69c-.35.37-.55.85-.55,1.36v34.91c0,1.09.88,1.97,1.97,1.97s1.97-.88,1.97-1.97v-34.12l6.42-6.69c.35-.37.55-.85.55-1.36v-4.92h18.14v4.92c0,.51.2,1,.55,1.36l6.42,6.69v20.71c0,1.09.88,1.97,1.97,1.97s1.97-.88,1.97-1.97v-21.5c0-.51-.2-1-.55-1.36l-6.42-6.69v-4.13h31.65v4.13l-6.42,6.69c-.35.37-.55.85-.55,1.36v26c0,1.09.88,1.97,1.97,1.97s1.97-.88,1.97-1.97v-25.21l6.42-6.69c.35-.37.55-.85.55-1.36v-4.92h5.65c1.09,0,1.97-.88,1.97-1.97v-13.64c0-.83-.53-1.58-1.31-1.86L87.5.11c-.42-.15-.88-.15-1.31,0L3.13,29.37c-.79.28-1.31,1.02-1.31,1.86v13.64c0,1.09.88,1.97,1.97,1.97h5.65v4.92c0,.51.2,1,.55,1.36l6.42,6.69v56.44l-6.42,6.69c-.35.37-.55.85-.55,1.36v4.92H3.78c-1.09,0-1.97.88-1.97,1.97v36.93c0,1.09.88,1.97,1.97,1.97h85.75c1.09,0,1.97-.88,1.97-1.97s-.88-1.97-1.97-1.97ZM67.64,53.12l6.42,6.69v56.44l-6.42,6.69c-.35.37-.55.85-.55,1.36v4.92h-18.14v-4.92c0-.51-.2-1-.55-1.36l-6.42-6.69v-56.44l6.42-6.69c.35-.37.55-.85.55-1.36v-4.92h18.14v4.92c0,.51.2,1,.55,1.36ZM5.75,32.62L86.85,4.05l81.1,28.57v10.28H5.75v-10.28ZM13.37,125.08l6.42-6.69c.35-.37.55-.85.55-1.36v-58.02c0-.51-.2-1-.55-1.36l-6.42-6.69v-4.13h31.65v4.13l-6.42,6.69c-.35.37-.55.85-.55,1.36v58.02c0,.51.2,1,.55,1.36l6.42,6.69v4.13H13.37v-4.13Z"/>
  <path class="cls-1" d="M133.58,90.79c-24.6,0-44.61,20.01-44.61,44.61s20.01,44.61,44.61,44.61,44.61-20.01,44.61-44.61-20.01-44.61-44.61-44.61ZM133.58,176.07c-22.43,0-40.67-18.24-40.67-40.67s18.24-40.67,40.67-40.67,40.67,18.24,40.67,40.67-18.24,40.67-40.67,40.67Z"/>
  <path class="cls-1" d="M135.8,130.87c-5.59-3.02-9.02-5.11-9.04-9.85,0-1.64.78-3.41,2.11-4.74,1.33-1.33,3-2.07,4.71-2.07,3.76,0,6.82,3.06,6.82,6.82,0,1.09.88,1.97,1.97,1.97s1.97-.88,1.97-1.97c0-5.26-3.79-9.64-8.78-10.56v-5.35c0-1.09-.88-1.97-1.97-1.97s-1.97.88-1.97,1.97v5.36c-2.04.41-3.96,1.45-5.54,3.03-2.08,2.09-3.26,4.83-3.25,7.54.03,7.32,5.92,10.5,11.11,13.3,5.17,2.79,10.05,5.43,10.28,11.7.1,2.68-.9,5.25-2.82,7.24-2.03,2.11-4.88,3.32-7.81,3.32-5.86,0-10.63-4.77-10.63-10.63,0-1.09-.88-1.97-1.97-1.97s-1.97.88-1.97,1.97c0,7.37,5.5,13.46,12.6,14.42v5.31c0,1.09.88,1.97,1.97,1.97s1.97-.88,1.97-1.97v-5.31c3.28-.45,6.37-1.97,8.68-4.37,2.67-2.77,4.06-6.36,3.92-10.12-.32-8.52-6.71-11.97-12.34-15.02Z"/>
</svg>