<?xml version="1.0" encoding="UTF-8"?>
<svg id="VPN_Privacy_Transactions" data-name="VPN, Privacy &amp;amp; Transactions" xmlns="http://www.w3.org/2000/svg" viewBox="0 0 180 180">
  <defs>
    <style>
      .cls-1 {
        stroke: #000;
        stroke-miterlimit: 10;
        stroke-width: 2px;
      }
    </style>
  </defs>
  <path class="cls-1" d="M88.44,123.86c1.09,0,1.98-.89,1.98-1.98s-.89-1.98-1.98-1.98h-3.4s0-34.87,0-34.87h37.45c-.03,2.53-.11,5.07-.26,7.57-.07,1.09.77,2.03,1.86,2.1,1.09.06,2.03-.77,2.1-1.86.16-2.58.23-5.2.26-7.81h35.67c-.08,3.05-.31,6.1-.73,9.09-.15,1.08.6,2.08,1.69,2.24,1.09.15,2.08-.6,2.24-1.69.54-3.83.81-7.74.81-11.62,0-22.18-8.64-43.04-24.33-58.72C126.09,8.64,105.23,0,83.05,0h0c-22.18,0-43.04,8.64-58.72,24.33C8.64,40.02,0,60.87,0,83.06c0,22.18,8.64,43.04,24.33,58.72,15.69,15.68,36.54,24.32,58.72,24.32h0c1.83,0,3.69-.06,5.51-.18,1.09-.07,1.92-1.01,1.85-2.11-.07-1.09-1.03-1.91-2.11-1.85-1.08.07-2.18.11-3.27.14v-38.25s3.4,0,3.4,0ZM81.07,119.9h-32.9c-2.84-10.66-4.4-22.52-4.56-34.86h37.45s0,34.86,0,34.86ZM4.01,85.04h35.65c.15,12.29,1.67,24.13,4.43,34.86H13.04c-5.63-10.65-8.73-22.52-9.03-34.86ZM13.03,46.21h31.05c-2.76,10.73-4.28,22.57-4.43,34.87H4.01c.3-12.34,3.4-24.21,9.02-34.87ZM85.03,4.06c9.56.96,18.57,8.89,25.56,22.56,2.43,4.75,4.51,9.99,6.22,15.62h-31.78s0-38.18,0-38.18ZM81.07,42.24h-31.78c1.71-5.62,3.79-10.87,6.22-15.61,6.99-13.68,16-21.6,25.56-22.57v38.18ZM81.07,46.2v34.87s-37.45,0-37.45,0c.15-12.34,1.72-24.21,4.55-34.87h32.9ZM85.03,46.2h32.9c2.84,10.66,4.4,22.52,4.56,34.86h-37.45s0-34.86,0-34.86ZM162.09,81.07h-35.65c-.15-12.29-1.67-24.13-4.43-34.86h31.05c5.63,10.65,8.73,22.52,9.03,34.86ZM138.97,27.12c4.61,4.61,8.57,9.68,11.85,15.12h-29.9c-1.84-6.28-4.12-12.15-6.81-17.42-4.39-8.59-9.6-15.1-15.32-19.3,15.12,3.04,29.02,10.45,40.18,21.6ZM27.12,27.13c11.15-11.16,25.05-18.56,40.18-21.6-5.72,4.2-10.93,10.71-15.31,19.3-2.69,5.27-4.97,11.13-6.81,17.42H15.27c3.28-5.43,7.25-10.51,11.85-15.11ZM27.13,138.98c-4.61-4.61-8.57-9.68-11.86-15.12h29.9c1.84,6.28,4.12,12.15,6.81,17.42,4.39,8.59,9.6,15.1,15.32,19.3-15.12-3.04-29.02-10.45-40.18-21.6ZM81.08,162.04c-9.56-.96-18.57-8.89-25.56-22.56-2.43-4.75-4.51-9.99-6.22-15.61h31.78s0,38.18,0,38.18Z"/>
  <path class="cls-1" d="M139.71,102.57c-22.59,0-40.29,7.85-40.29,17.87v41.7c0,10.02,17.7,17.87,40.29,17.87s40.29-7.85,40.29-17.87v-41.7c0-10.02-17.7-17.87-40.29-17.87ZM139.71,155.25c-21.41,0-36.32-7.33-36.32-13.91v-12.93c6.45,5.98,20.13,10.01,36.32,10.01s29.88-4.04,36.33-10.01v12.93c0,6.58-14.92,13.91-36.33,13.91ZM139.71,106.66c21.41,0,36.33,7.33,36.33,13.91s-14.92,13.91-36.33,13.91-36.32-7.33-36.32-13.91,14.92-13.91,36.32-13.91ZM139.71,176.04c-21.41,0-36.33-7.33-36.33-13.91v-12.93c6.45,5.98,20.13,10.01,36.32,10.01s29.88-4.04,36.33-10.01v12.93c0,6.58-14.92,13.91-36.33,13.91Z"/>
</svg>