<?xml version="1.0" encoding="UTF-8"?>
<svg id="VPN_Privacy_Transactions" data-name="VPN, Privacy &amp;amp; Transactions" xmlns="http://www.w3.org/2000/svg" viewBox="0 0 180 180">
  <defs>
    <style>
      .cls-1 {
        stroke: #000;
        stroke-miterlimit: 10;
        stroke-width: 2px;
      }
    </style>
  </defs>
  <path class="cls-1" d="M89.5,167.66c-14.93,0-28.02-16.05-35.19-39.97h16.01c1.02,0,1.86-.83,1.86-1.86s-.83-1.86-1.86-1.86h-17.05c-2.9-10.92-4.6-23.3-4.75-36.44h21.8c1.02,0,1.86-.83,1.86-1.86s-.83-1.86-1.86-1.86h-21.8c.15-13.13,1.85-25.52,4.75-36.44h34.38v10.87c0,1.02.83,1.86,1.86,1.86s1.86-.83,1.86-1.86v-10.87h34.35c.95,3.57,1.78,7.3,2.47,11.19.18,1.01,1.13,1.69,2.15,1.5,1.01-.18,1.68-1.14,1.5-2.15-.65-3.65-1.42-7.16-2.29-10.55h32.46c1.93,3.65,3.61,7.48,4.99,11.48.34.97,1.39,1.48,2.36,1.15.97-.34,1.48-1.39,1.15-2.36C158.57,23.17,126.02,0,89.5,0,42.26,0,3.82,38.44,3.82,85.69s38.44,85.69,85.69,85.69c1.02,0,1.86-.83,1.86-1.86s-.83-1.86-1.86-1.86ZM49.46,123.98H17.04c-5.8-10.92-9.2-23.3-9.49-36.44h37.27c.14,12.85,1.74,25.24,4.64,36.44ZM44.82,83.83H7.55c.29-13.13,3.69-25.52,9.49-36.44h32.42c-2.9,11.2-4.5,23.58-4.64,36.44ZM54.31,43.68C61.18,20.76,73.49,5.07,87.65,3.8v39.88h-33.33ZM91.36,43.68V3.8c13.82,1.26,26.3,16.5,33.31,39.88h-33.31ZM159.91,43.68h-31.4c-5.25-17.96-13.69-31.56-23.67-38.51,23.01,4.38,43.09,18.45,55.07,38.51ZM74.02,5.19c-6.15,4.3-11.76,11.18-16.46,20.38-2.8,5.48-5.16,11.57-7.07,18.12h-31.35C30.93,24,50.74,9.66,74.02,5.19ZM19.14,127.69h31.35c1.91,6.54,4.27,12.64,7.07,18.12,4.7,9.2,10.31,16.08,16.46,20.38-23.28-4.47-43.09-18.82-54.88-38.5Z"/>
  <path class="cls-1" d="M175.61,86.25c-.37-.35-.85-.54-1.36-.51,0,0-.52.03-.62.03-7.78,0-14.12-6.33-14.12-14.12,0-.1.03-.62.03-.62.02-.51-.16-1-.51-1.36-.35-.37-.83-.57-1.34-.57h-58.04c-.51,0-.99.21-1.34.57-.35.37-.54.86-.51,1.37,0,0,.03.5.03.61,0,7.78-6.33,14.12-14.12,14.12-.11,0-.62-.03-.62-.03-.5-.02-1,.16-1.36.51-.37.35-.57.83-.57,1.34v56.89c0,10.71,7.41,14.45,14.57,18.06,1.18.6,32.06,17.24,32.06,17.24.28.15.58.22.88.22s.61-.07.88-.22c0,0,30.89-16.65,32.07-17.24,7.16-3.62,14.57-7.35,14.57-18.06v-56.89c0-.51-.21-.99-.57-1.34ZM172.47,144.47c0,8.42-5.53,11.22-12.53,14.75-1.21.61-31.28,16.81-31.28,16.81,0,0-30.06-16.2-31.27-16.81-7-3.53-12.53-6.32-12.53-14.75v-55.04c8.91-.57,16.06-7.72,16.63-16.63h54.34c.57,8.91,7.72,16.06,16.63,16.63v55.04Z"/>
  <path class="cls-1" d="M115.52,109.46c-.95-.39-2.03.06-2.42,1.01l-6.37,15.45-6.37-15.45c-.39-.95-1.48-1.4-2.42-1.01-.95.39-1.4,1.48-1.01,2.42l8.09,19.6c.29.69.96,1.15,1.72,1.15s1.43-.45,1.72-1.15l8.09-19.6c.39-.95-.06-2.03-1.01-2.42Z"/>
  <path class="cls-1" d="M130.3,109.32h-5.92c-1.02,0-1.86.83-1.86,1.86v19.6c0,1.02.83,1.86,1.86,1.86s1.86-.83,1.86-1.86v-4.92h4.06c4.28,0,7.77-3.71,7.77-8.27s-3.49-8.27-7.77-8.27ZM130.3,122.15h-4.06v-9.12h4.06c2.24,0,4.06,2.05,4.06,4.56s-1.82,4.56-4.06,4.56Z"/>
  <path class="cls-1" d="M158.7,109.32c-1.02,0-1.86.83-1.86,1.86v13.46l-9.64-14.49c-.45-.68-1.3-.99-2.08-.75-.78.24-1.32.96-1.32,1.78v19.6c0,1.02.83,1.86,1.86,1.86s1.86-.83,1.86-1.86v-13.46l9.64,14.49c.35.53.94.83,1.54.83.18,0,.36-.03.54-.08.78-.24,1.32-.96,1.32-1.78v-19.6c0-1.02-.83-1.86-1.86-1.86Z"/>
</svg>