<?xml version="1.0" encoding="UTF-8"?>
<svg id="VPN_Privacy_Transactions" data-name="VPN, Privacy &amp;amp; Transactions" xmlns="http://www.w3.org/2000/svg" viewBox="0 0 180 180">
  <defs>
    <style>
      .cls-1 {
        stroke: #000;
        stroke-miterlimit: 10;
        stroke-width: 2px;
      }
    </style>
  </defs>
  <path class="cls-1" d="M173.4,137.88c-4.26-4.26-9.92-6.61-15.94-6.61l-48.03-.02c.03-.4.06-.8.06-1.2,0-8.35-6.78-15.14-15.13-15.14l-57.1-.03h-.01c-13.73,0-21.31,9.71-27.89,19.66-2.43,3.68-5.44,8.35-8.94,13.88l-.1.16c-.59.94-.31,2.18.62,2.77.33.21.7.31,1.07.31.66,0,1.31-.33,1.7-.93l.1-.16c3.49-5.51,6.48-10.16,8.9-13.81,6.23-9.41,12.79-17.86,24.55-17.86h.01l57.1.03c6.13,0,11.12,5,11.12,11.13,0,2.97-1.16,5.77-3.26,7.87-2.1,2.1-4.89,3.25-7.86,3.25h-37.05s0-.01,0-.01c-1.11,0-2.01.9-2.01,2s.9,2.01,2,2.01h37.04s0,.01,0,.01c4.04,0,7.84-1.57,10.7-4.43,1.58-1.58,2.75-3.45,3.5-5.49l48.91.02c4.95,0,9.61,1.93,13.11,5.44,3.08,3.08,4.94,7.06,5.34,11.35l-120.31,14.97c-.48.04-11.77,1.07-16.86,8.98-.6.93-.33,2.17.6,2.77.34.22.71.32,1.08.32.66,0,1.3-.32,1.69-.92,4.02-6.24,13.73-7.15,13.91-7.17l122.23-15.21c1-.12,1.76-.98,1.76-1.99,0-6.02-2.34-11.69-6.6-15.95Z"/>
  <path class="cls-1" d="M90,18.71c-12.12,0-21.97,11.9-21.97,26.52s9.86,26.52,21.97,26.52,21.97-11.9,21.97-26.52-9.86-26.52-21.97-26.52ZM90,67.74c-9.9,0-17.96-10.1-17.96-22.51s8.06-22.51,17.96-22.51,17.96,10.1,17.96,22.51-8.06,22.51-17.96,22.51Z"/>
  <path class="cls-1" d="M156.85,29.26c-4.71,0-8.54-3.83-8.54-8.54,0-1.11-.9-2.01-2.01-2.01h-25.52c-1.11,0-2.01.9-2.01,2.01s.9,2.01,2.01,2.01h23.67c.86,5.32,5.07,9.53,10.39,10.39v24.24c-5.32.86-9.53,5.07-10.39,10.39h-23.67c-1.11,0-2.01.9-2.01,2.01s.9,2.01,2.01,2.01h25.52c1.11,0,2.01-.9,2.01-2.01,0-4.71,3.83-8.54,8.54-8.54,1.11,0,2.01-.9,2.01-2.01v-27.93c0-1.11-.9-2.01-2.01-2.01Z"/>
  <path class="cls-1" d="M35.54,22.72h23.67c1.11,0,2.01-.9,2.01-2.01s-.9-2.01-2.01-2.01h-25.52c-1.11,0-2.01.9-2.01,2.01,0,4.71-3.83,8.54-8.54,8.54-1.11,0-2.01.9-2.01,2.01v27.93c0,1.11.9,2.01,2.01,2.01,4.71,0,8.54,3.83,8.54,8.54,0,1.11.9,2.01,2.01,2.01h25.52c1.11,0,2.01-.9,2.01-2.01s-.9-2.01-2.01-2.01h-23.67c-.86-5.32-5.07-9.53-10.39-10.39v-24.24c5.32-.86,9.53-5.07,10.39-10.39Z"/>
  <path class="cls-1" d="M5.32,89.57h169.36c1.11,0,2.01-.9,2.01-2.01V2.89c0-1.11-.9-2.01-2.01-2.01H5.32c-1.11,0-2.01.9-2.01,2.01v84.68c0,1.11.9,2.01,2.01,2.01ZM7.32,4.89h165.35v80.67H7.32V4.89Z"/>
</svg>