<?xml version="1.0" encoding="UTF-8"?>
<svg id="VPN_Privacy_Transactions" data-name="VPN, Privacy &amp;amp; Transactions" xmlns="http://www.w3.org/2000/svg" viewBox="0 0 180 180">
  <defs>
    <style>
      .cls-1 {
        stroke: #000;
        stroke-miterlimit: 10;
        stroke-width: 2px;
      }
    </style>
  </defs>
  <path class="cls-1" d="M158.22.09c-.19-.06-.39-.09-.6-.09H22.39C10.04,0,0,10.04,0,22.39s9.72,22.06,21.79,22.38c.19.06.39.09.6.09h18.54c1.09,0,1.98-.89,1.98-1.98s-.89-1.98-1.98-1.98h-17.97c-.18-.05-.37-.08-.57-.08-10.16,0-18.42-8.27-18.42-18.42S12.23,3.96,22.39,3.96h134.65c.18.05.38.09.58.09,10.16,0,18.42,8.27,18.42,18.42s-8.27,18.42-18.42,18.42h-18.54c-1.09,0-1.98.89-1.98,1.98s.89,1.98,1.98,1.98h18.54c12.34,0,22.39-10.04,22.39-22.39S170.28.41,158.22.09Z"/>
  <path class="cls-1" d="M90.28,73.51c-1.09,0-1.98.89-1.98,1.98s.89,1.98,1.98,1.98c10,0,18.14,6.46,18.14,14.41,0,1.09.89,1.98,1.98,1.98s1.98-.89,1.98-1.98c0-10.13-9.91-18.37-22.1-18.37Z"/>
  <path class="cls-1" d="M112.38,45.67c0-1.09-.89-1.98-1.98-1.98-3.68,0-6.68-3-6.68-6.68,0-1.09-.89-1.98-1.98-1.98h-22.92c-1.09,0-1.98.89-1.98,1.98,0,3.68-3,6.68-6.68,6.68-1.09,0-1.98.89-1.98,1.98v20.94c0,1.09.89,1.98,1.98,1.98s1.98-.89,1.98-1.98v-19.15c4.28-.81,7.66-4.19,8.47-8.47h19.33c.81,4.28,4.19,7.66,8.47,8.47v19.15c0,1.09.89,1.98,1.98,1.98s1.98-.89,1.98-1.98v-20.94Z"/>
  <path class="cls-1" d="M110.4,115.17c-1.09,0-1.98.89-1.98,1.98v19.15c-4.92.93-8.66,5.26-8.66,10.45,0,1.09.89,1.98,1.98,1.98s1.98-.89,1.98-1.98c0-3.68,3-6.68,6.68-6.68,1.09,0,1.98-.89,1.98-1.98v-20.94c0-1.09-.89-1.98-1.98-1.98Z"/>
  <path class="cls-1" d="M125.03,20.39H55.53c-1.09,0-1.98.89-1.98,1.98v51.39c-7.49,3.81-14.53,7.42-20.93,10.74-13.61,7.06-14.73,15.93-14.73,25.17v68.34c0,1.09.89,1.98,1.98,1.98s1.98-.89,1.98-1.98v-68.34c0-8.85.9-15.59,12.6-21.65,5.88-3.05,12.29-6.35,19.11-9.82v3.83c0,1.09.89,1.98,1.98,1.98s1.98-.89,1.98-1.98V24.35h65.54v135.05h-34.8c-1.09,0-1.98.89-1.98,1.98s.89,1.98,1.98,1.98h36.78c1.09,0,1.98-.89,1.98-1.98V22.37c0-1.09-.89-1.98-1.98-1.98Z"/>
  <path class="cls-1" d="M87.61,101.27c0-7.72-6.28-14-14-14s-14,6.28-14,14v23.81c-3.57-1.22-9.9-4.28-9.81-10.61.02-1.09-.86-1.99-1.95-2.01h-.03c-1.08,0-1.96.87-1.98,1.95-.18,12.03,14.73,15.11,15.36,15.23.58.11,1.18-.04,1.64-.41.46-.38.72-.94.72-1.53v-26.43c0-5.53,4.5-10.04,10.04-10.04s10.04,4.5,10.04,10.04v35.34c0,.13-.6,12.72-11.26,21.1-11.86,9.32-15.74,19.19-15.9,19.61-.39,1.02.12,2.16,1.14,2.55.23.09.47.13.71.13.79,0,1.54-.48,1.85-1.27.04-.09,3.7-9.31,14.65-17.91,12.15-9.55,12.75-23.49,12.77-24.14v-35.41Z"/>
</svg>