<?xml version="1.0" encoding="UTF-8"?>
<svg id="VPN_Privacy_Transactions" data-name="VPN, Privacy &amp;amp; Transactions" xmlns="http://www.w3.org/2000/svg" viewBox="0 0 180 180">
  <defs>
    <style>
      .cls-1 {
        stroke: #000;
        stroke-miterlimit: 10;
        stroke-width: 2px;
      }
    </style>
  </defs>
  <path class="cls-1" d="M73.22,100.78H7.94c-4.38,0-7.94,3.56-7.94,7.94v41.16c0,4.38,3.56,7.94,7.94,7.94h23.09v8.3l-10.65,4.87c-.63.29-1.03.91-1.03,1.6v5.06c0,.97.79,1.76,1.76,1.76h38.93c.97,0,1.76-.79,1.76-1.76v-5.06c0-.69-.4-1.32-1.03-1.6l-10.65-4.87v-8.3h23.09c4.38,0,7.94-3.56,7.94-7.94v-41.16c0-4.38-3.56-7.94-7.94-7.94ZM47.63,168.87l10.65,4.87v2.16H22.88v-2.16l10.65-4.87c.63-.29,1.03-.91,1.03-1.6v-9.44h12.04v9.44c0,.69.4,1.32,1.03,1.6ZM77.63,149.89c0,2.43-1.98,4.41-4.41,4.41H7.94c-2.43,0-4.41-1.98-4.41-4.41v-41.16c0-2.43,1.98-4.41,4.41-4.41h65.28c2.43,0,4.41,1.98,4.41,4.41v41.16Z"/>
  <path class="cls-1" d="M139.92,99.85c-22.1,0-40.07,17.98-40.07,40.08s17.98,40.08,40.07,40.08,40.08-17.98,40.08-40.08-17.98-40.08-40.08-40.08ZM176.43,138.16h-13.48c-.34-14.15-4.7-26.18-11.21-32.81,13.84,4.74,23.96,17.56,24.69,32.81ZM138.16,103.54v34.62h-17.73c.47-18.23,8.1-33,17.73-34.62ZM138.16,141.69v34.62c-9.63-1.62-17.26-16.39-17.73-34.62h17.73ZM141.69,176.31v-34.62h17.73c-.47,18.23-8.1,33-17.73,34.62ZM141.69,138.16v-34.62c9.63,1.62,17.26,16.39,17.73,34.62h-17.73ZM128.11,105.35c-6.51,6.63-10.87,18.66-11.21,32.81h-13.48c.73-15.25,10.85-28.07,24.69-32.81ZM103.42,141.69h13.48c.34,14.15,4.7,26.18,11.21,32.81-13.84-4.74-23.96-17.56-24.69-32.81ZM151.74,174.5c6.51-6.63,10.87-18.66,11.21-32.81h13.48c-.73,15.25-10.85,28.07-24.69,32.81Z"/>
  <path class="cls-1" d="M63.1,55.06h53.81c8.29,0,14.78-12.09,14.78-27.53S125.19,0,116.9,0h-53.81C54.81,0,48.32,12.09,48.32,27.53s6.49,27.53,14.78,27.53ZM128.15,27.53c0,13.01-5.15,24-11.25,24h-46.47c4.48-4.68,7.44-13.57,7.44-24s-2.96-19.32-7.44-24h46.47c6.1,0,11.25,10.99,11.25,24ZM63.1,3.53c6.1,0,11.25,10.99,11.25,24s-5.15,24-11.25,24-11.25-10.99-11.25-24S57,3.53,63.1,3.53Z"/>
  <path class="cls-1" d="M11.09,83.47c2.19,0,3.97-1.78,3.97-3.97s-1.78-3.97-3.97-3.97-3.97,1.78-3.97,3.97,1.78,3.97,3.97,3.97Z"/>
  <path class="cls-1" d="M11.09,58.32c2.19,0,3.97-1.78,3.97-3.97s-1.78-3.97-3.97-3.97-3.97,1.78-3.97,3.97,1.78,3.97,3.97,3.97Z"/>
  <path class="cls-1" d="M11.09,33.17c2.19,0,3.97-1.78,3.97-3.97s-1.78-3.97-3.97-3.97-3.97,1.78-3.97,3.97,1.78,3.97,3.97,3.97Z"/>
  <path class="cls-1" d="M34.62,33.17c2.19,0,3.97-1.78,3.97-3.97s-1.78-3.97-3.97-3.97-3.97,1.78-3.97,3.97,1.78,3.97,3.97,3.97Z"/>
  <path class="cls-1" d="M170.95,83.47c2.19,0,3.97-1.78,3.97-3.97s-1.78-3.97-3.97-3.97-3.97,1.78-3.97,3.97,1.78,3.97,3.97,3.97Z"/>
  <path class="cls-1" d="M170.95,58.32c2.19,0,3.97-1.78,3.97-3.97s-1.78-3.97-3.97-3.97-3.97,1.78-3.97,3.97,1.78,3.97,3.97,3.97Z"/>
  <path class="cls-1" d="M170.95,33.17c2.19,0,3.97-1.78,3.97-3.97s-1.78-3.97-3.97-3.97-3.97,1.78-3.97,3.97,1.78,3.97,3.97,3.97Z"/>
  <path class="cls-1" d="M147.42,33.17c2.19,0,3.97-1.78,3.97-3.97s-1.78-3.97-3.97-3.97-3.97,1.78-3.97,3.97,1.78,3.97,3.97,3.97Z"/>
</svg>