<?xml version="1.0" encoding="UTF-8"?>
<svg id="VPN_Privacy_Transactions" data-name="VPN, Privacy &amp;amp; Transactions" xmlns="http://www.w3.org/2000/svg" viewBox="0 0 180 180">
  <defs>
    <style>
      .cls-1 {
        stroke: #000;
        stroke-miterlimit: 10;
        stroke-width: 2px;
      }
    </style>
  </defs>
  <path class="cls-1" d="M99.97,126.24h44.47c.53,0,1.03-.21,1.4-.58l33.33-33.33c.77-.77.77-2.03,0-2.8-.77-.77-2.03-.77-2.8,0l-30.5,30.5c-1.73-6.64-7.41-11.7-14.37-12.47-.87-7.77-7.05-13.96-14.82-14.82-.78-6.97-5.84-12.65-12.47-14.37L179.18,3.38c.77-.77.77-2.03,0-2.8-.77-.77-2.03-.77-2.8,0l-77.81,77.81c-.37.37-.58.87-.58,1.4v44.47c0,1.09.89,1.98,1.98,1.98ZM101.95,108.24l14.04,14.04h-14.04v-14.04ZM112.82,94.61c0,1.09.89,1.98,1.98,1.98,7.08,0,12.84,5.76,12.84,12.84,0,1.09.89,1.98,1.98,1.98,6.41,0,11.72,4.72,12.67,10.87h-20.71l-19.64-19.64v-20.71c6.14.95,10.87,6.27,10.87,12.67Z"/>
  <path class="cls-1" d="M179.3,30.1c-.77-.77-2.03-.77-2.8,0l-48.36,48.37c-.77.77-.77,2.03,0,2.8.39.39.89.58,1.4.58s1.01-.19,1.4-.58l48.36-48.37c.77-.77.77-2.03,0-2.8Z"/>
  <path class="cls-1" d="M176.11,60.14l-33.15,33.16c-.77.77-.77,2.03,0,2.8.39.39.89.58,1.4.58s1.01-.19,1.4-.58l33.15-33.16c.77-.77.77-2.03,0-2.8-.77-.77-2.03-.77-2.8,0Z"/>
  <path class="cls-1" d="M178.02,107.61c-1.09,0-1.98.89-1.98,1.98v60.09c0,3.51-2.85,6.36-6.36,6.36H10.32c-3.51,0-6.36-2.85-6.36-6.36v-84.89c0-3.51,2.85-6.36,6.36-6.36h76.74c1.09,0,1.98-.89,1.98-1.98s-.89-1.98-1.98-1.98H10.32C4.63,74.47,0,79.1,0,84.79v84.89C0,175.37,4.63,180,10.32,180h159.36c5.69,0,10.32-4.63,10.32-10.32v-60.09c0-1.09-.89-1.98-1.98-1.98Z"/>
  <path class="cls-1" d="M83.75,154.37c0,1.09.89,1.98,1.98,1.98,6.16,0,11.54-3.44,14.3-8.5,2.76,5.06,8.14,8.5,14.3,8.5h11.45c1.09,0,1.98-.89,1.98-1.98s-.89-1.98-1.98-1.98h-11.45c-6.79,0-12.32-5.53-12.32-12.32,0-1.09-.89-1.98-1.98-1.98s-1.98.89-1.98,1.98c0,6.79-5.53,12.32-12.32,12.32-1.09,0-1.98.89-1.98,1.98Z"/>
  <path class="cls-1" d="M141.52,152.39c-1.09,0-1.98.89-1.98,1.98s.89,1.98,1.98,1.98h8.9c1.09,0,1.98-.89,1.98-1.98s-.89-1.98-1.98-1.98h-8.9Z"/>
  <path class="cls-1" d="M26.61,102.8h14.51c1.09,0,1.98-.89,1.98-1.98s-.89-1.98-1.98-1.98h-14.51c-1.09,0-1.98.89-1.98,1.98s.89,1.98,1.98,1.98Z"/>
  <path class="cls-1" d="M26.61,117.62h14.51c1.09,0,1.98-.89,1.98-1.98s-.89-1.98-1.98-1.98h-14.51c-1.09,0-1.98.89-1.98,1.98s.89,1.98,1.98,1.98Z"/>
  <path class="cls-1" d="M69.99,130.47c0-1.09-.89-1.98-1.98-1.98H26.61c-1.09,0-1.98.89-1.98,1.98s.89,1.98,1.98,1.98h41.4c1.09,0,1.98-.89,1.98-1.98Z"/>
  <path class="cls-1" d="M26.61,152.39c-1.09,0-1.98.89-1.98,1.98s.89,1.98,1.98,1.98h14.51c1.09,0,1.98-.89,1.98-1.98s-.89-1.98-1.98-1.98h-14.51Z"/>
</svg>