<?xml version="1.0" encoding="UTF-8"?>
<svg id="VPN_Privacy_Transactions" data-name="VPN, Privacy &amp;amp; Transactions" xmlns="http://www.w3.org/2000/svg" viewBox="0 0 180 180">
  <defs>
    <style>
      .cls-1 {
        stroke: #000;
        stroke-miterlimit: 10;
        stroke-width: 2px;
      }
    </style>
  </defs>
  <path class="cls-1" d="M164.61,0H41.88c-8.48,0-15.39,6.9-15.39,15.39v124.79c0,6.13-4.98,11.11-11.11,11.11s-11.11-4.98-11.11-11.11V4.27h17.04c1.18,0,2.14-.96,2.14-2.14s-.96-2.14-2.14-2.14H2.14C.96,0,0,.96,0,2.14v138.04C0,148.66,6.9,155.57,15.39,155.57h26.28c1.18,0,2.14-.96,2.14-2.14s-.96-2.14-2.14-2.14h-15.67c2.93-2.8,4.77-6.74,4.77-11.11V15.39c0-6.13,4.99-11.11,11.11-11.11s11.11,4.98,11.11,11.11v162.48c0,1.18.96,2.14,2.14,2.14h122.73c1.18,0,2.14-.96,2.14-2.14V15.39c0-8.48-6.9-15.39-15.39-15.39ZM175.73,175.73H57.27V15.39c0-4.36-1.83-8.31-4.75-11.11h112.1c6.13,0,11.11,4.98,11.11,11.11v160.34Z"/>
  <path class="cls-1" d="M114.36,89.14v5.68c0,1.18.96,2.14,2.14,2.14s2.14-.96,2.14-2.14v-5.68c3.52-.48,6.83-2.12,9.3-4.7,2.87-2.97,4.36-6.84,4.21-10.88-.34-9.16-7.2-12.87-13.26-16.14-5.99-3.24-9.67-5.48-9.69-10.55,0-1.75.83-3.65,2.25-5.07,1.42-1.43,3.21-2.21,5.04-2.21,4.02,0,7.29,3.27,7.29,7.29,0,1.18.96,2.14,2.14,2.14s2.14-.96,2.14-2.14c0-5.64-4.07-10.35-9.42-11.36v-5.72c0-1.18-.96-2.14-2.14-2.14s-2.14.96-2.14,2.14v5.73c-2.19.44-4.25,1.56-5.93,3.25-2.24,2.25-3.51,5.2-3.5,8.11.03,7.87,6.36,11.28,11.93,14.3,5.54,2.99,10.77,5.82,11.02,12.53.11,2.87-.97,5.62-3.02,7.75-2.18,2.26-5.23,3.55-8.37,3.55-6.28,0-11.39-5.11-11.39-11.39,0-1.18-.96-2.14-2.14-2.14s-2.14.96-2.14,2.14c0,7.91,5.9,14.45,13.53,15.5Z"/>
  <path class="cls-1" d="M74.48,123.47h15.68c1.18,0,2.14-.96,2.14-2.14s-.96-2.14-2.14-2.14h-15.68c-1.18,0-2.14.96-2.14,2.14s.96,2.14,2.14,2.14Z"/>
  <path class="cls-1" d="M158.51,119.2h-51.85c-1.18,0-2.14.96-2.14,2.14s.96,2.14,2.14,2.14h51.85c1.18,0,2.14-.96,2.14-2.14s-.96-2.14-2.14-2.14Z"/>
  <path class="cls-1" d="M158.51,137.69h-15.68c-1.18,0-2.14.96-2.14,2.14s.96,2.14,2.14,2.14h15.68c1.18,0,2.14-.96,2.14-2.14s-.96-2.14-2.14-2.14Z"/>
  <path class="cls-1" d="M126.33,137.69h-51.85c-1.18,0-2.14.96-2.14,2.14s.96,2.14,2.14,2.14h51.85c1.18,0,2.14-.96,2.14-2.14s-.96-2.14-2.14-2.14Z"/>
</svg>