<?xml version="1.0" encoding="UTF-8"?>
<svg id="VPN_Privacy_Transactions" data-name="VPN, Privacy &amp;amp; Transactions" xmlns="http://www.w3.org/2000/svg" viewBox="0 0 180 180">
  <defs>
    <style>
      .cls-1 {
        stroke: #000;
        stroke-miterlimit: 10;
        stroke-width: 2px;
      }
    </style>
  </defs>
  <path class="cls-1" d="M26.57,71.53c.3.23.66.34,1.02.34s.72-.11,1.02-.34c1.09-.82,26.57-20.41,26.57-43.94C55.17,12.37,42.79,0,27.58,0S0,12.37,0,27.58c0,23.53,25.48,43.12,26.57,43.94ZM27.58,3.36c13.35,0,24.22,10.86,24.22,24.22,0,19.31-19.5,36.56-24.22,40.44-4.72-3.89-24.22-21.14-24.22-40.44C3.36,14.23,14.23,3.36,27.58,3.36Z"/>
  <path class="cls-1" d="M40.88,27.58c0-7.33-5.97-13.3-13.3-13.3s-13.3,5.97-13.3,13.3,5.97,13.3,13.3,13.3,13.3-5.97,13.3-13.3ZM17.65,27.58c0-5.48,4.46-9.94,9.94-9.94s9.94,4.46,9.94,9.94-4.46,9.94-9.94,9.94-9.94-4.46-9.94-9.94Z"/>
  <path class="cls-1" d="M152.42,108.13c-15.21,0-27.58,12.37-27.58,27.58,0,23.53,25.48,43.12,26.57,43.94.3.23.66.34,1.02.34s.72-.11,1.02-.34c1.08-.82,26.57-20.41,26.57-43.94,0-15.21-12.37-27.58-27.58-27.58ZM152.42,176.16c-4.72-3.89-24.22-21.14-24.22-40.44,0-13.36,10.86-24.22,24.22-24.22s24.22,10.86,24.22,24.22c0,19.31-19.5,36.56-24.22,40.44Z"/>
  <path class="cls-1" d="M152.42,122.42c-7.33,0-13.3,5.97-13.3,13.3s5.97,13.3,13.3,13.3,13.3-5.97,13.3-13.3-5.97-13.3-13.3-13.3ZM152.42,145.65c-5.48,0-9.94-4.46-9.94-9.94s4.46-9.94,9.94-9.94,9.94,4.46,9.94,9.94-4.46,9.94-9.94,9.94Z"/>
  <path class="cls-1" d="M100.18,69.79h-11.74c-.93,0-1.68.75-1.68,1.68v38.92c0,.93.75,1.68,1.68,1.68s1.68-.75,1.68-1.68v-11.77h10.06c7.4,0,13.43-6.47,13.43-14.42s-6.02-14.42-13.43-14.42ZM100.18,95.26h-10.06v-22.11h10.06c5.55,0,10.06,4.96,10.06,11.06s-4.51,11.05-10.06,11.05Z"/>
  <path class="cls-1" d="M72.29,112.07c.93,0,1.68-.75,1.68-1.68v-38.92c0-.93-.75-1.68-1.68-1.68s-1.68.75-1.68,1.68v38.92c0,.93.75,1.68,1.68,1.68Z"/>
  <path class="cls-1" d="M144.8,76.95v-26.12c0-8.62-7.01-15.63-15.63-15.63h-55.49c-.93,0-1.68.75-1.68,1.68s.75,1.68,1.68,1.68h55.49c6.76,0,12.26,5.5,12.26,12.26v24.44h-11.42c-.69,0-1.32.43-1.57,1.07-.25.65-.08,1.38.43,1.85l22.4,20.55c.32.29.73.44,1.14.44s.82-.15,1.14-.44l22.4-20.55c.51-.47.68-1.2.43-1.85-.25-.65-.87-1.07-1.57-1.07h-11.42v-24.44c0-18.87-15.35-34.22-34.22-34.22h-55.49c-.93,0-1.68.75-1.68,1.68s.75,1.68,1.68,1.68h55.49c17.01,0,30.86,13.84,30.86,30.86v26.12c0,.93.75,1.68,1.68,1.68h8.78l-18.08,16.59-18.08-16.59h8.78c.93,0,1.68-.75,1.68-1.68Z"/>
  <path class="cls-1" d="M35.2,103.83v26.13c0,8.62,7.01,15.63,15.63,15.63h55.49c.93,0,1.68-.75,1.68-1.68s-.75-1.68-1.68-1.68h-55.49c-6.76,0-12.26-5.5-12.26-12.26v-24.44h11.42c.69,0,1.32-.43,1.57-1.07.25-.65.08-1.38-.43-1.85l-22.4-20.55c-.64-.59-1.63-.59-2.27,0l-22.4,20.55c-.51.47-.68,1.2-.43,1.85.25.65.87,1.07,1.57,1.07h11.42v24.44c0,18.87,15.35,34.22,34.22,34.22h55.49c.93,0,1.68-.75,1.68-1.68s-.75-1.68-1.68-1.68h-55.49c-17.01,0-30.86-13.84-30.86-30.86v-26.13c0-.93-.75-1.68-1.68-1.68h-8.78l18.08-16.59,18.08,16.59h-8.78c-.93,0-1.68.75-1.68,1.68Z"/>
</svg>