<?xml version="1.0" encoding="UTF-8"?>
<svg id="VPN_Privacy_Transactions" data-name="VPN, Privacy &amp;amp; Transactions" xmlns="http://www.w3.org/2000/svg" viewBox="0 0 180 180">
  <defs>
    <style>
      .cls-1 {
        stroke: #000;
        stroke-miterlimit: 10;
        stroke-width: 2px;
      }
    </style>
  </defs>
  <path class="cls-1" d="M31.27,44.75h57.75c.86,0,1.55-.7,1.55-1.55s-.69-1.55-1.55-1.55H31.27c-.86,0-1.55.7-1.55,1.55s.69,1.55,1.55,1.55Z"/>
  <path class="cls-1" d="M17.07,58.94h57.75c.86,0,1.55-.69,1.55-1.55s-.69-1.55-1.55-1.55H17.07c-.86,0-1.55.69-1.55,1.55s.69,1.55,1.55,1.55Z"/>
  <path class="cls-1" d="M60.85,71.59c0-.86-.69-1.55-1.55-1.55H1.55c-.86,0-1.55.7-1.55,1.55s.69,1.55,1.55,1.55h57.75c.86,0,1.55-.7,1.55-1.55Z"/>
  <path class="cls-1" d="M14.43,84.23c-.86,0-1.55.7-1.55,1.55s.69,1.55,1.55,1.55h30.29c.86,0,1.55-.7,1.55-1.55s-.69-1.55-1.55-1.55H14.43Z"/>
  <path class="cls-1" d="M43.06,136.16c0-.86-.69-1.55-1.55-1.55H7.84c-.86,0-1.55.7-1.55,1.55s.69,1.55,1.55,1.55h33.66c.86,0,1.55-.7,1.55-1.55Z"/>
  <path class="cls-1" d="M54.7,147.81H21.04c-.86,0-1.55.7-1.55,1.55s.69,1.55,1.55,1.55h33.66c.86,0,1.55-.7,1.55-1.55s-.69-1.55-1.55-1.55Z"/>
  <path class="cls-1" d="M119.97,77.78c-3.9-3.9-8.81-6.32-13.84-6.84-5.15-.53-9.8,1-13.11,4.31-3.3,3.3-4.83,7.96-4.31,13.11.51,5.03,2.94,9.94,6.84,13.84,4.56,4.56,10.37,6.92,15.79,6.92,4.23,0,8.21-1.44,11.16-4.39,3.3-3.3,4.83-7.96,4.31-13.11-.51-5.03-2.94-9.94-6.84-13.84ZM120.3,102.54c-5.52,5.52-15.64,4.39-22.56-2.53-3.39-3.39-5.5-7.64-5.94-11.96-.43-4.2.78-7.97,3.42-10.6,2.28-2.28,5.42-3.5,8.96-3.5.54,0,1.08.03,1.64.08,4.32.44,8.57,2.55,11.96,5.94,3.39,3.39,5.5,7.64,5.95,11.96.43,4.2-.78,7.97-3.42,10.6Z"/>
  <path class="cls-1" d="M124.35,43.92l-14.2,14.2c-.61.61-.61,1.59,0,2.19.61.61,1.59.61,2.19,0l13.19-13.19c3.44,2.5,8.13,2.5,11.57,0l13.52,13.52c-2.49,3.44-2.49,8.13,0,11.57l-13.19,13.19c-.61.61-.61,1.59,0,2.19.3.3.7.45,1.1.45s.79-.15,1.1-.45l14.2-14.2c.61-.61.61-1.59,0-2.19-2.63-2.63-2.63-6.92,0-9.55.61-.61.61-1.59,0-2.19l-15.54-15.54c-.61-.61-1.59-.61-2.19,0-2.63,2.63-6.91,2.63-9.55,0-.61-.61-1.59-.61-2.19,0Z"/>
  <path class="cls-1" d="M103.17,119.67l-13.19,13.19c-1.67-1.22-3.68-1.87-5.79-1.87s-4.11.66-5.79,1.87l-13.52-13.52c2.49-3.44,2.49-8.13,0-11.57l13.19-13.19c.61-.61.61-1.59,0-2.19-.61-.61-1.59-.61-2.19,0l-14.2,14.2c-.61.61-.61,1.59,0,2.19,2.63,2.63,2.63,6.92,0,9.55-.61.61-.61,1.59,0,2.19l15.54,15.54c.61.61,1.59.61,2.19,0,2.63-2.63,6.92-2.63,9.55,0,.3.3.7.45,1.1.45s.79-.15,1.1-.45l14.2-14.2c.61-.61.61-1.59,0-2.19-.61-.61-1.59-.61-2.19,0Z"/>
  <path class="cls-1" d="M179.55,65.33l-47.13-47.13c-.58-.58-1.61-.58-2.19,0L35.97,112.46c-.61.61-.61,1.59,0,2.19l47.13,47.13c.3.3.7.45,1.1.45s.79-.15,1.1-.45l94.25-94.25c.29-.29.45-.69.45-1.1s-.16-.81-.45-1.1ZM84.19,158.49l-44.93-44.93L131.32,21.5l44.93,44.93-92.06,92.06Z"/>
</svg>