<?xml version="1.0" encoding="UTF-8"?>
<svg id="VPN_Privacy_Transactions" data-name="VPN, Privacy &amp;amp; Transactions" xmlns="http://www.w3.org/2000/svg" viewBox="0 0 180 180">
  <defs>
    <style>
      .cls-1 {
        stroke: #000;
        stroke-miterlimit: 10;
        stroke-width: 2px;
      }
    </style>
  </defs>
  <path class="cls-1" d="M62.97,163.56c.25.62.85,1.02,1.52,1.02s1.27-.4,1.52-1.02l9.4-22.79c.35-.84-.05-1.8-.89-2.15-.84-.35-1.8.05-2.15.89l-7.88,19.11-7.88-19.11c-.35-.84-1.31-1.24-2.15-.89-.84.35-1.24,1.31-.89,2.15l9.4,22.79Z"/>
  <path class="cls-1" d="M85.02,164.58c.91,0,1.64-.74,1.64-1.64v-6.23h5.23c4.7,0,8.52-4.08,8.52-9.1s-3.82-9.1-8.52-9.1h-6.88c-.91,0-1.64.74-1.64,1.64v22.79c0,.91.74,1.64,1.64,1.64ZM97.13,147.6c0,3.21-2.35,5.81-5.23,5.81h-5.23v-11.63h5.23c2.89,0,5.23,2.61,5.23,5.81Z"/>
  <path class="cls-1" d="M109.75,164.58c.91,0,1.64-.74,1.64-1.64v-17.35l12.15,18.26c.31.47.83.73,1.37.73.16,0,.32-.02.48-.07.69-.21,1.17-.85,1.17-1.57v-22.79c0-.91-.74-1.64-1.64-1.64s-1.64.74-1.64,1.64v17.35l-12.15-18.26c-.4-.6-1.15-.87-1.84-.66-.69.21-1.17.85-1.17,1.57v22.79c0,.91.74,1.64,1.64,1.64Z"/>
  <path class="cls-1" d="M144.67,123.08H35.33c-.91,0-1.64.74-1.64,1.64v53.63c0,.91.74,1.64,1.64,1.64h109.33c.91,0,1.64-.74,1.64-1.64v-53.63c0-.91-.74-1.64-1.64-1.64ZM143.02,176.71H36.98v-50.34h106.04v50.34Z"/>
  <path class="cls-1" d="M169.51,46.64c-2.21,0-4.26.69-5.96,1.87l-30.31-31.7c1.34-1.76,2.15-3.95,2.15-6.33,0-5.78-4.7-10.48-10.48-10.48-5.22,0-9.54,3.84-10.34,8.83h-59.74c-.79-5-5.12-8.83-10.34-8.83-5.78,0-10.48,4.7-10.48,10.48,0,3.06,1.32,5.8,3.42,7.72L14.81,52.53c-1.32-.6-2.78-.94-4.32-.94C4.71,51.58,0,56.28,0,62.06s4.7,10.48,10.48,10.48c2.77,0,5.28-1.09,7.16-2.85l28.26,21.93c-.83,1.5-1.3,3.22-1.3,5.04,0,5.78,4.7,10.48,10.48,10.48,5.22,0,9.54-3.84,10.34-8.83h44.49c.79,5,5.12,8.83,10.34,8.83,5.78,0,10.48-4.7,10.48-10.48,0-1.89-.51-3.66-1.39-5.19l33.14-26.61c1.86,1.69,4.32,2.73,7.03,2.73,5.78,0,10.48-4.7,10.48-10.48s-4.7-10.48-10.48-10.48ZM122.45,86.42l1.42-26.24,35.36-1.1c.22,1.15.63,2.24,1.2,3.23l-33.14,26.61c-1.34-1.22-2.99-2.1-4.83-2.49ZM60.32,87.6c-1.44-.83-3.09-1.33-4.86-1.39l-2.93-23.81,28.93-.9-21.14,26.1ZM47.93,89.03l-28.26-21.93c.62-1.13,1.04-2.39,1.21-3.72l28.36-.88,2.96,24.1c-1.62.47-3.07,1.31-4.26,2.43ZM20.77,60.1c-.05-.27-.12-.53-.19-.79l26.77-12.07,1.47,11.98-28.06.87ZM52.13,59.12l-1.63-13.3,65.66-29.6c.29.44.62.85.97,1.25l-32.94,40.66-32.06,1ZM119.68,19.54c.93.54,1.95.94,3.03,1.18l-1.96,36.27-32.22,1,31.15-38.45ZM159.13,55.8l-35.08,1.09,1.95-35.99c1.8-.19,3.46-.83,4.88-1.81l30.31,31.7c-1.09,1.43-1.82,3.14-2.06,5.01ZM124.91,3.29c3.97,0,7.19,3.23,7.19,7.19s-3.23,7.19-7.19,7.19-7.19-3.23-7.19-7.19,3.23-7.19,7.19-7.19ZM54.83,12.12h59.74c.06.38.14.74.24,1.11l-64.74,29.18-2.69-21.87c3.86-1.11,6.8-4.38,7.44-8.42ZM44.5,3.29c3.97,0,7.19,3.23,7.19,7.19s-3.23,7.19-7.19,7.19-7.19-3.23-7.19-7.19,3.23-7.19,7.19-7.19ZM40.18,20.01c1.21.55,2.54.87,3.95.92l2.81,22.89-27.7,12.49c-.48-.73-1.05-1.39-1.69-1.97l22.63-34.33ZM10.49,69.25c-3.97,0-7.19-3.23-7.19-7.19s3.23-7.19,7.19-7.19,7.19,3.23,7.19,7.19-3.23,7.19-7.19,7.19ZM55.09,103.86c-3.97,0-7.19-3.23-7.19-7.19s3.23-7.19,7.19-7.19,7.19,3.23,7.19,7.19-3.23,7.19-7.19,7.19ZM109.91,95.02h-44.49c-.32-2.04-1.23-3.88-2.56-5.35l22.93-28.31,34.77-1.08-1.4,25.96c-4.73.49-8.52,4.13-9.25,8.78ZM120.25,103.86c-3.97,0-7.19-3.23-7.19-7.19s3.23-7.19,7.19-7.19,7.19,3.23,7.19,7.19-3.23,7.19-7.19,7.19ZM169.51,64.31c-3.97,0-7.19-3.23-7.19-7.19s3.23-7.19,7.19-7.19,7.19,3.23,7.19,7.19-3.23,7.19-7.19,7.19Z"/>
</svg>