<?xml version="1.0" encoding="UTF-8"?>
<svg id="VPN_Privacy_Transactions" data-name="VPN, Privacy &amp;amp; Transactions" xmlns="http://www.w3.org/2000/svg" viewBox="0 0 180 180">
  <defs>
    <style>
      .cls-1 {
        stroke: #000;
        stroke-miterlimit: 10;
        stroke-width: 2px;
      }
    </style>
  </defs>
  <path class="cls-1" d="M88.11,57.5v5.43c0,1.04.85,1.89,1.89,1.89s1.89-.85,1.89-1.89v-5.43c3.31-.43,6.44-1.97,8.77-4.39,2.67-2.77,4.06-6.37,3.92-10.13-.32-8.53-6.73-12-12.39-15.05-4.9-2.65-9.14-4.94-9.16-10.01,0-1.68.8-3.49,2.15-4.85,1.36-1.36,3.07-2.11,4.81-2.11,3.84,0,6.97,3.12,6.97,6.97,0,1.04.85,1.89,1.89,1.89s1.89-.85,1.89-1.89c0-5.28-3.83-9.67-8.85-10.56V1.89c0-1.04-.85-1.89-1.89-1.89s-1.89.85-1.89,1.89v5.48c-2.07.4-4.01,1.44-5.61,3.04-2.08,2.09-3.26,4.83-3.25,7.53.03,7.32,5.93,10.51,11.14,13.32,5.23,2.82,10.17,5.49,10.41,11.87.1,2.73-.92,5.34-2.87,7.37-2.07,2.14-4.96,3.37-7.94,3.37-5.96,0-10.81-4.85-10.81-10.81,0-1.04-.85-1.89-1.89-1.89s-1.89.85-1.89,1.89c0,7.4,5.55,13.52,12.7,14.45Z"/>
  <path class="cls-1" d="M169.29,152.04s-4.55-2.09-5.94-2.69c1.65-2.64,2.63-5.76,2.63-9.1,0-9.5-7.73-17.23-17.23-17.23s-17.23,7.73-17.23,17.23c0,3.34.97,6.46,2.63,9.1-1.39.6-5.94,2.69-5.94,2.69-2.82,1.25-6.59,2.92-8.82,6.19-2.23-3.26-6-4.94-8.82-6.19,0,0-4.55-2.09-5.94-2.69,1.65-2.64,2.63-5.76,2.63-9.1,0-9.5-7.73-17.23-17.23-17.23s-17.23,7.73-17.23,17.23c0,3.34.97,6.46,2.63,9.1-1.39.6-5.94,2.69-5.94,2.69-2.82,1.25-6.59,2.92-8.82,6.19-2.23-3.26-6-4.94-8.82-6.19,0,0-4.55-2.09-5.94-2.69,1.65-2.64,2.63-5.76,2.63-9.1,0-9.5-7.73-17.23-17.23-17.23s-17.23,7.73-17.23,17.23c0,3.34.97,6.46,2.63,9.1-1.39.6-5.94,2.69-5.94,2.69-4.26,1.88-10.71,4.73-10.71,12.59v13.48c0,1.04.85,1.89,1.89,1.89h176.22c1.04,0,1.89-.85,1.89-1.89v-13.48c0-7.87-6.44-10.71-10.71-12.59ZM148.74,126.79c7.42,0,13.46,6.04,13.46,13.46s-6.04,13.46-13.46,13.46-13.46-6.04-13.46-13.46,6.04-13.46,13.46-13.46ZM90,126.79c7.42,0,13.46,6.04,13.46,13.46s-6.04,13.46-13.46,13.46-13.46-6.04-13.46-13.46,6.04-13.46,13.46-13.46ZM31.26,126.79c7.42,0,13.46,6.04,13.46,13.46s-6.04,13.46-13.46,13.46-13.46-6.04-13.46-13.46,6.04-13.46,13.46-13.46ZM3.78,164.63c0-5.01,3.66-7.02,8.45-9.14,0,0,5.11-2.35,6.84-3.07,3.12,3.13,7.43,5.06,12.19,5.06s9.07-1.94,12.19-5.06c1.73.73,6.84,3.07,6.84,3.07,4.79,2.11,8.45,4.13,8.45,9.14v11.59H3.78v-11.59ZM62.52,164.63c0-5.01,3.66-7.02,8.45-9.14,0,0,5.11-2.35,6.84-3.07,3.12,3.13,7.43,5.06,12.19,5.06s9.07-1.94,12.19-5.06c1.73.73,6.84,3.07,6.84,3.07,4.79,2.11,8.45,4.13,8.45,9.14v11.59h-54.96v-11.59ZM176.22,176.22h-54.96v-11.59c0-5.01,3.66-7.02,8.45-9.14,0,0,5.11-2.35,6.84-3.07,3.12,3.13,7.43,5.06,12.19,5.06s9.07-1.94,12.19-5.06c1.73.73,6.84,3.07,6.84,3.07,4.79,2.11,8.45,4.13,8.45,9.14v11.59Z"/>
  <path class="cls-1" d="M90,76.03c-1.04,0-1.89.85-1.89,1.89v33.41c0,1.04.85,1.89,1.89,1.89s1.89-.85,1.89-1.89v-33.41c0-1.04-.85-1.89-1.89-1.89Z"/>
  <path class="cls-1" d="M31.26,113.22c1.04,0,1.89-.85,1.89-1.89v-14.82h39.56c1.04,0,1.89-.85,1.89-1.89v-16.71c0-1.04-.85-1.89-1.89-1.89s-1.89.85-1.89,1.89v14.82H31.26c-1.04,0-1.89.85-1.89,1.89v16.71c0,1.04.85,1.89,1.89,1.89Z"/>
  <path class="cls-1" d="M107.3,96.51h39.56v14.82c0,1.04.85,1.89,1.89,1.89s1.89-.85,1.89-1.89v-16.71c0-1.04-.85-1.89-1.89-1.89h-39.56v-14.82c0-1.04-.85-1.89-1.89-1.89s-1.89.85-1.89,1.89v16.71c0,1.04.85,1.89,1.89,1.89Z"/>
</svg>