<?xml version="1.0" encoding="UTF-8"?>
<svg id="VPN_Privacy_Transactions" data-name="VPN, Privacy &amp;amp; Transactions" xmlns="http://www.w3.org/2000/svg" viewBox="0 0 180 180">
  <defs>
    <style>
      .cls-1 {
        stroke: #000;
        stroke-miterlimit: 10;
        stroke-width: 2px;
      }
    </style>
  </defs>
  <path class="cls-1" d="M81.96,51.5v-7.08h5.93c5.51,0,9.99-4.78,9.99-10.66s-4.48-10.66-9.99-10.66h-7.96c-1.12,0-2.03.91-2.03,2.03v26.38c0,1.12.91,2.03,2.03,2.03s2.03-.91,2.03-2.03ZM93.82,33.76c0,3.64-2.66,6.6-5.93,6.6h-5.93v-13.2h5.93c3.27,0,5.93,2.96,5.93,6.6Z"/>
  <path class="cls-1" d="M105.32,86.32c-4.09,0-7.7,2.08-9.83,5.23-2.13-3.15-5.74-5.23-9.83-5.23s-7.7,2.08-9.83,5.23c-2.13-3.15-5.74-5.23-9.83-5.23-2.98,0-5.71,1.11-7.8,2.93v-29.83c0-6.54-5.32-11.86-11.86-11.86s-11.86,5.32-11.86,11.86v61.54c-4.36-8.19-12.73-18.63-27.09-19.03-.41-.02-.81.1-1.15.32-3.74,2.39-5.76,4.8-6.17,7.38-.51,3.2,1.54,5.69,3.18,7.68.34.41,1.94,2.5,1.94,2.5,5.35,7.09,10.88,14.42,13.08,29.1,2.3,15.42,14.81,18.61,17.81,19.16,1.24,1.04,5.36,4.81,6.79,10.42.23.9,1.04,1.53,1.97,1.53h59.16c1.1,0,2-.88,2.03-1.98.39-15.21,3.87-18.92,6.67-21.9,2.2-2.35,4.47-4.77,4.47-11.01v-46.93c0-6.54-5.32-11.86-11.86-11.86ZM113.12,145.11c0,4.63-1.34,6.06-3.38,8.23-3.13,3.35-7,7.47-7.69,22.6h-55.69c-2.4-7.06-7.96-11.25-8.22-11.43-.29-.21-.64-.35-1-.39-.52-.06-12.72-1.54-14.85-15.82-2.35-15.7-8.46-23.8-13.85-30.95,0,0-1.67-2.17-2.04-2.63-1.3-1.58-2.53-3.07-2.31-4.47.19-1.23,1.51-2.69,3.82-4.25,19.74,1.05,26.59,25.46,26.65,25.71.27.98,1.22,1.63,2.23,1.48,1.01-.13,1.76-.99,1.76-2.01V59.41c0-4.3,3.5-7.8,7.8-7.8s7.8,3.5,7.8,7.8v44.23c0,1.12.91,2.03,2.03,2.03s2.03-.91,2.03-2.03v-5.47c0-4.3,3.5-7.8,7.8-7.8s7.8,3.5,7.8,7.8v5.47c0,1.12.91,2.03,2.03,2.03s2.03-.91,2.03-2.03v-5.47c0-4.3,3.5-7.8,7.8-7.8s7.8,3.5,7.8,7.8v5.47c0,1.12.91,2.03,2.03,2.03s2.03-.91,2.03-2.03v-5.47c0-4.3,3.5-7.8,7.8-7.8s7.8,3.5,7.8,7.8v46.93Z"/>
  <path class="cls-1" d="M168.95,0H11.05C4.96,0,0,4.96,0,11.05v54.56c0,6.09,4.96,11.05,11.05,11.05h12.83c1.12,0,2.03-.91,2.03-2.03s-.91-2.03-2.03-2.03h-12.83c-3.86,0-6.99-3.14-6.99-6.99V11.05c0-3.86,3.14-6.99,6.99-6.99h157.89c3.86,0,6.99,3.14,6.99,6.99v54.56c0,3.86-3.14,6.99-6.99,6.99h-100.14c-1.12,0-2.03.91-2.03,2.03s.91,2.03,2.03,2.03h100.14c6.09,0,11.05-4.96,11.05-11.05V11.05C180,4.96,175.04,0,168.95,0Z"/>
  <path class="cls-1" d="M106.99,52.09l2.32-7.67h11.69l2.32,7.69c.27.88,1.07,1.44,1.94,1.44.19,0,.39-.03.59-.09,1.07-.32,1.68-1.46,1.36-2.53l-7.97-26.38c-.26-.85-1.04-1.44-1.93-1.44l-4.27-.02h0c-.89,0-1.68.59-1.94,1.44l-7.97,26.38c-.33,1.07.28,2.21,1.36,2.53,1.07.33,2.21-.28,2.53-1.36ZM114.52,27.16h1.26s3.99,13.2,3.99,13.2h-9.23l3.99-13.2Z"/>
  <path class="cls-1" d="M144.31,53.53c1.12,0,2.03-.91,2.03-2.03v-10.39l9.64-14.89c.61-.94.34-2.2-.6-2.81-.94-.61-2.2-.34-2.81.6l-8.26,12.76-8.26-12.76c-.61-.94-1.87-1.21-2.81-.6-.94.61-1.21,1.87-.6,2.81l9.64,14.89v10.39c0,1.12.91,2.03,2.03,2.03Z"/>
</svg>