<?xml version="1.0" encoding="UTF-8"?>
<svg id="VPN_Privacy_Transactions" data-name="VPN, Privacy &amp;amp; Transactions" xmlns="http://www.w3.org/2000/svg" viewBox="0 0 180 180">
  <defs>
    <style>
      .cls-1 {
        stroke: #000;
        stroke-miterlimit: 10;
        stroke-width: 2px;
      }
    </style>
  </defs>
  <path class="cls-1" d="M2.14,34.04c-1.18,0-2.14-.96-2.14-2.14V2.58C0,1.4.96.44,2.14.44h29.33c1.18,0,2.14.96,2.14,2.14s-.96,2.14-2.14,2.14H4.27v27.19c0,1.18-.96,2.14-2.14,2.14Z"/>
  <path class="cls-1" d="M177.86,34.04c-1.18,0-2.14-.96-2.14-2.14V4.72h-27.19c-1.18,0-2.14-.96-2.14-2.14s.96-2.14,2.14-2.14h29.33c1.18,0,2.14.96,2.14,2.14v29.33c0,1.18-.96,2.14-2.14,2.14Z"/>
  <g>
    <path class="cls-1" d="M177.86,179.56h-29.33c-1.18,0-2.14-.96-2.14-2.14s.96-2.14,2.14-2.14h27.19v-27.19c0-1.18.96-2.14,2.14-2.14s2.14.96,2.14,2.14v29.33c0,1.18-.96,2.14-2.14,2.14Z"/>
    <path class="cls-1" d="M31.86,179.56H2.53c-1.18,0-2.14-.96-2.14-2.14v-29.33c0-1.18.96-2.14,2.14-2.14s2.14.96,2.14,2.14v27.19h27.19c1.18,0,2.14.96,2.14,2.14s-.96,2.14-2.14,2.14Z"/>
  </g>
  <path class="cls-1" d="M57.1,59.29H24.01c-1.18,0-2.14-.96-2.14-2.14V24.06c0-1.18.96-2.14,2.14-2.14h33.09c1.18,0,2.14.96,2.14,2.14v33.09c0,1.18-.96,2.14-2.14,2.14ZM26.14,55.01h28.82v-28.82h-28.82v28.82Z"/>
  <path class="cls-1" d="M156.38,59.29h-33.09c-1.18,0-2.14-.96-2.14-2.14V24.06c0-1.18.96-2.14,2.14-2.14h33.09c1.18,0,2.14.96,2.14,2.14v33.09c0,1.18-.96,2.14-2.14,2.14ZM125.43,55.01h28.82v-28.82h-28.82v28.82Z"/>
  <path class="cls-1" d="M57.1,158.57H24.01c-1.18,0-2.14-.96-2.14-2.14v-33.09c0-1.18.96-2.14,2.14-2.14h33.09c1.18,0,2.14.96,2.14,2.14v33.09c0,1.18-.96,2.14-2.14,2.14ZM26.14,154.3h28.82v-28.82h-28.82v28.82Z"/>
  <path class="cls-1" d="M123.29,75.84h-16.55c-1.18,0-2.14-.96-2.14-2.14V26.19h-28.82v14.41c0,1.18-.96,2.14-2.14,2.14s-2.14-.96-2.14-2.14v-16.55c0-1.18.96-2.14,2.14-2.14h33.09c1.18,0,2.14.96,2.14,2.14v47.5h14.41c1.18,0,2.14.96,2.14,2.14s-.96,2.14-2.14,2.14Z"/>
  <path class="cls-1" d="M156.38,158.57h-16.55c-1.18,0-2.14-.96-2.14-2.14s.96-2.14,2.14-2.14h14.41v-14.41c0-1.18.96-2.14,2.14-2.14s2.14.96,2.14,2.14v16.55c0,1.18-.96,2.14-2.14,2.14Z"/>
  <path class="cls-1" d="M73.65,75.84h-15.53c-1.18,0-2.14-.96-2.14-2.14s.96-2.14,2.14-2.14h13.4v-14.41c0-1.18.96-2.14,2.14-2.14h14.41v-14.41c0-1.18.96-2.14,2.14-2.14s2.14.96,2.14,2.14v16.55c0,1.18-.96,2.14-2.14,2.14h-14.41v14.41c0,1.18-.96,2.14-2.14,2.14Z"/>
  <path class="cls-1" d="M73.65,125.48c-1.18,0-2.14-.96-2.14-2.14v-14.41H24.01c-1.18,0-2.14-.96-2.14-2.14v-33.09c0-1.18.96-2.14,2.14-2.14h16.55c1.18,0,2.14.96,2.14,2.14s-.96,2.14-2.14,2.14h-14.41v28.82h47.5c1.18,0,2.14.96,2.14,2.14v16.55c0,1.18-.96,2.14-2.14,2.14Z"/>
  <path class="cls-1" d="M90.2,92.38h-49.64c-1.18,0-2.14-.96-2.14-2.14s.96-2.14,2.14-2.14h47.5v-14.41c0-1.18.96-2.14,2.14-2.14s2.14.96,2.14,2.14v16.55c0,1.18-.96,2.14-2.14,2.14Z"/>
  <path class="cls-1" d="M90.2,158.57h-16.55c-1.18,0-2.14-.96-2.14-2.14v-16.55c0-1.18.96-2.14,2.14-2.14s2.14.96,2.14,2.14v14.41h12.27v-47.5c0-1.18.96-2.14,2.14-2.14h14.41v-14.41c0-1.18.96-2.14,2.14-2.14s2.14.96,2.14,2.14v16.55c0,1.18-.96,2.14-2.14,2.14h-14.41v47.5c0,1.18-.96,2.14-2.14,2.14Z"/>
  <path class="cls-1" d="M139.84,142.02c-1.18,0-2.14-.96-2.14-2.14v-16.55c0-1.18.96-2.14,2.14-2.14h14.41v-45.37h-14.41c-1.18,0-2.14-.96-2.14-2.14s.96-2.14,2.14-2.14h16.55c1.18,0,2.14.96,2.14,2.14v49.64c0,1.18-.96,2.14-2.14,2.14h-14.41v14.41c0,1.18-.96,2.14-2.14,2.14Z"/>
  <path class="cls-1" d="M123.29,158.57h-16.55c-1.18,0-2.14-.96-2.14-2.14v-33.09c0-1.18.96-2.14,2.14-2.14h14.41v-14.41c0-1.18.96-2.14,2.14-2.14h14.41v-12.27h-14.41c-1.18,0-2.14-.96-2.14-2.14s.96-2.14,2.14-2.14h16.55c1.18,0,2.14.96,2.14,2.14v16.55c0,1.18-.96,2.14-2.14,2.14h-14.41v14.41c0,1.18-.96,2.14-2.14,2.14h-14.41v28.82h12.27v-14.41c0-1.18.96-2.14,2.14-2.14s2.14.96,2.14,2.14v16.55c0,1.18-.96,2.14-2.14,2.14Z"/>
</svg>