<?xml version="1.0" encoding="UTF-8"?>
<svg id="VPN_Privacy_Transactions" data-name="VPN, Privacy &amp;amp; Transactions" xmlns="http://www.w3.org/2000/svg" viewBox="0 0 180 180">
  <defs>
    <style>
      .cls-1 {
        stroke: #000;
        stroke-miterlimit: 10;
        stroke-width: 2px;
      }
    </style>
  </defs>
  <path class="cls-1" d="M129.89,60.44c-8.61,0-15.61-7-15.61-15.61,0-1.09-.89-1.98-1.98-1.98h-44.6c-1.09,0-1.98.89-1.98,1.98,0,8.61-7,15.61-15.61,15.61-1.09,0-1.97.88-1.98,1.97,0,.2-.05,20.56,0,37.65.08,24.28,41.15,40.94,41.56,41.01.1.02.21.02.31.02s.21,0,.31-.02c.41-.07,41.48-16.72,41.56-41.01.05-17.09,0-37.44,0-37.65,0-1.09-.89-1.97-1.98-1.97ZM127.91,100.04c-.06,19.4-32.89,34.71-37.91,36.92-5.02-2.21-37.85-17.53-37.91-36.92-.04-14.06-.02-30.32,0-35.75,9.22-.93,16.57-8.28,17.5-17.49h40.85c.93,9.21,8.28,16.56,17.5,17.49.01,5.43.04,21.7,0,35.75Z"/>
  <path class="cls-1" d="M104.11,111.44c-4.03,3.24-9.12,6.56-14.11,9.18-12.6-6.62-23.09-15.94-23.11-20.62-.03-8.55-.03-17.93-.02-25.17,5.85-3.29,10.73-8.32,13.81-14.29.5-.97.12-2.16-.85-2.66-.97-.5-2.16-.12-2.66.85-2.89,5.6-7.57,10.28-13.17,13.16-.66.34-1.07,1.02-1.07,1.76,0,7.39,0,17.34.02,26.37.03,8.9,17.13,19.98,26.17,24.6.28.14.59.22.9.22s.62-.07.9-.22c5.5-2.81,11.22-6.48,15.69-10.09.85-.68.98-1.93.3-2.78-.68-.85-1.93-.99-2.78-.3Z"/>
  <path class="cls-1" d="M38.43.33H2.1C1.01.33.12,1.22.12,2.31v36.33c0,1.09.89,1.98,1.98,1.98h36.33c1.09,0,1.98-.89,1.98-1.98V2.31c0-1.09-.89-1.98-1.98-1.98ZM36.45,36.66H4.08V4.29h32.37v32.37Z"/>
  <path class="cls-1" d="M177.9,139.38h-36.33c-1.09,0-1.98.89-1.98,1.98v36.33c0,1.09.89,1.98,1.98,1.98h36.33c1.09,0,1.98-.89,1.98-1.98v-36.33c0-1.09-.89-1.98-1.98-1.98ZM175.92,175.71h-32.37v-32.37h32.37v32.37Z"/>
  <path class="cls-1" d="M143.03,92.19c2.48,0,4.97-.25,7.38-.74,1.07-.22,1.76-1.26,1.54-2.33-.22-1.07-1.26-1.76-2.33-1.54-2.15.44-4.37.66-6.59.66-1.09,0-1.98.89-1.98,1.98s.89,1.98,1.98,1.98Z"/>
  <path class="cls-1" d="M148.54,22.91c2.18.37,4.32.96,6.38,1.75.24.09.48.13.72.13.79,0,1.54-.48,1.84-1.26.39-1.02-.11-2.16-1.13-2.56-2.3-.89-4.71-1.56-7.15-1.97-1.08-.18-2.1.54-2.28,1.62s.54,2.1,1.62,2.28Z"/>
  <path class="cls-1" d="M71.54,22.45h7.03c1.09,0,1.98-.89,1.98-1.98s-.89-1.98-1.98-1.98h-7.03c-1.09,0-1.98.89-1.98,1.98s.89,1.98,1.98,1.98Z"/>
  <path class="cls-1" d="M90.88,22.45h7.03c1.09,0,1.98-.89,1.98-1.98s-.89-1.98-1.98-1.98h-7.03c-1.09,0-1.98.89-1.98,1.98s.89,1.98,1.98,1.98Z"/>
  <path class="cls-1" d="M110.22,22.45h7.03c1.09,0,1.98-.89,1.98-1.98s-.89-1.98-1.98-1.98h-7.03c-1.09,0-1.98.89-1.98,1.98s.89,1.98,1.98,1.98Z"/>
  <path class="cls-1" d="M136.59,18.5h-7.03c-1.09,0-1.98.89-1.98,1.98s.89,1.98,1.98,1.98h7.03c1.09,0,1.98-.89,1.98-1.98s-.89-1.98-1.98-1.98Z"/>
  <path class="cls-1" d="M174.82,63.81c-.57,2.13-1.35,4.21-2.34,6.19-.49.98-.09,2.16.89,2.65.28.14.58.21.88.21.73,0,1.43-.4,1.77-1.1,1.11-2.22,1.99-4.55,2.62-6.94.28-1.06-.35-2.14-1.4-2.42-1.06-.27-2.14.35-2.42,1.4Z"/>
  <path class="cls-1" d="M175.78,52.31c.09,1.03.96,1.8,1.97,1.8.06,0,.12,0,.18,0,1.09-.1,1.89-1.06,1.79-2.15-.23-2.47-.7-4.92-1.42-7.28-.32-1.05-1.42-1.64-2.47-1.32-1.05.32-1.64,1.42-1.32,2.47.64,2.11,1.06,4.3,1.26,6.5Z"/>
  <path class="cls-1" d="M161.39,86.97c.36,0,.72-.1,1.04-.3,2.1-1.3,4.08-2.82,5.88-4.52.79-.75.83-2,.08-2.8-.75-.79-2-.83-2.8-.08-1.61,1.52-3.37,2.88-5.25,4.04-.93.58-1.21,1.79-.64,2.72.37.6,1.02.93,1.68.93Z"/>
  <path class="cls-1" d="M169.28,35.52c.39.51.98.78,1.58.78.42,0,.83-.13,1.19-.4.87-.66,1.04-1.9.39-2.77-1.49-1.97-3.19-3.8-5.04-5.44-.82-.72-2.07-.64-2.79.18-.72.82-.64,2.07.18,2.79,1.66,1.46,3.17,3.09,4.5,4.86Z"/>
  <path class="cls-1" d="M52.21,22.45h7.03c1.09,0,1.98-.89,1.98-1.98s-.89-1.98-1.98-1.98h-7.03c-1.09,0-1.98.89-1.98,1.98s.89,1.98,1.98,1.98Z"/>
  <path class="cls-1" d="M50.44,157.55h-7.03c-1.09,0-1.98.89-1.98,1.98s.89,1.98,1.98,1.98h7.03c1.09,0,1.98-.89,1.98-1.98s-.89-1.98-1.98-1.98Z"/>
  <path class="cls-1" d="M89.12,157.55h-7.03c-1.09,0-1.98.89-1.98,1.98s.89,1.98,1.98,1.98h7.03c1.09,0,1.98-.89,1.98-1.98s-.89-1.98-1.98-1.98Z"/>
  <path class="cls-1" d="M69.78,157.55h-7.03c-1.09,0-1.98.89-1.98,1.98s.89,1.98,1.98,1.98h7.03c1.09,0,1.98-.89,1.98-1.98s-.89-1.98-1.98-1.98Z"/>
  <path class="cls-1" d="M36.97,87.81c-2.48,0-4.97.25-7.38.74-1.07.22-1.76,1.26-1.54,2.33.19.94,1.02,1.58,1.94,1.58.13,0,.26-.01.4-.04,2.15-.44,4.37-.66,6.59-.66,1.09,0,1.98-.89,1.98-1.98s-.89-1.98-1.98-1.98Z"/>
  <path class="cls-1" d="M108.46,157.55h-7.03c-1.09,0-1.98.89-1.98,1.98s.89,1.98,1.98,1.98h7.03c1.09,0,1.98-.89,1.98-1.98s-.89-1.98-1.98-1.98Z"/>
  <path class="cls-1" d="M4.22,127.69c-.1-1.09-1.06-1.9-2.15-1.79-1.09.1-1.89,1.06-1.79,2.15.23,2.47.7,4.92,1.42,7.28.26.86,1.04,1.41,1.89,1.41.19,0,.38-.03.57-.08,1.05-.32,1.64-1.42,1.32-2.47-.64-2.11-1.06-4.3-1.26-6.5Z"/>
  <path class="cls-1" d="M127.79,157.55h-7.03c-1.09,0-1.98.89-1.98,1.98s.89,1.98,1.98,1.98h7.03c1.09,0,1.98-.89,1.98-1.98s-.89-1.98-1.98-1.98Z"/>
  <path class="cls-1" d="M3.27,117.66c.87,0,1.67-.59,1.91-1.47.57-2.13,1.35-4.21,2.34-6.19.49-.98.09-2.16-.89-2.65-.98-.49-2.16-.09-2.65.89-1.11,2.22-1.99,4.55-2.62,6.94-.28,1.06.35,2.14,1.4,2.42.17.04.34.07.51.07Z"/>
  <path class="cls-1" d="M10.72,144.48c-.66-.87-1.9-1.04-2.77-.38-.87.66-1.04,1.9-.38,2.77,1.49,1.97,3.19,3.8,5.04,5.44.38.33.84.49,1.31.49.55,0,1.09-.23,1.48-.67.72-.82.64-2.07-.18-2.79-1.66-1.46-3.17-3.09-4.5-4.86Z"/>
  <path class="cls-1" d="M17.57,93.33c-2.1,1.3-4.08,2.82-5.88,4.52-.79.75-.83,2-.08,2.8.39.41.91.62,1.44.62.49,0,.97-.18,1.36-.54,1.61-1.52,3.37-2.88,5.25-4.04.93-.58,1.21-1.79.64-2.72-.58-.93-1.8-1.21-2.72-.64Z"/>
  <path class="cls-1" d="M31.46,157.09c-2.18-.37-4.32-.96-6.38-1.75-1.02-.39-2.16.11-2.56,1.13-.39,1.02.11,2.16,1.13,2.56,2.3.89,4.71,1.56,7.15,1.97.11.02.22.03.33.03.95,0,1.79-.68,1.95-1.65.18-1.08-.54-2.1-1.62-2.28Z"/>
</svg>