<?xml version="1.0" encoding="UTF-8"?>
<svg id="VPN_Privacy_Transactions" data-name="VPN, Privacy &amp;amp; Transactions" xmlns="http://www.w3.org/2000/svg" viewBox="0 0 180 180">
  <defs>
    <style>
      .cls-1 {
        stroke: #000;
        stroke-miterlimit: 10;
        stroke-width: 2px;
      }
    </style>
  </defs>
  <path class="cls-1" d="M36.65,53.05h-12.84c-1.09,0-1.98.89-1.98,1.98s.89,1.98,1.98,1.98h12.84c1.09,0,1.98-.89,1.98-1.98s-.89-1.98-1.98-1.98Z"/>
  <path class="cls-1" d="M165.96,86.53V9.9c0-5.46-4.44-9.9-9.9-9.9H10.03C4.57,0,.13,4.44.13,9.9v98.94c0,5.46,4.44,9.9,9.9,9.9h89.4v43.41c0,10,17.67,17.84,40.22,17.84s40.22-7.84,40.22-17.84v-62.04c0-5.5-5.35-10.35-13.92-13.59ZM139.65,155.63c-21.37,0-36.26-7.31-36.26-13.88v-12.9c6.44,5.97,20.09,9.99,36.26,9.99s29.82-4.03,36.26-9.99v12.9c0,6.57-14.89,13.88-36.26,13.88ZM139.65,86.37c21.37,0,36.26,7.31,36.26,13.88s-14.89,13.88-36.26,13.88-36.26-7.32-36.26-13.88,14.89-13.88,36.26-13.88ZM139.65,134.88c-21.37,0-36.26-7.31-36.26-13.88v-12.9c6.44,5.97,20.09,9.99,36.26,9.99s29.82-4.03,36.26-9.99v12.9c0,6.57-14.89,13.88-36.26,13.88ZM4.09,9.9c0-3.28,2.67-5.94,5.94-5.94h146.03c3.28,0,5.94,2.67,5.94,5.94v61.67H4.09V9.9ZM4.09,75.54h157.91v9.67c-6.35-1.85-14.01-2.92-22.35-2.92-18.77,0-34.14,5.43-38.78,13.01H4.09v-19.76ZM10.03,114.79c-3.28,0-5.94-2.67-5.94-5.94v-9.59h95.39c-.03.29-.05.57-.05.86v14.67H10.03ZM139.65,176.04c-21.37,0-36.26-7.31-36.26-13.88v-12.57c6.44,5.97,20.09,9.99,36.26,9.99s29.82-4.03,36.26-9.99v12.57c0,6.56-14.89,13.88-36.26,13.88Z"/>
  <path class="cls-1" d="M27.32,145.23c-2.31,0-4.18,1.88-4.18,4.18s1.88,4.18,4.18,4.18,4.18-1.88,4.18-4.18-1.88-4.18-4.18-4.18Z"/>
  <path class="cls-1" d="M50.87,145.23c-2.31,0-4.18,1.88-4.18,4.18s1.88,4.18,4.18,4.18,4.18-1.88,4.18-4.18-1.88-4.18-4.18-4.18Z"/>
  <path class="cls-1" d="M74.42,145.23c-2.31,0-4.18,1.88-4.18,4.18s1.88,4.18,4.18,4.18,4.18-1.88,4.18-4.18-1.88-4.18-4.18-4.18Z"/>
</svg>