<?xml version="1.0" encoding="UTF-8"?>
<svg id="VPN_Privacy_Transactions" data-name="VPN, Privacy &amp;amp; Transactions" xmlns="http://www.w3.org/2000/svg" viewBox="0 0 180 180">
  <defs>
    <style>
      .cls-1 {
        stroke: #000;
        stroke-miterlimit: 10;
        stroke-width: 2px;
      }
    </style>
  </defs>
  <path class="cls-1" d="M79.74,52.09c.28.68.94,1.12,1.67,1.12s1.39-.44,1.67-1.12l10.91-26.44c.38-.92-.06-1.98-.98-2.36-.92-.38-1.98.06-2.36.98l-9.24,22.39-9.24-22.39c-.38-.92-1.44-1.37-2.36-.98-.92.38-1.36,1.44-.98,2.36l10.91,26.44Z"/>
  <path class="cls-1" d="M107.04,51.4v-7.33h6.17c5.4,0,9.79-4.69,9.79-10.46s-4.39-10.46-9.79-10.46h-7.98c-1,0-1.81.81-1.81,1.81v26.44c0,1,.81,1.81,1.81,1.81s1.81-.81,1.81-1.81ZM119.38,33.61c0,3.77-2.77,6.84-6.17,6.84h-6.17v-13.69h6.17c3.4,0,6.17,3.07,6.17,6.84Z"/>
  <path class="cls-1" d="M135.74,51.4v-20.46l14.28,21.46c.34.51.91.81,1.51.81.17,0,.35-.02.52-.08.76-.23,1.29-.93,1.29-1.73v-26.44c0-1-.81-1.81-1.81-1.81s-1.81.81-1.81,1.81v20.46l-14.28-21.46c-.44-.66-1.27-.96-2.03-.73-.76.23-1.29.93-1.29,1.73v26.44c0,1,.81,1.81,1.81,1.81s1.81-.81,1.81-1.81Z"/>
  <path class="cls-1" d="M105.36,86.53c-4.14,0-7.78,2.17-9.85,5.43-2.07-3.26-5.71-5.43-9.85-5.43s-7.78,2.17-9.85,5.43c-2.07-3.26-5.71-5.43-9.85-5.43-3.12,0-5.95,1.23-8.05,3.23v-30.42c0-6.43-5.23-11.66-11.67-11.66s-11.66,5.23-11.66,11.66v62.8c-4.26-8.28-12.74-19.54-27.39-19.95-.36-.02-.72.09-1.02.28-3.69,2.36-5.68,4.73-6.08,7.24-.49,3.11,1.52,5.56,3.14,7.52.34.41,1.95,2.51,1.95,2.51,5.38,7.13,10.95,14.5,13.16,29.28,2.3,15.43,14.89,18.52,17.73,19.02,1.21,1,5.46,4.85,6.93,10.6.21.8.93,1.36,1.75,1.36h59.31c.98,0,1.78-.78,1.81-1.76.4-15.33,3.92-19.09,6.75-22.11,2.27-2.43,4.42-4.72,4.42-10.88v-47.05c0-6.43-5.23-11.66-11.66-11.66ZM113.4,145.24c0,4.73-1.37,6.2-3.45,8.41-3.13,3.34-7,7.47-7.66,22.73h-56.21c-2.35-7.11-7.96-11.32-8.21-11.51-.26-.19-.57-.31-.89-.35-.53-.06-12.93-1.56-15.09-16.05-2.35-15.69-8.46-23.78-13.85-30.92,0,0-1.66-2.17-2.04-2.63-1.34-1.62-2.6-3.16-2.36-4.66.21-1.31,1.58-2.84,3.99-4.45,20.01,1.01,26.94,25.7,27,25.95.24.88,1.09,1.44,1.98,1.32.9-.12,1.57-.89,1.57-1.79V59.34c0-4.44,3.6-8.04,8.04-8.04s8.05,3.61,8.05,8.04v44.34c0,1,.81,1.81,1.81,1.81s1.81-.81,1.81-1.81v-5.48c0-4.44,3.61-8.04,8.05-8.04s8.04,3.61,8.04,8.04v5.48c0,1,.81,1.81,1.81,1.81s1.81-.81,1.81-1.81v-5.48c0-4.44,3.61-8.04,8.04-8.04s8.04,3.61,8.04,8.04v5.48c0,1,.81,1.81,1.81,1.81s1.81-.81,1.81-1.81v-5.48c0-4.44,3.61-8.04,8.04-8.04s8.05,3.61,8.05,8.04v47.05Z"/>
  <path class="cls-1" d="M169.15,0H10.85C4.87,0,0,4.87,0,10.85v54.69C0,71.53,4.87,76.4,10.85,76.4h12.86c1,0,1.81-.81,1.81-1.81s-.81-1.81-1.81-1.81h-12.86c-3.99,0-7.24-3.25-7.24-7.24V10.85c0-3.99,3.25-7.24,7.24-7.24h158.29c3.99,0,7.24,3.25,7.24,7.24v54.69c0,3.99-3.25,7.24-7.24,7.24h-100.39c-1,0-1.81.81-1.81,1.81s.81,1.81,1.81,1.81h100.39c5.99,0,10.85-4.87,10.85-10.85V10.85C180,4.87,175.13,0,169.15,0Z"/>
</svg>