<?xml version="1.0" encoding="UTF-8"?>
<svg id="VPN_Privacy_Transactions" data-name="VPN, Privacy &amp;amp; Transactions" xmlns="http://www.w3.org/2000/svg" viewBox="0 0 180 180">
  <defs>
    <style>
      .cls-1 {
        stroke: #000;
        stroke-miterlimit: 10;
        stroke-width: 2px;
      }
    </style>
  </defs>
  <path class="cls-1" d="M166.39,27.88c-.35-.33-.81-.5-1.3-.49-.16,0-.87.06-1.08.06-13.52,0-24.53-11-24.53-24.53,0-.2.05-.92.06-1.08.02-.48-.16-.95-.49-1.3-.33-.35-.79-.54-1.27-.54H42.22c-.48,0-.94.2-1.27.54-.33.35-.51.82-.49,1.3,0,.16.06.87.06,1.08,0,13.52-11,24.53-24.53,24.53-.2,0-.92-.05-1.08-.06-.47-.01-.95.16-1.3.49-.35.33-.54.79-.54,1.27v93.65c0,16.84,11.3,22.54,23.27,28.58,1.94.98,52.82,28.4,52.82,28.4.26.14.55.21.84.21s.58-.07.84-.21c0,0,50.88-27.42,52.82-28.4,11.97-6.04,23.27-11.75,23.27-28.58V29.15c0-.48-.2-.94-.54-1.27ZM163.4,122.81c0,14.66-9.41,19.42-21.33,25.43-1.96.99-52.07,27.99-52.07,27.99,0,0-50.11-27-52.07-27.99-11.92-6.02-21.33-10.77-21.33-25.43V30.97c14.99-.32,27.12-12.45,27.44-27.44h91.92c.32,14.99,12.45,27.12,27.44,27.44v91.84Z"/>
  <path class="cls-1" d="M125.58,17.81c-.26-.68-.92-1.13-1.64-1.13H56.06c-.73,0-1.38.45-1.64,1.13-4.19,10.77-12.77,19.35-23.54,23.54-.68.26-1.12.92-1.12,1.64v79.81c0,5.77,1.71,7.43,14.12,13.69,2.04,1.03,45.29,24.33,45.29,24.33.26.14.55.21.84.21s.58-.07.84-.21c0,0,43.25-23.3,45.3-24.33,12.39-6.25,14.11-7.92,14.11-13.69V42.99c0-.73-.45-1.38-1.12-1.64-10.77-4.19-19.35-12.77-23.54-23.54ZM146.72,122.81c0,3.55,0,4.4-12.18,10.54-2.06,1.04-44.54,23.92-44.54,23.92,0,0-42.48-22.88-44.55-23.92-12.17-6.14-12.17-6.99-12.17-10.54V44.18c10.79-4.54,19.43-13.18,23.97-23.97h65.5c4.54,10.79,13.18,19.43,23.97,23.97v78.63Z"/>
  <path class="cls-1" d="M74.95,100.35c-.9-.37-1.93.06-2.3.96l-7.55,18.29-7.55-18.29c-.37-.9-1.4-1.33-2.3-.96-.9.37-1.33,1.4-.96,2.3l9.18,22.25c.27.66.92,1.09,1.63,1.09s1.36-.43,1.63-1.09l9.18-22.25c.37-.9-.06-1.93-.96-2.3Z"/>
  <path class="cls-1" d="M91.85,100.22h-6.71c-.97,0-1.76.79-1.76,1.76v22.25c0,.97.79,1.76,1.76,1.76s1.76-.79,1.76-1.76v-5.92h4.95c4.67,0,8.48-4.06,8.48-9.04s-3.8-9.05-8.48-9.05ZM91.85,114.77h-4.95v-11.03h4.95c2.73,0,4.95,2.47,4.95,5.52s-2.22,5.51-4.95,5.51Z"/>
  <path class="cls-1" d="M124.08,100.22c-.97,0-1.76.79-1.76,1.76v16.41l-11.57-17.39c-.43-.65-1.24-.94-1.98-.71-.74.22-1.25.91-1.25,1.69v22.25c0,.97.79,1.76,1.76,1.76s1.76-.79,1.76-1.76v-16.41l11.57,17.39c.33.5.89.79,1.47.79.17,0,.34-.02.51-.08.74-.22,1.25-.91,1.25-1.69v-22.25c0-.97-.79-1.76-1.76-1.76Z"/>
  <path class="cls-1" d="M51.46,54.39c-.69.69-.69,1.81,0,2.5.69.69,1.81.69,2.5,0,19.87-19.87,52.21-19.87,72.08,0,.34.34.8.52,1.25.52s.9-.17,1.25-.52c.69-.69.69-1.81,0-2.5-21.25-21.25-55.83-21.25-77.07,0Z"/>
  <path class="cls-1" d="M67.76,70.68c12.27-12.27,32.22-12.27,44.49,0,.34.34.8.52,1.25.52s.9-.17,1.25-.52c.69-.69.69-1.81,0-2.5-13.64-13.64-35.84-13.64-49.48,0-.69.69-.69,1.81,0,2.5.69.69,1.81.69,2.5,0Z"/>
  <path class="cls-1" d="M79.06,81.99c-.69.69-.69,1.81,0,2.5.69.69,1.81.69,2.5,0,4.66-4.66,12.23-4.66,16.89,0,.34.34.8.52,1.25.52s.9-.17,1.25-.52c.69-.69.69-1.81,0-2.5-6.03-6.03-15.85-6.03-21.88,0Z"/>
</svg>