<?xml version="1.0" encoding="UTF-8"?>
<svg id="VPN_Privacy_Transactions" data-name="VPN, Privacy &amp;amp; Transactions" xmlns="http://www.w3.org/2000/svg" viewBox="0 0 180 180">
  <defs>
    <style>
      .cls-1 {
        stroke: #000;
        stroke-miterlimit: 10;
        stroke-width: 2px;
      }
    </style>
  </defs>
  <path class="cls-1" d="M76.52,131.54c-.95-.39-2.03.06-2.42,1.01l-6.57,15.91-6.57-15.91c-.39-.95-1.48-1.4-2.42-1.01-.95.39-1.4,1.48-1.01,2.42l8.28,20.07c.29.69.96,1.15,1.72,1.15s1.43-.45,1.72-1.15l8.28-20.07c.39-.95-.06-2.03-1.01-2.42Z"/>
  <path class="cls-1" d="M91.67,131.4h-6.06c-1.02,0-1.86.83-1.86,1.86v20.07c0,1.02.83,1.86,1.86,1.86s1.86-.83,1.86-1.86v-5.08h4.2c4.36,0,7.91-3.78,7.91-8.42s-3.55-8.42-7.91-8.42ZM91.67,144.53h-4.2v-9.42h4.2c2.32,0,4.2,2.11,4.2,4.71s-1.88,4.71-4.2,4.71Z"/>
  <path class="cls-1" d="M120.75,131.4c-1.02,0-1.86.83-1.86,1.86v13.93l-9.95-14.96c-.45-.68-1.3-.99-2.08-.75-.78.24-1.32.96-1.32,1.78v20.07c0,1.02.83,1.86,1.86,1.86s1.86-.83,1.86-1.86v-13.93l9.95,14.96c.35.53.94.83,1.54.83.18,0,.36-.03.54-.08.78-.24,1.32-.96,1.32-1.78v-20.07c0-1.02-.83-1.86-1.86-1.86Z"/>
  <path class="cls-1" d="M50.33,87.98h-4.42c-8.11,0-12.86-19.79-17.46-38.92C22.65,24.94,16.66,0,1.86,0,.83,0,0,.83,0,1.86s.83,1.86,1.86,1.86c11.88,0,17.78,24.55,22.99,46.22,2.42,10.08,4.7,19.54,7.47,26.9-1.37-2.48-2.68-5.19-4-7.94-5.61-11.67-11.96-24.89-26.47-24.89-1.02,0-1.86.83-1.86,1.86s.83,1.86,1.86,1.86c12.17,0,17.74,11.59,23.12,22.79,3.24,6.73,6.54,13.61,11.36,17.65H1.86c-1.02,0-1.86.83-1.86,1.86s.83,1.86,1.86,1.86h34.48c-4.82,4.04-8.13,10.92-11.36,17.65-5.38,11.2-10.95,22.79-23.12,22.79-1.02,0-1.86.83-1.86,1.86s.83,1.86,1.86,1.86c14.51,0,20.86-13.23,26.47-24.89,1.32-2.75,2.62-5.46,4-7.94-2.77,7.36-5.05,16.82-7.47,26.9-5.21,21.66-11.11,46.22-22.99,46.22-1.02,0-1.86.83-1.86,1.86s.83,1.86,1.86,1.86c14.8,0,20.8-24.94,26.6-49.06,4.6-19.13,9.36-38.92,17.46-38.92h4.42c1.02,0,1.86-.83,1.86-1.86v-.32c0-1.02-.83-1.86-1.86-1.86Z"/>
  <path class="cls-1" d="M155.02,70.49c5.38-11.2,10.95-22.79,23.12-22.79,1.02,0,1.86-.83,1.86-1.86s-.83-1.86-1.86-1.86c-14.51,0-20.86,13.23-26.47,24.89-1.32,2.75-2.62,5.46-4,7.94,2.77-7.36,5.05-16.82,7.47-26.9,5.21-21.66,11.11-46.22,22.99-46.22,1.02,0,1.86-.83,1.86-1.86s-.83-1.86-1.86-1.86c-14.8,0-20.8,24.94-26.6,49.06-4.6,19.13-9.36,38.92-17.46,38.92h-4.42c-1.02,0-1.86.83-1.86,1.86v.32c0,1.02.83,1.86,1.86,1.86h4.42c8.11,0,12.86,19.79,17.46,38.92,5.8,24.12,11.8,49.06,26.6,49.06,1.02,0,1.86-.83,1.86-1.86s-.83-1.86-1.86-1.86c-11.88,0-17.78-24.55-22.99-46.22-2.42-10.08-4.7-19.54-7.47-26.9,1.37,2.48,2.68,5.19,4,7.94,5.61,11.67,11.96,24.89,26.47,24.89,1.02,0,1.86-.83,1.86-1.86s-.83-1.86-1.86-1.86c-12.17,0-17.74-11.59-23.12-22.79-3.24-6.74-6.54-13.61-11.36-17.65h34.48c1.02,0,1.86-.83,1.86-1.86s-.83-1.86-1.86-1.86h-34.48c4.82-4.04,8.13-10.92,11.36-17.65Z"/>
  <path class="cls-1" d="M67.8,115.28h44.4c3.58,0,6.49-2.91,6.49-6.49v-31.27c0-3.58-2.91-6.49-6.49-6.49h-3.98v-12.51c0-10.05-8.17-18.22-18.22-18.22s-18.22,8.17-18.22,18.22v12.51h-3.98c-3.58,0-6.49,2.91-6.49,6.49v31.27c0,3.58,2.91,6.49,6.49,6.49ZM75.49,58.51c0-8,6.51-14.51,14.51-14.51s14.51,6.51,14.51,14.51v12.51h-29.02v-12.51ZM65.01,77.52c0-1.53,1.25-2.78,2.78-2.78h44.4c1.53,0,2.78,1.25,2.78,2.78v31.27c0,1.53-1.25,2.78-2.78,2.78h-44.4c-1.53,0-2.78-1.25-2.78-2.78v-31.27Z"/>
  <path class="cls-1" d="M88.14,93.97v4.34c0,1.02.83,1.86,1.86,1.86s1.86-.83,1.86-1.86v-4.34c1.1-.64,1.86-1.83,1.86-3.2,0-2.05-1.66-3.71-3.71-3.71s-3.71,1.66-3.71,3.71c0,1.37.75,2.55,1.86,3.2Z"/>
</svg>