<?xml version="1.0" encoding="UTF-8"?>
<svg id="VPN_Privacy_Transactions" data-name="VPN, Privacy &amp;amp; Transactions" xmlns="http://www.w3.org/2000/svg" viewBox="0 0 180 180">
  <defs>
    <style>
      .cls-1 {
        stroke: #000;
        stroke-miterlimit: 10;
        stroke-width: 2px;
      }
    </style>
  </defs>
  <path class="cls-1" d="M66.99,163.05h-15.56c-1,0-1.81.81-1.81,1.81s.81,1.81,1.81,1.81h15.56c1,0,1.81-.81,1.81-1.81s-.81-1.81-1.81-1.81Z"/>
  <path class="cls-1" d="M99.88,52.03c1,0,1.81-.81,1.81-1.81v-30.32c0-2.99-2.43-5.43-5.43-5.43H22.16c-2.99,0-5.43,2.43-5.43,5.43v128.35c0,2.99,2.43,5.43,5.43,5.43h44.42c1,0,1.81-.81,1.81-1.81s-.81-1.81-1.81-1.81H22.16c-1,0-1.81-.81-1.81-1.81V19.9c0-1,.81-1.81,1.81-1.81h37.24l-16.23,23.16c-.57.82-.38,1.95.44,2.52.32.22.68.33,1.04.33.57,0,1.13-.27,1.48-.77l17.69-25.24h19.73l-44.58,63.6c-.57.82-.37,1.95.44,2.52.32.22.68.33,1.04.33.57,0,1.13-.27,1.48-.77L87.96,18.09h8.3c1,0,1.81.81,1.81,1.81v30.32c0,1,.81,1.81,1.81,1.81Z"/>
  <path class="cls-1" d="M100.18,176.38H14.92c-4.99,0-9.05-4.06-9.05-9.05V12.66c0-4.99,4.06-9.05,9.05-9.05h88.57c4.99,0,9.05,4.06,9.05,9.05v37.56c0,1,.81,1.81,1.81,1.81s1.81-.81,1.81-1.81V12.66c0-6.98-5.68-12.66-12.66-12.66H14.92C7.94,0,2.26,5.68,2.26,12.66v154.67c0,6.98,5.68,12.66,12.66,12.66h85.25c1,0,1.81-.81,1.81-1.81s-.81-1.81-1.81-1.81Z"/>
  <path class="cls-1" d="M177.18,79.47c-.36-.34-.84-.52-1.33-.5,0,0-.56.04-.68.04-8.48,0-15.37-6.9-15.37-15.37,0-.12.04-.67.04-.67.02-.49-.16-.97-.5-1.33-.34-.36-.81-.56-1.31-.56h-62.44c-.49,0-.96.2-1.31.56-.34.36-.52.84-.5,1.33,0,0,.04.56.04.68,0,8.48-6.9,15.37-15.37,15.37-.12,0-.68-.04-.68-.04-.5-.02-.97.16-1.33.5-.36.34-.56.81-.56,1.31v61.19c0,11.4,7.56,15.22,15.56,19.26,1.27.64,34.5,18.55,34.5,18.55.27.14.56.22.86.22s.59-.07.86-.22c0,0,33.23-17.91,34.5-18.55,8-4.04,15.56-7.86,15.56-19.26v-61.19c0-.49-.2-.96-.56-1.31ZM174.12,141.97c0,9.18-5.99,12.2-13.58,16.03-1.29.65-33.73,18.13-33.73,18.13,0,0-32.44-17.48-33.73-18.13-7.59-3.83-13.58-6.85-13.58-16.03v-59.38c9.63-.53,17.37-8.27,17.9-17.9h58.8c.53,9.63,8.27,17.37,17.9,17.9v59.38Z"/>
  <path class="cls-1" d="M111.41,102.95c-.92-.38-1.98.06-2.36.98l-7.73,18.73-7.73-18.73c-.38-.92-1.44-1.37-2.36-.98-.92.38-1.36,1.44-.98,2.36l9.4,22.78c.28.68.94,1.12,1.67,1.12s1.39-.44,1.67-1.12l9.4-22.78c.38-.92-.06-1.98-.98-2.36Z"/>
  <path class="cls-1" d="M128.71,102.82h-6.87c-1,0-1.81.81-1.81,1.81v22.78c0,1,.81,1.81,1.81,1.81s1.81-.81,1.81-1.81v-6.06h5.06c4.79,0,8.68-4.16,8.68-9.26s-3.89-9.26-8.68-9.26ZM128.71,117.72h-5.06v-11.29h5.06c2.79,0,5.06,2.53,5.06,5.65s-2.27,5.65-5.06,5.65Z"/>
  <path class="cls-1" d="M159.91,104.62v16.8l-11.84-17.8c-.44-.66-1.27-.96-2.03-.73-.76.23-1.29.93-1.29,1.73v22.78c0,1,.81,1.81,1.81,1.81s1.81-.81,1.81-1.81v-16.8l11.84,17.8c.34.51.91.81,1.51.81.17,0,.35-.02.52-.08.76-.23,1.29-.93,1.29-1.73v-22.78c0-1-.81-1.81-1.81-1.81s-1.81.81-1.81,1.81Z"/>
</svg>