<?xml version="1.0" encoding="UTF-8"?>
<svg id="VPN_Privacy_Transactions" data-name="VPN, Privacy &amp;amp; Transactions" xmlns="http://www.w3.org/2000/svg" viewBox="0 0 180 180">
  <defs>
    <style>
      .cls-1 {
        stroke: #000;
        stroke-miterlimit: 10;
        stroke-width: 2px;
      }
    </style>
  </defs>
  <path class="cls-1" d="M75.24,135.15c-.9-.37-1.93.06-2.3.96l-7.38,17.89-7.38-17.89c-.37-.9-1.4-1.33-2.3-.96-.9.37-1.33,1.4-.96,2.3l9.01,21.84c.27.66.92,1.09,1.63,1.09s1.36-.43,1.63-1.09l9.01-21.84c.37-.9-.06-1.93-.96-2.3Z"/>
  <path class="cls-1" d="M91.82,135.01h-6.59c-.97,0-1.76.79-1.76,1.76v21.84c0,.97.79,1.76,1.76,1.76s1.76-.79,1.76-1.76v-5.78h4.83c4.61,0,8.36-4,8.36-8.91s-3.75-8.91-8.36-8.91ZM91.82,149.31h-4.83v-10.77h4.83c2.66,0,4.83,2.42,4.83,5.38s-2.17,5.38-4.83,5.38Z"/>
  <path class="cls-1" d="M123.46,135.01c-.97,0-1.76.79-1.76,1.76v16.01l-11.3-16.98c-.43-.65-1.24-.94-1.98-.71-.74.22-1.25.91-1.25,1.69v21.84c0,.97.79,1.76,1.76,1.76s1.76-.79,1.76-1.76v-16.01l11.3,16.98c.33.5.89.79,1.47.79.17,0,.34-.02.51-.08.74-.22,1.25-.91,1.25-1.69v-21.84c0-.97-.79-1.76-1.76-1.76Z"/>
  <path class="cls-1" d="M68.89,99.1h42.23c3.41,0,6.18-2.77,6.18-6.18v-29.74c0-3.41-2.77-6.18-6.18-6.18h-3.79v-11.9c0-9.55-7.77-17.33-17.33-17.33s-17.33,7.77-17.33,17.33v11.9h-3.79c-3.41,0-6.18,2.77-6.18,6.18v29.74c0,3.41,2.77,6.18,6.18,6.18ZM76.2,45.11c0-7.61,6.19-13.8,13.8-13.8s13.8,6.19,13.8,13.8v11.9h-27.6v-11.9ZM66.24,63.19c0-1.46,1.19-2.65,2.65-2.65h42.23c1.46,0,2.65,1.19,2.65,2.65v29.74c0,1.46-1.19,2.65-2.65,2.65h-42.23c-1.46,0-2.65-1.19-2.65-2.65v-29.74Z"/>
  <path class="cls-1" d="M88.24,78.83v4.12c0,.97.79,1.76,1.76,1.76s1.76-.79,1.76-1.76v-4.12c1.05-.61,1.76-1.74,1.76-3.04,0-1.95-1.58-3.53-3.53-3.53s-3.53,1.58-3.53,3.53c0,1.3.71,2.43,1.76,3.04Z"/>
  <path class="cls-1" d="M178.24,2.51h-38c-.97,0-1.76.79-1.76,1.76v38c0,.97.79,1.76,1.76,1.76h17.24v101.89h-15.47v-26.26c0-.97-.79-1.76-1.76-1.76H39.77c-.97,0-1.76.79-1.76,1.76v26.26h-15.47V44.04h17.24c.97,0,1.76-.79,1.76-1.76V4.27c0-.97-.79-1.76-1.76-1.76H1.76c-.97,0-1.76.79-1.76,1.76v38c0,.97.79,1.76,1.76,1.76h17.24v103.66c0,.97.79,1.76,1.76,1.76h17.24v26.26c0,.97.79,1.76,1.76,1.76h100.47c.97,0,1.76-.79,1.76-1.76v-26.26h17.24c.97,0,1.76-.79,1.76-1.76V44.04h17.24c.97,0,1.76-.79,1.76-1.76V4.27c0-.97-.79-1.76-1.76-1.76ZM3.53,6.04h34.47v34.47H3.53V6.04ZM138.47,173.96H41.53v-52.53h96.94v52.53ZM176.47,40.51h-34.47V6.04h34.47v34.47Z"/>
</svg>