<?xml version="1.0" encoding="UTF-8"?>
<svg id="VPN_Privacy_Transactions" data-name="VPN, Privacy &amp;amp; Transactions" xmlns="http://www.w3.org/2000/svg" viewBox="0 0 180 180">
  <defs>
    <style>
      .cls-1 {
        stroke: #000;
        stroke-miterlimit: 10;
        stroke-width: 2px;
      }
    </style>
  </defs>
  <path class="cls-1" d="M30.93,157.24c.27.66.92,1.09,1.63,1.09s1.36-.43,1.63-1.09l10.26-24.86c.37-.9-.06-1.93-.96-2.3-.9-.37-1.93.06-2.3.96l-8.63,20.91-8.63-20.91c-.37-.9-1.4-1.33-2.3-.96-.9.37-1.33,1.4-.96,2.3l10.26,24.86Z"/>
  <path class="cls-1" d="M54.95,158.33c.97,0,1.76-.79,1.76-1.76v-6.82h5.74c5.11,0,9.27-4.44,9.27-9.9s-4.16-9.9-9.27-9.9h-7.5c-.97,0-1.76.79-1.76,1.76v24.86c0,.97.79,1.76,1.76,1.76ZM68.19,139.84c0,3.51-2.57,6.37-5.74,6.37h-5.74v-12.74h5.74c3.16,0,5.74,2.86,5.74,6.37Z"/>
  <path class="cls-1" d="M81.93,158.33c.97,0,1.76-.79,1.76-1.76v-19.02l13.31,20c.33.5.89.79,1.47.79.17,0,.34-.02.51-.08.74-.23,1.25-.91,1.25-1.69v-24.86c0-.97-.79-1.76-1.76-1.76s-1.76.79-1.76,1.76v19.02l-13.31-20c-.43-.65-1.24-.94-1.98-.71-.74.23-1.25.91-1.25,1.69v24.86c0,.97.79,1.76,1.76,1.76Z"/>
  <path class="cls-1" d="M1.76,97.36h14.1c7.34,0,9.97-9.99,10.1-10.47,1.44-6.46,2.59-12.56,3.6-17.95,3.23-17.16,5.36-28.5,11.99-28.5s8.76,11.34,11.99,28.5c1.01,5.39,2.16,11.49,3.61,18,.11.43,2.75,10.41,10.08,10.41h23.11c9.42,0,12.79-15.72,12.94-16.43,1.24-6.89,2.36-13.42,3.44-19.73,5.72-33.48,9.86-57.67,20.35-57.67s14.62,24.19,20.35,57.68c1.08,6.31,2.19,12.84,3.45,19.77.14.67,3.51,16.39,12.93,16.39h14.43c.97,0,1.76-.79,1.76-1.76s-.79-1.76-1.76-1.76h-14.43c-5.45,0-8.69-9.8-9.47-13.53-1.24-6.87-2.35-13.39-3.43-19.69C144.67,24.11,140.54,0,127.08,0s-17.59,24.11-23.82,60.61c-1.08,6.31-2.19,12.83-3.43,19.65-.79,3.78-4.03,13.57-9.47,13.57h-23.11c-4.53,0-6.64-7.68-6.65-7.7-1.42-6.4-2.57-12.47-3.58-17.83-3.55-18.89-5.9-31.38-15.46-31.38s-11.91,12.48-15.46,31.37c-1.01,5.36-2.15,11.44-3.56,17.78-.02.08-2.11,7.76-6.66,7.76H1.76c-.97,0-1.76.79-1.76,1.76s.79,1.76,1.76,1.76Z"/>
  <path class="cls-1" d="M178.24,108.27H1.76c-.97,0-1.76.79-1.76,1.76v68.2c0,.97.79,1.76,1.76,1.76h176.47c.97,0,1.76-.79,1.76-1.76v-68.2c0-.97-.79-1.76-1.76-1.76ZM176.47,176.47H3.53v-64.67h172.94v64.67Z"/>
  <path class="cls-1" d="M128.22,147.66c1.95,0,3.53-1.58,3.53-3.53s-1.58-3.53-3.53-3.53-3.53,1.58-3.53,3.53,1.58,3.53,3.53,3.53Z"/>
  <path class="cls-1" d="M128.22,156.49h21.18c6.81,0,12.35-5.54,12.35-12.35s-5.54-12.35-12.35-12.35h-21.18c-6.81,0-12.35,5.54-12.35,12.35s5.54,12.35,12.35,12.35ZM128.22,135.31h21.18c4.86,0,8.82,3.96,8.82,8.82s-3.96,8.82-8.82,8.82h-21.18c-4.86,0-8.82-3.96-8.82-8.82s3.96-8.82,8.82-8.82Z"/>
</svg>