<?xml version="1.0" encoding="UTF-8"?>
<svg id="VPN_Privacy_Transactions" data-name="VPN, Privacy &amp;amp; Transactions" xmlns="http://www.w3.org/2000/svg" viewBox="0 0 180 180">
  <defs>
    <style>
      .cls-1 {
        stroke: #000;
        stroke-miterlimit: 10;
        stroke-width: 2px;
      }
    </style>
  </defs>
  <path class="cls-1" d="M112.79,45.99c0-15.16-10.22-27.5-22.79-27.5s-22.79,12.34-22.79,27.5,10.22,27.5,22.79,27.5,22.79-12.34,22.79-27.5ZM90,69.33c-10.27,0-18.63-10.47-18.63-23.34s8.36-23.34,18.63-23.34,18.63,10.47,18.63,23.34-8.36,23.34-18.63,23.34Z"/>
  <path class="cls-1" d="M159.33,58.85c1.15,0,2.08-.93,2.08-2.08v-25.26c0-1.15-.93-2.08-2.08-2.08-4.89,0-8.86-3.97-8.86-8.86,0-1.15-.93-2.08-2.08-2.08h-26.46c-1.15,0-2.08.93-2.08,2.08s.93,2.08,2.08,2.08h24.55c.89,5.52,5.26,9.88,10.77,10.77v23.35c0,1.15.93,2.08,2.08,2.08Z"/>
  <path class="cls-1" d="M33.53,22.65h24.55c1.15,0,2.08-.93,2.08-2.08s-.93-2.08-2.08-2.08h-26.46c-1.15,0-2.08.93-2.08,2.08,0,4.88-3.97,8.86-8.86,8.86-1.15,0-2.08.93-2.08,2.08v28.96c0,1.15.93,2.08,2.08,2.08,4.89,0,8.86,3.97,8.86,8.86,0,1.15.93,2.08,2.08,2.08h26.46c1.15,0,2.08-.93,2.08-2.08s-.93-2.08-2.08-2.08h-24.55c-.89-5.52-5.26-9.88-10.77-10.77v-25.13c5.52-.89,9.88-5.26,10.77-10.77Z"/>
  <path class="cls-1" d="M70.77,114.4H20.67c-1.15,0-2.08.93-2.08,2.08s.93,2.08,2.08,2.08h50.1c1.15,0,2.08-.93,2.08-2.08s-.93-2.08-2.08-2.08Z"/>
  <path class="cls-1" d="M62.68,138.66c0-1.15-.93-2.08-2.08-2.08H10.5c-1.15,0-2.08.93-2.08,2.08s.93,2.08,2.08,2.08h50.1c1.15,0,2.08-.93,2.08-2.08Z"/>
  <path class="cls-1" d="M70.77,158.77H20.67c-1.15,0-2.08.93-2.08,2.08s.93,2.08,2.08,2.08h50.1c1.15,0,2.08-.93,2.08-2.08s-.93-2.08-2.08-2.08Z"/>
  <path class="cls-1" d="M173.18,95.85c.81-.81.81-2.13,0-2.94-.81-.81-2.13-.81-2.94,0l-5.6,5.6c-5.58-5.11-12.38-8.89-19.92-10.84v-5.3l5-3.09c.61-.38.99-1.05.99-1.77v-10.57c0-1.15-.93-2.08-2.08-2.08h-31.27c-1.15,0-2.08.93-2.08,2.08v10.57c0,.72.37,1.39.99,1.77l5,3.09v5.3c-7.54,1.95-14.35,5.73-19.92,10.84l-5.6-5.6c-.81-.81-2.13-.81-2.94,0-.81.81-.81,2.13,0,2.94l5.6,5.6c-7.64,8.35-12.32,19.46-12.32,31.65,0,25.86,21.04,46.91,46.91,46.91s46.91-21.04,46.91-46.91c0-12.19-4.67-23.3-12.32-31.65l5.6-5.6ZM124.44,79.44l-5-3.09v-7.33h27.11v7.33l-5,3.09c-.61.38-.99,1.05-.99,1.77v5.6c-2.46-.4-4.99-.62-7.56-.62s-5.1.22-7.56.62v-5.6c0-.72-.37-1.39-.99-1.77ZM132.99,175.84c-23.57,0-42.75-19.18-42.75-42.75s19.18-42.75,42.75-42.75,42.75,19.18,42.75,42.75-19.18,42.75-42.75,42.75Z"/>
  <path class="cls-1" d="M177.82,0H2.18C1.04,0,.1.93.1,2.08v88.02c0,1.15.93,2.08,2.08,2.08h76.48c1.15,0,2.08-.93,2.08-2.08s-.93-2.08-2.08-2.08H4.26V4.16h171.47v75.54c0,1.15.93,2.08,2.08,2.08s2.08-.93,2.08-2.08V2.08c0-1.15-.93-2.08-2.08-2.08Z"/>
  <path class="cls-1" d="M132.99,105.96c-1.15,0-2.08.93-2.08,2.08v25.05c0,1.15.93,2.08,2.08,2.08s2.08-.93,2.08-2.08v-25.05c0-1.15-.93-2.08-2.08-2.08Z"/>
</svg>