<?xml version="1.0" encoding="UTF-8"?>
<svg id="VPN_Privacy_Transactions" data-name="VPN, Privacy &amp;amp; Transactions" xmlns="http://www.w3.org/2000/svg" viewBox="0 0 180 180">
  <defs>
    <style>
      .cls-1 {
        stroke: #000;
        stroke-miterlimit: 10;
        stroke-width: 2px;
      }
    </style>
  </defs>
  <path class="cls-1" d="M91.76,111.52v-12.25c0-.97-.79-1.76-1.76-1.76s-1.76.79-1.76,1.76v12.25c-13.71.91-24.58,12.35-24.58,26.28,0,22.42,24.25,41.06,25.28,41.84.32.24.69.36,1.07.36s.75-.12,1.07-.36c1.03-.78,25.28-19.42,25.28-41.84,0-13.93-10.88-25.37-24.58-26.28ZM90,175.97c-4.64-3.84-22.82-20.03-22.82-38.17,0-12.58,10.24-22.82,22.82-22.82s22.82,10.24,22.82,22.82c0,18.11-18.18,34.33-22.82,38.17Z"/>
  <path class="cls-1" d="M90,125.01c-7.05,0-12.79,5.74-12.79,12.79s5.74,12.79,12.79,12.79,12.79-5.74,12.79-12.79-5.74-12.79-12.79-12.79ZM90,147.06c-5.11,0-9.26-4.15-9.26-9.26s4.15-9.26,9.26-9.26,9.26,4.16,9.26,9.26-4.15,9.26-9.26,9.26Z"/>
  <path class="cls-1" d="M64.2,73.36c.92.46,24.96,13.42,24.96,13.42.26.14.55.21.84.21s.58-.07.84-.21c0,0,24.04-12.96,24.96-13.42,5.66-2.86,11.52-5.81,11.52-14.35V14.72c0-.48-.2-.94-.54-1.27-.35-.33-.81-.51-1.3-.49,0,0-.4.03-.47.03-5.88,0-10.67-4.79-10.67-10.67,0-.07.03-.47.03-.47.02-.48-.16-.95-.49-1.3C113.54.2,113.08,0,112.6,0h-45.19c-.48,0-.94.2-1.27.54-.33.35-.51.82-.49,1.3,0,0,.03.4.03.47,0,5.88-4.79,10.67-10.67,10.67-.07,0-.47-.03-.47-.03-.47-.02-.95.16-1.3.49-.35.33-.54.79-.54,1.27v44.29c0,8.53,5.85,11.49,11.52,14.35ZM56.22,16.46c6.86-.59,12.34-6.07,12.93-12.93h41.71c.59,6.86,6.07,12.34,12.93,12.93v42.55c0,6.36-4.02,8.39-9.58,11.2-.94.48-24.21,13.01-24.21,13.01,0,0-23.26-12.53-24.21-13.01-5.56-2.81-9.58-4.84-9.58-11.2V16.46Z"/>
  <path class="cls-1" d="M67.7,59.26c.86.49,21.46,11.47,21.46,11.47.26.14.55.21.84.21s.58-.07.84-.21c0,0,20.61-10.99,21.46-11.47.56-.31.9-.9.9-1.54V25.12c0-.62-.33-1.2-.86-1.52-3.54-2.11-6.52-5.1-8.63-8.63-.32-.53-.89-.86-1.51-.86h-24.38c-.62,0-1.2.33-1.51.86-2.11,3.54-5.1,6.52-8.63,8.63-.53.32-.86.89-.86,1.52v32.6c0,.64.34,1.22.9,1.54ZM70.33,26.11c3.38-2.18,6.27-5.08,8.46-8.46h22.42c2.19,3.38,5.08,6.27,8.46,8.46v30.57c-.6.31-19.67,10.5-19.67,10.5,0,0-19.06-10.18-19.67-10.5v-30.57Z"/>
  <path class="cls-1" d="M43.5,117.82l23.11-30.9c.58-.78.42-1.89-.36-2.47-.78-.59-1.89-.42-2.47.36l-23.11,30.9c-4.13-2.68-9.04-4.25-14.32-4.25-14.53,0-26.35,11.82-26.35,26.35,0,22.42,24.25,41.06,25.28,41.84.32.24.69.36,1.07.36s.75-.12,1.07-.36c1.03-.78,25.28-19.42,25.28-41.84,0-7.98-3.57-15.15-9.2-19.98ZM26.35,175.97c-4.64-3.84-22.82-20.06-22.82-38.17,0-12.58,10.24-22.82,22.82-22.82s22.82,10.24,22.82,22.82c0,18.11-18.18,34.33-22.82,38.17Z"/>
  <path class="cls-1" d="M26.35,125.01c-7.05,0-12.79,5.74-12.79,12.79s5.74,12.79,12.79,12.79,12.79-5.74,12.79-12.79-5.74-12.79-12.79-12.79ZM26.35,147.06c-5.11,0-9.26-4.15-9.26-9.26s4.15-9.26,9.26-9.26,9.26,4.16,9.26,9.26-4.16,9.26-9.26,9.26Z"/>
  <path class="cls-1" d="M1.76,33.45h40.33c.97,0,1.76-.79,1.76-1.76s-.79-1.76-1.76-1.76H1.76c-.97,0-1.76.79-1.76,1.76s.79,1.76,1.76,1.76Z"/>
  <path class="cls-1" d="M1.76,47.56h40.33c.97,0,1.76-.79,1.76-1.76s-.79-1.76-1.76-1.76H1.76c-.97,0-1.76.79-1.76,1.76s.79,1.76,1.76,1.76Z"/>
  <path class="cls-1" d="M137.9,33.45h40.33c.97,0,1.76-.79,1.76-1.76s-.79-1.76-1.76-1.76h-40.33c-.97,0-1.76.79-1.76,1.76s.79,1.76,1.76,1.76Z"/>
  <path class="cls-1" d="M178.24,44.03h-40.33c-.97,0-1.76.79-1.76,1.76s.79,1.76,1.76,1.76h40.33c.97,0,1.76-.79,1.76-1.76s-.79-1.76-1.76-1.76Z"/>
  <path class="cls-1" d="M153.65,111.45c-5.28,0-10.2,1.57-14.32,4.25l-23.11-30.9c-.58-.78-1.69-.94-2.47-.36-.78.58-.94,1.69-.36,2.47l23.11,30.9c-5.63,4.84-9.2,12-9.2,19.98,0,22.42,24.25,41.06,25.28,41.84.32.24.69.36,1.07.36s.75-.12,1.07-.36c1.03-.78,25.28-19.42,25.28-41.84,0-14.53-11.82-26.35-26.35-26.35ZM153.65,175.97c-4.64-3.84-22.82-20.03-22.82-38.17,0-12.58,10.24-22.82,22.82-22.82s22.82,10.24,22.82,22.82c0,18.11-18.18,34.33-22.82,38.17Z"/>
  <path class="cls-1" d="M153.65,125.01c-7.05,0-12.79,5.74-12.79,12.79s5.74,12.79,12.79,12.79,12.79-5.74,12.79-12.79-5.74-12.79-12.79-12.79ZM153.65,147.06c-5.11,0-9.26-4.15-9.26-9.26s4.16-9.26,9.26-9.26,9.26,4.16,9.26,9.26-4.15,9.26-9.26,9.26Z"/>
</svg>