<?xml version="1.0" encoding="UTF-8"?>
<svg id="VPN_Privacy_Transactions" data-name="VPN, Privacy &amp;amp; Transactions" xmlns="http://www.w3.org/2000/svg" viewBox="0 0 180 180">
  <defs>
    <style>
      .cls-1 {
        stroke: #000;
        stroke-miterlimit: 10;
        stroke-width: 2px;
      }
    </style>
  </defs>
  <path class="cls-1" d="M73.01,129.89c-.9-.37-1.93.06-2.3.96l-8.68,21.04-8.68-21.04c-.37-.9-1.4-1.33-2.3-.96-.9.37-1.33,1.4-.96,2.3l10.31,24.99c.27.66.92,1.09,1.63,1.09s1.36-.43,1.63-1.09l10.31-24.99c.37-.9-.06-1.93-.96-2.3Z"/>
  <path class="cls-1" d="M92.08,129.75h-7.54c-.97,0-1.76.79-1.76,1.76v24.99c0,.97.79,1.76,1.76,1.76s1.76-.79,1.76-1.76v-6.87h5.78c5.13,0,9.31-4.46,9.31-9.94s-4.17-9.94-9.31-9.94ZM92.08,146.11h-5.78v-12.83h5.78c3.18,0,5.78,2.88,5.78,6.41s-2.59,6.41-5.78,6.41Z"/>
  <path class="cls-1" d="M128.29,129.75c-.97,0-1.76.79-1.76,1.76v19.15l-13.4-20.13c-.43-.65-1.24-.94-1.98-.71-.74.23-1.25.91-1.25,1.69v24.99c0,.97.79,1.76,1.76,1.76s1.76-.79,1.76-1.76v-19.15l13.4,20.13c.33.5.89.79,1.47.79.17,0,.34-.02.51-.08.74-.23,1.25-.91,1.25-1.69v-24.99c0-.97-.79-1.76-1.76-1.76Z"/>
  <path class="cls-1" d="M16.03,74.02c3.12,6.59,8.93,12.04,14.81,13.9,14.31,4.52,25.31.51,34.15-2.71,9.98-3.63,16.57-6.04,23.56,4.14.33.48.87.77,1.45.77s1.13-.29,1.45-.77c6.99-10.18,13.58-7.77,23.56-4.14,8.84,3.22,19.84,7.23,34.15,2.71,5.88-1.86,11.69-7.31,14.81-13.9,2.23-4.71,4.15-12.1,1-20.93,10.53-10.49,15.57-20.8,14.98-30.66-.69-11.68-9.09-18.22-9.44-18.5-.4-.31-.92-.43-1.42-.33-.5.1-.93.41-1.18.85-.32.56-8.15,13.71-29.53,13.74-31.5-2.22-44.32,9.26-48.38,14.33-4.07-5.07-16.88-16.55-48.38-14.33-21.38-.03-29.2-13.18-29.52-13.74-.25-.44-.68-.76-1.18-.86-.5-.1-1.02.02-1.42.33C9.13,4.21.74,10.75.05,22.43c-.59,9.86,4.45,20.17,14.98,30.66-3.15,8.83-1.23,16.22,1,20.93ZM3.57,22.7c.42-7.35,4.5-12.45,6.69-14.69,3.13,4.1,12.48,13.72,31.42,13.72.03-.02.08,0,.13,0,36.87-2.62,46.54,14.56,46.63,14.72.3.58.91.95,1.56.95s1.26-.36,1.56-.95c.09-.17,9.52-17.36,46.63-14.72.04,0,.09-.01.13,0,18.95,0,28.3-9.63,31.43-13.73,2.19,2.21,6.24,7.27,6.68,14.64.54,9.04-4.42,18.71-14.74,28.73-.51.5-.67,1.26-.41,1.92,3.26,8.14,1.53,14.94-.5,19.21-2.72,5.74-7.7,10.47-12.68,12.04-13.16,4.16-23.1.54-31.88-2.66-4.77-1.74-9.24-3.36-13.51-3.36s-8.61,1.73-12.72,6.86c-8.09-10.1-16.54-7.02-26.22-3.49-8.77,3.19-18.71,6.81-31.88,2.66-4.99-1.57-9.96-6.3-12.68-12.04-2.02-4.27-3.75-11.08-.5-19.21.27-.66.1-1.42-.41-1.92C8.01,41.37,3.05,31.72,3.57,22.7Z"/>
  <path class="cls-1" d="M54.03,63.65c11.08,0,19.76-5.67,19.76-12.91s-8.68-12.91-19.76-12.91-19.76,5.67-19.76,12.91,8.68,12.91,19.76,12.91ZM54.03,41.36c8.8,0,16.23,4.3,16.23,9.38s-7.43,9.38-16.23,9.38-16.23-4.3-16.23-9.38,7.43-9.38,16.23-9.38Z"/>
  <path class="cls-1" d="M125.97,63.65c11.08,0,19.76-5.67,19.76-12.91s-8.68-12.91-19.76-12.91-19.76,5.67-19.76,12.91,8.68,12.91,19.76,12.91ZM125.97,41.36c8.8,0,16.23,4.3,16.23,9.38s-7.43,9.38-16.23,9.38-16.23-4.3-16.23-9.38,7.43-9.38,16.23-9.38Z"/>
  <path class="cls-1" d="M143.17,111.6H36.83c-17.87,0-32.41,14.54-32.41,32.41s14.54,32.41,32.41,32.41h106.35c17.87,0,32.41-14.54,32.41-32.41s-14.54-32.41-32.41-32.41ZM143.17,172.9H36.83c-15.93,0-28.88-12.96-28.88-28.88s12.96-28.89,28.88-28.89h106.35c15.93,0,28.89,12.96,28.89,28.89s-12.96,28.88-28.89,28.88Z"/>
</svg>