<?xml version="1.0" encoding="UTF-8"?>
<svg id="VPN_Privacy_Transactions" data-name="VPN, Privacy &amp;amp; Transactions" xmlns="http://www.w3.org/2000/svg" viewBox="0 0 180 180">
  <defs>
    <style>
      .cls-1 {
        stroke: #000;
        stroke-miterlimit: 10;
        stroke-width: 2px;
      }
    </style>
  </defs>
  <path class="cls-1" d="M73.47,45.15c-.9-.37-1.93.06-2.3.96l-8.41,20.39-8.41-20.39c-.37-.9-1.4-1.33-2.3-.96-.9.37-1.33,1.4-.96,2.3l10.04,24.34c.27.66.92,1.09,1.63,1.09s1.36-.43,1.63-1.09l10.04-24.34c.37-.9-.06-1.93-.96-2.3Z"/>
  <path class="cls-1" d="M84.68,72.89c.97,0,1.76-.79,1.76-1.76v-6.65h5.58c5.02,0,9.11-4.37,9.11-9.73s-4.09-9.73-9.11-9.73h-7.34c-.97,0-1.76.79-1.76,1.76v24.34c0,.97.79,1.76,1.76,1.76ZM97.6,54.75c0,3.42-2.5,6.2-5.58,6.2h-5.58v-12.4h5.58c3.08,0,5.58,2.78,5.58,6.2Z"/>
  <path class="cls-1" d="M111.09,72.89c.97,0,1.76-.79,1.76-1.76v-18.5l12.96,19.48c.33.5.89.79,1.47.79.17,0,.34-.02.51-.08.74-.22,1.25-.91,1.25-1.69v-24.34c0-.97-.79-1.76-1.76-1.76s-1.76.79-1.76,1.76v18.5l-12.96-19.48c-.43-.65-1.24-.94-1.98-.71-.74.22-1.25.91-1.25,1.69v24.34c0,.97.79,1.76,1.76,1.76Z"/>
  <path class="cls-1" d="M178.24,143.89h-32.58c-.97,0-1.76.79-1.76,1.76v14.53h-27.74v-30.7c0-.97-.79-1.76-1.76-1.76h-13.79v-35.95h45.33c18.79,0,34.08-15.29,34.08-34.08s-15.29-34.08-34.08-34.08c-4.91,0-9.79,1.07-14.23,3.11C124.2,10.42,108.04,0,90,0s-34.2,10.42-41.69,26.71c-4.44-2.04-9.32-3.11-14.23-3.11C15.29,23.6,0,38.89,0,57.68s15.29,34.08,34.08,34.08h45.33v35.95h-13.79c-.97,0-1.76.79-1.76,1.76v30.7h-27.74v-14.53c0-.97-.79-1.76-1.76-1.76H1.76c-.97,0-1.76.79-1.76,1.76v32.58c0,.97.79,1.76,1.76,1.76h32.58c.97,0,1.76-.79,1.76-1.76v-14.53h27.74v14.53c0,.97.79,1.76,1.76,1.76h48.76c.97,0,1.76-.79,1.76-1.76v-14.53h27.74v14.53c0,.97.79,1.76,1.76,1.76h32.58c.97,0,1.76-.79,1.76-1.76v-32.58c0-.97-.79-1.76-1.76-1.76ZM32.58,176.47H3.53v-29.05h29.05v29.05ZM3.53,57.68c0-16.85,13.71-30.55,30.55-30.55,4.97,0,9.91,1.23,14.28,3.54.44.23.96.27,1.43.1.47-.17.84-.53,1.03-.99,6.56-15.95,21.94-26.25,39.18-26.25s32.61,10.3,39.18,26.25c.19.46.56.82,1.03.99.47.17.99.13,1.43-.1,4.37-2.32,9.31-3.54,14.28-3.54,16.85,0,30.55,13.71,30.55,30.55s-13.71,30.55-30.55,30.55H34.08c-16.85,0-30.55-13.71-30.55-30.55ZM82.94,91.76h14.12v35.95h-14.12v-35.95ZM112.62,176.47h-45.23v-45.23h45.23v45.23ZM176.47,176.47h-29.05v-29.05h29.05v29.05Z"/>
</svg>