<?xml version="1.0" encoding="UTF-8"?>
<svg id="VPN_Privacy_Transactions" data-name="VPN, Privacy &amp;amp; Transactions" xmlns="http://www.w3.org/2000/svg" viewBox="0 0 180 180">
  <defs>
    <style>
      .cls-1 {
        stroke: #000;
        stroke-miterlimit: 10;
        stroke-width: 2px;
      }
    </style>
  </defs>
  <path class="cls-1" d="M73.38,102.12H8.74c-4.34,0-7.86,3.53-7.86,7.86v40.76c0,4.34,3.53,7.86,7.86,7.86h22.87v8.22l-10.54,4.82c-.62.28-1.02.91-1.02,1.59v5.01c0,.97.78,1.75,1.75,1.75h38.55c.97,0,1.75-.78,1.75-1.75v-5.01c0-.68-.4-1.3-1.02-1.59l-10.54-4.82v-8.22h22.87c4.34,0,7.86-3.53,7.86-7.86v-40.76c0-4.34-3.53-7.86-7.86-7.86ZM48.04,169.55l10.54,4.82v2.14H23.53v-2.14l10.54-4.82c.62-.28,1.02-.91,1.02-1.59v-9.35h11.92v9.35c0,.68.4,1.3,1.02,1.59ZM77.75,150.75c0,2.41-1.96,4.37-4.37,4.37H8.74c-2.41,0-4.37-1.96-4.37-4.37v-40.76c0-2.41,1.96-4.37,4.37-4.37h64.65c2.41,0,4.37,1.96,4.37,4.37v40.76Z"/>
  <path class="cls-1" d="M41.56,0C19.68,0,1.88,17.8,1.88,39.69s17.8,39.69,39.69,39.69,39.69-17.8,39.69-39.69S63.45,0,41.56,0ZM77.71,37.94h-13.35c-.33-14.01-4.66-25.93-11.1-32.49,13.71,4.7,23.73,17.39,24.45,32.49ZM39.82,3.65v34.29h-17.56c.46-18.06,8.02-32.68,17.56-34.29ZM39.82,41.43v34.29c-9.54-1.61-17.1-16.23-17.56-34.29h17.56ZM43.31,75.72v-34.29h17.56c-.46,18.06-8.02,32.68-17.56,34.29ZM43.31,37.94V3.65c9.54,1.61,17.1,16.23,17.56,34.29h-17.56ZM29.87,5.45c-6.44,6.56-10.77,18.48-11.1,32.49H5.42c.72-15.1,10.74-27.8,24.45-32.49ZM5.42,41.43h13.35c.33,14.01,4.66,25.93,11.1,32.49-13.71-4.7-23.73-17.39-24.45-32.49ZM53.26,73.93c6.44-6.56,10.77-18.48,11.1-32.49h13.35c-.72,15.1-10.74,27.8-24.45,32.49Z"/>
  <path class="cls-1" d="M177.38,100.37h-49.94c-.97,0-1.75.78-1.75,1.75v74.38c0,.97.78,1.75,1.75,1.75h49.94c.97,0,1.75-.78,1.75-1.75v-74.38c0-.97-.78-1.75-1.75-1.75ZM129.18,128.66h46.45v21.3h-46.45v-21.3ZM129.18,103.87h46.45v21.3h-46.45v-21.3ZM175.63,174.76h-46.45v-21.3h46.45v21.3Z"/>
  <path class="cls-1" d="M97.38,128.29h-7.38c-.97,0-1.75.78-1.75,1.75s.78,1.75,1.75,1.75h7.38c.97,0,1.75-.78,1.75-1.75s-.78-1.75-1.75-1.75Z"/>
  <path class="cls-1" d="M116.13,128.29h-7.38c-.97,0-1.75.78-1.75,1.75s.78,1.75,1.75,1.75h7.38c.97,0,1.75-.78,1.75-1.75s-.78-1.75-1.75-1.75Z"/>
  <path class="cls-1" d="M111.81,39.69c0-.97-.78-1.75-1.75-1.75h-8.21c-.97,0-1.75.78-1.75,1.75s.78,1.75,1.75,1.75h8.21c.97,0,1.75-.78,1.75-1.75Z"/>
  <path class="cls-1" d="M132.68,39.69c0-.97-.78-1.75-1.75-1.75h-8.21c-.97,0-1.75.78-1.75,1.75s.78,1.75,1.75,1.75h8.21c.97,0,1.75-.78,1.75-1.75Z"/>
  <path class="cls-1" d="M143.59,41.43h6.46v6.38c0,.97.78,1.75,1.75,1.75s1.75-.78,1.75-1.75v-8.13c0-.97-.78-1.75-1.75-1.75h-8.21c-.97,0-1.75.78-1.75,1.75s.78,1.75,1.75,1.75Z"/>
  <path class="cls-1" d="M153.55,60.34c0-.97-.78-1.75-1.75-1.75s-1.75.78-1.75,1.75v8.13c0,.97.78,1.75,1.75,1.75s1.75-.78,1.75-1.75v-8.13Z"/>
  <path class="cls-1" d="M151.8,79.25c-.97,0-1.75.78-1.75,1.75v8.13c0,.97.78,1.75,1.75,1.75s1.75-.78,1.75-1.75v-8.13c0-.97-.78-1.75-1.75-1.75Z"/>
</svg>