<?xml version="1.0" encoding="UTF-8"?>
<svg id="Home_Improvement_Tools" data-name="Home Improvement &amp;amp; Tools" xmlns="http://www.w3.org/2000/svg" viewBox="0 0 180 180">
  <defs>
    <style>
      .cls-1 {
        stroke: #000;
        stroke-miterlimit: 10;
        stroke-width: 2px;
      }
    </style>
  </defs>
  <path class="cls-1" d="M179.18,51s0,0,.01,0c-16.06-10.71-32.26-18.58-58.5-22.01l-13.38-12.74c-.34-.32-.79-.5-1.26-.5h-32.09c-.47,0-.92.18-1.26.5l-13.38,12.74c-26.25,3.43-42.45,11.3-58.5,22.01-.02.01-.03.03-.04.04C.3,51.37,0,51.91,0,52.52v40.8c0,.13.02.27.04.4,1.73,7.66,12.46,12.74,21.51,14.88,6.16,32.18,34.5,56.58,68.44,56.58s62.29-24.4,68.45-56.58c9.05-2.15,19.78-7.23,21.51-14.88.03-.13.04-.28.04-.41v-40.79c0-.63-.33-1.19-.82-1.52ZM176.02,53.26c-2.12,4.93-10.37,9.07-18.31,10.96l-32.45-30.9c22.04,3.56,36.56,10.59,50.76,19.93ZM22.29,64.23c-7.94-1.89-16.19-6.04-18.31-10.96,14.2-9.34,28.72-16.37,50.76-19.93l-32.45,30.9ZM3.65,93.1v-34.11c4.25,4.23,11.22,7.02,16.65,8.48v28.02c0,3.12.23,6.18.63,9.2-7.82-2.12-15.94-6.37-17.28-11.58ZM156.06,95.49c0,36.42-29.63,66.06-66.06,66.06S23.94,131.91,23.94,95.49v-27.8l50.74-48.31h30.63l50.74,48.31v27.8ZM176.35,93.1c-1.34,5.21-9.46,9.46-17.28,11.58.4-3.01.63-6.08.63-9.2v-28.02c5.43-1.46,12.4-4.25,16.65-8.48v34.11Z"/>
  <path class="cls-1" d="M56.09,108.74c0,18.7,15.21,33.91,33.91,33.91s33.91-15.21,33.91-33.91-15.21-33.91-33.91-33.91-33.91,15.21-33.91,33.91ZM88.18,78.53v17.69h-25.72c4.53-9.93,14.28-17.01,25.72-17.69ZM120.27,108.74c0,3.09-.47,6.07-1.33,8.87h-27.12v-17.75h27.12c.86,2.81,1.33,5.79,1.33,8.87ZM88.18,117.62h-27.12c-.86-2.81-1.33-5.79-1.33-8.87s.47-6.07,1.33-8.87h27.12v17.75ZM62.45,121.26h25.72v17.69c-11.44-.68-21.19-7.75-25.72-17.69ZM91.82,138.95v-17.69h25.72c-4.53,9.93-14.28,17-25.72,17.69ZM117.55,96.22h-25.72v-17.69c11.44.68,21.19,7.75,25.72,17.69Z"/>
  <path class="cls-1" d="M72.76,60.68c1.01,0,1.82-.82,1.82-1.82v-10.77c0-1.01-.82-1.82-1.82-1.82s-1.82.82-1.82,1.82v10.77c0,1.01.82,1.82,1.82,1.82Z"/>
  <path class="cls-1" d="M90,60.68c1.01,0,1.82-.82,1.82-1.82v-10.77c0-1.01-.82-1.82-1.82-1.82s-1.82.82-1.82,1.82v10.77c0,1.01.82,1.82,1.82,1.82Z"/>
  <path class="cls-1" d="M107.24,60.68c1.01,0,1.82-.82,1.82-1.82v-10.77c0-1.01-.82-1.82-1.82-1.82s-1.82.82-1.82,1.82v10.77c0,1.01.82,1.82,1.82,1.82Z"/>
</svg>