<?xml version="1.0" encoding="UTF-8"?>
<svg id="Home_Improvement_Tools" data-name="Home Improvement &amp;amp; Tools" xmlns="http://www.w3.org/2000/svg" viewBox="0 0 180 180">
  <defs>
    <style>
      .cls-1 {
        stroke: #000;
        stroke-miterlimit: 10;
        stroke-width: 2px;
      }
    </style>
  </defs>
  <path class="cls-1" d="M179.98,22.5l-1.72-13.24c-.13-1.03-1.09-1.75-2.1-1.62L1.64,30.37c-.49.06-.94.32-1.25.72s-.44.89-.37,1.39l1.72,13.24c.12.95.93,1.63,1.86,1.63.08,0,.16,0,.25-.02l174.52-22.72c.49-.06.94-.32,1.25-.72s.44-.89.37-1.39ZM5.22,43.36l-1.24-9.52L174.78,11.61l1.24,9.52L5.22,43.36Z"/>
  <path class="cls-1" d="M170.72,54.92h-4.55v-2.98c0-1.04-.84-1.88-1.88-1.88s-1.88.84-1.88,1.88v2.98H20.47v-2.98c0-1.04-.84-1.88-1.88-1.88s-1.88.84-1.88,1.88v2.98h-4.55c-1.04,0-1.88.84-1.88,1.88v87.7c0,1.04.84,1.88,1.88,1.88h7.15l4.4,25.37c.16.9.94,1.56,1.85,1.56h6.49c.91,0,1.69-.66,1.85-1.56l4.4-25.37h106.29l4.4,25.37c.16.9.94,1.56,1.85,1.56h6.49c.91,0,1.69-.66,1.85-1.56l4.4-25.37h7.15c1.04,0,1.88-.84,1.88-1.88V56.8c0-1.04-.84-1.88-1.88-1.88ZM14.04,58.68h75.52v83.94H14.04V58.68ZM30.47,169.54h-3.33l-4.02-23.17h11.36l-4.02,23.17ZM155.74,169.54h-3.33l-4.02-23.17h11.36l-4.02,23.17ZM168.85,142.62h-75.52V58.68h75.52v83.94Z"/>
  <path class="cls-1" d="M79.67,111.81c1.04,0,1.88-.84,1.88-1.88v-13.55c0-1.04-.84-1.88-1.88-1.88s-1.88.84-1.88,1.88v13.55c0,1.04.84,1.88,1.88,1.88Z"/>
  <path class="cls-1" d="M103.21,94.5c-1.04,0-1.88.84-1.88,1.88v13.55c0,1.04.84,1.88,1.88,1.88s1.88-.84,1.88-1.88v-13.55c0-1.04-.84-1.88-1.88-1.88Z"/>
</svg>