<?xml version="1.0" encoding="UTF-8"?>
<svg id="Home_Improvement_Tools" data-name="Home Improvement &amp;amp; Tools" xmlns="http://www.w3.org/2000/svg" viewBox="0 0 180 180">
  <defs>
    <style>
      .cls-1 {
        stroke: #000;
        stroke-miterlimit: 10;
        stroke-width: 2px;
      }
    </style>
  </defs>
  <path class="cls-1" d="M16.89,165.66h115.01c1.15,0,2.08-.93,2.08-2.08v-45.01c0-1.15-.93-2.08-2.08-2.08H61.96v-10.64h69.94c1.15,0,2.08-.93,2.08-2.08v-55.19c0-1.15-.93-2.08-2.08-2.08H16.89c-1.15,0-2.08.93-2.08,2.08v55.19c0,1.15.93,2.08,2.08,2.08h16.78v10.64h-16.78c-1.15,0-2.08.93-2.08,2.08v45.01c0,1.15.93,2.08,2.08,2.08ZM129.82,161.49h-29.5v-40.85h29.5v40.85ZM129.82,101.67h-51.03v-51.03h51.03v51.03ZM18.97,120.64h16.78c1.15,0,2.08-.93,2.08-2.08v-14.81c0-1.15-.93-2.08-2.08-2.08h-16.78v-51.03h55.66v51.03h-14.75c-1.15,0-2.08.93-2.08,2.08v14.81c0,1.15.93,2.08,2.08,2.08h36.28v40.85H18.97v-40.85Z"/>
  <path class="cls-1" d="M146.71,31.67H2.08C.93,31.67,0,32.6,0,33.75v144.63c0,1.15.93,2.08,2.08,2.08h144.63c1.15,0,2.08-.93,2.08-2.08V33.75c0-1.15-.93-2.08-2.08-2.08ZM144.63,176.3H4.16V35.83h140.46v140.46Z"/>
  <path class="cls-1" d="M2.08,12.3c1.15,0,2.08-.93,2.08-2.08v-5.59h31.98v5.59c0,1.15.93,2.08,2.08,2.08s2.08-.93,2.08-2.08v-5.59h31.98v5.59c0,1.15.93,2.08,2.08,2.08s2.08-.93,2.08-2.08v-5.59h31.98v5.59c0,1.15.93,2.08,2.08,2.08s2.08-.93,2.08-2.08v-5.59h31.98v5.59c0,1.15.93,2.08,2.08,2.08s2.08-.93,2.08-2.08V2.55c0-1.15-.93-2.08-2.08-2.08H2.08C.93.46,0,1.4,0,2.55v7.67C0,11.36.93,12.3,2.08,12.3Z"/>
  <path class="cls-1" d="M177.92,31.69h-7.67c-1.15,0-2.08.93-2.08,2.08s.93,2.08,2.08,2.08h5.59v31.98h-5.59c-1.15,0-2.08.93-2.08,2.08s.93,2.08,2.08,2.08h5.59v31.98h-5.59c-1.15,0-2.08.93-2.08,2.08s.93,2.08,2.08,2.08h5.59v31.98h-5.59c-1.15,0-2.08.93-2.08,2.08s.93,2.08,2.08,2.08h5.59v31.98h-5.59c-1.15,0-2.08.93-2.08,2.08s.93,2.08,2.08,2.08h7.67c1.15,0,2.08-.93,2.08-2.08V33.77c0-1.15-.93-2.08-2.08-2.08Z"/>
</svg>