<?xml version="1.0" encoding="UTF-8"?>
<svg id="Home_Improvement_Tools" data-name="Home Improvement &amp;amp; Tools" xmlns="http://www.w3.org/2000/svg" viewBox="0 0 180 180">
  <defs>
    <style>
      .cls-1 {
        stroke: #000;
        stroke-miterlimit: 10;
        stroke-width: 2px;
      }
    </style>
  </defs>
  <path class="cls-1" d="M177.68,70.61h-41.52v-32.75c0-1.28-1.04-2.32-2.32-2.32h-41.52V2.78c0-1.28-1.04-2.32-2.32-2.32H2.32C1.04.46,0,1.5,0,2.78v175.36c0,1.28,1.04,2.32,2.32,2.32h175.36c1.28,0,2.32-1.04,2.32-2.32v-105.21c0-1.28-1.04-2.32-2.32-2.32ZM48.48,140.75v-30.43h83.04v30.43H48.48ZM4.64,140.75v-30.43h39.2v30.43H4.64ZM87.68,105.68H4.64v-30.43h83.04v30.43ZM43.84,70.61H4.64v-30.43h39.2v30.43ZM136.16,110.32h39.2v30.43h-39.2v-30.43ZM175.36,105.68h-83.04v-30.43h83.04v30.43ZM131.52,70.61H48.48v-30.43h83.04v30.43ZM4.64,5.1h83.04v30.43H4.64V5.1ZM4.64,145.39h83.04v30.43H4.64v-30.43ZM175.36,175.82h-83.04v-30.43h83.04v30.43Z"/>
</svg>