<?xml version="1.0" encoding="UTF-8"?>
<svg id="Home_Improvement_Tools" data-name="Home Improvement &amp;amp; Tools" xmlns="http://www.w3.org/2000/svg" viewBox="0 0 180 180">
  <defs>
    <style>
      .cls-1 {
        stroke: #000;
        stroke-miterlimit: 10;
        stroke-width: 2px;
      }
    </style>
  </defs>
  <path class="cls-1" d="M125.72,20.83c-22.65,0-42.09,13.95-50.21,33.7V2.49c0-1.12-.91-2.03-2.03-2.03H2.03C.91.46,0,1.37,0,2.49v175.94c0,1.12.91,2.03,2.03,2.03h99.23c1.12,0,2.03-.91,2.03-2.03v-103.32c0-12.37,10.06-22.43,22.43-22.43s22.43,10.06,22.43,22.43-10.06,22.43-22.43,22.43c-1.12,0-2.03.91-2.03,2.03s.91,2.03,2.03,2.03c14.61,0,26.49-11.89,26.49-26.5s-11.89-26.49-26.49-26.49-26.49,11.89-26.49,26.49v101.29h-23.72v-101.29c0-27.69,22.53-50.21,50.21-50.21s50.22,22.53,50.22,50.21-22.53,50.21-50.22,50.21c-1.12,0-2.03.91-2.03,2.03s.91,2.03,2.03,2.03c29.93,0,54.28-24.35,54.28-54.27s-24.35-54.27-54.28-54.27ZM4.06,4.52h67.39v171.88H4.06V4.52Z"/>
  <path class="cls-1" d="M30.88,24.08h-11.89c-1.12,0-2.03.91-2.03,2.03s.91,2.03,2.03,2.03h11.89c1.12,0,2.03-.91,2.03-2.03s-.91-2.03-2.03-2.03Z"/>
  <path class="cls-1" d="M30.88,56.26h-11.89c-1.12,0-2.03.91-2.03,2.03s.91,2.03,2.03,2.03h11.89c1.12,0,2.03-.91,2.03-2.03s-.91-2.03-2.03-2.03Z"/>
  <path class="cls-1" d="M30.88,88.43h-11.89c-1.12,0-2.03.91-2.03,2.03s.91,2.03,2.03,2.03h11.89c1.12,0,2.03-.91,2.03-2.03s-.91-2.03-2.03-2.03Z"/>
  <path class="cls-1" d="M30.88,120.61h-11.89c-1.12,0-2.03.91-2.03,2.03s.91,2.03,2.03,2.03h11.89c1.12,0,2.03-.91,2.03-2.03s-.91-2.03-2.03-2.03Z"/>
  <path class="cls-1" d="M30.88,152.79h-11.89c-1.12,0-2.03.91-2.03,2.03s.91,2.03,2.03,2.03h11.89c1.12,0,2.03-.91,2.03-2.03s-.91-2.03-2.03-2.03Z"/>
  <path class="cls-1" d="M56.52,40.17h-11.89c-1.12,0-2.03.91-2.03,2.03s.91,2.03,2.03,2.03h11.89c1.12,0,2.03-.91,2.03-2.03s-.91-2.03-2.03-2.03Z"/>
  <path class="cls-1" d="M56.52,72.34h-11.89c-1.12,0-2.03.91-2.03,2.03s.91,2.03,2.03,2.03h11.89c1.12,0,2.03-.91,2.03-2.03s-.91-2.03-2.03-2.03Z"/>
  <path class="cls-1" d="M56.52,104.52h-11.89c-1.12,0-2.03.91-2.03,2.03s.91,2.03,2.03,2.03h11.89c1.12,0,2.03-.91,2.03-2.03s-.91-2.03-2.03-2.03Z"/>
  <path class="cls-1" d="M56.52,136.7h-11.89c-1.12,0-2.03.91-2.03,2.03s.91,2.03,2.03,2.03h11.89c1.12,0,2.03-.91,2.03-2.03s-.91-2.03-2.03-2.03Z"/>
</svg>