<?xml version="1.0" encoding="UTF-8"?>
<svg id="Home_Improvement_Tools" data-name="Home Improvement &amp;amp; Tools" xmlns="http://www.w3.org/2000/svg" viewBox="0 0 180 180">
  <defs>
    <style>
      .cls-1 {
        stroke: #000;
        stroke-miterlimit: 10;
        stroke-width: 2px;
      }
    </style>
  </defs>
  <path class="cls-1" d="M51.39,33.83L82.8,3.79c.77-.74.8-1.96.06-2.73-.74-.77-1.96-.8-2.73-.06l-31.41,30.04-5.07-5.3c-.74-.77-1.96-.8-2.73-.06l-23.9,22.85c-2.2,2.1-3.46,5.05-3.46,8.1v17.27h-3.28C4.61,73.89,0,78.5,0,84.17v86.02c0,5.67,4.61,10.28,10.28,10.28h30.82c4.13,0,10.28-2.74,10.28-10.28,0-4.16-3.23-5.92-6.09-7.47-3.38-1.84-6.3-3.42-6.3-8.5v-28.38l11.59-8.5c.5-.36.79-.94.79-1.56v-31.61c0-5.67-4.61-10.28-10.28-10.28h-5.13v-12.48l20.44-19.54c.37-.35.59-.84.6-1.35.01-.51-.18-1.01-.54-1.38l-5.07-5.3ZM47.5,114.8l-8.52,6.25v-19.94l8.52-6.38v20.07ZM41.09,77.76c3.53,0,6.41,2.88,6.41,6.41v5.73l-11.61,8.69c-.49.36-.77.94-.77,1.55v54.08c0,7.38,4.81,9.99,8.32,11.9,2.89,1.57,4.07,2.38,4.07,4.07,0,6.34-6.15,6.41-6.41,6.41H10.28c-3.53,0-6.41-2.88-6.41-6.41v-86.02c0-3.53,2.88-6.41,6.41-6.41h30.82ZM32.69,59.19c-.38.36-.6.87-.6,1.4v13.31h-14.67v-17.27c0-1.99.83-3.93,2.27-5.3l22.5-21.52,10.14,10.61-19.64,18.78Z"/>
  <path class="cls-1" d="M178.07,176.6h-39.38v-62.96c6.09-.94,10.77-6.2,10.77-12.54,0-3.25-1.27-6.36-3.47-8.7,2.2-2.34,3.47-5.46,3.47-8.7s-1.27-6.36-3.47-8.7c2.2-2.34,3.47-5.46,3.47-8.7s-1.27-6.36-3.47-8.7c2.2-2.34,3.47-5.46,3.47-8.7s-1.27-6.36-3.47-8.7c2.2-2.34,3.47-5.46,3.47-8.7s-1.27-6.36-3.47-8.7c2.2-2.34,3.47-5.46,3.47-8.7,0-1.9-.43-3.7-1.18-5.32h29.79c1.07,0,1.93-.87,1.93-1.93s-.87-1.93-1.93-1.93h-32.55c-2.28-2.18-5.36-3.52-8.76-3.52s-6.48,1.35-8.76,3.52h-27.83c-1.07,0-1.93.87-1.93,1.93s.87,1.93,1.93,1.93h25.06c-.75,1.62-1.18,3.42-1.18,5.32,0,3.25,1.27,6.36,3.47,8.7-2.2,2.34-3.47,5.46-3.47,8.7s1.27,6.37,3.47,8.7c-2.2,2.34-3.47,5.46-3.47,8.7s1.27,6.36,3.47,8.7c-2.2,2.34-3.47,5.46-3.47,8.7s1.27,6.36,3.47,8.7c-2.2,2.34-3.47,5.46-3.47,8.7s1.27,6.36,3.47,8.7c-2.2,2.34-3.47,5.46-3.47,8.7,0,6.35,4.68,11.61,10.77,12.54v62.96h-68.83c-1.07,0-1.93.87-1.93,1.93s.87,1.93,1.93,1.93h112.08c1.07,0,1.93-.87,1.93-1.93s-.87-1.93-1.93-1.93ZM127.91,101.09c0-2.81,1.36-5.48,3.65-7.14.5-.36.8-.94.8-1.56s-.3-1.2-.8-1.56c-2.28-1.66-3.65-4.33-3.65-7.14s1.36-5.48,3.65-7.14c.5-.36.8-.94.8-1.56s-.3-1.2-.8-1.56c-2.28-1.66-3.65-4.33-3.65-7.14s1.36-5.48,3.65-7.14c.5-.36.8-.94.8-1.56s-.3-1.2-.8-1.56c-2.28-1.66-3.65-4.33-3.65-7.14s1.36-5.48,3.65-7.14c.5-.36.8-.94.8-1.56s-.3-1.2-.8-1.56c-2.28-1.66-3.65-4.33-3.65-7.14s1.36-5.48,3.65-7.14c.5-.36.8-.94.8-1.56s-.3-1.2-.8-1.56c-2.28-1.66-3.65-4.33-3.65-7.14,0-4.87,3.97-8.84,8.84-8.84s8.84,3.97,8.84,8.84c0,2.81-1.36,5.48-3.65,7.14-.5.36-.8.94-.8,1.56s.3,1.2.8,1.56c2.28,1.66,3.65,4.33,3.65,7.14s-1.36,5.48-3.65,7.14c-.5.36-.8.94-.8,1.56s.3,1.2.8,1.56c2.28,1.66,3.65,4.33,3.65,7.14s-1.36,5.48-3.65,7.14c-.5.36-.8.94-.8,1.56s.3,1.2.8,1.56c2.28,1.66,3.65,4.33,3.65,7.14s-1.36,5.48-3.65,7.14c-.5.36-.8.94-.8,1.56s.3,1.2.8,1.56c2.28,1.66,3.65,4.33,3.65,7.14s-1.36,5.48-3.65,7.14c-.5.36-.8.94-.8,1.56s.3,1.2.8,1.56c2.28,1.66,3.65,4.33,3.65,7.14,0,4.87-3.97,8.84-8.84,8.84s-8.84-3.97-8.84-8.84Z"/>
</svg>