<?xml version="1.0" encoding="UTF-8"?>
<svg id="Home_Improvement_Tools" data-name="Home Improvement &amp;amp; Tools" xmlns="http://www.w3.org/2000/svg" viewBox="0 0 180 180">
  <defs>
    <style>
      .cls-1 {
        stroke: #000;
        stroke-miterlimit: 10;
        stroke-width: 2px;
      }
    </style>
  </defs>
  <path class="cls-1" d="M175.69,82.44c-11.78-15.71-46.77-27.17-83.71-27.57v-27.94h47.64c1.09,0,1.98-.89,1.98-1.98V2.45c0-1.09-.89-1.98-1.98-1.98H40.38c-1.09,0-1.98.89-1.98,1.98v22.49c0,1.09.89,1.98,1.98,1.98h47.64v27.94c-36.94.4-71.93,11.87-83.71,27.57-4.03,5.37-5.24,10.95-3.6,16.59,4.7,16.11,5.58,18.44,5.67,18.66.3.75,1.03,1.24,1.84,1.24h163.57c.81,0,1.54-.49,1.84-1.24.09-.21.97-2.54,5.67-18.66,1.64-5.63.43-11.21-3.6-16.59ZM42.36,4.43h95.28v18.53H42.36V4.43ZM175.49,97.92c-3.09,10.59-4.51,15.16-5.12,17.05H9.64c-.62-1.9-2.04-6.47-5.12-17.05-1.28-4.37-.28-8.78,2.96-13.1,11.12-14.83,46.6-26.01,82.52-26.01s71.4,11.18,82.52,26.01c3.24,4.32,4.24,8.73,2.96,13.1Z"/>
  <path class="cls-1" d="M123.86,129.98c-.93-.57-2.15-.28-2.72.65-6.7,10.93-18.34,17.45-31.14,17.45s-24.44-6.52-31.14-17.45c-.57-.93-1.79-1.22-2.72-.65-.93.57-1.22,1.79-.65,2.72,7.42,12.11,20.33,19.34,34.52,19.34s27.09-7.23,34.51-19.34c.57-.93.28-2.15-.65-2.72Z"/>
  <path class="cls-1" d="M90,163.59c-1.09,0-1.98.89-1.98,1.98v12.9c0,1.09.89,1.98,1.98,1.98s1.98-.89,1.98-1.98v-12.9c0-1.09-.89-1.98-1.98-1.98Z"/>
  <path class="cls-1" d="M113.8,160.09c-.45-1-1.62-1.45-2.61-1-1,.44-1.45,1.62-1,2.61l5.25,11.79c.33.74,1.05,1.18,1.81,1.18.27,0,.54-.05.8-.17,1-.44,1.45-1.62,1-2.61l-5.25-11.79Z"/>
  <path class="cls-1" d="M68.82,159.09c-1-.45-2.17,0-2.61,1l-5.25,11.79c-.44,1,0,2.17,1,2.61.26.12.54.17.8.17.76,0,1.48-.44,1.81-1.18l5.25-11.79c.44-1,0-2.17-1-2.61Z"/>
  <path class="cls-1" d="M131.5,146.21c-.81-.73-2.07-.67-2.8.15-.73.81-.67,2.06.15,2.8l9.59,8.63c.38.34.85.51,1.32.51.54,0,1.08-.22,1.47-.66.73-.81.67-2.06-.15-2.8l-9.59-8.63Z"/>
  <path class="cls-1" d="M48.5,146.21l-9.59,8.63c-.81.73-.88,1.98-.15,2.8.39.43.93.66,1.47.66.47,0,.95-.17,1.32-.51l9.59-8.63c.81-.73.88-1.98.15-2.8-.73-.81-1.98-.88-2.8-.15Z"/>
  <path class="cls-1" d="M32.91,88.48h-12.86c-1.09,0-1.98.89-1.98,1.98s.89,1.98,1.98,1.98h12.86c1.09,0,1.98-.89,1.98-1.98s-.89-1.98-1.98-1.98Z"/>
  <path class="cls-1" d="M143.03,88.48H49.82c-1.09,0-1.98.89-1.98,1.98s.89,1.98,1.98,1.98h93.2c1.09,0,1.98-.89,1.98-1.98s-.89-1.98-1.98-1.98Z"/>
</svg>