<?xml version="1.0" encoding="UTF-8"?>
<svg id="Home_Improvement_Tools" data-name="Home Improvement &amp;amp; Tools" xmlns="http://www.w3.org/2000/svg" viewBox="0 0 180 180">
  <defs>
    <style>
      .cls-1 {
        stroke: #000;
        stroke-miterlimit: 10;
        stroke-width: 2px;
      }
    </style>
  </defs>
  <path class="cls-1" d="M177.97.46H2.03C.91.46,0,1.37,0,2.49v65.02c0,1.12.91,2.03,2.03,2.03h49.88v13.16l-22,10.51c-.7.34-1.15,1.05-1.15,1.83v13.54c-4.14,1-7.22,4.72-7.22,9.16,0,5.2,4.23,9.44,9.44,9.44h118.05c5.2,0,9.44-4.23,9.44-9.44,0-4.44-3.08-8.16-7.22-9.16v-13.54c0-.78-.45-1.49-1.15-1.83l-22-10.51v-13.16h49.88c1.12,0,2.03-.91,2.03-2.03V2.49c0-1.12-.91-2.03-2.03-2.03ZM154.4,117.76c0,2.97-2.41,5.38-5.38,5.38H30.98c-2.97,0-5.38-2.41-5.38-5.38s2.41-5.38,5.38-5.38h118.05c2.96,0,5.38,2.41,5.38,5.38ZM125.18,85.82l22,10.51v11.98H32.82v-11.98l21.58-10.32h21.39c1.12,0,2.03-.91,2.03-2.03s-.91-2.03-2.03-2.03h-19.82v-12.41h68.06v14.44c0,.78.45,1.49,1.15,1.83ZM175.94,65.49H4.06V4.52h171.88v60.96Z"/>
  <path class="cls-1" d="M42.86,141.29c.75-.82.7-2.1-.11-2.86-.82-.76-2.1-.72-2.87.1-.3.32-7.26,8.04-.32,21.57,5.58,10.88.53,16.72.32,16.95-.76.82-.72,2.1.1,2.87.39.36.89.54,1.38.54.54,0,1.09-.22,1.49-.65.3-.32,7.26-8.04.32-21.57-5.56-10.85-.55-16.68-.31-16.96Z"/>
  <path class="cls-1" d="M67.18,141.29c.75-.82.7-2.1-.11-2.86-.82-.76-2.1-.72-2.87.1-.3.32-7.26,8.04-.32,21.57,5.58,10.88.53,16.72.32,16.95-.76.82-.72,2.1.1,2.87.39.36.89.54,1.38.54.54,0,1.09-.22,1.49-.65.3-.32,7.26-8.04.32-21.57-5.56-10.85-.55-16.68-.31-16.96Z"/>
  <path class="cls-1" d="M91.5,141.29c.75-.82.7-2.1-.11-2.86-.82-.76-2.1-.72-2.87.1-.3.32-7.26,8.04-.32,21.57,5.58,10.88.53,16.72.32,16.95-.76.82-.72,2.1.1,2.87.39.36.89.54,1.38.54.54,0,1.09-.22,1.49-.65.3-.32,7.26-8.04.32-21.57-5.56-10.85-.55-16.68-.31-16.96Z"/>
  <path class="cls-1" d="M115.82,141.29c.75-.82.7-2.1-.11-2.86-.82-.76-2.1-.72-2.87.1-.3.32-7.26,8.04-.32,21.57,5.58,10.88.53,16.72.32,16.95-.76.82-.72,2.1.1,2.87.39.36.89.54,1.38.54.54,0,1.09-.22,1.49-.65.3-.32,7.26-8.04.32-21.57-5.56-10.85-.55-16.68-.31-16.96Z"/>
  <path class="cls-1" d="M140.13,141.29c.75-.82.7-2.1-.11-2.86-.82-.76-2.1-.72-2.87.1-.3.32-7.26,8.04-.32,21.57,5.58,10.88.53,16.72.32,16.95-.76.82-.72,2.1.1,2.87.39.36.89.54,1.38.54.54,0,1.09-.22,1.49-.65.3-.32,7.26-8.04.32-21.57-5.56-10.85-.55-16.68-.31-16.96Z"/>
  <path class="cls-1" d="M21.62,54.73h11.66c1.12,0,2.03-.91,2.03-2.03s-.91-2.03-2.03-2.03h-11.66c-1.12,0-2.03.91-2.03,2.03s.91,2.03,2.03,2.03Z"/>
  <path class="cls-1" d="M53.1,54.73h103.33c1.12,0,2.03-.91,2.03-2.03s-.91-2.03-2.03-2.03H53.1c-1.12,0-2.03.91-2.03,2.03s.91,2.03,2.03,2.03Z"/>
</svg>