<?xml version="1.0" encoding="UTF-8"?>
<svg id="Home_Improvement_Tools" data-name="Home Improvement &amp;amp; Tools" xmlns="http://www.w3.org/2000/svg" viewBox="0 0 180 180">
  <defs>
    <style>
      .cls-1 {
        stroke: #000;
        stroke-miterlimit: 10;
        stroke-width: 2px;
      }
    </style>
  </defs>
  <path class="cls-1" d="M179.78,59.19l-23.82-41.25c-.29-.5-.82-.81-1.4-.81h-.01l-52.3.48c-.28,0-.55.08-.79.22l-27.06,15.62c-.25.14-.45.35-.59.59l-12.79,22.15c-.29.5-.29,1.11,0,1.61l10.73,18.58-10.81,6.24-16.73-28.98c-.44-.77-1.43-1.04-2.2-.59-.77.45-1.04,1.43-.59,2.2l16.73,28.98-9.05,5.22c-2.06,1.19-3.53,3.11-4.15,5.42-.62,2.31-.3,4.71.88,6.77l6.39,11.07c1.19,2.06,3.11,3.53,5.42,4.15.77.21,1.56.31,2.34.31,1.54,0,3.07-.4,4.43-1.19l9.05-5.22,1.87,3.24c.3.52.84.81,1.4.81.27,0,.55-.07.81-.22.77-.45,1.04-1.43.59-2.2l-1.87-3.24,10.81-6.24,10.73,18.58c.29.5.82.81,1.4.81h25.57c.28,0,.56-.07.81-.22l27.06-15.62c.24-.14.44-.34.58-.58l26.56-45.05c.3-.5.3-1.12,0-1.63ZM125.35,118.47l-47.94-83.03,24.27-14.01,47.94,83.03-24.27,14.01ZM62.8,113.18c-1.31.76-2.85.96-4.32.56-1.48-.4-2.71-1.34-3.46-2.65l-6.39-11.07c-.76-1.31-.96-2.85-.56-4.32.4-1.48,1.34-2.71,2.65-3.46l9.05-5.22,12.09,20.94-9.05,5.22ZM85.45,100.11l-10.81,6.24-12.09-20.94,10.81-6.24,12.09,20.94ZM64.28,56.99l10.92-18.92,46.76,80.99h-21.84l-35.84-62.07ZM151.84,101.84L105.05,20.81l48.59-.45,22.88,39.62-24.68,41.86Z"/>
  <path class="cls-1" d="M45.49,78.99l-15.92-27.58c-.29-.5-.82-.81-1.4-.81H1.61C.72,50.6,0,51.32,0,52.21s.72,1.61,1.61,1.61h25.62s15.46,26.77,15.46,26.77c.3.52.84.81,1.4.81.27,0,.55-.07.81-.22.77-.45,1.04-1.43.59-2.2Z"/>
  <path class="cls-1" d="M142.41,135.03c-.18-.72-.83-1.22-1.56-1.22h-45.83c-3.44-6.32-10.15-10.62-17.84-10.62-11.19,0-20.3,9.11-20.3,20.3s9.11,20.3,20.3,20.3c7.69,0,14.39-4.3,17.84-10.62h30.82l13.43,10.29c.28.22.63.33.98.33h7.39c.5,0,.97-.23,1.27-.62.31-.39.41-.91.29-1.39l-6.79-26.76ZM77.18,160.57c-9.41,0-17.07-7.66-17.07-17.07s7.66-17.07,17.07-17.07,17.07,7.66,17.07,17.07-7.66,17.07-17.07,17.07ZM140.79,160.57l-13.43-10.29c-.28-.22-.63-.33-.98-.33h-29.97c.68-2.03,1.06-4.2,1.06-6.46s-.38-4.43-1.06-6.46h43.17l5.98,23.53h-4.77Z"/>
</svg>