<?xml version="1.0" encoding="UTF-8"?>
<svg id="Home_Improvement_Tools" data-name="Home Improvement &amp;amp; Tools" xmlns="http://www.w3.org/2000/svg" viewBox="0 0 180 180">
  <defs>
    <style>
      .cls-1 {
        stroke: #000;
        stroke-miterlimit: 10;
        stroke-width: 2px;
      }
    </style>
  </defs>
  <path class="cls-1" d="M170.9,109.49c-.44-18.38-7.26-35.21-18.31-48.36l24.05-35.82c2.1-3.13,2.86-6.9,2.13-10.6-.73-3.7-2.85-6.9-5.99-9-6.47-4.34-15.26-2.61-19.6,3.85l-22.48,33.48c-6.96-3.89-14.57-6.75-22.62-8.36V14.21c0-6.02-4.89-10.91-10.91-10.91H10.91C4.89,3.3,0,8.2,0,14.21v33.87C0,49.79.41,51.5,1.18,53.02c.06.11.13.22.21.32l20.16,25.37c-4.34,9.41-6.88,19.82-7.14,30.78-5.02,0-9.1,4.09-9.1,9.11s4.09,9.11,9.11,9.11h14.08c7.29,28.65,33.27,49.91,64.15,49.91s56.86-21.26,64.15-49.91h14.08c5.02,0,9.11-4.09,9.11-9.11s-4.08-9.1-9.1-9.11ZM69.68,109.49h-20.72c1.01-23.23,20.22-41.81,43.69-41.81s42.68,18.59,43.69,41.81h-20.72c-.98-11.82-10.91-21.13-22.97-21.13s-21.99,9.32-22.97,21.13ZM140.17,109.49c-1.01-25.34-21.93-45.65-47.52-45.65s-46.5,20.31-47.52,45.65h-26.89c1.02-40.16,34.01-72.51,74.41-72.51s73.39,32.36,74.41,72.51h-26.89ZM86.26,33.4c-21.05,1.71-39.78,11.78-52.83,26.89l-11.61-15.02v-20.15h64.44v8.28ZM156.36,11.69c1.53-2.28,3.86-3.83,6.56-4.36,2.7-.53,5.44.02,7.72,1.55,2.28,1.53,3.83,3.86,4.36,6.56s-.02,5.44-1.55,7.72l-23.49,34.99c-4.7-5.06-10.07-9.49-15.95-13.17l22.35-33.3ZM4.52,51.12c-.45-.94-.69-1.99-.69-3.04V14.21c0-3.9,3.17-7.07,7.07-7.07h86.26c3.9,0,7.07,3.17,7.07,7.07v19.79c-3.78-.56-7.65-.86-11.59-.86-.86,0-1.71.02-2.56.05v-9.98c0-1.06-.86-1.92-1.92-1.92H19.9c-1.06,0-1.92.86-1.92,1.92v22.73c0,.42.14.84.4,1.17l12.55,16.23c-2.83,3.62-5.34,7.49-7.5,11.58L4.52,51.12ZM92.66,173.79c-28.75,0-53-19.56-60.19-46.07h120.37c-7.19,26.51-31.43,46.07-60.19,46.07ZM170.89,123.88H14.42c-2.91,0-5.28-2.37-5.28-5.28s2.37-5.28,5.28-5.28h57.1c1.06,0,1.92-.86,1.92-1.92,0-10.59,8.62-19.21,19.21-19.21s19.21,8.62,19.21,19.21c0,1.06.86,1.92,1.92,1.92h57.1c2.91,0,5.28,2.37,5.28,5.28s-2.37,5.28-5.28,5.28Z"/>
  <path class="cls-1" d="M92.66,162.25c15.14,0,29.39-6.69,39.08-18.34.68-.81.57-2.02-.25-2.7-.82-.68-2.02-.57-2.7.25-8.97,10.78-22.14,16.96-36.14,16.96-1.06,0-1.92.86-1.92,1.92s.86,1.92,1.92,1.92Z"/>
</svg>