<?xml version="1.0" encoding="UTF-8"?>
<svg id="Home_Improvement_Tools" data-name="Home Improvement &amp;amp; Tools" xmlns="http://www.w3.org/2000/svg" viewBox="0 0 180 180">
  <defs>
    <style>
      .cls-1 {
        stroke: #000;
        stroke-miterlimit: 10;
        stroke-width: 2px;
      }
    </style>
  </defs>
  <path class="cls-1" d="M179.49,49.34l-6.59-6.59c-.32-.32-.76-.51-1.22-.51h-29.1v-5.23c0-.47-.19-.92-.53-1.25l-10.11-9.67c-.32-.31-.75-.48-1.19-.48h-10.94c-.01-4.29-3.5-7.77-7.8-7.77H17.3C7.6,17.84,0,32.21,0,50.56,0,59.47,1.81,67.78,5.11,73.94c.47.89,1.07,1.87,1.7,2.9,2.63,4.31,6.23,10.21,5.15,16.6L1.66,154.53c-.02.09-.02.19-.02.29,0,4.56,3.71,8.27,8.27,8.27h35.7c6,0,7.57-4.53,8.23-7.94.51-2.65-.73-5.2-1.93-7.67-1.36-2.78-2.76-5.65-1.97-8.88.8-3.3,3.19-15.88,5.7-29.78h15.24c.8,0,1.49-.54,1.68-1.32.59-2.42,2.76-14.11,4.52-24.23h34.95c4.29,0,7.78-3.48,7.8-7.77h10.94c.44,0,.87-.17,1.19-.48l10.11-9.67c.34-.33.53-.78.53-1.25v-5.23h29.1c.46,0,.9-.18,1.22-.51l6.59-6.59c.32-.32.51-.76.51-1.22s-.18-.9-.51-1.22ZM69.48,105.37h-13.24c.88-4.9,1.75-9.88,2.56-14.61.39-2.25,1.92-7.48,7.74-7.48h7.01c-1.57,9.04-3.31,18.38-4.08,22.1ZM116.36,75.47c0,2.4-1.95,4.35-4.35,4.35h-45.46c-6.9,0-10.28,5.35-11.14,10.35-3.55,20.66-7.83,43.45-8.84,47.61-1.08,4.44.75,8.19,2.22,11.21,1.04,2.14,1.94,3.98,1.65,5.5-.83,4.28-2.47,5.15-4.85,5.15H9.9c-2.61,0-4.74-2.09-4.82-4.68l10.28-60.93c1.29-7.66-2.7-14.2-5.61-18.97-.61-.99-1.18-1.93-1.61-2.73-2.99-5.59-4.7-13.52-4.7-21.76,0-15.86,6.34-29.27,13.85-29.27h94.72c2.4,0,4.35,1.95,4.35,4.35v49.83ZM139.13,63.36l-9.08,8.68h-10.25V29.06h10.25l9.08,8.68v25.62ZM170.97,55.43h-28.38v-9.74h28.38l4.87,4.87-4.87,4.87Z"/>
  <path class="cls-1" d="M54.19,40.66h-30.32c-.95,0-1.72.77-1.72,1.72s.77,1.72,1.72,1.72h30.32c.95,0,1.72-.77,1.72-1.72s-.77-1.72-1.72-1.72Z"/>
  <path class="cls-1" d="M54.19,57.01h-30.32c-.95,0-1.72.77-1.72,1.72s.77,1.72,1.72,1.72h30.32c.95,0,1.72-.77,1.72-1.72s-.77-1.72-1.72-1.72Z"/>
  <path class="cls-1" d="M86.13,36.57c-7.71,0-13.99,6.28-13.99,13.99s6.28,13.99,13.99,13.99,13.99-6.28,13.99-13.99-6.28-13.99-13.99-13.99ZM86.13,61.1c-5.81,0-10.54-4.73-10.54-10.54s4.73-10.54,10.54-10.54,10.54,4.73,10.54,10.54-4.73,10.54-10.54,10.54Z"/>
</svg>