<?xml version="1.0" encoding="UTF-8"?>
<svg id="Home_Improvement_Tools" data-name="Home Improvement &amp;amp; Tools" xmlns="http://www.w3.org/2000/svg" viewBox="0 0 180 180">
  <defs>
    <style>
      .cls-1 {
        stroke: #000;
        stroke-miterlimit: 10;
        stroke-width: 2px;
      }
    </style>
  </defs>
  <path class="cls-1" d="M76.29,124.24l-48.8,48.8c-2.18,2.18-5.07,3.38-8.15,3.38s-5.97-1.2-8.15-3.38c-4.5-4.5-4.5-11.81,0-16.31l48.8-48.8c.79-.79.79-2.07,0-2.86-.79-.79-2.07-.79-2.86,0l-48.8,48.8c-2.94,2.94-4.56,6.86-4.56,11.02s1.62,8.07,4.56,11.02c2.94,2.94,6.86,4.56,11.02,4.56s8.07-1.62,11.02-4.56l48.8-48.8c.79-.79.79-2.07,0-2.86-.79-.79-2.07-.79-2.86,0Z"/>
  <path class="cls-1" d="M178.26,40.61l-4.89-4.89c-.79-.79-2.07-.79-2.86,0l-20.11,20.11-16.62-5.39-5.39-16.62,20.11-20.11c.79-.79.79-2.07,0-2.86l-4.89-4.89c-.61-.61-1.54-.77-2.32-.39-.22.11-21.73,10.54-29.84,14.72-9.49,4.88-9.2,12.22-6.17,29.03,1.18,6.57-2.93,10.56-3.47,11.05l-5.78,5.77c-.79.79-.79,2.07,0,2.86.79.79,2.07.79,2.86,0l5.72-5.72c.64-.59,6.22-6,4.65-14.7-3.13-17.42-2.49-21.35,4.04-24.71,6.92-3.56,23.67-11.72,28.46-14.05l2.43,2.43-19.56,19.56c-.54.54-.73,1.33-.49,2.06l6.09,18.78c.2.62.68,1.1,1.3,1.3l18.78,6.09c.72.24,1.52.04,2.06-.49l19.56-19.56,2.43,2.43c-2.33,4.79-10.49,21.55-14.05,28.46-3.36,6.53-7.29,7.17-24.71,4.04-8.69-1.56-14.11,4.01-14.64,4.59l-5.77,5.78c-.79.79-.79,2.07,0,2.86.4.4.91.59,1.43.59s1.04-.2,1.43-.59l5.83-5.84c.43-.47,4.43-4.58,10.99-3.4,16.82,3.02,24.15,3.31,29.03-6.17,4.18-8.11,14.62-29.63,14.72-29.84.38-.78.22-1.71-.39-2.32Z"/>
  <path class="cls-1" d="M61.81,52.62l3.27-3.27c.38-.38.59-.9.59-1.43s-.21-1.05-.59-1.43l-1.84-1.84c2.21-5.17,7.08-6.67,12.21-8.25,6-1.84,12.8-3.93,13.04-12.89.01-.56-.2-1.09-.59-1.49L66.93,1.06c-.39-.39-.93-.61-1.49-.59-8.98.24-10.88,7.23-12.56,13.39-1.43,5.28-2.8,10.28-7.94,12.5l-1.19-1.19c-.79-.79-2.07-.79-2.86,0l-25.37,25.37c-.89.88-21.58,21.94-11.71,47.46,1.4,3.62,4.03,7.43,7.24,7.43.06,0,.13,0,.19,0,2.45-.11,4.28-2.26,5.44-6.38,7.63-27,20.5-23.93,21.02-23.8.71.2,1.47,0,1.99-.51l3.63-3.63,100.77,106.98c1.59,1.59,3.67,2.38,5.75,2.38s4.12-.78,5.68-2.34l13.91-13.91c3.14-3.14,3.12-8.27-.09-11.48L61.81,52.62ZM56.79,14.91c1.69-6.2,2.93-9.86,7.91-10.35l19.69,19.69c-.48,5.06-4.06,6.41-10.13,8.28-4.91,1.51-10.86,3.34-14.05,9.1l-12.25-12.25c5.77-3.25,7.45-9.39,8.82-14.46ZM37.58,71.13c-1.76-.2-5.19-.17-9.13,2.02-6.81,3.79-12.08,12.13-15.66,24.79-.87,3.08-1.73,3.44-1.73,3.44h0c-.54,0-2.24-1.69-3.46-4.84-8.91-23.03,10.59-42.93,10.79-43.13l23.94-23.94,18.46,18.46-23.21,23.21ZM166.57,161.35l-13.91,13.91c-1.56,1.56-4.12,1.54-5.66,0L46.2,68.24l12.75-12.75,107.58,100.16c1.58,1.58,1.6,4.14.04,5.7Z"/>
</svg>