<?xml version="1.0" encoding="UTF-8"?>
<svg id="Home_Improvement_Tools" data-name="Home Improvement &amp;amp; Tools" xmlns="http://www.w3.org/2000/svg" viewBox="0 0 180 180">
  <defs>
    <style>
      .cls-1 {
        stroke: #000;
        stroke-miterlimit: 10;
        stroke-width: 2px;
      }
    </style>
  </defs>
  <path class="cls-1" d="M157.88.46H22.12c-1.09,0-1.97.88-1.97,1.97v176.06c0,1.09.88,1.97,1.97,1.97h135.77c1.09,0,1.97-.88,1.97-1.97V2.43c0-1.09-.88-1.97-1.97-1.97ZM41.61,176.52V21.92h96.79v154.6H41.61ZM155.91,176.52h-13.58V19.95c0-1.09-.88-1.97-1.97-1.97H39.63c-1.09,0-1.97.88-1.97,1.97v156.57h-13.58V4.4h131.82v172.12Z"/>
  <path class="cls-1" d="M122.85,138.95H57.15c-1.09,0-1.97.88-1.97,1.97v20.05c0,1.09.88,1.97,1.97,1.97h65.69c1.09,0,1.97-.88,1.97-1.97v-20.05c0-1.09-.88-1.97-1.97-1.97ZM120.88,159h-61.75v-16.11h61.75v16.11Z"/>
  <path class="cls-1" d="M129.68,88.49h-13.67c-1.09,0-1.97.88-1.97,1.97s.88,1.97,1.97,1.97h13.67c1.09,0,1.97-.88,1.97-1.97s-.88-1.97-1.97-1.97Z"/>
  <path class="cls-1" d="M122.85,102.51c-1.09,0-1.97.88-1.97,1.97v16.95h-61.75V39.44h61.75v37.01c0,1.09.88,1.97,1.97,1.97s1.97-.88,1.97-1.97v-38.98c0-1.09-.88-1.97-1.97-1.97H57.15c-1.09,0-1.97.88-1.97,1.97v85.93c0,1.09.88,1.97,1.97,1.97h65.69c1.09,0,1.97-.88,1.97-1.97v-18.92c0-1.09-.88-1.97-1.97-1.97Z"/>
</svg>