<?xml version="1.0" encoding="UTF-8"?>
<svg id="Home_Improvement_Tools" data-name="Home Improvement &amp;amp; Tools" xmlns="http://www.w3.org/2000/svg" viewBox="0 0 180 180">
  <defs>
    <style>
      .cls-1 {
        stroke: #000;
        stroke-miterlimit: 10;
        stroke-width: 2px;
      }
    </style>
  </defs>
  <path class="cls-1" d="M111.41,102.67c.51,0,1-.2,1.37-.57l10.28-10.28c.75-.76.75-1.98,0-2.73l-10.28-10.28c-.36-.36-.85-.57-1.37-.57h-52.23s0-2.97,0-2.97c0-.51-.2-1-.57-1.37l-16.91-16.9c-.36-.36-.85-.57-1.37-.57H1.93C.87,56.44,0,57.31,0,58.38v64.17c0,.51.21,1,.58,1.37.36.36.85.57,1.37.57h38.4c.51,0,1-.21,1.37-.57l16.9-16.91c.36-.36.57-.85.57-1.37v-2.96s52.23,0,52.23,0ZM75.4,98.81l-7.66-16.7h11.06s7.66,16.7,7.66,16.7h-11.06ZM83.05,82.11h11.06s7.66,16.7,7.66,16.7h-11.06s-7.66-16.7-7.66-16.7ZM118.96,90.46l-8.35,8.35h-4.59s-7.66-16.7-7.66-16.7h12.24s8.35,8.35,8.35,8.35ZM3.87,60.31h19.37s0,60.31,0,60.31H3.88s0-60.31,0-60.31ZM39.54,120.61h-12.44s0-60.31,0-60.31h12.43s15.78,15.77,15.78,15.77v28.76s-15.77,15.78-15.77,15.78ZM59.18,82.12h4.31s7.66,16.7,7.66,16.7h-11.97s0-16.7,0-16.7Z"/>
  <path class="cls-1" d="M179.97,2.4c0-.51-.2-1-.57-1.37s-.85-.57-1.37-.57h-39.28c-1.07,0-1.93.87-1.93,1.94v71.66c.01.51.21,1,.58,1.37.36.36.85.57,1.37.57h7.66s14.46,14.45,14.46,14.45l-14.45,14.46h-7.66c-1.07,0-1.93.87-1.93,1.93v71.68c.01,1.07.88,1.93,1.94,1.93h39.28c.51,0,1-.21,1.37-.57.36-.36.57-.85.57-1.37l-.03-176.12ZM140.72,176.59v-67.81s6.52,0,6.52,0c.51,0,1-.2,1.37-.57l16.39-16.39c.75-.76.75-1.98,0-2.73l-16.39-16.39c-.36-.36-.85-.57-1.37-.57h-6.53s0-67.79,0-67.79h35.41s.03,172.24.03,172.24h-35.41Z"/>
  <path class="cls-1" d="M39.37,71.96c-1.07,0-1.93.87-1.93,1.93v33.14c0,1.07.87,1.93,1.93,1.93s1.93-.87,1.93-1.93v-33.14c0-1.07-.87-1.93-1.93-1.93Z"/>
  <path class="cls-1" d="M124.15,118.32c-1.04-.24-2.08.41-2.32,1.45l-4.8,20.85c-.24,1.04.41,2.08,1.45,2.32.15.03.29.05.44.05.88,0,1.68-.61,1.88-1.5l4.8-20.85c.24-1.04-.41-2.08-1.45-2.32Z"/>
  <path class="cls-1" d="M113.48,114.06c-.83-.67-2.05-.53-2.72.3l-16.92,21.14c-.67.83-.53,2.05.3,2.72.36.29.78.42,1.21.42.57,0,1.13-.25,1.51-.72l16.92-21.14c.67-.83.53-2.05-.3-2.72Z"/>
  <path class="cls-1" d="M120.8,39.43c-.24-1.04-1.28-1.69-2.32-1.45-1.04.24-1.69,1.28-1.45,2.32l4.8,20.85c.21.89,1,1.5,1.88,1.5.14,0,.29-.02.43-.05,1.04-.24,1.69-1.28,1.45-2.32l-4.8-20.85Z"/>
  <path class="cls-1" d="M110.76,66.56c.38.48.94.72,1.51.72.42,0,.85-.14,1.21-.42.83-.67.97-1.88.3-2.72l-16.92-21.14c-.67-.83-1.88-.97-2.72-.3-.83.67-.97,1.88-.3,2.72l16.92,21.14Z"/>
</svg>