<?xml version="1.0" encoding="UTF-8"?>
<svg id="Home_Improvement_Tools" data-name="Home Improvement &amp;amp; Tools" xmlns="http://www.w3.org/2000/svg" viewBox="0 0 180 180">
  <defs>
    <style>
      .cls-1 {
        stroke: #000;
        stroke-miterlimit: 10;
        stroke-width: 2px;
      }
    </style>
  </defs>
  <path class="cls-1" d="M177.8.46h-33.01c-1,0-1.88.68-2.13,1.65l-8.46,33.23-33.94,22.79c-.61.41-.97,1.09-.97,1.82v39.27l-38.89,8.3c-.44.09-.84.32-1.15.65l-23.64,25.42-33.72,4.46C.82,138.21,0,139.14,0,140.24v38.03c0,1.21.98,2.2,2.19,2.2h175.61c1.21,0,2.2-.98,2.2-2.2V2.66c0-1.21-.98-2.2-2.2-2.2ZM175.61,176.07H4.39v-33.91l31.47-4.16,17.47,18.78c.42.45,1,.7,1.61.7h20.07c1.21,0,2.19-.98,2.19-2.2s-.98-2.2-2.19-2.2h-19.11l-16.2-17.42,22.31-24,39.51-8.43,31.28,5.96,3.89,28.58c.1.76.6,1.41,1.3,1.72l13.68,5.93c.28.12.58.18.87.18.85,0,1.66-.49,2.01-1.32.48-1.11-.03-2.4-1.14-2.89l-12.55-5.44-3.94-28.92c-.13-.93-.84-1.68-1.76-1.86l-31.48-6v-38.06l31.11-20.89,6.05,22.71c.16.61.58,1.13,1.15,1.41l14.59,7.16c.31.15.64.22.97.22.81,0,1.59-.45,1.97-1.23.53-1.09.08-2.4-1-2.94l-13.7-6.72-6.44-24.16,8.1-31.84h29.11v171.22Z"/>
  <path class="cls-1" d="M54.83,82.99c.41.41.97.64,1.55.64h20.7c1.21,0,2.2-.98,2.2-2.2v-20.7c0-.58-.23-1.14-.64-1.55L24.44,5.01c-.86-.86-2.25-.86-3.1,0-.86.86-.86,2.25,0,3.1l53.54,53.54v17.59h-17.59L3.75,25.7c-.86-.86-2.25-.86-3.1,0-.86.86-.86,2.25,0,3.1l54.19,54.19Z"/>
  <path class="cls-1" d="M94.13,46.96c.31.15.63.22.95.22.82,0,1.6-.46,1.98-1.25l8.37-17.45c.53-1.09.06-2.4-1.03-2.93-1.09-.52-2.4-.06-2.93,1.03l-8.37,17.45c-.52,1.09-.06,2.4,1.03,2.93Z"/>
  <path class="cls-1" d="M78.85,42.39c.25,1,1.14,1.67,2.13,1.67.18,0,.35-.02.53-.07,1.18-.29,1.89-1.48,1.6-2.66l-7.83-31.56c-.29-1.18-1.49-1.9-2.66-1.6-1.18.29-1.89,1.48-1.6,2.66l7.83,31.56Z"/>
  <path class="cls-1" d="M30.89,115.59c.4,0,.81-.11,1.17-.34l16.34-10.36c1.02-.65,1.33-2.01.68-3.03-.65-1.02-2-1.33-3.03-.68l-16.34,10.36c-1.02.65-1.33,2.01-.68,3.03.42.66,1.13,1.02,1.86,1.02Z"/>
  <path class="cls-1" d="M42.48,91.6c1.09,0,2.04-.81,2.18-1.92.15-1.2-.7-2.3-1.9-2.45l-32.26-4.06c-1.21-.16-2.3.7-2.45,1.9-.15,1.2.7,2.3,1.9,2.45l32.26,4.06c.09.01.19.02.28.02Z"/>
</svg>