<?xml version="1.0" encoding="UTF-8"?>
<svg id="Home_Improvement_Tools" data-name="Home Improvement &amp;amp; Tools" xmlns="http://www.w3.org/2000/svg" viewBox="0 0 180 180">
  <defs>
    <style>
      .cls-1 {
        stroke: #000;
        stroke-miterlimit: 10;
        stroke-width: 2px;
      }
    </style>
  </defs>
  <path class="cls-1" d="M100.63,109.25c-.33-1.04-1.43-1.63-2.48-1.3-1.04.33-1.63,1.44-1.3,2.48l21.39,68.63c.26.85,1.05,1.39,1.89,1.39.2,0,.39-.03.59-.09,1.04-.33,1.63-1.44,1.3-2.48l-21.39-68.63Z"/>
  <path class="cls-1" d="M179.9,177.88L125.03,1.87c-.26-.83-1.02-1.39-1.89-1.39H56.86c-.87,0-1.63.56-1.89,1.39L.1,177.88c-.32,1.04.26,2.15,1.3,2.48.2.06.4.09.59.09.84,0,1.63-.54,1.89-1.39l8.6-27.59h55.3l-7.96,26.43c-.32,1.05.28,2.15,1.33,2.47,1.04.32,2.15-.28,2.47-1.33L116.2,4.44h5.48l54.43,174.62c.26.85,1.05,1.39,1.89,1.39.19,0,.39-.03.59-.09,1.04-.33,1.63-1.44,1.3-2.48ZM68.98,147.5H13.72l7.93-25.45h54.99l-7.66,25.45ZM77.83,118.1H22.89l7.93-25.45h54.68l-7.66,25.45ZM86.69,88.69h-54.64l7.93-25.44h54.37s-7.66,25.44-7.66,25.44ZM95.55,59.29h-54.33s7.93-25.44,7.93-25.44h54.06l-7.66,25.44ZM104.4,29.88h-54.02l7.93-25.45h53.75l-7.66,25.45Z"/>
</svg>