<?xml version="1.0" encoding="UTF-8"?>
<svg id="Home_Improvement_Tools" data-name="Home Improvement &amp;amp; Tools" xmlns="http://www.w3.org/2000/svg" viewBox="0 0 180 180">
  <defs>
    <style>
      .cls-1 {
        stroke: #000;
        stroke-miterlimit: 10;
        stroke-width: 2px;
      }
    </style>
  </defs>
  <path class="cls-1" d="M138.62,85.79c-21.94,0-39.12,7.65-39.12,17.41v59.84c0,9.76,17.18,17.41,39.12,17.41s39.12-7.65,39.12-17.41v-59.84c0-9.76-17.18-17.41-39.12-17.41ZM138.62,156.6c-20.66,0-35.06-7.04-35.06-13.35v-11.96c6.34,5.72,19.5,9.57,35.06,9.57s28.72-3.85,35.06-9.57v11.96c0,6.32-14.4,13.35-35.06,13.35ZM103.56,111.18c6.34,5.72,19.51,9.57,35.06,9.57s28.72-3.86,35.06-9.59v12.3c0,6.32-14.4,13.35-35.06,13.35s-35.06-7.04-35.06-13.35v-12.28ZM103.56,103.21c0-6.32,14.4-13.35,35.06-13.35s35.06,7.04,35.06,13.35v.12c0,6.32-14.4,13.35-35.06,13.35s-35.06-7.04-35.06-13.35v-.12ZM138.62,176.4c-20.66,0-35.06-7.04-35.06-13.35v-11.96c6.34,5.72,19.5,9.57,35.06,9.57s28.72-3.85,35.06-9.57v11.96c0,6.32-14.4,13.35-35.06,13.35Z"/>
  <path class="cls-1" d="M118.31,63.33V27.97c0-1.12-.91-2.03-2.03-2.03H30.83c-1.12,0-2.03.91-2.03,2.03v35.35c0,1.12.91,2.03,2.03,2.03h85.45c1.12,0,2.03-.91,2.03-2.03ZM114.25,61.3H32.86v-31.29h81.39v31.29Z"/>
  <path class="cls-1" d="M82.58,88.85h-15.4c-1.12,0-2.03.91-2.03,2.03s.91,2.03,2.03,2.03h15.4c1.12,0,2.03-.91,2.03-2.03s-.91-2.03-2.03-2.03Z"/>
  <path class="cls-1" d="M82.58,113.27h-15.4c-1.12,0-2.03.91-2.03,2.03s.91,2.03,2.03,2.03h15.4c1.12,0,2.03-.91,2.03-2.03s-.91-2.03-2.03-2.03Z"/>
  <path class="cls-1" d="M82.58,137.68h-15.4c-1.12,0-2.03.91-2.03,2.03s.91,2.03,2.03,2.03h15.4c1.12,0,2.03-.91,2.03-2.03s-.91-2.03-2.03-2.03Z"/>
  <path class="cls-1" d="M46.23,88.85h-15.4c-1.12,0-2.03.91-2.03,2.03s.91,2.03,2.03,2.03h15.4c1.12,0,2.03-.91,2.03-2.03s-.91-2.03-2.03-2.03Z"/>
  <path class="cls-1" d="M46.23,113.27h-15.4c-1.12,0-2.03.91-2.03,2.03s.91,2.03,2.03,2.03h15.4c1.12,0,2.03-.91,2.03-2.03s-.91-2.03-2.03-2.03Z"/>
  <path class="cls-1" d="M46.23,137.68h-15.4c-1.12,0-2.03.91-2.03,2.03s.91,2.03,2.03,2.03h15.4c1.12,0,2.03-.91,2.03-2.03s-.91-2.03-2.03-2.03Z"/>
  <path class="cls-1" d="M86.03,171.89H22.4c-8.87,0-16.09-7.22-16.09-16.09V20.61c0-8.87,7.22-16.09,16.09-16.09h102.3c8.87,0,16.09,7.22,16.09,16.09v49.25c0,1.12.91,2.03,2.03,2.03s2.03-.91,2.03-2.03V20.61c0-11.11-9.04-20.15-20.15-20.15H22.4C11.29.46,2.26,9.5,2.26,20.61v135.2c0,11.11,9.04,20.15,20.15,20.15h63.63c1.12,0,2.03-.91,2.03-2.03s-.91-2.03-2.03-2.03Z"/>
</svg>