<?xml version="1.0" encoding="UTF-8"?>
<svg id="Home_Improvement_Tools" data-name="Home Improvement &amp;amp; Tools" xmlns="http://www.w3.org/2000/svg" viewBox="0 0 180 180">
  <defs>
    <style>
      .cls-1 {
        stroke: #000;
        stroke-miterlimit: 10;
        stroke-width: 2px;
      }
    </style>
  </defs>
  <path class="cls-1" d="M177.88,47.96c1.17,0,2.12-.95,2.12-2.12v-18.09c0-1.17-.95-2.12-2.12-2.12h-10.1v-8.73c0-.21-.03-.41-.09-.6-.73-7.18-6.83-12.73-14.09-12.73s-13.36,5.56-14.09,12.73c-.06.19-.09.39-.09.6v8.73h-11.99v-8.73c0-.21-.03-.41-.09-.6-.73-7.18-6.83-12.73-14.09-12.73s-13.36,5.56-14.09,12.73c-.06.19-.09.39-.09.6v8.73h-11.99v-8.73c0-.2-.03-.4-.08-.58-.72-7.19-6.82-12.75-14.09-12.75s-13.36,5.56-14.09,12.73c-.06.19-.09.39-.09.6v8.73h-11.99v-8.73c0-.2-.03-.4-.08-.58-.72-7.19-6.82-12.75-14.09-12.75s-13.36,5.56-14.09,12.73c-.06.19-.09.39-.09.6v8.73h-10.1c-1.17,0-2.12.95-2.12,2.12v18.09c0,1.17.95,2.12,2.12,2.12h10.1v6.96c0,1.17.95,2.12,2.12,2.12s2.12-.95,2.12-2.12V17.33c.02-.09.03-.18.04-.28.36-5.18,4.7-9.24,9.9-9.24s9.54,4.06,9.9,9.24c0,.09.02.18.04.27v47.31c0,1.17.95,2.12,2.12,2.12s2.12-.95,2.12-2.12v-16.68h11.99v34.3c0,1.17.95,2.12,2.12,2.12s2.12-.95,2.12-2.12V17.33c.02-.09.03-.18.04-.28.36-5.18,4.7-9.24,9.9-9.24s9.54,4.06,9.9,9.24c0,.09.02.18.04.27v101.09c0,1.17.95,2.12,2.12,2.12s2.12-.95,2.12-2.12V47.96h11.99v85h-8.79c-1.17,0-2.12.95-2.12,2.12s.95,2.12,2.12,2.12h8.79v13.85h-8.49c-1.17,0-2.12.95-2.12,2.12s.95,2.12,2.12,2.12h8.49v7.89c0,7.81,6.36,14.17,14.17,14.17s14.17-6.36,14.17-14.17v-7.89h11.99v7.89c0,7.81,6.36,14.17,14.17,14.17s14.17-6.36,14.17-14.17v-7.89h10.1c1.17,0,2.12-.95,2.12-2.12v-18.09c0-1.17-.95-2.12-2.12-2.12h-10.1V47.96h10.1ZM10.46,43.72v-13.85h7.98v13.85h-7.98ZM46.78,43.72v-13.85h11.99v13.85h-11.99ZM87.12,43.72v-13.85h11.99v13.85h-11.99ZM123.21,163.18c0,5.48-4.46,9.93-9.93,9.93s-9.93-4.46-9.93-9.93V17.33c.02-.09.03-.18.04-.28.36-5.18,4.7-9.24,9.9-9.24s9.54,4.06,9.9,9.24c0,.09.02.18.04.27v145.85ZM139.44,29.87v13.85h-11.99v-13.85h11.99ZM139.44,47.96v85h-11.99V47.96h11.99ZM127.45,151.05v-13.85h11.99v13.85h-11.99ZM163.55,163.18c0,5.48-4.46,9.93-9.93,9.93s-9.93-4.46-9.93-9.93V17.33c.02-.09.03-.18.04-.28.36-5.18,4.7-9.24,9.9-9.24s9.54,4.06,9.9,9.24c0,.09.02.18.04.27v145.85ZM175.76,29.87v13.85h-7.98v-13.85h7.98ZM175.76,137.2v13.85h-7.98v-13.85h7.98Z"/>
  <path class="cls-1" d="M60.38,93.96c-.89.3-1.47,1.14-1.44,2.08.21,6.54-2.04,16.1-4.16,23.01-1.85-39.85-24.5-53.57-25.53-54.17-.66-.38-1.47-.39-2.13,0-.66.38-1.06,1.09-1.06,1.85.19,19.44-7.66,33.53-14.58,45.95-10.71,19.23-19.96,35.83,1.52,63.84.4.52,1.02.83,1.68.83h48.98c.41,0,.81-.12,1.16-.34,8.18-5.32,13.27-12.99,15.14-22.82,4.18-22.08-8.82-47.76-17.17-59.45-.54-.76-1.52-1.07-2.4-.78ZM75.79,153.4c-1.6,8.43-5.89,15.06-12.76,19.71H15.73c-18.98-25.29-10.83-39.91-.55-58.37,6.68-11.99,14.19-25.47,15.04-43.85,6.65,5.71,21.55,22.47,20.38,57.35-.02.54-.07,1.97,1.18,2.71.7.42,1.59.41,2.31-.01,2.47-1.46,7.25-17.23,8.69-28.53,8.86,14.51,16.04,35.02,13.02,50.99Z"/>
</svg>