<?xml version="1.0" encoding="UTF-8"?>
<svg id="Home_Improvement_Tools" data-name="Home Improvement &amp;amp; Tools" xmlns="http://www.w3.org/2000/svg" viewBox="0 0 180 180">
  <defs>
    <style>
      .cls-1 {
        stroke: #000;
        stroke-miterlimit: 10;
        stroke-width: 2px;
      }
    </style>
  </defs>
  <path class="cls-1" d="M8.33,50.78c1.04,0,1.88-.84,1.88-1.88v-12.94l10.64-4.21c.97-.38,1.44-1.48,1.06-2.45-.38-.97-1.48-1.44-2.45-1.06l-11.83,4.68c-.72.28-1.19.98-1.19,1.75v14.22c0,1.04.84,1.88,1.88,1.88Z"/>
  <path class="cls-1" d="M40.74,23.73c.23,0,.47-.04.69-.13l15.81-6.26c.97-.38,1.44-1.48,1.06-2.45-.38-.97-1.48-1.44-2.45-1.06l-15.81,6.26c-.97.38-1.44,1.48-1.06,2.45.29.74,1,1.19,1.75,1.19Z"/>
  <path class="cls-1" d="M172.36,32.92L90.69.59c-.45-.18-.94-.17-1.37,0,0,0-14.25,5.64-14.25,5.64-.97.38-1.44,1.48-1.06,2.45.29.74,1,1.19,1.75,1.19.23,0,.47-.04.69-.13l11.66-4.62v87.75L10.22,123.71v-14.86c0-1.04-.84-1.88-1.88-1.88s-1.88.84-1.88,1.88v37.39c0,.77.47,1.47,1.19,1.75l81.67,32.33c.22.09.46.13.69.13s.47-.04.69-.13l81.67-32.33c.72-.28,1.19-.98,1.19-1.75V34.68c0-.77-.47-1.47-1.19-1.75ZM91.88,5.12l77.9,30.84v87.75l-19.86-7.86v-50c0-.77-.47-1.47-1.19-1.75l-34.4-13.62c-.58-.23-1.24-.16-1.75.19-.52.35-.83.93-.83,1.56v48.5l-19.86-7.86V5.12ZM115.52,102.23v-47.22l30.63,12.13v47.22l-30.63-12.13ZM90,96.18l76.55,30.3-76.55,30.3L13.45,126.48l76.55-30.3ZM90,176.55l-79.78-31.58v-15.71l79.09,31.31c.22.09.46.13.69.13s.47-.04.69-.13l79.09-31.31v15.71l-79.78,31.58Z"/>
  <path class="cls-1" d="M8.33,88.41c1.04,0,1.88-.84,1.88-1.88v-17.8c0-1.04-.84-1.88-1.88-1.88s-1.88.84-1.88,1.88v17.8c0,1.04.84,1.88,1.88,1.88Z"/>
</svg>