<?xml version="1.0" encoding="UTF-8"?>
<svg id="Home_Improvement_Tools" data-name="Home Improvement &amp;amp; Tools" xmlns="http://www.w3.org/2000/svg" viewBox="0 0 180 180">
  <defs>
    <style>
      .cls-1 {
        stroke: #000;
        stroke-miterlimit: 10;
        stroke-width: 2px;
      }
    </style>
  </defs>
  <path class="cls-1" d="M161.34,157.97h-2.65V2.44c0-1.09-.89-1.98-1.98-1.98H23.29c-1.09,0-1.98.89-1.98,1.98v155.53h-2.65c-5.69,0-10.32,4.63-10.32,10.32v10.19c0,1.09.89,1.98,1.98,1.98h159.36c1.09,0,1.98-.89,1.98-1.98v-10.19c0-5.69-4.63-10.32-10.32-10.32ZM25.27,4.42h129.46v153.55H25.27V4.42ZM167.7,176.5H12.3v-8.21c0-3.51,2.85-6.36,6.36-6.36h142.68c3.51,0,6.36,2.85,6.36,6.36v8.21Z"/>
  <path class="cls-1" d="M141.89,15.29H38.12c-1.09,0-1.98.89-1.98,1.98v127.86c0,1.09.89,1.98,1.98,1.98h103.77c1.09,0,1.98-.89,1.98-1.98V17.27c0-1.09-.89-1.98-1.98-1.98ZM139.9,143.15H40.1V19.25h99.81v123.9Z"/>
  <path class="cls-1" d="M59.76,82.55c.32,0,.65-.08.95-.24l60.49-33.21c.96-.53,1.31-1.73.78-2.69-.53-.96-1.73-1.31-2.69-.78l-60.49,33.21c-.96.53-1.31,1.73-.78,2.69.36.66,1.04,1.03,1.74,1.03Z"/>
  <path class="cls-1" d="M59.76,117.02c.32,0,.65-.08.95-.24l60.49-33.21c.96-.53,1.31-1.73.78-2.69-.53-.96-1.73-1.31-2.69-.78l-60.49,33.21c-.96.53-1.31,1.73-.78,2.69.36.66,1.04,1.03,1.74,1.03Z"/>
</svg>