<?xml version="1.0" encoding="UTF-8"?>
<svg id="Home_Improvement_Tools" data-name="Home Improvement &amp;amp; Tools" xmlns="http://www.w3.org/2000/svg" viewBox="0 0 180 180">
  <defs>
    <style>
      .cls-1 {
        stroke: #000;
        stroke-miterlimit: 10;
        stroke-width: 2px;
      }
    </style>
  </defs>
  <path class="cls-1" d="M114.98.5h-49.96C29.19.5.03,29.65.03,65.48v23.67c0,1.15.93,2.08,2.08,2.08h3.54l14.21,87.44c.16,1.01,1.03,1.75,2.05,1.75h136.17c1.02,0,1.89-.74,2.05-1.75l14.21-87.44h3.54c1.15,0,2.08-.93,2.08-2.08v-23.67C179.97,29.65,150.81.5,114.98.5ZM4.2,65.48C4.2,31.94,31.48,4.66,65.02,4.66h49.96c33.54,0,60.83,27.29,60.83,60.83v3.09H4.2v-3.09ZM156.31,176.27H23.69l-13.82-85.03h160.26l-13.82,85.03ZM175.8,87.07H4.2v-14.34h171.61v14.34Z"/>
  <path class="cls-1" d="M48.25,153.69h83.5c1.15,0,2.08-.93,2.08-2.08v-38.79c0-1.15-.93-2.08-2.08-2.08H48.25c-1.15,0-2.08.93-2.08,2.08v38.79c0,1.15.93,2.08,2.08,2.08ZM50.33,114.9h79.34v34.63H50.33v-34.63Z"/>
</svg>