<?xml version="1.0" encoding="UTF-8"?>
<svg id="Home_Improvement_Tools" data-name="Home Improvement &amp;amp; Tools" xmlns="http://www.w3.org/2000/svg" viewBox="0 0 180 180">
  <defs>
    <style>
      .cls-1 {
        stroke: #000;
        stroke-miterlimit: 10;
        stroke-width: 2px;
      }
    </style>
  </defs>
  <path class="cls-1" d="M.64,136.05c.37.33.83.49,1.29.49.53,0,1.06-.22,1.44-.64,25.12-27.99,52.01-58.14,58.28-65.17l4.87,4.87c.38.38.87.57,1.37.57s.99-.19,1.37-.57l2.4-2.4c6.59,2.65,8.44,8.62,10.38,14.93,2.15,6.98,4.58,14.89,14.88,15.17.02,0,.03,0,.05,0,.51,0,1-.2,1.37-.57l24.93-24.93c.38-.38.58-.89.57-1.42-.28-10.32-8.4-12.53-15.57-14.48-6.49-1.77-12.64-3.45-15.3-10.01l1.63-1.63c.76-.76.76-1.98,0-2.73l-30.16-30.17c-.26-.26-25.86-25.43-55.91-13.81C4.29,5.18-.17,8.24,0,11.92c.13,2.68,2.56,4.71,7.24,6.04h0c32.62,9.22,28.79,24.93,28.61,25.58-.19.68,0,1.4.49,1.9l6.63,6.63c-5.13,4.57-22.54,20.1-42.34,37.82-.8.71-.86,1.93-.15,2.73.71.8,1.93.86,2.73.15,20.01-17.91,37.59-33.58,42.5-37.96l13.19,13.19c-5.99,6.72-33.1,37.12-58.42,65.33-.71.79-.65,2.02.15,2.73ZM107.25,65.62c7.68,2.09,12.16,3.63,12.67,10.05l-23.71,23.72c-6.49-.52-8.24-5.1-10.48-12.4-1.91-6.2-4.04-13.15-11.14-16.72l15.46-15.46c3.63,7.12,10.8,9.07,17.21,10.81ZM39.8,43.41c.25-1.94.33-6.04-2.32-10.8-4.44-7.99-14.26-14.17-29.18-18.39h0c-3.46-.98-4.41-2.06-4.43-2.5-.04-.9,2.09-3.05,6.05-4.59,27.67-10.7,51.54,12.7,51.78,12.94l28.8,28.8-22.61,22.61-28.08-28.08Z"/>
  <path class="cls-1" d="M178.07,158.04h-53.78v-29.95l5.88-3.39c.76-.44,1.13-1.33.9-2.17-.23-.85-.99-1.43-1.87-1.43h-13.68c-.88,0-1.64.59-1.87,1.43-.23.84.14,1.74.9,2.17l5.88,3.39v29.95H1.93c-1.07,0-1.93.87-1.93,1.93v18.54c0,1.07.87,1.93,1.93,1.93h176.13c1.07,0,1.93-.87,1.93-1.93v-18.54c0-1.07-.87-1.93-1.93-1.93ZM176.13,176.58H3.87v-14.67h172.27v14.67Z"/>
</svg>