<?xml version="1.0" encoding="UTF-8"?>
<svg id="Home_Improvement_Tools" data-name="Home Improvement &amp;amp; Tools" xmlns="http://www.w3.org/2000/svg" viewBox="0 0 180 180">
  <defs>
    <style>
      .cls-1 {
        stroke: #000;
        stroke-miterlimit: 10;
        stroke-width: 2px;
      }
    </style>
  </defs>
  <path class="cls-1" d="M179.12,91.43l-23.16-13.88c-.27-19.4-8.07-37.01-22.03-49.67-13.82-12.53-32.64-19.43-52.99-19.43s-39.17,6.9-52.99,19.43c-14.01,12.7-21.81,30.37-22.03,49.84l-5.25,4.27C.24,82.33,0,82.85,0,83.39v14.76c0,1,.81,1.8,1.8,1.8h10.06v16.4c0,1,.81,1.8,1.8,1.8h16.24c4.37,0,7.22-2.23,9.96-4.38,2.69-2.11,5.23-4.1,9.34-4.1h11c2.58,4.14,6.35,7.43,10.78,9.4v51.59c0,1,.81,1.8,1.8,1.8h16.27c1,0,1.8-.81,1.8-1.8v-51.59c7.74-3.46,13.15-10.8,14.26-19.13h73.05c1,0,1.8-.81,1.8-1.8v-5.16c0-.63-.33-1.22-.88-1.55ZM88.43,116.19c-.7.27-1.16.94-1.16,1.68v50.99h-12.66v-50.99c0-.75-.46-1.42-1.16-1.68-4.48-1.73-8.26-5-10.64-9.21-.32-.57-.92-.92-1.57-.92h-12.03c-5.35,0-8.65,2.59-11.56,4.87-2.47,1.94-4.61,3.61-7.74,3.61h-14.44v-14.59h86.02c-1.14,7.25-6.1,13.55-13.07,16.24ZM176.39,96.34H3.61v-12.1l5.24-4.27c.42-.34.67-.86.67-1.4C9.52,40.66,40.22,12.06,80.94,12.06s71.42,28.6,71.42,66.52c0,.63.33,1.22.88,1.55l23.15,13.88v2.34Z"/>
  <path class="cls-1" d="M80.81,23.09c-26.37,0-49.72,16.34-56.8,39.73-.29.95.25,1.96,1.2,2.25.95.29,1.96-.25,2.25-1.2,6.62-21.88,28.56-37.17,53.34-37.17s46.73,15.28,53.34,37.17c.24.78.95,1.28,1.73,1.28.17,0,.35-.03.52-.08.95-.29,1.49-1.3,1.2-2.25-7.08-23.39-30.43-39.73-56.8-39.73Z"/>
</svg>