<?xml version="1.0" encoding="UTF-8"?>
<svg id="Home_Improvement_Tools" data-name="Home Improvement &amp;amp; Tools" xmlns="http://www.w3.org/2000/svg" viewBox="0 0 180 180">
  <defs>
    <style>
      .cls-1 {
        stroke: #000;
        stroke-miterlimit: 10;
        stroke-width: 2px;
      }
    </style>
  </defs>
  <path class="cls-1" d="M179.94,59.38c-.06-.47-.31-.9-.7-1.16L117.57,15.65c-.66-.45-1.54-.37-2.11.19l-49.14,49.14c-5.95,5.95-7.6,10.34-9.19,14.6-1.46,3.88-2.83,7.54-7.74,12.35C39,102.08,1.98,139.33,1.61,139.7.57,140.74,0,142.12,0,143.59s.57,2.86,1.61,3.89l16.34,16.34c1.16,1.16,2.53,1.75,3.89,1.75s2.73-.58,3.89-1.75c5.01-5.01,5.78-9.57,6.34-12.9.34-2.04.59-3.52,1.6-4.57,2.31-2.4,44.33-44.38,70.89-70.91l23.79,33.69c.27.38.69.63,1.15.69.09.01.52.06,1.24.06,3.93,0,16.69-1.35,32.3-16.96,18.46-18.46,16.97-32.93,16.9-33.54ZM31.29,144.05c-1.72,1.79-2.09,3.99-2.48,6.31-.54,3.21-1.15,6.85-5.42,11.12-1.03,1.03-2.08,1.03-3.11,0l-16.34-16.34c-.86-.86-.86-2.25,0-3.11.37-.37,37.38-37.61,47.75-47.75,5.44-5.32,7.01-9.5,8.53-13.55,1.54-4.1,3-7.98,8.44-13.42l17.68-17.68,16.29,23.06c-26.57,26.54-68.96,68.89-71.33,71.36ZM160.71,90.58c-14.97,14.97-27.11,15.98-30.1,15.98h-.02l-41.87-59.29,28.12-28.12,59.87,41.32c.02,2.97-.9,15.03-15.99,30.11Z"/>
  <path class="cls-1" d="M136.95,91.6c.23,0,.47-.05.69-.15,4.48-2.08,9.11-5.49,13.77-10.16,4.62-4.62,8.02-9.22,10.1-13.66.39-.83.03-1.81-.79-2.2-.82-.39-1.81-.03-2.2.79-.82,1.75-1.88,3.53-3.16,5.34l-13.79,13.76c-1.8,1.26-3.58,2.31-5.33,3.12-.83.38-1.19,1.37-.8,2.19.28.6.88.96,1.5.96Z"/>
  <path class="cls-1" d="M21.06,138.18c-1.82,0-3.3,1.48-3.3,3.3s1.48,3.3,3.3,3.3,3.3-1.48,3.3-3.3-1.48-3.3-3.3-3.3Z"/>
</svg>