<?xml version="1.0" encoding="UTF-8"?>
<svg id="Home_Improvement_Tools" data-name="Home Improvement &amp;amp; Tools" xmlns="http://www.w3.org/2000/svg" viewBox="0 0 180 180">
  <defs>
    <style>
      .cls-1 {
        stroke: #000;
        stroke-miterlimit: 10;
        stroke-width: 2px;
      }
    </style>
  </defs>
  <path class="cls-1" d="M178.24.46H1.77C.79.46,0,1.25,0,2.23v176.47c0,.97.79,1.76,1.76,1.76h176.47c.97,0,1.76-.79,1.76-1.76V2.23c0-.97-.79-1.76-1.76-1.76ZM140.88,153.73l23.2,23.2h-46.41l23.2-23.2ZM143.37,98.18l24.03-24.03,9.07,9.07v48.06l-33.1-33.1ZM103.26,27.19L80.06,3.99h46.41l-23.2,23.2ZM100.77,82.74l-24.03,24.03L15.09,45.13l24.03-24.03,61.64,61.64ZM103.26,133.3l-24.03-24.03,61.65-61.64,24.03,24.03-61.65,61.65ZM3.53,56.69l9.07-9.07,24.03,24.03L3.53,104.75v-48.06ZM3.53,157.81v-48.06l9.07-9.07,24.03,24.03L3.53,157.81ZM15.09,98.18l24.03-24.03,61.64,61.65-24.03,24.03L15.09,98.18ZM143.37,45.13l24.03-24.03,9.07,9.07v48.06l-33.1-33.1ZM176.47,3.99v21.18l-21.18-21.18h21.18ZM131.46,3.99h18.84l14.61,14.61-61.65,61.64-24.03-24.03L131.46,3.99ZM75.07,3.99l25.7,25.7-24.03,24.03L27.01,3.99h48.06ZM36.63,18.6L3.53,51.7V3.99h18.49l14.61,14.61ZM3.53,176.93v-14.14l9.07-9.07,23.2,23.2H3.53ZM40.79,176.93l-25.7-25.7,24.03-24.03,49.73,49.73h-48.06ZM79.23,162.32l61.65-61.64,24.03,24.03-52.23,52.22h-18.84l-14.61-14.61ZM176.47,176.93h-7.4l-25.7-25.7,24.03-24.03,9.07,9.07v40.66Z"/>
</svg>