<?xml version="1.0" encoding="UTF-8"?>
<svg id="Home_Improvement_Tools" data-name="Home Improvement &amp;amp; Tools" xmlns="http://www.w3.org/2000/svg" viewBox="0 0 180 180">
  <defs>
    <style>
      .cls-1 {
        stroke: #000;
        stroke-miterlimit: 10;
        stroke-width: 2px;
      }
    </style>
  </defs>
  <path class="cls-1" d="M90,.46C40.37.46,0,40.84,0,90.46s40.37,90,90,90,90-40.37,90-90S139.63.46,90,.46ZM90,176.4c-47.39,0-85.94-38.55-85.94-85.94S42.61,4.52,90,4.52s85.94,38.55,85.94,85.94-38.55,85.94-85.94,85.94Z"/>
  <path class="cls-1" d="M90,15.28C48.54,15.28,14.82,49.01,14.82,90.46s33.73,75.18,75.18,75.18,75.18-33.73,75.18-75.18S131.46,15.28,90,15.28ZM90,161.59c-39.22,0-71.12-31.91-71.12-71.12S50.78,19.34,90,19.34s71.12,31.91,71.12,71.12-31.91,71.12-71.12,71.12Z"/>
  <path class="cls-1" d="M125.46,55.77c-6.84-.36-13.4,1.95-18.49,6.52-2.84,2.55-5.03,5.63-6.48,9.05.16-4.45,1.05-8.87,2.65-13.04,2.16-5.6,5.44-10.53,9.77-14.66.71-.68.83-1.77.29-2.59-2.95-4.44-7.14-7.81-12.12-9.73-6.38-2.46-13.35-2.29-19.6.49-6.25,2.78-11.06,7.82-13.52,14.21-2.46,6.38-2.29,13.35.49,19.6,1.55,3.49,3.8,6.52,6.6,8.96-4.18-1.53-8.11-3.74-11.58-6.55-4.66-3.78-8.33-8.43-10.92-13.82-.43-.89-1.42-1.34-2.37-1.08-5.14,1.43-9.63,4.38-13,8.52-4.31,5.31-6.3,11.99-5.59,18.79.71,6.81,4.02,12.93,9.33,17.24,4.61,3.74,10.24,5.73,16.1,5.73.89,0,1.79-.05,2.69-.14,3.8-.39,7.38-1.6,10.56-3.51-2.75,3.5-6.06,6.56-9.81,8.99-5.04,3.26-10.59,5.32-16.52,6.12-.97.13-1.71.94-1.76,1.93-.23,5.33,1.19,10.51,4.09,14.99,3.72,5.74,9.45,9.7,16.15,11.13,1.8.39,3.61.58,5.41.58,4.89,0,9.68-1.4,13.87-4.12,9.29-6.02,13.39-17.09,11.03-27.3,2.49,3.7,4.38,7.81,5.54,12.14h0c1.55,5.8,1.79,11.72.72,17.6-.18.97.37,1.92,1.29,2.27,2.89,1.08,5.9,1.62,8.92,1.62,2.21,0,4.43-.29,6.61-.87,6.61-1.76,12.14-5.99,15.57-11.92,3.43-5.92,4.35-12.82,2.58-19.44-1.76-6.61-5.99-12.14-11.92-15.57-3.3-1.91-6.91-3.04-10.61-3.36,4.28-1.22,8.77-1.75,13.22-1.51,5.99.32,11.7,1.92,16.96,4.76.3.16.64.24.96.24.6,0,1.19-.27,1.59-.77,3.31-4.18,5.22-9.2,5.51-14.53.76-14.1-10.1-26.2-24.21-26.95ZM89.63,106.82c-4.37-.1-8.44-1.9-11.46-5.06-3.02-3.16-4.63-7.31-4.53-11.68.2-8.89,7.5-15.99,16.36-15.99.13,0,.25,0,.38,0,9.02.21,16.19,7.71,15.99,16.73-.1,4.37-1.9,8.44-5.06,11.46-3.16,3.02-7.34,4.63-11.68,4.53ZM72.16,63.97c-2.34-5.26-2.48-11.12-.41-16.5,2.07-5.37,6.11-9.62,11.37-11.95,2.8-1.24,5.76-1.86,8.74-1.86,2.62,0,5.24.48,7.76,1.45,3.67,1.41,6.84,3.76,9.23,6.84-4.14,4.28-7.33,9.28-9.49,14.89h0c-1.75,4.55-2.73,9.38-2.92,14.24-1.88-.63-3.89-.99-5.97-1.03-3.97-.09-7.7.97-10.88,2.86-3.22-2.22-5.79-5.27-7.42-8.94ZM59.29,99.24c-5.73.59-11.35-1.08-15.82-4.71-9.23-7.49-10.64-21.1-3.15-30.32,2.48-3.06,5.69-5.34,9.36-6.67,2.79,5.26,6.56,9.84,11.23,13.63,3.79,3.08,8.09,5.5,12.65,7.18-2.41,3.27-3.89,7.28-3.98,11.64-.04,1.69.15,3.35.51,4.96-3.11,2.37-6.81,3.87-10.8,4.28ZM79.5,135.96c-4.83,3.13-10.6,4.19-16.23,2.99-5.63-1.2-10.46-4.53-13.59-9.36-2.14-3.3-3.32-7.06-3.45-10.96,5.87-1.03,11.39-3.2,16.43-6.46,4.1-2.66,7.74-5.99,10.75-9.82.56.77,1.15,1.53,1.82,2.23,3.44,3.6,7.98,5.76,12.89,6.21,3.19,9.16-.12,19.68-8.62,25.18ZM120,101.41c4.98,2.89,8.55,7.54,10.03,13.1,1.48,5.56.71,11.37-2.17,16.36-2.89,4.98-7.54,8.55-13.1,10.03-3.8,1.01-7.74.97-11.49-.11.84-5.9.48-11.82-1.07-17.62-1.26-4.72-3.3-9.2-6.01-13.24,2.93-.93,5.64-2.51,7.92-4.69,2.02-1.93,3.59-4.21,4.66-6.7,3.9-.09,7.77.88,11.23,2.88ZM145.61,82.51c-.21,3.93-1.47,7.66-3.65,10.89-5.35-2.62-11.09-4.11-17.09-4.43-4.87-.26-9.77.3-14.45,1.62.04-6.14-2.65-11.69-6.95-15.48,1.12-3.75,3.24-7.13,6.22-9.81,4.28-3.85,9.82-5.79,15.56-5.49,11.87.64,21.01,10.81,20.37,22.68Z"/>
</svg>