<?xml version="1.0" encoding="UTF-8"?>
<svg id="Home_Improvement_Tools" data-name="Home Improvement &amp;amp; Tools" xmlns="http://www.w3.org/2000/svg" viewBox="0 0 180 180">
  <defs>
    <style>
      .cls-1 {
        stroke: #000;
        stroke-miterlimit: 10;
        stroke-width: 2px;
      }
    </style>
  </defs>
  <path class="cls-1" d="M177.79.48H2.21C1,.48.01,1.46.01,2.67v175.59c0,1.21.98,2.19,2.19,2.19h175.59c1.21,0,2.19-.98,2.19-2.19V2.67c0-1.21-.98-2.19-2.19-2.19ZM175.6,4.86v171.2h-11.22V4.86h11.22ZM159.99,117.53h-52.19v-54.14h52.19v54.14ZM159.99,59h-52.19V4.86h52.19v54.14ZM107.8,121.92h52.19v54.14h-52.19v-54.14ZM103.41,176.06h-11.22V4.86h11.22v171.2ZM4.4,4.86h83.4v171.2H4.4V4.86Z"/>
  <path class="cls-1" d="M120.96,45.21c.43.43.99.64,1.55.64s1.12-.21,1.55-.64l22.77-22.77c.86-.86.86-2.25,0-3.1-.86-.86-2.25-.86-3.1,0l-22.77,22.77c-.86.86-.86,2.25,0,3.1Z"/>
  <path class="cls-1" d="M120.96,103.4c.43.43.99.64,1.55.64s1.12-.21,1.55-.64l22.77-22.77c.86-.86.86-2.25,0-3.1-.86-.86-2.25-.86-3.1,0l-22.77,22.77c-.86.86-.86,2.25,0,3.1Z"/>
  <path class="cls-1" d="M146.83,135.71c-.86-.86-2.25-.86-3.1,0l-22.77,22.77c-.86.86-.86,2.25,0,3.1.43.43.99.64,1.55.64s1.12-.21,1.55-.64l22.77-22.77c.86-.86.86-2.25,0-3.1Z"/>
  <path class="cls-1" d="M17.81,13.64c-2.56,0-4.63,2.08-4.63,4.63s2.08,4.63,4.63,4.63,4.63-2.08,4.63-4.63-2.08-4.63-4.63-4.63Z"/>
  <circle class="cls-1" cx="74.39" cy="18.28" r="4.63" transform="translate(-1.95 12) rotate(-9.1)"/>
  <circle class="cls-1" cx="74.39" cy="162.65" r="4.63" transform="translate(-24.79 13.81) rotate(-9.1)"/>
  <circle class="cls-1" cx="74.39" cy="90.46" r="4.63" transform="translate(-13.37 12.9) rotate(-9.1)"/>
  <path class="cls-1" d="M17.81,85.83c-2.56,0-4.63,2.08-4.63,4.63s2.08,4.63,4.63,4.63,4.63-2.08,4.63-4.63-2.08-4.63-4.63-4.63Z"/>
  <path class="cls-1" d="M17.81,158.01c-2.56,0-4.63,2.08-4.63,4.63s2.08,4.63,4.63,4.63,4.63-2.08,4.63-4.63-2.08-4.63-4.63-4.63Z"/>
</svg>