<?xml version="1.0" encoding="UTF-8"?>
<svg id="Home_Improvement_Tools" data-name="Home Improvement &amp;amp; Tools" xmlns="http://www.w3.org/2000/svg" viewBox="0 0 180 180">
  <defs>
    <style>
      .cls-1 {
        stroke: #000;
        stroke-miterlimit: 10;
        stroke-width: 2px;
      }
    </style>
  </defs>
  <path class="cls-1" d="M176.8,48.78s-.02-.02-.03-.03L132.27,4.23c-2.43-2.43-5.66-3.77-9.09-3.77s-6.66,1.34-9.09,3.77c-2.43,2.43-3.77,5.66-3.77,9.09,0,1.32.2,2.6.58,3.83-5.86-2.01-12.43.69-15.11,6.43-1.36,2.91-1.46,6.08-.55,8.92-5.8-1.86-12.24.83-14.88,6.5-1.36,2.92-1.46,6.09-.55,8.94-5.8-1.87-12.25.83-14.89,6.49-1.36,2.91-1.46,6.08-.55,8.93-5.8-1.85-12.23.84-14.87,6.5-1.33,2.84-1.5,6.01-.54,8.98-2.52-.75-5.19-.7-7.7.22-1.56.57-2.96,1.43-4.14,2.52-.11.07-9.21,9.15-9.21,9.15-3.34,3.34-5.98,5.98-6.16,14.43-.13,6.2-.14,13.33-.13,15.74l-10.77,10.77-1.55-1.55c-.79-.79-2.08-.79-2.87,0s-.79,2.08,0,2.87l1.55,1.55-5.29,5.29c-1.81,1.81-2.81,4.22-2.81,6.8s1,4.99,2.81,6.8l3.89,3.89c-1.81,4.63-.73,10.04,2.84,13.62,3.57,3.57,8.98,4.65,13.62,2.84l3.89,3.89c1.81,1.81,4.22,2.81,6.8,2.81s4.99-1,6.8-2.81l5.29-5.29,1.55,1.55c.4.4.92.6,1.44.6s1.04-.2,1.44-.6c.79-.79.79-2.08,0-2.87l-1.55-1.55,10.76-10.76c.24,0,10.16-.02,15.75-.13,8.44-.18,11.08-2.82,14.43-6.16l8.89-8.89c.79-.79.79-2.08,0-2.87l-.69-.69c3.16-.1,6.29-1.34,8.69-3.74,0,0,8.63-8.64,8.68-8.7.97-.99,1.75-2.12,2.32-3.35,1.37-2.93,1.46-6.13.53-8.99,1.15.34,2.33.53,3.49.53,4.63,0,9.07-2.63,11.15-7.09,1.32-2.82,1.5-5.97.56-8.92,1.22.39,2.47.59,3.71.59,4.63,0,9.07-2.63,11.15-7.09,1.32-2.83,1.5-5.98.55-8.93,1.22.39,2.48.6,3.74.6,1.42,0,2.84-.25,4.21-.75,3.08-1.12,5.55-3.38,6.93-6.35,1.32-2.82,1.5-5.97.56-8.92,1.22.39,2.47.6,3.73.6,1.42,0,2.84-.25,4.21-.75,3.08-1.12,5.55-3.38,6.93-6.35,2.18-4.67,1.15-10.03-2.17-13.58ZM116.96,7.1c1.66-1.66,3.87-2.58,6.22-2.58s4.56.91,6.22,2.58l34.81,34.82c-12.91-6.02-36.37-16.96-46.87-21.86-.09-.19-.21-.37-.37-.53-1.66-1.66-2.58-3.87-2.58-6.22s.92-4.56,2.58-6.22ZM37.64,174.78c-1.04,1.04-2.43,1.62-3.92,1.62s-2.88-.57-3.92-1.62l-4.89-4.89c-.39-.39-.91-.6-1.44-.6-.33,0-.66.08-.97.25-3.33,1.8-7.53,1.19-10.21-1.49-2.68-2.68-3.29-6.88-1.49-10.21.43-.79.29-1.77-.35-2.4l-4.89-4.89c-1.04-1.04-1.62-2.43-1.62-3.92s.57-2.88,1.62-3.92l5.29-5.29,32.08,32.08-5.29,5.29ZM13.72,134.54l9.92-9.92,32.08,32.08-9.92,9.92-32.08-32.08ZM86.74,149.56c-3.01,3.01-4.83,4.83-11.64,4.97-6.17.13-13.27.13-15.66.13l-33.77-33.77c0-2.39,0-9.49.13-15.66.15-6.81,1.96-8.63,4.97-11.64l7.45-7.45,55.96,55.96-7.45,7.45ZM113.83,122.48c-.4.87-.97,1.66-1.67,2.36-.06.06-8.52,8.53-8.52,8.53-3.43,3.43-9.01,3.43-12.43,0l-49.87-49.87c.42-.24.85-.46,1.31-.63.92-.33,1.87-.5,2.82-.5,1.18,0,2.36.26,3.47.77,2.92,1.36,58,27.04,60.92,28.41,4.11,1.92,5.89,6.82,3.97,10.92ZM129,106.93c-.93,1.99-2.58,3.5-4.64,4.25-2.06.75-4.29.65-6.29-.27-2.92-1.36-57.99-27.04-60.91-28.41-1.99-.93-3.5-2.58-4.25-4.64-.75-2.06-.65-4.3.27-6.29,1.39-2.99,4.36-4.75,7.46-4.75,1.16,0,2.34.25,3.46.77l61.05,28.48c1.92.94,3.38,2.55,4.12,4.57.75,2.06.65,4.3-.27,6.28ZM144.42,91.5c-.93,1.99-2.58,3.5-4.64,4.25-2.06.75-4.29.65-6.29-.27l-61.05-28.47c-4.01-1.96-5.74-6.79-3.85-10.85,1.39-2.99,4.37-4.75,7.46-4.75,1.16,0,2.34.25,3.46.77l60.91,28.41c1.99.93,3.5,2.58,4.25,4.64.75,2.06.65,4.3-.27,6.28ZM159.86,76.07c-1.92,4.11-6.82,5.89-10.92,3.98-2.92-1.36-57.99-27.04-60.92-28.41-1.99-.93-3.5-2.58-4.25-4.64-.75-2.06-.65-4.3.27-6.29.93-1.99,2.58-3.5,4.64-4.25.92-.33,1.87-.5,2.82-.5,1.18,0,2.36.26,3.47.77.55.26,61.1,28.5,61.1,28.5,1.9.94,3.34,2.54,4.07,4.54.75,2.06.65,4.3-.27,6.29ZM175.29,60.65c-.93,1.99-2.58,3.5-4.64,4.25-2.06.75-4.3.65-6.29-.27,0,0-45.74-21.34-61.1-28.5-3.97-1.98-5.68-6.78-3.79-10.83,1.39-2.99,4.37-4.75,7.46-4.75,1.16,0,2.34.25,3.46.77,2.92,1.36,57.99,27.04,60.92,28.41,1.99.93,3.5,2.58,4.25,4.64.75,2.06.65,4.3-.27,6.28Z"/>
</svg>