<?xml version="1.0" encoding="UTF-8"?>
<svg id="Home_Improvement_Tools" data-name="Home Improvement &amp;amp; Tools" xmlns="http://www.w3.org/2000/svg" viewBox="0 0 180 180">
  <defs>
    <style>
      .cls-1 {
        stroke: #000;
        stroke-miterlimit: 10;
        stroke-width: 2px;
      }
    </style>
  </defs>
  <path class="cls-1" d="M177.92,162.1c-1.15,0-2.08.93-2.08,2.08v12.11h-39.79v-12.11c0-1.15-.93-2.08-2.08-2.08s-2.08.93-2.08,2.08v12.11h-39.79v-12.11c0-1.15-.93-2.08-2.08-2.08s-2.08.93-2.08,2.08v12.11h-39.79v-12.11c0-1.15-.93-2.08-2.08-2.08s-2.08.93-2.08,2.08v12.11H4.16v-12.11c0-1.15-.93-2.08-2.08-2.08S0,163.04,0,164.19v14.19c0,1.15.93,2.08,2.08,2.08h175.84c1.15,0,2.08-.93,2.08-2.08v-14.19c0-1.15-.93-2.08-2.08-2.08Z"/>
  <path class="cls-1" d="M177.92,124.79h-55.25c3.56-3.1,5.82-7.65,5.82-12.72v-52.14C128.49,27.14,101.81.46,69.03.46H16.89C7.58.46,0,8.04,0,17.35v94.71C0,121.37,7.58,128.95,16.89,128.95h158.95v5.95c0,1.15.93,2.08,2.08,2.08s2.08-.93,2.08-2.08v-8.03c0-1.15-.93-2.08-2.08-2.08ZM4.16,17.35c0-7.02,5.71-12.72,12.72-12.72h5.49v36.55l-18.22,13.84V17.35ZM111.6,124.79H16.89c-7.02,0-12.72-5.71-12.72-12.72v-51.81l21.56-16.38c.52-.39.82-1.01.82-1.66V4.63h42.48c30.49,0,55.3,24.81,55.3,55.3v52.14c0,7.02-5.71,12.72-12.72,12.72Z"/>
  <circle class="cls-1" cx="64.24" cy="64.71" r="3.93"/>
  <path class="cls-1" d="M64.24,92.4c-15.27,0-27.7-12.43-27.7-27.7,0-1.15-.93-2.08-2.08-2.08s-2.08.93-2.08,2.08c0,17.57,14.29,31.86,31.86,31.86,1.15,0,2.08-.93,2.08-2.08s-.93-2.08-2.08-2.08Z"/>
  <path class="cls-1" d="M64.24,32.84c-1.15,0-2.08.93-2.08,2.08s.93,2.08,2.08,2.08c15.27,0,27.7,12.42,27.7,27.7,0,1.15.93,2.08,2.08,2.08s2.08-.93,2.08-2.08c0-17.57-14.29-31.86-31.86-31.86Z"/>
</svg>