<?xml version="1.0" encoding="UTF-8"?>
<svg id="Home_Improvement_Tools" data-name="Home Improvement &amp;amp; Tools" xmlns="http://www.w3.org/2000/svg" viewBox="0 0 180 180">
  <defs>
    <style>
      .cls-1 {
        stroke: #000;
        stroke-miterlimit: 10;
        stroke-width: 2px;
      }
    </style>
  </defs>
  <path class="cls-1" d="M158.87.46H21.13C9.48.46,0,9.94,0,21.6v137.73C0,170.98,9.48,180.46,21.13,180.46h137.73c11.65,0,21.13-9.48,21.13-21.13V21.6c0-11.65-9.48-21.13-21.13-21.13ZM175.73,159.33c0,9.3-7.56,16.86-16.86,16.86H21.13c-9.3,0-16.86-7.56-16.86-16.86V21.6c0-9.3,7.56-16.86,16.86-16.86h137.73c9.3,0,16.86,7.56,16.86,16.86v137.73Z"/>
  <path class="cls-1" d="M158.86,19.47H21.19c-.27-.01-.54.04-.79.14-.82.3-1.4,1.09-1.4,2.01v137.67c-.01.29.04.57.16.84.31.8,1.09,1.36,1.99,1.36h137.69c.15,0,.31-.02.46-.05.99-.2,1.71-1.07,1.71-2.09V21.66c.01-.29-.04-.57-.16-.84-.31-.8-1.09-1.36-1.99-1.36ZM156.73,157.2H23.26V23.73s133.49.01,133.49.01v133.46Z"/>
  <path class="cls-1" d="M89.99,141.4h0s0,0,0,0h0c19.51,0,37.55-11.38,45.98-28.99.14-.29.21-.6.21-.92v-15.33c0-1.18-.96-2.14-2.14-2.14h-4.15v-7.12h4.15c1.18,0,2.14-.96,2.14-2.14v-15.33c0-.32-.07-.63-.21-.92-8.42-17.61-26.46-28.99-45.97-28.99h0c-19.51,0-37.55,11.38-45.98,28.99-.14.29-.21.6-.21.92v15.33c0,1.18.96,2.14,2.14,2.14h4.15v7.12h-4.15c-1.18,0-2.14.96-2.14,2.14v15.33c0,.32.07.63.21.92,8.42,17.61,26.46,28.99,45.97,28.99ZM48.09,98.3h4.15c1.18,0,2.14-.96,2.14-2.14v-11.4c0-1.18-.96-2.14-2.14-2.14h-4.15v-12.7c7.49-15.25,22.89-25.29,39.77-26.07v4.3c0,1.18.95,2.14,2.13,2.14h0c1.18,0,2.14-.96,2.14-2.13v-4.3c16.89.79,32.29,10.83,39.78,26.07v12.7h-4.15c-1.18,0-2.14.96-2.14,2.14v11.4c0,1.18.96,2.14,2.14,2.14h4.15v12.7c-7.49,15.25-22.89,25.29-39.77,26.07v-4.3c0-1.18-.95-2.14-2.13-2.14h0c-1.18,0-2.14.96-2.14,2.13v4.3c-16.89-.79-32.29-10.83-39.78-26.07v-12.7Z"/>
  <path class="cls-1" d="M72.73,96.4c3.27,0,5.94-2.66,5.94-5.94s-2.66-5.94-5.94-5.94-5.94,2.66-5.94,5.94,2.66,5.94,5.94,5.94Z"/>
  <path class="cls-1" d="M107.27,96.4c3.27,0,5.94-2.66,5.94-5.94s-2.66-5.94-5.94-5.94-5.94,2.66-5.94,5.94,2.66,5.94,5.94,5.94Z"/>
</svg>