<?xml version="1.0" encoding="UTF-8"?>
<svg id="Home_Improvement_Tools" data-name="Home Improvement &amp;amp; Tools" xmlns="http://www.w3.org/2000/svg" viewBox="0 0 180 180">
  <defs>
    <style>
      .cls-1 {
        stroke: #000;
        stroke-miterlimit: 10;
        stroke-width: 2px;
      }
    </style>
  </defs>
  <path class="cls-1" d="M51.03,1.07c-.44-.44-1.04-.65-1.66-.6-.62.06-1.17.38-1.52.89l-22.73,32.89-6.21,6.21c-4.42,4.42-5.02,9.94-1.68,15.54,2.61,4.38,7.18,10.3,12.02,16.56,10.84,14.03,27.21,35.22,20.88,41.25-8.79,8.38-18.59,14.61-27.25,20.11-6.97,4.43-12.99,8.26-17.01,12.28C2.09,150,0,155.04,0,160.4,0,165.76,2.09,170.8,5.88,174.59c3.79,3.79,8.83,5.88,14.19,5.88s10.4-2.09,14.19-5.87c4.03-4.02,7.86-10.04,12.29-17.01,5.5-8.65,11.73-18.46,20.11-27.25,6.03-6.32,27.23,10.05,41.25,20.88,6.26,4.84,12.18,9.41,16.56,12.02,5.6,3.34,11.12,2.75,15.54-1.67l6.21-6.21,32.89-22.73c.51-.35.83-.91.89-1.52.06-.62-.17-1.22-.6-1.66L51.03,1.07ZM137.06,158.62c-3.03,3.03-6.55,3.38-10.46,1.04-4.17-2.49-9.99-6.98-16.15-11.74-17.9-13.83-38.19-29.5-46.81-20.46-8.66,9.08-15.01,19.07-20.61,27.89-4.3,6.76-8.01,12.6-11.71,16.29-3,3-7,4.66-11.25,4.66s-8.24-1.65-11.25-4.66c-3-3-4.66-7-4.66-11.24s1.65-8.24,4.66-11.25c3.69-3.7,9.53-7.41,16.29-11.71,8.81-5.6,18.8-11.95,27.89-20.61,9.04-8.62-6.63-28.91-20.46-46.81-4.76-6.16-9.25-11.98-11.74-16.15-2.34-3.91-1.98-7.43,1.04-10.46l4.87-4.87,115.21,115.21-4.87,4.87ZM145.12,151.05L29.41,35.35,49.85,5.78l124.83,124.83-29.56,20.43Z"/>
  <path class="cls-1" d="M123.39,57.07c.41.41.94.61,1.47.61s1.07-.2,1.47-.61L179.39,4.02c.81-.81.81-2.13,0-2.94s-2.13-.81-2.94,0l-53.06,53.06c-.81.81-.81,2.13,0,2.94Z"/>
  <path class="cls-1" d="M93.85,26.67c.53,0,1.07-.2,1.47-.61l22.05-22.05c.81-.81.81-2.13,0-2.94-.81-.81-2.13-.81-2.94,0l-22.05,22.05c-.81.81-.81,2.13,0,2.94.41.41.94.61,1.47.61Z"/>
  <path class="cls-1" d="M176.45,63.09l-22.05,22.05c-.81.81-.81,2.13,0,2.94.41.41.94.61,1.47.61s1.07-.2,1.47-.61l22.05-22.05c.81-.81.81-2.13,0-2.94s-2.13-.81-2.94,0Z"/>
  <path class="cls-1" d="M107.89,41.57c.41.41.94.61,1.47.61s1.07-.2,1.47-.61L148.38,4.02c.81-.81.81-2.13,0-2.94-.81-.81-2.13-.81-2.94,0l-37.55,37.55c-.81.81-.81,2.13,0,2.94Z"/>
  <path class="cls-1" d="M176.45,32.08l-37.55,37.55c-.81.81-.81,2.13,0,2.94.41.41.94.61,1.47.61s1.07-.2,1.47-.61l37.55-37.55c.81-.81.81-2.13,0-2.94s-2.13-.81-2.94,0Z"/>
  <path class="cls-1" d="M16.96,157.29c-1.71,1.71-1.71,4.5,0,6.22.86.86,1.98,1.29,3.11,1.29s2.25-.43,3.11-1.28h0c1.71-1.71,1.71-4.5,0-6.22-1.71-1.71-4.5-1.71-6.22,0Z"/>
</svg>