<?xml version="1.0" encoding="UTF-8"?>
<svg id="Home_Improvement_Tools" data-name="Home Improvement &amp;amp; Tools" xmlns="http://www.w3.org/2000/svg" viewBox="0 0 180 180">
  <defs>
    <style>
      .cls-1 {
        stroke: #000;
        stroke-miterlimit: 10;
        stroke-width: 2px;
      }
    </style>
  </defs>
  <path class="cls-1" d="M57.1,95.19c16.77-5.29,18.48-7.26,18.47-13.42v-26.43l4.57-33.35c.08-.56-.09-1.13-.47-1.56-.37-.43-.91-.67-1.48-.67H1.97c-.57,0-1.11.25-1.48.67-.37.43-.54,1-.47,1.56l4.57,33.36v26.42c0,6.16,1.7,8.14,18.47,13.42,7.07,2.23,6.83,5.5,6.65,7.89-.99,13.4-2.58,24.52-3.99,34.32-1.41,9.82-2.63,18.3-2.63,25.53,0,9.37,7.62,16.99,16.99,16.99s16.99-7.62,16.99-16.99c0-7.23-1.22-15.71-2.63-25.53-1.41-9.81-3-20.92-3.99-34.32-.18-2.39-.42-5.66,6.65-7.89ZM8.53,73.65v-16.48h63.11v16.48H8.53ZM16.87,23.69v15.56c0,1.09.88,1.97,1.97,1.97s1.97-.88,1.97-1.97v-15.56h10.23v15.56c0,1.09.88,1.97,1.97,1.97s1.97-.88,1.97-1.97v-15.56h10.23v15.56c0,1.09.88,1.97,1.97,1.97s1.97-.88,1.97-1.97v-15.56h10.23v15.56c0,1.09.88,1.97,1.97,1.97s1.97-.88,1.97-1.97v-15.56h12.64l-4.05,29.54H8.27l-4.05-29.54h12.64ZM46.53,103.37c1,13.54,2.6,24.72,4.02,34.59,1.39,9.67,2.59,18.02,2.59,24.97s-5.86,13.05-13.05,13.05-13.05-5.86-13.05-13.05,1.2-15.3,2.59-24.97c1.42-9.87,3.02-21.06,4.02-34.59.3-4.08-.5-9.13-9.39-11.93-15.72-4.95-15.72-6.14-15.72-9.66v-4.18h63.11v4.18c0,3.52,0,4.71-15.72,9.66-8.9,2.8-9.7,7.85-9.39,11.93Z"/>
  <path class="cls-1" d="M18.28,4.94h140.47c9.55,0,17.31,7.77,17.31,17.31s-7.77,17.31-17.32,17.31c-11.65,0-21.15,9.43-21.25,21.06,0,.06,0,.12,0,.18,0,7.08-5.76,12.84-12.84,12.84h-26.06c-1.09,0-1.97.88-1.97,1.97s.88,1.97,1.97,1.97h26.06c9.19,0,16.68-7.43,16.78-16.59,0-.06,0-.12,0-.19,0-9.55,7.77-17.31,17.32-17.31,11.72,0,21.25-9.53,21.25-21.25S170.47,1.01,158.75,1.01H18.28c-1.09,0-1.97.88-1.97,1.97s.88,1.97,1.97,1.97Z"/>
  <path class="cls-1" d="M158.75,99.21h-72.59c-1.09,0-1.97.88-1.97,1.97s.88,1.97,1.97,1.97h72.6c9.55,0,17.31,7.77,17.31,17.31s-7.77,17.31-17.31,17.31h-88.87c-1.09,0-1.97.88-1.97,1.97s.88,1.97,1.97,1.97h88.87c11.72,0,21.25-9.53,21.25-21.25s-9.53-21.25-21.25-21.25Z"/>
  <path class="cls-1" d="M100.46,169.1c-2.29,0-4.16,1.86-4.16,4.16s1.86,4.16,4.16,4.16,4.16-1.86,4.16-4.16-1.86-4.16-4.16-4.16Z"/>
  <circle class="cls-1" cx="160.65" cy="73.18" r="4.16"/>
  <path class="cls-1" d="M140.79,155.29c-2.29,0-4.16,1.86-4.16,4.16s1.86,4.16,4.16,4.16,4.16-1.86,4.16-4.16-1.86-4.16-4.16-4.16Z"/>
</svg>