<?xml version="1.0" encoding="UTF-8"?>
<svg id="Home_Improvement_Tools" data-name="Home Improvement &amp;amp; Tools" xmlns="http://www.w3.org/2000/svg" viewBox="0 0 180 180">
  <defs>
    <style>
      .cls-1 {
        stroke: #000;
        stroke-miterlimit: 10;
        stroke-width: 2px;
      }
    </style>
  </defs>
  <path class="cls-1" d="M177.84,1.96H5.16c-1.19,0-2.16.97-2.16,2.16v33.95c0,1.19.97,2.16,2.16,2.16s2.16-.97,2.16-2.16V6.28h50.19l-26.68,26.68c-.84.84-.84,2.21,0,3.05.42.42.97.63,1.53.63s1.1-.21,1.53-.63L63.61,6.28h51.46l-26.68,26.68c-.84.84-.84,2.21,0,3.05.42.42.97.63,1.53.63s1.1-.21,1.53-.63l29.74-29.74h51.46l-37.97,37.97c-.84.84-.84,2.21,0,3.05.42.42.97.63,1.53.63s1.1-.21,1.53-.63l37.97-37.97v51.45l-36.35,36.35c-.84.84-.84,2.21,0,3.05.42.42.97.63,1.53.63s1.1-.21,1.53-.63l33.3-33.3v51.46l-34.88,34.88c-.84.84-.84,2.21,0,3.05.42.42.97.63,1.53.63s1.1-.21,1.53-.63l31.83-31.83v50.19h-55.4c-1.19,0-2.16.97-2.16,2.16s.97,2.16,2.16,2.16h57.56c1.19,0,2.16-.97,2.16-2.16V4.12c0-1.19-.97-2.16-2.16-2.16Z"/>
  <path class="cls-1" d="M131.3,67.88c0-11.14-9.06-20.2-20.2-20.2H20.2C9.06,47.68,0,56.74,0,67.88v108.93c0,1.19.97,2.16,2.16,2.16h102.12c1.19,0,2.16-.97,2.16-2.16v-88.73h4.66c11.14,0,20.2-9.06,20.2-20.2ZM111.1,52c8.76,0,15.88,7.12,15.88,15.88s-7.12,15.88-15.88,15.88H32.64c4.71-3.7,7.76-9.44,7.76-15.88s-3.05-12.18-7.76-15.88h78.46ZM20.2,52c8.76,0,15.88,7.12,15.88,15.88s-7.12,15.88-15.88,15.88-15.88-7.12-15.88-15.88,7.12-15.88,15.88-15.88ZM102.12,174.65H4.32v-94.33c3.7,4.71,9.44,7.76,15.88,7.76h81.92v86.57Z"/>
  <circle class="cls-1" cx="20.2" cy="67.88" r="4.56"/>
</svg>