<?xml version="1.0" encoding="UTF-8"?>
<svg id="Home_Improvement_Tools" data-name="Home Improvement &amp;amp; Tools" xmlns="http://www.w3.org/2000/svg" viewBox="0 0 180 180">
  <defs>
    <style>
      .cls-1 {
        stroke: #000;
        stroke-miterlimit: 10;
        stroke-width: 2px;
      }
    </style>
  </defs>
  <path class="cls-1" d="M178.11,100.92H1.89C.85,100.92,0,101.77,0,102.81s.85,1.89,1.89,1.89h19.04v21.65c-3.69,3.49-6,8.43-6,13.91s2.31,10.41,6,13.91v23.54c0,1.04.85,1.89,1.89,1.89s1.89-.85,1.89-1.89v-20.75c2.77,1.56,5.97,2.46,9.37,2.46s6.6-.9,9.37-2.46v20.75c0,1.04.85,1.89,1.89,1.89s1.89-.85,1.89-1.89v-23.54c3.69-3.49,6-8.43,6-13.91s-2.31-10.41-6-13.91v-21.65h29.62v21.65c-3.69,3.49-6,8.43-6,13.91s2.31,10.41,6,13.91v23.54c0,1.04.85,1.89,1.89,1.89s1.89-.85,1.89-1.89v-20.75c2.77,1.56,5.97,2.46,9.37,2.46s6.6-.9,9.37-2.46v20.75c0,1.04.85,1.89,1.89,1.89s1.89-.85,1.89-1.89v-23.54c3.69-3.49,6-8.43,6-13.91s-2.31-10.41-6-13.91v-21.65h29.62v21.65c-3.69,3.49-6,8.43-6,13.91s2.31,10.41,6,13.91v23.54c0,1.04.85,1.89,1.89,1.89s1.89-.85,1.89-1.89v-20.75c2.77,1.56,5.97,2.46,9.37,2.46s6.6-.9,9.37-2.46v20.75c0,1.04.85,1.89,1.89,1.89s1.89-.85,1.89-1.89v-23.54c3.69-3.49,6-8.43,6-13.91s-2.31-10.41-6-13.91v-21.65h19.04c1.04,0,1.89-.85,1.89-1.89s-.85-1.89-1.89-1.89ZM34.08,124.88c3.56,0,6.83,1.23,9.44,3.27l-21.55,21.55c-2.04-2.61-3.27-5.88-3.27-9.44,0-8.48,6.9-15.38,15.38-15.38ZM34.08,155.64c-3.56,0-6.83-1.23-9.44-3.27l21.55-21.55c2.04,2.61,3.27,5.88,3.27,9.44,0,8.48-6.9,15.38-15.38,15.38ZM43.45,123.57c-2.77-1.56-5.97-2.46-9.37-2.46s-6.6.9-9.37,2.46v-18.87h18.75v18.87ZM90,124.88c3.56,0,6.83,1.23,9.44,3.27l-21.55,21.55c-2.04-2.61-3.27-5.88-3.27-9.44,0-8.48,6.9-15.38,15.38-15.38ZM90,155.64c-3.56,0-6.83-1.23-9.44-3.27l21.55-21.55c2.04,2.61,3.27,5.88,3.27,9.44,0,8.48-6.9,15.38-15.38,15.38ZM99.37,123.57c-2.77-1.56-5.97-2.46-9.37-2.46s-6.6.9-9.37,2.46v-18.87h18.75v18.87ZM145.92,124.88c3.56,0,6.83,1.23,9.44,3.27l-21.55,21.55c-2.04-2.61-3.27-5.88-3.27-9.44,0-8.48,6.9-15.38,15.38-15.38ZM145.92,155.64c-3.56,0-6.83-1.23-9.44-3.27l21.55-21.55c2.04,2.61,3.27,5.88,3.27,9.44,0,8.48-6.9,15.38-15.38,15.38ZM155.29,123.57c-2.77-1.56-5.97-2.46-9.37-2.46s-6.6.9-9.37,2.46v-18.87h18.75v18.87Z"/>
  <path class="cls-1" d="M1.89,75.62h176.22c1.04,0,1.89-.85,1.89-1.89s-.85-1.89-1.89-1.89h-74.96v-15.78c9.37-4.8,15.8-14.55,15.8-25.78,0-15.96-12.99-28.95-28.95-28.95s-28.95,12.99-28.95,28.95c0,11.23,6.43,20.98,15.8,25.78v15.78H1.89C.85,71.84,0,72.69,0,73.73s.85,1.89,1.89,1.89ZM64.82,30.28c0-13.88,11.29-25.18,25.18-25.18s25.18,11.29,25.18,25.18-11.29,25.18-25.18,25.18-25.18-11.29-25.18-25.18ZM80.63,57.67c2.94,1.01,6.09,1.57,9.37,1.57s6.43-.56,9.37-1.57v14.18h-18.75v-14.18Z"/>
  <path class="cls-1" d="M91.33,31.62l8.71-8.71c.74-.74.74-1.93,0-2.67s-1.93-.74-2.67,0l-8.71,8.71c-.74.74-.74,1.93,0,2.67.37.37.85.55,1.33.55s.97-.18,1.33-.55Z"/>
</svg>