<?xml version="1.0" encoding="UTF-8"?>
<svg id="Home_Improvement_Tools" data-name="Home Improvement &amp;amp; Tools" xmlns="http://www.w3.org/2000/svg" viewBox="0 0 180 180">
  <defs>
    <style>
      .cls-1 {
        stroke: #000;
        stroke-miterlimit: 10;
        stroke-width: 2px;
      }
    </style>
  </defs>
  <path class="cls-1" d="M177.97,176.4H2.03C.91,176.4,0,177.31,0,178.43s.91,2.03,2.03,2.03h175.94c1.12,0,2.03-.91,2.03-2.03s-.91-2.03-2.03-2.03Z"/>
  <path class="cls-1" d="M144.17,98.05c16.41,0,29.75-13.35,29.75-29.75,0-24.81-27.31-47.18-28.48-48.12-.74-.6-1.81-.6-2.55,0-1.16.94-28.48,23.31-28.48,48.12,0,16.41,13.35,29.75,29.75,29.75ZM144.17,24.43c5.35,4.71,25.69,23.91,25.69,43.87,0,14.17-11.53,25.69-25.69,25.69s-25.69-11.52-25.69-25.69c0-19.96,20.34-39.16,25.69-43.87Z"/>
  <path class="cls-1" d="M144.17,83.23c1.12,0,2.03-.91,2.03-2.03s-.91-2.03-2.03-2.03c-6,0-10.88-4.88-10.88-10.88,0-1.12-.91-2.03-2.03-2.03s-2.03.91-2.03,2.03c0,8.24,6.7,14.94,14.94,14.94Z"/>
  <path class="cls-1" d="M177.97,143.42c1.12,0,2.03-.91,2.03-2.03s-.91-2.03-2.03-2.03H2.03C.91,139.36,0,140.27,0,141.39s.91,2.03,2.03,2.03h69.86v14.46H2.03C.91,157.88,0,158.79,0,159.91s.91,2.03,2.03,2.03h71.89c1.12,0,2.03-.91,2.03-2.03v-16.49h14.46v16.49c0,1.12.91,2.03,2.03,2.03h85.53c1.12,0,2.03-.91,2.03-2.03s-.91-2.03-2.03-2.03h-83.5v-14.46h83.5Z"/>
  <path class="cls-1" d="M2.03,124.9h19.73c1.12,0,2.03-.91,2.03-2.03V38.92c2.24.88,4.68,1.36,7.23,1.36s4.99-.49,7.23-1.36v83.95c0,1.12.91,2.03,2.03,2.03h137.69c1.12,0,2.03-.91,2.03-2.03s-.91-2.03-2.03-2.03h-83.5V36.76c5.2-3.6,8.62-9.6,8.62-16.39,0-10.98-8.93-19.91-19.91-19.91s-19.91,8.93-19.91,19.91c0,6.79,3.42,12.79,8.62,16.39v84.08h-29.58V36.76c5.2-3.6,8.62-9.6,8.62-16.39C50.93,9.39,42,.46,31.02.46S11.11,9.39,11.11,20.37c0,6.79,3.42,12.79,8.62,16.39v84.08H2.03C.91,120.84,0,121.75,0,122.87s.91,2.03,2.03,2.03ZM67.33,20.37c0-8.74,7.11-15.85,15.85-15.85s15.85,7.11,15.85,15.85-7.11,15.85-15.85,15.85-15.85-7.11-15.85-15.85ZM75.95,38.92c2.24.88,4.68,1.36,7.23,1.36s4.99-.49,7.23-1.36v81.92h-14.46V38.92ZM15.17,20.37c0-8.74,7.11-15.85,15.85-15.85s15.85,7.11,15.85,15.85-7.11,15.85-15.85,15.85-15.85-7.11-15.85-15.85Z"/>
</svg>