<?xml version="1.0" encoding="UTF-8"?>
<svg id="Home_Improvement_Tools" data-name="Home Improvement &amp;amp; Tools" xmlns="http://www.w3.org/2000/svg" viewBox="0 0 180 180">
  <defs>
    <style>
      .cls-1 {
        stroke: #000;
        stroke-miterlimit: 10;
        stroke-width: 2px;
      }
    </style>
  </defs>
  <path class="cls-1" d="M163.94,77.91s-.03,0-.05,0h-32.16V10.7c0-6.72-14.24-10.24-28.31-10.24s-28.32,3.52-28.32,10.24v67.21h-29.24c-2.78-5.24-6.22-8.44-10.29-8.44h-16.78C6.6,69.47.03,98.07.03,124.97s6.58,55.49,18.76,55.49h16.78c4.07,0,7.5-3.19,10.29-8.44h118c10.47,0,16.12-24.25,16.12-47.06s-5.62-46.93-16.03-47.06ZM79.06,16.19c5.21,3.13,14.82,4.75,24.36,4.75s19.15-1.62,24.35-4.75v63.7c0,2.13-8.6,6.28-24.35,6.28s-24.36-4.15-24.36-6.28V16.19ZM103.41,4.42c15.76,0,24.35,4.15,24.35,6.28s-8.6,6.28-24.35,6.28-24.36-4.15-24.36-6.28,8.6-6.28,24.36-6.28ZM3.99,124.97c0-30.37,7.8-51.53,14.8-51.53h0c7,0,14.8,21.16,14.8,51.53s-7.8,51.53-14.8,51.53h0c-7,0-14.8-21.16-14.8-51.53ZM35.57,176.5h-9.46c7.48-8.75,11.44-30.65,11.44-51.53s-3.96-42.78-11.44-51.53h9.46c7,0,14.8,21.16,14.8,51.53s-7.8,51.53-14.8,51.53ZM163.86,168.07H47.69c4.37-10.83,6.65-27.25,6.65-43.1s-2.28-32.27-6.65-43.1h27.86c2.5,5.43,15.25,8.26,27.87,8.26s25.37-2.83,27.87-8.26h32.57c5.08,0,12.16,16.4,12.16,43.1s-7.08,43.1-12.16,43.1Z"/>
  <path class="cls-1" d="M76.63,152.98h-11.89c-1.09,0-1.98.89-1.98,1.98s.89,1.98,1.98,1.98h11.89c1.09,0,1.98-.89,1.98-1.98s-.89-1.98-1.98-1.98Z"/>
  <path class="cls-1" d="M152.99,152.98h-59.32c-1.09,0-1.98.89-1.98,1.98s.89,1.98,1.98,1.98h59.32c1.09,0,1.98-.89,1.98-1.98s-.89-1.98-1.98-1.98Z"/>
</svg>