<?xml version="1.0" encoding="UTF-8"?>
<svg id="Home_Improvement_Tools" data-name="Home Improvement &amp;amp; Tools" xmlns="http://www.w3.org/2000/svg" viewBox="0 0 180 180">
  <defs>
    <style>
      .cls-1 {
        stroke: #000;
        stroke-miterlimit: 10;
        stroke-width: 2px;
      }
    </style>
  </defs>
  <path class="cls-1" d="M177.61,69.24c1.56-3.81,2.39-7.91,2.39-12.15,0-8.57-3.34-16.62-9.39-22.68,0,0-24.31-24.31-24.57-24.57-6.06-6.06-14.11-9.39-22.68-9.39s-16.62,3.34-22.68,9.39L9.39,101.15C3.34,107.21,0,115.26,0,123.83s3.34,16.62,9.39,22.68l24.57,24.57c6.06,6.06,14.11,9.39,22.68,9.39,4.24,0,8.34-.83,12.15-2.39,2.93,1.12,5.94,1.87,8.96,2.19,1.12.12,2.23.18,3.33.18,7.32,0,13.91-2.61,18.82-7.53l14.11-14.11c9.68-9.68,6.93-19.74,4.72-27.81-1.42-5.18-2.55-9.3-.43-12.22,2.92-2.12,7.04-.99,12.22.43,8.08,2.21,18.13,4.97,27.81-4.72l14.11-14.11c5.65-5.65,8.26-13.51,7.35-22.15-.32-3.02-1.06-6.03-2.19-8.96ZM167.87,37.16c7.3,7.3,9.73,17.64,7.34,26.98-1.91-3.42-4.36-6.65-7.29-9.58-4.52-4.52-9.66-7.79-14.94-9.78,2.81-6.81,3.18-14.39,1.11-21.4l13.78,13.78ZM3.87,123.83c0-7.53,2.93-14.62,8.26-19.94L103.42,12.59c5.33-5.33,12.41-8.26,19.94-8.26s14.62,2.93,19.94,8.26c8.37,8.37,10.36,20.73,5.98,31.01-10.04-2.61-20.17-.58-27.17,6.43L49.57,122.58c-7.01,7.01-9.03,17.14-6.42,27.18-3.46,1.48-7.2,2.26-11.07,2.26-7.53,0-14.62-2.93-19.94-8.26-5.33-5.33-8.26-12.41-8.26-19.94ZM56.64,176.6c-7.53,0-14.62-2.93-19.94-8.26l-13.76-13.76c2.93.87,6,1.32,9.13,1.32,4.27,0,8.42-.84,12.25-2.42,1.99,5.27,5.25,10.4,9.77,14.91,2.94,2.94,6.19,5.4,9.62,7.31-2.28.59-4.66.9-7.08.9ZM169.71,97.62l-14.11,14.11c-8.1,8.1-16.21,5.87-24.06,3.72-5.84-1.6-11.36-3.11-15.82.41-.12.09-.23.2-.32.32-3.52,4.46-2.01,9.98-.41,15.82,2.15,7.85,4.37,15.96-3.72,24.06l-14.11,14.11c-4.81,4.81-11.55,7.03-19.01,6.24-7.61-.8-15.18-4.62-21.32-10.76-12.58-12.58-14.56-30.29-4.52-40.33l14.92-14.92-1.18,20.04c-.06,1.07.75,1.98,1.82,2.04.04,0,.08,0,.12,0,1.02,0,1.87-.79,1.93-1.82l1.44-24.38,10.55-10.55-2.86,48.64c-.06,1.07.75,1.98,1.82,2.04.04,0,.08,0,.12,0,1.02,0,1.87-.79,1.93-1.82l3.12-52.98,38.85-38.85c4.3-4.3,10.01-6.4,16.12-6.4,8.15,0,17.02,3.73,24.21,10.92,6.14,6.14,9.96,13.71,10.76,21.32.78,7.45-1.43,14.21-6.24,19.01Z"/>
  <path class="cls-1" d="M138.52,21.38c1.06-.07,1.87-.99,1.8-2.05-.07-1.06-.99-1.86-2.05-1.8-7.78.5-15.09,3.81-20.6,9.32L26.38,118.13c-5.51,5.51-8.82,12.82-9.32,20.6-.07,1.07.74,1.99,1.8,2.05.04,0,.08,0,.13,0,1.01,0,1.86-.79,1.93-1.81.44-6.84,3.35-13.27,8.19-18.11L120.4,29.57c4.84-4.84,11.27-7.75,18.11-8.19Z"/>
</svg>