<?xml version="1.0" encoding="UTF-8"?>
<svg id="Home_Improvement_Tools" data-name="Home Improvement &amp;amp; Tools" xmlns="http://www.w3.org/2000/svg" viewBox="0 0 180 180">
  <defs>
    <style>
      .cls-1 {
        stroke: #000;
        stroke-miterlimit: 10;
        stroke-width: 2px;
      }
    </style>
  </defs>
  <path class="cls-1" d="M179.91,146.72l-35.98-92.32c-.21-.53-.72-.88-1.29-.88h-37.39v-19.82c0-.76-.62-1.38-1.38-1.38h-15.31c-.76,0-1.38.62-1.38,1.38v19.82h-49.81c-.46,0-.88.22-1.14.6-.06.09-.11.18-.14.28L.09,146.72c-.28.71.07,1.51.78,1.79.16.06.33.09.5.09.55,0,1.07-.33,1.29-.88L37.37,58.71l34.7,89.02c.21.53.72.88,1.29.88h105.27c.46,0,.88-.23,1.14-.6.26-.38.31-.86.15-1.28ZM69.57,56.29l7.92,20.32h-30.18l-7.92-20.32h30.18ZM57.38,102.45h30.18l7.92,20.32h-30.18l-7.92-20.32ZM56.3,99.68l-7.92-20.32h30.18l7.92,20.32h-30.18ZM66.37,125.52h30.18l7.92,20.32h-30.18l-7.92-20.32ZM107.44,145.84l-34.91-89.55h14.64v10.99c0,.76.62,1.38,1.38,1.38s1.38-.62,1.38-1.38v-32.19h12.55v32.19c0,.76.62,1.38,1.38,1.38s1.38-.62,1.38-1.38v-10.99h36.45l34.91,89.55h-69.16Z"/>
</svg>