<?xml version="1.0" encoding="UTF-8"?>
<svg id="Home_Improvement_Tools" data-name="Home Improvement &amp;amp; Tools" xmlns="http://www.w3.org/2000/svg" viewBox="0 0 180 180">
  <defs>
    <style>
      .cls-1 {
        stroke: #000;
        stroke-miterlimit: 10;
        stroke-width: 2px;
      }
    </style>
  </defs>
  <path class="cls-1" d="M155,40.75l-26.63-19.52c-2.08-1.52-4.64-2.15-7.2-1.75-2.56.4-4.82,1.76-6.34,3.84l-2.94,4.01c-1.52,2.08-2.15,4.64-1.75,7.2.4,2.56,1.76,4.82,3.84,6.34l26.63,19.52c1.67,1.23,3.65,1.87,5.69,1.87.5,0,1-.04,1.51-.12,2.56-.4,4.82-1.76,6.34-3.84l2.94-4.01c1.52-2.08,2.15-4.64,1.75-7.2-.4-2.56-1.76-4.82-3.84-6.34ZM153.96,52l-2.94,4.01c-.91,1.25-2.26,2.06-3.8,2.3-1.54.23-3.07-.13-4.32-1.05l-26.63-19.52c-1.25-.91-2.06-2.26-2.3-3.8-.24-1.54.13-3.07,1.05-4.32l2.94-4.01c.91-1.25,2.26-2.06,3.8-2.3.3-.05.61-.07.91-.07,1.23,0,2.41.38,3.41,1.12l26.63,19.52c1.25.91,2.06,2.26,2.3,3.8.24,1.54-.13,3.07-1.05,4.32Z"/>
  <path class="cls-1" d="M153.94,76.51l20.96-28.59c1.52-2.08,2.15-4.64,1.75-7.2-.4-2.56-1.76-4.82-3.84-6.34L129.08,2.33c-4.31-3.16-10.38-2.22-13.54,2.09L3.61,157.15c-.54.73-.49,1.73.1,2.42l17.61,20.23c.38.44.92.67,1.46.67.42,0,.85-.14,1.2-.42l48.17-38.22h94.54c1.07,0,1.94-.87,1.94-1.94v-21.52c0-1.07-.87-1.94-1.94-1.94h-62.53l48.81-38.72c.28-.23.86-1.06.96-1.2ZM164.76,137.95H56.95v-17.64h107.81v17.64ZM97.93,116.43h-42.92c-1.07,0-1.94.87-1.94,1.94v21.52c0,1.07.87,1.94,1.94,1.94h10.91l-42.9,34.03-15.38-17.67L88.42,47.98l24.64,18.06c13.94,10.08,25.37,12.14,32.38,12.14.25,0,.48,0,.72,0l-48.23,38.27ZM115.34,62.91l-24.63-18.05L118.67,6.71c1.89-2.58,5.54-3.15,8.12-1.25l43.73,32.04c1.25.91,2.06,2.26,2.3,3.8.24,1.54-.13,3.07-1.05,4.32l-20.56,28.06c-2.85.7-16.71,3.07-35.86-10.78Z"/>
  <circle class="cls-1" cx="82.92" cy="154.83" r="4.09"/>
  <path class="cls-1" d="M105.48,157.8c-2.26,0-4.09,1.83-4.09,4.09s1.83,4.09,4.09,4.09,4.09-1.83,4.09-4.09-1.83-4.09-4.09-4.09Z"/>
  <path class="cls-1" d="M139.37,105.78c0,2.26,1.83,4.09,4.09,4.09s4.09-1.83,4.09-4.09-1.83-4.09-4.09-4.09-4.09,1.83-4.09,4.09Z"/>
  <path class="cls-1" d="M67.62,168.83c-2.26,0-4.09,1.83-4.09,4.09s1.83,4.09,4.09,4.09,4.09-1.83,4.09-4.09-1.83-4.09-4.09-4.09Z"/>
</svg>