<?xml version="1.0" encoding="UTF-8"?>
<svg id="Home_Improvement_Tools" data-name="Home Improvement &amp;amp; Tools" xmlns="http://www.w3.org/2000/svg" viewBox="0 0 180 180">
  <defs>
    <style>
      .cls-1 {
        stroke: #000;
        stroke-miterlimit: 10;
        stroke-width: 2px;
      }
    </style>
  </defs>
  <path class="cls-1" d="M173.46,100.9H19.16V15.46c0-6.03,4.91-10.93,10.93-10.93h26.55c5.53,0,10.1,4.12,10.82,9.45h-7.17c-5.97,0-10.83,4.86-10.83,10.83v4.57c0,1.12.91,2.03,2.03,2.03h36.23c1.12,0,2.03-.91,2.03-2.03v-4.57c0-5.97-4.86-10.83-10.83-10.83h-7.36c-.75-7.58-7.15-13.51-14.92-13.51h-26.55c-8.27,0-14.99,6.73-14.99,14.99v85.44H6.54C2.93,100.9,0,103.83,0,107.44v5.79C0,116.84,2.93,119.77,6.54,119.77h.96c1.58,5.93,8.88,31.93,9,32.32,1.56,4.93,5.16,16.3,21.69,16.95l-3.68,8.6c-.44,1.03.04,2.22,1.07,2.67.26.11.53.16.8.16.79,0,1.54-.46,1.87-1.23l4.35-10.16h94.82l4.35,10.16c.33.77,1.08,1.23,1.87,1.23.27,0,.54-.05.8-.16,1.03-.44,1.51-1.63,1.07-2.67l-3.68-8.6c16.53-.65,20.13-12.01,21.69-16.95.12-.39,7.42-26.39,9-32.32h.96c3.61,0,6.54-2.93,6.54-6.54v-5.79c0-3.61-2.93-6.54-6.54-6.54ZM85.68,24.8v2.54h-32.16v-2.54c0-3.73,3.04-6.77,6.77-6.77h18.63c3.73,0,6.77,3.04,6.77,6.77ZM159.63,150.87c-1.67,5.29-4.47,14.14-19.31,14.14H39.69c-14.84,0-17.64-8.85-19.31-14.14-.13-.42-6.8-24.1-8.67-31.1h156.59c-1.87,7-8.54,30.68-8.67,31.1ZM175.94,113.23c0,1.37-1.11,2.48-2.48,2.48H6.54c-1.37,0-2.48-1.11-2.48-2.48v-5.79c0-1.37,1.11-2.48,2.48-2.48h166.92c1.37,0,2.48,1.11,2.48,2.48v5.79Z"/>
  <path class="cls-1" d="M57.48,46.99c.88,0,1.7-.58,1.95-1.48l.99-3.47c.31-1.08-.32-2.2-1.4-2.51-1.08-.31-2.2.32-2.51,1.4l-.99,3.47c-.31,1.08.32,2.2,1.4,2.51.19.05.37.08.56.08Z"/>
  <path class="cls-1" d="M49.59,74.76c.88,0,1.7-.58,1.95-1.48l.99-3.47c.31-1.08-.32-2.2-1.4-2.51-1.08-.31-2.2.32-2.51,1.4l-.99,3.47c-.31,1.08.32,2.2,1.4,2.51.19.05.37.08.56.08Z"/>
  <path class="cls-1" d="M53.53,60.87c.88,0,1.7-.58,1.95-1.48l.99-3.47c.31-1.08-.32-2.2-1.4-2.51-1.08-.31-2.2.32-2.51,1.4l-.99,3.47c-.31,1.08.32,2.2,1.4,2.51.19.05.37.08.56.08Z"/>
  <path class="cls-1" d="M44.67,82.59l-.99,3.47c-.31,1.08.32,2.2,1.4,2.51.19.05.37.08.56.08.88,0,1.7-.58,1.95-1.48l.99-3.47c.31-1.08-.32-2.2-1.4-2.51-1.08-.31-2.2.32-2.51,1.4Z"/>
  <path class="cls-1" d="M90.62,83.7l.99,3.47c.25.89,1.07,1.48,1.95,1.48.18,0,.37-.03.56-.08,1.08-.31,1.7-1.43,1.4-2.51l-.99-3.47c-.31-1.08-1.43-1.7-2.51-1.4-1.08.31-1.7,1.43-1.4,2.51Z"/>
  <path class="cls-1" d="M83.71,59.4c.25.89,1.07,1.48,1.95,1.48.18,0,.37-.03.56-.08,1.08-.31,1.7-1.43,1.4-2.51l-.99-3.47c-.31-1.08-1.42-1.71-2.51-1.4-1.08.31-1.7,1.43-1.4,2.51l.99,3.47Z"/>
  <path class="cls-1" d="M83.67,44.4l-.99-3.47c-.31-1.08-1.43-1.71-2.51-1.4-1.08.31-1.7,1.43-1.4,2.51l.99,3.47c.25.89,1.07,1.48,1.95,1.48.18,0,.37-.03.56-.08,1.08-.31,1.7-1.43,1.4-2.51Z"/>
  <path class="cls-1" d="M88.07,67.31c-1.08.31-1.7,1.43-1.4,2.51l.99,3.47c.25.89,1.07,1.48,1.95,1.48.18,0,.37-.03.56-.08,1.08-.31,1.7-1.43,1.4-2.51l-.99-3.47c-.31-1.08-1.43-1.71-2.51-1.4Z"/>
  <path class="cls-1" d="M71.63,55.92c0-1.12-.91-2.03-2.03-2.03s-2.03.91-2.03,2.03v3.61c0,1.12.91,2.03,2.03,2.03s2.03-.91,2.03-2.03v-3.61Z"/>
  <path class="cls-1" d="M71.63,70.36c0-1.12-.91-2.03-2.03-2.03s-2.03.91-2.03,2.03v3.61c0,1.12.91,2.03,2.03,2.03s2.03-.91,2.03-2.03v-3.61Z"/>
  <path class="cls-1" d="M71.63,41.49c0-1.12-.91-2.03-2.03-2.03s-2.03.91-2.03,2.03v3.61c0,1.12.91,2.03,2.03,2.03s2.03-.91,2.03-2.03v-3.61Z"/>
  <path class="cls-1" d="M69.6,82.76c-1.12,0-2.03.91-2.03,2.03v3.61c0,1.12.91,2.03,2.03,2.03s2.03-.91,2.03-2.03v-3.61c0-1.12-.91-2.03-2.03-2.03Z"/>
</svg>