<?xml version="1.0" encoding="UTF-8"?>
<svg id="Home_Improvement_Tools" data-name="Home Improvement &amp;amp; Tools" xmlns="http://www.w3.org/2000/svg" viewBox="0 0 180 180">
  <defs>
    <style>
      .cls-1 {
        stroke: #000;
        stroke-miterlimit: 10;
        stroke-width: 2px;
      }
    </style>
  </defs>
  <path class="cls-1" d="M179.6,22.72c-.36-.45-.9-.72-1.48-.72h-16.69v-8.46c0-1.04-.85-1.89-1.89-1.89h-29.34c-.87,0-1.63.6-1.84,1.44h0s-2.15,8.91-2.15,8.91h-39.88v-8.46c0-1.04-.85-1.89-1.89-1.89h-29.34c-.87,0-1.63.6-1.84,1.44h0s-2.15,8.91-2.15,8.91h-14.6c-.87,0-1.63.6-1.84,1.44L.05,166.94c-.14.56,0,1.16.35,1.61.36.45.9.72,1.48.72h18.58c1.04,0,1.89-.85,1.89-1.89v-8.46h25.56v8.46c0,1.04.85,1.89,1.89,1.89h45.75c1.04,0,1.89-.85,1.89-1.89v-8.46h25.56v8.46c0,1.04.85,1.89,1.89,1.89h18.58c.87,0,1.63-.6,1.84-1.44L179.95,24.33c.14-.56,0-1.16-.35-1.61ZM82.55,23.62c-8.3,33.98-8.3,34.3-8.3,34.6,0,1.04.85,1.89,1.89,1.89.95,0,1.74-.71,1.87-1.63.26-1.33,4.73-19.7,7.9-32.7h39.38l-13.84,57.31h-39.92v-8.46c0-1.04-.85-1.89-1.89-1.89h-26.9l13.83-57.31h25.96v8.19ZM38.01,25.78h12.2l-13.9,57.31h-12.13l13.83-57.31ZM18.58,165.5H4.29l18.98-78.63h12.2l-16.83,69.73s-.05.2-.05.44v8.46ZM93.67,165.5h-41.98v-8.3c.47-2.36,8.33-34.72,13.58-56.22.25-1.01-.37-2.03-1.39-2.28-1.01-.25-2.03.37-2.28,1.39-9.54,39.08-12.43,51.2-13.31,55.06h-25.43l18.98-78.63h25.92v8.46c0,1.04.85,1.89,1.89,1.89h40.9l-16.83,69.73s-.05.11-.05.44c0,.4,0,8.46,0,8.46ZM141.99,165.5h-15.21v-8.31c.5-2.46,8.33-34.68,13.55-56.1.25-1.01-.37-2.03-1.39-2.28-1.01-.25-2.03.37-2.28,1.39-9.52,39-12.41,51.1-13.28,54.96h-25.43l18.98-78.63h25.92v8.46c0,1.04.85,1.89,1.89,1.89h16.23l-18.98,78.63ZM161.88,83.09h-15.25v-8.46c0-1.04-.85-1.89-1.89-1.89h-26.9l13.83-57.31h25.96v8.22c-8.29,33.96-8.29,34.28-8.29,34.58,0,1.04.85,1.89,1.89,1.89.95,0,1.74-.71,1.87-1.63.26-1.33,4.73-19.7,7.9-32.7h14.71l-13.83,57.31Z"/>
</svg>