<?xml version="1.0" encoding="UTF-8"?>
<svg id="Home_Improvement_Tools" data-name="Home Improvement &amp;amp; Tools" xmlns="http://www.w3.org/2000/svg" viewBox="0 0 180 180">
  <defs>
    <style>
      .cls-1 {
        stroke: #000;
        stroke-miterlimit: 10;
        stroke-width: 2px;
      }
    </style>
  </defs>
  <path class="cls-1" d="M178.58,22.95l-19.95-4.69v-2.4c0-4.19-3.41-7.61-7.61-7.61H22.88c-.69,0-1.33.39-1.64,1.01l-3.9,7.67H1.85C.83,16.93,0,17.75,0,18.77v26.93C0,51.34,4.53,55.94,10.14,56.06c.8.2,4.81,1.37,7.31,5.32,2.29,3.62,2.68,8.54,1.15,14.63l-14.38,57.39c-.04.15-.06.3-.06.45,0,5.37,4.37,9.73,9.73,9.73h17.99v27.24c0,1.02.83,1.84,1.85,1.84s1.85-.83,1.85-1.84v-27.24h20.09c2.8,0,5.45-1.08,7.26-2.98,1.71-1.79,2.59-4.22,2.48-6.84-.1-2.24-1.31-4.39-3.59-6.39l-.23-.2c-2.16-1.88-5.42-4.72-3.33-11.3,1.42-4.46,14.48-51.03,16.94-59.81h2.19c-.16,5.35.21,20.3,8.16,33.21.35.57.95.88,1.57.88.33,0,.66-.09.97-.27.87-.54,1.14-1.67.6-2.54-7.41-12.03-7.73-26.44-7.6-31.27h32.48v16.21l-8.89,4.67c-.61.32-.99.95-.99,1.63v12.87c-12.33,7.52-19.95,21.02-19.95,35.49v43.9c0,1.02.83,1.84,1.85,1.84h79.41c1.02,0,1.85-.83,1.85-1.84v-43.9c0-14.47-7.62-27.96-19.95-35.49v-12.87c0-.69-.38-1.31-.99-1.63l-8.89-4.67v-16.21h14.02c4.19,0,7.61-3.41,7.61-7.61v-2.41l19.95-4.69c.83-.2,1.42-.94,1.42-1.8v-14.81c0-.86-.59-1.6-1.42-1.8ZM134.3,75.02l8.89,4.67v12.8c0,.66.35,1.27.93,1.6,11.73,6.75,19.02,19.33,19.02,32.84v42.05h-75.72v-42.05c0-13.51,7.29-26.09,19.02-32.84.57-.33.93-.94.93-1.6v-12.8l8.89-4.67c.61-.32.99-.95.99-1.63v-17.33h16.07v17.33c0,.69.38,1.31.99,1.63ZM154.94,48.45c0,2.16-1.76,3.92-3.92,3.92h-77.24c-.83,0-1.55.55-1.78,1.35-.16.56-15.77,56.27-17.28,61.04-2.82,8.89,2.07,13.15,4.43,15.2l.22.19c1.03.9,2.27,2.29,2.34,3.78.07,1.63-.43,3.05-1.46,4.13-1.12,1.17-2.79,1.84-4.59,1.84H13.9c-3.26,0-5.93-2.6-6.04-5.83l14.32-57.15c1.78-7.11,1.24-13-1.61-17.51-.86-1.36-1.85-2.45-2.87-3.35h26.03c1.02,0,1.85-.83,1.85-1.85s-.83-1.85-1.85-1.85H10.35c-3.67,0-6.66-2.99-6.66-6.66v-25.09h14.78c.69,0,1.33-.39,1.64-1.01l3.9-7.67h127.01c2.16,0,3.92,1.76,3.92,3.92v32.59ZM176.31,38.09l-17.68,4.16v-20.2l17.68,4.16v11.88Z"/>
  <path class="cls-1" d="M43.9,28.66c-1.92,0-3.49,1.56-3.49,3.49s1.56,3.49,3.49,3.49,3.49-1.56,3.49-3.49-1.56-3.49-3.49-3.49Z"/>
  <path class="cls-1" d="M63.33,28.66c-1.92,0-3.49,1.56-3.49,3.49s1.56,3.49,3.49,3.49,3.49-1.56,3.49-3.49-1.56-3.49-3.49-3.49Z"/>
  <path class="cls-1" d="M125.28,30.3h-33.07c-1.02,0-1.85.83-1.85,1.84s.83,1.85,1.85,1.85h33.07c1.02,0,1.85-.83,1.85-1.85s-.83-1.84-1.85-1.84Z"/>
</svg>