<?xml version="1.0" encoding="UTF-8"?>
<svg id="Home_Improvement_Tools" data-name="Home Improvement &amp;amp; Tools" xmlns="http://www.w3.org/2000/svg" viewBox="0 0 180 180">
  <defs>
    <style>
      .cls-1 {
        stroke: #000;
        stroke-miterlimit: 10;
        stroke-width: 2px;
      }
    </style>
  </defs>
  <path class="cls-1" d="M161.27,120.35c0-5.79-1.85-11.45-5.23-16.12,3.38-4.67,5.23-10.33,5.23-16.12s-1.85-11.45-5.23-16.12c3.38-4.66,5.23-10.33,5.23-16.12,0-15.14-12.32-27.46-27.46-27.46s-26.32,11.22-27.38,25.4h-56.06v-11.7c0-1.12-.91-2.03-2.03-2.03h-23.69c-1.12,0-2.03.91-2.03,2.03v26.12C4.14,76.28.24,93.04.08,93.76c0,0-.05.21-.05.44v84.24c0,1.12.91,2.03,2.03,2.03h68.87c1.12,0,2.03-.91,2.03-2.03v-84.24c0-.21-.05-.43-.05-.44-.16-.73-4.06-17.48-22.55-25.52v-10.36h56.05c.37,5.09,2.16,9.99,5.15,14.12-3.38,4.67-5.23,10.33-5.23,16.12s1.85,11.45,5.23,16.12c-3.38,4.67-5.23,10.33-5.23,16.12,0,15.14,12.32,27.46,27.46,27.46s27.46-12.32,27.46-27.46ZM26.69,44.15h19.63v23.4h-19.63v-23.4ZM68.91,176.4H4.09v-80.18h64.81v80.18ZM68.19,92.17H4.81c1.75-4.75,6.94-15.11,20.23-20.56h22.9c13.3,5.45,18.49,15.81,20.24,20.56ZM133.81,143.75c-12.9,0-23.4-10.5-23.4-23.4,0-5.4,1.88-10.66,5.3-14.83.61-.75.61-1.83,0-2.57-3.42-4.17-5.3-9.43-5.3-14.83s1.88-10.66,5.3-14.83c.61-.75.61-1.83,0-2.57-3.42-4.17-5.3-9.43-5.3-14.83,0-12.9,10.5-23.4,23.4-23.4s23.4,10.5,23.4,23.4c0,5.4-1.88,10.66-5.3,14.83-.61.75-.61,1.83,0,2.57,3.42,4.17,5.3,9.43,5.3,14.83s-1.88,10.66-5.3,14.83c-.61.75-.61,1.83,0,2.57,3.42,4.17,5.3,9.43,5.3,14.83,0,12.9-10.5,23.4-23.4,23.4Z"/>
  <path class="cls-1" d="M2.06,4.52h115.44v13.73c0,1.12.91,2.03,2.03,2.03s2.03-.91,2.03-2.03V2.49c0-1.12-.91-2.03-2.03-2.03H2.06C.94.46.03,1.37.03,2.49s.91,2.03,2.03,2.03Z"/>
  <path class="cls-1" d="M148.08,20.29c1.12,0,2.03-.91,2.03-2.03V4.52h27.82c1.12,0,2.03-.91,2.03-2.03s-.91-2.03-2.03-2.03h-29.85c-1.12,0-2.03.91-2.03,2.03v15.76c0,1.12.91,2.03,2.03,2.03Z"/>
  <path class="cls-1" d="M119.53,155.95c-1.12,0-2.03.91-2.03,2.03v18.43h-31.76c-1.12,0-2.03.91-2.03,2.03s.91,2.03,2.03,2.03h33.79c1.12,0,2.03-.91,2.03-2.03v-20.46c0-1.12-.91-2.03-2.03-2.03Z"/>
  <path class="cls-1" d="M177.94,176.4h-27.82v-18.43c0-1.12-.91-2.03-2.03-2.03s-2.03.91-2.03,2.03v20.46c0,1.12.91,2.03,2.03,2.03h29.85c1.12,0,2.03-.91,2.03-2.03s-.91-2.03-2.03-2.03Z"/>
</svg>