<?xml version="1.0" encoding="UTF-8"?>
<svg id="Home_Improvement_Tools" data-name="Home Improvement &amp;amp; Tools" xmlns="http://www.w3.org/2000/svg" viewBox="0 0 180 180">
  <defs>
    <style>
      .cls-1 {
        stroke: #000;
        stroke-miterlimit: 10;
        stroke-width: 2px;
      }
    </style>
  </defs>
  <path class="cls-1" d="M177.92.46h-35.17c-1.15,0-2.08.93-2.08,2.08v33.08h-33.08c-1.15,0-2.08.93-2.08,2.08v33.08h-33.08c-1.15,0-2.08.93-2.08,2.08v33.08h-33.08c-1.15,0-2.08.93-2.08,2.08v33.08h-13.42v-68.79L90.07,4.02c.81-.81.81-2.13,0-2.94-.81-.81-2.13-.81-2.94,0L4.16,84.04v-15.05L69.13,4.02c.81-.81.81-2.13,0-2.94-.81-.81-2.13-.81-2.94,0L.61,66.65C.22,67.04,0,67.57,0,68.12v20.94c0,.84.51,1.6,1.29,1.92.26.11.53.16.8.16.54,0,1.07-.21,1.47-.61l14.03-14.03v64.62H2.08C.93,141.13,0,142.06,0,143.21v35.17c0,1.15.93,2.08,2.08,2.08h175.84c1.15,0,2.08-.93,2.08-2.08V2.55c0-1.15-.93-2.08-2.08-2.08ZM175.84,176.3H4.16v-31h33.08c1.15,0,2.08-.93,2.08-2.08v-33.08h33.08c1.15,0,2.08-.93,2.08-2.08v-33.08h33.08c1.15,0,2.08-.93,2.08-2.08v-33.08h33.08c1.15,0,2.08-.93,2.08-2.08V4.63h31v171.67Z"/>
  <path class="cls-1" d="M60.23,157.68c.41.41.94.61,1.47.61s1.07-.2,1.47-.61l94.04-94.04c.81-.81.81-2.13,0-2.94s-2.13-.81-2.94,0l-94.04,94.04c-.81.81-.81,2.13,0,2.94Z"/>
</svg>