<?xml version="1.0" encoding="UTF-8"?>
<svg id="Home_Improvement_Tools" data-name="Home Improvement &amp;amp; Tools" xmlns="http://www.w3.org/2000/svg" viewBox="0 0 180 180">
  <defs>
    <style>
      .cls-1 {
        stroke: #000;
        stroke-miterlimit: 10;
        stroke-width: 2px;
      }
    </style>
  </defs>
  <path class="cls-1" d="M177.18,70.1c.61.29,1.33.25,1.9-.12.57-.36.92-.99.92-1.67v-19.46c0-.76-.44-1.46-1.13-1.78L90.84,5.37c-.53-.25-1.15-.25-1.69,0L1.13,47.07C.44,47.4,0,48.09,0,48.85v19.46c0,.68.35,1.31.92,1.67.32.2.69.31,1.05.31.29,0,.58-.06.84-.19l12.01-5.69v88.85H1.97C.88,153.26,0,154.15,0,155.23v18.53c0,1.09.88,1.97,1.97,1.97h176.05c1.09,0,1.97-.88,1.97-1.97v-18.53c0-1.09-.88-1.97-1.97-1.97h-12.85v-88.85l12.01,5.69ZM3.95,50.1L90,9.34l86.05,40.76v15.09L90.84,24.83c-.53-.25-1.15-.25-1.69,0L3.95,65.2v-15.09ZM176.05,171.79H3.95v-14.59h172.11v14.59ZM108.82,153.26h-37.64v-49.9h37.64v49.9ZM161.23,153.26h-48.46v-51.87c0-1.09-.88-1.97-1.97-1.97h-41.59c-1.09,0-1.97.88-1.97,1.97v51.87H18.77V62.54L90,28.8l71.23,33.74v90.72Z"/>
  <path class="cls-1" d="M31.03,73.83c0,1.09.88,1.97,1.97,1.97h113.98c1.09,0,1.97-.88,1.97-1.97s-.88-1.97-1.97-1.97H33.01c-1.09,0-1.97.88-1.97,1.97Z"/>
</svg>