<?xml version="1.0" encoding="UTF-8"?>
<svg id="Home_Improvement_Tools" data-name="Home Improvement &amp;amp; Tools" xmlns="http://www.w3.org/2000/svg" viewBox="0 0 180 180">
  <defs>
    <style>
      .cls-1 {
        stroke: #000;
        stroke-miterlimit: 10;
        stroke-width: 2px;
      }
    </style>
  </defs>
  <path class="cls-1" d="M54.97,53.53c1.12,0,2.03-.91,2.03-2.03v-23.13c0-1.12-.91-2.03-2.03-2.03h-30.87c-1.12,0-2.03.91-2.03,2.03v54c0,1.12.91,2.03,2.03,2.03s2.03-.91,2.03-2.03V30.39h26.81v21.1c0,1.12.91,2.03,2.03,2.03Z"/>
  <path class="cls-1" d="M2.03,106.49c1.12,0,2.03-.91,2.03-2.03V10.83c0-3.48,2.83-6.3,6.3-6.3h58.34c3.48,0,6.3,2.83,6.3,6.3v18.59c0,1.12.91,2.03,2.03,2.03s2.03-.91,2.03-2.03V10.83c0-5.72-4.65-10.36-10.36-10.36H10.37C4.65.46,0,5.11,0,10.83v93.63c0,1.12.91,2.03,2.03,2.03Z"/>
  <path class="cls-1" d="M112.25,90.04c.79.79,2.08.79,2.87,0l16.36-16.36c.38-.38.59-.9.59-1.44s-.21-1.05-.59-1.44l-21.83-21.83c-.79-.79-2.08-.79-2.87,0l-38.19,38.18c-.79.79-.79,2.08,0,2.87.4.4.92.59,1.44.59s1.04-.2,1.44-.59l36.75-36.75,18.96,18.96-14.92,14.92c-.79.79-.79,2.08,0,2.87Z"/>
  <path class="cls-1" d="M37.37,90.06c.4.4.92.59,1.44.59s1.04-.2,1.44-.59L106.45,23.85c1.18-1.18,2.77-1.84,4.46-1.84s3.27.65,4.46,1.84l41.26,41.26c2.46,2.46,2.46,6.46,0,8.92l-13.15,13.15c-.79.79-.79,2.08,0,2.87.79.79,2.08.79,2.87,0l13.15-13.15c4.04-4.04,4.04-10.62,0-14.66l-41.26-41.26c-1.95-1.95-4.55-3.03-7.33-3.03s-5.38,1.07-7.33,3.03L37.37,87.19c-.79.79-.79,2.08,0,2.87Z"/>
  <path class="cls-1" d="M169.64,101.39H39.54C17.73,101.39,0,119.12,0,140.93s17.74,39.54,39.54,39.54h130.1c5.71,0,10.36-4.65,10.36-10.36v-58.34c0-5.72-4.65-10.36-10.36-10.36ZM175.94,170.1c0,3.48-2.83,6.3-6.3,6.3H39.54c-19.56,0-35.48-15.92-35.48-35.48s15.91-35.48,35.48-35.48h130.1c3.48,0,6.3,2.83,6.3,6.3v58.34Z"/>
  <path class="cls-1" d="M39.54,123.46c-9.63,0-17.46,7.83-17.46,17.46s7.83,17.46,17.46,17.46,17.46-7.83,17.46-17.46-7.83-17.46-17.46-17.46ZM39.54,154.33c-7.39,0-13.4-6.01-13.4-13.4s6.01-13.4,13.4-13.4,13.4,6.01,13.4,13.4-6.01,13.4-13.4,13.4Z"/>
  <path class="cls-1" d="M152.1,123.46h-66.06c-1.12,0-2.03.91-2.03,2.03v30.87c0,1.12.91,2.03,2.03,2.03h66.06c1.12,0,2.03-.91,2.03-2.03v-30.87c0-1.12-.91-2.03-2.03-2.03ZM150.07,154.33h-62v-26.81h62v26.81Z"/>
</svg>