<?xml version="1.0" encoding="UTF-8"?>
<svg id="Home_Improvement_Tools" data-name="Home Improvement &amp;amp; Tools" xmlns="http://www.w3.org/2000/svg" viewBox="0 0 180 180">
  <defs>
    <style>
      .cls-1 {
        stroke: #000;
        stroke-miterlimit: 10;
        stroke-width: 2px;
      }
    </style>
  </defs>
  <path class="cls-1" d="M61.88,104.36h12.3l20.87,38.02c.33.6.95.94,1.58.94.29,0,.59-.07.87-.22.87-.48,1.19-1.58.71-2.45l-21.39-38.96c-.32-.58-.92-.94-1.58-.94h-13.37c-1,0-1.8.81-1.8,1.8s.81,1.8,1.8,1.8Z"/>
  <path class="cls-1" d="M72.22,166.74c0,1,.81,1.8,1.8,1.8h45.22c1,0,1.8-.81,1.8-1.8s-.81-1.8-1.8-1.8h-45.22c-1,0-1.8.81-1.8,1.8Z"/>
  <path class="cls-1" d="M156.45,68.61h-88.21V10.28c0-5.42-4.41-9.82-9.82-9.82H22.96c-5.42,0-9.82,4.41-9.82,9.82v67.08c0,5.42,4.41,9.82,9.82,9.82h15.92v24.99c0,.45.17.88.47,1.21l17.37,19.18h-16.03c-1,0-1.8.81-1.8,1.8v28.02c0,1,.81,1.8,1.8,1.8h12.65l-1.65,3.25c-.13.25-.19.53-.19.82v10.39c0,1,.81,1.8,1.8,1.8h87.63c1,0,1.8-.81,1.8-1.8v-10.39c0-.4-.14-.8-.39-1.12-.07-.09-7.06-8.98-12.12-16.03-1.57-2.19-2.22-4.09-1.92-5.65.28-1.46,1.4-2.45,2.29-3.02,20.55-13.25,36.27-25.86,36.27-57.07v-6.36c0-5.74-4.67-10.41-10.41-10.41ZM156.45,72.22c3.75,0,6.8,3.05,6.8,6.8v4.56h-97.24c1.39-1.69,2.22-3.86,2.22-6.21v-5.15h88.21ZM16.75,77.36V10.28c0-3.43,2.79-6.21,6.21-6.21h35.45c3.43,0,6.21,2.79,6.21,6.21v67.08c0,3.43-2.79,6.21-6.21,6.21H22.96c-3.43,0-6.21-2.79-6.21-6.21ZM128.64,139.42c-2.13,1.37-3.47,3.23-3.88,5.38-.49,2.56.37,5.4,2.54,8.42,4.42,6.16,10.29,13.69,11.83,15.67v7.96H55.1v-8.16l2.78-5.49c.28-.56.26-1.23-.07-1.76-.33-.53-.91-.86-1.54-.86h-13.78v-24.41h18.29c.71,0,1.36-.42,1.65-1.07.29-.65.17-1.41-.31-1.94l-19.63-21.68v-24.3h120.74c-.58,28.12-14.75,39.43-34.6,52.23Z"/>
</svg>