<?xml version="1.0" encoding="UTF-8"?>
<svg id="Home_Improvement_Tools" data-name="Home Improvement &amp;amp; Tools" xmlns="http://www.w3.org/2000/svg" viewBox="0 0 180 180">
  <defs>
    <style>
      .cls-1 {
        stroke: #000;
        stroke-miterlimit: 10;
        stroke-width: 2px;
      }
    </style>
  </defs>
  <path class="cls-1" d="M178.12,69.15h-4.3v-4.48c0-9.79-7.96-17.75-17.75-17.75h-26.2v-24.12c0-7.48-6.09-13.57-13.57-13.57h-52.61c-7.48,0-13.57,6.09-13.57,13.57v24.12h-26.2c-9.79,0-17.75,7.96-17.75,17.75v4.48H1.88C.84,69.15,0,70,0,71.03v16.71c0,1.04.84,1.88,1.88,1.88h4.3v64.33c0,9.79,7.96,17.75,17.75,17.75h132.15c9.79,0,17.75-7.96,17.75-17.75v-64.33h4.3c1.04,0,1.88-.84,1.88-1.88v-16.71c0-1.04-.84-1.88-1.88-1.88ZM53.88,22.81c0-5.41,4.4-9.81,9.81-9.81h52.61c5.41,0,9.81,4.4,9.81,9.81v24.12H53.88v-24.12ZM9.93,64.68c0-7.71,6.28-13.99,13.99-13.99h132.15c7.71,0,13.99,6.28,13.99,13.99v4.48H9.93v-4.48ZM145.42,72.91v24.02h-14.51v-24.02h14.51ZM127.14,85.86H52.86v-12.95h74.29v12.95ZM49.1,72.91v24.02h-14.51v-24.02h14.51ZM3.76,72.91h27.07v12.95H3.76v-12.95ZM170.06,153.94c0,7.71-6.28,13.99-13.99,13.99H23.92c-7.71,0-13.99-6.28-13.99-13.99v-64.33h20.89v9.2c0,1.04.84,1.88,1.88,1.88h18.27c1.04,0,1.88-.84,1.88-1.88v-9.2h74.29v9.2c0,1.04.84,1.88,1.88,1.88h18.27c1.04,0,1.88-.84,1.88-1.88v-9.2h20.89v64.33ZM176.24,85.86h-27.07v-12.95h27.07v12.95Z"/>
  <path class="cls-1" d="M32.71,110.54c-1.04,0-1.88.84-1.88,1.88v36.63c0,1.04.84,1.88,1.88,1.88s1.88-.84,1.88-1.88v-36.63c0-1.04-.84-1.88-1.88-1.88Z"/>
  <path class="cls-1" d="M51.8,110.54c-1.04,0-1.88.84-1.88,1.88v36.63c0,1.04.84,1.88,1.88,1.88s1.88-.84,1.88-1.88v-36.63c0-1.04-.84-1.88-1.88-1.88Z"/>
  <path class="cls-1" d="M70.9,110.54c-1.04,0-1.88.84-1.88,1.88v36.63c0,1.04.84,1.88,1.88,1.88s1.88-.84,1.88-1.88v-36.63c0-1.04-.84-1.88-1.88-1.88Z"/>
  <path class="cls-1" d="M90,110.54c-1.04,0-1.88.84-1.88,1.88v36.63c0,1.04.84,1.88,1.88,1.88s1.88-.84,1.88-1.88v-36.63c0-1.04-.84-1.88-1.88-1.88Z"/>
  <path class="cls-1" d="M109.1,110.54c-1.04,0-1.88.84-1.88,1.88v36.63c0,1.04.84,1.88,1.88,1.88s1.88-.84,1.88-1.88v-36.63c0-1.04-.84-1.88-1.88-1.88Z"/>
  <path class="cls-1" d="M128.2,110.54c-1.04,0-1.88.84-1.88,1.88v36.63c0,1.04.84,1.88,1.88,1.88s1.88-.84,1.88-1.88v-36.63c0-1.04-.84-1.88-1.88-1.88Z"/>
  <path class="cls-1" d="M147.29,110.54c-1.04,0-1.88.84-1.88,1.88v36.63c0,1.04.84,1.88,1.88,1.88s1.88-.84,1.88-1.88v-36.63c0-1.04-.84-1.88-1.88-1.88Z"/>
</svg>