<?xml version="1.0" encoding="UTF-8"?>
<svg id="Home_Improvement_Tools" data-name="Home Improvement &amp;amp; Tools" xmlns="http://www.w3.org/2000/svg" viewBox="0 0 180 180">
  <defs>
    <style>
      .cls-1 {
        stroke: #000;
        stroke-miterlimit: 10;
        stroke-width: 2px;
      }
    </style>
  </defs>
  <path class="cls-1" d="M157.45.85c-12.43,0-22.55,10.12-22.55,22.55v18.4H2.02C.91,41.8,0,42.71,0,43.82v134.24c0,1.12.91,2.02,2.02,2.02h155.43c12.43,0,22.55-10.12,22.55-22.55V23.4c0-12.43-10.12-22.55-22.55-22.55ZM55.6,156.63v-24.42h50.48v24.42h-50.48ZM106.08,160.67v15.36h-50.48v-15.36h50.48ZM51.56,156.63h-14.92c-6.73,0-12.21-5.48-12.21-12.21s5.48-12.21,12.21-12.21h14.92v24.42ZM55.6,128.17v-31.72h50.48v31.72h-50.48ZM55.6,92.41v-24.42h50.48v24.42h-50.48ZM51.56,92.41h-14.92c-6.73,0-12.21-5.48-12.21-12.21s5.48-12.21,12.21-12.21h14.92v24.42ZM55.6,63.95v-18.1h50.48v18.1h-50.48ZM4.04,45.84h47.51v18.1h-14.92c-8.96,0-16.25,7.29-16.25,16.25s7.29,16.25,16.25,16.25h14.92v31.72h-14.92c-8.96,0-16.25,7.29-16.25,16.25s7.29,16.25,16.25,16.25h14.92v15.36H4.04V45.84ZM110.12,176.04v-15.36h12.02c1.12,0,2.02-.91,2.02-2.02s-.91-2.02-2.02-2.02h-12.02v-24.42h12.02c1.12,0,2.02-.91,2.02-2.02s-.91-2.02-2.02-2.02h-12.02v-31.72h12.02c1.12,0,2.02-.91,2.02-2.02s-.91-2.02-2.02-2.02h-12.02v-24.42h12.02c1.12,0,2.02-.91,2.02-2.02s-.91-2.02-2.02-2.02h-12.02v-18.1h24.78v111.69c0,7.66,3.84,14.43,9.69,18.51h-34.47ZM157.45,176.04c-10.2,0-18.51-8.3-18.51-18.51s8.3-18.51,18.51-18.51,18.51,8.3,18.51,18.51-8.3,18.51-18.51,18.51ZM157.45,134.98c-7.66,0-14.43,3.84-18.51,9.69V23.4c0-10.2,8.3-18.51,18.51-18.51s18.51,8.3,18.51,18.51v121.27c-4.08-5.85-10.85-9.69-18.51-9.69Z"/>
  <path class="cls-1" d="M157.45,153.67c-2.13,0-3.86,1.73-3.86,3.86s1.73,3.86,3.86,3.86,3.86-1.73,3.86-3.86-1.73-3.86-3.86-3.86Z"/>
</svg>