<?xml version="1.0" encoding="UTF-8"?>
<svg id="Home_Improvement_Tools" data-name="Home Improvement &amp;amp; Tools" xmlns="http://www.w3.org/2000/svg" viewBox="0 0 180 180">
  <defs>
    <style>
      .cls-1 {
        stroke: #000;
        stroke-miterlimit: 10;
        stroke-width: 2px;
      }
    </style>
  </defs>
  <path class="cls-1" d="M126.64,53.82c.38.38.89.58,1.39.58s1-.19,1.39-.58L179.43,3.81c.77-.77.77-2.01,0-2.78-.77-.77-2.01-.77-2.78,0l-50.01,50.01c-.77.77-.77,2.01,0,2.78Z"/>
  <path class="cls-1" d="M98.8,25.17c.5,0,1-.19,1.39-.57L120.97,3.81c.77-.77.77-2.01,0-2.78-.77-.77-2.01-.77-2.78,0l-20.78,20.78c-.77.77-.77,2.01,0,2.78.38.38.89.57,1.39.57Z"/>
  <path class="cls-1" d="M176.65,59.5l-20.78,20.78c-.77.77-.77,2.01,0,2.78.38.38.89.58,1.39.58s1-.19,1.39-.58l20.78-20.78c.77-.77.77-2.01,0-2.78-.77-.77-2.01-.77-2.78,0Z"/>
  <path class="cls-1" d="M112.03,39.21c.38.38.89.58,1.39.58s1-.19,1.39-.58L150.2,3.81c.77-.77.77-2.01,0-2.78s-2.01-.77-2.78,0l-35.4,35.39c-.77.77-.77,2.01,0,2.78Z"/>
  <path class="cls-1" d="M176.65,30.27l-35.4,35.39c-.77.77-.77,2.01,0,2.78.38.38.89.58,1.39.58s1-.19,1.39-.58l35.4-35.39c.77-.77.77-2.01,0-2.78s-2.01-.77-2.78,0Z"/>
  <path class="cls-1" d="M68.79,11.37c-.77-.77-2.01-.77-2.78,0l-16.51,16.51-4.37-4.37c-1.77-1.77-4.14-2.75-6.66-2.75s-4.89.98-6.66,2.75l-18.82,18.82c-3.67,3.67-3.67,9.65,0,13.32l50.25,50.25c1.14,1.14,1.77,2.66,1.77,4.27s-.63,3.13-1.77,4.27l-4.81,4.81-8.27-8.27c-.74-.74-2.04-.74-2.78,0l-4.88,4.88c-.56.56-.72,1.41-.42,2.14.08.21,2,5.08-2.47,9.69-1.75,1.81-6.96,5.1-12.48,8.59-8.08,5.11-17.23,10.89-22.31,15.99C1.72,155.4,0,159.54,0,163.95c0,4.41,1.72,8.56,4.83,11.67,3.12,3.12,7.26,4.83,11.67,4.83,4.41,0,8.56-1.72,11.67-4.83,5.1-5.08,10.88-14.23,15.99-22.31,3.49-5.52,6.78-10.73,8.59-12.48,4.61-4.47,9.49-2.55,9.68-2.47.74.32,1.59.15,2.16-.42l4.88-4.88c.37-.37.57-.87.57-1.39s-.21-1.02-.57-1.39l-8.27-8.27,4.81-4.81c1.88-1.88,2.92-4.38,2.92-7.05s-1.04-5.17-2.92-7.05L15.76,52.88c-2.14-2.14-2.14-5.63,0-7.77l18.82-18.82c1.03-1.03,2.41-1.6,3.89-1.6s2.85.57,3.89,1.6l4.37,4.37-16.51,16.51c-.77.77-.77,2.01,0,2.78l100.3,100.3c.38.38.89.57,1.39.57s1-.19,1.39-.57l35.8-35.8c.77-.77.77-2.01,0-2.78L68.79,11.37ZM62.66,134.34c-2.41-.59-7.68-1.11-12.62,3.68-2.14,2.08-5.25,6.99-9.18,13.2-4.75,7.51-10.66,16.86-15.44,21.63-2.38,2.38-5.54,3.69-8.9,3.69s-6.52-1.31-8.9-3.68c-2.38-2.38-3.68-5.54-3.68-8.9,0-3.36,1.31-6.52,3.69-8.9,4.77-4.79,14.12-10.69,21.63-15.44,6.22-3.93,11.13-7.03,13.2-9.18,4.78-4.94,4.27-10.22,3.68-12.62l2.65-2.65,16.53,16.53-2.65,2.65ZM131.91,146.08L34.38,48.55,67.41,15.53l97.52,97.52-33.02,33.02Z"/>
</svg>