<?xml version="1.0" encoding="UTF-8"?>
<svg id="Home_Improvement_Tools" data-name="Home Improvement &amp;amp; Tools" xmlns="http://www.w3.org/2000/svg" viewBox="0 0 180 180">
  <defs>
    <style>
      .cls-1 {
        stroke: #000;
        stroke-miterlimit: 10;
        stroke-width: 2px;
      }
    </style>
  </defs>
  <path class="cls-1" d="M150.88,66.81l5.95-18.1c3.18-9.68,2.27-17.68-2.56-22.51-4.84-4.84-12.83-5.75-22.52-2.57l-18.1,5.95C87.6,11.08,56.53,1.1,23.93,1.1c-1.14,0-2.07.93-2.07,2.07s.93,2.07,2.07,2.07c30.69,0,59.98,9.08,84.81,25.96l-29.41,9.67c-16.78-8.07-35.57-12.61-55.41-12.61-1.14,0-2.07.93-2.07,2.07s.93,2.07,2.07,2.07c17.64,0,34.42,3.71,49.63,10.37l-1.95.64c-9.61,3.16-15.89,9.04-17.68,16.57-.02.09-.03.19-.06.28-9.47-2.95-19.52-4.56-29.94-4.56-1.14,0-2.07.93-2.07,2.07s.93,2.07,2.07,2.07c10.28,0,20.19,1.64,29.49,4.62.04,6.18,3.06,12.54,8.82,18.29l16.28,16.28-13.2,13.2-9.24-9.24c-.78-.78-2.15-.78-2.92,0l-5.41,5.41c-.6.6-.77,1.5-.44,2.27.02.06,2.31,5.61-2.76,10.85-1.95,2.01-7.73,5.67-13.86,9.54-8.95,5.66-19.09,12.07-24.71,17.71-3.44,3.44-5.33,8.01-5.33,12.87,0,4.86,1.89,9.43,5.33,12.87,3.44,3.44,8.01,5.33,12.87,5.33,4.86,0,9.43-1.89,12.87-5.33,5.64-5.62,12.06-15.77,17.71-24.72,3.87-6.13,7.53-11.91,9.54-13.86,5.17-5.01,10.63-2.85,10.85-2.76.78.33,1.68.16,2.27-.44l5.41-5.41c.81-.81.81-2.12,0-2.92l-9.24-9.24,13.2-13.2,16.28,16.28c5.75,5.75,12.11,8.79,18.29,8.82,2.99,9.3,4.62,19.21,4.62,29.49,0,1.14.93,2.07,2.07,2.07s2.07-.93,2.07-2.07c0-10.42-1.61-20.48-4.56-29.94.09-.02.19-.04.28-.06,7.53-1.79,13.41-8.07,16.57-17.68l.64-1.95c6.66,15.21,10.37,31.99,10.37,49.63,0,1.14.93,2.07,2.07,2.07s2.07-.93,2.07-2.07c0-19.83-4.53-38.63-12.61-55.41l9.67-29.41c16.88,24.83,25.96,54.13,25.96,84.81,0,1.14.93,2.07,2.07,2.07s2.07-.93,2.07-2.07c0-32.6-9.98-63.67-28.48-89.72ZM70.04,128.91c-2.62-.65-8.47-1.27-13.96,4.04-2.37,2.29-5.81,7.73-10.16,14.62-5.27,8.33-11.82,18.7-17.14,24-2.66,2.66-6.19,4.12-9.94,4.12-3.76,0-7.29-1.46-9.94-4.12-2.66-2.65-4.12-6.19-4.12-9.94,0-3.76,1.46-7.29,4.12-9.95,5.3-5.31,15.67-11.87,24-17.14,6.89-4.35,12.33-7.79,14.62-10.16,5.31-5.49,4.69-11.34,4.04-13.96l3.06-3.06,18.49,18.49-3.06,3.06ZM119.54,122.51c-6.08,1.45-12.79-1.11-18.89-7.21l-16.28-16.28,8.71-8.71c.81-.81.81-2.12,0-2.92-.81-.81-2.12-.81-2.92,0l-8.71,8.71-16.28-16.28c-6.1-6.1-8.66-12.81-7.21-18.89,1.45-6.08,6.76-10.91,14.95-13.6l60.14-19.77c3.39-1.11,6.49-1.67,9.22-1.67,3.83,0,6.93,1.08,9.08,3.23,3.68,3.68,4.23,10.17,1.56,18.3l-19.77,60.14c-2.69,8.19-7.52,13.5-13.6,14.95Z"/>
</svg>