<?xml version="1.0" encoding="UTF-8"?>
<svg id="Home_Improvement_Tools" data-name="Home Improvement &amp;amp; Tools" xmlns="http://www.w3.org/2000/svg" viewBox="0 0 180 180">
  <defs>
    <style>
      .cls-1 {
        stroke: #000;
        stroke-miterlimit: 10;
        stroke-width: 2px;
      }
    </style>
  </defs>
  <path class="cls-1" d="M169.34.47c-1.09,0-1.98.89-1.98,1.98v12.91l-9.59,7.45-9.59-7.45V2.45c0-1.09-.89-1.98-1.98-1.98s-1.98.89-1.98,1.98v13.88c0,.61.28,1.19.76,1.56l10.8,8.39v7.64h-5.06c-1.09,0-1.98.89-1.98,1.98v18.36c-14.1-16.74-35.2-27.4-58.75-27.4s-44.65,10.66-58.75,27.41v-18.37c0-1.09-.89-1.98-1.98-1.98h-5.06v-7.64l10.8-8.39c.48-.38.76-.95.76-1.56V2.45c0-1.09-.89-1.98-1.98-1.98s-1.98.89-1.98,1.98v12.91l-9.59,7.45-9.59-7.45V2.45c0-1.09-.89-1.98-1.98-1.98s-1.98.89-1.98,1.98v13.88c0,.61.28,1.19.77,1.56l10.8,8.39v7.64h-5.06c-1.09,0-1.98.89-1.98,1.98v67.75h0c0,42.34,34.45,76.79,76.79,76.79s76.79-34.45,76.79-76.79h0V35.92c0-1.09-.89-1.98-1.98-1.98h-5.06v-7.64l10.8-8.39c.48-.38.76-.95.76-1.56V2.45c0-1.09-.89-1.98-1.98-1.98ZM90,176.49c-40.16,0-72.83-32.67-72.83-72.83h0V37.9h10.12v65.77h0c0,34.58,28.13,62.71,62.71,62.71s62.71-28.13,62.71-62.71-28.13-62.71-62.71-62.71c-26.87,0-49.84,17-58.75,40.8v-21.06c13.26-18.09,34.65-29.86,58.75-29.86,40.16,0,72.83,32.67,72.83,72.83s-32.67,72.83-72.83,72.83ZM31.25,103.66c0-32.39,26.35-58.75,58.75-58.75s58.75,26.35,58.75,58.75-26.35,58.75-58.75,58.75-58.75-26.35-58.75-58.75ZM162.83,79.31c-2.4-7.17-5.83-13.86-10.12-19.92v-21.5h10.12v41.42Z"/>
  <path class="cls-1" d="M77.51,105.64h21.94l-11.26,25.46c-.44,1,0,2.17,1.01,2.61.26.12.53.17.8.17.76,0,1.49-.44,1.81-1.18l12.49-28.24c.27-.61.21-1.32-.15-1.88-.37-.56-.99-.9-1.66-.9h-21.94l11.26-25.46c.44-1,0-2.17-1.01-2.61-1-.44-2.17,0-2.61,1.01l-12.49,28.24c-.27.61-.21,1.32.15,1.88.37.56.99.9,1.66.9Z"/>
</svg>