<?xml version="1.0" encoding="UTF-8"?>
<svg id="Home_Improvement_Tools" data-name="Home Improvement &amp;amp; Tools" xmlns="http://www.w3.org/2000/svg" viewBox="0 0 180 180">
  <defs>
    <style>
      .cls-1 {
        stroke: #000;
        stroke-miterlimit: 10;
        stroke-width: 2px;
      }
    </style>
  </defs>
  <path class="cls-1" d="M179.03,9.29l-7.5-7.5c-.72-.72-1.86-.81-2.69-.21l-51.25,37.45-5.63-5.63c-.78-.78-2.16-.78-2.93,0l-10.37,10.38c-2.68-2.05-5.94-3.17-9.39-3.17-4.15,0-8.05,1.61-10.97,4.53L.97,122.47c-.81.81-.81,2.12,0,2.93s2.12.81,2.93,0L81.23,48.07c2.14-2.14,4.99-3.31,8.03-3.31s5.9,1.18,8.04,3.31l35.45,35.45c2.14,2.14,3.31,4.99,3.31,8.03s-1.18,5.9-3.31,8.03l-77.33,77.33c-.81.81-.81,2.12,0,2.93.41.41.94.61,1.47.61s1.06-.2,1.47-.61l77.33-77.33c5.55-5.55,5.99-14.28,1.36-20.36l10.37-10.38c.81-.81.81-2.12,0-2.93l-5.63-5.63,37.45-51.25c.6-.83.51-1.97-.21-2.69ZM134.22,79.12l-32.52-32.52,8.8-8.8,32.52,32.52-8.8,8.8ZM138.82,60.26l-18.26-18.26L169.86,5.98l4.98,4.98-36.02,49.3Z"/>
  <path class="cls-1" d="M169.63,55.55c3.36-2.94,7.16-6.27,7.16-12.87,0-1.14-.93-2.07-2.07-2.07s-2.07.93-2.07,2.07c0,4.71-2.66,7.05-5.74,9.75-3.36,2.94-7.16,6.27-7.16,12.87s3.8,9.93,7.16,12.87c3.08,2.7,5.74,5.03,5.74,9.75s-2.66,7.05-5.75,9.75c-3.36,2.94-7.16,6.27-7.16,12.87s3.8,9.93,7.16,12.87c3.08,2.7,5.74,5.03,5.74,9.75s-2.66,7.05-5.74,9.75c-3.36,2.94-7.16,6.27-7.16,12.87s3.8,9.93,7.16,12.87c3.08,2.7,5.74,5.03,5.74,9.75,0,1.15.93,2.07,2.07,2.07s2.07-.93,2.07-2.07c0-6.59-3.8-9.93-7.16-12.87-3.08-2.7-5.75-5.04-5.75-9.75s2.66-7.05,5.75-9.75c3.36-2.94,7.16-6.27,7.16-12.87s-3.8-9.93-7.16-12.87c-3.08-2.7-5.74-5.03-5.74-9.75s2.66-7.05,5.74-9.75c3.36-2.94,7.16-6.27,7.16-12.87s-3.8-9.93-7.16-12.87c-3.08-2.7-5.75-5.03-5.75-9.75s2.66-7.05,5.74-9.75Z"/>
  <path class="cls-1" d="M96.82,30.34c1.14,0,2.07-.93,2.07-2.07V3.26c0-1.15-.93-2.07-2.07-2.07s-2.07.93-2.07,2.07v25c0,1.14.93,2.07,2.07,2.07Z"/>
  <path class="cls-1" d="M25.39,79.75c1.14,0,2.07-.93,2.07-2.07V2.54c0-1.15-.93-2.07-2.07-2.07s-2.07.93-2.07,2.07v75.14c0,1.14.93,2.07,2.07,2.07Z"/>
  <path class="cls-1" d="M96.82,159.18c-1.15,0-2.07.93-2.07,2.07v17.14c0,1.15.93,2.07,2.07,2.07s2.07-.93,2.07-2.07v-17.14c0-1.14-.93-2.07-2.07-2.07Z"/>
</svg>