<?xml version="1.0" encoding="UTF-8"?>
<svg id="Home_Improvement_Tools" data-name="Home Improvement &amp;amp; Tools" xmlns="http://www.w3.org/2000/svg" viewBox="0 0 180 180">
  <defs>
    <style>
      .cls-1 {
        stroke: #000;
        stroke-miterlimit: 10;
        stroke-width: 2px;
      }
    </style>
  </defs>
  <path class="cls-1" d="M177.92,88.38h-85.84V2.54c0-1.15-.93-2.08-2.08-2.08H2.08C.93.46,0,1.4,0,2.54v175.84c0,1.15.93,2.08,2.08,2.08h175.84c1.15,0,2.08-.93,2.08-2.08v-87.92c0-1.15-.93-2.08-2.08-2.08ZM4.16,4.63h83.75v83.75H4.16V4.63ZM4.16,92.54h83.75v83.75H4.16v-83.75ZM175.84,176.3h-83.75v-83.75h83.75v83.75Z"/>
  <path class="cls-1" d="M104.81,38.47c.53,0,1.07-.2,1.47-.61l19.04-19.04c.81-.81.81-2.13,0-2.94-.81-.81-2.13-.81-2.94,0l-19.04,19.04c-.81.81-.81,2.13,0,2.94.41.41.94.61,1.47.61Z"/>
  <path class="cls-1" d="M104.81,64.65c.53,0,1.07-.2,1.47-.61l45.21-45.22c.81-.81.81-2.13,0-2.94s-2.13-.81-2.94,0l-45.22,45.22c-.81.81-.81,2.13,0,2.94.41.41.94.61,1.47.61Z"/>
  <path class="cls-1" d="M116.42,77.13c.41.41.94.61,1.47.61s1.07-.2,1.47-.61l45.22-45.22c.81-.81.81-2.13,0-2.94s-2.13-.81-2.94,0l-45.22,45.21c-.81.81-.81,2.13,0,2.94Z"/>
  <path class="cls-1" d="M161.64,55.14l-19.04,19.04c-.81.81-.81,2.13,0,2.94.41.41.94.61,1.47.61s1.07-.2,1.47-.61l19.04-19.04c.81-.81.81-2.13,0-2.94-.81-.81-2.13-.81-2.94,0Z"/>
</svg>