<?xml version="1.0" encoding="UTF-8"?>
<svg id="Home_Improvement_Tools" data-name="Home Improvement &amp;amp; Tools" xmlns="http://www.w3.org/2000/svg" viewBox="0 0 180 180">
  <defs>
    <style>
      .cls-1 {
        stroke: #000;
        stroke-miterlimit: 10;
        stroke-width: 2px;
      }
    </style>
  </defs>
  <path class="cls-1" d="M163.11,55.27H16.89c-1.15,0-2.08.93-2.08,2.08v18.26c0,1.15.93,2.08,2.08,2.08h146.22c1.15,0,2.08-.93,2.08-2.08v-18.26c0-1.15-.93-2.08-2.08-2.08ZM92.08,59.44h32.39v14.1h-32.39v-14.1ZM87.92,73.53h-32.39v-14.1h32.39v14.1ZM18.97,59.44h32.39v14.1H18.97v-14.1ZM161.03,73.53h-32.39v-14.1h32.39v14.1Z"/>
  <path class="cls-1" d="M167.74.46H12.26C5.5.46,0,5.96,0,12.72v67.52C0,87,5.5,92.51,12.26,92.51h155.48c6.76,0,12.26-5.5,12.26-12.26V12.72c0-6.76-5.5-12.26-12.26-12.26ZM175.84,80.24c0,4.47-3.63,8.1-8.1,8.1H12.26c-4.47,0-8.1-3.63-8.1-8.1V12.72c0-4.47,3.63-8.1,8.1-8.1h155.48c4.47,0,8.1,3.63,8.1,8.1v67.52Z"/>
  <path class="cls-1" d="M29.15,29.14h12.04c1.15,0,2.08-.93,2.08-2.08s-.93-2.08-2.08-2.08h-12.04c-1.15,0-2.08.93-2.08,2.08s.93,2.08,2.08,2.08Z"/>
  <path class="cls-1" d="M35.17,116.42c-1.15,0-2.08.93-2.08,2.08v45.53c0,6.76-5.5,12.26-12.26,12.26s-12.26-5.5-12.26-12.26,5.5-12.26,12.26-12.26c1.15,0,2.08-.93,2.08-2.08s-.93-2.08-2.08-2.08c-9.06,0-16.43,7.37-16.43,16.43s7.37,16.43,16.43,16.43,16.43-7.37,16.43-16.43v-45.53c0-1.15-.93-2.08-2.08-2.08Z"/>
  <path class="cls-1" d="M159.18,147.61c-1.15,0-2.08.93-2.08,2.08s.93,2.08,2.08,2.08c6.76,0,12.26,5.5,12.26,12.26s-5.5,12.26-12.26,12.26-12.26-5.5-12.26-12.26v-45.53c0-1.15-.93-2.08-2.08-2.08s-2.08.93-2.08,2.08v45.53c0,9.06,7.37,16.43,16.43,16.43s16.43-7.37,16.43-16.43-7.37-16.43-16.43-16.43Z"/>
  <path class="cls-1" d="M71.72,116.42c-1.15,0-2.08.93-2.08,2.08v59.88c0,1.15.93,2.08,2.08,2.08s2.08-.93,2.08-2.08v-59.88c0-1.15-.93-2.08-2.08-2.08Z"/>
  <path class="cls-1" d="M108.28,116.42c-1.15,0-2.08.93-2.08,2.08v59.88c0,1.15.93,2.08,2.08,2.08s2.08-.93,2.08-2.08v-59.88c0-1.15-.93-2.08-2.08-2.08Z"/>
  <path class="cls-1" d="M53.44,105.32c-1.15,0-2.08.93-2.08,2.08v34.58c0,1.15.93,2.08,2.08,2.08s2.08-.93,2.08-2.08v-34.58c0-1.15-.93-2.08-2.08-2.08Z"/>
  <path class="cls-1" d="M90,105.32c-1.15,0-2.08.93-2.08,2.08v34.58c0,1.15.93,2.08,2.08,2.08s2.08-.93,2.08-2.08v-34.58c0-1.15-.93-2.08-2.08-2.08Z"/>
  <path class="cls-1" d="M126.56,105.32c-1.15,0-2.08.93-2.08,2.08v34.58c0,1.15.93,2.08,2.08,2.08s2.08-.93,2.08-2.08v-34.58c0-1.15-.93-2.08-2.08-2.08Z"/>
</svg>