<?xml version="1.0" encoding="UTF-8"?>
<svg id="Home_Improvement_Tools" data-name="Home Improvement &amp;amp; Tools" xmlns="http://www.w3.org/2000/svg" viewBox="0 0 180 180">
  <defs>
    <style>
      .cls-1 {
        stroke: #000;
        stroke-miterlimit: 10;
        stroke-width: 2px;
      }
    </style>
  </defs>
  <path class="cls-1" d="M120.81,83.06h-10.43c-2.36-3.12-5.25-5.74-8.49-7.79v-23c0-.97-.79-1.76-1.76-1.76h-6.28v-10.84h23.25c5.07,0,9.2-4.12,9.2-9.19s-4.12-9.2-9.2-9.2h-23.58c-1.06-3.95-4.63-6.76-8.87-6.76s-7.8,2.81-8.87,6.76h-23.58c-5.07,0-9.2,4.13-9.2,9.2s4.12,9.19,9.2,9.19h23.25v10.84h-6.28c-.97,0-1.76.79-1.76,1.76v23.03c-3.22,2.04-6.09,4.66-8.45,7.77h-31.36v-6.08c0-4.22-3.43-7.65-7.65-7.65H1.76C.79,69.33,0,70.12,0,71.1v62.75c0,.97.79,1.76,1.76,1.76h18.19c4.22,0,7.65-3.43,7.65-7.65v-6.08h31.36c6.08,8.04,15.62,12.81,25.71,12.81s19.63-4.77,25.71-12.81h14.36c11.23,0,20.36,9.14,20.36,20.36v22.4c0,.97.79,1.76,1.76,1.76h31.36c.97,0,1.76-.79,1.76-1.76v-22.4c0-32.64-26.55-59.19-59.19-59.19ZM24.07,127.97c0,2.27-1.85,4.12-4.12,4.12H3.53v-59.22h16.42c2.27,0,4.12,1.85,4.12,4.12v50.99ZM46.54,30.47c0-3.12,2.54-5.67,5.67-5.67h25.05c.91,0,1.68-.7,1.76-1.61.26-2.94,2.69-5.15,5.64-5.15s5.38,2.22,5.64,5.15c.08.91.84,1.61,1.76,1.61h25.05c3.12,0,5.67,2.54,5.67,5.67s-2.54,5.67-5.67,5.67H52.2c-3.12,0-5.67-2.54-5.67-5.67ZM78.98,39.66h11.33v10.84h-11.33v-10.84ZM70.93,54.03h27.43v19.31c-4.23-1.99-8.9-3.08-13.69-3.08s-9.49,1.1-13.74,3.1v-19.33ZM176.47,162.89h-27.83v-20.64c0-13.18-10.72-23.89-23.89-23.89h-15.26c-.57,0-1.11.28-1.44.74-5.38,7.56-14.12,12.07-23.38,12.07s-18-4.51-23.38-12.07c-.33-.46-.87-.74-1.44-.74H27.6v-31.77h32.25c.57,0,1.11-.28,1.44-.74,5.38-7.56,14.12-12.07,23.38-12.07s18,4.51,23.38,12.07c.33.47.87.74,1.44.74h11.32c30.69,0,55.66,24.97,55.66,55.66v20.64Z"/>
  <path class="cls-1" d="M84.67,118.33c-6.01,0-11.43-3.34-14.16-8.71-.44-.87-1.5-1.22-2.37-.78-.87.44-1.22,1.5-.78,2.37,3.33,6.57,9.96,10.64,17.3,10.64.97,0,1.76-.79,1.76-1.76s-.79-1.76-1.76-1.76Z"/>
</svg>