<?xml version="1.0" encoding="UTF-8"?>
<svg id="Home_Improvement_Tools" data-name="Home Improvement &amp;amp; Tools" xmlns="http://www.w3.org/2000/svg" viewBox="0 0 180 180">
  <defs>
    <style>
      .cls-1 {
        stroke: #000;
        stroke-miterlimit: 10;
        stroke-width: 2px;
      }
    </style>
  </defs>
  <path class="cls-1" d="M142.93,47.11h7.34c1.12,0,2.03-.91,2.03-2.03v-12.82c15.45-1.07,27.7-13.98,27.7-29.7,0-1.12-.91-2.03-2.03-2.03H2.63C1.51.53.6,1.44.6,2.56c0,16.42,13.36,29.78,29.78,29.78h62.21v12.74c0,1.12.91,2.03,2.03,2.03h7.34v77.27c-.02,12.44,1.63,25.58,21.52,37.56,14.41,8.68,28.19,16.14,32.06,18.22.3.16.63.24.96.24.36,0,.72-.1,1.04-.29.61-.37.99-1.03.99-1.74v-42.22c0-.73-.39-1.4-1.02-1.76-4.59-2.62-14.15-8.33-14.58-8.63,0-.45,0-56.18,0-78.65ZM4.74,4.59h51.28c-1.04,13.24-12.14,23.69-25.64,23.69S5.78,17.83,4.74,4.59ZM60.08,4.59h115.78c-1.04,13.24-12.14,23.69-25.64,23.69H45.36c8.29-4.85,14.04-13.58,14.72-23.69ZM96.65,32.34h51.59v10.71h-51.59v-10.71ZM138.87,47.11c0,9.31,0,22.8,0,35.92h-32.86c0-5.6,0-35.92,0-35.92h32.86ZM154.48,137.32v37.64c-5.83-3.17-17.15-9.43-28.9-16.51-18.11-10.91-19.57-21.89-19.56-34.08,0,0,0-20.25,0-37.29h32.86c0,17.04,0,39.01.01,39.77.01.63.31,1.21.82,1.59.75.56,10.54,6.45,14.78,8.88Z"/>
  <path class="cls-1" d="M36.18,60.44c-.74-.6-1.81-.6-2.55,0C32.26,61.55,0,87.97,0,117.22,0,136.47,15.66,152.13,34.91,152.13s34.91-15.66,34.91-34.91c0-29.25-32.26-55.67-33.63-56.78ZM34.91,148.07c-17.01,0-30.85-13.84-30.85-30.85,0-24.15,24.88-47.33,30.85-52.54,5.97,5.21,30.85,28.36,30.85,52.54,0,17.01-13.84,30.85-30.85,30.85Z"/>
  <path class="cls-1" d="M34.91,130.5c-7.32,0-13.28-5.96-13.28-13.28,0-1.12-.91-2.03-2.03-2.03s-2.03.91-2.03,2.03c0,9.56,7.78,17.34,17.34,17.34,1.12,0,2.03-.91,2.03-2.03s-.91-2.03-2.03-2.03Z"/>
</svg>