<?xml version="1.0" encoding="UTF-8"?>
<svg id="Home_Improvement_Tools" data-name="Home Improvement &amp;amp; Tools" xmlns="http://www.w3.org/2000/svg" viewBox="0 0 180 180">
  <defs>
    <style>
      .cls-1 {
        stroke: #000;
        stroke-miterlimit: 10;
        stroke-width: 2px;
      }
    </style>
  </defs>
  <path class="cls-1" d="M180,2.66c0-.58-.23-1.14-.64-1.55-.41-.41-.97-.64-1.55-.64H2.2C.98.46,0,1.45,0,2.66v175.61c0,1.21.98,2.19,2.2,2.19h175.61c1.21,0,2.2-.98,2.2-2.19,0,0,0-175.27,0-175.61ZM4.39,4.85h171.22c0,14.31-.06,94.11,0,115.24h-.1c-19.1,0-24.42-17.75-24.64-18.53-.02-.06-.04-.12-.06-.17-3.18-8.49-11.14-14.42-19.36-14.42-9.71,0-15.95,7.41-18.54,14.35-3.56,9.48-12.77,15.85-22.9,15.85-9.12,0-17.42-5.02-21.67-13.11-.18-.34-.54-1.23-.95-2.26-3.44-8.63-13.93-34.9-40.05-43.8-15.87-5.41-22.95-12.3-22.95-22.36V4.85ZM148.34,106.93h-33.24c.74-1.29,1.38-2.65,1.91-4.07,2.08-5.56,6.97-11.5,14.43-11.5s13.12,5.95,15.22,11.51c.13.42.65,1.97,1.67,4.06ZM32.98,65.23c8.91,4.73,15.47,11.76,20.23,18.66H4.39v-18.66h28.59ZM56.02,88.27c3.74,6.27,6.02,11.98,7.29,15.16.51,1.28.85,2.13,1.14,2.68.15.28.31.55.47.82H4.39v-18.66h51.63ZM22.27,60.84H4.39v-11.93c4.39,5.79,11.4,9.43,17.88,11.93ZM175.61,176.07H4.39v-18.66h171.22v18.66ZM175.61,153.03H4.39v-18.66h171.22v18.66ZM4.39,129.98v-18.66h63.56c5.41,6.43,13.42,10.25,22.04,10.25s16.61-3.9,22-10.25h38.89c4.13,6.08,11.71,13.16,24.6,13.16.04,0,.08,0,.12,0v5.5H4.39Z"/>
  <path class="cls-1" d="M30.33,28.18h13.13c1.21,0,2.2-.98,2.2-2.2s-.98-2.2-2.2-2.2h-13.13c-1.21,0-2.2.98-2.2,2.2s.98,2.2,2.2,2.2Z"/>
  <path class="cls-1" d="M83.44,28.18h13.13c1.21,0,2.2-.98,2.2-2.2s-.98-2.2-2.2-2.2h-13.13c-1.21,0-2.2.98-2.2,2.2s.98,2.2,2.2,2.2Z"/>
  <path class="cls-1" d="M136.54,28.18h13.13c1.21,0,2.2-.98,2.2-2.2s-.98-2.2-2.2-2.2h-13.13c-1.21,0-2.19.98-2.19,2.2s.98,2.2,2.19,2.2Z"/>
  <path class="cls-1" d="M83.44,76.75h13.13c1.21,0,2.2-.98,2.2-2.2s-.98-2.2-2.2-2.2h-13.13c-1.21,0-2.2.98-2.2,2.2s.98,2.2,2.2,2.2Z"/>
  <path class="cls-1" d="M136.54,76.75h13.13c1.21,0,2.2-.98,2.2-2.2s-.98-2.2-2.2-2.2h-13.13c-1.21,0-2.19.98-2.19,2.2s.98,2.2,2.19,2.2Z"/>
  <path class="cls-1" d="M56.88,51.34h13.13c1.21,0,2.2-.98,2.2-2.19s-.98-2.2-2.2-2.2h-13.13c-1.21,0-2.19.98-2.19,2.2s.98,2.19,2.19,2.19Z"/>
  <path class="cls-1" d="M109.99,51.34h13.13c1.21,0,2.19-.98,2.19-2.19s-.98-2.2-2.19-2.2h-13.13c-1.21,0-2.2.98-2.2,2.2s.98,2.19,2.2,2.19Z"/>
</svg>