<?xml version="1.0" encoding="UTF-8"?>
<svg id="Home_Improvement_Tools" data-name="Home Improvement &amp;amp; Tools" xmlns="http://www.w3.org/2000/svg" viewBox="0 0 180 180">
  <defs>
    <style>
      .cls-1 {
        stroke: #000;
        stroke-miterlimit: 10;
        stroke-width: 2px;
      }
    </style>
  </defs>
  <path class="cls-1" d="M142.03.46l-104.05.05c-9.37,0-16.99,7.62-16.99,16.99v124.67c0,9.37,7.67,16.99,17.1,16.99h5.99v5.36c0,.59.28,1.16.76,1.51l6.6,4.94v7.59c0,1.04.85,1.89,1.89,1.89h12.6c1.04,0,1.89-.85,1.89-1.89v-7.59l6.6-4.94c.48-.36.76-.92.76-1.51v-5.36h29.7v5.36c0,.59.28,1.16.76,1.51l6.6,4.94v7.59c0,1.04.85,1.89,1.89,1.89h12.6c1.04,0,1.89-.85,1.89-1.89v-7.59l6.6-4.94c.48-.36.76-.92.76-1.51v-5.36h6.09c9.37,0,16.99-7.6,16.99-16.94V17.46c0-9.37-7.62-16.99-16.99-16.99ZM71.37,163.59l-6.6,4.94c-.48.36-.76.92-.76,1.51v6.65h-8.83v-6.65c0-.59-.28-1.16-.76-1.51l-6.6-4.94v-4.37h23.53v4.37ZM132.16,163.59l-6.6,4.94c-.48.36-.76.92-.76,1.51v6.65h-8.83v-6.65c0-.59-.28-1.16-.76-1.51l-6.6-4.94v-4.37h23.53v4.37ZM155.25,73.63h-7.58c-1.04,0-1.89.85-1.89,1.89s.85,1.89,1.89,1.89h7.58v13.01h-7.58c-1.04,0-1.89.85-1.89,1.89s.85,1.89,1.89,1.89h7.58v13.01h-7.58c-1.04,0-1.89.85-1.89,1.89s.85,1.89,1.89,1.89h7.58v31.25c0,7.26-5.93,13.17-13.22,13.17H38.08c-7.35,0-13.32-5.93-13.32-13.22v-31.2h7.58c1.04,0,1.89-.85,1.89-1.89s-.85-1.89-1.89-1.89h-7.58v-13.01h7.58c1.04,0,1.89-.85,1.89-1.89s-.85-1.89-1.89-1.89h-7.58v-13.01h7.58c1.04,0,1.89-.85,1.89-1.89s-.85-1.89-1.89-1.89h-7.58V17.51c0-7.29,5.93-13.22,13.22-13.22l104.05-.05c7.29,0,13.22,5.93,13.22,13.22v56.18Z"/>
  <path class="cls-1" d="M90,28.39c-14.9,0-27.03,12.12-27.03,27.03s12.12,27.03,27.03,27.03,27.03-12.12,27.03-27.03-12.12-27.03-27.03-27.03ZM90,78.67c-12.82,0-23.25-10.43-23.25-23.25s10.43-23.25,23.25-23.25,23.25,10.43,23.25,23.25-10.43,23.25-23.25,23.25Z"/>
  <path class="cls-1" d="M97.84,44.9l-9.18,9.18c-.74.74-.74,1.93,0,2.67.37.37.85.55,1.33.55s.97-.18,1.33-.55l9.18-9.18c.74-.74.74-1.93,0-2.67-.74-.74-1.93-.74-2.67,0Z"/>
  <path class="cls-1" d="M69.54,130.1c-1.97,0-3.57,1.6-3.57,3.57s1.6,3.57,3.57,3.57,3.57-1.6,3.57-3.57-1.6-3.57-3.57-3.57Z"/>
  <path class="cls-1" d="M90,130.1c-1.97,0-3.57,1.6-3.57,3.57s1.6,3.57,3.57,3.57,3.57-1.6,3.57-3.57-1.6-3.57-3.57-3.57Z"/>
  <path class="cls-1" d="M110.46,130.1c-1.97,0-3.57,1.6-3.57,3.57s1.6,3.57,3.57,3.57,3.57-1.6,3.57-3.57-1.6-3.57-3.57-3.57Z"/>
  <path class="cls-1" d="M115.14,95.77h-50.28c-1.04,0-1.89.85-1.89,1.89v19.37c0,1.04.85,1.89,1.89,1.89h50.28c1.04,0,1.89-.85,1.89-1.89v-19.37c0-1.04-.85-1.89-1.89-1.89ZM113.25,115.15h-46.5v-15.6h46.5v15.6Z"/>
</svg>