<?xml version="1.0" encoding="UTF-8"?>
<svg id="Home_Improvement_Tools" data-name="Home Improvement &amp;amp; Tools" xmlns="http://www.w3.org/2000/svg" viewBox="0 0 180 180">
  <defs>
    <style>
      .cls-1 {
        stroke: #000;
        stroke-miterlimit: 10;
        stroke-width: 2px;
      }
    </style>
  </defs>
  <path class="cls-1" d="M151.52,103.64c-8.4,0-15.95,3.65-21.17,9.45-3.6-1.66-6.9-2.73-9.63-3.41,20.07-9.04,41.73-49.24,42.76-51.16.24-.45.24-.99-.01-1.44-.25-.45-.7-.74-1.21-.77l-123.42-8.65c-.39-1.74-1.23-5.63-2.58-12.07-2.12-10.12-12.47-11.69-12.54-11.7L1.75,20.34c-.82-.14-1.6.43-1.73,1.25-.13.82.43,1.59,1.25,1.73l21.99,3.56c.34.05,8.36,1.31,10.05,9.34,1.87,8.9,11.84,58.92,11.84,58.92.03.13,2.4,10.53,11.74,14.67v27.38c0,6.78,5.52,12.3,12.3,12.3,3.88,0,7.57-1.86,9.88-4.98,1.36-1.84,17.84-25.38,22.89-33.03h11.21c.23,0,6.76.34,15.21,4.08-3.35,4.67-5.33,10.39-5.33,16.56,0,15.71,12.78,28.48,28.49,28.48s28.48-12.78,28.48-28.48-12.78-28.49-28.48-28.49ZM48.09,94.52l-8.62-43.8,120.22,8.42c-5.39,9.57-28.84,49.32-46.5,49.32h-47.98c-13.91,0-17.01-13.4-17.13-13.95ZM76.64,142.71c-1.77,2.39-4.49,3.76-7.46,3.76-5.12,0-9.29-4.17-9.29-9.29v-26.34c1.61.41,3.37.64,5.32.64h33.11c-5.96,8.88-20.42,29.52-21.69,31.23ZM151.52,157.59c-14.05,0-25.47-11.43-25.47-25.47,0-5.71,1.89-10.99,5.08-15.24,2.63,1.35,5.39,3.03,8.16,5.13-2.28,2.75-3.65,6.27-3.65,10.11,0,8.76,7.12,15.88,15.88,15.88s15.88-7.12,15.88-15.88-7.12-15.88-15.88-15.88c-3.81,0-7.32,1.35-10.06,3.6-2.81-2.17-5.61-3.94-8.29-5.36,4.64-4.82,11.15-7.83,18.35-7.83,14.05,0,25.47,11.43,25.47,25.47s-11.43,25.47-25.47,25.47ZM150.32,133.04c.3.39.74.59,1.2.59.32,0,.64-.1.92-.31.66-.51.79-1.45.28-2.11-2.84-3.71-5.84-6.8-8.86-9.4,2.14-1.6,4.79-2.55,7.66-2.55,7.1,0,12.87,5.77,12.87,12.87s-5.77,12.87-12.87,12.87-12.87-5.77-12.87-12.87c0-3.13,1.12-5.99,2.98-8.22,2.97,2.51,5.91,5.52,8.69,9.14Z"/>
</svg>