<?xml version="1.0" encoding="UTF-8"?>
<svg id="Human_Resources" data-name="Human Resources" xmlns="http://www.w3.org/2000/svg" viewBox="0 0 180 180">
  <defs>
    <style>
      .cls-1 {
        stroke: #000;
        stroke-miterlimit: 10;
        stroke-width: 2px;
      }
    </style>
  </defs>
  <path class="cls-1" d="M117.96,142.42c-1.95-.91-6.43-2.98-11.21-5.18,3.72-4.05,6-9.45,6-15.37,0-12.54-10.2-22.75-22.75-22.75s-22.75,10.2-22.75,22.75c0,5.92,2.28,11.32,6,15.37-4.78,2.2-9.26,4.27-11.21,5.18-7.61,3.55-11.31,9.37-11.31,17.8v18.6c0,.91.74,1.64,1.64,1.64h75.26c.91,0,1.64-.74,1.64-1.64v-18.6c0-8.43-3.7-14.25-11.32-17.8ZM90,102.41c10.73,0,19.46,8.73,19.46,19.46s-8.73,19.46-19.46,19.46-19.46-8.73-19.46-19.46,8.73-19.46,19.46-19.46ZM125.99,177.17h-13.81v-9.06c0-.91-.74-1.64-1.64-1.64s-1.64.74-1.64,1.64v9.06h-37.78v-9.06c0-.91-.74-1.64-1.64-1.64s-1.64.74-1.64,1.64v9.06h-13.81v-16.96c0-9.35,5.37-12.94,9.42-14.82,2.11-.98,7.21-3.33,12.43-5.74,3.89,3.1,8.8,4.95,14.15,4.95s10.26-1.86,14.15-4.95c5.22,2.4,10.32,4.75,12.43,5.74h0c4.04,1.88,9.42,5.47,9.42,14.82v16.96Z"/>
  <path class="cls-1" d="M175.18,81.99l-32.03-36.79v-10.99c0-.65-.38-1.23-.97-1.5l-23.91-10.73V2.11c0-.91-.74-1.64-1.64-1.64s-1.64.74-1.64,1.64v19.29h-49.96V2.11c0-.91-.74-1.64-1.64-1.64s-1.64.74-1.64,1.64v19.87l-23.91,10.73c-.59.27-.97.85-.97,1.5v10.99L4.82,81.99c-.46.53-.53,1.3-.18,1.91l30.58,52.38c.29.5.84.82,1.42.82h13.84c.53,0,1.03-.26,1.34-.69.31-.44.39-.99.21-1.5l-14.52-41.16,28.58-28.17h47.82l28.58,28.17-14.52,41.16c-.18.5-.1,1.06.21,1.5.31.44.81.69,1.34.69h13.84c.58,0,1.13-.31,1.42-.82l30.58-52.38c.35-.61.28-1.38-.18-1.91ZM40.14,35.27l23.59-10.59h52.55l23.59,10.59v8.87h-12.93c-.54,0-1.05.27-1.36.72l-11.84,17.42h-47.48l-11.84-17.42c-.31-.45-.82-.72-1.36-.72h-12.93v-8.87ZM34.06,93.85l14.09,39.95h-10.57l-29.51-50.55,31.19-35.82h12.93l11.08,16.3-28.82,28.4c-.45.45-.61,1.12-.4,1.72ZM142.42,133.8h-10.57l14.09-39.95c.21-.6.06-1.27-.4-1.72l-28.82-28.4,11.08-16.3h12.93l31.19,35.82-29.51,50.55Z"/>
  <path class="cls-1" d="M69.39,46.7c2.11,0,3.83-1.72,3.83-3.83s-1.72-3.83-3.83-3.83-3.83,1.72-3.83,3.83,1.72,3.83,3.83,3.83Z"/>
  <path class="cls-1" d="M110.61,46.7c2.11,0,3.83-1.72,3.83-3.83s-1.72-3.83-3.83-3.83-3.83,1.72-3.83,3.83,1.72,3.83,3.83,3.83Z"/>
</svg>