<?xml version="1.0" encoding="UTF-8"?>
<svg id="Human_Resources" data-name="Human Resources" xmlns="http://www.w3.org/2000/svg" viewBox="0 0 180 180">
  <defs>
    <style>
      .cls-1 {
        stroke: #000;
        stroke-miterlimit: 10;
        stroke-width: 2px;
      }
    </style>
  </defs>
  <path class="cls-1" d="M170.54,54.44c-.92.39-1.35,1.45-.96,2.37,4.51,10.66,6.8,21.98,6.8,33.65,0,47.63-38.75,86.38-86.38,86.38S3.62,138.09,3.62,90.46,42.37,4.08,90,4.08c11.66,0,22.97,2.28,33.62,6.79.92.39,1.98-.04,2.37-.96.39-.92-.04-1.98-.96-2.37C113.94,2.84,102.15.46,90,.46,40.37.46,0,40.84,0,90.46s40.37,90,90,90,90-40.37,90-90c0-12.16-2.38-23.96-7.09-35.07-.39-.92-1.45-1.35-2.37-.96Z"/>
  <path class="cls-1" d="M120.69,32.12c.44-.9.07-1.98-.82-2.42-9.35-4.61-19.4-6.95-29.87-6.95-37.34,0-67.72,30.38-67.72,67.72s30.38,67.72,67.72,67.72,67.72-30.38,67.72-67.72c0-10.48-2.34-20.53-6.95-29.87-.44-.9-1.53-1.26-2.42-.82-.9.44-1.26,1.53-.82,2.42,4.36,8.84,6.58,18.35,6.58,28.27,0,35.35-28.76,64.1-64.1,64.1S25.9,125.81,25.9,90.46,54.65,26.36,90,26.36c9.92,0,19.43,2.21,28.27,6.58.89.44,1.98.07,2.42-.82Z"/>
  <path class="cls-1" d="M111.78,52.62c.46-.89.12-1.98-.76-2.44-6.44-3.37-13.71-5.16-21.02-5.16-25.06,0-45.44,20.38-45.44,45.44s20.38,45.44,45.44,45.44,45.44-20.38,45.44-45.44c0-7.3-1.78-14.57-5.16-21.01-.46-.89-1.56-1.23-2.44-.76-.89.46-1.23,1.56-.76,2.44,3.1,5.93,4.74,12.61,4.74,19.33,0,23.06-18.76,41.82-41.82,41.82s-41.82-18.76-41.82-41.82,18.76-41.82,41.82-41.82c6.72,0,13.41,1.64,19.34,4.74.88.46,1.98.12,2.44-.76Z"/>
  <path class="cls-1" d="M90,70.92c.85,0,1.71.06,2.55.17.99.12,1.9-.57,2.03-1.56.13-.99-.57-1.9-1.56-2.03-1-.13-2.01-.2-3.02-.2-12.77,0-23.16,10.39-23.16,23.16s10.39,23.16,23.16,23.16,23.16-10.39,23.16-23.16c0-1.01-.07-2.03-.2-3.02-.13-.99-1.03-1.68-2.03-1.56-.99.13-1.69,1.04-1.56,2.03.11.84.17,1.7.17,2.55,0,10.78-8.77,19.54-19.54,19.54s-19.54-8.77-19.54-19.54,8.77-19.54,19.54-19.54Z"/>
  <path class="cls-1" d="M133.66,44.24l-42.33,42.33c-.42-.14-.86-.24-1.33-.24-2.28,0-4.13,1.85-4.13,4.13s1.85,4.13,4.13,4.13,4.13-1.85,4.13-4.13c0-.47-.1-.91-.24-1.33l42.33-42.33,22.02,5.27c.14.03.28.05.42.05.47,0,.94-.19,1.28-.53l19.52-19.52c.46-.46.64-1.14.46-1.77-.18-.63-.68-1.11-1.32-1.27l-21.93-5.25-5.25-21.93c-.15-.64-.64-1.14-1.27-1.32-.63-.18-1.31,0-1.77.46l-19.52,19.52c-.44.44-.63,1.09-.48,1.7l5.27,22.02ZM158.1,48.31l-18.88-4.52,16.52-16.52,18.88,4.52-16.52,16.52ZM148.67,5.84l4.52,18.88-16.52,16.52-4.52-18.88,16.52-16.52Z"/>
</svg>