<?xml version="1.0" encoding="UTF-8"?>
<svg id="Human_Resources" data-name="Human Resources" xmlns="http://www.w3.org/2000/svg" viewBox="0 0 180 180">
  <defs>
    <style>
      .cls-1 {
        stroke: #000;
        stroke-miterlimit: 10;
        stroke-width: 2px;
      }
    </style>
  </defs>
  <path class="cls-1" d="M13.92,119.49c0,3.47,2.82,6.29,6.29,6.29h25.52c3.47,0,6.29-2.82,6.29-6.29v-31.28l10.57-6.77c.47-.3.77-.79.83-1.34.01-.15,1.54-15.54,2.4-26.63.88-11.44-3.19-13.69-8.82-16.8-.41-.23-6.42-3.6-11.28-6.31,3.05-3.18,4.94-7.49,4.94-12.23C50.65,8.39,42.72.46,32.97.46S15.28,8.39,15.28,18.14c0,4.75,1.89,9.05,4.94,12.23-4.87,2.71-10.87,6.08-11.28,6.31C3.31,39.79-.76,42.04.12,53.48c.85,11.09,2.38,26.47,2.4,26.63.05.55.36,1.05.83,1.34l10.57,6.77v31.28ZM32.97,4.08c7.76,0,14.07,6.31,14.07,14.07s-6.31,14.07-14.07,14.07-14.07-6.31-14.07-14.07,6.31-14.07,14.07-14.07ZM6.03,78.88c-.34-3.41-1.57-16.15-2.3-25.67-.7-9.12,1.7-10.45,6.96-13.35.46-.25,7.49-4.2,12.5-6.98,2.8,1.87,6.17,2.96,9.78,2.96s6.98-1.09,9.78-2.96c5,2.78,12.04,6.73,12.5,6.98,5.26,2.9,7.66,4.23,6.96,13.35-.73,9.53-1.97,22.26-2.3,25.67l-10.67,6.83c-.52.33-.83.91-.83,1.52v32.27c0,1.47-1.2,2.67-2.67,2.67h-10.95v-25.05c0-1-.81-1.81-1.81-1.81s-1.81.81-1.81,1.81v25.05h-10.95c-1.47,0-2.67-1.2-2.67-2.67v-32.27c0-.62-.31-1.19-.83-1.52l-10.67-6.83Z"/>
  <path class="cls-1" d="M170.32,40.03c-.46-.25-7.13-4-12.52-6.99,3.4-3.46,5.5-8.19,5.5-13.41,0-10.57-8.6-19.16-19.16-19.16s-19.16,8.6-19.16,19.16c0,5.22,2.1,9.95,5.5,13.41-5.39,3-12.06,6.74-12.52,6.99-6.1,3.37-10.51,5.8-9.55,18.2.93,12.11,2.6,28.93,2.62,29.1.05.55.36,1.05.83,1.34l11.63,7.44v34.27c0,3.7,3.01,6.71,6.71,6.71h27.89c3.7,0,6.71-3.01,6.71-6.71v-34.27l11.64-7.44c.47-.3.77-.79.82-1.34.02-.17,1.69-16.98,2.62-29.1.95-12.4-3.45-14.83-9.55-18.2ZM144.14,4.08c8.57,0,15.54,6.97,15.54,15.54s-6.97,15.54-15.54,15.54-15.54-6.97-15.54-15.54,6.97-15.54,15.54-15.54ZM144.14,38.78c.99,0,1.96-.1,2.92-.25l5.38,26-8.3,8.37-8.3-8.37,5.38-26c.95.15,1.92.25,2.92.25ZM176.26,57.95c-.81,10.49-2.17,24.54-2.53,28.14l-11.73,7.51c-.52.33-.83.91-.83,1.52v35.26c0,1.7-1.39,3.09-3.09,3.09h-12.14v-27.55c0-1-.81-1.81-1.81-1.81s-1.81.81-1.81,1.81v27.55h-12.14c-1.7,0-3.09-1.39-3.09-3.09v-35.26c0-.62-.31-1.19-.83-1.52l-11.73-7.51c-.35-3.61-1.72-17.65-2.53-28.14-.78-10.08,1.88-11.55,7.69-14.76.5-.28,8.2-4.6,13.74-7.68,1.31.88,2.75,1.59,4.26,2.13l-5.61,27.1c-.12.59.06,1.21.49,1.64l10.22,10.31c.34.34.89.54,1.37.54s.95-.19,1.28-.54l10.22-10.31c.43-.43.61-1.05.49-1.64l-5.61-27.1c1.51-.54,2.95-1.25,4.26-2.13,5.53,3.07,13.24,7.4,13.74,7.68,5.82,3.21,8.47,4.68,7.7,14.76Z"/>
  <path class="cls-1" d="M169.17,144.62h-50.07c-1,0-1.81.81-1.81,1.81s.81,1.81,1.81,1.81h23.23v14.53l-44.61-7.54-9.86-17.08c-.32-.56-.92-.9-1.57-.9s-1.24.34-1.57.9l-7.83,13.57-42.11-7.11v-7.67h23.23c1,0,1.81-.81,1.81-1.81s-.81-1.81-1.81-1.81H7.93c-1,0-1.81.81-1.81,1.81s.81,1.81,1.81,1.81h23.23v9.2c0,.88.64,1.64,1.51,1.78l42.29,7.14-13.1,22.7c-.32.56-.32,1.25,0,1.81.32.56.92.9,1.57.9h45.73c.65,0,1.24-.34,1.57-.9.32-.56.32-1.25,0-1.81l-10.66-18.46,43.77,7.39c.1.02.2.03.3.03.42,0,.84-.15,1.17-.43.41-.34.64-.85.64-1.38v-16.67h23.23c1,0,1.81-.81,1.81-1.81s-.81-1.81-1.81-1.81ZM66.55,176.85l19.73-34.18,19.73,34.18h-39.47Z"/>
  <path class="cls-1" d="M83.09,163.09c0,1.76,1.44,3.2,3.2,3.2s3.2-1.44,3.2-3.2-1.44-3.2-3.2-3.2-3.2,1.44-3.2,3.2Z"/>
</svg>