<?xml version="1.0" encoding="UTF-8"?>
<svg id="Human_Resources" data-name="Human Resources" xmlns="http://www.w3.org/2000/svg" viewBox="0 0 180 180">
  <defs>
    <style>
      .cls-1 {
        stroke: #000;
        stroke-miterlimit: 10;
        stroke-width: 2px;
      }
    </style>
  </defs>
  <path class="cls-1" d="M173.8,113.59h-55.87c-.97,0-1.76.79-1.76,1.76v19.35h-33.34c1.11-1.19,1.96-2.64,2.43-4.3l8.96-30.71c1.4-4.91-.9-10.09-5.48-12.34l-21.4-12.27,3.47-10.98,10.13,7.13c1.16,1.05,3.16,2.23,5.16,2.23h18.92c4.03,0,7.32-3.28,7.32-7.32s-3.28-7.32-7.32-7.32h-14.49l-13.57-19.17c-.15-.95-.4-1.9-.73-2.83,7.69-2.27,13.32-9.38,13.32-17.8,0-10.24-8.33-18.56-18.56-18.56s-18.56,8.33-18.56,18.56c0,3.06.76,5.93,2.07,8.48-8.24,2.78-25.89,9.06-30.15,10.58-1.98.71-3.54,2.16-4.4,4.07l-9.93,22.09c-1.79,3.99,0,8.7,3.99,10.5,3.97,1.78,8.64.03,10.46-3.91l9.91-17.61h6.39l-7.87,24.27c-.27.97-7.03,37.19-7.03,37.19-6.13,11.41-16.54,30.59-16.58,30.67-1.14,2.36-1.29,5.02-.42,7.49.39,1.1.96,2.1,1.68,2.98h-4.33c-.97,0-1.76.79-1.76,1.76v21.12c0,.97.79,1.76,1.76,1.76h167.6c.97,0,1.76-.79,1.76-1.76v-63.35c0-.97-.79-1.76-1.76-1.76ZM70.94,104.11l-6.04,20.48c-1.05,3.69.01,7.48,2.45,10.11h-5.28c-.97,0-1.76.79-1.76,1.76v19.35H25.37c.5-.53.98-1.09,1.42-1.72,1.31-1.9,18.36-29.46,18.36-29.46.05-.08.09-.16.12-.24,3.47-8.2,7.07-17.49,9.5-24.75l16.16,4.47ZM89.61,62.36h15.4c2.09,0,3.79,1.7,3.79,3.79s-1.7,3.79-3.79,3.79h-18.92c-.91,0-2.14-.7-2.85-1.36-.06-.06-.12-.11-.19-.16l-11.14-7.84,4.35-13.77c.17-.45.32-.91.44-1.38l11.46,16.19c.33.47.87.75,1.44.75ZM70.98,3.99c8.29,0,15.04,6.74,15.04,15.04s-6.74,15.04-15.04,15.04-15.04-6.74-15.04-15.04,6.74-15.04,15.04-15.04ZM36.26,78.51l8.2-25.23h6.71c.97,0,1.76-.77,1.76-1.74,0-.97-.78-1.83-1.75-1.84h-17.84c-.64,0-1.22.31-1.54.87l-10.46,18.6s-.05.09-.07.14c-1,2.22-3.61,3.21-5.83,2.21-1.07-.48-1.9-1.36-2.32-2.46-.42-1.1-.38-2.3.1-3.37l9.93-22.09c.47-1.03,1.31-1.82,2.37-2.2,10.22-3.64,24.77-8.78,30.93-10.85,3.4,4.28,8.64,7.04,14.52,7.04.59,0,1.17-.03,1.74-.09,1.11,2.73,1.21,5.57.24,8.08-.01.03-.02.07-.04.1l-8.72,27.6-3.58-2.05c-.84-.48-1.92-.19-2.41.65-.48.85-.19,1.92.65,2.41l28.17,16.14s.07.04.11.06c3.07,1.49,4.62,4.95,3.69,8.22l-8.96,30.71c-1.06,3.74-4.98,5.92-8.72,4.86-3.74-1.07-5.92-4.98-4.86-8.7l6.54-22.19c.13-.45.08-.94-.15-1.36-.23-.41-.62-.72-1.07-.84l-29.47-8.15c-2.65-.73-5.06-2.82-6.61-5.73-1.55-2.9-2-6.13-1.26-8.8ZM15.38,155.26c-3.11-1.5-4.43-5.26-2.95-8.33.07-.13,10.48-19.31,16.66-30.82.09-.16.15-.34.18-.52,0,0,3.99-22.14,4.94-27.02.07.13.12.27.19.4,2,3.76,5.2,6.48,8.78,7.47l8.18,2.26c-2.14,6.36-5.37,14.91-9.29,24.19,0,0-16.93,27.37-18.19,29.2-1.27,1.85-3.38,3.6-5.79,3.72h-.5c-.72-.03-1.46-.2-2.21-.56ZM172.03,176.93H7.97v-17.59h54.1c.97,0,1.76-.79,1.76-1.76v-19.35h54.1c.97,0,1.76-.79,1.76-1.76v-19.35h52.34v59.82Z"/>
  <path class="cls-1" d="M119.12,91.62c1.95,0,3.53-1.58,3.53-3.53s-1.58-3.53-3.53-3.53-3.53,1.58-3.53,3.53,1.58,3.53,3.53,3.53Z"/>
  <path class="cls-1" d="M144.72,83.64c1.95,0,3.53-1.58,3.53-3.53s-1.58-3.53-3.53-3.53-3.53,1.58-3.53,3.53,1.58,3.53,3.53,3.53Z"/>
  <path class="cls-1" d="M170.33,75.67c1.95,0,3.53-1.58,3.53-3.53s-1.58-3.53-3.53-3.53-3.53,1.58-3.53,3.53,1.58,3.53,3.53,3.53Z"/>
</svg>