<?xml version="1.0" encoding="UTF-8"?>
<svg id="Human_Resources" data-name="Human Resources" xmlns="http://www.w3.org/2000/svg" viewBox="0 0 180 180">
  <defs>
    <style>
      .cls-1 {
        stroke: #000;
        stroke-miterlimit: 10;
        stroke-width: 2px;
      }
    </style>
  </defs>
  <path class="cls-1" d="M85.85,175.36H1.86C.83,175.36,0,176.19,0,177.21s.83,1.86,1.86,1.86h84c1.02,0,1.86-.83,1.86-1.86s-.83-1.86-1.86-1.86Z"/>
  <path class="cls-1" d="M103.34,158.34H1.86C.83,158.34,0,159.17,0,160.2s.83,1.86,1.86,1.86h101.49c1.02,0,1.86-.83,1.86-1.86s-.83-1.86-1.86-1.86Z"/>
  <path class="cls-1" d="M103.34,141.32H1.86C.83,141.32,0,142.15,0,143.18s.83,1.86,1.86,1.86h101.49c1.02,0,1.86-.83,1.86-1.86s-.83-1.86-1.86-1.86Z"/>
  <path class="cls-1" d="M103.34,124.3H1.86C.83,124.3,0,125.13,0,126.16s.83,1.86,1.86,1.86h101.49c1.02,0,1.86-.83,1.86-1.86s-.83-1.86-1.86-1.86Z"/>
  <path class="cls-1" d="M52.6,1.08C23.6,1.08,0,24.67,0,53.68s23.6,52.6,52.6,52.6,52.6-23.6,52.6-52.6S81.6,1.08,52.6,1.08ZM21.61,91.46v-13.6c0-7.83,4.26-10.82,7.97-12.55,1.84-.86,6.15-2.85,10.61-4.9,3.43,2.66,7.73,4.26,12.4,4.26s8.97-1.59,12.4-4.25c4.47,2.06,8.8,4.05,10.61,4.9,3.71,1.73,7.97,4.72,7.97,12.55v13.6c-8.44,6.93-19.24,11.1-30.99,11.1s-22.55-4.17-30.99-11.1ZM52.6,60.96c-9.13,0-16.56-7.43-16.56-16.56s7.43-16.56,16.56-16.56,16.56,7.43,16.56,16.56-7.43,16.56-16.56,16.56ZM87.3,88.08v-10.22c0-7.54-3.31-12.74-10.12-15.91-3.6-1.68-6.65-3.1-9.26-4.3,3.08-3.56,4.95-8.19,4.95-13.25,0-11.18-9.09-20.27-20.27-20.27s-20.27,9.09-20.27,20.27c0,5.07,1.88,9.71,4.97,13.27-3.98,1.83-7.64,3.52-9.27,4.28-6.81,3.17-10.12,8.38-10.12,15.91v10.22c-8.77-8.84-14.19-21-14.19-34.4C3.71,26.72,25.64,4.79,52.6,4.79s48.89,21.93,48.89,48.89c0,13.4-5.43,25.56-14.19,34.4Z"/>
  <path class="cls-1" d="M154.26,32c.34.51.92.82,1.54.82s1.19-.31,1.54-.82l9.12-13.51c.57-.85.35-2-.5-2.58-.85-.58-2-.35-2.58.5l-7.59,11.23-7.59-11.23c-.57-.85-1.73-1.07-2.58-.5-.85.57-1.07,1.73-.5,2.58l9.12,13.51Z"/>
  <path class="cls-1" d="M178.14,0h-44.69c-1.02,0-1.86.83-1.86,1.86v44.69c0,1.02.83,1.86,1.86,1.86h44.69c1.02,0,1.86-.83,1.86-1.86V1.86c0-1.02-.83-1.86-1.86-1.86ZM176.29,44.69h-40.98V3.71h40.98v40.98Z"/>
  <path class="cls-1" d="M154.26,98.26c.34.51.92.82,1.54.82s1.19-.31,1.54-.82l9.12-13.51c.57-.85.35-2-.5-2.58-.85-.58-2-.35-2.58.5l-7.59,11.23-7.59-11.23c-.57-.85-1.73-1.08-2.58-.5-.85.57-1.07,1.73-.5,2.58l9.12,13.51Z"/>
  <path class="cls-1" d="M178.14,66.26h-44.69c-1.02,0-1.86.83-1.86,1.86v44.69c0,1.02.83,1.86,1.86,1.86h44.69c1.02,0,1.86-.83,1.86-1.86v-44.69c0-1.02-.83-1.86-1.86-1.86ZM176.29,110.95h-40.98v-40.98h40.98v40.98Z"/>
  <path class="cls-1" d="M154.26,164.52c.34.51.92.82,1.54.82s1.19-.31,1.54-.82l9.12-13.51c.57-.85.35-2-.5-2.58-.85-.58-2-.35-2.58.5l-7.59,11.23-7.59-11.23c-.57-.85-1.73-1.07-2.58-.5-.85.57-1.07,1.73-.5,2.58l9.12,13.51Z"/>
  <path class="cls-1" d="M178.14,132.52h-44.69c-1.02,0-1.86.83-1.86,1.86v44.69c0,1.02.83,1.86,1.86,1.86h44.69c1.02,0,1.86-.83,1.86-1.86v-44.69c0-1.02-.83-1.86-1.86-1.86ZM176.29,177.21h-40.98v-40.98h40.98v40.98Z"/>
</svg>