<?xml version="1.0" encoding="UTF-8"?>
<svg id="Human_Resources" data-name="Human Resources" xmlns="http://www.w3.org/2000/svg" viewBox="0 0 180 180">
  <defs>
    <style>
      .cls-1 {
        stroke: #000;
        stroke-miterlimit: 10;
        stroke-width: 2px;
      }
    </style>
  </defs>
  <path class="cls-1" d="M89.05,96.07c.29.17.62.26.95.26s.66-.09.95-.26c2.18-1.3,53.35-32.3,52.45-67.5-.4-15.76-12.77-28.11-28.15-28.11-8.98,0-18.67,4.22-25.25,10.88C83.42,4.68,73.73.46,64.76.46c-15.39,0-27.75,12.35-28.15,28.11-.9,35.21,50.27,66.2,52.45,67.5ZM90,92.31c-5.74-3.57-34.19-22.07-45.28-45.04l12.99.02c5.06-.17,7.04-6.37,8.97-12.36,1.52-4.75,3.25-10.14,5.99-10.14,3.59,0,5.48,11.49,6.86,19.88,1.94,11.78,3.77,22.91,10.47,22.91s8.53-11.13,10.47-22.91c1.38-8.39,3.27-19.88,6.86-19.88,2.74,0,4.46,5.39,5.99,10.14,1.92,5.99,3.91,12.19,9.03,12.36l12.92-.02c-11.09,22.97-39.54,41.48-45.27,45.04ZM40.3,28.66c.35-13.74,11.09-24.5,24.46-24.5,8.61,0,17.97,4.36,23.85,11.11.7.81,2.09.81,2.79,0,5.87-6.75,15.24-11.11,23.85-11.11,13.36,0,24.1,10.76,24.45,24.5.13,5.07-.93,10.07-2.81,14.9l-14.47.03c-2.45-.08-4.11-5.24-5.57-9.79-2-6.25-4.07-12.71-9.51-12.71-6.73,0-8.57,11.16-10.51,22.98-1.38,8.36-3.26,19.81-6.82,19.81s-5.44-11.45-6.82-19.81c-1.95-11.82-3.78-22.98-10.51-22.98-5.44,0-7.51,6.46-9.51,12.71-1.46,4.55-3.11,9.71-5.5,9.79l-14.54-.02c-1.88-4.83-2.94-9.83-2.81-14.9Z"/>
  <path class="cls-1" d="M51.49,176.06c-.28-.2-28.45-19.73-37.04-27.06-7.35-6.28-10.49-15.47-10.49-30.75V30.28c9.98.6,13.12,3.25,16.24,17.19,2.5,11.18,8.1,39.17,8.15,39.45.2,1,1.17,1.65,2.18,1.45,1-.2,1.65-1.17,1.45-2.18-.06-.28-5.66-28.31-8.17-39.53-3.74-16.74-8.68-19.72-21.64-20.17-.49-.01-.99.17-1.35.52-.36.35-.56.83-.56,1.33v89.91c0,16.25,3.64,26.6,11.79,33.56,8.73,7.45,36.17,26.48,37.34,27.29.32.22.69.33,1.05.33.59,0,1.16-.28,1.52-.8.58-.84.37-1.99-.47-2.57Z"/>
  <path class="cls-1" d="M162.5,106.11c-2.73-4.82-11.34-10.17-21.13-6.36-6.7,2.61-17.72,9.38-28.37,15.94-1.97,1.21-3.95,2.43-5.89,3.62-8.58,5.24-14.36,14.39-17.12,26.83-2.75-12.43-8.53-21.58-17.12-26.83-1.94-1.19-3.91-2.4-5.88-3.61-10.65-6.56-21.67-13.34-28.38-15.94-9.79-3.8-18.39,1.55-21.12,6.36-1.6,2.82-1.36,5.53.63,7.08,6.86,5.34,35.3,32.08,35.59,32.35.74.7,1.91.66,2.62-.08.7-.74.66-1.92-.08-2.62-1.17-1.1-28.86-27.13-35.85-32.58-.52-.4-.15-1.51.31-2.33,2.1-3.69,8.81-7.75,16.56-4.74,6.39,2.48,17.26,9.17,27.78,15.65,1.97,1.22,3.95,2.43,5.9,3.62,10.96,6.69,16.91,20.74,17.2,40.58v15.58c0,1.02.83,1.85,1.85,1.85s1.85-.83,1.85-1.85v-15.55c.29-19.87,6.23-33.91,17.2-40.6,1.95-1.19,3.92-2.41,5.9-3.62,10.51-6.47,21.38-13.16,27.77-15.64,7.75-3.02,14.47,1.04,16.57,4.74.47.82.83,1.93.31,2.33-7,5.45-34.68,31.47-35.85,32.58-.74.7-.78,1.87-.08,2.62.7.75,1.87.78,2.62.08.29-.27,28.73-27.01,35.59-32.35,1.99-1.55,2.23-4.26.63-7.08Z"/>
  <path class="cls-1" d="M179.18,27.01c-.36-.35-.85-.53-1.35-.52-12.95.46-17.9,3.44-21.64,20.17-2.51,11.22-8.11,39.25-8.17,39.53-.2,1,.45,1.98,1.45,2.18,1.01.2,1.98-.45,2.18-1.45.06-.28,5.66-28.27,8.15-39.45,3.12-13.94,6.26-16.59,16.24-17.19v87.97c0,15.28-3.14,24.47-10.49,30.75-8.59,7.33-36.76,26.87-37.04,27.06-.84.58-1.05,1.73-.47,2.57.36.52.94.8,1.52.8.36,0,.73-.11,1.05-.33,1.16-.81,28.61-19.84,37.34-27.29,8.15-6.96,11.79-17.31,11.79-33.56V28.34c0-.5-.2-.98-.57-1.33Z"/>
</svg>