<?xml version="1.0" encoding="UTF-8"?>
<svg id="Human_Resources" data-name="Human Resources" xmlns="http://www.w3.org/2000/svg" viewBox="0 0 180 180">
  <defs>
    <style>
      .cls-1 {
        stroke: #000;
        stroke-miterlimit: 10;
        stroke-width: 2px;
      }
    </style>
  </defs>
  <path class="cls-1" d="M86.56,18.36c1,0,1.81-.81,1.81-1.81V4.08h12.47c1,0,1.81-.81,1.81-1.81s-.81-1.81-1.81-1.81h-14.27c-1,0-1.81.81-1.81,1.81v14.27c0,1,.81,1.81,1.81,1.81Z"/>
  <path class="cls-1" d="M178.19.46h-14.27c-1,0-1.81.81-1.81,1.81s.81,1.81,1.81,1.81h12.47v12.47c0,1,.81,1.81,1.81,1.81s1.81-.81,1.81-1.81V2.27c0-1-.81-1.81-1.81-1.81Z"/>
  <path class="cls-1" d="M178.19,75.01c-1,0-1.81.81-1.81,1.81v12.47h-12.47c-1,0-1.81.81-1.81,1.81s.81,1.81,1.81,1.81h14.27c1,0,1.81-.81,1.81-1.81v-14.27c0-1-.81-1.81-1.81-1.81Z"/>
  <path class="cls-1" d="M102.65,91.1c0-1-.81-1.81-1.81-1.81h-12.47v-12.47c0-1-.81-1.81-1.81-1.81s-1.81.81-1.81,1.81v14.27c0,1,.81,1.81,1.81,1.81h14.27c1,0,1.81-.81,1.81-1.81Z"/>
  <path class="cls-1" d="M100.5,74.58c0,1,.81,1.81,1.81,1.81h60.14c1,0,1.81-.81,1.81-1.81v-14.86c0-6.95-3.05-11.75-9.33-14.67h0c-1.48-.69-4.77-2.21-8.37-3.86,2.79-3.26,4.48-7.49,4.48-12.11,0-10.29-8.38-18.67-18.67-18.67s-18.67,8.38-18.67,18.67c0,4.62,1.7,8.84,4.48,12.11-3.59,1.65-6.89,3.18-8.36,3.86-6.28,2.93-9.33,7.72-9.33,14.67v14.86ZM132.38,14.03c8.3,0,15.05,6.75,15.05,15.05s-6.75,15.05-15.05,15.05-15.05-6.75-15.05-15.05,6.75-15.05,15.05-15.05ZM104.12,59.72c0-7.11,3.87-9.82,7.24-11.39,1.65-.77,5.59-2.59,9.67-4.46,3.15,2.43,7.08,3.88,11.36,3.88s8.21-1.46,11.36-3.88c4.08,1.88,8.02,3.69,9.67,4.46h0c3.37,1.57,7.24,4.28,7.24,11.39v13.05h-10.04v-6.74c0-1-.81-1.81-1.81-1.81s-1.81.81-1.81,1.81v6.74h-29.2v-6.74c0-1-.81-1.81-1.81-1.81s-1.81.81-1.81,1.81v6.74h-10.04v-13.05Z"/>
  <path class="cls-1" d="M154.93,149.12h0c-1.48-.69-4.77-2.21-8.36-3.86,2.79-3.26,4.48-7.49,4.48-12.11,0-10.29-8.38-18.67-18.67-18.67s-18.67,8.38-18.67,18.67c0,4.62,1.7,8.84,4.48,12.11-3.59,1.65-6.89,3.18-8.37,3.86-6.28,2.93-9.33,7.72-9.33,14.67v14.86c0,1,.81,1.81,1.81,1.81h60.14c1,0,1.81-.81,1.81-1.81v-14.86c0-6.95-3.05-11.75-9.33-14.67ZM132.38,118.1c8.3,0,15.05,6.75,15.05,15.05s-6.75,15.05-15.05,15.05-15.05-6.75-15.05-15.05,6.75-15.05,15.05-15.05ZM160.64,176.84h-10.04v-6.75c0-1-.81-1.81-1.81-1.81s-1.81.81-1.81,1.81v6.75h-29.2v-6.75c0-1-.81-1.81-1.81-1.81s-1.81.81-1.81,1.81v6.75h-10.04v-13.05c0-7.11,3.87-9.82,7.24-11.39,1.65-.77,5.59-2.58,9.67-4.46,3.15,2.43,7.08,3.88,11.36,3.88s8.21-1.46,11.36-3.88c4.08,1.88,8.02,3.69,9.67,4.46,3.37,1.57,7.24,4.29,7.24,11.39v13.05Z"/>
  <path class="cls-1" d="M54.43,45.05c-3.23-1.51-5.99-2.79-8.35-3.88,2.78-3.26,4.47-7.48,4.47-12.09,0-10.29-8.38-18.67-18.67-18.67S13.21,18.79,13.21,29.08c0,4.62,1.7,8.84,4.48,12.11-3.59,1.65-6.89,3.18-8.36,3.86C3.05,47.97,0,52.77,0,59.72v14.86c0,1,.81,1.81,1.81,1.81h60.14c1,0,1.81-.81,1.81-1.81v-14.86c0-6.95-3.05-11.75-9.33-14.67ZM31.88,14.03c8.3,0,15.05,6.75,15.05,15.05s-6.75,15.05-15.05,15.05-15.05-6.75-15.05-15.05,6.75-15.05,15.05-15.05ZM60.14,72.77h-10.04v-6.74c0-1-.81-1.81-1.81-1.81s-1.81.81-1.81,1.81v6.74h-29.2v-6.74c0-1-.81-1.81-1.81-1.81s-1.81.81-1.81,1.81v6.74H3.62v-13.05c0-7.11,3.87-9.82,7.24-11.39,1.66-.77,5.59-2.59,9.67-4.46,3.15,2.43,7.08,3.88,11.36,3.88s8.21-1.46,11.36-3.88c4.08,1.88,8.02,3.69,9.67,4.46h0c3.37,1.57,7.24,4.28,7.24,11.39v13.05Z"/>
  <path class="cls-1" d="M54.43,149.12c-3.23-1.51-5.99-2.79-8.35-3.88,2.78-3.26,4.47-7.48,4.47-12.09,0-10.29-8.38-18.67-18.67-18.67s-18.67,8.38-18.67,18.67c0,4.62,1.7,8.84,4.48,12.11-3.59,1.65-6.89,3.18-8.37,3.86C3.05,152.05,0,156.84,0,163.79v14.86c0,1,.81,1.81,1.81,1.81h60.14c1,0,1.81-.81,1.81-1.81v-14.86c0-6.95-3.05-11.75-9.33-14.67ZM31.88,118.1c8.3,0,15.05,6.75,15.05,15.05s-6.75,15.05-15.05,15.05-15.05-6.75-15.05-15.05,6.75-15.05,15.05-15.05ZM60.14,176.84h-10.04v-6.75c0-1-.81-1.81-1.81-1.81s-1.81.81-1.81,1.81v6.75h-29.2v-6.75c0-1-.81-1.81-1.81-1.81s-1.81.81-1.81,1.81v6.75H3.62v-13.05c0-7.11,3.87-9.82,7.24-11.39,1.68-.78,5.6-2.59,9.67-4.46,3.15,2.43,7.08,3.88,11.36,3.88s8.21-1.46,11.36-3.88c4.08,1.88,8.02,3.69,9.67,4.46,3.37,1.57,7.24,4.28,7.24,11.39v13.05Z"/>
</svg>