<?xml version="1.0" encoding="UTF-8"?>
<svg id="Human_Resources" data-name="Human Resources" xmlns="http://www.w3.org/2000/svg" viewBox="0 0 180 180">
  <defs>
    <style>
      .cls-1 {
        stroke: #000;
        stroke-miterlimit: 10;
        stroke-width: 2px;
      }
    </style>
  </defs>
  <path class="cls-1" d="M164.05,62.38h-23.82V18.76c0-10.09-8.21-18.3-18.3-18.3H18.3C8.21.46,0,8.67,0,18.76v75.39C0,104.25,8.21,112.46,18.3,112.46h.15l13.39,24.17c.31.56.9.91,1.54.91s1.23-.35,1.54-.91l13.39-24.17h10.89v30.55c0,8.79,7.16,15.95,15.95,15.95h63l11.41,20.6c.31.56.9.91,1.54.91s1.23-.35,1.54-.91l11.41-20.6c8.79,0,15.93-7.16,15.93-15.95v-64.67c0-8.79-7.16-15.95-15.95-15.95ZM47.28,108.93c-.64,0-1.23.35-1.54.91l-12.35,22.29-12.35-22.29c-.31-.56-.9-.91-1.54-.91h-1.19c-8.15,0-14.77-6.63-14.77-14.77V18.76c0-8.14,6.63-14.77,14.77-14.77h103.63c8.14,0,14.77,6.63,14.77,14.77v75.39c0,8.14-6.63,14.77-14.77,14.77H47.28ZM176.47,143c0,6.85-5.57,12.42-12.42,12.42h-1.02c-.64,0-1.23.35-1.54.91l-10.37,18.72-10.37-18.72c-.31-.56-.9-.91-1.54-.91h-64.04c-6.85,0-12.42-5.57-12.42-12.42v-30.55h59.2c10.09,0,18.3-8.21,18.3-18.3v-28.25h23.82c6.85,0,12.42,5.57,12.42,12.42v64.67Z"/>
  <path class="cls-1" d="M34,39.95h10.17c.97,0,1.76-.79,1.76-1.76s-.79-1.76-1.76-1.76h-10.17c-.97,0-1.76.79-1.76,1.76s.79,1.76,1.76,1.76Z"/>
  <path class="cls-1" d="M106.23,36.42h-47.48c-.97,0-1.76.79-1.76,1.76s.79,1.76,1.76,1.76h47.48c.97,0,1.76-.79,1.76-1.76s-.79-1.76-1.76-1.76Z"/>
  <path class="cls-1" d="M106.23,54.69h-10.17c-.97,0-1.76.79-1.76,1.76s.79,1.76,1.76,1.76h10.17c.97,0,1.76-.79,1.76-1.76s-.79-1.76-1.76-1.76Z"/>
  <path class="cls-1" d="M83.25,56.46c0-.97-.79-1.76-1.76-1.76h-47.48c-.97,0-1.76.79-1.76,1.76s.79,1.76,1.76,1.76h47.48c.97,0,1.76-.79,1.76-1.76Z"/>
  <path class="cls-1" d="M44.18,72.97h-10.17c-.97,0-1.76.79-1.76,1.76s.79,1.76,1.76,1.76h10.17c.97,0,1.76-.79,1.76-1.76s-.79-1.76-1.76-1.76Z"/>
  <path class="cls-1" d="M106.23,72.97h-47.48c-.97,0-1.76.79-1.76,1.76s.79,1.76,1.76,1.76h47.48c.97,0,1.76-.79,1.76-1.76s-.79-1.76-1.76-1.76Z"/>
</svg>