<?xml version="1.0" encoding="UTF-8"?>
<svg id="Human_Resources" data-name="Human Resources" xmlns="http://www.w3.org/2000/svg" viewBox="0 0 180 180">
  <defs>
    <style>
      .cls-1 {
        stroke: #000;
        stroke-miterlimit: 10;
        stroke-width: 2px;
      }
    </style>
  </defs>
  <path class="cls-1" d="M62.33,40.61c-1.73-.81-5.66-2.62-9.89-4.57,3.29-3.75,5.3-8.65,5.3-14.02C57.73,10.3,48.2.76,36.47.76S15.21,10.3,15.21,22.02c0,5.37,2,10.27,5.3,14.02-4.24,1.95-8.16,3.76-9.89,4.57C3.47,43.94,0,49.39,0,57.29v17.11c0,1.02.83,1.86,1.86,1.86h69.22c1.02,0,1.86-.83,1.86-1.86v-17.11c0-7.9-3.47-13.36-10.6-16.68ZM36.47,4.47c9.68,0,17.55,7.87,17.55,17.55s-7.87,17.55-17.55,17.55-17.55-7.87-17.55-17.55S26.79,4.47,36.47,4.47ZM69.23,72.55h-12.01v-7.99c0-1.02-.83-1.86-1.86-1.86s-1.86.83-1.86,1.86v7.99H19.44v-7.99c0-1.02-.83-1.86-1.86-1.86s-1.86.83-1.86,1.86v7.99H3.72v-15.25c0-8.31,4.52-11.48,8.46-13.32,1.91-.89,6.5-3.01,11.24-5.19,3.61,2.82,8.14,4.5,13.06,4.5s9.45-1.68,13.06-4.5c4.73,2.18,9.32,4.29,11.24,5.19,3.94,1.84,8.46,5.01,8.46,13.32v15.25Z"/>
  <path class="cls-1" d="M169.39,40.61c-1.73-.81-5.66-2.62-9.89-4.57,3.29-3.75,5.3-8.65,5.3-14.02,0-11.72-9.54-21.26-21.26-21.26s-21.26,9.54-21.26,21.26c0,5.37,2,10.27,5.3,14.02-4.24,1.95-8.16,3.76-9.89,4.57-7.14,3.33-10.6,8.78-10.6,16.68v17.11c0,1.02.83,1.86,1.86,1.86h69.22c1.02,0,1.86-.83,1.86-1.86v-17.11c0-7.9-3.47-13.36-10.6-16.68ZM143.53,4.47c9.68,0,17.55,7.87,17.55,17.55s-7.87,17.55-17.55,17.55-17.55-7.87-17.55-17.55,7.87-17.55,17.55-17.55ZM176.28,72.55h-12.01v-7.99c0-1.02-.83-1.86-1.86-1.86s-1.86.83-1.86,1.86v7.99h-34.06v-7.99c0-1.02-.83-1.86-1.86-1.86s-1.86.83-1.86,1.86v7.99h-12.01v-15.25c0-8.31,4.52-11.48,8.46-13.32,1.91-.89,6.5-3.01,11.24-5.19,3.61,2.82,8.14,4.5,13.06,4.5s9.45-1.68,13.06-4.5c4.73,2.18,9.32,4.29,11.24,5.19,3.94,1.84,8.46,5.01,8.46,13.32v15.25Z"/>
  <path class="cls-1" d="M70.74,107.92H2.2c-1.02,0-1.86.83-1.86,1.86v68.54c0,1.02.83,1.86,1.86,1.86h68.54c1.02,0,1.86-.83,1.86-1.86v-68.54c0-1.02-.83-1.86-1.86-1.86ZM68.88,176.45H4.06v-64.82h64.82v64.82Z"/>
  <path class="cls-1" d="M34.91,158.16c.34.53.93.85,1.56.85s1.22-.32,1.56-.85l16.83-26.24c.55-.86.3-2.01-.56-2.56-.86-.55-2.01-.3-2.56.56l-15.27,23.8-15.27-23.8c-.55-.86-1.7-1.12-2.56-.56-.86.55-1.11,1.7-.56,2.56l16.83,26.24Z"/>
  <path class="cls-1" d="M177.8,107.92h-68.54c-1.02,0-1.86.83-1.86,1.86v68.54c0,1.02.83,1.86,1.86,1.86h68.54c1.02,0,1.86-.83,1.86-1.86v-68.54c0-1.02-.83-1.86-1.86-1.86ZM175.94,176.45h-64.82v-64.82h64.82v64.82Z"/>
  <path class="cls-1" d="M129.31,160.14c.35.31.79.46,1.23.46.51,0,1.02-.21,1.39-.63l11.6-13.13,11.6,13.13c.37.41.88.63,1.39.63.44,0,.87-.15,1.23-.46.77-.68.84-1.85.16-2.62l-11.9-13.48,11.9-13.48c.68-.77.61-1.94-.16-2.62-.77-.68-1.94-.61-2.62.16l-11.6,13.13-11.6-13.13c-.68-.77-1.85-.84-2.62-.16-.77.68-.84,1.85-.16,2.62l11.9,13.48-11.9,13.48c-.68.77-.61,1.94.16,2.62Z"/>
</svg>