<?xml version="1.0" encoding="UTF-8"?>
<svg id="Human_Resources" data-name="Human Resources" xmlns="http://www.w3.org/2000/svg" viewBox="0 0 180 180">
  <defs>
    <style>
      .cls-1 {
        stroke: #000;
        stroke-miterlimit: 10;
        stroke-width: 2px;
      }
    </style>
  </defs>
  <path class="cls-1" d="M161.03,142.51v-19.31c9.7-.85,17.33-9.02,17.33-18.94s-7.63-18.08-17.33-18.94v-42.14c0-.93-.75-1.68-1.68-1.68h-26.74c-4.32-13.76-16.74-17.42-23.03-18.38.14-.94.21-1.89.21-2.87,0-10.91-8.88-19.78-19.78-19.78s-19.78,8.88-19.78,19.78c0,.97.07,1.93.21,2.87-6.29.96-18.72,4.62-23.03,18.38h-26.74c-.93,0-1.68.75-1.68,1.68v42.14c-9.7.85-17.34,9.02-17.34,18.94s7.63,18.08,17.34,18.94v19.31c-9.7.85-17.34,9.02-17.34,18.94,0,10.49,8.53,19.02,19.02,19.02s19.02-8.53,19.02-19.02c0-9.92-7.63-18.08-17.34-18.94v-19.31c9.7-.85,17.34-9.02,17.34-18.94s-7.63-18.08-17.34-18.94v-40.46h24.22c-.57,2.94-.82,6.26-.61,10.04.44,8.09.59,8.86,1.12,11.74l.23,1.24c.99,5.5,4.51,8.65,9.66,8.65h.01c7.78,0,8.74-5.3,9.26-8.14.63-3.44,1.37-8.4,1.37-8.44,0-.04,0-.07.01-.11.02-.27.63-6.73,8.17-6.57h28.49c7.3-.14,8.07,5.89,8.13,6.57,0,.04,0,.07.01.11,0,.05.75,5.01,1.37,8.44.52,2.84,1.48,8.14,9.26,8.14h.01c5.15,0,8.67-3.15,9.66-8.65l.23-1.25c.53-2.88.67-3.65,1.12-11.73.21-3.78-.04-7.1-.61-10.04h24.22v40.46c-9.7.85-17.34,9.02-17.34,18.94s7.63,18.08,17.34,18.94v19.31c-9.7.85-17.34,9.02-17.34,18.94,0,10.49,8.53,19.02,19.02,19.02s19.02-8.53,19.02-19.02c0-9.92-7.63-18.08-17.33-18.94ZM36.3,161.45c0,8.63-7.02,15.65-15.65,15.65s-15.65-7.02-15.65-15.65,7.02-15.65,15.65-15.65,15.65,7.02,15.65,15.65ZM36.3,104.25c0,8.63-7.02,15.65-15.65,15.65s-15.65-7.02-15.65-15.65,7.02-15.65,15.65-15.65,15.65,7.02,15.65,15.65ZM90,3.83c9.05,0,16.42,7.37,16.42,16.42s-7.37,16.42-16.42,16.42-16.42-7.37-16.42-16.42,7.37-16.42,16.42-16.42ZM130.7,54.72c-.43,7.87-.57,8.6-1.07,11.31l-.23,1.26c-1.06,5.89-5.07,5.89-6.36,5.88-4.64,0-5.34-2.04-5.95-5.38-.58-3.2-1.27-7.75-1.35-8.29-.31-3.43-3.13-9.79-11.51-9.61h-28.42c-8.43-.18-11.24,6.17-11.55,9.61-.08.54-.77,5.09-1.35,8.29-.61,3.35-1.31,5.38-5.95,5.38-1.32,0-5.3,0-6.36-5.88l-.23-1.26c-.5-2.71-.63-3.44-1.07-11.31-1.21-22.18,13.92-27.21,21.89-28.32,2.59,7.91,10.04,13.64,18.8,13.64s16.21-5.73,18.8-13.64c7.98,1.11,23.11,6.15,21.89,28.32ZM143.7,104.25c0-8.63,7.02-15.65,15.65-15.65s15.65,7.02,15.65,15.65-7.02,15.65-15.65,15.65-15.65-7.02-15.65-15.65ZM159.35,177.1c-8.63,0-15.65-7.02-15.65-15.65s7.02-15.65,15.65-15.65,15.65,7.02,15.65,15.65-7.02,15.65-15.65,15.65Z"/>
  <path class="cls-1" d="M132.44,129.83h-16.92c-13.14,0-23.84-10.69-23.84-23.84v-29.38c0-.93-.75-1.68-1.68-1.68s-1.68.75-1.68,1.68v29.38c0,13.14-10.69,23.84-23.84,23.84h-16.92c-.93,0-1.68.75-1.68,1.68s.75,1.68,1.68,1.68h16.92c11.69,0,21.68-7.41,25.52-17.78,3.84,10.37,13.83,17.78,25.52,17.78h16.92c.93,0,1.68-.75,1.68-1.68s-.75-1.68-1.68-1.68Z"/>
</svg>