<?xml version="1.0" encoding="UTF-8"?>
<svg id="Human_Resources" data-name="Human Resources" xmlns="http://www.w3.org/2000/svg" viewBox="0 0 180 180">
  <defs>
    <style>
      .cls-1 {
        stroke: #000;
        stroke-miterlimit: 10;
        stroke-width: 2px;
      }
    </style>
  </defs>
  <path class="cls-1" d="M43.8,48.15c.34.34.8.52,1.25.52s.9-.17,1.25-.52c.69-.69.69-1.81,0-2.5l-21.3-21.3c-.69-.69-1.81-.69-2.5,0-.69.69-.69,1.81,0,2.5l21.3,21.3Z"/>
  <path class="cls-1" d="M13.54,58.12l20.66,7.89c.21.08.42.12.63.12.71,0,1.38-.43,1.65-1.14.35-.91-.11-1.93-1.02-2.28l-20.66-7.89c-.91-.35-1.93.11-2.28,1.02-.35.91.11,1.93,1.02,2.28Z"/>
  <path class="cls-1" d="M60.86,37.31c.27.7.94,1.14,1.65,1.14.21,0,.42-.04.63-.12.91-.35,1.37-1.37,1.02-2.28l-7.89-20.66c-.35-.91-1.37-1.37-2.28-1.02-.91.35-1.37,1.37-1.02,2.28l7.89,20.66Z"/>
  <path class="cls-1" d="M146.68,146.57c-.69-.69-1.81-.69-2.5,0-.69.69-.69,1.81,0,2.5l21.3,21.3c.34.34.8.52,1.25.52s.9-.17,1.25-.52c.69-.69.69-1.81,0-2.5l-21.3-21.3Z"/>
  <path class="cls-1" d="M176.93,136.6l-20.66-7.89c-.91-.35-1.93.11-2.28,1.02-.35.91.11,1.93,1.02,2.28l20.66,7.89c.21.08.42.12.63.12.71,0,1.38-.43,1.65-1.14.35-.91-.11-1.93-1.02-2.28Z"/>
  <path class="cls-1" d="M129.62,157.41c-.35-.91-1.37-1.37-2.28-1.02-.91.35-1.37,1.37-1.02,2.28l7.89,20.66c.27.7.94,1.14,1.65,1.14.21,0,.42-.04.63-.12.91-.35,1.37-1.37,1.02-2.28l-7.89-20.66Z"/>
  <path class="cls-1" d="M51.66,101.1c-.3,3.3-.66,6.25-1.09,8.1-.49,2.09.41,3.28,1,3.79.73.65,1.71.97,2.88.97.91,0,1.93-.2,3.03-.6,4.81-1.74,13.54-8.67,15.77-23.55.72-4.78,8.25-6.18,16.97-7.81,10.88-2.04,24.42-4.57,30.28-15.4.46-.86.14-1.93-.71-2.39-.86-.46-1.93-.14-2.39.71-5.05,9.35-17.15,11.61-27.82,13.61-10.05,1.88-18.72,3.5-19.81,10.76-1.75,11.69-8,18.35-12.83,20.49-1.73.77-2.7.68-2.97.59,0-.07,0-.19.05-.37,1.52-6.49,2.16-24.65,2.28-28.14l18.63-25.05c20.98-6.22,39.44-19.37,40.23-19.93.16-.12.3-.26.41-.42L138.87,3.24c.56-.8.37-1.9-.43-2.46-.8-.56-1.9-.37-2.46.43l-23.15,32.97c-2.26,1.58-20.1,13.79-39.48,19.41-.37.11-.69.33-.92.64l-19.31,25.96c-.22.29-.34.64-.35,1,0,.13-.23,7.79-.75,15.34-1.68,1.16-6.11,4.28-14.6,10.32C15.76,122.26,3.36,125.75,3.24,125.78c-.94.25-1.5,1.22-1.25,2.16.21.79.92,1.31,1.7,1.31.15,0,.31-.02.46-.06.52-.14,13.05-3.62,35.3-19.45,6.33-4.5,10.03-7.12,12.2-8.64Z"/>
  <path class="cls-1" d="M152.16,67.83c-.7-.55-1.48-.98-2.32-1.33.83-2.89,1.5-5.17,1.99-6.61,3.51-10.41,24.35-24.75,24.56-24.9.8-.55,1.01-1.65.46-2.45-.55-.8-1.65-1.01-2.45-.46-.9.61-22.03,15.16-25.92,26.68-.51,1.51-1.21,3.87-2.06,6.84-7-1-15.6,1.99-16.82,2.43-.92.33-1.39,1.34-1.06,2.26.33.92,1.34,1.39,2.26,1.06,3.83-1.39,14.74-4.23,19.17-.75,1.62,1.28,2.25,3.37,1.92,6.39-2.65,23.98-8.71,46.17-34.87,46.23-.97,0-1.76.79-1.76,1.77,0,.97.79,1.76,1.76,1.76h0c3.79,0,7.18-.48,10.24-1.29-1.84,4.03-3.57,6.87-5.05,7.8-9.66,6.1-48.08,17.32-53.32,11.77-1.91-2.02-1.95-6.1-.09-10.15,3.81-8.31,15.37-16.86,36.38-15.89.97.03,1.8-.71,1.84-1.68.04-.97-.71-1.8-1.68-1.84-22.76-1.03-35.46,8.59-39.75,17.94-1.11,2.43-1.67,4.87-1.68,7.11-15.36,6.28-39.05,32.39-40.08,33.53-.65.72-.6,1.84.13,2.49.34.31.76.45,1.18.45.48,0,.96-.2,1.31-.58.24-.27,23.35-25.73,37.98-32.27.4,1.27,1.03,2.4,1.9,3.32,1.69,1.79,4.95,2.52,9.11,2.52,15.22,0,42.47-9.82,48.67-13.73,2.37-1.49,4.95-5.95,7.65-12.33,19.41-8.38,22.19-33.33,23.65-46.53.47-4.28-.62-7.49-3.24-9.55Z"/>
</svg>