<?xml version="1.0" encoding="UTF-8"?>
<svg id="Human_Resources" data-name="Human Resources" xmlns="http://www.w3.org/2000/svg" viewBox="0 0 180 180">
  <defs>
    <style>
      .cls-1 {
        stroke: #000;
        stroke-miterlimit: 10;
        stroke-width: 2px;
      }
    </style>
  </defs>
  <path class="cls-1" d="M57.41,149.9h0c-3.19-1.49-5.9-2.75-8.22-3.82,2.73-3.19,4.4-7.32,4.4-11.84,0-10.04-8.17-18.21-18.21-18.21s-18.21,8.17-18.21,18.21c0,4.53,1.67,8.67,4.42,11.86-3.54,1.63-6.79,3.13-8.24,3.8-6.12,2.85-9.09,7.53-9.09,14.3v14.54c0,.95.77,1.72,1.72,1.72h58.81c.95,0,1.72-.77,1.72-1.72v-14.54c0-6.77-2.97-11.45-9.09-14.3ZM35.37,119.47c8.14,0,14.77,6.62,14.77,14.76s-6.62,14.77-14.77,14.77-14.77-6.62-14.77-14.77,6.62-14.76,14.77-14.76ZM63.05,177.01h-9.91v-6.64c0-.95-.77-1.72-1.72-1.72s-1.72.77-1.72,1.72v6.64h-28.64v-6.64c0-.95-.77-1.72-1.72-1.72s-1.72.77-1.72,1.72v6.64H7.69v-12.81c0-6.98,3.8-9.64,7.1-11.18,1.63-.76,5.49-2.54,9.48-4.38,3.08,2.38,6.92,3.81,11.1,3.81s8.02-1.43,11.1-3.81c4,1.84,7.86,3.62,9.48,4.38h0c3.31,1.54,7.1,4.2,7.1,11.18v12.81Z"/>
  <path class="cls-1" d="M166.66,34.33c-1.45-.68-4.7-2.18-8.24-3.8,2.74-3.19,4.42-7.33,4.42-11.85,0-10.04-8.17-18.21-18.21-18.21s-18.21,8.17-18.21,18.21c0,4.53,1.67,8.67,4.42,11.85-3.54,1.63-6.79,3.13-8.24,3.8-6.12,2.85-9.09,7.53-9.09,14.31v14.53c0,.95.77,1.72,1.72,1.72h58.81c.95,0,1.72-.77,1.72-1.72v-14.53c0-6.77-2.98-11.45-9.09-14.31ZM144.63,3.91c8.14,0,14.77,6.62,14.77,14.77s-6.62,14.77-14.77,14.77-14.77-6.62-14.77-14.77,6.62-14.77,14.77-14.77ZM172.31,61.45h-9.91v-6.64c0-.95-.77-1.72-1.72-1.72s-1.72.77-1.72,1.72v6.64h-28.64v-6.64c0-.95-.77-1.72-1.72-1.72s-1.72.77-1.72,1.72v6.64h-9.91v-12.81c0-6.98,3.8-9.64,7.1-11.18,1.62-.75,5.48-2.53,9.48-4.38,3.08,2.38,6.92,3.81,11.1,3.81s8.02-1.43,11.1-3.81c4,1.84,7.86,3.62,9.48,4.38h0c3.31,1.54,7.1,4.21,7.1,11.18v12.81Z"/>
  <path class="cls-1" d="M28.5,103.59c20.07,0,28.12-12.43,35.9-24.45,7.41-11.45,14.41-22.26,31.63-22.26.95,0,1.72-.77,1.72-1.72s-.77-1.72-1.72-1.72c-19.09,0-26.94,12.12-34.52,23.84-7.62,11.77-14.81,22.88-33.01,22.88-11.86,0-20.81-8.65-20.81-20.11s9.16-19.83,20.84-20.11c8.23-.13,17.27,4.06,27.56,12.86.72.62,1.81.53,2.43-.19.62-.72.53-1.81-.19-2.43-10.77-9.21-20.38-13.69-29.4-13.69-.16,0-.32,0-.48,0-13.58.33-24.21,10.67-24.21,23.56s10.65,23.56,24.25,23.56Z"/>
  <path class="cls-1" d="M110.37,134.98c.34.39.82.58,1.29.58.41,0,.81-.14,1.14-.43.71-.63.78-1.72.15-2.43-6.11-6.91-12.42-14.77-18.52-22.36-7.69-9.56-15.64-19.45-23.54-27.95-.65-.7-1.74-.74-2.44-.09-.7.65-.74,1.74-.09,2.44,7.82,8.42,15.73,18.25,23.38,27.77,6.13,7.62,12.47,15.51,18.63,22.48Z"/>
  <path class="cls-1" d="M151.5,115.61c-20.07,0-28.12,12.43-35.9,24.45-7.41,11.45-14.41,22.26-31.63,22.26-.95,0-1.72.77-1.72,1.72s.77,1.72,1.72,1.72c19.09,0,26.94-12.12,34.52-23.84,7.62-11.77,14.81-22.88,33.01-22.88,11.86,0,20.81,8.65,20.81,20.11s-9.16,19.83-20.81,20.11h-.02c-7.67,0-16.36-4.63-26.59-14.15-.7-.65-1.79-.61-2.44.09-.65.7-.61,1.79.09,2.44,11.04,10.28,20.23,15.07,28.97,15.07h.03c13.58-.33,24.21-10.67,24.21-23.56s-10.65-23.56-24.25-23.56Z"/>
</svg>