<?xml version="1.0" encoding="UTF-8"?>
<svg id="Human_Resources" data-name="Human Resources" xmlns="http://www.w3.org/2000/svg" viewBox="0 0 180 180">
  <defs>
    <style>
      .cls-1 {
        stroke: #000;
        stroke-miterlimit: 10;
        stroke-width: 2px;
      }
    </style>
  </defs>
  <path class="cls-1" d="M125.87,109.1c.02-.18,1.84-18.49,2.85-31.68,1.03-13.37-3.72-15.99-10.3-19.62-.57-.31-8.89-4.99-13.86-7.75,3.77-3.74,6.11-8.93,6.11-14.65,0-11.39-9.27-20.66-20.66-20.66s-20.66,9.27-20.66,20.66c0,5.72,2.34,10.91,6.11,14.65-4.97,2.76-13.29,7.43-13.86,7.74-6.58,3.63-11.33,6.25-10.3,19.62,1.01,13.19,2.83,31.49,2.85,31.68.05.54.35,1.02.8,1.31l12.76,8.17v37.43c0,3.92,3.18,7.1,7.1,7.1h30.37c3.92,0,7.1-3.19,7.1-7.1v-37.43l12.76-8.17c.45-.29.75-.77.8-1.31ZM72.89,35.4c0-9.45,7.68-17.13,17.13-17.13s17.13,7.68,17.13,17.13-7.68,17.13-17.13,17.13-17.13-7.68-17.13-17.13ZM90.02,56.06c1.14,0,2.25-.1,3.34-.27l5.92,28.59-9.26,9.34-9.26-9.34,5.92-28.58c1.09.18,2.2.27,3.34.27ZM109.59,116.13c-.51.32-.81.88-.81,1.49v38.4c0,1.97-1.6,3.57-3.57,3.57h-13.42v-30.2c0-.97-.79-1.76-1.76-1.76s-1.76.79-1.76,1.76v30.2h-13.42c-1.97,0-3.57-1.6-3.57-3.57v-38.4c0-.6-.31-1.16-.81-1.49l-12.85-8.22c-.37-3.76-1.87-19.22-2.76-30.75-.85-11.11,2.07-12.72,8.48-16.26.58-.32,9.57-5.37,15.08-8.42,1.49,1.02,3.12,1.84,4.86,2.45l-6.14,29.67c-.12.58.06,1.18.48,1.6l11.13,11.23c.33.33.78.52,1.25.52h.09c.47,0,.92-.19,1.25-.52l11.13-11.23c.42-.42.6-1.02.47-1.6l-6.14-29.67c1.74-.6,3.37-1.43,4.86-2.45,5.51,3.05,14.5,8.1,15.08,8.42,6.41,3.54,9.34,5.16,8.48,16.26-.89,11.52-2.39,26.98-2.76,30.75l-12.85,8.22Z"/>
  <path class="cls-1" d="M31.74,34.6c-9.39,0-17.04,7.64-17.04,17.04,0,4.45,1.69,8.62,4.72,11.77-3.8,2.11-10.34,5.79-10.8,6.04C3.19,72.44-.73,74.6.12,85.62c.82,10.66,2.29,25.46,2.31,25.61.05.54.35,1.02.8,1.31l10.16,6.5v30.07c0,3.35,2.73,6.08,6.08,6.08h17.42c.97,0,1.76-.79,1.76-1.76s-.79-1.76-1.76-1.76h-17.42c-1.4,0-2.55-1.14-2.55-2.55v-31.03c0-.6-.31-1.16-.81-1.49l-10.25-6.56c-.32-3.3-1.51-15.53-2.22-24.68-.67-8.76,1.63-10.03,6.68-12.82.47-.26,8.24-4.62,12.97-7.24.52-.29.86-.82.9-1.41.04-.59-.21-1.17-.68-1.53-3.36-2.58-5.28-6.49-5.28-10.71,0-7.45,6.06-13.51,13.51-13.51,4.9,0,9.43,2.67,11.82,6.96.47.85,1.55,1.16,2.4.69.85-.47,1.16-1.55.69-2.4-3.01-5.42-8.72-8.78-14.9-8.78Z"/>
  <path class="cls-1" d="M171.39,69.44c-.46-.25-7.01-3.93-10.8-6.04,3.02-3.15,4.72-7.32,4.72-11.77,0-9.39-7.64-17.04-17.04-17.04-6.19,0-11.9,3.36-14.9,8.78-.47.85-.17,1.93.69,2.4.85.47,1.93.17,2.4-.69,2.38-4.3,6.91-6.96,11.82-6.96,7.45,0,13.51,6.06,13.51,13.51,0,4.23-1.93,8.13-5.28,10.71-.47.36-.73.94-.68,1.53.04.59.38,1.12.9,1.41,4.74,2.62,12.5,6.98,12.97,7.24,5.05,2.79,7.36,4.06,6.68,12.82-.7,9.15-1.89,21.38-2.21,24.68l-10.25,6.56c-.51.32-.81.88-.81,1.49v31.03c0,1.4-1.14,2.55-2.55,2.55h-17.42c-.97,0-1.76.79-1.76,1.76s.79,1.76,1.76,1.76h17.42c3.35,0,6.08-2.73,6.08-6.08v-30.07l10.16-6.5c.45-.29.75-.77.8-1.31.01-.15,1.48-14.95,2.3-25.61.85-11.02-3.07-13.19-8.5-16.18Z"/>
  <path class="cls-1" d="M51.37,18.27c.97,0,1.76-.79,1.76-1.76V3.99h12.52c.97,0,1.76-.79,1.76-1.76s-.79-1.76-1.76-1.76h-14.28c-.97,0-1.76.79-1.76,1.76v14.28c0,.97.79,1.76,1.76,1.76Z"/>
  <path class="cls-1" d="M128.63.46h-14.28c-.97,0-1.76.79-1.76,1.76s.79,1.76,1.76,1.76h12.52v12.52c0,.97.79,1.76,1.76,1.76s1.76-.79,1.76-1.76V2.23c0-.97-.79-1.76-1.76-1.76Z"/>
  <path class="cls-1" d="M128.63,162.65c-.97,0-1.76.79-1.76,1.76v12.52h-12.52c-.97,0-1.76.79-1.76,1.76s.79,1.76,1.76,1.76h14.28c.97,0,1.76-.79,1.76-1.76v-14.28c0-.97-.79-1.76-1.76-1.76Z"/>
  <path class="cls-1" d="M65.65,176.93h-12.52v-12.52c0-.97-.79-1.76-1.76-1.76s-1.76.79-1.76,1.76v14.28c0,.97.79,1.76,1.76,1.76h14.28c.97,0,1.76-.79,1.76-1.76s-.79-1.76-1.76-1.76Z"/>
</svg>