<?xml version="1.0" encoding="UTF-8"?>
<svg id="Human_Resources" data-name="Human Resources" xmlns="http://www.w3.org/2000/svg" viewBox="0 0 180 180">
  <defs>
    <style>
      .cls-1 {
        stroke: #000;
        stroke-miterlimit: 10;
        stroke-width: 2px;
      }
    </style>
  </defs>
  <path class="cls-1" d="M162.86,52.77c-.69-.38-12.07-6.76-17.31-9.67,4.73-4.51,7.69-10.86,7.69-17.9,0-13.64-11.1-24.73-24.73-24.73s-24.73,11.1-24.73,24.73c0,7.04,2.96,13.39,7.69,17.9-5.24,2.91-16.58,9.27-17.26,9.64-5.29,2.92-9.47,5.23-11.4,10.97-.31.92.18,1.92,1.11,2.23.92.31,1.92-.19,2.23-1.11,1.5-4.45,4.79-6.26,9.77-9.02.69-.38,12.92-7.24,18.49-10.33,1.93,1.34,4.05,2.42,6.33,3.17l-7.54,36.4c-.12.58.06,1.18.47,1.6l13.53,13.65c.33.33.78.52,1.25.52h.12c.47,0,.92-.19,1.25-.52l13.53-13.65c.42-.42.59-1.02.47-1.6l-7.53-36.4c2.27-.76,4.4-1.83,6.33-3.17,5.58,3.09,17.84,9.97,18.54,10.35,7.7,4.25,11.57,6.39,10.51,20.14-1.09,14.21-2.96,33.35-3.38,37.58l-15.79,10.1c-.51.32-.81.88-.81,1.48v46.68c0,2.61-2.12,4.73-4.73,4.73h-16.7v-37.94c0-.97-.79-1.76-1.76-1.76s-1.76.79-1.76,1.76v37.94h-16.7c-2.61,0-4.73-2.12-4.73-4.73v-25.42c0-.97-.79-1.76-1.76-1.76s-1.76.79-1.76,1.76v25.42c0,4.55,3.7,8.25,8.25,8.25h36.92c4.55,0,8.25-3.7,8.25-8.25v-45.72l15.69-10.04c.45-.29.75-.77.8-1.31.02-.22,2.23-22.48,3.47-38.51,1.23-16.01-4.16-18.99-12.32-23.49ZM107.3,25.2c0-11.7,9.52-21.21,21.21-21.21s21.21,9.52,21.21,21.21-9.52,21.21-21.21,21.21-21.21-9.52-21.21-21.21ZM140.18,84.86l-11.67,11.77-11.67-11.77,7.31-35.32c1.42.25,2.87.39,4.36.39s2.94-.14,4.36-.39l7.31,35.32Z"/>
  <path class="cls-1" d="M66.3,69.71c-23.21,0-42.09,18.88-42.09,42.09,0,7.07,1.76,13.74,4.86,19.6l-23.91,23.91c-.69.69-.69,1.8,0,2.49.69.69,1.8.69,2.49,0l23.26-23.26c3.27,5.07,7.59,9.39,12.65,12.65l-30.26,30.26c-.69.69-.69,1.8,0,2.49.34.34.79.52,1.24.52s.9-.17,1.25-.52l30.91-30.91c5.86,3.1,12.52,4.86,19.6,4.86,23.21,0,42.09-18.88,42.09-42.09s-18.88-42.09-42.09-42.09ZM66.3,150.37c-21.27,0-38.57-17.3-38.57-38.57s17.3-38.57,38.57-38.57,38.57,17.3,38.57,38.57-17.3,38.57-38.57,38.57Z"/>
  <path class="cls-1" d="M66.3,85.28c-14.63,0-26.53,11.9-26.53,26.52,0,.97.79,1.76,1.76,1.76s1.76-.79,1.76-1.76c0-12.68,10.32-23,23-23,.97,0,1.76-.79,1.76-1.76s-.79-1.76-1.76-1.76Z"/>
</svg>