<?xml version="1.0" encoding="UTF-8"?>
<svg id="Human_Resources" data-name="Human Resources" xmlns="http://www.w3.org/2000/svg" viewBox="0 0 180 180">
  <defs>
    <style>
      .cls-1 {
        stroke: #000;
        stroke-miterlimit: 10;
        stroke-width: 2px;
      }
    </style>
  </defs>
  <path class="cls-1" d="M164.08,141.76c-1.95-.91-6.43-2.98-11.22-5.18,3.73-4.11,6-9.56,6-15.53,0-12.75-10.38-23.13-23.13-23.13s-23.13,10.38-23.13,23.13c0,5.97,2.27,11.42,6,15.53-4.79,2.21-9.27,4.27-11.23,5.18-7.75,3.61-11.51,9.53-11.51,18.11v18.83c0,.97.79,1.76,1.76,1.76h76.2c.97,0,1.76-.79,1.76-1.76v-18.83c0-8.58-3.77-14.5-11.51-18.11ZM135.72,101.44c10.81,0,19.6,8.79,19.6,19.6s-8.79,19.6-19.6,19.6-19.6-8.79-19.6-19.6,8.79-19.6,19.6-19.6ZM172.06,176.93h-13.78v-9.07c0-.97-.79-1.76-1.76-1.76s-1.76.79-1.76,1.76v9.07h-38.05v-9.07c0-.97-.79-1.76-1.76-1.76s-1.76.79-1.76,1.76v9.07h-13.78v-17.07c0-9.41,5.41-13.02,9.47-14.91,2.13-.99,7.26-3.36,12.52-5.78,3.94,3.13,8.92,5,14.34,5s10.39-1.87,14.34-5c5.27,2.42,10.39,4.79,12.52,5.78h0c4.07,1.9,9.47,5.5,9.47,14.91v17.07Z"/>
  <path class="cls-1" d="M44.31,100.79s0,0,0,0l14.58,14.58c.34.34.8.52,1.25.52s.9-.17,1.25-.52l14.31-14.31c.69-.69.69-1.81,0-2.5l-41.98-41.98c-7.39-7.39-7.39-19.42,0-26.81,3.58-3.57,8.34-5.54,13.41-5.54s9.83,1.97,13.41,5.54l41.98,41.98c.66.66,1.83.66,2.5,0l14.31-14.31c.69-.69.69-1.81,0-2.5l-14.57-14.57s0,0,0,0,0,0,0,0l-27.4-27.4c-16.66-16.66-43.76-16.66-60.42,0-8.06,8.06-12.5,18.79-12.5,30.21s4.44,22.15,12.5,30.21l27.4,27.4s0,0,0,0ZM60.14,111.62l-12.08-12.08,11.82-11.82,12.08,12.08-11.82,11.81ZM103.75,68l-12.08-12.08,11.82-11.82,12.08,12.08-11.82,11.81ZM7.94,43.17c0-10.48,4.07-20.33,11.46-27.72,7.64-7.64,17.68-11.46,27.72-11.46s20.08,3.82,27.72,11.46l26.16,26.16-11.82,11.82-26.16-26.16c-8.77-8.77-23.03-8.77-31.8,0-4.24,4.24-6.58,9.89-6.58,15.9s2.34,11.66,6.58,15.9l26.16,26.16-11.81,11.82-26.16-26.16c-7.39-7.39-11.46-17.23-11.46-27.72Z"/>
  <path class="cls-1" d="M65.79,119.6c-.89.39-1.31,1.43-.92,2.32l4.42,10.19c.29.67.94,1.06,1.62,1.06.23,0,.47-.05.7-.15.89-.39,1.31-1.43.92-2.32l-4.42-10.19c-.39-.89-1.43-1.3-2.32-.92Z"/>
  <path class="cls-1" d="M92.44,108.96l-10.19-4.42c-.9-.39-1.93.02-2.32.92-.39.89.02,1.93.92,2.32l10.19,4.42c.23.1.47.15.7.15.68,0,1.33-.4,1.62-1.06.39-.89-.02-1.93-.92-2.32Z"/>
  <path class="cls-1" d="M78.92,116.09c-.69-.69-1.81-.69-2.5,0-.69.69-.69,1.81,0,2.5l8.79,8.79c.34.34.8.52,1.25.52s.9-.17,1.25-.52c.69-.69.69-1.81,0-2.5l-8.79-8.79Z"/>
  <path class="cls-1" d="M109.41,75.98c-.89.39-1.31,1.43-.92,2.32l4.42,10.19c.29.67.94,1.06,1.62,1.06.23,0,.47-.05.7-.15.89-.39,1.31-1.43.92-2.32l-4.42-10.19c-.39-.89-1.43-1.31-2.32-.92Z"/>
  <path class="cls-1" d="M125.87,60.92c-.89-.39-1.93.02-2.32.92-.39.89.02,1.93.92,2.32l10.19,4.42c.23.1.47.15.7.15.68,0,1.33-.4,1.62-1.06.39-.89-.02-1.93-.92-2.32l-10.19-4.42Z"/>
  <path class="cls-1" d="M120.04,74.97l8.79,8.79c.34.34.8.52,1.25.52s.9-.17,1.25-.52c.69-.69.69-1.81,0-2.5l-8.79-8.79c-.69-.69-1.81-.69-2.5,0-.69.69-.69,1.81,0,2.5Z"/>
  <path class="cls-1" d="M76.46,161.11c-22.93,0-41.58-18.65-41.58-41.58,0-.97-.79-1.76-1.76-1.76s-1.76.79-1.76,1.76c0,24.88,20.24,45.11,45.11,45.11.97,0,1.76-.79,1.76-1.76s-.79-1.76-1.76-1.76Z"/>
  <path class="cls-1" d="M124.23,30.16c22.93,0,41.58,18.65,41.58,41.58,0,.97.79,1.76,1.76,1.76s1.76-.79,1.76-1.76c0-24.88-20.24-45.11-45.11-45.11-.97,0-1.76.79-1.76,1.76s.79,1.76,1.76,1.76Z"/>
</svg>