<?xml version="1.0" encoding="UTF-8"?>
<svg id="Human_Resources" data-name="Human Resources" xmlns="http://www.w3.org/2000/svg" viewBox="0 0 180 180">
  <defs>
    <style>
      .cls-1 {
        stroke: #000;
        stroke-miterlimit: 10;
        stroke-width: 2px;
      }
    </style>
  </defs>
  <path class="cls-1" d="M178.28,174.76h-8.77V4.44c0-.95-.77-1.72-1.72-1.72H49.05c-.95,0-1.72.77-1.72,1.72v15.46c0,.95.77,1.72,1.72,1.72s1.72-.77,1.72-1.72V6.16h115.3v168.6h-12.86V20.74c0-.95-.77-1.72-1.72-1.72h-86.14c-.95,0-1.72.77-1.72,1.72v12.41c0,.95.77,1.72,1.72,1.72s1.72-.77,1.72-1.72v-10.69h82.7v152.3H60.97c.66-1.08,1.05-2.35,1.05-3.71v-38.11l13.01-8.33c.44-.28.73-.75.78-1.28.02-.19,1.87-18.81,2.9-32.22,1.04-13.55-3.77-16.21-10.44-19.89-.58-.32-9.08-5.09-14.18-7.93,3.86-3.8,6.27-9.08,6.27-14.92,0-11.54-9.39-20.94-20.94-20.94s-20.94,9.39-20.94,20.94c0,5.84,2.4,11.12,6.27,14.92-5.08,2.82-13.6,7.61-14.18,7.93-6.66,3.68-11.48,6.34-10.44,19.89,1.03,13.41,2.88,32.03,2.9,32.22.05.52.34.99.78,1.28l13.01,8.33v38.11c0,1.36.39,2.62,1.05,3.71H6.24c-.95,0-1.72.77-1.72,1.72s.77,1.72,1.72,1.72h172.04c.95,0,1.72-.77,1.72-1.72s-.77-1.72-1.72-1.72ZM21.93,48.39c0-9.65,7.85-17.5,17.5-17.5s17.5,7.85,17.5,17.5-7.85,17.5-17.5,17.5-17.5-7.85-17.5-17.5ZM39.43,69.33c1.18,0,2.33-.1,3.46-.29l6.04,29.18-9.5,9.58-9.5-9.58,6.04-29.18c1.12.19,2.28.29,3.46.29ZM41.15,174.76v-30.79c0-.95-.77-1.72-1.72-1.72s-1.72.77-1.72,1.72v30.79h-13.72c-2.04,0-3.71-1.66-3.71-3.71v-39.05c0-.59-.3-1.13-.79-1.45l-13.1-8.38c-.37-3.76-1.91-19.55-2.81-31.31-.87-11.34,2.12-13,8.67-16.61.59-.33,9.76-5.48,15.37-8.58,1.54,1.06,3.23,1.91,5.02,2.53l-6.26,30.24c-.12.56.06,1.15.46,1.56l11.32,11.42c.32.33.76.51,1.22.51h.1c.46,0,.9-.18,1.22-.51l11.32-11.42c.41-.41.58-1,.46-1.56l-6.26-30.24c1.8-.62,3.48-1.47,5.02-2.53,5.63,3.12,14.78,8.26,15.37,8.58,6.55,3.62,9.54,5.27,8.67,16.61-.9,11.76-2.44,27.55-2.81,31.31l-13.1,8.38c-.49.32-.79.86-.79,1.45v39.05c0,2.04-1.66,3.71-3.71,3.71h-13.72Z"/>
  <path class="cls-1" d="M139.37,110.19v-14.41c0-.95-.77-1.72-1.72-1.72s-1.72.77-1.72,1.72v14.41c0,.95.77,1.72,1.72,1.72s1.72-.77,1.72-1.72Z"/>
</svg>