<?xml version="1.0" encoding="UTF-8"?>
<svg id="Human_Resources" data-name="Human Resources" xmlns="http://www.w3.org/2000/svg" viewBox="0 0 180 180">
  <defs>
    <style>
      .cls-1 {
        stroke: #000;
        stroke-miterlimit: 10;
        stroke-width: 2px;
      }
    </style>
  </defs>
  <path class="cls-1" d="M52.29,105.04h-25.14c-1.11,0-2.01-.9-2.01-2.01v-50.28c0-1.11.9-2.01,2.01-2.01h75.42c1.11,0,2.01.9,2.01,2.01v25.14c0,1.11-.9,2.01-2.01,2.01h-48.27v23.13c0,1.11-.9,2.01-2.01,2.01ZM29.16,101.02h21.12v-23.13c0-1.11.9-2.01,2.01-2.01h48.27v-21.12H29.16v46.26Z"/>
  <path class="cls-1" d="M177.99,180.46H2.01C.9,180.46,0,179.56,0,178.45v-50.28c0-1.11.9-2.01,2.01-2.01h25.14c1.11,0,2.01.9,2.01,2.01v23.13h21.12v-23.13c0-1.11.9-2.01,2.01-2.01h48.27v-23.13c0-1.11.9-2.01,2.01-2.01h23.13V27.61c0-1.11.9-2.01,2.01-2.01h23.13V2.47c0-1.11.9-2.01,2.01-2.01h25.14c1.11,0,2.01.9,2.01,2.01v175.98c0,1.11-.9,2.01-2.01,2.01ZM4.02,176.44h171.96V4.48h-21.12v23.13c0,1.11-.9,2.01-2.01,2.01h-23.13v73.41c0,1.11-.9,2.01-2.01,2.01h-23.13v23.13c0,1.11-.9,2.01-2.01,2.01h-48.27v23.13c0,1.11-.9,2.01-2.01,2.01h-25.14c-1.11,0-2.01-.9-2.01-2.01v-23.13H4.02v46.26Z"/>
  <path class="cls-1" d="M64.86,36.63c-1.11,0-2.01-.9-2.01-2.01V2.47c0-1.11.9-2.01,2.01-2.01s2.01.9,2.01,2.01v32.14c0,1.11-.9,2.01-2.01,2.01Z"/>
  <path class="cls-1" d="M46.34,36.63c-1.11,0-2.01-.9-2.01-2.01V15.67c0-1.11.9-2.01,2.01-2.01s2.01.9,2.01,2.01v18.94c0,1.11-.9,2.01-2.01,2.01Z"/>
  <path class="cls-1" d="M83.38,36.63c-1.11,0-2.01-.9-2.01-2.01V15.67c0-1.11.9-2.01,2.01-2.01s2.01.9,2.01,2.01v18.94c0,1.11-.9,2.01-2.01,2.01Z"/>
</svg>