<?xml version="1.0" encoding="UTF-8"?>
<svg id="Human_Resources" data-name="Human Resources" xmlns="http://www.w3.org/2000/svg" viewBox="0 0 180 180">
  <defs>
    <style>
      .cls-1 {
        stroke: #000;
        stroke-miterlimit: 10;
        stroke-width: 2px;
      }
    </style>
  </defs>
  <path class="cls-1" d="M150.13,97.9c-.25-.12-14.24-6.55-24.38-11.22.7-1.46,1.11-2.39,1.2-2.59.39-.89-.01-1.93-.9-2.33-.89-.39-1.93.01-2.33.9-.02.05-.44.98-1.19,2.54-2.2-1.01-4.05-1.86-5.32-2.44,2.71-4.65,4.27-10.04,4.27-15.79v-13.45c.61-1.35,3.09-6.79,8.24-18.22,2.44-5.42,2.57-10.45.39-14.95-5.55-11.45-24.32-16.14-34.4-18.66l-.74-.18c-7.04-1.76-12.79-1.3-17.09,1.38-2.91,1.81-4.49,4.24-5.3,5.97-2.96-1.42-8.73-3.28-13.44.83-19.99,17.42-9.88,30.48-3.84,38.28,1.52,1.96,3.24,4.18,3.24,5.16v13.83c0,5.75,1.56,11.15,4.27,15.79-1.27.58-3.12,1.43-5.32,2.45-.75-1.56-1.17-2.49-1.19-2.54-.39-.89-1.44-1.29-2.33-.9-.89.39-1.3,1.44-.9,2.33.09.21.51,1.14,1.2,2.59-10.15,4.67-24.13,11.1-24.38,11.22-6.51,3.12-16.34,7.84-16.34,24.91v55.89c0,.97.79,1.76,1.76,1.76h149.42c.97,0,1.76-.79,1.76-1.76v-55.89c0-17.07-9.84-21.79-16.34-24.91ZM58.07,45.81c-5.95-7.69-14.11-18.23,3.37-33.46,1.36-1.19,2.93-1.6,4.45-1.6,3.41,0,6.58,2.09,6.62,2.12.48.33,1.1.4,1.65.18.55-.22.95-.69,1.07-1.27,0-.04.87-3.64,4.5-5.89,3.46-2.15,8.3-2.47,14.37-.95l.74.18c8.84,2.21,27.25,6.8,32.08,16.77,1.73,3.56,1.58,7.47-.44,11.96-2.53,5.62-4.41,9.79-5.75,12.74-3.38-13.27-17.86-13.9-28.8-14.38-6.79-.3-13.2-.58-14.09-3.68-.22-.76-.91-1.28-1.7-1.28h-.02c-.8,0-1.49.54-1.69,1.31-1.73,6.55-4.8,8.35-8.05,10.26-2.93,1.72-5.93,3.49-7.23,8.43-.35-.46-.72-.94-1.11-1.44ZM62.05,66.97v-13.83c0-7.66,2.58-9.17,6.15-11.27,2.84-1.67,6.27-3.69,8.53-9.04,3.13,2.39,8.78,2.63,15.06,2.91,15.38.67,26.26,2.31,26.16,17.39v13.84c0,15.41-12.54,27.95-27.95,27.95s-27.95-12.54-27.95-27.95ZM64.75,85.74c5.74,7.7,14.92,12.7,25.25,12.7s19.5-5,25.25-12.7c1.23.56,3.24,1.49,5.71,2.62-5.05,9.88-16.6,30.13-30.95,40.57-14.36-10.45-25.9-30.69-30.95-40.57,2.46-1.13,4.48-2.06,5.71-2.62ZM101.32,144.2c0,6.24-5.08,11.32-11.32,11.32s-11.32-5.08-11.32-11.32,5.08-11.32,11.32-11.32,11.32,5.08,11.32,11.32ZM162.95,176.93h-26.95v-33.45c0-.97-.79-1.76-1.76-1.76s-1.76.79-1.76,1.76v33.45H47.53v-33.45c0-.97-.79-1.76-1.76-1.76s-1.76.79-1.76,1.76v33.45h-26.95v-54.12c0-14.85,7.95-18.66,14.34-21.73.26-.12,14.29-6.58,24.42-11.24,4.85,9.58,15.71,28.78,29.79,40.17-6.05,1.88-10.45,7.53-10.45,14.18,0,8.19,6.66,14.85,14.85,14.85s14.85-6.66,14.85-14.85c0-6.66-4.4-12.3-10.45-14.18,14.07-11.38,24.93-30.58,29.79-40.17,10.13,4.66,24.17,11.12,24.42,11.24,6.39,3.06,14.34,6.88,14.34,21.73v54.12Z"/>
  <path class="cls-1" d="M76.17,59.44c1.98,0,3.59-1.61,3.59-3.59s-1.61-3.59-3.59-3.59-3.59,1.61-3.59,3.59,1.61,3.59,3.59,3.59Z"/>
  <path class="cls-1" d="M103.83,59.44c1.98,0,3.59-1.61,3.59-3.59s-1.61-3.59-3.59-3.59-3.59,1.61-3.59,3.59,1.61,3.59,3.59,3.59Z"/>
  <path class="cls-1" d="M33.78,66.53c.11.02.23.03.34.03.83,0,1.57-.59,1.73-1.43.19-.96-.44-1.88-1.4-2.07l-19.59-3.81c-.96-.19-1.88.44-2.07,1.39-.19.96.44,1.88,1.4,2.07l19.59,3.81Z"/>
  <path class="cls-1" d="M33.97,77.85l-15.41,4.78c-.93.29-1.45,1.28-1.16,2.21.24.76.93,1.24,1.68,1.24.17,0,.35-.03.52-.08l15.41-4.78c.93-.29,1.45-1.28,1.16-2.21-.29-.93-1.28-1.45-2.21-1.16Z"/>
  <path class="cls-1" d="M38.87,52.65c.33.27.72.4,1.12.4.51,0,1.02-.22,1.37-.65.62-.75.5-1.87-.25-2.48l-12.49-10.21c-.76-.62-1.87-.5-2.48.25-.62.75-.5,1.87.25,2.48l12.49,10.21Z"/>
  <path class="cls-1" d="M167.21,60.65c-.19-.96-1.11-1.58-2.07-1.39l-19.59,3.81c-.96.19-1.58,1.11-1.39,2.07.16.84.9,1.43,1.73,1.43.11,0,.22-.01.34-.03l19.6-3.81c.96-.19,1.58-1.11,1.4-2.07Z"/>
  <path class="cls-1" d="M144.98,81.22l15.41,4.78c.17.05.35.08.52.08.75,0,1.45-.49,1.68-1.24.29-.93-.23-1.92-1.16-2.21l-15.41-4.78c-.93-.29-1.92.23-2.21,1.16-.29.93.23,1.92,1.16,2.21Z"/>
  <path class="cls-1" d="M140.01,53.05c.39,0,.79-.13,1.12-.4l12.49-10.21c.75-.62.87-1.73.25-2.48-.62-.75-1.73-.87-2.48-.25l-12.49,10.21c-.75.62-.87,1.73-.25,2.48.35.43.86.65,1.37.65Z"/>
</svg>