<?xml version="1.0" encoding="UTF-8"?>
<svg id="Human_Resources" data-name="Human Resources" xmlns="http://www.w3.org/2000/svg" viewBox="0 0 180 180">
  <defs>
    <style>
      .cls-1 {
        stroke: #000;
        stroke-miterlimit: 10;
        stroke-width: 2px;
      }
    </style>
  </defs>
  <path class="cls-1" d="M43.55,26.68h22.84c.93,0,1.69-.76,1.69-1.69V2.15c0-.93-.76-1.69-1.69-1.69h-22.84c-.93,0-1.69.76-1.69,1.69v22.84c0,.93.76,1.69,1.69,1.69ZM45.24,3.84h19.46v19.46h-19.46V3.84Z"/>
  <path class="cls-1" d="M39.63,60.75v-26.53c0-.93-.76-1.69-1.69-1.69H11.4c-.93,0-1.69.76-1.69,1.69v26.53c0,.93.76,1.69,1.69,1.69h26.53c.93,0,1.69-.76,1.69-1.69ZM36.25,59.06H13.09v-23.15h23.15v23.15Z"/>
  <path class="cls-1" d="M169.05,101.31c-8.83-17.98-14.48-29.53-15.43-31.51-.43-43.27-19.02-61.73-62.11-61.73-1.76,0-3.45.08-5.5.27-.87.08-1.54.81-1.54,1.68v25.3h-15.58c-.93,0-1.69.76-1.69,1.69v20.28c0,.93.76,1.69,1.69,1.69h15.58v27.24h-30.59v-14.54c0-.93-.76-1.69-1.69-1.69h-21.06c-.46,0-.9.19-1.22.52-.32.33-.49.77-.47,1.23.59,17.21,7.77,27.79,14.71,38.02,7.16,10.54,13.92,20.5,13.91,37.43,0,5.63.04,9.51.07,12.82.05,5.74.09,9.88-.07,18.73-.02.93.73,1.7,1.66,1.72.01,0,.02,0,.03,0,.92,0,1.67-.74,1.69-1.66.16-8.9.12-13.06.07-18.83-.03-3.31-.06-7.17-.07-12.79,0-17.96-7.36-28.82-14.49-39.33-6.73-9.91-13.1-19.29-14.05-34.48h17.59v14.67c0,.45.18.88.5,1.2.32.32.75.45,1.19.45h33.97c.93,0,1.68-.85,1.68-1.78v-30.61c0-.93-.76-1.69-1.69-1.69h-15.58v-16.9h15.58c.93,0,1.69-.76,1.69-1.69V11.58c1.29-.09,2.46-.13,3.66-.13,41.41,0,58.42,17.02,58.73,58.73q0,.49,15.78,32.62c.94,1.92,1.01,3.04.76,3.45-.24.38-1.09.62-2.29.63-4.39.04-12.47,0-12.55,0-.49.02-.88.18-1.2.49-.32.32-.5.75-.5,1.2v28.75c0,4.51-3.67,8.18-8.18,8.18h-33.86c-10.35,0-18.77-8.42-18.77-18.77v-4.56c0-.93-.76-1.69-1.69-1.69s-1.69.76-1.69,1.69v4.56c0,12.21,9.94,22.15,22.15,22.15h11.46v29.9c0,.93.76,1.69,1.69,1.69s1.69-.76,1.69-1.69v-29.9h19.02c6.38,0,11.56-5.19,11.56-11.56v-27.05c2.63,0,7.72.02,10.9,0,2.5-.02,4.23-.77,5.13-2.23,1.01-1.64.81-3.83-.6-6.71Z"/>
</svg>