<?xml version="1.0" encoding="UTF-8"?>
<svg id="Human_Resources" data-name="Human Resources" xmlns="http://www.w3.org/2000/svg" viewBox="0 0 180 180">
  <defs>
    <style>
      .cls-1 {
        stroke: #000;
        stroke-miterlimit: 10;
        stroke-width: 2px;
      }
    </style>
  </defs>
  <path class="cls-1" d="M89.85,163.45c.33.34.77.51,1.21.51.42,0,.83-.15,1.16-.46.67-.64.69-1.7.05-2.36-13.38-13.97-8.87-24.25-3.65-36.16,4.11-9.36,8.76-19.96,4.01-33.11-.31-.87-1.28-1.32-2.14-1-.87.31-1.32,1.27-1,2.14,4.29,11.89.11,21.42-3.93,30.63-5.23,11.92-10.63,24.24,4.29,39.82Z"/>
  <path class="cls-1" d="M178.33,170.26h-5.1l-29.65-70.59c-.15-.35-.41-.64-.75-.82l-14.99-8.1-22.04-38.29c-.2-.34-.51-.6-.88-.74l-12.19-4.4v-10.46l29.81-12.95c.61-.27,1.01-.87,1.01-1.53s-.4-1.27-1.01-1.53l-30.82-13.38c-.52-.22-1.11-.17-1.58.14-.47.31-.75.83-.75,1.4v38.32l-12.19,4.4c-.37.13-.68.4-.88.74l-22.04,38.29-14.99,8.1c-.34.18-.6.47-.75.82l-29.65,70.59H1.67C.75,170.26,0,171.01,0,171.93s.75,1.67,1.67,1.67h37.39c.92,0,1.67-.75,1.67-1.67s-.75-1.67-1.67-1.67H12.51l28.88-68.75,14.89-8.04c.27-.15.5-.37.65-.64l9.46-16.43,11.52,6.85c.26.16.56.23.85.23s.62-.09.89-.26l11.39-7.17,11.39,7.17c.53.33,1.2.34,1.74.02l11.52-6.85,9.46,16.43c.16.27.38.49.65.64l14.89,8.04,28.88,68.75H55.07c-.92,0-1.67.75-1.67,1.67s.75,1.67,1.67,1.67h123.26c.92,0,1.67-.75,1.67-1.67s-.75-1.67-1.67-1.67ZM92.73,33.21V11.54l24.95,10.83-24.95,10.83ZM103.36,79.86l-11.42-7.18c-.55-.34-1.24-.34-1.78,0l-11.42,7.18-10.69-6.35,10.85-18.85,12.15-4.38,12.15,4.38,10.85,18.85-10.69,6.36Z"/>
</svg>