<?xml version="1.0" encoding="UTF-8"?>
<svg id="Human_Resources" data-name="Human Resources" xmlns="http://www.w3.org/2000/svg" viewBox="0 0 180 180">
  <defs>
    <style>
      .cls-1 {
        stroke: #000;
        stroke-miterlimit: 10;
        stroke-width: 2px;
      }
    </style>
  </defs>
  <path class="cls-1" d="M169.97,146.76c-1.63-.76-5.31-2.46-9.3-4.3,3.09-3.54,4.96-8.15,4.96-13.2,0-11.09-9.02-20.11-20.11-20.11s-20.11,9.02-20.11,20.11c0,5.05,1.88,9.67,4.96,13.2-3.99,1.84-7.67,3.53-9.3,4.3-1.22.57-2.31,1.21-3.31,1.92-1-.71-2.11-1.35-3.33-1.92-1.63-.76-5.31-2.46-9.3-4.3,3.09-3.54,4.96-8.15,4.96-13.2,0-11.09-9.02-20.11-20.11-20.11s-20.11,9.02-20.11,20.11c0,5.05,1.88,9.67,4.96,13.2-3.99,1.84-7.67,3.53-9.3,4.3-1.23.57-2.33,1.21-3.33,1.92-.99-.7-2.08-1.35-3.31-1.92-1.63-.76-5.31-2.46-9.3-4.3,3.09-3.54,4.96-8.15,4.96-13.2,0-11.09-9.02-20.11-20.11-20.11s-20.11,9.02-20.11,20.11c0,5.05,1.88,9.67,4.96,13.2-3.99,1.84-7.67,3.53-9.3,4.3C3.28,149.9,0,155.06,0,162.53v16.17c0,.97.79,1.76,1.76,1.76h176.47c.97,0,1.76-.79,1.76-1.76v-16.17c0-7.47-3.28-12.63-10.03-15.77ZM145.53,112.68c9.14,0,16.58,7.44,16.58,16.58s-7.44,16.58-16.58,16.58-16.58-7.44-16.58-16.58,7.44-16.58,16.58-16.58ZM90,112.68c9.14,0,16.58,7.44,16.58,16.58s-7.44,16.58-16.58,16.58-16.58-7.44-16.58-16.58,7.44-16.58,16.58-16.58ZM67.05,149.96c1.8-.84,6.11-2.83,10.57-4.88,3.42,2.68,7.72,4.29,12.39,4.29s8.97-1.61,12.39-4.29c4.46,2.05,8.76,4.04,10.57,4.88,3.72,1.73,7.99,4.73,7.99,12.58v14.4h-61.89v-14.4c0-7.85,4.27-10.84,7.99-12.58ZM34.47,112.68c9.14,0,16.58,7.44,16.58,16.58s-7.44,16.58-16.58,16.58-16.58-7.44-16.58-16.58,7.44-16.58,16.58-16.58ZM3.53,162.53c0-7.85,4.27-10.84,7.99-12.58,1.8-.84,6.11-2.83,10.57-4.88,3.42,2.68,7.72,4.29,12.39,4.29s8.97-1.61,12.39-4.29c4.46,2.05,8.76,4.04,10.57,4.88.68.32,1.39.69,2.08,1.12-2.66,2.95-3.97,6.74-3.97,11.46v14.4H3.53v-14.4ZM176.47,176.93h-52v-14.4c0-4.72-1.31-8.51-3.98-11.46.69-.43,1.39-.8,2.08-1.12,1.8-.84,6.11-2.83,10.57-4.88,3.42,2.68,7.72,4.29,12.39,4.29s8.97-1.61,12.39-4.29c4.46,2.05,8.76,4.04,10.57,4.88,3.72,1.73,7.99,4.73,7.99,12.58v14.4Z"/>
  <path class="cls-1" d="M34.54,102.09c.97,0,1.76-.79,1.76-1.76v-13.93h35.28c.97,0,1.76-.79,1.76-1.76v-14.43h14.9v30.13c0,.97.79,1.76,1.76,1.76h0c.98,0,1.75-.79,1.75-1.77v-30.13h14.88v14.43c0,.97.79,1.76,1.76,1.76h35.28v13.93c0,.97.79,1.76,1.76,1.76s1.76-.79,1.76-1.76v-15.7c0-.97-.79-1.76-1.76-1.76h-35.28v-12.67h11.77c.97,0,1.76-.79,1.76-1.76v-15.79c0-7.31-3.21-12.37-9.82-15.45-1.59-.74-5.16-2.39-9.03-4.17,3-3.45,4.82-7.96,4.82-12.88,0-10.85-8.83-19.68-19.68-19.68s-19.68,8.83-19.68,19.68c0,4.92,1.82,9.43,4.82,12.88-3.87,1.78-7.45,3.43-9.03,4.17-6.61,3.08-9.82,8.13-9.82,15.45v15.79c0,.97.79,1.76,1.76,1.76h11.77v12.67h-35.28c-.97,0-1.76.79-1.76,1.76v15.7c0,.97.79,1.76,1.76,1.76ZM90,3.99c8.91,0,16.15,7.24,16.15,16.15s-7.24,16.15-16.15,16.15-16.15-7.24-16.15-16.15,7.24-16.15,16.15-16.15ZM59.82,52.64c0-7.64,4.16-10.56,7.78-12.25,1.76-.82,5.95-2.75,10.3-4.75,3.34,2.62,7.54,4.18,12.11,4.18s8.76-1.57,12.11-4.18c4.34,2,8.54,3.94,10.3,4.75,3.62,1.69,7.78,4.61,7.78,12.25v14.03h-60.37v-14.03Z"/>
</svg>