<?xml version="1.0" encoding="UTF-8"?>
<svg id="Human_Resources" data-name="Human Resources" xmlns="http://www.w3.org/2000/svg" viewBox="0 0 180 180">
  <defs>
    <style>
      .cls-1 {
        stroke: #000;
        stroke-miterlimit: 10;
        stroke-width: 2px;
      }
    </style>
  </defs>
  <path class="cls-1" d="M109.49,91.21c-2.86-1.33-5.29-2.46-7.36-3.42,2.45-2.82,3.94-6.5,3.94-10.51,0-8.86-7.21-16.06-16.06-16.06s-16.06,7.21-16.06,16.06c0,4.03,1.49,7.71,3.95,10.53-3.16,1.46-6.08,2.8-7.38,3.41-5.39,2.51-8.02,6.64-8.02,12.61v12.88c0,.8.65,1.45,1.45,1.45h52.11c.8,0,1.45-.65,1.45-1.45v-12.88c0-5.97-2.62-10.09-8.02-12.61ZM90,64.12c7.25,0,13.15,5.9,13.15,13.16s-5.9,13.15-13.15,13.15-13.16-5.9-13.16-13.15,5.9-13.16,13.16-13.16ZM114.6,115.24h-8.93v-5.96c0-.8-.65-1.45-1.45-1.45s-1.45.65-1.45,1.45v5.96h-25.52v-5.96c0-.8-.65-1.45-1.45-1.45s-1.45.65-1.45,1.45v5.96h-8.93v-11.42c0-6.22,3.39-8.6,6.34-9.97,1.43-.67,4.87-2.25,8.43-3.89,2.72,2.11,6.13,3.38,9.84,3.38s7.12-1.26,9.84-3.38c3.55,1.64,6.99,3.22,8.43,3.89,2.95,1.38,6.34,3.75,6.34,9.97v11.42Z"/>
  <path class="cls-1" d="M175.33,95.7c-2.87-2.78-6.61-4.24-10.53-4.12-2.76.09-4.77,1.22-6.72,2.3-1.88,1.05-3.66,2.05-6.12,2.08-1.08.04-2.67-.39-3.6-1.31-.61-.6-.9-1.36-.9-2.34v-40.41c0-4.69-3.82-8.51-8.51-8.51h-34.53c-.97,0-1.74-.3-2.34-.9-.92-.94-1.33-2.52-1.31-3.6.03-2.46,1.03-4.24,2.08-6.12,1.09-1.95,2.22-3.96,2.3-6.72.13-3.92-1.34-7.66-4.12-10.53-2.88-2.97-6.9-4.67-11.04-4.67s-8.16,1.7-11.04,4.67c-2.78,2.87-4.24,6.61-4.12,10.53.09,2.76,1.22,4.77,2.3,6.72,1.05,1.88,2.05,3.66,2.08,6.12.02,1.08-.39,2.67-1.31,3.6-.6.61-1.36.9-2.34.9h-34.53c-4.69,0-8.51,3.82-8.51,8.51v40.41c0,.97-.3,1.74-.9,2.34-.93.92-2.5,1.35-3.6,1.31-2.46-.03-4.24-1.03-6.12-2.08-1.95-1.09-3.96-2.21-6.72-2.3-3.92-.13-7.66,1.34-10.53,4.12C1.7,98.57,0,102.6,0,106.74s1.7,8.16,4.67,11.04c2.87,2.78,6.6,4.24,10.53,4.12,2.76-.09,4.77-1.21,6.72-2.3,1.88-1.05,3.66-2.05,6.12-2.08,1.06-.03,2.67.39,3.6,1.31.61.6.9,1.36.9,2.34v40.41c0,4.69,3.82,8.51,8.51,8.51h34.53c1.74,0,3.27-.61,4.41-1.77,1.62-1.64,2.17-4.09,2.15-5.68-.04-3.2-1.32-5.48-2.45-7.5-1-1.79-1.87-3.34-1.94-5.39-.1-3.12,1.07-6.11,3.3-8.41,2.33-2.41,5.59-3.79,8.95-3.79s6.62,1.38,8.95,3.79c2.23,2.3,3.4,5.29,3.3,8.41-.07,2.05-.93,3.6-1.94,5.39-1.13,2.02-2.41,4.3-2.45,7.5-.02,1.6.53,4.04,2.15,5.68,1.14,1.16,2.66,1.77,4.41,1.77h34.53c4.69,0,8.51-3.82,8.51-8.51v-40.41c0-.97.3-1.74.9-2.34.93-.92,2.52-1.36,3.6-1.31,2.46.03,4.24,1.03,6.12,2.08,1.95,1.09,3.96,2.22,6.72,2.3,3.9.13,7.66-1.33,10.53-4.12,2.97-2.88,4.67-6.9,4.67-11.04s-1.7-8.16-4.67-11.04ZM173.3,115.69c-2.3,2.23-5.29,3.4-8.41,3.3-2.05-.07-3.6-.93-5.39-1.94-2.02-1.13-4.3-2.41-7.5-2.45-.03,0-.06,0-.09,0-1.6,0-3.98.56-5.59,2.15-1.16,1.14-1.77,2.67-1.77,4.41v40.41c0,3.09-2.51,5.6-5.6,5.6h-34.53c-.97,0-1.74-.3-2.34-.9-.92-.94-1.33-2.52-1.31-3.6.03-2.46,1.03-4.24,2.08-6.12,1.09-1.95,2.22-3.96,2.3-6.72.13-3.92-1.34-7.66-4.12-10.53-2.88-2.97-6.9-4.67-11.04-4.67s-8.16,1.7-11.04,4.67c-2.78,2.87-4.24,6.61-4.12,10.53.09,2.76,1.22,4.77,2.3,6.72,1.05,1.88,2.05,3.66,2.08,6.12.02,1.08-.39,2.67-1.31,3.6-.6.61-1.36.9-2.34.9h-34.53c-3.09,0-5.6-2.51-5.6-5.6v-40.41c0-1.74-.61-3.27-1.77-4.41-1.64-1.62-4.11-2.14-5.68-2.15-3.2.04-5.48,1.32-7.5,2.45-1.79,1-3.34,1.87-5.39,1.94-3.12.1-6.11-1.07-8.41-3.3-2.41-2.33-3.79-5.59-3.79-8.95s1.38-6.62,3.79-8.95c2.3-2.23,5.29-3.41,8.41-3.3,2.05.07,3.6.93,5.39,1.94,2.02,1.13,4.3,2.41,7.5,2.45,1.59.01,4.04-.53,5.68-2.15,1.16-1.14,1.77-2.66,1.77-4.41v-40.41c0-3.09,2.51-5.6,5.6-5.6h34.53c1.74,0,3.27-.61,4.41-1.77,1.62-1.64,2.17-4.09,2.15-5.68-.04-3.2-1.32-5.48-2.45-7.5-1-1.79-1.87-3.34-1.94-5.39-.1-3.12,1.07-6.11,3.3-8.41,2.33-2.41,5.59-3.79,8.95-3.79s6.62,1.38,8.95,3.79c2.23,2.3,3.4,5.29,3.3,8.41-.07,2.05-.93,3.6-1.94,5.39-1.13,2.02-2.41,4.3-2.45,7.5-.02,1.6.53,4.04,2.15,5.68,1.14,1.16,2.66,1.77,4.41,1.77h34.53c3.09,0,5.6,2.51,5.6,5.6v40.41c0,1.74.61,3.27,1.77,4.41,1.64,1.62,4.11,2.16,5.68,2.15,3.2-.04,5.48-1.32,7.5-2.45,1.79-1,3.34-1.87,5.39-1.94,3.13-.11,6.11,1.07,8.41,3.3,2.41,2.33,3.79,5.59,3.79,8.95s-1.38,6.62-3.79,8.95Z"/>
</svg>