<?xml version="1.0" encoding="UTF-8"?>
<svg id="Human_Resources" data-name="Human Resources" xmlns="http://www.w3.org/2000/svg" viewBox="0 0 180 180">
  <defs>
    <style>
      .cls-1 {
        stroke: #000;
        stroke-miterlimit: 10;
        stroke-width: 2px;
      }
    </style>
  </defs>
  <path class="cls-1" d="M162.34,33.06L130.58,1.3c-.35-.35-.82-.54-1.31-.54H28.21c-6.12,0-11.1,4.98-11.1,11.1v157.21c0,6.12,4.98,11.1,11.1,11.1h123.58c6.12,0,11.1-4.98,11.1-11.1V34.37c0-.49-.2-.96-.54-1.31ZM131.13,7.08l25.45,25.45h-25.45V7.08ZM151.79,176.46H28.21c-4.08,0-7.4-3.32-7.4-7.4V11.86c0-4.08,3.32-7.4,7.4-7.4h99.21v29.91c0,1.02.83,1.85,1.85,1.85h29.91v132.85c0,4.08-3.32,7.4-7.4,7.4Z"/>
  <path class="cls-1" d="M41.65,76.97h34.87c1.02,0,1.85-.83,1.85-1.85v-41.25c0-1.02-.83-1.85-1.85-1.85h-34.87c-1.02,0-1.85.83-1.85,1.85v41.25c0,1.02.83,1.85,1.85,1.85ZM43.5,35.72h31.17v37.55h-31.17v-37.55Z"/>
  <path class="cls-1" d="M105.17,76.97c3.56,0,6.87-2.08,8.42-5.29.44-.92.06-2.03-.86-2.47-.92-.44-2.02-.06-2.47.86-.94,1.94-2.93,3.19-5.08,3.19-3.11,0-5.64-2.53-5.64-5.64v-10.49c0-3.11,2.53-5.64,5.64-5.64,2.15,0,4.15,1.25,5.08,3.19.44.92,1.55,1.31,2.47.86.92-.44,1.31-1.55.86-2.47-1.55-3.21-4.85-5.29-8.42-5.29-5.15,0-9.34,4.19-9.34,9.34v10.49c0,5.15,4.19,9.34,9.34,9.34Z"/>
  <path class="cls-1" d="M143.51,48.98c-.95-.39-2.03.06-2.42,1l-8,19.28-8-19.28c-.39-.94-1.47-1.39-2.42-1-.94.39-1.39,1.47-1,2.42l9.71,23.4c.29.69.96,1.14,1.71,1.14s1.42-.45,1.71-1.14l9.71-23.4c.39-.94-.06-2.03-1-2.42Z"/>
  <path class="cls-1" d="M142.8,92.37H59.08c-1.02,0-1.85.83-1.85,1.85s.83,1.85,1.85,1.85h83.72c1.02,0,1.85-.83,1.85-1.85s-.83-1.85-1.85-1.85Z"/>
  <path class="cls-1" d="M142.8,109.33H41.65c-1.02,0-1.85.83-1.85,1.85s.83,1.85,1.85,1.85h101.15c1.02,0,1.85-.83,1.85-1.85s-.83-1.85-1.85-1.85Z"/>
  <path class="cls-1" d="M142.8,126.29H41.65c-1.02,0-1.85.83-1.85,1.85s.83,1.85,1.85,1.85h101.15c1.02,0,1.85-.83,1.85-1.85s-.83-1.85-1.85-1.85Z"/>
  <path class="cls-1" d="M142.8,143.26H41.65c-1.02,0-1.85.83-1.85,1.85s.83,1.85,1.85,1.85h101.15c1.02,0,1.85-.83,1.85-1.85s-.83-1.85-1.85-1.85Z"/>
</svg>