<?xml version="1.0" encoding="UTF-8"?>
<svg id="Human_Resources" data-name="Human Resources" xmlns="http://www.w3.org/2000/svg" viewBox="0 0 180 180">
  <defs>
    <style>
      .cls-1 {
        stroke: #000;
        stroke-miterlimit: 10;
        stroke-width: 2px;
      }
    </style>
  </defs>
  <path class="cls-1" d="M50.37,89.68c.91,0,1.64-.74,1.64-1.64v-23.56c0-9.85,5.66-13.63,9.92-15.62,2.22-1.03,7.59-3.51,13.08-6.04,4.07,3.26,9.22,5.21,14.83,5.21s10.76-1.95,14.83-5.21c5.49,2.53,10.86,5,13.08,6.04,4.26,1.99,9.92,5.76,9.92,15.62v23.41c0,.91.74,1.64,1.64,1.64s1.64-.74,1.64-1.64v-23.41c0-8.81-3.87-14.89-11.82-18.6-4.65-2.17-8.55-3.98-11.84-5.5,3.92-4.24,6.32-9.91,6.32-16.13,0-13.11-10.67-23.78-23.78-23.78s-23.78,10.67-23.78,23.78c0,6.23,2.41,11.91,6.35,16.15-5.05,2.33-9.8,4.52-11.86,5.48-7.95,3.71-11.82,9.79-11.82,18.6v23.56c0,.91.74,1.64,1.64,1.64ZM89.84,3.75c11.3,0,20.49,9.19,20.49,20.49s-9.19,20.49-20.49,20.49-20.49-9.19-20.49-20.49S78.55,3.75,89.84,3.75Z"/>
  <path class="cls-1" d="M90,86.81c-43.99,0-79.77,35.79-79.77,79.77,0,.91.74,1.64,1.64,1.64h42.48c.91,0,1.64-.74,1.64-1.64,0-18.75,15.25-34,34-34,3.9,0,7.74.66,11.4,1.96.86.31,1.8-.14,2.1-1,.3-.86-.14-1.8-1-2.1-4.02-1.43-8.23-2.15-12.51-2.15-20.01,0-36.39,15.84-37.26,35.65H13.53c.15-7.07,1.27-13.91,3.22-20.39l6.73,2.19c.17.05.34.08.51.08.69,0,1.34-.44,1.56-1.14.28-.86-.19-1.79-1.06-2.07l-6.72-2.18c4.99-14.27,14.1-26.63,25.89-35.64l4.13,5.68c.32.44.82.68,1.33.68.34,0,.67-.1.97-.31.73-.53.9-1.56.36-2.3l-4.13-5.69c11.93-8.33,26.34-13.35,41.88-13.71v7.08c0,.91.74,1.64,1.64,1.64s1.64-.74,1.64-1.64v-7.09c15.56.3,29.99,5.26,41.95,13.55l-4.18,5.76c-.53.73-.37,1.76.36,2.3.29.21.63.31.97.31.51,0,1.01-.24,1.33-.68l4.18-5.76c11.85,8.98,21.02,21.34,26.05,35.62l-6.86,2.23c-.86.28-1.34,1.21-1.06,2.07.23.69.87,1.14,1.56,1.14.17,0,.34-.03.51-.08l6.87-2.23c1.99,6.54,3.13,13.45,3.28,20.59h-39.21c-.16-3.66-.85-7.25-2.07-10.71-.3-.86-1.24-1.31-2.1-1.01-.86.3-1.31,1.24-1.01,2.1,1.27,3.63,1.92,7.42,1.92,11.27,0,.91.74,1.64,1.64,1.64h42.48c.91,0,1.64-.74,1.64-1.64,0-43.99-35.79-79.77-79.77-79.77Z"/>
  <path class="cls-1" d="M127.77,128.9c-.52-.53-1.34-.63-1.98-.27-1.66.95-40.65,23.27-45.52,28.14-5.41,5.41-5.41,14.21,0,19.62,2.62,2.62,6.11,4.06,9.81,4.06s7.19-1.44,9.81-4.06c4.88-4.88,27.2-43.86,28.14-45.52.37-.64.26-1.46-.26-1.98ZM97.57,174.07h0c-2,2-4.66,3.1-7.48,3.1s-5.49-1.1-7.49-3.1c-4.13-4.13-4.13-10.84,0-14.97,3.29-3.29,26.23-16.86,39.54-24.57-7.7,13.31-21.28,36.25-24.57,39.54Z"/>
</svg>