<?xml version="1.0" encoding="UTF-8"?>
<svg id="Human_Resources" data-name="Human Resources" xmlns="http://www.w3.org/2000/svg" viewBox="0 0 180 180">
  <defs>
    <style>
      .cls-1 {
        stroke: #000;
        stroke-miterlimit: 10;
        stroke-width: 2px;
      }
    </style>
  </defs>
  <path class="cls-1" d="M34.95,12.7c-.72-.72-1.9-.72-2.62,0l-7.35,7.35-7.35-7.35c-.72-.72-1.9-.72-2.62,0-.72.72-.72,1.9,0,2.62l7.35,7.35-7.35,7.35c-.72.72-.72,1.9,0,2.62.36.36.84.54,1.31.54s.95-.18,1.31-.54l7.35-7.35,7.35,7.35c.36.36.84.54,1.31.54s.95-.18,1.31-.54c.72-.72.72-1.9,0-2.62l-7.35-7.35,7.35-7.35c.72-.73.72-1.9,0-2.62Z"/>
  <path class="cls-1" d="M45.33,44.88c1.02,0,1.86-.83,1.86-1.86V2.32c0-1.02-.83-1.86-1.86-1.86H4.62c-1.02,0-1.86.83-1.86,1.86v40.71c0,1.02.83,1.86,1.86,1.86h40.71ZM6.48,4.17h37v37H6.48V4.17Z"/>
  <path class="cls-1" d="M102.74,12.7c-.72-.72-1.9-.72-2.62,0l-7.35,7.35-7.35-7.35c-.72-.72-1.9-.72-2.62,0-.73.72-.73,1.9,0,2.62l7.35,7.35-7.35,7.35c-.73.72-.73,1.9,0,2.62.36.36.84.54,1.31.54s.95-.18,1.31-.54l7.35-7.35,7.35,7.35c.36.36.84.54,1.31.54s.95-.18,1.31-.54c.72-.72.72-1.9,0-2.62l-7.35-7.35,7.35-7.35c.72-.73.72-1.9,0-2.62Z"/>
  <path class="cls-1" d="M72.41,44.88h40.71c1.02,0,1.86-.83,1.86-1.86V2.32c0-1.02-.83-1.86-1.86-1.86h-40.71c-1.02,0-1.86.83-1.86,1.86v40.71c0,1.02.83,1.86,1.86,1.86ZM74.27,4.17h37v37h-37V4.17Z"/>
  <path class="cls-1" d="M82.79,168.22c.36.36.84.54,1.31.54s.95-.18,1.31-.54l7.35-7.35,7.35,7.35c.36.36.84.54,1.31.54s.95-.18,1.31-.54c.72-.72.72-1.9,0-2.62l-7.35-7.35,7.35-7.35c.72-.72.72-1.9,0-2.62-.72-.72-1.9-.72-2.62,0l-7.35,7.35-7.35-7.35c-.72-.72-1.9-.72-2.62,0-.73.72-.73,1.9,0,2.62l7.35,7.35-7.35,7.35c-.73.72-.73,1.9,0,2.62Z"/>
  <path class="cls-1" d="M113.12,136.04h-40.71c-1.02,0-1.86.83-1.86,1.86v40.71c0,1.02.83,1.86,1.86,1.86h40.71c1.02,0,1.86-.83,1.86-1.86v-40.71c0-1.02-.83-1.86-1.86-1.86ZM111.26,176.75h-37v-37h37v37Z"/>
  <path class="cls-1" d="M176.87,21.56l-15.15-20.35c-.7-.94-2.28-.94-2.98,0l-15.15,20.35c-.61.82-.44,1.98.38,2.6.33.25.72.37,1.11.37.57,0,1.13-.26,1.49-.75l11.81-15.86v31.41c.72,29.22-32.61,36.58-67.9,44.38-34.13,7.54-69.43,15.34-69.43,45.58v13.73c-9.48.94-16.91,8.95-16.91,18.68,0,10.35,8.42,18.77,18.77,18.77s18.77-8.42,18.77-18.77c0-9.72-7.43-17.74-16.91-18.68v-13.73c0-27.26,32.31-34.4,66.52-41.96,35.2-7.78,71.6-15.82,70.81-48.05V7.92l11.81,15.86c.61.82,1.77.99,2.6.38.82-.61.99-1.77.38-2.6ZM37.96,161.69c0,8.3-6.76,15.06-15.06,15.06s-15.06-6.76-15.06-15.06,6.76-15.06,15.06-15.06,15.06,6.75,15.06,15.06Z"/>
</svg>