<?xml version="1.0" encoding="UTF-8"?>
<svg id="Human_Resources" data-name="Human Resources" xmlns="http://www.w3.org/2000/svg" viewBox="0 0 180 180">
  <defs>
    <style>
      .cls-1 {
        stroke: #000;
        stroke-miterlimit: 10;
        stroke-width: 2px;
      }
    </style>
  </defs>
  <path class="cls-1" d="M35.88,117.91v12.55c0,9.68,7.87,17.55,17.55,17.55h18.25c.97,0,1.76-.79,1.76-1.76s-.79-1.76-1.76-1.76h-18.25c-7.73,0-14.02-6.29-14.02-14.02v-10.79h13.07c.73,0,1.38-.45,1.64-1.12.26-.68.08-1.45-.45-1.94l-25.36-23.26c-.67-.62-1.71-.62-2.39,0L.57,116.61c-.54.49-.72,1.26-.45,1.94.26.68.92,1.12,1.64,1.12h13.07v10.79c0,21.28,17.31,38.59,38.59,38.59h18.25c.97,0,1.76-.79,1.76-1.76s-.79-1.76-1.76-1.76h-18.25c-19.33,0-35.06-15.73-35.06-35.06v-12.55c0-.97-.79-1.76-1.76-1.76H6.3l20.82-19.1,20.82,19.1h-10.3c-.97,0-1.76.79-1.76,1.76Z"/>
  <path class="cls-1" d="M136.89,60.51v-12.55c0-9.68-7.87-17.55-17.55-17.55h-18.25c-.97,0-1.76.79-1.76,1.76s.79,1.76,1.76,1.76h18.25c7.73,0,14.02,6.29,14.02,14.02v10.79h-13.07c-.73,0-1.38.45-1.64,1.12-.26.68-.08,1.45.45,1.94l25.36,23.26c.34.31.77.46,1.19.46s.86-.15,1.19-.46l25.36-23.26c.54-.49.72-1.26.45-1.94-.26-.68-.92-1.12-1.64-1.12h-13.07v-10.79c0-21.28-17.31-38.59-38.59-38.59h-18.25c-.97,0-1.76.79-1.76,1.76s.79,1.76,1.76,1.76h18.25c19.33,0,35.06,15.73,35.06,35.06v12.55c0,.97.79,1.76,1.76,1.76h10.3l-20.82,19.1-20.82-19.1h10.3c.97,0,1.76-.79,1.76-1.76Z"/>
  <path class="cls-1" d="M165.3,141.92s-7.05-3.23-9.46-4.26c2.63-3.81,4.18-8.42,4.18-13.39,0-13.03-10.6-23.63-23.63-23.63s-23.63,10.6-23.63,23.63c0,4.97,1.55,9.58,4.18,13.39-2.4,1.02-9.46,4.26-9.46,4.26-5.86,2.58-14.7,6.49-14.7,17.1v19.21c0,.97.79,1.76,1.76,1.76h83.71c.97,0,1.76-.79,1.76-1.76v-19.21c0-10.61-8.85-14.51-14.7-17.1ZM136.38,104.17c11.09,0,20.1,9.02,20.1,20.1s-9.02,20.1-20.1,20.1-20.1-9.02-20.1-20.1,9.02-20.1,20.1-20.1ZM176.47,176.47h-80.18v-17.45c0-8.31,6.99-11.39,12.6-13.87,0,0,7.61-3.49,10.35-4.63,4.31,4.54,10.4,7.39,17.14,7.39s12.83-2.84,17.14-7.39c2.73,1.14,10.35,4.63,10.35,4.63,5.61,2.48,12.6,5.56,12.6,13.87v17.45Z"/>
  <path class="cls-1" d="M72.53,41.28s-7.05-3.23-9.46-4.26c2.63-3.81,4.18-8.42,4.18-13.39C67.25,10.6,56.65,0,43.62,0s-23.63,10.6-23.63,23.63c0,4.97,1.55,9.58,4.18,13.39-2.4,1.02-9.46,4.25-9.46,4.25C8.85,43.86,0,47.77,0,58.38v19.21c0,.97.79,1.76,1.76,1.76h83.71c.97,0,1.76-.79,1.76-1.76v-19.21c0-10.61-8.85-14.51-14.7-17.1ZM43.62,3.53c11.09,0,20.1,9.02,20.1,20.1s-9.02,20.1-20.1,20.1-20.1-9.02-20.1-20.1S32.53,3.53,43.62,3.53ZM83.71,75.83H3.53v-17.45c0-8.31,6.99-11.39,12.6-13.87,0,0,7.61-3.49,10.35-4.63,4.31,4.54,10.4,7.39,17.14,7.39s12.83-2.84,17.14-7.39c2.73,1.14,10.35,4.63,10.35,4.63,5.61,2.48,12.6,5.56,12.6,13.87v17.45Z"/>
</svg>