<?xml version="1.0" encoding="UTF-8"?>
<svg id="Human_Resources" data-name="Human Resources" xmlns="http://www.w3.org/2000/svg" viewBox="0 0 180 180">
  <defs>
    <style>
      .cls-1 {
        stroke: #000;
        stroke-miterlimit: 10;
        stroke-width: 2px;
      }
    </style>
  </defs>
  <path class="cls-1" d="M122.94,120.06s-10.14-5.7-16.27-9.1c4.63-4.41,7.52-10.63,7.52-17.51,0-13.34-10.85-24.19-24.19-24.19s-24.19,10.85-24.19,24.19c0,6.88,2.89,13.1,7.52,17.51-6.09,3.38-16.27,9.1-16.27,9.1-8.36,4.68-12.97,7.26-12.8,23.2v32c0,.95.77,1.72,1.72,1.72h88.04c.95,0,1.72-.77,1.72-1.72v-31.99c.17-15.96-4.44-18.54-12.8-23.22ZM69.25,93.45c0-11.44,9.31-20.75,20.75-20.75s20.75,9.31,20.75,20.75-9.31,20.75-20.75,20.75-20.75-9.31-20.75-20.75ZM90,117.64c1.48,0,2.92-.14,4.32-.39l7.07,29.42-11.39,11.49-11.39-11.49,7.07-29.42c1.4.25,2.84.39,4.32.39ZM132.3,143.26v30.28h-15.36v-26.15c0-.95-.77-1.72-1.72-1.72s-1.72.77-1.72,1.72v26.15h-46.99v-26.15c0-.95-.77-1.72-1.72-1.72s-1.72.77-1.72,1.72v26.15h-15.36v-30.3c-.15-13.91,3.13-15.75,11.04-20.18,0,0,10.83-6.08,17.46-9.76,1.87,1.31,3.94,2.35,6.14,3.09l-7.31,30.4c-.14.58.03,1.19.45,1.62l13.23,13.35c.32.33.76.51,1.22.51h.11c.46,0,.9-.18,1.22-.51l13.23-13.35c.42-.42.59-1.04.45-1.62l-7.31-30.4c2.21-.74,4.27-1.78,6.14-3.09,6.68,3.7,17.46,9.76,17.46,9.76,7.91,4.43,11.18,6.27,11.04,20.2Z"/>
  <path class="cls-1" d="M178.28,91.72h-4.76c-.91-44.7-37.1-80.89-81.8-81.8v-4.27c0-.95-.77-1.72-1.72-1.72s-1.72.77-1.72,1.72v4.27C43.58,10.84,7.39,47.02,6.48,91.72H1.72C.77,91.72,0,92.49,0,93.45s.77,1.72,1.72,1.72h4.76c.48,23.2,10.63,45.24,28.02,60.71.71.63,1.8.57,2.43-.14.63-.71.57-1.8-.14-2.43-16.66-14.82-26.38-35.92-26.86-58.14h22.17c.28,9.51,2.92,18.85,7.66,27.1.32.55.9.86,1.5.86.29,0,.59-.07.86-.23.82-.47,1.11-1.53.63-2.35-4.44-7.73-6.92-16.47-7.2-25.38h4.36c.95,0,1.72-.77,1.72-1.72s-.77-1.72-1.72-1.72h-4.34c.9-28.67,24.04-51.82,52.72-52.72v4.84c0,.95.77,1.72,1.72,1.72s1.72-.77,1.72-1.72v-4.84c28.67.9,51.82,24.04,52.72,52.72h-4.34c-.95,0-1.72.77-1.72,1.72s.77,1.72,1.72,1.72h4.36c-.28,8.91-2.76,17.65-7.2,25.38-.47.83-.19,1.88.63,2.35.83.48,1.88.19,2.35-.63,4.74-8.25,7.37-17.58,7.66-27.1h22.17c-.48,22.22-10.21,43.32-26.86,58.14-.71.63-.77,1.72-.14,2.43.34.38.81.58,1.29.58.41,0,.82-.14,1.14-.44,17.39-15.47,27.54-37.51,28.02-60.71h4.76c.95,0,1.72-.77,1.72-1.72s-.77-1.72-1.72-1.72ZM32.12,91.72H9.93C10.83,48.92,45.48,14.28,88.28,13.37v22.19c-30.57.9-55.26,25.59-56.16,56.16ZM91.72,35.56V13.37c42.8.91,77.44,35.55,78.35,78.35h-22.19c-.9-30.57-25.59-55.26-56.16-56.16Z"/>
</svg>