<?xml version="1.0" encoding="UTF-8"?>
<svg id="Human_Resources" data-name="Human Resources" xmlns="http://www.w3.org/2000/svg" viewBox="0 0 180 180">
  <defs>
    <style>
      .cls-1 {
        stroke: #000;
        stroke-miterlimit: 10;
        stroke-width: 2px;
      }
    </style>
  </defs>
  <path class="cls-1" d="M69.41,151.22c1.36,0,2.26-.05,2.56-.06.03,0,.05,0,.08,0,4.05,0,7.54-2.99,8.16-7,.69-4.5-2.4-8.73-6.91-9.42-.04,0-.08-.01-.12-.01-14.13-1.17-21.22-8.68-27.47-15.31-3.34-3.55-6.57-6.96-10.55-9.11,7.85-2.87,13.46-10.41,13.46-19.23,0-11.29-9.18-20.47-20.47-20.47s-20.47,9.18-20.47,20.47c0,6.21,2.78,11.78,7.17,15.54C9.72,109.04,0,115.75,0,131.62v40.17c0,.95.77,1.71,1.71,1.71s1.71-.77,1.71-1.71v-40.17c0-16.76,11.81-21.74,14.73-22.71,2.92,1.64,6.28,2.59,9.86,2.62,6.26.74,10.41,5.14,15.21,10.23,6.67,7.07,14.22,15.07,29.61,16.37,2.61.43,4.39,2.89,3.99,5.51-.36,2.35-2.41,4.1-4.78,4.1-.03,0-.06,0-.09,0-.05,0-.09,0-.14,0-.27.02-27.43,1.56-40.81-14.91-.6-.73-1.67-.85-2.41-.25-.73.6-.85,1.67-.25,2.41,1.96,2.42,4.17,4.47,6.53,6.22v30.58c0,.95.77,1.71,1.71,1.71s1.71-.77,1.71-1.71v-28.3c11.6,6.93,25.4,7.73,31.1,7.73ZM11.11,91.06c0-9.4,7.65-17.04,17.04-17.04s17.04,7.65,17.04,17.04-7.65,17.04-17.04,17.04-17.04-7.65-17.04-17.04Z"/>
  <path class="cls-1" d="M165.15,106.6c4.38-3.76,7.17-9.33,7.17-15.54,0-11.29-9.18-20.47-20.47-20.47s-20.47,9.18-20.47,20.47c0,8.83,5.62,16.36,13.46,19.23-3.98,2.16-7.2,5.57-10.55,9.11-6.25,6.63-13.34,14.14-27.47,15.31-.04,0-.08,0-.12.01-4.5.69-7.6,4.92-6.91,9.42.62,4.02,4.11,7,8.16,7,.02,0,.05,0,.08,0,.3.02,1.2.06,2.56.06,5.7,0,19.51-.8,31.1-7.73v28.3c0,.95.77,1.71,1.71,1.71s1.71-.77,1.71-1.71v-30.58c2.36-1.75,4.57-3.81,6.53-6.22.6-.73.48-1.81-.25-2.41-.73-.59-1.81-.48-2.41.25-13.36,16.45-40.54,14.93-40.81,14.91-.05,0-.09,0-.14,0-2.36.03-4.49-1.72-4.86-4.1-.4-2.62,1.38-5.08,3.99-5.51,15.4-1.29,22.95-9.3,29.62-16.37,4.8-5.09,8.95-9.49,15.21-10.23,3.57-.03,6.93-.97,9.85-2.61,2.86.98,14.74,6.08,14.74,22.71v40.17c0,.95.77,1.71,1.71,1.71s1.71-.77,1.71-1.71v-40.17c0-15.87-9.73-22.58-14.85-25.02ZM134.8,91.06c0-9.4,7.65-17.04,17.04-17.04s17.04,7.65,17.04,17.04-7.65,17.04-17.04,17.04-17.04-7.65-17.04-17.04Z"/>
  <path class="cls-1" d="M130.4,157.61H49.6c-.95,0-1.71.77-1.71,1.71s.77,1.71,1.71,1.71h9.24v10.76c0,.95.77,1.71,1.71,1.71s1.71-.77,1.71-1.71v-10.76h55.47v10.76c0,.95.77,1.71,1.71,1.71s1.71-.77,1.71-1.71v-10.76h9.24c.95,0,1.71-.77,1.71-1.71s-.77-1.71-1.71-1.71Z"/>
  <path class="cls-1" d="M90,14.56c1.97,0,3.57-1.6,3.57-3.57s-1.6-3.57-3.57-3.57-3.57,1.6-3.57,3.57,1.6,3.57,3.57,3.57Z"/>
  <path class="cls-1" d="M69.71,17.77c.36,0,.74-.06,1.1-.18.91-.29,1.64-.92,2.08-1.77.43-.85.51-1.82.21-2.72-.3-.91-.92-1.64-1.77-2.08-.85-.43-1.81-.51-2.72-.21-.91.29-1.65.92-2.08,1.77-.43.85-.51,1.82-.21,2.72.49,1.51,1.89,2.47,3.4,2.47Z"/>
  <path class="cls-1" d="M51.4,27.1c.73,0,1.46-.22,2.09-.68.77-.56,1.28-1.39,1.43-2.33.15-.94-.08-1.88-.64-2.66-1.16-1.59-3.39-1.94-4.98-.79-.77.56-1.28,1.39-1.43,2.33-.15.94.08,1.88.64,2.66.7.96,1.79,1.47,2.89,1.47Z"/>
  <path class="cls-1" d="M34.77,40.95c.63.46,1.37.68,2.09.68,1.1,0,2.19-.51,2.89-1.47,1.16-1.59.8-3.83-.79-4.98h0c-1.59-1.16-3.83-.8-4.98.79-1.16,1.59-.8,3.83.79,4.98Z"/>
  <path class="cls-1" d="M26.43,59.77c.37.12.74.17,1.1.17,1.5,0,2.91-.96,3.4-2.47.29-.91.22-1.87-.21-2.72-.43-.85-1.17-1.48-2.08-1.77h0c-1.87-.61-3.89.42-4.5,2.29-.61,1.87.42,3.89,2.29,4.5Z"/>
  <path class="cls-1" d="M109.19,17.6c.37.12.74.18,1.1.18,1.5,0,2.91-.96,3.4-2.47.29-.91.22-1.87-.21-2.72-.43-.85-1.17-1.48-2.08-1.77-.9-.29-1.87-.22-2.72.21-.85.43-1.48,1.17-1.77,2.08-.29.91-.22,1.87.21,2.72.43.85,1.17,1.48,2.08,1.77Z"/>
  <path class="cls-1" d="M126.51,26.42c.63.46,1.37.68,2.09.68,1.11,0,2.2-.51,2.89-1.47,1.16-1.59.8-3.83-.79-4.98-1.59-1.16-3.83-.8-4.98.79-.56.77-.79,1.71-.64,2.66.15.94.66,1.77,1.43,2.33Z"/>
  <path class="cls-1" d="M142.58,41.59c.19.03.38.04.57.04.75,0,1.47-.23,2.09-.68.77-.56,1.28-1.39,1.43-2.33.15-.94-.08-1.88-.64-2.66-1.16-1.59-3.39-1.95-4.98-.79h0c-.77.56-1.28,1.39-1.43,2.33-.15.94.08,1.89.64,2.65.56.77,1.39,1.28,2.33,1.43Z"/>
  <path class="cls-1" d="M152.47,59.94c.36,0,.73-.06,1.1-.18.91-.29,1.64-.92,2.08-1.77.43-.85.51-1.82.21-2.72-.3-.91-.92-1.64-1.77-2.08-.85-.43-1.82-.51-2.72-.21-.91.29-1.64.92-2.08,1.77-.43.85-.51,1.82-.21,2.72.49,1.51,1.89,2.47,3.4,2.47Z"/>
</svg>