<?xml version="1.0" encoding="UTF-8"?>
<svg id="Layer_1" data-name="Layer 1" xmlns="http://www.w3.org/2000/svg" viewBox="0 0 180 180">
  <defs>
    <style>
      .cls-1 {
        stroke: #000;
        stroke-miterlimit: 10;
        stroke-width: 2px;
      }
    </style>
  </defs>
  <path class="cls-1" d="M5.72,94.11h174.28v-43.06H0v43.06h5.72ZM136.58,56.78h37.69v31.61h-37.69v-31.61ZM92.86,56.78h38v31.61h-38v-31.61ZM49.14,56.78h38v31.61h-38v-31.61ZM5.72,56.78h37.69v31.61H5.72v-31.61Z"/>
  <path class="cls-1" d="M174.28,88.75H0v77.53c0,1.58,1.28,2.86,2.86,2.86h174.28c1.58,0,2.86-1.28,2.86-2.86v-77.53h-5.72ZM43.42,163.42H5.72v-31.61h37.69v31.61ZM43.42,126.08H5.72v-31.61h37.69v31.61ZM87.14,163.42h-38v-31.61h38v31.61ZM87.14,126.08h-38v-31.61h38v31.61ZM130.86,163.42h-38v-31.61h38v31.61ZM130.86,126.08h-38v-31.61h38v31.61ZM174.28,163.42h-37.69v-31.61h37.69v31.61ZM174.28,126.08h-37.69v-31.61h37.69v31.61Z"/>
  <path class="cls-1" d="M133.42,10.86h-46.28v40.19h49.14V13.72c0-1.58-1.28-2.86-2.86-2.86ZM130.55,50.77h-37.69V16.58h37.69v34.18Z"/>
  <path class="cls-1" d="M43.72,13.72v37.33s49.14,0,49.14,0v-.29s0-34.18,0-34.18v-5.72s-46.28,0-46.28,0c-1.58,0-2.86,1.28-2.86,2.86ZM49.45,16.58h37.69v34.18h-37.69V16.58Z"/>
</svg>