<?xml version="1.0" encoding="UTF-8"?>
<svg id="Layer_1" data-name="Layer 1" xmlns="http://www.w3.org/2000/svg" viewBox="0 0 180 180">
  <path d="M17.72,176.72c-9.12,0-16.54-7.42-16.54-16.54V33.86c0-9.12,7.42-16.54,16.54-16.54h2.4v-4.51c0-5.25,4.27-9.53,9.53-9.53s9.53,4.27,9.53,9.53v4.51h41.3v-4.51c0-5.25,4.27-9.53,9.53-9.53s9.53,4.27,9.53,9.53v4.51h41.3v-4.51c0-5.25,4.27-9.53,9.53-9.53s9.53,4.27,9.53,9.53v4.51h2.4c9.12,0,16.54,7.42,16.54,16.54v126.32c0,9.12-7.42,16.54-16.54,16.54H17.72ZM6.19,160.18c0,6.36,5.17,11.53,11.53,11.53h144.56c6.36,0,11.53-5.17,11.53-11.53V53.21H6.19v106.97ZM17.72,22.33c-6.36,0-11.53,5.17-11.53,11.53v14.33h167.62v-14.33c0-6.36-5.17-11.53-11.53-11.53h-2.4v4.5c0,5.25-4.27,9.53-9.53,9.53s-9.53-4.27-9.53-9.53v-4.5h-41.3v4.5c0,5.25-4.27,9.53-9.53,9.53s-9.53-4.27-9.53-9.53v-4.5h-41.3v4.5c0,5.25-4.27,9.53-9.53,9.53s-9.53-4.27-9.53-9.53v-4.5h-2.4ZM150.35,8.3c-2.49,0-4.51,2.02-4.51,4.51v14.04c0,2.49,2.02,4.51,4.51,4.51s4.51-2.02,4.51-4.51v-14.04c0-2.49-2.02-4.51-4.51-4.51ZM90,8.3c-2.49,0-4.51,2.02-4.51,4.51v14.04c0,2.49,2.02,4.51,4.51,4.51s4.51-2.02,4.51-4.51v-14.04c0-2.49-2.02-4.51-4.51-4.51ZM29.65,8.3c-2.49,0-4.51,2.02-4.51,4.51v14.04c0,2.49,2.02,4.51,4.51,4.51s4.51-2.02,4.51-4.51v-14.04c0-2.49-2.02-4.51-4.51-4.51Z"/>
  <g>
    <path d="M57.08,114.22c-1.28,0-2.8-.74-3.1-2.37-.5-2.75.47-8.29,1.69-12.06,4.82-14.81,18.68-24.76,34.49-24.76,6.27,0,12.45,1.66,17.9,4.8.18.11.91.62,1.5,1.04,3.69,2.6,4.38,2.99,5.26,2.99h.72l.6-.47,1.01-.83-.35-1.26c-.68-2.42-.42-5.36,2.27-6.5h1.63c1.56.74,2.11,1.46,2.27,2.92.41,3.67.41,13.33,0,16.94-.17,1.52-.84,2.49-3.71,2.94-4.18.66-11.21,1.3-15.05,1.38h-.12c-2.34,0-3.5-1.47-3.61-2.93-.1-1.36.74-3.1,3.43-3.5.17-.03.37-.04.64-.04,0,0,.83.01,1.01.01.32,0,.65-.01.97-.05,1.12-.11,3.54-.35,3.73-2.46l.1-1.15-.95-.66c-3.31-2.31-7.25-4.87-12.15-6.05-2.42-.58-4.88-.88-7.31-.88-14.71,0-27.13,10.87-29.52,25.85-.15.92-.15,1.73-.15,2.45,0,1.14,0,1.96-.54,3.01-.72,1.4-1.97,1.61-2.66,1.61Z"/>
    <path d="M87.71,150.1c-1.03-.3-2.09-.42-3.12-.53-.71-.08-1.38-.15-2-.28-5.44-1.13-10.89-3.7-14.94-7.07l-3.05-2.53-.22,3.96c-.02.31-.03.63-.04.94-.13,2.95-.33,4.13-2,4.78-.51.2-1,.3-1.44.3-1.93,0-2.97-2.09-3.15-4.16-.31-3.67-.28-14.42.43-16.36.59-1.62,1.46-1.81,4.13-2.17l.16-.02c4.79-.65,11.09-1.34,14.41-1.34h.28c2.86.04,3.31,2.25,3.38,2.93.14,1.4-.49,2.98-2.22,3.36-1.63.35-3.78.4-5.67.44l-1.66.04-.54.48c-.54.48-.81,1.17-.74,1.9.18,1.74,3.08,3.73,5.49,5.09,4.68,2.66,9.68,4.01,14.86,4.01,14.7,0,27.13-10.83,29.55-25.75.13-.82.19-1.67.25-2.48.27-3.8.59-4.69,3.17-4.69,1.39,0,1.93.46,2.22.8,1.52,1.79.77,6.47.45,8.47-2.52,15.7-16.61,28.53-32.79,29.88h-5.18Z"/>
  </g>
</svg>