<?xml version="1.0" encoding="UTF-8"?>
<svg id="Layer_1" data-name="Layer 1" xmlns="http://www.w3.org/2000/svg" viewBox="0 0 180 180">
  <defs>
    <style>
      .cls-1 {
        stroke-width: 4px;
      }

      .cls-1, .cls-2 {
        stroke: #000;
        stroke-miterlimit: 10;
      }

      .cls-2 {
        stroke-width: 2px;
      }
    </style>
  </defs>
  <path class="cls-2" d="M130.42,86.82h-4.79c-7.65,0-15.09-2.7-20.96-7.6l-13.43-11.21c-.71-.6-1.75-.6-2.47,0l-13.46,11.22c-5.87,4.89-13.31,7.58-20.95,7.58h-4.78c-1.06,0-1.92.86-1.92,1.92v39.21c0,12.26,6.09,23.63,16.29,30.43l24.99,16.66c.32.22.7.32,1.07.32s.74-.11,1.07-.32l24.99-16.66c10.2-6.8,16.29-18.18,16.29-30.43v-39.21c0-1.06-.86-1.92-1.92-1.92ZM128.5,127.95c0,10.97-5.45,21.15-14.57,27.23l-23.93,15.95-23.93-15.95c-9.12-6.08-14.57-16.26-14.57-27.23v-37.28h2.86c8.54,0,16.85-3.01,23.42-8.48l12.23-10.19,12.2,10.18c6.56,5.47,14.88,8.49,23.43,8.49h2.87v37.28Z"/>
  <path class="cls-1" d="M150,121.47h-15.79v-3.16h15.79c14.8,0,26.84-12.04,26.84-26.84s-12.04-26.84-26.84-26.84c-1.08,0-2.15.09-3.2.21l-1.97.23.22-1.97c.12-1.05.21-2.12.21-3.2,0-14.8-12.04-26.84-26.84-26.84-1.06,0-2.13.08-3.29.24l-1.06.15-.53-.93c-8.73-15.25-25.01-24.72-42.49-24.72-26.99,0-48.95,21.96-48.95,48.95,0,4.14.56,8.29,1.72,12.67l.43,1.65-1.68.31c-11.25,2.05-19.42,11.83-19.42,23.26,0,13.06,10.62,23.68,23.68,23.68h18.95v3.16h-18.95c-14.8,0-26.84-12.04-26.84-26.84,0-12.39,8.47-23.08,20.37-26.02-.96-4.07-1.42-7.97-1.42-11.88,0-28.73,23.37-52.11,52.11-52.11,18.26,0,35.29,9.7,44.7,25.4.91-.09,1.79-.14,2.67-.14,16.54,0,30,13.46,30,30,0,.55-.02,1.09-.06,1.63.54-.03,1.09-.06,1.63-.06,16.54,0,30,13.46,30,30s-13.46,30-30,30Z"/>
</svg>