<?xml version="1.0" encoding="UTF-8"?>
<svg id="Layer_1" data-name="Layer 1" xmlns="http://www.w3.org/2000/svg" viewBox="0 0 180 180">
  <defs>
    <style>
      .cls-1 {
        stroke-width: 2px;
      }

      .cls-1, .cls-2 {
        stroke: #000;
        stroke-miterlimit: 10;
      }

      .cls-2 {
        stroke-width: 2.5px;
      }
    </style>
  </defs>
  <g>
    <g>
      <path d="M37.19,22.61v138.8c0,1.33-4.72,4.19-6.56.23l-.2-143.54c.2-.43,1.64-1.82,1.79-1.82h114.84c.29,0,2.39,2.06,2.12,3l-2.12,3.33H37.19Z"/>
      <path d="M20.92,7.23v138.8c0,.29-2.06,2.39-3,2.12l-3.33-2.12V2.26C14.59,1.96,15.79.89,15.49,0h115.29C133.42,0,134.06,7.23,129.88,7.23H20.92Z"/>
    </g>
    <path d="M165.15,34.36l-3.58-1.85-112.89.22c-2.09.61-2.64,2.74-2.5,4.74.58,8.45.79,17.08.79,25.82h0v114.85c.53,1.11,1.48,1.86,3.28,1.85l86.39-.52c9.4-10.65,20.9-20.04,28.77-31.82l-.26-113.3ZM153.4,151.92c-2.12,2.77-6.87,7.7-9.48,10.42-1.94,2.02-4.54,5.34-7.26,5.85v-18.99h18.09c.39,1.58-.65,1.81-1.35,2.72ZM158.37,142.87h-26.68l-1.36,1.36v28.03l-1.36,1.36H53.47V38.88h104.89v103.99Z"/>
  </g>
  <g>
    <path class="cls-2" d="M106.88,68.56c-20.78,0-37.69,16.91-37.69,37.69s16.91,37.69,37.69,37.69,37.69-16.91,37.69-37.69-16.91-37.69-37.69-37.69ZM106.88,142.2c-19.82,0-35.95-16.13-35.95-35.95s16.13-35.95,35.95-35.95,35.95,16.13,35.95,35.95-16.13,35.95-35.95,35.95Z"/>
    <path class="cls-1" d="M106.88,76.13c-16.61,0-30.13,13.52-30.13,30.13s13.52,30.13,30.13,30.13,30.13-13.52,30.13-30.13-13.52-30.13-30.13-30.13ZM121.81,130.38l-1.66-2.87c-.24-.42-.77-.56-1.19-.32-.42.24-.56.77-.32,1.19l1.66,2.87c-3.76,2.03-8.03,3.22-12.56,3.36v-3.31c0-.48-.39-.87-.87-.87s-.87.39-.87.87v3.31c-4.53-.14-8.8-1.33-12.56-3.36l1.66-2.87c.24-.42.1-.95-.32-1.19-.42-.24-.95-.1-1.19.32l-1.66,2.87c-3.72-2.31-6.87-5.46-9.19-9.19l2.87-1.66c.42-.24.56-.77.32-1.19-.24-.42-.77-.56-1.19-.32l-2.87,1.66c-2.03-3.76-3.22-8.03-3.36-12.56h3.31c.48,0,.87-.39.87-.87s-.39-.87-.87-.87h-3.31c.14-4.53,1.33-8.8,3.36-12.56l2.87,1.66c.14.08.29.12.44.12.3,0,.59-.16.76-.44.24-.42.1-.95-.32-1.19l-2.87-1.66c2.31-3.72,5.46-6.88,9.19-9.19l1.66,2.87c.16.28.45.44.76.44.15,0,.3-.04.44-.12.42-.24.56-.77.32-1.19l-1.66-2.87c3.76-2.03,8.03-3.22,12.56-3.36v3.31c0,.48.39.87.87.87s.87-.39.87-.87v-3.31c4.53.14,8.8,1.33,12.56,3.36l-1.66,2.87c-.24.42-.1.95.32,1.19.14.08.29.12.44.12.3,0,.59-.16.76-.44l1.66-2.87c3.72,2.31,6.88,5.46,9.19,9.19l-2.87,1.66c-.42.24-.56.77-.32,1.19.16.28.45.44.76.44.15,0,.3-.04.44-.12l2.87-1.66c2.03,3.76,3.22,8.03,3.36,12.56h-3.31c-.48,0-.87.39-.87.87s.39.87.87.87h3.31c-.14,4.53-1.33,8.8-3.36,12.56l-2.87-1.66c-.42-.24-.95-.1-1.19.32-.24.42-.1.95.32,1.19l2.87,1.66c-2.31,3.72-5.46,6.88-9.19,9.19Z"/>
    <path class="cls-2" d="M122.63,96.16l-12.15,7.01c-.87-1.02-2.16-1.66-3.6-1.66s-2.73.65-3.6,1.66l-7.72-4.46c-.42-.24-.95-.1-1.19.32-.24.42-.1.95.32,1.19l7.72,4.46c-.17.49-.27,1.02-.27,1.58,0,2.62,2.13,4.75,4.75,4.75s4.75-2.13,4.75-4.75c0-.55-.1-1.08-.27-1.58l12.15-7.01c.42-.24.56-.77.32-1.19-.24-.42-.77-.56-1.19-.32ZM106.88,109.26c-1.66,0-3-1.35-3-3s1.35-3,3-3,3,1.35,3,3-1.35,3-3,3Z"/>
  </g>
</svg>