<?xml version="1.0" encoding="UTF-8"?>
<svg id="Design_UI_Web_Tools" data-name="Design, UI, &amp;amp; Web Tools" xmlns="http://www.w3.org/2000/svg" viewBox="0 0 180 180">
  <defs>
    <style>
      .cls-1 {
        stroke: #000;
        stroke-miterlimit: 10;
        stroke-width: 2px;
      }
    </style>
  </defs>
  <path class="cls-1" d="M21.62,106.69l67.83,22.9c.18.06.37.09.55.09s.37-.03.55-.09l67.83-22.9c.7-.24,1.17-.9,1.17-1.64V25.09c0-.74-.47-1.4-1.17-1.64L90.55.55c-.36-.12-.75-.12-1.1,0L21.62,23.45c-.7.24-1.17.9-1.17,1.64v79.96c0,.74.47,1.4,1.17,1.64ZM23.9,27.49l64.37,21.73v76.32l-64.37-21.73V27.49ZM91.73,125.54V49.22l64.37-21.73v76.32l-64.37,21.73ZM90,4.01l62.43,21.07-62.43,21.07L27.57,25.09,90,4.01Z"/>
  <path class="cls-1" d="M179.56,126.86c-.41-.46-1.03-.67-1.64-.54l-15.45,3.19c-.93.19-1.53,1.11-1.34,2.04.19.93,1.1,1.54,2.04,1.34l9.23-1.91c-29.13,25.19-58.45,29.91-65.7,30.71-.97-8.36-8.09-14.88-16.71-14.88s-15.74,6.52-16.7,14.88c-7.24-.8-36.53-5.48-65.7-30.72l9.23,1.91c.94.2,1.85-.41,2.04-1.34.19-.93-.41-1.85-1.34-2.04l-15.45-3.19c-.61-.12-1.23.08-1.64.54-.41.46-.54,1.11-.35,1.69l4.96,14.97c.24.73.91,1.19,1.64,1.19.18,0,.36-.03.54-.09.91-.3,1.4-1.28,1.1-2.18l-2.9-8.76c30.53,26.42,60.63,30.81,67.83,31.5.78,8.55,7.99,15.28,16.75,15.28s15.97-6.72,16.75-15.28c7.2-.69,37.3-5.08,67.83-31.5l-2.9,8.76c-.3.91.19,1.88,1.1,2.18.18.06.36.09.54.09.72,0,1.4-.46,1.64-1.19l4.96-14.97c.19-.59.06-1.23-.35-1.69ZM90,177.01c-7.37,0-13.37-6-13.37-13.37s6-13.37,13.37-13.37,13.37,6,13.37,13.37-6,13.37-13.37,13.37Z"/>
</svg>