<?xml version="1.0" encoding="UTF-8"?>
<svg id="Design_UI_Web_Tools" data-name="Design, UI, &amp;amp; Web Tools" xmlns="http://www.w3.org/2000/svg" viewBox="0 0 180 180">
  <defs>
    <style>
      .cls-1 {
        stroke: #000;
        stroke-miterlimit: 10;
        stroke-width: 2px;
      }
    </style>
  </defs>
  <path class="cls-1" d="M9.31,108.4c0,1.07.87,1.93,1.93,1.93s1.93-.87,1.93-1.93v-8.66c0-1.07-.87-1.93-1.93-1.93s-1.93.87-1.93,1.93v8.66Z"/>
  <path class="cls-1" d="M9.31,86.99c0,1.07.87,1.93,1.93,1.93s1.93-.87,1.93-1.93v-8.66c0-1.07-.87-1.93-1.93-1.93s-1.93.87-1.93,1.93v8.66Z"/>
  <path class="cls-1" d="M9.31,65.59c0,1.07.87,1.93,1.93,1.93s1.93-.87,1.93-1.93v-8.66c0-1.07-.87-1.93-1.93-1.93s-1.93.87-1.93,1.93v8.66Z"/>
  <path class="cls-1" d="M11.25,46.11c1.07,0,1.93-.87,1.93-1.93v-8.66c0-1.07-.87-1.93-1.93-1.93s-1.93.87-1.93,1.93v8.66c0,1.07.87,1.93,1.93,1.93Z"/>
  <path class="cls-1" d="M80.41,167.59h-8.66c-1.07,0-1.93.87-1.93,1.93s.87,1.93,1.93,1.93h8.66c1.07,0,1.93-.87,1.93-1.93s-.87-1.93-1.93-1.93Z"/>
  <path class="cls-1" d="M101.82,167.59h-8.66c-1.07,0-1.93.87-1.93,1.93s.87,1.93,1.93,1.93h8.66c1.07,0,1.93-.87,1.93-1.93s-.87-1.93-1.93-1.93Z"/>
  <path class="cls-1" d="M123.23,167.59h-8.66c-1.07,0-1.93.87-1.93,1.93s.87,1.93,1.93,1.93h8.66c1.07,0,1.93-.87,1.93-1.93s-.87-1.93-1.93-1.93Z"/>
  <path class="cls-1" d="M144.64,167.59h-8.66c-1.07,0-1.93.87-1.93,1.93s.87,1.93,1.93,1.93h8.66c1.07,0,1.93-.87,1.93-1.93s-.87-1.93-1.93-1.93Z"/>
  <path class="cls-1" d="M98.01,131.02c.49-.25.86-.7,1-1.23,3.95-14.95,16.99-62.96,16.99-62.96.18-.67,0-1.39-.5-1.88s-1.21-.68-1.88-.5c-33.13,9.05-52.52,14.23-62.96,16.99-.53.14-.98.51-1.23,1-.25.5-.27,1.07-.07,1.59,3.49,8.75.62,19.76-7.13,27.94l-5.5-5.5c-.76-.76-1.98-.76-2.73,0l-25.48,25.48c-.36.36-.57.85-.57,1.37s.2,1,.57,1.37l37.24,37.24c.38.38.87.57,1.37.57s.99-.19,1.37-.57l25.48-25.48c.36-.36.57-.85.57-1.37s-.2-1-.57-1.37l-5.5-5.5c8.18-7.75,19.2-10.62,27.94-7.12.51.2,1.09.18,1.59-.07ZM47.14,167.83l-34.5-34.5,22.74-22.74,34.5,34.5-22.74,22.74ZM65.74,135.48l-20.76-20.76c8.24-8.66,11.58-20.28,8.69-30.06,10.01-2.65,26.96-7.19,53.95-14.55l-31.5,31.5c-1.69-.64-3.68-.29-5.04,1.07-1.85,1.85-1.85,4.85,0,6.7.92.92,2.14,1.39,3.35,1.39s2.43-.46,3.35-1.39c1.36-1.36,1.71-3.35,1.07-5.04l31.5-31.5c-6.09,22.34-10.97,40.46-14.55,53.95-9.78-2.89-21.41.45-30.06,8.69Z"/>
  <path class="cls-1" d="M178.07,158.32h-7.61C165,79.02,101.44,15.46,22.14,10V2.4c0-1.07-.87-1.93-1.93-1.93H1.93C.87.46,0,1.33,0,2.4v18.28c0,1.07.87,1.93,1.93,1.93h18.28c1.07,0,1.93-.87,1.93-1.93v-6.8c77.17,5.44,139,67.27,144.44,144.44h-6.79c-1.07,0-1.93.87-1.93,1.93v18.28c0,1.07.87,1.93,1.93,1.93h18.28c1.07,0,1.93-.87,1.93-1.93v-18.28c0-1.07-.87-1.93-1.93-1.93ZM18.28,18.74H3.87V4.33h14.41v14.41ZM176.13,176.6h-14.41v-14.41h14.41v14.41Z"/>
</svg>