<?xml version="1.0" encoding="UTF-8"?>
<svg id="Design_UI_Web_Tools" data-name="Design, UI, &amp;amp; Web Tools" xmlns="http://www.w3.org/2000/svg" viewBox="0 0 180 180">
  <defs>
    <style>
      .cls-1 {
        stroke: #000;
        stroke-miterlimit: 10;
        stroke-width: 2px;
      }
    </style>
  </defs>
  <path class="cls-1" d="M66.54,29.19c0-1.17-.95-2.13-2.13-2.13H28.73c-1.17,0-2.13.95-2.13,2.13v43.05c0,1.17.95,2.13,2.13,2.13h35.69c1.17,0,2.13-.95,2.13-2.13V29.19ZM62.29,70.11h-31.44V31.32h31.44v38.8Z"/>
  <path class="cls-1" d="M64.42,92.31H30.03c-1.17,0-2.13.95-2.13,2.13s.95,2.13,2.13,2.13h34.39c1.17,0,2.13-.95,2.13-2.13s-.95-2.13-2.13-2.13Z"/>
  <path class="cls-1" d="M64.42,114.51H30.03c-1.17,0-2.13.95-2.13,2.13s.95,2.13,2.13,2.13h34.39c1.17,0,2.13-.95,2.13-2.13s-.95-2.13-2.13-2.13Z"/>
  <path class="cls-1" d="M64.42,136.71H30.03c-1.17,0-2.13.95-2.13,2.13s.95,2.13,2.13,2.13h34.39c1.17,0,2.13-.95,2.13-2.13s-.95-2.13-2.13-2.13Z"/>
  <path class="cls-1" d="M104.35,176.21H12.58c-4.59,0-8.32-3.73-8.32-8.32V13.04c0-4.59,3.73-8.32,8.32-8.32h101.35v35.94c0,1.17.95,2.13,2.13,2.13h35.94v18.5c0,1.17.95,2.13,2.13,2.13s2.13-.95,2.13-2.13v-20.67c0-.56-.22-1.11-.62-1.5L117.6,1.09c-.4-.4-.94-.62-1.5-.62H12.58C5.64.46,0,6.1,0,13.04v154.85C0,174.82,5.64,180.46,12.58,180.46h91.77c1.17,0,2.13-.95,2.13-2.13s-.95-2.13-2.13-2.13ZM118.18,7.68l30.85,30.85h-30.85V7.68Z"/>
  <path class="cls-1" d="M179.84,130.16c-.33-.79-1.11-1.31-1.97-1.31h-23.23v-49.06c0-1.17-.95-2.13-2.13-2.13h-44.02c-1.17,0-2.13.95-2.13,2.13v49.06h-23.23c-.86,0-1.64.52-1.97,1.31-.33.79-.15,1.71.46,2.32l47.36,47.36c.42.42.96.62,1.5.62s1.09-.21,1.5-.62l47.36-47.36c.61-.61.79-1.52.46-2.32ZM130.51,175.33l-42.23-42.23h20.22c1.17,0,2.13-.95,2.13-2.13v-49.06h39.76v49.06c0,1.17.95,2.13,2.13,2.13h20.22l-42.23,42.23Z"/>
</svg>