<?xml version="1.0" encoding="UTF-8"?>
<svg id="Design_UI_Web_Tools" data-name="Design, UI, &amp;amp; Web Tools" xmlns="http://www.w3.org/2000/svg" viewBox="0 0 180 180">
  <defs>
    <style>
      .cls-1 {
        stroke: #000;
        stroke-miterlimit: 10;
        stroke-width: 2px;
      }
    </style>
  </defs>
  <path class="cls-1" d="M110.48,73.32h-40.8c-.83-4.99-5.18-8.94-10.26-8.94-.94,0-1.71.76-1.71,1.71s.76,1.71,1.71,1.71c3.73,0,6.99,3.38,6.99,7.23v16.82c0,4.64,3.78,8.42,8.42,8.42h28.93c4.64,0,8.42-3.78,8.42-8.42v-16.82c0-.94-.76-1.71-1.71-1.71ZM108.77,91.84c0,2.76-2.24,5-5,5h-28.93c-2.76,0-5-2.24-5-5v-15.11h38.94v15.11Z"/>
  <circle class="cls-1" cx="76.96" cy="110.01" r="3.6"/>
  <circle class="cls-1" cx="101.66" cy="110.01" r="3.6"/>
  <path class="cls-1" d="M132.86,51.68H47.14c-21.24,0-38.53,17.28-38.53,38.53s17.28,38.53,38.53,38.53c5.37,0,24.12.01,42.86.03,18.74.01,37.49.03,42.86.03,21.24,0,38.53-17.28,38.53-38.53s-17.28-38.58-38.53-38.58ZM132.86,125.38c-5.37,0-24.12-.01-42.86-.03-18.74-.01-37.49-.03-42.86-.03-19.36,0-35.11-15.75-35.11-35.11s15.75-35.11,35.11-35.11h85.72c19.36,0,35.11,15.78,35.11,35.17s-15.75,35.11-35.11,35.11Z"/>
  <path class="cls-1" d="M90,35.75c.94,0,1.71-.76,1.71-1.71V2.17c0-.94-.76-1.71-1.71-1.71s-1.71.76-1.71,1.71v31.87c0,.94.76,1.71,1.71,1.71Z"/>
  <path class="cls-1" d="M52.48,34.9c.32.54.89.85,1.48.85.29,0,.59-.07.86-.23.82-.47,1.09-1.52.62-2.33l-13.67-23.48c-.48-.82-1.52-1.09-2.33-.62-.82.47-1.09,1.52-.62,2.33l13.67,23.48Z"/>
  <path class="cls-1" d="M125.19,35.52c.27.16.57.23.86.23.59,0,1.16-.3,1.48-.85l13.67-23.48c.47-.82.2-1.86-.62-2.33-.81-.47-1.86-.2-2.33.62l-13.67,23.48c-.47.82-.2,1.86.62,2.33Z"/>
  <path class="cls-1" d="M70.33,31.53c.16.82.87,1.39,1.67,1.39.11,0,.21,0,.32-.03.93-.18,1.53-1.07,1.36-2l-2.29-11.99c-.18-.93-1.08-1.53-2-1.36-.93.18-1.53,1.07-1.36,2l2.29,11.99Z"/>
  <path class="cls-1" d="M107.68,32.89c.11.02.22.03.32.03.8,0,1.52-.57,1.67-1.39l2.29-11.99c.18-.93-.43-1.82-1.36-2-.92-.18-1.82.43-2,1.36l-2.29,11.99c-.18.93.43,1.82,1.36,2Z"/>
  <path class="cls-1" d="M90,145.18c-.94,0-1.71.76-1.71,1.71v31.87c0,.94.76,1.71,1.71,1.71s1.71-.76,1.71-1.71v-31.87c0-.94-.76-1.71-1.71-1.71Z"/>
  <path class="cls-1" d="M54.81,145.41c-.81-.47-1.86-.2-2.33.62l-13.67,23.48c-.47.82-.2,1.86.62,2.33.27.16.57.23.86.23.59,0,1.16-.3,1.48-.85l13.67-23.48c.47-.82.2-1.86-.62-2.33Z"/>
  <path class="cls-1" d="M127.52,146.02c-.48-.82-1.52-1.09-2.33-.62-.82.47-1.09,1.52-.62,2.33l13.67,23.48c.32.54.89.85,1.48.85.29,0,.59-.07.86-.23.82-.47,1.09-1.52.62-2.33l-13.67-23.48Z"/>
  <path class="cls-1" d="M72.32,148.04c-.92-.18-1.82.43-2,1.36l-2.29,11.99c-.18.93.43,1.82,1.36,2,.11.02.22.03.32.03.8,0,1.52-.57,1.67-1.39l2.29-11.99c.18-.93-.43-1.82-1.36-2Z"/>
  <path class="cls-1" d="M109.67,149.39c-.18-.93-1.08-1.53-2-1.36-.93.18-1.53,1.07-1.36,2l2.29,11.99c.16.82.87,1.39,1.67,1.39.11,0,.21-.01.32-.03.93-.18,1.53-1.07,1.36-2l-2.29-11.99Z"/>
</svg>