<?xml version="1.0" encoding="UTF-8"?>
<svg id="Design_UI_Web_Tools" data-name="Design, UI, &amp;amp; Web Tools" xmlns="http://www.w3.org/2000/svg" viewBox="0 0 180 180">
  <defs>
    <style>
      .cls-1 {
        stroke: #000;
        stroke-miterlimit: 10;
        stroke-width: 2px;
      }
    </style>
  </defs>
  <path class="cls-1" d="M180,54.99C180,24.92,155.54.46,125.48.46c-13.54,0-25.93,4.97-35.48,13.17C80.46,5.43,68.06.46,54.52.46,24.46.46,0,24.92,0,54.99,0,79.58,16.38,100.42,38.8,107.19c-2.15,5.85-3.32,12.16-3.32,18.75,0,30.06,24.46,54.52,54.52,54.52s54.52-24.46,54.52-54.52c0-6.58-1.17-12.9-3.32-18.75,22.42-6.77,38.8-27.6,38.8-52.2ZM3.69,54.99C3.69,26.96,26.49,4.15,54.52,4.15c12.46,0,23.89,4.52,32.74,11.99-10.06,9.9-16.31,23.65-16.31,38.85,0,6.58,1.17,12.9,3.32,18.75-15.22,4.59-27.65,15.68-34.06,30.02C19.13,97.56,3.69,78.05,3.69,54.99ZM105.36,54.99c0,6.26-1.15,12.26-3.23,17.81-3.9-.89-7.96-1.38-12.13-1.38s-8.23.49-12.13,1.38c-2.08-5.54-3.23-11.54-3.23-17.81,0-14.24,5.89-27.12,15.36-36.36,9.47,9.24,15.36,22.12,15.36,36.36ZM90,91.35c-4.42-4.32-8.06-9.43-10.68-15.1,3.45-.74,7.02-1.14,10.68-1.14s7.24.4,10.68,1.14c-2.62,5.68-6.26,10.79-10.68,15.1ZM104.31,77.17c14.15,4.16,25.74,14.31,31.85,27.51-3.45.74-7.02,1.14-10.68,1.14-12.46,0-23.89-4.52-32.74-11.99,4.83-4.75,8.77-10.4,11.58-16.66ZM87.26,93.83c-8.85,7.47-20.28,11.99-32.74,11.99-3.66,0-7.24-.4-10.68-1.14,6.1-13.2,17.7-23.35,31.85-27.51,2.8,6.27,6.75,11.91,11.58,16.66ZM140.83,125.94c0,28.03-22.8,50.83-50.83,50.83s-50.83-22.8-50.83-50.83c0-6.26,1.15-12.26,3.23-17.81,3.9.89,7.96,1.38,12.13,1.38,13.54,0,25.93-4.97,35.48-13.17,9.54,8.2,21.94,13.17,35.48,13.17,4.17,0,8.23-.49,12.13-1.38,2.08,5.54,3.23,11.54,3.23,17.8ZM139.79,103.76c-6.42-14.34-18.84-25.42-34.06-30.02,2.15-5.85,3.32-12.16,3.32-18.75,0-15.19-6.25-28.95-16.31-38.85,8.85-7.47,20.28-11.99,32.74-11.99,28.03,0,50.83,22.8,50.83,50.83,0,23.06-15.44,42.57-36.52,48.77Z"/>
  <path class="cls-1" d="M44.35,56.17l7.15,11.8c.35.57.96.89,1.58.89.33,0,.66-.09.95-.27.87-.53,1.15-1.66.62-2.53l-6.67-11.01c4.1-2.01,6.94-6.22,6.94-11.1,0-6.82-5.55-12.37-12.37-12.37h-12.35c-1.02,0-1.85.83-1.85,1.85v33.06c0,1.02.83,1.85,1.85,1.85s1.85-.83,1.85-1.85v-10.17h10.51c.61,0,1.21-.06,1.79-.15ZM32.05,35.27h10.51c4.78,0,8.68,3.89,8.68,8.68s-3.89,8.68-8.68,8.68h-10.51v-17.35Z"/>
  <path class="cls-1" d="M151.19,49.25h-6.17c-1.02,0-1.85.83-1.85,1.85s.83,1.85,1.85,1.85h4.33v10.73c-2.08,1.42-5.09,2.34-7.78,2.34-7.36,0-13.34-7.08-13.34-15.79s5.99-15.79,13.34-15.79c2.72,0,5.36.98,7.61,2.84.79.65,1.95.54,2.6-.25.65-.79.54-1.95-.25-2.6-2.92-2.41-6.36-3.69-9.96-3.69-9.39,0-17.03,8.74-17.03,19.48s7.64,19.48,17.03,19.48c3.84,0,8.08-1.45,10.8-3.68.43-.35.67-.87.67-1.42v-13.49c0-1.02-.83-1.85-1.85-1.85Z"/>
  <path class="cls-1" d="M99.23,136.79c2.06-1.84,3.37-4.5,3.37-7.47,0-5.53-4.5-10.02-10.02-10.02h-12.99c-1.02,0-1.85.83-1.85,1.85v35.26c0,1.02.83,1.85,1.85,1.85h14.74c6.23,0,11.3-5.07,11.3-11.3,0-4.47-2.61-8.33-6.39-10.16ZM81.43,122.98h11.14c3.49,0,6.33,2.84,6.33,6.33s-2.84,6.33-6.33,6.33h-11.14v-12.67ZM94.32,154.55h-12.89v-15.21h12.89c4.19,0,7.61,3.41,7.61,7.61s-3.41,7.61-7.61,7.61Z"/>
</svg>