<?xml version="1.0" encoding="UTF-8"?>
<svg id="Design_UI_Web_Tools" data-name="Design, UI, &amp;amp; Web Tools" xmlns="http://www.w3.org/2000/svg" viewBox="0 0 180 180">
  <defs>
    <style>
      .cls-1 {
        stroke: #000;
        stroke-miterlimit: 10;
        stroke-width: 2px;
      }
    </style>
  </defs>
  <path class="cls-1" d="M74.32,60.92H12.71C5.7,60.92,0,66.62,0,73.63v62.23C0,159.85,19.52,179.38,43.52,179.38s43.52-19.52,43.52-43.52v-62.23c0-7.01-5.7-12.71-12.71-12.71ZM83.12,135.86c0,21.84-17.77,39.6-39.6,39.6S3.91,157.7,3.91,135.86v-62.23c0-4.85,3.95-8.8,8.8-8.8h61.61c4.85,0,8.8,3.95,8.8,8.8v62.23Z"/>
  <path class="cls-1" d="M73.03,96.84h-27.56v-22.96c0-1.08-.88-1.96-1.96-1.96s-1.96.88-1.96,1.96v22.96H14c-1.08,0-1.96.88-1.96,1.96s.88,1.96,1.96,1.96h59.03c1.08,0,1.96-.88,1.96-1.96s-.88-1.96-1.96-1.96Z"/>
  <path class="cls-1" d="M175.87,86.68c-1.08,0-1.96.88-1.96,1.96v60.28c0,14.64-11.91,26.55-26.55,26.55s-26.55-11.91-26.55-26.55V41.18c0-21.85-17.78-39.63-39.63-39.63s-39.63,17.78-39.63,39.63v8.69c0,1.08.88,1.96,1.96,1.96s1.96-.88,1.96-1.96v-8.69c0-19.69,16.02-35.71,35.71-35.71s35.71,16.02,35.71,35.71v107.74c0,16.8,13.67,30.46,30.46,30.46s30.46-13.67,30.46-30.46v-60.28c0-1.08-.88-1.96-1.96-1.96Z"/>
  <path class="cls-1" d="M175.87,60.42c-2.28,0-4.13,1.85-4.13,4.13s1.85,4.13,4.13,4.13,4.13-1.85,4.13-4.13-1.85-4.13-4.13-4.13Z"/>
  <path class="cls-1" d="M175.87,38.77c-2.28,0-4.13,1.85-4.13,4.13s1.85,4.13,4.13,4.13,4.13-1.85,4.13-4.13-1.85-4.13-4.13-4.13Z"/>
  <path class="cls-1" d="M175.87,25.39c2.28,0,4.13-1.85,4.13-4.13s-1.85-4.13-4.13-4.13-4.13,1.85-4.13,4.13,1.85,4.13,4.13,4.13Z"/>
</svg>