<?xml version="1.0" encoding="UTF-8"?>
<svg id="Design_UI_Web_Tools" data-name="Design, UI, &amp;amp; Web Tools" xmlns="http://www.w3.org/2000/svg" viewBox="0 0 180 180">
  <defs>
    <style>
      .cls-1 {
        stroke: #000;
        stroke-miterlimit: 10;
        stroke-width: 2px;
      }
    </style>
  </defs>
  <path class="cls-1" d="M177.92.46H2.08C.93.46,0,1.4,0,2.54v175.84c0,1.15.93,2.08,2.08,2.08h78.12c1.15,0,2.08-.93,2.08-2.08s-.93-2.08-2.08-2.08H4.16V30.54h171.67v74.99c0,1.15.93,2.08,2.08,2.08s2.08-.93,2.08-2.08V2.54c0-1.15-.93-2.08-2.08-2.08ZM175.84,4.63v21.75H4.16V4.63h171.67Z"/>
  <circle class="cls-1" cx="160.81" cy="15.04" r="4.4"/>
  <circle class="cls-1" cx="144.28" cy="15.04" r="4.4"/>
  <circle class="cls-1" cx="127.76" cy="15.04" r="4.4"/>
  <path class="cls-1" d="M125.88,129.38c-10.84,0-19.66,8.82-19.66,19.66s8.82,19.66,19.66,19.66,19.66-8.82,19.66-19.66-8.82-19.66-19.66-19.66ZM125.88,164.55c-8.55,0-15.5-6.95-15.5-15.5s6.95-15.5,15.5-15.5,15.5,6.95,15.5,15.5-6.95,15.5-15.5,15.5Z"/>
  <path class="cls-1" d="M125.88,144.65c-2.42,0-4.4,1.97-4.4,4.4s1.97,4.4,4.4,4.4,4.4-1.97,4.4-4.4-1.97-4.4-4.4-4.4Z"/>
  <path class="cls-1" d="M167.19,135.31l5.78-6.58c.76-.86.67-2.18-.19-2.94-.86-.76-2.18-.67-2.94.19l-5.89,6.7c-4.15-3.23-8.99-6.46-14.35-9.09l5-9.63c.53-1.02.13-2.28-.89-2.81-1.02-.53-2.28-.13-2.81.89l-5.11,9.83c-5.53-2.3-11.53-3.88-17.83-4.17v-11.02c0-1.15-.93-2.08-2.08-2.08s-2.08.93-2.08,2.08v11.02c-6.31.29-12.3,1.87-17.84,4.17l-5.11-9.83c-.53-1.02-1.79-1.42-2.81-.89-1.02.53-1.42,1.79-.89,2.81l5,9.63c-5.36,2.64-10.2,5.86-14.35,9.09l-5.89-6.7c-.76-.86-2.07-.95-2.94-.19-.86.76-.95,2.07-.19,2.94l5.78,6.58c-7.39,6.26-11.94,11.91-12.36,12.44-.6.76-.6,1.83,0,2.59.98,1.23,24.26,30.12,53.67,30.12s52.69-28.89,53.67-30.12c.6-.76.6-1.83,0-2.59-.42-.53-4.98-6.18-12.36-12.44ZM125.88,176.3c-23.98,0-44.44-21.67-49.31-27.25,4.86-5.58,25.3-27.25,49.31-27.25s44.44,21.67,49.31,27.25c-4.86,5.58-25.3,27.25-49.31,27.25Z"/>
  <path class="cls-1" d="M38.15,108.51c-8.29,0-15.04,6.75-15.04,15.04s6.75,15.04,15.04,15.04,15.04-6.75,15.04-15.04-6.75-15.04-15.04-15.04ZM38.15,134.42c-6,0-10.87-4.88-10.87-10.87s4.88-10.87,10.87-10.87,10.87,4.88,10.87,10.87-4.88,10.87-10.87,10.87Z"/>
  <path class="cls-1" d="M88.94,69.19c-.97.61-1.27,1.9-.65,2.87.4.63,1.07.97,1.76.97.38,0,.76-.1,1.11-.32l9.28-5.84c.61-.38.97-1.05.97-1.76s-.37-1.38-.97-1.76l-9.28-5.84c-.97-.61-2.26-.32-2.87.65-.61.97-.32,2.26.65,2.87l3.17,2h-39.08c-1.02-7.31-7.29-12.96-14.88-12.96-8.29,0-15.04,6.75-15.04,15.04s6.75,15.04,15.04,15.04c7.58,0,13.86-5.65,14.88-12.96h39.08l-3.17,2ZM38.15,75.98c-6,0-10.87-4.88-10.87-10.87s4.88-10.87,10.87-10.87,10.87,4.88,10.87,10.87-4.88,10.87-10.87,10.87Z"/>
  <path class="cls-1" d="M64.96,110.31l10.96.51s.07,0,.1,0c1.11,0,2.03-.87,2.08-1.99.05-1.15-.83-2.12-1.98-2.18l-3.7-.17,57.56-32.35c2.75,3.64,7.1,6.01,12,6.01,8.29,0,15.04-6.75,15.04-15.04s-6.75-15.04-15.04-15.04-15.04,6.75-15.04,15.04c0,1.9.37,3.71,1.02,5.39l-57.66,32.4,1.8-3.34c.55-1.01.17-2.27-.85-2.82-1.01-.54-2.28-.17-2.82.85l-5.2,9.66c-.34.63-.33,1.39.02,2.01.35.62,1,1.02,1.72,1.05ZM141.97,54.24c6,0,10.87,4.88,10.87,10.87s-4.88,10.87-10.87,10.87-10.87-4.88-10.87-10.87,4.88-10.87,10.87-10.87Z"/>
</svg>