<?xml version="1.0" encoding="UTF-8"?>
<svg id="Design_UI_Web_Tools" data-name="Design, UI, &amp;amp; Web Tools" xmlns="http://www.w3.org/2000/svg" viewBox="0 0 180 180">
  <defs>
    <style>
      .cls-1 {
        stroke: #000;
        stroke-miterlimit: 10;
        stroke-width: 2px;
      }
    </style>
  </defs>
  <path class="cls-1" d="M90.39,158.37H11.2c-4.12,0-7.47-3.35-7.47-7.47V12.58c0-4.12,3.35-7.47,7.47-7.47h90.56v32.14c0,1.03.84,1.87,1.87,1.87h32.14v10.03c0,1.03.84,1.87,1.87,1.87s1.87-.84,1.87-1.87v-11.9c0-.46-.17-.88-.45-1.2-.02-.06-34.07-34.13-34.07-34.13-.35-.35-.83-.55-1.32-.55H11.2C5.03,1.38,0,6.4,0,12.58v138.32C0,157.08,5.03,162.1,11.2,162.1h79.18c1.03,0,1.87-.84,1.87-1.87s-.84-1.87-1.87-1.87ZM105.5,7.72l27.67,27.67h-27.67V7.72Z"/>
  <path class="cls-1" d="M107.62,63.59h-26.9c-1.03,0-1.87.84-1.87,1.87s.84,1.87,1.87,1.87h26.9c1.03,0,1.87-.84,1.87-1.87s-.84-1.87-1.87-1.87Z"/>
  <path class="cls-1" d="M109.49,85.29c0-1.03-.84-1.87-1.87-1.87H26.79c-1.03,0-1.87.84-1.87,1.87s.84,1.87,1.87,1.87h80.83c1.03,0,1.87-.84,1.87-1.87Z"/>
  <path class="cls-1" d="M97.55,105.12c0-1.03-.84-1.87-1.87-1.87H26.79c-1.03,0-1.87.84-1.87,1.87s.84,1.87,1.87,1.87h68.89c1.03,0,1.87-.84,1.87-1.87Z"/>
  <path class="cls-1" d="M26.79,123.08c-1.03,0-1.87.84-1.87,1.87s.84,1.87,1.87,1.87h34.89c1.03,0,1.87-.84,1.87-1.87s-.84-1.87-1.87-1.87H26.79Z"/>
  <path class="cls-1" d="M26.21,67.24c.98.32,2.04-.22,2.35-1.2l3.3-10.19h24.73l3.3,10.19c.26.79.99,1.29,1.78,1.29.19,0,.38-.03.58-.09.98-.32,1.52-1.37,1.2-2.35l-12.46-38.48c-.25-.77-.97-1.29-1.78-1.29h-9.96c-.81,0-1.53.52-1.78,1.29l-12.46,38.48c-.32.98.22,2.04,1.2,2.35ZM40.61,28.85h7.24l7.54,23.27h-22.31l7.54-23.27Z"/>
  <path class="cls-1" d="M174.67,42.37c-8.09-4.67-21.75,6.18-31.77,16.11-12.46,12.33-25.42,29.26-34.67,45.29-8.77,15.18-13.14,27.86-13.01,37.69.11,8.19,3.26,14.44,9.36,18.59l-9.64,16.69c-.52.89-.21,2.04.68,2.55.29.17.62.25.93.25.65,0,1.27-.34,1.62-.93l9.64-16.7c2.65,1.27,5.66,2.12,9,2.12,9.52,0,21.7-6.79,35.7-29.7.74-1.21,1.49-2.47,2.21-3.73.84-1.46-.09-2.41-.28-2.59-1.21-1.09-2.34-.28-3.9.85-.45.32-1,.72-1.63,1.15,6.28-5.43,12.51-12,13.4-13.85,11.73-24.52,25.47-66.24,12.37-73.8ZM158.93,114.56c-1.17,2.44-16.42,17.42-22.11,19.45-.77.28-1.28,1.02-1.24,1.84.04.82.6,1.52,1.4,1.73,3.48.9,7.3-.49,10.5-2.26-8.12,12.58-19.07,24.95-30.72,24.95-2.33,0-4.7-.51-7.07-1.6l44.11-76.4c.52-.89.21-2.04-.68-2.55-.89-.52-2.04-.21-2.55.68l-44.11,76.4c-4.88-3.45-7.41-8.62-7.5-15.39-.12-9.15,4.09-21.18,12.51-35.77,9.1-15.76,21.83-32.4,34.07-44.51,10.5-10.4,19.38-16.16,24.67-16.16,1,0,1.88.21,2.61.63,8.12,4.69,1.77,36.27-13.87,68.95Z"/>
</svg>