<?xml version="1.0" encoding="UTF-8"?>
<svg id="Design_UI_Web_Tools" data-name="Design, UI, &amp;amp; Web Tools" xmlns="http://www.w3.org/2000/svg" viewBox="0 0 180 180">
  <defs>
    <style>
      .cls-1 {
        stroke: #000;
        stroke-miterlimit: 10;
        stroke-width: 2px;
      }
    </style>
  </defs>
  <path class="cls-1" d="M171.24,68.29h-16.17c-1.06,0-1.92.86-1.92,1.92s.86,1.92,1.92,1.92h14.24v50.31h-34.83c-1.06,0-1.92.86-1.92,1.92s.86,1.92,1.92,1.92h34.83v50.31h-50.31v-31.05c0-1.06-.86-1.92-1.92-1.92s-1.92.86-1.92,1.92v31.05h-50.31v-50.31h21.12c1.06,0,1.92-.86,1.92-1.92s-.86-1.92-1.92-1.92h-21.12v-50.31h38.45c1.06,0,1.92-.86,1.92-1.92s-.86-1.92-1.92-1.92H8.76c-1.06,0-1.92.86-1.92,1.92v108.32c0,1.06.86,1.92,1.92,1.92h162.49c1.06,0,1.92-.86,1.92-1.92v-108.32c0-1.06-.86-1.92-1.92-1.92ZM10.68,72.14h50.31v50.31H10.68v-50.31ZM10.68,126.3h50.31v50.31H10.68v-50.31Z"/>
  <path class="cls-1" d="M116.42,48.17l5.24,1.99-25.38,66.77c-1.37,3.6-.26,6.83.71,9.67.44,1.29.86,2.5,1.02,3.66.16,1.14.18,2.16.2,3.15.05,2.71.11,5.78,4.17,7.33.94.36,1.77.51,2.52.51,2.49,0,4.05-1.69,5.46-3.22.67-.73,1.37-1.48,2.24-2.23.89-.76,2.01-1.39,3.19-2.06,2.62-1.48,5.59-3.17,6.96-6.77l25.37-66.76,5.24,1.99c.22.08.45.13.68.13.36,0,.71-.1,1.03-.3,5.52-3.47,4.03-8.62,2.84-12.76-.79-2.72-1.53-5.29-.7-7.46l7.42-19.52c3.15-8.3-1.03-17.62-9.33-20.78-8.3-3.15-17.62,1.03-20.78,9.33l-7.42,19.52c-.83,2.17-3.09,3.6-5.48,5.11-3.64,2.3-8.18,5.16-6.36,11.42.17.58.6,1.05,1.16,1.26ZM119.16,125.61c-.88,2.3-2.91,3.45-5.26,4.79-1.29.73-2.62,1.48-3.79,2.48-1.05.89-1.86,1.77-2.57,2.55-1.89,2.05-2.26,2.3-3.79,1.72-1.53-.58-1.64-1.02-1.69-3.8-.02-1.05-.04-2.25-.23-3.61-.21-1.52-.71-2.97-1.19-4.37-.87-2.55-1.63-4.76-.76-7.06l3.74-9.84,3.32,1.26c.23.09.46.13.68.13.78,0,1.51-.47,1.8-1.24.38-.99-.12-2.1-1.11-2.48l-3.32-1.26,3.63-9.56,3.32,1.26c.22.09.46.13.68.13.78,0,1.51-.47,1.8-1.24.38-.99-.12-2.1-1.11-2.48l-3.32-1.26,3.63-9.56,3.32,1.26c.22.09.46.13.68.13.78,0,1.51-.47,1.8-1.24.38-.99-.12-2.1-1.11-2.48l-3.32-1.26,3.63-9.56,3.32,1.26c.23.09.46.13.68.13.78,0,1.51-.47,1.8-1.24.38-.99-.12-2.1-1.11-2.48l-3.32-1.26,5.27-13.87,19.27,7.32-25.37,66.76ZM123.67,38.74c2.69-1.7,5.74-3.63,7.02-7l7.42-19.52c2.4-6.32,9.5-9.5,15.81-7.1,6.32,2.4,9.5,9.49,7.1,15.81l-7.42,19.52c-1.28,3.37-.28,6.84.6,9.9,1.12,3.87,1.64,6.14-.45,7.9l-35.01-13.3c-.39-2.7,1.51-4.05,4.91-6.2Z"/>
  <path class="cls-1" d="M35.84,58.09c11.7,0,21.21-9.52,21.21-21.21C57.05,20.5,37.99,1.79,37.18,1.01c-.75-.73-1.94-.73-2.68,0-.81.79-19.87,19.49-19.87,35.87,0,11.7,9.52,21.21,21.21,21.21ZM35.84,5.14c4.29,4.52,17.36,19.32,17.36,31.73,0,9.58-7.79,17.36-17.37,17.36s-17.36-7.79-17.36-17.36c0-12.39,13.08-27.21,17.37-31.73Z"/>
</svg>