<?xml version="1.0" encoding="UTF-8"?>
<svg id="Design_UI_Web_Tools" data-name="Design, UI, &amp;amp; Web Tools" xmlns="http://www.w3.org/2000/svg" viewBox="0 0 180 180">
  <defs>
    <style>
      .cls-1 {
        stroke: #000;
        stroke-miterlimit: 10;
        stroke-width: 2px;
      }
    </style>
  </defs>
  <path class="cls-1" d="M32.87,173.81c-1.18,0-2.14.96-2.14,2.14v.24h-.24c-1.18,0-2.14.96-2.14,2.14s.96,2.14,2.14,2.14h2.37c1.18,0,2.14-.96,2.14-2.14v-2.37c0-1.18-.96-2.14-2.14-2.14Z"/>
  <path class="cls-1" d="M19.47,176.19h-3.94c-1.18,0-2.14.96-2.14,2.14s.96,2.14,2.14,2.14h3.94c1.18,0,2.14-.96,2.14-2.14s-.96-2.14-2.14-2.14Z"/>
  <path class="cls-1" d="M4.51,176.19h-.24v-.24c0-1.18-.96-2.14-2.14-2.14S0,174.77,0,175.95v2.37c0,1.18.96,2.14,2.14,2.14h2.37c1.18,0,2.14-.96,2.14-2.14s-.96-2.14-2.14-2.14Z"/>
  <path class="cls-1" d="M2.14,94.91c1.18,0,2.14-.96,2.14-2.14v-4.62c0-1.18-.96-2.14-2.14-2.14S0,86.97,0,88.15v4.62c0,1.18.96,2.14,2.14,2.14Z"/>
  <path class="cls-1" d="M2.14,7.11c1.18,0,2.14-.96,2.14-2.14v-.24h.24c1.18,0,2.14-.96,2.14-2.14S5.69.46,4.51.46h-2.37C.96.46,0,1.42,0,2.6v2.37C0,6.15.96,7.11,2.14,7.11Z"/>
  <path class="cls-1" d="M15.54,4.74h3.94c1.18,0,2.14-.96,2.14-2.14s-.96-2.14-2.14-2.14h-3.94c-1.18,0-2.14.96-2.14,2.14s.96,2.14,2.14,2.14Z"/>
  <path class="cls-1" d="M30.5,4.74h.24v.24c0,1.18.96,2.14,2.14,2.14s2.14-.96,2.14-2.14v-2.37c0-1.18-.96-2.14-2.14-2.14h-2.37c-1.18,0-2.14.96-2.14,2.14s.96,2.14,2.14,2.14Z"/>
  <path class="cls-1" d="M32.87,138.69c-1.18,0-2.14.96-2.14,2.14v4.62c0,1.18.96,2.14,2.14,2.14s2.14-.96,2.14-2.14v-4.62c0-1.18-.96-2.14-2.14-2.14Z"/>
  <path class="cls-1" d="M32.87,121.13c-1.18,0-2.14.96-2.14,2.14v4.62c0,1.18.96,2.14,2.14,2.14s2.14-.96,2.14-2.14v-4.62c0-1.18-.96-2.14-2.14-2.14Z"/>
  <path class="cls-1" d="M32.87,86.01c-1.18,0-2.14.96-2.14,2.14v4.62c0,1.18.96,2.14,2.14,2.14s2.14-.96,2.14-2.14v-4.62c0-1.18-.96-2.14-2.14-2.14Z"/>
  <path class="cls-1" d="M81.2,173.81c-1.18,0-2.14.96-2.14,2.14v.24h-.24c-1.18,0-2.14.96-2.14,2.14s.96,2.14,2.14,2.14h2.37c1.18,0,2.14-.96,2.14-2.14v-2.37c0-1.18-.96-2.14-2.14-2.14Z"/>
  <path class="cls-1" d="M67.8,176.19h-3.94c-1.18,0-2.14.96-2.14,2.14s.96,2.14,2.14,2.14h3.94c1.18,0,2.14-.96,2.14-2.14s-.96-2.14-2.14-2.14Z"/>
  <path class="cls-1" d="M52.84,176.19h-.24v-.24c0-1.18-.96-2.14-2.14-2.14s-2.14.96-2.14,2.14v2.37c0,1.18.96,2.14,2.14,2.14h2.37c1.18,0,2.14-.96,2.14-2.14s-.96-2.14-2.14-2.14Z"/>
  <path class="cls-1" d="M50.47,138.69c-1.18,0-2.14.96-2.14,2.14v4.62c0,1.18.96,2.14,2.14,2.14s2.14-.96,2.14-2.14v-4.62c0-1.18-.96-2.14-2.14-2.14Z"/>
  <path class="cls-1" d="M50.47,121.13c-1.18,0-2.14.96-2.14,2.14v4.62c0,1.18.96,2.14,2.14,2.14s2.14-.96,2.14-2.14v-4.62c0-1.18-.96-2.14-2.14-2.14Z"/>
  <path class="cls-1" d="M50.47,94.91c1.18,0,2.14-.96,2.14-2.14v-4.62c0-1.18-.96-2.14-2.14-2.14s-2.14.96-2.14,2.14v4.62c0,1.18.96,2.14,2.14,2.14Z"/>
  <path class="cls-1" d="M50.47,7.11c1.18,0,2.14-.96,2.14-2.14v-.24h.24c1.18,0,2.14-.96,2.14-2.14s-.96-2.14-2.14-2.14h-2.37c-1.18,0-2.14.96-2.14,2.14v2.37c0,1.18.96,2.14,2.14,2.14Z"/>
  <path class="cls-1" d="M63.87,4.74h3.94c1.18,0,2.14-.96,2.14-2.14s-.96-2.14-2.14-2.14h-3.94c-1.18,0-2.14.96-2.14,2.14s.96,2.14,2.14,2.14Z"/>
  <path class="cls-1" d="M78.83,4.74h.24v.24c0,1.18.96,2.14,2.14,2.14s2.14-.96,2.14-2.14v-2.37c0-1.18-.96-2.14-2.14-2.14h-2.37c-1.18,0-2.14.96-2.14,2.14s.96,2.14,2.14,2.14Z"/>
  <path class="cls-1" d="M81.2,86.01c-1.18,0-2.14.96-2.14,2.14v4.62c0,1.18.96,2.14,2.14,2.14s2.14-.96,2.14-2.14v-4.62c0-1.18-.96-2.14-2.14-2.14Z"/>
  <path class="cls-1" d="M81.2,50.89c-1.18,0-2.14.96-2.14,2.14v4.62c0,1.18.96,2.14,2.14,2.14s2.14-.96,2.14-2.14v-4.62c0-1.18-.96-2.14-2.14-2.14Z"/>
  <path class="cls-1" d="M81.2,33.33c-1.18,0-2.14.96-2.14,2.14v4.62c0,1.18.96,2.14,2.14,2.14s2.14-.96,2.14-2.14v-4.62c0-1.18-.96-2.14-2.14-2.14Z"/>
  <path class="cls-1" d="M129.53,173.81c-1.18,0-2.14.96-2.14,2.14v.24h-.24c-1.18,0-2.14.96-2.14,2.14s.96,2.14,2.14,2.14h2.37c1.18,0,2.14-.96,2.14-2.14v-2.37c0-1.18-.96-2.14-2.14-2.14Z"/>
  <path class="cls-1" d="M116.13,176.19h-3.94c-1.18,0-2.14.96-2.14,2.14s.96,2.14,2.14,2.14h3.94c1.18,0,2.14-.96,2.14-2.14s-.96-2.14-2.14-2.14Z"/>
  <path class="cls-1" d="M101.17,176.19h-.24v-.24c0-1.18-.96-2.14-2.14-2.14s-2.14.96-2.14,2.14v2.37c0,1.18.96,2.14,2.14,2.14h2.37c1.18,0,2.14-.96,2.14-2.14s-.96-2.14-2.14-2.14Z"/>
  <path class="cls-1" d="M98.8,94.91c1.18,0,2.14-.96,2.14-2.14v-4.62c0-1.18-.96-2.14-2.14-2.14s-2.14.96-2.14,2.14v4.62c0,1.18.96,2.14,2.14,2.14Z"/>
  <path class="cls-1" d="M98.8,50.9c-1.18,0-2.14.96-2.14,2.14v4.62c0,1.18.96,2.14,2.14,2.14s2.14-.96,2.14-2.14v-4.62c0-1.18-.96-2.14-2.14-2.14Z"/>
  <path class="cls-1" d="M98.8,33.33c-1.18,0-2.14.96-2.14,2.14v4.62c0,1.18.96,2.14,2.14,2.14s2.14-.96,2.14-2.14v-4.62c0-1.18-.96-2.14-2.14-2.14Z"/>
  <path class="cls-1" d="M98.8,7.11c1.18,0,2.14-.96,2.14-2.14v-.24h.24c1.18,0,2.14-.96,2.14-2.14s-.96-2.14-2.14-2.14h-2.37c-1.18,0-2.14.96-2.14,2.14v2.37c0,1.18.96,2.14,2.14,2.14Z"/>
  <path class="cls-1" d="M112.2,4.74h3.94c1.18,0,2.14-.96,2.14-2.14s-.96-2.14-2.14-2.14h-3.94c-1.18,0-2.14.96-2.14,2.14s.96,2.14,2.14,2.14Z"/>
  <path class="cls-1" d="M127.16,4.74h.24v.24c0,1.18.96,2.14,2.14,2.14s2.14-.96,2.14-2.14v-2.37c0-1.18-.96-2.14-2.14-2.14h-2.37c-1.18,0-2.14.96-2.14,2.14s.96,2.14,2.14,2.14Z"/>
  <path class="cls-1" d="M129.53,138.69c-1.18,0-2.14.96-2.14,2.14v4.62c0,1.18.96,2.14,2.14,2.14s2.14-.96,2.14-2.14v-4.62c0-1.18-.96-2.14-2.14-2.14Z"/>
  <path class="cls-1" d="M129.53,121.13c-1.18,0-2.14.96-2.14,2.14v4.62c0,1.18.96,2.14,2.14,2.14s2.14-.96,2.14-2.14v-4.62c0-1.18-.96-2.14-2.14-2.14Z"/>
  <path class="cls-1" d="M131.67,92.77v-4.62c0-1.18-.96-2.14-2.14-2.14s-2.14.96-2.14,2.14v4.62c0,1.18.96,2.14,2.14,2.14s2.14-.96,2.14-2.14Z"/>
  <path class="cls-1" d="M129.53,50.89c-1.18,0-2.14.96-2.14,2.14v4.62c0,1.18.96,2.14,2.14,2.14s2.14-.96,2.14-2.14v-4.62c0-1.18-.96-2.14-2.14-2.14Z"/>
  <path class="cls-1" d="M129.53,33.33c-1.18,0-2.14.96-2.14,2.14v4.62c0,1.18.96,2.14,2.14,2.14s2.14-.96,2.14-2.14v-4.62c0-1.18-.96-2.14-2.14-2.14Z"/>
  <path class="cls-1" d="M177.86,173.81c-1.18,0-2.14.96-2.14,2.14v.24h-.24c-1.18,0-2.14.96-2.14,2.14s.96,2.14,2.14,2.14h2.37c1.18,0,2.14-.96,2.14-2.14v-2.37c0-1.18-.96-2.14-2.14-2.14Z"/>
  <path class="cls-1" d="M164.46,176.19h-3.94c-1.18,0-2.14.96-2.14,2.14s.96,2.14,2.14,2.14h3.94c1.18,0,2.14-.96,2.14-2.14s-.96-2.14-2.14-2.14Z"/>
  <path class="cls-1" d="M149.5,176.19h-.24v-.24c0-1.18-.96-2.14-2.14-2.14s-2.14.96-2.14,2.14v2.37c0,1.18.96,2.14,2.14,2.14h2.37c1.18,0,2.14-.96,2.14-2.14s-.96-2.14-2.14-2.14Z"/>
  <path class="cls-1" d="M147.12,138.69c-1.18,0-2.14.96-2.14,2.14v4.62c0,1.18.96,2.14,2.14,2.14s2.14-.96,2.14-2.14v-4.62c0-1.18-.96-2.14-2.14-2.14Z"/>
  <path class="cls-1" d="M147.12,121.13c-1.18,0-2.14.96-2.14,2.14v4.62c0,1.18.96,2.14,2.14,2.14s2.14-.96,2.14-2.14v-4.62c0-1.18-.96-2.14-2.14-2.14Z"/>
  <path class="cls-1" d="M149.26,92.77v-4.62c0-1.18-.96-2.14-2.14-2.14s-2.14.96-2.14,2.14v4.62c0,1.18.96,2.14,2.14,2.14s2.14-.96,2.14-2.14Z"/>
  <path class="cls-1" d="M147.12,50.9c-1.18,0-2.14.96-2.14,2.14v4.62c0,1.18.96,2.14,2.14,2.14s2.14-.96,2.14-2.14v-4.62c0-1.18-.96-2.14-2.14-2.14Z"/>
  <path class="cls-1" d="M147.12,33.33c-1.18,0-2.14.96-2.14,2.14v4.62c0,1.18.96,2.14,2.14,2.14s2.14-.96,2.14-2.14v-4.62c0-1.18-.96-2.14-2.14-2.14Z"/>
  <path class="cls-1" d="M147.12,7.11c1.18,0,2.14-.96,2.14-2.14v-.24h.24c1.18,0,2.14-.96,2.14-2.14s-.96-2.14-2.14-2.14h-2.37c-1.18,0-2.14.96-2.14,2.14v2.37c0,1.18.96,2.14,2.14,2.14Z"/>
  <path class="cls-1" d="M160.52,4.74h3.94c1.18,0,2.14-.96,2.14-2.14s-.96-2.14-2.14-2.14h-3.94c-1.18,0-2.14.96-2.14,2.14s.96,2.14,2.14,2.14Z"/>
  <path class="cls-1" d="M177.86.46h-2.37c-1.18,0-2.14.96-2.14,2.14s.96,2.14,2.14,2.14h.24v.24c0,1.18.96,2.14,2.14,2.14s2.14-.96,2.14-2.14v-2.37c0-1.18-.96-2.14-2.14-2.14Z"/>
  <path class="cls-1" d="M177.86,86.01c-1.18,0-2.14.96-2.14,2.14v4.62c0,1.18.96,2.14,2.14,2.14s2.14-.96,2.14-2.14v-4.62c0-1.18-.96-2.14-2.14-2.14Z"/>
  <path class="cls-1" d="M177.86,15.46H50.47c-1.18,0-2.14.96-2.14,2.14v57.89c0,1.18.96,2.14,2.14,2.14h127.4c1.18,0,2.14-.96,2.14-2.14V17.6c0-1.18-.96-2.14-2.14-2.14ZM175.73,73.35h-26.46v-2.76c0-1.18-.96-2.14-2.14-2.14s-2.14.96-2.14,2.14v2.76h-13.32v-2.76c0-1.18-.96-2.14-2.14-2.14s-2.14.96-2.14,2.14v2.76h-26.46v-2.76c0-1.18-.96-2.14-2.14-2.14s-2.14.96-2.14,2.14v2.76h-13.32v-2.76c0-1.18-.96-2.14-2.14-2.14s-2.14.96-2.14,2.14v2.76h-26.46V19.74h26.46v2.8c0,1.18.96,2.14,2.14,2.14s2.14-.96,2.14-2.14v-2.8h13.32v2.8c0,1.18.96,2.14,2.14,2.14s2.14-.96,2.14-2.14v-2.8h26.46v2.8c0,1.18.96,2.14,2.14,2.14s2.14-.96,2.14-2.14v-2.8h13.32v2.8c0,1.18.96,2.14,2.14,2.14s2.14-.96,2.14-2.14v-2.8h26.46v53.61Z"/>
  <path class="cls-1" d="M2.14,77.63h30.74c1.18,0,2.14-.96,2.14-2.14V17.6c0-1.18-.96-2.14-2.14-2.14H2.14C.96,15.46,0,16.42,0,17.6v57.89c0,1.18.96,2.14,2.14,2.14ZM4.27,19.74h26.46v53.61H4.27V19.74Z"/>
  <path class="cls-1" d="M81.2,103.39H2.14C.96,103.39,0,104.34,0,105.52v57.89c0,1.18.96,2.14,2.14,2.14h79.07c1.18,0,2.14-.96,2.14-2.14v-57.89c0-1.18-.96-2.14-2.14-2.14ZM79.07,161.28h-26.46v-2.88c0-1.18-.96-2.14-2.14-2.14s-2.14.96-2.14,2.14v2.88h-13.32v-2.88c0-1.18-.96-2.14-2.14-2.14s-2.14.96-2.14,2.14v2.88H4.27v-53.61h26.46v2.67c0,1.18.96,2.14,2.14,2.14s2.14-.96,2.14-2.14v-2.67h13.32v2.67c0,1.18.96,2.14,2.14,2.14s2.14-.96,2.14-2.14v-2.67h26.46v53.61Z"/>
  <path class="cls-1" d="M177.86,103.39h-79.07c-1.18,0-2.14.96-2.14,2.14v57.89c0,1.18.96,2.14,2.14,2.14h79.07c1.18,0,2.14-.96,2.14-2.14v-57.89c0-1.18-.96-2.14-2.14-2.14ZM175.73,161.28h-26.46v-2.88c0-1.18-.96-2.14-2.14-2.14s-2.14.96-2.14,2.14v2.88h-13.32v-2.88c0-1.18-.96-2.14-2.14-2.14s-2.14.96-2.14,2.14v2.88h-26.46v-53.61h26.46v2.67c0,1.18.96,2.14,2.14,2.14s2.14-.96,2.14-2.14v-2.67h13.32v2.67c0,1.18.96,2.14,2.14,2.14s2.14-.96,2.14-2.14v-2.67h26.46v53.61Z"/>
</svg>