<?xml version="1.0" encoding="UTF-8"?>
<svg id="Design_UI_Web_Tools" data-name="Design, UI, &amp;amp; Web Tools" xmlns="http://www.w3.org/2000/svg" viewBox="0 0 180 180">
  <defs>
    <style>
      .cls-1 {
        stroke: #000;
        stroke-miterlimit: 10;
        stroke-width: 2px;
      }
    </style>
  </defs>
  <circle class="cls-1" cx="52.6" cy="31.92" r="4.17"/>
  <path class="cls-1" d="M74.41,36.1c2.3,0,4.17-1.87,4.17-4.17s-1.87-4.17-4.17-4.17-4.17,1.87-4.17,4.17,1.87,4.17,4.17,4.17Z"/>
  <circle class="cls-1" cx="96.22" cy="31.92" r="4.17"/>
  <path class="cls-1" d="M14.97,129.38c1.09,0,1.98-.88,1.98-1.98v-14.84c0-1.09-.89-1.98-1.98-1.98s-1.98.88-1.98,1.98v14.84c0,1.09.89,1.98,1.98,1.98Z"/>
  <path class="cls-1" d="M170.83,59.52h-28.5l23.25-40.28c1.67-2.9,2.12-6.27,1.25-9.5s-2.94-5.93-5.83-7.6c-5.98-3.45-13.65-1.4-17.1,4.58l-30.48,52.8H9.17c-4.97,0-9,4.04-9,9.01v102.94c0,4.97,4.04,9.01,9,9.01h161.65c4.97,0,9.01-4.04,9.01-9.01v-102.94c0-4.97-4.04-9.01-9.01-9.01ZM147.32,8.7c2.36-4.09,7.61-5.5,11.7-3.13,1.98,1.14,3.4,2.99,3.99,5.2.59,2.21.29,4.52-.86,6.5l-6.62,11.46-14.84-8.57,6.62-11.46ZM138.73,23.58l14.84,8.57-36.39,63.04-14.84-8.57,36.39-63.04ZM115.2,98.61l-9.51,16.48-11.51,2.81-3.32-11.37,9.51-16.48,14.84,8.57ZM25.62,176.51H9.17c-2.79,0-5.05-2.27-5.05-5.05v-102.94c0-2.79,2.27-5.05,5.05-5.05h16.45v113.04ZM175.88,171.46c0,2.79-2.27,5.05-5.05,5.05H29.57V63.47h81.56l-24.13,41.8c-.27.47-.34,1.02-.19,1.54l3.86,13.19-4.26,7.38c-.55.95-.22,2.15.72,2.7.31.18.65.27.99.27.68,0,1.35-.35,1.71-.99l4.26-7.38,13.35-3.25c.52-.13.97-.46,1.24-.93l31.36-54.32h30.78c2.79,0,5.05,2.27,5.05,5.05v102.94Z"/>
  <path class="cls-1" d="M55.96,77.09h-10.8c-1.09,0-1.98.88-1.98,1.98v10.8c0,1.09.89,1.98,1.98,1.98s1.98-.88,1.98-1.98v-8.82h8.82c1.09,0,1.98-.88,1.98-1.98s-.89-1.98-1.98-1.98Z"/>
  <path class="cls-1" d="M55.96,158.94h-8.82v-8.82c0-1.09-.89-1.98-1.98-1.98s-1.98.88-1.98,1.98v10.8c0,1.09.89,1.98,1.98,1.98h10.8c1.09,0,1.98-.88,1.98-1.98s-.89-1.98-1.98-1.98Z"/>
  <path class="cls-1" d="M160.66,77.09h-10.8c-1.09,0-1.98.88-1.98,1.98s.89,1.98,1.98,1.98h8.82v8.82c0,1.09.89,1.98,1.98,1.98s1.98-.88,1.98-1.98v-10.8c0-1.09-.89-1.98-1.98-1.98Z"/>
  <path class="cls-1" d="M160.66,148.14c-1.09,0-1.98.88-1.98,1.98v8.82h-8.82c-1.09,0-1.98.88-1.98,1.98s.89,1.98,1.98,1.98h10.8c1.09,0,1.98-.88,1.98-1.98v-10.8c0-1.09-.89-1.98-1.98-1.98Z"/>
</svg>