<?xml version="1.0" encoding="UTF-8"?>
<svg id="Design_UI_Web_Tools" data-name="Design, UI, &amp;amp; Web Tools" xmlns="http://www.w3.org/2000/svg" viewBox="0 0 180 180">
  <defs>
    <style>
      .cls-1 {
        stroke: #000;
        stroke-miterlimit: 10;
        stroke-width: 2px;
      }
    </style>
  </defs>
  <path class="cls-1" d="M26.59,62.29c0-.94-.76-1.71-1.71-1.71H1.88c-.94,0-1.71.76-1.71,1.71s.76,1.71,1.71,1.71h23.01c.94,0,1.71-.76,1.71-1.71Z"/>
  <path class="cls-1" d="M34.47,28.24l-13.33-7.7c-.82-.47-1.86-.19-2.33.62-.47.82-.19,1.86.62,2.33l13.33,7.7c.27.16.56.23.85.23.59,0,1.16-.31,1.48-.85.47-.82.19-1.86-.62-2.33Z"/>
  <path class="cls-1" d="M32.76,93.39l-13.33,7.7c-.82.47-1.1,1.52-.62,2.33.32.55.89.85,1.48.85.29,0,.58-.07.85-.23l13.33-7.7c.82-.47,1.1-1.52.62-2.33-.47-.82-1.52-1.1-2.33-.62Z"/>
  <path class="cls-1" d="M178.12,60.58h-23.01c-.94,0-1.71.76-1.71,1.71s.76,1.71,1.71,1.71h23.01c.94,0,1.71-.76,1.71-1.71s-.76-1.71-1.71-1.71Z"/>
  <path class="cls-1" d="M146.39,31.42c.29,0,.58-.07.85-.23l13.33-7.7c.82-.47,1.1-1.52.62-2.33-.47-.82-1.52-1.1-2.33-.62l-13.33,7.7c-.82.47-1.1,1.52-.62,2.33.32.55.89.85,1.48.85Z"/>
  <path class="cls-1" d="M160.57,101.09l-13.33-7.7c-.82-.47-1.86-.19-2.33.62-.47.82-.19,1.86.62,2.33l13.33,7.7c.27.16.56.23.85.23.59,0,1.16-.31,1.48-.85.47-.82.19-1.86-.62-2.33Z"/>
  <path class="cls-1" d="M90,32.79c-16.27,0-29.5,13.23-29.5,29.5,0,.94.76,1.71,1.71,1.71s1.71-.76,1.71-1.71c0-14.38,11.7-26.09,26.09-26.09.94,0,1.71-.76,1.71-1.71s-.76-1.71-1.71-1.71Z"/>
  <path class="cls-1" d="M90,12.64c-27.38,0-49.65,22.27-49.65,49.65,0,12.13,4.58,23.99,12.91,33.39,5.52,6.24,11.81,15.6,11.35,32.68,0,0,0,.01,0,.02,0,0,0,.02,0,.02v24.28c0,4.29,3.49,7.78,7.78,7.78h7.06c1.39,4.61,5.62,7.82,10.56,7.82s9.17-3.21,10.56-7.82h7.06c4.29,0,7.78-3.49,7.78-7.78v-24.28s0-.02,0-.02c0,0,0-.01,0-.02-.46-17.08,5.83-26.44,11.35-32.68,8.32-9.4,12.91-21.26,12.91-33.39,0-27.38-22.27-49.65-49.65-49.65ZM111.98,141.88h-43.96v-11.76h43.96v11.76ZM111.98,152.69c0,2.41-1.96,4.36-4.36,4.36h-8.41c-.84,0-1.55.61-1.68,1.43-.61,3.7-3.77,6.39-7.52,6.39s-6.91-2.69-7.52-6.39c-.14-.83-.85-1.43-1.68-1.43h-8.41c-2.41,0-4.36-1.96-4.36-4.36v-7.4h43.96v7.4ZM124.19,93.42c-5.75,6.49-12.26,16.11-12.23,33.28h-43.91c.02-17.17-6.49-26.78-12.23-33.28-7.77-8.78-12.05-19.84-12.05-31.13,0-25.5,20.74-46.24,46.24-46.24s46.24,20.74,46.24,46.24c0,11.3-4.28,22.35-12.05,31.13Z"/>
</svg>