<?xml version="1.0" encoding="UTF-8"?>
<svg id="Design_UI_Web_Tools" data-name="Design, UI, &amp;amp; Web Tools" xmlns="http://www.w3.org/2000/svg" viewBox="0 0 180 180">
  <defs>
    <style>
      .cls-1 {
        stroke: #000;
        stroke-miterlimit: 10;
        stroke-width: 2px;
      }
    </style>
  </defs>
  <path class="cls-1" d="M177.92.46H2.08C.93.46,0,1.39,0,2.54v175.84c0,1.15.93,2.08,2.08,2.08h89.13c1.15,0,2.08-.93,2.08-2.08s-.93-2.08-2.08-2.08H4.16V30.54h171.67v12.08c0,1.15.93,2.08,2.08,2.08s2.08-.93,2.08-2.08V2.54c0-1.15-.93-2.08-2.08-2.08ZM175.84,4.63v21.75H4.16V4.63h171.67Z"/>
  <circle class="cls-1" cx="160.81" cy="15.04" r="4.4"/>
  <circle class="cls-1" cx="144.28" cy="15.04" r="4.4"/>
  <circle class="cls-1" cx="127.76" cy="15.04" r="4.4"/>
  <path class="cls-1" d="M81.02,49.05c1.15,0,2.08-.93,2.08-2.08s-.93-2.08-2.08-2.08H20.59c-1.15,0-2.08.93-2.08,2.08v59.23c0,1.15.93,2.08,2.08,2.08h60.27c1.15,0,2.08-.93,2.08-2.08s-.93-2.08-2.08-2.08H22.67v-55.06h58.35Z"/>
  <path class="cls-1" d="M81.02,121.9H20.59c-1.15,0-2.08.93-2.08,2.08s.93,2.08,2.08,2.08h60.43c1.15,0,2.08-.93,2.08-2.08s-.93-2.08-2.08-2.08Z"/>
  <path class="cls-1" d="M81.02,140.41H20.59c-1.15,0-2.08.93-2.08,2.08s.93,2.08,2.08,2.08h60.43c1.15,0,2.08-.93,2.08-2.08s-.93-2.08-2.08-2.08Z"/>
  <path class="cls-1" d="M81.02,158.92H20.59c-1.15,0-2.08.93-2.08,2.08s.93,2.08,2.08,2.08h60.43c1.15,0,2.08-.93,2.08-2.08s-.93-2.08-2.08-2.08Z"/>
  <path class="cls-1" d="M170.51,52.1h-60.34c-5.23,0-9.49,4.26-9.49,9.49v109.39c0,5.23,4.25,9.49,9.49,9.49h60.34c5.23,0,9.49-4.26,9.49-9.49V61.58c0-5.23-4.25-9.49-9.49-9.49ZM110.17,56.26h60.34c2.93,0,5.32,2.39,5.32,5.32v4.92h-70.98v-4.92c0-2.93,2.39-5.32,5.32-5.32ZM175.84,149.64h-70.98v-78.97h70.98v78.97ZM170.51,176.3h-60.34c-2.93,0-5.32-2.39-5.32-5.32v-17.18h70.98v17.18c0,2.93-2.39,5.32-5.32,5.32Z"/>
  <path class="cls-1" d="M146.49,162.78h-12.29c-1.15,0-2.08.93-2.08,2.08s.93,2.08,2.08,2.08h12.29c1.15,0,2.08-.93,2.08-2.08s-.93-2.08-2.08-2.08Z"/>
</svg>