<?xml version="1.0" encoding="UTF-8"?>
<svg id="Design_UI_Web_Tools" data-name="Design, UI, &amp;amp; Web Tools" xmlns="http://www.w3.org/2000/svg" viewBox="0 0 180 180">
  <defs>
    <style>
      .cls-1 {
        stroke: #000;
        stroke-miterlimit: 10;
        stroke-width: 2px;
      }
    </style>
  </defs>
  <path class="cls-1" d="M66.33,62.91c-6.49.68-11.58,3.31-15.15,7.85-6.36,8.1-6.48,15.19-6.6,22.06-.1,5.57-.19,10.84-3.47,16.85-.44.81-.23,1.82.49,2.39.34.27.76.4,1.17.4.46,0,.91-.17,1.27-.49,5.06-4.62,10.15-5.96,15.54-7.37,6.64-1.74,13.5-3.55,19.86-11.65,3.57-4.54,4.92-10.12,4.03-16.58L140.66,3.52c.64-.82.5-2.01-.32-2.65-.82-.65-2.01-.5-2.65.32l-36.49,46.49-11.21-8.8L117.75,3.52c.64-.82.5-2.01-.32-2.65-.82-.65-2.01-.5-2.65.32l-48.45,61.72ZM76.48,90.62c-5.57,7.1-11.54,8.67-17.85,10.33-3.81,1-7.71,2.02-11.62,4.23,1.21-4.32,1.28-8.35,1.35-12.29.11-6.53.22-12.69,5.79-19.79,2.91-3.71,7.14-5.87,12.59-6.44l13,10.2c.74,5.43-.35,10.05-3.26,13.76ZM81.18,73.19l-11.21-8.8,17.7-22.54,11.21,8.8-17.7,22.54Z"/>
  <path class="cls-1" d="M168.68,18.63h-28.08c-1.04,0-1.89.85-1.89,1.89s.85,1.89,1.89,1.89h28.08c2.85,0,5.16,2.31,5.16,5.16v110.15c0,2.85-2.32,5.16-5.16,5.16H11.32c-2.85,0-5.16-2.32-5.16-5.16V27.57c0-2.85,2.32-5.16,5.16-5.16h75c1.04,0,1.89-.85,1.89-1.89s-.85-1.89-1.89-1.89H11.32c-4.93,0-8.94,4.01-8.94,8.94v110.15c0,4.93,4.01,8.94,8.94,8.94h63.94v10.16l-22.97,10.17c-.68.3-1.12.98-1.12,1.73v9.86c0,1.04.85,1.89,1.89,1.89h73.88c1.04,0,1.89-.85,1.89-1.89v-9.86c0-.75-.44-1.42-1.12-1.73l-22.97-10.17v-10.16h63.94c4.93,0,8.94-4.01,8.94-8.94V27.57c0-4.93-4.01-8.94-8.94-8.94ZM102.08,159.77l22.97,10.17v6.75H54.95v-6.75l22.97-10.17c.68-.3,1.12-.98,1.12-1.73v-11.39h21.92v11.39c0,.75.44,1.42,1.12,1.73Z"/>
  <path class="cls-1" d="M75.26,36.5c1.04,0,1.89-.85,1.89-1.89s-.85-1.89-1.89-1.89H18.37c-1.04,0-1.89.85-1.89,1.89v96.05c0,1.04.85,1.89,1.89,1.89h143.26c1.04,0,1.89-.85,1.89-1.89V34.62c0-1.04-.85-1.89-1.89-1.89h-32.1c-1.04,0-1.89.85-1.89,1.89s.85,1.89,1.89,1.89h30.21v92.28H20.26V36.5h55Z"/>
  <path class="cls-1" d="M87.35,112.46c19.18,0,24.25-11.58,28.32-20.88,3.32-7.58,5.94-13.56,14.63-13.56h18.21c1.04,0,1.89-.85,1.89-1.89s-.85-1.89-1.89-1.89h-18.21c-11.17,0-14.69,8.04-18.09,15.82-4.01,9.15-8.15,18.62-24.86,18.62h-15.35c-1.04,0-1.89.85-1.89,1.89s.85,1.89,1.89,1.89h15.35Z"/>
</svg>