<?xml version="1.0" encoding="UTF-8"?>
<svg id="Design_UI_Web_Tools" data-name="Design, UI, &amp;amp; Web Tools" xmlns="http://www.w3.org/2000/svg" viewBox="0 0 180 180">
  <defs>
    <style>
      .cls-1 {
        stroke: #000;
        stroke-miterlimit: 10;
        stroke-width: 2px;
      }
    </style>
  </defs>
  <path class="cls-1" d="M114.75,156.9c-2.18,0-3.96,1.78-3.96,3.96s1.78,3.96,3.96,3.96,3.96-1.78,3.96-3.96-1.78-3.96-3.96-3.96Z"/>
  <path class="cls-1" d="M90,156.9c-2.18,0-3.96,1.78-3.96,3.96s1.78,3.96,3.96,3.96,3.96-1.78,3.96-3.96-1.78-3.96-3.96-3.96Z"/>
  <path class="cls-1" d="M65.25,156.9c-2.18,0-3.96,1.78-3.96,3.96s1.78,3.96,3.96,3.96,3.96-1.78,3.96-3.96-1.78-3.96-3.96-3.96Z"/>
  <path class="cls-1" d="M39.04,142.45c-.73-.73-1.92-.73-2.65,0l-17.09,17.09c-.35.35-.55.83-.55,1.33s.2.97.55,1.33l17.09,17.09c.37.37.85.55,1.33.55s.96-.18,1.33-.55c.73-.73.73-1.92,0-2.65l-15.76-15.76,15.76-15.76c.73-.73.73-1.92,0-2.65Z"/>
  <path class="cls-1" d="M143.62,142.45c-.73-.73-1.92-.73-2.65,0-.73.73-.73,1.92,0,2.65l15.76,15.76-15.76,15.76c-.73.73-.73,1.92,0,2.65.37.37.85.55,1.33.55s.96-.18,1.33-.55l17.09-17.09c.35-.35.55-.83.55-1.33s-.2-.97-.55-1.33l-17.09-17.09Z"/>
  <path class="cls-1" d="M177.49,12.44h-24.78V2.98c0-1.04-.84-1.87-1.87-1.87H29.17c-1.03,0-1.87.84-1.87,1.87v9.46H2.51c-1.03,0-1.87.84-1.87,1.87v91.53c0,1.04.84,1.87,1.87,1.87h24.78v9.46c0,1.04.84,1.87,1.87,1.87h121.67c1.03,0,1.87-.84,1.87-1.87v-9.46h24.78c1.03,0,1.87-.84,1.87-1.87V14.32c0-1.04-.84-1.87-1.87-1.87ZM4.39,103.98V16.19h22.9v87.79H4.39ZM148.96,115.31H31.04V4.85h117.92v110.46ZM175.61,103.98h-22.9V16.19h22.9v87.79Z"/>
  <path class="cls-1" d="M43.46,94.49c.32.21.67.3,1.02.3.61,0,1.21-.3,1.57-.85l25.78-39.63c1.87-2.87,4.28-4.46,6.8-4.46,2.52,0,4.93,1.58,6.8,4.46l25.78,39.63c.56.87,1.73,1.11,2.59.55.87-.56,1.11-1.73.55-2.59l-11.56-17.77,5.42-8.33c1.22-1.88,2.78-2.92,4.37-2.92s3.15,1.04,4.37,2.92l18.3,28.14c.36.55.96.85,1.57.85.35,0,.7-.1,1.02-.3.87-.56,1.11-1.73.55-2.59l-18.3-28.14c-1.94-2.98-4.61-4.62-7.52-4.62s-5.58,1.64-7.52,4.62l-4.51,6.94-11.98-18.43c-2.58-3.97-6.12-6.16-9.94-6.16-3.83,0-7.36,2.19-9.94,6.16l-25.78,39.63c-.56.87-.32,2.03.55,2.59Z"/>
  <path class="cls-1" d="M109.98,47.59c6.82,0,12.37-5.55,12.37-12.37s-5.55-12.37-12.37-12.37-12.37,5.55-12.37,12.37,5.55,12.37,12.37,12.37ZM109.98,26.6c4.75,0,8.62,3.87,8.62,8.62s-3.87,8.62-8.62,8.62-8.62-3.87-8.62-8.62,3.87-8.62,8.62-8.62Z"/>
</svg>