<?xml version="1.0" encoding="UTF-8"?>
<svg id="Design_UI_Web_Tools" data-name="Design, UI, &amp;amp; Web Tools" xmlns="http://www.w3.org/2000/svg" viewBox="0 0 180 180">
  <defs>
    <style>
      .cls-1 {
        stroke: #000;
        stroke-miterlimit: 10;
        stroke-width: 2px;
      }
    </style>
  </defs>
  <path class="cls-1" d="M67.65,46.19c.22-9.65-2.7-17.59-8.7-23.59-10.67-10.67-21.02-12.1-31.03-13.48C19.6,7.98,11.74,6.9,3.29.86c-.83-.59-1.96-.5-2.68.22C-.11,1.8-.2,2.94.39,3.77c6.03,8.45,7.12,16.31,8.27,24.63,1.38,10.01,2.81,20.36,13.48,31.03,5.79,5.79,13.38,8.72,22.57,8.72.33,0,.68-.01,1.01-.02l107.8,107.8c2.93,2.93,6.82,4.54,10.96,4.54s8.03-1.61,10.96-4.54c2.93-2.93,4.54-6.82,4.54-10.96s-1.61-8.04-4.54-10.96L67.65,46.19ZM25.08,56.48c-9.68-9.68-10.95-18.9-12.3-28.65-.87-6.29-1.76-12.75-4.89-19.47,6.72,3.13,13.17,4.03,19.47,4.89,9.76,1.35,18.97,2.62,28.65,12.3,5.17,5.17,7.69,12.1,7.49,20.59l-17.82,17.82c-8.51.21-15.42-2.31-20.6-7.49ZM65.55,49.98l31.22,31.22-16.04,16.04-31.22-31.22,16.04-16.04ZM172.5,172.98c-2.14,2.14-4.99,3.32-8.02,3.32s-5.88-1.18-8.02-3.32l-72.79-72.79,16.04-16.04,72.79,72.79c2.14,2.14,3.32,4.99,3.32,8.02s-1.18,5.88-3.32,8.02Z"/>
  <path class="cls-1" d="M116.61,79.78c-.81.81-.81,2.13,0,2.94.41.41.94.61,1.47.61s1.07-.2,1.47-.61l5.08-5.08c6.01-6.01,6.01-15.8,0-21.81-6.01-6.01-15.8-6.01-21.81,0l-5.08,5.08c-.81.81-.81,2.13,0,2.94.81.81,2.13.81,2.94,0l5.08-5.08c4.39-4.39,11.53-4.39,15.92,0,4.39,4.39,4.39,11.53,0,15.92l-5.08,5.08Z"/>
  <path class="cls-1" d="M63.38,101.16c.81-.81.81-2.13,0-2.94-.81-.81-2.13-.81-2.94,0l-16.33,16.33c-6.01,6.01-6.01,15.8,0,21.81,3.01,3.01,6.96,4.51,10.91,4.51s7.9-1.5,10.91-4.51l16.33-16.33c.81-.81.77-2.17-.04-2.98-.81-.82-2.1-.8-2.92,0-.09.09-.17.19-.24.29l-16.07,16.07c-4.39,4.39-11.53,4.39-15.92,0-4.39-4.39-4.39-11.53,0-15.92l16.33-16.33Z"/>
  <path class="cls-1" d="M89.9,53.07l26.88-26.88,37.5,37.5-26.88,26.88c-.81.81-.81,2.13,0,2.94.41.41.94.61,1.47.61s1.07-.2,1.47-.61l28.35-28.35c.81-.81.81-2.13,0-2.94l-2.21-2.21,3.49-3.49c5.29-5.29,5.6-10.6,5.9-15.73.28-4.73.56-9.62,4.37-15.67l7.82-11.74h0c2.66-3.99,2.57-7.9-.26-10.73-2.83-2.83-6.74-2.92-10.73-.26l-11.74,7.83c-6.05,3.81-10.94,4.09-15.66,4.37-5.13.3-10.44.61-15.73,5.9l-3.49,3.49-2.21-2.21c-.81-.81-2.13-.81-2.94,0l-28.35,28.35c-.81.81-.81,2.13,0,2.94.81.81,2.13.81,2.94,0ZM169.39,5.86c2.28-1.52,4.13-1.61,5.48-.26,1.35,1.35,1.26,3.19-.26,5.48l-6.44,9.66-8.44-8.44,9.66-6.44ZM126.89,23.44c4.17-4.17,8.08-4.4,13.03-4.69,4.66-.27,9.9-.58,16.21-4.15l9.74,9.74c-3.57,6.31-3.88,11.55-4.15,16.21-.29,4.95-.52,8.86-4.69,13.03l-3.49,3.49-30.13-30.13,3.49-3.49Z"/>
  <path class="cls-1" d="M90.09,127.87l-37.96,37.96-37.5-37.5,37.96-37.96c.81-.81.81-2.13,0-2.94-.81-.81-2.13-.81-2.94,0L10.21,126.86c-.81.81-.81,2.13,0,2.94l2.21,2.21-9.69,9.69C.97,143.47,0,145.82,0,148.33s.97,4.86,2.74,6.63l22.77,22.77c1.76,1.76,4.12,2.74,6.63,2.74s4.86-.97,6.63-2.74l9.69-9.69,2.21,2.21c.41.41.94.61,1.47.61s1.07-.2,1.47-.61l39.43-39.43c.81-.81.81-2.13,0-2.94-.81-.81-2.13-.81-2.94,0ZM35.82,174.78c-.98.98-2.29,1.52-3.68,1.52s-2.7-.54-3.68-1.52l-22.77-22.77c-.98-.98-1.52-2.29-1.52-3.68s.54-2.7,1.52-3.68l9.69-9.69,30.13,30.13-9.69,9.69Z"/>
</svg>