<?xml version="1.0" encoding="UTF-8"?>
<svg id="Design_UI_Web_Tools" data-name="Design, UI, &amp;amp; Web Tools" xmlns="http://www.w3.org/2000/svg" viewBox="0 0 180 180">
  <defs>
    <style>
      .cls-1 {
        stroke: #000;
        stroke-miterlimit: 10;
        stroke-width: 2px;
      }
    </style>
  </defs>
  <path class="cls-1" d="M161.17,78.13c1.21,0,2.2-.98,2.2-2.2V19.29c0-1.21-.98-2.2-2.2-2.2H18.83c-1.21,0-2.2.98-2.2,2.2v118.22c0,1.21.98,2.2,2.2,2.2h31.61c1.21,0,2.2-.98,2.2-2.2s-.98-2.2-2.2-2.2h-29.41V21.49h137.95v54.45c0,1.21.98,2.2,2.2,2.2Z"/>
  <path class="cls-1" d="M177.8.46H2.2C.98.46,0,1.45,0,2.66v175.61c0,1.21.98,2.2,2.2,2.2h49.64c1.21,0,2.2-.98,2.2-2.2s-.98-2.2-2.2-2.2H4.39V4.85h171.22v72.48c0,1.21.98,2.2,2.2,2.2s2.2-.98,2.2-2.2V2.66c0-1.21-.98-2.2-2.2-2.2Z"/>
  <path class="cls-1" d="M170,86.68h-98.81c-5.51,0-10,4.49-10,10v73.78c0,5.51,4.49,10,10,10h98.81c5.51,0,10-4.49,10-10v-73.78c0-5.51-4.49-10-10-10ZM175.61,170.46c0,3.09-2.52,5.61-5.61,5.61h-98.81c-3.09,0-5.61-2.52-5.61-5.61v-73.78c0-3.09,2.52-5.61,5.61-5.61h98.81c3.09,0,5.61,2.52,5.61,5.61v73.78Z"/>
  <path class="cls-1" d="M111.35,103.45c-16.61,0-30.12,13.51-30.12,30.12s13.51,30.12,30.12,30.12,30.12-13.51,30.12-30.12-13.51-30.12-30.12-30.12ZM111.35,159.3c-14.19,0-25.73-11.54-25.73-25.73s11.54-25.73,25.73-25.73,25.73,11.54,25.73,25.73-11.54,25.73-25.73,25.73Z"/>
  <path class="cls-1" d="M111.35,118.24c-8.45,0-15.33,6.88-15.33,15.33,0,1.21.98,2.2,2.2,2.2s2.2-.98,2.2-2.2c0-6.03,4.91-10.94,10.94-10.94,1.21,0,2.2-.98,2.2-2.2s-.98-2.2-2.2-2.2Z"/>
  <path class="cls-1" d="M70.56,46.16c3.75,0,7.27,1.67,9.93,4.71l22.72,25.98c.43.5,1.04.75,1.65.75.51,0,1.03-.18,1.44-.54.91-.8,1.01-2.18.21-3.1l-13.59-15.54,6.6-7.54c2.66-3.04,6.19-4.71,9.93-4.71s7.27,1.67,9.93,4.71l22.72,25.98c.43.5,1.04.75,1.65.75.51,0,1.03-.18,1.44-.54.91-.8,1.01-2.18.21-3.1l-22.72-25.98c-3.5-4.01-8.21-6.21-13.24-6.21s-9.73,2.21-13.24,6.21l-6.21,7.1-6.21-7.1c-3.5-4.01-8.21-6.21-13.24-6.21s-9.73,2.21-13.24,6.21l-22.72,25.98c-.8.91-.71,2.3.21,3.1.91.8,2.3.71,3.1-.21l22.72-25.98c2.66-3.04,6.19-4.71,9.93-4.71Z"/>
  <path class="cls-1" d="M161.17,103.45h-15.84c-1.21,0-2.2.98-2.2,2.2s.98,2.2,2.2,2.2h15.84c1.21,0,2.2-.98,2.2-2.2s-.98-2.2-2.2-2.2Z"/>
</svg>