<?xml version="1.0" encoding="UTF-8"?>
<svg id="Design_UI_Web_Tools" data-name="Design, UI, &amp;amp; Web Tools" xmlns="http://www.w3.org/2000/svg" viewBox="0 0 180 180">
  <defs>
    <style>
      .cls-1 {
        stroke: #000;
        stroke-miterlimit: 10;
        stroke-width: 2px;
      }
    </style>
  </defs>
  <path class="cls-1" d="M178.02.46h-29.96c-1.09,0-1.98.89-1.98,1.98v29.96c0,1.09.89,1.98,1.98,1.98h13v16.2h-22.04c-1.09,0-1.98.89-1.98,1.98s.89,1.98,1.98,1.98h24.02c1.09,0,1.98-.89,1.98-1.98v-18.18h13c1.09,0,1.98-.89,1.98-1.98V2.44c0-1.09-.89-1.98-1.98-1.98ZM176.04,30.42h-26V4.42h26v26Z"/>
  <path class="cls-1" d="M173.67,62.99c-1.05.32-1.64,1.42-1.32,2.47,2.26,7.45,3.48,15.18,3.65,23.02h-56.37c-.62-9.37-5.6-17.57-12.93-22.57,0,0,29.19-50.57,29.2-50.58.55-.95.23-2.16-.72-2.71C121.52,4.67,105.89.46,90,.46,40.37.46,0,40.84,0,90.46s40.37,90,90,90,90-40.37,90-90c0-8.91-1.3-17.7-3.86-26.15-.32-1.05-1.43-1.63-2.47-1.32ZM115.75,90.46c0,14.2-11.55,25.75-25.75,25.75s-25.75-11.55-25.75-25.75,11.55-25.75,25.75-25.75,25.75,11.55,25.75,25.75ZM131.48,15.08l-28.19,48.82c-4-2.01-8.51-3.15-13.29-3.15s-9.01,1.06-12.92,2.96L48.9,14.89c12.22-6.67,26.23-10.47,41.1-10.47s28.83,3.68,41.48,10.66ZM45.47,16.87l28.18,48.81c-7.52,4.98-12.65,13.29-13.28,22.81H3.99c.69-30.33,17.15-56.83,41.48-71.61ZM3.99,92.44h56.38c.63,9.52,5.76,17.83,13.28,22.8l-28.18,48.81C21.13,149.28,4.67,122.77,3.99,92.44ZM48.9,166.03l28.19-48.82c3.91,1.89,8.29,2.96,12.92,2.96s9.29-1.14,13.29-3.15l28.18,48.81c-12.31,6.8-26.44,10.67-41.47,10.67s-28.88-3.8-41.1-10.47ZM134.89,163.83l-28.19-48.82c7.33-5,12.31-13.2,12.93-22.57h56.38c-.69,30.18-16.99,56.57-41.12,71.39Z"/>
</svg>