<?xml version="1.0" encoding="UTF-8"?>
<svg id="Design_UI_Web_Tools" data-name="Design, UI, &amp;amp; Web Tools" xmlns="http://www.w3.org/2000/svg" viewBox="0 0 180 180">
  <defs>
    <style>
      .cls-1 {
        stroke: #000;
        stroke-miterlimit: 10;
        stroke-width: 2px;
      }
    </style>
  </defs>
  <path class="cls-1" d="M162.31,41.29c1.1,0,1.99-.89,1.99-1.99v-14.69c0-1.1-.89-1.99-1.99-1.99H17.69c-1.1,0-1.99.89-1.99,1.99v97.76c0,1.1.89,1.99,1.99,1.99h74.5c1.1,0,1.99-.89,1.99-1.99s-.89-1.99-1.99-1.99H19.68V26.6h55.86l-23.42,23.34c-.78.78-.78,2.04,0,2.82.39.39.9.59,1.41.59s1.02-.19,1.41-.58l26.25-26.16h79.13v12.7c0,1.1.89,1.99,1.99,1.99Z"/>
  <path class="cls-1" d="M169.19,8.85H10.81c-4.9,0-8.88,3.98-8.88,8.88v111.53c0,4.89,3.98,8.88,8.88,8.88h61.38v10.04l-23,10.19c-.72.32-1.18,1.03-1.18,1.82v9.9c0,1.1.89,1.99,1.99,1.99h39.96c1.1,0,1.99-.89,1.99-1.99s-.89-1.99-1.99-1.99h-37.97v-6.62l23-10.19c.72-.32,1.18-1.03,1.18-1.82v-11.34h16.02c1.1,0,1.99-.89,1.99-1.99s-.89-1.99-1.99-1.99H10.81c-2.7,0-4.9-2.2-4.9-4.9V17.73c0-2.7,2.2-4.9,4.9-4.9h158.38c2.7,0,4.9,2.2,4.9,4.9v22.88c0,1.1.89,1.99,1.99,1.99s1.99-.89,1.99-1.99v-22.88c0-4.89-3.98-8.88-8.88-8.88Z"/>
  <path class="cls-1" d="M169,49.36h-57.68c-5,0-9.07,4.07-9.07,9.07v104.57c0,5,4.07,9.07,9.07,9.07h57.68c5,0,9.07-4.07,9.07-9.07V58.43c0-5-4.07-9.07-9.07-9.07ZM111.32,53.35h57.68c2.81,0,5.09,2.28,5.09,5.09v4.7h-67.86v-4.7c0-2.8,2.28-5.09,5.09-5.09ZM174.09,142.61h-67.86v-75.49h67.86v75.49ZM169,168.09h-57.68c-2.81,0-5.09-2.28-5.09-5.09v-16.42h67.86v16.42c0,2.8-2.28,5.09-5.09,5.09Z"/>
  <path class="cls-1" d="M146.03,155.18h-11.75c-1.1,0-1.99.89-1.99,1.99s.89,1.99,1.99,1.99h11.75c1.1,0,1.99-.89,1.99-1.99s-.89-1.99-1.99-1.99Z"/>
  <path class="cls-1" d="M85.52,42.16l-48.73,48.57c-.78.78-.78,2.04,0,2.82.39.39.9.59,1.41.59s1.02-.19,1.41-.58l48.73-48.57c.78-.78.78-2.04,0-2.82-.77-.78-2.04-.78-2.82,0Z"/>
</svg>