<?xml version="1.0" encoding="UTF-8"?>
<svg id="Design_UI_Web_Tools" data-name="Design, UI, &amp;amp; Web Tools" xmlns="http://www.w3.org/2000/svg" viewBox="0 0 180 180">
  <defs>
    <style>
      .cls-1 {
        stroke: #000;
        stroke-miterlimit: 10;
        stroke-width: 2px;
      }
    </style>
  </defs>
  <path class="cls-1" d="M177.92.46H2.08C.93.46,0,1.4,0,2.55v175.83c0,1.15.93,2.08,2.08,2.08h78.12c1.15,0,2.08-.93,2.08-2.08s-.93-2.08-2.08-2.08H4.16V30.54h171.67v27c0,1.15.93,2.08,2.08,2.08s2.08-.93,2.08-2.08V2.55c0-1.15-.93-2.08-2.08-2.08ZM175.84,4.63v21.75H4.16V4.63h171.67Z"/>
  <path class="cls-1" d="M160.81,19.43c2.42,0,4.4-1.97,4.4-4.4s-1.97-4.4-4.4-4.4-4.4,1.97-4.4,4.4,1.97,4.4,4.4,4.4Z"/>
  <path class="cls-1" d="M144.28,19.43c2.42,0,4.4-1.97,4.4-4.4s-1.97-4.4-4.4-4.4-4.4,1.97-4.4,4.4,1.97,4.4,4.4,4.4Z"/>
  <path class="cls-1" d="M127.76,19.43c2.42,0,4.4-1.97,4.4-4.4s-1.97-4.4-4.4-4.4-4.4,1.97-4.4,4.4,1.97,4.4,4.4,4.4Z"/>
  <path class="cls-1" d="M98.84,49.05v8.45c0,1.15.93,2.08,2.08,2.08s2.08-.93,2.08-2.08v-10.53c0-1.15-.93-2.08-2.08-2.08H20.59c-1.15,0-2.08.93-2.08,2.08v59.23c0,1.15.93,2.08,2.08,2.08h33.81c1.15,0,2.08-.93,2.08-2.08s-.93-2.08-2.08-2.08h-31.73v-55.06h76.17Z"/>
  <path class="cls-1" d="M54.4,121.9H20.59c-1.15,0-2.08.93-2.08,2.08s.93,2.08,2.08,2.08h33.81c1.15,0,2.08-.93,2.08-2.08s-.93-2.08-2.08-2.08Z"/>
  <path class="cls-1" d="M54.4,140.41H20.59c-1.15,0-2.08.93-2.08,2.08s.93,2.08,2.08,2.08h33.81c1.15,0,2.08-.93,2.08-2.08s-.93-2.08-2.08-2.08Z"/>
  <path class="cls-1" d="M54.4,158.92H20.59c-1.15,0-2.08.93-2.08,2.08s.93,2.08,2.08,2.08h33.81c1.15,0,2.08-.93,2.08-2.08s-.93-2.08-2.08-2.08Z"/>
  <path class="cls-1" d="M170.51,70.76h-93.66c-5.23,0-9.49,4.25-9.49,9.49v60.34c0,5.23,4.25,9.49,9.49,9.49h34.25v10.62l-16.23,6.09c-.81.3-1.35,1.08-1.35,1.95v9.66c0,1.15.93,2.08,2.08,2.08h56.15c1.15,0,2.08-.93,2.08-2.08v-9.66c0-.87-.54-1.64-1.35-1.95l-16.23-6.09v-10.62h34.26c5.23,0,9.49-4.25,9.49-9.49v-60.34c0-5.23-4.25-9.49-9.49-9.49ZM133.45,164.08l16.23,6.09v6.13h-51.99v-6.13l16.23-6.09c.81-.3,1.35-1.08,1.35-1.95v-12.06h16.82v12.06c0,.87.54,1.64,1.35,1.95ZM175.84,140.58c0,2.93-2.39,5.32-5.32,5.32h-93.66c-2.93,0-5.32-2.39-5.32-5.32v-60.34c0-2.93,2.39-5.32,5.32-5.32h93.66c2.93,0,5.32,2.39,5.32,5.32v60.34Z"/>
  <path class="cls-1" d="M120.13,97.37c-.94-.67-2.24-.45-2.9.49l-16.14,22.7c-.67.94-.45,2.24.49,2.9.37.26.79.38,1.2.38.65,0,1.29-.3,1.7-.88l16.14-22.7c.67-.94.45-2.24-.49-2.9Z"/>
  <path class="cls-1" d="M145.79,97.37c-.94-.67-2.24-.45-2.9.49l-16.14,22.7c-.67.94-.45,2.24.49,2.9.37.26.79.38,1.2.38.65,0,1.29-.3,1.7-.88l16.14-22.7c.67-.94.45-2.24-.49-2.9Z"/>
  <path class="cls-1" d="M177.92,161.1c-1.15,0-2.08.93-2.08,2.08v13.11h-11.24c-1.15,0-2.08.93-2.08,2.08s.93,2.08,2.08,2.08h13.32c1.15,0,2.08-.93,2.08-2.08v-15.2c0-1.15-.93-2.08-2.08-2.08Z"/>
</svg>