<?xml version="1.0" encoding="UTF-8"?>
<svg id="Design_UI_Web_Tools" data-name="Design, UI, &amp;amp; Web Tools" xmlns="http://www.w3.org/2000/svg" viewBox="0 0 180 180">
  <defs>
    <style>
      .cls-1 {
        stroke: #000;
        stroke-miterlimit: 10;
        stroke-width: 2px;
      }
    </style>
  </defs>
  <path class="cls-1" d="M53.33,155.85v-8.65c0-.98-.71-1.83-1.66-2.04-.02,0-1.85-.42-2.7-1.98-.72-1.33-.63-3.24.28-5.66,2.24-5.93,8.57-21,10.45-25.48h43.64s8.26,25.96,8.26,25.96c.63,1.97.6,3.55-.06,4.7-.94,1.62-2.95,2.07-2.95,2.07-.98.19-1.68,1.05-1.68,2.04v9.03c0,1.15.93,2.08,2.08,2.08h39c.56,0,1.09-.22,1.48-.62.39-.39.61-.93.6-1.48,0-.9,0-9.54,0-9.54,0-1.12-.88-2.03-1.99-2.08-8.06-.35-10.72-7.27-10.8-7.48L101.83,24.45c-.27-.87-1.08-1.46-1.99-1.46h-31.58c-1.15,0-2.08.93-2.08,2.08v10.03c0,.86.53,1.63,1.33,1.94,1.15.45,2.02,1.36,2.59,2.7,1.07,2.57.9,6.51-.43,9.57-.58,1.33-31.17,70.98-35.33,81.53-5.04,12.78-14.22,13.35-14.59,13.36-1.12.04-2.02.96-2.02,2.08v9.56c0,1.15.93,2.08,2.08,2.08h31.44c1.15,0,2.08-.93,2.08-2.08ZM49.17,153.77h-27.27v-5.68c3.72-.82,11.67-3.92,16.32-15.71,4.13-10.47,34.69-80.06,35.27-81.4,1.47-3.4,2.18-8.69.45-12.83-.79-1.89-2.02-3.37-3.6-4.33v-6.66h27.97l35.03,110.9c.13.38,3.22,8.68,12.57,10.12,0,1.6,0,3.91,0,5.59h-34.83v-5.46c1.25-.54,2.92-1.58,4.03-3.46,1.31-2.22,1.47-4.95.46-8.11l-8.72-27.42c-.27-.86-1.08-1.45-1.98-1.45h-46.55c-.84,0-1.59.5-1.92,1.27-.34.81-8.39,19.85-11.05,26.9-1.37,3.64-1.38,6.73,0,9.19,1.04,1.87,2.61,2.89,3.82,3.44v5.09Z"/>
  <path class="cls-1" d="M64.5,97.86h35.62c.67,0,1.29-.32,1.68-.85.39-.54.5-1.23.3-1.86-.1-.3-9.58-29.9-11.22-35.13-1.05-3.37-3.32-5.48-6.07-5.63-2.79-.13-5.37,1.79-6.88,5.23l-15.35,35.33c-.28.64-.22,1.38.17,1.97.38.59,1.04.94,1.74.94ZM81.76,61.28c.77-1.75,1.85-2.82,2.83-2.74.91.05,1.83,1.12,2.32,2.71,1.34,4.29,7.95,24.95,10.35,32.44h-29.6l14.08-32.41Z"/>
  <path class="cls-1" d="M177.28.46h-9.01c-1.15,0-2.08.93-2.08,2.08s.93,2.08,2.08,2.08h6.93v39.69h-6.93c-1.15,0-2.08.93-2.08,2.08s.93,2.08,2.08,2.08h6.93v39.69h-6.93c-1.15,0-2.08.93-2.08,2.08s.93,2.08,2.08,2.08h6.93v39.69h-6.93c-1.15,0-2.08.93-2.08,2.08s.93,2.08,2.08,2.08h6.93v39.69h-6.93c-1.15,0-2.08.93-2.08,2.08s.93,2.08,2.08,2.08h9.01c1.15,0,2.08-.93,2.08-2.08V2.54c0-1.15-.93-2.08-2.08-2.08Z"/>
  <path class="cls-1" d="M155.44,176.3h-9.64c-1.15,0-2.08.93-2.08,2.08s.93,2.08,2.08,2.08h9.64c1.15,0,2.08-.93,2.08-2.08s-.93-2.08-2.08-2.08Z"/>
  <path class="cls-1" d="M131.6,176.3h-9.64c-1.15,0-2.08.93-2.08,2.08s.93,2.08,2.08,2.08h9.64c1.15,0,2.08-.93,2.08-2.08s-.93-2.08-2.08-2.08Z"/>
  <path class="cls-1" d="M107.75,176.3h-9.64c-1.15,0-2.08.93-2.08,2.08s.93,2.08,2.08,2.08h9.64c1.15,0,2.08-.93,2.08-2.08s-.93-2.08-2.08-2.08Z"/>
  <path class="cls-1" d="M83.9,176.3h-9.64c-1.15,0-2.08.93-2.08,2.08s.93,2.08,2.08,2.08h9.64c1.15,0,2.08-.93,2.08-2.08s-.93-2.08-2.08-2.08Z"/>
  <path class="cls-1" d="M60.06,176.3h-9.64c-1.15,0-2.08.93-2.08,2.08s.93,2.08,2.08,2.08h9.64c1.15,0,2.08-.93,2.08-2.08s-.93-2.08-2.08-2.08Z"/>
  <path class="cls-1" d="M36.21,176.3h-9.64c-1.15,0-2.08.93-2.08,2.08s.93,2.08,2.08,2.08h9.64c1.15,0,2.08-.93,2.08-2.08s-.93-2.08-2.08-2.08Z"/>
  <path class="cls-1" d="M12.36,176.3H2.72c-1.15,0-2.08.93-2.08,2.08s.93,2.08,2.08,2.08h9.64c1.15,0,2.08-.93,2.08-2.08s-.93-2.08-2.08-2.08Z"/>
  <path class="cls-1" d="M155.44.46h-9.64c-1.15,0-2.08.93-2.08,2.08s.93,2.08,2.08,2.08h9.64c1.15,0,2.08-.93,2.08-2.08s-.93-2.08-2.08-2.08Z"/>
  <path class="cls-1" d="M121.96,4.63h9.64c1.15,0,2.08-.93,2.08-2.08s-.93-2.08-2.08-2.08h-9.64c-1.15,0-2.08.93-2.08,2.08s.93,2.08,2.08,2.08Z"/>
  <path class="cls-1" d="M98.11,4.63h9.64c1.15,0,2.08-.93,2.08-2.08s-.93-2.08-2.08-2.08h-9.64c-1.15,0-2.08.93-2.08,2.08s.93,2.08,2.08,2.08Z"/>
  <path class="cls-1" d="M74.26,4.63h9.64c1.15,0,2.08-.93,2.08-2.08s-.93-2.08-2.08-2.08h-9.64c-1.15,0-2.08.93-2.08,2.08s.93,2.08,2.08,2.08Z"/>
  <path class="cls-1" d="M50.42,4.63h9.64c1.15,0,2.08-.93,2.08-2.08s-.93-2.08-2.08-2.08h-9.64c-1.15,0-2.08.93-2.08,2.08s.93,2.08,2.08,2.08Z"/>
  <path class="cls-1" d="M26.57,4.63h9.64c1.15,0,2.08-.93,2.08-2.08s-.93-2.08-2.08-2.08h-9.64c-1.15,0-2.08.93-2.08,2.08s.93,2.08,2.08,2.08Z"/>
  <path class="cls-1" d="M12.36.46H2.72C1.57.46.64,1.4.64,2.54s.93,2.08,2.08,2.08h9.64c1.15,0,2.08-.93,2.08-2.08s-.93-2.08-2.08-2.08Z"/>
</svg>