<?xml version="1.0" encoding="UTF-8"?>
<svg id="Design_UI_Web_Tools" data-name="Design, UI, &amp;amp; Web Tools" xmlns="http://www.w3.org/2000/svg" viewBox="0 0 180 180">
  <defs>
    <style>
      .cls-1 {
        stroke: #000;
        stroke-miterlimit: 10;
        stroke-width: 2px;
      }
    </style>
  </defs>
  <path class="cls-1" d="M133.67,48.77c0-1.09-.89-1.98-1.98-1.98H48.31c-1.09,0-1.98.89-1.98,1.98v83.39c0,1.09.89,1.98,1.98,1.98h83.39c1.09,0,1.98-.89,1.98-1.98V48.77ZM129.71,97.98l-32.19,32.19h-27.75l59.95-59.95v27.75ZM50.29,82.95l32.2-32.2h27.75l-59.95,59.95v-27.75ZM76.88,50.75l-26.6,26.6v-26.6h26.6ZM50.29,116.3L115.84,50.75h13.88v13.88l-65.55,65.55h-13.88v-13.88ZM103.12,130.18l26.59-26.59v26.59h-26.59Z"/>
  <path class="cls-1" d="M178.02,46.79h-33.35c-1.09,0-1.98.89-1.98,1.98s.89,1.98,1.98,1.98h31.37v125.75H50.29v-31.37c0-1.09-.89-1.98-1.98-1.98s-1.98.89-1.98,1.98v33.35c0,1.09.89,1.98,1.98,1.98h129.71c1.09,0,1.98-.89,1.98-1.98V48.77c0-1.09-.89-1.98-1.98-1.98Z"/>
  <path class="cls-1" d="M35.34,130.18H3.96V4.42h125.75v31.37c0,1.09.89,1.98,1.98,1.98s1.98-.89,1.98-1.98V2.44c0-1.09-.89-1.98-1.98-1.98H1.98C.89.46,0,1.35,0,2.44v129.71c0,1.09.89,1.98,1.98,1.98h33.35c1.09,0,1.98-.89,1.98-1.98s-.89-1.98-1.98-1.98Z"/>
</svg>