<?xml version="1.0" encoding="UTF-8"?>
<svg id="Design_UI_Web_Tools" data-name="Design, UI, &amp;amp; Web Tools" xmlns="http://www.w3.org/2000/svg" viewBox="0 0 180 180">
  <defs>
    <style>
      .cls-1 {
        stroke: #000;
        stroke-miterlimit: 10;
        stroke-width: 2px;
      }
    </style>
  </defs>
  <path class="cls-1" d="M21.33,165.27c1.14,0,2.07-.93,2.07-2.07v-13.68c0-1.14-.93-2.07-2.07-2.07s-2.07.93-2.07,2.07v13.68c0,1.14.93,2.07,2.07,2.07Z"/>
  <path class="cls-1" d="M34.22,165.27c1.14,0,2.07-.93,2.07-2.07v-13.68c0-1.14-.93-2.07-2.07-2.07s-2.07.93-2.07,2.07v13.68c0,1.14.93,2.07,2.07,2.07Z"/>
  <path class="cls-1" d="M54.05,158.43h22.9c.81,1.89,2.69,3.22,4.87,3.22s4.06-1.33,4.87-3.22h69.65c1.14,0,2.07-.93,2.07-2.07s-.93-2.07-2.07-2.07h-69.65c-.81-1.89-2.69-3.22-4.87-3.22s-4.06,1.33-4.87,3.22h-22.9c-1.14,0-2.07.93-2.07,2.07s.93,2.07,2.07,2.07Z"/>
  <path class="cls-1" d="M111.45,66.76l-31.82-18.37c-.64-.37-1.43-.37-2.07,0-.64.37-1.04,1.05-1.04,1.79v36.75c0,.74.39,1.42,1.04,1.79.32.19.68.28,1.04.28s.72-.09,1.04-.28l31.82-18.37c.64-.37,1.04-1.05,1.04-1.79s-.39-1.42-1.04-1.79ZM80.67,83.34v-29.57l25.61,14.79-25.61,14.78Z"/>
  <path class="cls-1" d="M89.54,27.54c-22.61,0-41.01,18.4-41.01,41.01s18.4,41.01,41.01,41.01,41.01-18.4,41.01-41.01-18.4-41.01-41.01-41.01ZM89.54,105.42c-20.33,0-36.87-16.54-36.87-36.87s16.54-36.87,36.87-36.87,36.87,16.54,36.87,36.87-16.54,36.87-36.87,36.87Z"/>
  <path class="cls-1" d="M170.55.58H9.45C4.25.58.01,4.82.01,10.02v160.89c0,5.2,4.23,9.44,9.44,9.44h161.1c5.2,0,9.44-4.23,9.44-9.44V10.02c0-5.2-4.23-9.44-9.44-9.44ZM4.16,10.02c0-2.92,2.37-5.29,5.29-5.29h161.1c2.92,0,5.29,2.37,5.29,5.29v122.36H4.16V10.02ZM175.85,170.91c0,2.92-2.37,5.29-5.29,5.29H9.45c-2.92,0-5.29-2.37-5.29-5.29v-34.38h171.69v34.38Z"/>
</svg>