<?xml version="1.0" encoding="UTF-8"?>
<svg id="Design_UI_Web_Tools" data-name="Design, UI, &amp;amp; Web Tools" xmlns="http://www.w3.org/2000/svg" viewBox="0 0 180 180">
  <defs>
    <style>
      .cls-1 {
        stroke: #000;
        stroke-miterlimit: 10;
        stroke-width: 2px;
      }
    </style>
  </defs>
  <path class="cls-1" d="M178.02,167.24H38.65c-.94-5.26-5.54-9.27-11.06-9.27s-10.12,4.01-11.06,9.27H1.98C.89,167.24,0,168.12,0,169.22s.89,1.98,1.98,1.98h14.55c.94,5.26,5.54,9.26,11.06,9.26s10.12-4.01,11.06-9.26h139.37c1.09,0,1.98-.89,1.98-1.98s-.89-1.98-1.98-1.98ZM27.59,176.5c-4.02,0-7.28-3.27-7.28-7.28s3.27-7.28,7.28-7.28,7.28,3.27,7.28,7.28-3.27,7.28-7.28,7.28Z"/>
  <path class="cls-1" d="M178.02,138.2h-14.55c-.94-5.26-5.54-9.27-11.06-9.27s-10.12,4.01-11.06,9.27H1.98C.89,138.2,0,139.08,0,140.18s.89,1.98,1.98,1.98h139.37c.94,5.26,5.54,9.27,11.06,9.27s10.12-4.01,11.06-9.27h14.55c1.09,0,1.98-.89,1.98-1.98s-.89-1.98-1.98-1.98ZM152.41,147.46c-4.02,0-7.28-3.27-7.28-7.28s3.27-7.28,7.28-7.28,7.28,3.27,7.28,7.28-3.27,7.28-7.28,7.28Z"/>
  <path class="cls-1" d="M178.02,109.15h-76.96c-.94-5.26-5.54-9.27-11.06-9.27s-10.12,4.01-11.06,9.27H1.98C.89,109.15,0,110.04,0,111.13s.89,1.98,1.98,1.98h76.96c.94,5.26,5.54,9.27,11.06,9.27s10.12-4.01,11.06-9.27h76.96c1.09,0,1.98-.89,1.98-1.98s-.89-1.98-1.98-1.98ZM90,118.42c-4.02,0-7.28-3.27-7.28-7.28s3.27-7.28,7.28-7.28,7.28,3.27,7.28,7.28-3.27,7.28-7.28,7.28Z"/>
  <path class="cls-1" d="M1.98,16.9c1.09,0,1.98-.89,1.98-1.98V4.42h10.5c1.09,0,1.98-.89,1.98-1.98s-.89-1.98-1.98-1.98H1.98C.89.46,0,1.35,0,2.44v12.48C0,16.01.89,16.9,1.98,16.9Z"/>
  <path class="cls-1" d="M178.02.46h-12.48c-1.09,0-1.98.89-1.98,1.98s.89,1.98,1.98,1.98h10.5v10.5c0,1.09.89,1.98,1.98,1.98s1.98-.89,1.98-1.98V2.44c0-1.09-.89-1.98-1.98-1.98Z"/>
  <path class="cls-1" d="M178.02,72.05c-1.09,0-1.98.89-1.98,1.98v10.5h-10.5c-1.09,0-1.98.89-1.98,1.98s.89,1.98,1.98,1.98h12.48c1.09,0,1.98-.89,1.98-1.98v-12.48c0-1.09-.89-1.98-1.98-1.98Z"/>
  <path class="cls-1" d="M1.98,88.49h12.48c1.09,0,1.98-.89,1.98-1.98s-.89-1.98-1.98-1.98H3.96v-10.5c0-1.09-.89-1.98-1.98-1.98S0,72.94,0,74.03v12.48c0,1.09.89,1.98,1.98,1.98Z"/>
  <path class="cls-1" d="M32.83,88.49h114.34c.61,0,1.18-.28,1.56-.76.38-.48.51-1.1.37-1.69-8.23-33.95-14.91-37.9-19.24-37.92-6.03.02-8.19,6.01-9.93,10.83-1.77,4.91-3.05,7.89-5.73,7.99h0c-4.88,0-8.06-14.8-10.61-26.69-3.28-15.28-6.11-28.47-13.59-28.47s-10.31,13.19-13.59,28.47c-2.55,11.89-5.73,26.69-10.54,26.69h0c-2.74-.1-4.02-3.08-5.79-7.99-1.74-4.81-3.91-10.81-9.95-10.83-4.31.02-10.99,3.97-19.22,37.92-.14.59,0,1.21.37,1.69.38.48.95.76,1.56.76ZM50.13,52.09c3.04,0,4.38,3.11,6.22,8.21,1.76,4.88,3.76,10.4,9.45,10.6h0c8.08,0,11.19-14.48,14.48-29.82,2.29-10.69,5.44-25.34,9.71-25.34s7.42,14.65,9.71,25.34c3.29,15.33,6.4,29.82,14.55,29.82h0c5.62-.2,7.62-5.72,9.38-10.6,1.85-5.1,3.18-8.2,6.21-8.21,1.59,0,7.25,2.41,14.79,32.44H35.36c7.54-30.03,13.2-32.44,14.77-32.44Z"/>
</svg>