<?xml version="1.0" encoding="UTF-8"?>
<svg id="Design_UI_Web_Tools" data-name="Design, UI, &amp;amp; Web Tools" xmlns="http://www.w3.org/2000/svg" viewBox="0 0 180 180">
  <defs>
    <style>
      .cls-1 {
        stroke: #000;
        stroke-miterlimit: 10;
        stroke-width: 2px;
      }
    </style>
  </defs>
  <path class="cls-1" d="M44.26,33.08c0,1.15.93,2.08,2.08,2.08h124.87v98.95c0,1.15.93,2.08,2.08,2.08s2.08-.93,2.08-2.08V7.17c0-1.15-.93-2.08-2.08-2.08H46.34c-1.15,0-2.08.93-2.08,2.08s.93,2.08,2.08,2.08h124.87v21.75H46.34c-1.15,0-2.08.93-2.08,2.08Z"/>
  <path class="cls-1" d="M160.58,19.67c0-2.42-1.97-4.4-4.4-4.4s-4.4,1.97-4.4,4.4,1.97,4.4,4.4,4.4,4.4-1.97,4.4-4.4Z"/>
  <path class="cls-1" d="M144.05,19.67c0-2.42-1.97-4.4-4.4-4.4s-4.4,1.97-4.4,4.4,1.97,4.4,4.4,4.4,4.4-1.97,4.4-4.4Z"/>
  <path class="cls-1" d="M127.53,19.67c0-2.42-1.97-4.4-4.4-4.4s-4.4,1.97-4.4,4.4,1.97,4.4,4.4,4.4,4.4-1.97,4.4-4.4Z"/>
  <path class="cls-1" d="M46.34,108.74c-1.15,0-2.08.93-2.08,2.08s.93,2.08,2.08,2.08h56.59c1.15,0,2.08-.93,2.08-2.08v-59.23c0-1.15-.93-2.08-2.08-2.08h-56.59c-1.15,0-2.08.93-2.08,2.08s.93,2.08,2.08,2.08h54.51v55.06h-54.51Z"/>
  <path class="cls-1" d="M154.78,51.36h-35.12c-1.15,0-2.08.93-2.08,2.08s.93,2.08,2.08,2.08h35.12c1.15,0,2.08-.93,2.08-2.08s-.93-2.08-2.08-2.08Z"/>
  <path class="cls-1" d="M154.78,69.87h-35.12c-1.15,0-2.08.93-2.08,2.08s.93,2.08,2.08,2.08h35.12c1.15,0,2.08-.93,2.08-2.08s-.93-2.08-2.08-2.08Z"/>
  <path class="cls-1" d="M154.78,88.38h-35.12c-1.15,0-2.08.93-2.08,2.08s.93,2.08,2.08,2.08h35.12c1.15,0,2.08-.93,2.08-2.08s-.93-2.08-2.08-2.08Z"/>
  <path class="cls-1" d="M154.78,106.89h-35.12c-1.15,0-2.08.93-2.08,2.08s.93,2.08,2.08,2.08h35.12c1.15,0,2.08-.93,2.08-2.08s-.93-2.08-2.08-2.08Z"/>
  <path class="cls-1" d="M177.92,148.7H31.76V2.54c0-1.15-.93-2.08-2.08-2.08H2.08C.93.46,0,1.4,0,2.54v175.84c0,1.15.93,2.08,2.08,2.08h175.84c1.15,0,2.08-.93,2.08-2.08v-27.6c0-1.15-.93-2.08-2.08-2.08ZM175.84,176.3h-21.44v-9.27c0-1.15-.93-2.08-2.08-2.08s-2.08.93-2.08,2.08v9.27h-25.14v-9.27c0-1.15-.93-2.08-2.08-2.08s-2.08.93-2.08,2.08v9.27h-25.14v-9.27c0-1.15-.93-2.08-2.08-2.08s-2.08.93-2.08,2.08v9.27h-25.14v-9.27c0-1.15-.93-2.08-2.08-2.08s-2.08.93-2.08,2.08v9.27h-25.14v-9.27c0-1.15-.93-2.08-2.08-2.08s-2.08.93-2.08,2.08v9.27H4.16v-28.84h9.27c1.15,0,2.08-.93,2.08-2.08s-.93-2.08-2.08-2.08H4.16v-25.14h9.27c1.15,0,2.08-.93,2.08-2.08s-.93-2.08-2.08-2.08H4.16v-25.14h9.27c1.15,0,2.08-.93,2.08-2.08s-.93-2.08-2.08-2.08H4.16v-25.14h9.27c1.15,0,2.08-.93,2.08-2.08s-.93-2.08-2.08-2.08H4.16v-25.14h9.27c1.15,0,2.08-.93,2.08-2.08s-.93-2.08-2.08-2.08H4.16V4.63h23.44v146.15c0,1.15.93,2.08,2.08,2.08h146.15v23.44Z"/>
</svg>