<?xml version="1.0" encoding="UTF-8"?>
<svg id="Design_UI_Web_Tools" data-name="Design, UI, &amp;amp; Web Tools" xmlns="http://www.w3.org/2000/svg" viewBox="0 0 180 180">
  <defs>
    <style>
      .cls-1 {
        stroke: #000;
        stroke-miterlimit: 10;
        stroke-width: 2px;
      }
    </style>
  </defs>
  <path class="cls-1" d="M167.9,71.07H12.1c-1.02,0-1.85.83-1.85,1.85v97.09c0,1.02.83,1.85,1.85,1.85s1.85-.83,1.85-1.85v-72.28h152.12v72.28c0,1.02.83,1.85,1.85,1.85s1.85-.83,1.85-1.85v-97.09c0-1.02-.83-1.85-1.85-1.85ZM166.06,74.76v19.27H13.94v-19.27h152.12Z"/>
  <path class="cls-1" d="M152.74,87.88c2.15,0,3.9-1.75,3.9-3.9s-1.75-3.9-3.9-3.9-3.9,1.75-3.9,3.9,1.75,3.9,3.9,3.9Z"/>
  <path class="cls-1" d="M138.1,87.88c2.15,0,3.9-1.75,3.9-3.9s-1.75-3.9-3.9-3.9-3.9,1.75-3.9,3.9,1.75,3.9,3.9,3.9Z"/>
  <path class="cls-1" d="M123.46,87.88c2.15,0,3.9-1.75,3.9-3.9s-1.75-3.9-3.9-3.9-3.9,1.75-3.9,3.9,1.75,3.9,3.9,3.9Z"/>
  <path class="cls-1" d="M105.56,110.44H28.5c-1.02,0-1.85.83-1.85,1.85v52.48c0,1.02.83,1.85,1.85,1.85h77.06c1.02,0,1.85-.83,1.85-1.85v-52.48c0-1.02-.83-1.85-1.85-1.85ZM103.72,162.92H30.34v-48.79h73.37v48.79Z"/>
  <path class="cls-1" d="M151.5,112.08h-31.12c-1.02,0-1.85.83-1.85,1.85s.83,1.85,1.85,1.85h31.12c1.02,0,1.85-.83,1.85-1.85s-.83-1.85-1.85-1.85Z"/>
  <path class="cls-1" d="M151.5,128.48h-31.12c-1.02,0-1.85.83-1.85,1.85s.83,1.85,1.85,1.85h31.12c1.02,0,1.85-.83,1.85-1.85s-.83-1.85-1.85-1.85Z"/>
  <path class="cls-1" d="M151.5,144.88h-31.12c-1.02,0-1.85.83-1.85,1.85s.83,1.85,1.85,1.85h31.12c1.02,0,1.85-.83,1.85-1.85s-.83-1.85-1.85-1.85Z"/>
  <path class="cls-1" d="M151.5,161.28h-31.12c-1.02,0-1.85.83-1.85,1.85s.83,1.85,1.85,1.85h31.12c1.02,0,1.85-.83,1.85-1.85s-.83-1.85-1.85-1.85Z"/>
  <path class="cls-1" d="M60.36,50.04c.35.35.83.54,1.31.54.24,0,.48-.05.7-.14.69-.29,1.14-.96,1.14-1.71v-8.29h52.98v8.29c0,.75.45,1.42,1.14,1.71.69.29,1.49.13,2.01-.4l18.83-18.91c.72-.72.72-1.88,0-2.6l-18.83-18.91c-.53-.53-1.32-.69-2.01-.4-.69.29-1.14.96-1.14,1.71v8.3h-52.98v-8.3c0-.75-.45-1.42-1.14-1.71-.69-.29-1.48-.12-2.01.4l-18.83,18.91c-.72.72-.72,1.88,0,2.6l18.83,18.91ZM59.82,15.39v5.67c0,1.02.83,1.85,1.85,1.85h56.67c1.02,0,1.85-.83,1.85-1.85v-5.67l14.38,14.44-14.38,14.44v-5.67c0-1.02-.83-1.85-1.85-1.85h-56.67c-1.02,0-1.85.83-1.85,1.85v5.67l-14.38-14.44,14.38-14.44Z"/>
  <path class="cls-1" d="M20.68,50.59c.24,0,.48-.05.7-.14.69-.29,1.14-.96,1.14-1.71v-8.29h12.64c1.02,0,1.85-.83,1.85-1.85s-.83-1.85-1.85-1.85h-14.49c-1.02,0-1.85.83-1.85,1.85v5.67l-14.38-14.44,14.38-14.44v5.67c0,1.02.83,1.85,1.85,1.85h14.48c1.02,0,1.85-.83,1.85-1.85s-.83-1.85-1.85-1.85h-12.64v-8.3c0-.75-.45-1.42-1.14-1.71-.69-.29-1.48-.12-2.01.4L.54,28.53c-.72.72-.72,1.88,0,2.6l18.83,18.91c.35.35.83.54,1.31.54Z"/>
  <path class="cls-1" d="M179.46,28.53l-18.83-18.91c-.53-.53-1.32-.69-2.01-.4-.69.29-1.14.96-1.14,1.71v8.3h-12.64c-1.02,0-1.85.83-1.85,1.85s.83,1.85,1.85,1.85h14.48c1.02,0,1.85-.83,1.85-1.85v-5.67l14.38,14.44-14.38,14.44v-5.67c0-1.02-.83-1.85-1.85-1.85h-14.49c-1.02,0-1.85.83-1.85,1.85s.83,1.85,1.85,1.85h12.64v8.29c0,.75.45,1.42,1.14,1.71.23.09.47.14.7.14.48,0,.96-.19,1.31-.54l18.83-18.91c.72-.72.72-1.88,0-2.6Z"/>
</svg>