<?xml version="1.0" encoding="UTF-8"?>
<svg id="Scalability" xmlns="http://www.w3.org/2000/svg" viewBox="0 0 179.73 179.73">
  <path d="M89.86,163.44c-13.5,0-24.48-13.21-24.48-29.46s10.98-29.46,24.48-29.46c13.5,0,24.48,13.21,24.48,29.46s-10.98,29.46-24.48,29.46ZM89.86,109.78c-10.6,0-19.23,10.86-19.23,24.21s8.63,24.21,19.23,24.21,19.23-10.86,19.23-24.21-8.63-24.21-19.23-24.21h0Z"/>
  <path d="M123.56,163.44c-1.45,0-2.63-1.18-2.63-2.62s1.18-2.62,2.63-2.62h25.55c.52-2.8,1.86-5.35,3.91-7.4,2.05-2.05,4.59-3.39,7.4-3.91v-25.8c-5.74-1.07-10.23-5.56-11.3-11.3h-25.55c-1.45,0-2.63-1.18-2.63-2.62s1.18-2.62,2.63-2.62h27.93c.7,0,1.36.27,1.86.77.5.49.77,1.15.77,1.85,0,4.92,4,8.92,8.92,8.92,1.45,0,2.63,1.18,2.63,2.62v30.57c0,.69-.28,1.37-.77,1.86-.5.5-1.16.77-1.86.77-2.38,0-4.62.93-6.31,2.61-1.69,1.68-2.61,3.93-2.61,6.31,0,1.45-1.18,2.62-2.63,2.62h-27.93Z"/>
  <path d="M28.23,163.44c-1.45,0-2.63-1.18-2.63-2.62,0-4.92-4-8.92-8.92-8.92-1.45,0-2.63-1.18-2.63-2.63v-30.57c0-1.45,1.18-2.62,2.63-2.62,4.92,0,8.92-4,8.92-8.92,0-1.45,1.18-2.62,2.63-2.62h27.93c1.45,0,2.63,1.18,2.63,2.62s-1.18,2.63-2.63,2.63h-25.55c-1.07,5.74-5.56,10.23-11.3,11.3v25.8c5.74,1.07,10.23,5.56,11.3,11.3h25.55c1.45,0,2.63,1.18,2.63,2.62s-1.18,2.62-2.63,2.62h-27.93Z"/>
  <path d="M1.63,180.73c-1.45,0-2.63-1.18-2.63-2.63v-88.24c0-1.45,1.18-2.62,2.63-2.62h176.47c1.45,0,2.63,1.18,2.63,2.62v88.24c0,1.45-1.18,2.63-2.63,2.63H1.63ZM175.47,175.48v-82.99H4.25v82.99h171.22Z"/>
  <path d="M134.73,70.79c-1.45,0-2.63-1.18-2.63-2.62,0-4.97-.86-9.84-2.54-14.47-.5-1.36.21-2.87,1.57-3.37.29-.11.59-.16.9-.16,1.1,0,2.09.69,2.47,1.73,1.6,4.38,2.53,8.97,2.79,13.64h16.44c-.91-22.22-13.45-42.49-32.98-53.32l-7.34,14.7c3.31,1.89,6.38,4.17,9.12,6.77,1.05,1,1.09,2.66.1,3.71-.5.52-1.19.82-1.91.82-.67,0-1.31-.25-1.8-.72-7.88-7.47-18.2-11.58-29.05-11.58-23.29,0-42.24,18.95-42.24,42.24,0,1.45-1.18,2.62-2.63,2.62h-21.67c-1.45,0-2.62-1.18-2.62-2.62C20.7,30.03,51.73-1,89.86-1s69.17,31.03,69.17,69.17c0,1.45-1.18,2.62-2.63,2.62h-21.67ZM42.44,65.54c1.37-25.24,22.02-44.87,47.42-44.87,6.56,0,12.89,1.31,18.85,3.89l7.34-14.69c-8.26-3.73-17.07-5.62-26.19-5.62-34.04,0-62.47,27.4-63.86,61.29h16.44Z"/>
  <path d="M89.86,82.65c-7.99,0-14.48-6.5-14.48-14.48s6.5-14.48,14.48-14.48c1.78,0,3.53.33,5.19.97l35.11-16.04c.34-.16.71-.24,1.09-.24.89,0,1.71.44,2.19,1.18.72,1.09.53,2.52-.44,3.39l-28.68,25.88c-.35,7.66-6.75,13.82-14.47,13.82ZM89.86,58.93c-5.09,0-9.23,4.14-9.23,9.23s4.14,9.23,9.23,9.23,9.23-4.14,9.23-9.23l-.02-.37c-.04-.8.28-1.55.86-2.08l16.89-15.24-20.66,9.44c-.35.16-.71.24-1.09.24-.4,0-.8-.09-1.16-.27-1.29-.63-2.65-.95-4.06-.95Z"/>
</svg>