<?xml version="1.0" encoding="UTF-8"?>
<svg id="Scalability" xmlns="http://www.w3.org/2000/svg" viewBox="0 0 179.73 179.73">
  <path d="M1.59,180.73c-1.42,0-2.58-1.16-2.58-2.58s1.16-2.58,2.58-2.58h5.77v-54.04c0-1.42,1.16-2.58,2.58-2.58h26.47c1.42,0,2.58,1.16,2.58,2.58v54.04h12.82v-105.96c0-1.43,1.16-2.58,2.58-2.58h26.47c1.42,0,2.58,1.16,2.58,2.58v105.96h12.82v-54.04c0-1.42,1.16-2.58,2.58-2.58h26.47c1.43,0,2.58,1.16,2.58,2.58v54.04h12.81v-88.22c0-1.42,1.16-2.58,2.58-2.58h26.47c1.43,0,2.58,1.16,2.58,2.58v88.22h5.77c1.43,0,2.58,1.16,2.58,2.58s-1.16,2.58-2.58,2.58H1.59ZM167.19,175.56v-85.63h-21.3v85.63h21.3ZM122.74,175.56v-51.46h-21.3v51.46h21.3ZM78.29,175.56v-103.37h-21.3v103.37h21.3ZM33.84,175.56v-51.46H12.54v51.46h21.3Z"/>
  <path d="M112.09,73.54c-7.21,0-13.07-5.86-13.07-13.07,0-2.76.88-5.45,2.5-7.68l-27.13-29.53c-2.04,1.24-4.36,1.89-6.76,1.89s-4.71-.65-6.76-1.89l-27.13,29.53c1.62,2.23,2.5,4.92,2.5,7.68,0,7.21-5.86,13.07-13.07,13.07s-13.07-5.86-13.07-13.07,5.86-13.07,13.07-13.07c2.4,0,4.71.65,6.76,1.89l27.13-29.53c-1.62-2.23-2.5-4.92-2.5-7.68,0-7.21,5.86-13.07,13.07-13.07s13.07,5.86,13.07,13.07c0,2.76-.88,5.45-2.5,7.68l27.13,29.53c2.04-1.24,4.36-1.89,6.76-1.89s4.71.65,6.76,1.89l28.56-31.09-7.77-7.77c-.65-.65-.91-1.6-.67-2.5.24-.89.94-1.59,1.83-1.83l26.23-7.03c.22-.06.44-.09.67-.09.69,0,1.34.27,1.83.76.65.65.91,1.61.67,2.5l-7.03,26.23c-.24.89-.94,1.59-1.83,1.83-.21.06-.44.09-.67.09-.69,0-1.34-.27-1.83-.76l-7.77-7.77-28.42,30.93c1.62,2.23,2.5,4.92,2.5,7.68,0,7.21-5.86,13.07-13.07,13.07ZM112.09,52.58c-4.36,0-7.9,3.54-7.9,7.9s3.54,7.9,7.9,7.9,7.9-3.54,7.9-7.9-3.54-7.9-7.9-7.9ZM23.19,52.58c-4.36,0-7.9,3.54-7.9,7.9s3.54,7.9,7.9,7.9,7.9-3.54,7.9-7.9-3.54-7.9-7.9-7.9ZM159.33,22.82l4.71-17.58-17.58,4.71,12.87,12.87ZM67.64,4.19c-4.36,0-7.9,3.54-7.9,7.9s3.54,7.9,7.9,7.9,7.9-3.54,7.9-7.9-3.54-7.9-7.9-7.9Z"/>
</svg>