<?xml version="1.0" encoding="UTF-8"?>
<svg id="Scalability" xmlns="http://www.w3.org/2000/svg" viewBox="0 0 179.65 179.65">
  <path d="M27.84,95.1c-.65,0-1.28-.13-1.88-.38-1.84-.76-3.03-2.54-3.03-4.53v-9.69h-8.94c-7.16,0-12.99-5.83-12.99-12.99v-34.59c0-7.16,5.83-12.99,12.99-12.99h12.51c1.38,0,2.51,1.12,2.51,2.51s-1.13,2.51-2.51,2.51h-12.51c-4.4,0-7.97,3.58-7.97,7.97v34.59c0,4.4,3.58,7.97,7.97,7.97h11.45c1.38,0,2.51,1.12,2.51,2.51v11.92l13.7-13.7c.47-.47,1.1-.74,1.77-.74h27.17c4.4,0,7.97-3.58,7.97-7.97v-34.59c0-4.4-3.58-7.97-7.97-7.97h-12.51c-1.38,0-2.51-1.12-2.51-2.51s1.13-2.51,2.51-2.51h12.51c7.16,0,12.99,5.83,12.99,12.99v34.59c0,7.16-5.83,12.99-12.99,12.99h-26.13l-13.16,13.16c-.93.93-2.16,1.44-3.46,1.44Z"/>
  <path d="M151.81,76.16c-1.3,0-2.53-.51-3.46-1.44l-13.15-13.16h-26.13c-7.16,0-12.99-5.83-12.99-12.99V13.99c0-7.16,5.83-12.99,12.99-12.99h56.59c7.16,0,12.99,5.83,12.99,12.99v34.59c0,7.16-5.83,12.99-12.99,12.99h-8.94v9.69c0,1.99-1.19,3.77-3.03,4.53-.6.25-1.24.38-1.88.38ZM109.07,6.02c-4.4,0-7.97,3.58-7.97,7.97v34.59c0,4.39,3.58,7.97,7.97,7.97h27.17c.67,0,1.3.26,1.77.74l13.7,13.7v-11.92c0-1.38,1.13-2.51,2.51-2.51h11.45c4.4,0,7.97-3.58,7.97-7.97V13.99c0-4.4-3.58-7.97-7.97-7.97h-56.59Z"/>
  <path d="M3.51,178.65c-1.38,0-2.51-1.12-2.51-2.51s1.13-2.51,2.51-2.51h6.99v-50.24c0-1.38,1.13-2.51,2.51-2.51h25.26c1.38,0,2.51,1.12,2.51,2.51v50.24h12.51v-69.77c0-1.38,1.13-2.51,2.51-2.51h25.26c1.38,0,2.51,1.12,2.51,2.51v69.77h12.51v-50.24c0-1.38,1.13-2.51,2.51-2.51h25.26c1.38,0,2.51,1.12,2.51,2.51v50.24h12.51v-83.76c0-1.38,1.13-2.51,2.51-2.51h25.26c1.38,0,2.51,1.12,2.51,2.51v83.76h6.29c1.38,0,2.51,1.12,2.51,2.51s-1.13,2.51-2.51,2.51H3.51ZM143.89,173.63h20.25v-81.26h-20.25v81.26ZM101.1,173.63h20.25v-47.73h-20.25v47.73ZM58.31,173.63h20.25v-67.26h-20.25v67.26ZM15.52,173.63h20.25v-47.73H15.52v47.73Z"/>
  <path d="M37.37,62.56c-.39,0-.77-.09-1.12-.27-.6-.3-1.05-.81-1.26-1.45s-.16-1.32.14-1.92l9.82-19.64c.43-.86,1.29-1.39,2.25-1.39.39,0,.77.09,1.12.27,1.24.62,1.74,2.13,1.12,3.37l-9.82,19.64c-.43.85-1.29,1.39-2.25,1.39Z"/>
  <path d="M32.99,42.92c-.66,0-1.31-.27-1.78-.74-.47-.47-.73-1.11-.73-1.77s.27-1.31.73-1.78c.47-.46,1.11-.73,1.77-.73s1.31.27,1.78.74c.46.46.73,1.11.73,1.77s-.27,1.31-.73,1.77c-.47.47-1.12.74-1.78.74Z"/>
  <path d="M51.58,62.56c-.66,0-1.31-.27-1.77-.73-.47-.47-.74-1.11-.74-1.77s.27-1.31.73-1.78c.46-.46,1.11-.73,1.77-.73s1.31.27,1.77.73c.47.47.74,1.12.74,1.78s-.27,1.3-.73,1.77c-.47.47-1.11.74-1.78.74Z"/>
  <path d="M115.93,44.99c-.67,0-1.3-.26-1.77-.73-.47-.47-.73-1.1-.73-1.77s.26-1.3.73-1.77l13.63-13.63c.47-.47,1.1-.73,1.77-.73s1.3.26,1.77.73l8.46,8.46,12.71-12.71-1.99-.27c-1.23-.17-2.16-1.24-2.16-2.48,0-1.38,1.13-2.51,2.51-2.51h7.95c1.38,0,2.51,1.12,2.51,2.51v7.95c0,1.38-1.13,2.51-2.51,2.51-1.25,0-2.31-.93-2.48-2.16l-.27-2-14.48,14.48c-.47.47-1.1.73-1.77.73s-1.3-.26-1.77-.73l-8.46-8.46-11.85,11.85c-.47.47-1.1.73-1.77.73Z"/>
  <path d="M42.29,24.97c-.66,0-1.31-.27-1.78-.74-.46-.46-.73-1.11-.73-1.77s.27-1.31.73-1.77c.47-.47,1.11-.74,1.77-.74s1.31.27,1.77.74c.47.47.74,1.11.74,1.77s-.27,1.31-.73,1.77c-.47.47-1.11.74-1.77.74Z"/>
</svg>