<?xml version="1.0" encoding="UTF-8"?>
<svg id="Scalability" xmlns="http://www.w3.org/2000/svg" viewBox="0 0 179.73 179.73">
  <path d="M40.79,148.45c-1.4,0-2.54-1.14-2.54-2.54v-39.35c0-1.4,1.14-2.54,2.54-2.54s2.54,1.14,2.54,2.54v39.35c0,1.4-1.14,2.54-2.54,2.54Z"/>
  <path d="M60.42,139.6c-1.4,0-2.54-1.14-2.54-2.54v-30.5c0-1.4,1.14-2.54,2.54-2.54s2.54,1.14,2.54,2.54v30.5c0,1.4-1.14,2.54-2.54,2.54Z"/>
  <path d="M80.05,124.09c-1.4,0-2.54-1.14-2.54-2.54v-14.99c0-1.4,1.14-2.54,2.54-2.54s2.54,1.14,2.54,2.54v14.99c0,1.4-1.14,2.54-2.54,2.54Z"/>
  <path d="M99.68,124.35c-1.4,0-2.54-1.14-2.54-2.54v-15.25c0-1.4,1.14-2.54,2.54-2.54s2.54,1.14,2.54,2.54v15.25c0,1.4-1.14,2.54-2.54,2.54Z"/>
  <path d="M119.31,139.6c-1.4,0-2.54-1.14-2.54-2.54v-30.5c0-1.4,1.14-2.54,2.54-2.54s2.54,1.14,2.54,2.54v30.5c0,1.4-1.14,2.54-2.54,2.54Z"/>
  <path d="M138.94,148.45c-1.4,0-2.54-1.14-2.54-2.54v-39.35c0-1.4,1.14-2.54,2.54-2.54s2.54,1.14,2.54,2.54v39.35c0,1.4-1.14,2.54-2.54,2.54Z"/>
  <path d="M115.32,169.51c-1.4,0-2.54-1.14-2.54-2.54s1.14-2.54,2.54-2.54h27.93c5.75,0,9.67-1.98,11.43-11.83,1.53-8.6,8.94-48.69,11.52-62.67H11.24c2.58,13.97,9.98,54.02,11.52,62.67,1.75,9.86,5.67,11.83,11.43,11.83h30.22c1.4,0,2.54,1.14,2.54,2.54s-1.14,2.54-2.54,2.54h-30.22c-9.27,0-14.49-5.09-16.44-16.03-1.67-9.39-10.42-56.73-11.69-63.57H1.62c-1.4,0-2.54-1.14-2.54-2.54v-19.81c0-1.4,1.14-2.54,2.54-2.54h43.82L71.63,5.55c1.17-2.65,3.3-4.69,6-5.74,1.27-.49,2.59-.74,3.93-.74,1.5,0,2.97.31,4.37.92,1.53.68,2.87,1.68,3.93,2.94,1.06-1.26,2.4-2.27,3.93-2.94,1.39-.61,2.86-.93,4.37-.93,1.34,0,2.67.25,3.93.74,2.7,1.05,4.83,3.09,6,5.74l26.19,59.46h43.82c1.4,0,2.54,1.14,2.54,2.54v19.81c0,1.4-1.14,2.54-2.54,2.54h-6.73c-1.31,7.07-10,54.11-11.69,63.57-1.95,10.94-7.17,16.03-16.44,16.03h-27.93ZM175.56,84.82v-14.72H4.16v14.72h171.4ZM128.72,65.01L103.44,7.6c-.92-2.09-2.99-3.44-5.28-3.44-.8,0-1.58.17-2.31.49-1.41.62-2.49,1.75-3.05,3.19-.56,1.43-.52,3,.1,4.41l23.24,52.76h12.59ZM110.57,65.01l-20.71-47.03-20.71,47.03h41.42ZM63.59,65.01l23.24-52.76c.62-1.41.65-2.97.1-4.41-.56-1.43-1.64-2.57-3.05-3.19-.74-.32-1.51-.49-2.31-.49-2.29,0-4.36,1.35-5.28,3.44l-25.28,57.4h12.59Z"/>
  <path d="M106.03,180.65c-1.4,0-2.54-1.14-2.54-2.54v-26.26c0-1.4,1.14-2.54,2.54-2.54h9.69l-25.86-20.43-25.86,20.43h9.69c1.4,0,2.54,1.14,2.54,2.54v26.26c0,1.4-1.14,2.54-2.54,2.54s-2.54-1.14-2.54-2.54v-23.72h-14.47c-1.08,0-2.05-.69-2.4-1.71-.35-1.02-.02-2.16.83-2.83l33.18-26.22c.45-.35,1.01-.55,1.58-.55s1.13.19,1.58.55l33.18,26.22c.85.67,1.18,1.81.83,2.83-.36,1.02-1.32,1.71-2.4,1.71h-14.47v23.72c0,1.4-1.14,2.54-2.54,2.54Z"/>
</svg>