<?xml version="1.0" encoding="UTF-8"?>
<svg id="Scalability" xmlns="http://www.w3.org/2000/svg" viewBox="0 0 179.73 179.73">
  <path d="M102.32,113.26c-.79,0-1.6-.04-2.4-.12-6.12-.63-12.11-3.58-16.84-8.32-4.74-4.74-7.69-10.72-8.32-16.84-.65-6.31,1.24-12.02,5.3-16.08,3.48-3.48,8.35-5.4,13.71-5.4,6.86,0,13.87,3.07,19.22,8.42,4.74,4.74,7.69,10.72,8.32,16.84.64,6.31-1.24,12.02-5.3,16.08-3.55,3.55-8.28,5.42-13.68,5.42ZM93.76,71.26c-4.13,0-7.7,1.39-10.33,4.01-3.02,3.02-4.42,7.36-3.92,12.21.51,5.03,2.98,9.98,6.94,13.94,3.96,3.96,8.91,6.42,13.95,6.94.64.07,1.28.1,1.9.1,4.11,0,7.68-1.39,10.3-4.02,3.02-3.02,4.41-7.36,3.92-12.21-.51-5.03-2.98-9.99-6.94-13.95-4.47-4.47-10.24-7.03-15.83-7.03Z"/>
  <path d="M134.75,88.09c-.64,0-1.24-.25-1.69-.7-.93-.93-.94-2.45,0-3.39l15.42-15.42c-2.78-4.14-2.78-9.54,0-13.68l-15.49-15.49c-2.01,1.34-4.4,2.07-6.84,2.07s-4.83-.73-6.84-2.07l-15.42,15.42c-.45.45-1.05.7-1.69.7s-1.24-.25-1.69-.7c-.93-.93-.93-2.45,0-3.39l16.95-16.95c.45-.45,1.05-.7,1.69-.7s1.24.25,1.69.7c1.42,1.42,3.3,2.2,5.31,2.2s3.9-.78,5.31-2.2c.45-.45,1.05-.7,1.69-.7s1.24.25,1.69.7l18.55,18.55c.45.45.7,1.05.7,1.69s-.25,1.24-.7,1.69c-1.42,1.42-2.2,3.3-2.2,5.31s.78,3.9,2.2,5.31c.93.93.93,2.45,0,3.39l-16.95,16.95c-.45.45-1.05.7-1.69.7Z"/>
  <path d="M54.01,103.71c-.64,0-1.24-.25-1.69-.7-.93-.93-.93-2.45,0-3.39l7.29-7.29c.45-.45,1.05-.7,1.69-.7s1.24.25,1.69.7c.93.93.93,2.45,0,3.39l-7.29,7.29c-.45.45-1.05.7-1.69.7Z"/>
  <path d="M76.91,145.93c-.64,0-1.24-.25-1.69-.7-1.42-1.42-3.31-2.2-5.31-2.2s-3.89.78-5.31,2.2c-.44.44-1.05.69-1.69.69s-1.26-.25-1.69-.69l-10.33-10.33c-.45-.45-.7-1.05-.7-1.69s.25-1.24.7-1.69c.45-.45,1.05-.7,1.69-.7s1.24.25,1.69.7l8.8,8.8c2.02-1.36,4.37-2.07,6.84-2.07s4.82.71,6.84,2.07l15.42-15.42c.45-.45,1.05-.7,1.69-.7s1.24.25,1.69.7c.93.93.93,2.45,0,3.39l-16.95,16.95c-.45.45-1.05.7-1.69.7Z"/>
  <path d="M29.86,148.3c-.64,0-1.24-.25-1.69-.7L-.3,119.14c-.93-.93-.93-2.45,0-3.39l22.13-22.13c.43-.43,1.03-.68,1.69-.7.69.01,1.32.29,1.76.76,12.45,13.35,9.78,22.9,7.2,32.13-1.72,6.15-3.35,11.97-.4,19.18.43,1.05.06,2.27-.89,2.9-.39.26-.85.4-1.33.4ZM25.69,138.35c-.29-5.03.96-9.49,2.17-13.82,2.3-8.22,4.29-15.34-4.44-25.72l-18.63,18.63,20.9,20.9Z"/>
  <path d="M71.26,172.56c-.64,0-1.24-.25-1.69-.7l-25.08-25.08c-.23-.23-.4-.49-.52-.78-3.57-8.74-1.64-15.63.22-22.29,2.43-8.69,4.53-16.19-6.09-27.58-.88-.95-.86-2.41.06-3.33L123.1,7.86c.45-.45,1.05-.7,1.69-.7s1.24.25,1.69.7l53.54,53.54c.45.44.7,1.06.7,1.69s-.25,1.24-.7,1.69l-107.07,107.08c-.45.45-1.06.7-1.69.7ZM71.26,166.78l103.69-103.69L124.79,12.94,43.14,94.6c10.67,12.47,8.12,21.58,5.66,30.41-1.69,6.03-3.28,11.73-.57,18.74l23.03,23.03Z"/>
  <circle cx="33.81" cy="68.87" r="3.99"/>
  <path d="M23.11,41.77c-2.2,0-3.99-1.79-3.99-3.99s1.79-3.99,3.99-3.99,3.99,1.79,3.99,3.99-1.79,3.99-3.99,3.99Z"/>
  <path d="M52.41,24.63c-2.2,0-3.99-1.79-3.99-3.99s1.79-3.99,3.99-3.99,3.99,1.79,3.99,3.99-1.79,3.99-3.99,3.99Z"/>
  <path d="M151.7,121.59c-2.2,0-3.99-1.79-3.99-3.99s1.79-3.99,3.99-3.99,3.99,1.79,3.99,3.99-1.79,3.99-3.99,3.99Z"/>
  <path d="M129.98,157.99c-2.2,0-3.99-1.79-3.99-3.99s1.79-3.99,3.99-3.99,3.99,1.79,3.99,3.99-1.79,3.99-3.99,3.99Z"/>
  <path d="M163.98,145.93c-2.2,0-3.99-1.79-3.99-3.99s1.79-3.99,3.99-3.99,3.99,1.79,3.99,3.99-1.79,3.99-3.99,3.99Z"/>
  <path d="M82.05,33.43c-2.2,0-3.99-1.79-3.99-3.99s1.79-3.99,3.99-3.99,3.99,1.79,3.99,3.99-1.79,3.99-3.99,3.99Z"/>
</svg>