<?xml version="1.0" encoding="UTF-8"?>
<svg id="Scalability" xmlns="http://www.w3.org/2000/svg" viewBox="0 0 179.73 179.73">
  <path d="M150.76,175.48c-8.74,0-16.23-6.58-17.46-15.15H55.48c-1.23,8.57-8.72,15.15-17.46,15.15-9.73,0-17.65-7.92-17.65-17.65s7.92-17.64,17.65-17.64c.12,0,.24,0,.36,0l7.8-25.13-14.48-71.33v-.02C28.29,24.62,22.89,15.55,1.53,15.55c-1.37,0-2.49-1.12-2.49-2.49s1.12-2.49,2.49-2.49c23.82,0,31.04,11.55,34.69,30.26h16.45c1.37,0,2.49,1.12,2.49,2.49s-1.12,2.49-2.49,2.49h-15.47l6.28,30.95h15.47c1.37,0,2.49,1.12,2.49,2.49s-1.12,2.49-2.49,2.49h-14.46l6.28,30.95h20.21v-16.9c0-1.37,1.12-2.49,2.49-2.49s2.49,1.12,2.49,2.49v16.9h27.71v-5.92c0-1.37,1.12-2.49,2.49-2.49s2.49,1.12,2.49,2.49v5.92h27.71v-16.9c0-1.37,1.12-2.49,2.49-2.49s2.49,1.12,2.49,2.49v16.9c13.88-.03,15.45-5.67,16.96-11.13l.07-.26c1.11-4,3.02-10.58,5.68-19.57h-10.68c-1.37,0-2.49-1.12-2.49-2.49s1.12-2.49,2.49-2.49h12.16c3.63-12.2,7.46-24.9,9.29-30.95h-15.16c-1.37,0-2.49-1.12-2.49-2.49s1.12-2.49,2.49-2.49h18.52c.79,0,1.53.38,2,1.01.47.63.61,1.46.38,2.21-.13.44-13.38,44.18-17.39,58.61l-.07.25c-1.53,5.53-4.09,14.78-21.86,14.78H50.58l-7.24,23.34c6.45,2.04,11.19,7.62,12.14,14.31h77.83c1.23-8.57,8.72-15.15,17.46-15.15,9.73,0,17.65,7.92,17.65,17.64s-7.92,17.65-17.65,17.65ZM150.76,145.17c-6.98,0-12.66,5.68-12.66,12.66s5.68,12.66,12.66,12.66,12.66-5.68,12.66-12.66-5.68-12.66-12.66-12.66ZM38.02,145.17c-6.98,0-12.66,5.68-12.66,12.66s5.68,12.66,12.66,12.66,12.66-5.68,12.66-12.66-5.68-12.66-12.66-12.66Z"/>
  <path d="M106.17,100.75c-26.61,0-48.25-21.65-48.25-48.25S79.57,4.25,106.17,4.25s48.25,21.65,48.25,48.25-21.65,48.25-48.25,48.25ZM106.17,9.23c-23.86,0-43.27,19.41-43.27,43.27s19.41,43.27,43.27,43.27,43.27-19.41,43.27-43.27-19.41-43.27-43.27-43.27Z"/>
  <path d="M106.17,86.09c-1.37,0-2.49-1.12-2.49-2.49v-5.03c-7.44-1.2-12.94-7.59-12.94-15.23,0-1.37,1.12-2.49,2.49-2.49s2.49,1.12,2.49,2.49c0,5.76,4.69,10.44,10.44,10.44,2.89,0,5.69-1.19,7.68-3.26,1.88-1.95,2.86-4.47,2.76-7.09-.23-6.17-4.9-8.69-10.31-11.61-5.45-2.94-11.62-6.27-11.65-14.07-.01-2.9,1.26-5.84,3.48-8.07,1.58-1.58,3.48-2.66,5.55-3.15v-5.13c0-1.37,1.12-2.49,2.49-2.49s2.49,1.12,2.49,2.49v5.11c5.2,1.16,9.02,5.84,9.02,11.23,0,1.37-1.12,2.49-2.49,2.49s-2.49-1.12-2.49-2.49c0-3.6-2.93-6.53-6.53-6.53-1.63,0-3.23.71-4.5,1.99-1.27,1.28-2.03,2.97-2.03,4.53.02,4.83,4,6.98,9.04,9.7,5.61,3.03,12.59,6.8,12.92,15.81.15,3.99-1.33,7.8-4.15,10.73-2.35,2.44-5.44,4.04-8.78,4.58v5.03c0,1.37-1.12,2.49-2.49,2.49Z"/>
</svg>