<?xml version="1.0" encoding="UTF-8"?>
<svg id="Scalability" xmlns="http://www.w3.org/2000/svg" xmlns:xlink="http://www.w3.org/1999/xlink" viewBox="0 0 179.65 179.65">
  <defs>
    <style>
      .cls-1 {
        fill: none;
      }

      .cls-2 {
        clip-path: url(#clippath-1);
      }
    </style>
    <clipPath id="clippath-1">
      <rect class="cls-1" x="0" width="179.65" height="179.65"/>
    </clipPath>
  </defs>
  <g class="cls-2">
    <path d="M129.92,178.65c-7.57,0-13.74-6.16-13.74-13.74,0-2.55.71-5.03,2.04-7.19l.94-1.53h-33.05l.94,1.53c1.33,2.16,2.04,4.65,2.04,7.19,0,7.58-6.16,13.74-13.74,13.74s-13.74-6.16-13.74-13.74c0-2.55.71-5.03,2.04-7.19l.94-1.53h-7.18c-5.08,0-9.45-3.45-10.63-8.38L21.91,43.91h-9.98c-6.03,0-10.93-4.9-10.93-10.93s4.9-10.93,10.93-10.93h18.6c5.08,0,9.45,3.45,10.63,8.38l4.72,19.69h25.14v-24.83c0-1.38,1.13-2.51,2.51-2.51h17.14v-2.43c0-10.67,8.68-19.35,19.35-19.35s19.35,8.68,19.35,19.35v2.43h17.14c1.38,0,2.51,1.12,2.51,2.51v24.83h27.12c.77,0,1.49.35,1.97.96.48.61.65,1.39.47,2.14l-19.43,81.09,1.23.03c5.86.16,10.63,5.06,10.63,10.92s-4.9,10.93-10.93,10.93h-19.42l.94,1.53c1.33,2.16,2.04,4.65,2.04,7.19,0,7.58-6.16,13.74-13.74,13.74ZM129.92,156.19c-4.81,0-8.72,3.91-8.72,8.72s3.91,8.72,8.72,8.72,8.72-3.91,8.72-8.72-3.91-8.72-8.72-8.72ZM75.36,156.19c-4.81,0-8.72,3.91-8.72,8.72s3.91,8.72,8.72,8.72,8.72-3.91,8.72-8.72-3.91-8.72-8.72-8.72ZM11.93,27.07c-3.26,0-5.91,2.65-5.91,5.91s2.65,5.91,5.91,5.91h11.95c1.17,0,2.17.79,2.44,1.93l25.35,105.82c.64,2.67,3,4.54,5.75,4.54h102.66c3.26,0,5.91-2.65,5.91-5.91s-2.65-5.91-5.91-5.91h-34.28c-1.38,0-2.51-1.12-2.51-2.51s1.13-2.51,2.51-2.51h28.18l18.97-79.19h-23.94v31.88c0,9.12-7.42,16.54-16.54,16.54h-44.92c-9.12,0-16.54-7.42-16.54-16.54v-31.88h-23.94l18.97,79.19h28.18c1.38,0,2.51,1.12,2.51,2.51s-1.13,2.51-2.51,2.51h-30.16c-1.16,0-2.17-.79-2.44-1.93L36.28,31.61c-.64-2.67-3-4.54-5.75-4.54H11.93ZM76.03,87.02c0,6.36,5.17,11.53,11.53,11.53h44.92c6.36,0,11.53-5.17,11.53-11.53V27.8h-67.97v59.22ZM110.02,6.02c-7.9,0-14.33,6.43-14.33,14.33v2.43h28.67v-2.43c0-7.9-6.43-14.33-14.33-14.33Z"/>
  </g>
  <path d="M110.02,77.95c-.67,0-1.3-.26-1.77-.74l-5.62-5.62c-.47-.47-.74-1.1-.74-1.77s.26-1.3.74-1.77c.47-.47,1.1-.73,1.77-.73.55,0,1.08.18,1.51.51l1.6,1.22v-18.13c0-1.38,1.13-2.51,2.51-2.51s2.51,1.12,2.51,2.51v18.13l1.6-1.21c.44-.33.96-.51,1.52-.51.67,0,1.3.26,1.77.73.47.47.74,1.1.74,1.77s-.26,1.3-.73,1.77l-5.62,5.63c-.47.47-1.1.73-1.77.73Z"/>
  <path d="M110.02,139.35c-.66,0-1.31-.27-1.77-.74-.47-.47-.73-1.11-.73-1.77s.27-1.31.73-1.77c.47-.47,1.11-.73,1.77-.73s1.31.27,1.77.74c.47.47.74,1.12.74,1.77s-.27,1.3-.74,1.77c-.47.47-1.11.74-1.77.74Z"/>
</svg>