<?xml version="1.0" encoding="UTF-8"?>
<svg id="Scalability" xmlns="http://www.w3.org/2000/svg" viewBox="0 0 179.71 179.71">
  <path d="M36.14,171.61c-.76,0-1.49-.15-2.2-.44-2.14-.89-3.53-2.96-3.53-5.28v-13.82h-12.82c-9.12,0-16.54-7.42-16.54-16.54v-46.3c0-9.12,7.42-16.54,16.54-16.54h50.74l-.16-1.14c-.38-2.63-.57-5.3-.57-7.93,0-30.62,24.91-55.53,55.53-55.53,8.98,0,17.91,2.2,25.81,6.35.59.31,1.03.84,1.23,1.48.2.64.14,1.32-.18,1.91-.44.83-1.29,1.34-2.22,1.34-.41,0-.8-.1-1.16-.29-7.18-3.78-15.3-5.78-23.48-5.78-27.85,0-50.51,22.66-50.51,50.51s22.66,50.51,50.51,50.51c5.3,0,10.53-.82,15.53-2.44.25-.08.51-.12.77-.12.67,0,1.3.26,1.77.74l14.98,14.98v-24.34c0-.71.3-1.39.82-1.86,10.57-9.56,16.63-23.22,16.63-37.46,0-8.3-2.05-16.53-5.94-23.79-.32-.59-.38-1.27-.19-1.91.19-.64.63-1.17,1.22-1.48.37-.2.77-.3,1.18-.3.93,0,1.78.51,2.21,1.33,4.27,7.99,6.53,17.04,6.53,26.16,0,15.07-6.25,29.69-17.15,40.12l-.31.3v21.56c0,2.32-1.38,4.39-3.53,5.28-.7.29-1.44.44-2.19.44-1.52,0-2.95-.6-4.03-1.68l-12.72-12.72-.56.16c-4.88,1.37-9.94,2.06-15.03,2.06-4.03,0-8.07-.44-12.01-1.31l-1.22-.27v17.97c0,9.12-7.42,16.54-16.54,16.54h-35.33l-17.86,17.86c-1.08,1.08-2.51,1.68-4.03,1.68ZM17.6,77.72c-6.35,0-11.52,5.17-11.52,11.52v46.3c0,6.35,5.17,11.52,11.52,11.52h15.33c1.38,0,2.51,1.12,2.51,2.51v18.02l19.79-19.79c.47-.47,1.1-.73,1.77-.73h36.37c6.35,0,11.52-5.17,11.52-11.52v-19.46l-.66-.24c-16.88-6.13-29.82-20.11-34.61-37.39l-.2-.73H17.6Z"/>
  <path d="M113.79,88.63c-.33,0-.66-.07-.97-.2-.62-.26-1.1-.74-1.35-1.36-.25-.62-.25-1.3,0-1.92l19.3-45.99c.39-.93,1.3-1.54,2.31-1.54.33,0,.66.07.97.2.62.26,1.1.74,1.35,1.36.25.62.25,1.3,0,1.92l-19.3,45.99c-.39.93-1.3,1.54-2.31,1.54Z"/>
  <path d="M110.09,60.32c-6.08,0-11.04-5.57-11.04-12.42s4.95-12.42,11.04-12.42,11.04,5.57,11.04,12.42-4.95,12.42-11.04,12.42ZM110.09,40.5c-3.32,0-6.02,3.32-6.02,7.4s2.7,7.4,6.02,7.4,6.02-3.32,6.02-7.4-2.7-7.4-6.02-7.4Z"/>
  <path d="M136.16,91.76c-6.08,0-11.04-5.57-11.04-12.42s4.95-12.42,11.04-12.42,11.04,5.57,11.04,12.42-4.95,12.42-11.04,12.42ZM136.16,71.94c-3.32,0-6.02,3.32-6.02,7.4s2.7,7.4,6.02,7.4,6.02-3.32,6.02-7.4-2.7-7.4-6.02-7.4Z"/>
  <path d="M33.15,117.29c-.66,0-1.31-.27-1.77-.73-.47-.47-.74-1.12-.74-1.78s.27-1.3.74-1.77c.47-.47,1.11-.74,1.77-.74s1.31.27,1.77.74c.47.46.73,1.11.73,1.77s-.27,1.31-.73,1.77c-.47.47-1.11.74-1.78.74Z"/>
  <path d="M55.48,117.29c-.66,0-1.31-.27-1.77-.73-.47-.47-.74-1.12-.74-1.78s.27-1.31.73-1.77c.47-.47,1.11-.74,1.77-.74s1.3.27,1.77.74c.47.47.73,1.11.73,1.77s-.27,1.31-.73,1.77c-.47.47-1.11.73-1.77.73Z"/>
  <path d="M77.82,117.29c-.66,0-1.31-.27-1.77-.73-.47-.47-.73-1.11-.73-1.78s.27-1.31.73-1.77c.47-.47,1.12-.74,1.78-.74s1.3.27,1.77.74c.47.47.73,1.11.73,1.77s-.27,1.31-.74,1.77c-.46.47-1.11.73-1.77.73Z"/>
  <path d="M160.47,28.5c-.66,0-1.31-.27-1.77-.73-.47-.47-.74-1.11-.74-1.77s.27-1.31.74-1.78c.46-.46,1.11-.73,1.77-.73s1.31.27,1.77.73c.47.47.73,1.12.73,1.78s-.27,1.31-.74,1.78c-.46.46-1.11.73-1.77.73Z"/>
</svg>