<?xml version="1.0" encoding="UTF-8"?>
<svg id="Scalability" xmlns="http://www.w3.org/2000/svg" viewBox="0 0 179.73 179.73">
  <path d="M105.65,176.59c-1.38,0-2.51-1.12-2.51-2.51s1.13-2.51,2.51-2.51h56.49c6.36,0,11.53-5.17,11.53-11.53V53.07H6.05v106.97c0,6.36,5.17,11.53,11.53,11.53h56.49c1.38,0,2.51,1.12,2.51,2.51s-1.13,2.51-2.51,2.51H17.58c-9.12,0-16.54-7.42-16.54-16.54V33.72c0-9.12,7.42-16.54,16.54-16.54h2.4v-4.51c0-5.25,4.27-9.53,9.53-9.53s9.53,4.27,9.53,9.53v4.51h41.3v-4.51c0-5.25,4.27-9.53,9.53-9.53s9.53,4.27,9.53,9.53v4.51h41.3v-4.51c0-5.25,4.27-9.53,9.53-9.53s9.53,4.27,9.53,9.53v4.51h2.4c9.12,0,16.54,7.42,16.54,16.54v126.32c0,9.12-7.42,16.54-16.54,16.54h-56.49ZM17.58,22.2c-6.36,0-11.53,5.17-11.53,11.53v14.33h167.62v-14.33c0-6.36-5.17-11.53-11.53-11.53h-2.4v4.5c0,5.25-4.27,9.53-9.53,9.53s-9.53-4.27-9.53-9.53v-4.5h-41.3v4.5c0,5.25-4.27,9.53-9.53,9.53s-9.53-4.27-9.53-9.53v-4.5h-41.3v4.5c0,5.25-4.27,9.53-9.53,9.53s-9.53-4.27-9.53-9.53v-4.5h-2.4ZM150.21,8.16c-2.49,0-4.51,2.02-4.51,4.51v14.04c0,2.49,2.02,4.51,4.51,4.51s4.51-2.02,4.51-4.51v-14.04c0-2.49-2.02-4.51-4.51-4.51ZM89.86,8.16c-2.49,0-4.51,2.02-4.51,4.51v14.04c0,2.49,2.02,4.51,4.51,4.51s4.51-2.02,4.51-4.51v-14.04c0-2.49-2.02-4.51-4.51-4.51ZM29.51,8.16c-2.49,0-4.51,2.02-4.51,4.51v14.04c0,2.49,2.02,4.51,4.51,4.51s4.51-2.02,4.51-4.51v-14.04c0-2.49-2.02-4.51-4.51-4.51Z"/>
  <path d="M89.86,176.58c-.66,0-1.31-.27-1.77-.73-.47-.47-.74-1.11-.74-1.77s.27-1.31.74-1.77,1.11-.73,1.77-.73,1.31.27,1.77.73c.47.47.74,1.11.74,1.77s-.27,1.3-.74,1.77c-.47.47-1.11.74-1.77.74Z"/>
  <path d="M75.83,103.6c-1.38,0-2.51-1.12-2.51-2.51v-28.07c0-1.38,1.13-2.51,2.51-2.51h28.07c1.38,0,2.51,1.12,2.51,2.51v28.07c0,1.38-1.13,2.51-2.51,2.51h-28.07ZM78.34,98.58h23.05v-23.05h-23.05v23.05Z"/>
  <path d="M126.35,103.6c-1.38,0-2.51-1.12-2.51-2.51v-28.07c0-1.38,1.13-2.51,2.51-2.51h28.07c1.38,0,2.51,1.12,2.51,2.51v28.07c0,1.38-1.13,2.51-2.51,2.51h-28.07ZM128.86,98.58h23.05v-23.05h-23.05v23.05Z"/>
  <path d="M25.3,154.13c-1.38,0-2.51-1.12-2.51-2.51v-28.07c0-1.38,1.13-2.51,2.51-2.51h28.07c1.38,0,2.51,1.12,2.51,2.51v28.07c0,1.38-1.13,2.51-2.51,2.51h-28.07ZM27.81,149.11h23.05v-23.05h-23.05v23.05Z"/>
  <path d="M35.13,103.6c-.67,0-1.3-.26-1.77-.74l-9.82-9.82c-.98-.98-.98-2.57,0-3.55.47-.47,1.1-.73,1.77-.73s1.3.26,1.77.73l8.05,8.05,16.47-16.47c.47-.47,1.1-.73,1.77-.73s1.3.26,1.77.73.73,1.1.73,1.77-.26,1.3-.74,1.78l-18.24,18.24c-.48.47-1.11.74-1.77.74Z"/>
  <path d="M85.7,154.13c-.67,0-1.3-.26-1.77-.74l-9.83-9.83c-.98-.98-.98-2.57,0-3.55.47-.47,1.1-.73,1.77-.73s1.3.26,1.77.73l8.05,8.05,16.47-16.47c.47-.47,1.1-.74,1.77-.74s1.3.26,1.77.74c.47.47.73,1.1.73,1.77s-.26,1.3-.73,1.77l-18.25,18.24c-.47.47-1.1.74-1.77.74Z"/>
  <path d="M136.18,154.13c-.67,0-1.3-.26-1.77-.74l-9.83-9.83c-.98-.98-.98-2.57,0-3.55.47-.47,1.1-.73,1.77-.73s1.3.26,1.77.73l8.05,8.05,16.47-16.47c.47-.47,1.1-.73,1.77-.73s1.3.26,1.78.73c.98.98.98,2.57,0,3.55l-18.25,18.24c-.47.47-1.1.74-1.77.74Z"/>
</svg>