<?xml version="1.0" encoding="UTF-8"?>
<svg id="Scalability" xmlns="http://www.w3.org/2000/svg" viewBox="0 0 179.73 179.73">
  <path d="M19.66,178.73c-1.38,0-2.51-1.13-2.51-2.51v-61.45c0-1.38,1.13-2.51,2.51-2.51s2.51,1.13,2.51,2.51v58.94h112.21V24.23H22.17v58.94c0,1.38-1.13,2.51-2.51,2.51s-2.51-1.13-2.51-2.51V21.72c0-1.38,1.13-2.51,2.51-2.51h20.67V3.51c0-1.38,1.13-2.51,2.51-2.51h117.24c1.38,0,2.51,1.13,2.51,2.51v154.5c0,1.38-1.13,2.51-2.51,2.51h-20.67v15.7c0,1.38-1.13,2.51-2.51,2.51H19.66ZM45.34,19.21h91.55c1.38,0,2.51,1.13,2.51,2.51v133.78h18.15V6.02H45.34v13.19Z"/>
  <path d="M19.66,101.48c-.66,0-1.31-.27-1.77-.74-.47-.47-.74-1.11-.74-1.78s.27-1.31.73-1.77c.47-.47,1.11-.74,1.78-.74s1.31.27,1.77.73c.47.47.74,1.12.74,1.78s-.27,1.31-.74,1.78c-.47.47-1.11.74-1.77.74Z"/>
  <path d="M40.05,109.2c-1.38,0-2.51-1.13-2.51-2.51v-60.38c0-1.38,1.13-2.51,2.51-2.51h75.82c1.38,0,2.51,1.13,2.51,2.51v60.38c0,1.38-1.13,2.51-2.51,2.51H40.05ZM42.56,104.18h70.8v-55.36H42.56v55.36Z"/>
  <path d="M40.05,134.47c-1.38,0-2.51-1.13-2.51-2.51s1.13-2.51,2.51-2.51h75.82c1.38,0,2.51,1.13,2.51,2.51s-1.13,2.51-2.51,2.51H40.05Z"/>
  <path d="M40.05,154.13c-1.38,0-2.51-1.13-2.51-2.51s1.13-2.51,2.51-2.51h75.82c1.38,0,2.51,1.13,2.51,2.51s-1.13,2.51-2.51,2.51H40.05Z"/>
  <path d="M73.92,87.77c-.67,0-1.3-.26-1.78-.73l-9.43-9.43c-.98-.98-.98-2.57,0-3.55.47-.47,1.1-.73,1.77-.73s1.3.26,1.78.73l7.65,7.65,15.73-15.73c.47-.47,1.1-.74,1.78-.74s1.3.26,1.77.74c.98.98.98,2.57,0,3.55l-17.51,17.51c-.47.47-1.1.73-1.77.73Z"/>
</svg>