<?xml version="1.0" encoding="UTF-8"?>
<svg id="Scalability" xmlns="http://www.w3.org/2000/svg" viewBox="0 0 179.71 179.71">
  <path d="M36.5,178.71c-9.13,0-16.55-7.42-16.55-16.55V27.9c0-9.13,7.42-16.55,16.55-16.55h38.29l.26-.61c2.53-5.92,8.34-9.75,14.81-9.75s12.28,3.83,14.81,9.75l.26.61h38.29c9.13,0,16.55,7.42,16.55,16.55v134.26c0,9.13-7.42,16.55-16.55,16.55H36.5ZM36.5,16.37c-6.36,0-11.53,5.17-11.53,11.53v134.26c0,6.36,5.17,11.53,11.53,11.53h106.7c6.36,0,11.53-5.17,11.53-11.53V27.9c0-6.36-5.17-11.53-11.53-11.53h-23.42l.35,1.27c.21.75.31,1.51.31,2.28v8.28h19.95c1.38,0,2.51,1.13,2.51,2.51v128.64c0,1.38-1.13,2.51-2.51,2.51h-36.5c-1.38,0-2.51-1.13-2.51-2.51s1.13-2.51,2.51-2.51h33.99V33.22H41.82v123.62h33.99c1.38,0,2.51,1.13,2.51,2.51s-1.13,2.51-2.51,2.51h-36.5c-1.38,0-2.51-1.13-2.51-2.51V30.71c0-1.38,1.13-2.51,2.51-2.51h19.95v-8.28c0-.77.1-1.53.31-2.28l.35-1.27h-23.42ZM67.83,16.37c-1.95,0-3.54,1.59-3.54,3.54v8.28h51.14v-8.28c0-1.96-1.59-3.54-3.54-3.54h-8.82c-1.16,0-2.16-.79-2.44-1.91-1.22-4.97-5.65-8.44-10.77-8.44s-9.55,3.47-10.77,8.44c-.28,1.13-1.28,1.91-2.44,1.91h-8.82Z"/>
  <path d="M89.86,161.87c-.66,0-1.31-.27-1.77-.74s-.74-1.11-.74-1.77.27-1.31.74-1.77c.47-.47,1.11-.74,1.77-.74s1.31.27,1.77.74c.47.47.74,1.12.74,1.78s-.27,1.31-.74,1.77c-.47.47-1.11.74-1.77.74Z"/>
  <path d="M100.56,52.88c-1.38,0-2.51-1.13-2.51-2.51s1.13-2.51,2.51-2.51h22.81c1.38,0,2.51,1.13,2.51,2.51s-1.13,2.51-2.51,2.51h-22.81Z"/>
  <path d="M100.56,66.92c-1.38,0-2.51-1.13-2.51-2.51s1.13-2.51,2.51-2.51h11.41c1.38,0,2.51,1.13,2.51,2.51s-1.13,2.51-2.51,2.51h-11.41Z"/>
  <path d="M58.09,66.92c-.67,0-1.3-.26-1.77-.73-.98-.98-.98-2.57,0-3.55l8.54-8.54c.47-.47,1.1-.74,1.78-.74s1.3.26,1.77.74l4.64,4.64,5.54-5.54-1.84-.36c-1.17-.23-2.02-1.27-2.02-2.46,0-1.38,1.13-2.51,2.51-2.51h7.72c1.38,0,2.51,1.13,2.51,2.51v7.72c0,1.38-1.13,2.51-2.51,2.51-1.19,0-2.23-.85-2.46-2.02l-.36-1.84-7.31,7.31c-.47.47-1.1.73-1.77.73s-1.3-.26-1.77-.73l-4.64-4.64-6.76,6.77c-.47.47-1.11.73-1.78.73Z"/>
  <path d="M100.56,89.38c-1.38,0-2.51-1.13-2.51-2.51s1.13-2.51,2.51-2.51h22.81c1.38,0,2.51,1.13,2.51,2.51s-1.13,2.51-2.51,2.51h-22.81Z"/>
  <path d="M100.56,103.42c-1.38,0-2.51-1.13-2.51-2.51s1.13-2.51,2.51-2.51h11.41c1.38,0,2.51,1.13,2.51,2.51s-1.13,2.51-2.51,2.51h-11.41Z"/>
  <path d="M58.09,103.42c-.67,0-1.3-.26-1.77-.73-.98-.98-.98-2.57,0-3.55l8.54-8.54c.47-.47,1.1-.74,1.78-.74s1.3.26,1.77.74l4.64,4.64,5.54-5.54-1.84-.36c-1.17-.23-2.02-1.27-2.02-2.46,0-1.38,1.13-2.51,2.51-2.51h7.72c1.38,0,2.51,1.13,2.51,2.51v7.72c0,1.38-1.13,2.51-2.51,2.51-1.19,0-2.23-.85-2.46-2.02l-.36-1.84-7.31,7.31c-.47.47-1.1.73-1.77.73s-1.3-.26-1.77-.73l-4.64-4.64-6.76,6.77c-.47.47-1.11.73-1.78.73Z"/>
  <path d="M100.56,126.24c-1.38,0-2.51-1.13-2.51-2.51s1.13-2.51,2.51-2.51h22.81c1.38,0,2.51,1.13,2.51,2.51s-1.13,2.51-2.51,2.51h-22.81Z"/>
  <path d="M100.56,140.28c-1.38,0-2.51-1.13-2.51-2.51s1.13-2.51,2.51-2.51h11.41c1.38,0,2.51,1.13,2.51,2.51s-1.13,2.51-2.51,2.51h-11.41Z"/>
  <path d="M58.09,140.28c-.67,0-1.3-.26-1.77-.73-.98-.98-.98-2.57,0-3.55l8.54-8.54c.47-.47,1.1-.74,1.78-.74s1.3.26,1.77.74l4.64,4.64,5.54-5.54-1.84-.36c-1.17-.23-2.02-1.26-2.02-2.46,0-1.38,1.13-2.51,2.51-2.51h7.72c1.38,0,2.51,1.13,2.51,2.51v7.72c0,1.38-1.13,2.51-2.51,2.51-1.19,0-2.23-.85-2.46-2.02l-.36-1.84-7.31,7.31c-.47.47-1.1.73-1.77.73s-1.3-.26-1.77-.73l-4.64-4.64-6.76,6.76c-.47.47-1.1.73-1.78.73Z"/>
  <path d="M89.86,19.62c-.66,0-1.31-.27-1.77-.74-.47-.47-.74-1.11-.74-1.78s.27-1.31.74-1.77c.47-.47,1.11-.74,1.77-.74s1.31.27,1.77.74c.47.47.74,1.11.74,1.77s-.27,1.31-.74,1.77c-.47.47-1.11.74-1.77.74Z"/>
</svg>