<?xml version="1.0" encoding="UTF-8"?>
<svg id="Scalability" xmlns="http://www.w3.org/2000/svg" viewBox="0 0 179.73 179.73">
  <path d="M89.86,178.69c-4.75,0-9.05-3.17-10.45-7.72l-.22-.71H22.49c-1.38,0-2.51-1.12-2.51-2.51s1.13-2.51,2.51-2.51h56.71l.22-.71c1.07-3.46,3.77-6.17,7.23-7.23l.71-.22v-9.28h-14.33c-6.03,0-10.93-4.9-10.93-10.93v-34.68h-28.2c-18.11,0-32.85-14.74-32.85-32.85s14.74-32.85,32.85-32.85c2.11,0,4.22.2,6.28.6l.9.17.25-.88c.79-2.71,1.82-5.37,3.06-7.89.43-.87,1.29-1.4,2.26-1.4.38,0,.75.09,1.1.26.6.3,1.05.81,1.27,1.44.22.63.17,1.31-.12,1.92-1.59,3.24-2.77,6.66-3.52,10.17-.15.69-.58,1.29-1.19,1.64-.38.22-.82.34-1.27.34-.25,0-.51-.04-.75-.11-2.67-.83-5.45-1.25-8.27-1.25-15.35,0-27.83,12.49-27.83,27.83s12.49,27.83,27.83,27.83h28.2v-21.35c0-6.03,4.9-10.93,10.93-10.93h33.68c6.03,0,10.93,4.9,10.93,10.93v21.35h36.8c10.61,0,19.23-8.63,19.23-19.23,0-7.87-4.71-14.86-12.01-17.82-1.14-.46-1.77-1.67-1.5-2.88.31-1.4.47-2.82.47-4.23,0-10.61-8.63-19.23-19.23-19.23-2.93,0-5.74.64-8.35,1.9-.34.16-.71.25-1.09.25-.32,0-.63-.06-.93-.18-.65-.26-1.17-.78-1.42-1.43-6.5-16.91-23.04-28.27-41.15-28.27-6.47,0-12.7,1.37-18.52,4.07-.33.15-.69.23-1.05.23-.97,0-1.87-.57-2.28-1.45-.28-.61-.31-1.29-.08-1.92.23-.63.69-1.13,1.3-1.41,6.49-3.01,13.43-4.54,20.64-4.54,10.12,0,19.84,3.06,28.11,8.84,7.08,4.95,12.74,11.68,16.37,19.46l.37.79.83-.26c2.33-.73,4.77-1.1,7.25-1.1,13.37,0,24.25,10.88,24.25,24.25,0,.87-.05,1.76-.15,2.63l-.07.67.59.32c7.81,4.23,12.67,12.39,12.67,21.31,0,13.37-10.88,24.25-24.25,24.25h-36.8v34.68c0,6.03-4.9,10.93-10.93,10.93h-14.33v9.28l.71.22c3.46,1.07,6.17,3.77,7.23,7.23l.22.71h56.71c1.38,0,2.51,1.12,2.51,2.51s-1.13,2.51-2.51,2.51h-56.71l-.22.71c-1.4,4.54-5.7,7.72-10.45,7.72ZM89.86,161.85c-3.26,0-5.91,2.65-5.91,5.91s2.65,5.91,5.91,5.91,5.91-2.65,5.91-5.91-2.65-5.91-5.91-5.91ZM73.02,69.92c-3.26,0-5.91,2.65-5.91,5.91v61.05c0,3.26,2.65,5.91,5.91,5.91h33.68c3.26,0,5.91-2.65,5.91-5.91v-61.05c0-3.26-2.65-5.91-5.91-5.91h-33.68Z"/>
  <path d="M89.91,107.81c-6.03,0-10.93-4.9-10.93-10.93s4.9-10.93,10.93-10.93,10.93,4.9,10.93,10.93-4.9,10.93-10.93,10.93ZM89.91,90.97c-3.26,0-5.91,2.65-5.91,5.91s2.65,5.91,5.91,5.91,5.91-2.65,5.91-5.91-2.65-5.91-5.91-5.91Z"/>
  <path d="M81.49,124.83c-1.38,0-2.51-1.12-2.51-2.51s1.13-2.51,2.51-2.51h16.84c1.38,0,2.51,1.12,2.51,2.51s-1.13,2.51-2.51,2.51h-16.84Z"/>
  <path d="M55.89,19.34c-.66,0-1.31-.27-1.77-.73-.47-.47-.74-1.12-.74-1.78s.27-1.31.73-1.77c.47-.47,1.11-.74,1.77-.74s1.31.27,1.77.74c.47.47.74,1.11.74,1.77s-.27,1.31-.74,1.77c-.46.47-1.11.73-1.77.73Z"/>
</svg>