<?xml version="1.0" encoding="UTF-8"?>
<svg id="Scalability" xmlns="http://www.w3.org/2000/svg" viewBox="0 0 179.65 179.65">
  <path d="M145.97,159.7c-7.57,0-13.74-6.16-13.74-13.74,0-6.34,4.3-11.83,10.47-13.34l.76-.19v-30.28h-37.84c-1.38,0-2.51-1.12-2.51-2.51s1.13-2.51,2.51-2.51h48.79c10.61,0,19.23-8.63,19.23-19.23,0-7.87-4.71-14.86-12.01-17.83-1.14-.46-1.77-1.67-1.51-2.87.31-1.4.47-2.82.47-4.23,0-10.61-8.63-19.23-19.23-19.23-2.93,0-5.74.64-8.35,1.9-.34.16-.72.25-1.09.25-.32,0-.63-.06-.92-.18-.65-.26-1.17-.78-1.42-1.43-6.5-16.91-23.04-28.27-41.15-28.27-20.67,0-38.8,14.65-43.1,34.84-.15.69-.58,1.29-1.19,1.64-.38.22-.82.34-1.27.34-.25,0-.5-.04-.75-.11-2.67-.83-5.45-1.25-8.27-1.25-15.35,0-27.83,12.49-27.83,27.83s12.49,27.83,27.83,27.83h40.19c1.38,0,2.51,1.12,2.51,2.51s-1.13,2.51-2.51,2.51h-37.84v30.28l.76.19c6.16,1.51,10.47,7,10.47,13.34,0,7.57-6.16,13.74-13.74,13.74s-13.74-6.16-13.74-13.74c0-6.34,4.3-11.83,10.47-13.34l.76-.19v-30.38l-.89-.1C13.59,100.16,1,86.12,1,69.31c0-18.11,14.74-32.85,32.85-32.85,2.11,0,4.22.2,6.28.6l.89.17.26-.88c2.75-9.42,8.45-18.04,16.06-24.27,8.73-7.15,19.77-11.09,31.08-11.09,10.12,0,19.84,3.06,28.11,8.84,7.08,4.95,12.74,11.68,16.37,19.46l.37.79.84-.26c2.32-.73,4.76-1.1,7.25-1.1,13.37,0,24.25,10.88,24.25,24.25,0,.87-.05,1.76-.15,2.63l-.07.67.59.32c7.81,4.23,12.67,12.4,12.67,21.31,0,13.37-10.88,24.25-24.25,24.25h-5.92v30.28l.76.19c6.16,1.51,10.47,7,10.47,13.34,0,7.57-6.16,13.74-13.74,13.74ZM145.97,137.25c-4.81,0-8.72,3.91-8.72,8.72s3.91,8.72,8.72,8.72,8.72-3.91,8.72-8.72-3.91-8.72-8.72-8.72ZM33.68,137.25c-4.81,0-8.72,3.91-8.72,8.72s3.91,8.72,8.72,8.72,8.72-3.91,8.72-8.72-3.91-8.72-8.72-8.72Z"/>
  <path d="M89.83,178.65c-9.12,0-16.54-7.42-16.54-16.54,0-7.83,5.57-14.65,13.23-16.21l.8-.16v-30.29c0-1.38,1.13-2.51,2.51-2.51s2.51,1.12,2.51,2.51v30.29l.8.16c7.67,1.56,13.23,8.38,13.23,16.21,0,9.12-7.42,16.54-16.54,16.54ZM89.83,150.58c-6.36,0-11.53,5.17-11.53,11.53s5.17,11.53,11.53,11.53,11.53-5.17,11.53-11.53-5.17-11.53-11.53-11.53Z"/>
  <path d="M89.83,102.16c-.66,0-1.3-.27-1.77-.74-.47-.47-.74-1.11-.74-1.77s.27-1.31.74-1.77c.47-.47,1.11-.74,1.77-.74s1.31.27,1.77.73c.47.47.74,1.11.74,1.77s-.27,1.31-.73,1.77c-.47.47-1.11.74-1.77.74Z"/>
  <path d="M53.7,87.88c-.67,0-1.3-.26-1.77-.73-.98-.98-.98-2.57,0-3.55l22.96-22.96c.47-.47,1.1-.74,1.77-.74s1.3.26,1.77.74l15.47,15.47,25.98-25.98h-7.35c-1.38,0-2.51-1.12-2.51-2.51s1.13-2.51,2.51-2.51h13.4c1.38,0,2.51,1.12,2.51,2.51v13.4c0,1.38-1.13,2.51-2.51,2.51s-2.51-1.12-2.51-2.51v-7.35l-27.76,27.75c-.47.47-1.1.73-1.77.73s-1.3-.26-1.77-.73l-15.47-15.47-21.19,21.19c-.47.47-1.1.73-1.77.73Z"/>
</svg>