<?xml version="1.0" encoding="UTF-8"?>
<svg id="Scalability" xmlns="http://www.w3.org/2000/svg" viewBox="0 0 179.71 179.71">
  <path d="M104.25,178.71c-1.38,0-2.51-1.13-2.51-2.51s1.13-2.51,2.51-2.51h50.21c10.61,0,19.24-8.63,19.24-19.24,0-7.87-4.72-14.87-12.01-17.83-1.14-.46-1.78-1.67-1.51-2.88.31-1.4.47-2.83.47-4.23,0-10.61-8.63-19.24-19.24-19.24-2.93,0-5.74.64-8.35,1.9-.34.16-.71.25-1.09.25-.32,0-.63-.06-.93-.18-.65-.26-1.17-.78-1.42-1.43-6.5-16.91-23.04-28.28-41.17-28.28-20.68,0-38.81,14.66-43.12,34.85-.15.69-.58,1.29-1.19,1.64-.39.23-.82.34-1.27.34-.25,0-.5-.04-.75-.11-2.67-.83-5.45-1.25-8.27-1.25-15.35,0-27.84,12.49-27.84,27.84s12.49,27.84,27.84,27.84h38.8c1.38,0,2.51,1.13,2.51,2.51s-1.13,2.51-2.51,2.51h-38.8c-18.12,0-32.86-14.74-32.86-32.86,0-9.63,4.22-18.75,11.58-25.02l.35-.3V56.51c0-1.38,1.13-2.51,2.51-2.51h22.46c1.38,0,2.51,1.13,2.51,2.51v52.83l1.94.35c2.61-7.08,6.89-13.57,12.38-18.77l.31-.3V17.55c0-1.38,1.13-2.51,2.51-2.51h22.46c1.38,0,2.51,1.13,2.51,2.51v60.32l1.1-.11c1.62-.16,3.24-.24,4.82-.24,2.53,0,5.08.2,7.57.58l1.15.18v-42.12c0-1.38,1.13-2.51,2.51-2.51h22.46c1.38,0,2.51,1.13,2.51,2.51v57.29l.26.29c3.27,3.61,5.97,7.68,8.03,12.1l.37.79.83-.26c1.38-.43,2.81-.74,4.26-.92l.88-.11V3.51c0-1.38,1.13-2.51,2.51-2.51h22.46c1.38,0,2.51,1.13,2.51,2.51v130.04l.47.29c7.18,4.44,11.46,12.14,11.46,20.61,0,13.38-10.88,24.26-24.26,24.26h-50.21ZM17.95,117.06l1.44-.71c4.53-2.23,9.4-3.36,14.46-3.36l1.54.04v-54.01h-17.44v58.04ZM144.32,105.41l.85.13c5.78.9,11.04,3.88,14.83,8.4l1.77,2.11V6.02h-17.44v99.39ZM102.19,79.46l.71.22c4.88,1.5,9.48,3.75,13.67,6.68.5.35.98.7,1.47,1.07l1.6,1.21v-49.97h-17.44v40.8ZM60.07,86.51l1.55-1.01c4.64-3.02,9.73-5.23,15.14-6.56l.76-.19V20.06h-17.44v66.45Z"/>
  <path d="M88.45,178.71c-.66,0-1.31-.27-1.77-.74-.47-.47-.74-1.11-.74-1.77s.27-1.31.74-1.77c.47-.47,1.11-.74,1.77-.74s1.31.27,1.77.73c.47.47.74,1.12.74,1.78s-.27,1.31-.74,1.77c-.47.47-1.11.74-1.77.74Z"/>
</svg>