<?xml version="1.0" encoding="UTF-8"?>
<svg id="Scalability" xmlns="http://www.w3.org/2000/svg" viewBox="0 0 179.73 179.73">
  <path d="M40.05,180.68c-23.38,0-41-7.97-41-18.54V17.59C-.95,7.02,16.68-.95,40.05-.95s41,7.97,41,18.54v144.54c0,10.57-17.63,18.54-41,18.54ZM4.3,162.14c0,6.29,14.68,13.29,35.75,13.29s35.76-7.01,35.76-13.29v-11.19c-7.1,5.74-20.47,9.25-35.76,9.25s-28.65-3.5-35.75-9.25v11.19ZM4.3,141.65c0,6.29,14.68,13.29,35.75,13.29s35.76-7.01,35.76-13.29v-11.19c-7.1,5.74-20.47,9.25-35.76,9.25s-28.65-3.5-35.75-9.25v11.19ZM4.3,121.16c0,6.29,14.68,13.29,35.75,13.29s35.76-7.01,35.76-13.29v-11.53c-7.1,5.74-20.47,9.25-35.76,9.25s-28.65-3.5-35.75-9.25v11.53ZM4.3,100.34c0,6.29,14.68,13.29,35.75,13.29s35.76-7.01,35.76-13.29v-11.19c-7.1,5.74-20.47,9.25-35.76,9.25s-28.65-3.5-35.75-9.25v11.19ZM4.3,79.85c0,6.29,14.68,13.29,35.75,13.29s35.76-7.01,35.76-13.29v-11.19c-7.1,5.74-20.47,9.24-35.76,9.24s-28.65-3.5-35.75-9.24v11.19ZM4.3,59.37c0,6.29,14.68,13.29,35.75,13.29s35.76-7.01,35.76-13.29v-11.53c-7.1,5.74-20.47,9.25-35.76,9.25s-28.65-3.5-35.75-9.25v11.53ZM4.3,38.54c0,6.29,14.68,13.29,35.75,13.29s35.76-7.01,35.76-13.29v-11.53c-7.1,5.74-20.47,9.25-35.76,9.25s-28.65-3.5-35.75-9.25v11.53ZM40.05,4.3C18.98,4.3,4.3,11.3,4.3,17.59v.12c0,6.29,14.68,13.29,35.75,13.29s35.76-7.01,35.76-13.29v-.12c0-6.29-14.68-13.29-35.76-13.29Z"/>
  <path d="M139.67,180.68c-23.38,0-41-7.97-41-18.54v-41.44c0-10.57,17.63-18.54,41-18.54s41,7.97,41,18.54v41.44c0,10.57-17.63,18.54-41,18.54ZM103.92,162.14c0,6.29,14.68,13.29,35.76,13.29s35.76-7.01,35.76-13.29v-11.19c-7.1,5.74-20.47,9.25-35.76,9.25s-28.65-3.5-35.76-9.25v11.19ZM103.92,141.65c0,6.29,14.68,13.29,35.76,13.29s35.76-7.01,35.76-13.29v-11.53c-7.1,5.74-20.47,9.24-35.76,9.24s-28.65-3.5-35.76-9.24v11.53ZM139.67,107.41c-21.07,0-35.76,7-35.76,13.29v.13c0,6.29,14.69,13.29,35.76,13.29s35.76-7.01,35.76-13.29v-.13c0-6.29-14.68-13.29-35.76-13.29Z"/>
  <path d="M122.94,44.86c-6.59,0-11.96-5.37-11.96-11.96s5.37-11.96,11.96-11.96,11.96,5.37,11.96,11.96-5.37,11.96-11.96,11.96ZM122.94,26.19c-3.7,0-6.71,3.01-6.71,6.71s3.01,6.71,6.71,6.71,6.71-3.01,6.71-6.71-3.01-6.71-6.71-6.71Z"/>
  <path d="M156.41,76.84c-6.59,0-11.96-5.37-11.96-11.96s5.37-11.96,11.96-11.96,11.96,5.37,11.96,11.96-5.36,11.96-11.96,11.96ZM156.41,58.18c-3.7,0-6.71,3.01-6.71,6.71s3.01,6.71,6.71,6.71,6.71-3.01,6.71-6.71-3.01-6.71-6.71-6.71Z"/>
  <path d="M124.58,76.84c-.47,0-.93-.13-1.34-.37-.6-.36-1.03-.93-1.2-1.61s-.07-1.39.29-1.99l30.19-50.66c.47-.79,1.34-1.28,2.26-1.28.47,0,.93.13,1.34.37.6.36,1.03.93,1.2,1.61.17.68.07,1.39-.29,1.99l-30.19,50.66c-.47.79-1.33,1.28-2.26,1.28Z"/>
</svg>