<?xml version="1.0" encoding="UTF-8"?>
<svg id="Scalability" xmlns="http://www.w3.org/2000/svg" viewBox="0 0 179.73 179.73">
  <path d="M75.82,34.1c-1.38,0-2.51-1.13-2.51-2.51V3.51c0-1.38,1.13-2.51,2.51-2.51h28.08c1.38,0,2.51,1.13,2.51,2.51v28.08c0,1.38-1.13,2.51-2.51,2.51h-28.08ZM78.33,29.08h23.06V6.02h-23.06v23.06Z"/>
  <path d="M106.76,147.08c-.32,0-.63-.06-.92-.18l-33.7-13.36c-.96-.38-1.59-1.3-1.59-2.33v-12.72l-45.56-45.07h-5.33c-1.38,0-2.51-1.13-2.51-2.51v-22.47c0-1.38,1.13-2.51,2.51-2.51h10.13v-14.34c0-1.38,1.13-2.51,2.51-2.51h28.08c1.38,0,2.51,1.13,2.51,2.51v14.34h53.95v-14.34c0-1.38,1.13-2.51,2.51-2.51h28.08c1.38,0,2.51,1.13,2.51,2.51v14.34h10.13c1.38,0,2.51,1.13,2.51,2.51v22.47c0,1.38-1.13,2.51-2.51,2.51h-5.24l-45.56,45.07v26.08c0,.83-.41,1.61-1.1,2.08-.42.28-.91.43-1.41.43ZM74.82,115.65c.47.47.74,1.12.74,1.78v12.06l28.68,11.37v-23.43c0-.66.27-1.31.75-1.79l42.69-42.23h-42.03c-1.38,0-2.51-1.13-2.51-2.51s1.13-2.51,2.51-2.51h51.9v-17.45H22.17v17.45h51.9c1.38,0,2.51,1.13,2.51,2.51s-1.13,2.51-2.51,2.51h-41.94l42.69,42.23ZM121.86,45.93h23.06v-11.83h-23.06v11.83ZM34.8,45.93h23.06v-11.83h-23.06v11.83Z"/>
  <path d="M89.91,178.73c-7.58,0-13.74-6.17-13.74-13.74s6.17-13.74,13.74-13.74,13.74,6.17,13.74,13.74-6.17,13.74-13.74,13.74ZM89.91,156.26c-4.81,0-8.72,3.91-8.72,8.72s3.91,8.72,8.72,8.72,8.72-3.91,8.72-8.72-3.91-8.72-8.72-8.72Z"/>
  <path d="M89.86,73.42c-.66,0-1.31-.27-1.77-.74-.47-.47-.74-1.12-.74-1.78s.27-1.31.74-1.77c.47-.47,1.11-.74,1.78-.74s1.31.27,1.77.74c.47.47.74,1.11.74,1.77s-.27,1.31-.74,1.77c-.47.47-1.11.74-1.77.74Z"/>
</svg>