<?xml version="1.0" encoding="UTF-8"?>
<svg id="Scalability" xmlns="http://www.w3.org/2000/svg" viewBox="0 0 179.73 179.73">
  <path d="M89.86,59.61c-1.36,0-2.47-1.11-2.47-2.47v-4.31c-6.66-1.18-11.58-6.97-11.58-13.82,0-1.36,1.11-2.46,2.47-2.46s2.47,1.11,2.47,2.46c0,5.03,4.09,9.12,9.12,9.12,2.52,0,4.97-1.04,6.71-2.85,1.64-1.7,2.49-3.89,2.41-6.18-.2-5.39-4.33-7.62-9.1-10.2-4.93-2.67-10.52-5.68-10.55-12.8-.01-2.66,1.15-5.35,3.18-7.39,1.39-1.4,3.07-2.37,4.9-2.84V1.47c0-1.36,1.11-2.46,2.47-2.46s2.46,1.11,2.46,2.46v4.39c4.66,1.13,8.07,5.38,8.07,10.24,0,1.36-1.11,2.46-2.47,2.46s-2.47-1.11-2.47-2.46c0-3.09-2.52-5.61-5.61-5.61-1.4,0-2.77.61-3.87,1.71-1.1,1.1-1.75,2.56-1.74,3.89.02,4.19,3.52,6.08,7.96,8.48,5.07,2.74,11.39,6.15,11.69,14.36.13,3.63-1.21,7.11-3.79,9.78-2.08,2.16-4.82,3.61-7.79,4.13v4.31c0,1.36-1.11,2.47-2.46,2.47Z"/>
  <path d="M60.89,147.59c-.09,0-.18,0-.27-.01-4.76-.5-9.36-1.14-13.68-1.88-1.34-.23-2.24-1.51-2.01-2.85.21-1.19,1.23-2.05,2.43-2.05.14,0,.28.01.42.04,4.19.73,8.69,1.35,13.37,1.84.65.07,1.24.39,1.66.9.41.51.6,1.16.53,1.81-.13,1.26-1.19,2.21-2.45,2.21Z"/>
  <path d="M84.71,149.02c-4.66-.08-9.29-.27-13.78-.56-.66-.04-1.26-.34-1.69-.83-.43-.5-.65-1.13-.61-1.79.09-1.29,1.16-2.3,2.45-2.3.06,0,.12,0,.18,0,4.41.29,8.96.47,13.52.55.66.01,1.27.28,1.73.75.46.47.7,1.1.69,1.75-.02,1.34-1.13,2.42-2.46,2.42h-.03Z"/>
  <path d="M142.39,143.67c-1.14,0-2.13-.78-2.39-1.88-.32-1.32.49-2.65,1.81-2.98,4.88-1.18,9.14-2.53,12.65-3.99.3-.13.62-.19.95-.19,1,0,1.89.6,2.28,1.52.52,1.26-.07,2.7-1.33,3.22-3.74,1.56-8.24,2.98-13.38,4.23-.19.05-.39.07-.58.07Z"/>
  <path d="M37.33,143.67c-.19,0-.39-.02-.58-.07-5.13-1.25-9.64-2.67-13.38-4.23-1.25-.52-1.85-1.97-1.33-3.22.38-.92,1.28-1.52,2.28-1.52.33,0,.64.06.95.19,3.51,1.46,7.77,2.8,12.64,3.99,1.32.32,2.13,1.66,1.81,2.98-.27,1.11-1.25,1.88-2.4,1.88Z"/>
  <path d="M94.98,149.02c-1.34,0-2.44-1.09-2.46-2.42-.02-1.36,1.06-2.48,2.42-2.51,4.56-.08,9.11-.26,13.53-.55.05,0,.11,0,.17,0,1.29,0,2.36,1.01,2.45,2.3.04.66-.17,1.29-.61,1.79-.43.5-1.04.79-1.69.83-4.49.29-9.12.48-13.76.56h-.04Z"/>
  <path d="M118.83,147.59c-1.26,0-2.32-.95-2.45-2.21-.07-.65.12-1.3.53-1.81.41-.51,1-.83,1.66-.9,4.67-.5,9.17-1.11,13.37-1.84.14-.02.28-.04.42-.04,1.2,0,2.22.86,2.43,2.04.23,1.34-.67,2.62-2.01,2.85-4.31.74-8.91,1.38-13.69,1.88-.08,0-.17.01-.26.01Z"/>
  <path d="M89.86,180.73c-38.74,0-79.91-8-79.91-22.82V51.92c0-16.4,47.11-21.11,56.55-21.88.07,0,.13,0,.19,0,1.3,0,2.36.97,2.47,2.26.05.66-.15,1.29-.58,1.8s-1.02.81-1.68.86c-37.9,3.12-52.02,12.06-52.02,16.97,0,7.31,26.7,17.88,74.98,17.88s74.98-10.58,74.98-17.88c0-4.91-14.12-13.85-52.02-16.97-.66-.05-1.25-.36-1.68-.86s-.63-1.14-.58-1.8c.1-1.27,1.18-2.26,2.46-2.26.06,0,.13,0,.19,0,9.45.78,56.55,5.48,56.55,21.88v105.99c0,14.82-41.17,22.82-79.91,22.82ZM14.88,157.91c0,7.31,26.7,17.89,74.98,17.89s74.98-10.58,74.98-17.89v-23.56c-.2.05-.42.08-.63.08-.7,0-1.37-.3-1.83-.82-.44-.49-.66-1.12-.63-1.78.03-.66.32-1.26.81-1.7,1.51-1.36,2.28-2.67,2.28-3.88V60.27c-12.66,9.93-47.1,14.47-74.98,14.47s-62.33-4.54-74.98-14.47v65.98c0,1.22.77,2.52,2.28,3.89.49.44.78,1.04.81,1.7.03.66-.19,1.29-.63,1.78-.47.52-1.13.82-1.83.82-.22,0-.43-.03-.63-.08v23.56Z"/>
</svg>