<?xml version="1.0" encoding="UTF-8"?>
<svg id="Scalability" xmlns="http://www.w3.org/2000/svg" viewBox="0 0 179.71 179.71">
  <path d="M23.17,171.69c-12.22,0-22.17-9.94-22.17-22.17,0-1.38,1.13-2.51,2.51-2.51h8.02v-78.92c0-9.13,7.42-16.55,16.55-16.55h27.68V10.53c0-1.38,1.13-2.51,2.51-2.51h117.94c1.38,0,2.51,1.13,2.51,2.51v88.45c0,1.38-1.13,2.51-2.51,2.51h-19.28v45.52h8.02c1.38,0,2.51,1.13,2.51,2.51,0,12.22-9.94,22.17-22.17,22.17H23.17ZM6.43,153.25c1.73,7.78,8.77,13.42,16.74,13.42h122.12c7.97,0,15.01-5.64,16.74-13.42l.27-1.22h-62.27c-1.38,0-2.51-1.13-2.51-2.51s1.13-2.51,2.51-2.51h51.88v-45.52H58.27c-1.38,0-2.51-1.13-2.51-2.51v-14.34h-22.66c-1.38,0-2.51-1.13-2.51-2.51s1.13-2.51,2.51-2.51h22.66v-23.06h-27.68c-6.36,0-11.53,5.17-11.53,11.53v78.92h51.88c1.38,0,2.51,1.13,2.51,2.51s-1.13,2.51-2.51,2.51H6.16l.27,1.22ZM159.36,37.15c1.38,0,2.51,1.13,2.51,2.51v56.81h11.83V13.04H60.78v83.43h11.83v-29.08c0-1.38,1.13-2.51,2.51-2.51h16.85c1.38,0,2.51,1.13,2.51,2.51v29.08h11.83v-48.48c0-1.38,1.13-2.51,2.51-2.51h16.85c1.38,0,2.51,1.13,2.51,2.51v48.48h11.83v-56.81c0-1.38,1.13-2.51,2.51-2.51h16.85ZM145.02,96.47h11.83v-54.3h-11.83v54.3ZM111.32,96.47h11.83v-45.96h-11.83v45.96ZM77.62,96.47h11.83v-26.57h-11.83v26.57Z"/>
  <path d="M75.11,31.29c-1.38,0-2.51-1.13-2.51-2.51s1.13-2.51,2.51-2.51h22.81c1.38,0,2.51,1.13,2.51,2.51s-1.13,2.51-2.51,2.51h-22.81Z"/>
  <path d="M75.11,46.74c-1.38,0-2.51-1.13-2.51-2.51s1.13-2.51,2.51-2.51h16.85c1.38,0,2.51,1.13,2.51,2.51s-1.13,2.51-2.51,2.51h-16.85Z"/>
  <path d="M33.1,118.34c-1.38,0-2.51-1.13-2.51-2.51s1.13-2.51,2.51-2.51h20.78c1.38,0,2.51,1.13,2.51,2.51s-1.13,2.51-2.51,2.51h-20.78Z"/>
  <path d="M33.1,135.19c-1.38,0-2.51-1.13-2.51-2.51s1.13-2.51,2.51-2.51h47.75c1.38,0,2.51,1.13,2.51,2.51s-1.13,2.51-2.51,2.51h-47.75Z"/>
  <path d="M33.1,101.49c-1.38,0-2.51-1.13-2.51-2.51s1.13-2.51,2.51-2.51h5.16c1.38,0,2.51,1.13,2.51,2.51s-1.13,2.51-2.51,2.51h-5.16Z"/>
  <path d="M73.42,118.34c-1.38,0-2.51-1.13-2.51-2.51s1.13-2.51,2.51-2.51h22.82c1.38,0,2.51,1.13,2.51,2.51s-1.13,2.51-2.51,2.51h-22.82Z"/>
  <path d="M113.37,118.34c-1.38,0-2.51-1.13-2.51-2.51s1.13-2.51,2.51-2.51h21.98c1.38,0,2.51,1.13,2.51,2.51s-1.13,2.51-2.51,2.51h-21.98Z"/>
  <path d="M96.23,135.19c-1.38,0-2.51-1.13-2.51-2.51s1.13-2.51,2.51-2.51h39.12c1.38,0,2.51,1.13,2.51,2.51s-1.13,2.51-2.51,2.51h-39.12Z"/>
  <path d="M84.23,152.04c-.66,0-1.31-.27-1.77-.74-.47-.47-.74-1.12-.74-1.78s.27-1.31.74-1.77c.47-.47,1.11-.74,1.77-.74s1.31.27,1.77.74c.47.47.74,1.11.74,1.77s-.27,1.31-.74,1.77c-.47.47-1.11.74-1.77.74Z"/>
</svg>