<?xml version="1.0" encoding="UTF-8"?>
<svg id="Scalability" xmlns="http://www.w3.org/2000/svg" xmlns:xlink="http://www.w3.org/1999/xlink" viewBox="0 0 179.65 179.65">
  <defs>
    <style>
      .cls-1 {
        fill: none;
      }

      .cls-2 {
        clip-path: url(#clippath-1);
      }
    </style>
    <clipPath id="clippath-1">
      <rect class="cls-1" y="7.02" width="179.65" height="165.62"/>
    </clipPath>
  </defs>
  <path d="M76.67,28.48c-1.38,0-2.51-1.12-2.51-2.51s1.13-2.51,2.51-2.51h49.49c1.38,0,2.51,1.12,2.51,2.51s-1.13,2.51-2.51,2.51h-49.49Z"/>
  <path d="M35.95,28.48c-.66,0-1.31-.27-1.77-.73-.47-.47-.73-1.11-.73-1.77s.27-1.31.73-1.77c.47-.47,1.11-.74,1.77-.74s1.31.27,1.77.74c.47.47.74,1.11.74,1.77s-.27,1.31-.74,1.77c-.47.47-1.11.73-1.77.73Z"/>
  <path d="M18.91,28.48c-.66,0-1.31-.27-1.77-.73-.47-.47-.74-1.11-.74-1.77s.27-1.31.74-1.77c.47-.47,1.11-.74,1.77-.74s1.31.27,1.77.74c.47.47.73,1.11.73,1.77s-.27,1.31-.73,1.77c-.47.47-1.11.73-1.77.73Z"/>
  <g class="cls-2">
    <path d="M52.98,28.48c-.66,0-1.31-.27-1.77-.73-.47-.47-.74-1.11-.74-1.77s.27-1.31.74-1.77c.47-.47,1.11-.74,1.77-.74s1.31.27,1.77.74.74,1.11.74,1.77-.27,1.31-.74,1.77c-.47.47-1.11.73-1.77.73Z"/>
    <path d="M166.34,171.62c-3.25,0-6.3-1.26-8.58-3.54l-23.7-23.7-.65.32c-5.76,2.9-11.96,4.36-18.43,4.36-8.89,0-17.37-2.8-24.51-8.11l-.27-.2h-33.11c-1.38,0-2.51-1.12-2.51-2.51s1.13-2.51,2.51-2.51h27.5l-1.36-1.64c-6.09-7.36-9.45-16.67-9.45-26.22,0-22.71,18.47-41.18,41.18-41.18,11.44,0,22.46,4.84,30.25,13.27l1.73,1.88v-37.94H6.02v91.82h19.5c1.38,0,2.51,1.12,2.51,2.51s-1.13,2.51-2.51,2.51H3.51c-1.38,0-2.51-1.12-2.51-2.51V10.54c0-1.38,1.13-2.51,2.51-2.51h145.96c1.38,0,2.51,1.12,2.51,2.51v79.29l.1.21c2.7,5.6,4.08,11.6,4.08,17.85s-1.48,12.73-4.4,18.51l-.33.65,23.68,23.68c4.75,4.75,4.72,12.51-.07,17.29-2.33,2.33-5.42,3.61-8.7,3.61ZM148.05,132.39c-2.44,3.29-5.35,6.19-8.65,8.63l-.93.69,22.83,22.83c1.34,1.34,3.13,2.07,5.04,2.07s3.78-.76,5.16-2.14c1.37-1.37,2.13-3.18,2.14-5.1.01-1.93-.72-3.74-2.07-5.09l-22.82-22.82-.69.93ZM114.98,71.73c-19.94,0-36.16,16.22-36.16,36.16s16.22,36.16,36.16,36.16,36.16-16.22,36.16-36.16-16.22-36.16-36.16-36.16ZM6.02,38.9h140.94V13.05H6.02v25.86Z"/>
  </g>
  <path d="M28.77,116.2c-6.03,0-10.93-4.9-10.93-10.93s4.9-10.93,10.93-10.93h25.08c6.03,0,10.93,4.9,10.93,10.93s-4.9,10.93-10.93,10.93h-25.08ZM28.77,99.36c-3.26,0-5.91,2.65-5.91,5.91s2.65,5.91,5.91,5.91h25.08c3.26,0,5.91-2.65,5.91-5.91s-2.65-5.91-5.91-5.91h-25.08Z"/>
  <path d="M22.8,82.56c-1.38,0-2.51-1.12-2.51-2.51s1.13-2.51,2.51-2.51h33.46c1.38,0,2.51,1.12,2.51,2.51s-1.13,2.51-2.51,2.51H22.8Z"/>
  <path d="M22.8,65.72c-1.38,0-2.51-1.12-2.51-2.51s1.13-2.51,2.51-2.51h34.3c1.38,0,2.51,1.12,2.51,2.51s-1.13,2.51-2.51,2.51H22.8Z"/>
  <path d="M74.03,65.72c-1.38,0-2.51-1.12-2.51-2.51s1.13-2.51,2.51-2.51h10.77c1.38,0,2.51,1.12,2.51,2.51s-1.12,2.51-2.51,2.51h-10.77Z"/>
  <path d="M101.57,118.82c-6.03,0-10.93-4.9-10.93-10.93s4.9-10.93,10.93-10.93c4.75,0,9.05,3.17,10.45,7.71l.22.71h24.57c1.38,0,2.51,1.12,2.51,2.51v4.74c0,1.38-1.13,2.51-2.51,2.51s-2.51-1.12-2.51-2.51v-2.23h-9.02v3.88c0,1.38-1.13,2.51-2.51,2.51s-2.51-1.12-2.51-2.51v-3.88h-8.03l-.22.71c-1.4,4.54-5.69,7.71-10.45,7.71ZM101.57,101.98c-3.26,0-5.91,2.65-5.91,5.91s2.65,5.91,5.91,5.91,5.91-2.65,5.91-5.91-2.65-5.91-5.91-5.91Z"/>
  <path d="M41.31,140.76c-.66,0-1.3-.27-1.77-.73-.47-.47-.74-1.12-.74-1.78s.27-1.3.74-1.77c.47-.47,1.11-.74,1.77-.74s1.31.27,1.78.74c.46.46.73,1.11.73,1.77s-.27,1.31-.73,1.77-1.11.73-1.78.73Z"/>
</svg>