<?xml version="1.0" encoding="UTF-8"?>
<svg id="Scalability" xmlns="http://www.w3.org/2000/svg" viewBox="0 0 179.71 179.71">
  <path d="M89.86,115.33c-1.37,0-2.49-1.12-2.49-2.49v-1.93l-.76-.19c-5.57-1.37-9.46-6.05-9.46-11.38,0-1.37,1.12-2.49,2.49-2.49s2.49,1.12,2.49,2.49c0,3.74,3.47,6.79,7.73,6.79s7.73-3.04,7.73-6.79-3.47-6.79-7.73-6.79c-7.01,0-12.72-5.28-12.72-11.77,0-5.33,3.89-10.01,9.46-11.38l.76-.19v-2.75c0-1.38,1.12-2.49,2.49-2.49s2.49,1.12,2.49,2.49v2.75l.76.19c5.57,1.37,9.46,6.05,9.46,11.38,0,1.38-1.12,2.49-2.49,2.49s-2.49-1.12-2.49-2.49c0-3.74-3.47-6.79-7.73-6.79s-7.73,3.04-7.73,6.79,3.47,6.79,7.73,6.79c7.01,0,12.72,5.28,12.72,11.77,0,5.33-3.89,10.01-9.46,11.38l-.76.19v1.93c0,1.38-1.12,2.49-2.49,2.49Z"/>
  <path d="M89.86,33.68c-1.37,0-2.49-1.12-2.49-2.49v-5.43l-.74-.2c-5.33-1.46-9.04-6.32-9.04-11.84,0-6.77,5.51-12.27,12.27-12.27s12.27,5.51,12.27,12.27c0,5.52-3.72,10.38-9.04,11.84l-.74.2v5.43c0,1.38-1.12,2.49-2.49,2.49ZM89.86,6.42c-4.02,0-7.29,3.27-7.29,7.29s3.27,7.29,7.29,7.29,7.29-3.27,7.29-7.29-3.27-7.29-7.29-7.29Z"/>
  <path d="M166,102.13c-5.52,0-10.38-3.72-11.84-9.04l-.2-.74h-5.42c-1.37,0-2.49-1.12-2.49-2.49s1.12-2.49,2.49-2.49h5.42l.2-.74c1.45-5.33,6.32-9.04,11.84-9.04,6.77,0,12.27,5.51,12.27,12.27s-5.51,12.27-12.27,12.27ZM166,82.57c-4.02,0-7.29,3.27-7.29,7.29s3.27,7.29,7.29,7.29,7.29-3.27,7.29-7.29-3.27-7.29-7.29-7.29Z"/>
  <path d="M13.71,102.13c-6.77,0-12.27-5.51-12.27-12.27s5.51-12.27,12.27-12.27c5.52,0,10.38,3.72,11.84,9.04l.2.74h5.42c1.37,0,2.49,1.12,2.49,2.49s-1.12,2.49-2.49,2.49h-5.42l-.2.74c-1.45,5.33-6.32,9.04-11.84,9.04ZM13.71,82.57c-4.02,0-7.29,3.27-7.29,7.29s3.27,7.29,7.29,7.29,7.29-3.27,7.29-7.29-3.27-7.29-7.29-7.29Z"/>
  <path d="M158.45,178.28c-.67,0-1.29-.26-1.76-.73l-20.83-20.83-7.58,12.92c-.45.76-1.27,1.23-2.15,1.23-.11,0-.22,0-.33-.02-1-.14-1.81-.85-2.07-1.82l-10.26-38.28-1.11.61c-6.86,3.73-14.64,5.7-22.49,5.7-26.02,0-47.19-21.17-47.19-47.19,0-6.85,1.43-13.45,4.26-19.63.41-.88,1.3-1.46,2.27-1.46.36,0,.71.08,1.04.23,1.25.57,1.8,2.06,1.23,3.3-2.53,5.52-3.81,11.43-3.81,17.55,0,23.27,18.93,42.21,42.21,42.21,7.62,0,15.09-2.06,21.61-5.95l.65-.39-3.87-14.42c-.23-.86.02-1.78.65-2.41.47-.47,1.1-.73,1.76-.73.22,0,.44.03.65.09l14.42,3.86.39-.65c3.89-6.52,5.95-13.99,5.95-21.61,0-23.27-18.93-42.21-42.21-42.21-6.22,0-12.2,1.32-17.79,3.92-.33.16-.69.23-1.05.23-.97,0-1.85-.57-2.26-1.44-.28-.6-.31-1.28-.08-1.91s.69-1.12,1.29-1.4c6.25-2.91,12.95-4.39,19.9-4.39,26.02,0,47.19,21.17,47.19,47.19,0,7.85-1.97,15.63-5.7,22.49l-.61,1.12,38.28,10.26c.97.26,1.69,1.07,1.82,2.07.14,1-.34,1.98-1.21,2.48l-12.92,7.59,20.83,20.83c.47.47.73,1.09.73,1.76s-.27,1.3-.73,1.76l-17.33,17.33c-.47.47-1.1.73-1.76.73ZM135.35,150.19c.67,0,1.29.26,1.76.73l21.34,21.34,13.81-13.81-21.34-21.34c-.55-.55-.81-1.31-.71-2.08.1-.76.55-1.45,1.21-1.83l10.57-6.2-47.8-12.81,12.81,47.8,6.2-10.57c.39-.66,1.07-1.11,1.83-1.21.1-.01.21-.02.32-.02Z"/>
  <path d="M58.15,60.85c-.66,0-1.3-.27-1.76-.73-.47-.46-.73-1.11-.73-1.76s.27-1.3.73-1.76c.47-.47,1.11-.73,1.76-.73s1.3.27,1.76.73c.47.46.73,1.11.73,1.76s-.27,1.3-.73,1.76c-.46.47-1.1.73-1.76.73Z"/>
</svg>