<?xml version="1.0" encoding="UTF-8"?>
<svg id="Scalability" xmlns="http://www.w3.org/2000/svg" viewBox="0 0 179.71 179.71">
  <path d="M78.06,20.06c-1.38,0-2.51-1.13-2.51-2.51s1.13-2.51,2.51-2.51h23.78c1.38,0,2.51,1.13,2.51,2.51s-1.13,2.51-2.51,2.51h-23.78Z"/>
  <path d="M105.65,178.71c-1.38,0-2.51-1.13-2.51-2.51s1.13-2.51,2.51-2.51h50.63c1.27,0,2.52-.23,3.72-.69l1.44-.55-55.85-55.85c-4.2-4.2-9.79-6.52-15.73-6.52s-11.53,2.31-15.73,6.52l-55.85,55.85,1.44.55c1.19.46,2.44.69,3.72.69h50.63c1.38,0,2.51,1.13,2.51,2.51s-1.13,2.51-2.51,2.51H23.43c-8.5,0-15.41-6.91-15.41-15.41V52.38c0-1.38,1.13-2.51,2.51-2.51h23.51V17.55c0-9.13,7.42-16.55,16.55-16.55h78.62c9.13,0,16.55,7.42,16.55,16.55v32.32h23.42c1.38,0,2.51,1.13,2.51,2.51v110.93c0,8.5-6.91,15.41-15.41,15.41h-50.63ZM110.6,114.51l54.49,54.49.61-1.29c.65-1.39.98-2.87.98-4.41V58.44l-56.08,56.07ZM13.04,163.3c0,1.54.33,3.02.98,4.41l.61,1.29,54.49-54.49L13.04,58.44v104.87ZM89.86,105.06c5.98,0,11.65,1.89,16.39,5.48l.69.52,33.8-33.8v-43.17H39.06v43.25l33.71,33.71.69-.52c4.74-3.58,10.41-5.48,16.39-5.48ZM34.04,72.33v-17.45h-17.45l17.45,17.45ZM145.76,72.25l17.36-17.36h-17.36v17.36ZM50.59,6.02c-6.36,0-11.53,5.17-11.53,11.53v11.53h101.69v-11.53c0-6.36-5.17-11.53-11.53-11.53H50.59Z"/>
  <path d="M89.86,178.71c-.66,0-1.31-.27-1.77-.74-.47-.47-.74-1.11-.74-1.77s.27-1.31.74-1.77c.47-.47,1.11-.74,1.77-.74s1.31.27,1.77.73c.47.47.74,1.12.74,1.78s-.27,1.31-.74,1.77c-.47.47-1.11.74-1.77.74Z"/>
  <path d="M89.86,94.56c-13.77,0-24.97-11.2-24.97-24.97s11.2-24.97,24.97-24.97,24.97,11.2,24.97,24.97-11.2,24.97-24.97,24.97ZM77.61,85.37l.99.68c3.33,2.28,7.22,3.48,11.25,3.48,9.59,0,17.83-6.84,19.61-16.26l.22-1.18h-18.79l-13.28,13.28ZM86.16,49.98c-9.42,1.77-16.26,10.02-16.26,19.61,0,4.03,1.2,7.92,3.48,11.25l.68.99,13.28-13.28v-18.79l-1.18.22ZM92.37,67.07h17.32l-.22-1.18c-1.51-8.01-7.9-14.41-15.91-15.91l-1.18-.22v17.32Z"/>
</svg>