<?xml version="1.0" encoding="UTF-8"?>
<svg id="Scalability" xmlns="http://www.w3.org/2000/svg" viewBox="0 0 179.73 179.73">
  <path d="M162.11,139c-1.35,0-2.45-1.1-2.45-2.45v-18.18c0-1.35,1.1-2.45,2.45-2.45h10.12l-25.48-24.76-25.48,24.76h10.12c1.35,0,2.45,1.1,2.45,2.45v18.18c0,1.35-1.1,2.45-2.45,2.45s-2.45-1.1-2.45-2.45v-15.73h-13.71c-1,0-1.9-.6-2.27-1.53-.38-.93-.16-1.98.56-2.68l31.52-30.63c.46-.45,1.07-.69,1.71-.69s1.25.25,1.71.69l31.52,30.63c.72.7.94,1.75.56,2.68-.38.93-1.27,1.53-2.27,1.53h-13.71v15.73c0,1.35-1.1,2.45-2.45,2.45Z"/>
  <path d="M45.27,164.97c-1.35,0-2.45-1.1-2.45-2.45V28.17c0-4.69-3.81-8.5-8.5-8.5s-8.5,3.81-8.5,8.5v103.19c0,3.13-1.09,6.12-3.05,8.5h11.37c1.35,0,2.45,1.1,2.45,2.45s-1.1,2.45-2.45,2.45H12.41c-7.39,0-13.41-6.01-13.41-13.41V17.21c0-1.35,1.1-2.45,2.45-2.45h15.86c1.35,0,2.45,1.1,2.45,2.45s-1.1,2.45-2.45,2.45H3.91v111.69c0,4.69,3.81,8.5,8.5,8.5s8.5-3.81,8.5-8.5V28.17c0-7.39,6.01-13.41,13.41-13.41h101.48c7.39,0,13.41,6.01,13.41,13.41v45.87c0,1.35-1.1,2.45-2.45,2.45s-2.45-1.1-2.45-2.45V28.17c0-4.69-3.81-8.5-8.5-8.5H44.67c1.96,2.38,3.05,5.37,3.05,8.5v131.89h96.57v-13.38c0-1.35,1.1-2.45,2.45-2.45s2.45,1.1,2.45,2.45v15.83c0,1.35-1.1,2.45-2.45,2.45H45.27Z"/>
  <path d="M62.7,51.73c-1.35,0-2.45-1.1-2.45-2.45s1.1-2.45,2.45-2.45h9.75c1.35,0,2.45,1.1,2.45,2.45s-1.1,2.45-2.45,2.45h-9.75Z"/>
  <path d="M62.7,67.02c-1.35,0-2.45-1.1-2.45-2.45s1.1-2.45,2.45-2.45h25.81c1.35,0,2.45,1.1,2.45,2.45s-1.1,2.45-2.45,2.45h-25.81Z"/>
  <path d="M86.21,51.73c-1.35,0-2.45-1.1-2.45-2.45s1.1-2.45,2.45-2.45h43.97c1.35,0,2.45,1.1,2.45,2.45s-1.1,2.45-2.45,2.45h-43.97Z"/>
  <path d="M78.66,138.01c-1.35,0-2.45-1.1-2.45-2.45v-3.68c-6-1.16-10.42-6.43-10.42-12.62,0-1.35,1.1-2.45,2.45-2.45s2.45,1.1,2.45,2.45c0,4.39,3.57,7.96,7.96,7.96,2.2,0,4.34-.91,5.86-2.49,1.43-1.48,2.17-3.39,2.1-5.38-.17-4.71-3.83-6.69-8.06-8.97-4.27-2.31-9.58-5.18-9.61-11.71-.01-2.45,1.06-4.93,2.93-6.81,1.24-1.24,2.72-2.12,4.33-2.57v-3.78c0-1.35,1.1-2.45,2.45-2.45s2.45,1.1,2.45,2.45v3.76c4.25,1.1,7.26,4.93,7.26,9.39,0,1.35-1.1,2.45-2.45,2.45s-2.45-1.1-2.45-2.45c0-2.65-2.16-4.81-4.81-4.81-1.19,0-2.37.52-3.31,1.47-.94.95-1.5,2.19-1.5,3.33.02,3.63,3.11,5.3,7.04,7.42,4.61,2.49,10.36,5.59,10.63,13.11.12,3.33-1.11,6.51-3.47,8.97-1.85,1.93-4.29,3.24-6.94,3.75v3.68c0,1.35-1.1,2.45-2.45,2.45Z"/>
</svg>