<?xml version="1.0" encoding="UTF-8"?>
<svg id="Scalability" xmlns="http://www.w3.org/2000/svg" xmlns:xlink="http://www.w3.org/1999/xlink" viewBox="0 0 179.73 179.73">
  <defs>
    <style>
      .cls-1 {
        fill: none;
      }

      .cls-2 {
        clip-path: url(#clippath-1);
      }
    </style>
    <clipPath id="clippath-1">
      <rect class="cls-1" x=".04" y=".04" width="179.65" height="179.65"/>
    </clipPath>
  </defs>
  <path d="M63.66,6.05c-.66,0-1.31-.27-1.78-.73-.47-.47-.73-1.11-.73-1.77s.27-1.31.73-1.77c.47-.47,1.11-.74,1.77-.74s1.3.27,1.77.74c.47.47.74,1.11.74,1.77s-.27,1.31-.74,1.78c-.47.47-1.11.73-1.77.73Z"/>
  <g class="cls-2">
    <path d="M129.86,154.93c-13.82,0-25.07-11.25-25.07-25.07s11.25-25.07,25.07-25.07,25.07,11.25,25.07,25.07-11.25,25.07-25.07,25.07ZM129.86,109.82c-11.06,0-20.05,8.99-20.05,20.05s8.99,20.05,20.05,20.05,20.05-8.99,20.05-20.05-8.99-20.05-20.05-20.05Z"/>
    <path d="M63.77,178.69c-16.75-.03-32.52-6.63-44.4-18.58C7.49,148.15.97,132.34,1.04,115.59c.09-24.09,14.22-46.31,36-56.61l.57-.27V22.92l-.97-.03c-5.93-.19-10.58-4.99-10.58-10.92S30.97,1.04,37,1.04h11.3c1.38,0,2.51,1.12,2.51,2.51s-1.13,2.51-2.51,2.51h-11.3c-3.26,0-5.91,2.65-5.91,5.91s2.65,5.91,5.91,5.91h53.33c3.26,0,5.91-2.65,5.91-5.91s-2.65-5.91-5.91-5.91h-11.31c-1.38,0-2.51-1.12-2.51-2.51s1.13-2.51,2.51-2.51h11.31c6.03,0,10.93,4.9,10.93,10.93,0,5.71-4.46,10.5-10.15,10.9l-.93.07v33.34l11.36-11.36-5.42-5.42c-.63-.63-.88-1.56-.65-2.42.23-.86.91-1.54,1.77-1.77l33.33-8.93c.21-.06.43-.08.65-.08.67,0,1.3.26,1.78.73.63.63.88,1.56.65,2.43l-8.93,33.33c-.23.86-.91,1.54-1.77,1.77-.21.06-.43.08-.65.08-.67,0-1.3-.26-1.78-.73l-5.51-5.51-9.94,9.94.79.71c4.39,3.95,8.21,8.49,11.35,13.5l.95,1.52.79-1.61c.43-.86,1.29-1.4,2.25-1.4h17.32c1.38,0,2.51,1.12,2.51,2.51v6l.72.21c2.79.82,5.5,1.95,8.06,3.34l.66.36,4.25-4.25c.47-.47,1.1-.73,1.77-.73s1.3.26,1.77.73l12.25,12.25c.47.47.73,1.1.73,1.77s-.26,1.3-.73,1.78l-4.25,4.24.36.66c1.39,2.56,2.52,5.27,3.35,8.07l.21.72h6c1.38,0,2.51,1.12,2.51,2.51v17.32c0,1.38-1.13,2.51-2.51,2.51h-5.99l-.21.72c-.82,2.79-1.95,5.51-3.34,8.07l-.36.66,4.24,4.24c.47.47.73,1.11.73,1.78s-.27,1.31-.73,1.77l-12.25,12.25c-.47.47-1.1.73-1.78.73s-1.3-.26-1.77-.74l-4.24-4.24-.66.36c-2.57,1.4-5.29,2.52-8.07,3.35l-.72.21v5.99c0,1.38-1.13,2.51-2.51,2.51h-17.32c-1.38,0-2.51-1.12-2.51-2.51v-5.99l-.72-.21c-2.78-.82-5.5-1.95-8.07-3.35l-.66-.36-4.24,4.24c-.47.47-1.1.73-1.78.73s-1.3-.26-1.77-.73l-2.5-2.5-.68.45c-10.21,6.69-22.1,10.23-34.38,10.23h-.12ZM7.07,126.66c2.15,11.29,7.63,21.64,15.86,29.91,10.94,11,25.44,17.07,40.85,17.1h.11c10.78,0,21.28-2.98,30.38-8.61l1.07-.66-6.13-6.13c-.47-.47-.73-1.11-.73-1.77s.26-1.3.73-1.78l4.24-4.24-.36-.66c-1.39-2.57-2.52-5.28-3.34-8.07l-.21-.72h-5.99c-1.38,0-2.51-1.12-2.51-2.51v-17.32c0-1.38,1.13-2.51,2.51-2.51h6l.21-.72c.83-2.79,1.95-5.5,3.35-8.07l.36-.66-4.25-4.24c-.47-.47-.73-1.11-.73-1.78s.26-1.3.74-1.78l12.25-12.25c.47-.47,1.1-.73,1.78-.73s1.3.26,1.77.73l4.24,4.24.66-.36c1.59-.87,3.25-1.63,4.93-2.28l1.04-.4-.51-.99c-3.31-6.42-7.73-12.12-13.16-16.92l-.7-.62-42.12,42.12c-.47.47-1.11.74-1.77.74s-1.3-.26-1.77-.74l-12.92-12.92-27.64,27.64c-.47.47-1.1.73-1.77.73s-1.3-.26-1.77-.73l-5.26-5.26.61,3.19ZM108.87,160.6c.48,0,.94.13,1.34.39,3.56,2.26,7.45,3.87,11.54,4.79,1.15.26,1.96,1.27,1.96,2.45v5.45h12.3v-5.45c0-1.18.81-2.19,1.96-2.45,4.09-.92,7.98-2.53,11.54-4.79.4-.25.87-.39,1.34-.39.67,0,1.3.26,1.78.74l3.85,3.85,8.7-8.7-3.86-3.86c-.83-.84-.98-2.12-.35-3.12,2.25-3.56,3.86-7.45,4.78-11.54.26-1.15,1.27-1.96,2.45-1.96h5.45v-12.3h-5.45c-1.18,0-2.19-.8-2.45-1.96-.92-4.1-2.53-7.98-4.79-11.54-.63-1-.49-2.28.35-3.12l3.86-3.86-8.7-8.7-3.86,3.86c-.47.47-1.11.73-1.78.73-.47,0-.94-.13-1.34-.39-3.56-2.25-7.44-3.86-11.54-4.78-1.15-.26-1.96-1.27-1.96-2.45v-5.46h-12.3v5.46c0,1.18-.81,2.19-1.96,2.45-4.1.92-7.98,2.53-11.54,4.78-.4.25-.87.39-1.34.39-.67,0-1.3-.26-1.78-.74l-3.86-3.86-8.7,8.7,3.86,3.86c.84.84.98,2.12.34,3.12-2.25,3.56-3.86,7.44-4.79,11.54-.26,1.15-1.27,1.96-2.45,1.96h-5.45v12.3h5.45c1.18,0,2.19.81,2.45,1.96.92,4.11,2.53,7.99,4.79,11.55.63,1,.49,2.28-.35,3.12l-3.86,3.86,8.7,8.7,3.85-3.85c.47-.47,1.1-.74,1.78-.74ZM7.12,117.03l6.38,6.38,27.65-27.64c.48-.47,1.11-.73,1.77-.73s1.3.26,1.78.74l12.92,12.92,55.63-55.62c.47-.47,1.11-.74,1.78-.74s1.3.26,1.77.74l4.22,4.21,6.68-24.94-24.94,6.68,4.12,4.12c.47.47.73,1.1.73,1.77s-.26,1.3-.73,1.77l-47.48,47.48c-.47.47-1.11.74-1.77.74s-1.31-.27-1.77-.74l-12.92-12.92L7.12,117.03ZM42.63,60.34c0,1-.6,1.91-1.52,2.31-18.53,7.95-31.76,25.29-34.51,45.26l-.41,2.95,34.94-34.94c.48-.47,1.11-.74,1.77-.74s1.31.27,1.77.74l12.92,12.92,27.55-27.55V22.9h-42.53v37.45Z"/>
  </g>
</svg>