<?xml version="1.0" encoding="UTF-8"?>
<svg id="Scalability" xmlns="http://www.w3.org/2000/svg" xmlns:xlink="http://www.w3.org/1999/xlink" viewBox="0 0 179.73 179.73">
  <defs>
    <style>
      .cls-1 {
        fill: none;
      }

      .cls-2 {
        clip-path: url(#clippath-1);
      }
    </style>
    <clipPath id="clippath-1">
      <rect class="cls-1" y="16.85" width="179.73" height="146.03"/>
    </clipPath>
  </defs>
  <g class="cls-2">
    <path d="M89.86,161.56c-23.28,0-44.45-10.81-58.08-29.66l-.69-.95-12.63,12.63c-.47.47-1.1.73-1.78.73s-1.3-.26-1.78-.73l-13.17-13.17c-.47-.47-.73-1.11-.73-1.78s.26-1.3.73-1.77l18.77-18.77-.14-.55c-1.46-5.76-2.2-11.71-2.2-17.68,0-39.54,32.16-71.7,71.7-71.7,20.98,0,40.81,9.12,54.43,25.02l.41.48,30.87-8.27c.21-.06.43-.09.65-.09.67,0,1.3.26,1.78.74.63.63.88,1.56.65,2.42l-8.7,32.47c-.23.86-.91,1.54-1.78,1.78-.21.06-.43.09-.65.09-.66,0-1.31-.27-1.78-.74l-3.23-3.23-3.19,3.19.14.55c1.4,5.64,2.1,11.46,2.1,17.29,0,13.44-3.74,26.54-10.82,37.89-.46.74-1.26,1.18-2.13,1.18-.47,0-.93-.13-1.33-.38-1.17-.73-1.53-2.28-.8-3.46,1.93-3.09,3.62-6.38,5.02-9.76l.57-1.38h-23.57v8.96c0,8.86-3.09,17.52-8.7,24.39l1.24,1.52c1.37-.73,2.73-1.51,4.05-2.33.4-.25.86-.38,1.33-.38.87,0,1.67.44,2.13,1.18.73,1.17.37,2.73-.8,3.46-11.35,7.08-24.45,10.82-37.89,10.82ZM92.37,156.45l1.11-.12c17.1-1.84,30-16.21,30-33.42v-8.96h-6.08l-8.68,8.68c-.47.47-1.12.74-1.78.74s-1.31-.27-1.77-.74l-8.68-8.68h-4.12v42.5ZM56.25,122.91c0,17.21,12.9,31.58,30,33.42l1.11.12v-42.5h-31.11v8.96ZM34.71,127.34l.48.69c6.07,8.7,14.21,15.9,23.52,20.82l1.24-1.52c-5.62-6.88-8.72-15.55-8.72-24.42v-8.96h-3.12l-13.39,13.39ZM7.06,128.64l9.62,9.62,53.84-53.84c.47-.47,1.1-.73,1.78-.73s1.3.26,1.77.73l32.87,32.88,53.79-53.79c.47-.47,1.1-.74,1.77-.74s1.3.26,1.77.74l1.93,1.93,6.45-24.07-24.07,6.45,2.52,2.52c.47.47.74,1.11.74,1.78s-.26,1.3-.74,1.77l-42.39,42.39c-.47.47-1.11.73-1.78.73s-1.31-.27-1.78-.73l-32.87-32.88L7.06,128.64ZM128.5,102.84v6.08h25.27l.21-.73c1.7-5.95,2.56-12.12,2.56-18.34,0-3.93-.35-7.9-1.04-11.79l-.34-1.89-26.66,26.66ZM56.25,105.8v3.12h31.11v-4.12l-15.05-15.06-16.05,16.05ZM25.75,71.52c-1.7,5.94-2.56,12.11-2.56,18.34,0,4.07.38,8.18,1.12,12.21l.35,1.87,26.57-26.57v-6.58h-25.27l-.21.72ZM92.37,76.38l14.57,14.57,16.53-16.54v-3.62h-31.11v5.58ZM119.79,32.4c5.62,6.87,8.72,15.55,8.72,24.42v8.96h3.62l13.1-13.1-.47-.69c-6.1-8.83-14.3-16.13-23.72-21.1l-1.24,1.52ZM92.37,65.78h31.11v-8.96c0-17.21-12.9-31.58-30-33.42l-1.11-.12v42.5ZM72.3,57.34c.67,0,1.3.26,1.77.74l7.7,7.7h5.58V23.28l-1.11.12c-17.1,1.84-30,16.21-30,33.42v8.96h6.58l7.7-7.7c.47-.47,1.1-.74,1.77-.74ZM58.63,30.96c-13.67,7.28-24.47,19.15-30.39,33.43l-.57,1.38h23.56v-8.96c0-8.83,3.07-17.48,8.66-24.34l-1.25-1.51Z"/>
  </g>
  <path d="M138.79,141.3c-.66,0-1.31-.27-1.77-.74-.47-.47-.74-1.11-.74-1.78s.27-1.31.74-1.77c.47-.47,1.12-.74,1.77-.74s1.31.27,1.77.73c.47.47.74,1.11.74,1.78s-.27,1.31-.73,1.78c-.47.47-1.12.74-1.78.74Z"/>
</svg>