<?xml version="1.0" encoding="UTF-8"?>
<svg id="Scalability" xmlns="http://www.w3.org/2000/svg" viewBox="0 0 179.73 179.73">
  <path d="M25.27,24.95c-1.38,0-2.51-1.13-2.51-2.51s1.13-2.51,2.51-2.51h45.81c1.38,0,2.51,1.13,2.51,2.51s-1.13,2.51-2.51,2.51H25.27Z"/>
  <path d="M25.27,44.61c-1.38,0-2.51-1.13-2.51-2.51s1.13-2.51,2.51-2.51h18.43c1.38,0,2.51,1.13,2.51,2.51s-1.13,2.51-2.51,2.51h-18.43Z"/>
  <path d="M105.83,83.95c-1.38,0-2.51-1.13-2.51-2.51s1.13-2.51,2.51-2.51h48.62c1.38,0,2.51,1.13,2.51,2.51s-1.13,2.51-2.51,2.51h-48.62Z"/>
  <path d="M105.83,103.61c-1.38,0-2.51-1.13-2.51-2.51s1.13-2.51,2.51-2.51h48.62c1.38,0,2.51,1.13,2.51,2.51s-1.13,2.51-2.51,2.51h-48.62Z"/>
  <path d="M25.27,103.61c-1.38,0-2.51-1.13-2.51-2.51v-18.93c0-1.38,1.13-2.51,2.51-2.51h16.45v-18.23c0-1.38,1.13-2.51,2.51-2.51h16.45v-13.83c0-1.38,1.13-2.51,2.51-2.51h18.96c1.38,0,2.51,1.13,2.51,2.51v56.01c0,1.38-1.13,2.51-2.51,2.51H25.27ZM65.7,98.59h13.94v-50.99h-13.94v50.99ZM46.74,98.59h13.94v-34.66h-13.94v34.66ZM27.78,98.59h13.94v-13.91h-13.94v13.91Z"/>
  <path d="M115.05,178.73c-1,0-1.9-.59-2.3-1.5l-10.74-24.48-1.92.4v23.07c0,1.38-1.13,2.51-2.51,2.51h-15.44c-1.38,0-2.51-1.13-2.51-2.51v-23.07l-1.92-.4-10.74,24.48c-.4.91-1.3,1.5-2.3,1.5h-18.03c-.85,0-1.64-.42-2.1-1.14-.47-.71-.54-1.6-.2-2.38l15.39-35.09H3.51c-1.38,0-2.51-1.13-2.51-2.51v-16.85c0-1.38,1.13-2.51,2.51-2.51h2.4V3.51c0-1.38,1.13-2.51,2.51-2.51h162.88c1.38,0,2.51,1.13,2.51,2.51v114.73h2.4c1.38,0,2.51,1.13,2.51,2.51v16.85c0,1.38-1.13,2.51-2.51,2.51h-56.23l15.39,35.09c.34.78.27,1.67-.2,2.38-.47.71-1.25,1.14-2.1,1.14h-18.03ZM116.69,173.7h12.55l-14.74-33.59h-12.54l14.73,33.59ZM84.65,173.7h10.42v-33.59h-10.42v33.59ZM50.49,173.7h12.55l14.73-33.59h-12.54l-14.74,33.59ZM6.02,135.09h167.68v-11.83h-68c-1.38,0-2.51-1.13-2.51-2.51s1.13-2.51,2.51-2.51h63.09V6.02H10.93v112.22h63.18c1.38,0,2.51,1.13,2.51,2.51s-1.13,2.51-2.51,2.51H6.02v11.83Z"/>
  <path d="M89.86,123.26c-.66,0-1.31-.27-1.77-.74-.47-.47-.74-1.12-.74-1.78s.27-1.31.74-1.77c.47-.47,1.11-.74,1.77-.74s1.31.27,1.77.74c.47.47.74,1.11.74,1.77s-.27,1.31-.74,1.77c-.47.47-1.11.74-1.77.74Z"/>
  <path d="M131.99,69.88c-13.77,0-24.98-11.2-24.98-24.98s11.2-24.98,24.98-24.98,24.98,11.2,24.98,24.98-11.2,24.98-24.98,24.98ZM128.29,25.3c-9.42,1.77-16.26,10.02-16.26,19.61,0,11,8.95,19.96,19.96,19.96,9.59,0,17.84-6.84,19.61-16.26l.22-1.18h-19.83c-1.38,0-2.51-1.13-2.51-2.51v-19.83l-1.19.22ZM134.5,42.4h17.32l-.22-1.18c-1.51-8.01-7.9-14.41-15.91-15.91l-1.19-.22v17.32Z"/>
</svg>