<?xml version="1.0" encoding="UTF-8"?>
<svg id="Scalability" xmlns="http://www.w3.org/2000/svg" xmlns:xlink="http://www.w3.org/1999/xlink" viewBox="0 0 179.71 179.71">
  <defs>
    <style>
      .cls-1 {
        fill: none;
      }

      .cls-2 {
        clip-path: url(#clippath-1);
      }
    </style>
    <clipPath id="clippath-1">
      <rect class="cls-1" x=".37" y=".37" width="178.97" height="178.97"/>
    </clipPath>
  </defs>
  <g class="cls-2">
    <path d="M89.86,146.18c-.65,0-1.3-.27-1.76-.73-.47-.46-.73-1.11-.73-1.76s.27-1.3.73-1.76c.46-.47,1.11-.73,1.76-.73s1.3.27,1.76.73c.47.47.73,1.11.73,1.76s-.27,1.3-.73,1.76c-.47.47-1.11.73-1.76.73Z"/>
    <path d="M26.24,178.34c-1.38,0-2.5-1.12-2.5-2.5v-15.38c0-1.38,1.12-2.5,2.5-2.5h9.39v-14.28c0-1.38,1.12-2.5,2.5-2.5h4.5v-13.7c0-.67.26-1.29.73-1.77,7.15-7.15,12.21-16.13,14.62-25.96l.85-3.48-40.07,40.07c-.47.47-1.1.73-1.77.73s-1.29-.26-1.77-.73l-13.12-13.12c-.47-.47-.73-1.1-.73-1.76s.26-1.29.73-1.77l57.47-57.47v-9.74h-5.12c-1.38,0-2.5-1.12-2.5-2.5s1.12-2.5,2.5-2.5h5.12v-10.39h-8.89c-1.38,0-2.5-1.12-2.5-2.5V3.87c0-1.38,1.12-2.5,2.5-2.5h16.8c1.38,0,2.5,1.12,2.5,2.5v11.49h8.99V3.87c0-1.38,1.12-2.5,2.5-2.5h16.78c1.38,0,2.5,1.12,2.5,2.5v11.49h8.99V3.87c0-1.38,1.12-2.5,2.5-2.5h16.8c1.38,0,2.5,1.12,2.5,2.5v30.76c0,1.38-1.12,2.5-2.5,2.5h-8.89v10.39h5.12c1.38,0,2.5,1.12,2.5,2.5s-1.12,2.5-2.5,2.5h-5.12v18.18l25.41-25.41-3.8-3.8c-.63-.63-.88-1.55-.65-2.41.23-.86.91-1.54,1.76-1.77l32.33-8.66c.21-.06.43-.09.65-.09.66,0,1.3.27,1.76.73.63.63.88,1.55.65,2.41l-8.66,32.33c-.23.86-.91,1.53-1.77,1.76-.21.06-.43.08-.65.08-.67,0-1.29-.26-1.77-.73l-3.22-3.21-39.91,39.91.17.57c2.62,8.79,7.43,16.85,13.9,23.32.47.47.73,1.1.73,1.77v13.7h4.5c1.38,0,2.5,1.12,2.5,2.5v14.28h9.39c1.38,0,2.5,1.12,2.5,2.5v15.38c0,1.38-1.12,2.5-2.5,2.5H26.24ZM28.74,173.35h122.24v-10.39H28.74v10.39ZM40.62,157.97h98.47v-11.79h-33.51c-1.38,0-2.5-1.12-2.5-2.5s1.12-2.5,2.5-2.5h26.52v-12.68l-.28-.29c-5.76-6.04-10.13-13.08-13-20.92l-.54-1.47-19.7,19.7c-.47.46-1.11.73-1.77.73s-1.3-.27-1.77-.73l-31-31-.32,1.92c-1.99,11.99-7.48,22.98-15.86,31.78l-.28.29v12.68h26.52c1.38,0,2.5,1.12,2.5,2.5s-1.12,2.5-2.5,2.5h-33.51v11.79ZM7.4,121.48l9.59,9.59,43.57-43.57c.47-.47,1.1-.73,1.77-.73s1.29.26,1.76.73l32.74,32.74,63.61-63.61c.47-.47,1.1-.73,1.76-.73s1.29.26,1.76.73l1.92,1.92,6.43-23.98-23.98,6.43,2.51,2.51c.47.47.73,1.1.73,1.76s-.26,1.29-.73,1.76l-52.25,52.25c-.47.47-1.1.73-1.77.73s-1.29-.26-1.77-.73l-32.73-32.74L7.4,121.48ZM64.56,61.73l32.26,32.26,18.32-18.32v-23.17h-50.59v9.23ZM64.56,47.51h50.59v-10.39h-50.59v10.39ZM53.18,32.13h73.35V6.36h-11.81v11.49c0,1.38-1.12,2.5-2.5,2.5h-13.98c-1.38,0-2.5-1.12-2.5-2.5V6.36h-11.79v11.49c0,1.38-1.12,2.5-2.5,2.5h-13.98c-1.38,0-2.5-1.12-2.5-2.5V6.36h-11.81v25.77Z"/>
  </g>
</svg>