<?xml version="1.0" encoding="UTF-8"?>
<svg id="Scalability" xmlns="http://www.w3.org/2000/svg" viewBox="0 0 179.73 179.73">
  <path d="M50.55,178.73c-9.13,0-16.55-7.42-16.55-16.55V17.55c0-9.13,7.42-16.55,16.55-16.55h78.63c9.13,0,16.55,7.42,16.55,16.55v56.56c0,1.38-1.13,2.51-2.51,2.51s-2.51-1.13-2.51-2.51v-40.01H39.02v111.52h101.69v-39.92c0-1.38,1.13-2.51,2.51-2.51s2.51,1.13,2.51,2.51v56.47c0,9.13-7.42,16.55-16.55,16.55H50.55ZM39.02,162.17c0,6.36,5.17,11.53,11.53,11.53h78.63c6.36,0,11.53-5.17,11.53-11.53v-11.53H39.02v11.53ZM50.55,6.02c-6.36,0-11.53,5.17-11.53,11.53v11.53h101.69v-11.53c0-6.36-5.17-11.53-11.53-11.53H50.55Z"/>
  <path d="M89.86,164.68c-.66,0-1.31-.27-1.77-.74-.47-.47-.74-1.11-.74-1.77s.27-1.31.74-1.77c.47-.47,1.11-.74,1.77-.74s1.31.27,1.77.74c.47.47.74,1.12.74,1.78s-.27,1.31-.74,1.77c-.47.47-1.11.74-1.77.74Z"/>
  <path d="M78.02,20.06c-1.38,0-2.51-1.13-2.51-2.51s1.13-2.51,2.51-2.51h23.78c1.38,0,2.51,1.13,2.51,2.51s-1.13,2.51-2.51,2.51h-23.78Z"/>
  <path d="M143.22,92.42c-.66,0-1.31-.27-1.77-.74-.47-.47-.74-1.11-.74-1.77s.27-1.31.74-1.78c.46-.46,1.11-.73,1.77-.73s1.31.27,1.77.73c.47.47.74,1.12.74,1.78s-.27,1.31-.74,1.77c-.47.47-1.11.74-1.77.74Z"/>
  <path d="M71.61,131.3c-6.03,0-10.94-4.91-10.94-10.94s4.91-10.93,10.94-10.93h36.51c6.03,0,10.94,4.91,10.94,10.93s-4.91,10.94-10.94,10.94h-36.51ZM71.61,114.45c-3.26,0-5.91,2.65-5.91,5.91s2.65,5.92,5.91,5.92h36.51c3.26,0,5.91-2.65,5.91-5.92s-2.65-5.91-5.91-5.91h-36.51Z"/>
  <path d="M78.74,81.84c-1.21,0-2.25-.87-2.47-2.06l-5.74-31.64h-6.47c-1.38,0-2.51-1.13-2.51-2.51s1.13-2.51,2.51-2.51h8.56c1.21,0,2.25.87,2.47,2.06l1.15,6.36h39.42c.73,0,1.43.32,1.91.87.48.55.69,1.29.58,2.02l-3.86,25.27c-.19,1.22-1.25,2.13-2.48,2.13h-33.06ZM80.83,76.82h28.81l3.09-20.25h-35.58l3.68,20.25Z"/>
  <path d="M87.93,95.88c-.66,0-1.31-.27-1.77-.74-.47-.47-.74-1.12-.74-1.78s.27-1.31.74-1.77c.47-.47,1.11-.74,1.77-.74s1.31.27,1.77.74c.47.47.74,1.11.74,1.77s-.27,1.31-.74,1.77c-.47.47-1.11.74-1.77.74Z"/>
  <path d="M104.61,95.88c-.66,0-1.31-.27-1.77-.74-.47-.47-.74-1.12-.74-1.78s.27-1.31.74-1.77c.47-.47,1.11-.74,1.77-.74s1.31.27,1.77.74c.47.47.74,1.11.74,1.77s-.27,1.31-.74,1.77c-.47.47-1.11.74-1.77.74Z"/>
</svg>