<?xml version="1.0" encoding="UTF-8"?>
<svg id="Scalability" xmlns="http://www.w3.org/2000/svg" viewBox="0 0 179.73 179.73">
  <path d="M162.09,176.3c-1.35,0-2.44-1.09-2.44-2.44v-37.81c0-1.34,1.09-2.44,2.44-2.44h9.18l-24.57-19.41-24.57,19.41h9.18c1.35,0,2.44,1.09,2.44,2.44v37.81c0,1.34-1.09,2.44-2.44,2.44s-2.44-1.09-2.44-2.44v-35.37h-13.76c-1.04,0-1.96-.66-2.3-1.64-.34-.98-.02-2.07.79-2.72l31.59-24.96c.43-.34.97-.53,1.51-.53s1.08.19,1.51.52l31.59,24.96c.81.64,1.13,1.73.79,2.71-.34.98-1.27,1.64-2.3,1.64h-13.76v35.37c0,1.34-1.09,2.44-2.44,2.44Z"/>
  <path d="M67.79,87.17c-1.35,0-2.44-1.09-2.44-2.44v-4.23c-6.56-1.16-11.41-6.87-11.41-13.63,0-1.34,1.09-2.44,2.44-2.44s2.44,1.09,2.44,2.44c0,4.94,4.02,8.97,8.97,8.97,2.48,0,4.88-1.02,6.6-2.8,1.61-1.67,2.45-3.83,2.37-6.08-.2-5.3-4.26-7.5-8.96-10.03-4.86-2.62-10.37-5.6-10.4-12.61-.01-2.62,1.13-5.28,3.14-7.29,1.37-1.38,3.02-2.33,4.82-2.79v-4.33c0-1.34,1.09-2.44,2.44-2.44s2.44,1.09,2.44,2.44v4.32c4.59,1.12,7.95,5.31,7.95,10.09,0,1.34-1.09,2.44-2.44,2.44s-2.44-1.09-2.44-2.44c0-3.04-2.47-5.51-5.51-5.51-1.37,0-2.72.6-3.8,1.68-1.08,1.08-1.72,2.51-1.71,3.82.02,4.12,3.47,5.98,7.84,8.34,5,2.7,11.22,6.06,11.52,14.15.13,3.58-1.19,7.01-3.73,9.64-2.05,2.13-4.75,3.55-7.67,4.07v4.24c0,1.34-1.09,2.44-2.44,2.44Z"/>
  <path d="M48.99,176.3c-1.35,0-2.44-1.09-2.44-2.44v-23.96c-3.63-19.58-14.24-31.37-24.51-42.77C10.2,93.96-1,81.52-1,58.92-1,28.32,29.86,3.42,67.79,3.42s68.79,24.9,68.79,55.5c0,22.6-11.2,35.04-23.05,48.21-10.26,11.41-20.87,23.2-24.51,42.77v23.96c0,1.34-1.09,2.44-2.44,2.44h-37.59ZM84.15,171.43v-19.31h-32.71v19.31h32.71ZM84.59,147.23c1.35-6.42,3.44-12.33,6.38-18.04l.1-.21c.61-1.36.93-2.86.93-4.41,0-6-4.88-10.88-10.88-10.88s-10.88,4.88-10.88,10.88v22.65h14.36ZM65.35,147.23v-22.65c0-6-4.88-10.88-10.88-10.88s-10.88,4.88-10.88,10.88c0,1.55.32,3.05.95,4.45l.04.08c2.97,5.73,5.07,11.67,6.42,18.12h14.36ZM67.79,8.3C32.55,8.3,3.88,31.01,3.88,58.92c0,20.73,10.59,32.49,21.79,44.95,4.63,5.14,9.4,10.44,13.61,16.51,1.85-6.74,8-11.56,15.19-11.56,5.41,0,10.45,2.83,13.32,7.35,2.87-4.52,7.92-7.35,13.32-7.35,7.19,0,13.34,4.82,15.19,11.56,4.21-6.07,8.98-11.37,13.6-16.51,11.21-12.46,21.8-24.22,21.8-44.95,0-27.91-28.67-50.62-63.91-50.62Z"/>
</svg>