<?xml version="1.0" encoding="UTF-8"?>
<svg id="Scalability" xmlns="http://www.w3.org/2000/svg" viewBox="0 0 179.73 179.73">
  <path d="M89.86,89.78c-1.38,0-2.51-1.13-2.51-2.51v-11.45c0-1.38,1.13-2.51,2.51-2.51s2.51,1.13,2.51,2.51v11.45c0,1.38-1.13,2.51-2.51,2.51Z"/>
  <path d="M75.12,67.85c-1.38,0-2.51-1.13-2.51-2.51v-10.93c0-1.38,1.13-2.51,2.51-2.51s2.51,1.13,2.51,2.51v10.93c0,1.38-1.13,2.51-2.51,2.51Z"/>
  <path d="M89.86,105.58c-.66,0-1.31-.27-1.77-.74-.47-.47-.74-1.12-.74-1.77s.27-1.31.74-1.77c.47-.47,1.11-.74,1.77-.74s1.31.27,1.77.73c.47.47.74,1.11.74,1.78s-.27,1.31-.74,1.77c-.47.47-1.11.74-1.77.74Z"/>
  <path d="M104.61,67.29c-8.35,0-15.15-6.79-15.15-15.15s6.79-15.15,15.15-15.15,15.15,6.79,15.15,15.15-6.79,15.15-15.15,15.15ZM104.61,42.01c-5.58,0-10.13,4.54-10.13,10.13s4.54,10.13,10.13,10.13,10.13-4.54,10.13-10.13-4.54-10.13-10.13-10.13Z"/>
  <path d="M29.49,178.73c-1.38,0-2.51-1.13-2.51-2.51v-16.85c0-1.38,1.13-2.51,2.51-2.51h9.78v-27.77c0-10.25,5.49-19.82,14.33-25l18.16-10.63c1.92-1.12,2.13-2.97,2.13-3.71s-.21-2.58-2.13-3.71l-18.16-10.63c-8.84-5.17-14.33-14.75-14.33-25v-27.53h-9.78c-1.38,0-2.51-1.13-2.51-2.51V3.51c0-1.38,1.13-2.51,2.51-2.51h120.75c1.38,0,2.51,1.13,2.51,2.51v16.85c0,1.38-1.13,2.51-2.51,2.51h-9.78v27.53c0,10.25-5.49,19.83-14.33,25l-18.17,10.64c-1.92,1.12-2.13,2.97-2.13,3.71,0,.74.2,2.58,2.13,3.71l18.17,10.63c8.84,5.17,14.33,14.75,14.33,25v27.77h9.78c1.38,0,2.51,1.13,2.51,2.51v16.85c0,1.38-1.13,2.51-2.51,2.51H29.49ZM32,173.71h115.73v-11.83h-42.07c-1.38,0-2.51-1.13-2.51-2.51s1.13-2.51,2.51-2.51h28.24l-27.96-27.96c-4.29-4.29-10-6.65-16.07-6.65s-11.79,2.36-16.08,6.65l-27.96,27.96h28.24c1.38,0,2.51,1.13,2.51,2.51s-1.13,2.51-2.51,2.51H32v11.83ZM89.86,117.23c7.42,0,14.39,2.88,19.62,8.12l25.96,25.95v-22.22c0-8.47-4.54-16.39-11.85-20.67l-18.17-10.63c-2.89-1.69-4.61-4.69-4.61-8.04s1.72-6.35,4.61-8.04l18.17-10.64c7.31-4.28,11.85-12.2,11.85-20.67v-27.53h-45.33l.09,1.08c.04.44.06.88.06,1.32,0,8.35-6.79,15.15-15.15,15.15s-15.15-6.79-15.15-15.15c0-.44.03-.88.06-1.32l.09-1.09h-15.85v27.53c0,8.47,4.54,16.39,11.85,20.67l18.16,10.63c2.89,1.69,4.61,4.7,4.61,8.04s-1.72,6.35-4.61,8.04l-18.16,10.63c-7.31,4.28-11.85,12.2-11.85,20.67v22.22l25.96-25.95c5.23-5.23,12.2-8.12,19.62-8.12ZM65.12,23.71c-.08.53-.13,1.05-.13,1.56,0,5.58,4.54,10.13,10.13,10.13s10.13-4.54,10.13-10.13c0-.5-.04-1.03-.13-1.56l-.13-.85h-19.74l-.13.84ZM32,17.85h115.73V6.02H32v11.83Z"/>
  <path d="M89.86,161.88c-.66,0-1.31-.27-1.77-.74-.47-.47-.74-1.11-.74-1.77s.27-1.31.74-1.77c.47-.47,1.11-.74,1.77-.74s1.31.27,1.77.74c.47.47.74,1.11.74,1.77s-.27,1.31-.73,1.77c-.47.47-1.11.74-1.78.74Z"/>
</svg>