<?xml version="1.0" encoding="UTF-8"?>
<svg id="Scalability" xmlns="http://www.w3.org/2000/svg" viewBox="0 0 179.73 179.73">
  <path d="M89.86,122.37c-14.35,0-26.03-9.73-26.03-21.69s11.68-21.69,26.03-21.69,26.03,9.73,26.03,21.69-11.68,21.69-26.03,21.69ZM89.86,84.25c-11.46,0-20.78,7.37-20.78,16.44s9.32,16.44,20.78,16.44,20.78-7.37,20.78-16.44-9.32-16.44-20.78-16.44Z"/>
  <path d="M76.53,167.13c-1.45,0-2.63-1.18-2.63-2.63,0-4.11-3.34-7.45-7.45-7.45-.7,0-1.36-.27-1.86-.77-.5-.5-.77-1.15-.77-1.85v-24.36c0-1.45,1.18-2.62,2.63-2.62s2.63,1.18,2.63,2.62v22.01c4.89,1.03,8.76,4.91,9.8,9.8h21.96c1.03-4.89,4.91-8.76,9.8-9.8v-22.01c0-1.45,1.18-2.62,2.63-2.62s2.63,1.18,2.63,2.62v24.36c0,1.45-1.18,2.62-2.63,2.62-4.11,0-7.45,3.34-7.45,7.45,0,1.45-1.18,2.63-2.63,2.63h-26.66Z"/>
  <path d="M51.38,180.27c-1.45,0-2.63-1.18-2.63-2.63v-95.86c0-1.45,1.18-2.62,2.63-2.62s2.63,1.18,2.63,2.62v93.23h71.71v-93.23c0-1.45,1.18-2.62,2.63-2.62s2.62,1.18,2.62,2.62v95.86c0,1.45-1.18,2.63-2.62,2.63H51.38Z"/>
  <path d="M137.63,97.46c-1.42,0-2.59-1.15-2.62-2.57-.03-1.45,1.12-2.65,2.57-2.68l7.53-.16c5.83,0,10.56-4.71,10.56-10.5s-4.71-10.42-10.5-10.42H34.57c-5.79,0-10.5,4.75-10.5,10.58s4.71,10.5,10.5,10.5h7.53c1.45,0,2.63,1.18,2.63,2.63s-1.18,2.62-2.63,2.62h-7.53c-8.69,0-15.75-7.07-15.75-15.75s7.07-15.83,15.75-15.83h110.6c8.69,0,15.75,7.03,15.75,15.67s-7.07,15.75-15.75,15.75l-7.49.16h-.05Z"/>
  <path d="M137.63,112.78c-1.45,0-2.62-1.18-2.62-2.62s1.18-2.62,2.62-2.62h37.85V33.85H4.25v73.68h37.84c1.45,0,2.63,1.18,2.63,2.62s-1.18,2.62-2.63,2.62H1.63c-1.45,0-2.63-1.18-2.63-2.62V13.23C-1,5.63,5.18-.55,12.77-.55h154.18c7.59,0,13.77,6.18,13.77,13.77v96.93c0,1.45-1.18,2.62-2.63,2.62h-40.47ZM175.47,28.6v-15.38c0-4.7-3.82-8.52-8.52-8.52H12.77c-4.7,0-8.52,3.82-8.52,8.52v15.38h171.22Z"/>
  <path d="M142.82,19.28c-1.45,0-2.63-1.18-2.63-2.63s1.18-2.62,2.63-2.62h12.19c1.45,0,2.63,1.18,2.63,2.62s-1.18,2.63-2.63,2.63h-12.19Z"/>
  <circle cx="28.37" cy="16.65" r="4.48"/>
</svg>