<?xml version="1.0" encoding="UTF-8"?>
<svg id="Scalability" xmlns="http://www.w3.org/2000/svg" viewBox="0 0 179.65 179.65">
  <path d="M23.16,178.65c-12.22,0-22.16-9.94-22.16-22.16,0-1.38,1.13-2.51,2.51-2.51h4.51v-75.91c0-10.14,7.92-18.69,18.02-19.46l.92-.07V3.51c0-1.38,1.13-2.51,2.51-2.51h120.7c1.38,0,2.51,1.12,2.51,2.51v55.03l.92.07c10.11.78,18.02,9.32,18.02,19.46v75.91h4.51c1.38,0,2.51,1.12,2.51,2.51,0,12.22-9.94,22.16-22.16,22.16H23.16ZM6.43,160.22c1.73,7.77,8.77,13.42,16.73,13.42h133.33c7.97,0,15-5.64,16.73-13.42l.27-1.22h-67.88c-1.38,0-2.51-1.12-2.51-2.51s1.13-2.51,2.51-2.51h42.05V34.09H31.98v119.9h42.05c1.38,0,2.51,1.12,2.51,2.51s-1.13,2.51-2.51,2.51H6.15l.27,1.22ZM152.69,153.98h13.93v-75.91c0-7.36-5.51-13.55-12.81-14.41l-1.12-.13v90.45ZM25.85,63.66c-7.31.86-12.81,7.05-12.81,14.41v75.91h13.93V63.53l-1.12.13ZM31.98,29.07h115.69V6.02H31.98v23.05Z"/>
  <path d="M48.31,20.05c-.66,0-1.31-.27-1.77-.74-.47-.46-.73-1.11-.73-1.77s.27-1.31.73-1.77c.47-.47,1.12-.74,1.78-.74s1.31.27,1.77.74c.47.47.74,1.12.74,1.77s-.27,1.3-.74,1.77c-.47.47-1.12.74-1.77.74Z"/>
  <path d="M67.02,20.05c-.66,0-1.31-.27-1.77-.74-.47-.47-.74-1.11-.74-1.77s.27-1.31.74-1.77c.47-.47,1.11-.74,1.77-.74s1.31.27,1.77.74c.47.47.74,1.11.74,1.77s-.27,1.31-.74,1.77c-.47.47-1.11.74-1.77.74Z"/>
  <path d="M85.73,20.05c-.66,0-1.3-.27-1.77-.74-.47-.47-.74-1.11-.74-1.77s.27-1.3.74-1.77c.47-.47,1.11-.74,1.77-.74s1.31.27,1.77.74c.47.46.73,1.11.73,1.77s-.27,1.31-.73,1.77c-.47.47-1.12.74-1.78.74Z"/>
  <path d="M104.45,20.05c-1.38,0-2.51-1.12-2.51-2.51s1.13-2.51,2.51-2.51h26.43c1.38,0,2.51,1.12,2.51,2.51s-1.13,2.51-2.51,2.51h-26.43Z"/>
  <path d="M113.69,93.04c-1.38,0-2.51-1.12-2.51-2.51s1.13-2.51,2.51-2.51h16.84c1.38,0,2.51,1.12,2.51,2.51s-1.13,2.51-2.51,2.51h-16.84Z"/>
  <path d="M113.69,73.39c-1.38,0-2.51-1.12-2.51-2.51s1.13-2.51,2.51-2.51h16.84c1.38,0,2.51,1.12,2.51,2.51s-1.13,2.51-2.51,2.51h-16.84Z"/>
  <path d="M113.69,53.74c-1.38,0-2.51-1.12-2.51-2.51s1.13-2.51,2.51-2.51h16.84c1.38,0,2.51,1.12,2.51,2.51s-1.13,2.51-2.51,2.51h-16.84Z"/>
  <path d="M49.12,115.49c-1.38,0-2.51-1.12-2.51-2.51s1.13-2.51,2.51-2.51h46.84c1.38,0,2.51,1.12,2.51,2.51s-1.13,2.51-2.51,2.51h-46.84Z"/>
  <path d="M49.12,132.34c-1.38,0-2.51-1.12-2.51-2.51s1.13-2.51,2.51-2.51h14.78c1.38,0,2.51,1.12,2.51,2.51s-1.13,2.51-2.51,2.51h-14.78Z"/>
  <path d="M113.03,115.49c-1.38,0-2.51-1.12-2.51-2.51s1.13-2.51,2.51-2.51h17.5c1.38,0,2.51,1.12,2.51,2.51s-1.13,2.51-2.51,2.51h-17.5Z"/>
  <path d="M79.25,132.34c-1.38,0-2.51-1.12-2.51-2.51s1.13-2.51,2.51-2.51h51.27c1.38,0,2.51,1.12,2.51,2.51s-1.13,2.51-2.51,2.51h-51.27Z"/>
  <path d="M89.83,159c-.66,0-1.3-.27-1.77-.74-.47-.47-.74-1.11-.74-1.77s.27-1.31.74-1.77c.47-.47,1.11-.74,1.77-.74s1.31.27,1.77.74c.47.47.74,1.11.74,1.77s-.27,1.31-.73,1.77c-.47.47-1.11.74-1.77.74Z"/>
  <path d="M71.58,98.65c-13.77,0-24.97-11.2-24.97-24.97s11.2-24.96,24.97-24.96,24.97,11.2,24.97,24.96-11.2,24.97-24.97,24.97ZM67.89,54.09c-9.42,1.77-16.25,10.01-16.25,19.6s6.84,17.83,16.25,19.6l1.19.22v-39.64l-1.18.22ZM74.09,93.51l1.19-.22c8.01-1.51,14.4-7.9,15.91-15.91l.22-1.18h-17.31v17.31ZM74.09,71.18h17.31l-.22-1.18c-1.51-8.01-7.9-14.4-15.91-15.91l-1.18-.22v17.31Z"/>
</svg>