<?xml version="1.0" encoding="UTF-8"?>
<svg id="Scalability" xmlns="http://www.w3.org/2000/svg" xmlns:xlink="http://www.w3.org/1999/xlink" viewBox="0 0 179.73 179.73">
  <defs>
    <style>
      .cls-1 {
        fill: none;
      }

      .cls-2 {
        clip-path: url(#clippath-3);
      }

      .cls-3 {
        clip-path: url(#clippath-2);
      }
    </style>
    <clipPath id="clippath-2">
      <rect class="cls-1" x=".37" y=".37" width="178.98" height="178.98"/>
    </clipPath>
    <clipPath id="clippath-3">
      <rect class="cls-1" x=".37" y=".37" width="178.98" height="178.98"/>
    </clipPath>
  </defs>
  <g class="cls-3">
    <path d="M4.25,102.52c-1.27,0-2.33-.95-2.48-2.21-.14-1.18-.25-2.37-.34-3.54-.1-1.37.93-2.58,2.3-2.68.07,0,.13,0,.2,0,1.29,0,2.39,1.01,2.48,2.31.08,1.1.19,2.23.32,3.34.16,1.37-.82,2.61-2.19,2.77-.09,0-.19.02-.29.02Z"/>
  </g>
  <path d="M4.23,82.54c-.1,0-.19,0-.29-.02-.66-.08-1.26-.41-1.67-.93-.42-.52-.6-1.18-.53-1.84.13-1.15.29-2.33.47-3.52.19-1.21,1.25-2.12,2.47-2.12.13,0,.26,0,.39.03,1.36.21,2.3,1.49,2.09,2.85-.17,1.11-.32,2.23-.45,3.32-.14,1.26-1.21,2.21-2.48,2.21Z"/>
  <path d="M8.79,63.09c-.29,0-.57-.05-.85-.15-1.29-.47-1.96-1.91-1.49-3.2.39-1.09.82-2.21,1.28-3.33.39-.94,1.29-1.55,2.32-1.55.32,0,.64.06.95.19.62.25,1.1.73,1.36,1.35s.26,1.29,0,1.91c-.42,1.04-.83,2.09-1.21,3.13-.36.99-1.3,1.65-2.35,1.65Z"/>
  <path d="M17.75,45.22c-.49,0-.96-.14-1.37-.41-.56-.37-.94-.93-1.07-1.58-.14-.65,0-1.32.36-1.88.65-.99,1.33-1.98,2.01-2.93.47-.65,1.23-1.04,2.03-1.04.52,0,1.02.16,1.45.47,1.12.8,1.38,2.37.58,3.49-.61.85-1.25,1.78-1.9,2.76-.46.71-1.25,1.13-2.09,1.13Z"/>
  <path d="M17.86,139.79c-.84,0-1.62-.42-2.09-1.12-.64-.97-1.28-1.97-1.9-3-.71-1.18-.33-2.72.85-3.43.39-.23.83-.36,1.29-.36.88,0,1.69.45,2.14,1.21.6.98,1.2,1.94,1.79,2.83.76,1.15.44,2.7-.71,3.46-.41.27-.89.41-1.37.41Z"/>
  <path d="M30.72,155.08c-.64,0-1.25-.24-1.71-.68-.85-.81-1.71-1.64-2.54-2.49-.47-.48-.72-1.11-.71-1.77,0-.67.27-1.29.75-1.76.47-.46,1.09-.72,1.75-.72s1.31.27,1.78.75c.8.82,1.61,1.61,2.4,2.35,1,.94,1.05,2.53.1,3.53-.48.51-1.12.79-1.82.79Z"/>
  <path d="M8.87,121.95c-1.05,0-1.99-.66-2.35-1.64-.4-1.1-.79-2.23-1.15-3.36-.42-1.31.31-2.72,1.62-3.14.25-.08.51-.12.76-.12,1.09,0,2.05.7,2.38,1.74.33,1.03.69,2.1,1.08,3.17.47,1.29-.2,2.73-1.49,3.2-.27.1-.56.15-.86.15Z"/>
  <path d="M168.09,56.74c-.98,0-1.87-.57-2.28-1.46-.47-1.04-.96-2.05-1.45-3.02-.3-.59-.35-1.27-.14-1.91.21-.63.65-1.15,1.25-1.45.35-.18.73-.27,1.12-.27.95,0,1.81.53,2.23,1.37.51,1.01,1.03,2.08,1.54,3.2.28.61.3,1.29.07,1.91-.23.63-.7,1.12-1.3,1.4-.33.15-.68.23-1.04.23Z"/>
  <path d="M46.59,17.93c-.89,0-1.72-.48-2.17-1.24-.69-1.19-.28-2.72.91-3.42,1.03-.59,2.07-1.17,3.1-1.72.36-.19.76-.29,1.17-.29.93,0,1.78.51,2.21,1.33.31.59.38,1.27.18,1.9-.2.64-.63,1.16-1.22,1.47-.98.52-1.97,1.07-2.93,1.62-.38.22-.81.34-1.25.34Z"/>
  <path d="M126.84,14.74c-.37,0-.74-.08-1.08-.25-1.01-.48-2.04-.95-3.06-1.39-1.26-.54-1.85-2.02-1.31-3.29.39-.92,1.3-1.51,2.3-1.51.34,0,.67.07.99.2,1.11.48,2.2.97,3.24,1.47,1.24.59,1.77,2.09,1.18,3.33-.41.86-1.3,1.42-2.26,1.42Z"/>
  <path d="M172.65,115.61c-.22,0-.45-.03-.67-.09-1.33-.37-2.11-1.75-1.74-3.08.29-1.02.57-2.11.84-3.24.27-1.13,1.27-1.93,2.43-1.93.19,0,.39.02.58.07,1.34.32,2.17,1.67,1.86,3.01-.26,1.12-.56,2.27-.89,3.44-.3,1.08-1.29,1.83-2.4,1.83Z"/>
  <g class="cls-2">
    <path d="M64.91,9.99c-1.09,0-2.08-.73-2.39-1.78-.4-1.32.35-2.72,1.67-3.11,1.18-.35,2.33-.67,3.42-.95.21-.05.42-.08.62-.08,1.14,0,2.13.77,2.42,1.88.34,1.33-.46,2.7-1.8,3.04-1.1.28-2.19.59-3.23.9-.24.07-.48.11-.72.11Z"/>
    <path d="M84.58,6.5c-1.32,0-2.41-1.03-2.49-2.35-.04-.67.18-1.31.62-1.81.44-.5,1.05-.8,1.72-.83,1.15-.07,2.34-.12,3.55-.14h0c1.4,0,2.52,1.1,2.54,2.45.01.67-.23,1.3-.7,1.78-.46.48-1.09.75-1.75.77-1.12.02-2.24.07-3.35.13h-.15Z"/>
  </g>
  <path d="M107.93,8.28c-.18,0-.35-.02-.53-.06-1.08-.23-2.19-.45-3.29-.64-.66-.11-1.23-.48-1.62-1.02-.38-.55-.53-1.21-.42-1.87.21-1.2,1.24-2.07,2.46-2.07.14,0,.29.01.43.04,1.19.21,2.37.43,3.49.68.65.14,1.21.53,1.57,1.09.36.56.48,1.23.34,1.88-.25,1.14-1.27,1.97-2.44,1.97Z"/>
  <path d="M174.19,75.76c-1.19,0-2.22-.85-2.45-2.02-.21-1.08-.45-2.19-.71-3.28-.15-.65-.05-1.32.3-1.89.35-.57.9-.97,1.55-1.12.19-.05.39-.07.58-.07,1.16,0,2.16.79,2.43,1.92.28,1.17.53,2.34.75,3.47.13.66,0,1.32-.38,1.87s-.94.93-1.59,1.06c-.16.03-.32.05-.49.05Z"/>
  <path d="M143.74,25.4c-.57,0-1.12-.19-1.57-.55-.84-.68-1.74-1.38-2.65-2.05-1.11-.82-1.34-2.39-.51-3.5.48-.64,1.21-1.01,2.01-1.01.54,0,1.05.17,1.49.49.95.71,1.89,1.44,2.81,2.17,1.07.87,1.24,2.44.38,3.52-.48.59-1.19.93-1.95.93Z"/>
  <path d="M138.35,163.46c-.83,0-1.6-.41-2.06-1.09-.78-1.14-.49-2.7.65-3.47.91-.63,1.83-1.28,2.72-1.95.44-.33.95-.5,1.49-.5.8,0,1.53.37,2.01,1,.4.54.57,1.19.47,1.85-.1.66-.44,1.24-.98,1.64-.93.7-1.9,1.39-2.89,2.07-.42.29-.91.44-1.41.44Z"/>
  <path d="M153.41,150.34c-.62,0-1.22-.23-1.68-.65-.5-.45-.78-1.06-.82-1.73-.03-.67.2-1.3.65-1.8.75-.82,1.49-1.67,2.21-2.52.48-.57,1.18-.89,1.92-.89.58,0,1.15.21,1.6.58,1.05.89,1.19,2.47.31,3.52-.76.9-1.55,1.8-2.34,2.67-.47.52-1.15.82-1.85.82Z"/>
  <path d="M157.74,39.66c-.78,0-1.5-.35-1.98-.97-.68-.88-1.39-1.75-2.11-2.6-.43-.51-.64-1.16-.58-1.82.06-.67.37-1.27.88-1.7.45-.38,1.02-.59,1.61-.59.74,0,1.44.32,1.91.89.77.91,1.52,1.84,2.23,2.76.85,1.09.65,2.66-.44,3.51-.44.34-.97.52-1.53.52Z"/>
  <path d="M165.06,134.1c-.43,0-.83-.11-1.21-.31-.59-.32-1.01-.86-1.19-1.5-.18-.64-.11-1.32.22-1.9.54-.97,1.07-1.97,1.57-2.97.43-.85,1.28-1.38,2.24-1.38.39,0,.77.09,1.12.27,1.23.62,1.73,2.12,1.11,3.35-.53,1.05-1.09,2.11-1.66,3.15-.44.79-1.28,1.29-2.19,1.29Z"/>
  <path d="M120.68,172.77c-1.03,0-1.96-.64-2.33-1.6-.49-1.29.15-2.74,1.43-3.23,1.01-.39,2.06-.82,3.1-1.27.32-.14.65-.21.99-.21,1,0,1.9.59,2.29,1.51.55,1.26-.04,2.74-1.3,3.29-1.06.46-2.17.91-3.28,1.34-.29.11-.59.17-.9.17Z"/>
  <path d="M84.65,178.35c-1.22-.07-2.41-.16-3.54-.27-.67-.06-1.26-.38-1.69-.9-.42-.51-.62-1.17-.56-1.83.12-1.29,1.19-2.26,2.49-2.26.08,0,.16,0,.24.01,1.06.1,2.19.19,3.34.26.67.04,1.28.33,1.72.83.44.5.67,1.14.63,1.8-.07,1.32-1.17,2.36-2.49,2.36h-.14Z"/>
  <path d="M65.11,174.92c-.24,0-.48-.04-.72-.11-1.08-.32-2.22-.69-3.38-1.08-1.3-.45-2-1.87-1.55-3.17.35-1.01,1.3-1.69,2.36-1.69.27,0,.55.05.81.14,1.08.37,2.15.71,3.19,1.02.64.19,1.17.62,1.48,1.21.32.59.39,1.26.2,1.9-.31,1.05-1.3,1.79-2.39,1.79Z"/>
  <path d="M101.32,177.72c-1.24,0-2.31-.93-2.47-2.17-.09-.66.08-1.32.49-1.85s.99-.87,1.65-.96c1.07-.14,2.19-.32,3.31-.51.15-.03.29-.04.43-.04,1.21,0,2.25.87,2.46,2.07.24,1.36-.67,2.66-2.03,2.9-1.17.21-2.36.39-3.51.54-.11.02-.23.02-.34.02Z"/>
  <path d="M30.59,29.9c-.69,0-1.34-.28-1.82-.78-.46-.48-.7-1.12-.68-1.79.02-.67.3-1.29.78-1.75.85-.81,1.74-1.61,2.63-2.39.46-.4,1.04-.62,1.64-.62.72,0,1.41.31,1.88.86.44.5.66,1.15.61,1.81-.04.67-.35,1.27-.85,1.71-.84.73-1.67,1.49-2.48,2.26-.47.44-1.07.68-1.72.68Z"/>
  <path d="M46.75,167.01c-.44,0-.87-.12-1.24-.33-1.02-.59-2.04-1.21-3.05-1.84-.56-.36-.96-.91-1.1-1.56-.15-.65-.03-1.32.33-1.88.46-.73,1.25-1.16,2.12-1.16.47,0,.93.13,1.33.39.97.61,1.94,1.2,2.87,1.74.58.33.99.87,1.16,1.52s.08,1.32-.25,1.9c-.45.77-1.28,1.25-2.17,1.25Z"/>
  <path d="M175.64,95.87c-.67-.03-1.29-.31-1.74-.8-.45-.49-.69-1.13-.66-1.79.04-1.11.07-2.24.07-3.35v-.18c0-1.38,1.11-2.5,2.49-2.51,1.38,0,2.5,1.12,2.51,2.49v.21c0,1.18-.02,2.37-.07,3.54-.05,1.35-1.15,2.4-2.5,2.4h-.1Z"/>
  <path d="M89.78,97.83c-1.38,0-2.5-1.12-2.5-2.5v-1.93l-.76-.19c-5.58-1.37-9.48-6.06-9.48-11.4,0-1.38,1.12-2.5,2.5-2.5s2.5,1.12,2.5,2.5c0,3.75,3.47,6.8,7.74,6.8s7.74-3.05,7.74-6.8-3.47-6.8-7.74-6.8c-3.41,0-6.62-1.24-9.03-3.48-2.39-2.23-3.71-5.18-3.71-8.31,0-5.34,3.9-10.03,9.48-11.4l.76-.19v-2.76c0-1.38,1.12-2.5,2.5-2.5s2.5,1.12,2.5,2.5v2.76l.76.19c5.58,1.37,9.48,6.06,9.48,11.4,0,1.38-1.12,2.5-2.5,2.5s-2.5-1.12-2.5-2.5c0-3.75-3.47-6.8-7.74-6.8s-7.74,3.05-7.74,6.8,3.47,6.8,7.74,6.8c7.03,0,12.74,5.29,12.74,11.79,0,5.34-3.9,10.03-9.48,11.4l-.76.19v1.93c0,1.38-1.12,2.5-2.5,2.5Z"/>
  <path d="M89.74,153.58c-9.39,0-17.32-7.02-18.45-16.33l-.06-.5-.44-.25c-2.37-1.35-3.84-3.87-3.84-6.59v-15.76l-.5-.29c-14.56-8.33-23.6-23.93-23.6-40.7,0-9.75,2.97-19.11,8.58-27.05,5.49-7.76,13.08-13.61,21.95-16.91.28-.1.57-.16.87-.16,1.04,0,1.98.65,2.34,1.63.48,1.29-.18,2.73-1.47,3.21-16.31,6.08-27.28,21.86-27.28,39.28,0,15.42,8.44,29.55,22.01,36.88l.22.12h39.33l.22-.12c13.58-7.33,22.01-21.46,22.01-36.88,0-17.42-10.96-33.2-27.27-39.28-1.29-.48-1.95-1.92-1.47-3.21.36-.97,1.31-1.63,2.34-1.63.3,0,.59.05.87.16,8.87,3.31,16.46,9.15,21.95,16.91,5.61,7.94,8.58,17.29,8.58,27.04,0,16.78-9.04,32.38-23.6,40.7l-.5.29v15.76c0,2.71-1.47,5.24-3.84,6.59l-.44.25-.06.5c-1.13,9.31-9.07,16.33-18.45,16.33ZM76.68,138.76c1.68,5.78,7.04,9.82,13.06,9.82s11.38-4.04,13.06-9.82l.37-1.28h-26.86l.37,1.28ZM71.94,129.91c0,1.42,1.16,2.58,2.58,2.58h30.44c1.42,0,2.57-1.16,2.57-2.58v-14.75h-35.59v14.75Z"/>
  <path d="M89.74,31.27c-.66,0-1.3-.27-1.77-.73-.47-.46-.73-1.11-.73-1.77s.27-1.3.73-1.77c.46-.46,1.11-.73,1.76-.73s1.3.27,1.77.73c.47.47.73,1.11.73,1.77s-.27,1.3-.73,1.77c-.46.47-1.11.73-1.77.73Z"/>
</svg>