<?xml version="1.0" encoding="UTF-8"?>
<svg id="Scalability" xmlns="http://www.w3.org/2000/svg" viewBox="0 0 179.73 179.73">
  <path d="M165.72,180.73c-1.15,0-2.17-.73-2.53-1.82-.23-.68-.18-1.4.14-2.04.05-.1.11-.2.17-.29H5.83c-1.47,0-2.67-1.2-2.67-2.67V16.24c-.43.28-.94.45-1.48.45-.29,0-.58-.05-.85-.14-.68-.23-1.22-.71-1.54-1.35-.32-.64-.37-1.37-.14-2.04L3.29.82c.37-1.09,1.39-1.82,2.53-1.82s2.17.73,2.54,1.82l4.15,12.33c.23.68.18,1.4-.14,2.04-.32.64-.87,1.12-1.54,1.35-.28.09-.56.14-.85.14-.54,0-1.05-.16-1.48-.45v149.54l24.68-33.4c.5-.68,1.31-1.08,2.15-1.08h26.55l28.71-38.84c.5-.68,1.31-1.08,2.15-1.08h26.55l28.71-38.84c.5-.68,1.31-1.08,2.15-1.08h27.9c1.47,0,2.67,1.2,2.67,2.67s-1.2,2.67-2.67,2.67h-26.55l-28.71,38.84c-.5.68-1.31,1.08-2.15,1.08h-26.55l-28.71,38.84c-.5.68-1.31,1.08-2.15,1.08h-26.55l-25.56,34.58h152.36c-.06-.09-.12-.19-.17-.29-.32-.64-.37-1.37-.14-2.04.37-1.09,1.39-1.82,2.53-1.82.29,0,.58.05.85.14l12.33,4.15c1.09.37,1.82,1.38,1.82,2.53s-.73,2.17-1.82,2.53l-12.33,4.15c-.28.09-.56.14-.85.14Z"/>
  <path d="M25.38,96.72c-1.47,0-2.67-1.2-2.67-2.67s1.2-2.67,2.67-2.67h7.37c1.47,0,2.67,1.2,2.67,2.67s-1.2,2.67-2.67,2.67h-7.37Z"/>
  <path d="M45.59,96.72c-1.47,0-2.67-1.2-2.67-2.67s1.2-2.67,2.67-2.67h7.37c1.47,0,2.67,1.2,2.67,2.67s-1.2,2.67-2.67,2.67h-7.37Z"/>
  <path d="M65.8,96.72c-1.47,0-2.67-1.2-2.67-2.67s1.2-2.67,2.67-2.67h7.37c1.47,0,2.67,1.2,2.67,2.67s-1.2,2.67-2.67,2.67h-7.37Z"/>
  <path d="M101.09,67.48c-1.47,0-2.67-1.2-2.67-2.67V28.68c0-1.47,1.2-2.67,2.67-2.67h9.83l-26.48-20.92-26.48,20.92h9.83c1.47,0,2.67,1.2,2.67,2.67v36.12c0,1.47-1.2,2.67-2.67,2.67s-2.67-1.2-2.67-2.67V31.36h-14.85c-1.14,0-2.15-.72-2.53-1.8-.37-1.07-.02-2.27.87-2.98L82.78-.42c.47-.37,1.06-.58,1.66-.58s1.19.21,1.66.58l34.18,27.01c.89.71,1.24,1.9.87,2.98-.37,1.07-1.39,1.8-2.53,1.8h-14.85v33.45c0,1.47-1.2,2.67-2.67,2.67Z"/>
  <path d="M151.19,156.06c-1.47,0-2.67-1.2-2.67-2.67v-4.56c-7.1-1.28-12.35-7.47-12.35-14.77,0-1.47,1.2-2.67,2.67-2.67s2.67,1.2,2.67,2.67c0,5.33,4.34,9.67,9.67,9.67,2.67,0,5.27-1.1,7.12-3.02,1.74-1.8,2.64-4.13,2.55-6.55-.21-5.72-4.6-8.09-9.68-10.83-5.01-2.7-11.24-6.07-11.27-13.68-.01-2.84,1.23-5.73,3.4-7.91,1.48-1.49,3.27-2.52,5.21-3.03v-4.66c0-1.47,1.2-2.67,2.67-2.67s2.67,1.2,2.67,2.67v4.64c5.03,1.22,8.6,5.7,8.6,10.95,0,1.47-1.2,2.67-2.67,2.67s-2.67-1.2-2.67-2.67c0-3.27-2.66-5.93-5.93-5.93-1.47,0-2.93.64-4.09,1.81-1.16,1.17-1.85,2.7-1.85,4.11.02,4.44,3.75,6.45,8.46,9,5.42,2.93,12.16,6.57,12.48,15.34.14,3.89-1.29,7.6-4.05,10.46-2.21,2.3-5.13,3.84-8.29,4.41v4.56c0,1.47-1.2,2.67-2.67,2.67Z"/>
</svg>