<?xml version="1.0" encoding="UTF-8"?>
<svg id="Scalability" xmlns="http://www.w3.org/2000/svg" viewBox="0 0 179.73 179.73">
  <path d="M92.32,171.44c-1.38,0-2.51-1.13-2.51-2.51s1.13-2.51,2.51-2.51h54.71v-67.52l-12.14-12.14-.65.33c-5.87,2.98-12.19,4.49-18.8,4.49H50.5c-1.38,0-2.51-1.13-2.51-2.51s1.13-2.51,2.51-2.51h44.86l-2.78-1.83c-6.22-4.1-11.24-9.79-14.52-16.46l-.27-.56H6.02v98.71h54.71c1.38,0,2.51,1.13,2.51,2.51s-1.13,2.51-2.51,2.51H3.51c-1.38,0-2.51-1.13-2.51-2.51V34.31c0-1.38,1.13-2.51,2.51-2.51h74.44l.28-.55c7.14-14.17,21.4-22.97,37.22-22.97,22.97,0,41.65,18.68,41.65,41.65,0,6.62-1.52,12.95-4.5,18.82l-.33.65,22.93,22.93c2.3,2.3,3.55,5.37,3.54,8.65-.02,3.27-1.3,6.34-3.6,8.65-2.31,2.31-5.38,3.58-8.65,3.6-3.32,0-6.36-1.26-8.65-3.54l-5.78-5.78v65.01c0,1.38-1.13,2.51-2.51,2.51h-57.22ZM148.87,74.74c-2.45,3.29-5.36,6.2-8.65,8.64l-.93.69,22.08,22.08c1.33,1.33,3.12,2.07,5.04,2.07,1.97,0,3.79-.77,5.16-2.13,1.37-1.37,2.12-3.19,2.13-5.12,0-1.93-.73-3.73-2.07-5.07l-22.07-22.07-.69.93ZM115.44,13.3c-20.2,0-36.63,16.43-36.63,36.63s16.43,36.63,36.63,36.63,36.63-16.43,36.63-36.63-16.43-36.63-36.63-36.63ZM6.02,62.69h69.75l-.37-1.28c-1.07-3.72-1.61-7.58-1.61-11.48s.58-7.99,1.71-11.83l.38-1.28H6.02v25.87ZM76.52,171.44c-.66,0-1.31-.27-1.78-.74-.47-.47-.73-1.11-.73-1.77s.27-1.31.73-1.78c.47-.47,1.12-.74,1.78-.74s1.31.27,1.77.74c.47.47.74,1.12.74,1.78s-.27,1.31-.74,1.77-1.11.74-1.77.74ZM50.5,150.55c-1.38,0-2.51-1.13-2.51-2.51s1.13-2.51,2.51-2.51h80.03c1.38,0,2.51,1.13,2.51,2.51s-1.13,2.51-2.51,2.51H50.5ZM22.52,150.55c-1.38,0-2.51-1.13-2.51-2.51s1.13-2.51,2.51-2.51h10.31c1.38,0,2.51,1.13,2.51,2.51s-1.13,2.51-2.51,2.51h-10.31ZM50.5,130.9c-1.38,0-2.51-1.13-2.51-2.51s1.13-2.51,2.51-2.51h80.03c1.38,0,2.51,1.13,2.51,2.51s-1.13,2.51-2.51,2.51H50.5ZM22.52,130.9c-1.38,0-2.51-1.13-2.51-2.51s1.13-2.51,2.51-2.51h10.31c1.38,0,2.51,1.13,2.51,2.51s-1.13,2.51-2.51,2.51h-10.31ZM50.5,111.24c-1.38,0-2.51-1.13-2.51-2.51s1.13-2.51,2.51-2.51h80.03c1.38,0,2.51,1.13,2.51,2.51s-1.13,2.51-2.51,2.51H50.5ZM22.52,111.24c-1.38,0-2.51-1.13-2.51-2.51s1.13-2.51,2.51-2.51h10.31c1.38,0,2.51,1.13,2.51,2.51s-1.13,2.51-2.51,2.51h-10.31ZM22.52,91.58c-1.38,0-2.51-1.13-2.51-2.51s1.13-2.51,2.51-2.51h10.31c1.38,0,2.51,1.13,2.51,2.51s-1.13,2.51-2.51,2.51h-10.31ZM115.44,75.88c-14.31,0-25.95-11.64-25.95-25.95s11.64-25.95,25.95-25.95,25.95,11.64,25.95,25.95-11.64,25.95-25.95,25.95ZM115.44,29.01c-11.54,0-20.93,9.39-20.93,20.92s9.39,20.93,20.93,20.93,20.92-9.39,20.92-20.93-9.39-20.92-20.92-20.92ZM59.26,52.07c-.66,0-1.31-.27-1.77-.73-.47-.47-.74-1.11-.74-1.77s.27-1.31.74-1.78c.46-.46,1.11-.73,1.77-.73s1.31.27,1.78.73c.46.46.73,1.11.73,1.78s-.27,1.31-.73,1.78c-.47.46-1.12.73-1.78.73ZM40.89,52.07c-.66,0-1.31-.27-1.77-.73-.47-.47-.74-1.12-.74-1.78s.27-1.31.74-1.78c.46-.47,1.11-.73,1.77-.73s1.31.27,1.78.73c.47.47.73,1.11.73,1.78s-.27,1.31-.73,1.77c-.47.47-1.11.73-1.78.73ZM22.52,52.07c-.66,0-1.31-.27-1.78-.73-.47-.47-.73-1.12-.73-1.78s.27-1.31.74-1.78c.46-.46,1.11-.73,1.77-.73s1.31.27,1.77.73c.47.47.74,1.12.74,1.78s-.27,1.31-.74,1.78c-.46.46-1.11.73-1.77.73Z"/>
</svg>