<?xml version="1.0" encoding="UTF-8"?>
<svg id="Scalability" xmlns="http://www.w3.org/2000/svg" xmlns:xlink="http://www.w3.org/1999/xlink" viewBox="0 0 179.71 179.71">
  <defs>
    <style>
      .cls-1 {
        fill: none;
      }

      .cls-2 {
        clip-path: url(#clippath-1);
      }
    </style>
    <clipPath id="clippath-1">
      <rect class="cls-1" y="9.36" width="179.71" height="160.99"/>
    </clipPath>
  </defs>
  <g class="cls-2">
    <path d="M14.41,169.29c-3.57-.02-6.93-1.42-9.46-3.94-5.24-5.24-5.27-13.73-.08-18.93l31.17-31.17-.39-.67c-5.13-8.67-7.84-18.59-7.84-28.68,0-13.79,5.05-27.08,14.21-37.43l.62-.71-12.25-12.25-.67.41c-2.14,1.3-4.6,1.99-7.12,1.99-7.58,0-13.74-6.16-13.74-13.74s6.16-13.74,13.74-13.74,13.74,6.17,13.74,13.74c0,2.52-.69,4.98-1.99,7.12l-.41.67,12.25,12.25.7-.62c10.34-9.16,23.64-14.21,37.43-14.21s27.08,5.05,37.43,14.21l.7.62,12.25-12.25-.41-.67c-1.3-2.14-1.99-4.61-1.99-7.12,0-7.58,6.16-13.74,13.74-13.74s13.74,6.17,13.74,13.74c0,2.51-.69,4.98-1.99,7.12l-.41.67,20.58,20.58c.98.98.98,2.57,0,3.55-.47.47-1.1.73-1.77.73s-1.3-.26-1.78-.73l-20.58-20.58-.67.41c-2.14,1.3-4.6,1.99-7.12,1.99s-4.98-.69-7.12-1.99l-.67-.41-12.25,12.25.62.7c9.16,10.34,14.21,23.64,14.21,37.43,0,9.31-2.31,18.55-6.69,26.7-.44.82-1.29,1.32-2.22,1.32-.42,0-.81-.1-1.18-.3-.59-.32-1.02-.84-1.22-1.49-.19-.64-.12-1.32.19-1.91,3.99-7.43,6.1-15.84,6.1-24.33,0-12.41-4.5-24.4-12.66-33.78l-.7-.81-7.84,7.85.59.7c6.15,7.28,9.53,16.53,9.53,26.04,0,22.29-18.13,40.42-40.42,40.42s-40.42-18.13-40.42-40.42,18.13-40.42,40.42-40.42c9.51,0,18.76,3.39,26.04,9.53l.7.59,7.85-7.85-.81-.7c-9.37-8.16-21.37-12.66-33.78-12.66-28.4,0-51.5,23.1-51.5,51.5s23.1,51.5,51.5,51.5c8.49,0,16.9-2.11,24.33-6.1.37-.2.77-.3,1.18-.3.93,0,1.78.51,2.22,1.32.66,1.22.2,2.74-1.02,3.4-8.16,4.38-17.39,6.69-26.7,6.69-10.06,0-19.95-2.69-28.6-7.79l-.67-.39-31.19,31.19c-2.5,2.5-5.83,3.87-9.39,3.87h-.07ZM8.43,149.97c-1.57,1.57-2.42,3.67-2.41,5.9.02,2.23.9,4.34,2.48,5.92,1.58,1.58,3.69,2.46,5.94,2.47,2.25,0,4.34-.85,5.89-2.4l19.38-19.38-11.9-11.9-19.38,19.38ZM31.36,127.04l11.9,11.9,7.55-7.55-.9-.69c-3.86-2.98-7.33-6.44-10.31-10.3l-.69-.9-7.55,7.54ZM56.89,63.56c-5.13,6.29-7.96,14.22-7.96,22.33,0,19.52,15.88,35.4,35.4,35.4s35.4-15.88,35.4-35.4c0-8.11-2.83-16.04-7.96-22.33l-.7-.86-15.4,15.4.41.67c1.3,2.14,1.99,4.6,1.99,7.12,0,7.58-6.16,13.74-13.74,13.74s-13.74-6.17-13.74-13.74c0-2.52.69-4.98,1.99-7.12l.41-.67-15.4-15.4-.7.86ZM84.33,77.18c-4.81,0-8.72,3.91-8.72,8.72s3.91,8.72,8.72,8.72,8.72-3.91,8.72-8.72-3.91-8.72-8.72-8.72ZM84.33,72.15c2.52,0,4.98.69,7.12,1.99l.67.41,15.4-15.4-.86-.7c-6.29-5.13-14.22-7.96-22.33-7.96s-16.04,2.83-22.33,7.96l-.86.7,15.4,15.4.67-.41c2.14-1.3,4.6-1.99,7.12-1.99ZM146.06,15.45c-4.81,0-8.72,3.91-8.72,8.72s3.91,8.72,8.72,8.72,8.72-3.91,8.72-8.72-3.91-8.72-8.72-8.72ZM22.6,15.45c-4.81,0-8.72,3.91-8.72,8.72s3.91,8.72,8.72,8.72,8.72-3.91,8.72-8.72-3.91-8.72-8.72-8.72Z"/>
  </g>
  <path d="M122.52,126.6c-.66,0-1.31-.27-1.77-.74-.47-.47-.74-1.11-.74-1.77s.27-1.31.73-1.77c.47-.47,1.11-.74,1.77-.74s1.31.27,1.78.74c.47.47.73,1.11.73,1.77s-.27,1.31-.73,1.77c-.47.47-1.11.74-1.78.74Z"/>
</svg>