<?xml version="1.0" encoding="UTF-8"?>
<svg id="Scalability" xmlns="http://www.w3.org/2000/svg" viewBox="0 0 179.71 179.71">
  <path d="M33.93,151.51c-1.1,0-2.07-.71-2.39-1.76l-10.92-34.9h-8.52c-6.12,0-11.1-4.98-11.1-11.1v-27.75c0-6.12,4.98-11.1,11.1-11.1h28.76l69.7-32.21c.33-.15.69-.23,1.05-.23.48,0,.95.14,1.35.4.73.46,1.16,1.25,1.16,2.12v39.14c0,1.38-1.13,2.51-2.51,2.51s-2.51-1.13-2.51-2.51v-35.21l-65.18,30.12v41.72l65.18,30.09v-35.13c0-1.38,1.13-2.51,2.51-2.51s2.51,1.13,2.51,2.51v39.05c0,.86-.43,1.65-1.16,2.12-.4.26-.87.39-1.35.39-.36,0-.72-.08-1.05-.23l-65.06-30.04,9.78,31.26c.24.76.1,1.59-.37,2.23-.47.64-1.23,1.02-2.02,1.02h-18.95ZM35.77,146.49h13.69l-9.9-31.64h-13.69l9.9,31.64ZM12.1,69.92c-3.35,0-6.08,2.73-6.08,6.08v27.75c0,3.35,2.73,6.08,6.08,6.08h26.81v-39.91H12.1Z"/>
  <path d="M127.06,92.37c-1.38,0-2.51-1.13-2.51-2.51s1.13-2.51,2.51-2.51h11.23c1.38,0,2.51,1.13,2.51,2.51s-1.13,2.51-2.51,2.51h-11.23Z"/>
  <path d="M164.97,103.6c-7.58,0-13.74-6.17-13.74-13.74s6.16-13.74,13.74-13.74,13.74,6.17,13.74,13.74-6.16,13.74-13.74,13.74ZM164.97,81.14c-4.81,0-8.72,3.91-8.72,8.72s3.91,8.72,8.72,8.72,8.72-3.91,8.72-8.72-3.91-8.72-8.72-8.72Z"/>
  <path d="M127.06,36.21c-1.38,0-2.51-1.13-2.51-2.51s1.13-2.51,2.51-2.51h11.23c1.38,0,2.51,1.13,2.51,2.51s-1.13,2.51-2.51,2.51h-11.23Z"/>
  <path d="M164.97,47.44c-7.58,0-13.74-6.17-13.74-13.74s6.16-13.74,13.74-13.74,13.74,6.17,13.74,13.74-6.16,13.74-13.74,13.74ZM164.97,24.97c-4.81,0-8.72,3.91-8.72,8.72s3.91,8.72,8.72,8.72,8.72-3.91,8.72-8.72-3.91-8.72-8.72-8.72Z"/>
  <path d="M127.06,148.53c-1.38,0-2.51-1.13-2.51-2.51s1.13-2.51,2.51-2.51h11.23c1.38,0,2.51,1.13,2.51,2.51s-1.13,2.51-2.51,2.51h-11.23Z"/>
  <path d="M164.97,159.76c-7.58,0-13.74-6.17-13.74-13.74s6.16-13.74,13.74-13.74,13.74,6.17,13.74,13.74-6.16,13.74-13.74,13.74ZM164.97,137.3c-4.81,0-8.72,3.91-8.72,8.72s3.91,8.72,8.72,8.72,8.72-3.91,8.72-8.72-3.91-8.72-8.72-8.72Z"/>
  <path d="M56.32,102c-.67,0-1.3-.26-1.78-.73-.98-.98-.98-2.57,0-3.55l12.01-12.01c.48-.47,1.11-.74,1.78-.74s1.31.27,1.77.74l8.46,8.46,12.71-12.71-2-.27c-1.23-.17-2.16-1.24-2.16-2.48,0-1.38,1.13-2.51,2.51-2.51h7.95c1.38,0,2.51,1.13,2.51,2.51v7.96c0,1.38-1.13,2.51-2.51,2.51-1.25,0-2.31-.93-2.48-2.16l-.27-2-14.49,14.48c-.47.47-1.1.74-1.77.74s-1.3-.26-1.77-.74l-8.46-8.46-10.23,10.24c-.47.47-1.1.73-1.78.73Z"/>
  <path d="M111.62,92.41c-.66,0-1.31-.27-1.77-.74-.47-.47-.74-1.11-.74-1.77s.27-1.31.73-1.77c.47-.47,1.11-.74,1.78-.74s1.31.27,1.77.73c.47.47.74,1.12.74,1.78s-.27,1.31-.74,1.77c-.47.47-1.11.74-1.77.74Z"/>
</svg>