<?xml version="1.0" encoding="UTF-8"?>
<svg id="Scalability" xmlns="http://www.w3.org/2000/svg" viewBox="0 0 179.73 179.73">
  <path d="M124.2,180.53c-21.04,0-36.91-7.23-36.91-16.82v-37.07c0-9.59,15.87-16.82,36.91-16.82s36.91,7.23,36.91,16.82v37.07c0,9.59-15.87,16.82-36.91,16.82ZM92.44,163.71c0,5.51,13.04,11.66,31.75,11.66s31.75-6.14,31.75-11.66v-9.55c-6.5,5-18.35,8.04-31.75,8.04s-25.26-3.04-31.75-8.04v9.55ZM92.44,145.38c0,5.51,13.04,11.66,31.75,11.66s31.75-6.14,31.75-11.66v-9.85c-6.5,5-18.35,8.04-31.75,8.04s-25.26-3.04-31.75-8.04v9.85ZM124.2,114.98c-18.71,0-31.75,6.14-31.75,11.66v.11c0,5.51,13.04,11.66,31.75,11.66s31.75-6.14,31.75-11.66v-.11c0-5.51-13.04-11.66-31.75-11.66Z"/>
  <path d="M2.45,36.13c-1.42,0-2.58-1.16-2.58-2.58s1.16-2.58,2.58-2.58h6.96c1.42,0,2.58,1.16,2.58,2.58s-1.16,2.58-2.58,2.58H2.45Z"/>
  <path d="M21.53,36.13c-1.42,0-2.58-1.16-2.58-2.58s1.16-2.58,2.58-2.58h6.96c1.42,0,2.58,1.16,2.58,2.58s-1.16,2.58-2.58,2.58h-6.96Z"/>
  <path d="M40.6,36.13c-1.42,0-2.58-1.16-2.58-2.58s1.16-2.58,2.58-2.58h6.96c1.42,0,2.58,1.16,2.58,2.58s-1.16,2.58-2.58,2.58h-6.96Z"/>
  <path d="M59.68,36.13c-1.42,0-2.58-1.16-2.58-2.58s1.16-2.58,2.58-2.58h6.96c1.42,0,2.58,1.16,2.58,2.58s-1.16,2.58-2.58,2.58h-6.96Z"/>
  <path d="M78.75,36.13c-1.42,0-2.58-1.16-2.58-2.58s1.16-2.58,2.58-2.58h6.96c1.42,0,2.58,1.16,2.58,2.58s-1.16,2.58-2.58,2.58h-6.96Z"/>
  <path d="M97.83,36.13c-1.42,0-2.58-1.16-2.58-2.58s1.16-2.58,2.58-2.58h6.96c1.42,0,2.58,1.16,2.58,2.58s-1.16,2.58-2.58,2.58h-6.96Z"/>
  <path d="M34.14,177.56c-.35,0-.7-.07-1.03-.21-1.31-.57-1.91-2.09-1.34-3.39l36.56-84.26c.41-.94,1.34-1.55,2.37-1.55h48.2c3.42-.08,6.86-2.19,8.94-5.51l29.4-46.78c.43-.68,1.16-1.13,1.97-1.2.08,0,.14,0,.21,0,.74,0,1.44.31,1.93.86l12.59,14.03-8.29-44.74-44.74,8.29,18.74,7.16c.74.28,1.32.91,1.55,1.67.23.76.09,1.6-.38,2.25l-27.82,38.55c-.48.67-1.27,1.07-2.09,1.07h-49.62c-4.18,0-7.8,1.75-9.92,4.79-.04.06-.1.13-.16.2L3.54,124.56c-.49.58-1.21.9-1.96.9-.61,0-1.21-.22-1.67-.62-1.08-.92-1.21-2.56-.29-3.64l47.61-55.73c3.05-4.33,8.19-6.86,14.04-6.86h48.31s25.09-34.76,25.09-34.76l-24.18-9.23c-1.08-.41-1.75-1.5-1.65-2.65.1-1.15.97-2.09,2.1-2.3L167.24-.76c.16-.03.31-.04.47-.04.52,0,1.03.16,1.46.45.56.38.95.99,1.08,1.66l10.44,56.31c.21,1.13-.36,2.28-1.4,2.79-.35.17-.75.26-1.14.26h0c-.73,0-1.43-.31-1.92-.86l-16.43-18.32-27.58,43.88c-2.99,4.76-8.07,7.8-13.25,7.92h-46.57s-35.89,82.7-35.89,82.7c-.41.94-1.34,1.55-2.37,1.55Z"/>
</svg>