<?xml version="1.0" encoding="UTF-8"?>
<svg id="Scalability" xmlns="http://www.w3.org/2000/svg" viewBox="0 0 179.73 179.73">
  <path d="M89.86,75.2c-13.5,0-24.48-13.21-24.48-29.46s10.98-29.46,24.48-29.46,24.48,13.21,24.48,29.46-10.98,29.46-24.48,29.46ZM89.86,21.54c-10.6,0-19.23,10.86-19.23,24.21s8.63,24.2,19.23,24.2,19.23-10.86,19.23-24.2-8.63-24.21-19.23-24.21Z"/>
  <path d="M151.7,73.03c-.16,0-.32-.01-.48-.04-1.43-.27-2.37-1.65-2.1-3.07,1.1-5.77,5.58-10.2,11.3-11.27v-25.8c-5.74-1.07-10.23-5.56-11.3-11.3h-25.55c-1.45,0-2.63-1.18-2.63-2.63s1.18-2.62,2.63-2.62h27.93c1.45,0,2.63,1.18,2.63,2.62,0,4.92,4,8.92,8.92,8.92,1.45,0,2.63,1.18,2.63,2.62v30.57c0,1.45-1.18,2.62-2.63,2.62-4.28,0-7.97,3.05-8.76,7.24-.23,1.24-1.32,2.14-2.58,2.14Z"/>
  <path d="M28.24,75.2c-1.45,0-2.63-1.18-2.63-2.62,0-4.92-4-8.92-8.92-8.92-1.45,0-2.63-1.18-2.63-2.62v-30.57c0-1.45,1.18-2.62,2.63-2.62,4.92,0,8.92-4,8.92-8.92,0-1.45,1.18-2.62,2.63-2.62h27.93c1.45,0,2.63,1.18,2.63,2.62s-1.18,2.63-2.63,2.63h-25.55c-1.07,5.74-5.56,10.23-11.3,11.3v25.8c5.74,1.07,10.23,5.56,11.3,11.3h25.55c1.45,0,2.63,1.18,2.63,2.63s-1.18,2.62-2.63,2.62h-27.93Z"/>
  <path d="M1.63,92.49c-1.45,0-2.63-1.18-2.63-2.63V1.63C-1,.18.18-1,1.63-1h176.48c1.45,0,2.63,1.18,2.63,2.62v68.78c0,1.45-1.18,2.62-2.63,2.62s-2.63-1.18-2.63-2.62V4.25H4.25v82.99h108.63c1.45,0,2.63,1.18,2.63,2.62s-1.18,2.63-2.63,2.63H1.63Z"/>
  <path d="M110.92,180.73c-.7,0-1.36-.27-1.86-.77s-.77-1.16-.77-1.86.27-1.36.77-1.86l55.22-55.22c.49-.49,1.16-.77,1.85-.77.12,0,.24,0,.36.03.8.11,1.53.6,1.93,1.31l7.05,12.46v-51.73h-51.73l12.46,7.05c.71.4,1.2,1.12,1.31,1.93.11.81-.17,1.64-.75,2.21l-70.71,70.71c-.5.5-1.15.77-1.86.77s-1.36-.27-1.86-.77c-.5-.5-.77-1.16-.77-1.86s.27-1.36.77-1.86l68.26-68.26-18.15-10.26c-1.04-.59-1.55-1.8-1.25-2.95.3-1.15,1.35-1.96,2.54-1.96h64.33c1.45,0,2.63,1.18,2.63,2.62v64.33c0,1.19-.81,2.24-1.96,2.54-.22.06-.44.09-.67.09-.94,0-1.82-.51-2.29-1.33l-10.26-18.15-52.78,52.78c-.5.5-1.15.77-1.86.77Z"/>
  <path d="M25.87,180.73c-.7,0-1.36-.27-1.86-.77-.5-.5-.77-1.16-.77-1.86,0-.7.27-1.36.77-1.86l32.58-32.58c.5-.5,1.16-.77,1.86-.77s1.36.27,1.86.77c1.02,1.02,1.02,2.69,0,3.71l-32.58,32.58c-.5.5-1.16.77-1.86.77Z"/>
  <path d="M31.63,147.81c-.7,0-1.36-.27-1.86-.77-1.02-1.02-1.02-2.69,0-3.71l38.72-38.72c.5-.5,1.15-.77,1.86-.77s1.36.27,1.86.77c1.02,1.02,1.02,2.69,0,3.71l-38.72,38.72c-.5.5-1.16.77-1.86.77Z"/>
</svg>