<?xml version="1.0" encoding="UTF-8"?>
<svg id="Scalability" xmlns="http://www.w3.org/2000/svg" xmlns:xlink="http://www.w3.org/1999/xlink" viewBox="0 0 179.65 179.65">
  <defs>
    <style>
      .cls-1 {
        fill: none;
      }

      .cls-2 {
        clip-path: url(#clippath-1);
      }
    </style>
    <clipPath id="clippath-1">
      <rect class="cls-1" x="0" width="179.65" height="179.65"/>
    </clipPath>
  </defs>
  <g class="cls-2">
    <path d="M78.6,63.56c-1.38,0-2.51-1.13-2.51-2.51v-26.96h-5.21c-.93,0-1.78-.51-2.21-1.33-.44-.82-.39-1.81.13-2.58L87.75,2.11c.47-.69,1.24-1.11,2.08-1.11s1.61.41,2.08,1.1l18.95,28.07c.52.77.57,1.76.14,2.58-.44.82-1.29,1.33-2.22,1.33h-5.21v26.96c0,1.38-1.13,2.51-2.51,2.51h-22.46ZM75.6,29.07h3c1.38,0,2.51,1.12,2.51,2.51v26.96h17.44v-26.96c0-1.38,1.13-2.51,2.51-2.51h3l-14.23-21.08-14.23,21.08Z"/>
    <path d="M132.63,135.84c-1.38,0-2.51-1.12-2.51-2.51v-42.4h-7.32c-.92,0-1.76-.5-2.2-1.3-.44-.8-.41-1.78.08-2.55l26.67-42.11c.46-.73,1.25-1.17,2.12-1.17s1.66.44,2.12,1.17l26.67,42.11c.49.77.52,1.75.08,2.55-.44.8-1.28,1.3-2.2,1.3h-7.32v42.4c0,1.38-1.13,2.51-2.51,2.51h-33.68ZM127.37,85.91h5.27c1.38,0,2.51,1.12,2.51,2.51v42.4h28.67v-42.4c0-1.38,1.13-2.51,2.51-2.51h5.27l-22.11-34.91-22.11,34.91Z"/>
    <path d="M19.65,178.65c-1.38,0-2.51-1.12-2.51-2.51v-66.26H3.51c-.92,0-1.76-.5-2.2-1.3-.44-.8-.41-1.78.08-2.56L43.5,40.05c.46-.73,1.25-1.16,2.12-1.16s1.65.43,2.12,1.16l42.11,65.97c.49.77.53,1.75.08,2.55-.44.8-1.28,1.3-2.2,1.3h-13.63v16.09c0,1.38-1.13,2.51-2.51,2.51s-2.51-1.13-2.51-2.51v-18.6c0-1.38,1.13-2.51,2.51-2.51h11.56l-37.53-58.79L8.09,104.86h11.56c1.38,0,2.51,1.12,2.51,2.51v66.26h46.91v-16.09c0-1.38,1.13-2.51,2.51-2.51s2.51,1.12,2.51,2.51v18.6c0,1.38-1.13,2.51-2.51,2.51H19.65Z"/>
  </g>
  <path d="M71.58,144.26c-.66,0-1.31-.27-1.77-.74-.47-.47-.74-1.11-.74-1.77s.27-1.31.73-1.77c.47-.47,1.11-.74,1.77-.74s1.31.27,1.77.74c.47.47.74,1.12.74,1.77s-.27,1.31-.74,1.77c-.47.47-1.11.74-1.77.74Z"/>
</svg>