<?xml version="1.0" encoding="UTF-8"?>
<svg id="Scalability" xmlns="http://www.w3.org/2000/svg" viewBox="0 0 179.71 179.71">
  <path d="M146.64,178.59c-17.62,0-31.95-14.33-31.95-31.95,0-4.05.75-8,2.24-11.74l.33-.84-47.21-24.75-.5.76c-6.91,10.64-18.59,16.99-31.22,16.99-20.52,0-37.21-16.69-37.21-37.21,0-7.07,1.99-13.95,5.76-19.9,3.67-5.78,8.84-10.44,14.97-13.47.35-.17.72-.26,1.11-.26.96,0,1.82.53,2.25,1.39.3.6.34,1.28.13,1.91-.21.63-.66,1.15-1.26,1.44-11.07,5.47-17.95,16.54-17.95,28.88,0,7.34,2.55,14.53,7.17,20.24l.96,1.18.71-1.35c2.81-5.37,7.44-9.65,13.03-12.04l1.28-.55-.93-1.04c-2.2-2.46-3.41-5.62-3.41-8.91v-2.72c0-7.38,6.01-13.39,13.39-13.39s13.39,6.01,13.39,13.39v2.72c0,3.29-1.21,6.46-3.41,8.91l-.93,1.04,1.28.55c5.6,2.39,10.22,6.67,13.03,12.04l.7,1.35.96-1.18c4.63-5.71,7.18-12.9,7.18-20.24,0-12.34-6.88-23.41-17.95-28.88-.6-.3-1.05-.81-1.26-1.44-.21-.63-.17-1.31.13-1.91.43-.86,1.29-1.4,2.25-1.4.39,0,.76.09,1.11.26,6,2.97,11.1,7.51,14.76,13.14l.5.76,47.2-24.75-.33-.84c-1.48-3.74-2.24-7.69-2.24-11.74,0-17.62,14.33-31.95,31.95-31.95s31.95,14.33,31.95,31.95-14.33,31.95-31.95,31.95c-10.66,0-20.58-5.31-26.55-14.2l-.5-.75-47.2,24.75.35.84c1.86,4.51,2.8,9.28,2.8,14.18s-.95,9.67-2.81,14.18l-.35.84,47.21,24.75.5-.75c5.96-8.89,15.89-14.2,26.55-14.2,17.62,0,31.95,14.33,31.95,31.95s-14.33,31.95-31.95,31.95ZM146.64,156.28c-7.14,0-13.55,4.25-16.33,10.82l-.31.73.63.47c4.67,3.45,10.2,5.28,16,5.28s11.33-1.83,16-5.28l.63-.47-.31-.73c-2.78-6.57-9.19-10.82-16.33-10.82ZM146.64,130.5c6.47,0,11.74,5.27,11.74,11.74v2.31c0,2.68-.89,5.21-2.56,7.31l-.79,1,1.15.54c4.35,2.02,7.89,5.28,10.25,9.42l.75,1.32.92-1.21c3.59-4.72,5.49-10.35,5.49-16.27,0-14.85-12.08-26.94-26.94-26.94s-26.94,12.08-26.94,26.94c0,5.93,1.9,11.55,5.49,16.27l.92,1.21.75-1.32c2.32-4.08,5.96-7.43,10.25-9.42l1.15-.54-.79-1c-1.68-2.1-2.56-4.63-2.56-7.31v-2.31c0-6.47,5.27-11.74,11.74-11.74ZM146.64,135.51c-3.71,0-6.73,3.02-6.73,6.73v2.31c0,3.71,3.02,6.73,6.73,6.73s6.73-3.02,6.73-6.73v-2.31c0-3.71-3.02-6.73-6.73-6.73ZM38.33,100.77c-8.69,0-16.66,5.43-19.85,13.5l-.28.7.6.46c5.65,4.33,12.41,6.61,19.52,6.61s13.87-2.29,19.52-6.61l.6-.46-.28-.7c-3.19-8.08-11.16-13.5-19.85-13.5ZM38.33,76.29c-4.62,0-8.38,3.76-8.38,8.38v2.72c0,4.62,3.76,8.38,8.38,8.38s8.38-3.76,8.38-8.38v-2.72c0-4.62-3.76-8.38-8.38-8.38ZM146.64,42.72c-7.14,0-13.55,4.25-16.33,10.82l-.31.73.63.47c4.67,3.45,10.2,5.28,16,5.28s11.33-1.83,16-5.28l.63-.47-.31-.73c-2.78-6.57-9.19-10.82-16.33-10.82ZM146.64,6.14c-14.85,0-26.94,12.08-26.94,26.94,0,5.93,1.9,11.55,5.49,16.27l.92,1.21.75-1.32c2.32-4.08,5.96-7.43,10.25-9.42l1.15-.54-.79-1c-1.68-2.1-2.56-4.63-2.56-7.31v-2.31c0-6.47,5.27-11.74,11.74-11.74s11.74,5.27,11.74,11.74v2.31c0,2.68-.89,5.21-2.56,7.31l-.79,1,1.15.54c4.35,2.02,7.89,5.28,10.25,9.42l.75,1.32.92-1.21c3.59-4.72,5.49-10.35,5.49-16.27,0-14.85-12.08-26.94-26.94-26.94ZM146.64,21.94c-3.71,0-6.73,3.02-6.73,6.73v2.31c0,3.71,3.02,6.73,6.73,6.73s6.73-3.02,6.73-6.73v-2.31c0-3.71-3.02-6.73-6.73-6.73Z"/>
  <path d="M38.33,57.66c-.66,0-1.3-.27-1.77-.73-.47-.47-.74-1.11-.74-1.77s.27-1.3.73-1.77c.47-.47,1.11-.74,1.77-.74s1.3.27,1.77.73c.47.46.73,1.11.73,1.77s-.27,1.31-.73,1.77c-.47.47-1.11.74-1.77.74Z"/>
</svg>