<?xml version="1.0" encoding="UTF-8"?>
<svg id="Scalability" xmlns="http://www.w3.org/2000/svg" viewBox="0 0 179.73 179.73">
  <path d="M89.86,112.4c-12.43,0-22.53-10.11-22.53-22.54s10.11-22.53,22.53-22.53,22.54,10.11,22.54,22.53-10.11,22.54-22.54,22.54ZM89.86,72.35c-9.66,0-17.52,7.86-17.52,17.52s7.86,17.52,17.52,17.52,17.52-7.86,17.52-17.52-7.86-17.52-17.52-17.52Z"/>
  <path d="M89.91,178.69c-7.41,0-13.44-6.03-13.44-13.45,0-6.18,4.19-11.54,10.18-13.04l.76-.19v-15.49l-.93-.07c-10.05-.73-19.41-4.6-27.07-11.21l-.7-.61-20.38,20.38.5.69c2.56,3.56,3.91,7.76,3.91,12.13,0,11.49-9.35,20.84-20.84,20.84S1.04,169.34,1.04,157.85s9.35-20.84,20.84-20.84c4.41,0,8.63,1.37,12.2,3.96l.69.5,20.37-20.37-.61-.7c-7.34-8.49-11.39-19.33-11.39-30.53s4.03-22.02,11.36-30.5l.61-.7L22.91,26.46l-.67.41c-2.18,1.34-4.69,2.04-7.26,2.04-7.69,0-13.94-6.25-13.94-13.94S7.29,1.04,14.98,1.04s13.94,6.25,13.94,13.94c0,2.57-.71,5.08-2.05,7.26l-.41.67,32.19,32.2.7-.61c8.48-7.33,19.31-11.36,30.5-11.36s22.02,4.03,30.5,11.36l.7.61,23.04-23.04-.46-.68c-1.93-2.86-2.95-6.2-2.95-9.66,0-9.54,7.76-17.3,17.3-17.3s17.3,7.76,17.3,17.3-7.76,17.3-17.3,17.3c-3.46,0-6.8-1.02-9.66-2.95l-.68-.46-23.04,23.04.61.7c6.62,7.67,10.51,17.04,11.24,27.11l.07.93h21.99l.23-.69c1.39-4.21,5.29-7.03,9.71-7.03,5.64,0,10.23,4.59,10.23,10.23s-4.59,10.23-10.23,10.23c-4.42,0-8.33-2.83-9.71-7.03l-.23-.69h-22l-.07.93c-.4,5.5-1.76,10.83-4.04,15.84-.41.89-1.3,1.47-2.29,1.47-.36,0-.71-.08-1.04-.23-.61-.28-1.08-.78-1.31-1.4s-.21-1.31.07-1.92c2.47-5.43,3.72-11.23,3.72-17.24,0-23-18.71-41.7-41.7-41.7s-41.7,18.71-41.7,41.7,18.71,41.7,41.7,41.7c6.01,0,11.82-1.25,17.24-3.72.33-.15.68-.23,1.04-.23.98,0,1.88.58,2.28,1.47.28.61.3,1.29.07,1.92-.24.63-.7,1.13-1.31,1.4-5.02,2.28-10.34,3.64-15.84,4.04l-.93.07v15.49l.76.19c5.99,1.5,10.18,6.86,10.18,13.04,0,7.41-6.03,13.45-13.44,13.45ZM89.91,156.82c-4.65,0-8.43,3.78-8.43,8.43s3.78,8.43,8.43,8.43,8.43-3.78,8.43-8.43-3.78-8.43-8.43-8.43ZM21.88,142.02c-8.73,0-15.82,7.1-15.82,15.82s7.1,15.83,15.82,15.83,15.82-7.1,15.82-15.83-7.1-15.82-15.82-15.82ZM168.46,84.7c-2.87,0-5.21,2.34-5.21,5.21s2.34,5.21,5.21,5.21,5.21-2.34,5.21-5.21-2.34-5.21-5.21-5.21ZM157.99,9.45c-6.77,0-12.29,5.51-12.29,12.29s5.51,12.29,12.29,12.29,12.29-5.51,12.29-12.29-5.51-12.29-12.29-12.29ZM14.98,6.06c-4.92,0-8.92,4-8.92,8.92s4,8.92,8.92,8.92,8.92-4,8.92-8.92-4-8.92-8.92-8.92Z"/>
  <path d="M121.09,123.6c-.66,0-1.31-.27-1.77-.74-.47-.47-.74-1.11-.74-1.77s.27-1.31.74-1.77c.47-.47,1.11-.74,1.77-.74s1.31.27,1.77.74c.47.47.74,1.11.74,1.77s-.27,1.31-.74,1.77c-.47.47-1.11.74-1.77.74Z"/>
</svg>