<?xml version="1.0" encoding="UTF-8"?>
<svg id="Scalability" xmlns="http://www.w3.org/2000/svg" viewBox="0 0 179.73 179.73">
  <path d="M3.51,162.23c-1.38,0-2.51-1.13-2.51-2.51V20.01c0-1.38,1.13-2.51,2.51-2.51h20.35c1.38,0,2.51,1.13,2.51,2.51s-1.13,2.51-2.51,2.51H6.02v117.78h69.76c3.62,0,7.07,1.16,9.96,3.34l1.6,1.21V34.09c0-6.38-5.19-11.57-11.57-11.57h-20.35c-1.38,0-2.51-1.13-2.51-2.51s1.13-2.51,2.51-2.51h20.35c5.27,0,10.11,2.43,13.28,6.66l.8,1.07.8-1.07c3.17-4.23,8.01-6.66,13.28-6.66h72.27c1.38,0,2.51,1.13,2.51,2.51v139.71c0,1.38-1.13,2.51-2.51,2.51H3.51ZM103.94,145.31c-6.09,0-11.16,4.76-11.54,10.83l-.07,1.06h81.37v-11.89h-69.76ZM6.02,157.21h81.37l-.07-1.06c-.39-6.07-5.46-10.83-11.54-10.83H6.02v11.89ZM103.94,22.52c-6.38,0-11.57,5.19-11.57,11.57v110.76l1.6-1.21c2.9-2.19,6.34-3.34,9.96-3.34h69.76V22.52h-69.76Z"/>
  <path d="M122.59,123.3c-1.38,0-2.51-1.13-2.51-2.51s1.13-2.51,2.51-2.51h20.77c1.38,0,2.51,1.13,2.51,2.51s-1.13,2.51-2.51,2.51h-20.77Z"/>
  <path d="M109.11,106.46c-1.38,0-2.51-1.13-2.51-2.51s1.13-2.51,2.51-2.51h47.73c1.38,0,2.51,1.13,2.51,2.51s-1.13,2.51-2.51,2.51h-47.73Z"/>
  <path d="M36.28,123.3c-1.38,0-2.51-1.13-2.51-2.51s1.13-2.51,2.51-2.51h20.77c1.38,0,2.51,1.13,2.51,2.51s-1.13,2.51-2.51,2.51h-20.77Z"/>
  <path d="M22.8,106.46c-1.38,0-2.51-1.13-2.51-2.51s1.13-2.51,2.51-2.51h47.73c1.38,0,2.51,1.13,2.51,2.51s-1.13,2.51-2.51,2.51H22.8Z"/>
  <path d="M22.8,89.62c-1.38,0-2.51-1.13-2.51-2.51s1.13-2.51,2.51-2.51h47.73c1.38,0,2.51,1.13,2.51,2.51s-1.13,2.51-2.51,2.51H22.8Z"/>
  <path d="M22.8,72c-.67,0-1.3-.26-1.78-.74-.47-.47-.74-1.1-.74-1.77,0-.67.26-1.3.74-1.78l14.13-14.13c.47-.47,1.1-.74,1.77-.74s1.3.26,1.77.74l11.75,11.75,13.67-13.67-1.69-.44c-1.1-.29-1.88-1.29-1.88-2.43,0-1.38,1.13-2.51,2.51-2.51h7.47c1.38,0,2.51,1.13,2.51,2.51v7.47c0,1.38-1.13,2.51-2.51,2.51-1.14,0-2.14-.77-2.43-1.88l-.44-1.69-15.45,15.45c-.47.47-1.1.73-1.77.73s-1.3-.26-1.78-.74l-11.75-11.75-12.35,12.35c-.47.47-1.1.74-1.77.74Z"/>
  <path d="M39.65,22.52c-.66,0-1.31-.27-1.77-.74-.47-.47-.74-1.12-.74-1.77s.27-1.31.74-1.77c.47-.47,1.11-.74,1.77-.74s1.31.27,1.77.74c.47.47.74,1.12.74,1.78s-.27,1.31-.73,1.77c-.47.47-1.11.74-1.78.74Z"/>
  <path d="M135.9,89.62c-13.77,0-24.96-11.2-24.96-24.96s11.2-24.96,24.96-24.96,24.96,11.2,24.96,24.96-11.2,24.96-24.96,24.96ZM138.41,64.65c0,.67-.26,1.3-.74,1.78l-14.01,14.01.99.68c3.32,2.28,7.21,3.48,11.24,3.48,11,0,19.94-8.95,19.94-19.94,0-9.58-6.83-17.82-16.25-19.59l-1.19-.22v19.82ZM132.2,45.06c-9.42,1.77-16.25,10.01-16.25,19.59,0,4.03,1.2,7.92,3.48,11.24l.68.99,13.27-13.27v-18.78l-1.19.22Z"/>
</svg>