<?xml version="1.0" encoding="UTF-8"?>
<svg id="Scalability" xmlns="http://www.w3.org/2000/svg" viewBox="0 0 179.73 179.73">
  <path d="M164.67,178.35c-6.32,0-11.78-4.29-13.29-10.42l-.19-.76h-14.03c-.66,0-1.3-.27-1.77-.73l-13.02-13.02-.65.32c-9.96,4.99-20.69,7.52-31.88,7.52-13.38,0-26.43-3.72-37.73-10.77-1.17-.73-1.52-2.27-.8-3.44.46-.74,1.25-1.17,2.12-1.17.46,0,.92.13,1.32.38,10.51,6.55,22.64,10.02,35.09,10.02,9.58,0,18.83-2.01,27.5-5.97l1.31-.6-7.33-7.33c-.97-.97-.97-2.56,0-3.53.47-.47,1.1-.73,1.77-.73s1.29.26,1.77.73l8.4,8.4.67-.4c19.02-11.42,31.07-31.39,32.23-53.43l.06-1.05h-65.33l-36.87,36.87c-.47.47-1.1.73-1.77.73s-1.29-.26-1.76-.73c-.47-.47-.73-1.1-.73-1.76s.26-1.29.73-1.77l36.87-36.87V23.49l-1.05.06c-8.33.44-16.39,2.42-23.95,5.87l-1.31.6,7.33,7.33c.97.97.97,2.56,0,3.53-.47.47-1.1.73-1.77.73s-1.29-.26-1.77-.73l-8.4-8.4-.67.4c-19.94,11.97-32.33,33.8-32.33,56.98,0,12.45,3.46,24.58,10.02,35.09.73,1.17.37,2.71-.8,3.44-.4.25-.85.38-1.32.38-.87,0-1.66-.44-2.12-1.18-7.05-11.3-10.77-24.35-10.77-37.73,0-24.58,12.45-47.14,33.29-60.35l1.06-.67-11.29-11.29h-12.99l-.19.76c-1.51,6.14-6.97,10.42-13.29,10.42-7.54,0-13.68-6.14-13.68-13.68S7.51,1.37,15.05,1.37c6.32,0,11.78,4.29,13.29,10.42l.19.76h14.03c.66,0,1.3.27,1.77.73l13.02,13.02.65-.32c9.96-4.99,20.69-7.52,31.88-7.52s21.92,2.53,31.88,7.52l.65.32,13.02-13.02c.46-.46,1.11-.73,1.77-.73h14.03l.19-.76c1.51-6.14,6.97-10.42,13.29-10.42,7.54,0,13.68,6.14,13.68,13.68s-6.14,13.68-13.68,13.68c-6.32,0-11.78-4.29-13.29-10.42l-.19-.76h-12.99l-11.29,11.29,1.06.67c20.85,13.21,33.29,35.77,33.29,60.35s-12.45,47.14-33.29,60.35l-1.06.67,11.29,11.29h12.99l.19-.76c1.51-6.14,6.97-10.42,13.29-10.42,7.54,0,13.68,6.14,13.68,13.68s-6.14,13.68-13.68,13.68ZM164.67,155.98c-4.79,0-8.69,3.9-8.69,8.69s3.9,8.69,8.69,8.69,8.69-3.9,8.69-8.69-3.9-8.69-8.69-8.69ZM92.36,87.37h63.87l-.06-1.05c-1.17-22.04-13.22-42.01-32.23-53.43l-.67-.4-8.4,8.4c-.47.47-1.1.73-1.77.73s-1.29-.26-1.77-.73c-.97-.97-.97-2.56,0-3.53l7.33-7.33-1.31-.6c-7.57-3.46-15.62-5.43-23.95-5.87l-1.05-.06v63.87ZM164.67,6.36c-4.79,0-8.69,3.9-8.69,8.69s3.9,8.69,8.69,8.69,8.69-3.9,8.69-8.69-3.9-8.69-8.69-8.69ZM15.05,6.36c-4.79,0-8.69,3.9-8.69,8.69s3.9,8.69,8.69,8.69,8.69-3.9,8.69-8.69-3.9-8.69-8.69-8.69Z"/>
  <path d="M107.8,61.6c-1.38,0-2.5-1.12-2.5-2.5s1.12-2.5,2.5-2.5h22.37c1.38,0,2.5,1.12,2.5,2.5s-1.12,2.5-2.5,2.5h-22.37Z"/>
  <path d="M107.8,76.98c-1.38,0-2.5-1.12-2.5-2.5s1.12-2.5,2.5-2.5h22.37c1.38,0,2.5,1.12,2.5,2.5s-1.12,2.5-2.5,2.5h-22.37Z"/>
  <path d="M42.83,74.18c-1.38,0-2.5-1.12-2.5-2.5s1.12-2.5,2.5-2.5h25.17c1.38,0,2.5,1.12,2.5,2.5s-1.12,2.5-2.5,2.5h-25.17Z"/>
  <path d="M42.83,89.56c-1.38,0-2.5-1.12-2.5-2.5s1.12-2.5,2.5-2.5h25.17c1.38,0,2.5,1.12,2.5,2.5s-1.12,2.5-2.5,2.5h-25.17Z"/>
  <path d="M95.22,112.34c-1.38,0-2.5-1.12-2.5-2.5s1.12-2.5,2.5-2.5h25.17c1.38,0,2.5,1.12,2.5,2.5s-1.12,2.5-2.5,2.5h-25.17Z"/>
  <path d="M95.22,127.72c-1.38,0-2.5-1.12-2.5-2.5s1.12-2.5,2.5-2.5h25.17c1.38,0,2.5,1.12,2.5,2.5s-1.12,2.5-2.5,2.5h-25.17Z"/>
  <path d="M41.14,141.08c-.66,0-1.3-.27-1.77-.73-.46-.46-.73-1.1-.73-1.76s.27-1.3.73-1.76c.47-.47,1.11-.73,1.77-.73s1.3.27,1.76.73c.46.46.73,1.11.73,1.76s-.27,1.3-.73,1.76c-.47.47-1.11.73-1.76.73Z"/>
</svg>