<?xml version="1.0" encoding="UTF-8"?>
<svg id="Scalability" xmlns="http://www.w3.org/2000/svg" viewBox="0 0 179.73 179.73">
  <path d="M89.86,156.83c-1.39,0-2.52-1.13-2.52-2.52v-4.56c-6.97-1.21-12.13-7.25-12.13-14.42,0-1.39,1.13-2.52,2.52-2.52s2.52,1.13,2.52,2.52c0,5.29,4.31,9.6,9.6,9.6,2.65,0,5.23-1.09,7.07-3,1.73-1.79,2.63-4.1,2.54-6.51-.21-5.68-4.54-8.02-9.56-10.73-5.15-2.78-10.98-5.93-11.01-13.34-.01-2.76,1.2-5.57,3.31-7.69,1.46-1.47,3.23-2.48,5.14-2.96v-4.67c0-1.39,1.13-2.52,2.52-2.52s2.52,1.13,2.52,2.52v4.65c4.87,1.16,8.45,5.6,8.45,10.66,0,1.39-1.13,2.52-2.52,2.52s-2.52-1.13-2.52-2.52c0-3.27-2.66-5.93-5.93-5.93-1.48,0-2.93.64-4.09,1.81-1.16,1.17-1.85,2.71-1.85,4.12.02,4.42,3.7,6.41,8.37,8.93,5.3,2.86,11.89,6.42,12.2,14.97.14,3.79-1.26,7.41-3.94,10.19-2.18,2.27-5.06,3.78-8.17,4.32v4.56c0,1.39-1.13,2.52-2.52,2.52Z"/>
  <path d="M89.86,180.73c-48.02,0-87.09-39.07-87.09-87.09,0-26.58,11.91-51.36,32.67-68,.45-.36,1.01-.55,1.58-.55.77,0,1.49.34,1.97.94.42.52.61,1.18.54,1.85-.07.67-.4,1.27-.93,1.69-11.93,9.56-20.9,22.11-25.99,36.36h34.37V1.52c0-1.39,1.13-2.52,2.52-2.52s2.52,1.13,2.52,2.52v64.41h31.99l7.63-17.27h-5.99c-.85,0-1.64-.43-2.11-1.14-.47-.72-.54-1.61-.19-2.39l8.29-18.77h-5.99c-.85,0-1.64-.43-2.11-1.14-.47-.72-.54-1.61-.19-2.39L93.19.5c.4-.91,1.31-1.5,2.3-1.5.35,0,.69.07,1.02.22.61.27,1.09.77,1.33,1.39.24.63.23,1.31-.05,1.93l-8.29,18.77h5.99c.85,0,1.64.43,2.11,1.14.47.72.54,1.61.19,2.39l-8.29,18.77h5.99c.85,0,1.64.43,2.11,1.14.47.72.54,1.61.19,2.39l-9.86,22.31c-.4.91-1.31,1.5-2.3,1.5H10.98c-2.1,7.35-3.17,14.98-3.17,22.67,0,45.25,36.81,82.05,82.05,82.05s82.05-36.81,82.05-82.05c0-7.65-1.09-15.27-3.25-22.67h-10.12c-1.39,0-2.52-1.13-2.52-2.52s1.13-2.52,2.52-2.52h8.48c-8.91-24.55-28.87-43.53-53.66-50.93-.64-.19-1.18-.62-1.5-1.21s-.39-1.27-.2-1.92c.32-1.06,1.31-1.8,2.41-1.8.24,0,.49.04.72.11,17.59,5.25,33.41,16.25,44.55,30.97,11.51,15.21,17.6,33.37,17.6,52.5,0,48.02-39.07,87.09-87.09,87.09Z"/>
  <path d="M123.84,70.96c-1.39,0-2.52-1.13-2.52-2.52s1.13-2.52,2.52-2.52h8.67c1.39,0,2.52,1.13,2.52,2.52s-1.13,2.52-2.52,2.52h-8.67Z"/>
  <path d="M106.5,70.96c-1.39,0-2.52-1.13-2.52-2.52s1.13-2.52,2.52-2.52h8.67c1.39,0,2.52,1.13,2.52,2.52s-1.13,2.52-2.52,2.52h-8.67Z"/>
  <path d="M141.19,70.96c-1.39,0-2.52-1.13-2.52-2.52s1.13-2.52,2.52-2.52h8.67c1.39,0,2.52,1.13,2.52,2.52s-1.13,2.52-2.52,2.52h-8.67Z"/>
</svg>