<?xml version="1.0" encoding="UTF-8"?>
<svg id="Scalability" xmlns="http://www.w3.org/2000/svg" xmlns:xlink="http://www.w3.org/1999/xlink" viewBox="0 0 179.71 179.71">
  <defs>
    <style>
      .cls-1 {
        fill: none;
      }

      .cls-2 {
        clip-path: url(#clippath-1);
      }
    </style>
    <clipPath id="clippath-1">
      <rect class="cls-1" x=".44" y=".44" width="178.84" height="178.84"/>
    </clipPath>
  </defs>
  <g class="cls-2">
    <path d="M40.94,93.16c-.67,0-1.29-.26-1.76-.73l-9.88-9.88c-.47-.47-.73-1.1-.73-1.76s.26-1.29.73-1.76l33.41-33.41c.47-.47,1.1-.73,1.76-.73s1.29.26,1.76.73l12.87,12.87,13.46-13.46-5.4-5.4c-.63-.63-.87-1.55-.65-2.41.23-.86.91-1.53,1.76-1.76l33.18-8.89c.21-.06.43-.09.65-.09.66,0,1.29.26,1.76.73.63.63.88,1.55.65,2.41l-8.89,33.18c-.23.86-.91,1.53-1.76,1.76-.21.06-.43.08-.64.08-.67,0-1.29-.26-1.76-.73l-5.49-5.49-25.11,25.11c-.46.46-1.11.73-1.76.73s-1.29-.26-1.76-.73l-12.87-12.87-21.77,21.77c-.47.47-1.1.73-1.76.73ZM34.58,80.79l6.36,6.35,21.77-21.77c.46-.46,1.11-.73,1.76-.73s1.29.26,1.76.73l12.87,12.87,25.11-25.11c.47-.47,1.1-.73,1.76-.73s1.29.26,1.76.73l4.2,4.2,6.66-24.84-24.84,6.66,4.11,4.1c.97.97.97,2.55,0,3.53l-16.99,16.99c-.47.47-1.1.73-1.76.73s-1.29-.26-1.76-.73l-12.87-12.87-29.89,29.88Z"/>
    <path d="M148.06,178.28c-.67,0-1.29-.26-1.76-.73l-5.48-5.48h-5.29c-10.63,0-20.9-3.01-29.77-8.71l-11.63-7.48c-4.63-2.97-6.05-9.01-3.23-13.73,1.4-2.35,3.62-4,6.27-4.66.77-.19,1.55-.3,2.33-.31l2.36-.04-18.94-18.95H17.9c-9.08,0-16.46-7.39-16.46-16.46V17.9C1.44,8.82,8.82,1.44,17.9,1.44h42.96c1.37,0,2.49,1.12,2.49,2.49s-1.12,2.49-2.49,2.49H17.9c-6.33,0-11.48,5.15-11.48,11.48v83.83c0,6.33,5.15,11.48,11.48,11.48h60.03l-2.76-2.76c-3.77-3.77-3.77-9.91,0-13.69,1.82-1.82,4.25-2.83,6.84-2.83s5.02,1,6.84,2.83l11.76,11.76.6-1.3c.48-1.03,1.13-1.97,1.95-2.79,1.71-1.71,3.98-2.71,6.38-2.82l.91-.04.04-.91c.11-2.41,1.11-4.68,2.82-6.38,1.83-1.83,4.26-2.83,6.84-2.83s5.01,1.01,6.84,2.83l3.8,3.8.6-1.3c.48-1.03,1.13-1.96,1.94-2.77,1.82-1.82,4.25-2.83,6.84-2.83,1.78,0,3.53.49,5.04,1.41l1.52.93V17.9c0-6.33-5.15-11.48-11.48-11.48h-42.96c-1.37,0-2.49-1.12-2.49-2.49s1.12-2.49,2.49-2.49h42.96c9.08,0,16.47,7.39,16.47,16.46v80.8l4.21,4.21c10.01,10.01,15.72,23.31,16.06,37.45v.4s5.55,5.54,5.55,5.54c.97.97.97,2.55,0,3.53-.47.47-1.1.73-1.76.73s-1.29-.26-1.76-.73l-6.26-6.26c-.47-.47-.73-1.1-.73-1.77.02-13.36-5.17-25.92-14.62-35.37l-8.9-8.9c-.88-.88-2.06-1.37-3.32-1.37s-2.43.49-3.32,1.37c-1.73,1.73-1.83,4.54-.22,6.39l7.66,7.67c.97.97.97,2.55,0,3.53h0c-.47.48-1.1.74-1.76.74s-1.29-.26-1.76-.73l-17.3-17.31c-.89-.88-2.06-1.37-3.32-1.37s-2.43.49-3.32,1.37c-.88.88-1.37,2.06-1.37,3.32s.49,2.43,1.37,3.32l17.31,17.31c.47.47.73,1.1.73,1.76s-.26,1.29-.73,1.76-1.1.73-1.76.73-1.29-.26-1.76-.73l-17.3-17.3c-.88-.88-2.06-1.37-3.32-1.37s-2.43.49-3.32,1.37c-.89.88-1.37,2.06-1.37,3.32s.49,2.43,1.37,3.31l17.31,17.31c.97.97.97,2.55,0,3.53-.47.47-1.1.73-1.76.73-.67,0-1.29-.26-1.76-.73l-35.14-35.14c-.88-.88-2.06-1.37-3.32-1.37s-2.43.49-3.32,1.37-1.37,2.06-1.37,3.32.49,2.43,1.37,3.32l37.15,37.15c1.09,1.09,1.2,2.83.24,4.05-.58.74-1.46,1.17-2.41,1.17-.56,0-1.1-.15-1.58-.44l-9.79-5.94c-.81-.49-1.73-.75-2.67-.75-.42,0-.84.05-1.26.15-1.35.34-2.48,1.18-3.19,2.37-1.43,2.41-.71,5.47,1.65,6.99l11.63,7.48c8.07,5.19,17.4,7.93,26.99,7.93h6.39c.67,0,1.3.25,1.77.72l6.21,6.21c.97.97.97,2.55,0,3.53-.47.47-1.1.73-1.76.73Z"/>
  </g>
  <path d="M76.58,6.42c-.66,0-1.3-.27-1.76-.73-.47-.46-.73-1.11-.73-1.76s.27-1.3.73-1.76c.46-.47,1.11-.73,1.76-.73s1.3.27,1.76.73c.47.46.73,1.11.73,1.76s-.27,1.3-.73,1.76c-.46.47-1.11.73-1.76.73Z"/>
</svg>