<?xml version="1.0" encoding="UTF-8"?>
<svg id="Scalability" xmlns="http://www.w3.org/2000/svg" viewBox="0 0 179.65 179.65">
  <path d="M64.65,178.65c-9.12,0-16.54-7.42-16.54-16.54v-58.29l-.89-.1c-15.6-1.72-27.36-14.86-27.36-30.57s11.76-28.84,27.36-30.56l.89-.1v-24.95c0-9.12,7.42-16.54,16.54-16.54h78.6c9.12,0,16.54,7.42,16.54,16.54v56.54c0,1.38-1.13,2.51-2.51,2.51s-2.51-1.12-2.51-2.51v-39.99H53.12v8.41l.89.1c15.6,1.72,27.35,14.86,27.35,30.56,0,3.21-.5,6.37-1.47,9.41l-.42,1.31h12.49v-17.24c0-1.38,1.13-2.51,2.51-2.51h16.44v-13.05c0-1.38,1.13-2.51,2.51-2.51h18.95c1.38,0,2.51,1.12,2.51,2.51v53.33c0,1.38-1.13,2.51-2.51,2.51h-56.84c-1.38,0-2.51-1.12-2.51-2.51v-10.09l-1.67,1.53c-4.85,4.43-10.84,7.15-17.33,7.87l-.89.1v41.74h101.65v-39.9c0-1.38,1.13-2.51,2.51-2.51s2.51,1.12,2.51,2.51v56.45c0,9.12-7.42,16.54-16.54,16.54h-78.6ZM53.12,162.11c0,6.36,5.17,11.53,11.53,11.53h78.6c6.36,0,11.53-5.17,11.53-11.53v-11.53H53.12v11.53ZM115.93,101.9h13.93v-48.32h-13.93v48.32ZM96.98,101.9h13.93v-32.76h-13.93v32.76ZM78.04,101.9h13.93v-13.01h-13.93v13.01ZM50.62,47.42c-14.19,0-25.74,11.54-25.74,25.74s11.55,25.74,25.74,25.74,25.74-11.55,25.74-25.74-11.55-25.74-25.74-25.74ZM64.65,6.02c-6.36,0-11.53,5.17-11.53,11.53v11.53h101.65v-11.53c0-6.36-5.17-11.53-11.53-11.53h-78.6Z"/>
  <path d="M103.95,164.62c-.66,0-1.31-.27-1.77-.74-.47-.47-.74-1.11-.74-1.77s.27-1.31.73-1.77c.47-.47,1.11-.74,1.77-.74s1.31.27,1.77.73c.47.47.74,1.11.74,1.77s-.27,1.3-.74,1.77c-.47.47-1.11.74-1.77.74Z"/>
  <path d="M92.11,20.05c-1.38,0-2.51-1.12-2.51-2.51s1.13-2.51,2.51-2.51h23.77c1.38,0,2.51,1.12,2.51,2.51s-1.13,2.51-2.51,2.51h-23.77Z"/>
  <path d="M157.28,92.38c-.66,0-1.31-.27-1.77-.74-.47-.47-.74-1.11-.74-1.77s.27-1.31.74-1.78c.46-.46,1.11-.73,1.77-.73s1.31.27,1.77.73c.47.47.74,1.12.74,1.78s-.27,1.3-.74,1.77c-.46.47-1.11.73-1.77.73Z"/>
  <path d="M48.07,81.59c-.67,0-1.3-.26-1.78-.74l-6.75-6.75c-.98-.98-.98-2.57,0-3.55.47-.47,1.1-.73,1.77-.73s1.3.26,1.77.73l4.97,4.97,10.06-10.06c.47-.47,1.1-.74,1.77-.74s1.3.26,1.77.73c.47.47.74,1.1.74,1.77,0,.67-.26,1.3-.73,1.78l-11.84,11.84c-.47.47-1.1.73-1.77.73Z"/>
  <path d="M75.53,126.37c-1.38,0-2.51-1.12-2.51-2.51s1.13-2.51,2.51-2.51h56.84c1.38,0,2.51,1.12,2.51,2.51s-1.13,2.51-2.51,2.51h-56.84Z"/>
</svg>