<?xml version="1.0" encoding="UTF-8"?>
<svg id="Scalability" xmlns="http://www.w3.org/2000/svg" xmlns:xlink="http://www.w3.org/1999/xlink" viewBox="0 0 179.73 179.73">
  <defs>
    <style>
      .cls-1 {
        fill: none;
      }

      .cls-2 {
        clip-path: url(#clippath-1);
      }
    </style>
    <clipPath id="clippath-1">
      <rect class="cls-1" x=".04" y=".04" width="179.65" height="179.65"/>
    </clipPath>
  </defs>
  <g class="cls-2">
    <path d="M3.55,178.69c-1.38,0-2.51-1.12-2.51-2.51V3.55c0-1.38,1.13-2.51,2.51-2.51h99.33c.94,0,1.8.52,2.23,1.36.43.84.36,1.84-.19,2.61l-18.96,26.61,18.96,26.61c.55.77.62,1.77.19,2.61-.43.84-1.29,1.36-2.23,1.36H21.49v50.2l32.92-32.92c.47-.47,1.11-.74,1.78-.74s1.3.26,1.77.74l32.86,32.86,16.31-16.31c.47-.47,1.1-.73,1.77-.73s1.3.26,1.77.73c.47.47.73,1.1.73,1.77s-.26,1.3-.74,1.77l-18.08,18.08c-.47.47-1.1.73-1.77.73s-1.31-.27-1.77-.73l-32.86-32.86-34.69,34.69v19.24l32.92-32.92c.47-.47,1.1-.74,1.77-.74s1.3.26,1.77.74l32.86,32.86,69.89-69.89c.47-.47,1.1-.73,1.77-.73s1.3.26,1.77.73l1.93,1.93,6.45-24.06-24.06,6.45,2.52,2.52c.47.47.73,1.1.73,1.78s-.26,1.3-.73,1.77l-18.08,18.08c-.47.47-1.1.74-1.77.74s-1.3-.26-1.77-.74c-.47-.47-.73-1.1-.73-1.77s.26-1.3.73-1.77l16.31-16.31-3.82-3.82c-.63-.63-.88-1.56-.65-2.42.23-.86.91-1.54,1.77-1.78l32.46-8.7c.21-.06.43-.09.65-.09.66,0,1.31.27,1.78.74.63.63.88,1.56.65,2.42l-8.7,32.46c-.23.86-.91,1.54-1.77,1.77-.21.06-.42.08-.64.08-.37,0-.74-.08-1.08-.24l-1.43-.67v96.52h11.19c1.38,0,2.51,1.12,2.51,2.51s-1.13,2.51-2.51,2.51H3.55ZM129.12,107.47v66.2h30.86v-97.06l-30.86,30.86ZM93.24,143.35v30.32h30.86v-61.18l-30.86,30.86ZM57.37,173.67h30.86v-30.5l-30.86-30.86v61.35ZM21.49,145.83v27.84h30.86v-58.7l-30.86,30.86ZM6.05,173.67h10.42V6.06H6.05v167.62ZM21.49,57.18h76.51l-17.18-24.11c-.62-.87-.62-2.04,0-2.91l17.18-24.11H21.49v51.12ZM120.07,89.15c-1.38,0-2.51-1.12-2.51-2.51s1.13-2.51,2.51-2.51,2.51,1.12,2.51,2.51-1.13,2.51-2.51,2.51Z"/>
  </g>
</svg>