<?xml version="1.0" encoding="UTF-8"?>
<svg id="Scalability" xmlns="http://www.w3.org/2000/svg" viewBox="0 0 179.73 179.73">
  <path d="M133.05,153.15c-.27,0-.55,0-.82-.03-6.54-.4-11.78-5.85-11.93-12.41-.03-1.32.14-2.63.51-3.89l.37-1.28h-62.32c-1.75,0-3.39-.86-4.38-2.31-.98-1.42-1.2-3.22-.58-4.82.34-.88.51-1.8.51-2.75,0-2.15-.86-4.15-2.43-5.63-1.44-1.35-3.32-2.09-5.29-2.09-.17,0-.33,0-.5.02-3.96.25-7.13,3.55-7.22,7.51-.02.99.14,1.96.48,2.88.62,1.65.39,3.49-.61,4.93-.98,1.42-2.6,2.26-4.33,2.26H3.51c-1.38,0-2.51-1.13-2.51-2.51V46.69c0-1.38,1.13-2.51,2.51-2.51h31.33l-.38-1.28c-.34-1.15-.51-2.36-.51-3.58,0-3.5,1.46-6.88,4.01-9.28,2.37-2.23,5.46-3.46,8.7-3.46.28,0,.55,0,.83.03,6.53.4,11.77,5.85,11.93,12.41.03,1.32-.14,2.63-.51,3.89l-.37,1.28h15.52c1.38,0,2.51,1.13,2.51,2.51s-1.13,2.51-2.51,2.51h-15.2c-1.73,0-3.35-.84-4.33-2.26-1-1.44-1.23-3.28-.61-4.93.34-.92.5-1.89.48-2.88-.09-3.97-3.26-7.27-7.22-7.51-.17-.01-.33-.02-.5-.02-1.97,0-3.85.74-5.28,2.09-1.57,1.48-2.43,3.48-2.43,5.63,0,.95.17,1.88.51,2.75.61,1.6.39,3.4-.58,4.82-.99,1.45-2.63,2.31-4.38,2.31H6.02v81.32h28.81l-.38-1.28c-.37-1.26-.54-2.57-.51-3.89.16-6.55,5.4-12,11.93-12.41.28-.02.55-.03.83-.03,3.24,0,6.33,1.23,8.7,3.46,2.55,2.4,4.01,5.78,4.01,9.28,0,1.22-.17,2.43-.51,3.58l-.37,1.28h28.81v-28.81l-1.28.38c-1.16.34-2.37.51-3.58.51-3.5,0-6.88-1.46-9.28-4.02-2.43-2.59-3.65-5.97-3.43-9.53.4-6.54,5.85-11.78,12.41-11.93h.3c1.22,0,2.43.17,3.59.51l1.28.38v-15.52c0-1.38,1.13-2.51,2.51-2.51s2.51,1.13,2.51,2.51v15.2c0,1.73-.84,3.35-2.26,4.33-.9.62-1.95.95-3.05.95-.65,0-1.28-.11-1.89-.34-.86-.32-1.76-.48-2.69-.48h-.2c-3.97.1-7.27,3.27-7.51,7.22-.13,2.16.6,4.21,2.08,5.78,1.47,1.57,3.47,2.43,5.63,2.43.95,0,1.88-.17,2.76-.51.6-.23,1.22-.34,1.86-.34,1.06,0,2.09.32,2.97.92,1.45.99,2.31,2.63,2.31,4.38v28.49h28.49c1.73,0,3.35.84,4.33,2.26,1,1.44,1.23,3.28.61,4.93-.34.92-.5,1.89-.48,2.88.09,3.97,3.26,7.27,7.22,7.51.17.01.34.02.5.02,1.97,0,3.84-.74,5.28-2.09,1.57-1.48,2.43-3.48,2.43-5.63,0-.95-.17-1.88-.51-2.75-.61-1.6-.39-3.4.58-4.82.99-1.45,2.63-2.31,4.38-2.31h28.49V49.2h-28.81l.37,1.28c.37,1.26.54,2.57.51,3.89-.15,6.55-5.39,12-11.93,12.41-.28.02-.55.03-.82.03-3.24,0-6.34-1.23-8.71-3.46-2.55-2.4-4.01-5.78-4.01-9.28,0-1.22.17-2.43.51-3.58l.38-1.28h-15.53c-1.38,0-2.51-1.13-2.51-2.51s1.13-2.51,2.51-2.51h15.2c1.75,0,3.39.86,4.38,2.31.98,1.42,1.2,3.22.58,4.82-.34.88-.51,1.8-.51,2.76,0,2.15.86,4.15,2.43,5.62,1.44,1.35,3.32,2.1,5.29,2.1.16,0,.33,0,.49-.02,3.96-.25,7.13-3.55,7.22-7.52.02-.99-.14-1.96-.48-2.88-.61-1.65-.39-3.49.61-4.93.98-1.42,2.6-2.26,4.33-2.26h31c1.38,0,2.51,1.13,2.51,2.51v86.34c0,1.38-1.13,2.51-2.51,2.51h-31.32l.38,1.28c.34,1.16.51,2.36.51,3.58,0,3.5-1.46,6.88-4.01,9.28-2.37,2.23-5.47,3.46-8.71,3.46Z"/>
  <path d="M89.86,49.2c-.66,0-1.31-.27-1.77-.74-.47-.47-.74-1.12-.74-1.77s.27-1.31.74-1.77c.47-.47,1.11-.74,1.77-.74s1.31.27,1.77.73c.47.47.74,1.12.74,1.78s-.27,1.3-.74,1.78c-.47.47-1.11.74-1.77.74Z"/>
</svg>