<?xml version="1.0" encoding="UTF-8"?>
<svg id="Scalability" xmlns="http://www.w3.org/2000/svg" xmlns:xlink="http://www.w3.org/1999/xlink" viewBox="0 0 179.71 179.71">
  <defs>
    <style>
      .cls-1 {
        fill: none;
      }

      .cls-2 {
        clip-path: url(#clippath-1);
      }
    </style>
    <clipPath id="clippath-1">
      <rect class="cls-1" x="0" width="179.71" height="179.71"/>
    </clipPath>
  </defs>
  <g class="cls-2">
    <path d="M115.45,157.63c-.67,0-1.3-.26-1.78-.74-.98-.98-.98-2.57,0-3.55l13.63-13.63c.47-.47,1.1-.73,1.78-.73s1.3.26,1.78.73l8.46,8.46,12.71-12.71-1.99-.27c-1.23-.17-2.17-1.24-2.17-2.48,0-1.38,1.13-2.51,2.51-2.51h7.96c1.38,0,2.51,1.13,2.51,2.51v7.96c0,1.38-1.13,2.51-2.51,2.51-1.25,0-2.31-.93-2.48-2.17l-.27-1.99-14.48,14.49c-.47.47-1.1.73-1.77.73-.67,0-1.3-.26-1.77-.73l-8.46-8.46-11.85,11.86c-.48.47-1.11.73-1.78.73Z"/>
    <path d="M152.69,178.71c-1.38,0-2.51-1.13-2.51-2.51s1.13-2.51,2.51-2.51h15.79c2.87,0,5.21-2.34,5.21-5.21v-49.14c0-2.87-2.34-5.21-5.21-5.21h-63.18c-2.87,0-5.21,2.34-5.21,5.21v49.14c0,2.87,2.34,5.21,5.21,5.21h15.79c1.38,0,2.51,1.13,2.51,2.51s-1.13,2.51-2.51,2.51h-15.79c-5.64,0-10.23-4.59-10.23-10.23v-30.25l-1.31.43c-7.11,2.35-14.57,3.55-22.15,3.55C32.67,142.21,1,110.54,1,71.6c0-14.18,4.18-27.84,12.08-39.51l.46-.68L1.74,19.6c-.47-.47-.73-1.11-.73-1.78s.26-1.3.73-1.77L16.05,1.74c.47-.47,1.1-.73,1.77-.73s1.3.26,1.77.73l11.81,11.81.68-.46C43.76,5.18,57.42,1,71.6,1c38.93,0,70.6,31.67,70.6,70.6,0,12.71-3.41,25.16-9.85,35.99l-.9,1.51h37.02c5.64,0,10.23,4.59,10.23,10.23v49.14c0,5.64-4.59,10.23-10.23,10.23h-15.79ZM6.12,75.17c1.8,33.5,28.42,60.12,61.92,61.92l1.05.06v-15.95l-.93-.06c-24.58-1.69-44.4-21.5-46.09-46.09l-.06-.93H6.06l.06,1.05ZM93.9,115.96c-5.9,2.98-12.25,4.72-18.85,5.17l-.93.06v15.95l1.05-.06c6.6-.35,13.07-1.69,19.25-3.98l.65-.24v-13.52c0-.76.09-1.52.26-2.27l.47-2.07-1.9.96ZM71.6,110.75c1.38,0,2.51,1.13,2.51,2.51v2.92l1.08-.09c21.59-1.73,39.17-19.31,40.9-40.9l.09-1.08h-2.92c-1.38,0-2.51-1.13-2.51-2.51s1.13-2.51,2.51-2.51h2.92l-.09-1.08c-1.73-21.59-19.31-39.17-40.9-40.9l-1.08-.09v2.92c0,1.38-1.13,2.51-2.51,2.51s-2.51-1.13-2.51-2.51v-2.92l-1.08.09c-9.37.75-18.13,4.39-25.31,10.51l-.82.7,11.29,11.29.7-.55c5.11-4.03,11.25-6.16,17.74-6.16,15.83,0,28.7,12.87,28.7,28.7s-12.88,28.7-28.7,28.7-28.7-12.88-28.7-28.7c0-6.49,2.13-12.63,6.16-17.74l.55-.7-11.29-11.29-.7.82c-6.12,7.19-9.76,15.94-10.51,25.31l-.09,1.08h2.92c1.38,0,2.51,1.13,2.51,2.51s-1.13,2.51-2.51,2.51h-2.92l.09,1.08c1.73,21.59,19.31,39.17,40.9,40.9l1.08.09v-2.92c0-1.38,1.13-2.51,2.51-2.51ZM121.14,75.05c-.84,12.28-6.22,23.77-15.15,32.34l-1.79,1.72h21.21l.3-.43c6.81-9.91,10.74-21.49,11.38-33.51l.06-1.05h-15.95l-.06.93ZM52.48,57.66c-2.98,4.08-4.56,8.9-4.56,13.94,0,13.06,10.62,23.68,23.68,23.68s23.68-10.62,23.68-23.68-10.62-23.68-23.68-23.68c-5.04,0-9.87,1.58-13.94,4.55l-.94.69,12.38,12.38v-3.86c0-1.38,1.13-2.51,2.51-2.51s2.51,1.13,2.51,2.51v9.92c0,1.38-1.13,2.51-2.51,2.51h-9.92c-1.38,0-2.51-1.13-2.51-2.51s1.13-2.51,2.51-2.51h3.86l-12.38-12.38-.69.94ZM74.11,22.01l.93.06c24.58,1.69,44.4,21.5,46.09,46.09l.06.93h15.95l-.06-1.05c-1.8-33.5-28.42-60.12-61.92-61.92l-1.05-.06v15.95ZM16.48,36.05c-6.18,9.54-9.76,20.6-10.37,31.99l-.06,1.05h15.95l.06-.93c.7-10.18,4.47-19.77,10.92-27.73l1.32-1.63h-12.32c-.67,0-1.3-.26-1.77-.74l-3.05-3.05-.67,1.04ZM68.04,6.12c-11.39.61-22.45,4.19-31.99,10.37l-1.04.67,3.06,3.05c.47.47.73,1.11.73,1.77v12.32l1.63-1.32c7.96-6.44,17.55-10.21,27.73-10.91l.93-.06V6.06l-1.05.06ZM7.06,17.82l15.96,15.96h10.76v-10.76l-15.96-15.96-10.76,10.76Z"/>
  </g>
  <path d="M136.89,178.71c-.66,0-1.31-.27-1.77-.74-.47-.47-.74-1.11-.74-1.77s.27-1.31.74-1.77c.47-.47,1.11-.74,1.77-.74s1.31.27,1.77.73c.47.47.74,1.12.74,1.78s-.27,1.31-.74,1.77c-.47.47-1.11.74-1.77.74Z"/>
</svg>