<?xml version="1.0" encoding="UTF-8"?>
<svg id="Scalability" xmlns="http://www.w3.org/2000/svg" viewBox="0 0 179.65 179.65">
  <path d="M37.45,120.41c-.66,0-1.31-.27-1.77-.74-.47-.47-.74-1.11-.74-1.77s.27-1.31.74-1.77c.47-.47,1.11-.74,1.77-.74s1.31.27,1.77.74c.47.47.73,1.11.73,1.77s-.27,1.31-.73,1.77-1.11.74-1.77.74Z"/>
  <path d="M54.91,120.41c-1.38,0-2.51-1.12-2.51-2.51s1.13-2.51,2.51-2.51h3.16c1.38,0,2.51,1.13,2.51,2.51s-1.13,2.51-2.51,2.51h-3.16Z"/>
  <path d="M72.37,120.41c-.66,0-1.31-.27-1.77-.74-.47-.47-.74-1.11-.74-1.77s.27-1.31.73-1.77c.47-.47,1.11-.74,1.77-.74s1.31.27,1.77.74c.47.47.74,1.11.74,1.77s-.27,1.31-.73,1.77c-.47.47-1.11.74-1.77.74Z"/>
  <path d="M89.83,120.41c-.66,0-1.31-.27-1.77-.74-.47-.47-.74-1.11-.74-1.77s.27-1.31.74-1.77c.47-.47,1.11-.74,1.77-.74s1.31.27,1.77.74c.47.47.74,1.11.74,1.77s-.27,1.31-.73,1.77c-.47.47-1.11.74-1.77.74Z"/>
  <path d="M107.28,120.41c-.66,0-1.3-.27-1.77-.74-.47-.47-.74-1.11-.74-1.77s.27-1.31.74-1.77c.47-.47,1.11-.74,1.77-.74s1.31.27,1.77.74c.47.47.74,1.11.74,1.77s-.27,1.31-.73,1.77c-.47.47-1.11.74-1.78.74Z"/>
  <path d="M124.74,120.41c-.66,0-1.31-.27-1.78-.74-.46-.46-.73-1.11-.73-1.77s.27-1.31.73-1.77c.47-.47,1.12-.74,1.78-.74s1.31.27,1.77.74c.47.47.74,1.12.74,1.77s-.27,1.3-.74,1.77c-.47.47-1.12.74-1.77.74Z"/>
  <path d="M142.2,120.41c-.66,0-1.31-.27-1.78-.74-.47-.47-.73-1.11-.73-1.77s.27-1.31.73-1.77c.47-.47,1.11-.74,1.77-.74s1.31.27,1.77.74c.47.47.74,1.12.74,1.77s-.27,1.3-.74,1.77c-.47.47-1.11.74-1.77.74Z"/>
  <path d="M37.45,159.7c-.66,0-1.31-.27-1.77-.74-.47-.47-.74-1.11-.74-1.77s.27-1.3.74-1.77c.47-.47,1.11-.74,1.77-.74s1.31.27,1.77.74c.47.47.73,1.11.73,1.77s-.27,1.31-.73,1.77c-.47.47-1.11.74-1.77.74Z"/>
  <path d="M54.91,159.7c-.66,0-1.31-.27-1.77-.73-.47-.47-.74-1.12-.74-1.77s.27-1.3.74-1.77c.47-.47,1.11-.74,1.77-.74s1.31.27,1.78.74c.46.46.73,1.11.73,1.77s-.27,1.31-.73,1.77c-.47.47-1.12.74-1.78.74Z"/>
  <path d="M72.37,159.7c-1.38,0-2.51-1.12-2.51-2.51s1.13-2.51,2.51-2.51h35c1.38,0,2.51,1.12,2.51,2.51s-1.13,2.51-2.51,2.51h-35Z"/>
  <path d="M124.74,159.7c-.66,0-1.3-.27-1.78-.74-.47-.46-.73-1.11-.73-1.77s.27-1.31.74-1.77c.47-.47,1.12-.74,1.77-.74s1.31.27,1.78.74c.46.46.73,1.11.73,1.77s-.27,1.31-.73,1.77c-.47.47-1.11.74-1.78.74Z"/>
  <path d="M142.2,159.7c-1.38,0-2.51-1.12-2.51-2.51s1.13-2.51,2.51-2.51h2.91c1.38,0,2.51,1.12,2.51,2.51s-1.13,2.51-2.51,2.51h-2.91Z"/>
  <path d="M19.65,140.05c-.66,0-1.31-.27-1.77-.73-.47-.47-.74-1.11-.74-1.77s.27-1.31.74-1.77c.47-.47,1.11-.74,1.77-.74s1.31.27,1.77.74c.47.47.74,1.11.74,1.77s-.27,1.31-.73,1.77c-.47.47-1.11.74-1.77.74Z"/>
  <path d="M37.19,140.05c-1.38,0-2.51-1.12-2.51-2.51s1.13-2.51,2.51-2.51h2.54c1.38,0,2.51,1.12,2.51,2.51s-1.13,2.51-2.51,2.51h-2.54Z"/>
  <path d="M54.74,140.05c-.66,0-1.31-.27-1.77-.74-.47-.47-.74-1.11-.74-1.77s.27-1.31.73-1.77c.47-.47,1.11-.74,1.77-.74s1.31.27,1.77.74c.47.47.74,1.11.74,1.77s-.27,1.31-.74,1.77c-.47.47-1.11.74-1.77.74Z"/>
  <path d="M72.28,140.05c-.66,0-1.31-.27-1.77-.74-.47-.47-.74-1.11-.74-1.77s.27-1.31.73-1.77c.47-.47,1.11-.74,1.77-.74s1.31.27,1.77.74c.47.47.74,1.11.74,1.77s-.27,1.31-.73,1.77c-.47.47-1.11.74-1.77.74Z"/>
  <path d="M89.83,140.05c-1.38,0-2.51-1.12-2.51-2.51s1.13-2.51,2.51-2.51h3.01c1.38,0,2.51,1.12,2.51,2.51s-1.13,2.51-2.51,2.51h-3.01Z"/>
  <path d="M107.37,140.05c-1.38,0-2.51-1.12-2.51-2.51s1.13-2.51,2.51-2.51h3.53c1.38,0,2.51,1.12,2.51,2.51s-1.13,2.51-2.51,2.51h-3.53Z"/>
  <path d="M124.91,140.05c-.66,0-1.31-.27-1.77-.74-.47-.47-.74-1.11-.74-1.77s.27-1.31.73-1.77c.47-.47,1.11-.74,1.77-.74s1.31.27,1.77.74c.47.47.74,1.11.74,1.77s-.27,1.31-.74,1.77c-.47.47-1.11.74-1.77.74Z"/>
  <path d="M142.46,140.05c-.66,0-1.31-.27-1.77-.74s-.74-1.11-.74-1.77.27-1.31.73-1.77c.47-.47,1.11-.74,1.77-.74s1.31.27,1.77.74c.47.47.74,1.11.74,1.77s-.27,1.31-.73,1.77c-.47.47-1.11.74-1.77.74Z"/>
  <path d="M160,140.05c-.66,0-1.31-.27-1.77-.74s-.74-1.11-.74-1.77.27-1.31.74-1.77c.47-.47,1.11-.74,1.77-.74s1.31.27,1.77.74c.47.47.74,1.11.74,1.77s-.27,1.31-.73,1.77c-.47.47-1.11.74-1.77.74Z"/>
  <path d="M17.54,178.65c-9.12,0-16.54-7.42-16.54-16.54v-49.12c0-9.12,7.42-16.54,16.54-16.54h56.54c1.38,0,2.51,1.12,2.51,2.51s-1.13,2.51-2.51,2.51H17.54c-6.36,0-11.53,5.17-11.53,11.53v49.12c0,6.36,5.17,11.53,11.53,11.53h144.56c6.36,0,11.53-5.17,11.53-11.53v-49.12c0-6.36-5.17-11.53-11.53-11.53h-56.45c-1.38,0-2.51-1.12-2.51-2.51s1.13-2.51,2.51-2.51h56.45c9.12,0,16.54,7.42,16.54,16.54v49.12c0,9.12-7.42,16.54-16.54,16.54H17.54Z"/>
  <path d="M27.84,76.16c-.65,0-1.28-.13-1.88-.38-1.84-.76-3.03-2.54-3.03-4.53v-9.69h-8.19c-7.57,0-13.74-6.16-13.74-13.74V14.74C1,7.16,7.16,1,14.74,1h55.1c7.57,0,13.74,6.16,13.74,13.74v33.09c0,7.57-6.16,13.74-13.74,13.74h-25.38l-13.16,13.16c-.93.93-2.16,1.44-3.46,1.44ZM14.74,6.02c-4.81,0-8.72,3.91-8.72,8.72v33.09c0,4.81,3.91,8.72,8.72,8.72h10.7c1.38,0,2.51,1.12,2.51,2.51v11.92l13.7-13.7c.47-.47,1.1-.74,1.77-.74h26.42c4.81,0,8.72-3.91,8.72-8.72V14.74c0-4.81-3.91-8.72-8.72-8.72H14.74Z"/>
  <path d="M37.37,43.61c-.39,0-.77-.09-1.12-.26-.6-.3-1.05-.81-1.26-1.45-.21-.64-.16-1.32.14-1.92l9.82-19.64c.43-.86,1.29-1.39,2.25-1.39.39,0,.77.09,1.12.27,1.24.62,1.74,2.13,1.12,3.37l-9.82,19.64c-.43.85-1.29,1.39-2.25,1.39Z"/>
  <path d="M32.99,23.97c-.66,0-1.31-.27-1.78-.74-.47-.47-.73-1.11-.73-1.77s.27-1.31.73-1.78c.47-.46,1.11-.73,1.77-.73s1.31.27,1.77.73c.47.47.74,1.11.74,1.78s-.27,1.31-.73,1.77c-.47.47-1.12.74-1.77.74Z"/>
  <path d="M51.58,43.61c-.66,0-1.31-.27-1.77-.74-.47-.47-.73-1.11-.73-1.77s.27-1.31.73-1.78,1.11-.73,1.77-.73,1.31.27,1.77.73c.47.47.74,1.11.74,1.78s-.27,1.3-.73,1.77c-.47.47-1.11.74-1.77.74Z"/>
  <path d="M101.76,44.9c-.67,0-1.3-.26-1.77-.74-.47-.47-.73-1.1-.73-1.77s.26-1.3.73-1.77l23.65-23.65c.47-.47,1.1-.73,1.77-.73s1.3.26,1.77.73l15.98,15.98,26.93-26.93h-7.75c-1.38,0-2.51-1.12-2.51-2.51s1.13-2.51,2.51-2.51h13.8c1.38,0,2.51,1.12,2.51,2.51v13.8c0,1.38-1.13,2.51-2.51,2.51s-2.51-1.12-2.51-2.51v-7.75l-28.71,28.71c-.47.47-1.1.73-1.77.73s-1.3-.26-1.77-.73l-15.98-15.98-21.87,21.87c-.47.48-1.1.74-1.77.74Z"/>
  <path d="M101.76,62.16c-1.38,0-2.51-1.12-2.51-2.51s1.13-2.51,2.51-2.51h67.49c1.38,0,2.51,1.12,2.51,2.51s-1.13,2.51-2.51,2.51h-67.49Z"/>
  <path d="M101.76,81.81c-1.38,0-2.51-1.12-2.51-2.51s1.13-2.51,2.51-2.51h33.74c1.38,0,2.51,1.12,2.51,2.51s-1.13,2.51-2.51,2.51h-33.74Z"/>
  <path d="M154.21,81.81c-1.38,0-2.51-1.12-2.51-2.51s1.13-2.51,2.51-2.51h15.03c1.38,0,2.51,1.12,2.51,2.51s-1.13,2.51-2.51,2.51h-15.03Z"/>
  <path d="M89.87,101.46c-.66,0-1.31-.27-1.77-.74-.47-.47-.74-1.11-.74-1.77s.27-1.31.73-1.77c.47-.47,1.12-.74,1.78-.74s1.31.27,1.77.74c.47.47.74,1.11.74,1.77s-.27,1.31-.74,1.77c-.47.47-1.11.74-1.77.74Z"/>
</svg>