<?xml version="1.0" encoding="UTF-8"?>
<svg id="Scalability" xmlns="http://www.w3.org/2000/svg" viewBox="0 0 179.73 179.73">
  <path d="M22.47,178.73c-1.38,0-2.51-1.13-2.51-2.51V3.51c0-1.38,1.13-2.51,2.51-2.51h134.79c1.38,0,2.51,1.13,2.51,2.51v172.71c0,1.38-1.13,2.51-2.51,2.51H22.47ZM24.98,173.7h129.77V6.02H24.98v167.68Z"/>
  <path d="M40.72,142.22c-1.38,0-2.51-1.13-2.51-2.51v-54.06c0-1.38,1.13-2.51,2.51-2.51h33.35c1.38,0,2.51,1.13,2.51,2.51s-1.13,2.51-2.51,2.51h-30.84v36.01l12.6-12.6c.47-.47,1.1-.74,1.77-.74s1.3.26,1.77.74l9.79,9.79,17.92-17.92c.47-.47,1.1-.74,1.77-.74s1.3.26,1.78.74l13.49,13.5,28.77-28.77h-27.24c-1.38,0-2.51-1.13-2.51-2.51s1.13-2.51,2.51-2.51h33.35c1.38,0,2.51,1.13,2.51,2.51v54.06c0,1.38-1.13,2.51-2.51,2.51H40.72ZM106.59,121.57v15.63h29.9v-45.53l-29.9,29.9ZM71.67,125.95v11.25h29.9v-15.72l-12.71-12.71-17.19,17.19ZM43.23,131.27v5.93h23.42v-11.26l-9.05-9.05-14.38,14.38Z"/>
  <path d="M40.25,161.88c-1.38,0-2.51-1.13-2.51-2.51s1.13-2.51,2.51-2.51h21.58c1.38,0,2.51,1.13,2.51,2.51s-1.13,2.51-2.51,2.51h-21.58Z"/>
  <path d="M79.09,161.88c-1.38,0-2.51-1.13-2.51-2.51s1.13-2.51,2.51-2.51h59.91c1.38,0,2.51,1.13,2.51,2.51s-1.13,2.51-2.51,2.51h-59.91Z"/>
  <path d="M103.9,69.88c-1.38,0-2.51-1.13-2.51-2.51s1.13-2.51,2.51-2.51h35.1c1.38,0,2.51,1.13,2.51,2.51s-1.13,2.51-2.51,2.51h-35.1Z"/>
  <path d="M103.9,50.23c-1.38,0-2.51-1.13-2.51-2.51s1.13-2.51,2.51-2.51h35.1c1.38,0,2.51,1.13,2.51,2.51s-1.13,2.51-2.51,2.51h-35.1Z"/>
  <path d="M103.9,30.57c-1.38,0-2.51-1.13-2.51-2.51s1.13-2.51,2.51-2.51h35.1c1.38,0,2.51,1.13,2.51,2.51s-1.13,2.51-2.51,2.51h-35.1Z"/>
  <path d="M89.86,88.16c-.66,0-1.31-.27-1.77-.74-.47-.47-.74-1.12-.74-1.78s.27-1.31.74-1.77c.47-.47,1.11-.74,1.77-.74s1.31.27,1.77.74c.47.47.74,1.11.74,1.77s-.27,1.31-.74,1.77c-.47.47-1.11.74-1.77.74Z"/>
  <path d="M63.18,69.88c-13.77,0-24.98-11.2-24.98-24.98s11.2-24.98,24.98-24.98,24.98,11.2,24.98,24.98-11.2,24.98-24.98,24.98ZM59.49,25.3c-9.42,1.77-16.26,10.02-16.26,19.61,0,11,8.95,19.96,19.96,19.96,4.03,0,7.92-1.2,11.25-3.48l.99-.68-14.02-14.02c-.47-.47-.73-1.1-.73-1.78v-19.83l-1.19.22ZM65.69,43.87l13.28,13.28.68-.99c2.28-3.33,3.48-7.22,3.48-11.25,0-9.59-6.84-17.83-16.26-19.61l-1.19-.22v18.79Z"/>
</svg>