<?xml version="1.0" encoding="UTF-8"?>
<svg id="Scalability" xmlns="http://www.w3.org/2000/svg" xmlns:xlink="http://www.w3.org/1999/xlink" viewBox="0 0 179.73 179.73">
  <defs>
    <style>
      .cls-1 {
        fill: none;
      }

      .cls-2 {
        clip-path: url(#clippath-1);
      }
    </style>
    <clipPath id="clippath-1">
      <rect class="cls-1" x="0" y="0" width="179.73" height="179.73"/>
    </clipPath>
  </defs>
  <path d="M82.49,164.68c-1.38,0-2.51-1.13-2.51-2.51s1.13-2.51,2.51-2.51h14.74c1.38,0,2.51,1.13,2.51,2.51s-1.13,2.51-2.51,2.51h-14.74Z"/>
  <path d="M53.36,75.35c-1.38,0-2.51-1.13-2.51-2.51s1.13-2.51,2.51-2.51h14.74c1.38,0,2.51,1.13,2.51,2.51s-1.13,2.51-2.51,2.51h-14.74Z"/>
  <path d="M53.36,59.9c-1.38,0-2.51-1.13-2.51-2.51s1.13-2.51,2.51-2.51h14.74c1.38,0,2.51,1.13,2.51,2.51s-1.13,2.51-2.51,2.51h-14.74Z"/>
  <g class="cls-2">
    <path d="M53.36,44.46c-1.38,0-2.51-1.13-2.51-2.51s1.13-2.51,2.51-2.51h14.74c1.38,0,2.51,1.13,2.51,2.51s-1.13,2.51-2.51,2.51h-14.74Z"/>
    <path d="M33,178.73c-5.29,0-10.02-3.17-12.05-8.06l-.57-1.38-1.91,1.91c-.47.47-1.1.74-1.78.74s-1.3-.26-1.78-.74l-13.17-13.17c-.47-.47-.73-1.1-.73-1.78s.26-1.3.74-1.78l18.22-18.22V14.04c0-7.19,5.85-13.04,13.04-13.04h113.73c7.19,0,13.04,5.85,13.04,13.04v53.18l15.8-4.23c.21-.06.43-.09.65-.09.67,0,1.3.26,1.77.74.63.63.88,1.56.65,2.42l-8.7,32.47c-.23.86-.91,1.54-1.78,1.78-.21.06-.43.08-.65.08-.66,0-1.31-.27-1.77-.73l-3.23-3.23-2.74,2.74v66.51c0,7.19-5.85,13.04-13.04,13.04H33ZM24.98,164.67v1.01c0,4.42,3.6,8.02,8.02,8.02h113.73c4.42,0,8.02-3.6,8.02-8.02v-61.49l-10.42,10.42v33.83c0,1.38-1.13,2.51-2.51,2.51H38.69l-13.71,13.71ZM7.06,156.24l9.62,9.62,53.84-53.84c.47-.47,1.1-.73,1.77-.73h0c.67,0,1.3.26,1.77.73l32.87,32.87,53.79-53.79c.47-.47,1.1-.74,1.77-.74s1.3.26,1.77.74l1.93,1.92,6.45-24.07-24.07,6.45,2.52,2.52c.47.47.74,1.1.74,1.77s-.26,1.3-.74,1.78l-42.39,42.39c-.47.47-1.12.74-1.78.74s-1.31-.27-1.78-.74l-32.87-32.87L7.06,156.24ZM113.01,145.94h26.3v-26.3l-26.3,26.3ZM43.71,145.94h57.18l-28.59-28.59-28.59,28.59ZM33,6.02c-4.42,0-8.02,3.6-8.02,8.02v117.19l10.42-10.42V22.47c0-1.38,1.13-2.51,2.51-2.51h36.16c1.38,0,2.51,1.13,2.51,2.51s-1.13,2.51-2.51,2.51h-33.65v90.81l30.1-30.1c.47-.47,1.1-.74,1.78-.74s1.3.26,1.77.74l32.87,32.87,32.36-32.36V24.98h-33.65c-1.38,0-2.51-1.13-2.51-2.51s1.13-2.51,2.51-2.51h36.16c1.38,0,2.51,1.13,2.51,2.51v48.9l10.42-2.79V14.04c0-4.42-3.6-8.02-8.02-8.02H33Z"/>
  </g>
  <path d="M89.86,24.98c-.66,0-1.31-.27-1.77-.74-.47-.47-.74-1.11-.74-1.77s.27-1.31.74-1.77c.47-.47,1.11-.74,1.77-.74s1.31.27,1.77.74c.47.47.74,1.12.74,1.78s-.27,1.31-.74,1.77c-.47.47-1.11.74-1.77.74Z"/>
  <path d="M103.9,85.35c-13.77,0-24.98-11.2-24.98-24.98s11.2-24.98,24.98-24.98,24.98,11.2,24.98,24.98-11.2,24.98-24.98,24.98ZM84.3,64.07c1.77,9.42,10.02,16.26,19.61,16.26,4.03,0,7.92-1.2,11.25-3.48l.99-.68-13.28-13.28h-18.79l.22,1.18ZM106.41,59.34l13.28,13.28.68-1c2.28-3.33,3.48-7.22,3.48-11.25,0-9.59-6.84-17.84-16.26-19.61l-1.18-.22v18.79ZM100.21,40.77c-8.01,1.51-14.41,7.9-15.91,15.91l-.22,1.18h17.32v-17.32l-1.18.22Z"/>
</svg>