<?xml version="1.0" encoding="UTF-8"?>
<svg id="Scalability" xmlns="http://www.w3.org/2000/svg" viewBox="0 0 179.73 179.73">
  <g>
    <path d="M63.67,124.06c-1.45,0-2.62-1.18-2.62-2.62s1.18-2.63,2.62-2.63h7.15c1.45,0,2.62,1.18,2.62,2.63s-1.18,2.62-2.62,2.62h-7.15Z"/>
    <path d="M83.29,124.06c-1.45,0-2.63-1.18-2.63-2.62s1.18-2.63,2.63-2.63h7.15c1.45,0,2.63,1.18,2.63,2.63s-1.18,2.62-2.63,2.62h-7.15Z"/>
    <path d="M102.91,124.06c-1.45,0-2.63-1.18-2.63-2.62s1.18-2.63,2.63-2.63h7.15c1.45,0,2.63,1.18,2.63,2.63s-1.18,2.62-2.63,2.62h-7.15Z"/>
    <path d="M122.53,124.06c-1.45,0-2.63-1.18-2.63-2.62s1.18-2.63,2.63-2.63h7.15c1.45,0,2.63,1.18,2.63,2.63s-1.18,2.62-2.63,2.62h-7.15Z"/>
    <path d="M142.14,124.06c-1.45,0-2.63-1.18-2.63-2.62s1.18-2.63,2.63-2.63h7.15c1.45,0,2.63,1.18,2.63,2.63s-1.18,2.62-2.63,2.62h-7.15Z"/>
    <path d="M161.76,124.06c-1.45,0-2.63-1.18-2.63-2.62s1.18-2.63,2.63-2.63h7.15c1.45,0,2.63,1.18,2.63,2.63s-1.18,2.62-2.63,2.62h-7.15Z"/>
  </g>
  <path d="M83.1,180.73c-1.45,0-2.63-1.18-2.63-2.62v-47.37c0-1.45,1.18-2.63,2.63-2.63s2.63,1.18,2.63,2.63v47.37c0,1.45-1.18,2.62-2.63,2.62Z"/>
  <path d="M149.49,114.78c-1.45,0-2.63-1.18-2.63-2.62v-56.7c0-1.45,1.18-2.62,2.63-2.62h21.6L116.3,5.11l-54.79,47.72h21.6c1.45,0,2.63,1.18,2.63,2.62v56.7c0,1.45-1.18,2.62-2.63,2.62s-2.63-1.18-2.63-2.62v-54.07h-25.99c-1.09,0-2.08-.69-2.46-1.71-.38-1.02-.09-2.18.73-2.9L114.57-.35c.48-.42,1.09-.65,1.72-.65s1.25.23,1.72.64l61.81,53.83c.82.72,1.12,1.88.73,2.9-.38,1.02-1.37,1.71-2.46,1.71h-25.99v54.07c0,1.45-1.18,2.62-2.63,2.62Z"/>
  <path d="M149.49,180.73c-1.45,0-2.63-1.18-2.63-2.62v-47.37c0-1.45,1.18-2.63,2.63-2.63s2.63,1.18,2.63,2.63v47.37c0,1.45-1.18,2.62-2.63,2.62Z"/>
  <path d="M18.42,180.73c-.82,0-1.57-.37-2.08-1.02-.5-.65-.67-1.47-.47-2.26l1.53-5.9c-8.17-3.09-14.77-9.42-18.2-17.49-.27-.65-.28-1.36-.02-2.01.26-.65.76-1.16,1.41-1.43l15.18-6.45c.33-.14.67-.21,1.03-.21,1.06,0,2,.63,2.42,1.6,1.64,3.85,5.4,6.34,9.58,6.34,2.91,0,5.74-1.2,7.76-3.29,1.8-1.87,2.74-4.25,2.65-6.71-.17-4.63-2.01-6.17-12.31-10.3-8.87-3.56-23.73-9.51-23.8-27.2-.03-6.55,2.78-13.14,7.69-18.08,1.99-2,4.24-3.65,6.7-4.9l-1.62-6.6c-.19-.79-.02-1.61.48-2.25.5-.64,1.25-1,2.06-1h20.77c.81,0,1.57.37,2.07,1.01.5.64.68,1.46.48,2.25l-1.6,6.45c5.02,2.46,9.14,6.55,11.66,11.6.31.63.36,1.34.14,2.01-.22.66-.69,1.2-1.31,1.52l-14.75,7.37c-.36.18-.77.28-1.17.28-.28,0-.56-.04-.83-.13-.67-.22-1.21-.69-1.52-1.32-.68-1.36-2.04-2.2-3.55-2.2-1.17,0-2.13.79-2.6,1.27-.8.81-1.36,1.89-1.36,2.64,0,2.03.01,3.05,10.15,7.12,9.43,3.78,25.22,10.11,25.95,29.67.31,8.41-2.79,16.44-8.72,22.6-3.31,3.44-7.45,6.14-12.01,7.84l1.53,5.91c.2.78.03,1.63-.47,2.26-.5.65-1.26,1.02-2.08,1.02h-20.77ZM35.81,175.47l-1.29-5c-.36-1.38.44-2.78,1.81-3.18,4.65-1.34,8.83-3.85,12.11-7.24,4.94-5.12,7.52-11.79,7.26-18.76-.6-16.15-13.34-21.26-22.65-25-9.54-3.82-13.42-5.98-13.45-11.97,0-2.17,1.07-4.55,2.89-6.37,1.05-1.05,3.26-2.82,6.33-2.82,2.59,0,5.01,1.06,6.74,2.92l10.24-5.12c-2.35-3.5-5.74-6.21-9.66-7.7-1.24-.47-1.93-1.8-1.61-3.09l1.33-5.35h-14.06l1.34,5.46c.31,1.26-.36,2.57-1.57,3.06-2.62,1.06-4.99,2.64-7.03,4.69-3.94,3.96-6.18,9.19-6.16,14.35.06,14.15,11.88,18.89,20.5,22.35,9.76,3.91,15.29,6.54,15.6,14.98.14,3.9-1.32,7.64-4.12,10.55-3,3.11-7.2,4.9-11.54,4.9-5.35,0-10.32-2.74-13.19-7.21l-10.43,4.43c3.41,6.26,9.23,10.95,16.11,12.94,1.37.4,2.17,1.8,1.81,3.18l-1.29,4.98h13.99Z"/>
</svg>