<?xml version="1.0" encoding="UTF-8"?>
<svg id="Scalability" xmlns="http://www.w3.org/2000/svg" xmlns:xlink="http://www.w3.org/1999/xlink" viewBox="0 0 179.73 179.73">
  <defs>
    <style>
      .cls-1 {
        fill: none;
      }

      .cls-2 {
        clip-path: url(#clippath-1);
      }
    </style>
    <clipPath id="clippath-1">
      <rect class="cls-1" x="19.19" y="0" width="141.35" height="179.73"/>
    </clipPath>
  </defs>
  <g class="cls-2">
    <path d="M89.86,178.73c-.5,0-.99-.15-1.41-.44-11.84-8.05-19.13-20.85-20-35.13l-.06-.94h-6.61c-1.38,0-2.51-1.13-2.51-2.51v-12.94H22.83c-1.38,0-2.51-1.13-2.51-2.51v-6.9c0-13.24,7.88-25.12,20.06-30.29,8.28-3.51,13.64-11.59,13.64-20.59,0-26.07,12.87-50.39,34.43-65.05.42-.29.91-.43,1.41-.43s.99.15,1.41.43c21.56,14.66,34.43,38.98,34.44,65.05,0,9,5.35,17.08,13.64,20.59,12.19,5.16,20.06,17.05,20.06,30.29v6.9c0,1.38-1.13,2.51-2.51,2.51h-36.44v12.94c0,1.38-1.13,2.51-2.51,2.51h-6.61l-.06.94c-.88,14.28-8.17,27.08-20,35.13-.42.28-.91.43-1.41.43ZM73.49,143.29c.84,11.58,6.58,22.29,15.76,29.38l.61.47.61-.47c9.18-7.09,14.92-17.8,15.76-29.38l.08-1.07h-32.9l.08,1.07ZM64.29,137.2h51.14v-10.42h-51.14v10.42ZM125.71,121.75h28.68v-4.39c0-11.22-6.67-21.29-17-25.67-3.84-1.63-7.18-4.04-9.93-7.17l-1.75-2v39.23ZM62.83,43.14c-2.52,7.54-3.79,15.39-3.79,23.34v55.27h61.65v-55.27c0-7.95-1.28-15.81-3.79-23.34l-.23-.68h-11.01c-1.38,0-2.51-1.13-2.51-2.51s1.13-2.51,2.51-2.51h9.08l-.64-1.41c-5.24-11.53-13.41-21.57-23.64-29.03l-.59-.43-.59.43c-10.23,7.46-18.4,17.5-23.64,29.03l-.64,1.41h9.08c1.38,0,2.51,1.13,2.51,2.51s-1.13,2.51-2.51,2.51h-11.02l-.23.68ZM52.27,84.52c-2.75,3.13-6.08,5.55-9.93,7.17-10.33,4.38-17,14.45-17,25.67v4.39h28.68v-39.23l-1.75,2Z"/>
  </g>
  <path d="M123.56,178.73c-1.38,0-2.51-1.13-2.51-2.51v-18.96c0-1.38,1.13-2.51,2.51-2.51s2.51,1.13,2.51,2.51v18.96c0,1.38-1.13,2.51-2.51,2.51Z"/>
  <path d="M56.16,178.73c-1.38,0-2.51-1.13-2.51-2.51v-18.96c0-1.38,1.13-2.51,2.51-2.51s2.51,1.13,2.51,2.51v18.96c0,1.38-1.13,2.51-2.51,2.51Z"/>
  <path d="M89.86,42.46c-.66,0-1.31-.27-1.77-.74-.47-.47-.74-1.11-.74-1.77s.27-1.31.74-1.77c.47-.47,1.11-.74,1.77-.74s1.31.27,1.77.74c.47.47.74,1.11.74,1.78s-.27,1.31-.74,1.77c-.47.47-1.12.74-1.78.74Z"/>
</svg>