<?xml version="1.0" encoding="UTF-8"?>
<svg id="Scalability" xmlns="http://www.w3.org/2000/svg" xmlns:xlink="http://www.w3.org/1999/xlink" viewBox="0 0 179.71 179.71">
  <defs>
    <style>
      .cls-1 {
        fill: none;
      }

      .cls-2 {
        clip-path: url(#clippath-1);
      }
    </style>
    <clipPath id="clippath-1">
      <rect class="cls-1" y="0" width="179.71" height="179.71"/>
    </clipPath>
  </defs>
  <g class="cls-2">
    <path d="M60.96,178.71c-1.38,0-2.51-1.13-2.51-2.51s1.13-2.51,2.51-2.51h9.54v-27.27H17.55c-9.13,0-16.55-7.42-16.55-16.55V36.5c0-9.13,7.42-16.55,16.55-16.55h54.01l.29-.51c4.05-7.15,9.79-13.38,16.6-18.01.42-.28.91-.43,1.41-.43s.99.15,1.41.43c6.81,4.63,12.55,10.86,16.6,18.01l.29.51h54.01c9.13,0,16.55,7.42,16.55,16.55v93.37c0,9.13-7.42,16.55-16.55,16.55h-52.95v27.27h9.54c1.38,0,2.51,1.13,2.51,2.51s-1.13,2.51-2.51,2.51h-57.8ZM75.52,173.69h28.68v-27.27h-28.68v27.27ZM6.02,129.87c0,6.36,5.17,11.53,11.53,11.53h144.61c6.36,0,11.53-5.17,11.53-11.53v-4.2h-68c-1.38,0-2.51-1.13-2.51-2.51s1.13-2.51,2.51-2.51h40.04l-.1-1.09c-.59-6.3-5.8-11.04-12.13-11.04-2.66,0-5.19.84-7.31,2.44-.44.33-.96.5-1.51.5-.63,0-1.23-.23-1.69-.66-2.47-2.26-5.68-3.5-9.03-3.5-3.68,0-7.1,1.46-9.66,4.12-.47.49-1.13.77-1.81.77-.32,0-.64-.06-.94-.18-.96-.38-1.57-1.3-1.57-2.33v-22.22h-20.25v22.22c0,1.03-.62,1.94-1.57,2.33-.3.12-.61.18-.94.18-.68,0-1.34-.28-1.81-.77-2.55-2.65-5.98-4.12-9.66-4.12-3.35,0-6.56,1.25-9.03,3.5-.46.42-1.06.66-1.69.66-.55,0-1.07-.17-1.51-.5-2.12-1.6-4.65-2.44-7.31-2.44-6.33,0-11.54,4.75-12.13,11.04l-.1,1.09h40.14c1.38,0,2.51,1.13,2.51,2.51s-1.13,2.51-2.51,2.51H6.02v4.2ZM133.51,103.49c9.11,0,16.66,7.12,17.17,16.21l.05.94h22.96V36.5c0-6.36-5.17-11.53-11.53-11.53h-51.56l.53,1.36c2.46,6.28,3.71,12.89,3.71,19.64v.78c0,6.13,3.35,11.75,8.75,14.67,7.92,4.28,12.83,12.53,12.83,21.52v1.99c0,1.38-1.13,2.51-2.51,2.51h-28.91v17.05l1.41-.63c2.37-1.06,4.91-1.6,7.55-1.6,3.72,0,7.31,1.11,10.38,3.2l.5.34.54-.29c2.51-1.35,5.25-2.04,8.13-2.04ZM17.55,24.97c-6.36,0-11.53,5.17-11.53,11.53v84.14h22.96l.05-.94c.52-9.09,8.06-16.21,17.17-16.21,2.89,0,5.62.69,8.13,2.04l.54.29.5-.34c3.07-2.09,6.66-3.2,10.38-3.2,2.64,0,5.18.54,7.55,1.6l1.41.63v-17.05h-28.91c-1.38,0-2.51-1.13-2.51-2.51v-1.99c0-9,4.92-17.24,12.83-21.52,5.39-2.92,8.75-8.54,8.75-14.67v-.79c0-6.75,1.25-13.35,3.71-19.64l.53-1.36H17.55ZM114.85,82.43h16.58l-.09-1.08c-.54-6.57-4.33-12.36-10.13-15.5-1.7-.92-3.27-2.06-4.67-3.4l-1.69-1.61v21.59ZM89.25,7.03c-12.13,9.17-19.37,23.74-19.37,38.95v36.45h39.94v-36.45c0-15.21-7.24-29.77-19.37-38.95l-.6-.46-.6.46ZM63.18,62.45c-1.4,1.34-2.97,2.48-4.67,3.4-5.8,3.14-9.59,8.93-10.13,15.5l-.09,1.08h16.58v-21.59l-1.69,1.61Z"/>
  </g>
  <path d="M89.86,57c-5.64,0-10.23-4.59-10.23-10.23s4.59-10.23,10.23-10.23,10.23,4.59,10.23,10.23-4.59,10.23-10.23,10.23ZM89.86,41.55c-2.87,0-5.21,2.34-5.21,5.21s2.34,5.21,5.21,5.21,5.21-2.34,5.21-5.21-2.34-5.21-5.21-5.21Z"/>
  <path d="M89.86,125.67c-.66,0-1.31-.27-1.77-.74-.47-.47-.74-1.11-.74-1.78s.27-1.31.73-1.77c.47-.47,1.11-.74,1.77-.74s1.31.27,1.77.74c.47.47.74,1.11.74,1.77s-.27,1.31-.74,1.77c-.47.47-1.11.74-1.77.74Z"/>
</svg>