<?xml version="1.0" encoding="UTF-8"?>
<svg id="Scalability" xmlns="http://www.w3.org/2000/svg" xmlns:xlink="http://www.w3.org/1999/xlink" viewBox="0 0 179.71 179.71">
  <defs>
    <style>
      .cls-1 {
        fill: none;
      }

      .cls-2 {
        clip-path: url(#clippath-1);
      }
    </style>
    <clipPath id="clippath-1">
      <rect class="cls-1" y="7.02" width="179.71" height="165.67"/>
    </clipPath>
  </defs>
  <g class="cls-2">
    <path d="M118.79,65.66c-.67,0-1.3-.26-1.78-.74-.47-.47-.73-1.1-.73-1.77s.26-1.3.74-1.78l13.63-13.63c.47-.47,1.1-.73,1.78-.73s1.3.26,1.78.73l8.46,8.46,12.71-12.71-1.99-.27c-1.23-.17-2.17-1.24-2.17-2.48,0-1.38,1.13-2.51,2.51-2.51h7.96c1.38,0,2.51,1.13,2.51,2.51v7.96c0,1.38-1.13,2.51-2.51,2.51-1.25,0-2.31-.93-2.48-2.17l-.27-1.99-14.48,14.49c-.47.47-1.11.73-1.78.73s-1.3-.26-1.78-.74l-8.46-8.46-11.85,11.86c-.48.47-1.11.73-1.78.73Z"/>
    <path d="M89.75,171.69c-.38,0-.75-.08-1.09-.25l-25.77-12.42v3.14c0,1.38-1.13,2.51-2.51,2.51H3.51c-1.38,0-2.51-1.13-2.51-2.51v-18.03c0-1.38,1.13-2.51,2.51-2.51h16.44v-17.25c0-1,.59-1.9,1.51-2.3l.81-.35-.25-.85c-1.37-4.63-2.06-9.45-2.06-14.32v-21.11c0-1.38,1.13-2.51,2.51-2.51s2.51,1.13,2.51,2.51v21.11c0,5,.81,9.92,2.41,14.63l.23.68h11.29V46.45c0-1.08.69-2.04,1.72-2.38l48.33-15.96c.25-.08.52-.13.78-.13s.53.04.79.13l11.8,3.9.32-.93c1.39-3.98,4.21-7.26,7.95-9.23l2.08-1.1-22.95-7.58L24.97,34.56v19.29c0,1.38-1.13,2.51-2.51,2.51s-2.51-1.13-2.51-2.51v-21.11c0-1.08.69-2.04,1.72-2.38L88.96,8.15c.25-.08.52-.13.79-.13s.53.04.79.13l35.75,11.81h35.87c9.13,0,16.55,7.42,16.55,16.55v30.89c0,9.13-7.42,16.55-16.55,16.55h-2.62v22.61c0,9.53-2.68,18.84-7.75,26.91-5.07,8.07-12.29,14.53-20.88,18.67l-40.07,19.31c-.34.16-.71.25-1.09.25ZM62.88,153.45l26.86,12.95,38.98-18.79c15.67-7.55,25.79-23.67,25.79-41.05v-22.61h-13.93v22.61c0,12.07-7.03,23.26-17.9,28.5l-31.84,15.35c-.34.16-.71.25-1.09.25s-.75-.08-1.09-.25l-25.77-12.42v15.47ZM43.93,159.65h13.93v-48.33h-13.93v48.33ZM24.97,159.65h13.93v-32.77h-13.93v32.77ZM6.02,159.65h13.93v-13.01H6.02v13.01ZM43.93,48.27v58.03h16.44c1.38,0,2.51,1.13,2.51,2.51v23.6l26.86,12.95,30.76-14.82c9.15-4.41,15.06-13.82,15.06-23.98v-22.61h-17.28c-9.13,0-16.55-7.42-16.55-16.55v-30.3l-11.99-3.96-45.82,15.13ZM118.29,24.97c-6.36,0-11.53,5.17-11.53,11.53v30.89c0,6.36,5.17,11.53,11.53,11.53h43.88c6.36,0,11.53-5.17,11.53-11.53v-30.89c0-6.36-5.17-11.53-11.53-11.53h-43.88Z"/>
  </g>
  <path d="M58.16,82.54c-1.38,0-2.51-1.13-2.51-2.51s1.13-2.51,2.51-2.51h17.55c1.38,0,2.51,1.13,2.51,2.51s-1.13,2.51-2.51,2.51h-17.55Z"/>
  <path d="M58.16,65.7c-1.38,0-2.51-1.13-2.51-2.51s1.13-2.51,2.51-2.51h27.38c1.38,0,2.51,1.13,2.51,2.51s-1.13,2.51-2.51,2.51h-27.38Z"/>
  <path d="M77.11,121.85c-1.38,0-2.51-1.13-2.51-2.51s1.13-2.51,2.51-2.51h24.05c1.38,0,2.51,1.13,2.51,2.51s-1.13,2.51-2.51,2.51h-24.05Z"/>
  <path d="M77.11,105c-1.38,0-2.51-1.13-2.51-2.51s1.13-2.51,2.51-2.51h38.26c1.38,0,2.51,1.13,2.51,2.51s-1.13,2.51-2.51,2.51h-38.26Z"/>
  <path d="M22.46,72.16c-.66,0-1.31-.27-1.77-.73-.47-.47-.74-1.11-.74-1.78s.27-1.31.74-1.77c.47-.47,1.12-.74,1.77-.74s1.31.27,1.77.74c.47.47.74,1.11.74,1.77s-.27,1.31-.74,1.78c-.47.47-1.11.73-1.77.73Z"/>
</svg>