<?xml version="1.0" encoding="UTF-8"?>
<svg id="Scalability" xmlns="http://www.w3.org/2000/svg" viewBox="0 0 179.71 179.71">
  <path d="M22.79,178.28c-1.37,0-2.49-1.12-2.49-2.49v-92.52h-5.19c-1.37,0-2.49-1.12-2.49-2.49v-19.56c0-1.38,1.12-2.49,2.49-2.49h72.27v-24.36h-6.15c-12.02,0-21.8-9.78-21.8-21.79V3.93c0-1.38,1.12-2.49,2.49-2.49h8.64c10.13,0,18.84,6.88,21.2,16.74l.43,1.78,1.27-1.32c4.16-4.33,9.74-6.72,15.71-6.72h8.64c1.37,0,2.49,1.12,2.49,2.49v8.64c0,12.02-9.78,21.79-21.79,21.79h-6.15v13.88h72.24c1.37,0,2.49,1.12,2.49,2.49v19.56c0,1.38-1.12,2.49-2.49,2.49h-5.19v92.52c0,1.38-1.12,2.49-2.49,2.49H22.79ZM131.77,109.02c1.37,0,2.49,1.12,2.49,2.49v61.78h20.16v-90.02h-48.85c-1.37,0-2.49-1.12-2.49-2.49s1.12-2.49,2.49-2.49h56.54v-14.57H17.6v14.57h56.54c1.37,0,2.49,1.12,2.49,2.49s-1.12,2.49-2.49,2.49H25.28v90.02h20.16v-61.78c0-1.38,1.12-2.49,2.49-2.49h83.83ZM92.35,173.29h36.93v-59.28h-36.93v59.28ZM50.43,173.29h36.93v-59.28h-36.93v59.28ZM109.17,16.9c-9.27,0-16.81,7.54-16.81,16.81v6.15h6.15c9.27,0,16.81-7.54,16.81-16.81v-6.15h-6.15ZM64.42,12.57c0,9.27,7.54,16.81,16.81,16.81h6.15v-6.15c0-9.27-7.54-16.81-16.81-16.81h-6.15v6.15Z"/>
  <path d="M103.91,153.49c-.67,0-1.29-.26-1.76-.73-.97-.97-.97-2.55,0-3.53l13.97-13.97c.47-.47,1.1-.73,1.76-.73s1.29.26,1.76.73c.97.97.97,2.55,0,3.53l-13.97,13.97c-.47.47-1.1.73-1.76.73Z"/>
  <path d="M61.91,153.49c-.67,0-1.29-.26-1.76-.73-.47-.47-.73-1.1-.73-1.76s.26-1.29.73-1.76l13.97-13.97c.47-.47,1.1-.73,1.76-.73s1.29.26,1.76.73c.97.97.97,2.55,0,3.53l-13.97,13.97c-.47.47-1.1.73-1.76.73Z"/>
  <path d="M89.86,83.23c-.66,0-1.3-.27-1.76-.73-.46-.47-.73-1.11-.73-1.77s.27-1.3.73-1.76c.46-.46,1.1-.72,1.76-.72s1.3.26,1.76.73c.46.46.73,1.11.73,1.76s-.27,1.3-.73,1.77c-.46.46-1.1.73-1.76.73Z"/>
</svg>