<?xml version="1.0" encoding="UTF-8"?>
<svg id="Scalability" xmlns="http://www.w3.org/2000/svg" viewBox="0 0 179.71 179.71">
  <path d="M76.69,24.98c-1.38,0-2.51-1.13-2.51-2.51s1.13-2.51,2.51-2.51h49.51c1.38,0,2.51,1.13,2.51,2.51s-1.13,2.51-2.51,2.51h-49.51Z"/>
  <path d="M35.96,24.98c-.66,0-1.31-.27-1.77-.73-.47-.47-.74-1.11-.74-1.77s.27-1.31.74-1.77c.47-.47,1.11-.74,1.77-.74s1.31.27,1.77.73c.47.47.74,1.12.74,1.78s-.27,1.3-.74,1.78c-.46.46-1.11.73-1.77.73Z"/>
  <path d="M18.92,24.98c-.66,0-1.31-.27-1.77-.74-.47-.47-.73-1.12-.73-1.77s.27-1.31.74-1.78c.46-.46,1.11-.73,1.77-.73s1.31.27,1.77.73c.47.47.74,1.12.74,1.78s-.27,1.3-.74,1.78c-.47.47-1.11.74-1.77.74Z"/>
  <path d="M53,24.98c-.66,0-1.31-.27-1.77-.74-.47-.47-.74-1.11-.74-1.77s.27-1.31.74-1.78c.46-.46,1.11-.73,1.77-.73s1.31.27,1.77.73c.47.47.74,1.12.74,1.78s-.27,1.3-.74,1.78c-.47.47-1.11.74-1.77.74Z"/>
  <path d="M90.38,93.85c-1.38,0-2.51-1.13-2.51-2.51s1.13-2.51,2.51-2.51h40.39c1.38,0,2.51,1.13,2.51,2.51s-1.13,2.51-2.51,2.51h-40.39Z"/>
  <path d="M133.03,175.2c-1.38,0-2.51-1.13-2.51-2.51s1.13-2.51,2.51-2.51h29.13c6.36,0,11.53-5.17,11.53-11.53v-36.5c0-6.36-5.17-11.53-11.53-11.53h-89.86c-6.36,0-11.53,5.17-11.53,11.53v36.5c0,6.36,5.17,11.53,11.53,11.53h29.13c1.38,0,2.51,1.13,2.51,2.51s-1.13,2.51-2.51,2.51h-29.13c-9.13,0-16.55-7.42-16.55-16.55v-21.35H3.51c-1.38,0-2.51-1.13-2.51-2.51V7.03c0-1.38,1.13-2.51,2.51-2.51h146.02c1.38,0,2.51,1.13,2.51,2.51v98.57h10.13c9.13,0,16.55,7.42,16.55,16.55v36.5c0,9.13-7.42,16.55-16.55,16.55h-29.13ZM6.02,132.28h49.74v-10.14c0-9.13,7.42-16.55,16.55-16.55h74.71V40.42H6.02v91.86ZM6.02,35.4h141V9.54H6.02v25.87Z"/>
  <path d="M90.38,78.49c-.67,0-1.3-.26-1.77-.74-.47-.47-.74-1.1-.74-1.77s.26-1.3.74-1.78l11.14-11.14c.47-.47,1.1-.73,1.77-.73s1.3.26,1.78.73l8.46,8.46,12.71-12.71-1.99-.28c-1.23-.17-2.16-1.24-2.16-2.48,0-1.38,1.13-2.51,2.51-2.51h7.96c1.38,0,2.51,1.13,2.51,2.51v7.96c0,1.38-1.13,2.51-2.51,2.51-1.25,0-2.31-.93-2.48-2.16l-.27-2-14.49,14.49c-.47.47-1.1.73-1.77.73s-1.3-.26-1.78-.74l-8.46-8.46-9.37,9.37c-.48.48-1.11.74-1.77.74Z"/>
  <path d="M117.24,175.2c-.66,0-1.31-.27-1.77-.73-.47-.47-.74-1.12-.74-1.78s.27-1.31.74-1.77c.47-.47,1.11-.73,1.77-.73s1.31.27,1.77.73c.47.47.74,1.11.74,1.77s-.27,1.31-.74,1.77c-.47.47-1.11.74-1.77.74Z"/>
  <path d="M45.27,105.07c-6.68,0-12.95-2.59-17.66-7.3s-7.3-10.98-7.3-17.66,2.59-12.95,7.3-17.66c4.71-4.71,10.98-7.3,17.66-7.3s12.95,2.59,17.66,7.3c4.72,4.72,7.31,10.99,7.31,17.66s-2.6,12.94-7.31,17.66c-4.71,4.71-10.98,7.3-17.66,7.3ZM47.78,80.11c0,.67-.26,1.3-.74,1.78l-14.02,14.02,1,.68c3.32,2.27,7.21,3.47,11.26,3.47,5.33,0,10.34-2.07,14.1-5.83,3.77-3.77,5.84-8.78,5.84-14.11s-2.07-10.34-5.84-14.11c-2.85-2.85-6.46-4.75-10.42-5.49l-1.18-.22v19.82ZM41.58,60.5c-3.96.74-7.56,2.64-10.42,5.49-6.78,6.78-7.78,17.45-2.37,25.36l.68,1,13.29-13.28v-18.78l-1.18.22Z"/>
</svg>