<?xml version="1.0" encoding="UTF-8"?>
<svg id="Scalability" xmlns="http://www.w3.org/2000/svg" viewBox="0 0 179.73 179.73">
  <path d="M118.15,91.23c-1.44,0-2.62-1.17-2.62-2.62v-41.12c0-1.44,1.17-2.62,2.62-2.62h22.24L89.86,4.95l-50.52,39.92h22.24c1.44,0,2.62,1.17,2.62,2.62v41.12c0,1.44-1.17,2.62-2.62,2.62s-2.62-1.17-2.62-2.62v-38.5h-27.15c-1.11,0-2.11-.71-2.47-1.76-.37-1.05-.02-2.22.85-2.91L88.24-.44c.46-.36,1.04-.56,1.62-.56s1.16.2,1.62.56l58.06,45.87c.87.69,1.21,1.86.85,2.91-.37,1.05-1.36,1.76-2.47,1.76h-27.15v38.51c0,1.44-1.17,2.62-2.62,2.62Z"/>
  <path d="M18.12,131.24c-1.44,0-2.62-1.17-2.62-2.62v-39.97H2.12c-1.11,0-2.11-.71-2.47-1.76-.37-1.05-.02-2.22.85-2.91l31.2-24.65c.46-.36,1.04-.56,1.62-.56s1.16.2,1.62.56l19.03,15.04c.55.43.9,1.05.98,1.75.08.69-.11,1.38-.55,1.93-.5.63-1.25,1-2.05,1-.59,0-1.16-.2-1.62-.56l-17.4-13.75-23.67,18.7h8.47c1.44,0,2.62,1.17,2.62,2.62v42.58c0,1.44-1.17,2.62-2.62,2.62Z"/>
  <path d="M161.61,131.24c-1.44,0-2.62-1.17-2.62-2.62v-42.58c0-1.44,1.17-2.62,2.62-2.62h8.47l-23.67-18.7-17.4,13.75c-.46.36-1.04.56-1.62.56-.81,0-1.55-.36-2.05-1-.43-.55-.63-1.23-.55-1.93.08-.69.43-1.32.98-1.75l19.02-15.03c.46-.36,1.04-.56,1.62-.56s1.16.2,1.62.56l31.2,24.66c.87.69,1.21,1.86.85,2.91-.37,1.05-1.36,1.76-2.47,1.76h-13.38v39.97c0,1.44-1.17,2.62-2.62,2.62Z"/>
  <path d="M125.75,180.73c-16.17,0-30.28-4.49-35.89-11.3-5.6,6.81-19.71,11.3-35.89,11.3-21.95,0-38.5-7.75-38.5-18.02v-18.42c0-9.73,15.36-17.38,35.89-17.98v-18c0-10.28,16.55-18.02,38.5-18.02s38.5,7.75,38.5,18.02v18c20.53.61,35.88,8.26,35.88,17.98v18.42c0,10.28-16.55,18.02-38.5,18.02ZM92.48,162.7c0,6.05,13.66,12.79,33.27,12.79s33.27-6.74,33.27-12.79v-9.15c-6.75,5.44-19.17,8.75-33.27,8.75s-26.52-3.31-33.27-8.75v9.15ZM20.71,162.7c0,6.05,13.66,12.79,33.27,12.79s33.27-6.74,33.27-12.79v-9.15c-6.75,5.44-19.17,8.75-33.27,8.75s-26.52-3.31-33.27-8.75v9.15ZM92.5,144.71c.62,5.94,14.1,12.36,33.25,12.36s33.27-6.74,33.27-12.79-13.09-12.48-31.94-12.78c-4.13,7.47-17.81,12.7-34.57,13.2ZM52.65,131.5c-18.86.29-31.95,6.92-31.95,12.78s13.66,12.79,33.27,12.79,32.62-6.43,33.25-12.36c-16.76-.5-30.44-5.73-34.57-13.2ZM56.59,126.72c0,6.05,13.66,12.79,33.27,12.79s33.27-6.74,33.27-12.79v-9.15c-6.75,5.44-19.17,8.75-33.27,8.75s-26.52-3.31-33.27-8.75v9.15ZM89.86,95.51c-19.61,0-33.27,6.74-33.27,12.79s13.66,12.79,33.27,12.79,33.27-6.74,33.27-12.79-13.66-12.79-33.27-12.79Z"/>
</svg>