<?xml version="1.0" encoding="UTF-8"?>
<svg id="Scalability" xmlns="http://www.w3.org/2000/svg" viewBox="0 0 179.73 179.73">
  <path d="M165.69,180.69c-1.15,0-2.17-.73-2.53-1.82-.23-.68-.18-1.4.14-2.04.05-.1.11-.2.17-.29H5.86c-1.47,0-2.67-1.2-2.67-2.67V16.27c-.43.28-.94.45-1.48.45-.29,0-.57-.05-.85-.14-.68-.23-1.23-.71-1.54-1.35-.32-.64-.37-1.37-.14-2.04L3.33.86c.37-1.09,1.38-1.82,2.53-1.82s2.17.73,2.53,1.82l4.15,12.33c.23.68.18,1.4-.14,2.04-.32.64-.87,1.12-1.54,1.34-.28.09-.57.14-.85.14-.54,0-1.05-.16-1.48-.45v154.02c9.22-2.86,35.68-12.04,63.99-30.87,10.04-6.67,19.5-14.07,28.13-21.98-.16-.55-.24-1.11-.24-1.69,0-3.32,2.7-6.02,6.02-6.02.64,0,1.27.11,1.89.32,12.82-12.98,23.6-27.3,32.06-42.58-.84-1.06-1.3-2.36-1.3-3.72,0-3.32,2.7-6.02,6.02-6.02.1,0,.2,0,.29,0,6.11-12.8,10.74-26.36,13.75-40.33.27-1.22,1.37-2.11,2.62-2.11.19,0,.38.02.56.06.7.15,1.3.56,1.68,1.17.39.6.52,1.32.37,2.01-3.14,14.51-7.94,28.6-14.28,41.88.68,1,1.03,2.14,1.03,3.33,0,3.25-2.59,5.91-5.82,6.02-4.91,8.96-10.6,17.61-16.93,25.73-4.91,6.31-10.37,12.49-16.23,18.4.2.61.31,1.23.31,1.86,0,3.32-2.7,6.02-6.02,6.02-.71,0-1.41-.13-2.09-.39-8.83,8.07-18.57,15.65-28.95,22.55-20.75,13.79-40.67,22.52-53.14,27.25h141.21c-.06-.09-.12-.19-.17-.29-.32-.64-.37-1.37-.14-2.04.37-1.09,1.38-1.82,2.53-1.82.29,0,.58.05.86.14l12.33,4.15c1.09.37,1.82,1.38,1.82,2.53s-.73,2.17-1.82,2.53l-12.33,4.15c-.28.09-.56.14-.85.14Z"/>
  <path d="M20.63,66.42c-1.47,0-2.67-1.2-2.67-2.67s1.2-2.67,2.67-2.67h7.37c1.47,0,2.67,1.2,2.67,2.67s-1.2,2.67-2.67,2.67h-7.37Z"/>
  <path d="M40.83,66.42c-1.47,0-2.67-1.2-2.67-2.67s1.2-2.67,2.67-2.67h7.37c1.47,0,2.67,1.2,2.67,2.67s-1.2,2.67-2.67,2.67h-7.37Z"/>
  <path d="M61.03,66.42c-1.47,0-2.67-1.2-2.67-2.67s1.2-2.67,2.67-2.67h7.37c1.47,0,2.67,1.2,2.67,2.67s-1.2,2.67-2.67,2.67h-7.37Z"/>
  <path d="M81.23,66.42c-1.47,0-2.67-1.2-2.67-2.67s1.2-2.67,2.67-2.67h7.37c1.47,0,2.67,1.2,2.67,2.67s-1.2,2.67-2.67,2.67h-7.37Z"/>
  <path d="M101.43,66.42c-1.47,0-2.67-1.2-2.67-2.67s1.2-2.67,2.67-2.67h7.37c1.47,0,2.67,1.2,2.67,2.67s-1.2,2.67-2.67,2.67h-7.37Z"/>
  <path d="M121.63,66.42c-1.47,0-2.67-1.2-2.67-2.67s1.2-2.67,2.67-2.67h7.37c1.47,0,2.67,1.2,2.67,2.67s-1.2,2.67-2.67,2.67h-7.37Z"/>
  <path d="M145.1,100.42c-1.47,0-2.67-1.2-2.67-2.67v-7.37c0-1.47,1.2-2.67,2.67-2.67s2.67,1.2,2.67,2.67v7.37c0,1.47-1.2,2.67-2.67,2.67Z"/>
  <path d="M145.1,120.62c-1.47,0-2.67-1.2-2.67-2.67v-7.37c0-1.47,1.2-2.67,2.67-2.67s2.67,1.2,2.67,2.67v7.37c0,1.47-1.2,2.67-2.67,2.67Z"/>
  <path d="M145.1,140.82c-1.47,0-2.67-1.2-2.67-2.67v-7.37c0-1.47,1.2-2.67,2.67-2.67s2.67,1.2,2.67,2.67v7.37c0,1.47-1.2,2.67-2.67,2.67Z"/>
  <path d="M145.1,161.02c-1.47,0-2.67-1.2-2.67-2.67v-7.37c0-1.47,1.2-2.67,2.67-2.67s2.67,1.2,2.67,2.67v7.37c0,1.47-1.2,2.67-2.67,2.67Z"/>
  <path d="M106.43,140.82c-1.47,0-2.67-1.2-2.67-2.67v-7.37c0-1.47,1.2-2.67,2.67-2.67s2.67,1.2,2.67,2.67v7.37c0,1.47-1.2,2.67-2.67,2.67Z"/>
  <path d="M106.43,161.02c-1.47,0-2.67-1.2-2.67-2.67v-7.37c0-1.47,1.2-2.67,2.67-2.67s2.67,1.2,2.67,2.67v7.37c0,1.47-1.2,2.67-2.67,2.67Z"/>
  <path d="M20.63,118.43c-1.47,0-2.67-1.2-2.67-2.67s1.2-2.67,2.67-2.67h7.37c1.47,0,2.67,1.2,2.67,2.67s-1.2,2.67-2.67,2.67h-7.37Z"/>
  <path d="M40.83,118.43c-1.47,0-2.67-1.2-2.67-2.67s1.2-2.67,2.67-2.67h7.37c1.47,0,2.67,1.2,2.67,2.67s-1.2,2.67-2.67,2.67h-7.37Z"/>
  <path d="M61.03,118.43c-1.47,0-2.67-1.2-2.67-2.67s1.2-2.67,2.67-2.67h7.37c1.47,0,2.67,1.2,2.67,2.67s-1.2,2.67-2.67,2.67h-7.37Z"/>
  <path d="M81.23,118.43c-1.47,0-2.67-1.2-2.67-2.67s1.2-2.67,2.67-2.67h7.37c1.47,0,2.67,1.2,2.67,2.67s-1.2,2.67-2.67,2.67h-7.37Z"/>
</svg>