<?xml version="1.0" encoding="UTF-8"?>
<svg id="Scalability" xmlns="http://www.w3.org/2000/svg" viewBox="0 0 179.73 179.73">
  <g>
    <path d="M30.27,43.04c-6.6,0-11.97-5.37-11.97-11.96s5.37-11.97,11.97-11.97,11.96,5.37,11.96,11.97-5.37,11.96-11.96,11.96ZM30.27,24.36c-3.7,0-6.71,3.01-6.71,6.71s3.01,6.71,6.71,6.71,6.71-3.01,6.71-6.71-3.01-6.71-6.71-6.71Z"/>
    <path d="M63.76,75.05c-6.6,0-11.96-5.37-11.96-11.97s5.37-11.96,11.96-11.96,11.96,5.37,11.96,11.96-5.37,11.97-11.96,11.97ZM63.76,56.37c-3.7,0-6.71,3.01-6.71,6.71s3.01,6.71,6.71,6.71,6.71-3.01,6.71-6.71-3.01-6.71-6.71-6.71Z"/>
    <path d="M31.91,75.05c-.47,0-.94-.13-1.34-.37-.6-.36-1.03-.93-1.2-1.61-.17-.68-.07-1.39.29-1.99l30.21-50.68c.47-.79,1.34-1.28,2.26-1.28.47,0,.94.13,1.34.37.6.36,1.03.93,1.2,1.61.17.68.07,1.39-.29,1.99l-30.21,50.68c-.47.79-1.33,1.28-2.26,1.28Z"/>
  </g>
  <path d="M71.39,180.73c-1.45,0-2.63-1.18-2.63-2.63v-46.74c0-1.45,1.18-2.63,2.63-2.63h14l-38.38-33.43-38.38,33.43h14c1.45,0,2.63,1.18,2.63,2.63v46.74c0,1.45-1.18,2.63-2.63,2.63s-2.63-1.18-2.63-2.63v-44.12H1.63c-1.09,0-2.08-.69-2.46-1.71-.38-1.02-.09-2.18.73-2.9l45.39-39.53c.48-.42,1.09-.65,1.72-.65s1.25.23,1.72.65l45.39,39.53c.82.72,1.12,1.88.73,2.9-.38,1.02-1.37,1.7-2.46,1.7h-18.39v44.12c0,1.45-1.18,2.63-2.63,2.63Z"/>
  <g>
    <path d="M157.09,180.73c-1.45,0-2.63-1.18-2.63-2.63v-4.64c0-1.45,1.18-2.63,2.63-2.63s2.62,1.18,2.62,2.63v4.64c0,1.45-1.18,2.63-2.62,2.63Z"/>
    <path d="M157.09,165.44c-1.45,0-2.63-1.18-2.63-2.63v-8.86c0-1.45,1.18-2.62,2.63-2.62s2.62,1.18,2.62,2.62v8.86c0,1.45-1.18,2.63-2.62,2.63ZM157.09,145.94c-1.45,0-2.63-1.18-2.63-2.63v-8.86c0-1.45,1.18-2.63,2.63-2.63s2.62,1.18,2.62,2.63v8.86c0,1.45-1.18,2.63-2.62,2.63ZM157.09,126.44c-1.45,0-2.63-1.18-2.63-2.62v-8.87c0-1.45,1.18-2.62,2.63-2.62s2.62,1.18,2.62,2.62v8.87c0,1.45-1.18,2.62-2.62,2.62ZM157.09,106.94c-1.45,0-2.63-1.18-2.63-2.63v-8.86c0-1.45,1.18-2.63,2.63-2.63s2.62,1.18,2.62,2.63v8.86c0,1.45-1.18,2.63-2.62,2.63ZM157.09,87.43c-1.45,0-2.63-1.18-2.63-2.62v-8.86c0-1.45,1.18-2.63,2.63-2.63s2.62,1.18,2.62,2.63v8.86c0,1.45-1.18,2.62-2.62,2.62ZM157.09,67.93c-1.45,0-2.63-1.18-2.63-2.63v-8.86c0-1.45,1.18-2.62,2.63-2.62s2.62,1.18,2.62,2.62v8.86c0,1.45-1.18,2.63-2.62,2.63Z"/>
    <path d="M157.09,48.43c-1.45,0-2.63-1.18-2.63-2.62v-4.64c0-1.45,1.18-2.62,2.63-2.62h4.64c1.45,0,2.63,1.18,2.63,2.62s-1.18,2.63-2.63,2.63h-2.02v2.02c0,1.45-1.18,2.62-2.62,2.62Z"/>
    <path d="M173.46,43.78c-1.45,0-2.63-1.18-2.63-2.63,0-.95.51-1.79,1.27-2.25-.06-.2-.1-.41-.12-.62-.05-.7.18-1.38.64-1.9.5-.57,1.22-.9,1.98-.9.63,0,1.25.23,1.72.65l3.5,3.05c.82.71,1.12,1.88.73,2.9-.38,1.02-1.37,1.71-2.46,1.71h-4.64Z"/>
    <path d="M166.37,33.57c-.63,0-1.25-.23-1.72-.65l-6.85-5.97c-.53-.46-.85-1.1-.89-1.8-.05-.7.18-1.38.64-1.9.5-.57,1.22-.9,1.98-.9.63,0,1.25.23,1.72.65l6.85,5.97c1.09.95,1.21,2.61.25,3.7-.5.57-1.22.9-1.98.9ZM151.29,20.43c-.63,0-1.25-.23-1.72-.65l-6.85-5.97c-.53-.46-.85-1.1-.9-1.8-.05-.7.18-1.38.64-1.9.5-.57,1.22-.9,1.98-.9.63,0,1.25.23,1.73.65l6.85,5.97c1.09.95,1.21,2.61.26,3.7-.5.57-1.22.9-1.98.9Z"/>
    <path d="M129.21,7.3c-.76,0-1.48-.33-1.98-.9-.95-1.09-.84-2.75.25-3.7l3.5-3.05c.48-.42,1.09-.65,1.72-.65s1.25.23,1.72.65l3.5,3.05c1.09.95,1.21,2.61.26,3.7-.5.57-1.22.9-1.98.9-.63,0-1.24-.23-1.72-.64l-1.78-1.55-1.78,1.55c-.48.42-1.09.65-1.72.65Z"/>
    <path d="M99.05,33.57c-.76,0-1.48-.33-1.98-.9-.95-1.09-.84-2.75.25-3.7l6.85-5.97c.48-.42,1.09-.65,1.72-.65.76,0,1.48.33,1.98.9.46.53.69,1.2.64,1.9-.05.7-.37,1.34-.9,1.8l-6.85,5.97c-.48.42-1.09.65-1.72.65ZM114.13,20.43c-.76,0-1.48-.33-1.98-.9-.46-.53-.69-1.2-.64-1.9.05-.7.37-1.34.89-1.8l6.85-5.97c.48-.42,1.09-.65,1.73-.65.76,0,1.48.33,1.98.9.46.53.69,1.2.64,1.9-.05.7-.37,1.34-.9,1.8l-6.85,5.97c-.48.42-1.09.65-1.72.65Z"/>
    <path d="M87.32,43.78c-1.09,0-2.08-.69-2.46-1.71-.38-1.02-.09-2.19.73-2.9l3.5-3.05c.48-.42,1.09-.65,1.72-.65.76,0,1.48.33,1.98.9.46.53.69,1.2.64,1.9-.01.21-.05.42-.12.62.76.46,1.27,1.29,1.27,2.25,0,1.45-1.18,2.63-2.63,2.63h-4.64Z"/>
    <path d="M108.33,48.43c-1.45,0-2.63-1.18-2.63-2.62v-2.02h-2.02c-1.45,0-2.63-1.18-2.63-2.63s1.18-2.62,2.63-2.62h4.64c1.45,0,2.63,1.18,2.63,2.62v4.64c0,1.45-1.18,2.62-2.63,2.62Z"/>
    <path d="M108.33,165.44c-1.45,0-2.63-1.18-2.63-2.63v-8.86c0-1.45,1.18-2.62,2.63-2.62s2.63,1.18,2.63,2.62v8.86c0,1.45-1.18,2.63-2.63,2.63ZM108.33,145.94c-1.45,0-2.63-1.18-2.63-2.63v-8.86c0-1.45,1.18-2.63,2.63-2.63s2.63,1.18,2.63,2.63v8.86c0,1.45-1.18,2.63-2.63,2.63ZM108.33,126.44c-1.45,0-2.63-1.18-2.63-2.62v-8.87c0-1.45,1.18-2.62,2.63-2.62s2.63,1.18,2.63,2.62v8.87c0,1.45-1.18,2.62-2.63,2.62ZM108.33,106.94c-1.45,0-2.63-1.18-2.63-2.63v-8.87c0-1.45,1.18-2.63,2.63-2.63s2.63,1.18,2.63,2.63v8.87c0,1.45-1.18,2.63-2.63,2.63ZM108.33,87.43c-1.45,0-2.63-1.18-2.63-2.62v-8.86c0-1.45,1.18-2.63,2.63-2.63s2.63,1.18,2.63,2.63v8.86c0,1.45-1.18,2.62-2.63,2.62ZM108.33,67.93c-1.45,0-2.63-1.18-2.63-2.63v-8.86c0-1.45,1.18-2.62,2.63-2.62s2.63,1.18,2.63,2.62v8.86c0,1.45-1.18,2.63-2.63,2.63Z"/>
    <path d="M108.33,180.73c-1.45,0-2.63-1.18-2.63-2.63v-4.64c0-1.45,1.18-2.63,2.63-2.63s2.63,1.18,2.63,2.63v4.64c0,1.45-1.18,2.63-2.63,2.63Z"/>
  </g>
</svg>