<?xml version="1.0" encoding="UTF-8"?>
<svg id="Scalability" xmlns="http://www.w3.org/2000/svg" viewBox="0 0 179.71 179.71">
  <path d="M99.48,82.91c-.9,0-1.79-.23-2.58-.66-1.73-.95-2.8-2.75-2.8-4.72v-16.6c0-1.97,1.07-3.78,2.8-4.73.79-.43,1.68-.66,2.58-.66,1.03,0,2.04.29,2.91.85l12.95,8.3c1.55,1,2.48,2.69,2.48,4.53s-.93,3.54-2.48,4.53l-12.95,8.3c-.87.56-1.88.85-2.91.85ZM99.1,78.23l14.06-9.01-14.06-9.01v18.02Z"/>
  <path d="M103.15,99.88c-16.9,0-30.66-13.75-30.66-30.66s13.75-30.66,30.66-30.66,30.66,13.75,30.66,30.66-13.75,30.66-30.66,30.66ZM103.15,43.56c-14.15,0-25.66,11.51-25.66,25.66s11.51,25.66,25.66,25.66,25.66-11.51,25.66-25.66-11.51-25.66-25.66-25.66Z"/>
  <path d="M17.8,168.96c-9.09,0-16.49-7.4-16.49-16.49v-30.78c0-9.09,7.4-16.49,16.49-16.49h10.09V27.25c0-9.09,7.4-16.49,16.49-16.49h117.53c9.09,0,16.49,7.4,16.49,16.49v83.95c0,9.09-7.4,16.49-16.49,16.49h-27.46c-1.38,0-2.5-1.12-2.5-2.5s1.12-2.5,2.5-2.5h27.46c6.34,0,11.49-5.16,11.49-11.49V27.25c0-6.34-5.16-11.49-11.49-11.49H44.38c-6.34,0-11.49,5.16-11.49,11.49v77.95h28.63c9.09,0,16.49,7.4,16.49,16.49v1h24.96c1.38,0,2.5,1.12,2.5,2.5s-1.12,2.5-2.5,2.5h-24.96v24.79c0,9.09-7.4,16.49-16.49,16.49H17.8ZM17.8,110.19c-6.34,0-11.49,5.16-11.49,11.49v30.78c0,6.34,5.16,11.49,11.49,11.49h43.72c6.34,0,11.49-5.16,11.49-11.49v-30.78c0-6.34-5.16-11.49-11.49-11.49H17.8Z"/>
  <path d="M18.3,150.74c-.67,0-1.29-.26-1.77-.73-.97-.97-.97-2.56,0-3.53l13.58-13.58c.47-.47,1.1-.73,1.77-.73s1.29.26,1.77.73l8.43,8.43,12.67-12.67-1.99-.27c-1.23-.17-2.15-1.23-2.15-2.47,0-1.38,1.12-2.5,2.5-2.5h7.93c1.38,0,2.5,1.12,2.5,2.5v7.93c0,1.38-1.12,2.5-2.5,2.5-1.24,0-2.3-.93-2.47-2.16l-.28-1.99-14.44,14.44c-.47.47-1.1.73-1.77.73s-1.29-.26-1.77-.73l-8.43-8.43-11.82,11.82c-.47.47-1.1.73-1.77.73Z"/>
  <path d="M118.71,127.68c-.66,0-1.3-.27-1.77-.73-.47-.46-.73-1.11-.73-1.77s.27-1.3.73-1.76c.47-.47,1.11-.73,1.77-.73s1.3.27,1.76.73c.47.47.73,1.11.73,1.77s-.27,1.3-.73,1.76c-.47.47-1.11.73-1.77.73Z"/>
</svg>