<?xml version="1.0" encoding="UTF-8"?>
<svg id="Scalability" xmlns="http://www.w3.org/2000/svg" viewBox="0 0 179.73 179.73">
  <path d="M103.22,122.98c-21.31,0-38.66-17.34-38.66-38.66s17.34-38.66,38.66-38.66,38.66,17.34,38.66,38.66-17.34,38.66-38.66,38.66ZM103.22,50.92c-18.42,0-33.4,14.99-33.4,33.41s14.99,33.4,33.4,33.4,33.4-14.99,33.4-33.4-14.99-33.41-33.4-33.41Z"/>
  <path d="M103.22,114.39c-1.45,0-2.63-1.18-2.63-2.62v-4.09c-6.57-1.24-11.42-7.02-11.42-13.78,0-1.45,1.18-2.63,2.63-2.63s2.63,1.18,2.63,2.63c0,4.85,3.94,8.79,8.79,8.79,2.43,0,4.79-1,6.47-2.75,1.58-1.64,2.4-3.75,2.32-5.94-.19-5.2-4.21-7.37-8.87-9.89-4.67-2.52-10.48-5.66-10.51-12.79-.01-2.67,1.15-5.37,3.19-7.42,1.36-1.37,3-2.33,4.77-2.81v-4.19c0-1.45,1.18-2.63,2.63-2.63s2.63,1.18,2.63,2.63v4.17c4.66,1.19,7.96,5.37,7.96,10.24,0,1.45-1.18,2.63-2.63,2.63s-2.63-1.18-2.63-2.63c0-2.94-2.39-5.33-5.33-5.33-1.32,0-2.63.58-3.67,1.63-1.05,1.05-1.67,2.43-1.66,3.7.02,4.01,3.43,5.85,7.75,8.19,5.05,2.73,11.32,6.11,11.63,14.31.13,3.63-1.21,7.11-3.78,9.78-2.04,2.11-4.72,3.55-7.62,4.1v4.09c0,1.45-1.18,2.62-2.63,2.62Z"/>
  <path d="M61.74,180.73c-1.45,0-2.63-1.18-2.63-2.62v-11.08c0-1.23.87-2.31,2.08-2.57l97.92-20.92v-11.04H8.57v45.61c0,1.45-1.18,2.62-2.63,2.62s-2.63-1.18-2.63-2.62v-48.23c0-1.45,1.18-2.62,2.63-2.62h4.56V1.63c0-1.45,1.18-2.63,2.63-2.63h53.22c.19,0,.38.02.57.06l95.4,21.37c1.21.27,2.05,1.33,2.05,2.56v15.79c0,1.45-1.18,2.62-2.63,2.62H59.72v85.84h102.02c1.45,0,2.63,1.18,2.63,2.62v15.79c0,1.23-.87,2.31-2.08,2.57l-97.92,20.92v8.96c0,1.45-1.18,2.62-2.62,2.62ZM54.47,127.24V38.78c0-1.45,1.18-2.63,2.63-2.63h102.02v-11.06L66.06,4.25H15.75v122.99h38.71Z"/>
  <path d="M152.09,86.95c-1.45,0-2.63-1.18-2.63-2.63s1.18-2.62,2.63-2.62h21.7c1.45,0,2.63,1.18,2.63,2.63s-1.18,2.63-2.63,2.63h-21.7Z"/>
  <path d="M149.61,69.58c-1.15,0-2.16-.74-2.5-1.83-.44-1.38.33-2.86,1.71-3.29l16.09-5.08c.26-.08.52-.12.79-.12,1.15,0,2.16.74,2.5,1.83.21.67.15,1.38-.17,2-.32.62-.87,1.08-1.54,1.29l-16.09,5.08c-.26.08-.53.12-.79.12Z"/>
  <path d="M165.7,109.4c-.27,0-.54-.04-.79-.12l-16.09-5.08c-1.38-.44-2.15-1.91-1.71-3.29.35-1.1,1.35-1.84,2.5-1.84.27,0,.54.04.79.12l16.09,5.08c.67.21,1.21.67,1.54,1.29.32.62.39,1.33.17,2-.35,1.1-1.35,1.83-2.5,1.83Z"/>
  <path d="M27.15,151.78c-1.45,0-2.63-1.18-2.63-2.62s1.18-2.63,2.63-2.63h14.06c1.45,0,2.63,1.18,2.63,2.63s-1.18,2.62-2.63,2.62h-14.06Z"/>
  <path d="M27.15,165.31c-1.45,0-2.63-1.18-2.63-2.62s1.18-2.63,2.63-2.63h14.06c1.45,0,2.63,1.18,2.63,2.63s-1.18,2.62-2.63,2.62h-14.06Z"/>
</svg>