<?xml version="1.0" encoding="UTF-8"?>
<svg id="Alerts_Warnings" data-name="Alerts &amp;amp; Warnings" xmlns="http://www.w3.org/2000/svg" viewBox="0 0 180 180">
  <defs>
    <style>
      .cls-1 {
        stroke: #000;
        stroke-miterlimit: 10;
        stroke-width: 2px;
      }
    </style>
  </defs>
  <path class="cls-1" d="M164.6,29.82L135.82,1.04c-.37-.37-.88-.58-1.4-.58H35.14c-4.36,0-7.92,3.55-7.92,7.92v97.06c-7.67,7.97-12.4,18.79-12.4,30.7,0,24.44,19.88,44.32,44.33,44.32,13.16,0,25-5.77,33.12-14.91h64.99c4.36,0,7.92-3.55,7.92-7.92V31.22c0-.53-.21-1.03-.58-1.4ZM136.4,7.22l22.01,22.01h-22.01V7.22ZM59.15,176.5c-22.26,0-40.36-18.11-40.36-40.36s18.11-40.36,40.36-40.36,40.36,18.11,40.36,40.36-18.11,40.36-40.36,40.36ZM157.26,161.59h-61.85c5.08-7.21,8.07-15.98,8.07-25.45,0-24.44-19.88-44.32-44.32-44.32-10.59,0-20.33,3.74-27.96,9.96V8.38c0-2.18,1.77-3.96,3.96-3.96h97.3v26.79c0,1.09.89,1.98,1.98,1.98h26.79v124.44c0,2.18-1.77,3.96-3.96,3.96Z"/>
  <path class="cls-1" d="M59.15,142.93c1.09,0,1.98-.89,1.98-1.98v-28.37c0-1.09-.89-1.98-1.98-1.98s-1.98.89-1.98,1.98v28.37c0,1.09.89,1.98,1.98,1.98Z"/>
  <path class="cls-1" d="M59.15,154.04c-2.11,0-3.82,1.71-3.82,3.82s1.71,3.82,3.82,3.82,3.82-1.71,3.82-3.82-1.71-3.82-3.82-3.82Z"/>
  <path class="cls-1" d="M83.05,33.2h26.3c1.09,0,1.98-.89,1.98-1.98s-.89-1.98-1.98-1.98h-26.3c-1.09,0-1.98.89-1.98,1.98s.89,1.98,1.98,1.98Z"/>
  <path class="cls-1" d="M141.38,47.77H51.02c-1.09,0-1.98.89-1.98,1.98s.89,1.98,1.98,1.98h90.35c1.09,0,1.98-.89,1.98-1.98s-.89-1.98-1.98-1.98Z"/>
  <path class="cls-1" d="M141.38,66.3H51.02c-1.09,0-1.98.89-1.98,1.98s.89,1.98,1.98,1.98h90.35c1.09,0,1.98-.89,1.98-1.98s-.89-1.98-1.98-1.98Z"/>
  <path class="cls-1" d="M141.38,84.83h-53.4c-1.09,0-1.98.89-1.98,1.98s.89,1.98,1.98,1.98h53.4c1.09,0,1.98-.89,1.98-1.98s-.89-1.98-1.98-1.98Z"/>
</svg>