<?xml version="1.0" encoding="UTF-8"?>
<svg id="Alerts_Warnings" data-name="Alerts &amp;amp; Warnings" xmlns="http://www.w3.org/2000/svg" viewBox="0 0 180 180">
  <defs>
    <style>
      .cls-1 {
        stroke: #000;
        stroke-miterlimit: 10;
        stroke-width: 2px;
      }
    </style>
  </defs>
  <path class="cls-1" d="M67.46,79.41c-1.91-3.3-4.57-5.12-7.49-5.12-2.93,0-5.59,1.82-7.49,5.12L1.63,167.48c-1.91,3.3-2.15,6.51-.69,9.05,1.46,2.53,4.37,3.93,8.18,3.93h101.69c3.81,0,6.71-1.4,8.18-3.93,1.46-2.53,1.22-5.75-.69-9.05l-50.85-88.07ZM115.56,174.55c-.72,1.24-2.45,1.95-4.75,1.95H9.12c-2.3,0-4.03-.71-4.75-1.95-.71-1.24-.47-3.09.69-5.09l50.85-88.07c1.15-1.99,2.63-3.14,4.06-3.14,1.43,0,2.91,1.14,4.06,3.14l50.85,88.07c1.15,1.99,1.4,3.85.69,5.09Z"/>
  <path class="cls-1" d="M59.97,143.16c1.09,0,1.98-.89,1.98-1.98v-28.21c0-1.09-.89-1.98-1.98-1.98s-1.98.89-1.98,1.98v28.21c0,1.09.89,1.98,1.98,1.98Z"/>
  <path class="cls-1" d="M59.97,154.18c-2.1,0-3.81,1.71-3.81,3.81s1.71,3.81,3.81,3.81,3.81-1.71,3.81-3.81-1.71-3.81-3.81-3.81Z"/>
  <path class="cls-1" d="M82.29,80.77c.84,0,1.63-.54,1.89-1.39,3.9-12.54,14.24-22.25,26.99-25.34,1.06-.26,1.72-1.33,1.46-2.39-.26-1.06-1.33-1.71-2.39-1.46-14.09,3.42-25.53,14.15-29.84,28.01-.33,1.04.26,2.15,1.3,2.48.2.06.39.09.59.09Z"/>
  <path class="cls-1" d="M135.82,32.25v-10.15c0-1.09-.89-1.98-1.98-1.98h-11.68c.99-8.82,8.48-15.69,17.56-15.69,10.55,0,14.8,5.49,18.91,10.8,3.37,4.35,6.85,8.85,13.45,8.85,1.09,0,1.98-.89,1.98-1.98s-.89-1.98-1.98-1.98c-4.66,0-7.15-3.23-10.32-7.31-4.26-5.5-9.55-12.34-22.05-12.34-11.26,0-20.54,8.65-21.54,19.65h-11.89c-1.09,0-1.98.89-1.98,1.98v10.15c-16.4,4.46-30.13,15.66-37.82,30.94-.49.98-.1,2.17.88,2.66.98.49,2.17.1,2.66-.88,7.4-14.71,20.79-25.37,36.73-29.26.89-.22,1.51-1.01,1.51-1.92v-9.71h23.6v9.71c0,.91.62,1.71,1.51,1.92,25.12,6.13,42.67,28.49,42.67,54.37,0,30.35-24.68,55.45-55.03,55.95-1.09.02-1.96.92-1.95,2.01.02,1.08.9,1.95,1.98,1.95h.03c15.8-.26,30.6-6.61,41.7-17.88,11.11-11.28,17.22-26.21,17.22-42.04,0-27.19-18.09-50.75-44.18-57.83Z"/>
  <path class="cls-1" d="M9.03,60.81h6.69v6.69c0,1.09.89,1.98,1.98,1.98s1.98-.89,1.98-1.98v-6.69h6.69c1.09,0,1.98-.89,1.98-1.98s-.89-1.98-1.98-1.98h-6.69v-6.69c0-1.09-.89-1.98-1.98-1.98s-1.98.89-1.98,1.98v6.69h-6.69c-1.09,0-1.98.89-1.98,1.98s.89,1.98,1.98,1.98Z"/>
  <path class="cls-1" d="M46.47,20.14h6.69v6.69c0,1.09.89,1.98,1.98,1.98s1.98-.89,1.98-1.98v-6.69h6.69c1.09,0,1.98-.89,1.98-1.98s-.89-1.98-1.98-1.98h-6.69v-6.69c0-1.09-.89-1.98-1.98-1.98s-1.98.89-1.98,1.98v6.69h-6.69c-1.09,0-1.98.89-1.98,1.98s.89,1.98,1.98,1.98Z"/>
</svg>