<?xml version="1.0" encoding="UTF-8"?>
<svg id="Alerts_Warnings" data-name="Alerts &amp;amp; Warnings" xmlns="http://www.w3.org/2000/svg" viewBox="0 0 180 180">
  <defs>
    <style>
      .cls-1 {
        stroke: #000;
        stroke-miterlimit: 10;
        stroke-width: 2px;
      }
    </style>
  </defs>
  <path class="cls-1" d="M160,128.79c-.24-.12-24.06-12.62-23.53-59.83,0-.02,0-.05,0-.07,0-20.88-13.84-38.58-32.83-44.42v-10.36c0-7.52-6.12-13.64-13.64-13.64s-13.64,6.12-13.64,13.64v10.36c-18.99,5.84-32.83,23.54-32.83,44.42,0,.02,0,.05,0,.07.53,47.21-23.29,59.71-23.53,59.83-.65.32-1.05.98-1.05,1.69v24.6c0,1.04.85,1.89,1.89,1.89h43.85c.97,13.12,11.95,23.5,25.31,23.5s24.34-10.38,25.31-23.5h43.85c1.04,0,1.89-.85,1.89-1.89v-24.6c0-.71-.41-1.37-1.05-1.69ZM80.14,14.1c0-5.44,4.42-9.86,9.86-9.86s9.86,4.42,9.86,9.86v9.38c-3.18-.69-6.48-1.06-9.86-1.06s-6.68.37-9.86,1.06v-9.38ZM90,176.69c-11.28,0-20.56-8.69-21.52-19.72h43.04c-.96,11.03-10.24,19.72-21.52,19.72ZM22.73,153.19v-20.82h21.04c1.04,0,1.89-.85,1.89-1.89s-.85-1.89-1.89-1.89h-17c7.61-6.55,20.96-23.26,20.54-59.69,0-.02,0-.04,0-.05.02-23.52,19.16-42.65,42.69-42.65s42.67,19.13,42.69,42.65c0,.01,0,.02,0,.03-.42,36.45,12.93,53.16,20.54,59.71h-66.25c-1.04,0-1.89.85-1.89,1.89s.85,1.89,1.89,1.89h70.29v20.82H22.73Z"/>
  <path class="cls-1" d="M91.89,44.45c0-1.04-.85-1.89-1.89-1.89-14.43,0-26.25,11.74-26.33,26.19v.05c0,1.04.84,1.86,1.88,1.86h0c1.04,0,1.88-.86,1.89-1.9.07-12.36,10.19-22.42,22.55-22.42,1.04,0,1.89-.85,1.89-1.89Z"/>
</svg>