<?xml version="1.0" encoding="UTF-8"?>
<svg id="Alerts_Warnings" data-name="Alerts &amp;amp; Warnings" xmlns="http://www.w3.org/2000/svg" viewBox="0 0 180 180">
  <defs>
    <style>
      .cls-1 {
        stroke: #000;
        stroke-miterlimit: 10;
        stroke-width: 2px;
      }
    </style>
  </defs>
  <g>
    <path class="cls-1" d="M92.91,110.8c-6.62,0-12-5.38-12-12s5.38-12,12-12,12,5.38,12,12-5.38,12-12,12ZM92.91,90.08c-4.81,0-8.72,3.91-8.72,8.72s3.91,8.73,8.72,8.73,8.73-3.91,8.73-8.73-3.91-8.72-8.73-8.72Z"/>
    <path class="cls-1" d="M98.03,79.61h-10.24c-.82,0-1.51-.61-1.62-1.42-.99-7.43-2.16-15.78-3.3-23.85-2.09-14.83-3.89-27.64-3.89-30.25,0-7.68,6.25-13.93,13.93-13.93s13.93,6.25,13.93,13.93c0,2.61-1.8,15.42-3.89,30.25-1.14,8.07-2.31,16.42-3.3,23.85-.11.81-.8,1.42-1.62,1.42ZM89.22,76.33h7.37c.95-7.07,2.05-14.88,3.11-22.45,1.98-14.1,3.86-27.42,3.86-29.8,0-5.87-4.78-10.65-10.65-10.65s-10.65,4.78-10.65,10.65c0,2.38,1.87,15.7,3.86,29.79,1.07,7.57,2.16,15.38,3.11,22.46Z"/>
  </g>
  <path class="cls-1" d="M120.21,170.77c-.73,0-1.39-.49-1.58-1.23-4.27-16.65-11.4-27.47-14.21-31.28-5.43,5.94-13.06,8.78-20.8,7.66-8.01-1.17-14.9-6.35-18.28-13.66-3.87,1.09-15.81,5.39-23.7,18.41-.46.77-1.46,1.02-2.23.56-.77-.45-1.04-1.44-.59-2.22,7.57-13.32,6.27-24.3,5.62-27.59-8.33-1.2-15.18-6.22-18.48-13.62-3.35-7.52-2.57-16.27,1.99-23.08-1.73-2.96-8.96-13.41-26.67-17.52-.87-.2-1.42-1.07-1.23-1.94.19-.87,1.05-1.43,1.92-1.26,17.84,3.6,29.92-1.98,33.17-3.74-1.02-8.37,2.06-16.31,8.36-21.42,6.66-5.4,15.78-6.82,23.79-3.7.84.33,1.26,1.28.93,2.12-.33.84-1.28,1.26-2.12.93-6.92-2.7-14.79-1.47-20.54,3.19-5.66,4.59-8.29,11.87-7.03,19.47.1.63-.17,1.27-.71,1.63-.45.3-8.92,5.81-23.32,6,12.45,6.33,16.64,15.2,16.86,15.68.25.54.18,1.17-.17,1.65-4.4,5.98-5.25,13.9-2.24,20.67,2.97,6.66,9.32,11.08,16.98,11.84.66.07,1.21.52,1.4,1.15.13.43,2.5,8.5-.9,20.05,9.19-8.75,19.03-10.67,19.57-10.77.77-.15,1.54.28,1.82,1.01,2.71,6.91,8.94,11.87,16.27,12.94,7.21,1.05,14.35-1.95,19.09-8.02.3-.39.76-.62,1.25-.63.49-.02.96.2,1.28.57.31.36,5.63,6.63,10.67,18.25-.42-12.39,2.21-20.01,2.37-20.45.3-.84,1.21-1.28,2.05-1.01,8.96,2.95,18.87.86,25.86-5.45,6.85-6.19,9.67-15.61,7.55-25.2-.13-.61.09-1.24.57-1.63.26-.21,4.79-3.77,13.03-4.98-7.1-3.55-9.63-8.43-9.77-8.71-.27-.55-.22-1.2.14-1.69,4.36-6.01,5.18-13.93,2.12-20.68-2.91-6.44-9.88-11.08-17.75-11.81-.61-.06-1.14-.45-1.37-1.02-.2-.5-3.82-9.93.8-23.62-10.61,9.86-20.72,10.55-21.25,10.58-.91.06-1.67-.64-1.72-1.54-.05-.9.64-1.67,1.54-1.72.23-.01,15.13-1.17,27.1-19.08.5-.74,1.5-.95,2.25-.46.75.49.97,1.49.5,2.24-9.88,15.71-7.42,28.13-6.46,31.49,8.58,1.15,16.09,6.41,19.35,13.6,3.39,7.48,2.67,16.21-1.83,23.05,1.42,2.09,6.17,7.65,17.16,9.31.88.13,1.5.95,1.38,1.84-.12.89-.94,1.52-1.82,1.4-11.16-1.36-18.27,2.37-20.55,3.81,1.93,10.38-1.3,20.5-8.77,27.25-7.44,6.72-17.82,9.19-27.45,6.62-1.08,4.16-3.56,16.72.41,33.79.2.87-.33,1.75-1.21,1.96-.13.03-.26.05-.39.05Z"/>
</svg>