<?xml version="1.0" encoding="UTF-8"?>
<svg id="Alerts_Warnings" data-name="Alerts &amp;amp; Warnings" xmlns="http://www.w3.org/2000/svg" viewBox="0 0 180 180">
  <defs>
    <style>
      .cls-1 {
        stroke: #000;
        stroke-miterlimit: 10;
        stroke-width: 2px;
      }
    </style>
  </defs>
  <path class="cls-1" d="M180,123.79V20.17c0-10.87-8.84-19.71-19.71-19.71H19.71C8.84.46,0,9.3,0,20.17v103.62C0,134.66,8.84,143.5,19.71,143.5h2.36c2.59,1.88,14.27,11.9,5.35,34.03-.33.83-.12,1.78.54,2.38.4.37.92.56,1.44.56.33,0,.67-.08.98-.24,21.19-10.9,22.52-29.94,22.27-36.73h27.84l-14.23,24.65c-1.8,3.11-2.02,6.15-.63,8.57,1.39,2.41,4.14,3.74,7.73,3.74h92.58c3.59,0,6.34-1.33,7.73-3.74,1.39-2.41,1.17-5.46-.62-8.57l-14.23-24.65h1.46c10.87,0,19.71-8.84,19.71-19.71ZM169.98,174.58c-.59,1.02-2.06,1.61-4.03,1.61h-92.58c-1.97,0-3.44-.59-4.03-1.61-.59-1.02-.36-2.59.62-4.29l46.29-80.17c.99-1.71,2.23-2.69,3.41-2.69s2.42.98,3.41,2.69l46.29,80.17c.99,1.71,1.21,3.27.62,4.29ZM126.77,87.98c-1.8-3.11-4.32-4.83-7.11-4.83s-5.31,1.71-7.11,4.83l-29.59,51.25h-32.62c-.63,0-1.22.28-1.63.75-.41.47-.58,1.11-.49,1.72.14.86,2.86,19.57-14.91,31.81,6.72-23.69-9.3-33.86-9.47-33.97-.34-.21-.72-.32-1.12-.32h-3.02c-8.51,0-15.44-6.92-15.44-15.44V20.17c0-8.51,6.92-15.44,15.44-15.44h140.58c8.51,0,15.44,6.92,15.44,15.44v103.62c0,8.51-6.92,15.44-15.44,15.44h-3.93l-29.59-51.25Z"/>
  <path class="cls-1" d="M119.66,146.51c1.18,0,2.14-.96,2.14-2.14v-25.68c0-1.18-.96-2.14-2.14-2.14s-2.14.96-2.14,2.14v25.68c0,1.18.96,2.14,2.14,2.14Z"/>
  <path class="cls-1" d="M119.66,155.87c-2.1,0-3.8,1.7-3.8,3.8s1.7,3.8,3.8,3.8,3.8-1.7,3.8-3.8-1.7-3.8-3.8-3.8Z"/>
  <path class="cls-1" d="M70.38,38.41h39.25c1.18,0,2.14-.96,2.14-2.14s-.96-2.14-2.14-2.14h-39.25c-1.18,0-2.14.96-2.14,2.14s.96,2.14,2.14,2.14Z"/>
  <path class="cls-1" d="M145.72,52.63H34.28c-1.18,0-2.14.96-2.14,2.14s.96,2.14,2.14,2.14h111.45c1.18,0,2.14-.96,2.14-2.14s-.96-2.14-2.14-2.14Z"/>
  <path class="cls-1" d="M103.57,71.13H34.28c-1.18,0-2.14.96-2.14,2.14s.96,2.14,2.14,2.14h69.29c1.18,0,2.14-.96,2.14-2.14s-.96-2.14-2.14-2.14Z"/>
  <path class="cls-1" d="M91.47,89.62h-57.2c-1.18,0-2.14.96-2.14,2.14s.96,2.14,2.14,2.14h57.2c1.18,0,2.14-.96,2.14-2.14s-.96-2.14-2.14-2.14Z"/>
</svg>