<?xml version="1.0" encoding="UTF-8"?>
<svg id="Alerts_Warnings" data-name="Alerts &amp;amp; Warnings" xmlns="http://www.w3.org/2000/svg" viewBox="0 0 180 180">
  <defs>
    <style>
      .cls-1 {
        stroke: #000;
        stroke-miterlimit: 10;
        stroke-width: 2px;
      }
    </style>
  </defs>
  <g>
    <path class="cls-1" d="M90,133.09c-5.69,0-10.32-4.63-10.32-10.32s4.63-10.32,10.32-10.32,10.32,4.63,10.32,10.32-4.63,10.32-10.32,10.32ZM90,116.41c-3.51,0-6.36,2.85-6.36,6.36s2.85,6.36,6.36,6.36,6.36-2.85,6.36-6.36-2.85-6.36-6.36-6.36Z"/>
    <path class="cls-1" d="M94.12,105.05h-8.24c-.99,0-1.83-.74-1.96-1.72-.79-5.98-5.79-41.59-5.79-43.63,0-6.55,5.33-11.87,11.87-11.87s11.87,5.33,11.87,11.87c0,2.04-5,37.66-5.79,43.63-.13.98-.97,1.72-1.96,1.72ZM87.61,101.09h4.77c.74-5.53,5.52-39.52,5.52-41.39,0-4.36-3.55-7.91-7.91-7.91s-7.91,3.55-7.91,7.91c0,1.87,4.78,35.84,5.53,41.39Z"/>
  </g>
  <path class="cls-1" d="M90,180.46C40.37,180.46,0,140.09,0,90.46S40.37.46,90,.46s90,40.37,90,90-40.37,90-90,90ZM90,4.42C42.56,4.42,3.96,43.02,3.96,90.46s38.6,86.04,86.04,86.04,86.04-38.6,86.04-86.04S137.44,4.42,90,4.42Z"/>
  <path class="cls-1" d="M90,158.31c-37.41,0-67.85-30.44-67.85-67.85S52.59,22.61,90,22.61s67.85,30.44,67.85,67.85-30.44,67.85-67.85,67.85ZM90,26.57c-35.23,0-63.89,28.66-63.89,63.89s28.66,63.89,63.89,63.89,63.89-28.66,63.89-63.89-28.66-63.89-63.89-63.89Z"/>
</svg>