<?xml version="1.0" encoding="UTF-8"?>
<svg id="Alerts_Warnings" data-name="Alerts &amp;amp; Warnings" xmlns="http://www.w3.org/2000/svg" viewBox="0 0 180 180">
  <defs>
    <style>
      .cls-1 {
        stroke: #000;
        stroke-miterlimit: 10;
        stroke-width: 2px;
      }
    </style>
  </defs>
  <g>
    <path class="cls-1" d="M90,126.93c-4.92,0-8.93-4-8.93-8.93s4-8.93,8.93-8.93,8.93,4.01,8.93,8.93-4,8.93-8.93,8.93ZM90,112.71c-2.92,0-5.29,2.37-5.29,5.29s2.37,5.29,5.29,5.29,5.29-2.37,5.29-5.29-2.37-5.29-5.29-5.29Z"/>
    <path class="cls-1" d="M93.51,103.03h-7.02c-.91,0-1.68-.68-1.8-1.58-.68-5.09-4.94-35.45-4.94-37.2,0-5.65,4.6-10.25,10.25-10.25s10.25,4.6,10.25,10.25c0,1.75-4.26,32.12-4.94,37.2-.12.9-.89,1.58-1.8,1.58ZM88.08,99.39h3.84c.63-4.69,4.69-33.56,4.69-35.14,0-3.64-2.97-6.61-6.61-6.61s-6.61,2.97-6.61,6.61c0,1.58,4.06,30.46,4.69,35.14Z"/>
  </g>
  <path class="cls-1" d="M90,180.46c-4.61,0-8.92-1.78-12.16-5.02L5.02,102.62C1.78,99.39,0,95.07,0,90.46s1.78-8.92,5.02-12.16L77.84,5.48c3.24-3.24,7.55-5.02,12.16-5.02s8.92,1.78,12.16,5.02l72.82,72.82c3.24,3.24,5.02,7.55,5.02,12.16s-1.78,8.92-5.02,12.16l-72.82,72.82c-3.24,3.24-7.55,5.02-12.16,5.02ZM90,4.1c-3.63,0-7.04,1.4-9.58,3.95L7.59,80.88c-2.55,2.55-3.95,5.95-3.95,9.58s1.4,7.04,3.95,9.58l72.82,72.82h0c2.55,2.55,5.95,3.95,9.58,3.95s7.04-1.4,9.58-3.95l72.82-72.82c2.55-2.55,3.95-5.95,3.95-9.58s-1.4-7.04-3.95-9.58L99.58,8.06c-2.55-2.55-5.95-3.95-9.58-3.95Z"/>
  <path class="cls-1" d="M90,157.8c-.48,0-.95-.19-1.29-.53L23.2,91.75c-.34-.34-.53-.8-.53-1.29s.19-.95.53-1.29L88.71,23.66c.68-.68,1.89-.68,2.57,0l65.51,65.51c.71.71.71,1.86,0,2.57l-65.51,65.51c-.34.34-.8.53-1.29.53ZM27.06,90.46l62.94,62.94,62.94-62.94-62.94-62.94-62.94,62.94Z"/>
</svg>