<?xml version="1.0" encoding="UTF-8"?>
<svg id="Alerts_Warnings" data-name="Alerts &amp;amp; Warnings" xmlns="http://www.w3.org/2000/svg" viewBox="0 0 180 180">
  <defs>
    <style>
      .cls-1 {
        stroke: #000;
        stroke-miterlimit: 10;
        stroke-width: 2px;
      }
    </style>
  </defs>
  <path class="cls-1" d="M72.13,123.07c0-.57-.23-1.11-.63-1.51l-12.6-12.6c-.83-.83-2.19-.83-3.02,0l-19.82,19.82-19.82-19.82c-.83-.83-2.19-.83-3.02,0L.63,121.56C.23,121.96,0,122.5,0,123.07s.23,1.11.63,1.51l19.82,19.82L.63,164.21c-.83.83-.83,2.19,0,3.02l12.6,12.6c.8.8,2.22.8,3.02,0l19.82-19.82,19.82,19.82c.4.4.94.63,1.51.63s1.11-.23,1.51-.63l12.6-12.6c.83-.83.83-2.19,0-3.02l-19.81-19.82,19.81-19.82c.4-.4.63-.94.63-1.51ZM47.16,142.89c-.83.83-.83,2.19,0,3.02l19.81,19.82-9.58,9.58-19.82-19.82c-.42-.42-.96-.63-1.51-.63s-1.09.21-1.51.63l-19.82,19.82-9.58-9.58,19.81-19.82c.83-.83.83-2.19,0-3.02l-19.81-19.82,9.58-9.58,19.82,19.82c.83.83,2.19.83,3.02,0l19.82-19.82,9.58,9.58-19.81,19.82Z"/>
  <path class="cls-1" d="M168.61.46H11.39C5.11.46,0,5.57,0,11.85v88.25c0,1.18.96,2.14,2.14,2.14s2.14-.96,2.14-2.14V31.89h171.45v137.18c0,1.18.96,2.14,2.14,2.14s2.14-.96,2.14-2.14V11.85c0-6.28-5.11-11.39-11.39-11.39ZM175.73,27.62H4.27v-15.77c0-3.92,3.19-7.11,7.11-7.11h157.23c3.92,0,7.11,3.19,7.11,7.11v15.77Z"/>
  <path class="cls-1" d="M160.59,11.73c-2.45,0-4.45,2-4.45,4.45s2,4.45,4.45,4.45,4.45-2,4.45-4.45-2-4.45-4.45-4.45Z"/>
  <path class="cls-1" d="M142.08,11.73c-2.45,0-4.45,2-4.45,4.45s2,4.45,4.45,4.45,4.45-2,4.45-4.45-2-4.45-4.45-4.45Z"/>
  <path class="cls-1" d="M123.58,11.73c-2.45,0-4.45,2-4.45,4.45s2,4.45,4.45,4.45,4.45-2,4.45-4.45-2-4.45-4.45-4.45Z"/>
  <path class="cls-1" d="M73.94,48.4H28.79c-1.18,0-2.14.96-2.14,2.14v32.57c0,1.18.96,2.14,2.14,2.14s2.14-.96,2.14-2.14v-30.43h40.87v49.46c0,1.18.96,2.14,2.14,2.14s2.14-.96,2.14-2.14v-51.6c0-1.18-.96-2.14-2.14-2.14Z"/>
  <path class="cls-1" d="M153.59,48.4h-61.27c-1.18,0-2.14.96-2.14,2.14s.96,2.14,2.14,2.14h61.27c1.18,0,2.14-.96,2.14-2.14s-.96-2.14-2.14-2.14Z"/>
  <path class="cls-1" d="M153.59,66.89h-61.27c-1.18,0-2.14.96-2.14,2.14s.96,2.14,2.14,2.14h61.27c1.18,0,2.14-.96,2.14-2.14s-.96-2.14-2.14-2.14Z"/>
  <path class="cls-1" d="M153.59,85.39h-61.27c-1.18,0-2.14.96-2.14,2.14s.96,2.14,2.14,2.14h61.27c1.18,0,2.14-.96,2.14-2.14s-.96-2.14-2.14-2.14Z"/>
  <path class="cls-1" d="M92.32,108.16h31.26c1.18,0,2.14-.96,2.14-2.14s-.96-2.14-2.14-2.14h-31.26c-1.18,0-2.14.96-2.14,2.14s.96,2.14,2.14,2.14Z"/>
  <path class="cls-1" d="M153.59,122.39h-61.27c-1.18,0-2.14.96-2.14,2.14s.96,2.14,2.14,2.14h61.27c1.18,0,2.14-.96,2.14-2.14s-.96-2.14-2.14-2.14Z"/>
  <path class="cls-1" d="M153.59,140.88h-61.27c-1.18,0-2.14.96-2.14,2.14s.96,2.14,2.14,2.14h61.27c1.18,0,2.14-.96,2.14-2.14s-.96-2.14-2.14-2.14Z"/>
</svg>