<?xml version="1.0" encoding="UTF-8"?>
<svg id="Alerts_Warnings" data-name="Alerts &amp;amp; Warnings" xmlns="http://www.w3.org/2000/svg" viewBox="0 0 180 180">
  <defs>
    <style>
      .cls-1 {
        stroke: #000;
        stroke-miterlimit: 10;
        stroke-width: 2px;
      }
    </style>
  </defs>
  <path class="cls-1" d="M178.97,116.45l-30.17-52.26c-1.22-2.11-3.02-3.32-4.94-3.32-1.92,0-3.72,1.21-4.94,3.32l-3.54,6.12c-.48.84-.2,1.9.64,2.39.84.48,1.9.2,2.39-.64l3.54-6.12c.58-1,1.28-1.58,1.91-1.58.64,0,1.34.57,1.91,1.58l30.17,52.26c.58,1,.73,1.89.41,2.44-.32.55-1.17.87-2.32.87h-60.35c-1.16,0-2-.32-2.32-.87-.32-.55-.17-1.44.41-2.44l2.09-3.62c.48-.84.2-1.9-.64-2.39-.84-.48-1.9-.2-2.39.64l-2.09,3.62c-1.22,2.11-1.37,4.28-.41,5.94.96,1.66,2.91,2.62,5.35,2.62h28.43v39.24c0,.97.78,1.75,1.75,1.75s1.75-.78,1.75-1.75v-39.24h28.43c2.44,0,4.39-.95,5.35-2.62.96-1.66.81-3.83-.41-5.94Z"/>
  <path class="cls-1" d="M69.18,112.83c-.48-.84-1.55-1.12-2.39-.64-.84.48-1.12,1.55-.64,2.39l2.09,3.62c.58,1,.73,1.89.41,2.44-.32.55-1.17.87-2.32.87H5.98c-1.16,0-2-.32-2.32-.87-.32-.55-.17-1.44.41-2.44l30.17-52.26c.58-1,1.28-1.58,1.91-1.58s1.34.57,1.91,1.58l3.54,6.12c.48.84,1.55,1.12,2.39.64.84-.48,1.12-1.55.64-2.39l-3.54-6.12c-1.22-2.11-3.02-3.32-4.94-3.32s-3.72,1.21-4.94,3.32L1.03,116.45c-1.22,2.11-1.37,4.28-.41,5.94.96,1.66,2.91,2.62,5.35,2.62h28.43v39.24c0,.97.78,1.75,1.75,1.75s1.75-.78,1.75-1.75v-39.24h28.43c2.44,0,4.39-.95,5.35-2.62.96-1.66.81-3.83-.41-5.94l-2.09-3.62Z"/>
  <path class="cls-1" d="M132.87,104.58c3.24,0,5.71-1.19,6.96-3.35,1.25-2.16,1.04-4.9-.58-7.7L96.38,19.28c-1.62-2.81-3.89-4.35-6.38-4.35s-4.76,1.55-6.38,4.35l-42.87,74.24c-1.62,2.81-1.83,5.54-.58,7.7,1.25,2.16,3.72,3.35,6.96,3.35h33.35v59.67c0,.97.78,1.75,1.75,1.75s1.75-.78,1.75-1.75v-59.67h12.04v59.67c0,.97.78,1.75,1.75,1.75s1.75-.78,1.75-1.75v-59.67h33.35ZM47.13,101.09c-1.91,0-3.35-.58-3.93-1.6-.59-1.02-.38-2.55.58-4.21L86.64,21.03c.96-1.66,2.18-2.61,3.36-2.61s2.4.95,3.36,2.61l42.87,74.24c.96,1.66,1.17,3.19.58,4.21-.59,1.02-2.02,1.6-3.93,1.6H47.13Z"/>
  <path class="cls-1" d="M90,73.14c.97,0,1.75-.78,1.75-1.75v-23.78c0-.97-.78-1.75-1.75-1.75s-1.75.78-1.75,1.75v23.78c0,.97.78,1.75,1.75,1.75Z"/>
  <path class="cls-1" d="M90,82.28c-1.81,0-3.29,1.47-3.29,3.29s1.47,3.29,3.29,3.29,3.29-1.47,3.29-3.29-1.47-3.29-3.29-3.29Z"/>
</svg>