<?xml version="1.0" encoding="UTF-8"?>
<svg id="Alerts_Warnings" data-name="Alerts &amp;amp; Warnings" xmlns="http://www.w3.org/2000/svg" viewBox="0 0 180 180">
  <defs>
    <style>
      .cls-1 {
        stroke: #000;
        stroke-miterlimit: 10;
        stroke-width: 2px;
      }
    </style>
  </defs>
  <path class="cls-1" d="M71.67,30.77c-11.3,6.55-18.32,18.71-18.32,31.73v26c0,1.06.86,1.92,1.92,1.92s1.92-.86,1.92-1.92v-26c0-11.65,6.29-22.54,16.4-28.41.92-.53,1.23-1.71.7-2.62-.53-.92-1.71-1.23-2.62-.7Z"/>
  <path class="cls-1" d="M55.27,99.61c-1.06,0-1.92.86-1.92,1.92v10.47c0,1.06.86,1.92,1.92,1.92s1.92-.86,1.92-1.92v-10.47c0-1.06-.86-1.92-1.92-1.92Z"/>
  <path class="cls-1" d="M178.08,151.24h-16.72v-11.01c0-7.7-6.27-13.97-13.97-13.97h-4.56v-63.76c0-29.13-23.7-52.83-52.83-52.83s-52.83,23.7-52.83,52.83v63.76h-4.56c-7.7,0-13.97,6.27-13.97,13.97v11.01H1.92C.86,151.24,0,152.1,0,153.16v16.17c0,1.06.86,1.92,1.92,1.92h176.16c1.06,0,1.92-.86,1.92-1.92v-16.17c0-1.06-.86-1.92-1.92-1.92ZM41.01,62.5c0-27.01,21.98-48.99,48.99-48.99s48.99,21.98,48.99,48.99v63.76H41.01v-63.76ZM22.47,140.23c0-5.59,4.55-10.13,10.13-10.13h114.78c5.59,0,10.13,4.55,10.13,10.13v11.01H22.47v-11.01ZM176.16,167.41H3.84v-12.34h172.33v12.34Z"/>
  <path class="cls-1" d="M22.34,92.11c.49,0,.98-.19,1.36-.56.75-.75.75-1.96,0-2.71-1.94-1.94-3-4.51-3-7.25s1.07-5.31,3-7.25c.75-.75.75-1.96,0-2.71-.75-.75-1.96-.75-2.71,0-2.66,2.66-4.13,6.2-4.13,9.97s1.47,7.3,4.13,9.97c.37.37.87.56,1.36.56Z"/>
  <path class="cls-1" d="M10.66,104.6c.49,0,.98-.19,1.36-.56.75-.75.75-1.96,0-2.71-5.27-5.27-8.18-12.28-8.18-19.74s2.9-14.47,8.18-19.74c.75-.75.75-1.96,0-2.71-.75-.75-1.96-.75-2.71,0C3.3,65.13,0,73.1,0,81.58s3.3,16.45,9.3,22.45c.37.37.87.56,1.36.56Z"/>
  <path class="cls-1" d="M156.3,91.55c.37.37.87.56,1.36.56s.98-.19,1.36-.56c5.5-5.49,5.5-14.44,0-19.93-.75-.75-1.96-.75-2.71,0-.75.75-.75,1.96,0,2.71,1.94,1.94,3,4.51,3,7.25s-1.07,5.31-3,7.25c-.75.75-.75,1.96,0,2.71Z"/>
  <path class="cls-1" d="M167.99,104.03c.37.37.87.56,1.36.56s.98-.19,1.36-.56c6-6,9.3-13.97,9.3-22.45s-3.3-16.45-9.3-22.45c-.75-.75-1.96-.75-2.71,0-.75.75-.75,1.96,0,2.71,5.27,5.27,8.18,12.28,8.18,19.74s-2.9,14.47-8.18,19.74c-.75.75-.75,1.96,0,2.71Z"/>
</svg>