<?xml version="1.0" encoding="UTF-8"?>
<svg id="Alerts_Warnings" data-name="Alerts &amp;amp; Warnings" xmlns="http://www.w3.org/2000/svg" viewBox="0 0 180 180">
  <defs>
    <style>
      .cls-1 {
        stroke: #000;
        stroke-miterlimit: 10;
        stroke-width: 2px;
      }
    </style>
  </defs>
  <path class="cls-1" d="M131.02,37.64c15.44,10.99,25.3,28.04,27.04,46.77.1,1.03.96,1.82,2,1.82h17.89c.56,0,1.09-.23,1.47-.64.38-.41.57-.96.53-1.51-1.93-26.43-15.67-50.2-37.68-65.22-.46-.31-1.03-.42-1.58-.3-.54.12-1.01.47-1.29.95l-8.95,15.49c-.52.89-.27,2.04.57,2.64ZM141.77,23.41c19.38,13.96,31.65,35.19,33.99,58.81h-13.9c-2.23-18.58-11.98-35.45-27.04-46.77l6.95-12.04Z"/>
  <path class="cls-1" d="M9.14,86.23h17.89c1.04,0,1.9-.79,2-1.82,3.07-32.95,31.4-58.76,64.52-58.76,9.39,0,18.48,1.99,27.01,5.92.94.43,2.06.08,2.57-.82l8.95-15.5c.28-.48.34-1.06.18-1.59-.16-.53-.54-.97-1.04-1.22-11.81-5.72-24.48-8.63-37.67-8.63C48.39,3.83,10.44,39.08,7.14,84.08c-.04.56.15,1.1.53,1.51.38.41.91.64,1.47.64ZM93.54,7.84c11.85,0,23.27,2.46,33.97,7.31l-6.95,12.04c-8.57-3.68-17.65-5.54-27.02-5.54-17.23,0-33.73,6.43-46.45,18.09-12.19,11.18-19.91,26.21-21.86,42.48h-13.9C15.5,40.34,51.2,7.84,93.54,7.84Z"/>
  <path class="cls-1" d="M179.46,94.54c-.38-.4-.91-.63-1.46-.63h-53.85c-1.11,0-2,.9-2,2s.9,2,2,2h51.69c-3.79,42.32-39.53,75.17-82.29,75.17-1.11,0-2,.9-2,2s.9,2,2,2c45.59,0,83.56-35.61,86.45-81.06.04-.55-.16-1.09-.54-1.5Z"/>
  <path class="cls-1" d="M136.12,64.15c-.62-.92-1.87-1.16-2.78-.54l-26.53,17.95c-3.21-3.74-7.96-6.11-13.27-6.11-9.66,0-17.51,7.86-17.51,17.51s7.86,17.51,17.51,17.51,17.51-7.86,17.51-17.51c0-2.92-.73-5.66-1.99-8.08l26.52-17.94c.92-.62,1.16-1.87.54-2.78ZM93.54,106.46c-7.45,0-13.5-6.06-13.5-13.5s6.06-13.5,13.5-13.5,13.5,6.06,13.5,13.5-6.06,13.5-13.5,13.5Z"/>
  <path class="cls-1" d="M55.27,67.94c.12-.86-.33-1.7-1.11-2.08-.78-.38-1.72-.21-2.32.42-22.27,23.31-22.55,53.19-21.4,66.19-3.6-4.7-8.1-12.68-7.22-22.42.07-.8-.34-1.56-1.04-1.94-.7-.38-1.57-.31-2.2.19C6.35,119.08,0,131.99,0,148.92,0,159.39,4.42,169.47,12.13,176.57c.37.34.85.53,1.36.53h60.14c.5,0,.99-.19,1.36-.53,7.71-7.1,12.13-17.18,12.13-27.64,0-18.09-8.71-29.37-17.14-40.28-8.89-11.52-17.29-22.39-14.7-40.7ZM72.83,173.09H14.28c-6.54-6.31-10.27-15.07-10.27-24.17,0-14.16,4.83-25.28,15.13-34.66.8,15.25,12.28,25.36,12.82,25.83.65.56,1.59.65,2.33.21.74-.44,1.12-1.3.94-2.14-.08-.38-7.36-36.22,15.57-64.63-.33,16.41,7.96,27.14,16,37.56,8.01,10.38,16.3,21.11,16.3,37.83,0,9.09-3.73,17.85-10.27,24.17Z"/>
</svg>