<?xml version="1.0" encoding="UTF-8"?>
<svg id="Alerts_Warnings" data-name="Alerts &amp;amp; Warnings" xmlns="http://www.w3.org/2000/svg" viewBox="0 0 180 180">
  <defs>
    <style>
      .cls-1 {
        stroke: #000;
        stroke-miterlimit: 10;
        stroke-width: 2px;
      }
    </style>
  </defs>
  <path class="cls-1" d="M151.34,28.61c-4.01,0-7.63,1.7-10.19,4.41v-4.42c0-7.75-6.31-14.06-14.06-14.06-4.01,0-7.63,1.7-10.19,4.41v-4.42c0-7.75-6.31-14.06-14.06-14.06s-14.06,6.31-14.06,14.08c0,.13,0,1.77,0,4.41-2.56-2.71-6.18-4.41-10.19-4.41-7.75,0-14.06,6.31-14.06,14.07,0,.74,0,59.86,0,80.95-6.7-10.8-21.87-30.84-40.07-26.48-5.72,1.37-8.77,3.31-9.62,6.11-1.12,3.71,2.15,7.24,5.04,10.36.95,1.02,1.84,1.98,2.49,2.85,8.23,10.96,10.85,15.08,16.44,36.56.01.04.03.09.04.13,6.38,18.82,18.03,24.53,26.53,28.69,6.8,3.33,10.35,5.32,10.35,10.74,0,1.07.87,1.93,1.93,1.93h69.85c1.01,0,1.86-.78,1.93-1.8.92-12.85,4.94-17.84,8.83-22.66,3.66-4.53,7.12-8.82,7.12-18.41V42.67c0-7.75-6.31-14.06-14.06-14.06ZM161.53,137.6c0,8.23-2.76,11.65-6.26,15.98-3.89,4.82-8.28,10.25-9.53,23.01h-66.27c-.86-6.63-6.24-9.27-12.39-12.28-8.32-4.08-18.68-9.15-24.54-26.4-5.75-22.05-8.68-26.65-17.07-37.83-.77-1.03-1.73-2.07-2.75-3.16-1.97-2.12-4.66-5.02-4.17-6.61.18-.6,1.21-2.13,6.82-3.47,20.31-4.86,37.74,27.73,39.27,30.69.25.77.98,1.33,1.84,1.33,1.07,0,1.93-.87,1.93-1.93,0-3.58,0-87.62,0-88.33,0-5.62,4.57-10.19,10.19-10.19s10.19,4.57,10.19,10.19v51.07c0,1.07.87,1.93,1.93,1.93s1.93-.87,1.93-1.93c0,0,0-64.45,0-65.14,0-5.62,4.57-10.19,10.19-10.19s10.19,4.57,10.19,10.19v65.14c0,1.07.86,1.93,1.93,1.93h0c1.07,0,1.93-.87,1.93-1.93,0-2.06,0-50.36,0-51.07,0-5.62,4.57-10.19,10.19-10.19s10.19,4.57,10.19,10.19v51.07c0,1.07.87,1.93,1.93,1.93s1.93-.87,1.93-1.93c0,0,0-36.28,0-36.99,0-5.62,4.57-10.19,10.19-10.19s10.19,4.57,10.19,10.19v94.93Z"/>
</svg>