<?xml version="1.0" encoding="UTF-8"?>
<svg id="Alerts_Warnings" data-name="Alerts &amp;amp; Warnings" xmlns="http://www.w3.org/2000/svg" viewBox="0 0 180 180">
  <defs>
    <style>
      .cls-1 {
        stroke: #000;
        stroke-miterlimit: 10;
        stroke-width: 2px;
      }
    </style>
  </defs>
  <path class="cls-1" d="M60.81,89.64c-1.74-3.02-4.19-4.69-6.89-4.69s-5.14,1.66-6.89,4.69L1.49,168.53c-1.74,3.02-1.96,5.97-.61,8.31,1.35,2.34,4.01,3.62,7.5,3.62h91.09c3.49,0,6.15-1.29,7.5-3.62,1.35-2.34,1.13-5.29-.61-8.31l-45.54-78.89ZM103.54,174.86c-.6,1.04-2.09,1.64-4.07,1.64H8.38c-1.99,0-3.47-.6-4.07-1.64-.6-1.04-.38-2.63.61-4.35l45.54-78.89c.99-1.72,2.25-2.71,3.46-2.71s2.47.99,3.46,2.71l45.54,78.89c.99,1.72,1.22,3.3.61,4.35Z"/>
  <path class="cls-1" d="M53.92,147.05c1.09,0,1.98-.89,1.98-1.98v-25.26c0-1.09-.89-1.98-1.98-1.98s-1.98.89-1.98,1.98v25.26c0,1.09.89,1.98,1.98,1.98Z"/>
  <path class="cls-1" d="M53.92,156.51c-1.99,0-3.62,1.62-3.62,3.62s1.62,3.62,3.62,3.62,3.62-1.62,3.62-3.62-1.62-3.62-3.62-3.62Z"/>
  <path class="cls-1" d="M180,43.79C180,19.9,160.56.47,136.68.47s-43.32,19.44-43.32,43.32,18.37,42.23,41.34,43.27v17.02c-5.26.94-9.26,5.54-9.26,11.06v54.07c0,6.2,5.04,11.25,11.25,11.25s11.25-5.04,11.25-11.25v-54.07c0-5.52-4.01-10.12-9.26-11.06v-17.02c22.97-1.04,41.34-20.05,41.34-43.27ZM97.31,43.79c0-21.71,17.66-39.36,39.36-39.36s39.36,17.66,39.36,39.36-17.66,39.36-39.36,39.36-39.36-17.66-39.36-39.36ZM143.96,115.15v54.07c0,4.02-3.27,7.28-7.28,7.28s-7.28-3.27-7.28-7.28v-54.07c0-4.02,3.27-7.28,7.28-7.28s7.28,3.27,7.28,7.28Z"/>
  <path class="cls-1" d="M138.66,19.54c0-1.09-.89-1.98-1.98-1.98-14.46,0-26.23,11.77-26.23,26.23,0,1.09.89,1.98,1.98,1.98s1.98-.89,1.98-1.98c0-12.28,9.99-22.27,22.27-22.27,1.09,0,1.98-.89,1.98-1.98Z"/>
  <path class="cls-1" d="M53.92,68.81c1.09,0,1.98-.89,1.98-1.98v-20.61c0-1.09-.89-1.98-1.98-1.98s-1.98.89-1.98,1.98v20.61c0,1.09.89,1.98,1.98,1.98Z"/>
  <path class="cls-1" d="M35.19,78.05c.38.56,1.01.86,1.64.86.38,0,.77-.11,1.11-.34.9-.62,1.14-1.85.52-2.75l-6.89-10.1c-.62-.9-1.85-1.14-2.75-.52-.9.62-1.14,1.85-.52,2.75l6.89,10.1Z"/>
  <path class="cls-1" d="M68.33,78.57c.34.23.73.34,1.11.34.63,0,1.25-.3,1.64-.86l6.89-10.1c.62-.9.38-2.14-.52-2.75-.9-.62-2.14-.38-2.75.52l-6.89,10.1c-.62.9-.38,2.14.52,2.75Z"/>
</svg>