<?xml version="1.0" encoding="UTF-8"?>
<svg id="Alerts_Warnings" data-name="Alerts &amp;amp; Warnings" xmlns="http://www.w3.org/2000/svg" viewBox="0 0 180 180">
  <defs>
    <style>
      .cls-1 {
        stroke: #000;
        stroke-miterlimit: 10;
        stroke-width: 2px;
      }
    </style>
  </defs>
  <path class="cls-1" d="M92.79,77.67c.37-4.17,3.88-7.44,8.14-7.44,4.51,0,8.17,3.67,8.17,8.17,0,1.15.93,2.08,2.08,2.08s2.08-.93,2.08-2.08c0-6.09-4.44-11.15-10.26-12.15v-6.43c0-1.15-.93-2.08-2.08-2.08s-2.08.93-2.08,2.08v6.43c-5.81.99-10.26,6.06-10.26,12.15,0,.5.18.98.5,1.36l24.44,28.5c-.39,6.62-5.89,11.88-12.61,11.88s-12.63-5.66-12.63-12.63c0-1.15-.93-2.08-2.08-2.08s-2.08.93-2.08,2.08c0,8.55,6.43,15.62,14.71,16.65v6.38c0,1.15.93,2.08,2.08,2.08s2.08-.93,2.08-2.08v-6.38c8.28-1.03,14.71-8.1,14.71-16.65,0-.5-.18-.98-.5-1.36l-24.43-28.48Z"/>
  <path class="cls-1" d="M123.06,34.39l16.75-28.17c.54-.9.32-2.06-.51-2.7-1.98-1.55-4.26-3.06-8.34-3.06-4.48,0-6.77,1.82-8.8,3.42-1.78,1.41-3.18,2.52-6.21,2.52s-4.44-1.11-6.22-2.52c-2.03-1.6-4.32-3.42-8.8-3.42s-6.77,1.82-8.8,3.42c-1.78,1.41-3.19,2.52-6.22,2.52s-4.44-1.11-6.22-2.52c-2.03-1.6-4.32-3.42-8.8-3.42-4.08,0-6.36,1.51-8.34,3.06-.83.65-1.04,1.8-.51,2.7l16.75,28.16C27.46,60.68,21.86,99.74,21.86,115.47c0,4.87.83,9.56,2.33,13.93L1.43,168.81c-1.67,2.9-1.89,5.85-.58,8.11,1.3,2.25,3.97,3.55,7.31,3.55h86.69c3.35,0,6.01-1.29,7.31-3.55,1.3-2.25,1.09-5.21-.58-8.11l-5.9-10.21h41.19c23.78,0,43.13-19.35,43.13-43.13,0-15.72-5.6-54.79-56.94-81.07ZM70.9,4.63c3.03,0,4.44,1.11,6.22,2.52,2.03,1.6,4.32,3.42,8.8,3.42s6.78-1.82,8.8-3.42c1.78-1.41,3.19-2.52,6.22-2.52s4.44,1.11,6.22,2.52c2.03,1.6,4.32,3.42,8.8,3.42s6.77-1.82,8.8-3.42c1.78-1.41,3.18-2.52,6.21-2.52,1.9,0,3.17.44,4.28,1.12l-16.3,27.42h-36.03l-16.3-27.41c1.12-.68,2.39-1.12,4.29-1.12ZM98.55,174.83c-.54.93-1.89,1.46-3.71,1.46H8.16c-1.82,0-3.17-.53-3.71-1.46-.54-.93-.32-2.37.58-3.94l43.35-75.08c.91-1.57,2.05-2.48,3.12-2.48s2.21.9,3.12,2.48l43.35,75.08c.91,1.57,1.12,3.01.58,3.94ZM136.87,154.43h-43.59l-35.04-60.7c-1.67-2.9-4.12-4.56-6.73-4.56s-5.05,1.66-6.73,4.56l-17.71,30.68c-.68-2.87-1.04-5.87-1.04-8.94,0-15.1,5.49-52.89,56.19-78.14h37.43c50.7,25.25,56.19,63.03,56.19,78.14,0,21.49-17.48,38.97-38.97,38.97Z"/>
  <path class="cls-1" d="M51.5,148.67c1.15,0,2.08-.93,2.08-2.08v-24.04c0-1.15-.93-2.08-2.08-2.08s-2.08.93-2.08,2.08v24.04c0,1.15.93,2.08,2.08,2.08Z"/>
  <path class="cls-1" d="M51.5,157.28c-2.01,0-3.64,1.63-3.64,3.64s1.63,3.64,3.64,3.64,3.64-1.63,3.64-3.64-1.63-3.64-3.64-3.64Z"/>
</svg>