<?xml version="1.0" encoding="UTF-8"?>
<svg id="Alerts_Warnings" data-name="Alerts &amp;amp; Warnings" xmlns="http://www.w3.org/2000/svg" viewBox="0 0 180 180">
  <defs>
    <style>
      .cls-1 {
        stroke: #000;
        stroke-miterlimit: 10;
        stroke-width: 2px;
      }
    </style>
  </defs>
  <path class="cls-1" d="M90,113.51c-7.43,0-13.48-6.04-13.48-13.48s6.05-13.48,13.48-13.48,13.47,6.04,13.47,13.48-6.04,13.48-13.47,13.48ZM90,90.23c-5.4,0-9.8,4.4-9.8,9.8s4.4,9.8,9.8,9.8,9.8-4.4,9.8-9.8-4.4-9.8-9.8-9.8Z"/>
  <path class="cls-1" d="M95.75,78.47h-11.5c-.92,0-1.7-.68-1.82-1.6-1.11-8.35-8.07-57.84-8.07-60.77,0-8.63,7.02-15.64,15.64-15.64s15.64,7.02,15.64,15.64c0,2.93-6.96,52.42-8.07,60.77-.12.91-.9,1.6-1.82,1.6ZM85.86,74.79h8.28c1.06-7.95,7.83-56.01,7.83-58.69,0-6.6-5.37-11.97-11.97-11.97s-11.97,5.37-11.97,11.97c0,2.67,6.76,50.74,7.83,58.69Z"/>
  <path class="cls-1" d="M90,180.46c-44.35,0-80.43-36.08-80.43-80.43,0-16.38,4.92-32.15,14.21-45.61,9.08-13.14,21.69-23.21,36.45-29.11.94-.38,2.01.08,2.39,1.02.38.94-.08,2.01-1.02,2.39-29.38,11.74-48.36,39.73-48.36,71.31,0,42.32,34.43,76.75,76.75,76.75s76.76-34.43,76.76-76.75c0-31.58-18.98-59.57-48.36-71.31-.94-.38-1.4-1.45-1.02-2.39.38-.94,1.45-1.4,2.39-1.02,14.77,5.9,27.37,15.97,36.45,29.11,9.3,13.46,14.21,29.23,14.21,45.61,0,44.35-36.08,80.43-80.43,80.43Z"/>
  <path class="cls-1" d="M90,164.12c-35.34,0-64.09-28.75-64.09-64.09,0-24.52,14.33-47.23,36.51-57.84.92-.44,2.01-.05,2.45.86.44.92.05,2.01-.86,2.45-20.91,10.01-34.42,31.41-34.42,54.53,0,33.31,27.1,60.42,60.42,60.42s60.42-27.1,60.42-60.42c0-23.11-13.51-44.52-34.42-54.53-.92-.44-1.3-1.54-.86-2.45.44-.91,1.53-1.3,2.45-.86,22.18,10.62,36.51,33.32,36.51,57.84,0,35.34-28.75,64.09-64.09,64.09Z"/>
  <path class="cls-1" d="M90,147.79c-26.33,0-47.75-21.42-47.75-47.75,0-16.53,8.38-31.66,22.41-40.47.86-.54,1.99-.28,2.53.58.54.86.28,1.99-.58,2.53-12.95,8.13-20.69,22.09-20.69,37.36,0,24.3,19.77,44.08,44.08,44.08s44.08-19.77,44.08-44.08c0-15.26-7.73-29.23-20.69-37.36-.86-.54-1.12-1.67-.58-2.53.54-.86,1.68-1.12,2.53-.58,14.03,8.81,22.41,23.94,22.41,40.47,0,26.33-21.42,47.75-47.76,47.75Z"/>
</svg>