<?xml version="1.0" encoding="UTF-8"?>
<svg id="Alerts_Warnings" data-name="Alerts &amp;amp; Warnings" xmlns="http://www.w3.org/2000/svg" viewBox="0 0 180 180">
  <defs>
    <style>
      .cls-1 {
        stroke: #000;
        stroke-miterlimit: 10;
        stroke-width: 2px;
      }
    </style>
  </defs>
  <path class="cls-1" d="M170.21,131.72c-4.54-1.65-9.62-.99-13.59,1.77-.31.22-.68.5-1.09.82-2.24,1.72-5.62,4.33-9.25,3-1.25-.46-9.62-3.5-21.12-7.69,11.5-4.19,19.87-7.24,21.12-7.69,3.63-1.33,7.01,1.28,9.25,3,.41.32.78.6,1.09.82,3.97,2.76,9.05,3.42,13.59,1.77,3.73-1.36,6.71-4.09,8.39-7.69,1.68-3.6,1.85-7.64.5-11.37-1.37-3.76-4.19-6.79-7.78-8.43,1.69-3.57,1.91-7.69.54-11.46-1.36-3.73-4.09-6.71-7.69-8.39-3.6-1.68-7.64-1.85-11.37-.5-1.03.37-1.56,1.51-1.18,2.54.37,1.03,1.51,1.56,2.54,1.18,2.74-1,5.7-.87,8.34.36,2.64,1.23,4.65,3.42,5.64,6.16,1.22,3.35.72,7.1-1.34,10.02-.37.53-.46,1.21-.24,1.82.22.61.73,1.07,1.35,1.24,3.45.92,6.25,3.47,7.46,6.82,1,2.74.87,5.7-.36,8.34-1.23,2.64-3.42,4.65-6.16,5.64-3.33,1.21-7.06.73-9.97-1.3-.27-.19-.58-.43-.94-.7-2.57-1.98-7.35-5.66-13.03-3.58-1.41.51-11.81,4.3-25.55,9.3-1.85-.67-3.76-1.37-5.71-2.08,2.85-1.33,4.03-2.51,4.14-2.62.49-.51.67-1.25.47-1.93-.01-.05-1.2-4.27.94-8.76,3.85,1.62,7.57,1.68,11.06.17,9.9-4.27,14.19-19.81,14.37-20.47.16-.59.04-1.21-.32-1.7l-3.7-4.97c1.01-2.99,3.64-12.16,4.06-27.54.49-17.79-4.32-31.84-14.29-41.76C114.58.14,91.65.42,90,.47c-1.65-.04-24.58-.34-40.37,15.38-9.97,9.92-14.78,23.97-14.29,41.76.42,15.38,3.05,24.55,4.06,27.54l-3.7,4.97c-.36.49-.48,1.11-.32,1.7.18.66,4.47,16.2,14.37,20.47,3.49,1.51,7.21,1.45,11.06-.17,2.11,4.45.95,8.72.94,8.76-.2.68-.02,1.41.47,1.93.26.27,6.65,6.69,27.79,6.69,7.78,0,13.56-.87,17.78-1.98,19.14,6.97,35.36,12.87,37.14,13.52,5.68,2.07,10.46-1.61,13.03-3.58.35-.27.67-.52.94-.7,2.91-2.03,6.64-2.52,9.97-1.3,2.74,1,4.93,3,6.16,5.64,1.23,2.64,1.36,5.6.36,8.34-1.22,3.35-4.01,5.9-7.46,6.82-.63.17-1.13.63-1.35,1.24-.22.61-.13,1.29.24,1.82,2.06,2.92,2.56,6.67,1.34,10.02-1,2.74-3,4.93-5.64,6.16-2.64,1.23-5.6,1.36-8.34.36-3.33-1.21-5.87-3.98-6.8-7.41-.09-.32-.17-.7-.27-1.14-.69-3.16-1.99-9.06-7.67-11.12-4.3-1.56-99.85-36.34-104.32-37.97-5.68-2.08-10.46,1.61-13.03,3.58-.35.27-.67.52-.94.7-2.91,2.03-6.64,2.51-9.97,1.3-2.74-1-4.93-3-6.16-5.64-1.23-2.64-1.36-5.6-.36-8.34,1.22-3.35,4.01-5.9,7.47-6.82.63-.17,1.13-.63,1.35-1.24s.13-1.29-.24-1.82c-2.06-2.92-2.56-6.67-1.34-10.02,1-2.74,3-4.93,5.64-6.16,2.64-1.23,5.61-1.36,8.34-.36.42.15.83.33,1.21.52.98.49,2.17.1,2.66-.87.49-.98.1-2.17-.87-2.66-.53-.27-1.08-.51-1.65-.71-3.73-1.36-7.77-1.18-11.37.5-3.6,1.68-6.33,4.66-7.69,8.39-1.37,3.76-1.15,7.89.54,11.46-3.59,1.65-6.41,4.67-7.78,8.43-1.36,3.73-1.18,7.77.5,11.37,1.68,3.6,4.66,6.33,8.39,7.69,4.54,1.65,9.62.99,13.59-1.77.31-.22.68-.5,1.09-.82,2.24-1.72,5.62-4.33,9.25-3,1.25.46,9.62,3.5,21.12,7.69-11.54,4.2-19.92,7.25-21.12,7.69-3.64,1.32-7.01-1.28-9.25-3-.41-.32-.78-.6-1.09-.82-3.97-2.76-9.05-3.42-13.59-1.77-3.73,1.36-6.71,4.09-8.39,7.69-1.68,3.6-1.85,7.64-.5,11.37,1.37,3.76,4.19,6.79,7.78,8.43-1.69,3.57-1.91,7.69-.54,11.46,1.36,3.73,4.09,6.71,7.69,8.39,2,.93,4.13,1.4,6.28,1.4,1.72,0,3.44-.3,5.1-.91,4.54-1.65,8-5.42,9.27-10.09.1-.37.2-.82.31-1.33.61-2.76,1.52-6.93,5.16-8.25,2.04-.74,24.48-8.91,48.05-17.49,23.57,8.58,46.02,16.75,48.05,17.49,3.64,1.32,4.55,5.49,5.16,8.24.11.51.21.96.31,1.33,1.27,4.67,4.73,8.44,9.27,10.09,1.66.6,3.38.91,5.1.91,2.14,0,4.28-.47,6.28-1.4,3.6-1.68,6.33-4.66,7.69-8.39,1.37-3.76,1.15-7.89-.54-11.46,3.59-1.65,6.41-4.67,7.78-8.43,1.36-3.73,1.18-7.77-.5-11.37-1.68-3.6-4.66-6.33-8.39-7.69ZM65.83,120.63c.37-2.34.62-7.32-2.55-12.18-.56-.86-1.69-1.15-2.6-.66-3.4,1.83-6.47,2.11-9.37.87-6.94-2.99-10.83-13.77-11.85-16.97l3.74-5.02c.41-.55.51-1.29.25-1.93-.04-.09-3.67-9.24-4.16-27.24-.45-16.64,3.95-29.7,13.1-38.82,14.81-14.76,37.3-14.26,37.54-14.25.04,0,.08,0,.12,0,.23,0,22.73-.51,37.54,14.25,9.15,9.12,13.56,22.18,13.1,38.82-.49,17.9-4.12,27.15-4.16,27.24-.26.64-.17,1.37.25,1.93l3.74,5.02c-1.01,3.2-4.88,13.96-11.84,16.96-2.9,1.25-5.97.97-9.37-.86-.91-.49-2.03-.2-2.6.66-3.17,4.86-2.91,9.84-2.55,12.18-2.11,1.42-8.86,4.9-24.17,4.9s-22.08-3.49-24.17-4.89ZM40.6,156.17c-5.68,2.06-6.98,7.95-7.67,11.12-.1.44-.18.82-.27,1.14-.93,3.43-3.47,6.2-6.8,7.41-2.74,1-5.7.87-8.34-.36-2.64-1.23-4.65-3.42-5.64-6.16-1.22-3.35-.72-7.1,1.34-10.02.37-.53.46-1.21.24-1.82s-.73-1.07-1.35-1.24c-3.45-.92-6.25-3.47-7.47-6.82-1-2.74-.87-5.7.36-8.34,1.23-2.64,3.42-4.65,6.16-5.64,3.33-1.21,7.06-.72,9.97,1.3.27.19.58.43.94.7,2.57,1.98,7.34,5.66,13.03,3.58,1.35-.49,11.78-4.29,25.56-9.3,7.27,2.65,15.39,5.6,23.57,8.58-21.88,7.96-41.71,15.18-43.61,15.87Z"/>
  <path class="cls-1" d="M91.74,91.7c-.35-.63-1.01-1.03-1.74-1.03s-1.39.39-1.74,1.03l-7.63,13.9c-.27.5-.32,1.09-.13,1.63.09.25,2.31,6.17,9.42,6.43.02,0,.05,0,.07,0s.05,0,.07,0c7.11-.25,9.33-6.17,9.42-6.43.19-.54.15-1.13-.13-1.63l-7.63-13.9ZM90,109.69c-3.15-.14-4.74-2.03-5.4-3.09l5.4-9.83,5.4,9.83c-.65,1.07-2.24,2.95-5.4,3.09Z"/>
  <path class="cls-1" d="M80.03,76.37c-3.95-6.53-13.54-7.99-21.38-3.26s-11.01,13.91-7.06,20.44c1.7,2.81,4.22,4.27,7.36,4.27.51,0,1.03-.04,1.56-.11,2.79-.4,5.98-1.75,10.34-4.39,4.25-2.57,14.22-8.59,9.17-16.95ZM68.82,89.93c-3.84,2.32-6.65,3.54-8.85,3.86-2.32.33-3.81-.35-4.98-2.28-2.82-4.66-.25-11.39,5.72-15,2.49-1.5,5.18-2.23,7.68-2.23,3.5,0,6.61,1.43,8.26,4.15,1.8,2.98,1.16,6.08-7.83,11.51Z"/>
  <path class="cls-1" d="M121.05,97.82c3.14,0,5.66-1.46,7.36-4.27,3.95-6.53.78-15.7-7.06-20.44-7.84-4.74-17.43-3.28-21.38,3.26-1.97,3.27-1.81,6.67.47,9.83,1.65,2.28,4.33,4.48,8.69,7.12,4.37,2.64,7.56,3.99,10.34,4.39.54.08,1.06.11,1.57.11ZM103.66,83.89c-1.37-1.9-1.46-3.54-.3-5.47,1.64-2.72,4.76-4.15,8.26-4.15,2.5,0,5.19.73,7.68,2.23,5.97,3.61,8.53,10.34,5.72,15-1.17,1.93-2.65,2.61-4.98,2.28-2.2-.31-5.02-1.54-8.85-3.86-3.84-2.32-6.23-4.24-7.53-6.04Z"/>
</svg>