<?xml version="1.0" encoding="UTF-8"?>
<svg id="Alerts_Warnings" data-name="Alerts &amp;amp; Warnings" xmlns="http://www.w3.org/2000/svg" viewBox="0 0 180 180">
  <defs>
    <style>
      .cls-1 {
        stroke: #000;
        stroke-miterlimit: 10;
        stroke-width: 2px;
      }
    </style>
  </defs>
  <path class="cls-1" d="M179.39,52.57L127.89,1.07c-.39-.39-.92-.61-1.47-.61H53.58c-.55,0-1.08.22-1.47.61L.61,52.57C.22,52.96,0,53.49,0,54.05v72.83c0,.55.22,1.08.61,1.47l51.5,51.5c.39.39.92.61,1.47.61h72.83c.55,0,1.08-.22,1.47-.61l51.5-51.5c.39-.39.61-.92.61-1.47V54.05c0-.55-.22-1.08-.61-1.47ZM175.84,126.02l-50.28,50.28H54.45L4.16,126.02V54.91L54.45,4.63h71.11l50.28,50.28v71.11Z"/>
  <path class="cls-1" d="M22.12,54.42c0,1.15.93,2.08,2.08,2.08h131.6c1.15,0,2.08-.93,2.08-2.08s-.93-2.08-2.08-2.08H24.2c-1.15,0-2.08.93-2.08,2.08Z"/>
  <path class="cls-1" d="M155.8,124.42H24.2c-1.15,0-2.08.93-2.08,2.08s.93,2.08,2.08,2.08h131.6c1.15,0,2.08-.93,2.08-2.08s-.93-2.08-2.08-2.08Z"/>
  <path class="cls-1" d="M45.44,107.11c-4.42,0-8.02-3.6-8.02-8.02,0-1.15-.93-2.08-2.08-2.08s-2.08.93-2.08,2.08c0,6.72,5.47,12.18,12.18,12.18,7.06,0,12.18-5.12,12.18-12.18,0-6.2-5.2-9.38-9.79-12.19-4.55-2.79-7.32-4.71-7.36-7.82-.01-1.32.47-2.56,1.38-3.47.94-.95,2.21-1.47,3.58-1.47,2.74,0,4.96,2.23,4.96,4.96,0,1.15.93,2.08,2.08,2.08s2.08-.93,2.08-2.08c0-5.03-4.09-9.13-9.13-9.13-2.5,0-4.82.96-6.55,2.7-1.69,1.71-2.61,4-2.58,6.45.06,5.64,4.99,8.66,9.34,11.32,4.85,2.97,7.8,5.04,7.8,8.64,0,4.72-3.3,8.02-8.02,8.02Z"/>
  <path class="cls-1" d="M74.56,110.92c1.15,0,2.08-.93,2.08-2.08v-34.35h8.08c1.15,0,2.08-.93,2.08-2.08s-.93-2.08-2.08-2.08h-20.32c-1.15,0-2.08.93-2.08,2.08s.93,2.08,2.08,2.08h8.08v34.35c0,1.15.93,2.08,2.08,2.08Z"/>
  <path class="cls-1" d="M129.51,109.19v-12.8h4.03c7.28,0,13.2-5.93,13.2-13.21s-5.92-13.2-13.2-13.2h-6.11c-1.15,0-2.08.93-2.08,2.08v37.13c0,1.15.93,2.08,2.08,2.08s2.08-.93,2.08-2.08ZM129.51,74.14h4.03c4.98,0,9.04,4.06,9.04,9.04s-4.06,9.04-9.04,9.04h-4.03s0-18.08,0-18.08Z"/>
  <path class="cls-1" d="M115.85,99.37v-17.48c0-6.56-5.34-11.91-11.91-11.91s-11.91,5.34-11.91,11.91v17.48c0,6.56,5.34,11.91,11.91,11.91s11.91-5.34,11.91-11.91ZM96.21,99.37v-17.48c0-4.27,3.47-7.74,7.74-7.74s7.74,3.47,7.74,7.74v17.48c0,4.27-3.47,7.74-7.74,7.74s-7.74-3.47-7.74-7.74Z"/>
</svg>