<?xml version="1.0" encoding="UTF-8"?>
<svg id="Alerts_Warnings" data-name="Alerts &amp;amp; Warnings" xmlns="http://www.w3.org/2000/svg" viewBox="0 0 180 180">
  <defs>
    <style>
      .cls-1 {
        stroke: #000;
        stroke-miterlimit: 10;
        stroke-width: 2px;
      }
    </style>
  </defs>
  <path class="cls-1" d="M162.74,170.56H17.26c-7.32,0-12.84-2.58-15.55-7.27-2.71-4.69-2.18-10.76,1.48-17.1L75.93,20.2c3.66-6.34,8.66-9.83,14.07-9.83s10.41,3.49,14.07,9.83l72.74,125.99c3.66,6.34,4.19,12.41,1.48,17.1-2.71,4.69-8.23,7.27-15.55,7.27ZM90,14.07c-4.03,0-7.89,2.83-10.86,7.98L6.4,148.04c-2.97,5.15-3.5,9.9-1.48,13.39,2.02,3.49,6.4,5.42,12.34,5.42h145.48c5.94,0,10.32-1.92,12.34-5.42,2.02-3.49,1.49-8.25-1.48-13.39L100.86,22.05c-2.97-5.15-6.83-7.98-10.86-7.98Z"/>
  <path class="cls-1" d="M153.44,150.79H26.56c-.66,0-1.27-.35-1.61-.93-.33-.57-.33-1.28,0-1.85l63.44-109.87c.33-.57.94-.93,1.61-.93s1.27.35,1.61.93l63.44,109.87c.33.57.33,1.28,0,1.85-.33.57-.94.93-1.61.93ZM29.77,147.09h120.45l-60.23-104.31-60.23,104.31Z"/>
  <path class="cls-1" d="M90,139.16c-4.64,0-8.41-3.77-8.41-8.41s3.77-8.41,8.41-8.41,8.41,3.77,8.41,8.41-3.77,8.41-8.41,8.41ZM90,126.05c-2.59,0-4.7,2.11-4.7,4.7s2.11,4.7,4.7,4.7,4.7-2.11,4.7-4.7-2.11-4.7-4.7-4.7Z"/>
  <path class="cls-1" d="M93.24,117.12h-6.48c-.93,0-1.71-.69-1.84-1.61-.62-4.7-4.55-32.71-4.55-34.34,0-5.31,4.32-9.63,9.63-9.63s9.63,4.32,9.63,9.63c0,1.62-3.93,29.64-4.55,34.34-.12.92-.91,1.61-1.84,1.61ZM88.38,113.42h3.23c.58-4.29,4.31-30.79,4.31-32.24,0-3.27-2.66-5.92-5.92-5.92s-5.92,2.66-5.92,5.92c0,1.45,3.73,27.95,4.31,32.24Z"/>
</svg>