<?xml version="1.0" encoding="UTF-8"?>
<svg id="Alerts_Warnings" data-name="Alerts &amp;amp; Warnings" xmlns="http://www.w3.org/2000/svg" viewBox="0 0 180 180">
  <defs>
    <style>
      .cls-1 {
        stroke: #000;
        stroke-miterlimit: 10;
        stroke-width: 2px;
      }
    </style>
  </defs>
  <path class="cls-1" d="M162.74,170.56H17.26c-7.32,0-12.84-2.58-15.55-7.27-2.71-4.69-2.18-10.76,1.48-17.1L75.93,20.2c3.66-6.34,8.66-9.83,14.07-9.83s10.41,3.49,14.07,9.83h0l72.74,125.99c3.66,6.34,4.19,12.41,1.48,17.1-2.71,4.69-8.23,7.27-15.55,7.27ZM90,14.07c-4.03,0-7.89,2.83-10.86,7.98L6.4,148.04c-2.97,5.15-3.5,9.9-1.48,13.4,2.02,3.49,6.4,5.42,12.34,5.42h145.49c5.94,0,10.32-1.92,12.34-5.42,2.02-3.49,1.49-8.25-1.48-13.4L100.86,22.05c-2.97-5.15-6.83-7.98-10.86-7.98Z"/>
  <path class="cls-1" d="M153.44,150.79H26.56c-.66,0-1.27-.35-1.6-.93-.33-.57-.33-1.28,0-1.85l63.44-109.87c.33-.57.94-.93,1.6-.93s1.27.35,1.6.93l63.44,109.87c.33.57.33,1.28,0,1.85-.33.57-.94.93-1.6.93ZM29.77,147.09h120.45l-60.23-104.31-60.23,104.31Z"/>
  <path class="cls-1" d="M103.8,136.22c-.47,0-.95-.18-1.31-.54l-12.49-12.49-12.49,12.49c-.72.72-1.9.72-2.62,0l-8.15-8.15c-.72-.72-.72-1.9,0-2.62l12.49-12.49-12.49-12.49c-.72-.72-.72-1.9,0-2.62l8.15-8.15c.72-.72,1.9-.72,2.62,0l12.49,12.49,12.49-12.49c.72-.72,1.9-.72,2.62,0l8.15,8.15c.72.72.72,1.9,0,2.62l-12.49,12.49,12.49,12.49c.72.72.72,1.9,0,2.62l-8.15,8.15c-.36.36-.84.54-1.31.54ZM90,118.71c.47,0,.95.18,1.31.54l12.49,12.49,5.53-5.53-12.49-12.49c-.72-.72-.72-1.9,0-2.62l12.49-12.49-5.53-5.53-12.49,12.49c-.72.72-1.9.72-2.62,0l-12.49-12.49-5.53,5.53,12.49,12.49c.72.72.72,1.9,0,2.62l-12.49,12.49,5.53,5.53,12.49-12.49c.36-.36.84-.54,1.31-.54Z"/>
</svg>