<?xml version="1.0" encoding="UTF-8"?>
<svg id="Office_Essentials" data-name="Office Essentials" xmlns="http://www.w3.org/2000/svg" viewBox="0 0 180 180">
  <defs>
    <style>
      .cls-1 {
        stroke: #000;
        stroke-miterlimit: 10;
        stroke-width: 2px;
      }
    </style>
  </defs>
  <path class="cls-1" d="M90,180.46c-21.31,0-45.48-1.17-63.09-9.89C8.8,161.62,0,145.93,0,122.62,0,97.88,10,67.45,26.1,43.22,44.42,15.65,67.11.46,90,.46s45.58,15.19,63.9,42.76c16.1,24.23,26.1,54.66,26.1,79.4,0,23.31-8.8,39-26.91,47.96-17.61,8.71-41.78,9.89-63.09,9.89ZM90,4.63c-28.94,0-50.29,25.62-60.43,40.9C13.9,69.11,4.17,98.65,4.17,122.62c0,21.57,8.04,36.04,24.59,44.22,16.84,8.33,40.41,9.46,61.24,9.46s44.4-1.12,61.24-9.46c16.55-8.19,24.59-22.65,24.59-44.22,0-23.97-9.73-53.51-25.4-77.09-10.15-15.27-31.49-40.9-60.43-40.9Z"/>
  <path class="cls-1" d="M90,125.45c-14.08,0-30.04-.78-41.74-6.57-12.16-6.01-18.07-16.52-18.07-32.13,0-1.15.93-2.08,2.08-2.08s2.08.93,2.08,2.08c0,28.75,21.29,34.53,55.64,34.53s55.64-5.78,55.64-34.53c0-1.15.93-2.08,2.08-2.08s2.08.93,2.08,2.08c0,15.6-5.91,26.11-18.07,32.13-11.7,5.79-27.66,6.57-41.74,6.57Z"/>
</svg>