<?xml version="1.0" encoding="UTF-8"?>
<svg id="Office_Essentials" data-name="Office Essentials" xmlns="http://www.w3.org/2000/svg" viewBox="0 0 180 180">
  <defs>
    <style>
      .cls-1 {
        stroke: #000;
        stroke-miterlimit: 10;
        stroke-width: 2px;
      }
    </style>
  </defs>
  <path class="cls-1" d="M25.91,119.13c-9.08,0-16.47,7.39-16.47,16.47s7.39,16.47,16.47,16.47,16.47-7.39,16.47-16.47-7.39-16.47-16.47-16.47ZM25.91,148.25c-6.97,0-12.64-5.67-12.64-12.64s5.67-12.64,12.64-12.64,12.64,5.67,12.64,12.64-5.67,12.64-12.64,12.64Z"/>
  <path class="cls-1" d="M14.41,101.75h23c1.06,0,1.92-.86,1.92-1.92v-62.43c0-1.06-.86-1.92-1.92-1.92H14.41c-1.06,0-1.92.86-1.92,1.92v62.43c0,1.06.86,1.92,1.92,1.92ZM16.33,39.31h19.17v58.6h-19.17v-58.6Z"/>
  <path class="cls-1" d="M73.9,119.13c-9.08,0-16.47,7.39-16.47,16.47s7.39,16.47,16.47,16.47,16.47-7.39,16.47-16.47-7.39-16.47-16.47-16.47ZM73.9,148.25c-6.97,0-12.64-5.67-12.64-12.64s5.67-12.64,12.64-12.64,12.64,5.67,12.64,12.64-5.67,12.64-12.64,12.64Z"/>
  <path class="cls-1" d="M62.4,101.75h23c1.06,0,1.92-.86,1.92-1.92v-62.43c0-1.06-.86-1.92-1.92-1.92h-23c-1.06,0-1.92.86-1.92,1.92v62.43c0,1.06.86,1.92,1.92,1.92ZM64.31,39.31h19.17v58.6h-19.17v-58.6Z"/>
  <path class="cls-1" d="M179.95,158.19L146.56,11.25c-.11-.5-.42-.93-.85-1.2-.43-.27-.95-.36-1.45-.25l-44.45,10.1v-1.35c0-1.06-.86-1.92-1.92-1.92H1.92C.86,16.65,0,17.5,0,18.56v150.69c0,1.06.86,1.92,1.92,1.92h95.98c1.06,0,1.92-.86,1.92-1.92V39.39l29.61,130.28c.2.89.99,1.49,1.87,1.49.14,0,.28-.02.43-.05l46.79-10.64c.49-.11.93-.42,1.2-.85.27-.43.36-.95.25-1.45ZM3.83,20.48h44.15v146.85H3.83V20.48ZM51.82,167.33V20.48h44.15v146.85h-44.15ZM132.73,166.96L100.18,23.75l43.06-9.79,32.55,143.2-43.06,9.79Z"/>
  <path class="cls-1" d="M143.58,115.06c-4.29.98-7.94,3.56-10.29,7.29-2.34,3.72-3.1,8.14-2.12,12.43.98,4.29,3.56,7.94,7.29,10.29,2.66,1.68,5.68,2.54,8.74,2.54,1.23,0,2.46-.14,3.68-.42,8.86-2.01,14.43-10.86,12.41-19.71-.98-4.29-3.56-7.94-7.29-10.29-3.72-2.34-8.13-3.1-12.43-2.12ZM153.96,120.43c2.86,1.8,4.84,4.6,5.59,7.9,1.54,6.8-2.73,13.58-9.52,15.13-3.29.75-6.68.17-9.54-1.63-2.86-1.8-4.84-4.6-5.59-7.9-.75-3.29-.17-6.68,1.63-9.54,1.8-2.86,4.6-4.84,7.9-5.59.94-.21,1.88-.32,2.83-.32,2.35,0,4.67.66,6.71,1.95Z"/>
  <path class="cls-1" d="M137.7,31.19c-.43-.27-.95-.36-1.45-.25l-22.43,5.1c-1.03.23-1.68,1.26-1.44,2.29l13.84,60.88c.2.89.99,1.49,1.87,1.49.14,0,.28-.02.43-.05l22.43-5.1c.49-.11.93-.42,1.2-.85.27-.43.36-.95.25-1.45l-13.84-60.88c-.11-.5-.42-.93-.85-1.2ZM129.53,96.49l-12.99-57.14,18.69-4.25,12.99,57.14-18.69,4.25Z"/>
</svg>