<?xml version="1.0" encoding="UTF-8"?>
<svg id="Office_Essentials" data-name="Office Essentials" xmlns="http://www.w3.org/2000/svg" viewBox="0 0 180 180">
  <defs>
    <style>
      .cls-1 {
        stroke: #000;
        stroke-miterlimit: 10;
        stroke-width: 2px;
      }
    </style>
  </defs>
  <path class="cls-1" d="M154.82,180.46H25.18c-6.22,0-11.29-5.06-11.29-11.29V11.76C13.89,5.53,18.96.47,25.18.47h129.63c6.22,0,11.29,5.06,11.29,11.29v157.41c0,6.23-5.06,11.29-11.29,11.29ZM25.18,4.53c-3.99,0-7.23,3.24-7.23,7.23v157.41c0,3.99,3.24,7.23,7.23,7.23h129.63c3.99,0,7.23-3.24,7.23-7.23V11.76c0-3.99-3.24-7.23-7.23-7.23H25.18Z"/>
  <path class="cls-1" d="M140.37,61.11H39.64c-1.12,0-2.03-.91-2.03-2.03v-31.97c0-1.12.91-2.03,2.03-2.03h100.73c1.12,0,2.03.91,2.03,2.03v31.97c0,1.12-.91,2.03-2.03,2.03ZM41.67,57.05h96.67v-27.91H41.67v27.91Z"/>
  <g>
    <path class="cls-1" d="M65.12,93.47h-21.42c-1.12,0-2.03-.91-2.03-2.03v-16.34c0-1.12.91-2.03,2.03-2.03h21.42c1.12,0,2.03.91,2.03,2.03v16.34c0,1.12-.91,2.03-2.03,2.03ZM45.73,89.41h17.36v-12.28h-17.36v12.28Z"/>
    <path class="cls-1" d="M100.71,93.54h-21.42c-1.12,0-2.03-.91-2.03-2.03v-16.34c0-1.12.91-2.03,2.03-2.03h21.42c1.12,0,2.03.91,2.03,2.03v16.34c0,1.12-.91,2.03-2.03,2.03ZM81.32,89.48h17.36v-12.28h-17.36v12.28Z"/>
    <path class="cls-1" d="M136.3,93.62h-21.42c-1.12,0-2.03-.91-2.03-2.03v-16.34c0-1.12.91-2.03,2.03-2.03h21.42c1.12,0,2.03.91,2.03,2.03v16.34c0,1.12-.91,2.03-2.03,2.03ZM116.91,89.56h17.36v-12.28h-17.36v12.28Z"/>
  </g>
  <g>
    <path class="cls-1" d="M65.12,124.03h-21.42c-1.12,0-2.03-.91-2.03-2.03v-16.34c0-1.12.91-2.03,2.03-2.03h21.42c1.12,0,2.03.91,2.03,2.03v16.34c0,1.12-.91,2.03-2.03,2.03ZM45.73,119.97h17.36v-12.28h-17.36v12.28Z"/>
    <path class="cls-1" d="M100.71,124.1h-21.42c-1.12,0-2.03-.91-2.03-2.03v-16.34c0-1.12.91-2.03,2.03-2.03h21.42c1.12,0,2.03.91,2.03,2.03v16.34c0,1.12-.91,2.03-2.03,2.03ZM81.32,120.04h17.36v-12.28h-17.36v12.28Z"/>
    <path class="cls-1" d="M136.3,124.17h-21.42c-1.12,0-2.03-.91-2.03-2.03v-16.34c0-1.12.91-2.03,2.03-2.03h21.42c1.12,0,2.03.91,2.03,2.03v16.34c0,1.12-.91,2.03-2.03,2.03ZM116.91,120.11h17.36v-12.28h-17.36v12.28Z"/>
  </g>
  <path class="cls-1" d="M65.12,154.58h-21.42c-1.12,0-2.03-.91-2.03-2.03v-16.34c0-1.12.91-2.03,2.03-2.03h21.42c1.12,0,2.03.91,2.03,2.03v16.34c0,1.12-.91,2.03-2.03,2.03ZM45.73,150.52h17.36v-12.28h-17.36v12.28Z"/>
  <path class="cls-1" d="M136.3,154.65h-57.01c-1.12,0-2.03-.91-2.03-2.03v-16.34c0-1.12.91-2.03,2.03-2.03h57.01c1.12,0,2.03.91,2.03,2.03v16.34c0,1.12-.91,2.03-2.03,2.03ZM81.32,150.59h52.95v-12.28h-52.95v12.28Z"/>
</svg>