<?xml version="1.0" encoding="UTF-8"?>
<svg id="Office_Essentials" data-name="Office Essentials" xmlns="http://www.w3.org/2000/svg" viewBox="0 0 180 180">
  <defs>
    <style>
      .cls-1 {
        stroke: #000;
        stroke-miterlimit: 10;
        stroke-width: 2px;
      }
    </style>
  </defs>
  <path class="cls-1" d="M163.79,6.76h-20.53V2.52c0-1.14-.92-2.06-2.06-2.06s-2.06.92-2.06,2.06v4.24h-21.47V2.52c0-1.14-.92-2.06-2.06-2.06s-2.06.92-2.06,2.06v4.24h-21.47V2.52c0-1.14-.92-2.06-2.06-2.06s-2.06.92-2.06,2.06v4.24h-21.47V2.52c0-1.14-.92-2.06-2.06-2.06s-2.06.92-2.06,2.06v4.24h-21.47V2.52c0-1.14-.92-2.06-2.06-2.06s-2.06.92-2.06,2.06v4.24h-20.53c-7.2,0-13.06,5.86-13.06,13.06v147.58c0,7.2,5.86,13.06,13.06,13.06h147.58c7.2,0,13.06-5.86,13.06-13.06V19.82c0-7.2-5.86-13.06-13.06-13.06ZM16.21,10.89h20.53v4.24c0,1.14.92,2.06,2.06,2.06s2.06-.92,2.06-2.06v-4.24h21.47v4.24c0,1.14.92,2.06,2.06,2.06s2.06-.92,2.06-2.06v-4.24h21.47v4.24c0,1.14.92,2.06,2.06,2.06s2.06-.92,2.06-2.06v-4.24h21.47v4.24c0,1.14.92,2.06,2.06,2.06s2.06-.92,2.06-2.06v-4.24h21.47v4.24c0,1.14.92,2.06,2.06,2.06s2.06-.92,2.06-2.06v-4.24h20.53c4.93,0,8.94,4.01,8.94,8.94v10.11H7.27v-10.11c0-4.93,4.01-8.94,8.94-8.94ZM163.79,176.34H16.21c-4.93,0-8.94-4.01-8.94-8.94V34.06h165.45v133.34c0,4.93-4.01,8.94-8.94,8.94Z"/>
  <path class="cls-1" d="M152.16,56.98H58.92c-1.14,0-2.06.92-2.06,2.06v20.73h-29.02c-1.14,0-2.06.92-2.06,2.06v68.37c0,1.14.92,2.06,2.06,2.06h62.16c1.14,0,2.06-.92,2.06-2.06v-20.73h60.1c1.14,0,2.06-.92,2.06-2.06V59.04c0-1.14-.92-2.06-2.06-2.06ZM60.98,125.34v-18.66h26.96v18.66h-26.96ZM29.9,106.68h26.96v18.66h-26.96v-18.66ZM87.94,83.89v18.66h-26.96v-18.66h26.96ZM92.06,83.89h26.96v18.66h-26.96v-18.66ZM123.14,83.89h26.96v18.66h-26.96v-18.66ZM150.1,79.76h-26.96v-18.66h26.96v18.66ZM119.02,79.76h-26.96v-18.66h26.96v18.66ZM60.98,61.1h26.96v18.66h-26.96v-18.66ZM29.9,83.89h26.96v18.66h-26.96v-18.66ZM29.9,129.47h26.96v18.66h-26.96v-18.66ZM87.94,148.13h-26.96v-18.66h26.96v18.66ZM92.06,106.68h26.96v18.66h-26.96v-18.66ZM150.1,125.34h-26.96v-18.66h26.96v18.66Z"/>
</svg>