<?xml version="1.0" encoding="UTF-8"?>
<svg id="Office_Essentials" data-name="Office Essentials" xmlns="http://www.w3.org/2000/svg" viewBox="0 0 180 180">
  <defs>
    <style>
      .cls-1 {
        stroke: #000;
        stroke-miterlimit: 10;
        stroke-width: 2px;
      }
    </style>
  </defs>
  <path class="cls-1" d="M121.86,65.49l-3.97-6.87c-4.63-8.01-12.03-10.94-12.34-11.06-.22-.09-.46-.13-.69-.13h-5.51V6.74h39.82c1.06,0,1.93-.86,1.93-1.93s-.86-1.93-1.93-1.93H40.84c-1.06,0-1.93.86-1.93,1.93s.86,1.93,1.93,1.93h39.82v40.69h-5.51c-.24,0-.47.04-.69.13-.31.12-7.71,3.05-12.34,11.06l-3.97,6.87C51.3,67.7,2.93,84.36,0,115.05c-.05.54.13,1.08.49,1.48.37.4.88.63,1.43.63h62.69c5.18,9.17,14.79,14.83,25.38,14.83s20.2-5.66,25.38-14.83h62.69c.54,0,1.06-.23,1.43-.63.37-.4.54-.94.49-1.48-2.92-30.69-51.29-47.35-58.13-49.56ZM84.51,6.74h10.98v40.69h-10.98V6.74ZM90,128.14c-8.44,0-16.18-4.14-20.87-10.98h41.73c-4.69,6.84-12.42,10.98-20.87,10.98ZM4.13,113.31c5.03-28.44,55.35-44.2,55.87-44.36.47-.14.86-.46,1.1-.88l4.35-7.52c3.44-5.95,8.78-8.67,10.09-9.27h28.92c1.31.59,6.62,3.27,10.09,9.27l2.67,4.63h-24.42c-1.06,0-1.93.86-1.93,1.93s.86,1.93,1.93,1.93h27.47c3.93,1.26,50.75,16.87,55.6,44.28H4.13Z"/>
  <path class="cls-1" d="M90,147.22c-1.06,0-1.93.86-1.93,1.93v26.97c0,1.06.86,1.93,1.93,1.93s1.93-.86,1.93-1.93v-26.97c0-1.06-.86-1.93-1.93-1.93Z"/>
  <path class="cls-1" d="M58.43,137.44c-.86-.63-2.06-.44-2.69.42l-16.56,22.61c-.63.86-.44,2.06.42,2.69.34.25.74.37,1.14.37.59,0,1.18-.27,1.56-.79l16.56-22.61c.63-.86.44-2.06-.42-2.69Z"/>
  <path class="cls-1" d="M124.26,137.86c-.63-.86-1.83-1.04-2.69-.42-.86.63-1.04,1.84-.42,2.69l16.56,22.61c.38.52.96.79,1.56.79.4,0,.79-.12,1.14-.37.86-.63,1.04-1.84.42-2.69l-16.56-22.61Z"/>
  <path class="cls-1" d="M74.02,144.84c-1.02-.3-2.09.28-2.39,1.3l-2.86,9.67c-.3,1.02.28,2.09,1.3,2.39.18.05.37.08.55.08.83,0,1.6-.54,1.85-1.38l2.86-9.67c.3-1.02-.28-2.09-1.3-2.39Z"/>
  <path class="cls-1" d="M108.37,146.14c-.3-1.02-1.37-1.61-2.39-1.3-1.02.3-1.6,1.37-1.3,2.39l2.86,9.67c.25.84,1.02,1.38,1.85,1.38.18,0,.36-.03.55-.08,1.02-.3,1.6-1.37,1.3-2.39l-2.86-9.67Z"/>
</svg>