<?xml version="1.0" encoding="UTF-8"?>
<svg id="Office_Essentials" data-name="Office Essentials" xmlns="http://www.w3.org/2000/svg" viewBox="0 0 180 180">
  <defs>
    <style>
      .cls-1 {
        stroke: #000;
        stroke-miterlimit: 10;
        stroke-width: 2px;
      }
    </style>
  </defs>
  <path class="cls-1" d="M151.02,10.44h-46.5c-2.45-5.6-8.03-9.52-14.52-9.52s-12.08,3.92-14.52,9.52H28.98c-5.89,0-10.68,4.79-10.68,10.68v148.2c0,5.89,4.79,10.68,10.68,10.68h122.05c5.89,0,10.68-4.79,10.68-10.68V21.12c0-5.89-4.79-10.68-10.68-10.68ZM90,4.85c6.57,0,11.92,5.35,11.92,11.92,0,3.32,4.02,4.29,9.59,5.62,7.75,1.86,18.18,4.37,19.33,13.22H49.17c1.15-8.85,11.58-11.36,19.33-13.22,5.57-1.34,9.59-2.3,9.59-5.62,0-6.57,5.35-11.92,11.91-11.92ZM157.78,169.32c0,3.73-3.03,6.76-6.76,6.76H28.98c-3.73,0-6.76-3.03-6.76-6.76V21.12c0-3.73,3.03-6.76,6.76-6.76h45.39c-.11.7-.19,1.42-.2,2.14-.81.68-4.13,1.47-6.58,2.06-9.04,2.17-22.7,5.45-22.44,19.03.02,1.07.89,1.92,1.96,1.92h85.79c1.07,0,1.94-.86,1.96-1.92.27-13.58-13.4-16.86-22.44-19.03-2.45-.59-5.77-1.38-6.58-2.06-.01-.73-.09-1.44-.2-2.15h45.38c3.73,0,6.76,3.03,6.76,6.76v148.2Z"/>
  <path class="cls-1" d="M90,19.17c2.04,0,3.7-1.66,3.7-3.71s-1.66-3.7-3.7-3.7-3.71,1.66-3.71,3.7,1.66,3.71,3.71,3.71Z"/>
  <path class="cls-1" d="M65.63,51.85h-20.87c-1.08,0-1.96.88-1.96,1.96v20.87c0,1.08.88,1.96,1.96,1.96h20.87c1.08,0,1.96-.88,1.96-1.96v-20.87c0-1.08-.88-1.96-1.96-1.96ZM63.67,72.72h-16.95v-16.95h16.95v16.95Z"/>
  <path class="cls-1" d="M65.63,90.35h-20.87c-1.08,0-1.96.88-1.96,1.96v20.87c0,1.08.88,1.96,1.96,1.96h20.87c1.08,0,1.96-.88,1.96-1.96v-20.87c0-1.08-.88-1.96-1.96-1.96ZM63.67,111.23h-16.95v-16.95h16.95v16.95Z"/>
  <path class="cls-1" d="M65.63,128.86h-20.87c-1.08,0-1.96.88-1.96,1.96v20.87c0,1.08.88,1.96,1.96,1.96h20.87c1.08,0,1.96-.88,1.96-1.96v-20.87c0-1.08-.88-1.96-1.96-1.96ZM63.67,149.73h-16.95v-16.95h16.95v16.95Z"/>
  <path class="cls-1" d="M136.39,62.29h-51.49c-1.08,0-1.96.88-1.96,1.96s.88,1.96,1.96,1.96h51.49c1.08,0,1.96-.88,1.96-1.96s-.88-1.96-1.96-1.96Z"/>
  <path class="cls-1" d="M136.39,100.79h-51.49c-1.08,0-1.96.88-1.96,1.96s.88,1.96,1.96,1.96h51.49c1.08,0,1.96-.88,1.96-1.96s-.88-1.96-1.96-1.96Z"/>
</svg>