<?xml version="1.0" encoding="UTF-8"?>
<svg id="Office_Essentials" data-name="Office Essentials" xmlns="http://www.w3.org/2000/svg" viewBox="0 0 180 180">
  <defs>
    <style>
      .cls-1 {
        stroke: #000;
        stroke-miterlimit: 10;
        stroke-width: 2px;
      }
    </style>
  </defs>
  <path class="cls-1" d="M141.87,10.17c-1.46-5.83-4.19-9.71-12.76-9.71H50.89c-8.57,0-11.3,3.88-12.76,9.71-5.76,22.98-19.15,78.67-19.15,99.26,0,39.17,31.86,71.03,71.03,71.03s71.03-31.86,71.03-71.03c0-20.61-13.4-76.28-19.16-99.26ZM137.73,11.21c2.17,8.64,6.71,27.15,10.81,46.27h-56.4v-7.42c4.23-.97,7.4-4.76,7.4-9.29v-20.26c0-4.52-3.17-8.31-7.4-9.29v-6.49h36.97c5.99,0,7.5,2,8.62,6.47ZM90,15.26c2.9,0,5.26,2.36,5.26,5.26v20.26c0,2.9-2.36,5.26-5.26,5.26s-5.26-2.36-5.26-5.26v-20.26c0-2.9,2.36-5.26,5.26-5.26ZM42.27,11.21c1.12-4.47,2.63-6.47,8.62-6.47h36.98v6.49c-4.23.97-7.4,4.76-7.4,9.29v20.26c0,4.52,3.17,8.31,7.4,9.29v7.42H31.43c3.85-17.91,8.17-35.62,10.84-46.27ZM90,176.19c-36.81,0-66.76-29.95-66.76-66.76,0-9.99,3.28-28.64,7.28-47.68h118.92c3.97,18.92,7.31,37.77,7.31,47.68,0,36.81-29.95,66.76-66.76,66.76Z"/>
  <path class="cls-1" d="M90,151.22c-23.04,0-41.79-18.74-41.79-41.79,0-1.18-.96-2.14-2.14-2.14s-2.14.96-2.14,2.14c0,25.4,20.66,46.06,46.06,46.06,1.18,0,2.14-.96,2.14-2.14s-.96-2.14-2.14-2.14Z"/>
</svg>