<?xml version="1.0" encoding="UTF-8"?>
<svg id="Office_Essentials" data-name="Office Essentials" xmlns="http://www.w3.org/2000/svg" viewBox="0 0 180 180">
  <defs>
    <style>
      .cls-1 {
        stroke: #000;
        stroke-miterlimit: 10;
        stroke-width: 2px;
      }
    </style>
  </defs>
  <path class="cls-1" d="M42.62,79.49c-1.03-.33-2.13.24-2.46,1.27l-6.83,21.52c-.33,1.03.24,2.13,1.27,2.46.2.06.4.09.59.09.83,0,1.6-.53,1.87-1.37l6.83-21.52c.33-1.03-.24-2.13-1.27-2.46Z"/>
  <path class="cls-1" d="M26.7,71.73l-12.14,12.62c-.75.78-.73,2.02.05,2.77.38.37.87.55,1.36.55.51,0,1.03-.2,1.41-.6l12.14-12.62c.75-.78.73-2.02-.05-2.77-.78-.75-2.02-.73-2.77.05Z"/>
  <path class="cls-1" d="M60.1,82.33c-.16-1.07-1.16-1.8-2.23-1.64-1.07.16-1.8,1.16-1.64,2.23l2.64,17.31c.15.97.98,1.66,1.93,1.66.1,0,.2,0,.3-.02,1.07-.16,1.8-1.16,1.64-2.23l-2.63-17.31Z"/>
  <path class="cls-1" d="M172.12,63.96c0-9.92-8.07-18-18-18-3.61,0-6.96,1.08-9.78,2.91l-63.51-26.97c.41-3.75-.29-7.54-2.07-10.97-2.38-4.6-6.41-7.99-11.35-9.56-4.93-1.57-10.18-1.12-14.78,1.26-4.6,2.38-7.99,6.41-9.56,11.35l-3.07,9.66c-2.57,2.46-6.1,4.4-9.82,6.44-8.4,4.61-17.93,9.84-22.2,23.34-.33,1.03.24,2.13,1.27,2.46l74.24,23.57c.2.06.4.09.59.09.83,0,1.6-.53,1.87-1.37,4.29-13.49-.48-23.26-4.68-31.87-.61-1.25-1.21-2.48-1.76-3.7l56.86,24.14c.57,3.6,2.19,6.84,4.57,9.41l-25.97,76.71h-23.49v-5.28c0-1.08-.88-1.96-1.96-1.96s-1.96.88-1.96,1.96v5.28h-10.91c-7.06,0-12.81,5.75-12.81,12.81v12.83c0,1.08.88,1.96,1.96,1.96h85.71c1.08,0,1.96-.88,1.96-1.96v-12.83c0-7.06-5.75-12.81-12.81-12.81h-5.03l24.34-71.91c7.06-2.44,12.15-9.13,12.15-17ZM82.75,75.11L12.35,52.76c4.05-10.64,12.01-15.01,19.71-19.24,4.14-2.27,8.05-4.42,11.05-7.44.22-.22.38-.49.48-.79l3.21-10.13c1.25-3.94,3.96-7.15,7.63-9.05,3.67-1.9,7.86-2.26,11.79-1.01,3.94,1.25,7.15,3.96,9.05,7.63,1.9,3.67,2.26,7.86,1.01,11.79l-3.21,10.13c-.09.3-.12.61-.06.92.71,4.19,2.66,8.2,4.74,12.45,3.85,7.9,7.83,16.06,5.01,27.09ZM76.95,35.38l3.04-9.58,60.98,25.89c-2.68,2.87-4.43,6.6-4.78,10.73l-58.7-24.92c-.22-.71-.41-1.42-.55-2.13ZM154.12,49.87c7.77,0,14.08,6.32,14.08,14.08s-6.32,14.08-14.08,14.08-14.08-6.32-14.08-14.08,6.32-14.08,14.08-14.08ZM149.55,165.68v10.87h-81.8v-10.87c0-4.9,3.99-8.89,8.89-8.89h64.01c4.9,0,8.89,3.99,8.89,8.89ZM131.49,152.87h-12.4l25.03-73.95c2.86,1.92,6.3,3.04,9.99,3.04.47,0,.94-.03,1.4-.07l-24.03,70.99Z"/>
</svg>