<?xml version="1.0" encoding="UTF-8"?>
<svg id="Office_Essentials" data-name="Office Essentials" xmlns="http://www.w3.org/2000/svg" viewBox="0 0 180 180">
  <defs>
    <style>
      .cls-1 {
        stroke: #000;
        stroke-miterlimit: 10;
        stroke-width: 2px;
      }
    </style>
  </defs>
  <path class="cls-1" d="M169.72,69.92c5.67,0,10.28-4.61,10.28-10.28V10.74c0-5.67-4.61-10.28-10.28-10.28h-77.19c-5.67,0-10.28,4.61-10.28,10.28v48.89c0,5.67,4.61,10.28,10.28,10.28h30.28v8.51l-10.85,4.17c-.73.28-1.21.98-1.21,1.76v5.36h-56.38v-4.68c0-6.16-5.01-11.16-11.16-11.16h-18.43c-1.75,0-3.41.42-4.88,1.14l-15.78-24.33,16.86-27.99h15.06v5.16c-5.18,3.9-8.24,9.99-8.24,16.5,0,1.04.85,1.89,1.89,1.89h37.54c1.04,0,1.89-.85,1.89-1.89,0-6.51-3.06-12.6-8.24-16.5v-7.67c0-6.85-5.57-12.42-12.42-12.42-6.42,0-11.72,4.9-12.36,11.15h-16.19c-.66,0-1.28.35-1.62.91L.27,49.75c-.37.62-.36,1.4.03,2l16.52,25.47c-1.98,2.02-3.21,4.78-3.21,7.82v4.68H1.89C.85,89.73,0,90.57,0,91.61v14.84c0,1.04.85,1.89,1.89,1.89h5.53v70.23c0,1.04.85,1.89,1.89,1.89h57.92c1.04,0,1.89-.85,1.89-1.89v-70.23h99.69v70.23c0,1.04.85,1.89,1.89,1.89s1.89-.85,1.89-1.89v-70.23h5.53c1.04,0,1.89-.85,1.89-1.89v-14.84c0-1.04-.85-1.89-1.89-1.89h-26.61v-5.36c0-.78-.48-1.48-1.21-1.76l-10.85-4.17v-8.51h30.28ZM39.81,20.19c0-4.77,3.88-8.65,8.65-8.65s8.64,3.88,8.64,8.65v8.64c0,.63.31,1.21.83,1.56,4.11,2.79,6.76,7.22,7.3,12.08H31.68c.55-4.87,3.19-9.29,7.3-12.08.52-.35.83-.94.83-1.56v-8.64ZM86.03,59.64V10.74c0-3.59,2.92-6.5,6.5-6.5h26.94l-11.32,15.55c-.61.84-.43,2.02.42,2.64.34.24.72.36,1.11.36.58,0,1.16-.27,1.53-.78l12.93-17.77h14.36l-26.71,36.7c-.61.84-.43,2.02.42,2.64.34.24.72.36,1.11.36.58,0,1.16-.27,1.53-.78l28.32-38.93h26.55c3.59,0,6.5,2.92,6.5,6.5v48.89c0,3.59-2.92,6.5-6.5,6.5h-77.19c-3.59,0-6.5-2.92-6.5-6.5ZM17.39,85.04c0-4.07,3.31-7.39,7.39-7.39h18.43c4.07,0,7.39,3.31,7.39,7.39v4.68H17.39v-4.68ZM65.34,152.65H11.2v-20.26h54.14v20.26ZM11.2,176.69v-20.26h54.14v20.26H11.2ZM65.34,128.61H11.2v-20.26h54.14v20.26ZM176.22,104.57H3.78v-11.06h172.45v11.06ZM136.88,81.49l10.85,4.17v4.07h-33.2v-4.07l10.85-4.17c.73-.28,1.21-.98,1.21-1.76v-9.81h9.08v9.81c0,.78.48,1.48,1.21,1.76Z"/>
</svg>