<?xml version="1.0" encoding="UTF-8"?>
<svg id="Office_Essentials" data-name="Office Essentials" xmlns="http://www.w3.org/2000/svg" viewBox="0 0 180 180">
  <defs>
    <style>
      .cls-1 {
        stroke: #000;
        stroke-miterlimit: 10;
        stroke-width: 2px;
      }
    </style>
  </defs>
  <path class="cls-1" d="M53.28.46H7.84C3.52.46,0,3.98,0,8.3v162.89c0,4.32,3.52,7.84,7.84,7.84h45.44c4.32,0,7.84-3.52,7.84-7.84V8.3c0-4.32-3.52-7.84-7.84-7.84ZM56.84,171.19c0,1.96-1.6,3.56-3.56,3.56H7.84c-1.96,0-3.56-1.6-3.56-3.56V8.3c0-1.96,1.6-3.56,3.56-3.56h45.44c1.96,0,3.56,1.6,3.56,3.56v162.89Z"/>
  <path class="cls-1" d="M161.22.46h-90.15c-1.18,0-2.14.96-2.14,2.14s.96,2.14,2.14,2.14h90.15c8,0,14.51,6.51,14.51,14.51v142.43c0,8-6.51,14.51-14.51,14.51h-90.67c-1.18,0-2.14.96-2.14,2.14s.96,2.14,2.14,2.14h90.67c10.36,0,18.78-8.43,18.78-18.78V19.25c0-10.36-8.43-18.78-18.78-18.78Z"/>
  <path class="cls-1" d="M161.74,62.39V27.18c0-1.18-.96-2.14-2.14-2.14h-81c-1.18,0-2.14.96-2.14,2.14v35.21c0,1.18.96,2.14,2.14,2.14h81c1.18,0,2.14-.96,2.14-2.14ZM157.47,60.25h-76.73v-30.93h76.73v30.93Z"/>
  <path class="cls-1" d="M94.72,84.42c-2.26,0-4.09,1.83-4.09,4.09s1.83,4.09,4.09,4.09,4.09-1.83,4.09-4.09-1.83-4.09-4.09-4.09Z"/>
  <path class="cls-1" d="M119.1,92.6c2.26,0,4.09-1.83,4.09-4.09s-1.83-4.09-4.09-4.09-4.09,1.83-4.09,4.09,1.83,4.09,4.09,4.09Z"/>
  <path class="cls-1" d="M143.49,84.42c-2.25,0-4.09,1.83-4.09,4.09s1.83,4.09,4.09,4.09,4.09-1.83,4.09-4.09-1.83-4.09-4.09-4.09Z"/>
  <path class="cls-1" d="M94.72,105.63c-2.26,0-4.09,1.83-4.09,4.09s1.83,4.09,4.09,4.09,4.09-1.83,4.09-4.09-1.83-4.09-4.09-4.09Z"/>
  <path class="cls-1" d="M119.1,113.81c2.26,0,4.09-1.83,4.09-4.09s-1.83-4.09-4.09-4.09-4.09,1.83-4.09,4.09,1.83,4.09,4.09,4.09Z"/>
  <path class="cls-1" d="M143.49,105.63c-2.25,0-4.09,1.83-4.09,4.09s1.83,4.09,4.09,4.09,4.09-1.83,4.09-4.09-1.83-4.09-4.09-4.09Z"/>
  <path class="cls-1" d="M94.72,126.85c-2.26,0-4.09,1.83-4.09,4.09s1.83,4.09,4.09,4.09,4.09-1.83,4.09-4.09-1.83-4.09-4.09-4.09Z"/>
  <path class="cls-1" d="M119.1,135.03c2.26,0,4.09-1.83,4.09-4.09s-1.83-4.09-4.09-4.09-4.09,1.83-4.09,4.09,1.83,4.09,4.09,4.09Z"/>
  <path class="cls-1" d="M143.49,126.85c-2.25,0-4.09,1.83-4.09,4.09s1.83,4.09,4.09,4.09,4.09-1.83,4.09-4.09-1.83-4.09-4.09-4.09Z"/>
  <path class="cls-1" d="M107.97,157.98c0,1.18.96,2.14,2.14,2.14h17.98c1.18,0,2.14-.96,2.14-2.14s-.96-2.14-2.14-2.14h-17.98c-1.18,0-2.14.96-2.14,2.14Z"/>
</svg>