<?xml version="1.0" encoding="UTF-8"?>
<svg id="Office_Essentials" data-name="Office Essentials" xmlns="http://www.w3.org/2000/svg" viewBox="0 0 180 180">
  <defs>
    <style>
      .cls-1 {
        stroke: #000;
        stroke-miterlimit: 10;
        stroke-width: 2px;
      }
    </style>
  </defs>
  <path class="cls-1" d="M165.51,32.11L134.47,1.07c-.39-.39-.92-.61-1.47-.61H25.22c-6.25,0-11.34,5.09-11.34,11.34v157.33c0,6.25,5.09,11.34,11.34,11.34h129.56c6.25,0,11.34-5.09,11.34-11.34V33.59c0-.55-.22-1.08-.61-1.47ZM135.08,7.57l23.93,23.93h-23.93V7.57ZM154.78,176.3H25.22c-3.95,0-7.17-3.22-7.17-7.17V11.8c0-3.95,3.22-7.17,7.17-7.17h105.69v28.96c0,1.15.93,2.08,2.08,2.08h28.96v133.46c0,3.95-3.22,7.17-7.17,7.17Z"/>
  <path class="cls-1" d="M73.32,40.3h33.36c1.15,0,2.08-.93,2.08-2.08s-.93-2.08-2.08-2.08h-33.36c-1.15,0-2.08.93-2.08,2.08s.93,2.08,2.08,2.08Z"/>
  <path class="cls-1" d="M136.91,56.49H43.09c-1.15,0-2.08.93-2.08,2.08s.93,2.08,2.08,2.08h93.83c1.15,0,2.08-.93,2.08-2.08s-.93-2.08-2.08-2.08Z"/>
  <path class="cls-1" d="M136.91,76.85H43.09c-1.15,0-2.08.93-2.08,2.08s.93,2.08,2.08,2.08h93.83c1.15,0,2.08-.93,2.08-2.08s-.93-2.08-2.08-2.08Z"/>
  <path class="cls-1" d="M136.91,97.21H43.09c-1.15,0-2.08.93-2.08,2.08s.93,2.08,2.08,2.08h93.83c1.15,0,2.08-.93,2.08-2.08s-.93-2.08-2.08-2.08Z"/>
  <path class="cls-1" d="M82.03,140.48h-16.15c-5.01,0-9.09-4.08-9.09-9.09,0-1.15-.93-2.08-2.08-2.08s-2.08.93-2.08,2.08c0,5.01-4.08,9.09-9.09,9.09-1.15,0-2.08.93-2.08,2.08s.93,2.08,2.08,2.08c4.69,0,8.82-2.45,11.18-6.13,2.36,3.68,6.49,6.13,11.18,6.13h16.15c1.15,0,2.08-.93,2.08-2.08s-.93-2.08-2.08-2.08Z"/>
  <path class="cls-1" d="M125.81,140.48h-13.79c-1.15,0-2.08.93-2.08,2.08s.93,2.08,2.08,2.08h13.79c1.15,0,2.08-.93,2.08-2.08s-.93-2.08-2.08-2.08Z"/>
</svg>