<?xml version="1.0" encoding="UTF-8"?>
<svg id="Office_Essentials" data-name="Office Essentials" xmlns="http://www.w3.org/2000/svg" viewBox="0 0 180 180">
  <defs>
    <style>
      .cls-1 {
        stroke: #000;
        stroke-miterlimit: 10;
        stroke-width: 2px;
      }
    </style>
  </defs>
  <path class="cls-1" d="M161.17,166.26h-17.58c-4.49,0-8.14-3.65-8.14-8.14,0-1.03-.83-1.86-1.86-1.86s-1.86.83-1.86,1.86c0,4.49-3.65,8.14-8.13,8.14h-14.45c-4.49,0-8.13-3.65-8.13-8.14,0-1.03-.83-1.86-1.86-1.86s-1.86.83-1.86,1.86c0,4.49-3.65,8.14-8.14,8.14-1.03,0-1.86.83-1.86,1.86s.83,1.86,1.86,1.86c4.2,0,7.89-2.19,10-5.49,2.11,3.3,5.8,5.49,10,5.49h14.45c4.2,0,7.89-2.19,10-5.49,2.11,3.3,5.8,5.49,10,5.49h17.58c1.03,0,1.86-.83,1.86-1.86s-.83-1.86-1.86-1.86Z"/>
  <path class="cls-1" d="M131.63,130.83c0-1.03-.83-1.86-1.86-1.86s-1.86.83-1.86,1.86c0,4.49-3.65,8.13-8.13,8.13h-10.31c-1.03,0-1.86.83-1.86,1.86s.83,1.86,1.86,1.86h10.31c4.2,0,7.89-2.19,10-5.49,2.11,3.3,5.8,5.49,10,5.49h21.4c1.03,0,1.86-.83,1.86-1.86s-.83-1.86-1.86-1.86h-21.4c-4.49,0-8.13-3.65-8.13-8.13Z"/>
  <path class="cls-1" d="M150.54,27.05L114.38,2.1c-2.04-1.41-4.52-1.94-6.96-1.49-2.45.45-4.58,1.82-5.98,3.86L17.3,126.41c-.22.32-.33.69-.33,1.08l.46,51.13c0,.61.31,1.17.81,1.52.32.22.68.33,1.06.33.22,0,.44-.04.65-.12l47.96-17.72c.36-.13.67-.37.89-.69l84.13-121.94c2.92-4.22,1.85-10.03-2.38-12.95ZM20.71,128.79c5.98-.43,11.45,3.7,12.56,9.72.09.49.37.92.77,1.2.41.28.91.39,1.39.3,3.13-.57,6.29.11,8.91,1.91,2.62,1.81,4.37,4.52,4.95,7.65.19,1.01,1.15,1.68,2.17,1.5,3.13-.57,6.29.1,8.91,1.91,2.35,1.62,4,3.99,4.73,6.73l-22.16,8.19c-1.36-4.67-4.26-8.7-8.31-11.5-4.06-2.8-8.85-4.08-13.7-3.69l-.21-23.9ZM62.48,149.9c-2.95-2.03-6.42-2.98-9.94-2.73-1.02-3.38-3.13-6.29-6.08-8.32-2.95-2.03-6.43-2.98-9.94-2.73-1.88-6.22-7.43-10.55-13.77-11.03L87.22,31.64l45.35,31.29-64.62,93.66c-1.15-2.68-3.01-4.99-5.47-6.69ZM20.96,156.43c4.08-.39,8.13.66,11.55,3.01,3.42,2.36,5.83,5.77,6.92,9.73l-18.29,6.76-.17-19.5ZM149.85,37.89l-15.16,21.98-45.35-31.29,7.21-10.46,22.68,15.65c.32.22.69.33,1.06.33.59,0,1.17-.28,1.53-.81.58-.85.37-2.01-.48-2.59l-22.68-15.65,5.83-8.45c.84-1.22,2.12-2.04,3.59-2.31,1.47-.27,2.96.05,4.18.89l36.16,24.95c2.53,1.75,3.17,5.23,1.43,7.77Z"/>
  <path class="cls-1" d="M81.23,71.31c-.85-.59-2.01-.37-2.59.47l-34.73,50.33c-.58.85-.37,2.01.47,2.59.32.22.69.33,1.06.33.59,0,1.17-.28,1.53-.8l34.73-50.33c.58-.85.37-2.01-.47-2.59Z"/>
  <path class="cls-1" d="M97.25,82.37c-.85-.58-2.01-.37-2.59.48l-34.73,50.33c-.58.85-.37,2.01.48,2.59.32.22.69.33,1.06.33.59,0,1.17-.28,1.53-.81l34.73-50.33c.58-.85.37-2.01-.48-2.59Z"/>
</svg>