<?xml version="1.0" encoding="UTF-8"?>
<svg id="Office_Essentials" data-name="Office Essentials" xmlns="http://www.w3.org/2000/svg" viewBox="0 0 180 180">
  <defs>
    <style>
      .cls-1 {
        stroke: #000;
        stroke-miterlimit: 10;
        stroke-width: 2px;
      }
    </style>
  </defs>
  <path class="cls-1" d="M60.82,82.53c.09,1.06,1.05,1.85,2.09,1.76,1.06-.09,1.85-1.03,1.76-2.09-1.34-15.42-7.2-25.46-12.38-34.32-5.23-8.97-9.37-16.05-7.26-26.01,1.66-8.15,8.27-17.5,44.97-17.53,36.7.03,43.31,9.38,44.97,17.54,2.1,9.95-2.03,17.03-7.27,26-5.17,8.86-11.04,18.91-12.38,34.32-.09,1.06.69,2,1.76,2.09.06,0,.11,0,.17,0,.99,0,1.84-.76,1.92-1.77,1.26-14.55,6.9-24.2,11.86-32.71,5.43-9.3,10.12-17.33,7.72-28.73C135.87,6.88,120.89.51,90.2.46c-.01,0-.02,0-.03,0h-.33s-.02,0-.03,0c-30.69.05-45.67,6.42-48.56,20.61-2.41,11.41,2.28,19.44,7.71,28.74,4.97,8.51,10.6,18.16,11.86,32.71Z"/>
  <path class="cls-1" d="M163.14,60.95h-10.49c-.57,0-1.11.25-1.47.68-.37.43-.53,1-.44,1.56.02.09,1.57,9.69,4,29.71.64,5.26-.22,9.22-2.54,11.78-3.04,3.34-7.74,3.25-7.85,3.25h-9.08c.96-2.09,2.46-5.69.15-9.31-4.09-6.41-18.94-9.53-45.4-9.53s-41.31,3.12-45.4,9.53c-2.31,3.62-.81,7.23.15,9.31h-9.14s-4.76.09-7.79-3.25c-2.33-2.56-3.18-6.52-2.54-11.78,2.43-20.02,3.98-29.61,4-29.71.09-.56-.07-1.13-.44-1.56-.37-.43-.91-.68-1.47-.68h-10.49c-1.07,0-1.93.87-1.93,1.93s.87,1.93,1.93,1.93h8.24c-.59,3.92-1.9,13.01-3.67,27.62-.78,6.45.41,11.46,3.56,14.89,3.91,4.26,9.46,4.48,10.51,4.48.09,0,11.14,0,11.14,0,3.15,6.42,3.66,7.66,3.67,7.7.29.75,1,1.24,1.8,1.24h15.77c.95,2.12,2.46,5.53,2.85,6.63,1.56,4.7,4.37,5.4,5.91,5.4h4.54v20.48h-35.37c-3.91,0-7.09,3.18-7.09,7.09v2.74c-3.93.88-6.87,4.4-6.87,8.59,0,4.86,3.95,8.81,8.81,8.81s8.81-3.95,8.81-8.81c0-4.19-2.95-7.7-6.87-8.59v-2.74c0-1.78,1.45-3.22,3.22-3.22h42.25v5.96c-3.93.88-6.87,4.4-6.87,8.59,0,4.86,3.95,8.81,8.81,8.81s8.81-3.95,8.81-8.81c0-4.19-2.95-7.7-6.87-8.59v-5.96h42.25c1.78,0,3.22,1.45,3.22,3.22v2.74c-3.93.88-6.87,4.4-6.87,8.59,0,4.86,3.95,8.81,8.81,8.81s8.81-3.95,8.81-8.81c0-4.19-2.95-7.7-6.87-8.59v-2.74c0-3.91-3.18-7.09-7.09-7.09h-35.37v-20.48h4.54c1.54,0,4.36-.7,5.9-5.36.4-1.13,1.91-4.55,2.87-6.67h15.77c.79,0,1.5-.49,1.8-1.22.02-.06.53-1.29,3.68-7.71,0,0,10.99,0,11.09,0,1.11,0,6.65-.22,10.55-4.48,3.14-3.43,4.34-8.44,3.56-14.89-1.77-14.61-3.08-23.7-3.67-27.62h8.24c1.07,0,1.93-.87,1.93-1.93s-.87-1.93-1.93-1.93ZM45.61,171.66c0,2.72-2.22,4.94-4.94,4.94s-4.94-2.22-4.94-4.94,2.22-4.94,4.94-4.94,4.94,2.22,4.94,4.94ZM94.94,171.66c0,2.72-2.22,4.94-4.94,4.94s-4.94-2.22-4.94-4.94,2.22-4.94,4.94-4.94,4.94,2.22,4.94,4.94ZM144.28,171.66c0,2.72-2.22,4.94-4.94,4.94s-4.94-2.22-4.94-4.94,2.22-4.94,4.94-4.94,4.94,2.22,4.94,4.94ZM105.59,126.15c-.27.83-1.04,2.75-2.24,2.75h-6.47c-1.07,0-1.93.87-1.93,1.93v22.41h-9.88v-22.41c0-1.07-.87-1.93-1.93-1.93h-6.47c-1.2,0-1.97-1.92-2.26-2.79-.37-1.03-1.42-3.44-2.27-5.37h35.76c-.86,1.93-1.91,4.36-2.29,5.41ZM126.63,116.87H53.37c-.64-1.38-4.98-10.28-4.98-10.28-.99-2.13-1.71-4.04-.53-5.89,1.84-2.89,9.77-7.74,42.14-7.74s40.3,4.85,42.14,7.74c1.18,1.86.46,3.77-.53,5.89,0,0-4.34,8.89-4.98,10.28Z"/>
</svg>