<?xml version="1.0" encoding="UTF-8"?>
<svg id="Office_Essentials" data-name="Office Essentials" xmlns="http://www.w3.org/2000/svg" viewBox="0 0 180 180">
  <defs>
    <style>
      .cls-1 {
        stroke: #000;
        stroke-miterlimit: 10;
        stroke-width: 2px;
      }
    </style>
  </defs>
  <path class="cls-1" d="M4.98,67.45c.55,1.98,3.8,14.06,5.29,18.63,2.16,6.64,5.44,8.88,10.03,10.36,5.15,1.65,12.67,2.56,21.18,2.56s16.03-.91,21.18-2.56c4.59-1.47,7.87-3.72,10.03-10.36,1.49-4.57,4.73-16.64,5.29-18.63.34-1.22.53-2.39.57-3.51,6.48-5.92,16.44-5.92,22.92-.01.04,1.12.23,2.3.57,3.53.55,1.98,3.8,14.06,5.29,18.63,2.16,6.64,5.44,8.88,10.03,10.36,5.15,1.65,12.67,2.56,21.18,2.56s16.02-.91,21.18-2.56c4.59-1.47,7.87-3.72,10.03-10.36,1.49-4.57,4.73-16.64,5.29-18.63,1.06-3.8.63-7.2-1.05-9.72-.02-.04-.03-.08-.06-.12-.19-.31-18.92-30.69-25.98-41.29-7.65-11.48-21.25-11.08-21.83-11.06-1.09.04-1.94.96-1.9,2.05.04,1.09.97,1.96,2.05,1.91.12,0,11.98-.3,18.38,9.3,5.02,7.54,16.02,25.2,21.94,34.75-6.89-1.8-16.5-2.9-28-3.18-.03,0-.07,0-.1,0-12.63.31-22.99,1.6-29.96,3.73-3.1.95-5.25,2.94-6.31,5.59-3.53-2.54-7.76-3.91-12.19-3.91s-8.67,1.37-12.21,3.92c-1.06-2.65-3.22-4.65-6.32-5.59-6.97-2.13-17.33-3.42-29.96-3.73-.03,0-.07,0-.1,0-11.5.28-21.1,1.38-28,3.18,5.92-9.56,16.92-27.22,21.94-34.75,6.4-9.6,18.25-9.3,18.38-9.3,1.08.05,2.01-.81,2.06-1.9.04-1.09-.81-2.01-1.9-2.06-.58-.02-14.17-.42-21.83,11.06C25.01,26.92,6.28,57.31,6.09,57.62c-.02.03-.03.07-.05.1-1.69,2.53-2.12,5.93-1.06,9.73ZM109.67,57.62c6.53-2,16.77-3.26,28.85-3.56,12.08.3,22.32,1.56,28.85,3.56,5.22,1.6,4.42,6.67,3.83,8.77-.56,1.99-3.78,13.99-5.24,18.46-1.82,5.6-4.35,6.81-7.47,7.81-4.7,1.51-11.98,2.37-19.97,2.37s-15.27-.87-19.97-2.37c-3.12-1-5.65-2.21-7.47-7.81-1.45-4.47-4.68-16.47-5.24-18.46-.59-2.11-1.39-7.18,3.83-8.77ZM41.48,54.06c12.08.3,22.32,1.56,28.85,3.56,5.22,1.6,4.42,6.67,3.83,8.77-.56,1.99-3.78,13.99-5.24,18.46-1.82,5.6-4.35,6.81-7.47,7.81-4.7,1.51-11.98,2.37-19.97,2.37s-15.26-.87-19.97-2.37c-3.12-1-5.65-2.21-7.47-7.81-1.45-4.47-4.68-16.47-5.24-18.46-.59-2.11-1.39-7.18,3.83-8.77,6.53-2,16.77-3.26,28.85-3.56Z"/>
  <path class="cls-1" d="M178.81,159.55l-28.47-12.31c-.25-.11-.51-.16-.79-.16H30.14v-.13c0-3.28,2.67-5.94,5.94-5.94h42.37c1.09,0,1.98-.89,1.98-1.98s-.89-1.98-1.98-1.98h-42.37c-5.46,0-9.9,4.44-9.9,9.9v.13h-4.52c-1.09,0-1.98.89-1.98,1.98v3.29h-10.66C4.05,152.35,0,156.4,0,161.37s4.05,9.02,9.02,9.02h10.66v3.29c0,1.09.89,1.98,1.98,1.98h127.89c.27,0,.54-.06.79-.16l28.47-12.31c.73-.31,1.19-1.03,1.19-1.82s-.47-1.5-1.19-1.82ZM9.02,166.43c-2.79,0-5.06-2.27-5.06-5.06s2.27-5.06,5.06-5.06h10.66v10.12h-10.66ZM23.65,151.04h78.7v20.66H23.65v-20.66ZM149.14,171.7h-42.83v-20.66h42.83l23.89,10.33-23.89,10.33Z"/>
</svg>