<?xml version="1.0" encoding="UTF-8"?>
<svg id="Office_Essentials" data-name="Office Essentials" xmlns="http://www.w3.org/2000/svg" viewBox="0 0 180 180">
  <defs>
    <style>
      .cls-1 {
        stroke: #000;
        stroke-miterlimit: 10;
        stroke-width: 2px;
      }
    </style>
  </defs>
  <path class="cls-1" d="M160.68,170.87h-23.79c-4.41,0-7.99-3.59-7.99-7.99,0-1.01-.82-1.83-1.83-1.83s-1.83.82-1.83,1.83c0,4.41-3.59,7.99-7.99,7.99h-14.2c-4.41,0-7.99-3.59-7.99-7.99,0-1.01-.82-1.83-1.83-1.83s-1.83.82-1.83,1.83c0,4.41-3.59,7.99-7.99,7.99-1.01,0-1.83.82-1.83,1.83s.82,1.83,1.83,1.83c4.12,0,7.75-2.15,9.82-5.39,2.07,3.24,5.7,5.39,9.82,5.39h14.2c4.12,0,7.75-2.15,9.82-5.39,2.07,3.24,5.7,5.39,9.82,5.39h23.79c1.01,0,1.83-.82,1.83-1.83s-.82-1.83-1.83-1.83Z"/>
  <path class="cls-1" d="M131.66,136.07c0-1.01-.82-1.83-1.83-1.83s-1.83.82-1.83,1.83c0,4.41-3.59,7.99-7.99,7.99h-10.13c-1.01,0-1.83.82-1.83,1.83s.82,1.83,1.83,1.83h10.13c4.12,0,7.75-2.15,9.82-5.39,2.07,3.24,5.7,5.39,9.82,5.39h21.03c1.01,0,1.83-.82,1.83-1.83s-.82-1.83-1.83-1.83h-21.03c-4.41,0-7.99-3.59-7.99-7.99Z"/>
  <path class="cls-1" d="M92.32,120.05l50.31-71.82,1.67,1.17c1.27.89,2.12,2.23,2.39,3.78.27,1.54-.07,3.1-.96,4.37l-30.77,43.92c-.58.83-.38,1.97.45,2.55.32.22.69.33,1.05.33.58,0,1.14-.27,1.5-.78l30.77-43.92c1.45-2.07,2.01-4.6,1.57-7.1-.44-2.51-1.83-4.69-3.9-6.14l-1.67-1.17,1.43-2.05c1.45-2.07,2.01-4.6,1.57-7.1-.44-2.51-1.83-4.69-3.9-6.14h0l-3.17-2.22,8.26-11.78c.28-.4.39-.89.3-1.37-.08-.48-.35-.9-.75-1.18L130.5.79c-.4-.28-.89-.39-1.37-.3-.48.08-.9.36-1.18.75l-8.26,11.78-3.17-2.22c-4.29-3.01-10.23-1.96-13.24,2.33l-53.85,76.87c-23.7,33.83-29.02,79.42-29.56,84.64l-2.06,2.94c-.58.83-.38,1.97.45,2.55.32.22.69.33,1.05.33.58,0,1.14-.27,1.5-.78l2.06-2.94c4.73-2.29,45.75-22.87,69.45-56.7ZM129.9,4.84l14.97,10.49-7.21,10.28-14.97-10.49,7.21-10.29ZM29.97,142.28l19.87,13.92c-11.33,8.06-21.24,13.5-25.99,15.95.68-5.3,2.41-16.47,6.12-29.88ZM52.98,153.93l-21.95-15.38c4.37-14.79,11.12-31.77,21.4-46.45L106.28,15.24c1.14-1.62,2.95-2.49,4.8-2.49,1.16,0,2.33.34,3.35,1.06l27.31,19.13h0c1.27.89,2.12,2.23,2.39,3.78.27,1.54-.07,3.1-.96,4.37l-43.03,61.43-25.71-18.01c-.83-.58-1.97-.38-2.55.45-.58.83-.38,1.97.45,2.55l25.71,18.01-8.71,12.44c-10.29,14.68-23.94,26.82-36.35,35.98Z"/>
</svg>