<?xml version="1.0" encoding="UTF-8"?>
<svg id="Office_Essentials" data-name="Office Essentials" xmlns="http://www.w3.org/2000/svg" viewBox="0 0 180 180">
  <defs>
    <style>
      .cls-1 {
        stroke: #000;
        stroke-miterlimit: 10;
        stroke-width: 2px;
      }
    </style>
  </defs>
  <path class="cls-1" d="M162.03,73.4h-4.48c-.41-14.22-5.26-26.99-13.37-37.2,1.36-2.25,2.01-4.85,1.83-7.53-.23-3.44-1.79-6.58-4.39-8.85C127.31,7.34,108.98.46,90,.46s-37.31,6.88-51.62,19.37c-2.6,2.27-4.15,5.41-4.39,8.85-.18,2.68.47,5.28,1.83,7.53-8.11,10.21-12.96,22.98-13.37,37.2h-4.48c-9.15,0-16.6,7.45-16.6,16.6v30.33c0,9.15,7.45,16.6,16.6,16.6h13.28c4.88,0,8.85-3.97,8.85-8.85v-45.84c0-4.88-3.97-8.85-8.85-8.85h-4.9c.4-12.99,4.77-24.68,12.07-34.12,2.33,2.02,5.32,3.17,8.45,3.17,3.12,0,6.13-1.13,8.48-3.18,9.61-8.39,21.91-13,34.65-13s25.04,4.62,34.65,13c2.35,2.05,5.36,3.18,8.48,3.18s6.12-1.15,8.45-3.17c7.3,9.44,11.67,21.13,12.07,34.12h-4.9c-4.88,0-8.85,3.97-8.85,8.85v45.84c0,4.88,3.97,8.85,8.85,8.85h4.94v3.85c0,14.7-11.96,26.66-26.66,26.66h-19.1c-.93-5.18-5.45-9.12-10.89-9.12h-14.07c-6.11,0-11.07,4.97-11.07,11.07s4.97,11.07,11.07,11.07h14.07c5.44,0,9.97-3.95,10.89-9.12h19.1c16.85,0,30.56-13.71,30.56-30.56v-3.85h4.44c9.15,0,16.6-7.45,16.6-16.6v-30.33c0-9.15-7.45-16.6-16.6-16.6ZM97.03,176.56h-14.07c-3.96,0-7.17-3.22-7.17-7.17s3.22-7.17,7.17-7.17h14.07c3.96,0,7.17,3.22,7.17,7.17s-3.22,7.17-7.17,7.17ZM5.27,120.33v-30.33c0-7,5.7-12.7,12.7-12.7h4.44v55.73h-4.44c-7,0-12.7-5.7-12.7-12.7ZM36.2,82.24v45.84c0,2.73-2.22,4.94-4.94,4.94h-4.94v-55.73h4.94c2.73,0,4.94,2.22,4.94,4.94ZM133.13,38.55c-2.17,0-4.27-.79-5.91-2.22-10.32-9-23.53-13.96-37.21-13.96s-26.9,4.96-37.22,13.97c-1.64,1.43-3.74,2.22-5.91,2.22-2.6,0-5.07-1.12-6.78-3.08-1.58-1.81-2.36-4.13-2.2-6.53.16-2.4,1.25-4.59,3.06-6.17,13.6-11.87,31.02-18.41,49.05-18.41s35.45,6.54,49.05,18.41c1.81,1.58,2.9,3.77,3.06,6.17.16,2.4-.62,4.72-2.2,6.53-1.71,1.96-4.18,3.08-6.78,3.08ZM143.8,128.08v-45.84c0-2.73,2.22-4.94,4.94-4.94h4.94v55.73h-4.94c-2.73,0-4.94-2.22-4.94-4.94ZM174.73,120.33c0,7-5.7,12.7-12.7,12.7h-4.44v-55.73h4.44c7,0,12.7,5.7,12.7,12.7v30.33Z"/>
</svg>