<?xml version="1.0" encoding="UTF-8"?>
<svg id="Office_Essentials" data-name="Office Essentials" xmlns="http://www.w3.org/2000/svg" viewBox="0 0 180 180">
  <defs>
    <style>
      .cls-1 {
        stroke: #000;
        stroke-miterlimit: 10;
        stroke-width: 2px;
      }
    </style>
  </defs>
  <path class="cls-1" d="M66.52,145.31l3.84-5.49,3.64,2.55c.35.24.76.37,1.18.37.12,0,.24-.01.36-.03.54-.1,1.02-.4,1.33-.85L173.49,3.71c.65-.93.43-2.22-.51-2.87-.93-.65-2.22-.43-2.88.51l-95.44,136.46-55.16-38.58L86.3,3.71c.65-.93.43-2.22-.51-2.87-.93-.65-2.22-.43-2.88.51L14.94,98.55c-.65.93-.43,2.22.51,2.87l3.64,2.55-3.84,5.49c-5.24,7.49-4.51,13.7-3.75,20.26.7,5.94,1.41,12.08-2,20.48l-7.08,16.16h0c-2.29,5.24-1.39,9.79,2.47,12.49,1.54,1.08,3.2,1.61,4.9,1.61,2.55,0,5.2-1.21,7.68-3.58l12.75-12.19c6.72-6.09,12.73-7.52,18.55-8.91,6.43-1.53,12.51-2.98,17.75-10.47ZM14.61,173.9c-2.69,2.57-5.17,3.1-7.36,1.56-2.19-1.53-2.55-4.04-1.06-7.45h0s6.08-13.89,6.08-13.89l13.29,9.29-10.96,10.48ZM28.68,160.56l-14.76-10.33c3.14-8.62,2.37-15.17,1.69-20.99-.73-6.26-1.31-11.21,3.03-17.42l3.84-5.49,44.5,31.12-3.84,5.49c-4.34,6.21-9.19,7.36-15.32,8.82-5.7,1.36-12.12,2.88-19.13,8.79Z"/>
  <path class="cls-1" d="M85.76,30.54l-31.65,45.25c-5.92,8.46-3.85,20.16,4.61,26.08,3.26,2.28,7,3.38,10.71,3.38,5.91,0,11.73-2.78,15.36-7.98l45.76-64.35c.66-.93.44-2.22-.49-2.88-.93-.66-2.22-.44-2.88.49l-45.77,64.37c-4.61,6.6-13.73,8.21-20.33,3.6-6.6-4.61-8.21-13.74-3.6-20.33l31.65-45.25c.65-.93.43-2.22-.51-2.87-.93-.65-2.22-.43-2.88.51Z"/>
  <path class="cls-1" d="M161.43,113.86h-45.27c-1.14,0-2.06.92-2.06,2.06s.92,2.06,2.06,2.06h45.27c7.32,0,13.27,5.95,13.27,13.27s-5.95,13.27-13.27,13.27c-9.59,0-17.4,7.81-17.4,17.4,0,7.32-5.95,13.27-13.27,13.27H51.83c-1.14,0-2.06.92-2.06,2.06s.92,2.06,2.06,2.06h78.92c9.59,0,17.4-7.81,17.4-17.4,0-7.32,5.95-13.27,13.27-13.27,9.59,0,17.4-7.81,17.4-17.4s-7.81-17.4-17.4-17.4Z"/>
  <path class="cls-1" d="M167.86,91.02h-30.71c-1.14,0-2.06.92-2.06,2.06s.92,2.06,2.06,2.06h30.71c1.14,0,2.06-.92,2.06-2.06s-.92-2.06-2.06-2.06Z"/>
  <path class="cls-1" d="M167.86,70.62h-15.36c-1.14,0-2.06.92-2.06,2.06s.92,2.06,2.06,2.06h15.36c1.14,0,2.06-.92,2.06-2.06s-.92-2.06-2.06-2.06Z"/>
</svg>