<?xml version="1.0" encoding="UTF-8"?>
<svg id="Office_Essentials" data-name="Office Essentials" xmlns="http://www.w3.org/2000/svg" viewBox="0 0 180 180">
  <defs>
    <style>
      .cls-1 {
        stroke: #000;
        stroke-miterlimit: 10;
        stroke-width: 2px;
      }
    </style>
  </defs>
  <path class="cls-1" d="M106.44,54.2l-27.6,31.56c-.66.75-.58,1.89.17,2.55.34.3.77.45,1.19.45.5,0,1-.21,1.36-.62l27.6-31.56c.66-.75.58-1.89-.17-2.55-.75-.66-1.89-.58-2.55.17Z"/>
  <path class="cls-1" d="M179.82,143.21s-16.62-33.75-16.62-33.75V23.9c0-3.07-2.49-5.56-5.56-5.56H22.36c-3.07,0-5.56,2.49-5.56,5.56v85.56S.18,143.2.18,143.21c-.11.23-.18.49-.18.77v8.35C0,157.99,4.6,162.58,10.25,162.58h159.5c5.65,0,10.25-4.6,10.25-10.25v-8.35c0-.28-.07-.54-.18-.77ZM90,130.75h-25.9c-.74,0-1.4.45-1.68,1.14l-4.11,10.29H4.7l15.02-30.49h140.55l15.02,30.49H62.2l3.12-7.82h24.68c1,0,1.8-.81,1.8-1.8s-.81-1.8-1.8-1.8ZM20.41,23.9c0-1.08.88-1.95,1.95-1.95h135.28c1.08,0,1.95.88,1.95,1.95v84.18H20.41V23.9ZM176.39,152.33c0,3.66-2.98,6.64-6.64,6.64H10.25c-3.66,0-6.64-2.98-6.64-6.64v-6.55h172.78v6.55Z"/>
  <path class="cls-1" d="M149.64,30.1H30.36c-1,0-1.8.81-1.8,1.8v66.22c0,1,.81,1.8,1.8,1.8s1.8-.81,1.8-1.8V33.71h62.37l-32.27,36.9c-.66.75-.58,1.89.17,2.55.34.3.77.45,1.19.45.5,0,1-.21,1.36-.62l34.35-39.28h50.31c1,0,1.8-.81,1.8-1.8s-.81-1.8-1.8-1.8Z"/>
</svg>