<?xml version="1.0" encoding="UTF-8"?>
<svg id="Office_Essentials" data-name="Office Essentials" xmlns="http://www.w3.org/2000/svg" viewBox="0 0 180 180">
  <defs>
    <style>
      .cls-1 {
        stroke: #000;
        stroke-miterlimit: 10;
        stroke-width: 2px;
      }
    </style>
  </defs>
  <path class="cls-1" d="M14.93,29.28v97.67c0,1.13.92,2.05,2.05,2.05h146.06c1.13,0,2.05-.92,2.05-2.05V29.28c0-1.13-.92-2.05-2.05-2.05h-31.53c-1.13,0-2.05.92-2.05,2.05s.92,2.05,2.05,2.05h29.49v93.58H19.02V31.33h29.48c1.13,0,2.05-.92,2.05-2.05s-.92-2.05-2.05-2.05h-31.53c-1.13,0-2.05.92-2.05,2.05Z"/>
  <path class="cls-1" d="M169.26,13.11h-33.22c-1.13,0-2.05.92-2.05,2.05s.92,2.05,2.05,2.05h33.22c3.23,0,5.85,2.63,5.85,5.85v110.13c0,3.23-2.63,5.85-5.85,5.85H10.74c-3.23,0-5.85-2.63-5.85-5.85V23.05c0-3.23,2.63-5.85,5.85-5.85h34.13c1.13,0,2.05-.92,2.05-2.05s-.92-2.05-2.05-2.05H10.74C5.26,13.11.79,17.57.79,23.05v110.13c0,5.48,4.46,9.95,9.94,9.95h66.03v13.12l-30.67,8.24c-.89.24-1.51,1.05-1.51,1.98v8.09c0,1.13.92,2.05,2.05,2.05h87.66c1.13,0,2.05-.92,2.05-2.05v-8.09c0-.93-.62-1.74-1.51-1.98l-30.67-8.24v-13.12h65.12c5.48,0,9.94-4.46,9.94-9.95V23.05c0-5.48-4.46-9.95-9.94-9.95ZM101.57,159.79l30.67,8.24v4.48H48.67v-4.48l30.67-8.24c.89-.24,1.51-1.05,1.51-1.98v-14.69h19.2v14.69c0,.93.62,1.74,1.51,1.98Z"/>
  <path class="cls-1" d="M69.65,31.33h41.61c7.44,0,13.5-6.06,13.5-13.5s-6.06-13.5-13.5-13.5h-41.61c-7.44,0-13.5,6.06-13.5,13.5s6.06,13.5,13.5,13.5ZM69.65,8.42h41.61c5.19,0,9.41,4.22,9.41,9.41s-4.22,9.41-9.41,9.41h-41.61c-5.19,0-9.41-4.22-9.41-9.41s4.22-9.41,9.41-9.41Z"/>
  <path class="cls-1" d="M56.2,102.07c.57,0,1.14-.24,1.54-.7l41.52-47.48c.74-.85.66-2.14-.19-2.89-.85-.74-2.14-.66-2.89.19l-41.52,47.48c-.74.85-.66,2.14.19,2.89.39.34.87.51,1.35.51Z"/>
  <path class="cls-1" d="M82.05,99.9c-.74.85-.66,2.14.19,2.89.39.34.87.51,1.35.51.57,0,1.14-.24,1.54-.7l41.52-47.48c.74-.85.66-2.14-.19-2.89-.85-.74-2.14-.66-2.89.19l-41.52,47.48Z"/>
  <path class="cls-1" d="M90.66,22.18c2.4,0,4.35-1.95,4.35-4.35s-1.95-4.35-4.35-4.35-4.35,1.95-4.35,4.35,1.95,4.35,4.35,4.35Z"/>
</svg>