<?xml version="1.0" encoding="UTF-8"?>
<svg id="Office_Essentials" data-name="Office Essentials" xmlns="http://www.w3.org/2000/svg" viewBox="0 0 180 180">
  <defs>
    <style>
      .cls-1 {
        stroke: #000;
        stroke-miterlimit: 10;
        stroke-width: 2px;
      }
    </style>
  </defs>
  <path class="cls-1" d="M152.63,6.44h-11.99v-3.97c0-1.11-.9-2.01-2.01-2.01s-2.01.9-2.01,2.01v3.97h-20.29v-3.97c0-1.11-.9-2.01-2.01-2.01s-2.01.9-2.01,2.01v3.97h-20.29v-3.97c0-1.11-.9-2.01-2.01-2.01s-2.01.9-2.01,2.01v3.97h-20.29v-3.97c0-1.11-.9-2.01-2.01-2.01s-2.01.9-2.01,2.01v3.97h-20.29v-3.97c0-1.11-.9-2.01-2.01-2.01s-2.01.9-2.01,2.01v3.97h-11.99c-6.04,0-10.96,4.92-10.96,10.96v152.1c0,6.04,4.92,10.96,10.96,10.96h125.26c6.04,0,10.96-4.92,10.96-10.96V17.4c0-6.04-4.92-10.96-10.96-10.96ZM159.56,169.5c0,3.82-3.11,6.93-6.93,6.93H27.37c-3.82,0-6.93-3.11-6.93-6.93V17.4c0-3.82,3.11-6.93,6.93-6.93h11.99v3.97c0,1.11.9,2.01,2.01,2.01s2.01-.9,2.01-2.01v-3.97h20.29v3.97c0,1.11.9,2.01,2.01,2.01s2.01-.9,2.01-2.01v-3.97h20.29v3.97c0,1.11.9,2.01,2.01,2.01s2.01-.9,2.01-2.01v-3.97h20.29v3.97c0,1.11.9,2.01,2.01,2.01s2.01-.9,2.01-2.01v-3.97h20.29v3.97c0,1.11.9,2.01,2.01,2.01s2.01-.9,2.01-2.01v-3.97h11.99c3.82,0,6.93,3.11,6.93,6.93v152.1Z"/>
  <path class="cls-1" d="M44.1,70.85l2.22-6.93h13.03l2.22,6.93c.27.86,1.07,1.4,1.92,1.4.2,0,.41-.03.61-.1,1.06-.34,1.64-1.47,1.31-2.53l-6.88-21.52c-.27-.83-1.04-1.4-1.92-1.4h-7.54c-.88,0-1.65.57-1.92,1.4l-6.88,21.52c-.34,1.06.25,2.19,1.31,2.53,1.06.34,2.19-.25,2.53-1.31ZM50.53,50.73h4.6l2.93,9.16h-10.45l2.93-9.16Z"/>
  <path class="cls-1" d="M138.62,48.52h-52.12c-1.11,0-2.01.9-2.01,2.01s.9,2.01,2.01,2.01h52.12c1.11,0,2.01-.9,2.01-2.01s-.9-2.01-2.01-2.01Z"/>
  <path class="cls-1" d="M138.62,66.41h-52.12c-1.11,0-2.01.9-2.01,2.01s.9,2.01,2.01,2.01h52.12c1.11,0,2.01-.9,2.01-2.01s-.9-2.01-2.01-2.01Z"/>
  <path class="cls-1" d="M135.27,103.97h-52.12c-1.11,0-2.01.9-2.01,2.01s.9,2.01,2.01,2.01h52.12c1.11,0,2.01-.9,2.01-2.01s-.9-2.01-2.01-2.01Z"/>
  <path class="cls-1" d="M135.27,121.86h-52.12c-1.11,0-2.01.9-2.01,2.01s.9,2.01,2.01,2.01h52.12c1.11,0,2.01-.9,2.01-2.01s-.9-2.01-2.01-2.01Z"/>
  <path class="cls-1" d="M61.62,112.52c1.01-1.28,1.61-2.89,1.61-4.64,0-4.13-3.36-7.49-7.49-7.49h-10.71c-1.11,0-2.01.9-2.01,2.01v25.05c0,1.11.9,2.01,2.01,2.01h12.14c4.99,0,9.06-4.06,9.06-9.06,0-3.38-1.86-6.33-4.6-7.88ZM47.04,104.41h8.7c1.91,0,3.47,1.56,3.47,3.47s-1.56,3.47-3.47,3.47h-8.7v-6.94ZM57.17,125.44h-10.13v-10.06h10.13c2.77,0,5.03,2.26,5.03,5.03s-2.26,5.03-5.03,5.03Z"/>
</svg>