<?xml version="1.0" encoding="UTF-8"?>
<svg id="Office_Essentials" data-name="Office Essentials" xmlns="http://www.w3.org/2000/svg" viewBox="0 0 180 180">
  <defs>
    <style>
      .cls-1 {
        stroke: #000;
        stroke-miterlimit: 10;
        stroke-width: 2px;
      }
    </style>
  </defs>
  <path class="cls-1" d="M154.78.46H25.22c-6.25,0-11.34,5.09-11.34,11.34v157.33c0,6.25,5.09,11.34,11.34,11.34h129.56c6.25,0,11.34-5.09,11.34-11.34V11.8c0-6.25-5.09-11.34-11.34-11.34ZM18.05,169.13V11.8c0-3.95,3.22-7.17,7.17-7.17h95.35v171.67H25.22c-3.95,0-7.17-3.22-7.17-7.17ZM124.73,176.3V4.63h12.49v171.67h-12.49ZM161.95,169.13c0,3.95-3.22,7.17-7.17,7.17h-13.39V4.63h13.39c3.95,0,7.17,3.22,7.17,7.17v157.33Z"/>
  <path class="cls-1" d="M110.49,69.6h-54.06v-26.26h54.06c1.15,0,2.08-.93,2.08-2.08s-.93-2.08-2.08-2.08h-56.14c-1.15,0-2.08.93-2.08,2.08v30.42c0,1.15.93,2.08,2.08,2.08h56.14c1.15,0,2.08-.93,2.08-2.08s-.93-2.08-2.08-2.08Z"/>
</svg>