<?xml version="1.0" encoding="UTF-8"?>
<svg id="Office_Essentials" data-name="Office Essentials" xmlns="http://www.w3.org/2000/svg" viewBox="0 0 180 180">
  <defs>
    <style>
      .cls-1 {
        stroke: #000;
        stroke-miterlimit: 10;
        stroke-width: 2px;
      }
    </style>
  </defs>
  <path class="cls-1" d="M173.93,61.64h-9.05v-15.29c0-7.07-5.75-12.82-12.82-12.82h-50.9c-4.78,0-8.96,2.64-11.16,6.54-2.2-3.9-6.38-6.54-11.16-6.54H27.94c-7.07,0-12.82,5.75-12.82,12.82v15.29H6.07C2.72,61.64,0,64.36,0,67.71v52.77C0,123.83,2.72,126.56,6.07,126.56h11.45l-7.24,18.57c-.2.51-.13,1.08.18,1.54.31.45.82.72,1.37.72h8.05c.45,0,.88-.18,1.19-.51l19.55-20.32h98.76l19.55,20.32c.31.33.74.51,1.19.51h8.05c.55,0,1.06-.27,1.37-.72.31-.45.37-1.03.18-1.54l-7.24-18.57h11.45c3.35,0,6.07-2.72,6.07-6.07v-52.77c0-3.35-2.72-6.07-6.07-6.07ZM101.16,36.85h50.9c5.24,0,9.5,4.26,9.5,9.5v15.29h-9.05c-3.35,0-6.07,2.72-6.07,6.07v27.03c-15.44-5.1-35.04-7.72-54.78-7.86v-40.54c0-5.24,4.26-9.5,9.5-9.5ZM32.9,123.25c.43-.83.67-1.77.67-2.76v-22.24c31.44-10.77,81.42-10.77,112.86,0v22.24c0,.99.24,1.93.67,2.76H32.9ZM18.44,46.35c0-5.24,4.26-9.5,9.5-9.5h50.9c5.24,0,9.5,4.26,9.5,9.5v40.54c-19.73.14-39.34,2.76-54.78,7.86v-27.03c0-3.35-2.72-6.07-6.07-6.07h-9.05v-15.29ZM3.31,120.48v-52.77c0-1.52,1.24-2.76,2.76-2.76h21.42c1.52,0,2.76,1.24,2.76,2.76v52.77c0,1.52-1.24,2.76-2.76,2.76H6.07c-1.52,0-2.76-1.24-2.76-2.76ZM19.17,144.08h-4.92l6.83-17.52h14.94l-16.85,17.52ZM165.75,144.08h-4.92l-16.85-17.52h14.94l6.83,17.52ZM176.69,120.48c0,1.52-1.24,2.76-2.76,2.76h-21.42c-1.52,0-2.76-1.24-2.76-2.76v-52.77c0-1.52,1.24-2.76,2.76-2.76h21.42c1.52,0,2.76,1.24,2.76,2.76v52.77Z"/>
</svg>