<?xml version="1.0" encoding="UTF-8"?>
<svg id="Office_Essentials" data-name="Office Essentials" xmlns="http://www.w3.org/2000/svg" viewBox="0 0 180 180">
  <defs>
    <style>
      .cls-1 {
        stroke: #000;
        stroke-miterlimit: 10;
        stroke-width: 2px;
      }
    </style>
  </defs>
  <path class="cls-1" d="M177.8,96.8h-51.72c-1.21,0-2.2-.98-2.2-2.2s.98-2.2,2.2-2.2h49.53V4.85h-32.41c-1.04,5.92-6.22,10.43-12.43,10.43s-11.39-4.51-12.43-10.43h-56.67c-1.04,5.92-6.22,10.43-12.43,10.43s-11.39-4.51-12.43-10.43H4.39v87.55h49.53c1.21,0,2.2.98,2.2,2.2s-.98,2.2-2.2,2.2H2.2C.98,96.8,0,95.81,0,94.6V2.66C0,1.45.98.46,2.2.46h36.61c1.21,0,2.2.98,2.2,2.2,0,4.54,3.69,8.23,8.23,8.23s8.23-3.69,8.23-8.23c0-1.21.98-2.2,2.2-2.2h60.68c1.21,0,2.2.98,2.2,2.2,0,4.54,3.69,8.23,8.23,8.23s8.23-3.69,8.23-8.23c0-1.21.98-2.2,2.2-2.2h36.61c1.21,0,2.2.98,2.2,2.2v91.94c0,1.21-.98,2.2-2.2,2.2Z"/>
  <path class="cls-1" d="M99.62,96.8h-19.24c-1.21,0-2.2-.98-2.2-2.2s.98-2.2,2.2-2.2h19.24c1.21,0,2.2.98,2.2,2.2s-.98,2.2-2.2,2.2Z"/>
  <path class="cls-1" d="M90,180.46c-30.72,0-43.25-7.45-43.25-25.72,0-8.79,5.49-14.32,10.81-19.68,6.82-6.87,13.26-13.37,10.26-27.01-9.2-41.76-16.32-80.57-16.39-80.95-.22-1.19.57-2.34,1.76-2.55,1.19-.22,2.34.57,2.55,1.76.07.39,7.17,39.12,16.36,80.8,3.52,15.99-4.42,23.99-11.43,31.05-5.12,5.16-9.53,9.61-9.53,16.59,0,13.17,6.5,21.33,38.86,21.33s38.86-8.16,38.86-21.33c0-6.98-4.42-11.43-9.53-16.59-7.01-7.06-14.95-15.07-11.43-31.05,9.18-41.68,16.28-80.41,16.36-80.8.22-1.19,1.36-1.98,2.55-1.76,1.19.22,1.98,1.36,1.76,2.55-.07.39-7.19,39.2-16.39,80.95-3.01,13.65,3.44,20.14,10.26,27.01,5.31,5.35,10.81,10.89,10.81,19.68,0,18.27-12.53,25.72-43.25,25.72Z"/>
</svg>