<?xml version="1.0" encoding="UTF-8"?>
<svg id="Office_Essentials" data-name="Office Essentials" xmlns="http://www.w3.org/2000/svg" viewBox="0 0 180 180">
  <defs>
    <style>
      .cls-1 {
        stroke: #000;
        stroke-miterlimit: 10;
        stroke-width: 2px;
      }
    </style>
  </defs>
  <path class="cls-1" d="M163.31,54.24h-7.35V2.49c0-1.12-.91-2.03-2.03-2.03H16.69c-1.12,0-2.03.91-2.03,2.03v166.56c0,1.12.91,2.03,2.03,2.03h28.7v7.35c0,1.12.91,2.03,2.03,2.03h115.9c1.12,0,2.03-.91,2.03-2.03V56.27c0-1.12-.91-2.03-2.03-2.03ZM45.98,123.21c-.38.38-.59.9-.59,1.44v42.37h-26.67V4.52h133.19v49.71h-36.11c-.54,0-1.05.21-1.44.59L45.98,123.21ZM161.28,176.4H49.45v-50.91L116.64,58.3h44.65v118.11Z"/>
  <path class="cls-1" d="M71.31,135.39v17.12c0,1.12.91,2.03,2.03,2.03h18.26c.54,0,1.05-.21,1.44-.59l45.78-45.78c.38-.38.59-.9.59-1.44v-24.53c0-1.12-.91-2.03-2.03-2.03h-10.85c-.54,0-1.05.21-1.44.59l-53.19,53.19c-.38.38-.59.9-.59,1.44ZM75.37,136.23l52-52h7.98v21.66l-44.59,44.59h-15.39v-14.25Z"/>
  <path class="cls-1" d="M73.34,30.88h-27.92c-1.12,0-2.03.91-2.03,2.03s.91,2.03,2.03,2.03h27.92c1.12,0,2.03-.91,2.03-2.03s-.91-2.03-2.03-2.03Z"/>
  <path class="cls-1" d="M73.34,49.4h-27.92c-1.12,0-2.03.91-2.03,2.03s.91,2.03,2.03,2.03h27.92c1.12,0,2.03-.91,2.03-2.03s-.91-2.03-2.03-2.03Z"/>
  <path class="cls-1" d="M73.34,67.92h-27.92c-1.12,0-2.03.91-2.03,2.03s.91,2.03,2.03,2.03h27.92c1.12,0,2.03-.91,2.03-2.03s-.91-2.03-2.03-2.03Z"/>
</svg>