<?xml version="1.0" encoding="UTF-8"?>
<svg id="Office_Essentials" data-name="Office Essentials" xmlns="http://www.w3.org/2000/svg" viewBox="0 0 180 180">
  <defs>
    <style>
      .cls-1 {
        stroke: #000;
        stroke-miterlimit: 10;
        stroke-width: 2px;
      }
    </style>
  </defs>
  <path class="cls-1" d="M146.06,82.94c0-4.55-3.7-8.25-8.25-8.25h-3.39l10.24-22.39c.1-.22.15-.46.14-.71l-.61-21.9c-.02-.61-.38-1.15-.93-1.4-.55-.25-1.2-.17-1.67.21l-16.97,13.86c-.19.15-.34.35-.44.57l-14.53,31.76h-1.23l10.33-51.13c.05-.24.04-.48-.02-.72l-5.58-21.19c-.15-.59-.63-1.03-1.22-1.15-.6-.12-1.21.11-1.58.59l-13.37,17.36c-.15.19-.25.42-.3.66l-11.23,55.59h-14.61l-15.61-34.12c-.1-.22-.25-.42-.44-.57l-16.97-13.86c-.47-.38-1.12-.47-1.67-.21-.55.25-.91.8-.93,1.4l-.61,21.9c0,.24.04.48.14.71l11.33,24.76h-3.93c-4.55,0-8.25,3.7-8.25,8.25s3.49,8.02,7.86,8.23v77.72c0,6.38,5.19,11.58,11.58,11.58h73.24c6.38,0,11.58-5.19,11.58-11.58v-77.72c4.37-.21,7.86-3.81,7.86-8.23ZM126.93,44.59l14.18-11.58.51,18.3-10.7,23.38h-17.75l13.77-30.1ZM99.75,20.09l11.17-14.5,4.66,17.7-10.39,51.4h-16.47l11.03-54.6ZM37.84,48.94l.51-18.3,14.17,11.58,14.85,32.46h-17.75l-11.78-25.75ZM44.98,128.78l29.75-37.6h30.09l-59.84,75.63v-38.04ZM44.98,123.65v-32.47h25.69l-25.69,32.47ZM45.38,171.44l63.49-80.25h26.14v4.99l-64.17,81.1h-17.48c-3.74,0-6.91-2.46-8-5.84ZM74.91,177.28l60.11-75.97v38.04l-30.02,37.94h-30.09ZM126.62,177.28h-17.56l25.96-32.81v24.41c0,4.63-3.77,8.4-8.4,8.4ZM137.81,88H42.19c-2.79,0-5.07-2.27-5.07-5.07s2.27-5.07,5.07-5.07h95.63c2.79,0,5.07,2.27,5.07,5.07s-2.27,5.07-5.07,5.07Z"/>
</svg>