<?xml version="1.0" encoding="UTF-8"?>
<svg id="Office_Essentials" data-name="Office Essentials" xmlns="http://www.w3.org/2000/svg" viewBox="0 0 180 180">
  <defs>
    <style>
      .cls-1 {
        stroke: #000;
        stroke-miterlimit: 10;
        stroke-width: 2px;
      }
    </style>
  </defs>
  <path class="cls-1" d="M178.02,30.89h-21.36L90.83.64c-.52-.24-1.13-.24-1.65,0L23.34,30.89H1.98C.89,30.89,0,31.78,0,32.87v14.82c0,1.09.89,1.98,1.98,1.98h2.65v128.81c0,1.09.89,1.98,1.98,1.98h166.77c1.09,0,1.98-.89,1.98-1.98V49.68h2.65c1.09,0,1.98-.89,1.98-1.98v-14.82c0-1.09-.89-1.98-1.98-1.98ZM90,4.62l57.17,26.27H32.83L90,4.62ZM171.41,176.5H8.59V49.68h162.81v126.82ZM176.04,45.72H3.96v-10.86h172.08v10.86Z"/>
  <path class="cls-1" d="M66.59,152.98c10.47,0,20.94-3.99,28.91-11.96,11.84-11.84,14.87-29.19,9.13-43.87l5.02-2.26c1-.45,1.44-1.62.99-2.62-2.4-5.34-5.73-10.16-9.89-14.33-4.16-4.16-8.98-7.49-14.33-9.89-1-.45-2.17,0-2.62.99l-2.26,5.02c-14.68-5.75-32.03-2.71-43.87,9.13-15.94,15.94-15.94,41.88,0,57.82,7.97,7.97,18.44,11.96,28.91,11.96ZM86.58,72.53c4.19,2.11,8.01,4.88,11.36,8.23,3.35,3.35,6.11,7.17,8.23,11.36l-35.64,16.05,16.05-35.64ZM40.48,86.01c7.2-7.2,16.65-10.8,26.11-10.8,4.53,0,9.05.83,13.33,2.48l-15.13,33.61c-.34.75-.18,1.63.41,2.21.38.38.89.58,1.4.58.27,0,.55-.06.81-.17l33.61-15.13c5.1,13.22,2.33,28.79-8.31,39.44-14.4,14.4-37.82,14.4-52.22,0-14.4-14.4-14.4-37.82,0-52.22Z"/>
  <path class="cls-1" d="M124.9,113.39h23.9c1.09,0,1.98-.89,1.98-1.98s-.89-1.98-1.98-1.98h-23.9c-1.09,0-1.98.89-1.98,1.98s.89,1.98,1.98,1.98Z"/>
  <path class="cls-1" d="M124.9,131h23.9c1.09,0,1.98-.89,1.98-1.98s-.89-1.98-1.98-1.98h-23.9c-1.09,0-1.98.89-1.98,1.98s.89,1.98,1.98,1.98Z"/>
  <path class="cls-1" d="M124.9,148.6h23.9c1.09,0,1.98-.89,1.98-1.98s-.89-1.98-1.98-1.98h-23.9c-1.09,0-1.98.89-1.98,1.98s.89,1.98,1.98,1.98Z"/>
</svg>