<?xml version="1.0" encoding="UTF-8"?>
<svg id="Office_Essentials" data-name="Office Essentials" xmlns="http://www.w3.org/2000/svg" viewBox="0 0 180 180">
  <defs>
    <style>
      .cls-1 {
        stroke: #000;
        stroke-miterlimit: 10;
        stroke-width: 2px;
      }
    </style>
  </defs>
  <path class="cls-1" d="M126.39,94.85c8.95,0,21.33-2.29,31.64-12.59,18.13-18.13,11.45-42.66,11.15-43.7-.18-.62-.66-1.11-1.29-1.29-1.03-.29-25.57-6.98-43.7,11.15-16.25,16.25-12.56,37.65-11.41,42.64-1.76,1.95-6.07,7.47-9.04,17.22h-11.88v-30.59c4.39-2.75,22.06-15.26,22.06-38.21C113.92,13.85,91.85,1.22,90.91.7c-.56-.32-1.25-.32-1.82,0-.94.52-23.01,13.15-23.01,38.78,0,22.95,17.67,35.46,22.06,38.21v30.59h-11.88c-2.98-9.79-7.32-15.31-9.04-17.22,1.15-5,4.84-26.39-11.42-42.64-18.13-18.13-42.66-11.44-43.7-11.15-.62.18-1.11.66-1.29,1.29-.29,1.04-6.98,25.57,11.15,43.7,10.31,10.31,22.69,12.59,31.64,12.59,5.09,0,9.07-.74,10.94-1.16,1.47,1.68,5.12,6.4,7.81,14.6H31.18c-.56,0-1.09.25-1.44.68-.35.43-.5,1-.39,1.54l11.55,58.82c.94,4.78,3.32,11.14,13.07,11.14h72.08c9.75,0,12.13-6.36,13.07-11.14l11.55-58.82c.11-.55-.04-1.11-.39-1.54-.35-.43-.88-.68-1.44-.68h-41.17c2.67-8.17,6.3-12.89,7.81-14.6,1.86.42,5.84,1.16,10.93,1.16ZM69.81,39.48c0-20.58,16.14-32.34,20.19-34.97,4.05,2.63,20.19,14.39,20.19,34.97,0,18.18-12.6,29.48-18.33,33.67v-15.61l9.54-11.08c.67-.78.58-1.96-.2-2.63-.78-.67-1.96-.58-2.63.2l-6.72,7.8v-19.98c0-1.03-.84-1.86-1.86-1.86s-1.86.83-1.86,1.86v19.98l-6.72-7.8c-.67-.78-1.85-.87-2.63-.2-.78.67-.87,1.85-.2,2.63l9.54,11.08v15.61c-5.73-4.19-18.33-15.49-18.33-33.67ZM24.61,79.62c-14.55-14.55-11.45-34.29-10.45-39.01,4.71-1.01,24.41-4.14,39,10.45,12.86,12.86,11.93,29.76,10.85,36.77l-11.04-11.04-1.09-14.58c-.08-1.03-.96-1.8-2-1.72-1.03.08-1.8.97-1.72,2l.76,10.26-14.12-14.12c-.73-.73-1.91-.73-2.64,0-.73.73-.73,1.91,0,2.64l14.13,14.13-10.26-.76c-1.03-.07-1.92.69-2,1.72-.08,1.03.69,1.92,1.72,2l14.58,1.09,11.04,11.04c-7,1.09-23.88,2.04-36.78-10.86ZM135.45,168.61c-.96,4.88-2.92,8.13-9.41,8.13H53.96c-6.48,0-8.45-3.25-9.41-8.13l-4.05-20.63h76.32c1.03,0,1.86-.83,1.86-1.86s-.84-1.86-1.86-1.86H39.77l-2.66-13.53h79.71c1.03,0,1.86-.83,1.86-1.86s-.84-1.86-1.86-1.86H36.38l-2.94-14.97h113.11l-11.11,56.59ZM126.84,51.06c14.55-14.55,34.29-11.45,39.01-10.45,1.01,4.71,4.14,24.41-10.45,39-12.86,12.86-29.76,11.93-36.77,10.85l11.04-11.04,14.58-1.09c1.03-.08,1.8-.97,1.72-2-.08-1.03-.97-1.8-2-1.72l-10.26.76,14.12-14.13c.73-.73.73-1.91,0-2.64-.73-.73-1.91-.73-2.64,0l-14.12,14.13.76-10.26c.08-1.03-.69-1.92-1.72-2-1.02-.08-1.92.69-2,1.72l-1.09,14.58-11.04,11.04c-1.08-7.01-2.01-23.91,10.85-36.77Z"/>
</svg>