<?xml version="1.0" encoding="UTF-8"?>
<svg id="Office_Essentials" data-name="Office Essentials" xmlns="http://www.w3.org/2000/svg" viewBox="0 0 180 180">
  <defs>
    <style>
      .cls-1 {
        stroke: #000;
        stroke-miterlimit: 10;
        stroke-width: 2px;
      }
    </style>
  </defs>
  <path class="cls-1" d="M32.84.46C14.73.46,0,15.2,0,33.3v96.71c0,1.15.93,2.08,2.08,2.08s2.08-.93,2.08-2.08V33.3c0-15.81,12.86-28.68,28.68-28.68s28.68,12.86,28.68,28.68v121.01c0,12.12-9.86,21.98-21.98,21.98s-21.98-9.86-21.98-21.98V42.4c0-8.52,6.95-15.46,15.5-15.46s15.5,6.95,15.5,15.5v87.57c0,1.15.93,2.08,2.08,2.08s2.08-.93,2.08-2.08V42.44c0-10.84-8.82-19.67-19.67-19.67s-19.66,8.8-19.66,19.62v111.92c0,14.42,11.73,26.14,26.14,26.14s26.14-11.73,26.14-26.14V33.3C65.68,15.2,50.95.46,32.84.46Z"/>
  <path class="cls-1" d="M165.21,69.92h0c-5.19-1.71-12.03-4.3-14.88-5.38V27.91c.23-3.74,3.93-5.9,6.91-7.63,1.49-.87,2.67-1.55,3.37-2.44,1.5-1.91,2.3-4.2,2.3-6.64,0-5.92-4.81-10.73-10.73-10.73h-32.91c-5.92,0-10.73,4.81-10.73,10.73,0,2.44.8,4.73,2.3,6.64.7.89,1.88,1.57,3.37,2.44,2.98,1.74,6.68,3.89,6.91,7.63v36.62c-2.85,1.09-9.69,3.67-14.88,5.38-9.22,3.04-14.33,9.99-14.79,20.1-.03.57.18,1.12.57,1.53.39.41.94.64,1.51.64h30.02l10.12,86.43c.12,1.05,1.01,1.84,2.07,1.84s1.95-.79,2.07-1.84l10.12-86.43h30.02c.57,0,1.11-.23,1.51-.64.39-.41.6-.97.57-1.53-.46-10.11-5.57-17.07-14.79-20.1ZM135.71,160.47l-7.99-68.27h15.98l-7.99,68.27ZM95.77,88.03c.94-7.14,4.88-11.9,11.75-14.16,6.79-2.24,16.32-5.93,16.41-5.97.8-.31,1.33-1.08,1.33-1.94V27.85s0-.07,0-.11c-.31-6.02-5.73-9.18-8.97-11.07-.82-.48-1.95-1.14-2.19-1.42-.92-1.17-1.41-2.57-1.41-4.06,0-3.62,2.95-6.57,6.57-6.57h32.91c3.62,0,6.57,2.95,6.57,6.57,0,1.49-.49,2.89-1.4,4.06-.25.29-1.37.95-2.2,1.43-3.24,1.89-8.66,5.05-8.97,11.07,0,.04,0,.07,0,.11v38.11c0,.86.53,1.63,1.33,1.94.1.04,9.62,3.73,16.41,5.97h0c6.86,2.26,10.81,7.02,11.74,14.16h-79.88Z"/>
</svg>