<?xml version="1.0" encoding="UTF-8"?>
<svg id="Office_Essentials" data-name="Office Essentials" xmlns="http://www.w3.org/2000/svg" viewBox="0 0 180 180">
  <defs>
    <style>
      .cls-1 {
        stroke: #000;
        stroke-miterlimit: 10;
        stroke-width: 2px;
      }
    </style>
  </defs>
  <path class="cls-1" d="M145.91,115.66H34.09c-6.56,0-11.9,5.34-11.9,11.9s5.34,11.9,11.9,11.9h111.81c6.56,0,11.9-5.34,11.9-11.9s-5.34-11.9-11.9-11.9ZM145.91,135.18H34.09c-4.2,0-7.63-3.42-7.63-7.63s3.42-7.63,7.63-7.63h111.81c4.2,0,7.62,3.42,7.62,7.63s-3.42,7.63-7.62,7.63Z"/>
  <path class="cls-1" d="M76.29,44.74H22.14c-1.18,0-2.14.96-2.14,2.14v31.35c0,1.18.96,2.14,2.14,2.14h54.15c1.18,0,2.14-.96,2.14-2.14v-31.35c0-1.18-.96-2.14-2.14-2.14ZM74.15,76.09H24.27v-27.07h49.87v27.07Z"/>
  <path class="cls-1" d="M103.34,58.38c-2.2,0-3.99,1.79-3.99,3.99s1.79,3.99,3.99,3.99,3.99-1.79,3.99-3.99-1.79-3.99-3.99-3.99Z"/>
  <path class="cls-1" d="M122.9,58.38c-2.2,0-3.99,1.79-3.99,3.99s1.79,3.99,3.99,3.99,3.99-1.79,3.99-3.99-1.79-3.99-3.99-3.99Z"/>
  <path class="cls-1" d="M142.46,58.38c-2.2,0-3.99,1.79-3.99,3.99s1.79,3.99,3.99,3.99,3.99-1.79,3.99-3.99-1.79-3.99-3.99-3.99Z"/>
  <path class="cls-1" d="M169.08.46H10.92C4.9.46,0,5.36,0,11.39v166.94c0,1.18.96,2.14,2.14,2.14h175.73c1.18,0,2.14-.96,2.14-2.14V11.39c0-6.02-4.9-10.92-10.92-10.92ZM4.27,97.87V24.3h171.45v73.56H4.27ZM10.92,4.74h158.15c3.67,0,6.65,2.98,6.65,6.65v8.64H4.27v-8.64c0-3.67,2.98-6.65,6.65-6.65ZM31.35,176.19v-18.93h117.3v18.93H31.35ZM152.92,176.19v-21.07c0-1.18-.96-2.14-2.14-2.14H29.21c-1.18,0-2.14.96-2.14,2.14v21.07H4.27v-74.05h171.45v74.05h-22.8Z"/>
</svg>