<?xml version="1.0" encoding="UTF-8"?>
<svg id="Office_Essentials" data-name="Office Essentials" xmlns="http://www.w3.org/2000/svg" viewBox="0 0 180 180">
  <defs>
    <style>
      .cls-1 {
        stroke: #000;
        stroke-miterlimit: 10;
        stroke-width: 2px;
      }
    </style>
  </defs>
  <path class="cls-1" d="M175.29,86.05c-3.9-4.3-9.71-6.87-15.56-6.87-5.16,0-9.95,1.92-13.6,5.26.55-4.51.86-9.23.86-14.15,0-1.01-.82-1.82-1.82-1.82H12.21c-1.01,0-1.82.82-1.82,1.82,0,40.86,21.04,67.95,29.08,76.81H1.82c-.54,0-1.06.24-1.4.66-.35.42-.49.97-.38,1.5.04.2,4.11,19.89,28.08,19.89h101.15c23.97,0,28.05-19.69,28.09-19.89.1-.53-.04-1.09-.38-1.5-.35-.42-.86-.66-1.4-.66h-37.66c2.04-2.25,4.92-5.68,8.08-10.2,4.71-5.59,13.49-8.33,22.69-11.24,13.87-4.38,29.59-9.34,31.24-26.1.48-4.88-1.16-9.68-4.63-13.51ZM129.26,165.51H28.12c-16.55,0-22.17-10.19-23.86-14.77h148.85c-1.74,4.57-7.46,14.77-23.84,14.77ZM44.51,147.1c-2.99-2.93-19.12-19.75-26.63-47.63l6.76,3.57c.27.14.56.21.85.21s.58-.07.85-.21l8.84-4.67,8.84,4.67c.53.28,1.17.28,1.7,0l8.84-4.67,8.84,4.67c.53.28,1.17.28,1.7,0l8.84-4.67,8.85,4.67c.53.28,1.17.28,1.7,0l9.7-5.12c.89-.47,1.23-1.57.76-2.46-.47-.89-1.57-1.23-2.46-.76l-8.85,4.67-8.85-4.67c-.53-.28-1.17-.28-1.7,0l-8.84,4.67-8.84-4.67c-.53-.28-1.17-.28-1.7,0l-8.84,4.67-8.84-4.67c-.53-.28-1.17-.28-1.7,0l-8.84,4.67-8.76-4.63c-1.55-6.94-2.55-14.49-2.68-22.63h129.29c-.7,44.17-26.6,71.2-30.46,74.99H44.51ZM176.29,99.2c-1.42,14.37-14.68,18.55-28.71,22.99-5.61,1.77-11.31,3.58-16.15,6.14,5.41-9.4,10.75-21.65,13.54-36.44,2.84-5.59,8.48-9.05,14.76-9.05,4.83,0,9.64,2.12,12.86,5.67,2.77,3.05,4.08,6.85,3.7,10.7Z"/>
  <path class="cls-1" d="M47.95,50.45c-.59.81-.41,1.95.41,2.54.32.23.7.35,1.07.35.56,0,1.12-.26,1.48-.75.29-.4,7.01-9.91.07-21-5.61-8.96-.3-16.61-.07-16.94.59-.81.4-1.95-.41-2.54-.81-.59-1.95-.41-2.54.41-.29.4-7.01,9.91-.07,21,5.61,8.97.29,16.62.07,16.93Z"/>
  <path class="cls-1" d="M75.24,50.45c-.59.81-.41,1.95.41,2.54.32.23.7.35,1.07.35.56,0,1.12-.26,1.48-.75.29-.4,7.01-9.91.07-21-5.61-8.96-.3-16.61-.07-16.94.59-.81.4-1.95-.41-2.54-.81-.59-1.95-.41-2.54.41-.29.4-7.01,9.91-.07,21,5.61,8.97.29,16.62.07,16.93Z"/>
  <path class="cls-1" d="M102.52,50.45c-.59.81-.41,1.95.41,2.54.32.23.7.35,1.07.35.56,0,1.12-.26,1.48-.75.29-.4,7.01-9.91.07-21-5.61-8.96-.3-16.61-.07-16.94.59-.81.4-1.95-.41-2.54-.81-.59-1.95-.41-2.54.41-.29.4-7.01,9.91-.07,21,5.61,8.97.29,16.62.07,16.93Z"/>
</svg>