<?xml version="1.0" encoding="UTF-8"?>
<svg id="Office_Essentials" data-name="Office Essentials" xmlns="http://www.w3.org/2000/svg" viewBox="0 0 180 180">
  <defs>
    <style>
      .cls-1 {
        stroke: #000;
        stroke-miterlimit: 10;
        stroke-width: 2px;
      }
    </style>
  </defs>
  <path class="cls-1" d="M103.52,35.53h13.9v7.62c0,.95.77,1.72,1.72,1.72s1.72-.77,1.72-1.72v-7.62h13.9c.88,0,1.61-.66,1.71-1.53.94-8.18-5.71-12.35-10.43-13.78l2.36-17.81c.07-.49-.09-.99-.41-1.36-.33-.37-.8-.59-1.3-.59h-15.11c-.5,0-.97.21-1.3.59-.33.37-.48.87-.41,1.36l2.36,17.81c-4.72,1.44-11.37,5.6-10.43,13.78.1.87.84,1.53,1.71,1.53ZM114.48,23.21c.89-.17,1.5-1.01,1.38-1.92l-2.3-17.38h11.18l-2.3,17.38c-.12.9.48,1.74,1.37,1.92.39.08,8.98,1.88,9.3,8.88h-27.93c.33-7,8.91-8.8,9.3-8.88Z"/>
  <path class="cls-1" d="M168.26,149.04l-24.82-104.93c-.22-.93-1.15-1.5-2.07-1.28-.93.22-1.5,1.15-1.28,2.07l24.43,103.25-120.51,28.51L15.49,56.15l76.44-18.08c.93-.22,1.5-1.15,1.28-2.07-.22-.93-1.15-1.5-2.07-1.28L13.02,53.19c-.93.22-1.5,1.15-1.28,2.07l29.3,123.87c.19.79.89,1.33,1.68,1.33.13,0,.26-.01.4-.05l123.87-29.3c.44-.11.83-.38,1.07-.77.24-.39.32-.86.21-1.3Z"/>
  <path class="cls-1" d="M82.12,89.4c-2.1-.77-4.49-1.65-8.45-.71-3.96.94-5.7,2.79-7.23,4.42-1.37,1.46-2.56,2.73-5.51,3.42-2.96.7-4.58.1-6.47-.59-2.1-.77-4.49-1.65-8.45-.71-.93.22-1.5,1.15-1.28,2.07.22.93,1.14,1.5,2.07,1.28,2.96-.7,4.58-.1,6.47.59,1.45.53,3.04,1.11,5.19,1.11.96,0,2.04-.12,3.26-.41,3.96-.94,5.7-2.79,7.23-4.42,1.37-1.46,2.56-2.73,5.51-3.42,2.96-.7,4.58-.1,6.47.59,2.1.77,4.49,1.65,8.45.71,3.96-.94,5.7-2.79,7.24-4.42,1.38-1.46,2.56-2.73,5.52-3.42,2.95-.7,4.58-.1,6.47.59,2.1.77,4.49,1.64,8.45.71,3.96-.94,5.7-2.79,7.24-4.42,1.38-1.46,2.56-2.73,5.52-3.43.93-.22,1.5-1.15,1.28-2.07-.22-.93-1.15-1.5-2.07-1.28-3.96.94-5.7,2.79-7.24,4.42-1.38,1.46-2.56,2.73-5.52,3.42-2.96.7-4.58.1-6.47-.59-2.1-.77-4.49-1.64-8.45-.71-3.96.94-5.7,2.79-7.24,4.42-1.38,1.46-2.56,2.73-5.52,3.42-2.96.7-4.58.1-6.47-.59Z"/>
  <path class="cls-1" d="M106.29,109.28c-3.96.94-5.7,2.79-7.24,4.42-1.38,1.46-2.56,2.73-5.52,3.42-2.96.7-4.58.1-6.47-.59-2.1-.77-4.48-1.65-8.45-.71-3.96.94-5.7,2.79-7.23,4.42-1.37,1.46-2.56,2.72-5.51,3.42-2.96.7-4.58.1-6.47-.59-2.1-.77-4.49-1.64-8.45-.71-.93.22-1.5,1.15-1.28,2.07.22.93,1.15,1.5,2.07,1.28,2.95-.7,4.58-.1,6.47.59,1.45.53,3.04,1.11,5.19,1.11.96,0,2.04-.12,3.26-.41,3.96-.94,5.7-2.79,7.23-4.42,1.37-1.46,2.56-2.73,5.52-3.42,2.95-.7,4.58-.1,6.47.59,2.1.77,4.49,1.65,8.45.71,3.96-.94,5.7-2.79,7.24-4.42,1.38-1.46,2.56-2.73,5.52-3.42.93-.22,1.5-1.15,1.28-2.07-.22-.93-1.15-1.5-2.07-1.28Z"/>
</svg>