<?xml version="1.0" encoding="UTF-8"?>
<svg id="Office_Essentials" data-name="Office Essentials" xmlns="http://www.w3.org/2000/svg" viewBox="0 0 180 180">
  <defs>
    <style>
      .cls-1 {
        stroke: #000;
        stroke-miterlimit: 10;
        stroke-width: 2px;
      }
    </style>
  </defs>
  <path class="cls-1" d="M154.78.46H25.22c-6.25,0-11.34,5.09-11.34,11.34v157.33c0,6.25,5.09,11.34,11.34,11.34h129.56c6.25,0,11.34-5.09,11.34-11.34V11.8c0-6.25-5.09-11.34-11.34-11.34ZM25.22,4.63h129.56c3.95,0,7.17,3.22,7.17,7.17v8.69H18.05v-8.69c0-3.95,3.22-7.17,7.17-7.17ZM161.95,147.02H18.05V24.65h143.91v122.37ZM154.78,176.3H25.22c-3.95,0-7.17-3.22-7.17-7.17v-17.94h143.91v17.94c0,3.95-3.22,7.17-7.17,7.17Z"/>
  <path class="cls-1" d="M97.05,161.2h-14.1c-1.15,0-2.08.93-2.08,2.08s.93,2.08,2.08,2.08h14.1c1.15,0,2.08-.93,2.08-2.08s-.93-2.08-2.08-2.08Z"/>
  <path class="cls-1" d="M38.87,93.79c.36.24.77.36,1.17.36.67,0,1.32-.32,1.72-.91l17.89-26.24h15.38l9.52,13.97c.39.57,1.03.91,1.72.91h17.58c.69,0,1.33-.34,1.72-.91l17.89-26.24h16.48c1.15,0,2.08-.93,2.08-2.08s-.93-2.08-2.08-2.08h-17.58c-.69,0-1.33.34-1.72.91l-17.89,26.24h-15.38l-9.52-13.97c-.39-.57-1.03-.91-1.72-.91h-17.58c-.69,0-1.33.34-1.72.91l-18.51,27.15c-.65.95-.4,2.25.55,2.89Z"/>
  <path class="cls-1" d="M34.15,114.44h8.96c1.15,0,2.08-.93,2.08-2.08s-.93-2.08-2.08-2.08h-8.96c-1.15,0-2.08.93-2.08,2.08s.93,2.08,2.08,2.08Z"/>
  <path class="cls-1" d="M68.79,110.27h-8.96c-1.15,0-2.08.93-2.08,2.08s.93,2.08,2.08,2.08h8.96c1.15,0,2.08-.93,2.08-2.08s-.93-2.08-2.08-2.08Z"/>
  <path class="cls-1" d="M94.48,110.27h-8.96c-1.15,0-2.08.93-2.08,2.08s.93,2.08,2.08,2.08h8.96c1.15,0,2.08-.93,2.08-2.08s-.93-2.08-2.08-2.08Z"/>
  <path class="cls-1" d="M120.17,110.27h-8.96c-1.15,0-2.08.93-2.08,2.08s.93,2.08,2.08,2.08h8.96c1.15,0,2.08-.93,2.08-2.08s-.93-2.08-2.08-2.08Z"/>
  <path class="cls-1" d="M134.82,112.35c0,1.15.93,2.08,2.08,2.08h8.96c1.15,0,2.08-.93,2.08-2.08s-.93-2.08-2.08-2.08h-8.96c-1.15,0-2.08.93-2.08,2.08Z"/>
</svg>