<?xml version="1.0" encoding="UTF-8"?>
<svg id="Office_Essentials" data-name="Office Essentials" xmlns="http://www.w3.org/2000/svg" viewBox="0 0 180 180">
  <defs>
    <style>
      .cls-1 {
        stroke: #000;
        stroke-miterlimit: 10;
        stroke-width: 2px;
      }
    </style>
  </defs>
  <path class="cls-1" d="M90,.46C40.37.46,0,40.84,0,90.46s40.37,90,90,90,90-40.37,90-90S139.63.46,90,.46ZM90,176.3c-47.33,0-85.84-38.51-85.84-85.84S42.67,4.63,90,4.63s85.84,38.51,85.84,85.84-38.51,85.84-85.84,85.84Z"/>
  <path class="cls-1" d="M90,18.52c-39.67,0-71.94,32.27-71.94,71.94s32.27,71.94,71.94,71.94,71.94-32.27,71.94-71.94S129.67,18.52,90,18.52ZM125.66,148.06l-3.95-6.85c-.57-1-1.85-1.34-2.84-.76-1,.58-1.34,1.85-.76,2.84l3.96,6.86c-8.98,4.84-19.16,7.7-29.98,8.03v-7.91c0-1.15-.93-2.08-2.08-2.08s-2.08.93-2.08,2.08v7.91c-10.81-.33-21-3.19-29.98-8.03l3.96-6.86c.58-1,.23-2.27-.76-2.84-1-.58-2.27-.23-2.84.76l-3.95,6.85c-8.89-5.53-16.42-13.05-21.94-21.94l6.85-3.95c1-.58,1.34-1.85.76-2.84-.57-1-1.85-1.34-2.84-.76l-6.86,3.96c-4.84-8.98-7.7-19.16-8.03-29.98h7.91c1.15,0,2.08-.93,2.08-2.08s-.93-2.08-2.08-2.08h-7.91c.33-10.81,3.19-21,8.03-29.98l6.86,3.96c.33.19.69.28,1.04.28.72,0,1.42-.37,1.8-1.04.58-1,.23-2.27-.76-2.84l-6.85-3.95c5.53-8.89,13.05-16.42,21.94-21.94l3.95,6.85c.39.67,1.09,1.04,1.8,1.04.35,0,.71-.09,1.04-.28,1-.57,1.34-1.85.76-2.84l-3.96-6.86c8.98-4.84,19.16-7.7,29.98-8.03v7.91c0,1.15.93,2.08,2.08,2.08s2.08-.93,2.08-2.08v-7.91c10.82.33,21,3.19,29.98,8.03l-3.96,6.86c-.58,1-.23,2.27.76,2.84.33.19.69.28,1.04.28.72,0,1.42-.37,1.8-1.04l3.95-6.85c8.89,5.53,16.42,13.05,21.94,21.94l-6.85,3.95c-1,.58-1.34,1.85-.76,2.84.38.67,1.09,1.04,1.8,1.04.35,0,.71-.09,1.04-.28l6.86-3.96c4.84,8.98,7.7,19.16,8.03,29.98h-7.91c-1.15,0-2.08.93-2.08,2.08s.93,2.08,2.08,2.08h7.91c-.33,10.81-3.19,21-8.03,29.98l-6.86-3.96c-1-.57-2.27-.23-2.84.76-.58,1-.23,2.27.76,2.84l6.85,3.95c-5.53,8.89-13.05,16.42-21.94,21.94Z"/>
  <path class="cls-1" d="M127.61,66.34l-29.01,16.75c-2.08-2.42-5.16-3.97-8.6-3.97s-6.52,1.54-8.6,3.97l-18.44-10.64c-1-.58-2.27-.23-2.84.76-.58,1-.23,2.27.76,2.84l18.43,10.64c-.42,1.18-.66,2.44-.66,3.76,0,6.25,5.09,11.34,11.34,11.34s11.34-5.09,11.34-11.34c0-1.32-.24-2.58-.66-3.76l29.01-16.75c1-.58,1.34-1.85.76-2.84-.57-1-1.85-1.34-2.84-.76ZM90,97.63c-3.95,0-7.17-3.22-7.17-7.17s3.22-7.17,7.17-7.17,7.17,3.22,7.17,7.17-3.22,7.17-7.17,7.17Z"/>
</svg>