<?xml version="1.0" encoding="UTF-8"?>
<svg id="Office_Essentials" data-name="Office Essentials" xmlns="http://www.w3.org/2000/svg" viewBox="0 0 180 180">
  <defs>
    <style>
      .cls-1 {
        stroke: #000;
        stroke-miterlimit: 10;
        stroke-width: 2px;
      }
    </style>
  </defs>
  <path class="cls-1" d="M180,10.98c0-5.8-4.72-10.51-10.51-10.51H10.51C4.72.46,0,5.18,0,10.98,0,16.12,3.71,20.4,8.59,21.3l23.17,157.28c.16,1.08,1.08,1.87,2.17,1.87h113.11c1.09,0,2.02-.81,2.17-1.89l22.2-157.27c4.88-.91,8.58-5.19,8.58-10.33ZM157.76,86.63h-33.03l4.28-65.15h37.95l-9.2,65.15ZM153.79,114.79h-30.9l1.56-23.76h32.69l-3.35,23.76ZM23.3,91.02h32.46l1.63,23.76h-30.58l-3.5-23.76ZM60.16,91.02h59.89l-1.56,23.76h-56.71l-1.63-23.76ZM120.34,86.63h-60.48l-4.46-65.15h69.22l-4.28,65.15ZM50.99,21.49l4.46,65.15H22.65L13.06,21.49h37.94ZM27.45,119.18h30.24l3.9,56.89h-25.75l-8.38-56.89ZM65.98,176.07l-3.9-56.89h56.12l-3.73,56.89h-48.49ZM145.14,176.07h-26.27l3.73-56.89h30.57l-8.03,56.89ZM169.49,17.1H10.51c-3.38,0-6.12-2.75-6.12-6.12s2.75-6.12,6.12-6.12h158.97c3.38,0,6.12,2.75,6.12,6.12s-2.75,6.12-6.12,6.12Z"/>
</svg>