<?xml version="1.0" encoding="UTF-8"?>
<svg id="Office_Essentials" data-name="Office Essentials" xmlns="http://www.w3.org/2000/svg" viewBox="0 0 180 180">
  <defs>
    <style>
      .cls-1 {
        stroke: #000;
        stroke-miterlimit: 10;
        stroke-width: 2px;
      }
    </style>
  </defs>
  <path class="cls-1" d="M177.93,159.94h-34.08v-3.21c0-1.14-.93-2.07-2.07-2.07h-27.06v-18.71h14.18c1.14,0,2.07-.93,2.07-2.07v-8.29c0-5.71-4.65-10.36-10.35-10.36h-6.38v-17.19h19.53c25.5,0,46.24-20.74,46.24-46.24S159.26,5.55,133.76,5.55H46.24C20.74,5.55,0,26.3,0,51.8s20.74,46.24,46.24,46.24h19.53v17.19h-6.38c-5.71,0-10.36,4.65-10.36,10.36v8.29c0,1.14.93,2.07,2.07,2.07h15.15v18.71h-28.04c-1.14,0-2.07.93-2.07,2.07v8.29c0,5.71,4.65,10.35,10.36,10.35h86.98c5.71,0,10.36-4.65,10.36-10.35v-.94h34.08c1.14,0,2.07-.93,2.07-2.07s-.93-2.07-2.07-2.07ZM4.14,51.8C4.14,28.58,23.03,9.69,46.24,9.69h87.51c23.22,0,42.1,18.89,42.1,42.1s-18.89,42.1-42.1,42.1H46.24c-23.22,0-42.1-18.89-42.1-42.1ZM69.92,98.04h40.17v17.19h-40.17v-17.19ZM53.18,125.58c0-3.43,2.79-6.21,6.21-6.21h61.21c3.43,0,6.21,2.79,6.21,6.21v6.22H53.18v-6.22ZM70.4,135.94h40.17v18.71h-40.17v-18.71ZM139.7,165.02c0,3.43-2.79,6.21-6.21,6.21H46.51c-3.43,0-6.21-2.79-6.21-6.21v-6.22h99.41v6.22Z"/>
  <path class="cls-1" d="M124.05,51.8c0-18.77-15.27-34.05-34.05-34.05s-34.05,15.27-34.05,34.05,15.27,34.05,34.05,34.05,34.05-15.27,34.05-34.05ZM60.09,51.8c0-16.49,13.42-29.91,29.91-29.91s29.91,13.42,29.91,29.91-13.42,29.91-29.91,29.91-29.91-13.42-29.91-29.91Z"/>
  <path class="cls-1" d="M92.07,38.23c0-1.14-.93-2.07-2.07-2.07-8.62,0-15.64,7.02-15.64,15.64,0,1.14.93,2.07,2.07,2.07s2.07-.93,2.07-2.07c0-6.34,5.16-11.5,11.5-11.5,1.14,0,2.07-.93,2.07-2.07Z"/>
  <path class="cls-1" d="M138.59,47.15c2.16,0,3.91-1.75,3.91-3.91s-1.75-3.91-3.91-3.91-3.91,1.75-3.91,3.91,1.75,3.91,3.91,3.91Z"/>
  <path class="cls-1" d="M155.71,47.15c2.16,0,3.91-1.75,3.91-3.91s-1.75-3.91-3.91-3.91-3.91,1.75-3.91,3.91,1.75,3.91,3.91,3.91Z"/>
  <path class="cls-1" d="M138.59,64.27c2.16,0,3.91-1.75,3.91-3.91s-1.75-3.91-3.91-3.91-3.91,1.75-3.91,3.91,1.75,3.91,3.91,3.91Z"/>
  <path class="cls-1" d="M155.71,64.27c2.16,0,3.91-1.75,3.91-3.91s-1.75-3.91-3.91-3.91-3.91,1.75-3.91,3.91,1.75,3.91,3.91,3.91Z"/>
</svg>