<?xml version="1.0" encoding="UTF-8"?>
<svg id="Office_Essentials" data-name="Office Essentials" xmlns="http://www.w3.org/2000/svg" viewBox="0 0 180 180">
  <defs>
    <style>
      .cls-1 {
        stroke: #000;
        stroke-miterlimit: 10;
        stroke-width: 2px;
      }
    </style>
  </defs>
  <path class="cls-1" d="M178.12,4.87H1.88C.84,4.87,0,5.71,0,6.75v14.84c0,1.04.84,1.88,1.88,1.88h2.75v91.66c0,1.04.84,1.88,1.88,1.88h38.72l-25.22,56.38c-.43.95,0,2.06.95,2.49.25.11.51.17.77.17.72,0,1.41-.42,1.72-1.12l25.91-57.92h78.85l25.78,57.62c.31.7,1,1.12,1.72,1.12.26,0,.52-.05.77-.17.95-.43,1.38-1.54.95-2.49l-25.09-56.08h41.14c1.04,0,1.88-.84,1.88-1.88V23.48h2.75c1.04,0,1.88-.84,1.88-1.88V6.75c0-1.04-.84-1.88-1.88-1.88ZM171.59,113.25H8.41V23.48h163.19v89.78ZM176.23,19.71H3.77v-11.07h172.46v11.07Z"/>
  <path class="cls-1" d="M87.45,125.59c-1.04,0-1.88.84-1.88,1.88v25.19c0,1.04.84,1.88,1.88,1.88s1.88-.84,1.88-1.88v-25.19c0-1.04-.84-1.88-1.88-1.88Z"/>
  <path class="cls-1" d="M21.74,89.92c11.91,0,15.24-15.92,18.18-29.96,1.86-8.86,3.96-18.9,7.77-18.9s5.91,10.04,7.77,18.9c2.94,14.04,6.27,29.96,18.19,29.96,8.93,0,11.54-9.22,13.63-16.63,1.39-4.92,2.7-9.57,5.14-9.57s3.75,4.65,5.14,9.57c2.09,7.41,4.7,16.63,13.63,16.63,1.04,0,1.88-.84,1.88-1.88s-.84-1.88-1.88-1.88c-5.65,0-7.71-5.76-10.01-13.89-1.79-6.33-3.48-12.31-8.76-12.31s-6.97,5.98-8.76,12.31c-2.3,8.13-4.36,13.89-10.01,13.89-8.85,0-11.85-14.32-14.5-26.96-2.46-11.75-4.59-21.9-11.45-21.9s-8.99,10.15-11.45,21.9c-2.65,12.64-5.65,26.96-14.5,26.96-1.04,0-1.88.84-1.88,1.88s.84,1.88,1.88,1.88Z"/>
  <path class="cls-1" d="M72.65,41.06h9.48c1.04,0,1.88-.84,1.88-1.88s-.84-1.88-1.88-1.88h-9.48c-1.04,0-1.88.84-1.88,1.88s.84,1.88,1.88,1.88Z"/>
  <path class="cls-1" d="M96.44,41.06h9.48c1.04,0,1.88-.84,1.88-1.88s-.84-1.88-1.88-1.88h-9.48c-1.04,0-1.88.84-1.88,1.88s.84,1.88,1.88,1.88Z"/>
  <path class="cls-1" d="M120.23,41.06h9.48c1.04,0,1.88-.84,1.88-1.88s-.84-1.88-1.88-1.88h-9.48c-1.04,0-1.88.84-1.88,1.88s.84,1.88,1.88,1.88Z"/>
  <path class="cls-1" d="M144.02,41.06h9.48c1.04,0,1.88-.84,1.88-1.88s-.84-1.88-1.88-1.88h-9.48c-1.04,0-1.88.84-1.88,1.88s.84,1.88,1.88,1.88Z"/>
  <path class="cls-1" d="M153.5,55.84h-28.53c-1.04,0-1.88.84-1.88,1.88v30.31c0,1.04.84,1.88,1.88,1.88h28.53c1.04,0,1.88-.84,1.88-1.88v-30.31c0-1.04-.84-1.88-1.88-1.88ZM151.62,86.16h-24.77v-26.55h24.77v26.55Z"/>
</svg>