<?xml version="1.0" encoding="UTF-8"?>
<svg id="Layer_1" data-name="Layer 1" xmlns="http://www.w3.org/2000/svg" viewBox="0 0 180 180">
  <defs>
    <style>
      .cls-1 {
        stroke-width: 3px;
      }

      .cls-1, .cls-2, .cls-3 {
        stroke: #000;
        stroke-miterlimit: 10;
      }

      .cls-2 {
        stroke-width: 2px;
      }

      .cls-3 {
        stroke-width: .5px;
      }
    </style>
  </defs>
  <path class="cls-3" d="M157.5,32.14h-8c-12.77,0-25.2-4.5-35.01-12.68L92.06.75c-1.19-1-2.93-1-4.12,0l-22.47,18.73c-9.8,8.17-22.23,12.66-34.98,12.66h-7.98c-1.78,0-3.21,1.44-3.21,3.21v65.46c0,20.47,10.17,39.46,27.2,50.81l41.74,27.82c.54.36,1.16.54,1.78.54s1.24-.18,1.78-.54l41.74-27.82c17.03-11.35,27.2-30.35,27.2-50.81V35.36c0-1.78-1.44-3.21-3.21-3.21ZM154.29,100.82c0,18.31-9.1,35.31-24.33,45.47l-39.95,26.64-39.95-26.64c-15.24-10.16-24.33-27.15-24.33-45.47v-62.25h4.77c14.26,0,28.14-5.03,39.1-14.16l20.42-17.02,20.37,17c10.96,9.14,24.85,14.18,39.12,14.18h4.79v62.25Z"/>
  <g>
    <path class="cls-1" d="M123.03,136.02H56.97c-3.17,0-5.75-2.58-5.75-5.75V50.05c0-3.17,2.58-5.75,5.75-5.75h66.06c3.17,0,5.75,2.58,5.75,5.75v80.21c0,3.17-2.58,5.75-5.75,5.75ZM56.97,46.37c-2.03,0-3.68,1.65-3.68,3.68v80.21c0,2.03,1.65,3.68,3.68,3.68h66.06c2.03,0,3.68-1.65,3.68-3.68V50.05c0-2.03-1.65-3.68-3.68-3.68H56.97Z"/>
    <path class="cls-1" d="M115.67,75.2h-51.33c-.57,0-1.03-.46-1.03-1.03v-16.29c0-.57.46-1.03,1.03-1.03h51.33c.57,0,1.03.46,1.03,1.03v16.29c0,.57-.46,1.03-1.03,1.03ZM65.37,73.13h49.26v-14.22h-49.26v14.22Z"/>
    <g>
      <path class="cls-2" d="M77.32,91.7h-10.92c-.57,0-1.03-.46-1.03-1.03v-8.33c0-.57.46-1.03,1.03-1.03h10.92c.57,0,1.03.46,1.03,1.03v8.33c0,.57-.46,1.03-1.03,1.03ZM67.44,89.63h8.85v-6.26h-8.85v6.26Z"/>
      <path class="cls-2" d="M95.46,91.73h-10.92c-.57,0-1.03-.46-1.03-1.03v-8.33c0-.57.46-1.03,1.03-1.03h10.92c.57,0,1.03.46,1.03,1.03v8.33c0,.57-.46,1.03-1.03,1.03ZM85.58,89.66h8.85v-6.26h-8.85v6.26Z"/>
      <path class="cls-2" d="M113.59,91.77h-10.92c-.57,0-1.03-.46-1.03-1.03v-8.33c0-.57.46-1.03,1.03-1.03h10.92c.57,0,1.03.46,1.03,1.03v8.33c0,.57-.46,1.03-1.03,1.03ZM103.71,89.7h8.85v-6.26h-8.85v6.26Z"/>
    </g>
    <g>
      <path class="cls-2" d="M77.32,107.27h-10.92c-.57,0-1.03-.46-1.03-1.03v-8.33c0-.57.46-1.03,1.03-1.03h10.92c.57,0,1.03.46,1.03,1.03v8.33c0,.57-.46,1.03-1.03,1.03ZM67.44,105.2h8.85v-6.26h-8.85v6.26Z"/>
      <path class="cls-2" d="M95.46,107.3h-10.92c-.57,0-1.03-.46-1.03-1.03v-8.33c0-.57.46-1.03,1.03-1.03h10.92c.57,0,1.03.46,1.03,1.03v8.33c0,.57-.46,1.03-1.03,1.03ZM85.58,105.23h8.85v-6.26h-8.85v6.26Z"/>
      <path class="cls-2" d="M113.59,107.34h-10.92c-.57,0-1.03-.46-1.03-1.03v-8.33c0-.57.46-1.03,1.03-1.03h10.92c.57,0,1.03.46,1.03,1.03v8.33c0,.57-.46,1.03-1.03,1.03ZM103.71,105.27h8.85v-6.26h-8.85v6.26Z"/>
    </g>
    <path class="cls-2" d="M77.32,122.84h-10.92c-.57,0-1.03-.46-1.03-1.03v-8.33c0-.57.46-1.03,1.03-1.03h10.92c.57,0,1.03.46,1.03,1.03v8.33c0,.57-.46,1.03-1.03,1.03ZM67.44,120.77h8.85v-6.26h-8.85v6.26Z"/>
    <path class="cls-2" d="M113.59,122.87h-29.05c-.57,0-1.03-.46-1.03-1.03v-8.33c0-.57.46-1.03,1.03-1.03h29.05c.57,0,1.03.46,1.03,1.03v8.33c0,.57-.46,1.03-1.03,1.03ZM85.58,120.8h26.98v-6.26h-26.98v6.26Z"/>
  </g>
</svg>