<?xml version="1.0" encoding="UTF-8"?>
<svg id="Layer_1" data-name="Layer 1" xmlns="http://www.w3.org/2000/svg" viewBox="0 0 180 180">
  <defs>
    <style>
      .cls-1 {
        stroke: #000;
        stroke-miterlimit: 10;
        stroke-width: 2px;
      }
    </style>
  </defs>
  <g>
    <path class="cls-1" d="M177.92,0H2.08C.93,0,0,.93,0,2.08v175.84c0,1.15.93,2.08,2.08,2.08h175.84c1.15,0,2.08-.93,2.08-2.08V2.08c0-1.15-.93-2.08-2.08-2.08ZM175.84,4.16v21.75H4.16V4.16h171.67ZM4.16,175.84V30.08h171.67v145.76H4.16Z"/>
    <circle class="cls-1" cx="160.81" cy="14.58" r="4.4"/>
    <path class="cls-1" d="M144.28,18.97c2.42,0,4.4-1.97,4.4-4.4s-1.97-4.4-4.4-4.4-4.4,1.97-4.4,4.4,1.97,4.4,4.4,4.4Z"/>
    <circle class="cls-1" cx="127.76" cy="14.58" r="4.4"/>
    <path class="cls-1" d="M107.56,44.42H20.59c-1.15,0-2.08.93-2.08,2.08v59.23c0,1.15.93,2.08,2.08,2.08h86.97c1.15,0,2.08-.93,2.08-2.08v-59.23c0-1.15-.93-2.08-2.08-2.08ZM105.48,103.65H22.67v-55.06h82.81v55.06Z"/>
    <path class="cls-1" d="M159.41,46.27h-35.12c-1.15,0-2.08.93-2.08,2.08s.93,2.08,2.08,2.08h35.12c1.15,0,2.08-.93,2.08-2.08s-.93-2.08-2.08-2.08Z"/>
    <path class="cls-1" d="M159.41,64.78h-35.12c-1.15,0-2.08.93-2.08,2.08s.93,2.08,2.08,2.08h35.12c1.15,0,2.08-.93,2.08-2.08s-.93-2.08-2.08-2.08Z"/>
    <path class="cls-1" d="M159.41,83.29h-35.12c-1.15,0-2.08.93-2.08,2.08s.93,2.08,2.08,2.08h35.12c1.15,0,2.08-.93,2.08-2.08s-.93-2.08-2.08-2.08Z"/>
    <path class="cls-1" d="M159.41,101.8h-35.12c-1.15,0-2.08.93-2.08,2.08s.93,2.08,2.08,2.08h35.12c1.15,0,2.08-.93,2.08-2.08s-.93-2.08-2.08-2.08Z"/>
  </g>
  <path class="cls-1" d="M35.99,122.85c-11.81,0-21.38,9.57-21.38,21.38s9.57,21.38,21.38,21.38,21.38-9.57,21.38-21.38-9.57-21.38-21.38-21.38ZM35.99,161.71c-9.65,0-17.48-7.83-17.48-17.48s7.83-17.48,17.48-17.48,17.48,7.83,17.48,17.48-7.83,17.48-17.48,17.48Z"/>
  <path class="cls-1" d="M90,122.85c-11.81,0-21.38,9.57-21.38,21.38s9.57,21.38,21.38,21.38,21.38-9.57,21.38-21.38-9.57-21.38-21.38-21.38ZM90,161.71c-9.65,0-17.48-7.83-17.48-17.48s7.83-17.48,17.48-17.48,17.48,7.83,17.48,17.48-7.83,17.48-17.48,17.48Z"/>
  <path class="cls-1" d="M144.01,122.85c-11.81,0-21.38,9.57-21.38,21.38s9.57,21.38,21.38,21.38,21.38-9.57,21.38-21.38-9.57-21.38-21.38-21.38ZM144.01,161.71c-9.65,0-17.48-7.83-17.48-17.48s7.83-17.48,17.48-17.48,17.48,7.83,17.48,17.48-7.83,17.48-17.48,17.48Z"/>
  <circle class="cls-1" cx="31.59" cy="137.54" r="4.4"/>
  <circle class="cls-1" cx="94.4" cy="137.54" r="4.4"/>
  <circle class="cls-1" cx="137.4" cy="150.27" r="4.4"/>
</svg>