<?xml version="1.0" encoding="UTF-8"?>
<svg id="Layer_1" data-name="Layer 1" xmlns="http://www.w3.org/2000/svg" viewBox="0 0 180 180">
  <defs>
    <style>
      .cls-1 {
        stroke: #000;
        stroke-miterlimit: 10;
        stroke-width: 2px;
      }
    </style>
  </defs>
  <g>
    <path class="cls-1" d="M90,133.24c-5.68,0-10.31-4.62-10.31-10.31s4.62-10.31,10.31-10.31,10.31,4.62,10.31,10.31-4.62,10.31-10.31,10.31ZM90,115.43c-4.13,0-7.5,3.36-7.5,7.5s3.36,7.5,7.5,7.5,7.5-3.36,7.5-7.5-3.36-7.5-7.5-7.5Z"/>
    <path class="cls-1" d="M94.4,106.43h-8.8c-.7,0-1.3-.52-1.39-1.22-.85-6.38-6.17-44.25-6.17-46.49,0-6.6,5.37-11.97,11.97-11.97s11.97,5.37,11.97,11.97c0,2.24-5.33,40.1-6.17,46.49-.09.7-.69,1.22-1.39,1.22ZM86.83,103.62h6.33c.81-6.08,5.99-42.85,5.99-44.89,0-5.05-4.11-9.15-9.15-9.15s-9.15,4.11-9.15,9.15c0,2.04,5.17,38.81,5.99,44.89Z"/>
  </g>
  <path class="cls-1" d="M160.02,128.44c-.24-.12-24.13-12.45-23.6-59.97,0-.02,0-.04,0-.07,0-20.88-13.86-38.58-32.86-44.4v-10.44c0-7.48-6.08-13.56-13.56-13.56s-13.56,6.08-13.56,13.56v10.44c-19,5.82-32.86,23.52-32.86,44.4,0,.02,0,.04,0,.07.53,47.32-23.36,59.85-23.6,59.97-.62.3-1.01.93-1.01,1.62v24.62c0,1,.81,1.8,1.8,1.8h43.98c.93,13.12,11.9,23.52,25.25,23.52s24.32-10.4,25.25-23.52h43.98c1,0,1.8-.81,1.8-1.8v-24.62c0-.69-.39-1.31-1.01-1.62ZM80.04,13.56c0-5.49,4.47-9.96,9.96-9.96s9.96,4.47,9.96,9.96v9.5c-3.21-.7-6.54-1.09-9.96-1.09s-6.75.38-9.96,1.09v-9.5ZM90,176.39c-11.37,0-20.71-8.78-21.63-19.91h43.27c-.92,11.13-10.27,19.91-21.63,19.91ZM157.42,152.87H22.58v-21.01h16.67c.6-1.14,1.1-2.39,1.53-3.61h-14.3c7.57-6.43,21.13-23.1,20.71-59.84,0-.02,0-.03,0-.05.02-23.59,19.22-42.78,42.82-42.78s42.8,19.19,42.82,42.78c0,.01,0,.02,0,.03-.42,36.75,13.14,53.42,20.71,59.86h-12.66c.43,1.04,1.05,2.38,1.84,3.61h14.72v21.01Z"/>
</svg>