<?xml version="1.0" encoding="UTF-8"?>
<svg id="Layer_1" data-name="Layer 1" xmlns="http://www.w3.org/2000/svg" viewBox="0 0 180 180">
  <defs>
    <style>
      .cls-1 {
        stroke: #000;
        stroke-miterlimit: 10;
        stroke-width: 2px;
      }
    </style>
  </defs>
  <g>
    <path class="cls-1" d="M24.94,142.91v-9.59c0-.9-.73-1.63-1.63-1.63s-1.63.73-1.63,1.63v9.59c-9.49.83-16.96,8.8-16.96,18.5,0,10.25,8.34,18.59,18.59,18.59s18.59-8.34,18.59-18.59c0-9.7-7.47-17.67-16.96-18.5ZM23.31,176.74c-8.45,0-15.33-6.88-15.33-15.33s6.88-15.33,15.33-15.33,15.33,6.88,15.33,15.33-6.88,15.33-15.33,15.33Z"/>
    <path class="cls-1" d="M44.83,97.06c-3.74,1.81-7.04,3.8-9.82,5.9-.72.54-.86,1.56-.31,2.28.32.42.81.65,1.3.65.34,0,.69-.11.98-.33,2.61-1.98,5.73-3.85,9.27-5.57.81-.39,1.15-1.37.75-2.17-.39-.81-1.36-1.15-2.18-.76Z"/>
    <path class="cls-1" d="M23.98,123.91c.75,0,1.43-.53,1.59-1.3.72-3.44,2.08-6.64,4.06-9.52.51-.74.32-1.76-.42-2.26-.74-.51-1.75-.32-2.26.42-2.22,3.23-3.75,6.83-4.56,10.69-.18.88.38,1.74,1.26,1.93.11.02.22.03.33.03Z"/>
    <path class="cls-1" d="M160.95,42.27c-.9-.11-1.7.53-1.81,1.42-.43,3.58-1.45,6.92-3.06,9.94-.42.79-.12,1.78.67,2.2.24.13.5.19.76.19.58,0,1.15-.31,1.44-.86,1.79-3.38,2.94-7.11,3.41-11.08.11-.89-.53-1.7-1.42-1.81Z"/>
    <path class="cls-1" d="M66.13,89.42c-3.98,1.1-7.51,2.19-10.79,3.34-.85.3-1.3,1.23-1,2.07.23.67.86,1.09,1.54,1.09.18,0,.36-.03.54-.09,3.2-1.12,6.66-2.19,10.58-3.27.87-.24,1.38-1.14,1.14-2-.24-.87-1.13-1.37-2-1.14Z"/>
    <path class="cls-1" d="M149.59,61.85c-2.43,2.21-5.38,4.29-8.78,6.19-.78.44-1.06,1.43-.63,2.22.3.53.85.83,1.42.83.27,0,.54-.07.79-.21,3.61-2.02,6.77-4.25,9.38-6.63.66-.6.71-1.63.11-2.3-.6-.67-1.63-.71-2.3-.11Z"/>
    <path class="cls-1" d="M77.4,89.85c.13,0,.25-.01.38-.04,3.7-.88,7.42-1.71,10.89-2.48.88-.19,1.43-1.06,1.24-1.94-.19-.88-1.06-1.43-1.94-1.24-3.48.77-7.21,1.61-10.93,2.49-.87.21-1.42,1.09-1.21,1.96.18.75.85,1.25,1.58,1.25Z"/>
    <path class="cls-1" d="M99.23,84.94c.12,0,.24-.01.36-.04,4.28-.97,7.75-1.79,10.92-2.58.87-.22,1.4-1.1,1.18-1.97-.22-.87-1.1-1.41-1.97-1.18-3.15.79-6.59,1.6-10.85,2.56-.88.2-1.43,1.07-1.23,1.95.17.76.84,1.27,1.59,1.27Z"/>
    <path class="cls-1" d="M130.9,72.66c-3.16,1.24-6.58,2.41-10.45,3.57-.86.26-1.35,1.17-1.09,2.03.21.7.86,1.16,1.56,1.16.16,0,.31-.02.47-.07,3.96-1.19,7.46-2.39,10.7-3.66.84-.33,1.25-1.27.92-2.11s-1.27-1.25-2.11-.92Z"/>
    <path class="cls-1" d="M176.32,19.49L162.3.66c-.61-.82-2-.82-2.61,0l-14.02,18.84c-.54.72-.39,1.74.33,2.28.72.54,1.74.39,2.28-.33l11.09-14.9v26.2c0,.9.73,1.63,1.63,1.63s1.63-.73,1.63-1.63V6.54l11.09,14.9c.32.43.81.66,1.31.66.34,0,.68-.1.97-.32.72-.54.87-1.56.33-2.28Z"/>
  </g>
  <path class="cls-1" d="M146.15,127.5c-10.26,0-18.59,8.32-18.59,18.59s8.32,18.59,18.59,18.59,18.59-8.32,18.59-18.59-8.32-18.59-18.59-18.59ZM146.15,161.41c-8.47,0-15.33-6.86-15.33-15.33s6.86-15.33,15.33-15.33,15.33,6.86,15.33,15.33-6.86,15.33-15.33,15.33Z"/>
  <path class="cls-1" d="M41.9,15.78c-10.26,0-18.59,8.32-18.59,18.59s8.32,18.59,18.59,18.59,18.59-8.32,18.59-18.59-8.32-18.59-18.59-18.59ZM41.9,49.69c-8.47,0-15.33-6.86-15.33-15.33s6.86-15.33,15.33-15.33,15.33,6.86,15.33,15.33-6.86,15.33-15.33,15.33Z"/>
</svg>