<?xml version="1.0" encoding="UTF-8"?>
<svg id="Layer_1" data-name="Layer 1" xmlns="http://www.w3.org/2000/svg" viewBox="0 0 180 180">
  <defs>
    <style>
      .cls-1 {
        stroke: #000;
        stroke-miterlimit: 10;
        stroke-width: 2px;
      }
    </style>
  </defs>
  <g>
    <path class="cls-1" d="M57.41,149.44h0c-3.19-1.49-5.9-2.75-8.22-3.82,2.73-3.19,4.4-7.32,4.4-11.84,0-10.04-8.17-18.21-18.21-18.21s-18.21,8.17-18.21,18.21c0,4.53,1.67,8.67,4.42,11.86-3.54,1.63-6.79,3.13-8.24,3.8-6.12,2.85-9.09,7.53-9.09,14.3v14.54c0,.95.77,1.72,1.72,1.72h58.81c.95,0,1.72-.77,1.72-1.72v-14.54c0-6.77-2.97-11.45-9.09-14.3ZM35.37,119.01c8.14,0,14.77,6.62,14.77,14.76s-6.62,14.77-14.77,14.77-14.77-6.62-14.77-14.77,6.62-14.76,14.77-14.76ZM63.05,176.55h-9.91v-6.64c0-.95-.77-1.72-1.72-1.72s-1.72.77-1.72,1.72v6.64h-28.64v-6.64c0-.95-.77-1.72-1.72-1.72s-1.72.77-1.72,1.72v6.64H7.69v-12.81c0-6.98,3.8-9.64,7.1-11.18,1.63-.76,5.49-2.54,9.48-4.38,3.08,2.38,6.92,3.81,11.1,3.81s8.02-1.43,11.1-3.81c4,1.84,7.86,3.62,9.48,4.38h0c3.31,1.54,7.1,4.2,7.1,11.18v12.81Z"/>
    <path class="cls-1" d="M166.66,33.87c-1.45-.68-4.7-2.18-8.24-3.8,2.74-3.19,4.42-7.33,4.42-11.85C162.84,8.17,154.67,0,144.63,0s-18.21,8.17-18.21,18.21c0,4.53,1.67,8.67,4.42,11.85-3.54,1.63-6.79,3.13-8.24,3.8-6.12,2.85-9.09,7.53-9.09,14.31v14.53c0,.95.77,1.72,1.72,1.72h58.81c.95,0,1.72-.77,1.72-1.72v-14.53c0-6.77-2.98-11.45-9.09-14.31ZM144.63,3.45c8.14,0,14.77,6.62,14.77,14.77s-6.62,14.77-14.77,14.77-14.77-6.62-14.77-14.77,6.62-14.77,14.77-14.77ZM172.31,60.99h-9.91v-6.64c0-.95-.77-1.72-1.72-1.72s-1.72.77-1.72,1.72v6.64h-28.64v-6.64c0-.95-.77-1.72-1.72-1.72s-1.72.77-1.72,1.72v6.64h-9.91v-12.81c0-6.98,3.8-9.64,7.1-11.18,1.62-.75,5.48-2.53,9.48-4.38,3.08,2.38,6.92,3.81,11.1,3.81s8.02-1.43,11.1-3.81c4,1.84,7.86,3.62,9.48,4.38h0c3.31,1.54,7.1,4.21,7.1,11.18v12.81Z"/>
  </g>
  <g>
    <path class="cls-1" d="M93.94,65.54c.53.3,1,.4,1.21,1.07l1.49,7.87,4.58,1.73,6.44-4.41,1.62.03c1.53,1.94,4.24,3.75,5.66,5.67.42.56.55,1.02.3,1.73l-4.29,6.25c-.42.67.37,1.49.63,2.15.16.4.88,2.55,1.02,2.64l7.77,1.47c.66.31.88.71.94,1.41.18,1.92.18,5.8,0,7.72-.05.57-.16.9-.64,1.25l-8.14,1.69c-.28.7-.46,1.46-.75,2.16-.33.79-1.18,1.98-.84,2.73l4.26,6.28c.25.47-.01,1.1-.28,1.52-.39.61-4.85,5.06-5.5,5.51s-1.2.56-1.9.16l-6.35-4.34-4.54,1.69-1.52,7.84-1.18,1.1h-8.02c-.57-.24-1.1-.46-1.34-1.1-.77-2.03-.68-5.29-1.38-7.44-.05-.16-.04-.35-.22-.44l-4.19-1.69-6.7,4.46c-1.11.36-1.88-.68-2.61-1.34-1.11-1.02-3.5-3.21-4.32-4.33-.41-.56-.69-1.24-.33-1.9l4.38-6.46-1.73-4.42-7.83-1.53-1.1-1.18v-8.18c.29-.52.6-1.04,1.22-1.22l7.71-1.49,1.73-4.42-4.41-6.44c-.28-.74-.18-1.24.27-1.85.62-.84,4.61-4.85,5.42-5.43.51-.36,1.1-.54,1.69-.26l6.45,4.41,4.57-1.97,1.43-7.69c.26-.63.71-.76,1.27-1.01h8.02ZM92.83,68.22h-5.97c-.36,2.11-.56,4.58-1.15,6.63-.64,2.25-2.39,2.26-4.35,3.04-1.69.68-2.09,1.56-4.04.57-1.81-.92-3.66-2.63-5.4-3.73h-.31s-4.08,4.1-4.08,4.1c1.12,1.78,2.93,3.73,3.87,5.56.99,1.93-.1,3.01-.8,4.74-.55,1.35-.7,3.01-2.24,3.58-2.01.73-4.98.79-7.11,1.3v5.97c2.16.43,4.79.59,6.86,1.24,1.95.6,1.83,2.03,2.5,3.64.61,1.48,1.85,3.02.98,4.6l-3.77,5.52-.05.42,3.96,3.92c.52.09,5.34-4.11,6.92-4.22.94-.07,2.58.93,3.52,1.32,1.46.62,3,.61,3.55,2.43.49,1.63.85,4.32,1.15,6.08.05.28.01.57.02.85l5.96-.02c.52-2.1.65-4.5,1.22-6.56.64-2.28,1.98-2.03,3.83-2.78,1.43-.58,2.94-1.81,4.47-1l5.61,3.84h.46s3.95-3.79,3.95-3.79l-.09-.38c-1.05-1.75-2.83-3.61-3.75-5.37-.99-1.89.2-3.13.92-4.86.59-1.43.54-2.96,2.25-3.57,2.02-.73,4.97-.79,7.11-1.3v-5.97c-2.15-.44-4.8-.6-6.86-1.24s-1.82-2.01-2.5-3.64c-.4-.95-1.42-2.56-1.33-3.52.85-2.54,3.02-4.57,4.24-6.94l-4.01-4.14c-.34,0-4.79,3.41-5.69,3.88-2.06,1.06-2.89-.06-4.77-.83-1.54-.64-3.08-.54-3.73-2.41-.7-2.02-.76-4.83-1.31-6.95Z"/>
    <path class="cls-1" d="M105.26,97c0,8.43-6.83,15.26-15.26,15.26s-15.26-6.83-15.26-15.26,6.83-15.26,15.26-15.26,15.26,6.83,15.26,15.26ZM102.64,97c0-6.97-5.65-12.63-12.63-12.63s-12.63,5.65-12.63,12.63,5.65,12.63,12.63,12.63,12.63-5.65,12.63-12.63Z"/>
  </g>
</svg>