<?xml version="1.0" encoding="UTF-8"?>
<svg id="Wellness_Support" data-name="Wellness &amp;amp; Support" xmlns="http://www.w3.org/2000/svg" viewBox="0 0 180 180">
  <defs>
    <style>
      .cls-1 {
        stroke: #000;
        stroke-miterlimit: 10;
        stroke-width: 2px;
      }
    </style>
  </defs>
  <path class="cls-1" d="M126.57,78.5c-.28-10.99-8.91-19.61-19.66-19.61-5.97,0-12.39,2.69-16.92,6.97-4.53-4.29-10.95-6.97-16.92-6.97-10.74,0-19.38,8.61-19.66,19.61-.6,23.65,31.83,43.72,35.53,45.93.32.19.68.29,1.04.29s.72-.1,1.04-.29c3.7-2.21,36.14-22.28,35.53-45.93ZM90,120.3c-5.82-3.67-33.02-21.89-32.52-41.7.22-8.77,7.08-15.65,15.6-15.65,5.55,0,11.59,2.82,15.39,7.17.77.88,2.29.88,3.06,0,3.79-4.36,9.83-7.17,15.39-7.17,8.52,0,15.37,6.87,15.6,15.65.5,19.81-26.7,38.03-32.52,41.7Z"/>
  <path class="cls-1" d="M59.43,147.88c-2.41,1.67-5.69,4.1-5.83,4.2-.04.03-.07.05-.11.08-.4.34-3.98,3.17-7.89-.91l-16.88-16.88c-3.9-3.75-1.41-7.21-.88-7.86.03-.03.06-.07.08-.11.1-.14,2.53-3.42,4.2-5.83,1.37-1.99,4.24-6.12-.73-11.1-3.29-3.29-7.53-3.54-11.65-.68l-.87.6c-2.05,1.41-2.59,1.79-7.67,6.34-6.32,5.66-9.61,11.9-9.8,18.54-.17,6.37,2.57,11.67,5.03,15.13-.49.39-.96.8-1.41,1.26-6.7,6.7-6.7,17.61,0,24.31,3.35,3.35,7.75,5.03,12.16,5.03s8.8-1.68,12.16-5.03c.45-.45.87-.92,1.26-1.41,3.35,2.39,8.44,5.04,14.55,5.04.19,0,.38,0,.58,0,6.64-.18,12.88-3.48,18.54-9.8,4.55-5.08,4.93-5.63,6.34-7.67l.6-.87c2.86-4.12,2.62-8.36-.68-11.65-4.98-4.97-9.11-2.11-11.1-.73ZM7.9,172.1c-2.48-2.48-3.85-5.78-3.85-9.29s1.37-6.81,3.85-9.29c2.56-2.56,5.92-3.84,9.29-3.84s6.73,1.28,9.29,3.84c2.48,2.48,3.85,5.78,3.85,9.29s-1.37,6.81-3.85,9.29c-5.12,5.12-13.45,5.12-18.57,0ZM67.87,157.94l-.61.89c-1.29,1.88-1.64,2.38-6.02,7.27-4.89,5.45-10.15,8.3-15.63,8.45-5.4.17-9.95-2.28-12.88-4.42,2.98-6.37,1.87-14.2-3.39-19.46-5.25-5.25-13.08-6.37-19.45-3.39-2.13-2.93-4.57-7.48-4.42-12.88.15-5.48,2.99-10.74,8.45-15.63,4.88-4.38,5.39-4.72,7.26-6.02l.89-.61c1.32-.92,2.43-1.26,3.36-1.26,1.39,0,2.38.76,3.09,1.47,2.46,2.47,1.78,3.72.27,5.92-1.53,2.2-3.77,5.25-4.09,5.68-1.98,2.38-4.22,8.15,1.18,13.33l16.82,16.82c5.21,5.43,10.98,3.19,13.36,1.21.42-.31,3.48-2.56,5.68-4.09,2.19-1.52,3.45-2.2,5.92.27,1.19,1.19,2.51,3.15.21,6.45Z"/>
  <path class="cls-1" d="M120.57,32.12c2.41-1.67,5.69-4.1,5.83-4.2.04-.03.07-.05.11-.08.4-.34,3.98-3.17,7.89.91l16.88,16.88c3.9,3.75,1.41,7.21.88,7.86-.03.03-.06.07-.08.11-.1.14-2.53,3.42-4.2,5.83-1.38,1.99-4.24,6.12.73,11.1,1.77,1.77,3.81,2.66,5.96,2.66,1.85,0,3.78-.66,5.69-1.98l.87-.6c2.05-1.41,2.6-1.79,7.67-6.34,6.32-5.66,9.61-11.9,9.8-18.54.17-6.37-2.57-11.67-5.03-15.13.49-.39.96-.8,1.41-1.26,6.7-6.7,6.7-17.61,0-24.31-6.7-6.7-17.61-6.7-24.31,0-.45.45-.86.92-1.25,1.4-3.45-2.47-8.75-5.22-15.13-5.03-6.64.18-12.88,3.48-18.54,9.8-4.55,5.08-4.93,5.63-6.33,7.67l-.6.87c-2.86,4.12-2.62,8.36.68,11.65,4.98,4.97,9.11,2.11,11.1.73ZM162.82,4.06c3.36,0,6.73,1.28,9.29,3.84,2.48,2.48,3.85,5.78,3.85,9.29s-1.37,6.81-3.85,9.29c-5.12,5.12-13.45,5.12-18.57,0-2.48-2.48-3.85-5.78-3.85-9.29s1.37-6.81,3.85-9.29c2.56-2.56,5.92-3.84,9.29-3.84ZM112.13,22.06l.61-.89c1.29-1.88,1.64-2.38,6.02-7.26,4.89-5.46,10.15-8.3,15.63-8.45,5.41-.14,9.95,2.29,12.88,4.42-2.98,6.37-1.86,14.2,3.39,19.45,3.35,3.35,7.75,5.03,12.16,5.03,2.5,0,4.99-.56,7.3-1.64,2.14,2.93,4.57,7.48,4.42,12.88-.15,5.48-2.99,10.74-8.45,15.63-4.88,4.38-5.39,4.72-7.27,6.02l-.89.61c-3.3,2.3-5.27.98-6.45-.21-2.46-2.47-1.78-3.72-.27-5.92,1.53-2.2,3.77-5.25,4.09-5.68,1.98-2.38,4.22-8.15-1.18-13.33l-16.82-16.82c-5.21-5.43-10.98-3.19-13.36-1.21-.42.31-3.48,2.56-5.68,4.09-2.19,1.52-3.45,2.2-5.92-.27-1.19-1.19-2.51-3.15-.21-6.45Z"/>
  <path class="cls-1" d="M6.44,30.6c-2.46,3.45-5.2,8.76-5.03,15.13.18,6.64,3.48,12.88,9.8,18.54,5.08,4.55,5.63,4.93,7.67,6.34l.87.6c1.9,1.32,3.83,1.98,5.69,1.98,2.15,0,4.2-.89,5.96-2.66,4.97-4.98,2.1-9.11.73-11.1-1.67-2.41-4.1-5.69-4.2-5.83-.02-.03-.05-.07-.07-.09-.54-.66-3.04-4.13.9-7.9l16.88-16.88c3.75-3.9,7.22-1.41,7.86-.88.03.03.07.06.11.08.14.1,3.42,2.53,5.83,4.2,1.99,1.38,6.12,4.24,11.1-.73,3.29-3.29,3.54-7.53.68-11.65l-.6-.87c-1.41-2.04-1.79-2.59-6.33-7.67-5.66-6.32-11.9-9.61-18.54-9.8-6.35-.17-11.66,2.57-15.12,5.03-.39-.49-.81-.96-1.26-1.41C22.64-1.68,11.73-1.67,5.03,5.03c-6.7,6.7-6.7,17.61,0,24.31.45.45.92.87,1.41,1.26ZM45.14,5.46c.16,0,.31,0,.47,0,5.48.15,10.74,2.99,15.63,8.45,4.38,4.88,4.72,5.39,6.02,7.26l.61.89c2.3,3.3.98,5.27-.21,6.45-2.47,2.46-3.73,1.78-5.92.27-2.2-1.53-5.25-3.77-5.68-4.09-2.38-1.98-8.15-4.22-13.33,1.18l-16.82,16.82c-5.43,5.21-3.19,10.98-1.21,13.36.31.42,2.56,3.48,4.09,5.68,1.52,2.19,2.2,3.45-.26,5.92-1.19,1.19-3.15,2.51-6.45.21l-.89-.61c-1.88-1.29-2.38-1.64-7.26-6.02-5.45-4.89-8.3-10.15-8.45-15.63-.15-5.4,2.29-9.95,4.42-12.88,2.31,1.08,4.8,1.64,7.3,1.64,4.4,0,8.8-1.68,12.16-5.03,5.25-5.25,6.37-13.08,3.39-19.45,2.84-2.07,7.21-4.43,12.41-4.43ZM7.9,7.9c2.56-2.56,5.92-3.84,9.29-3.84s6.73,1.28,9.29,3.84c2.48,2.48,3.85,5.78,3.85,9.29s-1.37,6.81-3.85,9.29c-5.12,5.12-13.45,5.12-18.57,0-2.48-2.48-3.85-5.78-3.85-9.29s1.37-6.81,3.85-9.29Z"/>
  <path class="cls-1" d="M173.56,149.4c2.46-3.45,5.2-8.76,5.03-15.13-.18-6.64-3.48-12.88-9.8-18.54-5.08-4.55-5.63-4.93-7.67-6.34l-.87-.6c-4.11-2.86-8.36-2.62-11.65.68-4.97,4.98-2.1,9.11-.73,11.1,1.67,2.41,4.1,5.69,4.2,5.83.02.03.05.07.07.09.54.66,3.04,4.13-.9,7.9l-16.88,16.88c-3.74,3.9-7.21,1.41-7.86.88-.03-.03-.07-.06-.11-.08-.14-.1-3.42-2.53-5.83-4.2-1.99-1.37-6.12-4.24-11.1.73-3.29,3.29-3.54,7.53-.68,11.65l.6.87c1.41,2.04,1.79,2.59,6.34,7.67,5.66,6.32,11.9,9.61,18.54,9.8.19,0,.39,0,.58,0,6.11,0,11.2-2.65,14.55-5.04.39.49.8.96,1.26,1.41,3.35,3.35,7.75,5.03,12.16,5.03s8.81-1.68,12.16-5.03c6.7-6.7,6.7-17.61,0-24.31-.45-.45-.92-.87-1.41-1.26ZM134.39,174.53c-5.48-.15-10.74-2.99-15.63-8.45-4.38-4.89-4.73-5.39-6.02-7.27l-.61-.89c-2.3-3.3-.98-5.27.21-6.45,1.17-1.17,2.07-1.63,2.92-1.63.95,0,1.84.57,2.99,1.36,2.2,1.53,5.25,3.77,5.68,4.09,2.38,1.98,8.15,4.22,13.33-1.18l16.82-16.82c5.43-5.21,3.19-10.98,1.21-13.36-.31-.42-2.56-3.48-4.09-5.68-1.52-2.19-2.2-3.45.26-5.92,1.19-1.19,3.15-2.51,6.45-.21l.89.61c1.88,1.29,2.38,1.64,7.27,6.02,5.45,4.89,8.3,10.15,8.45,15.63.15,5.4-2.29,9.95-4.42,12.88-6.37-2.98-14.2-1.86-19.45,3.39-5.25,5.25-6.37,13.08-3.39,19.45-2.93,2.13-7.48,4.57-12.88,4.43ZM172.1,172.1c-5.12,5.12-13.45,5.12-18.57,0-2.48-2.48-3.85-5.78-3.85-9.29s1.37-6.81,3.85-9.29c2.56-2.56,5.92-3.84,9.29-3.84s6.73,1.28,9.29,3.84c2.48,2.48,3.85,5.78,3.85,9.29s-1.37,6.81-3.85,9.29Z"/>
</svg>