<?xml version="1.0" encoding="UTF-8"?>
<svg id="Wellness_Support" data-name="Wellness &amp;amp; Support" xmlns="http://www.w3.org/2000/svg" viewBox="0 0 180 180">
  <defs>
    <style>
      .cls-1 {
        stroke: #000;
        stroke-miterlimit: 10;
        stroke-width: 2px;
      }
    </style>
  </defs>
  <path class="cls-1" d="M162.98,52.31c-.69-.38-10.93-6.13-17.04-9.52,4.65-4.53,7.54-10.86,7.54-17.84,0-13.75-11.19-24.94-24.94-24.94s-24.94,11.19-24.94,24.94c0,6.99,2.89,13.31,7.54,17.84-6.13,3.4-19.88,11.09-21.15,11.9-1.27-.8-14.98-8.47-21.12-11.88,4.65-4.53,7.54-10.86,7.54-17.84C76.4,11.21,65.21.02,51.46.02s-24.94,11.19-24.94,24.94c0,6.99,2.89,13.31,7.54,17.84-6.14,3.41-16.35,9.14-17.04,9.52-8.23,4.54-13.67,7.55-12.43,23.69,1.23,16.02,3.44,38.27,3.47,38.49.06.6.39,1.15.9,1.47l15.59,9.97v45.58c0,4.67,3.8,8.46,8.46,8.46h36.91c4.67,0,8.47-3.8,8.47-8.46v-17.16c0-1.09-.89-1.98-1.98-1.98s-1.98.89-1.98,1.98v17.16c0,2.48-2.02,4.5-4.5,4.5h-16.47v-37.7c0-1.09-.89-1.98-1.98-1.98s-1.98.89-1.98,1.98v37.7h-16.47c-2.48,0-4.5-2.02-4.5-4.5v-46.66c0-.68-.34-1.3-.91-1.67l-15.69-10.04c-.44-4.43-2.28-23.36-3.36-37.45-1.05-13.6,2.54-15.58,10.39-19.92.71-.39,11.66-6.54,18.41-10.28,4.02,2.77,8.88,4.39,14.11,4.39s10.1-1.63,14.11-4.39c6.76,3.75,21.24,11.85,22.43,12.61v7.04c0,1.09.89,1.98,1.98,1.98s1.98-.89,1.98-1.98v-7.04c1.2-.76,15.72-8.88,22.46-12.62,4.02,2.77,8.88,4.39,14.11,4.39s10.1-1.63,14.11-4.39c6.72,3.72,17.71,9.89,18.41,10.28,7.86,4.34,11.44,6.32,10.4,19.92-1.08,14.09-2.93,33.02-3.36,37.45l-15.69,10.04c-.57.36-.91.99-.91,1.67v46.66c0,2.48-2.02,4.5-4.5,4.5h-16.47v-37.7c0-1.09-.89-1.98-1.98-1.98s-1.98.89-1.98,1.98v37.7h-16.47c-2.48,0-4.5-2.02-4.5-4.5v-15.79c0-1.09-.89-1.98-1.98-1.98s-1.98.89-1.98,1.98v15.79c0,4.67,3.8,8.46,8.46,8.46h36.91c4.67,0,8.47-3.8,8.47-8.46v-45.58l15.59-9.97c.51-.33.84-.87.9-1.47.02-.22,2.23-22.47,3.47-38.49,1.24-16.14-4.2-19.15-12.43-23.69ZM30.48,24.96c0-11.57,9.41-20.98,20.98-20.98s20.98,9.41,20.98,20.98-9.41,20.98-20.98,20.98-20.98-9.41-20.98-20.98ZM107.56,24.94c0-11.57,9.41-20.98,20.98-20.98s20.98,9.41,20.98,20.98-9.41,20.98-20.98,20.98-20.98-9.41-20.98-20.98Z"/>
  <path class="cls-1" d="M136.19,93.94h0c-.34-13.45-10.9-23.99-24.04-23.99-7.5,0-15.59,3.46-21.18,8.95-5.59-5.49-13.67-8.95-21.18-8.95-13.14,0-23.7,10.54-24.05,23.99-.76,29.78,42.37,55.9,44.21,57,.31.19.66.28,1.02.28s.7-.09,1.02-.28c1.84-1.1,44.97-27.22,44.21-57ZM90.97,146.91c-6.65-4.16-41.91-27.43-41.26-52.87.29-11.29,9.11-20.14,20.09-20.14,7.11,0,14.83,3.6,19.68,9.17.75.86,2.24.86,2.99,0,4.85-5.57,12.58-9.17,19.68-9.17,10.98,0,19.8,8.84,20.08,20.13h0c.65,25.44-34.61,48.72-41.26,52.87Z"/>
</svg>