<?xml version="1.0" encoding="UTF-8"?>
<svg id="Wellness_Support" data-name="Wellness &amp;amp; Support" xmlns="http://www.w3.org/2000/svg" viewBox="0 0 180 180">
  <defs>
    <style>
      .cls-1 {
        stroke: #000;
        stroke-miterlimit: 10;
        stroke-width: 2px;
      }
    </style>
  </defs>
  <path class="cls-1" d="M161.71,76.57c-.72-.26-4.76-1.34-9.07,5.01-4.39,7.03-10.6,13.47-20.76,21.54-.65.52-.88.92-2.37,7.07-.29-1.41-.77-2.07-1.53-2.46-.78-.39-1.69-.3-2.42.25-3.78,2.83-7.85,5.79-12.17,8.91-3.08,2.23-6.29,4.56-9.64,7.02-.67.5-.86.64-1.63,5.45-.34-.82-.76-1.42-1.28-1.7-.77-.42-1.68-.35-2.38.18-22.39,16.73-17.96,35.03-15.76,40.84-11.87,5.56-19.99,7.47-20.1,7.5-1.04.24-1.69,1.28-1.45,2.32.21.9,1,1.5,1.88,1.5.14,0,.29-.02.43-.05.47-.11,9.03-2.12,21.56-8.07,5.36,3.73,11.61,5.62,18.46,5.62,3.31,0,6.77-.44,10.33-1.33,9.86-2.47,20.31-8.24,30.21-16.7.66-.56.91-1.44.64-2.23-.28-.81-.74-1.25-1.98-1.52,5.6-1.1,7.18-1.62,7.89-2.34,11.21-11.32,19.38-24.46,22.43-36.07,8.72-33.19-10.24-40.37-11.29-40.74ZM169.26,116.33c-2.87,10.92-10.62,23.36-21.29,34.18-1.43.61-8.43,1.89-12.66,2.66-3.72.68-6.67,1.21-7.86,1.57-.88.26-1.46,1.1-1.38,2.01.07.91.78,1.65,1.69,1.76,1.88.24,4.67.37,7.36.5.98.05,2.1.1,3.15.16-14.8,11.53-34.26,19.42-49.2,10.71,2.92-1.49,6.01-3.18,9.23-5.1,17.9-10.65,43.18-30.47,61.97-64.43.52-.93.18-2.11-.76-2.63-.93-.52-2.11-.18-2.63.76-18.33,33.14-42.98,52.49-60.43,62.89-3.61,2.15-7.08,4.02-10.32,5.64-1.9-4.97-5.47-19.96,12.84-34.7.5,2.53.93,7.35.61,11.93-.05.75.34,1.46,1,1.83.66.36,1.47.31,2.08-.14.86-.64.93-.69,2.45-10.76.46-3.05,1.07-7.1,1.38-8.48,3.16-2.32,6.21-4.53,9.13-6.65,3.6-2.61,7.03-5.09,10.26-7.5.17,2.31.15,6.04.15,8.78v2.34c0,.74.42,1.41,1.08,1.74.66.33,1.45.24,2.04-.21.79-.61.97-1.06,3.27-10.71.75-3.14,1.75-7.35,2.17-8.59,10.32-8.23,16.7-14.9,21.25-22.18,2.54-3.74,4.4-3.5,4.56-3.47.39.14,16.65,6.34,8.83,36.11Z"/>
  <path class="cls-1" d="M71.74,167.6c1.01,0,1.86-.78,1.93-1.8.08-1.06-.73-1.99-1.79-2.06-32.77-2.31-58.45-29.87-58.45-62.75v-26.74c8.74-5.89,19.05-10.24,30.7-12.9.57-.13,1.06-.52,1.31-1.04.46-.96.88-1.82,1.27-2.62,1.83-3.75,2.95-6.06,4.34-9.98,2.32,3.66,4.95,7.75,8.49,10.59.39.31.88.46,1.39.42,4.9-.46,10.09-.69,15.43-.69,25.82,0,46.97,5.47,62.93,16.23v6.73c0,1.07.87,1.93,1.93,1.93s1.93-.87,1.93-1.93v-7.42c4.51-11.89,5.41-17.47,4.56-28.06-1.16-14.31-9.74-26.25-24.81-34.54C110.24,3.99,93.28,0,76.36,0S42.48,3.99,29.81,10.95C14.74,19.24,6.16,31.18,5,45.49c-.86,10.59.04,16.17,4.56,28.06v27.44c0,34.9,27.25,64.16,62.04,66.61.05,0,.09,0,.14,0ZM8.86,45.8C11.08,18.27,44.5,3.87,76.36,3.87s65.28,14.4,67.5,41.93c.76,9.43.09,14.4-3.59,24.43-16.46-10.68-37.94-16.09-63.91-16.09-5.16,0-10.2.21-14.98.63-2.87-2.52-5.19-6.19-7.26-9.46-.7-1.11-1.36-2.15-2.03-3.14-.41-.61-1.14-.94-1.88-.83-.73.11-1.34.62-1.57,1.33-2,6.3-3.07,8.5-5.41,13.31-.27.56-.56,1.16-.88,1.8-11.23,2.66-21.27,6.84-29.91,12.45-3.68-10.03-4.35-15.01-3.59-24.43Z"/>
  <path class="cls-1" d="M56.94,84.93c0-2.21-1.8-4.01-4.01-4.01s-4.01,1.8-4.01,4.01,1.8,4.01,4.01,4.01,4.01-1.8,4.01-4.01Z"/>
  <path class="cls-1" d="M95.78,82.85c0,2.21,1.8,4.01,4.01,4.01s4.01-1.8,4.01-4.01-1.8-4.01-4.01-4.01-4.01,1.8-4.01,4.01Z"/>
  <path class="cls-1" d="M73.94,140.2c.86,0,1.73-.05,2.63-.14,1.06-.11,1.83-1.07,1.72-2.13-.11-1.06-1.07-1.83-2.13-1.72-12.95,1.4-21.56-10.3-21.65-10.42-.62-.87-1.83-1.06-2.7-.44-.87.62-1.07,1.83-.44,2.7.38.52,8.87,12.15,22.57,12.15Z"/>
</svg>