<?xml version="1.0" encoding="UTF-8"?>
<svg id="Wellness_Support" data-name="Wellness &amp;amp; Support" xmlns="http://www.w3.org/2000/svg" viewBox="0 0 180 180">
  <defs>
    <style>
      .cls-1 {
        stroke: #000;
        stroke-miterlimit: 10;
        stroke-width: 2px;
      }
    </style>
  </defs>
  <path class="cls-1" d="M132.25,126.55c-.32-12.57-10.18-22.41-22.46-22.41-6.96,0-14.45,3.19-19.66,8.25-5.21-5.06-12.7-8.25-19.66-8.25-12.27,0-22.14,9.84-22.46,22.41-.7,27.26,36.82,50.48,41.1,53.04.31.19.66.28,1.01.28s.7-.09,1.01-.28c4.28-2.56,41.8-25.78,41.1-53.04h0ZM128.3,126.65c.6,23.46-31.83,44.94-38.17,48.92-6.34-3.97-38.76-25.46-38.17-48.92.27-10.41,8.39-18.56,18.51-18.56,6.56,0,13.69,3.32,18.17,8.47.75.86,2.23.86,2.98,0,4.48-5.14,11.61-8.47,18.17-8.47,10.11,0,18.24,8.15,18.51,18.56h0Z"/>
  <path class="cls-1" d="M156.19,62.12c-1.44-1.04-2.91-2.1-4.35-3.19,8.27-5.87,13.68-15.52,13.68-26.41C165.53,14.66,151,.13,133.14.13s-32.39,14.53-32.39,32.39c0,10.4,4.93,19.66,12.57,25.59-7.67,2.61-16.15,7.05-23.32,14.57-7.17-7.52-15.65-11.96-23.32-14.57,7.64-5.93,12.57-15.19,12.57-25.59C79.25,14.66,64.72.13,46.86.13S14.48,14.66,14.48,32.52c0,10.89,5.41,20.54,13.68,26.41-1.44,1.09-2.91,2.16-4.35,3.19-13.72,9.88-27.91,20.1-22.72,59.56,1.36,13.61,15.51,47.39,29.4,56.01,2.34,1.45,4.6,2.18,6.78,2.18,1.16,0,2.3-.21,3.4-.63,2.32-.88,3.92-2.31,4.75-4.27,2.04-4.8-.98-11.86-4.81-20.79-5.39-12.59-12.1-28.26-8.84-45.05.21-1.07-.49-2.11-1.56-2.32-1.08-.21-2.11.49-2.32,1.56-3.5,17.99,3.78,34.97,9.09,47.36,3.32,7.75,6.19,14.44,4.8,17.68-.25.6-.79,1.46-2.51,2.12-1.98.75-4.17.35-6.69-1.21-12.74-7.9-26.29-40.42-27.55-53.1C.14,84.05,12.76,74.96,26.12,65.33c1.86-1.34,3.76-2.73,5.62-4.19,4.52,2.4,9.66,3.76,15.12,3.76s10.93-1.45,15.55-3.99c7.96,2.28,17.27,6.6,24.94,14.75-4.23,5.16-7.86,11.57-10.38,19.53-.33,1.04.25,2.15,1.29,2.48.2.06.4.09.6.09.84,0,1.62-.54,1.88-1.38,2.26-7.15,5.49-12.96,9.26-17.68,3.77,4.72,6.99,10.53,9.26,17.68.27.84,1.05,1.38,1.88,1.38.2,0,.4-.03.6-.09,1.04-.33,1.62-1.44,1.29-2.48-2.52-7.96-6.15-14.37-10.38-19.53,7.67-8.14,16.98-12.46,24.94-14.75,4.62,2.54,9.92,3.99,15.55,3.99s10.6-1.36,15.12-3.76c1.86,1.45,3.76,2.85,5.62,4.19,13.37,9.63,25.99,18.72,21.09,55.96-1.26,12.62-14.8,45.14-27.54,53.04-2.52,1.57-4.71,1.96-6.69,1.21-1.72-.65-2.26-1.52-2.51-2.12-1.38-3.24,1.49-9.94,4.8-17.68,5.31-12.4,12.58-29.38,9.09-47.36-.21-1.07-1.25-1.77-2.32-1.56-1.07.21-1.77,1.25-1.56,2.32,3.26,16.79-3.45,32.46-8.84,45.05-3.83,8.94-6.85,15.99-4.81,20.79.83,1.95,2.43,3.39,4.75,4.27,1.1.42,2.24.63,3.4.63,2.17,0,4.44-.73,6.78-2.18,13.89-8.61,28.04-42.4,29.39-55.94,5.2-39.52-8.99-49.74-22.71-59.62ZM18.43,32.52c0-15.68,12.75-28.43,28.43-28.43s28.43,12.75,28.43,28.43-12.75,28.43-28.43,28.43-28.43-12.75-28.43-28.43ZM104.71,32.52c0-15.68,12.75-28.43,28.43-28.43s28.43,12.75,28.43,28.43-12.75,28.43-28.43,28.43-28.43-12.75-28.43-28.43Z"/>
</svg>