<?xml version="1.0" encoding="UTF-8"?>
<svg id="Wellness_Support" data-name="Wellness &amp;amp; Support" xmlns="http://www.w3.org/2000/svg" viewBox="0 0 180 180">
  <defs>
    <style>
      .cls-1 {
        stroke: #000;
        stroke-miterlimit: 10;
        stroke-width: 2px;
      }
    </style>
  </defs>
  <path class="cls-1" d="M112.97,137.58c-3.04-1.46-5.66-2.72-7.94-3.8,2.89-3.42,4.63-7.84,4.63-12.66,0-10.85-8.83-19.67-19.67-19.67s-19.67,8.83-19.67,19.67c0,4.83,1.75,9.25,4.65,12.67-3.43,1.63-6.53,3.1-7.95,3.79-6.44,3.09-9.57,8.15-9.57,15.47v24.44c0,1.14.93,2.07,2.07,2.07h60.94c1.14,0,2.07-.93,2.07-2.07v-24.44c0-7.32-3.13-12.38-9.57-15.47ZM90,105.59c8.56,0,15.53,6.97,15.53,15.53s-6.97,15.53-15.53,15.53-15.53-6.97-15.53-15.53,6.97-15.53,15.53-15.53ZM118.4,175.42h-56.8v-22.37c0-7.33,3.86-10.12,7.22-11.74,1.61-.77,5.41-2.58,9.41-4.47,3.29,2.47,7.36,3.95,11.78,3.95s8.49-1.48,11.78-3.95c3.99,1.89,7.79,3.7,9.41,4.47,3.36,1.61,7.22,4.41,7.22,11.74v22.37Z"/>
  <path class="cls-1" d="M46.65,175.42H4.65v-25.22c0-9.42,4.96-13.01,9.28-15.09,2.05-.99,6.91-3.29,11.98-5.7,4.06,3.13,9.13,5,14.64,5,13.24,0,24.01-10.77,24.01-24.01s-10.77-24.01-24.01-24.01-24.01,10.77-24.01,24.01c0,6.13,2.31,11.73,6.11,15.97-4.52,2.14-8.65,4.11-10.51,5-7.83,3.76-11.63,9.92-11.63,18.82v27.29c0,1.14.93,2.07,2.07,2.07h44.07c1.14,0,2.07-.93,2.07-2.07s-.93-2.07-2.07-2.07ZM40.55,90.54c10.95,0,19.87,8.91,19.87,19.87s-8.91,19.87-19.87,19.87-19.87-8.91-19.87-19.87,8.91-19.87,19.87-19.87Z"/>
  <path class="cls-1" d="M167.86,131.25c-1.86-.89-5.99-2.86-10.51-5,3.79-4.25,6.11-9.84,6.11-15.97,0-13.24-10.77-24.01-24.01-24.01s-24.01,10.77-24.01,24.01,10.77,24.01,24.01,24.01c5.51,0,10.58-1.87,14.64-5,5.07,2.41,9.93,4.71,11.98,5.7,4.32,2.08,9.28,5.67,9.28,15.09v25.22h-42c-1.14,0-2.07.93-2.07,2.07s.93,2.07,2.07,2.07h44.07c1.14,0,2.07-.93,2.07-2.07v-27.29c0-8.91-3.81-15.06-11.63-18.82ZM119.58,110.27c0-10.95,8.91-19.87,19.87-19.87s19.87,8.91,19.87,19.87-8.91,19.87-19.87,19.87-19.87-8.91-19.87-19.87Z"/>
  <path class="cls-1" d="M178.43,49.65L91.01.71c-.63-.35-1.39-.35-2.02,0l-35.66,19.96V2.51c0-1.14-.93-2.07-2.07-2.07h-21.63c-1.14,0-2.07.93-2.07,2.07v32.58L1.57,49.65c-.65.37-1.06,1.06-1.06,1.81v17.23c0,1.14.93,2.07,2.07,2.07s2.07-.93,2.07-2.07v-16.01l26-14.56c.65-.37,1.06-1.06,1.06-1.81V4.58h17.48v19.62c0,.74.39,1.41,1.02,1.79.63.37,1.42.38,2.06.02L90,4.89l85.35,47.78v16.01c0,1.14.93,2.07,2.07,2.07s2.07-.93,2.07-2.07v-17.23c0-.75-.41-1.44-1.06-1.81Z"/>
</svg>