<?xml version="1.0" encoding="UTF-8"?>
<svg id="Wellness_Support" data-name="Wellness &amp;amp; Support" xmlns="http://www.w3.org/2000/svg" viewBox="0 0 180 180">
  <defs>
    <style>
      .cls-1 {
        stroke: #000;
        stroke-miterlimit: 10;
        stroke-width: 2px;
      }
    </style>
  </defs>
  <path class="cls-1" d="M116.57,164.69c-4.65,1.97-9.44,3.48-14.33,4.54,3.43-2.4,6.7-5.53,9.75-9.37.68-.85.54-2.1-.31-2.78-.85-.68-2.1-.54-2.78.31-6.57,8.24-14.1,12.89-21.9,13.57v-37.7h13.33c1.09,0,1.98-.89,1.98-1.98s-.89-1.98-1.98-1.98h-13.33v-37.34h41.18c-.04,3.4-.2,6.81-.46,10.14-.09,1.09.72,2.04,1.81,2.13,1.07.08,2.04-.72,2.13-1.81.28-3.44.43-6.95.48-10.46h33.92c-.08,3.48-.38,6.96-.9,10.37-.16,1.08.58,2.09,1.66,2.25,1.08.16,2.09-.58,2.25-1.66.65-4.26.98-8.61.98-12.95,0-46.88-38.14-85.02-85.02-85.02S0,43.12,0,90s38.14,85.02,85.02,85.02c11.48,0,22.61-2.25,33.09-6.68,1.01-.43,1.48-1.59,1.05-2.59-.43-1-1.58-1.48-2.59-1.05ZM132.12,88.02c-.17-13.3-1.99-26.09-5.32-37.57h28.96c6.27,11.17,9.97,23.95,10.3,37.57h-33.94ZM83.04,91.98v37.34h-35.77c-3.3-11.11-5.24-23.82-5.42-37.34h41.18ZM41.86,88.02c.17-13.61,2.15-26.4,5.48-37.57h35.7v37.57h-41.18ZM86.99,50.46h35.7c3.34,11.17,5.31,23.95,5.48,37.57h-41.18v-37.57ZM86.99,46.5V9.02c14.47,1.23,27.1,15.89,34.44,37.48h-34.44ZM83.04,46.5h-34.44c7.34-21.59,19.97-36.25,34.44-37.48v37.48ZM14.27,50.46h28.96c-3.33,11.48-5.15,24.27-5.32,37.57H3.98c.33-13.61,4.03-26.4,10.3-37.57ZM37.92,91.98c.17,13.21,1.97,25.92,5.26,37.34H14.15c-6.19-11.11-9.85-23.82-10.17-37.34h33.94ZM83.04,133.27v37.7c-14.52-1.23-27.19-15.99-34.52-37.7h34.52ZM153.4,46.5h-27.82c-1.91-5.81-4.22-11.24-6.9-16.17-4.7-8.65-10.27-15.24-16.36-19.54,21.39,4.67,39.65,17.8,51.08,35.7ZM67.71,10.8c-6.09,4.29-11.66,10.88-16.36,19.54-2.68,4.93-4.99,10.36-6.9,16.17h-27.82c11.43-17.9,29.69-31.03,51.08-35.7ZM16.5,133.27h27.88c1.93,5.89,4.26,11.4,6.97,16.39,4.7,8.65,10.27,15.24,16.36,19.54-21.48-4.69-39.8-17.91-51.22-35.93Z"/>
  <path class="cls-1" d="M161.33,112.6c-5.65,0-11.72,2.53-16.01,6.58-4.3-4.05-10.37-6.58-16.01-6.58-10.2,0-18.4,8.18-18.66,18.61-.57,22.41,30.16,41.43,33.66,43.52.31.19.66.28,1.01.28s.7-.09,1.01-.28c3.51-2.1,34.23-21.12,33.66-43.52-.27-10.44-8.46-18.61-18.66-18.61ZM145.32,170.72c-5.57-3.51-31.2-20.72-30.72-39.4.21-8.28,6.67-14.76,14.71-14.76,5.24,0,10.94,2.66,14.52,6.77.75.86,2.23.86,2.98,0,3.58-4.11,9.28-6.77,14.52-6.77,8.04,0,14.5,6.48,14.71,14.76.48,18.68-25.16,35.89-30.72,39.4Z"/>
</svg>