<?xml version="1.0" encoding="UTF-8"?>
<svg id="Wellness_Support" data-name="Wellness &amp;amp; Support" xmlns="http://www.w3.org/2000/svg" viewBox="0 0 180 180">
  <defs>
    <style>
      .cls-1 {
        stroke: #000;
        stroke-miterlimit: 10;
        stroke-width: 2px;
      }
    </style>
  </defs>
  <path class="cls-1" d="M123.26,10.1c16.75,2.86,39.8,6.82,54.54,9.44,1.02.18,1.98-.5,2.16-1.51.18-1.01-.49-1.98-1.51-2.16-14.75-2.63-37.82-6.59-54.57-9.45-7.66-1.31-13.19-2.25-23.74,1.25L1.28,40.54C.51,40.79,0,41.51,0,42.31c0,4.68,2.14,8.98,6.02,12.11,4.13,3.32,9.8,5.08,15.97,5.08,2.39,0,4.86-.27,7.34-.81,9.95-2.17,31.94-6.45,45.98-9.16,2,3.09,5.21,5.4,9.11,6.13l51.59,9.65c2.6.39,4.94.56,7.09.56,11.09,0,16.6-4.7,21.56-8.93,3.99-3.4,7.44-6.34,13.43-6.43,1.03-.02,1.85-.86,1.84-1.89-.02-1.03-.86-1.86-1.89-1.84-7.34.11-11.64,3.78-15.79,7.33-5.57,4.75-11.34,9.67-25.61,7.53l-51.52-9.64c-5.52-1.03-9.17-6.37-8.14-11.89,1.03-5.52,6.36-9.17,11.89-8.14l33.43,6.25c1.01.19,1.99-.48,2.18-1.49.19-1.01-.48-1.99-1.49-2.18l-33.43-6.25c-7.54-1.41-14.83,3.58-16.24,11.12-.43,2.29-.26,4.54.38,6.63-14.08,2.71-35.38,6.86-45.15,9-7.77,1.7-15.32.38-20.17-3.54-2.65-2.14-4.21-4.84-4.56-7.88L101.33,11.22c9.66-3.21,14.55-2.38,21.94-1.12Z"/>
  <path class="cls-1" d="M138.63,129.7c-3.09-1.22-10.72-4.18-18.37-7.15,3.89-4.67,6.23-10.67,6.23-17.2,0-14.85-12.08-26.92-26.92-26.92s-26.92,12.08-26.92,26.92c0,6.54,2.34,12.54,6.23,17.2-7.65,2.97-15.27,5.94-18.36,7.15-10.61,4.17-15.77,11.08-15.77,21.1v22.09c0,1.03.84,1.87,1.86,1.87h105.92c1.03,0,1.86-.84,1.86-1.87v-22.09c0-10.03-5.16-16.93-15.77-21.1ZM99.58,82.15c12.79,0,23.19,10.4,23.19,23.19s-10.4,23.19-23.19,23.19-23.19-10.41-23.19-23.19,10.41-23.19,23.19-23.19ZM150.67,171.02h-20.33v-10.85c0-1.03-.84-1.86-1.86-1.86s-1.87.83-1.87,1.86v10.85h-54.07v-10.85c0-1.03-.84-1.86-1.86-1.86s-1.86.83-1.86,1.86v10.85h-20.33v-20.22c0-8.43,4.26-14.04,13.4-17.63,3.28-1.29,11.7-4.56,19.82-7.72,4.76,4.23,11.02,6.81,17.88,6.81s13.12-2.58,17.87-6.81c8.12,3.15,16.53,6.42,19.82,7.72,9.14,3.6,13.4,9.2,13.4,17.63v20.22Z"/>
</svg>