<?xml version="1.0" encoding="UTF-8"?>
<svg id="Wellness_Support" data-name="Wellness &amp;amp; Support" xmlns="http://www.w3.org/2000/svg" viewBox="0 0 180 180">
  <defs>
    <style>
      .cls-1 {
        stroke: #000;
        stroke-miterlimit: 10;
        stroke-width: 2px;
      }
    </style>
  </defs>
  <path class="cls-1" d="M89.02,89.34c.3.18.64.27.98.27s.68-.09.98-.27c1.78-1.06,43.52-26.34,42.78-55.16h0c-.33-13.02-10.55-23.22-23.27-23.22-7.26,0-15.09,3.35-20.49,8.66-5.41-5.31-13.23-8.66-20.49-8.66-12.72,0-22.94,10.2-23.27,23.22-.73,28.82,41,54.1,42.78,55.16ZM50.07,34.28c.28-10.93,8.82-19.49,19.44-19.49,6.88,0,14.35,3.48,19.05,8.88.73.84,2.16.84,2.89,0,4.69-5.39,12.17-8.88,19.05-8.88,10.62,0,19.16,8.56,19.44,19.49h0c.63,24.62-33.5,47.14-39.93,51.17-6.44-4.02-40.56-26.54-39.93-51.17Z"/>
  <path class="cls-1" d="M152.81,127.72l-44.67-.02c.03-.36.05-.71.05-1.07,0-7.8-6.34-14.15-14.14-14.15l-53.16-.02h-.01c-12.81,0-19.87,9.05-26.01,18.32-2.23,3.38-5.02,7.7-8.28,12.85l-.14.22c-.57.89-.3,2.08.59,2.64.32.2.67.3,1.02.3.63,0,1.26-.32,1.62-.89l.14-.22c3.25-5.13,6.02-9.43,8.24-12.78,5.79-8.75,11.89-16.6,22.81-16.6h.01l53.16.02c5.68,0,10.31,4.63,10.3,10.31,0,2.75-1.08,5.34-3.02,7.29-1.95,1.95-4.53,3.02-7.29,3.02h-34.49c-1.06-.01-1.92.85-1.92,1.9,0,1.06.86,1.92,1.92,1.92h34.49s0,.01,0,.01c3.77,0,7.32-1.47,9.99-4.14,1.47-1.47,2.56-3.2,3.26-5.09l45.5.02c4.6,0,8.92,1.79,12.17,5.05,2.85,2.85,4.58,6.53,4.96,10.49l-111.96,13.93c-.45.04-10.98,1-15.74,8.39-.57.89-.32,2.08.57,2.65.32.21.68.31,1.04.31.63,0,1.25-.31,1.61-.88,3.73-5.79,12.75-6.64,12.91-6.65l113.8-14.16c.96-.12,1.68-.93,1.68-1.9,0-5.62-2.18-10.91-6.16-14.88-3.97-3.98-9.26-6.17-14.88-6.17Z"/>
  <path class="cls-1" d="M32.22,36.51c0-1.06-.86-1.92-1.92-1.92H1.92C.86,34.59,0,35.45,0,36.51s.86,1.92,1.92,1.92h28.39c1.06,0,1.92-.86,1.92-1.92Z"/>
  <path class="cls-1" d="M34.35,53.21l-19.02,8.51c-.97.43-1.4,1.57-.97,2.53.32.71,1.02,1.13,1.75,1.13.26,0,.53-.05.78-.17l19.02-8.51c.97-.43,1.4-1.57.97-2.53-.43-.97-1.56-1.4-2.53-.97Z"/>
  <path class="cls-1" d="M15.33,11.3l19.02,8.51c.25.11.52.17.78.17.73,0,1.43-.42,1.75-1.13.43-.97,0-2.1-.97-2.53L16.89,7.8c-.97-.43-2.1,0-2.53.97-.43.97,0,2.1.97,2.53Z"/>
  <path class="cls-1" d="M178.08,34.59h-28.39c-1.06,0-1.92.86-1.92,1.92s.86,1.92,1.92,1.92h28.39c1.06,0,1.92-.86,1.92-1.92s-.86-1.92-1.92-1.92Z"/>
  <path class="cls-1" d="M144.08,56.7l19.02,8.51c.25.11.52.17.78.17.73,0,1.43-.42,1.75-1.13.43-.97,0-2.1-.97-2.53l-19.02-8.51c-.97-.43-2.1,0-2.53.97-.43.97,0,2.1.97,2.53Z"/>
  <path class="cls-1" d="M144.87,19.98c.26,0,.53-.05.78-.17l19.02-8.51c.97-.43,1.4-1.57.97-2.53-.43-.97-1.57-1.4-2.53-.97l-19.02,8.51c-.97.43-1.4,1.57-.97,2.53.32.71,1.02,1.13,1.75,1.13Z"/>
</svg>