<?xml version="1.0" encoding="UTF-8"?>
<svg id="Wellness_Support" data-name="Wellness &amp;amp; Support" xmlns="http://www.w3.org/2000/svg" viewBox="0 0 180 180">
  <defs>
    <style>
      .cls-1 {
        stroke: #000;
        stroke-miterlimit: 10;
        stroke-width: 2px;
      }
    </style>
  </defs>
  <path class="cls-1" d="M179.99,109.38c-.42-16.37-13.26-29.2-29.25-29.2-4.08,0-8.3.84-12.33,2.36.78-2.73,1.67-5.75,1.97-6.61l.11-.3c1.01-2.92,3.12-9.01-1.21-17.63l-.2-.35c-5-8.97-8.96-16.05-11.5-21.81l-.06-.15c-3.97-8.98-6.59-14.91-13.25-19.01-6.33-3.89-16.24-5.97-35.34-7.39C62.81,8.07,36.68,4.34,29.57.47c-.94-.51-2.11-.16-2.61.77-.51.93-.16,2.11.77,2.61,8.03,4.36,34.61,8.04,50.92,9.26,35.88,2.68,37.88,7.22,45.35,24.11l.06.15c2.62,5.92,6.61,13.08,11.66,22.13l.16.28c3.56,7.1,1.94,11.77.97,14.57l-.1.29c-.51,1.44-2.3,7.73-2.94,9.98-3.43,1.82-6.61,4.13-9.29,6.85-6.83-6.91-16.9-11.3-26.22-11.3-2.18,0-4.29.25-6.33.7-5.52-4.49-11.71-9.47-13.98-11.09-4.2-3.1-2.66-7.25-1.74-8.97,1.79-.97,9-4.52,14.9-2.25,3.38,1.3,5.84,4.39,7.31,9.2.31,1.02,1.39,1.59,2.41,1.28,1.02-.31,1.59-1.39,1.28-2.41-1.84-6-5.07-9.93-9.62-11.67-8.5-3.26-18.28,2.54-18.69,2.79-.27.16-.49.39-.66.66-2.43,4.04-3.24,10.26,2.54,14.51,4.27,3.05,23.54,18.92,23.74,19.08.04.03.08.07.13.1,12.98,9,13.12,19.48,9.3,25.71-1.71,2.79-3.7,3.73-6.64,3.16-2.96-.58-6.38-2.57-10.22-4.93l-47.71-29.27c-7.06-4.33-13.8-12.83-20.32-21.05-6.68-8.43-13.59-17.14-21.08-21.64-.91-.55-2.1-.25-2.65.66-.55.91-.25,2.1.66,2.65,6.89,4.14,13.57,12.58,20.04,20.73,6.73,8.48,13.68,17.26,21.32,21.94l26.95,16.53c-.11.92-.18,1.85-.2,2.8-.93,36.57,52.22,68.76,54.48,70.11.3.18.65.27.99.27s.68-.09.99-.27c2.26-1.35,55.41-33.55,54.48-70.11ZM124.52,175.58c-7.52-4.67-52.44-33.95-51.62-66.1,0-.21.02-.42.03-.64l17.07,10.47c4.16,2.55,7.9,4.72,11.5,5.43.79.15,1.55.23,2.28.23,3.47,0,6.28-1.73,8.38-5.16,5.07-8.26,3.84-21-10.32-30.85-.47-.39-2.81-2.31-5.87-4.82.76-.07,1.54-.11,2.32-.11,8.94,0,18.67,4.53,24.77,11.54.73.84,2.18.84,2.91,0,6.1-7.01,15.82-11.54,24.77-11.54,13.88,0,25.03,11.18,25.39,25.44.82,32.15-44.1,61.43-51.62,66.1Z"/>
  <path class="cls-1" d="M53.76,130.98c0-1.06-.86-1.93-1.93-1.93h-31.94c-1.06,0-1.93.86-1.93,1.93s.86,1.93,1.93,1.93h31.94c1.06,0,1.93-.86,1.93-1.93Z"/>
  <path class="cls-1" d="M64.8,151.2c0-1.06-.86-1.93-1.93-1.93h-31.94c-1.06,0-1.93.86-1.93,1.93s.86,1.93,1.93,1.93h31.94c1.06,0,1.93-.86,1.93-1.93Z"/>
  <path class="cls-1" d="M80.78,169.5h-31.94c-1.06,0-1.93.86-1.93,1.93s.86,1.93,1.93,1.93h31.94c1.06,0,1.93-.86,1.93-1.93s-.86-1.93-1.93-1.93Z"/>
</svg>