<?xml version="1.0" encoding="UTF-8"?>
<svg id="Wellness_Support" data-name="Wellness &amp;amp; Support" xmlns="http://www.w3.org/2000/svg" viewBox="0 0 180 180">
  <defs>
    <style>
      .cls-1 {
        stroke: #000;
        stroke-miterlimit: 10;
        stroke-width: 2px;
      }
    </style>
  </defs>
  <path class="cls-1" d="M170.49,77.68c0-29.74-19.16-38.04-27.58-40.25,3.81-3.98,6.16-9.37,6.16-15.3,0-12.2-9.93-22.13-22.13-22.13s-22.13,9.93-22.13,22.13c0,5.9,2.32,11.26,6.09,15.23-5.21,1.32-14.32,5.1-20.46,15.85-9.86-10.67-24.97-17.51-38.94-17.51-22.94,0-41.38,18.42-41.98,41.94-.54,20.99,10.89,43.34,33.96,66.42,19.97,19.98,41.46,33.23,45.57,35.68.29.18.62.26.96.26s.66-.09.96-.26c4.11-2.45,25.6-15.71,45.57-35.68,23.07-23.08,34.5-45.43,33.96-66.37ZM126.94,3.73c10.15,0,18.41,8.26,18.41,18.41s-8.26,18.41-18.41,18.41-18.41-8.26-18.41-18.41S116.79,3.73,126.94,3.73ZM90,175.96c-9.4-5.78-78-49.69-76.76-98.23.55-21.48,17.35-38.31,38.26-38.31,13.4,0,27.96,6.78,37.1,17.28.02.02.03.03.05.05-1.18,2.65-2.19,5.64-2.95,9.03-.46,2.02-.7,4.41-.75,7.03-4.85-3.1-10.43-4.83-15.78-4.83-12.88,0-23.22,10.33-23.56,23.51-.74,29.24,41.63,54.9,43.43,55.98.29.18.62.26.96.26s.66-.09.96-.26c1.8-1.08,44.18-26.74,43.43-55.98-.34-13.19-10.69-23.51-23.56-23.51-1.91,0-3.86.22-5.82.66-.64.14-1.16.61-1.36,1.23-3.78,11.43-.84,22.37,1.3,30.36,1.2,4.47,2.34,8.7,1.32,10.18-.12.17-.47.69-2.02.86-1.78.2-3.64-.75-5.5-2.83-7.61-8.49-11.82-31.15-9.41-41.86,5.15-22.91,21.78-25.8,25.17-26.16,3.55,2.42,7.83,3.83,12.43,3.83s8.85-1.4,12.39-3.8c1.86.27,7.59,1.4,13.34,5.42,9.35,6.54,14.09,17.24,14.09,31.84,1.24,48.53-67.36,92.44-76.76,98.23ZM108.54,99.26c-1.96-7.29-4.61-17.18-1.68-27.2,1.34-.24,2.67-.36,3.97-.36,10.84,0,19.55,8.73,19.84,19.88.64,25.12-34.23,48.08-40.66,52.1-6.43-4.02-41.3-26.97-40.66-52.1.29-11.15,9-19.88,19.84-19.88,5.35,0,11.23,2.13,15.88,5.73.71,11.99,4.77,26.65,10.92,33.51,2.71,3.03,5.64,4.38,8.69,4.04,2.16-.24,3.74-1.07,4.69-2.47,1.98-2.9.81-7.24-.8-13.25Z"/>
</svg>