<?xml version="1.0" encoding="UTF-8"?>
<svg id="Wellness_Support" data-name="Wellness &amp;amp; Support" xmlns="http://www.w3.org/2000/svg" viewBox="0 0 180 180">
  <defs>
    <style>
      .cls-1 {
        stroke: #000;
        stroke-miterlimit: 10;
        stroke-width: 2px;
      }
    </style>
  </defs>
  <path class="cls-1" d="M52.48,149.41c0-1.07-.87-1.93-1.94-1.93h-30.18c-1.07,0-1.93.87-1.93,1.93s.87,1.94,1.93,1.94h30.18c1.07,0,1.94-.87,1.94-1.94Z"/>
  <path class="cls-1" d="M54.89,167.25l-20.22,9.04c-.98.44-1.41,1.58-.98,2.56.32.72,1.03,1.15,1.77,1.15.26,0,.53-.05.79-.17l20.22-9.04c.98-.44,1.41-1.58.98-2.56-.44-.98-1.58-1.41-2.56-.98Z"/>
  <path class="cls-1" d="M159.63,147.48h-30.18c-1.07,0-1.94.87-1.94,1.93s.87,1.94,1.94,1.94h30.18c1.07,0,1.93-.87,1.93-1.94s-.87-1.93-1.93-1.93Z"/>
  <path class="cls-1" d="M145.33,176.3l-20.22-9.04c-.98-.44-2.12,0-2.56.98-.44.98,0,2.12.98,2.56l20.22,9.04c.26.12.52.17.79.17.74,0,1.45-.43,1.77-1.15.44-.98,0-2.12-.98-2.56Z"/>
  <path class="cls-1" d="M148.31,47.87c-1.08-2.91-2.94-3.38-3.96-3.4-.03,0-.05,0-.08,0-2.83,0-5.62,3.21-8.28,9.56-9.87,23.49-20.22,31.25-29.7,33.76,3.65-3.95,5.88-9.23,5.88-15.02,0-12.23-9.95-22.18-22.18-22.18s-22.18,9.95-22.18,22.18c0,5.79,2.23,11.07,5.88,15.02-9.48-2.51-19.82-10.27-29.7-33.76-2.66-6.34-5.45-9.56-8.28-9.56-.03,0-.05,0-.08,0-1.02.02-2.88.49-3.96,3.41-3.51,9.5,3.41,38.23,29.59,61.95,2.43,13.19,10.78,54.78,12.71,64.49.18.91.97,1.56,1.9,1.56,2.61,0,25.63,0,28.24,0,.92,0,1.72-.65,1.9-1.56,1.93-9.71,10.28-51.3,12.71-64.49,26.18-23.72,33.1-52.45,29.59-61.95ZM90,54.46c10.1,0,18.31,8.21,18.31,18.31s-8.21,18.31-18.31,18.31-18.31-8.21-18.31-18.31,8.21-18.31,18.31-18.31ZM115.65,107.38c-.32.29-.53.67-.61,1.09-2.48,13.45-10.72,54.5-12.51,63.53-4.54,0-8.4,0-10.59,0v-33.83c0-1.07-.87-1.93-1.94-1.93s-1.93.87-1.93,1.93v33.83c-2.19,0-6.05,0-10.59,0-1.79-9.03-10.03-50.08-12.51-63.53-.08-.42-.29-.81-.61-1.09-23.36-20.92-30.47-44.65-29.55-55.5.2-2.32.75-3.29.99-3.53.56.18,2.37,1.74,4.66,7.17,10.48,24.93,22.42,36.08,39.87,37.19,2.93,1.43,6.22,2.23,9.69,2.23s6.76-.8,9.69-2.23c17.45-1.11,29.39-12.25,39.87-37.19,2.28-5.43,4.09-6.99,4.66-7.17.24.24.79,1.21.99,3.53.92,10.85-6.19,34.58-29.55,55.5Z"/>
  <path class="cls-1" d="M52.82,130.92c.81.7,2.03.6,2.73-.21s.6-2.03-.21-2.73C32.36,108.25,5.13,77.98,5.95,45.86,6.55,22.31,24.98,3.87,47.89,3.87c14.68,0,30.64,7.43,40.65,18.93.74.84,2.18.84,2.92,0,10.01-11.5,25.96-18.93,40.65-18.93,22.92,0,41.34,18.44,41.94,41.99.82,32.12-26.41,62.39-49.39,82.12-.81.7-.9,1.92-.21,2.73.38.45.92.67,1.47.67.45,0,.89-.15,1.26-.47,23.62-20.28,51.6-51.52,50.74-85.16-.65-25.66-20.78-45.76-45.81-45.76-15.06,0-31.34,7.26-42.11,18.65C79.24,7.26,62.95,0,47.89,0,22.86,0,2.74,20.1,2.08,45.76c-.86,33.64,27.12,64.88,50.74,85.16Z"/>
</svg>