<?xml version="1.0" encoding="UTF-8"?>
<svg id="Wellness_Support" data-name="Wellness &amp;amp; Support" xmlns="http://www.w3.org/2000/svg" viewBox="0 0 180 180">
  <defs>
    <style>
      .cls-1 {
        stroke: #000;
        stroke-miterlimit: 10;
        stroke-width: 2px;
      }
    </style>
  </defs>
  <path class="cls-1" d="M120.11,102.24h-60.22c-1.09,0-1.98-.89-1.98-1.98v-7.92c0-1.09.89-1.98,1.98-1.98s1.98.89,1.98,1.98v5.94h56.26v-5.94c0-1.09.89-1.98,1.98-1.98s1.98.89,1.98,1.98v7.92c0,1.09-.89,1.98-1.98,1.98Z"/>
  <path class="cls-1" d="M90,90.1c-12.88,0-23.36-10.48-23.36-23.36s10.48-23.36,23.36-23.36,23.36,10.48,23.36,23.36-10.48,23.36-23.36,23.36ZM90,47.33c-10.7,0-19.4,8.7-19.4,19.4s8.7,19.4,19.4,19.4,19.4-8.7,19.4-19.4-8.7-19.4-19.4-19.4Z"/>
  <path class="cls-1" d="M90,33.37c-1.09,0-1.98-.89-1.98-1.98V1.98c0-1.09.89-1.98,1.98-1.98s1.98.89,1.98,1.98v29.41c0,1.09-.89,1.98-1.98,1.98Z"/>
  <path class="cls-1" d="M106.68,37.07c-1.09,0-1.98-.89-1.98-1.98V11.24c0-1.09.89-1.98,1.98-1.98s1.98.89,1.98,1.98v23.85c0,1.09-.89,1.98-1.98,1.98Z"/>
  <path class="cls-1" d="M73.32,37.07c-1.09,0-1.98-.89-1.98-1.98V11.24c0-1.09.89-1.98,1.98-1.98s1.98.89,1.98,1.98v23.85c0,1.09-.89,1.98-1.98,1.98Z"/>
  <path class="cls-1" d="M90,180c-.35,0-.7-.09-1.02-.28-4.59-2.75-28.65-17.57-50.98-39.92C12.2,113.99-.58,89,.02,65.54.69,39.27,21.28,18.7,46.9,18.7c4.52,0,9.22.65,13.96,1.92,1.06.28,1.68,1.37,1.4,2.43-.28,1.05-1.36,1.68-2.43,1.4-4.41-1.18-8.76-1.78-12.93-1.78-23.46,0-42.31,18.88-42.93,42.98-1.39,54.47,75.71,103.72,86.02,110.06,10.32-6.34,87.41-55.59,86.02-110.06-.61-24.1-19.47-42.98-42.92-42.98-4.17,0-8.53.6-12.93,1.78-1.07.29-2.14-.34-2.43-1.4-.28-1.06.34-2.14,1.4-2.43,4.74-1.27,9.44-1.92,13.96-1.92,25.62,0,46.21,20.57,46.88,46.84.6,23.46-12.18,48.45-37.98,74.26-22.34,22.35-46.39,37.18-50.98,39.92-.31.19-.66.28-1.02.28Z"/>
</svg>