<?xml version="1.0" encoding="UTF-8"?>
<svg id="Wellness_Support" data-name="Wellness &amp;amp; Support" xmlns="http://www.w3.org/2000/svg" viewBox="0 0 180 180">
  <defs>
    <style>
      .cls-1 {
        stroke: #000;
        stroke-miterlimit: 10;
        stroke-width: 2px;
      }
    </style>
  </defs>
  <path class="cls-1" d="M49.63,85.07c1.14,0,2.07-.93,2.07-2.07v-15.31c0-10.09,5.31-13.93,9.94-16.16,2.19-1.05,7.39-3.52,12.81-6.09,4.3,3.34,9.69,5.34,15.54,5.34s11.24-2,15.54-5.34c5.42,2.57,10.62,5.04,12.81,6.09,4.63,2.22,9.94,6.07,9.94,16.16v15.31c0,1.14.93,2.07,2.07,2.07s2.07-.93,2.07-2.07v-15.31c0-9.41-4.02-15.92-12.29-19.89-1.99-.96-6.47-3.08-11.33-5.39,4.08-4.51,6.57-10.48,6.57-17.02,0-14-11.39-25.39-25.39-25.39s-25.39,11.39-25.39,25.39c0,6.54,2.49,12.52,6.57,17.02-4.86,2.31-9.33,4.43-11.33,5.39-8.27,3.97-12.29,10.48-12.29,19.89v15.31c0,1.14.93,2.07,2.07,2.07ZM90,4.14c11.72,0,21.25,9.53,21.25,21.25s-9.53,21.25-21.25,21.25-21.25-9.53-21.25-21.25,9.53-21.25,21.25-21.25Z"/>
  <path class="cls-1" d="M51.83,175.2c-.28-.2-28.29-19.62-36.82-26.9-7.26-6.19-10.35-15.29-10.35-30.4V30.65c9.6.62,12.66,3.3,15.7,16.9,2.48,11.12,8.05,38.95,8.11,39.23.22,1.12,1.3,1.85,2.44,1.62,1.12-.22,1.85-1.32,1.62-2.44-.06-.28-5.63-28.16-8.13-39.33-3.72-16.67-8.93-19.79-21.74-20.24-.57-.03-1.11.19-1.51.58-.4.39-.63.93-.63,1.49v89.42c0,16.24,3.64,26.59,11.81,33.55,8.69,7.42,36,26.35,37.15,27.16.36.25.77.37,1.18.37.66,0,1.3-.31,1.7-.89.65-.94.42-2.23-.52-2.88Z"/>
  <path class="cls-1" d="M162.31,105.7c-2.76-4.86-11.43-10.26-21.29-6.43-6.69,2.6-17.66,9.35-28.26,15.88-1.96,1.21-3.92,2.41-5.85,3.59-8.35,5.1-14.06,13.87-16.9,25.78-2.84-11.9-8.55-20.68-16.91-25.78-1.93-1.18-3.89-2.39-5.86-3.59-10.6-6.53-21.57-13.27-28.26-15.87-9.86-3.83-18.54,1.57-21.29,6.43-1.65,2.91-1.39,5.72.69,7.33,6.82,5.31,35.1,31.9,35.38,32.16.83.78,2.14.74,2.93-.09.78-.83.74-2.14-.09-2.93-1.17-1.1-28.71-26.99-35.67-32.41-.35-.28-.08-1.23.37-2.02,2.05-3.6,8.61-7.56,16.19-4.61,6.34,2.46,17.14,9.11,27.59,15.54,1.97,1.21,3.93,2.42,5.87,3.6,13.69,8.36,16.8,26.47,16.99,40.16v15.49c0,1.14.93,2.07,2.07,2.07s2.07-.93,2.07-2.07v-15.46c.2-13.72,3.31-31.83,16.99-40.19,1.94-1.18,3.9-2.39,5.86-3.6,10.45-6.43,21.25-13.08,27.59-15.54,7.59-2.95,14.15,1.01,16.19,4.61.45.8.72,1.75.37,2.02-6.97,5.42-34.51,31.31-35.68,32.41-.83.78-.87,2.09-.09,2.93.78.83,2.09.87,2.93.09.28-.27,28.57-26.86,35.38-32.16,2.07-1.62,2.34-4.43.69-7.33Z"/>
  <path class="cls-1" d="M178.85,26.98c-.4-.39-.96-.61-1.51-.58-12.8.45-18.01,3.57-21.74,20.24-2.49,11.16-8.07,39.05-8.13,39.33-.22,1.12.5,2.21,1.62,2.44,1.13.23,2.21-.5,2.44-1.62.06-.28,5.62-28.12,8.11-39.23,3.04-13.6,6.1-16.29,15.7-16.9v87.25c0,15.12-3.1,24.21-10.35,30.4-8.53,7.28-36.54,26.71-36.82,26.9-.94.65-1.17,1.94-.52,2.88.4.58,1.05.89,1.7.89.41,0,.82-.12,1.18-.37,1.16-.8,28.46-19.74,37.15-27.15,8.17-6.97,11.81-17.32,11.81-33.55V28.47c0-.56-.23-1.1-.63-1.49Z"/>
</svg>