<?xml version="1.0" encoding="UTF-8"?>
<svg id="Wellness_Support" data-name="Wellness &amp;amp; Support" xmlns="http://www.w3.org/2000/svg" viewBox="0 0 180 180">
  <defs>
    <style>
      .cls-1 {
        stroke: #000;
        stroke-miterlimit: 10;
        stroke-width: 2px;
      }
    </style>
  </defs>
  <path class="cls-1" d="M36.98,112.09c.25.06.53.1.8.14v41.07c0,1.15.93,2.08,2.08,2.08s2.08-.93,2.08-2.08v-40.96c9.29-.88,24.42-8.24,40.04-24.67,2.53,13.25,2.54,21.13-2.82,43.09-.27,1.12.41,2.24,1.53,2.52.17.04.33.06.49.06.94,0,1.79-.64,2.02-1.59,5.69-23.35,5.67-31.1,2.26-47.88,1.85-2.1,3.71-4.34,5.55-6.71.71-.91.54-2.22-.36-2.92-.91-.71-2.22-.54-2.92.36-22.44,28.79-43.55,35.03-49.73,33.46-.51-.13-1.38-.44-1.48-1.01-.18-1.11,1.37-4.43,8.56-9.09,23.51-15.26,26.45-36.15,26.75-43.06.02,0,.03,0,.05,0,9.65,0,18.14-5.01,23.04-12.56,6.29,2.34,30.75,13.61,32.55,47.28.06,1.11.98,1.97,2.08,1.97.04,0,.07,0,.11,0,1.15-.06,2.03-1.04,1.97-2.19-1.87-35.05-26.84-47.64-34.7-50.74,1.54-3.42,2.4-7.22,2.4-11.21C99.34,12.31,87.02,0,71.89,0s-27.45,12.31-27.45,27.45c0,13.7,10.1,25.1,23.24,27.12-.22,5.92-2.7,25.49-24.87,39.88-7.44,4.83-11.03,9.41-10.4,13.26.35,2.13,2.01,3.72,4.56,4.37ZM48.61,27.45c0-12.84,10.44-23.28,23.28-23.28s23.28,10.44,23.28,23.28-10.44,23.28-23.28,23.28-23.28-10.44-23.28-23.28Z"/>
  <path class="cls-1" d="M171.68,54.01c10.24-22.16,11.05-39.2,2.28-47.96-10.05-10.05-31.09-7.41-57.72,7.23-1.01.55-1.38,1.82-.82,2.83.55,1.01,1.82,1.38,2.83.82,24.53-13.49,44.26-16.45,52.77-7.94,7.34,7.34,6.2,23.11-3.12,43.27-9.75,21.09-27.16,44.75-49.02,66.62-21.86,21.86-45.52,39.27-66.62,49.02-20.17,9.32-35.94,10.45-43.27,3.12-8.85-8.85-5.38-29.49,9.3-55.2.57-1,.22-2.27-.78-2.84-1-.57-2.27-.22-2.84.78-15.89,27.85-19.04,49.8-8.63,60.21,4.03,4.03,9.8,6.03,17.01,6.03,8.49,0,18.97-2.78,30.95-8.32,21.53-9.95,45.61-27.65,67.81-49.86,22.2-22.2,39.91-46.28,49.86-67.81Z"/>
  <path class="cls-1" d="M179.75,85.59c.55-1.01.17-2.28-.84-2.82-1.01-.55-2.27-.17-2.82.84-17.9,33.09-59.39,74.57-92.48,92.48-1.01.55-1.39,1.81-.84,2.82.38.7,1.09,1.09,1.83,1.09.33,0,.67-.08.99-.25,33.69-18.23,75.93-60.47,94.16-94.16Z"/>
  <path class="cls-1" d="M179.02,120.62c-.98-.61-2.26-.31-2.87.67-11.62,18.63-36.23,43.24-54.86,54.86-.98.61-1.27,1.89-.67,2.87.39.63,1.07.98,1.77.98.38,0,.76-.1,1.1-.32,19.09-11.9,44.29-37.11,56.19-56.19.61-.98.31-2.26-.67-2.87Z"/>
</svg>