<?xml version="1.0" encoding="UTF-8"?>
<svg id="Wellness_Support" data-name="Wellness &amp;amp; Support" xmlns="http://www.w3.org/2000/svg" viewBox="0 0 180 180">
  <defs>
    <style>
      .cls-1 {
        stroke: #000;
        stroke-miterlimit: 10;
        stroke-width: 2px;
      }
    </style>
  </defs>
  <path class="cls-1" d="M90,137.66c-.35,0-.7-.09-1.02-.28-3.23-1.93-31.55-19.46-31.02-40.15.25-9.68,7.85-17.27,17.32-17.27,5.18,0,10.74,2.3,14.72,5.99,3.97-3.68,9.54-5.99,14.72-5.99,9.46,0,17.07,7.58,17.32,17.27h0c.53,20.69-27.79,38.22-31.02,40.15-.31.19-.67.28-1.02.28ZM75.28,83.93c-7.3,0-13.16,5.89-13.35,13.4-.43,16.99,22.79,32.67,28.07,36.01,5.28-3.34,28.5-19.03,28.07-36.01h0c-.19-7.51-6.06-13.4-13.35-13.4-4.77,0-9.96,2.42-13.22,6.17-.75.86-2.24.87-2.99,0-3.26-3.75-8.45-6.17-13.22-6.17Z"/>
  <path class="cls-1" d="M173.74,171.31h-24.6c-.53,0-1.04-.21-1.41-.59l-10.22-10.4H42.49l-10.21,10.4c-.37.38-.88.59-1.41.59H6.26c-1.1,0-1.98-.89-1.98-1.98v-43.69c0-16.38,10.98-25.2,20.67-32.99,9.07-7.29,16.9-13.58,16.6-24.69v-25.49c0-1.09.89-1.98,1.98-1.98h17.74c1.1,0,1.98.89,1.98,1.98v7.71h53.5v-7.71c0-1.09.89-1.98,1.98-1.98h17.74c1.1,0,1.98.89,1.98,1.98v25.44c-.29,11.17,7.54,17.46,16.6,24.75,9.69,7.79,20.67,16.61,20.67,32.99v43.69c0,1.09-.89,1.98-1.98,1.98ZM149.97,167.35h21.78v-41.71c0-14.48-9.75-22.31-19.18-29.9-9.06-7.28-18.43-14.81-18.08-27.89v-23.4h-13.77v7.71c0,1.09-.89,1.98-1.98,1.98h-57.46c-1.1,0-1.98-.89-1.98-1.98v-7.71h-13.77v23.46c.34,13.03-9.02,20.56-18.08,27.84-9.43,7.58-19.18,15.42-19.18,29.9v41.71h21.78l10.21-10.4c.37-.38.88-.59,1.41-.59h96.69c.53,0,1.04.21,1.41.59l10.22,10.4Z"/>
  <path class="cls-1" d="M170.22,80.47c-.53,0-1.06-.06-1.59-.19l-19.01-4.61c-1.06-.26-1.72-1.33-1.46-2.39.26-1.06,1.33-1.72,2.39-1.46l19.01,4.61c.71.17,1.45.06,2.07-.32.62-.38,1.06-.98,1.24-1.7l1.6-6.6c3.21-13.48,1.45-24.61-5.22-33.05-11.59-14.67-38.25-22.1-79.25-22.1S22.33,20.09,10.75,34.75c-6.67,8.44-8.42,19.57-5.22,33.06l1.6,6.59c.17.71.61,1.31,1.24,1.7.62.38,1.36.5,2.07.32l19.01-4.61c1.06-.26,2.14.4,2.39,1.46.26,1.06-.4,2.14-1.46,2.39l-19.01,4.61c-1.74.42-3.54.14-5.07-.79-1.53-.93-2.6-2.41-3.03-4.15l-1.6-6.6C-1.83,54,.17,41.74,7.63,32.29c12.38-15.67,40.09-23.61,82.37-23.61s69.99,7.94,82.37,23.61c7.46,9.44,9.47,21.7,5.96,36.43l-1.6,6.61c-.42,1.74-1.5,3.21-3.03,4.15-1.07.65-2.26.98-3.48.98Z"/>
</svg>