<?xml version="1.0" encoding="UTF-8"?>
<svg id="Wellness_Support" data-name="Wellness &amp;amp; Support" xmlns="http://www.w3.org/2000/svg" viewBox="0 0 180 180">
  <defs>
    <style>
      .cls-1 {
        stroke: #000;
        stroke-miterlimit: 10;
        stroke-width: 2px;
      }
    </style>
  </defs>
  <path class="cls-1" d="M106.14,165.29c-.34,0-.67-.09-.97-.27-3.22-1.92-31.4-19.37-30.88-39.94.24-9.6,7.79-17.13,17.17-17.13,5.17,0,10.72,2.31,14.67,6,3.95-3.69,9.5-6,14.67-6,9.39,0,16.93,7.52,17.17,17.13h0c.53,20.58-27.66,38.02-30.88,39.94-.3.18-.63.27-.97.27ZM91.47,111.73c-7.32,0-13.21,5.91-13.4,13.45-.43,17.03,22.89,32.74,28.07,36.01,5.18-3.27,28.5-18.97,28.07-36.01h0c-.19-7.54-6.08-13.45-13.4-13.45-4.78,0-9.98,2.42-13.25,6.18-.72.82-2.13.82-2.85,0-3.27-3.75-8.47-6.18-13.25-6.18Z"/>
  <path class="cls-1" d="M72,180c-.94,0-1.75-.7-1.87-1.66-.05-.36-1.37-9.13-13.39-15.37-9.59-4.97-18.56-13.52-24-22.86-.12-.21-.2-.43-.24-.67-2.8-18.74-7.1-24.41-13.6-32.99-.48-.64-2.8-3.53-3.61-4.4-2.53-2.72-5.39-5.81-4.39-9.13.76-2.5,3.44-4.22,8.44-5.41,16.22-3.88,33.23,18.91,40.44,30.04v-15.22S43.14,31.61,43.14,31.61c-.73-3.12-.19-6.33,1.5-9.05,1.69-2.71,4.34-4.61,7.45-5.33,3.11-.73,6.32-.19,9.04,1.5,2.71,1.69,4.61,4.34,5.33,7.45l11.09,47.7c1.05,4.52,2.3,5.38,2.53,5.51.05.03.12.05.17.05.36-.24.63-.35,1.07-.27.64-.11,2.05-1.5,1.73-6.86-.55-9.18-.03-58.27,0-60.36,0-6.58,5.37-11.95,11.97-11.95s11.97,5.37,11.97,11.97v61.92c0,3.36.43,4.48.68,4.86.09.14.15.22,1.03.27,1.03.06,1.84.11,2.6-3.88,1.01-5.3,8.44-47.89,8.52-48.32,1.15-6.5,7.37-10.86,13.87-9.72,6.5,1.15,10.86,7.37,9.71,13.87l-9.17,51.99c-.9,5.12-.26,5.35.56,5.65.42.15.56.15.58.15,0,0,.76-.38,1.91-3.89,1.82-5.53,11.49-33.86,11.58-34.14,1.86-5.47,7.82-8.41,13.29-6.55,5.47,1.86,8.41,7.82,6.56,13.29l-12.98,38.24c-.26.86-.66,6.21-1.09,11.87-3.36,44.71-7.51,72.42-17.78,72.42-1.04,0-1.89-.85-1.89-1.89s.85-1.89,1.89-1.89c1.24,0,5.57-1.81,9.4-25.05,2.42-14.68,3.74-32.25,4.61-43.88.62-8.26.89-11.66,1.28-12.8l12.97-38.24c1.19-3.5-.69-7.31-4.19-8.5-3.5-1.19-7.31.69-8.5,4.19-.1.29-9.76,28.6-11.57,34.11-1.16,3.52-2.32,5.35-3.87,6.11-1.48.72-2.89.21-3.5,0-3.37-1.22-4.09-3.61-2.99-9.86l9.17-51.99c.79-4.45-2.2-8.71-6.65-9.5-4.45-.79-8.71,2.2-9.5,6.65-.07.43-7.51,43.04-8.53,48.38-.98,5.15-2.87,7.16-6.54,6.94-3.89-.23-5.27-2.56-5.27-8.9V11.97c0-4.52-3.68-8.2-8.2-8.2s-8.2,3.68-8.2,8.2c0,.53-.54,51.06,0,60.11.27,4.51-.52,7.7-2.33,9.47-1.03,1-2.1,1.3-2.78,1.37-.76.31-1.83.44-2.94,0-2.22-.87-3.82-3.55-4.9-8.2l-11.09-47.7c-.5-2.13-1.79-3.94-3.65-5.1-1.86-1.16-4.06-1.52-6.19-1.03-2.13.5-3.94,1.79-5.1,3.65-1.16,1.86-1.52,4.06-1.03,6.19l16.7,70.91c.03.14.05.29.05.43v22.16c0,.86-.58,1.61-1.41,1.83-.84.22-1.71-.16-2.13-.9-.21-.38-21.69-38.34-39.8-34-4.85,1.16-5.59,2.46-5.71,2.83-.38,1.25,1.89,3.69,3.54,5.47.88.95,3.37,4.05,3.85,4.69,6.57,8.67,11.32,14.95,14.27,34.35,6.01,10.14,15.43,17.54,22.29,21.1,13.89,7.2,15.35,17.81,15.4,18.26.13,1.03-.61,1.98-1.64,2.1-.08,0-.16.01-.23.01Z"/>
</svg>