<?xml version="1.0" encoding="UTF-8"?>
<svg id="Wellness_Support" data-name="Wellness &amp;amp; Support" xmlns="http://www.w3.org/2000/svg" viewBox="0 0 180 180">
  <defs>
    <style>
      .cls-1 {
        stroke: #000;
        stroke-miterlimit: 10;
        stroke-width: 2px;
      }
    </style>
  </defs>
  <path class="cls-1" d="M147.25,73.56c-12.17-7.51-24.69-11.25-30.71-12.75,6-6.46,9.67-15.11,9.67-24.6C126.21,16.24,109.97,0,90,0s-36.21,16.24-36.21,36.21c0,9.49,3.68,18.14,9.67,24.6-6.03,1.5-18.54,5.24-30.71,12.75C10.59,87.23.55,106.83,3.71,130.24c1.96,14.5,15.33,38.59,29,46.74,3.38,2.01,6.63,3.02,9.73,3.02,1.69,0,3.33-.3,4.92-.9,2.92-1.1,4.84-2.81,5.71-5.07,1.88-4.89-1.44-11.36-5.64-19.55-5.58-10.86-12.51-24.37-10.8-39.82.12-1.1-.67-2.1-1.78-2.22-1.1-.13-2.1.67-2.22,1.78-1.85,16.66,5.7,31.36,11.22,42.1,3.6,7.01,6.71,13.06,5.47,16.27-.45,1.16-1.55,2.06-3.38,2.75-3.3,1.25-7.06.64-11.17-1.81-12.39-7.39-25.24-30.27-27.07-43.82-2.97-22,6.15-39.71,27.08-52.66,13.8-8.53,28.48-12.1,32.19-12.91,6.26,5.18,14.29,8.29,23.03,8.29s16.77-3.11,23.03-8.29c3.72.81,18.4,4.38,32.19,12.91,20.94,12.95,30.05,30.67,27.08,52.66-1.83,13.55-14.68,36.43-27.07,43.82-4.11,2.45-7.87,3.06-11.17,1.81-1.83-.69-2.94-1.59-3.38-2.75-1.24-3.21,1.87-9.26,5.47-16.27,5.51-10.74,13.07-25.44,11.22-42.1-.12-1.1-1.12-1.9-2.22-1.78-1.1.12-1.9,1.12-1.78,2.22,1.72,15.45-5.22,28.96-10.8,39.82-4.21,8.19-7.53,14.66-5.64,19.55.87,2.26,2.79,3.97,5.71,5.07,1.59.6,3.23.9,4.92.9,3.1,0,6.35-1.01,9.73-3.02,13.67-8.15,27.04-32.23,29-46.74,3.16-23.41-6.89-43.01-29.04-56.68ZM57.81,36.21c0-17.75,14.44-32.19,32.19-32.19s32.19,14.44,32.19,32.19-14.44,32.19-32.19,32.19-32.19-14.44-32.19-32.19Z"/>
  <path class="cls-1" d="M115.08,123.47c-1.6-.77-5.14-2.45-9.02-4.29,3.27-3.75,5.26-8.64,5.26-13.99,0-11.75-9.56-21.31-21.31-21.31s-21.31,9.56-21.31,21.31c0,5.35,1.99,10.24,5.26,13.99-3.89,1.84-7.42,3.52-9.02,4.29-6.96,3.34-10.34,8.81-10.34,16.73v8.21c0,1.11.9,2.01,2.01,2.01s2.01-.9,2.01-2.01v-8.21c0-8.18,4.31-11.3,8.06-13.1,1.79-.86,6.01-2.87,10.44-4.96,3.58,2.74,8.06,4.37,12.9,4.37s9.32-1.63,12.9-4.37c4.42,2.1,8.64,4.1,10.44,4.96,3.75,1.8,8.06,4.92,8.06,13.1v8.21c0,1.11.9,2.01,2.01,2.01s2.01-.9,2.01-2.01v-8.21c0-7.91-3.38-13.39-10.34-16.73ZM72.71,105.18c0-9.53,7.76-17.29,17.29-17.29s17.29,7.76,17.29,17.29-7.76,17.29-17.29,17.29-17.29-7.76-17.29-17.29Z"/>
</svg>