<?xml version="1.0" encoding="UTF-8"?>
<svg id="Wellness_Support" data-name="Wellness &amp;amp; Support" xmlns="http://www.w3.org/2000/svg" viewBox="0 0 180 180">
  <defs>
    <style>
      .cls-1 {
        stroke: #000;
        stroke-miterlimit: 10;
        stroke-width: 2px;
      }
    </style>
  </defs>
  <path class="cls-1" d="M129.76,109.52c-.3-11.89-9.64-21.21-21.26-21.21-6.54,0-13.58,2.98-18.5,7.72-4.92-4.74-11.96-7.72-18.5-7.72-11.62,0-20.95,9.32-21.26,21.21-.65,25.72,34.71,47.61,38.74,50.02.31.19.66.28,1.02.28s.7-.09,1.02-.28c4.03-2.41,39.4-24.3,38.74-50.02ZM90,155.51c-6.11-3.83-36.36-23.96-35.8-45.89.25-9.73,7.85-17.35,17.3-17.35,6.14,0,12.81,3.11,17.01,7.93.75.86,2.23.86,2.99,0,4.19-4.82,10.87-7.93,17.01-7.93,9.45,0,17.05,7.62,17.3,17.35.56,21.93-29.69,42.06-35.8,45.89Z"/>
  <path class="cls-1" d="M147.25,73.58c-12.21-7.53-24.76-11.27-30.76-12.76,6.02-6.46,9.7-15.12,9.7-24.63C126.19,16.24,109.96,0,90,0s-36.19,16.24-36.19,36.19c0,9.51,3.69,18.16,9.7,24.63-6.01,1.49-18.56,5.23-30.76,12.76C10.59,87.25.55,106.84,3.71,130.25c1.96,14.5,15.32,38.58,28.99,46.73,3.37,2.01,6.63,3.02,9.72,3.02,1.69,0,3.33-.3,4.91-.9,2.91-1.1,4.83-2.8,5.7-5.05,1.88-4.88-1.44-11.35-5.64-19.53-5.58-10.86-12.52-24.38-10.8-39.85.12-1.09-.66-2.07-1.75-2.19-1.08-.12-2.07.66-2.19,1.75-1.85,16.65,5.7,31.36,11.22,42.1,3.6,7.01,6.71,13.07,5.47,16.3-.45,1.17-1.56,2.08-3.4,2.77-3.31,1.25-7.08.64-11.2-1.82-12.4-7.4-25.27-30.3-27.1-43.86-2.97-22.02,6.15-39.75,27.11-52.71,13.82-8.55,28.53-12.12,32.23-12.92,6.26,5.18,14.29,8.3,23.03,8.3s16.77-3.12,23.03-8.3c3.68.8,18.32,4.34,32.14,12.87,21.02,12.96,30.17,30.72,27.2,52.77-1.83,13.56-14.69,36.46-27.1,43.86-4.12,2.46-7.89,3.07-11.2,1.82-1.84-.7-2.95-1.6-3.4-2.77-1.24-3.23,1.87-9.28,5.47-16.3,5.51-10.74,13.07-25.44,11.22-42.1-.12-1.09-1.11-1.87-2.19-1.75-1.09.12-1.87,1.1-1.75,2.19,1.72,15.47-5.22,28.99-10.8,39.85-4.2,8.18-7.52,14.65-5.64,19.53.87,2.25,2.78,3.95,5.7,5.05,1.59.6,3.22.9,4.91.9,3.09,0,6.35-1.01,9.72-3.02,13.67-8.15,27.04-32.23,28.99-46.73,3.16-23.41-6.89-43-29.04-56.67ZM57.77,36.19c0-17.77,14.46-32.23,32.23-32.23s32.23,14.46,32.23,32.23-14.46,32.23-32.23,32.23-32.23-14.46-32.23-32.23Z"/>
</svg>