<?xml version="1.0" encoding="UTF-8"?>
<svg id="Wellness_Support" data-name="Wellness &amp;amp; Support" xmlns="http://www.w3.org/2000/svg" viewBox="0 0 180 180">
  <defs>
    <style>
      .cls-1 {
        stroke: #000;
        stroke-miterlimit: 10;
        stroke-width: 2px;
      }
    </style>
  </defs>
  <path class="cls-1" d="M134.55,85.47c.31.18.65.28,1,.28s.69-.09,1-.28c1.81-1.08,44.32-26.83,43.58-56.19-.34-13.26-10.75-23.65-23.7-23.65-7.4,0-15.37,3.41-20.88,8.82-5.51-5.41-13.48-8.82-20.88-8.82-12.95,0-23.36,10.39-23.7,23.65-.75,29.36,41.77,55.11,43.58,56.19ZM94.87,29.38c.28-11.13,8.98-19.85,19.8-19.85,7,0,14.62,3.55,19.4,9.04.74.85,2.2.85,2.94,0,4.78-5.49,12.4-9.04,19.4-9.04,10.82,0,19.52,8.72,19.8,19.85.64,25.08-34.12,48.02-40.67,52.12-6.56-4.1-41.31-27.04-40.68-52.12Z"/>
  <path class="cls-1" d="M126.91,109.95h-5.42v-5.42c0-1.08-.87-1.95-1.95-1.95s-1.95.87-1.95,1.95v5.42h-5.42c-1.08,0-1.95.87-1.95,1.95s.87,1.95,1.95,1.95h5.42v5.42c0,1.08.87,1.95,1.95,1.95s1.95-.87,1.95-1.95v-5.42h5.42c1.08,0,1.95-.87,1.95-1.95s-.87-1.95-1.95-1.95Z"/>
  <path class="cls-1" d="M108.75,167.43h-5.42v-5.42c0-1.08-.87-1.95-1.95-1.95s-1.95.87-1.95,1.95v5.42h-5.42c-1.08,0-1.95.87-1.95,1.95s.87,1.95,1.95,1.95h5.42v5.42c0,1.08.87,1.95,1.95,1.95s1.95-.87,1.95-1.95v-5.42h5.42c1.08,0,1.95-.87,1.95-1.95s-.87-1.95-1.95-1.95Z"/>
  <path class="cls-1" d="M133.81,138.63c-2.03,0-3.69,1.65-3.69,3.69s1.65,3.69,3.69,3.69,3.69-1.65,3.69-3.69-1.65-3.69-3.69-3.69Z"/>
  <path class="cls-1" d="M159.53,103.68c-2.03,0-3.69,1.65-3.69,3.69s1.65,3.69,3.69,3.69,3.69-1.65,3.69-3.69-1.65-3.69-3.69-3.69Z"/>
  <path class="cls-1" d="M159.53,162.23c-2.03,0-3.69,1.65-3.69,3.69s1.65,3.69,3.69,3.69,3.69-1.65,3.69-3.69-1.65-3.69-3.69-3.69Z"/>
  <path class="cls-1" d="M80.19,52.85c-.68-.38-10.75-6.03-16.8-9.39,4.58-4.47,7.43-10.7,7.43-17.59,0-13.56-11.03-24.59-24.59-24.59s-24.59,11.03-24.59,24.59c0,6.89,2.85,13.12,7.43,17.59-6.04,3.35-16.11,9.01-16.8,9.39C4.18,57.33-1.19,60.29.04,76.21c1.21,15.8,3.39,37.73,3.42,37.95.06.59.39,1.13.89,1.45l15.36,9.83v44.93c0,4.6,3.74,8.34,8.34,8.34h36.38c4.6,0,8.34-3.74,8.34-8.34v-44.93l15.36-9.83c.5-.32.83-.86.89-1.45.02-.22,2.2-22.15,3.42-37.95,1.22-15.91-4.14-18.87-12.25-23.35ZM25.56,25.88c0-11.4,9.28-20.68,20.68-20.68s20.68,9.28,20.68,20.68-9.28,20.68-20.68,20.68-20.68-9.28-20.68-20.68ZM88.55,75.91c-1.07,13.89-2.89,32.55-3.32,36.92l-15.47,9.9c-.56.36-.9.98-.9,1.64v46c0,2.45-1.99,4.44-4.44,4.44h-16.24v-37.17c0-1.08-.87-1.95-1.95-1.95s-1.95.87-1.95,1.95v37.17h-16.24c-2.45,0-4.44-1.99-4.44-4.44v-46c0-.67-.34-1.29-.9-1.64l-15.47-9.9c-.43-4.37-2.25-23.03-3.32-36.92-1.03-13.41,2.5-15.36,10.25-19.64.69-.38,11.51-6.46,18.15-10.14,3.96,2.73,8.75,4.33,13.91,4.33s9.95-1.6,13.91-4.33c6.65,3.69,17.45,9.75,18.15,10.14,7.74,4.28,11.28,6.23,10.25,19.64Z"/>
</svg>