<?xml version="1.0" encoding="UTF-8"?>
<svg id="Wellness_Support" data-name="Wellness &amp;amp; Support" xmlns="http://www.w3.org/2000/svg" viewBox="0 0 180 180">
  <defs>
    <style>
      .cls-1 {
        stroke: #000;
        stroke-miterlimit: 10;
        stroke-width: 2px;
      }
    </style>
  </defs>
  <path class="cls-1" d="M89.14,80.57c.3.18.63.26.96.26s.66-.09.96-.26c1.82-1.09,44.65-27.03,43.89-56.57-.34-13.32-10.79-23.76-23.8-23.76-7.46,0-15.51,3.46-21.05,8.93C84.56,3.69,76.51.24,69.05.24c-13.01,0-23.46,10.44-23.8,23.76-.75,29.55,42.07,55.48,43.89,56.57ZM48.99,24.09c.29-11.28,9.1-20.11,20.06-20.11,7.09,0,14.8,3.59,19.64,9.15.71.82,2.11.82,2.82,0,4.84-5.56,12.55-9.15,19.64-9.15,10.96,0,19.77,8.83,20.06,20.11.65,25.41-34.62,48.62-41.11,52.67-6.49-4.05-41.76-27.26-41.11-52.67Z"/>
  <path class="cls-1" d="M118.8,140.97c10.86,0,26.23-2.96,39.74-16.47,23.92-23.92,14.77-53.65,14.68-53.94-.18-.58-.64-1.03-1.21-1.21-.3-.1-30.02-9.25-53.94,14.68-21.4,21.4-16.34,47.43-14.96,52.9-2.29,2.74-9.62,12.3-13.1,26.11-3.49-13.81-10.82-23.37-13.1-26.11,1.38-5.47,6.44-31.5-14.96-52.9-23.92-23.92-53.64-14.77-53.94-14.68-.58.18-1.03.64-1.21,1.21-.1.3-9.25,30.02,14.68,53.94,13.51,13.52,28.88,16.47,39.74,16.47,6.15,0,10.84-.95,12.96-1.47,2.85,3.51,13.27,17.6,13.93,36.52h-55.62c-1.03,0-1.87.84-1.87,1.87s.84,1.87,1.87,1.87h115.25c1.03,0,1.87-.84,1.87-1.87s-.84-1.87-1.87-1.87h-55.82c.66-18.92,11.08-33.01,13.93-36.52,2.12.52,6.81,1.47,12.96,1.47ZM120.71,86.66c19.93-19.93,44.13-15.28,49.2-14.02,1.26,5.07,5.91,29.27-14.02,49.2-17.86,17.86-39.15,15.98-47.02,14.49l39.67-39.67c.73-.73.73-1.92,0-2.65-.73-.73-1.92-.73-2.65,0l-39.67,39.67c-1.49-7.87-3.37-29.16,14.49-47.02ZM24.11,121.85c-19.93-19.93-15.28-44.13-14.02-49.2,5.07-1.26,29.27-5.91,49.2,14.02,17.86,17.86,15.98,39.15,14.49,47.02l-39.67-39.67c-.73-.73-1.92-.73-2.65,0-.73.73-.73,1.92,0,2.65l39.67,39.67c-7.87,1.49-29.16,3.37-47.02-14.49Z"/>
</svg>