<?xml version="1.0" encoding="UTF-8"?>
<svg id="Wellness_Support" data-name="Wellness &amp;amp; Support" xmlns="http://www.w3.org/2000/svg" viewBox="0 0 180 180">
  <defs>
    <style>
      .cls-1 {
        stroke: #000;
        stroke-miterlimit: 10;
        stroke-width: 2px;
      }
    </style>
  </defs>
  <path class="cls-1" d="M123.81,123.95h0c-2.49-1.16-8.37-3.87-14.09-6.51,4.65-4.89,7.52-11.49,7.52-18.76,0-15.02-12.22-27.24-27.24-27.24s-27.24,12.22-27.24,27.24c0,7.26,2.86,13.87,7.51,18.76-5.98,2.75-11.66,5.37-14.09,6.51-9.09,4.24-13.52,11.19-13.52,21.27v22.61c0,.88.71,1.59,1.59,1.59h91.48c.88,0,1.59-.71,1.59-1.59v-22.61c0-10.07-4.42-17.03-13.52-21.27ZM90,74.63c13.26,0,24.06,10.79,24.06,24.06s-10.79,24.06-24.06,24.06-24.06-10.79-24.06-24.06,10.79-24.06,24.06-24.06ZM134.15,166.23h-17.6v-11.42c0-.88-.71-1.59-1.59-1.59s-1.59.71-1.59,1.59v11.42h-46.73v-11.42c0-.88-.71-1.59-1.59-1.59s-1.59.71-1.59,1.59v11.42h-17.6v-21.02c0-11.6,6.66-16.04,11.68-18.38,2.59-1.21,8.86-4.1,15.27-7.05,4.69,3.83,10.68,6.14,17.2,6.14s12.51-2.3,17.2-6.14c6.4,2.95,12.68,5.84,15.26,7.05,0,0,0,0,0,0,5.01,2.34,11.68,6.78,11.68,18.38v21.02Z"/>
  <path class="cls-1" d="M179.22,78.6c-5.9-3.52-10.1-9.53-14.96-16.48-5.27-7.54-11.23-16.08-20.82-23.38-14.7-11.19-42.54-27.42-46.35-28.05-1.97-.32-3.95.14-5.57,1.3-.58.42-1.09.91-1.53,1.46-.43-.55-.94-1.04-1.53-1.46-1.62-1.16-3.6-1.63-5.57-1.3-3.8.63-31.65,16.86-46.35,28.05-9.59,7.3-15.56,15.84-20.82,23.38-4.86,6.96-9.06,12.97-14.96,16.48-.76.45-1,1.43-.55,2.18.45.76,1.43,1,2.18.55,6.49-3.87,10.87-10.14,15.94-17.4,5.13-7.35,10.95-15.67,20.14-22.67,15.62-11.89,42.11-26.94,44.94-27.44,1.13-.19,2.27.08,3.2.75.93.67,1.55,1.66,1.73,2.79.27,1.65-.45,3.32-1.83,4.25l-.18.12c-3.69,2.41-16.05,10.87-25.31,21.58-1.19.25-2.34.77-3.3,1.58-.15.13-10.74,8.3-16.71,13.09-.68.55-.79,1.55-.24,2.24.55.68,1.55.79,2.24.24,5.94-4.78,16.57-12.97,16.76-13.14,1.28-1.08,3.08-1.31,4.59-.6,2.14,1.01,3.07,3.57,2.06,5.71-.42.89-3.09,3.37-5.93,5.99-5.07,4.69-12.72,11.78-20.03,20.87-6.5,8.07-11.87,9.99-17.55,12.02-4.46,1.59-9.08,3.24-14.05,7.94-.64.6-.67,1.61-.06,2.25.31.33.73.5,1.16.5.39,0,.79-.14,1.09-.43,4.48-4.24,8.59-5.7,12.93-7.25,5.85-2.09,11.9-4.25,18.96-13.02,7.17-8.9,14.72-15.9,19.72-20.52,4.03-3.73,6-5.59,6.65-6.97,1.75-3.73.14-8.19-3.59-9.94-.22-.1-.45-.18-.67-.26,8.76-9.53,19.64-16.97,23.03-19.19l.22-.15c.66-.44,1.23-.99,1.7-1.59.47.61,1.04,1.15,1.7,1.59l.22.15c3.39,2.21,14.27,9.65,23.03,19.19-.22.08-.45.15-.67.26-3.73,1.75-5.34,6.21-3.59,9.94.65,1.39,2.62,3.24,6.65,6.97,5,4.63,12.55,11.62,19.72,20.52,7.06,8.77,13.11,10.93,18.96,13.02,4.34,1.55,8.45,3.02,12.93,7.25.31.29.7.43,1.09.43.42,0,.84-.17,1.16-.5.6-.64.57-1.65-.06-2.25-4.97-4.69-9.58-6.34-14.05-7.94-5.69-2.03-11.06-3.95-17.55-12.02-7.31-9.09-14.97-16.17-20.03-20.87-2.83-2.62-5.51-5.1-5.93-5.99-1.01-2.14-.08-4.7,2.06-5.71,1.51-.71,3.31-.47,4.59.6.2.17,10.83,8.37,16.76,13.14.69.55,1.69.44,2.24-.24.55-.68.44-1.69-.24-2.24-5.96-4.79-16.55-12.96-16.71-13.09-.97-.81-2.11-1.33-3.3-1.58-9.27-10.71-21.63-19.16-25.31-21.58l-.18-.12c-1.38-.94-2.1-2.61-1.83-4.25.19-1.13.8-2.12,1.73-2.79.93-.67,2.07-.93,3.2-.75,2.83.5,29.32,15.55,44.94,27.44,9.19,7,15.01,15.33,20.14,22.67,5.07,7.26,9.45,13.53,15.94,17.4.75.45,1.73.2,2.18-.55.45-.75.2-1.73-.55-2.18Z"/>
</svg>