<?xml version="1.0" encoding="UTF-8"?>
<svg id="Wellness_Support" data-name="Wellness &amp;amp; Support" xmlns="http://www.w3.org/2000/svg" viewBox="0 0 180 180">
  <defs>
    <style>
      .cls-1 {
        stroke: #000;
        stroke-miterlimit: 10;
        stroke-width: 2px;
      }
    </style>
  </defs>
  <path class="cls-1" d="M117.29,138.44c-1.78-.85-5.72-2.73-10.04-4.78,3.63-4.08,5.84-9.45,5.84-15.32,0-12.73-10.36-23.09-23.09-23.09s-23.09,10.36-23.09,23.09c0,5.87,2.21,11.24,5.84,15.32-4.32,2.05-8.27,3.92-10.04,4.78-7.53,3.62-11.19,9.54-11.19,18.11v13.83c0,1.12.91,2.03,2.03,2.03h72.92c1.12,0,2.03-.91,2.03-2.03v-13.83c0-8.57-3.66-14.49-11.19-18.11ZM90,99.31c10.49,0,19.03,8.54,19.03,19.03s-8.54,19.03-19.03,19.03-19.03-8.54-19.03-19.03,8.54-19.03,19.03-19.03ZM124.43,168.35H55.57v-11.8c0-9.02,4.75-12.46,8.89-14.45,1.97-.95,6.62-3.15,11.48-5.46,3.9,3,8.77,4.79,14.06,4.79s10.16-1.79,14.06-4.79c4.86,2.3,9.51,4.51,11.48,5.46,4.14,1.99,8.89,5.43,8.89,14.45v11.8Z"/>
  <path class="cls-1" d="M164.73,58.54c2.46-3.69,3.9-8.12,3.9-12.88,0-12.83-10.44-23.27-23.27-23.27s-23.27,10.44-23.27,23.27c0,2.15.3,4.22.84,6.19-22.25-8.92-28.48-41.01-28.54-41.36-.07-.36-.23-.7-.48-.98-.25-.28-2.49-2.68-5.2-1.68-1.6.6-2.71,2.13-3.4,4.76,0,0,0,0,0,.01-1.8,7.29-9.28,31.63-28.25,39.23.54-1.97.84-4.04.84-6.18,0-12.83-10.44-23.27-23.27-23.27s-23.27,10.44-23.27,23.27c0,4.76,1.44,9.19,3.9,12.88-5.95,4.84-15.27,15.04-15.27,31.53v80.3c0,1.12.91,2.03,2.03,2.03s2.03-.91,2.03-2.03v-80.3c0-14.85,8.43-24.05,13.75-28.37,4.24,4.45,10.22,7.23,16.83,7.23,8.78,0,16.45-4.89,20.41-12.1,15.75-4.42,24.74-18.44,29.58-29.79.37,6.12,1.44,11.72,3.21,16.9-2.44,6.53-6.13,12.32-11.17,17.59-11.11,11.62-12.84,21.51-13.1,28.84-.04,1.12.84,2.06,1.96,2.1.02,0,.05,0,.07,0,1.09,0,1.99-.86,2.03-1.96.24-6.6,1.81-15.55,11.98-26.18,4.41-4.61,7.85-9.59,10.4-15.04,2.55,5.45,5.99,10.43,10.4,15.04,10.16,10.63,11.74,19.57,11.98,26.18.04,1.1.94,1.96,2.03,1.96.02,0,.05,0,.07,0,1.12-.04,2-.98,1.96-2.1-.26-7.32-1.99-17.22-13.1-28.84-10.36-10.84-15.06-23.87-14.79-41,.11-7.08,1.31-8.62,1.56-8.87.11.04.27.13.43.24,1.11,5.31,8.87,37.75,34.42,44.92,3.96,7.2,11.62,12.1,20.4,12.1,6.6,0,12.56-2.77,16.8-7.2,5.3,4.36,13.77,13.63,13.77,28.34v80.3c0,1.12.91,2.03,2.03,2.03s2.03-.91,2.03-2.03v-80.3c0-16.49-9.33-26.69-15.27-31.53ZM34.64,64.87c-10.59,0-19.21-8.62-19.21-19.21s8.62-19.21,19.21-19.21,19.21,8.62,19.21,19.21-8.62,19.21-19.21,19.21ZM145.36,64.87c-10.59,0-19.21-8.62-19.21-19.21s8.62-19.21,19.21-19.21,19.21,8.62,19.21,19.21-8.62,19.21-19.21,19.21Z"/>
</svg>