<?xml version="1.0" encoding="UTF-8"?>
<svg id="Wellness_Support" data-name="Wellness &amp;amp; Support" xmlns="http://www.w3.org/2000/svg" viewBox="0 0 180 180">
  <defs>
    <style>
      .cls-1 {
        stroke: #000;
        stroke-miterlimit: 10;
        stroke-width: 2px;
      }
    </style>
  </defs>
  <path class="cls-1" d="M43.77,47.9c.38.38.87.57,1.37.57s.99-.19,1.37-.57c.76-.76.76-1.98,0-2.74l-21.26-21.26c-.76-.76-1.98-.76-2.74,0-.76.76-.76,1.98,0,2.74l21.26,21.26Z"/>
  <path class="cls-1" d="M13.63,57.89l20.62,7.87c.23.09.46.13.69.13.78,0,1.52-.47,1.81-1.25.38-1-.12-2.12-1.12-2.5l-20.62-7.87c-1-.38-2.12.12-2.5,1.12-.38,1,.12,2.12,1.12,2.5Z"/>
  <path class="cls-1" d="M60.75,37.02c.29.77,1.03,1.25,1.81,1.25.23,0,.46-.04.69-.13,1-.38,1.5-1.5,1.12-2.5l-7.87-20.61c-.38-1-1.51-1.5-2.5-1.12-1,.38-1.5,1.5-1.12,2.5l7.87,20.61Z"/>
  <path class="cls-1" d="M146.69,145.88c-.76-.76-1.98-.76-2.74,0-.76.76-.76,1.98,0,2.74l21.26,21.26c.38.38.87.57,1.37.57s.99-.19,1.37-.57c.76-.76.76-1.98,0-2.74l-21.26-21.26Z"/>
  <path class="cls-1" d="M176.83,135.88l-20.62-7.87c-1-.38-2.12.12-2.5,1.12-.38,1,.12,2.12,1.12,2.5l20.62,7.87c.23.09.46.13.69.13.78,0,1.52-.47,1.81-1.25.38-1-.12-2.12-1.12-2.5Z"/>
  <path class="cls-1" d="M129.7,156.76c-.38-1-1.51-1.5-2.5-1.12-1,.38-1.5,1.5-1.12,2.5l7.87,20.61c.29.77,1.03,1.25,1.81,1.25.23,0,.46-.04.69-.13,1-.38,1.5-1.5,1.12-2.5l-7.87-20.61Z"/>
  <path class="cls-1" d="M51.52,100.98c-.29,3.13-.64,5.91-1.05,7.68-.51,2.18.44,3.41,1.05,3.96.76.68,1.78,1.02,2.99,1.02.93,0,1.97-.2,3.09-.61,4.84-1.75,13.62-8.71,15.85-23.65.69-4.64,8.15-6.04,16.79-7.65,10.9-2.04,24.46-4.57,30.34-15.46.51-.94.16-2.12-.78-2.63-.94-.51-2.12-.16-2.63.78-5,9.26-17.03,11.51-27.64,13.49-10.09,1.89-18.81,3.52-19.91,10.89-1.66,11.1-7.39,17.65-12.19,20.08-1.63.82-2.77.94-3.21.85,0-.05.02-.12.03-.2,1.51-6.46,2.16-24.44,2.28-28.07l18.52-24.9c20.95-6.22,39.36-19.34,40.14-19.91.18-.13.33-.28.46-.46L138.92,3.05c.61-.88.4-2.08-.47-2.7-.88-.62-2.08-.4-2.7.47l-23.09,32.87c-2.35,1.64-20.1,13.76-39.33,19.33-.41.12-.76.37-1.02.7l-19.27,25.91c-.24.32-.37.7-.38,1.1,0,.13-.23,7.72-.75,15.22-1.74,1.2-6.15,4.31-14.51,10.26C15.84,121.57,3.48,125.05,3.36,125.08c-1.03.28-1.65,1.34-1.37,2.37.23.87,1.02,1.44,1.87,1.44.17,0,.34-.02.5-.07.52-.14,13.05-3.63,35.29-19.44,6.03-4.29,9.67-6.86,11.86-8.41Z"/>
  <path class="cls-1" d="M152.15,67.27c-.67-.53-1.41-.95-2.21-1.29.8-2.8,1.46-5.03,1.94-6.44,3.48-10.33,24.24-24.62,24.45-24.76.88-.6,1.11-1.81.51-2.69-.6-.88-1.81-1.11-2.69-.51-.9.61-22.04,15.16-25.93,26.72-.5,1.49-1.18,3.8-2.01,6.69-7.01-.93-15.5,2.01-16.72,2.46-1.01.37-1.53,1.48-1.16,2.48.37,1.01,1.48,1.53,2.48,1.16,3.8-1.38,14.6-4.2,18.96-.77,1.57,1.23,2.17,3.27,1.85,6.22-2.63,23.85-8.65,45.92-34.63,45.98-1.07,0-1.94.87-1.93,1.94,0,1.07.87,1.93,1.94,1.93h0c3.66,0,6.94-.45,9.92-1.2-1.76,3.81-3.41,6.48-4.83,7.37-3.9,2.46-15.73,7.06-28.02,10.19-15.76,4.01-23.3,3.36-24.97,1.59-1.86-1.97-1.88-5.96-.06-9.93,3.78-8.24,15.25-16.7,36.14-15.75,1.05.05,1.97-.78,2.02-1.85.05-1.07-.78-1.98-1.85-2.02-22.81-1.05-35.54,8.62-39.84,18.01-1.1,2.4-1.66,4.82-1.69,7.05-15.37,6.36-38.93,32.33-39.96,33.46-.72.79-.65,2.02.14,2.74.37.33.84.5,1.3.5.53,0,1.06-.22,1.44-.64.24-.27,23.09-25.45,37.67-32.09.41,1.22,1.03,2.3,1.87,3.19,1.7,1.8,4.99,2.54,9.19,2.54,15.27,0,42.5-9.79,48.7-13.7,2.38-1.5,4.96-5.94,7.66-12.31,19.42-8.41,22.19-33.36,23.65-46.57.48-4.33-.63-7.59-3.3-9.69Z"/>
</svg>