<?xml version="1.0" encoding="UTF-8"?>
<svg id="Wellness_Support" data-name="Wellness &amp;amp; Support" xmlns="http://www.w3.org/2000/svg" viewBox="0 0 180 180">
  <defs>
    <style>
      .cls-1 {
        stroke: #000;
        stroke-miterlimit: 10;
        stroke-width: 2px;
      }
    </style>
  </defs>
  <path class="cls-1" d="M108.68,57.07c-6.61,0-13.73,3.03-18.68,7.84-4.95-4.81-12.07-7.84-18.68-7.84-11.67,0-21.04,9.36-21.35,21.3-.66,25.9,34.99,47.96,39.06,50.39.3.18.63.27.97.27s.67-.09.97-.27c4.07-2.43,39.72-24.49,39.06-50.39-.3-11.94-9.68-21.3-21.35-21.3ZM90,124.93c-6.04-3.78-36.82-24.19-36.25-46.46.25-9.88,7.97-17.62,17.57-17.62,6.23,0,13,3.16,17.25,8.04.72.83,2.13.82,2.85,0,4.25-4.88,11.02-8.04,17.25-8.04,9.6,0,17.32,7.74,17.57,17.62.57,22.27-30.21,42.68-36.25,46.46Z"/>
  <path class="cls-1" d="M179.97,87.54c-.44-10.23-6.08-18.86-16.76-25.64-.19-.12-.39-.19-.59-.24-4.06-16.72-12.8-41.97-29.77-50.81-9.08-4.73-19.37-4.16-30.58,1.69-.2.1-.36.24-.5.39-16.5-4.84-42.75-9.9-58.89.38-8.64,5.5-13.29,14.7-13.82,27.33,0,.22.03.43.09.63C16.7,53.15-.8,73.35.03,92.46c.44,10.23,6.08,18.86,16.76,25.64.19.12.39.19.59.24,4.06,16.72,12.8,41.97,29.77,50.81,4.06,2.11,8.35,3.17,12.86,3.17,5.59,0,11.51-1.62,17.72-4.86.2-.1.36-.24.5-.39,9.44,2.77,22.07,5.61,34.17,5.61,9.05,0,17.81-1.59,24.72-5.99,8.64-5.5,13.29-14.7,13.82-27.33,0-.22-.03-.43-.09-.63,12.45-11.87,29.95-32.07,29.12-51.18ZM135.09,163.5c-22.74,14.48-69.96-4.91-70.44-5.11-.96-.4-2.07.05-2.47,1.02-.4.96.05,2.07,1.02,2.47.53.22,4.27,1.76,9.91,3.6-8.92,3.93-17.06,4.06-24.22.33-23.91-12.45-30.73-63.05-30.79-63.56-.14-1.03-1.09-1.76-2.12-1.63-1.03.13-1.76,1.08-1.63,2.12.07.57.61,4.57,1.84,10.39-7.87-5.76-12.04-12.75-12.39-20.81-1.17-26.93,39.24-58.13,39.65-58.45.83-.63.99-1.82.35-2.65-.63-.83-1.82-.99-2.65-.35-.46.35-3.65,2.81-8.08,6.78,1.05-9.69,5.02-16.8,11.83-21.14,22.74-14.48,69.96,4.91,70.44,5.11.96.4,2.07-.05,2.47-1.02.4-.96-.05-2.07-1.02-2.47-.53-.22-4.26-1.76-9.91-3.6,8.92-3.93,17.06-4.06,24.22-.33,23.91,12.45,30.73,63.05,30.79,63.56.12.95.93,1.65,1.87,1.65.08,0,.16,0,.25-.02,1.03-.13,1.76-1.08,1.63-2.12-.07-.57-.61-4.57-1.84-10.39,7.87,5.76,12.04,12.75,12.39,20.81,1.17,26.93-39.24,58.13-39.65,58.45-.83.63-.99,1.82-.35,2.65.37.49.93.74,1.5.74.4,0,.8-.13,1.14-.39.46-.35,3.65-2.81,8.08-6.78-1.05,9.69-5.02,16.8-11.83,21.14Z"/>
</svg>