<?xml version="1.0" encoding="UTF-8"?>
<svg id="Wellness_Support" data-name="Wellness &amp;amp; Support" xmlns="http://www.w3.org/2000/svg" viewBox="0 0 180 180">
  <defs>
    <style>
      .cls-1 {
        stroke: #000;
        stroke-miterlimit: 10;
        stroke-width: 2px;
      }
    </style>
  </defs>
  <path class="cls-1" d="M142.41,129.87c-4.41,0-9.14,1.91-12.59,4.99-3.45-3.08-8.18-4.99-12.59-4.99-8.31,0-14.98,6.65-15.2,15.15-.46,17.93,23.94,33.02,26.72,34.69.33.2.7.29,1.07.29s.74-.1,1.07-.29c2.78-1.66,27.18-16.77,26.72-34.69-.22-8.49-6.89-15.15-15.2-15.15ZM129.82,175.47c-4.84-3.09-23.99-16.21-23.63-30.34.16-6.22,5.01-11.09,11.04-11.09,3.91,0,8.34,2.07,11.02,5.14.79.91,2.35.91,3.14,0,2.68-3.08,7.11-5.14,11.02-5.14,6.03,0,10.88,4.87,11.04,11.09.36,14.12-18.78,27.25-23.63,30.34Z"/>
  <path class="cls-1" d="M134.22,109.82c15.68-5.29,19.66-12.34,18.15-17.18-1.74-5.59-9.93-7.5-19.86-4.66-18.49,4.58-25.65-3.67-34.71-14.13-6.98-8.05-14.84-17.07-29.22-20.67,5.68-5.64,9.2-13.45,9.2-22.06C77.78,13.96,63.82,0,46.66,0S15.54,13.96,15.54,31.12c0,9.1,3.93,17.3,10.17,22.99C18.74,58.77,0,73.76,0,100.35v77.57c0,1.15.93,2.08,2.08,2.08s2.08-.93,2.08-2.08v-77.57c0-25.98,20.09-40.37,25.01-43.5,4.99,3.4,11.01,5.39,17.49,5.39s12.81-2.1,17.87-5.67c15.07,2.7,22.73,11.49,30.12,20.01,9.2,10.61,17.9,20.64,38.93,15.42,8.91-2.55,14.11-.39,14.81,1.87.77,2.47-2.74,7.7-15.56,12.02-.04.01-.08.03-.12.05-.31.12-30.92,12.24-55.59-10.93-.61-.57-1.49-.72-2.25-.39-.76.33-1.26,1.08-1.26,1.91v81.4c0,1.15.93,2.08,2.08,2.08s2.08-.93,2.08-2.08v-76.83c25.32,20.35,54.7,9.41,56.44,8.73ZM19.71,31.12c0-14.86,12.09-26.95,26.95-26.95s26.95,12.09,26.95,26.95-12.09,26.95-26.95,26.95-26.95-12.09-26.95-26.95Z"/>
  <path class="cls-1" d="M153.2,66.56c2.97-4.45,4.71-9.8,4.71-15.54,0-15.49-12.6-28.09-28.09-28.09s-28.09,12.6-28.09,28.09,12.6,28.09,28.09,28.09c8.24,0,15.65-3.56,20.8-9.23,5.47,3.26,25.22,16.7,25.22,40.94v67.1c0,1.15.93,2.08,2.08,2.08s2.08-.93,2.08-2.08v-67.1c0-25.99-20.1-40.23-26.8-44.26ZM129.82,74.95c-13.19,0-23.93-10.73-23.93-23.93s10.73-23.93,23.93-23.93,23.93,10.73,23.93,23.93-10.73,23.93-23.93,23.93Z"/>
</svg>