<?xml version="1.0" encoding="UTF-8"?>
<svg id="Wellness_Support" data-name="Wellness &amp;amp; Support" xmlns="http://www.w3.org/2000/svg" viewBox="0 0 180 180">
  <defs>
    <style>
      .cls-1 {
        stroke: #000;
        stroke-miterlimit: 10;
        stroke-width: 2px;
      }
    </style>
  </defs>
  <path class="cls-1" d="M103.55,27.38c-.39-15.35-12.44-27.38-27.43-27.38-8.63,0-17.95,4.01-24.33,10.36C45.39,4.01,36.08,0,27.45,0,12.45,0,.4,12.03.01,27.38c-.87,34.11,48.6,64.07,50.7,65.32.33.2.7.29,1.07.29s.74-.1,1.07-.29c2.11-1.26,51.57-31.22,50.7-65.32ZM51.78,88.48c-7.39-4.61-48.36-31.51-47.61-60.99.33-13.08,10.56-23.33,23.27-23.33,8.22,0,17.15,4.16,22.76,10.61.79.91,2.35.91,3.14,0,5.61-6.44,14.54-10.61,22.76-10.61,12.72,0,22.94,10.25,23.27,23.33.75,29.47-40.22,56.38-47.61,60.99Z"/>
  <path class="cls-1" d="M131.65,82.96c-26.66,0-48.35,21.69-48.35,48.36s21.69,48.35,48.35,48.35,48.35-21.69,48.35-48.35-21.69-48.36-48.35-48.36ZM131.65,175.51c-24.37,0-44.19-19.82-44.19-44.19s19.82-44.19,44.19-44.19,44.19,19.82,44.19,44.19-19.82,44.19-44.19,44.19Z"/>
  <path class="cls-1" d="M147.65,143.36c-8.83,8.82-23.19,8.82-32.01,0-.81-.81-2.13-.81-2.94,0s-.81,2.13,0,2.94c5.22,5.22,12.09,7.84,18.95,7.84s13.73-2.61,18.95-7.84c.81-.81.81-2.13,0-2.94s-2.13-.81-2.94,0Z"/>
  <path class="cls-1" d="M116.43,123.22c2.54,0,4.61-2.07,4.61-4.61s-2.07-4.61-4.61-4.61-4.61,2.07-4.61,4.61,2.07,4.61,4.61,4.61Z"/>
  <path class="cls-1" d="M146.86,114c-2.54,0-4.61,2.07-4.61,4.61s2.07,4.61,4.61,4.61,4.61-2.07,4.61-4.61-2.07-4.61-4.61-4.61Z"/>
  <path class="cls-1" d="M127.78,44.1c0,1.15.93,2.08,2.08,2.08h5.78v5.78c0,1.15.93,2.08,2.08,2.08s2.08-.93,2.08-2.08v-5.78h5.78c1.15,0,2.08-.93,2.08-2.08s-.93-2.08-2.08-2.08h-5.78v-5.78c0-1.15-.93-2.08-2.08-2.08s-2.08.93-2.08,2.08v5.78h-5.78c-1.15,0-2.08.93-2.08,2.08Z"/>
  <path class="cls-1" d="M17.82,108.66h-5.78v-5.78c0-1.15-.93-2.08-2.08-2.08s-2.08.93-2.08,2.08v5.78H2.08C.93,108.66,0,109.59,0,110.74s.93,2.08,2.08,2.08h5.78v5.78c0,1.15.93,2.08,2.08,2.08s2.08-.93,2.08-2.08v-5.78h5.78c1.15,0,2.08-.93,2.08-2.08s-.93-2.08-2.08-2.08Z"/>
  <path class="cls-1" d="M57.3,167.97h-5.78v-5.78c0-1.15-.93-2.08-2.08-2.08s-2.08.93-2.08,2.08v5.78h-5.78c-1.15,0-2.08.93-2.08,2.08s.93,2.08,2.08,2.08h5.78v5.78c0,1.15.93,2.08,2.08,2.08s2.08-.93,2.08-2.08v-5.78h5.78c1.15,0,2.08-.93,2.08-2.08s-.93-2.08-2.08-2.08Z"/>
  <path class="cls-1" d="M57.56,126.47c0-2.17-1.76-3.93-3.93-3.93s-3.93,1.76-3.93,3.93,1.76,3.93,3.93,3.93,3.93-1.76,3.93-3.93Z"/>
  <path class="cls-1" d="M9.95,153.82c-2.17,0-3.93,1.76-3.93,3.93s1.76,3.93,3.93,3.93,3.93-1.76,3.93-3.93-1.76-3.93-3.93-3.93Z"/>
  <path class="cls-1" d="M125.85,7.87c2.17,0,3.93-1.76,3.93-3.93s-1.76-3.93-3.93-3.93-3.93,1.76-3.93,3.93,1.76,3.93,3.93,3.93Z"/>
  <path class="cls-1" d="M163.48,72.32c2.17,0,3.93-1.76,3.93-3.93s-1.76-3.93-3.93-3.93-3.93,1.76-3.93,3.93,1.76,3.93,3.93,3.93Z"/>
</svg>