<?xml version="1.0" encoding="UTF-8"?>
<svg id="Wellness_Support" data-name="Wellness &amp;amp; Support" xmlns="http://www.w3.org/2000/svg" viewBox="0 0 180 180">
  <defs>
    <style>
      .cls-1 {
        stroke: #000;
        stroke-miterlimit: 10;
        stroke-width: 2px;
      }
    </style>
  </defs>
  <path class="cls-1" d="M100.06,66.08c-5.33-3.1-10.28-4.56-13.63-5.25,6.09-5.83,9.89-14.02,9.89-23.09,0-17.64-14.35-31.99-31.98-31.99s-31.98,14.35-31.98,31.99c0,9.26,3.96,17.6,10.26,23.45-3.83,1.18-10.16,3.7-16.85,8.81-9.65,7.36-21.86,21.72-25.25,48.3-.13,1.02.59,1.96,1.62,2.09.08.01.16.02.24.01.93,0,1.73-.69,1.85-1.63,2.54-19.95,10.72-35.75,23.65-45.69,8.23-6.32,16.01-8.47,18.35-9,5.15,3.55,11.39,5.64,18.11,5.64s13.05-2.12,18.23-5.72c4.4.39,30.56,4.18,38.52,39.6,3.62,16.11-2.73,50.2-14.19,62.99-2.97,3.31-5.98,4.82-8.94,4.5-1.83-.2-3.02-.75-3.64-1.67-1.72-2.54-.05-8.69,1.89-15.81,3.35-12.31,7.94-29.17,1.33-46.65-.36-.97-1.44-1.45-2.41-1.09-.96.36-1.45,1.44-1.09,2.41,6.18,16.35,1.77,32.53-1.44,44.35-2.36,8.67-4.06,14.93-1.37,18.89,1.25,1.85,3.38,2.95,6.31,3.28.42.05.84.07,1.25.07,3.79,0,7.44-1.94,10.89-5.78,12.34-13.77,18.94-49.02,15.05-66.3-4.77-21.24-16.05-31.68-24.67-36.69ZM36.09,37.74c0-15.58,12.67-28.25,28.25-28.25s28.25,12.67,28.25,28.25-12.67,28.25-28.25,28.25-28.25-12.67-28.25-28.25Z"/>
  <path class="cls-1" d="M68.51,136.2c-1.82-.87-5.9-2.81-10.34-4.92,3.72-4.1,5.99-9.55,5.99-15.51,0-12.74-10.36-23.1-23.1-23.1s-23.1,10.36-23.1,23.1c0,5.96,2.27,11.41,5.99,15.51-4.44,2.1-8.52,4.04-10.34,4.92-7.53,3.61-11.18,9.53-11.18,18.09v18.72c0,1.03.84,1.87,1.87,1.87h73.52c1.03,0,1.87-.84,1.87-1.87v-18.72c0-8.56-3.66-14.48-11.18-18.09ZM41.07,96.4c10.68,0,19.37,8.69,19.37,19.37s-8.69,19.37-19.37,19.37-19.37-8.69-19.37-19.37,8.69-19.37,19.37-19.37ZM75.96,171.14H6.18v-16.85c0-9.3,5.17-12.86,9.07-14.73,2-.96,6.74-3.21,11.68-5.55,3.91,3.04,8.82,4.86,14.15,4.86s10.24-1.82,14.15-4.86c4.94,2.34,9.68,4.59,11.68,5.55,3.89,1.87,9.07,5.43,9.07,14.73v16.85Z"/>
  <path class="cls-1" d="M116.18,41.36c.48,0,.96-.18,1.32-.55l32.5-32.5c.73-.73.73-1.91,0-2.64-.73-.73-1.91-.73-2.64,0l-32.5,32.5c-.73.73-.73,1.91,0,2.64.36.36.84.55,1.32.55Z"/>
  <path class="cls-1" d="M145.04,35.85l-26.19,26.19c-.73.73-.73,1.91,0,2.64.36.36.84.55,1.32.55s.96-.18,1.32-.55l26.19-26.19c.73-.73.73-1.91,0-2.64-.73-.73-1.91-.73-2.64,0Z"/>
  <path class="cls-1" d="M178.95,34.61c-.73-.73-1.91-.73-2.64,0l-32.5,32.5c-.73.73-.73,1.91,0,2.64.36.36.84.55,1.32.55s.96-.18,1.32-.55l32.5-32.5c.73-.73.73-1.91,0-2.64Z"/>
  <path class="cls-1" d="M167.41,72.45l-27.27,27.28c-.73.73-.73,1.91,0,2.64.36.36.84.55,1.32.55s.96-.18,1.32-.55l27.27-27.28c.73-.73.73-1.91,0-2.64-.73-.73-1.91-.73-2.64,0Z"/>
</svg>