<?xml version="1.0" encoding="UTF-8"?>
<svg id="Wellness_Support" data-name="Wellness &amp;amp; Support" xmlns="http://www.w3.org/2000/svg" viewBox="0 0 180 180">
  <defs>
    <style>
      .cls-1 {
        stroke: #000;
        stroke-miterlimit: 10;
        stroke-width: 2px;
      }
    </style>
  </defs>
  <path class="cls-1" d="M77.8,141.46c-4.7-2.26-8.68-4.16-12.05-5.77,4.31-4.62,6.96-10.82,6.96-17.63,0-14.26-11.6-25.86-25.86-25.86s-25.86,11.6-25.86,25.86c0,6.82,2.66,13.03,6.99,17.65-5.16,2.45-9.96,4.73-12.07,5.74-8.41,4.04-12.49,10.65-12.49,20.22v15.79c0,1,.81,1.82,1.82,1.82h83.24c1,0,1.82-.81,1.82-1.82v-15.79c0-9.57-4.09-16.18-12.49-20.22ZM46.85,95.84c12.25,0,22.22,9.97,22.22,22.22s-9.97,22.22-22.22,22.22-22.22-9.97-22.22-22.22,9.97-22.22,22.22-22.22ZM86.66,175.65H7.05v-13.97c0-10.7,5.95-14.79,10.43-16.94,2.28-1.09,7.73-3.69,13.39-6.37,4.4,3.47,9.95,5.55,15.98,5.55s11.58-2.08,15.98-5.55c5.65,2.68,11.1,5.27,13.39,6.37h0c4.48,2.15,10.43,6.25,10.43,16.94v13.97Z"/>
  <path class="cls-1" d="M176.41,57.5C159.87,22.18,136.2,7.48,95,7.06V2.54c0-1-.81-1.82-1.82-1.82s-1.82.81-1.82,1.82v4.52c-40.95.42-64.58,14.94-81.11,49.8-.3.33-.47.76-.47,1.22v.19c0,.85.59,1.59,1.42,1.77.13.03.26.04.39.04.59,0,1.15-.29,1.49-.78,14.5-8.45,37.62-8.34,51.9.33.58.35,1.31.35,1.89,0,6.79-4.12,15.58-6.31,24.5-6.56v77.53c0,7.34,5.97,13.31,13.31,13.31s13.31-5.97,13.31-13.31c0-1-.81-1.82-1.82-1.82s-1.82.81-1.82,1.82c0,5.34-4.34,9.68-9.68,9.68s-9.68-4.34-9.68-9.68V53.09c8.85.27,17.57,2.46,24.31,6.55.58.35,1.31.35,1.88,0,14.4-8.74,37.78-8.78,52.26-.11l.03.03c.62.62,1.61.71,2.33.2.72-.51.98-1.46.6-2.26ZM67.79,54.99c.46-7.88,3.76-29.52,25.39-43.94,21.67,14.45,24.94,36.23,25.39,44.03-14.64-7.43-36.08-7.46-50.77-.09ZM38.76,49.48c-8.06,0-16.12,1.48-22.98,4.43C30.93,24.87,52.24,12.04,87.31,10.78c-19.62,15.28-22.71,36.37-23.15,44.26-7.34-3.71-16.37-5.57-25.4-5.57ZM122.19,54.97c-.46-7.95-3.58-28.95-23.14-44.18,35.11,1.26,56.43,14.12,71.59,43.22-14.5-6.34-34.49-6.01-48.44.96Z"/>
</svg>