<?xml version="1.0" encoding="UTF-8"?>
<svg id="Wellness_Support" data-name="Wellness &amp;amp; Support" xmlns="http://www.w3.org/2000/svg" viewBox="0 0 180 180">
  <defs>
    <style>
      .cls-1 {
        stroke: #000;
        stroke-miterlimit: 10;
        stroke-width: 2px;
      }
    </style>
  </defs>
  <path class="cls-1" d="M161.24,53.67c-7.07-5.75-16.99-8.62-22.44-9.84,4.75-4.56,7.71-10.97,7.71-18.06,0-13.81-11.24-25.05-25.05-25.05s-25.05,11.24-25.05,25.05c0,7.09,2.96,13.49,7.71,18.05-5.36,1.2-15.05,4-22.1,9.57-.81.64-.95,1.82-.31,2.63.64.81,1.82.95,2.63.31,8.24-6.5,20.86-8.98,23.64-9.46,3.89,2.5,8.52,3.95,13.48,3.95s9.58-1.46,13.48-3.95c2.81.49,15.72,3.03,23.94,9.7,7.3,5.94,16.25,18.58,17.37,45.1.14,3.26-2.4,6.02-5.66,6.16-.08,0-.17,0-.25,0h0c-3.17,0-5.76-2.49-5.9-5.66-.75-17.68-4.37-24.39-10.8-30.58-1.52-1.47-3.79-3.31-5.94-2.4-2.04.87-2.27,3.42-2.27,5.26v94.29c0,3.74-3.04,6.78-6.78,6.78s-6.78-3.04-6.78-6.79c0-.36-.24-36.04,0-45,.11-4.03-.84-7.1-2.8-9.12-2.64-2.72-6.38-2.72-7.61-2.72s-4.97,0-7.61,2.72c-1.97,2.02-2.91,5.09-2.8,9.12.24,8.96,0,44.64,0,45.02,0,3.74-3.04,6.78-6.78,6.78s-6.78-3.04-6.78-6.78v-38.7c0-1.03-.84-1.87-1.87-1.87s-1.87.84-1.87,1.87v38.7c0,5.8,4.72,10.52,10.52,10.52s10.52-4.72,10.52-10.51c0-.36.24-36.1,0-45.13-.08-2.98.51-5.14,1.74-6.41,1.38-1.42,3.48-1.58,4.93-1.58s3.55.16,4.93,1.58c1.23,1.27,1.82,3.42,1.74,6.41-.24,9.03,0,44.77,0,45.11,0,5.8,4.72,10.52,10.52,10.52s10.52-4.72,10.52-10.52v-94.29c0-.77.06-1.26.12-1.57.34.2.9.6,1.74,1.4,5.72,5.51,8.96,11.62,9.65,28.04.22,5.19,4.45,9.25,9.64,9.25.12-.01.28,0,.42,0,5.32-.23,9.47-4.74,9.24-10.06-1.18-27.92-10.85-41.43-18.75-47.85ZM100.16,25.77c0-11.75,9.56-21.31,21.3-21.31s21.3,9.56,21.3,21.31-9.56,21.31-21.3,21.31-21.3-9.56-21.3-21.31Z"/>
  <path class="cls-1" d="M97.32,120.31c4.77-.2,8.48-4.24,8.28-9.01-1.03-24.41-9.5-36.23-16.42-41.86-6.01-4.88-14.36-7.39-19.21-8.52,3.99-3.99,6.47-9.51,6.47-15.59,0-12.16-9.9-22.06-22.06-22.06s-22.06,9.9-22.06,22.06c0,6.08,2.47,11.6,6.47,15.59-4.85,1.13-13.2,3.63-19.21,8.52-6.92,5.62-15.39,17.45-16.42,41.86-.03.73.04,1.45.19,2.14C1.29,115.57,0,118.46,0,121.65v54.18C0,176.86.84,177.7,1.87,177.7s1.87-.84,1.87-1.87v-54.18c0-1.67.52-3.21,1.38-4.5,1.51,1.84,3.76,3.05,6.31,3.16,2.88.12,5.45-1.16,7.1-3.21.89,1.3,1.42,2.86,1.42,4.55,0,1.03.84,1.87,1.87,1.87s1.87-.84,1.87-1.87c0-3.24-1.31-6.17-3.42-8.31.08-.43.14-.86.16-1.3.6-14.22,3.39-19.5,8.33-24.25.5-.49.89-.79,1.17-.99.03.24.05.55.05.96v82.13c0,5.19,4.22,9.41,9.41,9.41s9.41-4.22,9.41-9.39c0-.31.21-31.45,0-39.31-.07-2.53.42-4.35,1.45-5.4.87-.89,2.18-1.31,4.12-1.31s3.25.41,4.12,1.31c1.03,1.06,1.51,2.87,1.45,5.4-.21,7.87,0,39,0,39.3,0,5.19,4.22,9.41,9.41,9.41s9.41-4.22,9.41-9.41v-82.13c0-.41.02-.72.05-.96.28.2.66.5,1.17.99,4.94,4.76,7.73,10.03,8.33,24.25.2,4.65,3.99,8.29,8.64,8.29.12,0,.25,0,.37,0ZM54.38,27.03c10.1,0,18.31,8.22,18.31,18.31s-8.22,18.31-18.31,18.31-18.31-8.22-18.31-18.31,8.22-18.31,18.31-18.31ZM92.05,111.88c-.66-15.48-3.84-21.36-9.48-26.79-1.38-1.33-3.44-2.99-5.43-2.14-2.13.9-2.13,3.74-2.13,4.8v82.13c0,3.12-2.54,5.66-5.66,5.66s-5.66-2.54-5.66-5.67c0-.31-.21-31.38,0-39.19.09-3.58-.75-6.31-2.51-8.12-2.37-2.44-5.71-2.44-6.8-2.44s-4.43,0-6.8,2.44c-1.76,1.81-2.6,4.54-2.51,8.12.21,7.8,0,38.87,0,39.2,0,3.12-2.54,5.66-5.66,5.66s-5.66-2.54-5.66-5.66v-82.13c0-1.07,0-3.9-2.13-4.8-2-.85-4.06.81-5.43,2.14-5.64,5.43-8.82,11.31-9.48,26.79-.11,2.71-2.41,4.82-5.11,4.69-2.7-.11-4.81-2.41-4.7-5.11.97-23.01,8.72-33.97,15.04-39.11,7.03-5.72,18.05-7.93,20.65-8.38,3.41,2.17,7.46,3.43,11.79,3.43s8.38-1.26,11.79-3.43c2.59.45,13.61,2.67,20.65,8.38,6.32,5.14,14.06,16.09,15.04,39.11.11,2.7-1.99,5-4.69,5.11-2.73.13-5-1.99-5.11-4.69Z"/>
</svg>