<?xml version="1.0" encoding="UTF-8"?>
<svg id="Strategy" xmlns="http://www.w3.org/2000/svg" viewBox="0 0 180 180">
  <defs>
    <style>
      .cls-1 {
        stroke: #000;
        stroke-miterlimit: 10;
        stroke-width: 2px;
      }
    </style>
  </defs>
  <path class="cls-1" d="M126.31,164.48l-10.26-4.78c3.89-6.44.11-9.46-2.98-11.92-1.99-1.59-3.87-3.09-4.47-5.47-.17-.67-.77-1.14-1.45-1.14h-5.27c2.04-32.86-9.55-41.39-19.82-48.92-5.72-4.19-10.71-7.86-13.18-15.25,3.45-.31,7.11-1.31,10.6-3.47,1.97-1.22,3.28-.36,6.26,2.21,2.48,2.14,5.57,4.82,10.1,4.9.3,0,.6,0,.89,0,16.19,0,17.52-8.38,17.57-8.74,0-.07.01-.14.01-.2v-11.9c0-.45-.2-.87-.55-1.16l-23.81-19.55c-.35-1.42-1.42-3.99-3.11-7.42-1.33-2.69-7.57-5.73-15.48-7.26l8.07-20.11c.17-.41.14-.88-.07-1.27-.21-.39-.59-.67-1.03-.75C52.58-2.77,30.47,4.4,17.66,21.95c-13.18,18.06-13.46,43.61-.74,66.69,1.08,1.96,2.12,3.76,3.13,5.5,6.06,10.47,10.44,18.06,10.47,39.88-.83,2.26-1.84,4.64-3.01,7.15h-7.49c-.69,0-1.29.47-1.45,1.14-.59,2.38-2.47,3.88-4.47,5.47-3.09,2.46-6.87,5.49-2.98,11.92l-10.26,4.78c-.53.25-.87.78-.87,1.36v11.97c0,.83.67,1.5,1.5,1.5h124.17c.83,0,1.5-.67,1.5-1.5v-11.97c0-.58-.34-1.11-.87-1.36ZM84.15,33c2.6,5.28,2.9,6.82,2.93,7,.03.41.22.8.55,1.07l23.69,19.45v11.03c-.19.72-2.08,6.37-15.42,6.1-3.45-.06-5.86-2.15-8.19-4.17-2.7-2.34-5.77-4.99-9.8-2.49-10.83,6.7-24.05.47-24.26.37-.74-.36-1.64-.05-2,.69-.36.74-.05,1.64.69,2,.38.18,6.16,2.94,13.45,3.07,2.68,8.86,8.69,13.28,14.51,17.55,10.13,7.43,20.59,15.12,18.59,46.5H30.82c10.21-22.61,6.13-35.17,1.81-48.44-3.47-10.68-7.06-21.73-3.83-39.37,3.56-19.4,16.28-25.14,26.33-26.54,14.21-1.97,27.87,3.88,29.01,6.19ZM22.64,92.63c-1-1.72-2.03-3.51-3.1-5.44-12.15-22.04-11.95-46.37.53-63.47C31.88,7.55,52.18.74,75.96,4.89l-7.63,19.03c-4.35-.59-9.04-.71-13.6-.07-11.02,1.53-24.98,7.8-28.87,28.97-3.37,18.38.5,30.31,3.93,40.83,3.17,9.76,6.03,18.57,3.43,31.14-1.12-15.82-5.22-22.9-10.57-32.15ZM124.17,176.3H3v-9.51l10.67-4.98h50.82c.83,0,1.5-.67,1.5-1.5s-.67-1.5-1.5-1.5H14.13c-3.18-4.67-1.37-6.14,1.85-8.7,1.93-1.54,4.09-3.26,5.14-5.95h84.94c1.06,2.69,3.21,4.41,5.14,5.95,3.35,2.68,5.2,4.15,1.42,9.31-.26.36-.35.82-.24,1.26.11.43.41.8.82.99l10.98,5.12v9.51Z"/>
  <path class="cls-1" d="M71,45.7c1.58,0,2.86-1.28,2.86-2.86s-1.28-2.86-2.86-2.86-2.86,1.28-2.86,2.86,1.28,2.86,2.86,2.86Z"/>
  <path class="cls-1" d="M164.26,37.44c-.83,0-1.5.67-1.5,1.5v6.85c0,.83.67,1.5,1.5,1.5s1.5-.67,1.5-1.5v-6.85c0-.83-.67-1.5-1.5-1.5Z"/>
  <path class="cls-1" d="M164.26,123.1c-.83,0-1.5.67-1.5,1.5v5.35h-5.35c-.83,0-1.5.67-1.5,1.5s.67,1.5,1.5,1.5h6.85c.83,0,1.5-.67,1.5-1.5v-6.85c0-.83-.67-1.5-1.5-1.5Z"/>
  <path class="cls-1" d="M164.26,88.84c-.83,0-1.5.67-1.5,1.5v6.85c0,.83.67,1.5,1.5,1.5s1.5-.67,1.5-1.5v-6.85c0-.83-.67-1.5-1.5-1.5Z"/>
  <path class="cls-1" d="M164.26,105.97c-.83,0-1.5.67-1.5,1.5v6.85c0,.83.67,1.5,1.5,1.5s1.5-.67,1.5-1.5v-6.85c0-.83-.67-1.5-1.5-1.5Z"/>
  <path class="cls-1" d="M164.26,71.7c-.83,0-1.5.67-1.5,1.5v6.85c0,.83.67,1.5,1.5,1.5s1.5-.67,1.5-1.5v-6.85c0-.83-.67-1.5-1.5-1.5Z"/>
  <path class="cls-1" d="M164.26,54.57c-.83,0-1.5.67-1.5,1.5v6.85c0,.83.67,1.5,1.5,1.5s1.5-.67,1.5-1.5v-6.85c0-.83-.67-1.5-1.5-1.5Z"/>
  <path class="cls-1" d="M130,129.95h-6.85c-.83,0-1.5.67-1.5,1.5s.67,1.5,1.5,1.5h6.85c.83,0,1.5-.67,1.5-1.5s-.67-1.5-1.5-1.5Z"/>
  <path class="cls-1" d="M147.13,129.95h-6.85c-.83,0-1.5.67-1.5,1.5s.67,1.5,1.5,1.5h6.85c.83,0,1.5-.67,1.5-1.5s-.67-1.5-1.5-1.5Z"/>
  <path class="cls-1" d="M164.26,4.88c-8.68,0-15.74,7.06-15.74,15.74s7.06,15.74,15.74,15.74,15.74-7.06,15.74-15.74-7.06-15.74-15.74-15.74ZM164.26,33.36c-7.03,0-12.74-5.72-12.74-12.74s5.72-12.74,12.74-12.74,12.74,5.72,12.74,12.74-5.72,12.74-12.74,12.74Z"/>
</svg>