<?xml version="1.0" encoding="UTF-8"?>
<svg id="Strategy" xmlns="http://www.w3.org/2000/svg" viewBox="0 0 180 180">
  <defs>
    <style>
      .cls-1 {
        stroke: #000;
        stroke-miterlimit: 10;
        stroke-width: 2px;
      }
    </style>
  </defs>
  <path class="cls-1" d="M118.44,149.01h-7.77c5.89-12.21.81-17.91-4.55-23.93-3.32-3.72-6.75-7.57-8.47-13.47-4.22-14.47-9.67-55.23-9.72-55.64,0-.06-.02-.12-.03-.17-.7-2.68.61-5,2.13-7.7,1.83-3.25,3.87-6.88,2.73-11.77h2.43c.8,0,1.45-.65,1.45-1.45V13.34c0-.8-.65-1.45-1.45-1.45h-13.54c-.8,0-1.45.65-1.45,1.45v5.62h-12.45v-5.62c0-.8-.65-1.45-1.45-1.45h-12.73c-.8,0-1.45.65-1.45,1.45v5.62h-12.45v-5.62c0-.8-.65-1.45-1.45-1.45h-13.54c-.8,0-1.45.65-1.45,1.45v21.53c0,.8.65,1.45,1.45,1.45h2.43c-1.14,4.89.9,8.53,2.73,11.77,1.52,2.69,2.83,5.02,2.13,7.7-.02.06-.03.12-.03.17-.06.41-5.51,41.18-9.72,55.64-1.72,5.9-5.15,9.75-8.47,13.47-5.36,6.02-10.43,11.72-4.55,23.93H1.45c-.8,0-1.45.65-1.45,1.45v16.2c0,.8.65,1.45,1.45,1.45h116.99c.8,0,1.45-.65,1.45-1.45v-16.2c0-.8-.65-1.45-1.45-1.45ZM26.15,14.79h10.64v5.62c0,.8.65,1.45,1.45,1.45h15.35c.8,0,1.45-.65,1.45-1.45v-5.62h9.83v5.62c0,.8.65,1.45,1.45,1.45h15.35c.8,0,1.45-.65,1.45-1.45v-5.62h10.64v18.62H26.15V14.79ZM15.94,127.01c2.58-2.9,5.42-6.1,7.47-10.37h51.87c.8,0,1.45-.65,1.45-1.45s-.65-1.45-1.45-1.45H24.6c.15-.43.29-.87.42-1.32,4.22-14.49,9.45-53.36,9.8-55.99.94-3.77-.77-6.82-2.44-9.77-1.79-3.18-3.49-6.2-2.26-10.35h59.65c1.23,4.15-.47,7.17-2.26,10.35-1.66,2.95-3.38,5.99-2.44,9.77.35,2.63,5.58,41.5,9.8,55.99,1.9,6.53,5.72,10.81,9.08,14.59,5.48,6.15,9.47,10.64,3.47,22H12.47c-6.01-11.36-2.02-15.85,3.47-22ZM116.99,165.21H2.9v-13.3h114.09v13.3Z"/>
  <path class="cls-1" d="M178.55,150.39h-5.05c-.76-11.3-7.47-21.24-17.76-26.17h0c-12.34-6.64-12.29-15.52-12.24-24.93,0-.58,0-1.16,0-1.74,0-6.83,3.25-13.98,8.93-19.63,1.58-1.57,2.17-3.24,1.61-4.59-.94-2.27-4.46-2.27-5.62-2.27h-8.61c6.54-3.76,10.97-10.82,10.97-18.89,0-12.02-9.78-21.79-21.79-21.79s-21.79,9.78-21.79,21.79c0,8.07,4.41,15.12,10.94,18.89h-8.58c-1.16,0-4.69,0-5.62,2.27-.56,1.35.03,3.02,1.61,4.59,5.67,5.65,8.93,12.8,8.93,19.63v1.71c.03,6.2.06,12.06-3.3,17.24-.44.67-.25,1.57.43,2.01.67.44,1.57.24,2.01-.43,3.84-5.9,3.8-12.48,3.77-18.83v-1.7c0-7.59-3.57-15.5-9.79-21.68-.64-.64-.92-1.2-.96-1.42.15-.11.79-.48,2.93-.48h38.87c2.13,0,2.78.37,2.93.48-.04.22-.32.78-.96,1.42-6.22,6.19-9.78,14.09-9.78,21.68,0,.57,0,1.15,0,1.72-.05,9.83-.1,19.99,13.7,27.45.04.03.09.05.13.07,9.77,4.66,16,14.26,16.25,25.07.02.79.66,1.42,1.45,1.42h4.98v11.92h-47.36c-.8,0-1.45.65-1.45,1.45s.65,1.45,1.45,1.45h48.81c.8,0,1.45-.65,1.45-1.45v-14.82c0-.8-.65-1.45-1.45-1.45ZM110.09,52.17c0-10.42,8.47-18.89,18.89-18.89s18.89,8.47,18.89,18.89-8.47,18.89-18.89,18.89-18.89-8.47-18.89-18.89Z"/>
</svg>