<?xml version="1.0" encoding="UTF-8"?>
<svg id="Strategy" xmlns="http://www.w3.org/2000/svg" viewBox="0 0 180 180">
  <defs>
    <style>
      .cls-1 {
        stroke: #000;
        stroke-miterlimit: 10;
        stroke-width: 2px;
      }
    </style>
  </defs>
  <path class="cls-1" d="M179.57,41.71L138.46.61c-.58-.58-1.51-.58-2.09,0l-41.1,41.1c-.42.42-.55,1.06-.32,1.61.23.55.77.91,1.36.91h20.64v25.72c0,.82.66,1.48,1.48,1.48s1.48-.66,1.48-1.48v-27.19c0-.82-.66-1.48-1.48-1.48h-18.56L137.42,3.74l37.54,37.54h-18.56c-.81,0-1.48.66-1.48,1.48v135.59c0,.82.66,1.48,1.48,1.48s1.48-.66,1.48-1.48V44.23h20.64c.6,0,1.13-.36,1.36-.91.23-.55.1-1.19-.32-1.61Z"/>
  <path class="cls-1" d="M112.63,80.42c-4.56,0-8.53,2.54-10.58,6.28-2.05-3.74-6.02-6.28-10.58-6.28s-8.53,2.54-10.58,6.28c-2.05-3.74-6.02-6.28-10.58-6.28-3.63,0-6.89,1.61-9.1,4.16v-33.82c0-6.65-5.41-12.05-12.06-12.05s-12.05,5.41-12.05,12.05v69.4c-4.18-8.85-13.3-22.48-29.89-22.94-.29-.02-.59.07-.84.23-3.85,2.46-5.91,4.89-6.32,7.45-.5,3.13,1.59,5.67,3.27,7.71.37.45,2.1,2.71,2.1,2.71,5.81,7.7,11.82,15.66,14.21,31.64,2.47,16.51,16.08,19.6,18.77,20.05,1.2.99,6.05,5.29,7.69,11.7.17.65.76,1.11,1.43,1.11h63.67c.8,0,1.45-.64,1.47-1.44.43-16.63,4.28-20.74,7.37-24.04,2.38-2.54,4.62-4.93,4.62-11.36v-50.51c0-6.65-5.41-12.05-12.05-12.05ZM121.73,142.98c0,5.26-1.6,6.98-3.82,9.35-3.34,3.56-7.47,7.97-8.12,24.54h-61.13c-2.41-7.68-8.48-12.24-8.75-12.44-.21-.16-.46-.25-.73-.28-.58-.06-14.23-1.69-16.61-17.62-2.5-16.72-8.74-24.99-14.78-32.99,0,0-1.78-2.32-2.18-2.8-1.44-1.75-2.92-3.55-2.64-5.37.25-1.58,1.8-3.32,4.61-5.18,21.95.98,29.5,27.93,29.57,28.21.19.71.88,1.17,1.62,1.08.73-.1,1.28-.72,1.28-1.46V50.76c0-5.02,4.08-9.1,9.1-9.1s9.1,4.08,9.1,9.1v47.6c0,.82.66,1.48,1.48,1.48s1.48-.66,1.48-1.48v-5.88c0-5.02,4.08-9.1,9.1-9.1s9.1,4.08,9.1,9.1v5.88c0,.82.66,1.48,1.48,1.48s1.48-.66,1.48-1.48v-5.88c0-5.02,4.08-9.1,9.1-9.1s9.1,4.08,9.1,9.1v5.88c0,.82.66,1.48,1.48,1.48s1.48-.66,1.48-1.48v-5.88c0-5.02,4.08-9.1,9.1-9.1s9.1,4.08,9.1,9.1v50.51Z"/>
</svg>