<?xml version="1.0" encoding="UTF-8"?>
<svg id="Strategy" xmlns="http://www.w3.org/2000/svg" viewBox="0 0 180 180">
  <defs>
    <style>
      .cls-1 {
        stroke: #000;
        stroke-miterlimit: 10;
        stroke-width: 2px;
      }
    </style>
  </defs>
  <path class="cls-1" d="M97.96,36.65v-6.75c4.81-2.77,8.06-7.95,8.06-13.88,0-8.83-7.18-16.02-16.02-16.02s-16.02,7.18-16.02,16.02c0,5.93,3.25,11.11,8.06,13.88v6.75c-35.91,3.97-63.94,34.5-63.94,71.46,0,39.64,32.25,71.9,71.9,71.9s71.9-32.25,71.9-71.9c0-36.95-28.03-67.48-63.94-71.46ZM76.52,16.02c0-7.43,6.05-13.48,13.48-13.48s13.48,6.05,13.48,13.48c0,4.45-2.18,8.4-5.52,10.85v-5.69c0-.7-.57-1.27-1.27-1.27h-13.38c-.7,0-1.27.57-1.27,1.27v5.69c-3.34-2.45-5.52-6.4-5.52-10.85ZM95.42,22.44v13.96c-1.79-.13-3.6-.2-5.42-.2s-3.63.07-5.42.2v-13.96h10.85ZM90,177.46c-38.25,0-69.36-31.12-69.36-69.36S51.75,38.74,90,38.74s69.36,31.12,69.36,69.36-31.12,69.36-69.36,69.36Z"/>
  <path class="cls-1" d="M90,49.1c-32.53,0-59,26.47-59,59s26.47,59,59,59,59-26.47,59-59-26.47-59-59-59ZM130.78,147.09l-3.68-3.68c-.5-.5-1.3-.5-1.79,0-.5.49-.5,1.3,0,1.79l3.68,3.68c-9.86,9.43-23.11,15.32-37.72,15.65v-12.66c0-.7-.57-1.27-1.27-1.27s-1.27.57-1.27,1.27v12.66c-14.61-.32-27.86-6.22-37.72-15.65l3.68-3.68c.5-.49.5-1.3,0-1.79-.5-.5-1.3-.5-1.79,0l-3.68,3.68c-9.43-9.86-15.33-23.11-15.65-37.72h12.66c.7,0,1.27-.57,1.27-1.27s-.57-1.27-1.27-1.27h-12.66c.32-14.61,6.22-27.86,15.65-37.72l3.68,3.68c.25.25.57.37.9.37s.65-.12.9-.37c.5-.5.5-1.3,0-1.79l-3.68-3.68c9.86-9.43,23.11-15.32,37.72-15.65v12.66c0,.7.57,1.27,1.27,1.27s1.27-.57,1.27-1.27v-12.66c14.61.32,27.86,6.22,37.72,15.65l-3.68,3.68c-.5.5-.5,1.3,0,1.79.25.25.57.37.9.37s.65-.12.9-.37l3.68-3.68c9.43,9.86,15.33,23.11,15.65,37.72h-12.66c-.7,0-1.27.57-1.27,1.27s.57,1.27,1.27,1.27h12.66c-.32,14.61-6.22,27.86-15.65,37.72Z"/>
  <path class="cls-1" d="M116.76,79.62l-35.31,19.43c-.21.12-.38.29-.5.5l-19.43,35.31c-.27.49-.18,1.11.21,1.51.24.24.57.37.9.37.21,0,.42-.05.61-.16l35.31-19.43c.21-.12.38-.29.5-.5l19.43-35.31c.27-.49.18-1.11-.21-1.51-.4-.4-1.01-.49-1.51-.21ZM97,115.11l-31.15,17.15,17.15-31.15,31.15-17.15-17.15,31.15Z"/>
  <path class="cls-1" d="M90,110.48c1.31,0,2.38-1.07,2.38-2.38s-1.07-2.38-2.38-2.38-2.38,1.07-2.38,2.38,1.07,2.38,2.38,2.38Z"/>
</svg>