<?xml version="1.0" encoding="UTF-8"?>
<svg id="Strategy" xmlns="http://www.w3.org/2000/svg" viewBox="0 0 180 180">
  <defs>
    <style>
      .cls-1 {
        stroke: #000;
        stroke-miterlimit: 10;
        stroke-width: 2px;
      }
    </style>
  </defs>
  <path class="cls-1" d="M90,0C40.37,0,0,40.37,0,90,0,102.16,2.38,113.96,7.09,125.07c.35.83,1.31,1.21,2.13.86.83-.35,1.21-1.31.86-2.13-4.53-10.7-6.83-22.07-6.83-33.8C3.26,42.17,42.17,3.26,90,3.26s86.74,38.91,86.74,86.74-38.91,86.74-86.74,86.74c-11.71,0-23.07-2.29-33.76-6.82-.83-.35-1.78.04-2.13.87-.35.83.04,1.78.86,2.13,11.1,4.69,22.88,7.07,35.03,7.07,49.63,0,90-40.37,90-90S139.63,0,90,0Z"/>
  <path class="cls-1" d="M59.41,148.55c-.4.81-.07,1.78.74,2.18,9.34,4.61,19.38,6.95,29.85,6.95,37.32,0,67.67-30.36,67.67-67.67S127.32,22.33,90,22.33,22.33,52.68,22.33,90c0,10.47,2.34,20.51,6.95,29.85.4.81,1.38,1.14,2.18.74.81-.4,1.14-1.37.74-2.18-4.39-8.89-6.61-18.45-6.61-28.41,0-35.52,28.9-64.42,64.42-64.42s64.42,28.9,64.42,64.42-28.9,64.42-64.42,64.42c-9.96,0-19.52-2.22-28.41-6.61-.8-.4-1.78-.07-2.18.74Z"/>
  <path class="cls-1" d="M68.34,128c-.42.8-.11,1.78.69,2.2,6.43,3.37,13.68,5.15,20.97,5.15,25.01,0,45.35-20.34,45.35-45.35s-20.34-45.35-45.35-45.35-45.35,20.34-45.35,45.35c0,7.29,1.78,14.54,5.15,20.97.42.8,1.4,1.1,2.2.69.8-.42,1.1-1.4.69-2.2-3.12-5.96-4.77-12.69-4.77-19.46,0-23.21,18.88-42.09,42.09-42.09s42.09,18.88,42.09,42.09-18.88,42.09-42.09,42.09c-6.77,0-13.5-1.65-19.46-4.78-.8-.42-1.78-.11-2.2.69Z"/>
  <path class="cls-1" d="M90,109.77c-.86,0-1.73-.06-2.58-.17-.9-.11-1.71.51-1.83,1.4-.12.89.51,1.71,1.4,1.83.99.13,2,.19,3,.19,12.7,0,23.02-10.33,23.02-23.02s-10.33-23.02-23.02-23.02-23.02,10.33-23.02,23.02c0,1,.07,2.02.2,3.01.12.89.93,1.52,1.83,1.4.89-.12,1.52-.93,1.4-1.83-.11-.85-.17-1.72-.17-2.58,0-10.9,8.87-19.77,19.77-19.77s19.77,8.87,19.77,19.77-8.87,19.77-19.77,19.77Z"/>
  <path class="cls-1" d="M46.04,136.26l42.57-42.57c.43.16.9.26,1.39.26,2.18,0,3.95-1.77,3.95-3.95s-1.77-3.95-3.95-3.95-3.95,1.77-3.95,3.95c0,.49.1.95.26,1.39l-42.57,42.57-22.17-5.3c-.55-.13-1.13.03-1.53.43L.48,148.65c-.42.42-.58,1.03-.42,1.59.16.57.62,1,1.19,1.14l22.08,5.28,5.28,22.08c.14.57.57,1.03,1.14,1.19.15.04.29.06.44.06.43,0,.84-.17,1.15-.48l19.56-19.56c.4-.4.56-.98.43-1.53l-5.3-22.17ZM21.7,132.03l19.34,4.63-16.86,16.86-19.34-4.63,16.86-16.86ZM31.1,175.16l-4.63-19.34,16.86-16.86,4.63,19.34-16.86,16.86Z"/>
</svg>