<?xml version="1.0" encoding="UTF-8"?>
<svg id="Strategy" xmlns="http://www.w3.org/2000/svg" viewBox="0 0 180 180">
  <defs>
    <style>
      .cls-1 {
        stroke: #000;
        stroke-miterlimit: 10;
        stroke-width: 2px;
      }
    </style>
  </defs>
  <path class="cls-1" d="M78.89,125.95c.95,0,1.72-.77,1.72-1.72v-19.22c0-.95-.77-1.72-1.72-1.72H3.43V1.72C3.43.77,2.66,0,1.72,0S0,.77,0,1.72v176.57c0,.95.77,1.72,1.72,1.72s1.72-.77,1.72-1.72v-52.33h75.45ZM77.17,106.73v15.78H3.43v-15.78h73.74Z"/>
  <path class="cls-1" d="M109.95,120.84c-.95.01-1.71.79-1.7,1.74v.56c0,3.49-.41,7.09-1.23,10.72-.21.92.37,1.84,1.3,2.05.13.03.25.04.38.04.78,0,1.49-.54,1.67-1.34.88-3.87,1.32-7.73,1.32-11.47v-.6c-.02-.95-.83-1.74-1.74-1.7Z"/>
  <path class="cls-1" d="M108.29,112.66c.16,0,.31-.02.47-.07.91-.26,1.44-1.21,1.18-2.12-1.09-3.83-2.72-7.59-4.82-11.17-.48-.82-1.53-1.09-2.35-.61-.82.48-1.09,1.53-.61,2.35,1.96,3.34,3.47,6.83,4.48,10.38.22.75.9,1.25,1.65,1.25Z"/>
  <path class="cls-1" d="M89.26,81.39c-.7-.64-1.78-.6-2.43.1-.64.7-.6,1.78.1,2.43.63.58,1.28,1.16,1.95,1.74,2.36,2.02,4.54,4.12,6.47,6.25.34.37.8.56,1.27.56.41,0,.83-.15,1.15-.45.7-.64.75-1.72.12-2.42-2.03-2.23-4.31-4.44-6.78-6.55-.64-.55-1.26-1.09-1.85-1.65Z"/>
  <path class="cls-1" d="M78.91,74.84c.33.47.87.73,1.4.73.34,0,.69-.1.99-.31.78-.55.96-1.62.41-2.39-2.22-3.16-4.01-6.51-5.31-9.97-.33-.89-1.32-1.34-2.21-1.01-.89.33-1.34,1.32-1.01,2.21,1.4,3.74,3.32,7.35,5.72,10.75Z"/>
  <path class="cls-1" d="M72.71,38.61c-.94-.12-1.8.53-1.93,1.47-.34,2.51-.52,5.02-.52,7.44,0,1.58.07,3.15.22,4.69.08.89.83,1.56,1.71,1.56.05,0,.11,0,.16,0,.94-.09,1.64-.93,1.55-1.87-.13-1.43-.2-2.9-.2-4.37,0-2.27.16-4.62.49-6.98.13-.94-.53-1.81-1.47-1.93Z"/>
  <path class="cls-1" d="M102.32,154.35c1.61-2.74,3.05-5.51,4.25-8.28.38-.87-.02-1.88-.89-2.26-.87-.38-1.88.02-2.26.89-1.12,2.57-2.46,5.15-3.95,7.71-2.02-1.05-4.3-1.65-6.73-1.65-8.06,0-14.62,6.56-14.62,14.62s6.56,14.62,14.62,14.62,14.62-6.56,14.62-14.62c0-4.4-1.96-8.34-5.05-11.03ZM92.75,176.57c-6.17,0-11.19-5.02-11.19-11.19s5.02-11.19,11.19-11.19,11.19,5.02,11.19,11.19-5.02,11.19-11.19,11.19Z"/>
  <path class="cls-1" d="M70.15,11.67l14.94-6.24c-1.98,2.87-4.52,6.91-6.95,11.8-1.84,3.7-3.39,7.44-4.59,11.1-.3.9.19,1.87,1.09,2.17.18.06.36.09.54.09.72,0,1.39-.46,1.63-1.18,1.15-3.51,2.64-7.09,4.4-10.64,2.35-4.73,4.84-8.67,6.77-11.45l.45,16.17c.03.93.79,1.67,1.72,1.67.02,0,.03,0,.05,0,.95-.03,1.69-.82,1.67-1.76l-.61-21.72c-.02-.57-.31-1.09-.78-1.39-.48-.31-1.07-.36-1.59-.14l-20.05,8.37c-.88.37-1.29,1.37-.92,2.25.37.88,1.37,1.29,2.25.92Z"/>
  <path class="cls-1" d="M178.28,0c-.95,0-1.72.77-1.72,1.72v36.45h-75.45c-.95,0-1.72.77-1.72,1.72v19.22c0,.95.77,1.72,1.72,1.72h75.45v117.46c0,.95.77,1.72,1.72,1.72s1.72-.77,1.72-1.72V1.72C180,.77,179.23,0,178.28,0ZM102.83,57.39v-15.78h73.74v15.78h-73.74Z"/>
</svg>