<?xml version="1.0" encoding="UTF-8"?>
<svg id="Strategy" xmlns="http://www.w3.org/2000/svg" viewBox="0 0 180 180">
  <defs>
    <style>
      .cls-1 {
        stroke: #000;
        stroke-miterlimit: 10;
        stroke-width: 2px;
      }
    </style>
  </defs>
  <path class="cls-1" d="M165.57,31.68L134.37.48c-.31-.31-.72-.48-1.15-.48H24.88c-6.03,0-10.93,4.9-10.93,10.93v158.14c0,6.03,4.9,10.93,10.93,10.93h130.23c6.03,0,10.93-4.9,10.93-10.93V32.83c0-.43-.17-.85-.48-1.15ZM160.49,31.2h-25.64V5.56l25.64,25.64ZM155.12,176.74H24.88c-4.23,0-7.67-3.44-7.67-7.67V10.93c0-4.23,3.44-7.67,7.67-7.67h106.71v29.57c0,.9.73,1.63,1.63,1.63h29.57v134.61c0,4.23-3.44,7.67-7.67,7.67Z"/>
  <path class="cls-1" d="M68.67,31.2h-26.2c-.9,0-1.63.73-1.63,1.63v26.2c0,.9.73,1.63,1.63,1.63h26.2c.9,0,1.63-.73,1.63-1.63v-26.2c0-.9-.73-1.63-1.63-1.63ZM67.04,57.4h-22.94v-22.94h22.94v22.94Z"/>
  <path class="cls-1" d="M68.67,77.54h-26.2c-.9,0-1.63.73-1.63,1.63v26.2c0,.9.73,1.63,1.63,1.63h26.2c.9,0,1.63-.73,1.63-1.63v-26.2c0-.9-.73-1.63-1.63-1.63ZM67.04,103.74h-22.94v-22.94h22.94v22.94Z"/>
  <path class="cls-1" d="M68.67,123.88h-26.2c-.9,0-1.63.73-1.63,1.63v26.2c0,.9.73,1.63,1.63,1.63h26.2c.9,0,1.63-.73,1.63-1.63v-26.2c0-.9-.73-1.63-1.63-1.63ZM67.04,150.07h-22.94v-22.94h22.94v22.94Z"/>
  <path class="cls-1" d="M82.81,40.47h23.84c.9,0,1.63-.73,1.63-1.63s-.73-1.63-1.63-1.63h-23.84c-.9,0-1.63.73-1.63,1.63s.73,1.63,1.63,1.63Z"/>
  <path class="cls-1" d="M82.81,54.64h40.09c.9,0,1.63-.73,1.63-1.63s-.73-1.63-1.63-1.63h-40.09c-.9,0-1.63.73-1.63,1.63s.73,1.63,1.63,1.63Z"/>
  <path class="cls-1" d="M137.75,83.55h-54.94c-.9,0-1.63.73-1.63,1.63s.73,1.63,1.63,1.63h54.94c.9,0,1.63-.73,1.63-1.63s-.73-1.63-1.63-1.63Z"/>
  <path class="cls-1" d="M82.81,100.98h40.09c.9,0,1.63-.73,1.63-1.63s-.73-1.63-1.63-1.63h-40.09c-.9,0-1.63.73-1.63,1.63s.73,1.63,1.63,1.63Z"/>
  <path class="cls-1" d="M137.75,129.89h-54.94c-.9,0-1.63.73-1.63,1.63s.73,1.63,1.63,1.63h54.94c.9,0,1.63-.73,1.63-1.63s-.73-1.63-1.63-1.63Z"/>
  <path class="cls-1" d="M122.9,144.07h-40.09c-.9,0-1.63.73-1.63,1.63s.73,1.63,1.63,1.63h40.09c.9,0,1.63-.73,1.63-1.63s-.73-1.63-1.63-1.63Z"/>
</svg>