<?xml version="1.0" encoding="UTF-8"?>
<svg id="Strategy" xmlns="http://www.w3.org/2000/svg" viewBox="0 0 180 180">
  <defs>
    <style>
      .cls-1 {
        stroke: #000;
        stroke-miterlimit: 10;
        stroke-width: 2px;
      }
    </style>
  </defs>
  <path class="cls-1" d="M116.92,94.11c-.42,0-.83-.16-1.15-.48-.64-.64-.64-1.67,0-2.3l41.89-41.89c.64-.64,1.67-.64,2.3,0l16.79,16.79V3.26h-62.97l16.79,16.79c.31.31.48.72.48,1.15s-.17.85-.48,1.15l-41.89,41.89c-.63.64-1.67.64-2.3,0-.64-.64-.64-1.67,0-2.3l40.73-40.73L108.69,2.78c-.47-.47-.61-1.17-.35-1.77C108.59.4,109.18,0,109.84,0h68.53c.9,0,1.63.73,1.63,1.63v68.53c0,.66-.4,1.25-1,1.5-.61.25-1.31.11-1.77-.35l-18.42-18.41-40.73,40.73c-.32.32-.73.48-1.15.48Z"/>
  <g>
    <path class="cls-1" d="M1.63,132.1c-.42,0-.83-.16-1.15-.48-.64-.64-.64-1.67,0-2.3l51.6-51.6c.64-.64,1.67-.64,2.3,0l10.86,10.86v-42.23H23.01l10.86,10.86c.64.64.64,1.67,0,2.3L2.78,90.63c-.64.64-1.67.64-2.3,0-.64-.64-.64-1.67,0-2.3l29.95-29.95-12.49-12.49c-.47-.47-.61-1.17-.35-1.77.25-.61.85-1,1.5-1h47.78c.9,0,1.63.73,1.63,1.63v47.78c0,.66-.4,1.25-1,1.5-.61.25-1.31.11-1.77-.35l-12.49-12.49L2.78,131.62c-.32.32-.73.48-1.15.48Z"/>
    <path class="cls-1" d="M90.52,180c-.42,0-.83-.16-1.15-.48-.64-.64-.64-1.67,0-2.3l31.1-31.1c.64-.64,1.67-.64,2.3,0l10.86,10.86v-42.23h-42.23l10.86,10.86c.31.31.48.72.48,1.15s-.17.85-.48,1.15l-51.6,51.6c-.64.64-1.67.64-2.3,0-.64-.64-.64-1.67,0-2.3l50.44-50.45-12.49-12.49c-.47-.47-.6-1.17-.35-1.77.25-.61.85-1,1.5-1h47.78c.9,0,1.63.73,1.63,1.63v47.78c0,.66-.4,1.25-1,1.5-.61.25-1.31.11-1.77-.35l-12.49-12.49-29.95,29.95c-.32.32-.73.48-1.15.48Z"/>
  </g>
  <path class="cls-1" d="M3.39,178.23c-.42,0-.83-.16-1.15-.48-.64-.64-.64-1.67,0-2.3l52.49-52.49c.64-.64,1.67-.64,2.3,0,.64.64.64,1.67,0,2.3L4.54,177.76c-.32.32-.73.48-1.15.48Z"/>
  <g>
    <path class="cls-1" d="M64.55,25.36c-.42,0-.83-.16-1.15-.48-.64-.64-.64-1.67,0-2.3L85.5.48c.64-.64,1.67-.64,2.3,0,.64.64.64,1.67,0,2.3l-22.1,22.1c-.32.32-.73.48-1.15.48Z"/>
    <path class="cls-1" d="M156.27,117.08c-.42,0-.83-.16-1.15-.48-.64-.64-.64-1.67,0-2.3l22.1-22.1c.64-.64,1.67-.64,2.3,0,.64.64.64,1.67,0,2.3l-22.1,22.1c-.32.32-.73.48-1.15.48Z"/>
  </g>
</svg>