<?xml version="1.0" encoding="UTF-8"?>
<svg id="Strategy" xmlns="http://www.w3.org/2000/svg" viewBox="0 0 180 180">
  <defs>
    <style>
      .cls-1 {
        stroke: #000;
        stroke-miterlimit: 10;
        stroke-width: 2px;
      }
    </style>
  </defs>
  <path class="cls-1" d="M179.36,177.2c-1.65-1.19-3.53-2.49-5.52-3.87-7.26-5.02-16.3-11.26-23.47-18.74-26.68-27.84-40.2-59.26-40.2-93.38v-19.64h23.95c.65,0,1.22-.4,1.45-1,.23-.6.05-1.29-.43-1.71L91.02.38c-.58-.51-1.45-.51-2.04,0l-44.12,38.47c-.49.42-.66,1.11-.43,1.71.23.6.8,1,1.45,1h23.95v19.64c0,34.13-13.53,65.55-40.2,93.38-7.17,7.48-16.21,13.73-23.47,18.74-1.99,1.38-3.87,2.67-5.52,3.87-.54.39-.77,1.09-.57,1.73s.8,1.07,1.47,1.07h55.93c.43,0,.84-.18,1.14-.5l.85-.92c12.16-13.18,22.46-24.34,30.54-36.65,8.08,12.3,18.38,23.47,30.54,36.65l.85.92c.29.32.71.5,1.14.5h55.93c.67,0,1.27-.43,1.47-1.07.21-.64-.02-1.34-.57-1.73ZM50.01,38.47L90,3.6l39.99,34.87h-21.37c-.86,0-1.55.69-1.55,1.55v21.19c0,34.85-6.09,56.46-17.07,74.83-10.98-18.37-17.07-39.97-17.07-74.83v-21.19c0-.86-.69-1.55-1.55-1.55h-21.37ZM57.19,176.48l-.39.42H6.44c.49-.34.98-.68,1.48-1.03,7.38-5.1,16.56-11.44,23.95-19.15,21.15-22.07,34.2-46.38,38.99-72.5,2.26,23.56,8.23,40.13,17.3,54.8-8.08,12.66-18.54,23.99-30.96,37.46ZM123.2,176.9l-.39-.42c-12.42-13.46-22.88-24.8-30.96-37.45,9.07-14.67,15.04-31.25,17.3-54.8,4.78,26.12,17.84,50.43,38.99,72.5,7.39,7.71,16.57,14.05,23.94,19.15.5.35,1,.69,1.49,1.03h-50.36Z"/>
  <path class="cls-1" d="M10.23,149.29c.28,0,.57-.08.83-.24.35-.22,34.91-22.62,42.11-60.35.16-.84-.39-1.65-1.23-1.81-.84-.16-1.65.39-1.81,1.23-6.94,36.39-40.4,58.1-40.73,58.32-.72.46-.93,1.42-.47,2.14.3.46.8.72,1.31.72Z"/>
  <path class="cls-1" d="M53.73,75.39c.06,0,.12.01.19.01.77,0,1.44-.58,1.53-1.36l1.37-11.41c.1-.85-.5-1.62-1.35-1.72-.84-.1-1.62.5-1.72,1.35l-1.37,11.41c-.1.85.5,1.62,1.35,1.72Z"/>
  <path class="cls-1" d="M129.71,86.89c-.84.16-1.39.97-1.23,1.81,7.2,37.73,41.76,60.12,42.11,60.35.26.16.55.24.83.24.51,0,1.01-.25,1.31-.72.46-.72.25-1.68-.47-2.14-.34-.22-33.78-21.89-40.73-58.32-.16-.84-.97-1.39-1.81-1.23Z"/>
  <path class="cls-1" d="M129.28,73.67l-1.37-11.41c-.1-.85-.87-1.46-1.72-1.35-.85.1-1.45.87-1.35,1.72l1.37,11.41c.09.79.76,1.36,1.54,1.36.06,0,.12,0,.19-.01.85-.1,1.45-.87,1.35-1.72Z"/>
</svg>