<?xml version="1.0" encoding="UTF-8"?>
<svg id="Strategy" xmlns="http://www.w3.org/2000/svg" viewBox="0 0 180 180">
  <defs>
    <style>
      .cls-1 {
        stroke: #000;
        stroke-miterlimit: 10;
        stroke-width: 2px;
      }
    </style>
  </defs>
  <path class="cls-1" d="M179.83.8c-.36-.66-1.14-.97-1.85-.73L1.06,59.04c-.61.2-1.04.77-1.06,1.42-.02.65.36,1.24.96,1.48l67.04,27.43-.62,21.66c-.01.43.15.84.45,1.14.29.29.68.45,1.09.45.01,0,.03,0,.04,0l21.66-.62,27.43,67.04c.24.58.81.96,1.43.96.02,0,.03,0,.05,0,.65-.02,1.21-.44,1.42-1.06L179.94,2.03s.19-.72-.11-1.23ZM170.68,5.77l-101.35,80.8L6,60.66,170.68,5.77ZM71.11,89.11L168.71,11.3l-77.81,97.59-20.38.59.59-20.38ZM119.35,174.01l-25.91-63.33L174.24,9.32l-54.9,164.68Z"/>
  <path class="cls-1" d="M59.91,120.1c-.6-.6-1.58-.6-2.19,0l-23.19,23.19c-.6.6-.6,1.58,0,2.19.3.3.7.45,1.09.45s.79-.15,1.09-.45l23.19-23.19c.6-.6.6-1.58,0-2.19Z"/>
  <path class="cls-1" d="M50.62,104.53c.6-.6.6-1.58,0-2.19-.6-.6-1.58-.6-2.19,0l-16.14,16.14c-.6.6-.6,1.58,0,2.19.3.3.7.45,1.09.45s.79-.15,1.09-.45l16.14-16.14Z"/>
  <path class="cls-1" d="M75.48,129.39l-16.14,16.14c-.6.6-.6,1.58,0,2.19.3.3.7.45,1.09.45s.79-.15,1.09-.45l16.14-16.14c.6-.6.6-1.58,0-2.19s-1.58-.6-2.19,0Z"/>
</svg>