<?xml version="1.0" encoding="UTF-8"?>
<svg id="Strategy" xmlns="http://www.w3.org/2000/svg" viewBox="0 0 180 180">
  <defs>
    <style>
      .cls-1 {
        stroke: #000;
        stroke-miterlimit: 10;
        stroke-width: 2px;
      }
    </style>
  </defs>
  <path class="cls-1" d="M178.37,0H1.63C.73,0,0,.73,0,1.63v17.49c0,.9.73,1.63,1.63,1.63h6.43v135.48c0,.9.73,1.63,1.63,1.63h84.12c.9,0,1.63-.73,1.63-1.63s-.73-1.63-1.63-1.63H11.31V20.74h157.37v96.46c0,.9.73,1.63,1.63,1.63s1.63-.73,1.63-1.63V20.74h6.43c.9,0,1.63-.73,1.63-1.63V1.63c0-.9-.73-1.63-1.63-1.63ZM176.74,17.49H3.26V3.26h173.49v14.23Z"/>
  <path class="cls-1" d="M159.28,152.86c-.9,0-1.63.73-1.63,1.63v23.89c0,.9.73,1.63,1.63,1.63s1.63-.73,1.63-1.63v-23.89c0-.9-.73-1.63-1.63-1.63Z"/>
  <path class="cls-1" d="M32.08,62.33h22.02c.9,0,1.63-.73,1.63-1.63v-22.02c0-.9-.73-1.63-1.63-1.63h-22.02c-.9,0-1.63.73-1.63,1.63v22.02c0,.9.73,1.63,1.63,1.63ZM33.71,40.31h18.76v18.76h-18.76v-18.76Z"/>
  <path class="cls-1" d="M30.45,99.15c0,.9.73,1.63,1.63,1.63h12.28c.9,0,1.63-.73,1.63-1.63s-.73-1.63-1.63-1.63h-10.65v-18.76h9.8c.9,0,1.63-.73,1.63-1.63s-.73-1.63-1.63-1.63h-11.43c-.9,0-1.63.73-1.63,1.63v22.02Z"/>
  <path class="cls-1" d="M30.45,137.6c0,.9.73,1.63,1.63,1.63h22.02c.9,0,1.63-.73,1.63-1.63s-.73-1.63-1.63-1.63h-20.39v-18.76h13.03c.9,0,1.63-.73,1.63-1.63s-.73-1.63-1.63-1.63h-14.66c-.9,0-1.63.73-1.63,1.63v22.02Z"/>
  <path class="cls-1" d="M150.59,115.96c5.73-4.77,9.38-11.94,9.38-19.96,0-14.31-11.65-25.96-25.96-25.96s-25.96,11.65-25.96,25.96c0,7.28,3.01,13.86,7.85,18.58-2.93,2.36-6.46,3.33-10.7,2.93-5.49-.51-11.01-2.55-15.98-5.9-11.97-8.07-18.19-21.21-21.3-30.8l-.03-.11c-1.55-4.74-6.41-7.51-11.28-6.44-5.22,1.14-8.55,6.32-7.41,11.54,5.09,23.28,17.83,41.93,34.96,51.18.66.36,1.32.7,1.99,1.04,1.79.92,3.48,1.79,5.01,2.9l.79.57c4.9,3.52,9.97,7.16,10.33,15.57l.18,21.33c0,.89.73,1.61,1.63,1.61h.01c.9,0,1.62-.74,1.61-1.64l-.19-21.38c-.43-10.05-6.67-14.53-11.68-18.13l-.78-.56c-1.73-1.25-3.61-2.22-5.43-3.15-.65-.33-1.29-.66-1.93-1.01-16.29-8.79-28.44-26.65-33.32-49.01-.76-3.47,1.45-6.91,4.92-7.67,3.23-.71,6.46,1.13,7.49,4.26l.03.1c3.27,10.09,9.85,23.92,22.59,32.5,5.42,3.65,11.47,5.88,17.5,6.44,5.3.49,9.82-.87,13.49-4.03,2.63,1.98,5.64,3.48,8.91,4.35l-7.91,35.39c-.12.52.03,1.06.39,1.45l12.97,14.24c.31.34.75.53,1.2.53h.1c.46,0,.89-.19,1.2-.53l12.97-14.24c.36-.39.5-.93.39-1.45l-7.91-35.39c2.31-.62,4.49-1.54,6.49-2.73,12.82,3.43,30.55,13.65,29.36,29.11,0,.04,0,.08,0,.12v30.8c0,.9.73,1.63,1.63,1.63s1.63-.73,1.63-1.63v-30.74c1.21-16.34-15.67-27.32-29.23-31.68ZM111.31,96c0-12.52,10.19-22.7,22.7-22.7s22.7,10.19,22.7,22.7-10.19,22.7-22.7,22.7-22.7-10.19-22.7-22.7ZM145.26,156.35l-11.25,12.35-11.25-12.35,7.74-34.64c1.15.16,2.32.24,3.51.24s2.36-.09,3.51-.24l7.74,34.64Z"/>
  <path class="cls-1" d="M126.23,48.61c.9,0,1.63-.73,1.63-1.63s-.73-1.63-1.63-1.63h-50.84c-.9,0-1.63.73-1.63,1.63s.73,1.63,1.63,1.63h50.84Z"/>
</svg>