<?xml version="1.0" encoding="UTF-8"?>
<svg id="Strategy" xmlns="http://www.w3.org/2000/svg" viewBox="0 0 180 180">
  <defs>
    <style>
      .cls-1 {
        stroke: #000;
        stroke-miterlimit: 10;
        stroke-width: 2px;
      }
    </style>
  </defs>
  <path class="cls-1" d="M17.98,180c-9.84,0-17.85-8.01-17.85-17.85s8-17.85,17.85-17.85,17.85,8.01,17.85,17.85-8.01,17.85-17.85,17.85ZM17.98,147.56c-8.05,0-14.59,6.55-14.59,14.59s6.55,14.59,14.59,14.59,14.6-6.55,14.6-14.59-6.55-14.59-14.6-14.59Z"/>
  <path class="cls-1" d="M36.22,35.69c-9.84,0-17.85-8.01-17.85-17.85S26.38,0,36.22,0s17.85,8.01,17.85,17.85-8.01,17.85-17.85,17.85ZM36.22,3.25c-8.05,0-14.6,6.55-14.6,14.59s6.55,14.59,14.6,14.59,14.59-6.55,14.59-14.59-6.55-14.59-14.59-14.59Z"/>
  <path class="cls-1" d="M155.29,114.71c-13.55,0-24.57-11.02-24.57-24.57s11.02-24.57,24.57-24.57,24.57,11.02,24.57,24.57-11.02,24.57-24.57,24.57ZM155.29,68.81c-11.76,0-21.32,9.57-21.32,21.32s9.57,21.32,21.32,21.32,21.32-9.57,21.32-21.32-9.57-21.32-21.32-21.32Z"/>
  <path class="cls-1" d="M91.98,150.46h-28.42c-.9,0-1.63-.73-1.63-1.63v-28.42c0-.9.73-1.63,1.63-1.63h28.42c.9,0,1.63.73,1.63,1.63v28.42c0,.9-.73,1.63-1.63,1.63ZM65.18,147.21h25.17v-25.17h-25.17v25.17Z"/>
  <path class="cls-1" d="M30.18,88.79H1.76c-.9,0-1.63-.73-1.63-1.63v-28.42c0-.9.73-1.63,1.63-1.63h28.42c.9,0,1.63.73,1.63,1.63v28.42c0,.9-.73,1.63-1.63,1.63ZM3.38,85.54h25.17v-25.17H3.38v25.17Z"/>
  <path class="cls-1" d="M160.77,31.67h-28.42c-.9,0-1.63-.73-1.63-1.63V1.63c0-.9.73-1.63,1.63-1.63h28.42c.9,0,1.63.73,1.63,1.63v28.42c0,.9-.73,1.63-1.63,1.63ZM133.97,28.42h25.17V3.25h-25.17v25.17Z"/>
  <path class="cls-1" d="M141.44,180h-28.42c-.9,0-1.63-.73-1.63-1.63v-28.42c0-.9.73-1.63,1.63-1.63h28.42c.9,0,1.63.73,1.63,1.63v28.42c0,.9-.73,1.63-1.63,1.63ZM114.64,176.75h25.17v-25.17h-25.17v25.17Z"/>
  <path class="cls-1" d="M24.12,139.82c-.15,0-.29-.02-.44-.06-.86-.24-1.37-1.14-1.13-2,.03-.12.82-2.91,3.06-7.17.42-.8,1.4-1.1,2.19-.69.79.42,1.1,1.4.68,2.19-2.06,3.92-2.8,6.51-2.8,6.54-.2.72-.85,1.19-1.56,1.19ZM33.09,123.6c-.35,0-.7-.11-.99-.34-.71-.55-.84-1.57-.29-2.28,1.53-1.98,3.19-3.91,4.96-5.76.62-.65,1.65-.67,2.3-.05.65.62.67,1.65.05,2.3-1.68,1.76-3.28,3.62-4.74,5.5-.32.41-.8.63-1.29.63ZM46.19,110.5c-.48,0-.96-.21-1.28-.62-.55-.71-.43-1.73.28-2.28,1.96-1.53,4.04-3.01,6.17-4.39.75-.49,1.76-.27,2.25.48.49.75.27,1.76-.48,2.25-2.05,1.33-4.05,2.75-5.93,4.22-.3.23-.65.34-1,.34ZM61.95,100.76c-.6,0-1.18-.34-1.46-.92-.39-.81-.05-1.78.75-2.17,2.23-1.08,4.55-2.1,6.91-3.03.83-.33,1.78.08,2.11.91.33.83-.08,1.78-.91,2.11-2.28.9-4.53,1.89-6.68,2.93-.23.11-.47.16-.71.16ZM79.29,94.21c-.71,0-1.36-.47-1.56-1.18-.25-.86.25-1.76,1.12-2.01,2.36-.67,4.81-1.29,7.29-1.84.87-.2,1.74.36,1.94,1.23.2.88-.36,1.74-1.23,1.94-2.41.54-4.8,1.14-7.1,1.79-.15.04-.3.06-.45.06ZM97.44,90.42c-.8,0-1.49-.59-1.61-1.4-.12-.89.5-1.71,1.38-1.84,2.43-.34,4.93-.63,7.45-.87.89-.09,1.69.57,1.77,1.47.08.89-.57,1.69-1.47,1.77-2.46.23-4.92.51-7.3.85-.08.01-.15.02-.23.02ZM115.93,88.88c-.88,0-1.6-.7-1.62-1.58-.03-.9.68-1.65,1.58-1.67,2-.06,4.04-.09,6.08-.09.9,0,1.63.73,1.63,1.63s-.73,1.63-1.63,1.63c-2.01,0-4.02.03-5.98.09-.02,0-.03,0-.05,0Z"/>
  <path class="cls-1" d="M128.28,72.56c-.27,0-.55-.07-.8-.21l-6.47-3.66c-.78-.44-1.06-1.43-.62-2.21.44-.78,1.43-1.06,2.22-.62l6.47,3.66c.78.44,1.06,1.43.62,2.21-.3.53-.85.83-1.42.83ZM112.11,63.42c-.27,0-.55-.07-.8-.21l-6.47-3.66c-.78-.44-1.06-1.43-.61-2.22.44-.78,1.43-1.06,2.22-.61l6.47,3.66c.78.44,1.06,1.43.62,2.22-.3.53-.85.83-1.42.83ZM95.94,54.27c-.27,0-.55-.07-.8-.21l-6.47-3.66c-.78-.44-1.06-1.43-.62-2.22.44-.78,1.43-1.06,2.22-.61l6.47,3.66c.78.44,1.06,1.43.62,2.22-.3.53-.85.83-1.42.83ZM79.77,45.13c-.27,0-.55-.07-.8-.21l-6.47-3.66c-.78-.44-1.06-1.43-.61-2.21.44-.78,1.43-1.06,2.21-.62l6.47,3.66c.78.44,1.06,1.43.61,2.21-.3.53-.85.83-1.42.83ZM63.59,35.99c-.27,0-.55-.07-.8-.21l-4.66-2.63c-.78-.44-1.06-1.43-.62-2.22.44-.78,1.43-1.06,2.22-.62l4.66,2.63c.78.44,1.06,1.43.62,2.22-.3.53-.85.83-1.42.83Z"/>
</svg>