<?xml version="1.0" encoding="UTF-8"?>
<svg id="Strategy" xmlns="http://www.w3.org/2000/svg" viewBox="0 0 180 180">
  <defs>
    <style>
      .cls-1 {
        stroke: #000;
        stroke-miterlimit: 10;
        stroke-width: 2px;
      }
    </style>
  </defs>
  <path class="cls-1" d="M177.51,0H2.49C1.62,0,.92.7.92,1.57v16.58c0,.87.7,1.57,1.57,1.57h3.03v103.05c0,.87.7,1.57,1.57,1.57h48.77l-18.15,52.52h-4.33c-.87,0-1.57.7-1.57,1.57s.7,1.57,1.57,1.57h11.21c.87,0,1.57-.7,1.57-1.57s-.7-1.57-1.57-1.57h-3.56l18.15-52.52h61.61l18.15,52.52h-3.56c-.87,0-1.57.7-1.57,1.57s.7,1.57,1.57,1.57h11.22c.87,0,1.57-.7,1.57-1.57s-.7-1.57-1.57-1.57h-4.33l-18.15-52.52h48.77c.87,0,1.57-.7,1.57-1.57V19.72h3.04c.87,0,1.57-.7,1.57-1.57V1.57c0-.87-.7-1.57-1.57-1.57ZM171.33,121.2H8.67V19.72h162.66v101.48ZM175.94,16.58H4.06V3.14h171.87v13.44Z"/>
  <path class="cls-1" d="M94.14,161.27h-2.57v-27.44c0-.87-.7-1.57-1.57-1.57s-1.57.7-1.57,1.57v27.44h-2.57c-.87,0-1.57.7-1.57,1.57s.7,1.57,1.57,1.57h8.29c.87,0,1.57-.7,1.57-1.57s-.7-1.57-1.57-1.57Z"/>
  <path class="cls-1" d="M37.89,46.29l13.61,10.26c.28.21.62.32.94.32.48,0,.95-.22,1.26-.62.52-.69.38-1.68-.31-2.2l-9.86-7.43c6.82,0,19.21.02,24.57,0,7.21-.02,17.08-.07,28.77,25.09,12.11,26.05,22.81,26.91,30.79,26.91.29,0,.57,0,.85,0,7.53-.03,12.59,0,12.64,0h0c.86,0,1.57-.7,1.57-1.56,0-.87-.69-1.57-1.56-1.58-.05,0-5.12-.03-12.67,0-7.21.02-17.08.07-28.77-25.09-12.54-26.98-23.57-26.93-31.63-26.91-5.36.02-17.76.01-24.57,0l9.88-7.45c.69-.52.83-1.51.31-2.2-.52-.69-1.51-.83-2.2-.31l-13.61,10.26c-.39.3-.62.76-.62,1.25s.23.96.62,1.25Z"/>
  <path class="cls-1" d="M115.01,66.53h22c.87,0,1.57-.7,1.57-1.57v-22c0-.87-.7-1.57-1.57-1.57h-22c-.87,0-1.57.7-1.57,1.57v22c0,.87.7,1.57,1.57,1.57ZM116.58,44.53h18.86v18.86h-18.86v-18.86Z"/>
  <path class="cls-1" d="M71.36,69.47c-8.04,0-14.57,6.54-14.57,14.57s6.54,14.57,14.57,14.57,14.57-6.54,14.57-14.57-6.54-14.57-14.57-14.57ZM71.36,95.47c-6.3,0-11.43-5.13-11.43-11.43s5.13-11.43,11.43-11.43,11.43,5.13,11.43,11.43-5.13,11.43-11.43,11.43Z"/>
</svg>