<?xml version="1.0" encoding="UTF-8"?>
<svg id="Strategy" xmlns="http://www.w3.org/2000/svg" viewBox="0 0 180 180">
  <defs>
    <style>
      .cls-1 {
        stroke: #000;
        stroke-miterlimit: 10;
        stroke-width: 2px;
      }
    </style>
  </defs>
  <path class="cls-1" d="M127.73,32.96c2.91-4.94,5.27-10.33,7-16.03,1.31-4.36-.86-8.95-5.05-10.69-2.17-.9-4.56-.9-6.74,0-2.17.9-3.87,2.59-4.77,4.77l-.03.08c-5.49,13.26-17.05,23.61-31.72,28.39-.52.17-1.01.31-1.49.45,3.95-4.16,6.38-9.77,6.38-15.94,0-12.77-10.39-23.16-23.16-23.16s-23.16,10.39-23.16,23.16c0,5.57,1.98,10.68,5.26,14.68-1.82.6-7.42,2.55-8.4,2.89-9.22,3.16-17.74,9.2-24.64,17.44-6.36,7.61-11.24,16.72-14.11,26.35l-1.16,3.91c-.45,1.81-1.55,6.99-1.73,7.79-.95,4.39,1.54,8.78,5.78,10.2,4.59,1.55,9.58-.93,11.13-5.52l.22-.66c3.22-9.58,7.01-17.07,11.59-22.92,2.95-3.77,6.13-6.89,9.45-9.27.02.21.04.42.05.6l.02.26c.18,2.3-.11,4.63-.42,6.61-.47,3.01-2.49,10.47-6,22.18l-20.17,66.67c-1.57,5.37,1.13,11.02,6.28,13.15,1.35.56,2.76.82,4.14.82,4.28,0,8.34-2.54,10.07-6.72.72-1.71,17.55-42.05,19.33-46.76.84-2.23,2.64-3.79,3.64-3.64.7.11,1.58,1.45,1.77,4.9l2.38,41.88c.31,5.53,4.71,9.93,10.25,10.25,5.99.34,11.14-4.26,11.49-10.28l1.99-61.53c.01-.14.09-.86.22-2.02.63-5.75,2.56-23.25,2.97-31.72.42-8.63,11.04-13.89,14.54-15.62.26-.13.48-.24.65-.33,10.77-5.52,19.81-14.04,26.16-24.63ZM68.14,3.82c11.12,0,20.17,9.05,20.17,20.16s-9.05,20.17-20.17,20.17-20.16-9.05-20.16-20.17S57.02,3.82,68.14,3.82ZM100.2,54.93c-.17.09-.37.19-.62.31-3.88,1.92-15.69,7.77-16.2,18.16-.41,8.37-2.33,25.8-2.96,31.53-.19,1.72-.22,2.04-.23,2.19l-1.99,61.55c-.25,4.34-3.99,7.66-8.32,7.43-4.01-.23-7.2-3.42-7.43-7.43l-2.38-41.88c-.33-5.86-2.53-7.41-4.31-7.68-2.95-.45-5.75,2.52-6.89,5.53-1.76,4.66-19.12,46.24-19.3,46.67-1.66,4.02-6.28,5.94-10.3,4.28-3.73-1.54-5.69-5.64-4.55-9.53l19.92-65.85.24-.82c3.55-11.84,5.6-19.44,6.09-22.58.34-2.15.65-4.7.45-7.31l-.02-.26c-.12-1.55-.23-3.02-1.51-3.61-.3-.14-.59-.19-.89-.19-.99,0-1.9.65-2.35.97-3.57,2.55-6.96,5.87-10.1,9.88-4.79,6.12-8.73,13.91-12.07,23.81l-.22.66c-.49,1.47-1.53,2.65-2.91,3.34-1.39.69-2.95.79-4.42.3-2.8-.94-4.43-3.84-3.81-6.73.17-.79,1.27-5.94,1.69-7.63l1.15-3.84c2.75-9.24,7.44-17.99,13.54-25.28,6.55-7.83,14.61-13.55,23.31-16.53.99-.34,7.46-2.6,9.71-3.31,4.12,3.77,9.6,6.07,15.61,6.07,4.44,0,8.6-1.26,12.12-3.44,1.94-.06,4.24-.46,7.07-1.38,15.5-5.05,27.73-16.02,33.56-30.09l.03-.08c1.23-2.96,4.64-4.37,7.59-3.14h0c2.72,1.13,4.19,4.23,3.33,7.06-1.66,5.46-3.92,10.64-6.71,15.37-6.06,10.11-14.69,18.23-24.96,23.5Z"/>
  <path class="cls-1" d="M178.5,51.07h-45.09c-.61,0-1.15.37-1.38.92-.23.56-.1,1.2.33,1.63l11.07,11.07-37.75,37.75c-.58.58-.58,1.53,0,2.12.29.29.68.44,1.06.44s.77-.15,1.06-.44l38.81-38.81c.58-.58.58-1.53,0-2.12l-9.58-9.58h39.98v39.98l-9.58-9.58c-.56-.56-1.56-.56-2.12,0l-14.91,14.91c-.58.58-.58,1.53,0,2.12.58.58,1.53.58,2.12,0l13.86-13.86,11.07,11.07c.43.43,1.07.55,1.63.32.56-.23.92-.78.92-1.38v-45.09c0-.83-.67-1.5-1.5-1.5Z"/>
  <path class="cls-1" d="M157.91,110.57h-38.91c-.61,0-1.15.37-1.38.92-.23.56-.1,1.2.32,1.63l9.41,9.41-11.81,11.81c-.58.58-.58,1.53,0,2.12.58.58,1.53.58,2.12,0l12.87-12.87c.28-.28.44-.66.44-1.06s-.16-.78-.44-1.06l-7.91-7.91h33.79v33.79l-7.91-7.91c-.28-.28-.66-.44-1.06-.44s-.78.16-1.06.44l-33.49,33.49c-.58.58-.58,1.53,0,2.12.29.29.67.44,1.06.44s.77-.15,1.06-.44l32.43-32.43,9.41,9.41c.43.43,1.07.55,1.63.33.56-.23.92-.78.92-1.38v-38.91c0-.83-.67-1.5-1.5-1.5Z"/>
</svg>