<?xml version="1.0" encoding="UTF-8"?>
<svg id="Strategy" xmlns="http://www.w3.org/2000/svg" viewBox="0 0 180 180">
  <defs>
    <style>
      .cls-1 {
        stroke: #000;
        stroke-miterlimit: 10;
        stroke-width: 2px;
      }
    </style>
  </defs>
  <path class="cls-1" d="M178.24,64.79h-27.79V30.91l28.49-13.68c.56-.27.92-.84.92-1.46s-.36-1.19-.92-1.47L149.53.18c-.5-.24-1.1-.21-1.57.09-.47.3-.76.82-.76,1.38v63.15h-27.79c-.9,0-1.63.73-1.63,1.63v35.69h-57.2c-.9,0-1.63.73-1.63,1.63v35.69H1.76c-.9,0-1.63.73-1.63,1.63v37.31c0,.9.73,1.63,1.63,1.63h176.48c.9,0,1.63-.73,1.63-1.63v-111.94c0-.9-.73-1.63-1.63-1.63ZM150.45,27.31V4.22l24.03,11.54-24.03,11.54ZM176.62,176.73H3.38v-34.06h57.2c.9,0,1.63-.73,1.63-1.63v-35.69h57.2c.9,0,1.63-.73,1.63-1.63v-35.69h55.58v108.69Z"/>
  <path class="cls-1" d="M28.26,128.58c9.36,0,16.98-7.62,16.98-16.98s-7.62-16.98-16.98-16.98-16.98,7.62-16.98,16.98,7.62,16.98,16.98,16.98ZM28.26,97.87c7.57,0,13.73,6.16,13.73,13.73s-6.16,13.73-13.73,13.73-13.73-6.16-13.73-13.73,6.16-13.73,13.73-13.73Z"/>
  <path class="cls-1" d="M87.09,91.26c9.36,0,16.98-7.62,16.98-16.98s-7.62-16.98-16.98-16.98-16.98,7.62-16.98,16.98,7.62,16.98,16.98,16.98ZM87.09,60.55c7.57,0,13.73,6.16,13.73,13.73s-6.16,13.73-13.73,13.73-13.73-6.16-13.73-13.73,6.16-13.73,13.73-13.73Z"/>
  <path class="cls-1" d="M91.25,49.34h.04c.88,0,1.6-.7,1.62-1.59,0-.03.07-2.54,1.16-5.92.27-.85-.2-1.77-1.05-2.04-.86-.28-1.77.19-2.05,1.05-1.24,3.86-1.31,6.73-1.31,6.85-.02.9.69,1.64,1.59,1.66Z"/>
  <path class="cls-1" d="M109.34,25.56c.19,0,.39-.03.58-.11l.29-.11c1.93-.71,3.83-1.2,5.64-1.46.89-.13,1.51-.95,1.38-1.84-.13-.89-.95-1.5-1.84-1.38-2.03.29-4.15.84-6.3,1.63l-.32.12c-.84.32-1.26,1.26-.94,2.1.25.65.86,1.05,1.52,1.05Z"/>
  <path class="cls-1" d="M95.78,34.41c.29.22.64.33.98.33.49,0,.98-.22,1.3-.65,1.22-1.61,2.65-3.08,4.24-4.36.7-.56.81-1.58.25-2.28-.56-.7-1.58-.81-2.28-.25-1.8,1.44-3.42,3.1-4.8,4.93-.54.72-.4,1.74.32,2.28Z"/>
  <path class="cls-1" d="M124.3,24.48c1.88.6,3.63,1.52,5.22,2.75.3.23.65.34.99.34.49,0,.97-.22,1.29-.63.55-.71.42-1.73-.29-2.28-1.89-1.46-3.98-2.56-6.22-3.28-.85-.27-1.77.2-2.04,1.05-.27.86.2,1.77,1.05,2.04Z"/>
  <path class="cls-1" d="M29.97,73.16c.29.22.64.33.98.33.49,0,.98-.22,1.3-.65,1.22-1.61,2.65-3.08,4.24-4.36.7-.56.81-1.58.25-2.29-.56-.7-1.58-.81-2.28-.25-1.8,1.44-3.42,3.1-4.8,4.93-.54.72-.4,1.74.32,2.28Z"/>
  <path class="cls-1" d="M58.48,63.23c1.88.6,3.63,1.52,5.22,2.75.3.23.65.34.99.34.49,0,.97-.22,1.29-.63.55-.71.42-1.73-.29-2.28-1.89-1.46-3.98-2.56-6.22-3.28-.85-.27-1.77.2-2.04,1.05-.27.86.2,1.77,1.05,2.04Z"/>
  <path class="cls-1" d="M25.44,88.09h.04c.88,0,1.6-.7,1.62-1.59,0-.03.07-2.54,1.16-5.92.27-.85-.2-1.77-1.05-2.04-.85-.28-1.77.19-2.05,1.05-1.24,3.86-1.31,6.73-1.31,6.85-.02.9.69,1.64,1.59,1.66Z"/>
  <path class="cls-1" d="M43.52,64.31c.19,0,.39-.03.58-.11l.29-.11c1.93-.71,3.83-1.2,5.64-1.46.89-.13,1.51-.95,1.38-1.84-.13-.89-.95-1.5-1.84-1.38-2.03.29-4.15.84-6.3,1.63l-.32.12c-.84.32-1.26,1.26-.94,2.1.25.65.86,1.05,1.52,1.05Z"/>
</svg>