<?xml version="1.0" encoding="UTF-8"?>
<svg id="Strategy" xmlns="http://www.w3.org/2000/svg" viewBox="0 0 180 180">
  <defs>
    <style>
      .cls-1 {
        stroke: #000;
        stroke-miterlimit: 10;
        stroke-width: 2px;
      }
    </style>
  </defs>
  <path class="cls-1" d="M178.41,117.88h-57.36v-55.77h57.36c.88,0,1.59-.71,1.59-1.59s-.71-1.59-1.59-1.59h-57.36V1.59c0-.88-.71-1.59-1.59-1.59s-1.59.71-1.59,1.59v57.36h-55.77V1.59c0-.88-.71-1.59-1.59-1.59s-1.59.71-1.59,1.59v57.36H1.59c-.88,0-1.59.71-1.59,1.59s.71,1.59,1.59,1.59h57.36v55.77H1.59c-.88,0-1.59.71-1.59,1.59s.71,1.59,1.59,1.59h57.36v57.36c0,.88.71,1.59,1.59,1.59s1.59-.71,1.59-1.59v-57.36h55.77v57.36c0,.88.71,1.59,1.59,1.59s1.59-.71,1.59-1.59v-57.36h57.36c.88,0,1.59-.71,1.59-1.59s-.71-1.59-1.59-1.59ZM62.12,117.88v-55.77h55.77v55.77h-55.77Z"/>
  <path class="cls-1" d="M92.24,90l11.38-11.37c.62-.62.62-1.62,0-2.24s-1.62-.62-2.24,0l-11.38,11.37-11.38-11.37c-.62-.62-1.62-.62-2.24,0-.62.62-.62,1.62,0,2.24l11.38,11.37-11.38,11.37c-.62.62-.62,1.62,0,2.24.31.31.72.46,1.12.46s.81-.15,1.12-.46l11.38-11.37,11.38,11.37c.31.31.72.46,1.12.46s.81-.15,1.12-.46c.62-.62.62-1.62,0-2.24l-11.38-11.37Z"/>
  <path class="cls-1" d="M45.45,135.32c-.62-.62-1.62-.62-2.24,0l-11.37,11.37-11.37-11.37c-.62-.62-1.62-.62-2.24,0-.62.62-.62,1.62,0,2.24l11.37,11.37-11.37,11.37c-.62.62-.62,1.62,0,2.24.31.31.72.46,1.12.46s.81-.15,1.12-.46l11.37-11.37,11.37,11.37c.31.31.72.46,1.12.46s.81-.15,1.12-.46c.62-.62.62-1.62,0-2.24l-11.37-11.37,11.37-11.37c.62-.62.62-1.62,0-2.24Z"/>
  <path class="cls-1" d="M90,47.54c9.09,0,16.48-7.39,16.48-16.48s-7.39-16.48-16.48-16.48-16.48,7.39-16.48,16.48,7.39,16.48,16.48,16.48ZM90,17.75c7.34,0,13.3,5.97,13.3,13.3s-5.97,13.3-13.3,13.3-13.3-5.97-13.3-13.3,5.97-13.3,13.3-13.3Z"/>
  <path class="cls-1" d="M132.46,90c0,9.09,7.39,16.48,16.48,16.48s16.48-7.39,16.48-16.48-7.39-16.48-16.48-16.48-16.48,7.39-16.48,16.48ZM162.25,90c0,7.34-5.97,13.3-13.3,13.3s-13.3-5.97-13.3-13.3,5.97-13.3,13.3-13.3,13.3,5.97,13.3,13.3Z"/>
  <path class="cls-1" d="M148.94,132.46c-9.09,0-16.48,7.39-16.48,16.48s7.39,16.48,16.48,16.48,16.48-7.39,16.48-16.48-7.39-16.48-16.48-16.48ZM148.94,162.25c-7.34,0-13.3-5.97-13.3-13.3s5.97-13.3,13.3-13.3,13.3,5.97,13.3,13.3-5.97,13.3-13.3,13.3Z"/>
</svg>