<?xml version="1.0" encoding="UTF-8"?>
<svg id="Strategy" xmlns="http://www.w3.org/2000/svg" viewBox="0 0 180 180">
  <defs>
    <style>
      .cls-1 {
        stroke: #000;
        stroke-miterlimit: 10;
        stroke-width: 2px;
      }
    </style>
  </defs>
  <path class="cls-1" d="M178.33-.09h-64.17c-.92,0-1.67.75-1.67,1.67v14.38c0,.11.01.22.03.33l12.79,63.43h-24.47c-.81-5.26-5.35-9.31-10.84-9.31s-10.03,4.05-10.84,9.31h-24.47l12.79-63.43c.02-.11.03-.22.03-.33V1.59c0-.92-.75-1.67-1.67-1.67H1.67C.75-.09,0,.66,0,1.59v14.38c0,.11.01.22.03.33l13.16,65.26v43.09c0,7.86,6.21,14.28,13.98,14.67v20.33l-6.57,7.31c-.28.31-.43.71-.43,1.12v6.05c0,3.68,2.1,5.97,5.47,5.97h34.95c3.37,0,5.47-2.29,5.47-5.97v-6.05c0-.41-.15-.81-.43-1.12l-6.57-7.31v-20.29h19.96v5.77c0,.92.75,1.67,1.67,1.67h18.61c.92,0,1.67-.75,1.67-1.67v-5.77h19.96v20.29l-6.57,7.31c-.28.31-.43.71-.43,1.12v6.05c0,3.68,2.1,5.97,5.47,5.97h34.95c3.37,0,5.47-2.29,5.47-5.97v-6.05c0-.41-.15-.81-.43-1.12l-6.57-7.31v-20.33c7.77-.38,13.98-6.8,13.98-14.67v-43.09l13.16-65.26c.02-.11.03-.22.03-.33V1.59c0-.92-.75-1.67-1.67-1.67ZM70.3,121.27v-22.72h39.4v22.72h-39.4ZM82.37,81.4c0-4.21,3.42-7.63,7.63-7.63s7.63,3.42,7.63,7.63v13.81h-15.27v-13.81ZM64.17,3.26v12.54l-12.89,63.92H16.23L3.72,17.64h25.96c.92,0,1.67-.75,1.67-1.67s-.75-1.67-1.67-1.67H3.35V3.26h60.83ZM62.71,174.12c0,2.62-1.43,2.62-2.12,2.62H25.64c-.69,0-2.12,0-2.12-2.62v-5.41l6.07-6.75h27.06l6.07,6.75v5.41ZM55.72,158.61h-25.21v-19.26h25.21v19.26ZM27.89,136.01c-6.26,0-11.36-5.09-11.36-11.36v-41.58h62.48v12.14h-10.39c-.92,0-1.67.75-1.67,1.67v26.06c0,.92.75,1.67,1.67,1.67h10.39v11.39H27.89ZM97.63,143.45h-15.27v-18.84h15.27v18.84ZM149.49,158.61h-25.21v-19.26h25.21v19.26ZM156.48,174.12c0,2.62-1.43,2.62-2.12,2.62h-34.95c-.69,0-2.12,0-2.12-2.62v-5.41l6.07-6.75h27.06l6.07,6.75v5.41ZM163.46,124.65c0,6.26-5.09,11.36-11.36,11.36h-51.13v-11.39h10.39c.92,0,1.67-.75,1.67-1.67v-26.06c0-.92-.75-1.67-1.67-1.67h-10.39v-12.14h62.48v41.58ZM176.65,15.8l-12.89,63.92h-35.05l-12.52-62.08h25.96c.92,0,1.67-.75,1.67-1.67s-.75-1.67-1.67-1.67h-26.33V3.26h60.83v12.54Z"/>
</svg>