<?xml version="1.0" encoding="UTF-8"?>
<svg id="Supply_Chain" data-name="Supply Chain" xmlns="http://www.w3.org/2000/svg" viewBox="0 0 180 180">
  <defs>
    <style>
      .cls-1 {
        stroke: #000;
        stroke-miterlimit: 10;
        stroke-width: 2px;
      }
    </style>
  </defs>
  <path class="cls-1" d="M89.39,35.8h0c.81,0,1.47-.66,1.47-1.47l.04-32.86c0-.81-.66-1.47-1.47-1.47h0c-.81,0-1.49.66-1.49,1.47v32.86c0,.81.64,1.47,1.45,1.47Z"/>
  <path class="cls-1" d="M75.48,46.76h0c.81,0,1.47-.66,1.47-1.47l.04-32.86c0-.81-.66-1.47-1.47-1.47h0c-.81,0-1.47.66-1.47,1.47l-.04,32.86c0,.81.66,1.47,1.47,1.47Z"/>
  <path class="cls-1" d="M103.3,46.76h0c.81,0,1.49-.66,1.49-1.47V12.43c0-.81-.64-1.47-1.45-1.47h0c-.81,0-1.51.66-1.51,1.47v32.86c0,.81.66,1.47,1.47,1.47Z"/>
  <path class="cls-1" d="M174.1,177.06h-22.6v-16.66c.24-.07.47-.13.72-.2,4.12-1.14,9.77-2.7,13.5-10.06,4.17-8.21,2.89-13.76,2.83-13.99-.12-.5-.5-.91-1-1.06-.1-.03-1-.29-2.35-.43.15-.27.31-.53.45-.82,4.17-8.21,2.89-13.76,2.83-13.99-.12-.5-.5-.91-1-1.06-.22-.07-4.72-1.39-9.35.59-.47-10.94-7.01-15.66-7.3-15.86-.51-.35-1.18-.35-1.68,0-.29.2-6.83,4.92-7.3,15.86-4.62-1.98-9.12-.66-9.35-.59-.5.15-.87.56-1,1.06-.06.23-1.33,5.78,2.83,13.99.15.29.3.56.45.83-1.28.14-2.13.38-2.22.41-.5.15-.88.56-1,1.06-.06.23-1.33,5.78,2.83,13.99,3.74,7.36,9.38,8.92,13.5,10.06.22.06.44.12.65.18v16.68h-57.67v-35.33c.39-.09.8-.19,1.21-.28,5.31-1.22,12.59-2.88,17.43-10.78,5.48-8.95,3.79-15.03,3.72-15.28-.15-.5-.54-.88-1.05-1.01-.14-.04-1.44-.35-3.37-.48.21-.3.42-.61.62-.93,5.48-8.95,3.79-15.03,3.72-15.28-.15-.5-.54-.88-1.05-1.01-.14-.04-1.44-.35-3.37-.48.21-.3.42-.61.62-.93,5.48-8.95,3.79-15.03,3.72-15.28-.15-.5-.54-.88-1.05-1.01-.14-.04-1.44-.35-3.37-.48.21-.3.42-.61.62-.93,5.48-8.95,3.79-15.03,3.72-15.28-.15-.5-.54-.88-1.05-1.01-.34-.09-7.21-1.77-13.63,1.38,0-.03,0-.06,0-.08,0-12.8-7.78-18.25-8.11-18.48-.5-.34-1.16-.34-1.66,0-.33.23-8.11,5.68-8.11,18.48,0,.09,0,.17,0,.26-6.51-3.39-13.64-1.64-13.98-1.55-.5.13-.9.51-1.05,1.01-.07.25-1.76,6.34,3.72,15.28.2.33.41.63.62.94-1.84.13-3.07.43-3.21.47-.5.13-.9.51-1.05,1.01-.07.25-1.76,6.34,3.72,15.28.2.33.41.63.62.94-1.84.13-3.07.43-3.21.47-.5.13-.9.51-1.05,1.01-.07.25-1.76,6.34,3.72,15.28.2.32.41.63.62.94-1.84.13-3.06.43-3.2.47-.5.13-.9.51-1.05,1.01-.07.25-1.76,6.34,3.72,15.28,4.84,7.89,12.11,9.56,17.43,10.78.38.09.76.17,1.12.26v35.35H29.92v-16.66c.24-.07.47-.13.72-.2,4.12-1.14,9.77-2.7,13.5-10.06,4.17-8.21,2.89-13.76,2.83-13.99-.12-.5-.5-.91-1-1.06-.1-.03-1-.29-2.35-.43.15-.27.31-.53.45-.82,4.17-8.21,2.89-13.76,2.83-13.99-.12-.5-.5-.91-1-1.06-.22-.07-4.72-1.39-9.35.59-.47-10.94-7.01-15.66-7.3-15.86-.51-.35-1.18-.35-1.68,0-.29.2-6.83,4.92-7.3,15.86-4.62-1.98-9.12-.66-9.35-.59-.5.15-.87.56-1,1.06-.06.23-1.33,5.78,2.83,13.99.15.29.3.56.45.83-1.28.14-2.13.38-2.22.41-.5.15-.87.56-1,1.06-.06.23-1.33,5.78,2.83,13.99,3.74,7.36,9.38,8.92,13.5,10.06.22.06.44.12.65.18v16.68H5.9c-.81,0-1.47.66-1.47,1.47s.66,1.47,1.47,1.47h168.2c.81,0,1.47-.66,1.47-1.47s-.66-1.47-1.47-1.47ZM163.09,148.81c-3.11,6.13-7.57,7.42-11.53,8.51,0-.66,0-1.31-.03-1.95.27-7.65,2.22-13.07,5.73-15.77,2.15-1.66,4.57-2.06,6.42-2.06.86,0,1.59.09,2.11.18.13,1.67.05,5.66-2.71,11.09ZM165.73,121.42c.12,1.69.02,5.72-2.7,11.09-.4.8-.84,1.53-1.31,2.2-1.95.26-4.15.95-6.21,2.53-1.62,1.24-2.95,2.87-4.01,4.89v-3.68c.35-7.32,2.29-12.51,5.7-15.14,3.14-2.42,6.86-2.17,8.53-1.89ZM150,106.66c1.68,1.61,5.25,5.97,5.25,13.96,0,.18-.02.35-.02.52-2.36,1.89-4.1,4.62-5.22,8.19-1.12-3.57-2.87-6.31-5.22-8.19,0-.17-.02-.34-.02-.52,0-7.99,3.57-12.35,5.25-13.96ZM134.26,121.42c1.66-.29,5.34-.55,8.5,1.87,3.53,2.7,5.49,8.13,5.76,15.8-.03.9-.03,1.85-.01,2.81-1.04-1.91-2.33-3.46-3.89-4.65-2.11-1.61-4.36-2.3-6.34-2.54-.47-.67-.91-1.4-1.31-2.19-2.73-5.38-2.83-9.42-2.7-11.1ZM137.03,148.81c-2.73-5.38-2.83-9.42-2.7-11.1,1.66-.29,5.34-.55,8.5,1.87,3.42,2.62,5.37,7.81,5.73,15.12v2.62c-3.96-1.09-8.41-2.38-11.53-8.51ZM107.01,129.13c-4.19,6.84-10.5,8.28-15.57,9.45-.16.04-.32.07-.47.11,0-.81-.01-1.59-.04-2.37.31-7.62,2.44-13.09,6.37-16.29,3.23-2.63,7.14-3.23,10.03-3.23,1.35,0,2.48.13,3.21.25.17,1.77.09,6.16-3.53,12.08ZM106.93,111.42c-.56.92-1.18,1.76-1.85,2.53-3.01.3-6.52,1.27-9.61,3.78-1.88,1.52-3.4,3.46-4.58,5.78v-5.83c.44-7.14,2.56-12.29,6.33-15.36,4.74-3.85,10.94-3.34,13.25-2.98.17,1.77.09,6.16-3.53,12.08ZM106.84,93.72c-.56.92-1.18,1.76-1.85,2.53-3.01.3-6.52,1.27-9.61,3.78-1.83,1.49-3.33,3.37-4.49,5.61v-6.74c.58-6.57,2.66-11.37,6.24-14.27,4.74-3.85,10.94-3.34,13.25-2.98.17,1.77.09,6.16-3.53,12.08ZM110.3,63.93c.18,1.74.13,6.09-3.54,12.08-.58.95-1.21,1.78-1.85,2.53-3.01.3-6.52,1.27-9.61,3.78-1.79,1.45-3.47,3.27-4.62,5.44,0,0,.01-4.19,0-4.55.3-7.62,2.43-13.1,6.37-16.3,4.75-3.86,10.96-3.34,13.26-2.98ZM89.37,47.19c1.83,1.67,5.99,6.45,5.99,15.36,0,.69-.05,1.37-.13,2.03,0,0-.02.01-.03.02-2.76,2.24-4.76,5.36-6.01,9.31-1.19-3.78-3.08-6.79-5.65-9-.11-.77-.17-1.56-.17-2.37,0-8.91,4.17-13.7,5.99-15.36ZM68.11,63.93c2.31-.36,8.51-.87,13.25,2.98,3.93,3.2,6.17,8.68,6.48,16.3-.05,1.31,0,5.05,0,5.05-1.19-2.4-2.63-4.39-4.56-5.95-3.16-2.56-6.75-3.52-9.8-3.79-.66-.77-1.28-1.6-1.84-2.51-3.63-5.92-3.7-10.32-3.53-12.08ZM68.19,81.64c2.31-.36,8.51-.87,13.25,2.98,3.93,3.2,6.06,8.68,6.37,16.3v4.89c-1.18-2.32-2.57-4.26-4.45-5.78-3.16-2.56-6.75-3.52-9.8-3.79-.67-.77-1.28-1.6-1.84-2.51-3.63-5.92-3.7-10.32-3.53-12.08ZM68.28,99.34c2.31-.36,8.51-.87,13.25,2.98,3.93,3.2,6.06,8.68,6.37,16.3v4.72c-1.17-2.25-2.61-4.13-4.45-5.61-3.16-2.56-6.75-3.52-9.8-3.79-.66-.77-1.28-1.6-1.84-2.51-3.63-5.92-3.7-10.33-3.53-12.08ZM87.47,138.57c-5.07-1.16-11.38-2.61-15.57-9.45-3.63-5.93-3.7-10.33-3.53-12.08,2.3-.37,8.47-.89,13.23,2.97,3.78,3.06,5.91,8.22,6.34,15.37v3.3c-.16-.04-.31-.07-.47-.11ZM41.52,148.81c-3.11,6.13-7.57,7.42-11.53,8.51,0-.66,0-1.31-.03-1.95.27-7.65,2.22-13.07,5.73-15.77,2.15-1.66,4.57-2.06,6.42-2.06.85,0,1.58.09,2.11.17.12,1.69.02,5.72-2.7,11.09ZM44.15,121.42c.12,1.69.02,5.72-2.7,11.09-.41.8-.84,1.53-1.31,2.2-1.95.26-4.15.95-6.21,2.53-1.62,1.24-2.95,2.87-4.01,4.89v-3.68c.35-7.32,2.29-12.51,5.7-15.14,3.14-2.42,6.86-2.17,8.53-1.89ZM28.42,106.66c1.68,1.61,5.25,5.97,5.25,13.96,0,.18-.02.35-.02.52-2.36,1.89-4.1,4.62-5.22,8.19-1.12-3.57-2.87-6.31-5.22-8.19,0-.17-.02-.34-.02-.52,0-7.99,3.57-12.35,5.25-13.96ZM12.68,121.42c1.66-.29,5.34-.55,8.5,1.87,3.53,2.7,5.49,8.13,5.76,15.8-.03.9-.03,1.85-.01,2.81-1.04-1.91-2.33-3.46-3.89-4.65-2.11-1.61-4.36-2.3-6.34-2.54-.47-.67-.91-1.4-1.31-2.19-2.73-5.38-2.83-9.42-2.7-11.1ZM15.45,148.81c-2.73-5.38-2.83-9.42-2.7-11.1,1.66-.29,5.34-.54,8.5,1.87,3.42,2.62,5.37,7.81,5.73,15.12v2.62c-3.96-1.09-8.41-2.38-11.53-8.51Z"/>
  <path class="cls-1" d="M128.3,106.41h0c.81,0,1.47-.66,1.47-1.47,0-.23.19-22.73,14.72-39.02.54-.61.49-1.54-.12-2.08-.61-.54-1.54-.49-2.08.12-15.29,17.14-15.47,40.01-15.47,40.98,0,.81.66,1.47,1.47,1.47Z"/>
  <path class="cls-1" d="M48.53,104.94c0,.81.66,1.47,1.47,1.47h0c.81,0,1.47-.66,1.47-1.47,0-.96-.18-23.83-15.47-40.98-.54-.61-1.47-.66-2.08-.12-.61.54-.66,1.47-.12,2.08,14.53,16.29,14.72,38.79,14.72,39.02Z"/>
</svg>