<?xml version="1.0" encoding="UTF-8"?>
<svg id="Supply_Chain" data-name="Supply Chain" xmlns="http://www.w3.org/2000/svg" viewBox="0 0 180 180">
  <defs>
    <style>
      .cls-1 {
        stroke: #000;
        stroke-miterlimit: 10;
        stroke-width: 2px;
      }
    </style>
  </defs>
  <path class="cls-1" d="M177.69,106.67c-.92-.66-41.86-30.09-59.63-42.87-2.91-34.9-14.19-60.22-28.06-60.22s-25.09,25.18-28.03,59.95C44.51,76.15,3.23,106.01,2.31,106.67c-1.76,1.26-2.31,2.23-2.31,5.88v12.07c0,1.81.77,2.64,1.42,3.01.46.26.93.36,1.38.36.8,0,1.52-.3,1.87-.48l59.92-17.96c.81,3.53,1.7,6.93,2.59,10.3,1.87,7.13,3.79,14.49,4.9,22.72-5.24,5.28-14.08,14.16-18.3,18.33-1.34,1.32-2.81,6.75-2.84,8.92,0,.5,0,3.97,0,3.97-.04,1.2.48,1.85.91,2.18,1.01.76,2.25.37,2.78.21,6.78-2.06,22.27-6.69,27.25-8.18l1.12,5.01c.16.7.77,1.19,1.49,1.19h11.01c.71,0,1.33-.49,1.49-1.19l1.12-5.01c4.97,1.49,20.47,6.12,27.3,8.2.25.08.74.23,1.29.23.46,0,.98-.11,1.44-.46.44-.33.95-.98.91-2.13,0,0,0-3.51,0-4.01h0c-.03-2.17-1.51-7.61-2.84-8.93-4-3.94-12.05-12.03-18.3-18.33,1.11-8.23,3.04-15.6,4.9-22.72.88-3.37,1.77-6.77,2.58-10.29l59.92,17.96c.35.18,1.07.48,1.87.48.45,0,.93-.09,1.38-.36.65-.38,1.42-1.2,1.42-3.01v-12.07c0-3.65-.55-4.63-2.31-5.89ZM3.66,124.64c-.11.03-.22.08-.32.14-.06.03-.17.08-.28.12,0-.07-.01-.16-.01-.27v-12.07c0-2.67.2-2.81,1.03-3.4.91-.65,39.1-28.27,57.59-41.65-.3,4.59-.46,9.34-.46,14.2,0,9.44,1.16,17.47,2.73,24.87L3.66,124.64ZM109.86,119.08c-1.94,7.43-3.96,15.11-5.08,23.84-.06.47.1.93.43,1.27,6.32,6.37,14.73,14.81,18.83,18.85.56.69,1.93,4.98,1.96,6.82,0,.36,0,2.29,0,3.32-8.26-2.51-28.38-8.52-28.59-8.58-.41-.12-.84-.07-1.21.15-.36.21-.62.57-.72.98l-1.21,5.42h-8.57l-1.21-5.42c-.09-.41-.35-.77-.72-.98-.37-.21-.8-.27-1.21-.15-.2.06-20.21,6.04-28.59,8.58,0-1.03,0-2.96,0-3.32.03-1.85,1.4-6.14,1.93-6.8,4.38-4.32,13.69-13.68,18.85-18.88.33-.33.49-.8.43-1.27-1.12-8.73-3.13-16.41-5.08-23.84-2.89-11.04-5.88-22.45-5.88-37.38,0-40.7,11.79-75.08,25.74-75.08s25.74,34.38,25.74,75.08c0,14.92-2.99,26.34-5.88,37.38ZM176.95,124.63c0,.11,0,.2-.01.27-.1-.03-.2-.07-.28-.12-.1-.06-.21-.1-.32-.14l-60.28-18.07c1.57-7.4,2.73-15.43,2.73-24.87,0-4.77-.15-9.43-.44-13.94,18.69,13.44,56.68,40.75,57.57,41.39.83.6,1.03.74,1.03,3.4v12.07Z"/>
  <path class="cls-1" d="M98.65,35.49c-4.85-3.64-12.45-3.64-17.3,0-.67.51-.81,1.46-.3,2.13.51.67,1.46.81,2.13.3,3.76-2.82,9.88-2.82,13.64,0,.27.21.6.31.91.31.46,0,.92-.21,1.22-.61.5-.67.37-1.63-.3-2.13Z"/>
  <path class="cls-1" d="M90,129.5c-.84,0-1.52.68-1.52,1.52v24.61c0,.84.68,1.52,1.52,1.52s1.52-.68,1.52-1.52v-24.61c0-.84-.68-1.52-1.52-1.52Z"/>
</svg>