<?xml version="1.0" encoding="UTF-8"?>
<svg id="Supply_Chain" data-name="Supply Chain" xmlns="http://www.w3.org/2000/svg" viewBox="0 0 180 180">
  <defs>
    <style>
      .cls-1 {
        stroke: #000;
        stroke-miterlimit: 10;
        stroke-width: 2px;
      }
    </style>
  </defs>
  <path class="cls-1" d="M178.28,176.57h-9.91v-104.09c0-.95-.77-1.72-1.72-1.72h-35.59c-.95,0-1.72.77-1.72,1.72v104.09h-17.4v-86.57c0-.95-.77-1.72-1.72-1.72h-35.59c-.95,0-1.72.77-1.72,1.72v86.57h-17.4v-60.53c0-.95-.77-1.72-1.72-1.72H18.21c-.95,0-1.72.77-1.72,1.72v60.53H3.43V1.72C3.43.77,2.66,0,1.72,0S0,.77,0,1.72v176.57c0,.95.77,1.72,1.72,1.72h176.57c.95,0,1.72-.77,1.72-1.72s-.77-1.72-1.72-1.72ZM19.93,176.57v-58.82h32.16v58.82H19.93ZM76.35,176.57v-84.85h32.16v84.85h-32.16ZM132.78,176.57v-102.38h32.16v102.38h-32.16Z"/>
  <path class="cls-1" d="M131.06,59.77c.95,0,1.72-.77,1.72-1.72v-4.9c0-.95-.77-1.72-1.72-1.72s-1.72.77-1.72,1.72v4.9c0,.95.77,1.72,1.72,1.72Z"/>
  <path class="cls-1" d="M131.06,45.77c.95,0,1.72-.77,1.72-1.72v-7.58c0-.95-.77-1.72-1.72-1.72s-1.72.77-1.72,1.72v7.58c0,.95.77,1.72,1.72,1.72Z"/>
  <path class="cls-1" d="M131.06,29.09c.95,0,1.72-.77,1.72-1.72v-3.19h3.19c.95,0,1.72-.77,1.72-1.72s-.77-1.72-1.72-1.72h-4.9c-.95,0-1.72.77-1.72,1.72v4.9c0,.95.77,1.72,1.72,1.72Z"/>
  <path class="cls-1" d="M145.07,24.18h7.58c.95,0,1.72-.77,1.72-1.72s-.77-1.72-1.72-1.72h-7.58c-.95,0-1.72.77-1.72,1.72s.77,1.72,1.72,1.72Z"/>
  <path class="cls-1" d="M161.75,24.18h3.19v3.19c0,.95.77,1.72,1.72,1.72s1.72-.77,1.72-1.72v-4.9c0-.95-.77-1.72-1.72-1.72h-4.9c-.95,0-1.72.77-1.72,1.72s.77,1.72,1.72,1.72Z"/>
  <path class="cls-1" d="M168.37,36.47c0-.95-.77-1.72-1.72-1.72s-1.72.77-1.72,1.72v7.58c0,.95.77,1.72,1.72,1.72s1.72-.77,1.72-1.72v-7.58Z"/>
  <path class="cls-1" d="M166.65,51.44c-.95,0-1.72.77-1.72,1.72v4.9c0,.95.77,1.72,1.72,1.72s1.72-.77,1.72-1.72v-4.9c0-.95-.77-1.72-1.72-1.72Z"/>
  <path class="cls-1" d="M63,24.18h9.81c.95,0,1.72-.77,1.72-1.72s-.77-1.72-1.72-1.72h-9.81c-.95,0-1.72.77-1.72,1.72s.77,1.72,1.72,1.72Z"/>
  <path class="cls-1" d="M41.42,24.18h9.81c.95,0,1.72-.77,1.72-1.72s-.77-1.72-1.72-1.72h-9.81c-.95,0-1.72.77-1.72,1.72s.77,1.72,1.72,1.72Z"/>
  <path class="cls-1" d="M19.84,24.18h9.81c.95,0,1.72-.77,1.72-1.72s-.77-1.72-1.72-1.72h-9.81c-.95,0-1.72.77-1.72,1.72s.77,1.72,1.72,1.72Z"/>
  <path class="cls-1" d="M84.58,24.18h9.81c.95,0,1.72-.77,1.72-1.72s-.77-1.72-1.72-1.72h-9.81c-.95,0-1.72.77-1.72,1.72s.77,1.72,1.72,1.72Z"/>
  <path class="cls-1" d="M106.16,24.18h9.81c.95,0,1.72-.77,1.72-1.72s-.77-1.72-1.72-1.72h-9.81c-.95,0-1.72.77-1.72,1.72s.77,1.72,1.72,1.72Z"/>
  <path class="cls-1" d="M28.75,47.76c-2.01,2.02-3.16,4.68-3.15,7.29.03,7.1,5.78,10.2,10.86,12.95,5.17,2.79,10.05,5.43,10.28,11.76.1,2.71-.91,5.31-2.85,7.33-2.05,2.13-4.93,3.35-7.89,3.35-5.92,0-10.74-4.82-10.74-10.74,0-.95-.77-1.72-1.72-1.72s-1.72.77-1.72,1.72c0,7.23,5.45,13.21,12.46,14.06v5.44c0,.95.77,1.72,1.72,1.72s1.72-.77,1.72-1.72v-5.45c3.27-.4,6.35-1.9,8.64-4.28,2.59-2.69,3.94-6.18,3.81-9.84-.31-8.29-6.56-11.67-12.08-14.65-4.85-2.62-9.04-4.88-9.06-9.94,0-1.68.8-3.49,2.15-4.85,1.36-1.36,3.07-2.11,4.82-2.11,3.84,0,6.97,3.13,6.97,6.97,0,.95.77,1.72,1.72,1.72s1.72-.77,1.72-1.72c0-5.15-3.76-9.42-8.68-10.25v-5.48c0-.95-.77-1.72-1.72-1.72s-1.72.77-1.72,1.72v5.49c-2.04.37-3.97,1.38-5.54,2.96Z"/>
</svg>