<?xml version="1.0" encoding="UTF-8"?>
<svg id="Supply_Chain" data-name="Supply Chain" xmlns="http://www.w3.org/2000/svg" viewBox="0 0 180 180">
  <defs>
    <style>
      .cls-1 {
        stroke: #000;
        stroke-miterlimit: 10;
        stroke-width: 2px;
      }
    </style>
  </defs>
  <path class="cls-1" d="M179.64,72.36l-51.86-51.86c-.46-.46-1.27-.46-1.73,0l-23.25,23.25c-.48.48-.48,1.25,0,1.73l6.72,6.72-15.95-.03c-5.46-2.2-8.54-2.2-11.02-2.19-2.58,0-4.4,0-8.04-2.83l2.69-2.69c.23-.23.36-.54.36-.86s-.13-.64-.36-.86l-23.25-23.25c-.48-.48-1.25-.48-1.73,0L.36,71.35c-.48.48-.48,1.25,0,1.73l23.25,23.25c.23.23.54.36.86.36s.64-.13.86-.36l3.49-3.49c1.09,4.2,3.07,6.63,3.21,6.8.02.02.04.05.06.07l8.86,9.02-1.85,1.85c-3.38,3.36-3.39,8.84-.03,12.21,1.69,1.69,3.91,2.54,6.13,2.54.72,0,1.43-.1,2.13-.27-.72,2.85.01,5.99,2.23,8.22,1.63,1.64,3.8,2.54,6.11,2.54h.02c.73,0,1.44-.1,2.13-.27-.72,2.85.01,5.99,2.23,8.22,1.69,1.69,3.91,2.54,6.13,2.54.71,0,1.43-.1,2.12-.27-.17.68-.27,1.39-.28,2.11,0,2.31.88,4.48,2.51,6.11,1.63,1.64,3.8,2.54,6.11,2.55h.02c2.3,0,4.47-.89,6.1-2.52l3.19-3.19,7.03,7.03c1.83,1.83,4.23,2.74,6.64,2.74s4.81-.91,6.64-2.74c2.47-2.47,3.27-5.99,2.4-9.15.82.23,1.66.35,2.51.35,2.4,0,4.81-.91,6.64-2.74,2.47-2.47,3.27-5.99,2.4-9.15.82.23,1.66.35,2.51.35,2.4,0,4.81-.92,6.64-2.74,2.47-2.47,3.27-5.99,2.4-9.14.81.22,1.65.35,2.51.35,2.51,0,4.86-.98,6.64-2.75,3.66-3.66,3.66-9.61,0-13.27l-2.02-2.02c.8-.95,2.09-2.52,3.02-3.8,4.51-6.23,5.74-10.89,5.89-13.93l6.87,6.87c.24.24.55.36.86.36s.63-.12.86-.36l23.26-23.25c.23-.23.36-.54.36-.86s-.13-.64-.36-.86ZM24.48,93.74L2.95,72.21,53.08,22.08l21.53,21.53-50.13,50.13ZM40.82,121.07c-2.41-2.41-2.39-6.34.03-8.75l7.09-7.09c1.21-1.2,2.79-1.8,4.37-1.8s3.18.61,4.39,1.82c2.41,2.42,2.4,6.34-.02,8.76l-7.09,7.09c-2.42,2.41-6.35,2.4-8.77-.02ZM55.69,133.39c-1.66,0-3.21-.65-4.38-1.83-2.4-2.41-2.39-6.34.03-8.75l7.09-7.09c1.21-1.2,2.79-1.8,4.37-1.8s3.18.61,4.39,1.82c2.41,2.42,2.4,6.34-.02,8.76l-7.09,7.09c-1.17,1.16-2.72,1.8-4.37,1.8h-.02ZM61.79,142.05c-2.4-2.41-2.39-6.34.03-8.75l7.09-7.09c1.17-1.17,2.72-1.81,4.37-1.81h.01c1.66,0,3.21.65,4.38,1.82h0c1.17,1.17,1.81,2.73,1.8,4.38,0,1.65-.65,3.21-1.83,4.38l-7.08,7.09c-2.42,2.41-6.35,2.4-8.77-.02ZM81.05,152.56c-1.17,1.16-2.72,1.8-4.37,1.8h-.02c-1.66,0-3.21-.65-4.38-1.83-2.4-2.41-2.39-6.34.03-8.75l7.09-7.09c1.17-1.17,2.72-1.81,4.37-1.81h.01c1.66,0,3.21.65,4.38,1.82,2.41,2.42,2.4,6.34-.02,8.76l-7.09,7.08ZM139.17,121.76c-1.31,1.31-3.05,2.03-4.91,2.03s-3.6-.72-4.91-2.03l-6.13-6.13c-.48-.48-1.25-.48-1.73,0-.48.48-.48,1.25,0,1.73l6.13,6.13c2.71,2.71,2.71,7.11,0,9.82-2.71,2.71-7.11,2.71-9.82,0l-6.13-6.13c-.48-.48-1.25-.48-1.73,0-.48.48-.48,1.25,0,1.73l6.13,6.13c2.71,2.71,2.71,7.11,0,9.82-2.71,2.71-7.11,2.71-9.82,0l-6.13-6.13c-.48-.48-1.25-.48-1.73,0-.48.48-.48,1.25,0,1.73l6.13,6.13c2.71,2.71,2.71,7.11,0,9.82-2.71,2.71-7.11,2.71-9.82,0l-7.03-7.03,2.17-2.17c3.37-3.36,3.39-8.84.03-12.21-1.63-1.63-3.8-2.54-6.11-2.54h-.02c-.73,0-1.44.1-2.12.27.17-.68.27-1.39.27-2.11,0-2.31-.89-4.48-2.52-6.11-1.63-1.64-3.8-2.54-6.11-2.54h-.02c-.73,0-1.44.1-2.13.27.72-2.85-.02-5.99-2.24-8.22-1.63-1.64-3.8-2.54-6.11-2.54h-.02c-.73,0-1.44.1-2.13.27.72-2.85-.02-5.99-2.24-8.22h0c-3.36-3.38-8.85-3.38-12.22-.02l-3.5,3.5-8.8-8.97c-.29-.36-2.24-2.94-3.01-7.25l41.89-41.89c4.14,3.27,6.48,3.53,9.6,3.53.06,0,.12,0,.18,0,1.96,0,4.13-.01,7.63,1.11l-19.89,9.45c-.66.23-4.6,1.71-6.3,5.28-3.07,5.34-10.26,17.84-11.44,19.77-.93,1.51-1.17,2.87-.72,4.04.29.76,1.03,1.78,2.89,2.34,4.52,1.34,13.2,2.42,20.61-5.49.04-.05.08-.09.12-.14,2.1-3.05,4.68-6.8,5.58-8.11l12.71-1.05c1.71,1.83,8.23,8.2,16.35,8.19,1.4,0,2.84-.2,4.32-.63l24.77,24.77c2.71,2.71,2.71,7.11,0,9.82ZM139.92,102.97c-.83,1.14-1.99,2.56-2.77,3.5l-20.24-20.24c.82-.4,1.65-.87,2.49-1.44.56-.38.7-1.14.32-1.7-.38-.56-1.14-.7-1.7-.32-11.64,7.94-22.38-4.66-22.84-5.2-.26-.31-.65-.47-1.04-.44l-13.89,1.15c-.37.03-.7.22-.91.53,0,0-3.27,4.76-5.85,8.51-6.5,6.88-14.1,5.93-18.07,4.76-.41-.12-1.12-.4-1.31-.87-.16-.41.03-1.08.52-1.89,1.2-1.96,8.44-14.55,11.5-19.87.02-.03.03-.06.05-.09,1.35-2.87,4.91-4.05,4.94-4.06.05-.02.1-.04.15-.06l22.34-10.61,18.35.03,33.15,33.15c.79,2.69-.11,8.14-5.2,15.16ZM155.52,94.75l-50.13-50.13,21.53-21.53,50.13,50.13-21.53,21.53Z"/>
  <path class="cls-1" d="M23.82,70.53c-.73-.1-1.44.09-2.03.54-.58.44-.96,1.09-1.05,1.81-.1.73.09,1.45.54,2.03.44.58,1.09.96,1.81,1.05.12.02.25.02.37.02,1.35,0,2.53-1,2.71-2.37h0c.2-1.5-.85-2.88-2.35-3.08Z"/>
</svg>