<?xml version="1.0" encoding="UTF-8"?>
<svg id="Supply_Chain" data-name="Supply Chain" xmlns="http://www.w3.org/2000/svg" viewBox="0 0 180 180">
  <defs>
    <style>
      .cls-1 {
        stroke: #000;
        stroke-miterlimit: 10;
        stroke-width: 2px;
      }
    </style>
  </defs>
  <path class="cls-1" d="M78.92,26.47c31.84,10.76,32.6,15.33,35.43,32.33l.02.15c.75,4.48,1.55,8.3,3.74,17.75.2.86.97,1.45,1.82,1.45.14,0,.28-.02.42-.05,1.01-.23,1.63-1.24,1.4-2.24-2.17-9.37-2.96-13.14-3.69-17.53l-.03-.15c-1.51-9.07-2.51-15.06-7.6-20.33-4.83-5.01-13.33-9.19-30.32-14.93-14.32-4.84-37.1-14.28-42.65-19.44-.76-.7-1.94-.66-2.64.1-.7.76-.66,1.94.1,2.64,6.26,5.83,29.5,15.34,43.99,20.24Z"/>
  <path class="cls-1" d="M170.65,85.09h-99.63c-2.5-3.34-4.73-6.26-5.81-7.55-3.04-3.73-.73-7.08.5-8.43,1.43-.35,6-1.31,10.22-.25,1,.25,2.02-.36,2.27-1.36.25-1-.36-2.02-1.36-2.27-6.07-1.53-12.38.33-12.65.41-.29.09-.56.24-.77.46-3.16,3.11-5.35,8.59-1.08,13.82,3.16,3.76,16.92,22.61,17.06,22.8.03.04.06.08.1.12,9.64,11.14,7.34,20.62,2.45,25.36-2.1,2.04-4,2.41-6.35,1.24-2.47-1.23-5.07-3.91-7.82-6.76l-37.3-37.31c-5.37-5.55-9.42-14.88-13.34-23.91-4.02-9.27-8.18-18.85-13.93-24.68-.73-.74-1.91-.74-2.64-.02-.74.72-.74,1.91-.02,2.64,5.26,5.33,9.28,14.59,13.16,23.55,4.05,9.33,8.24,18.98,14.11,25.04l24.09,24.09v55.58c0,5.15,4.19,9.35,9.35,9.35h109.41c5.15,0,9.35-4.19,9.35-9.35v-73.24c0-5.15-4.19-9.35-9.35-9.35ZM65.08,125.28c2.98,3.08,5.8,6,8.84,7.51,1.42.7,2.8,1.06,4.16,1.06,2.26,0,4.43-.99,6.46-2.96,6.53-6.33,8.39-18.18-2.17-30.43-.55-.75-4.51-6.17-8.56-11.63h96.84c3.09,0,5.61,2.52,5.61,5.61v45.65H55.63v-24.25l9.45,9.46ZM176.26,158.3H55.63v-14.49h120.63v14.49ZM170.65,173.28H61.24c-3.09,0-5.61-2.52-5.61-5.61v-5.63h120.63v5.63c0,3.09-2.52,5.61-5.61,5.61Z"/>
  <path class="cls-1" d="M149.83,60.82v5.04c0,1.03.84,1.87,1.87,1.87s1.87-.84,1.87-1.87v-5.05c3.12-.42,6.05-1.88,8.24-4.15,2.53-2.63,3.85-6.04,3.72-9.61-.3-8.1-6.37-11.37-11.73-14.27-5.31-2.87-8.57-4.86-8.59-9.36,0-1.56.74-3.24,2-4.51,1.26-1.27,2.85-1.97,4.48-1.97,3.57,0,6.48,2.91,6.48,6.48,0,1.03.84,1.87,1.87,1.87s1.87-.84,1.87-1.87c0-4.99-3.6-9.15-8.34-10.04v-5.08c0-1.03-.84-1.87-1.87-1.87s-1.87.84-1.87,1.87v5.09c-1.94.39-3.76,1.37-5.26,2.88-1.97,1.98-3.1,4.59-3.09,7.16.03,6.95,5.62,9.97,10.55,12.63,4.91,2.65,9.55,5.15,9.77,11.11.09,2.55-.86,4.99-2.68,6.88-1.93,2-4.64,3.15-7.42,3.15-5.57,0-10.1-4.53-10.1-10.1,0-1.03-.84-1.87-1.87-1.87s-1.87.84-1.87,1.87c0,7,5.22,12.78,11.97,13.7Z"/>
</svg>