<?xml version="1.0" encoding="UTF-8"?>
<svg id="Supply_Chain" data-name="Supply Chain" xmlns="http://www.w3.org/2000/svg" viewBox="0 0 180 180">
  <defs>
    <style>
      .cls-1 {
        stroke: #000;
        stroke-miterlimit: 10;
        stroke-width: 2px;
      }
    </style>
  </defs>
  <path class="cls-1" d="M59.1,105.79c.82,0,1.49-.67,1.49-1.49v-39.2h46.52v27.02c0,.82.67,1.49,1.49,1.49s1.49-.67,1.49-1.49v-27.02h46.52v22.45c0,.82.67,1.49,1.49,1.49s1.49-.67,1.49-1.49V14.4c0-.82-.67-1.49-1.49-1.49H59.1c-.82,0-1.49.67-1.49,1.49v89.9c0,.82.67,1.49,1.49,1.49ZM156.61,62.12h-46.52V15.89h46.52v46.23ZM60.59,15.89h46.52v46.23h-46.52V15.89Z"/>
  <path class="cls-1" d="M179.56,95.01c-.28-.28-.66-.44-1.05-.44h-62.4c-.45,0-.88.2-1.16.55l-13.09,16.2h-55.98v-31.31c0-.82-.67-1.49-1.49-1.49h-20.93c-.6,0-1.15.36-1.38.92l-13.22,31.88H1.49C.67,111.32,0,111.99,0,112.81,0,115.03.26,167.09,22.84,167.09h108.8c19.81,0,34.47-12.37,42.38-35.78,5.88-17.42,5.98-34.52,5.98-35.24,0-.4-.16-.77-.44-1.05ZM24.46,81.5h18.45v14.93h-6.24c-.82,0-1.49.67-1.49,1.49s.67,1.49,1.49,1.49h6.24v11.91H12.1l12.36-29.82ZM171.18,130.41c-7.57,22.36-20.87,33.69-39.53,33.69H22.84c-17.72,0-19.64-41.37-19.84-49.81h99.57c.45,0,.88-.2,1.16-.55l13.09-16.2h60.16c-.16,4.55-1.05,18.8-5.81,32.86Z"/>
  <path class="cls-1" d="M149.56,119.53c1.76,0,3.19-1.43,3.19-3.19s-1.43-3.19-3.19-3.19-3.19,1.43-3.19,3.19,1.43,3.19,3.19,3.19Z"/>
  <path class="cls-1" d="M21.98,133.76c0,.82.67,1.49,1.49,1.49h110.78c.82,0,1.49-.67,1.49-1.49s-.67-1.49-1.49-1.49H23.46c-.82,0-1.49.67-1.49,1.49Z"/>
</svg>