<?xml version="1.0" encoding="UTF-8"?>
<svg id="Supply_Chain" data-name="Supply Chain" xmlns="http://www.w3.org/2000/svg" viewBox="0 0 180 180">
  <defs>
    <style>
      .cls-1 {
        stroke: #000;
        stroke-miterlimit: 10;
        stroke-width: 2px;
      }
    </style>
  </defs>
  <path class="cls-1" d="M153.46,0H26.54c-5.66,0-10.27,4.6-10.27,10.27v159.47c0,5.66,4.6,10.27,10.27,10.27h126.93c5.66,0,10.27-4.6,10.27-10.27V10.27c0-5.66-4.6-10.27-10.27-10.27ZM58.94,23.8h62.12c.92,0,1.67-.75,1.67-1.67v-8.03h.35c5.53,0,10.03,4.5,10.03,10.03s-4.5,10.03-10.03,10.03H56.92c-5.53,0-10.03-4.5-10.03-10.03s4.5-10.03,10.03-10.03h.35v8.03c0,.92.75,1.67,1.67,1.67ZM119.39,3.34v17.11h-58.78V3.34h58.78ZM160.39,169.73c0,3.82-3.11,6.92-6.92,6.92H26.54c-3.82,0-6.92-3.11-6.92-6.92V10.27c0-3.82,3.11-6.92,6.92-6.92h30.73v7.42h-.35c-7.37,0-13.37,6-13.37,13.37s6,13.37,13.37,13.37h66.17c7.37,0,13.37-6,13.37-13.37s-6-13.37-13.37-13.37h-.35V3.34h30.73c3.82,0,6.92,3.11,6.92,6.92v159.47Z"/>
  <path class="cls-1" d="M61.36,56.54c-.77-.52-1.8-.32-2.32.45l-8.68,12.86-8.68-12.86c-.52-.76-1.55-.97-2.32-.45-.76.52-.97,1.56-.45,2.32l10.07,14.91c.31.46.83.74,1.38.74s1.07-.28,1.38-.74l10.07-14.91c.52-.76.32-1.8-.45-2.32Z"/>
  <path class="cls-1" d="M139.71,63.71h-64.63c-.92,0-1.67.75-1.67,1.67s.75,1.67,1.67,1.67h64.63c.92,0,1.67-.75,1.67-1.67s-.75-1.67-1.67-1.67Z"/>
  <path class="cls-1" d="M61.36,93.55c-.77-.52-1.8-.32-2.32.45l-8.68,12.86-8.68-12.86c-.52-.76-1.55-.97-2.32-.45-.76.52-.97,1.56-.45,2.32l10.07,14.91c.31.46.83.74,1.38.74s1.07-.28,1.38-.74l10.07-14.91c.52-.76.32-1.8-.45-2.32Z"/>
  <path class="cls-1" d="M139.71,100.72h-64.63c-.92,0-1.67.75-1.67,1.67s.75,1.67,1.67,1.67h64.63c.92,0,1.67-.75,1.67-1.67s-.75-1.67-1.67-1.67Z"/>
  <path class="cls-1" d="M61.36,130.56c-.77-.52-1.8-.32-2.32.45l-8.68,12.86-8.68-12.86c-.52-.77-1.55-.97-2.32-.45-.76.52-.97,1.56-.45,2.32l10.07,14.91c.31.46.83.74,1.38.74s1.07-.28,1.38-.74l10.07-14.91c.52-.76.32-1.8-.45-2.32Z"/>
  <path class="cls-1" d="M139.71,137.73h-64.63c-.92,0-1.67.75-1.67,1.67s.75,1.67,1.67,1.67h64.63c.92,0,1.67-.75,1.67-1.67s-.75-1.67-1.67-1.67Z"/>
</svg>