<?xml version="1.0" encoding="UTF-8"?>
<svg id="Supply_Chain" data-name="Supply Chain" xmlns="http://www.w3.org/2000/svg" viewBox="0 0 180 180">
  <defs>
    <style>
      .cls-1 {
        stroke: #000;
        stroke-miterlimit: 10;
        stroke-width: 2px;
      }
    </style>
  </defs>
  <path class="cls-1" d="M178.37,137.9h-38.84c-.9,0-1.63.73-1.63,1.63v17.51H35.96c-18.04,0-32.71-14.67-32.71-32.71s14.67-32.71,32.71-32.71h14.17c.86,21.25,18.41,38.28,39.87,38.28s39.01-17.03,39.87-38.28h14.17c19.83,0,35.96-16.13,35.96-35.96s-16.13-35.96-35.96-35.96H42.1V1.63C42.1.73,41.37,0,40.47,0H1.63C.73,0,0,.73,0,1.63v38.84c0,.9.73,1.63,1.63,1.63h38.84c.9,0,1.63-.73,1.63-1.63v-17.51h101.94c18.04,0,32.71,14.67,32.71,32.71s-14.67,32.71-32.71,32.71h-14.17c-.86-21.25-18.41-38.28-39.87-38.28s-39.01,17.03-39.87,38.28h-14.17C16.13,88.37,0,104.51,0,124.34s16.13,35.96,35.96,35.96h101.94v18.07c0,.9.73,1.63,1.63,1.63h38.84c.9,0,1.63-.73,1.63-1.63v-38.84c0-.9-.73-1.63-1.63-1.63ZM38.84,38.84H3.26V3.26h35.59v35.59ZM90,53.34c20.21,0,36.66,16.44,36.66,36.66s-16.44,36.66-36.66,36.66-36.66-16.44-36.66-36.66,16.44-36.66,36.66-36.66ZM176.74,176.74h-35.59v-35.59h35.59v35.59Z"/>
  <path class="cls-1" d="M88.65,106.01c.3.45.81.72,1.35.72s1.05-.27,1.35-.72l16.4-24.27c.5-.75.31-1.76-.44-2.26-.74-.5-1.76-.31-2.26.44l-15.05,22.27-15.05-22.27c-.5-.74-1.52-.94-2.26-.44-.74.5-.94,1.52-.44,2.26l16.4,24.27Z"/>
</svg>