<?xml version="1.0" encoding="UTF-8"?>
<svg id="Supply_Chain" data-name="Supply Chain" xmlns="http://www.w3.org/2000/svg" viewBox="0 0 180 180">
  <defs>
    <style>
      .cls-1 {
        stroke: #000;
        stroke-miterlimit: 10;
        stroke-width: 2px;
      }
    </style>
  </defs>
  <path class="cls-1" d="M149.16,142.73c-6.69,0-12.14,5.45-12.14,12.14s5.45,12.14,12.14,12.14,12.14-5.45,12.14-12.14-5.45-12.14-12.14-12.14ZM149.16,164.04c-5.06,0-9.17-4.11-9.17-9.17s4.11-9.17,9.17-9.17,9.17,4.11,9.17,9.17-4.11,9.17-9.17,9.17Z"/>
  <path class="cls-1" d="M124.43,151.64c-1.78,0-3.23,1.45-3.23,3.23s1.45,3.23,3.23,3.23,3.23-1.45,3.23-3.23-1.45-3.23-3.23-3.23Z"/>
  <path class="cls-1" d="M107.22,151.64c-1.78,0-3.23,1.45-3.23,3.23s1.45,3.23,3.23,3.23,3.23-1.45,3.23-3.23-1.45-3.23-3.23-3.23Z"/>
  <path class="cls-1" d="M90.02,151.64c-1.78,0-3.23,1.45-3.23,3.23s1.45,3.23,3.23,3.23,3.23-1.45,3.23-3.23-1.45-3.23-3.23-3.23Z"/>
  <path class="cls-1" d="M72.81,151.64c-1.78,0-3.23,1.45-3.23,3.23s1.45,3.23,3.23,3.23,3.23-1.45,3.23-3.23-1.45-3.23-3.23-3.23Z"/>
  <path class="cls-1" d="M55.6,151.64c-1.78,0-3.23,1.45-3.23,3.23s1.45,3.23,3.23,3.23,3.23-1.45,3.23-3.23-1.45-3.23-3.23-3.23Z"/>
  <path class="cls-1" d="M38.4,151.64c-1.78,0-3.23,1.45-3.23,3.23s1.45,3.23,3.23,3.23,3.23-1.45,3.23-3.23-1.45-3.23-3.23-3.23Z"/>
  <path class="cls-1" d="M21.19,151.64c-1.78,0-3.23,1.45-3.23,3.23s1.45,3.23,3.23,3.23,3.23-1.45,3.23-3.23-1.45-3.23-3.23-3.23Z"/>
  <path class="cls-1" d="M149.16,129.74h-32.98v-12.1c7.77-1.71,15.88-4.43,21.76-10.36,4.49-4.54,7.51-9.85,8.73-15.36,1.37-6.2.38-13.2-3.03-21.39-7.94-19.06-20.32-25.2-32.81-28.46,3.36-4.41,5.36-9.9,5.36-15.86,0-14.45-11.76-26.21-26.21-26.21s-26.2,11.76-26.2,26.21c0,5.96,2,11.46,5.36,15.86-12.49,3.26-24.87,9.4-32.81,28.46-3.41,8.19-4.4,15.18-3.03,21.39,1.22,5.51,4.24,10.82,8.73,15.36,5.88,5.93,13.99,8.66,21.76,10.36v12.1H7.19c-.82,0-1.49.67-1.49,1.49v47.29c0,.39.16.77.44,1.05s.66.44,1.05.44h141.97c13.86,0,25.13-11.27,25.13-25.13s-11.27-25.13-25.13-25.13ZM90,2.97c12.81,0,23.23,10.42,23.23,23.23s-10.42,23.23-23.23,23.23-23.23-10.42-23.23-23.23S77.19,2.97,90,2.97ZM36.23,91.27c-1.24-5.59-.3-12,2.87-19.6,8.12-19.49,20.82-24.32,32.24-27.09,4.76,4.83,11.36,7.83,18.66,7.83s13.9-3,18.66-7.83c11.43,2.77,24.13,7.6,32.24,27.09,3.17,7.6,4.1,14.01,2.87,19.6-1.1,4.96-3.84,9.77-7.94,13.91-7.34,7.41-18.98,9.45-28.34,11.09-2.12.37-4.76-.07-5.81-2.44-.49-1.12-.52-2.36-.08-3.49.43-1.11,1.25-1.99,2.33-2.49,1.86-.56,22.51-7.15,21.9-21.35-.21-4.88-1.99-7.7-7.46-15.17-.49-.66-1.42-.8-2.08-.32-.66.49-.81,1.42-.32,2.08,5.7,7.78,6.73,9.8,6.89,13.54.21,4.88-2.88,8.78-6.68,11.71v-14.12c0-.82-.67-1.49-1.49-1.49h-49.4c-.82,0-1.49.67-1.49,1.49v14.12c-3.8-2.93-6.89-6.83-6.68-11.71.16-3.73,1.19-5.76,6.89-13.54.48-.66.34-1.59-.32-2.08-.66-.48-1.59-.34-2.08.32-5.47,7.46-7.25,10.28-7.46,15.17-.61,14.2,20.04,20.78,21.9,21.35,1.08.5,1.9,1.38,2.33,2.49.44,1.14.41,2.38-.08,3.49-1.05,2.36-3.68,2.8-5.81,2.44-9.36-1.64-21-3.67-28.34-11.09-4.1-4.14-6.84-8.95-7.94-13.91ZM66.79,118.25c1.78.35,3.53.65,5.21.95.63.11,1.25.16,1.85.16,3.26,0,5.98-1.59,7.19-4.33.82-1.84.87-3.89.14-5.77-.72-1.88-2.14-3.36-3.98-4.18-.06-.03-.12-.05-.18-.07-.1-.03-5.21-1.58-10.22-4.65v-14.68h46.43v14.68c-5.01,3.07-10.12,4.62-10.22,4.65-.06.02-.12.04-.18.07-1.84.82-3.25,2.3-3.98,4.18-.73,1.88-.68,3.93.14,5.77,1.21,2.74,3.93,4.33,7.19,4.33.6,0,1.22-.05,1.85-.16,1.68-.29,3.43-.6,5.21-.95v11.49h-46.43v-11.49ZM149.16,177.03H8.68s0-44.32,0-44.32h140.48c12.22,0,22.16,9.94,22.16,22.16s-9.94,22.16-22.16,22.16Z"/>
</svg>