<?xml version="1.0" encoding="UTF-8"?>
<svg id="Supply_Chain" data-name="Supply Chain" xmlns="http://www.w3.org/2000/svg" viewBox="0 0 180 180">
  <defs>
    <style>
      .cls-1 {
        stroke: #000;
        stroke-miterlimit: 10;
        stroke-width: 2px;
      }
    </style>
  </defs>
  <path class="cls-1" d="M25.62,108.5c-1.15,0-2.08.93-2.08,2.08s.93,2.08,2.08,2.08h13.92c1.15,0,2.08-.93,2.08-2.08s-.93-2.08-2.08-2.08h-13.92Z"/>
  <path class="cls-1" d="M177.64,104.34c-1.15,0-2.08.93-2.08,2.08v22.17H4.16V61.35c0-3.44,2.8-6.23,6.23-6.23h96.33c1.15,0,2.08-.93,2.08-2.08s-.93-2.08-2.08-2.08H10.39c-5.73,0-10.39,4.66-10.39,10.39v107.87c0,5.73,4.66,10.39,10.39,10.39h158.94c5.73,0,10.39-4.66,10.39-10.39v-62.8c0-1.15-.93-2.08-2.08-2.08ZM175.57,132.74v21.57H4.16v-21.57h171.41ZM169.33,175.45H10.39c-3.44,0-6.23-2.8-6.23-6.23v-10.75h171.41v10.75c0,3.44-2.8,6.23-6.23,6.23Z"/>
  <path class="cls-1" d="M155.43,102.66c-.81.81-.81,2.13,0,2.94.41.41.94.61,1.47.61s1.06-.2,1.47-.61c28.84-28.84,28.84-75.76,0-104.6-.81-.81-2.13-.81-2.94,0-.81.81-.81,2.13,0,2.94,27.22,27.22,27.22,71.5,0,98.72Z"/>
  <path class="cls-1" d="M137.82,87.99c.41.41.94.61,1.47.61s1.06-.2,1.47-.61c9.25-9.25,14.35-21.57,14.35-34.69,0-13.12-5.1-25.44-14.35-34.69-.81-.81-2.13-.81-2.94,0-.81.81-.81,2.13,0,2.94,8.47,8.47,13.13,19.75,13.13,31.75s-4.66,23.29-13.13,31.75c-.81.81-.81,2.13,0,2.94Z"/>
  <path class="cls-1" d="M120.22,70.38c.41.41.94.61,1.47.61s1.06-.2,1.47-.61c4.56-4.56,7.08-10.63,7.08-17.09s-2.51-12.52-7.08-17.09c-.81-.81-2.13-.81-2.94,0-.81.81-.81,2.13,0,2.94,7.8,7.8,7.8,20.49,0,28.29-.81.81-.81,2.13,0,2.94Z"/>
</svg>