<?xml version="1.0" encoding="UTF-8"?>
<svg id="Supply_Chain" data-name="Supply Chain" xmlns="http://www.w3.org/2000/svg" viewBox="0 0 180 180">
  <defs>
    <style>
      .cls-1 {
        stroke: #000;
        stroke-miterlimit: 10;
        stroke-width: 2px;
      }
    </style>
  </defs>
  <path class="cls-1" d="M97.64,144.58h-15.29c-1.02,0-1.85-.83-1.85-1.84v-7.74c-11.94-4.04-20.17-15.4-20.17-28.09,0-1.02.83-1.85,1.85-1.85h15.29c1.02,0,1.85.83,1.85,1.85,0,5.89,4.79,10.67,10.67,10.67,2.98,0,5.88-1.23,7.94-3.37,1.86-1.93,2.84-4.4,2.74-6.95-.22-5.84-3.97-8.43-13.13-13.38-8.38-4.52-21.04-11.36-21.1-26.83-.03-6,2.55-12.03,7.05-16.56,2.07-2.08,4.43-3.74,7.01-4.93v-8.28c0-1.02.83-1.85,1.85-1.85h15.29c1.02,0,1.85.83,1.85,1.85v8.18c8.46,3.74,14.05,12.24,14.05,21.54,0,1.02-.83,1.85-1.85,1.85h-15.29c-1.02,0-1.85-.83-1.85-1.85,0-2.52-2.05-4.57-4.57-4.57-1.4,0-2.51.9-3.05,1.44-.91.92-1.53,2.16-1.52,3.09.02,3.66,2.52,5.56,11.14,10.21,8.94,4.82,22.44,12.12,23.08,29.37h0c.29,7.75-2.57,15.15-8.04,20.83-3.34,3.46-7.5,6.08-12.11,7.62v7.74c0,1.02-.83,1.84-1.85,1.84ZM84.2,140.88h11.6v-7.26c0-.83.55-1.55,1.34-1.78,4.52-1.28,8.6-3.72,11.8-7.04,4.77-4.95,7.26-11.39,7.01-18.13h0c-.56-15.15-11.97-21.31-21.14-26.26-8.33-4.5-13.05-7.34-13.08-13.45,0-1.93.96-4.06,2.6-5.71.94-.94,2.93-2.53,5.66-2.53,3.92,0,7.21,2.75,8.05,6.42h11.72c-.71-7.46-5.66-14.05-12.77-16.74-.72-.27-1.19-.96-1.19-1.73v-7.58h-11.6v7.65c0,.76-.46,1.44-1.16,1.71-2.57,1.02-4.9,2.57-6.92,4.6-3.82,3.84-6,8.92-5.98,13.94.06,13.28,10.65,19,19.16,23.6,9.14,4.94,14.76,8.37,15.06,16.49.13,3.56-1.21,6.99-3.77,9.65-2.76,2.86-6.62,4.5-10.6,4.5-7.3,0-13.34-5.47-14.25-12.52h-11.65c.78,10.76,8.27,20.11,18.77,23.11.79.23,1.34.95,1.34,1.77v7.25Z"/>
  <path class="cls-1" d="M28.71,63.68c-.51,0-1.02-.22-1.37-.61L.47,33.07c-.63-.7-.63-1.76,0-2.46L27.34.61c.51-.57,1.32-.77,2.03-.49.71.27,1.19.96,1.19,1.72v13.04h73.37c1.02,0,1.85.83,1.85,1.85s-.83,1.84-1.85,1.84H28.71c-1.02,0-1.85-.83-1.85-1.84V6.67L4.32,31.84l22.54,25.17v-10.06c0-1.02.83-1.85,1.85-1.85h21.04c1.02,0,1.85.83,1.85,1.85s-.83,1.85-1.85,1.85h-19.2v13.04c0,.76-.47,1.45-1.19,1.72-.21.08-.44.12-.66.12Z"/>
  <path class="cls-1" d="M151.29,180c-.22,0-.44-.04-.66-.12-.71-.27-1.19-.96-1.19-1.72v-13.04h-73.37c-1.02,0-1.85-.83-1.85-1.85s.83-1.85,1.85-1.85h75.21c1.02,0,1.85.83,1.85,1.85v10.06l22.54-25.17-22.54-25.17v10.06c0,1.02-.83,1.85-1.85,1.85h-17.03c-1.02,0-1.85-.83-1.85-1.85s.83-1.85,1.85-1.85h15.19v-13.04c0-.76.47-1.45,1.19-1.72.71-.27,1.52-.08,2.03.49l26.86,29.99c.63.7.63,1.76,0,2.46l-26.86,29.99c-.36.4-.86.61-1.37.61Z"/>
</svg>