<?xml version="1.0" encoding="UTF-8"?>
<svg id="Supply_Chain" data-name="Supply Chain" xmlns="http://www.w3.org/2000/svg" viewBox="0 0 180 180">
  <defs>
    <style>
      .cls-1 {
        stroke: #000;
        stroke-miterlimit: 10;
        stroke-width: 2px;
      }
    </style>
  </defs>
  <path class="cls-1" d="M171.15,105.25l-23.63-12.93-14.82-37.53c-.22-.56-.76-.93-1.37-.93h-5.96c-8.04-29.32-37.46-31.77-44.54-31.93v-11.75c0-.81-.66-1.47-1.47-1.47H28.85c-.81,0-1.47.66-1.47,1.47s.66,1.47,1.47,1.47h49.06v141.41H18.89c-.81,0-1.47.66-1.47,1.47s.66,1.47,1.47,1.47h102.99c3.48,8.93,12.18,15.28,22.33,15.28s18.84-6.35,22.33-15.28h11.99c.81,0,1.47-.66,1.47-1.47v-33.95c0-10.54-4.3-12.87-8.85-15.34ZM98.25,28.18c12.36,4.62,20.44,13.27,24.07,25.68h-41.47v-28.99c2.89.05,9.89.5,17.4,3.31ZM144.21,168.35c-11.59,0-21.02-9.43-21.02-21.02s9.43-21.02,21.02-21.02,21.02,9.43,21.02,21.02-9.43,21.02-21.02,21.02ZM177.06,153.06h-9.58c.45-1.84.7-3.76.7-5.74,0-13.21-10.75-23.96-23.96-23.96s-23.96,10.75-23.96,23.96c0,1.98.25,3.9.7,5.74h-40.1V56.8h49.49l13.85,35.08h-45.63v-18.07c0-.81-.66-1.47-1.47-1.47s-1.47.66-1.47,1.47v19.54c0,.81.66,1.47,1.47,1.47h48.89l23.77,13.01c4.24,2.3,7.31,3.97,7.31,12.76v32.48Z"/>
  <path class="cls-1" d="M106.72,106.79h-9.8c-.81,0-1.47.66-1.47,1.47s.66,1.47,1.47,1.47h9.8c.81,0,1.47-.66,1.47-1.47s-.66-1.47-1.47-1.47Z"/>
  <path class="cls-1" d="M13.23,42.62h31.24c.81,0,1.47-.66,1.47-1.47s-.66-1.47-1.47-1.47H13.23c-.81,0-1.47.66-1.47,1.47s.66,1.47,1.47,1.47Z"/>
  <path class="cls-1" d="M1.47,62.75h31.24c.81,0,1.47-.66,1.47-1.47s-.66-1.47-1.47-1.47H1.47c-.81,0-1.47.66-1.47,1.47s.66,1.47,1.47,1.47Z"/>
  <path class="cls-1" d="M44.47,79.93H13.23c-.81,0-1.47.66-1.47,1.47s.66,1.47,1.47,1.47h31.24c.81,0,1.47-.66,1.47-1.47s-.66-1.47-1.47-1.47Z"/>
  <path class="cls-1" d="M34.18,101.52c0-.81-.66-1.47-1.47-1.47H1.47c-.81,0-1.47.66-1.47,1.47s.66,1.47,1.47,1.47h31.24c.81,0,1.47-.66,1.47-1.47Z"/>
  <path class="cls-1" d="M45.94,121.64c0-.81-.66-1.47-1.47-1.47H13.23c-.81,0-1.47.66-1.47,1.47s.66,1.47,1.47,1.47h31.24c.81,0,1.47-.66,1.47-1.47Z"/>
</svg>