<?xml version="1.0" encoding="UTF-8"?>
<svg id="Supply_Chain" data-name="Supply Chain" xmlns="http://www.w3.org/2000/svg" viewBox="0 0 180 180">
  <defs>
    <style>
      .cls-1 {
        stroke: #000;
        stroke-miterlimit: 10;
        stroke-width: 2px;
      }
    </style>
  </defs>
  <path class="cls-1" d="M48.75,39.83c.28,0,.57-.08.82-.25,2.23-1.5,4.64-2.67,7.19-3.48.78-.25,1.2-1.08.95-1.86-.25-.77-1.08-1.21-1.86-.95-2.81.9-5.47,2.19-7.93,3.84-.68.45-.86,1.37-.4,2.05.28.42.75.65,1.23.65Z"/>
  <path class="cls-1" d="M99.94,92.03h-8.43c-.82,0-1.48.66-1.48,1.48s.66,1.48,1.48,1.48h8.43c.82,0,1.48-.66,1.48-1.48s-.66-1.48-1.48-1.48Z"/>
  <path class="cls-1" d="M71.49,93.5c0,.82.66,1.48,1.48,1.48h8.43c.82,0,1.48-.66,1.48-1.48s-.66-1.48-1.48-1.48h-8.43c-.82,0-1.48.66-1.48,1.48Z"/>
  <path class="cls-1" d="M84.82,34.74h8.43c.82,0,1.48-.66,1.48-1.48s-.66-1.48-1.48-1.48h-8.43c-.82,0-1.48.66-1.48,1.48s.66,1.48,1.48,1.48Z"/>
  <path class="cls-1" d="M36.85,54.01c.17.07.35.1.53.1.59,0,1.15-.36,1.38-.95.95-2.5,2.26-4.85,3.87-6.99.49-.65.36-1.58-.29-2.07-.65-.49-1.58-.36-2.07.29-1.78,2.36-3.21,4.96-4.27,7.71-.29.76.09,1.61.85,1.9Z"/>
  <path class="cls-1" d="M39.62,78.83c-.68.45-.86,1.37-.41,2.05,1.64,2.46,3.61,4.67,5.86,6.58.28.24.62.35.95.35.42,0,.83-.18,1.12-.52.53-.62.45-1.55-.17-2.08-2.04-1.74-3.83-3.75-5.31-5.97-.45-.68-1.37-.86-2.05-.41Z"/>
  <path class="cls-1" d="M53.29,90.95c-.29.76.08,1.61.84,1.91,2.75,1.06,5.64,1.73,8.59,1.99.04,0,.09,0,.13,0,.76,0,1.4-.58,1.47-1.35.07-.81-.53-1.53-1.34-1.6-2.67-.23-5.29-.84-7.78-1.8-.76-.29-1.61.08-1.91.84Z"/>
  <path class="cls-1" d="M66.27,34.74h8.43c.82,0,1.48-.66,1.48-1.48s-.66-1.48-1.48-1.48h-8.43c-.82,0-1.48.66-1.48,1.48s.66,1.48,1.48,1.48Z"/>
  <path class="cls-1" d="M36.33,72.34c.12,0,.24-.01.37-.05.79-.2,1.27-1.01,1.06-1.79-.59-2.31-.89-4.71-.89-7.12,0-.28,0-.55.01-.83.02-.81-.62-1.49-1.43-1.52-.82-.04-1.49.62-1.52,1.43,0,.3-.01.61-.01.91,0,2.66.33,5.3.98,7.85.17.67.77,1.11,1.43,1.11Z"/>
  <path class="cls-1" d="M172.46,102.11c-1.97-2.22-4.24-4.13-6.76-5.68-.7-.43-1.6-.21-2.03.48-.43.69-.21,1.6.49,2.03,2.27,1.4,4.33,3.12,6.1,5.12.29.33.7.5,1.11.5.35,0,.7-.12.98-.37.61-.54.67-1.47.13-2.08Z"/>
  <path class="cls-1" d="M165.96,143.59c-2.16,1.58-4.53,2.82-7.05,3.7-.77.27-1.18,1.11-.91,1.88.21.61.78.99,1.39.99.16,0,.32-.03.48-.08,2.8-.97,5.43-2.35,7.82-4.1.66-.48.8-1.4.32-2.06-.48-.66-1.41-.8-2.06-.32Z"/>
  <path class="cls-1" d="M149.45,148.76h-8.43c-.82,0-1.48.66-1.48,1.48s.66,1.48,1.48,1.48h8.43c.82,0,1.48-.66,1.48-1.48s-.66-1.48-1.48-1.48Z"/>
  <path class="cls-1" d="M155.83,92.58c-1.88-.37-3.81-.55-5.74-.55h-2.94c-.82,0-1.48.66-1.48,1.48s.66,1.48,1.48,1.48h2.94c1.74,0,3.48.17,5.17.5.1.02.19.03.28.03.69,0,1.31-.49,1.45-1.19.16-.8-.37-1.58-1.17-1.73Z"/>
  <path class="cls-1" d="M177.74,128.47c-.78-.23-1.6.22-1.83,1-.75,2.56-1.88,4.99-3.36,7.22-.45.68-.26,1.6.42,2.05.25.17.53.24.81.24.48,0,.95-.23,1.23-.66,1.64-2.48,2.89-5.17,3.73-8.01.23-.78-.22-1.6-1-1.83Z"/>
  <path class="cls-1" d="M176.05,110.31c-.76.29-1.14,1.15-.85,1.91.96,2.49,1.53,5.1,1.72,7.77.05.78.7,1.37,1.47,1.37.03,0,.07,0,.1,0,.81-.06,1.43-.76,1.37-1.57-.21-2.96-.85-5.87-1.91-8.63-.29-.76-1.15-1.14-1.91-.85Z"/>
  <path class="cls-1" d="M118.49,92.03h-8.43c-.82,0-1.48.66-1.48,1.48s.66,1.48,1.48,1.48h8.43c.82,0,1.48-.66,1.48-1.48s-.66-1.48-1.48-1.48Z"/>
  <path class="cls-1" d="M112.36,148.76h-8.43c-.82,0-1.48.66-1.48,1.48s.66,1.48,1.48,1.48h8.43c.82,0,1.48-.66,1.48-1.48s-.66-1.48-1.48-1.48Z"/>
  <path class="cls-1" d="M137.04,92.03h-8.43c-.82,0-1.48.66-1.48,1.48s.66,1.48,1.48,1.48h8.43c.82,0,1.48-.66,1.48-1.48s-.66-1.48-1.48-1.48Z"/>
  <path class="cls-1" d="M130.91,148.76h-8.43c-.82,0-1.48.66-1.48,1.48s.66,1.48,1.48,1.48h8.43c.82,0,1.48-.66,1.48-1.48s-.66-1.48-1.48-1.48Z"/>
  <path class="cls-1" d="M108.02,14.6v48.72c0,.82.66,1.48,1.48,1.48h60.9c.82,0,1.48-.66,1.48-1.48V14.6c1.95,1.6,3.81,3.36,5.56,5.27.29.32.69.48,1.09.48.36,0,.71-.13,1-.39.6-.55.64-1.49.09-2.08C169.02,6.35,154.94,0,139.95,0s-29.08,6.35-39.66,17.87c-.55.6-.51,1.53.09,2.08.6.55,1.53.51,2.08-.09,1.76-1.91,3.62-3.66,5.56-5.27ZM126.83,61.84v-24.2h26.24v24.2h-26.24ZM168.92,12.33v49.51h-12.9v-25.68c0-.82-.66-1.48-1.48-1.48h-29.19c-.82,0-1.48.66-1.48,1.48v25.68h-12.9V12.33c8.55-6.1,18.53-9.38,28.97-9.38s20.43,3.28,28.98,9.38Z"/>
  <path class="cls-1" d="M92.17,163.01h-4.35v-28.37c0-.82-.66-1.48-1.48-1.48h-45.44l-4.62-34.6c-.1-.73-.72-1.28-1.46-1.28h-17.09c-.74,0-1.36.55-1.46,1.28l-8.61,64.44H1.48C.66,163.01,0,163.67,0,164.48v14.04C0,179.34.66,180,1.48,180h90.7c.82,0,1.48-.66,1.48-1.48v-14.04c0-.82-.66-1.48-1.48-1.48ZM84.87,136.12v12.37h-26.58c-.82,0-1.48.66-1.48,1.48s.66,1.48,1.48,1.48h26.58v11.57h-39.97l-3.59-26.89h43.57ZM19.02,100.24h14.51l8.39,62.77H10.63l8.39-62.77ZM90.7,177.05H2.95v-11.09h87.75v11.09Z"/>
</svg>