<?xml version="1.0" encoding="UTF-8"?>
<svg id="Supply_Chain" data-name="Supply Chain" xmlns="http://www.w3.org/2000/svg" viewBox="0 0 180 180">
  <defs>
    <style>
      .cls-1 {
        stroke: #000;
        stroke-miterlimit: 10;
        stroke-width: 2px;
      }
    </style>
  </defs>
  <path class="cls-1" d="M177.51,152.82l-15.01-9.72c-.4-.26-.89-.31-1.34-.15l-31.92,11.62c-1.97-4.24-5.45-7.5-9.83-9.18-3.61-1.38-7.47-1.54-11.13-.52l-16.25-44.65c.76-.7,1.38-1.52,1.77-2.42,1.44-3.33-.46-8.34-3.8-10.09l-3.16-1.75-7.71-21.19c-.29-.78-1.15-1.19-1.94-.9-.78.29-1.19,1.15-.9,1.94l6.53,17.93-15.79-8.74-6.78-29.25c10.75-1.95,18.92-11.38,18.92-22.68,0-12.71-10.34-23.06-23.06-23.06s-23.06,10.34-23.06,23.06c0,3.92.99,7.62,2.72,10.86-2.1,1.9-4.32,4.24-6.51,7.1-7.48,9.83-15.77,27.92-12.8,58.23.93,9.46,3.73,32.19,4.19,35.95l-17.53,28.33s-.04.06-.05.09c-2.87,5.45-.77,12.22,4.69,15.09,1.6.84,3.4,1.29,5.19,1.29,4.15,0,7.93-2.27,9.87-5.93l19.82-32.61s.03-.05.05-.08c.74-1.41,1.17-2.94,1.27-4.53.06-.85,1.6-10.38,2.94-18.5l10.99,19.93-2.36,27.83c-1.48,5.92,2.08,11.96,8,13.52.93.25,1.89.37,2.85.37,5.07,0,9.51-3.43,10.8-8.33.02-.07.03-.15.04-.22l3.51-32.55c2.08-8.73-2.18-16.68-7.1-25.88-2.7-5.04-5.65-10.59-7.97-17l18.94,6.23c.57.2,1.18.29,1.81.29.99,0,2.02-.23,3-.65l16.02,44.02c-4.23,1.97-7.47,5.44-9.14,9.81-1.71,4.47-1.57,9.33.38,13.69,2.97,6.64,9.52,10.59,16.36,10.59,2.44,0,4.91-.5,7.27-1.56,8.15-3.64,12.23-12.67,9.95-21.03l31.22-11.36,14.38,9.32c.7.45,1.64.25,2.09-.45.45-.7.25-1.64-.45-2.09ZM56.12,3.02c11.05,0,20.04,8.99,20.04,20.03s-8.99,20.04-20.04,20.04-20.04-8.99-20.04-20.04S45.07,3.02,56.12,3.02ZM85.58,99.38l-29.4-9.66c-1.23-.43-2.22-1.32-2.79-2.51l-14.81-30.46c-.37-.75-1.27-1.06-2.02-.7-.75.37-1.06,1.27-.7,2.02l14.8,30.45c.91,1.91,2.52,3.35,4.54,4.06l6.84,2.25c2.48,7.52,5.87,13.89,8.93,19.61,4.84,9.05,8.67,16.19,6.8,23.84-.02.06-.03.13-.03.2l-3.51,32.53c-.98,3.52-4.19,5.98-7.85,5.98-.7,0-1.4-.09-2.08-.27-4.35-1.14-6.95-5.61-5.81-9.96.02-.08.04-.17.04-.26l2.41-28.41c.02-.3-.04-.6-.18-.86l-13.31-24.15c-.31-.56-.95-.87-1.58-.76-.63.11-1.13.61-1.24,1.24-.37,2.22-3.61,21.72-3.69,23.11-.07,1.15-.37,2.25-.9,3.27l-19.82,32.61s-.03.05-.05.08c-1.41,2.69-4.18,4.36-7.22,4.36-1.33,0-2.6-.32-3.79-.94-3.96-2.09-5.5-7-3.44-10.97l17.78-28.74c.18-.29.26-.64.21-.98-.03-.26-3.24-26.17-4.25-36.41-2.86-29.21,4.99-46.55,12.08-55.94,1.95-2.59,3.95-4.72,5.85-6.48,4.19,5.8,11.01,9.59,18.7,9.59.37,0,.74-.01,1.11-.03l7.01,30.24c.1.42.37.77.74.98l23.59,13.06c1.96,1.03,3.27,4.35,2.46,6.23-.82,1.9-3.7,3.39-5.44,2.78ZM119.09,175.68c-7.49,3.34-16.3-.02-19.65-7.51-1.62-3.63-1.73-7.67-.31-11.38,1.42-3.71,4.2-6.65,7.82-8.27,3.63-1.62,7.67-1.73,11.38-.31,3.71,1.42,6.65,4.2,8.27,7.82,3.35,7.49-.02,16.3-7.51,19.65Z"/>
  <path class="cls-1" d="M103.49,102.43c.14.38.42.68.78.85.2.09.42.14.64.14.17,0,.35-.03.52-.09l46.61-16.97c.78-.29,1.19-1.15.9-1.94l-11.37-31.23c-.14-.38-.42-.68-.78-.85-.36-.17-.78-.19-1.16-.05l-46.61,16.97c-.78.29-1.19,1.15-.9,1.94l11.37,31.23ZM139.25,55.65l10.33,28.39-43.77,15.93-10.33-28.39,43.77-15.93Z"/>
  <path class="cls-1" d="M107.95,114.68l7.17,19.7c.29.78,1.15,1.19,1.94.9.78-.29,1.19-1.15.9-1.94l-6.65-18.28,43.77-15.93,10.34,28.39-33.63,12.24c-.78.29-1.19,1.15-.9,1.94.22.61.8.99,1.42.99.17,0,.35-.03.52-.09l35.05-12.76c.38-.14.68-.42.85-.78.17-.36.19-.78.05-1.16l-11.37-31.23c-.29-.78-1.15-1.19-1.94-.9l-46.61,16.97c-.78.29-1.19,1.15-.9,1.94Z"/>
</svg>