<?xml version="1.0" encoding="UTF-8"?>
<svg id="Supply_Chain" data-name="Supply Chain" xmlns="http://www.w3.org/2000/svg" viewBox="0 0 180 180">
  <defs>
    <style>
      .cls-1 {
        stroke: #000;
        stroke-miterlimit: 10;
        stroke-width: 2px;
      }
    </style>
  </defs>
  <path class="cls-1" d="M178.13,176.74h-71.42L8.21,142.63c.31-1.98,1.31-6.02,4.59-8.57,3.07-2.39,7.48-2.98,13.12-1.76,30.9,6.69,47.92,9.57,52.12,10.25,1.87,5.88,7.37,10.15,13.86,10.15h46.14c.9,0,1.63-.73,1.63-1.63s-.73-1.63-1.63-1.63h-46.14c-6.22,0-11.29-5.06-11.29-11.29s5.06-11.29,11.29-11.29h46.15c.37,0,21.85.2,38.82,21.02.57.7,1.59.8,2.29.23.7-.57.8-1.59.23-2.29-18.06-22.16-40.4-22.21-41.36-22.22h-46.14c-8.02,0-14.54,6.52-14.54,14.54,0,.33.03.66.05.99-5.61-.93-22.26-3.85-50.8-10.02-6.64-1.44-11.97-.63-15.83,2.39-5.64,4.41-5.93,11.87-5.94,12.18-.02.71.42,1.35,1.09,1.59l99.99,34.63c.17.06.35.09.53.09h71.69c.9,0,1.63-.73,1.63-1.63s-.73-1.63-1.63-1.63Z"/>
  <path class="cls-1" d="M22.44,65.23c10.93,13.91,26.86,14.6,27.59,14.62h30.36c4.78,12.77,17.11,21.89,31.53,21.89,18.56,0,33.66-15.1,33.66-33.66,0-15.88-11.05-29.21-25.86-32.74-2.86-5.6-6.16-12.02-9.54-18.55C102.12,1.26,92.4,0,81.46,0H1.87C.97,0,.24.73.24,1.63s.73,1.63,1.63,1.63h79.6c10.21,0,18.6,1.11,25.82,15.04,2.95,5.69,5.83,11.29,8.41,16.34-1.24-.14-2.5-.22-3.78-.22-11.3,0-21.32,5.61-27.42,14.18h-21.89c1.24-4,4.9-12.78,13.12-12.78.07,0,.13,0,.2,0,.89,0,1.61-.71,1.63-1.6.01-.9-.7-1.64-1.6-1.65-.08,0-.16,0-.24,0-13.25,0-16.68,16.64-16.82,17.35-.09.48.03.97.34,1.35.31.38.77.59,1.26.59h30.78c6.82,0,12.37,5.55,12.37,12.37s-5.55,12.37-12.37,12.37h-41.18c-.15,0-15.12-.69-25.08-13.37C14.26,49.55,2.92,45.1,2.45,44.92c-.84-.32-1.78.1-2.1.94-.32.84.1,1.78.93,2.1.11.04,11.01,4.36,21.15,17.27ZM106.89,64.22c0-8.62-7.01-15.62-15.63-15.62h-2.66c5.58-6.67,13.95-10.93,23.31-10.93,16.77,0,30.41,13.64,30.41,30.41s-13.64,30.41-30.41,30.41c-12.59,0-23.4-7.7-28.01-18.64h7.36c8.62,0,15.63-7.01,15.63-15.62Z"/>
</svg>