<?xml version="1.0" encoding="UTF-8"?>
<svg id="Supply_Chain" data-name="Supply Chain" xmlns="http://www.w3.org/2000/svg" viewBox="0 0 180 180">
  <defs>
    <style>
      .cls-1 {
        stroke: #000;
        stroke-miterlimit: 10;
        stroke-width: 2px;
      }
    </style>
  </defs>
  <path class="cls-1" d="M27.05,100.62h125.9c.9,0,1.63-.73,1.63-1.63v-33.57c0-.9-.73-1.63-1.63-1.63H27.05c-.9,0-1.63.73-1.63,1.63v33.57c0,.9.73,1.63,1.63,1.63ZM28.68,83.84h38.71v13.53H28.68v-13.53ZM109.35,83.84v13.53h-38.71v-13.53h38.71ZM70.64,80.58v-13.53h38.71v13.53h-38.71ZM112.61,97.37v-13.53h38.71v13.53h-38.71ZM151.32,80.58h-38.71v-13.53h38.71v13.53ZM67.39,67.05v13.53H28.68v-13.53h38.71Z"/>
  <path class="cls-1" d="M178.37,42.37c.9,0,1.63-.73,1.63-1.63v-10.05c0-.7-.45-1.33-1.12-1.55L90.51.08c-.33-.11-.69-.11-1.02,0L1.12,29.14c-.67.22-1.12.84-1.12,1.55v10.05c0,.9.73,1.63,1.63,1.63h7.01v115.77H1.63c-.9,0-1.63.73-1.63,1.63v18.6c0,.9.73,1.63,1.63,1.63h176.74c.9,0,1.63-.73,1.63-1.63v-18.6c0-.9-.73-1.63-1.63-1.63h-7.01V42.37h7.01ZM3.26,31.87L90,3.34l86.74,28.53v7.25H3.26v-7.25ZM176.74,176.74H3.26v-15.35h173.49v15.35ZM76.93,158.14H28.68v-24.86h48.25v24.86ZM151.32,158.14h-48.25v-24.86h48.25v24.86ZM168.11,158.14h-13.53v-26.49c0-.9-.73-1.63-1.63-1.63h-51.51c-.9,0-1.63.73-1.63,1.63v26.49h-19.62v-26.49c0-.9-.73-1.63-1.63-1.63H27.05c-.9,0-1.63.73-1.63,1.63v26.49h-13.53V42.37h156.21v115.77Z"/>
  <path class="cls-1" d="M82.73,26.64h14.55c.9,0,1.63-.73,1.63-1.63s-.73-1.63-1.63-1.63h-14.55c-.9,0-1.63.73-1.63,1.63s.73,1.63,1.63,1.63Z"/>
</svg>