<?xml version="1.0" encoding="UTF-8"?>
<svg id="Supply_Chain" data-name="Supply Chain" xmlns="http://www.w3.org/2000/svg" viewBox="0 0 180 180">
  <defs>
    <style>
      .cls-1 {
        stroke: #000;
        stroke-miterlimit: 10;
        stroke-width: 2px;
      }
    </style>
  </defs>
  <path class="cls-1" d="M178.42,4.84h-55.11c-.87,0-1.58.71-1.58,1.58v55.11c0,.87.71,1.58,1.58,1.58h20.57c-10.06,15.04-23.49,31.09-39,46.61-19.81,19.81-40.56,36.26-58.45,46.33-17.09,9.62-29.72,12.3-34.67,7.35-3.47-3.47-2.56-10.18-1.18-15.2.23-.84-.26-1.71-1.11-1.94-.84-.23-1.71.27-1.94,1.11-2.32,8.48-1.65,14.63,2,18.27,2.21,2.21,5.4,3.3,9.46,3.3,7.18,0,17.06-3.42,28.99-10.13,18.13-10.21,39.13-26.85,59.14-46.85,16.27-16.26,30.27-33.13,40.56-48.84h30.75c.87,0,1.58-.71,1.58-1.58V6.42c0-.87-.71-1.58-1.58-1.58ZM156.32,8v16.71h-10.91V8h10.91ZM176.84,59.95h-51.95V8h17.35v18.29c0,.87.71,1.58,1.58,1.58h14.08c.87,0,1.58-.71,1.58-1.58V8h17.35v51.95Z"/>
  <path class="cls-1" d="M166.1,69.03c-.85.2-1.37,1.05-1.17,1.9,1.36,5.71,2.1,11.59,2.21,17.49h-30.05c-.87,0-1.58.71-1.58,1.58s.71,1.58,1.58,1.58h30.05c-.26,13.92-4.01,27-10.41,38.4h-29.97c2.81-9.65,4.64-20.44,5.23-31.98.04-.87-.63-1.62-1.5-1.66-.86-.05-1.62.63-1.66,1.5-.59,11.59-2.51,22.47-5.45,32.14h-26.12c-.87,0-1.58.71-1.58,1.58s.71,1.58,1.58,1.58h25.11c-7.57,22.51-20.81,37.76-35.62,38.78v-30c0-.87-.71-1.58-1.58-1.58s-1.58.71-1.58,1.58v30.02c-7.76-.53-15.29-4.91-21.88-12.76-.56-.67-1.56-.76-2.23-.19-.67.56-.76,1.56-.19,2.23,3.31,3.94,6.85,7.07,10.56,9.36-6.47-1.22-12.76-3.23-18.82-6-.79-.36-1.73-.02-2.1.78-.36.79-.02,1.73.78,2.1,11.16,5.12,23.09,7.71,35.46,7.71,46.96,0,85.16-38.2,85.16-85.16,0-6.68-.78-13.34-2.32-19.8-.2-.85-1.06-1.38-1.9-1.17ZM100.57,170.54c10.67-6.61,19.6-19.94,25.22-37.4h29.07c-11.88,19.13-31.42,33.03-54.29,37.4Z"/>
  <path class="cls-1" d="M30.99,155.71c.29.24.65.36,1.01.36.46,0,.91-.2,1.22-.57.56-.67.46-1.67-.21-2.23-7.02-5.79-12.93-12.61-17.59-20.13h29.24c1.39,4.29,3,8.37,4.81,12.19.27.57.84.9,1.43.9.23,0,.46-.05.68-.15.79-.37,1.13-1.32.75-2.11-1.61-3.4-3.05-7.03-4.33-10.83h21.2c.87,0,1.58-.71,1.58-1.58s-.71-1.58-1.58-1.58h-22.21c-3.54-11.68-5.5-24.85-5.66-38.4h42.26v26.55c0,.87.71,1.58,1.58,1.58s1.58-.71,1.58-1.58v-26.55h26.56c.87,0,1.58-.71,1.58-1.58s-.71-1.58-1.58-1.58h-26.56v-38.63h27.53c.87,0,1.58-.71,1.58-1.58s-.71-1.58-1.58-1.58h-27.53V8.04c.65.01,1.3.02,1.95.04,8.96,1.38,17.57,7.95,24.56,18.87.47.73,1.45.95,2.18.48.74-.47.95-1.45.48-2.18-4.42-6.91-9.5-12.21-14.94-15.7,4.33.85,8.59,2.03,12.75,3.57.82.3,1.73-.11,2.03-.93.3-.82-.11-1.73-.93-2.03-9.49-3.53-19.47-5.31-29.66-5.31C38.2,4.84,0,43.04,0,90c0,25.51,11.3,49.46,30.99,65.71ZM43.67,129.98H13.55c-6.49-11.61-10.11-24.75-10.37-38.4h34.97c.16,13.5,2.06,26.65,5.52,38.4ZM13.72,49.79h29.87c-3.45,11.77-5.32,24.94-5.44,38.63H3.18c.27-14.01,4.06-27.17,10.54-38.63ZM83.58,88.42h-42.27c.12-14,2.13-27.16,5.58-38.63h36.69v38.63ZM47.89,46.63c7.14-21.46,19.42-36.33,33.61-38.54.69-.03,1.39-.05,2.09-.07v38.61h-35.69ZM69.26,9.55c-6.58,4.24-12.59,11.13-17.62,20.39-2.76,5.08-5.12,10.68-7.07,16.69H15.6C27.41,27.75,46.69,14.01,69.26,9.55Z"/>
</svg>