<?xml version="1.0" encoding="UTF-8"?>
<svg id="Supply_Chain" data-name="Supply Chain" xmlns="http://www.w3.org/2000/svg" viewBox="0 0 180 180">
  <defs>
    <style>
      .cls-1 {
        stroke: #000;
        stroke-miterlimit: 10;
        stroke-width: 2px;
      }
    </style>
  </defs>
  <path class="cls-1" d="M180,90c0-7.37-5.9-13.38-13.22-13.59C160.26,36.56,125.62,6.05,83.95,6.05,37.66,6.05,0,43.71,0,90s37.66,83.95,83.95,83.95c41.66,0,76.31-30.51,82.83-70.36,7.32-.21,13.22-6.22,13.22-13.59ZM163.74,76.65c-5.76,1.14-10.21,5.92-10.87,11.83h-22.6c-.13-13.54-2-26.56-5.44-38.18h29.61c4.54,8.03,7.73,16.92,9.3,26.35ZM83.95,38.21c5.83,0,10.57,4.74,10.57,10.57s-4.74,10.57-10.57,10.57-10.57-4.74-10.57-10.57,4.74-10.57,10.57-10.57ZM85.47,91.52h41.77c-.14,13.76-2.12,26.69-5.5,37.96h-36.27v-37.96ZM85.47,88.48v-26.18c6.29-.7,11.3-5.71,12-12h24.2c3.43,11.32,5.43,24.33,5.57,38.18h-41.77ZM152.63,47.26h-28.74c-1.91-5.86-4.22-11.32-6.92-16.28-5.13-9.43-11.28-16.37-18.02-20.5,22.6,4.26,41.9,17.93,53.67,36.78ZM120.71,47.26h-23.23c-.7-6.29-5.71-11.3-12-12V9.14c14.85.96,27.83,15.97,35.24,38.13ZM82.44,35.26c-6.29.7-11.3,5.71-12,12h-23.23c7.4-22.15,20.38-37.16,35.24-38.13v26.12ZM68.95,10.48c-6.74,4.13-12.9,11.07-18.02,20.5-2.69,4.96-5.01,10.42-6.92,16.28H15.27C27.05,28.42,46.35,14.74,68.95,10.48ZM13.47,50.3h29.61c-3.43,11.62-5.31,24.64-5.44,38.18H3.06c.26-13.85,4.01-26.86,10.41-38.18ZM3.06,91.52h34.58c.09,9.26,1.01,18.26,2.67,26.76-4.68,1.78-8.14,6.05-8.71,11.2H13.34c-6.33-11.27-10.03-24.2-10.29-37.96ZM45.12,141.57c-5.83,0-10.57-4.74-10.57-10.57s4.74-10.57,10.57-10.57,10.57,4.74,10.57,10.57-4.74,10.57-10.57,10.57ZM15.13,132.51h16.46c.76,6.79,6.53,12.09,13.52,12.09,1.17,0,2.3-.16,3.39-.44.77,1.66,1.57,3.29,2.42,4.86,5.13,9.43,11.28,16.37,18.02,20.5-22.68-4.27-42.05-18.04-53.81-37ZM82.44,170.86c-12.4-.8-23.49-11.4-31.12-27.77,3.97-2.04,6.81-5.96,7.32-10.58h23.8v38.35ZM82.44,129.48h-23.8c-.76-6.79-6.53-12.09-13.52-12.09-.63,0-1.25.06-1.85.14-1.59-8.15-2.51-16.88-2.6-26.01h41.77v37.96ZM40.66,88.48c.14-13.85,2.15-26.86,5.57-38.18h24.2c.7,6.29,5.71,11.3,12,12v26.18h-41.77ZM85.47,132.51h35.31c-7.39,22.28-20.4,37.38-35.31,38.35v-38.35ZM98.96,169.52c6.74-4.13,12.89-11.07,18.02-20.5,2.73-5.02,5.06-10.56,6.99-16.5h28.81c-11.76,18.96-31.13,32.73-53.81,37ZM124.9,129.48c3.39-11.57,5.24-24.51,5.37-37.96h22.6c.66,5.91,5.12,10.69,10.87,11.83-1.56,9.34-4.7,18.15-9.18,26.13h-29.66ZM166.39,100.57c-5.83,0-10.57-4.74-10.57-10.57s4.74-10.57,10.57-10.57,10.57,4.74,10.57,10.57-4.74,10.57-10.57,10.57Z"/>
</svg>