<?xml version="1.0" encoding="UTF-8"?>
<svg id="Supply_Chain" data-name="Supply Chain" xmlns="http://www.w3.org/2000/svg" viewBox="0 0 180 180">
  <defs>
    <style>
      .cls-1 {
        stroke: #000;
        stroke-miterlimit: 10;
        stroke-width: 2px;
      }
    </style>
  </defs>
  <path class="cls-1" d="M177.5,162.74h-4.5V57.2c0-.9-.73-1.63-1.63-1.63h-30.4v-17.28c0-.9-.73-1.63-1.63-1.63h-44.1c-.9,0-1.63.73-1.63,1.63v17.28h-30.93c-.9,0-1.63.73-1.63,1.63s.73,1.63,1.63,1.63h107.07v69.27h-52.45c-.9,0-1.63.73-1.63,1.63s.73,1.63,1.63,1.63h52.45v31.39h-34.96v-16.9c0-.9-.73-1.63-1.63-1.63h-31.73c-.9,0-1.63.73-1.63,1.63v16.9h-27.62v-35.42c0-.9-.73-1.63-1.63-1.63h-9.93L51.39,1.51c-.06-.85-.77-1.51-1.62-1.51h-20.36c-.85,0-1.56.66-1.62,1.51l-9.24,124.19h-9.93c-.9,0-1.63.73-1.63,1.63v35.42H2.5c-.9,0-1.63.73-1.63,1.63v14c0,.9.73,1.63,1.63,1.63h174.99c.9,0,1.63-.73,1.63-1.63v-14c0-.9-.73-1.63-1.63-1.63ZM96.87,55.58v-15.65h40.85v15.65h-40.85ZM103.06,147.48h28.47v15.27h-28.47v-15.27ZM30.92,3.26h17.33l9.11,122.44H21.82L30.92,3.26ZM10.26,128.95h58.67v33.79H10.26v-33.79ZM175.87,176.74H4.13v-10.74h171.74v10.74Z"/>
  <path class="cls-1" d="M152.77,114.73c.9,0,1.63-.73,1.63-1.63v-37.33c0-.9-.73-1.63-1.63-1.63h-70.95c-.9,0-1.63.73-1.63,1.63v37.33c0,.9.73,1.63,1.63,1.63h70.95ZM107.09,96.07h20.4v15.41h-20.4v-15.41ZM127.49,92.81h-20.4v-15.41h20.4v15.41ZM83.44,96.07h20.4v15.41h-20.4v-15.41ZM130.75,111.48v-15.41h20.4v15.41h-20.4ZM151.14,92.81h-20.4v-15.41h20.4v15.41ZM103.84,77.4v15.41h-20.4v-15.41h20.4Z"/>
</svg>