<?xml version="1.0" encoding="UTF-8"?>
<svg id="Supply_Chain" data-name="Supply Chain" xmlns="http://www.w3.org/2000/svg" viewBox="0 0 180 180">
  <defs>
    <style>
      .cls-1 {
        stroke: #000;
        stroke-miterlimit: 10;
        stroke-width: 2px;
      }
    </style>
  </defs>
  <path class="cls-1" d="M30.56,100.89C13.71,100.89,0,114.6,0,131.45,0,156.99,28.32,178.92,29.52,179.85c.31.23.67.35,1.04.35s.73-.12,1.04-.35c1.21-.92,29.52-22.86,29.52-48.39,0-16.85-13.71-30.56-30.56-30.56ZM30.56,176.28c-5.1-4.21-27.13-23.65-27.13-44.82,0-14.96,12.17-27.13,27.13-27.13s27.13,12.17,27.13,27.13c0,21.18-22.03,40.61-27.13,44.82Z"/>
  <path class="cls-1" d="M30.56,116.8c-8.08,0-14.65,6.57-14.65,14.65s6.57,14.65,14.65,14.65,14.65-6.57,14.65-14.65-6.57-14.65-14.65-14.65ZM30.56,142.67c-6.19,0-11.22-5.03-11.22-11.22s5.03-11.22,11.22-11.22,11.22,5.03,11.22,11.22-5.03,11.22-11.22,11.22Z"/>
  <path class="cls-1" d="M140.47,78.88c.31.23.67.35,1.04.35s.73-.12,1.04-.35c1.21-.92,29.52-22.86,29.52-48.39C172.08,13.64,158.37-.08,141.52-.08s-30.56,13.71-30.56,30.56c0,25.53,28.32,47.47,29.52,48.39ZM141.52,3.36c14.96,0,27.13,12.17,27.13,27.13,0,21.18-22.03,40.61-27.13,44.82-5.1-4.21-27.13-23.65-27.13-44.82,0-14.96,12.17-27.13,27.13-27.13Z"/>
  <path class="cls-1" d="M156.17,30.49c0-8.08-6.57-14.65-14.65-14.65s-14.65,6.57-14.65,14.65,6.57,14.65,14.65,14.65,14.65-6.57,14.65-14.65ZM130.3,30.49c0-6.19,5.03-11.22,11.22-11.22s11.22,5.03,11.22,11.22-5.03,11.22-11.22,11.22-11.22-5.03-11.22-11.22Z"/>
  <path class="cls-1" d="M71.81,165.74c-5.26,1.69-9.14,1.91-9.18,1.91-.95.05-1.68.85-1.63,1.8.04.92.8,1.63,1.71,1.63.03,0,.06,0,.08,0,.17,0,4.35-.23,10.06-2.07.9-.29,1.4-1.26,1.11-2.16-.29-.9-1.25-1.4-2.16-1.11Z"/>
  <path class="cls-1" d="M112.77,96.12c-2.13,2.45-3.99,5.35-5.53,8.62-.4.86-.03,1.88.83,2.28.24.11.48.16.73.16.64,0,1.26-.36,1.56-.99,1.4-2.99,3.08-5.62,5.01-7.83.62-.71.55-1.8-.17-2.42-.71-.62-1.8-.55-2.42.17Z"/>
  <path class="cls-1" d="M105.48,114.94c-.92-.21-1.84.38-2.04,1.31-.63,2.88-1.12,6-1.45,9.27l-.06.59c-.1.94.58,1.79,1.52,1.89.06,0,.13.01.19.01.87,0,1.61-.65,1.7-1.53l.07-.62c.31-3.14.78-6.12,1.38-8.88.2-.93-.38-1.84-1.31-2.04Z"/>
  <path class="cls-1" d="M134.61,87.93c-.04-.95-.81-1.68-1.79-1.64-2.41.11-6.12.62-10.12,2.4-.87.39-1.25,1.4-.87,2.27.28.64.91,1.02,1.57,1.02.23,0,.47-.05.7-.15,3.51-1.57,6.76-2.01,8.88-2.11.95-.04,1.68-.85,1.64-1.79Z"/>
  <path class="cls-1" d="M101.83,136.17c-.91-.28-1.87.23-2.15,1.14-.95,3.1-2.18,6.03-3.63,8.71-.45.83-.15,1.87.69,2.33.26.14.54.21.82.21.61,0,1.2-.32,1.51-.9,1.57-2.88,2.88-6.02,3.9-9.34.28-.91-.23-1.87-1.14-2.15Z"/>
  <path class="cls-1" d="M89.38,155.07c-2.17,2.22-4.63,4.2-7.31,5.9-.8.51-1.04,1.57-.53,2.37.33.52.88.8,1.45.8.31,0,.63-.09.92-.27,2.9-1.83,5.57-3.99,7.92-6.39.66-.68.65-1.76-.02-2.43-.68-.66-1.76-.65-2.43.02Z"/>
  <path class="cls-1" d="M1.72,71.49c.95,0,1.72-.77,1.72-1.72V3.23h47.84c.95,0,1.72-.77,1.72-1.72s-.77-1.72-1.72-1.72H1.72C.77-.2,0,.57,0,1.52v68.25c0,.95.77,1.72,1.72,1.72Z"/>
  <path class="cls-1" d="M178.28,107.54c-.95,0-1.72.77-1.72,1.72v67.11h-47.99c-.95,0-1.72.77-1.72,1.72s.77,1.72,1.72,1.72h49.7c.95,0,1.72-.77,1.72-1.72v-68.83c0-.95-.77-1.72-1.72-1.72Z"/>
</svg>