<?xml version="1.0" encoding="UTF-8"?>
<svg id="Supply_Chain" data-name="Supply Chain" xmlns="http://www.w3.org/2000/svg" viewBox="0 0 180 180">
  <defs>
    <style>
      .cls-1 {
        stroke: #000;
        stroke-miterlimit: 10;
        stroke-width: 2px;
      }
    </style>
  </defs>
  <path class="cls-1" d="M65.36,130.68c-.3-.34,0-.93.21-1.23.27-.37.96-.98,1.62-.67,20.55,9.4,32.96,3.37,37.33.34.64-.44,2.69-2.04,2.33-4.16-.25-1.47-1.53-2.55-3.81-3.2-8.74-3.18-22.63-10.07-32.79-15.1-3.05-1.51-5.75-2.85-7.8-3.83-7.84-3.9-10.52-3.97-13.91-4.06-.79-.02-1.6-.04-2.54-.11-8.38-.64-26.04-4.39-40.33-12.11-.78-.42-1.76-.13-2.18.65-.42.78-.13,1.76.65,2.18,13.8,7.45,31.25,11.7,41.62,12.48,1.02.08,1.91.1,2.7.12,3.22.08,5.36.14,12.57,3.73,2.06.99,4.74,2.32,7.78,3.83,10.24,5.08,24.27,12.03,33.17,15.26.04.01.08.03.12.04.98.27,1.38.54,1.52.66-.11.22-.45.62-.95.96-3.93,2.72-15.12,8.09-34.16-.62-1.9-.87-4.18-.17-5.55,1.69-1.28,1.74-1.29,3.87.03,5.34l30.93,31.59c2.81,2.81,2.81,7.39,0,10.2-1.36,1.36-3.17,2.11-5.1,2.11s-3.74-.75-5.1-2.11l-18.38-18.38c-.63-.63-1.65-.63-2.28,0s-.63,1.65,0,2.28l10.6,10.6-30.99-3.51c-14.08-1.17-25.64-7.43-36.28-34.17-.33-.83-1.26-1.23-2.09-.9-.83.33-1.23,1.26-.9,2.09,11.25,28.28,23.73,34.92,38.96,36.18l34.96,3.96,4.13,4.13c1.97,1.97,4.59,3.05,7.38,3.05s5.41-1.09,7.38-3.05c4.07-4.07,4.07-10.68.01-14.74l-30.87-31.53Z"/>
  <path class="cls-1" d="M175.08,0H19.61C18.72,0,18,.72,18,1.61v78.88c0,.89.72,1.61,1.61,1.61s1.61-.72,1.61-1.61V3.22h60.23v39.11c0,.89.72,1.61,1.61,1.61h34.47c.89,0,1.61-.72,1.61-1.61V3.22h54.33v153.44h-69.38c-.89,0-1.61.72-1.61,1.61s.72,1.61,1.61,1.61h70.99c.89,0,1.61-.72,1.61-1.61V1.61C176.69.72,175.97,0,175.08,0ZM115.92,40.72h-31.25V3.22h31.25v37.5Z"/>
</svg>