<?xml version="1.0" encoding="UTF-8"?>
<svg id="Supply_Chain" data-name="Supply Chain" xmlns="http://www.w3.org/2000/svg" viewBox="0 0 180 180">
  <defs>
    <style>
      .cls-1 {
        stroke: #000;
        stroke-miterlimit: 10;
        stroke-width: 2px;
      }
    </style>
  </defs>
  <path class="cls-1" d="M162.6,32.42L130.67.49c-.31-.31-.74-.49-1.18-.49H27.88c-6.05,0-10.97,4.92-10.97,10.97v158.06c0,6.05,4.92,10.97,10.97,10.97h124.25c6.05,0,10.97-4.92,10.97-10.97V33.6c0-.44-.18-.87-.49-1.18ZM131.16,5.71l26.23,26.23h-26.23V5.71ZM152.12,176.66H27.88c-4.21,0-7.63-3.42-7.63-7.63V10.97c0-4.21,3.42-7.63,7.63-7.63h99.94v30.26c0,.92.75,1.67,1.67,1.67h30.26v133.76c0,4.21-3.42,7.63-7.63,7.63Z"/>
  <path class="cls-1" d="M76.41,51.08h27.18c.92,0,1.67-.75,1.67-1.67s-.75-1.67-1.67-1.67h-27.18c-.92,0-1.67.75-1.67,1.67s.75,1.67,1.67,1.67Z"/>
  <path class="cls-1" d="M43.56,69.68h92.89c.92,0,1.67-.75,1.67-1.67s-.75-1.67-1.67-1.67H43.56c-.92,0-1.67.75-1.67,1.67s.75,1.67,1.67,1.67Z"/>
  <path class="cls-1" d="M43.56,88.27h92.89c.92,0,1.67-.75,1.67-1.67s-.75-1.67-1.67-1.67H43.56c-.92,0-1.67.75-1.67,1.67s.75,1.67,1.67,1.67Z"/>
  <path class="cls-1" d="M91.04,103.53h-47.48c-.92,0-1.67.75-1.67,1.67s.75,1.67,1.67,1.67h47.48c.92,0,1.67-.75,1.67-1.67s-.75-1.67-1.67-1.67Z"/>
  <path class="cls-1" d="M64.03,144.79h-3.95c-4.42,0-8.02-3.6-8.02-8.02,0-.92-.75-1.67-1.67-1.67s-1.67.75-1.67,1.67c0,4.42-3.6,8.02-8.02,8.02-.92,0-1.67.75-1.67,1.67s.75,1.67,1.67,1.67c4.09,0,7.69-2.18,9.69-5.43,2,3.26,5.59,5.43,9.69,5.43h3.95c.92,0,1.67-.75,1.67-1.67s-.75-1.67-1.67-1.67Z"/>
  <path class="cls-1" d="M79.88,144.79h-7.28c-.92,0-1.67.75-1.67,1.67s.75,1.67,1.67,1.67h7.28c.92,0,1.67-.75,1.67-1.67s-.75-1.67-1.67-1.67Z"/>
  <path class="cls-1" d="M139.23,144.79c-2.57,0-4.65-2.09-4.65-4.65,0-.92-.75-1.67-1.67-1.67s-1.67.75-1.67,1.67c0,2.78-2.24,4.65-5.58,4.65-4.42,0-8.02-3.6-8.02-8.02,0-.92-.75-1.67-1.67-1.67s-1.67.75-1.67,1.67c0,4.42-3.6,8.02-8.02,8.02-.92,0-1.67.75-1.67,1.67s.75,1.67,1.67,1.67c4.09,0,7.69-2.18,9.69-5.43,2,3.26,5.59,5.43,9.69,5.43,3.08,0,5.65-1.19,7.24-3.13,1.46,1.9,3.76,3.13,6.34,3.13.92,0,1.67-.75,1.67-1.67s-.75-1.67-1.67-1.67Z"/>
</svg>