<?xml version="1.0" encoding="UTF-8"?>
<svg id="Supply_Chain" data-name="Supply Chain" xmlns="http://www.w3.org/2000/svg" viewBox="0 0 180 180">
  <defs>
    <style>
      .cls-1 {
        stroke: #000;
        stroke-miterlimit: 10;
        stroke-width: 2px;
      }
    </style>
  </defs>
  <path class="cls-1" d="M131.14,110.18c-1.13,1.23-2.12,2.27-3.02,3.19-.6.61-.59,1.6.02,2.2.3.3.7.45,1.09.45s.81-.16,1.11-.47c.93-.94,1.94-2.01,3.09-3.26.58-.63.54-1.62-.09-2.2-.63-.58-1.62-.54-2.2.09Z"/>
  <path class="cls-1" d="M92.13,25.29c2.91.16,5.66.32,8.1.46.31.02.62.03.92.03h0c.86,0,1.55-.69,1.56-1.55,0-.86-.69-1.56-1.55-1.57-.25,0-.5-.01-.75-.03-2.43-.15-5.19-.3-8.11-.46-.85-.06-1.59.61-1.64,1.47-.05.86.61,1.59,1.47,1.64Z"/>
  <path class="cls-1" d="M111.03,22.2c.32,0,.65-.1.93-.31,2.47-1.83,4.78-4.18,6.75-6.24.59-.62.57-1.61-.05-2.2-.62-.59-1.61-.57-2.2.05-1.97,2.06-4.09,4.21-6.36,5.89-.69.51-.84,1.49-.32,2.18.31.41.78.63,1.25.63Z"/>
  <path class="cls-1" d="M125.24,8.61c.35,0,.7-.12,1-.36,2.45-2.04,4.79-3.45,7.15-4.29.81-.29,1.23-1.18.94-1.99-.29-.81-1.18-1.23-1.99-.94-2.71.97-5.36,2.55-8.1,4.83-.66.55-.75,1.53-.2,2.19.31.37.75.56,1.2.56Z"/>
  <path class="cls-1" d="M33.24,22.87c.07,0,.14,0,.22-.01,2.33-.32,4.96-.49,7.82-.49.29,0,.58,0,.87,0h.02c.85,0,1.55-.68,1.56-1.54.01-.86-.68-1.56-1.54-1.57-.3,0-.6,0-.91,0-3,0-5.77.17-8.25.52-.85.12-1.44.9-1.33,1.76.11.78.78,1.34,1.54,1.34Z"/>
  <path class="cls-1" d="M72.46,24.3c2.85.14,5.88.28,8.94.44.03,0,.05,0,.08,0,.82,0,1.51-.65,1.55-1.48.04-.86-.62-1.59-1.48-1.63-3.06-.15-6.09-.3-8.95-.44-.87-.03-1.59.62-1.63,1.48-.04.86.62,1.59,1.48,1.63Z"/>
  <path class="cls-1" d="M52.68,23.11c1.67.21,2.7.39,2.71.39.06.01.13.02.2.02,0,0,2.38.1,6.15.28.02,0,.05,0,.07,0,.83,0,1.51-.65,1.55-1.48.04-.86-.62-1.59-1.48-1.63-3.33-.15-5.58-.25-6.06-.27-.31-.05-1.28-.21-2.75-.39-.85-.11-1.63.5-1.74,1.35-.11.85.5,1.63,1.35,1.74Z"/>
  <path class="cls-1" d="M14.39,52.76c.21.1.44.15.66.15.58,0,1.14-.33,1.41-.89,1.07-2.27,1.89-5.12,2.57-8.96.15-.85-.41-1.65-1.26-1.8-.85-.15-1.65.41-1.8,1.26-.63,3.56-1.37,6.16-2.32,8.18-.37.78-.03,1.7.74,2.07Z"/>
  <path class="cls-1" d="M139.44,104.79c.42,0,.84-.17,1.15-.5,1.91-2.07,3.88-4.07,6.2-6.29.62-.59.64-1.58.05-2.2-.59-.62-1.58-.65-2.2-.05-2.38,2.26-4.39,4.31-6.34,6.44-.58.63-.54,1.62.09,2.2.3.27.68.41,1.05.41Z"/>
  <path class="cls-1" d="M163.79,18.95c.31.36.75.55,1.19.55.36,0,.71-.12,1-.37.66-.56.74-1.54.18-2.19-2.17-2.56-4.4-5.11-5.88-6.81-.57-.65-1.55-.71-2.2-.14-.64.57-.71,1.55-.14,2.2,1.48,1.68,3.69,4.22,5.84,6.76Z"/>
  <path class="cls-1" d="M167.82,35.97c.17.06.33.08.5.08.65,0,1.25-.41,1.47-1.06,1.36-4.02,2.64-6.29,3-6.74.37-.31.58-.78.58-1.28,0-.4-.12-.79-.41-1.31-.42-.75-1.36-1.03-2.11-.61-.61.34-.9,1.02-.77,1.67-1.06,1.57-2.33,4.61-3.24,7.27-.28.81.16,1.7.97,1.97Z"/>
  <path class="cls-1" d="M165.98,43.36c-.85-.14-1.65.43-1.8,1.27-.5,2.95-.84,6-1.01,9.06-.05.86.61,1.59,1.47,1.64.03,0,.06,0,.09,0,.82,0,1.51-.64,1.55-1.47.16-2.94.49-5.87.97-8.71.14-.85-.43-1.65-1.27-1.8Z"/>
  <path class="cls-1" d="M143.32,3.11c3.34.26,6.08.86,8.17,1.79.21.09.42.13.63.13.6,0,1.16-.34,1.42-.92.35-.78,0-1.7-.79-2.05-2.41-1.07-5.5-1.76-9.19-2.05-.87-.05-1.61.57-1.67,1.43-.07.86.57,1.61,1.43,1.67Z"/>
  <path class="cls-1" d="M163.76,74.89c.12.03.23.04.34.04.71,0,1.35-.49,1.52-1.21.53-2.35.79-4.86.79-7.68,0-.52,0-1.05-.03-1.59-.03-.86-.75-1.55-1.61-1.5-.86.03-1.53.75-1.5,1.61.02.51.03,1,.03,1.49,0,2.59-.23,4.88-.71,7-.19.84.34,1.67,1.18,1.86Z"/>
  <path class="cls-1" d="M152.43,90.64c.31.32.72.48,1.13.48.39,0,.77-.14,1.07-.43,2.83-2.69,4.69-4.71,6.22-6.76.51-.69.37-1.66-.31-2.18-.69-.51-1.66-.38-2.18.31-1.42,1.9-3.18,3.8-5.87,6.37-.62.59-.65,1.58-.06,2.2Z"/>
  <path class="cls-1" d="M94.33,152.44c-.82-.26-1.69.19-1.96,1.01-1,3.13-1.9,5.92-2.82,8.43-.3.81.12,1.7.93,1.99.18.06.36.09.53.09.63,0,1.23-.39,1.46-1.02.94-2.56,1.85-5.39,2.86-8.54.26-.82-.19-1.69-1.01-1.96Z"/>
  <path class="cls-1" d="M42.44,139.58c-.22-.83-1.07-1.33-1.9-1.1-.83.22-1.32,1.07-1.1,1.9.9,3.39,1.99,6.23,3.34,8.67.28.51.82.8,1.36.8.25,0,.51-.06.75-.19.75-.41,1.03-1.36.61-2.11-1.22-2.22-2.22-4.82-3.06-7.97Z"/>
  <path class="cls-1" d="M52.25,154.93c-.67-.53-1.65-.42-2.19.25-.53.67-.42,1.65.25,2.19,2.36,1.87,4.52,3.84,6.41,5.88.31.33.72.49,1.14.49.38,0,.76-.14,1.06-.42.63-.59.66-1.57.08-2.2-2-2.15-4.28-4.23-6.76-6.19Z"/>
  <path class="cls-1" d="M68.98,177.01c-.72-.31-.9-.72-.97-1-.46-1.83-1.29-3.88-2.42-5.95-.41-.75-1.35-1.03-2.11-.62-.75.41-1.03,1.36-.62,2.11,1,1.84,1.74,3.65,2.14,5.22.35,1.41,1.31,2.49,2.77,3.11.2.08.4.12.61.12.61,0,1.18-.36,1.43-.95.34-.79-.03-1.7-.82-2.04Z"/>
  <path class="cls-1" d="M84.83,170.72c-1.84,1.95-4.17,3.62-6.76,4.84-.78.37-1.11,1.29-.75,2.07.26.56.82.89,1.41.89.22,0,.45-.05.66-.15,2.94-1.38,5.6-3.29,7.7-5.52.59-.62.56-1.61-.07-2.2-.62-.59-1.61-.56-2.2.07Z"/>
  <path class="cls-1" d="M101.17,134c-.78-.36-1.7-.02-2.06.77-1.08,2.35-2.18,5.12-3.35,8.45-.29.81.14,1.7.95,1.98.17.06.35.09.52.09.64,0,1.24-.4,1.47-1.04,1.14-3.24,2.2-5.92,3.24-8.18.36-.78.02-1.7-.77-2.06Z"/>
  <path class="cls-1" d="M22.27,23.41c-2.89,1.99-4.53,4.67-4.86,7.97l-.06.61c-.09.86.53,1.62,1.38,1.71.06,0,.11,0,.17,0,.79,0,1.46-.59,1.55-1.39l.06-.63c.24-2.38,1.4-4.25,3.53-5.72.71-.49.89-1.46.4-2.16-.49-.71-1.45-.89-2.16-.4Z"/>
  <path class="cls-1" d="M6.74,57.29c-.99.57-3.62,2.09-3.62,5.14,0,1.39.54,2.86,1.65,4.51.3.45.79.69,1.29.69.3,0,.6-.09.86-.26.71-.48.9-1.45.43-2.16-.73-1.09-1.12-2.05-1.12-2.78,0-.89.6-1.6,2.06-2.44.74-.43,1-1.38.57-2.13-.43-.74-1.38-1-2.13-.57Z"/>
  <path class="cls-1" d="M22.75,75.24c-.77-.32-1.55-.62-2.34-.92-1.92-.74-3.91-1.51-5.74-2.5-.76-.41-1.7-.13-2.11.63-.41.76-.13,1.7.63,2.11,2,1.08,4.08,1.88,6.1,2.66.76.29,1.53.59,2.28.9.19.08.39.12.59.12.61,0,1.19-.36,1.44-.97.32-.8-.06-1.7-.85-2.03Z"/>
  <path class="cls-1" d="M40.51,129.24c-.34-2.57-.63-5.46-.91-8.82-.07-.86-.83-1.48-1.68-1.42-.86.07-1.49.82-1.42,1.68.28,3.41.59,6.34.93,8.97.1.78.77,1.35,1.54,1.35.07,0,.13,0,.2-.01.85-.11,1.45-.89,1.34-1.74Z"/>
  <path class="cls-1" d="M37.4,111.4c.86-.05,1.51-.79,1.46-1.65-.16-2.61-.31-5.33-.47-8.16l-.05-.77c-.06-.86-.81-1.53-1.65-1.45-.86.06-1.51.8-1.45,1.65l.04.75c.16,2.83.31,5.56.47,8.17.05.83.74,1.46,1.55,1.46.03,0,.06,0,.1,0Z"/>
  <path class="cls-1" d="M36.57,89.93c-1.03-3.42-2.46-6.17-4.38-8.42-.56-.65-1.54-.73-2.19-.17-.65.56-.73,1.54-.17,2.19,1.63,1.91,2.86,4.3,3.76,7.29.2.67.82,1.11,1.49,1.11.15,0,.3-.02.45-.07.82-.25,1.29-1.11,1.04-1.94Z"/>
  <path class="cls-1" d="M95.09,62.73c0-13.56-11.03-24.59-24.59-24.59s-24.58,11.03-24.58,24.59c0,20.47,22.67,38.04,23.64,38.78.28.21.61.32.94.32s.67-.11.94-.32c.97-.74,23.64-18.31,23.64-38.78ZM70.51,98.27c-4.26-3.54-21.47-18.86-21.47-35.54,0-11.84,9.63-21.47,21.47-21.47s21.47,9.63,21.47,21.47c0,16.67-17.21,32-21.47,35.54Z"/>
  <path class="cls-1" d="M70.51,50.85c-6.55,0-11.88,5.33-11.88,11.88s5.33,11.88,11.88,11.88,11.88-5.33,11.88-11.88-5.33-11.88-11.88-11.88ZM70.51,71.5c-4.84,0-8.77-3.93-8.77-8.77s3.93-8.77,8.77-8.77,8.77,3.93,8.77,8.77-3.94,8.77-8.77,8.77Z"/>
  <path class="cls-1" d="M175.27,173.05c-27.06.97-37.82-16.02-49.2-34.02-2.02-3.2-4.07-6.41-6.21-9.55,1.9-1.75,3.1-4.25,3.1-7.03,0-5.27-4.29-9.56-9.56-9.56-2.15,0-4.13.72-5.73,1.93-5.93-5.49-13.08-9.79-22.37-11.89-.84-.19-1.67.34-1.86,1.17-.19.84.34,1.67,1.17,1.86,8.59,1.94,15.28,5.97,20.88,11.12-1.04,1.53-1.65,3.37-1.65,5.36,0,5.27,4.29,9.56,9.56,9.56,1.37,0,2.67-.3,3.85-.82,2.14,3.12,4.17,6.32,6.19,9.5,11.04,17.46,22.45,35.5,49.64,35.5.75,0,1.52-.01,2.3-.04.86-.03,1.53-.75,1.5-1.61-.03-.86-.78-1.55-1.61-1.5ZM106.96,122.46c0-3.55,2.89-6.45,6.45-6.45s6.44,2.89,6.44,6.45-2.89,6.44-6.44,6.44-6.45-2.89-6.45-6.44Z"/>
</svg>