<?xml version="1.0" encoding="UTF-8"?>
<svg id="Supply_Chain" data-name="Supply Chain" xmlns="http://www.w3.org/2000/svg" viewBox="0 0 180 180">
  <defs>
    <style>
      .cls-1 {
        stroke: #000;
        stroke-miterlimit: 10;
        stroke-width: 2px;
      }
    </style>
  </defs>
  <path class="cls-1" d="M46.3,0H1.67C.75,0,0,.75,0,1.67v44.63c0,.92.75,1.67,1.67,1.67h44.63c.92,0,1.67-.75,1.67-1.67V1.67c0-.92-.75-1.67-1.67-1.67ZM44.63,44.63H3.34V3.34h41.29v41.29Z"/>
  <path class="cls-1" d="M178.33,0h-44.63c-.92,0-1.67.75-1.67,1.67v44.63c0,.92.75,1.67,1.67,1.67h44.63c.92,0,1.67-.75,1.67-1.67V1.67c0-.92-.75-1.67-1.67-1.67ZM176.66,44.63h-41.29V3.34h41.29v41.29Z"/>
  <path class="cls-1" d="M46.3,132.03H1.67C.75,132.03,0,132.78,0,133.7v44.63c0,.92.75,1.67,1.67,1.67h44.63c.92,0,1.67-.75,1.67-1.67v-44.63c0-.92-.75-1.67-1.67-1.67ZM44.63,176.66H3.34v-41.29h41.29v41.29Z"/>
  <path class="cls-1" d="M178.33,132.03h-44.63c-.92,0-1.67.75-1.67,1.67v44.63c0,.92.75,1.67,1.67,1.67h44.63c.92,0,1.67-.75,1.67-1.67v-44.63c0-.92-.75-1.67-1.67-1.67ZM176.66,176.66h-41.29v-41.29h41.29v41.29Z"/>
  <path class="cls-1" d="M60.5,25.66h54.14l-4.54,3.54c-.73.57-.86,1.62-.29,2.35.33.42.82.64,1.32.64.36,0,.72-.11,1.03-.35l8.39-6.53c.41-.32.64-.8.64-1.32s-.24-1-.64-1.32l-8.39-6.53c-.73-.57-1.78-.44-2.35.29-.57.73-.44,1.78.29,2.35l4.54,3.54h-54.14c-.92,0-1.67.75-1.67,1.67s.75,1.67,1.67,1.67Z"/>
  <path class="cls-1" d="M119.5,154.34h-54.14l4.54-3.54c.73-.57.86-1.62.29-2.35-.57-.73-1.62-.86-2.35-.29l-8.39,6.53c-.41.32-.64.8-.64,1.32s.24,1,.64,1.32l8.39,6.53c.3.24.67.35,1.03.35.5,0,.99-.22,1.32-.64.57-.73.44-1.78-.29-2.35l-4.54-3.54h54.14c.92,0,1.67-.75,1.67-1.67s-.75-1.67-1.67-1.67Z"/>
  <path class="cls-1" d="M156.01,59.46c-.92,0-1.67.75-1.67,1.67v54.14l-3.54-4.54c-.57-.73-1.62-.86-2.35-.29-.73.57-.86,1.62-.29,2.35l6.53,8.39c.32.41.8.64,1.32.64s1-.24,1.32-.64l6.53-8.39c.57-.73.44-1.78-.29-2.35-.73-.57-1.78-.44-2.35.29l-3.54,4.54v-54.14c0-.92-.75-1.67-1.67-1.67Z"/>
  <path class="cls-1" d="M90,56.6c-18.77,0-34.03,15.27-34.03,34.03s15.27,34.03,34.03,34.03,34.03-15.27,34.03-34.03-15.27-34.03-34.03-34.03ZM90,121.32c-16.92,0-30.69-13.77-30.69-30.69s13.77-30.69,30.69-30.69,30.69,13.77,30.69,30.69-13.77,30.69-30.69,30.69Z"/>
  <path class="cls-1" d="M103.7,81.14c-.78-.48-1.81-.24-2.3.54l-11.4,18.48-11.4-18.48c-.49-.79-1.52-1.03-2.3-.54-.79.48-1.03,1.51-.54,2.3l12.82,20.79c.3.49.84.79,1.42.79s1.12-.3,1.42-.79l12.83-20.79c.48-.79.24-1.81-.54-2.3Z"/>
  <path class="cls-1" d="M19.89,17.83l4.26-3.2v22.04c0,.92.75,1.67,1.67,1.67s1.67-.75,1.67-1.67V11.3c0-.63-.36-1.21-.92-1.49-.57-.28-1.24-.22-1.75.16l-6.94,5.2c-.74.55-.89,1.6-.33,2.34.55.74,1.6.89,2.34.33Z"/>
  <path class="cls-1" d="M148.22,16.14c.85.36,1.83-.04,2.19-.89.86-2.03,2.84-3.35,5.05-3.35,3.02,0,5.48,2.46,5.48,5.48,0,2.51-2.57,4.4-5.54,6.58-3.84,2.83-8.2,6.04-8.2,11.78,0,.92.75,1.67,1.67,1.67h14.29c.92,0,1.67-.75,1.67-1.67s-.75-1.67-1.67-1.67h-12.42c.77-3.09,3.63-5.2,6.64-7.41,3.39-2.5,6.9-5.08,6.9-9.28,0-4.87-3.96-8.83-8.82-8.83-3.55,0-6.75,2.12-8.13,5.39-.36.85.04,1.83.89,2.19Z"/>
  <path class="cls-1" d="M155.7,170.44c5.37,0,9.74-4.09,9.74-9.11,0-3.48-2.2-7.15-6.45-8.8,3.04-2.27,5.73-5.04,5.73-9.27,0-.92-.75-1.67-1.67-1.67h-12.29c-.92,0-1.67.75-1.67,1.67s.75,1.67,1.67,1.67h10.37c-.84,2.74-3.69,4.67-6.67,6.69l-.49.33c-.59.4-.86,1.13-.67,1.82.19.69.79,1.18,1.5,1.23,5.02.35,7.3,3.53,7.3,6.33,0,3.18-2.87,5.77-6.4,5.77-2.6,0-4.92-1.4-5.91-3.57-.39-.84-1.38-1.21-2.22-.82-.84.38-1.21,1.38-.82,2.22,1.54,3.35,5.05,5.52,8.95,5.52Z"/>
  <path class="cls-1" d="M15.77,163.73h11.5v5.79c0,.92.75,1.67,1.67,1.67s1.67-.75,1.67-1.67v-14.82c0-.92-.75-1.67-1.67-1.67s-1.67.75-1.67,1.67v5.68h-8.98l7.26-17.23c.36-.85-.04-1.83-.89-2.19-.85-.36-1.83.04-2.19.89l-8.24,19.55c-.22.52-.16,1.11.15,1.57.31.47.83.75,1.39.75Z"/>
  <path class="cls-1" d="M23.99,119.7c1.69,0,3.07-1.38,3.07-3.07s-1.38-3.07-3.07-3.07-3.07,1.38-3.07,3.07,1.38,3.07,3.07,3.07Z"/>
  <path class="cls-1" d="M23.99,101.94c1.69,0,3.07-1.38,3.07-3.07s-1.38-3.07-3.07-3.07-3.07,1.38-3.07,3.07,1.38,3.07,3.07,3.07Z"/>
  <path class="cls-1" d="M23.99,84.19c1.69,0,3.07-1.38,3.07-3.07s-1.38-3.07-3.07-3.07-3.07,1.38-3.07,3.07,1.38,3.07,3.07,3.07Z"/>
  <path class="cls-1" d="M23.99,66.43c1.69,0,3.07-1.38,3.07-3.07s-1.38-3.07-3.07-3.07-3.07,1.38-3.07,3.07,1.38,3.07,3.07,3.07Z"/>
</svg>