<?xml version="1.0" encoding="UTF-8"?>
<svg id="Supply_Chain" data-name="Supply Chain" xmlns="http://www.w3.org/2000/svg" viewBox="0 0 180 180">
  <defs>
    <style>
      .cls-1 {
        stroke: #000;
        stroke-miterlimit: 10;
        stroke-width: 2px;
      }
    </style>
  </defs>
  <path class="cls-1" d="M178.28,0h-46.34c-.9,0-1.64.69-1.71,1.58l-1.56,20.18c-.02.3.03.6.16.87l9.3,19.57-18.77,21.08c-.28.31-.43.72-.43,1.14v16.91c0,.27.06.53.18.76l15.03,30.24-14.29,30.68-44.33-6.61c-.29-.04-.59-.01-.86.09l-39.45,14.96-33.17-6.12c-.5-.09-1.02.04-1.41.37-.39.33-.62.81-.62,1.32v31.24c0,.95.77,1.72,1.72,1.72h176.57c.95,0,1.72-.77,1.72-1.72V1.72C180,.77,179.23,0,178.28,0ZM176.57,176.57H3.43v-27.47l31.61,5.83c.31.06.63.03.92-.08l39.48-14.97,45.16,6.73c.75.11,1.49-.28,1.81-.97l15.19-32.6c.22-.47.21-1.02-.02-1.49l-15.22-30.62v-15.86l19.09-21.44c.46-.52.56-1.25.27-1.88l-9.59-20.18,1.4-18.14h43.03v173.13Z"/>
  <path class="cls-1" d="M1.72,108.45h27.71c.38,0,.75-.13,1.05-.36l20.29-15.8c.42-.33.66-.83.66-1.35v-7.05h39.4c.48,0,.93-.2,1.26-.55l10.22-11.02c.61-.65.61-1.66.01-2.32l-10.22-11.28c-.33-.36-.79-.56-1.27-.56h-39.4v-7.05c0-.53-.24-1.03-.66-1.35l-20.29-15.8c-.3-.23-.67-.36-1.05-.36H1.72c-.95,0-1.72.77-1.72,1.72v71.42c0,.95.77,1.72,1.72,1.72ZM90.07,61.58l8.65,9.55-8.64,9.32h-38.65v-18.87h38.64ZM28.83,37.02l19.16,14.92v38.15l-19.16,14.92H3.43v-21.13h16.67c.95,0,1.72-.77,1.72-1.72s-.77-1.72-1.72-1.72H3.43v-18.87h16.67c.95,0,1.72-.77,1.72-1.72s-.77-1.72-1.72-1.72H3.43v-21.13h25.4Z"/>
  <path class="cls-1" d="M99.69,45.51c.34.37.8.56,1.27.56.41,0,.82-.15,1.15-.44.7-.64.76-1.72.12-2.43l-12.98-14.32c-.64-.7-1.72-.76-2.42-.12-.7.64-.76,1.72-.12,2.43l12.98,14.32Z"/>
  <path class="cls-1" d="M99.69,96.52l-12.98,14.32c-.64.7-.58,1.79.12,2.43.33.3.74.44,1.15.44.47,0,.93-.19,1.27-.56l12.98-14.32c.64-.7.58-1.79-.12-2.43-.7-.64-1.79-.58-2.42.12Z"/>
</svg>