<?xml version="1.0" encoding="UTF-8"?>
<svg id="Supply_Chain" data-name="Supply Chain" xmlns="http://www.w3.org/2000/svg" viewBox="0 0 180 180">
  <defs>
    <style>
      .cls-1 {
        stroke: #000;
        stroke-miterlimit: 10;
        stroke-width: 2px;
      }
    </style>
  </defs>
  <path class="cls-1" d="M178.49,142.41h-3.2l-8.9-25.07c-.21-.6-.79-1.01-1.43-1.01H15.04c-.64,0-1.21.4-1.43,1.01l-8.89,25.07H1.51c-.84,0-1.51.68-1.51,1.51s.68,1.51,1.51,1.51h3.2l8.89,25.07c.21.6.79,1.01,1.43,1.01h149.93c.64,0,1.21-.4,1.43-1.01l8.9-25.07h3.2c.84,0,1.51-.68,1.51-1.51s-.68-1.51-1.51-1.51ZM16.11,119.37h11.82v8.4c0,.84.68,1.51,1.51,1.51s1.51-.68,1.51-1.51v-8.4h17.16v8.4c0,.84.68,1.51,1.51,1.51s1.51-.68,1.51-1.51v-8.4h17.16v8.4c0,.84.68,1.51,1.51,1.51s1.51-.68,1.51-1.51v-8.4h17.16v8.4c0,.84.68,1.51,1.51,1.51s1.51-.68,1.51-1.51v-8.4h17.16v8.4c0,.84.68,1.51,1.51,1.51s1.51-.68,1.51-1.51v-8.4h17.16v8.4c0,.84.68,1.51,1.51,1.51s1.51-.68,1.51-1.51v-8.4h17.16v8.4c0,.84.68,1.51,1.51,1.51s1.51-.68,1.51-1.51v-8.4h11.82l8.18,23.05H7.93l8.18-23.05ZM163.89,168.49h-11.82v-8.4c0-.84-.68-1.51-1.51-1.51s-1.51.68-1.51,1.51v8.4h-17.16v-8.4c0-.84-.68-1.51-1.51-1.51s-1.51.68-1.51,1.51v8.4h-17.16v-8.4c0-.84-.68-1.51-1.51-1.51s-1.51.68-1.51,1.51v8.4h-17.16v-8.4c0-.84-.68-1.51-1.51-1.51s-1.51.68-1.51,1.51v8.4h-17.16v-8.4c0-.84-.68-1.51-1.51-1.51s-1.51.68-1.51,1.51v8.4h-17.16v-8.4c0-.84-.68-1.51-1.51-1.51s-1.51.68-1.51,1.51v8.4h-17.16v-8.4c0-.84-.68-1.51-1.51-1.51s-1.51.68-1.51,1.51v8.4h-11.82l-8.18-23.05h164.15l-8.18,23.05Z"/>
  <path class="cls-1" d="M15.04,110.94c.84,0,1.51-.68,1.51-1.51v-27.63h11.2v27.63c0,.84.68,1.51,1.51,1.51s1.51-.68,1.51-1.51v-13.06h66.31v13.06c0,.84.68,1.51,1.51,1.51s1.51-.68,1.51-1.51v-45.76h19.23l10.98,17.83c.28.45.76.72,1.29.72h29.47v27.21c0,.84.68,1.51,1.51,1.51s1.51-.68,1.51-1.51v-28.72c0-.84-.68-1.51-1.51-1.51h-30.14l-2.87-4.66,17.34-26.63h13.98c.53,0,1.02-.28,1.3-.73l10.11-16.84c.28-.47.29-1.05.02-1.52-.27-.47-.77-.77-1.32-.77h-29.48c-3.37,0-6.48,1.69-8.33,4.51l-18.3,28.1h-14.81V24.98h3.97c.84,0,1.51-.68,1.51-1.51v-13.47c0-.84-.68-1.51-1.51-1.51H23.78c-.84,0-1.51.68-1.51,1.51v13.47c0,.84.68,1.51,1.51,1.51h3.97v53.79h-12.71c-.84,0-1.51.68-1.51,1.51v29.14c0,.84.68,1.51,1.51,1.51ZM135.75,34.2c1.28-1.97,3.44-3.14,5.79-3.14h26.8l-8.29,13.82h-13.95c-.51,0-.99.26-1.27.69l-17.01,26.12-6.36-10.32c-.28-.45-.76-.72-1.29-.72h-1.66l17.22-26.45ZM25.29,11.51h77.27v10.45H25.29v-10.45ZM57.73,24.98l-11.43,17.15c-.46.7-.28,1.63.42,2.1.26.17.55.25.84.25.49,0,.97-.24,1.26-.67l12.55-18.83h12.73l-25,37.5c-.46.7-.28,1.63.42,2.1.26.17.55.25.84.25.49,0,.97-.24,1.26-.67l26.11-39.17h19.34v68.36H30.77V24.98h26.96Z"/>
</svg>