<?xml version="1.0" encoding="UTF-8"?>
<svg id="Supply_Chain" data-name="Supply Chain" xmlns="http://www.w3.org/2000/svg" viewBox="0 0 180 180">
  <defs>
    <style>
      .cls-1 {
        stroke: #000;
        stroke-miterlimit: 10;
        stroke-width: 2px;
      }
    </style>
  </defs>
  <path class="cls-1" d="M178.48,160.77H1.52c-.84,0-1.52.68-1.52,1.52v11.08c0,.84.68,1.52,1.52,1.52s1.52-.68,1.52-1.52v-9.56h26.45v9.56c0,.84.68,1.52,1.52,1.52s1.52-.68,1.52-1.52v-9.56h26.45v9.56c0,.84.68,1.52,1.52,1.52s1.52-.68,1.52-1.52v-9.56h26.45v9.56c0,.84.68,1.52,1.52,1.52s1.52-.68,1.52-1.52v-9.56h26.45v9.56c0,.84.68,1.52,1.52,1.52s1.52-.68,1.52-1.52v-9.56h26.45v9.56c0,.84.68,1.52,1.52,1.52s1.52-.68,1.52-1.52v-9.56h26.45v9.56c0,.84.68,1.52,1.52,1.52s1.52-.68,1.52-1.52v-11.08c0-.84-.68-1.52-1.52-1.52Z"/>
  <path class="cls-1" d="M178.48,51.35h-24.71c-2.3-2.47-12.54-13.42-16.8-17.48-4.54-4.33-9.51-8.31-20.26-9.44-7.67-8.5-9.91-10.63-10.32-11.01-.73-.77-8.05-8.31-16.25-8.31h-.28c-8.22,0-15.55,7.54-16.28,8.31-.41.37-2.65,2.5-10.32,11.01-10.74,1.14-15.72,5.11-20.26,9.44-4.26,4.06-14.49,15.01-16.79,17.48H1.52c-.84,0-1.52.68-1.52,1.52v18.79c0,.84.68,1.52,1.52,1.52h7.67l17.22,47.84c-4.42,3.46-7.26,8.84-7.26,14.87,0,10.41,8.47,18.89,18.89,18.89,8.45,0,15.61-5.57,18.02-13.23h67.9c2.41,7.66,9.58,13.23,18.02,13.23,10.41,0,18.89-8.47,18.89-18.89,0-6.03-2.85-11.41-7.26-14.87l17.22-47.84h7.67c.84,0,1.52-.68,1.52-1.52v-18.79c0-.84-.68-1.52-1.52-1.52ZM45.12,36.07c4.38-4.18,8.84-7.71,19.04-8.67.38-.04.73-.21.99-.5,8.54-9.47,10.44-11.18,10.52-11.24.04-.04.08-.08.12-.12.07-.07,6.95-7.39,14.13-7.39h.22c7.15,0,14.03,7.31,14.1,7.39.03.04.08.08.11.11.08.07,1.99,1.78,10.52,11.25.26.28.61.46.99.5,10.2.96,14.66,4.5,19.04,8.67,3.39,3.23,10.88,11.17,14.73,15.28H30.39c3.85-4.11,11.34-12.05,14.73-15.28ZM38.03,151.74c-8.74,0-15.85-7.11-15.85-15.85s7.11-15.85,15.85-15.85,15.85,7.11,15.85,15.85-7.11,15.85-15.85,15.85ZM157.82,135.89c0,8.74-7.11,15.85-15.85,15.85s-15.85-7.11-15.85-15.85,7.11-15.85,15.85-15.85,15.85,7.11,15.85,15.85ZM176.96,70.14h-7.22c-.64,0-1.21.4-1.43,1.01l-17.33,48.15c-2.68-1.46-5.75-2.29-9.02-2.29-10.41,0-18.89,8.47-18.89,18.89,0,.89.07,1.76.18,2.61H56.73c.12-.85.18-1.73.18-2.61,0-10.41-8.47-18.89-18.89-18.89-3.26,0-6.33.83-9.02,2.29l-16.6-46.12h86.08c.84,0,1.52-.68,1.52-1.52s-.68-1.52-1.52-1.52H3.04v-15.75h173.92v15.75Z"/>
</svg>