<?xml version="1.0" encoding="UTF-8"?>
<svg id="Supply_Chain" data-name="Supply Chain" xmlns="http://www.w3.org/2000/svg" viewBox="0 0 180 180">
  <defs>
    <style>
      .cls-1 {
        stroke: #000;
        stroke-miterlimit: 10;
        stroke-width: 2px;
      }
    </style>
  </defs>
  <path class="cls-1" d="M56.72,84.75c-5.4-2.91-10.06-5.43-10.08-11.05,0-1.86.88-3.87,2.38-5.37,1.5-1.51,3.4-2.34,5.34-2.34,4.26,0,7.72,3.46,7.72,7.72,0,1.09.89,1.98,1.98,1.98s1.98-.89,1.98-1.98c0-5.76-4.2-10.55-9.7-11.5v-6.07c0-1.09-.89-1.98-1.98-1.98s-1.98.89-1.98,1.98v6.08c-2.28.42-4.42,1.56-6.17,3.32-2.26,2.27-3.55,5.25-3.54,8.18.03,7.97,6.48,11.45,12.16,14.52,5.76,3.11,11.19,6.04,11.45,13.08.11,3.01-1.01,5.9-3.17,8.14-2.28,2.37-5.48,3.72-8.77,3.72-6.58,0-11.93-5.35-11.93-11.93,0-1.09-.89-1.98-1.98-1.98s-1.98.89-1.98,1.98c0,8.09,6.09,14.78,13.92,15.76v6.03c0,1.09.89,1.98,1.98,1.98s1.98-.89,1.98-1.98v-6.03c3.64-.46,7.07-2.14,9.63-4.8,2.91-3.02,4.42-6.94,4.27-11.03-.34-9.3-7.35-13.08-13.53-16.42Z"/>
  <path class="cls-1" d="M159.54,40.12c-.77-.77-2.03-.77-2.8,0-.77.77-.77,2.03,0,2.8,12.44,12.44,19.29,29.01,19.29,46.66s-6.85,34.22-19.3,46.66c-.77.77-.77,2.03,0,2.8.39.39.89.58,1.4.58s1.01-.19,1.4-.58c13.19-13.19,20.46-30.76,20.46-49.46,0-18.7-7.26-36.27-20.46-49.46Z"/>
  <path class="cls-1" d="M142.9,56.77c-.77-.77-2.03-.77-2.8,0-.77.77-.77,2.03,0,2.8,8,8,12.41,18.66,12.41,30.01,0,11.35-4.41,22.01-12.41,30.01-.77.77-.77,2.03,0,2.8.39.39.89.58,1.4.58s1.01-.19,1.4-.58c8.75-8.75,13.57-20.4,13.57-32.81,0-12.41-4.82-24.06-13.57-32.81Z"/>
  <path class="cls-1" d="M123.45,73.41c-.77.77-.77,2.03,0,2.8,3.57,3.57,5.54,8.32,5.54,13.36s-1.97,9.79-5.54,13.36c-.77.77-.77,2.03,0,2.8.39.39.89.58,1.4.58s1.01-.19,1.4-.58c4.32-4.32,6.7-10.06,6.7-16.17s-2.38-11.85-6.7-16.17c-.77-.77-2.03-.77-2.8,0Z"/>
  <path class="cls-1" d="M98.82,35.64h-.42c-4.96-3.25-7.99-6.01-8.25-14.14V7.76C90.14,2.61,87.91,0,83.51,0H25.21C20.81,0,18.58,2.61,18.58,7.76v13.67c-.26,8.2-3.29,10.96-8.25,14.21h-.42C4.44,35.64,0,40.08,0,45.54v88.92c0,5.46,4.44,9.9,9.9,9.9h.42c4.96,3.25,7.99,6.01,8.25,14.15v13.74c0,5.15,2.23,7.76,6.63,7.76h58.31c4.4,0,6.63-2.61,6.63-7.76v-13.67c.26-8.2,3.29-10.96,8.25-14.21h.42c5.46,0,9.9-4.44,9.9-9.9V45.54c0-5.46-4.44-9.9-9.9-9.9ZM22.54,21.49V7.76c0-3.25.82-3.8,2.67-3.8h58.31c1.85,0,2.67.55,2.67,3.8v13.8c.23,7.13,2.42,11.09,5.65,14.08H16.88c3.23-3,5.42-6.97,5.66-14.14ZM86.18,158.51v13.74c0,3.25-.82,3.8-2.67,3.8H25.21c-1.85,0-2.67-.55-2.67-3.8v-13.8c-.23-7.13-2.42-11.09-5.66-14.08h74.96c-3.23,3-5.43,6.97-5.66,14.15ZM104.76,134.46c0,3.28-2.67,5.94-5.94,5.94H9.9c-3.28,0-5.94-2.67-5.94-5.94V45.54c0-3.28,2.67-5.94,5.94-5.94h88.92c3.28,0,5.94,2.67,5.94,5.94v88.92Z"/>
</svg>