<?xml version="1.0" encoding="UTF-8"?>
<svg id="Supply_Chain" data-name="Supply Chain" xmlns="http://www.w3.org/2000/svg" viewBox="0 0 180 180">
  <defs>
    <style>
      .cls-1 {
        stroke: #000;
        stroke-miterlimit: 10;
        stroke-width: 2px;
      }
    </style>
  </defs>
  <path class="cls-1" d="M102.85,123.97c-5.09,0-9.23-4.14-9.23-9.23,0-.99-.8-1.78-1.78-1.78s-1.78.8-1.78,1.78c0,6.45,4.8,11.79,11.02,12.66v4.59c0,.99.8,1.78,1.78,1.78s1.78-.8,1.78-1.78v-4.59c2.86-.4,5.55-1.74,7.56-3.83,2.34-2.43,3.57-5.59,3.44-8.89-.28-7.48-5.88-10.51-10.82-13.18-4.87-2.63-7.85-4.45-7.87-8.55,0-1.41.68-2.95,1.82-4.1,1.15-1.15,2.59-1.79,4.07-1.79,3.25,0,5.89,2.64,5.89,5.89,0,.99.8,1.78,1.78,1.78s1.78-.8,1.78-1.78c0-4.61-3.31-8.45-7.68-9.29v-4.62c0-.99-.8-1.78-1.78-1.78s-1.78.8-1.78,1.78v4.63c-1.78.37-3.45,1.28-4.82,2.66-1.83,1.84-2.87,4.25-2.86,6.63.03,6.43,5.19,9.22,9.74,11.68,4.69,2.54,8.75,4.72,8.95,10.17.09,2.33-.78,4.56-2.45,6.28-1.76,1.83-4.24,2.88-6.78,2.88Z"/>
  <path class="cls-1" d="M124.16,45.92l16.53-27.8c.46-.77.27-1.76-.43-2.32-1.9-1.49-4.09-2.94-8.01-2.94-4.3,0-6.51,1.75-8.46,3.3-1.78,1.41-3.19,2.52-6.24,2.52s-4.46-1.11-6.24-2.53c-1.95-1.55-4.16-3.3-8.46-3.3s-6.51,1.75-8.46,3.3c-1.78,1.41-3.19,2.53-6.24,2.53s-4.46-1.11-6.24-2.53c-1.95-1.55-4.16-3.3-8.46-3.3-3.92,0-6.1,1.45-8.01,2.94-.71.55-.89,1.55-.43,2.32l16.53,27.81c-17.18,8.71-30.62,18.9-39.94,30.32-.62.76-.51,1.89.25,2.51.76.62,1.89.51,2.51-.25,9.24-11.32,22.73-21.43,40.11-30.06h36.76c36.11,17.94,55.2,42.39,55.2,70.71,0,22.01-20.9,44.43-41.41,44.43h-64.33c-15.29,0-31.41-12.42-38.34-29.52-.37-.91-1.41-1.36-2.32-.98-.91.37-1.35,1.41-.98,2.32,7.45,18.4,24.96,31.75,41.65,31.75h64.33c10.93,0,22.31-5.6,31.24-15.36,8.73-9.55,13.74-21.45,13.74-32.63,0-20.58-9.75-49.87-55.84-73.23ZM85.07,44.87l-16.16-27.17c1.18-.76,2.5-1.27,4.54-1.27,3.05,0,4.46,1.11,6.24,2.53,1.95,1.54,4.16,3.3,8.46,3.3s6.51-1.75,8.46-3.3c1.78-1.41,3.19-2.53,6.24-2.53s4.46,1.11,6.24,2.53c1.95,1.54,4.16,3.3,8.46,3.3s6.5-1.75,8.46-3.3c1.78-1.41,3.19-2.53,6.24-2.53,2.04,0,3.36.51,4.54,1.27l-16.16,27.18h-35.56Z"/>
  <path class="cls-1" d="M164.93,119.15c0-.99-.8-1.78-1.78-1.78s-1.78.8-1.78,1.78c0,13.44-14.28,29.36-26.34,29.36-.99,0-1.78.8-1.78,1.78s.8,1.78,1.78,1.78c14.26,0,29.91-17.23,29.91-32.92Z"/>
  <path class="cls-1" d="M49.71,106.01c0-.99-.8-1.78-1.78-1.78H1.78c-.99,0-1.78.8-1.78,1.78s.8,1.78,1.78,1.78h46.14c.99,0,1.78-.8,1.78-1.78Z"/>
  <path class="cls-1" d="M14.25,92.72h38.95c.99,0,1.78-.8,1.78-1.78s-.8-1.78-1.78-1.78H14.25c-.99,0-1.78.8-1.78,1.78s.8,1.78,1.78,1.78Z"/>
  <path class="cls-1" d="M54.99,121.08c0-.99-.8-1.78-1.78-1.78H14.25c-.99,0-1.78.8-1.78,1.78s.8,1.78,1.78,1.78h38.95c.99,0,1.78-.8,1.78-1.78Z"/>
</svg>