<?xml version="1.0" encoding="UTF-8"?>
<svg id="Supply_Chain" data-name="Supply Chain" xmlns="http://www.w3.org/2000/svg" viewBox="0 0 180 180">
  <defs>
    <style>
      .cls-1 {
        stroke: #000;
        stroke-miterlimit: 10;
        stroke-width: 2px;
      }
    </style>
  </defs>
  <g>
    <path class="cls-1" d="M90,73.4c-12.55,0-22.76-12.32-22.76-27.47s10.21-27.47,22.76-27.47,22.76,12.32,22.76,27.47-10.21,27.47-22.76,27.47ZM90,22.62c-10.26,0-18.6,10.46-18.6,23.31s8.35,23.31,18.6,23.31,18.6-10.46,18.6-23.31-8.35-23.31-18.6-23.31Z"/>
    <path class="cls-1" d="M148.32,73.4h-26.43c-1.15,0-2.08-.93-2.08-2.08s.93-2.08,2.08-2.08h24.52c.89-5.51,5.25-9.87,10.76-10.76v-25.1c-5.51-.89-9.87-5.25-10.76-10.76h-24.52c-1.15,0-2.08-.93-2.08-2.08s.93-2.08,2.08-2.08h26.43c1.15,0,2.08.93,2.08,2.08,0,4.88,3.97,8.85,8.85,8.85,1.15,0,2.08.93,2.08,2.08v28.93c0,1.15-.93,2.08-2.08,2.08-4.88,0-8.85,3.97-8.85,8.85,0,1.15-.93,2.08-2.08,2.08Z"/>
    <path class="cls-1" d="M58.11,73.4h-26.43c-1.15,0-2.08-.93-2.08-2.08,0-4.88-3.97-8.85-8.85-8.85-1.15,0-2.08-.93-2.08-2.08v-28.93c0-1.15.93-2.08,2.08-2.08,4.88,0,8.85-3.97,8.85-8.85,0-1.15.93-2.08,2.08-2.08h26.43c1.15,0,2.08.93,2.08,2.08s-.93,2.08-2.08,2.08h-24.52c-.89,5.51-5.25,9.87-10.76,10.76v25.1c5.51.89,9.87,5.25,10.76,10.76h24.52c1.15,0,2.08.93,2.08,2.08s-.93,2.08-2.08,2.08Z"/>
    <path class="cls-1" d="M90,91.87H2.29c-1.15,0-2.08-.93-2.08-2.08V2.08C.21.93,1.14,0,2.29,0h175.43C178.86,0,179.79.93,179.79,2.08v71.34c0,1.15-.93,2.08-2.08,2.08s-2.08-.93-2.08-2.08V4.15H4.36v83.56h85.64c1.15,0,2.08.93,2.08,2.08s-.93,2.08-2.08,2.08Z"/>
  </g>
  <path class="cls-1" d="M119.08,180h-18c-.77,0-1.47-.42-1.83-1.1-.36-.67-.32-1.49.1-2.13l58.64-88.13c.39-.58,1.03-.93,1.73-.93h18c.77,0,1.47.42,1.83,1.1.36.67.32,1.49-.1,2.13l-58.64,88.13c-.38.58-1.03.93-1.73.93ZM104.96,175.85h13.01l55.87-83.98h-13.01l-55.87,83.98Z"/>
  <path class="cls-1" d="M113.58,120.93c-7.51,0-13.62-6.11-13.62-13.62s6.11-13.62,13.62-13.62,13.62,6.11,13.62,13.62-6.11,13.62-13.62,13.62ZM113.58,97.85c-5.22,0-9.46,4.25-9.46,9.46s4.24,9.46,9.46,9.46,9.46-4.25,9.46-9.46-4.24-9.46-9.46-9.46Z"/>
  <path class="cls-1" d="M162.98,176.81c-7.51,0-13.62-6.11-13.62-13.62s6.11-13.62,13.62-13.62,13.62,6.11,13.62,13.62-6.11,13.62-13.62,13.62ZM162.98,153.72c-5.22,0-9.46,4.25-9.46,9.46s4.25,9.46,9.46,9.46,9.46-4.25,9.46-9.46-4.24-9.46-9.46-9.46Z"/>
  <path class="cls-1" d="M70.79,118.42H20.75c-1.15,0-2.08-.93-2.08-2.08s.93-2.08,2.08-2.08h50.04c1.15,0,2.08.93,2.08,2.08s-.93,2.08-2.08,2.08Z"/>
  <path class="cls-1" d="M53.25,140.58H3.21c-1.15,0-2.08-.93-2.08-2.08s.93-2.08,2.08-2.08h50.04c1.15,0,2.08.93,2.08,2.08s-.93,2.08-2.08,2.08Z"/>
  <path class="cls-1" d="M70.79,162.74H20.75c-1.15,0-2.08-.93-2.08-2.08s.93-2.08,2.08-2.08h50.04c1.15,0,2.08.93,2.08,2.08s-.93,2.08-2.08,2.08Z"/>
</svg>