<?xml version="1.0" encoding="UTF-8"?>
<svg id="Supply_Chain" data-name="Supply Chain" xmlns="http://www.w3.org/2000/svg" viewBox="0 0 180 180">
  <defs>
    <style>
      .cls-1 {
        stroke: #000;
        stroke-miterlimit: 10;
        stroke-width: 2px;
      }
    </style>
  </defs>
  <path class="cls-1" d="M53.47,115.84c-17.69,0-32.08,14.39-32.08,32.08s14.39,32.08,32.08,32.08,32.08-14.39,32.08-32.08-14.39-32.08-32.08-32.08ZM53.47,176.74c-15.89,0-28.82-12.93-28.82-28.82s12.93-28.82,28.82-28.82,28.82,12.93,28.82,28.82-12.93,28.82-28.82,28.82Z"/>
  <path class="cls-1" d="M53.47,132.16c-8.69,0-15.76,7.07-15.76,15.76s7.07,15.76,15.76,15.76,15.76-7.07,15.76-15.76-7.07-15.76-15.76-15.76ZM53.47,160.43c-6.9,0-12.51-5.61-12.51-12.51s5.61-12.51,12.51-12.51,12.51,5.61,12.51,12.51-5.61,12.51-12.51,12.51Z"/>
  <path class="cls-1" d="M61.18,30.12v79.16c0,.9.73,1.63,1.63,1.63s1.63-.73,1.63-1.63V29.38c0-.47-.2-.92-.56-1.23l-6.82-5.94V3.26h22.73v116.42c0,.9.73,1.63,1.63,1.63s1.63-.73,1.63-1.63V1.63C83.04.73,82.31,0,81.41,0h-25.99c-.9,0-1.63.73-1.63,1.63v21.33c0,.47.2.92.56,1.23l6.82,5.94Z"/>
  <path class="cls-1" d="M178.37,149.6h-85.28c-.9,0-1.63.73-1.63,1.63s.73,1.63,1.63,1.63h83.66v5.16l-90.38,10.31c-.89.1-1.54.91-1.43,1.8.09.83.8,1.44,1.62,1.44.06,0,.12,0,.19-.01l91.82-10.47c.82-.09,1.44-.79,1.44-1.62v-8.24c0-.9-.73-1.63-1.63-1.63Z"/>
  <path class="cls-1" d="M94.16,139.84h78.06c.9,0,1.63-.73,1.63-1.63V60.15c0-.9-.73-1.63-1.63-1.63h-78.06c-.9,0-1.63.73-1.63,1.63v78.06c0,.9.73,1.63,1.63,1.63ZM95.79,61.78h74.8v74.8h-74.8V61.78Z"/>
  <path class="cls-1" d="M19.13,166.27H1.63C.73,166.27,0,167,0,167.9s.73,1.63,1.63,1.63h17.5c.9,0,1.63-.73,1.63-1.63s-.73-1.63-1.63-1.63Z"/>
  <path class="cls-1" d="M1.63,24.58h12.79l13.62,48.29c.13.47.47.86.92,1.05l18.56,7.97v26.51c0,.9.73,1.63,1.63,1.63s1.63-.73,1.63-1.63v-27.58c0-.65-.39-1.24-.99-1.5l-18.83-8.09-13.74-48.73c-.2-.7-.84-1.19-1.57-1.19H1.63C.73,21.33,0,22.06,0,22.96s.73,1.63,1.63,1.63Z"/>
  <path class="cls-1" d="M26.42,92.96v11.17L.65,123.49c-.72.54-.86,1.56-.32,2.28.32.43.81.65,1.3.65.34,0,.68-.11.98-.33l26.42-19.84c.41-.31.65-.79.65-1.3v-11.99c0-.9-.73-1.63-1.63-1.63s-1.63.73-1.63,1.63Z"/>
  <path class="cls-1" d="M154.53,77.84c-.64-.64-1.67-.64-2.3,0l-19.03,19.03-19.03-19.03c-.64-.64-1.67-.64-2.3,0-.64.64-.64,1.67,0,2.3l19.03,19.03-19.03,19.03c-.64.64-.64,1.67,0,2.3.32.32.73.48,1.15.48s.83-.16,1.15-.48l19.03-19.03,19.03,19.03c.32.32.73.48,1.15.48s.83-.16,1.15-.48c.64-.64.64-1.67,0-2.3l-19.03-19.03,19.03-19.03c.64-.64.64-1.67,0-2.3Z"/>
</svg>