<?xml version="1.0" encoding="UTF-8"?>
<svg id="Supply_Chain" data-name="Supply Chain" xmlns="http://www.w3.org/2000/svg" viewBox="0 0 180 180">
  <defs>
    <style>
      .cls-1 {
        stroke: #000;
        stroke-miterlimit: 10;
        stroke-width: 2px;
      }
    </style>
  </defs>
  <path class="cls-1" d="M153.87,0H44.83C39.09,0,34.42,4.67,34.42,10.41v10.74l-17.93,14.47c-.49.4-.77.99-.77,1.62v105.53c0,.63.28,1.23.77,1.62l17.93,14.47v10.74c0,5.74,4.67,10.41,10.41,10.41h109.04c5.74,0,10.41-4.67,10.41-10.41V10.41C164.28,4.67,159.61,0,153.87,0ZM19.88,141.77V38.23l14.54-11.73v127l-14.54-11.73ZM160.12,169.59c0,3.44-2.8,6.25-6.25,6.25H44.83c-3.44,0-6.25-2.8-6.25-6.25V10.41c0-3.44,2.8-6.25,6.25-6.25h109.04c3.44,0,6.25,2.8,6.25,6.25v159.18Z"/>
  <path class="cls-1" d="M145.66,16.54H53.04c-1.15,0-2.08.93-2.08,2.08v56.39c0,.55.22,1.08.61,1.47l15.81,15.78c.39.39.92.61,1.47.61h61c.55,0,1.08-.22,1.47-.61l15.81-15.78c.39-.39.61-.92.61-1.47V18.62c0-1.15-.93-2.08-2.08-2.08ZM143.58,74.16l-14.59,14.56h-59.28l-14.59-14.56V20.71h44.62l-9.99,12.13c-.73.89-.6,2.2.28,2.93.39.32.86.48,1.32.48.6,0,1.2-.26,1.61-.76l12.17-14.77h14.74l-28.17,34.19c-.73.89-.6,2.2.28,2.93.39.32.86.48,1.32.48.6,0,1.2-.26,1.61-.76l30.36-36.84h18.3v53.45Z"/>
  <path class="cls-1" d="M107.34,110.94h-15.98c-1.15,0-2.08.93-2.08,2.08s.93,2.08,2.08,2.08h15.98c1.15,0,2.08-.93,2.08-2.08s-.93-2.08-2.08-2.08Z"/>
  <path class="cls-1" d="M76.03,110.94h-15.98c-1.15,0-2.08.93-2.08,2.08s.93,2.08,2.08,2.08h15.98c1.15,0,2.08-.93,2.08-2.08s-.93-2.08-2.08-2.08Z"/>
  <path class="cls-1" d="M138.65,110.94h-15.98c-1.15,0-2.08.93-2.08,2.08s.93,2.08,2.08,2.08h15.98c1.15,0,2.08-.93,2.08-2.08s-.93-2.08-2.08-2.08Z"/>
  <path class="cls-1" d="M107.34,131.31h-15.98c-1.15,0-2.08.93-2.08,2.08s.93,2.08,2.08,2.08h15.98c1.15,0,2.08-.93,2.08-2.08s-.93-2.08-2.08-2.08Z"/>
  <path class="cls-1" d="M76.03,131.31h-15.98c-1.15,0-2.08.93-2.08,2.08s.93,2.08,2.08,2.08h15.98c1.15,0,2.08-.93,2.08-2.08s-.93-2.08-2.08-2.08Z"/>
  <path class="cls-1" d="M138.65,131.31h-15.98c-1.15,0-2.08.93-2.08,2.08s.93,2.08,2.08,2.08h15.98c1.15,0,2.08-.93,2.08-2.08s-.93-2.08-2.08-2.08Z"/>
  <path class="cls-1" d="M107.34,151.68h-15.98c-1.15,0-2.08.93-2.08,2.08s.93,2.08,2.08,2.08h15.98c1.15,0,2.08-.93,2.08-2.08s-.93-2.08-2.08-2.08Z"/>
  <path class="cls-1" d="M76.03,151.68h-15.98c-1.15,0-2.08.93-2.08,2.08s.93,2.08,2.08,2.08h15.98c1.15,0,2.08-.93,2.08-2.08s-.93-2.08-2.08-2.08Z"/>
  <path class="cls-1" d="M138.65,151.68h-15.98c-1.15,0-2.08.93-2.08,2.08s.93,2.08,2.08,2.08h15.98c1.15,0,2.08-.93,2.08-2.08s-.93-2.08-2.08-2.08Z"/>
</svg>