<?xml version="1.0" encoding="UTF-8"?>
<svg id="Supply_Chain" data-name="Supply Chain" xmlns="http://www.w3.org/2000/svg" viewBox="0 0 180 180">
  <defs>
    <style>
      .cls-1 {
        stroke: #000;
        stroke-miterlimit: 10;
        stroke-width: 2px;
      }
    </style>
  </defs>
  <path class="cls-1" d="M179.97,96.77c0-.9-.73-1.63-1.64-1.63-9.42,0-17.08-7.66-17.08-17.08,0-.9-.73-1.64-1.64-1.64h-47.45c-.9,0-1.64.73-1.64,1.64,0,9.42-7.66,17.08-17.08,17.08-.9,0-1.63.73-1.64,1.63,0,.22-.06,21.87,0,40.05.08,25.47,43.38,43.1,43.81,43.17.09.01.17.02.26.02s.17,0,.26-.02c.44-.07,43.73-17.68,43.81-43.17.06-18.18,0-39.83,0-40.05ZM176.7,136.8c-.07,21.33-36.03,37.73-40.8,39.79-4.77-2.07-40.73-18.47-40.8-39.79-.05-15.34-.02-33.15,0-38.46,9.92-.79,17.86-8.73,18.65-18.65h44.31c.79,9.92,8.73,17.86,18.65,18.65.01,5.31.04,23.12,0,38.46Z"/>
  <path class="cls-1" d="M151.2,149.29c-4.37,3.52-9.9,7.11-15.3,9.93-12.18-6.36-25.03-16.6-25.05-22.46-.03-9.21-.03-19.31-.02-27.05,6.25-3.45,11.46-8.79,14.74-15.14.41-.8.1-1.79-.7-2.21-.8-.41-1.79-.1-2.2.7-3.12,6.05-8.17,11.09-14.21,14.2-.54.28-.89.84-.89,1.45,0,7.86-.01,18.44.02,28.05.03,8.57,16.51,20.1,27.58,25.75.23.12.49.18.74.18s.51-.06.74-.18c5.82-2.97,11.88-6.86,16.61-10.68.7-.57.82-1.6.25-2.3-.57-.7-1.6-.81-2.3-.25Z"/>
  <path class="cls-1" d="M99.86,168.31H3.27V3.27h165.04v73.55c0,.9.73,1.64,1.64,1.64s1.64-.73,1.64-1.64V1.64C171.58.73,170.85,0,169.95,0H1.64C.73,0,0,.73,0,1.64v168.31C0,170.85.73,171.58,1.64,171.58h98.22c.9,0,1.64-.73,1.64-1.64s-.73-1.64-1.64-1.64Z"/>
  <path class="cls-1" d="M144.17,66.61c.9,0,1.64-.73,1.64-1.64V27.42c0-.9-.73-1.64-1.64-1.64H27.42c-.9,0-1.64.73-1.64,1.64v116.75c0,.9.73,1.64,1.64,1.64h53.87c.9,0,1.64-.73,1.64-1.64s-.73-1.64-1.64-1.64H29.05V29.05h113.48v35.92c0,.9.73,1.64,1.64,1.64Z"/>
  <path class="cls-1" d="M48.39,46.59v78.4c0,.9.73,1.64,1.64,1.64s1.64-.73,1.64-1.64V46.59c0-.9-.73-1.64-1.64-1.64s-1.64.73-1.64,1.64Z"/>
  <path class="cls-1" d="M72.23,46.59v78.4c0,.9.73,1.64,1.64,1.64s1.64-.73,1.64-1.64V46.59c0-.9-.73-1.64-1.64-1.64s-1.64.73-1.64,1.64Z"/>
  <path class="cls-1" d="M96.08,46.59v36.06c0,.9.73,1.64,1.64,1.64s1.64-.73,1.64-1.64v-36.06c0-.9-.73-1.64-1.64-1.64s-1.64.73-1.64,1.64Z"/>
  <path class="cls-1" d="M119.92,46.59v18.38c0,.9.73,1.64,1.64,1.64s1.64-.73,1.64-1.64v-18.38c0-.9-.73-1.64-1.64-1.64s-1.64.73-1.64,1.64Z"/>
</svg>