<?xml version="1.0" encoding="UTF-8"?>
<svg id="Supply_Chain" data-name="Supply Chain" xmlns="http://www.w3.org/2000/svg" viewBox="0 0 180 180">
  <defs>
    <style>
      .cls-1 {
        stroke: #000;
        stroke-miterlimit: 10;
        stroke-width: 2px;
      }
    </style>
  </defs>
  <path class="cls-1" d="M178.97,33.32L90.56.1c-.36-.14-.76-.14-1.12,0L1.03,33.32c-.62.23-1.03.82-1.03,1.49v110.39c0,.66.41,1.25,1.03,1.49l88.41,33.22s.26.1.56.1.54-.09.56-.1l88.41-33.22c.62-.23,1.03-.82,1.03-1.49V34.8c0-.66-.41-1.25-1.03-1.49ZM57.34,57.44v23.42s-22.89-8.6-22.89-8.6v-23.42l22.89,8.6ZM142.83,23.13l-83.9,31.52-21.56-8.1L121.13,14.98l21.69,8.15ZM90,66.33l-26.56-9.98,83.9-31.52,26.56,9.98-83.9,31.52ZM90,3.28l26.62,10-83.76,31.57-26.76-10.05L90,3.28ZM3.17,37.1l28.1,10.56v25.71c0,.66.41,1.25,1.03,1.49l26.07,9.79c.18.07.37.1.56.1.32,0,.63-.1.9-.28.43-.3.68-.78.68-1.3v-24.52s27.9,10.48,27.9,10.48v107L3.17,144.1V37.1ZM91.59,176.12v-107l85.24-32.02v107l-85.24,32.02Z"/>
</svg>