<?xml version="1.0" encoding="UTF-8"?>
<svg id="Supply_Chain" data-name="Supply Chain" xmlns="http://www.w3.org/2000/svg" viewBox="0 0 180 180">
  <defs>
    <style>
      .cls-1 {
        stroke: #000;
        stroke-miterlimit: 10;
        stroke-width: 2px;
      }
    </style>
  </defs>
  <path class="cls-1" d="M175.39,72.92s-63.65-33.99-63.65-33.99c-.74-.39-1.66-.12-2.06.62-.4.74-.12,1.66.62,2.06l58.27,31.11H11.42l58.27-31.11c.74-.4,1.02-1.32.62-2.06-.4-.74-1.31-1.02-2.06-.62,0,0-63.64,33.98-63.65,33.99-.46.26-.78.75-.78,1.32v104.24c0,.84.68,1.52,1.52,1.52h169.31c.84,0,1.52-.68,1.52-1.52v-104.24c0-.57-.32-1.06-.78-1.32ZM173.14,176.96H6.86v-101.2h166.27v101.2Z"/>
  <path class="cls-1" d="M25.02,158.32c.84,0,1.52-.68,1.52-1.52v-59.68c0-.84-.68-1.52-1.52-1.52s-1.52.68-1.52,1.52v59.68c0,.84.68,1.52,1.52,1.52Z"/>
  <path class="cls-1" d="M43.58,158.15c.84,0,1.52-.68,1.52-1.52v-59.68c0-.84-.68-1.52-1.52-1.52s-1.52.68-1.52,1.52v59.68c0,.84.68,1.52,1.52,1.52Z"/>
  <path class="cls-1" d="M62.15,157.98c.84,0,1.52-.68,1.52-1.52v-59.68c0-.84-.68-1.52-1.52-1.52s-1.52.68-1.52,1.52v59.68c0,.84.68,1.52,1.52,1.52Z"/>
  <path class="cls-1" d="M80.72,157.81c.84,0,1.52-.68,1.52-1.52v-59.68c0-.84-.68-1.52-1.52-1.52s-1.52.68-1.52,1.52v59.68c0,.84.68,1.52,1.52,1.52Z"/>
  <path class="cls-1" d="M99.28,157.64c.84,0,1.52-.68,1.52-1.52v-59.68c0-.84-.68-1.52-1.52-1.52s-1.52.68-1.52,1.52v59.68c0,.84.68,1.52,1.52,1.52Z"/>
  <path class="cls-1" d="M117.85,157.47c.84,0,1.52-.68,1.52-1.52v-59.68c0-.84-.68-1.52-1.52-1.52s-1.52.68-1.52,1.52v59.68c0,.84.68,1.52,1.52,1.52Z"/>
  <path class="cls-1" d="M136.42,157.29c.84,0,1.52-.68,1.52-1.52v-59.68c0-.84-.68-1.52-1.52-1.52s-1.52.68-1.52,1.52v59.68c0,.84.68,1.52,1.52,1.52Z"/>
  <path class="cls-1" d="M154.98,157.12c.84,0,1.52-.68,1.52-1.52v-59.68c0-.84-.68-1.52-1.52-1.52s-1.52.68-1.52,1.52v59.68c0,.84.68,1.52,1.52,1.52Z"/>
  <path class="cls-1" d="M90,39.56c6.54,0,11.85-5.32,11.85-11.85,0-5.64-3.29-8.93-6.19-11.84-2.22-2.22-4.14-4.15-4.14-6.71V1.52c0-.84-.68-1.52-1.52-1.52s-1.52.68-1.52,1.52v7.65c0,3.82,2.56,6.38,5.03,8.85,2.73,2.73,5.3,5.31,5.3,9.69,0,4.86-3.95,8.81-8.81,8.81s-8.81-3.95-8.81-8.81c0-.84-.68-1.52-1.52-1.52s-1.52.68-1.52,1.52c0,6.53,5.32,11.85,11.85,11.85Z"/>
</svg>