<?xml version="1.0" encoding="UTF-8"?>
<svg id="Supply_Chain" data-name="Supply Chain" xmlns="http://www.w3.org/2000/svg" viewBox="0 0 180 180">
  <defs>
    <style>
      .cls-1 {
        stroke: #000;
        stroke-miterlimit: 10;
        stroke-width: 2px;
      }
    </style>
  </defs>
  <path class="cls-1" d="M42.94,66.03c0-.88-.71-1.59-1.59-1.59s-1.59.71-1.59,1.59v91.75l-15.69,7.4c-.79.37-1.13,1.32-.76,2.11.27.57.84.91,1.44.91.23,0,.46-.05.68-.15l15.92-7.51,15.92,7.51c.79.38,1.74.03,2.11-.76.37-.79.03-1.74-.76-2.11l-15.69-7.4v-91.75Z"/>
  <path class="cls-1" d="M148.58,101.2c0-.88-.71-1.59-1.59-1.59h-69.45c-.88,0-1.59.71-1.59,1.59s.71,1.59,1.59,1.59h69.45c.88,0,1.59-.71,1.59-1.59Z"/>
  <path class="cls-1" d="M149.92,120.29h-69.45c-.88,0-1.59.71-1.59,1.59s.71,1.59,1.59,1.59h69.45c.88,0,1.59-.71,1.59-1.59s-.71-1.59-1.59-1.59Z"/>
  <path class="cls-1" d="M173.43,178.19l-18.82-132.78c-.11-.78-.78-1.36-1.57-1.36h-18.2v-13.11c0-17.06-13.88-30.94-30.94-30.94s-30.94,13.88-30.94,30.94v13.11h-23.2v-13.11c0-15.31,12.45-27.76,27.76-27.76.5,0,.99.01,1.48.04.88.05,1.62-.63,1.67-1.5.05-.87-.63-1.62-1.5-1.67-.54-.03-1.09-.04-1.64-.04-17.06,0-30.94,13.88-30.94,30.94v13.11h-19.64c-.79,0-1.46.58-1.57,1.36L6.57,178.19c-.06.46.07.92.37,1.26.3.35.74.55,1.2.55h163.72c.46,0,.9-.2,1.2-.55.3-.35.44-.81.37-1.26ZM76.14,30.94c0-15.31,12.45-27.76,27.76-27.76s27.76,12.45,27.76,27.76v13.11h-23.2v-13.11c0-7.72-2.86-15.11-8.04-20.81-.59-.65-1.59-.7-2.24-.11-.65.59-.7,1.59-.11,2.24,4.66,5.12,7.22,11.75,7.22,18.67v13.11h-29.15v-13.11ZM9.97,176.83L28.34,47.22h26.02l18.37,129.6H9.97ZM75.93,176.83L57.56,47.22h94.1l18.37,129.6h-94.1Z"/>
</svg>