<?xml version="1.0" encoding="UTF-8"?>
<svg id="Supply_Chain" data-name="Supply Chain" xmlns="http://www.w3.org/2000/svg" viewBox="0 0 180 180">
  <defs>
    <style>
      .cls-1 {
        stroke: #000;
        stroke-miterlimit: 10;
        stroke-width: 2px;
      }
    </style>
  </defs>
  <path class="cls-1" d="M58.56,101.3v5.78c0,1.12.91,2.03,2.03,2.03s2.03-.91,2.03-2.03v-5.78c3.53-.46,6.86-2.1,9.35-4.68,2.85-2.96,4.34-6.8,4.19-10.81-.34-9.11-7.18-12.8-13.22-16.06-5.23-2.82-9.74-5.26-9.76-10.66,0-1.78.85-3.71,2.29-5.16,1.44-1.45,3.26-2.25,5.12-2.25,4.09,0,7.41,3.32,7.41,7.41,0,1.12.91,2.03,2.03,2.03s2.03-.91,2.03-2.03c0-5.63-4.08-10.31-9.44-11.28v-5.82c0-1.12-.91-2.03-2.03-2.03s-2.03.91-2.03,2.03v5.83c-2.2.43-4.28,1.54-5.97,3.24-2.22,2.23-3.48,5.16-3.47,8.04.03,7.81,6.33,11.21,11.89,14.22,5.57,3.01,10.84,5.85,11.09,12.64.11,2.9-.98,5.69-3.05,7.84-2.2,2.28-5.28,3.59-8.46,3.59-6.35,0-11.51-5.16-11.51-11.51,0-1.12-.91-2.03-2.03-2.03s-2.03.91-2.03,2.03c0,7.9,5.91,14.42,13.54,15.42Z"/>
  <path class="cls-1" d="M160.07,23.8c-.79-.79-2.08-.79-2.87,0-.79.79-.79,2.08,0,2.87,12.09,12.09,18.75,28.19,18.75,45.33s-6.66,33.24-18.75,45.33c-.79.79-.79,2.08,0,2.87.4.4.91.59,1.43.59s1.04-.2,1.43-.59c12.85-12.85,19.93-29.97,19.93-48.2s-7.08-35.35-19.93-48.2Z"/>
  <path class="cls-1" d="M143.87,40c-.79-.79-2.08-.79-2.87,0-.79.79-.79,2.08,0,2.87,16.06,16.06,16.06,42.2,0,58.26-.79.79-.79,2.08,0,2.87.4.4.91.59,1.43.59s1.04-.2,1.43-.59c17.65-17.65,17.65-46.36,0-64Z"/>
  <path class="cls-1" d="M124.8,56.2c-.79.79-.79,2.08,0,2.87,7.13,7.13,7.13,18.73,0,25.87-.79.79-.79,2.08,0,2.87.4.4.91.59,1.43.59s1.04-.2,1.43-.59c8.71-8.71,8.71-22.89,0-31.6-.79-.79-2.08-.79-2.87,0Z"/>
  <path class="cls-1" d="M14.65,14.94c-1.12,0-2.03.91-2.03,2.03v146.05c0,1.12.91,2.03,2.03,2.03h91.88c1.12,0,2.03-.91,2.03-2.03V16.97c0-1.12-.91-2.03-2.03-2.03H14.65ZM104.51,161H16.68V19h87.83v142Z"/>
  <path class="cls-1" d="M111.04,2.32H10.14C4.55,2.32,0,6.87,0,12.47v155.07c0,5.59,4.55,10.14,10.14,10.14h100.9c5.59,0,10.14-4.55,10.14-10.14v-60.33c0-1.12-.91-2.03-2.03-2.03s-2.03.91-2.03,2.03v60.33c0,3.36-2.73,6.09-6.09,6.09H10.14c-3.36,0-6.09-2.73-6.09-6.09V12.47c0-3.36,2.73-6.09,6.09-6.09h100.9c3.36,0,6.09,2.73,6.09,6.09v22.4c0,1.12.91,2.03,2.03,2.03s2.03-.91,2.03-2.03V12.47c0-5.59-4.55-10.14-10.14-10.14Z"/>
  <path class="cls-1" d="M44.18,147.08h32.84c6.05,0,10.97-4.92,10.97-10.97s-4.92-10.97-10.97-10.97h-32.84c-6.05,0-10.97,4.92-10.97,10.97s4.92,10.97,10.97,10.97ZM44.18,129.19h32.84c3.81,0,6.92,3.1,6.92,6.92s-3.1,6.92-6.92,6.92h-32.84c-3.81,0-6.92-3.1-6.92-6.92s3.1-6.92,6.92-6.92Z"/>
</svg>