<?xml version="1.0" encoding="UTF-8"?>
<svg id="Supply_Chain" data-name="Supply Chain" xmlns="http://www.w3.org/2000/svg" viewBox="0 0 180 180">
  <defs>
    <style>
      .cls-1 {
        stroke: #000;
        stroke-miterlimit: 10;
        stroke-width: 2px;
      }
    </style>
  </defs>
  <path class="cls-1" d="M177.87.51h-14.8c-.89,0-1.62.72-1.62,1.62v11.29H18.54V2.13c0-.89-.72-1.62-1.62-1.62H2.13c-.89,0-1.62.72-1.62,1.62v175.75c0,.89.72,1.62,1.62,1.62h14.8c.89,0,1.62-.72,1.62-1.62v-11.29h142.91v11.29c0,.89.72,1.62,1.62,1.62h14.8c.89,0,1.62-.72,1.62-1.62V2.13c0-.89-.72-1.62-1.62-1.62ZM161.46,16.66v71.72h-77.88v-49.44c0-.89-.72-1.62-1.62-1.62H30.9c-.89,0-1.62.72-1.62,1.62v49.44h-10.73V16.66h142.91ZM80.34,88.38h-47.82v-47.82h47.82v47.82ZM15.31,176.26H3.74V3.74h11.56v172.51ZM32.52,163.34v-47.82h47.82v47.82h-47.82ZM99.66,163.34v-47.82h47.82v47.82h-47.82ZM150.72,163.34v-49.44c0-.89-.72-1.62-1.62-1.62h-51.06c-.89,0-1.62.72-1.62,1.62v49.44h-12.85v-49.44c0-.89-.72-1.62-1.62-1.62H30.9c-.89,0-1.62.72-1.62,1.62v49.44h-10.73v-71.72h142.91v71.72h-10.73ZM176.26,176.26h-11.56V3.74h11.56v172.51Z"/>
  <path class="cls-1" d="M62.86,127.64h-12.86c-.89,0-1.62.72-1.62,1.62s.72,1.62,1.62,1.62h12.86c.89,0,1.62-.72,1.62-1.62s-.72-1.62-1.62-1.62Z"/>
  <path class="cls-1" d="M130.01,127.64h-12.86c-.89,0-1.62.72-1.62,1.62s.72,1.62,1.62,1.62h12.86c.89,0,1.62-.72,1.62-1.62s-.72-1.62-1.62-1.62Z"/>
  <path class="cls-1" d="M50,55.92h12.86c.89,0,1.62-.72,1.62-1.62s-.72-1.62-1.62-1.62h-12.86c-.89,0-1.62.72-1.62,1.62s.72,1.62,1.62,1.62Z"/>
</svg>