<?xml version="1.0" encoding="UTF-8"?>
<svg id="Supply_Chain" data-name="Supply Chain" xmlns="http://www.w3.org/2000/svg" viewBox="0 0 180 180">
  <defs>
    <style>
      .cls-1 {
        stroke: #000;
        stroke-miterlimit: 10;
        stroke-width: 2px;
      }
    </style>
  </defs>
  <path class="cls-1" d="M156.15,115.95s-8-35.88-8-35.88c-.62-2.84-1.79-8.12-8.92-12.55,0,0-14.55-8.17-19.17-11.36,0,0-4.89-3.37-7.01-4.63L92.01.83c-.14-.33-.4-.59-.73-.73-.33-.14-.7-.14-1.03,0l-25.45,10.57c-.69.29-1.01,1.07-.73,1.76l17.16,41.38c-2.98,1.36-12.43,6.15-12.43,6.15-20.33,10.48-27.18,14-43.59,13.62-.73-.04-1.36.57-1.38,1.32-.02.74.57,1.36,1.32,1.38,17.11.43,24.11-3.2,44.89-13.92,0,0,9.33-4.73,12.23-6.07l20.37,49.1c-1.81-.21-3.28-.37-4.17-.43-5.36-.45-5.82-5.3-5.83-6.77,0-.74-.61-1.34-1.35-1.34h-.01c-.75,0-1.34.61-1.34,1.36.03,4.03,2.22,8.93,8.32,9.44,4.66.33,26.62,3.39,26.85,3.42.04,0,.07,0,.11.01,14.26.8,19.32,8.85,19.32,15.51s-5.52,6.85-13.94,6.85h-49.7c-10.84,0-19.24-4.03-27.36-7.92-8.42-4.04-17.12-8.22-28.4-7.86-.74.02-1.33.65-1.31,1.39.02.75.65,1.35,1.39,1.31,10.63-.33,18.65,3.52,27.15,7.59,8.39,4.02,17.07,8.18,28.52,8.18h34.5l2.01,4.86c.08.19.2.36.35.49l23.53,20.75c.25.22.57.34.89.34.17,0,.35-.03.52-.1.48-.2.8-.65.83-1.16l1.76-28.73c1.21-1.39,1.94-3.31,1.94-5.99,0-1.85-.32-3.72-.99-5.52.64.12,1.28.19,1.91.19.4,0,.8-.02,1.19-.07,4.43-.56,6.58-4.1,6.67-4.25.18-.3.23-.65.16-.98ZM105.7,105.76L67.07,12.64l22.96-9.53,44.4,107.03c-2.59-.93-5.59-1.55-9.02-1.75-1.06-.15-11.87-1.65-19.71-2.63ZM118.3,136.14h12.28c4.01,0,8.55,0,11.87-1.52l-1.08,17.63-4.99,2.07-16.62-14.65-1.47-3.53ZM148.95,118.51c-1.36.16-2.85-.12-4.43-.81-1.5-2.28-3.65-4.33-6.49-5.93l-23.18-55.89c1.12.75,3.68,2.51,3.68,2.51,4.72,3.26,19.33,11.46,19.33,11.46,6.12,3.8,7.08,8.19,7.66,10.81,0,0,7.42,33.28,7.88,35.3-.59.75-2.05,2.27-4.44,2.56Z"/>
  <path class="cls-1" d="M107.54,177.3h-25.43c-4.66,0-8.46-3.26-8.46-7.27,0-.75-.6-1.35-1.35-1.35s-1.35.6-1.35,1.35c0,3.98-3.75,7.23-8.39,7.27-.02,0-.05,0-.07,0-4.68,0-9.08-2.43-12.7-5.98,5.19-5.98,8.47-13.92,8.47-20.08,0-6.76-3.86-10.8-10.31-10.8h0c-3.42,0-6.07,1.07-7.88,3.17-1.59,1.85-2.44,4.49-2.44,7.63,0,6.16,3.28,14.1,8.47,20.08-3.62,3.56-8.02,5.98-12.7,5.98-.74,0-1.35.6-1.35,1.35s.6,1.35,1.35,1.35c5.43,0,10.46-2.73,14.55-6.72,4.07,3.97,9.07,6.69,14.46,6.72.03,0,.05,0,.08,0,4.23,0,7.92-2.11,9.81-5.22,1.89,3.11,5.58,5.22,9.81,5.22h25.43c.74,0,1.35-.6,1.35-1.35s-.6-1.35-1.35-1.35ZM40.32,151.24c0-2.48.62-4.52,1.78-5.87,1.27-1.48,3.23-2.23,5.84-2.23,6.3,0,7.62,4.4,7.62,8.1,0,5.45-2.98,12.64-7.62,18.09-4.64-5.45-7.62-12.65-7.62-18.09Z"/>
  <path class="cls-1" d="M142.67,177.3h-17.01c-.74,0-1.35.6-1.35,1.35s.6,1.35,1.35,1.35h17.01c.74,0,1.35-.6,1.35-1.35s-.6-1.35-1.35-1.35Z"/>
</svg>