<?xml version="1.0" encoding="UTF-8"?>
<svg id="Supply_Chain" data-name="Supply Chain" xmlns="http://www.w3.org/2000/svg" viewBox="0 0 180 180">
  <defs>
    <style>
      .cls-1 {
        stroke: #000;
        stroke-miterlimit: 10;
        stroke-width: 2px;
      }
    </style>
  </defs>
  <path class="cls-1" d="M13.2,33.81h31.25c.79,0,1.43-.64,1.43-1.43s-.64-1.43-1.43-1.43H13.2c-.79,0-1.43.64-1.43,1.43s.64,1.43,1.43,1.43Z"/>
  <path class="cls-1" d="M1.43,53.94h31.25c.79,0,1.43-.64,1.43-1.43s-.64-1.43-1.43-1.43H1.43c-.79,0-1.43.64-1.43,1.43s.64,1.43,1.43,1.43Z"/>
  <path class="cls-1" d="M44.45,71.21H13.2c-.79,0-1.43.64-1.43,1.43s.64,1.43,1.43,1.43h31.25c.79,0,1.43-.64,1.43-1.43s-.64-1.43-1.43-1.43Z"/>
  <path class="cls-1" d="M34.12,92.77c0-.79-.64-1.43-1.43-1.43H1.43c-.79,0-1.43.64-1.43,1.43s.64,1.43,1.43,1.43h31.25c.79,0,1.43-.64,1.43-1.43Z"/>
  <path class="cls-1" d="M45.89,112.9c0-.79-.64-1.43-1.43-1.43H13.2c-.79,0-1.43.64-1.43,1.43s.64,1.43,1.43,1.43h31.25c.79,0,1.43-.64,1.43-1.43Z"/>
  <path class="cls-1" d="M173.52,45.89h-9.2c-13.92-27.23-46.48-29.12-53.85-29.19v-6.55c0-.79-.64-1.43-1.43-1.43H28.83c-.79,0-1.43.64-1.43,1.43s.64,1.43,1.43,1.43h78.77v111.05c-4.98,2.34-9.08,6.24-11.68,11.06H28.83c-.79,0-1.43.64-1.43,1.43s.64,1.43,1.43,1.43h65.78c-1.1,2.85-1.72,5.95-1.72,9.19,0,3.42.68,6.68,1.9,9.66H28.83c-.79,0-1.43.64-1.43,1.43s.64,1.43,1.43,1.43h67.36c4.39,7.75,12.71,13,22.23,13s17.85-5.25,22.23-13h32.87c3.57,0,6.48-2.9,6.48-6.48V52.37c0-3.57-2.91-6.48-6.48-6.48ZM144.57,69.38c-.79,0-1.43.64-1.43,1.43v26.4h-.56c-7.09,0-12.86-5.77-12.86-12.86v-21.66h47.41v34.51h-31.13v-26.4c0-.79-.64-1.43-1.43-1.43ZM161.08,45.89h-50.61v-26.33c6.79.06,37.04,1.74,50.61,26.33ZM118.42,168.42c-12.5,0-22.67-10.17-22.67-22.67s10.17-22.67,22.67-22.67,22.67,10.17,22.67,22.67-10.17,22.67-22.67,22.67ZM173.52,155.41h-31.47c1.22-2.98,1.9-6.24,1.9-9.66,0-14.08-11.45-25.53-25.53-25.53-2.78,0-5.45.45-7.95,1.27V48.76h63.05c1.99,0,3.61,1.62,3.61,3.61v7.46h-48.84c-.79,0-1.43.64-1.43,1.43v23.09c0,8.67,7.05,15.72,15.72,15.72h34.55v33.62h-25.69c-.79,0-1.43.64-1.43,1.43s.64,1.43,1.43,1.43h25.69v15.24c0,1.99-1.62,3.61-3.61,3.61Z"/>
</svg>