<?xml version="1.0" encoding="UTF-8"?>
<svg id="Supply_Chain" data-name="Supply Chain" xmlns="http://www.w3.org/2000/svg" viewBox="0 0 180 180">
  <defs>
    <style>
      .cls-1 {
        stroke: #000;
        stroke-miterlimit: 10;
        stroke-width: 2px;
      }
    </style>
  </defs>
  <path class="cls-1" d="M168.94,0H11.06C5.57,0,1.1,4.47,1.1,9.96v166.14c0,.94.76,1.7,1.7,1.7s1.7-.76,1.7-1.7V28.99h171.01v147.11c0,.94.76,1.7,1.7,1.7s1.7-.76,1.7-1.7V9.96c0-5.49-4.47-9.96-9.96-9.96ZM4.49,25.6v-15.64c0-3.62,2.95-6.57,6.57-6.57h157.88c3.62,0,6.57,2.95,6.57,6.57v15.64H4.49Z"/>
  <path class="cls-1" d="M162.88,10.96c-1.95,0-3.53,1.58-3.53,3.53s1.58,3.53,3.53,3.53,3.53-1.58,3.53-3.53-1.58-3.53-3.53-3.53Z"/>
  <path class="cls-1" d="M148.37,10.96c-1.95,0-3.53,1.58-3.53,3.53s1.58,3.53,3.53,3.53,3.53-1.58,3.53-3.53-1.58-3.53-3.53-3.53Z"/>
  <path class="cls-1" d="M133.86,10.96c-1.95,0-3.53,1.58-3.53,3.53s1.58,3.53,3.53,3.53,3.53-1.58,3.53-3.53-1.58-3.53-3.53-3.53Z"/>
  <path class="cls-1" d="M78.42,48.36H22.13c-.94,0-1.7.76-1.7,1.7v40.28c0,.94.76,1.7,1.7,1.7h56.29c.94,0,1.7-.76,1.7-1.7v-40.28c0-.94-.76-1.7-1.7-1.7ZM76.73,88.64H23.83v-36.89h52.9v36.89Z"/>
  <path class="cls-1" d="M101.58,92.03h56.29c.94,0,1.7-.76,1.7-1.7v-40.28c0-.94-.76-1.7-1.7-1.7h-56.29c-.94,0-1.7.76-1.7,1.7v40.28c0,.94.76,1.7,1.7,1.7ZM103.27,51.75h52.9v36.89h-52.9v-36.89Z"/>
  <path class="cls-1" d="M78.42,106.84H22.13c-.94,0-1.7.76-1.7,1.7v40.28c0,.94.76,1.7,1.7,1.7h56.29c.94,0,1.7-.76,1.7-1.7v-40.28c0-.94-.76-1.7-1.7-1.7ZM76.73,147.12H23.83v-36.89h52.9v36.89Z"/>
  <path class="cls-1" d="M113.17,147.12h-9.89v-36.89h52.9v22.48c0,.94.76,1.7,1.7,1.7s1.7-.76,1.7-1.7v-24.18c0-.94-.76-1.7-1.7-1.7h-56.29c-.94,0-1.7.76-1.7,1.7v40.28c0,.94.76,1.7,1.7,1.7h11.59c.94,0,1.7-.76,1.7-1.7s-.76-1.7-1.7-1.7Z"/>
  <path class="cls-1" d="M144.62,146.79l7.92-5.61c.48-.34.75-.91.71-1.51-.04-.59-.39-1.12-.92-1.39l-32.6-16.68c-.56-.29-1.24-.24-1.75.12-.52.37-.78.99-.7,1.61l4.9,36.29c.08.59.46,1.09,1,1.33.54.24,1.17.17,1.66-.17l7.92-5.61,12.95,23.92c.23.43.63.73,1.11.84.13.03.26.04.39.04.35,0,.69-.11.98-.31l14.42-10.21c.4-.28.65-.72.71-1.2.05-.48-.1-.96-.43-1.32l-18.26-20.17ZM147.78,175.82l-12.95-23.92c-.23-.43-.63-.73-1.11-.84-.13-.03-.26-.04-.39-.04-.35,0-.69.11-.98.31l-7.19,5.09-4.09-30.3,27.22,13.93-7.19,5.09c-.4.28-.65.72-.71,1.2-.05.48.1.96.43,1.32l18.26,20.17-11.3,8Z"/>
</svg>