<?xml version="1.0" encoding="UTF-8"?>
<svg id="Supply_Chain" data-name="Supply Chain" xmlns="http://www.w3.org/2000/svg" viewBox="0 0 180 180">
  <defs>
    <style>
      .cls-1 {
        stroke: #000;
        stroke-miterlimit: 10;
        stroke-width: 2px;
      }
    </style>
  </defs>
  <path class="cls-1" d="M164.15,59.81h-2.13l-25.06-40.16c-.61-.98-1.89-1.27-2.87-.66l-12.01,7.5-19.06-20.15c-.79-.84-2.11-.87-2.94-.08l-9.82,9.29L66.67.33c-.97-.62-2.26-.34-2.88.62L25.89,59.74c-9.82-.71-17.33-8.55-17.33-18.45,0-10.51,8.43-19.06,18.79-19.06h7.71c1.15,0,2.08-.93,2.08-2.08s-.93-2.08-2.08-2.08h-7.71c-12.66,0-22.95,10.42-22.95,23.22v116.02c0,12.51,10.3,22.68,22.95,22.68h136.8c6.32,0,11.46-5.14,11.46-11.46v-97.28c0-6.32-5.14-11.46-11.46-11.46ZM134.53,23.62l22.58,36.19h-80.57l57.99-36.19ZM101.43,10.71l17.05,18.02-49.8,31.08h-19.15L101.43,10.71ZM66.16,4.96l20.98,13.53-43.69,41.32h-12.66L66.16,4.96ZM171.44,168.54c0,4.02-3.27,7.29-7.29,7.29H27.35c-10.53,0-18.79-8.13-18.79-18.52V54.31c4.16,5.84,11.03,9.66,18.79,9.66h136.8c4.02,0,7.29,3.27,7.29,7.29v97.28Z"/>
  <path class="cls-1" d="M164.15,18.07h-10.67c-1.15,0-2.08.93-2.08,2.08s.93,2.08,2.08,2.08h10.67c4.02,0,7.29,3.27,7.29,7.29v12.67c0,1.15.93,2.08,2.08,2.08s2.08-.93,2.08-2.08v-12.67c0-6.32-5.14-11.46-11.46-11.46Z"/>
  <path class="cls-1" d="M142.32,114.11c-2.85,0-5.16,2.31-5.16,5.16s2.31,5.16,5.16,5.16,5.16-2.31,5.16-5.16-2.31-5.16-5.16-5.16Z"/>
  <path class="cls-1" d="M30.31,87.69c-1.15,0-2.08.93-2.08,2.08v59c0,1.15.93,2.08,2.08,2.08s2.08-.93,2.08-2.08v-59c0-1.15-.93-2.08-2.08-2.08Z"/>
</svg>