<?xml version="1.0" encoding="UTF-8"?>
<svg id="Supply_Chain" data-name="Supply Chain" xmlns="http://www.w3.org/2000/svg" viewBox="0 0 180 180">
  <defs>
    <style>
      .cls-1 {
        stroke: #000;
        stroke-miterlimit: 10;
        stroke-width: 2px;
      }
    </style>
  </defs>
  <path class="cls-1" d="M42.09,19.95c2.32-1.98,4.77-3.78,7.32-5.41v62.96c0,.83.68,1.51,1.51,1.51h78.16c.83,0,1.51-.68,1.51-1.51V14.54c2.55,1.63,5,3.43,7.32,5.41.28.24.63.36.98.36.43,0,.85-.18,1.15-.53.54-.63.47-1.59-.17-2.13-27.5-23.51-72.24-23.51-99.74,0-.63.54-.71,1.5-.17,2.13.54.63,1.5.71,2.13.17ZM69.96,75.99v-21.56h40.08v21.56h-40.08ZM127.57,12.71v63.28h-14.51v-23.07c0-.83-.68-1.51-1.51-1.51h-43.1c-.83,0-1.51.68-1.51,1.51v23.07h-14.51V12.71c22.66-12.92,52.48-12.92,75.14,0Z"/>
  <path class="cls-1" d="M108.86,139.23h-17.35v-47.99c0-.83-.68-1.51-1.51-1.51s-1.51.68-1.51,1.51v47.99h-17.35c-.83,0-1.51.68-1.51,1.51v37.72c0,.83.68,1.51,1.51,1.51h37.72c.83,0,1.51-.68,1.51-1.51v-37.72c0-.83-.68-1.51-1.51-1.51ZM107.35,176.96h-34.7v-34.7h34.7v34.7Z"/>
  <path class="cls-1" d="M69.96,90.54c0-.83-.68-1.51-1.51-1.51s-1.51.68-1.51,1.51v26.19H20.37c-.83,0-1.51.68-1.51,1.51v20.99H1.51c-.83,0-1.51.68-1.51,1.51v37.72c0,.83.68,1.51,1.51,1.51h37.72c.83,0,1.51-.68,1.51-1.51v-37.72c0-.83-.68-1.51-1.51-1.51h-17.35v-19.48h46.57c.83,0,1.51-.68,1.51-1.51v-27.7ZM37.72,176.96H3.02v-34.7h34.7v34.7Z"/>
  <path class="cls-1" d="M178.49,139.23h-17.35v-20.99c0-.83-.68-1.51-1.51-1.51h-46.57v-26.19c0-.83-.68-1.51-1.51-1.51s-1.51.68-1.51,1.51v27.7c0,.83.68,1.51,1.51,1.51h46.57v19.48h-17.35c-.83,0-1.51.68-1.51,1.51v37.72c0,.83.68,1.51,1.51,1.51h37.72c.83,0,1.51-.68,1.51-1.51v-37.72c0-.83-.68-1.51-1.51-1.51ZM176.98,176.96h-34.7v-34.7h34.7v34.7Z"/>
  <path class="cls-1" d="M79.32,30.39h21.37c.83,0,1.51-.68,1.51-1.51s-.68-1.51-1.51-1.51h-21.37c-.83,0-1.51.68-1.51,1.51s.68,1.51,1.51,1.51Z"/>
</svg>