<?xml version="1.0" encoding="UTF-8"?>
<svg id="Supply_Chain" data-name="Supply Chain" xmlns="http://www.w3.org/2000/svg" viewBox="0 0 180 180">
  <defs>
    <style>
      .cls-1 {
        stroke: #000;
        stroke-miterlimit: 10;
        stroke-width: 2px;
      }
    </style>
  </defs>
  <path class="cls-1" d="M178.66,163.3l-74.83-9.11-10.33-16.98V6.92c0-.84-.68-1.52-1.52-1.52H1.52c-.84,0-1.52.68-1.52,1.52s.68,1.52,1.52,1.52h88.93v110.49h-27.91c-.84,0-1.52.68-1.52,1.52s.68,1.52,1.52,1.52h27.91v33.39h-14.47l-14-15.78c-.29-.33-.7-.51-1.14-.51h-6.94c-3.21-11.6-13.85-20.14-26.45-20.14-15.14,0-27.45,12.31-27.45,27.45s12.31,27.45,27.45,27.45,27.45-12.31,27.45-27.45c0-1.45-.11-2.87-.33-4.26h5.6l14,15.78c.29.33.7.51,1.14.51h4.83l11.83,15.6c.29.38.74.6,1.21.6h85.3c.84,0,1.52-.68,1.52-1.52v-8.27c0-.77-.57-1.42-1.34-1.51ZM27.45,170.78c-13.46,0-24.4-10.95-24.4-24.4s10.95-24.4,24.4-24.4,24.4,10.95,24.4,24.4-10.95,24.4-24.4,24.4ZM176.95,171.56h-83.02l-9.98-13.16h8.03c.84,0,1.52-.68,1.52-1.52v-13.81l8.11,13.33c.24.4.65.66,1.12.72l74.22,9.04v5.4Z"/>
  <circle class="cls-1" cx="80.88" cy="145.5" r="3.26"/>
  <path class="cls-1" d="M178.48,80.38h-62.82c-.84,0-1.52.68-1.52,1.52v62.82c0,.84.68,1.52,1.52,1.52h62.82c.84,0,1.52-.68,1.52-1.52v-62.82c0-.84-.68-1.52-1.52-1.52ZM176.95,143.19h-59.77v-59.77h59.77v59.77Z"/>
  <path class="cls-1" d="M129.35,131.03c.3.3.69.45,1.08.45s.78-.15,1.08-.45l15.57-15.57,15.57,15.57c.3.3.69.45,1.08.45s.78-.15,1.08-.45c.6-.59.6-1.56,0-2.15l-15.57-15.57,15.57-15.57c.6-.59.6-1.56,0-2.15-.59-.6-1.56-.6-2.15,0l-15.57,15.57-15.57-15.57c-.6-.6-1.56-.6-2.15,0-.59.59-.59,1.56,0,2.15l15.57,15.57-15.57,15.57c-.59.59-.59,1.56,0,2.15Z"/>
</svg>