<?xml version="1.0" encoding="UTF-8"?>
<svg id="Supply_Chain" data-name="Supply Chain" xmlns="http://www.w3.org/2000/svg" viewBox="0 0 180 180">
  <defs>
    <style>
      .cls-1 {
        stroke: #000;
        stroke-miterlimit: 10;
        stroke-width: 2px;
      }
    </style>
  </defs>
  <path class="cls-1" d="M115.92,168.34l-15.64-5.81v-7.45h36.69c4.97,0,9.02-4.05,9.02-9.02v-47.52c0-4.97-4.05-9.02-9.02-9.02H43.03c-4.97,0-9.02,4.05-9.02,9.02v47.52c0,4.97,4.05,9.02,9.02,9.02h36.69v7.45l-15.64,5.81c-.58.21-.96.76-.96,1.38v8.81c0,.81.66,1.47,1.47,1.47h50.82c.81,0,1.47-.66,1.47-1.47v-8.81c0-.61-.38-1.16-.96-1.38ZM43.03,152.15c-3.36,0-6.08-2.73-6.08-6.08v-47.52c0-3.36,2.73-6.08,6.08-6.08h93.94c3.36,0,6.08,2.73,6.08,6.08v47.52c0,3.36-2.73,6.08-6.08,6.08h-36.69v-14.64c0-5.67-4.61-10.28-10.28-10.28s-10.28,4.61-10.28,10.28v14.64h-36.69ZM113.94,177.06h-47.88v-6.32l15.64-5.81c.58-.21.96-.76.96-1.38v-26.04c0-4.05,3.29-7.34,7.34-7.34s7.34,3.29,7.34,7.34v26.04c0,.61.38,1.16.96,1.38l15.64,5.81v6.32Z"/>
  <path class="cls-1" d="M49.82,177.06H7.75v-40.77h15.38c.81,0,1.47-.66,1.47-1.47s-.66-1.47-1.47-1.47H6.29c-.81,0-1.47.66-1.47,1.47v43.7c0,.81.66,1.47,1.47,1.47h43.54c.81,0,1.47-.66,1.47-1.47s-.66-1.47-1.47-1.47Z"/>
  <path class="cls-1" d="M173.71,133.36h-16.85c-.81,0-1.47.66-1.47,1.47s.66,1.47,1.47,1.47h15.38v40.77h-42.07c-.81,0-1.47.66-1.47,1.47s.66,1.47,1.47,1.47h43.54c.81,0,1.47-.66,1.47-1.47v-43.7c0-.81-.66-1.47-1.47-1.47Z"/>
  <path class="cls-1" d="M42.98,78.65c0,.81.66,1.47,1.47,1.47s1.47-.66,1.47-1.47c0-.44,0-.89-.02-1.32-.09-4.27-.16-7.65,8.76-11.82,9.12-4.26,18.62-8.28,21.15-9.34,4.22,2.29,9.06,3.59,14.19,3.59s9.95-1.3,14.17-3.58c2.55,1.07,12.03,5.08,21.13,9.33,8.92,4.17,8.85,7.55,8.76,11.82,0,.44-.02.88-.02,1.32,0,.81.66,1.47,1.47,1.47s1.47-.66,1.47-1.47c0-.42,0-.84.02-1.26.1-4.7.2-9.56-10.46-14.54-7.56-3.54-15.39-6.91-19.33-8.57,7.65-5.42,12.66-14.33,12.66-24.39,0-16.48-13.4-29.88-29.88-29.88s-29.88,13.4-29.88,29.88c0,10.06,5,18.97,12.64,24.38-3.93,1.67-11.77,5.04-19.35,8.58-10.65,4.98-10.55,9.84-10.46,14.54,0,.42.02.84.02,1.26ZM63.06,29.88c0-14.86,12.09-26.94,26.94-26.94s26.94,12.09,26.94,26.94-12.09,26.94-26.94,26.94-26.94-12.09-26.94-26.94Z"/>
</svg>