<?xml version="1.0" encoding="UTF-8"?>
<svg id="Remote_Work" data-name="Remote Work" xmlns="http://www.w3.org/2000/svg" viewBox="0 0 180 180">
  <defs>
    <style>
      .cls-1 {
        stroke: #000;
        stroke-miterlimit: 10;
        stroke-width: 2px;
      }
    </style>
  </defs>
  <path class="cls-1" d="M172.16,8.21h-14.73V2.6c0-1.18-.96-2.14-2.14-2.14s-2.14.96-2.14,2.14v5.61h-28.37V2.6c0-1.18-.96-2.14-2.14-2.14s-2.14.96-2.14,2.14v5.61h-28.37V2.6c0-1.18-.96-2.14-2.14-2.14s-2.14.96-2.14,2.14v5.61h-28.37V2.6c0-1.18-.96-2.14-2.14-2.14s-2.14.96-2.14,2.14v5.61h-28.37V2.6c0-1.18-.96-2.14-2.14-2.14s-2.14.96-2.14,2.14v5.61H7.84C3.52,8.21,0,11.72,0,16.05v156.58c0,4.32,3.52,7.84,7.84,7.84h164.33c4.32,0,7.84-3.52,7.84-7.84V16.05c0-4.32-3.52-7.84-7.84-7.84ZM175.73,172.63c0,1.96-1.6,3.56-3.56,3.56H7.84c-1.96,0-3.56-1.6-3.56-3.56V16.05c0-1.96,1.6-3.56,3.56-3.56h14.73v5.61c0,1.18.96,2.14,2.14,2.14s2.14-.96,2.14-2.14v-5.61h28.37v5.61c0,1.18.96,2.14,2.14,2.14s2.14-.96,2.14-2.14v-5.61h28.37v5.61c0,1.18.96,2.14,2.14,2.14s2.14-.96,2.14-2.14v-5.61h28.37v5.61c0,1.18.96,2.14,2.14,2.14s2.14-.96,2.14-2.14v-5.61h28.37v5.61c0,1.18.96,2.14,2.14,2.14s2.14-.96,2.14-2.14v-5.61h14.73c1.96,0,3.56,1.6,3.56,3.56v156.58Z"/>
  <path class="cls-1" d="M157.2,44.02c0-1.18-.96-2.14-2.14-2.14H24.93c-1.18,0-2.14.96-2.14,2.14v111.5c0,1.18.96,2.14,2.14,2.14h130.13c1.18,0,2.14-.96,2.14-2.14V44.02ZM27.07,101.91h28.14v23.6h-28.14v-23.6ZM59.49,101.91h28.37v23.6h-28.37v-23.6ZM87.86,129.79v23.6h-28.37v-23.6h28.37ZM92.14,129.79h28.37v23.6h-28.37v-23.6ZM92.14,125.51v-23.6h28.37v23.6h-28.37ZM92.14,46.16h28.37v25.52h-28.37v-25.52ZM92.14,75.96h28.37v21.68h-28.37v-21.68ZM124.78,75.96h28.14v21.68h-28.14v-21.68ZM124.78,101.91h28.14v23.6h-28.14v-23.6ZM152.93,71.69h-28.14v-25.52h28.14v25.52ZM87.86,46.16v51.48H27.07v-51.48h60.79ZM27.07,129.79h28.14v23.6h-28.14v-23.6ZM124.78,153.39v-23.6h28.14v23.6h-28.14Z"/>
</svg>