<?xml version="1.0" encoding="UTF-8"?>
<svg id="Remote_Work" data-name="Remote Work" xmlns="http://www.w3.org/2000/svg" viewBox="0 0 180 180">
  <defs>
    <style>
      .cls-1 {
        stroke: #000;
        stroke-miterlimit: 10;
        stroke-width: 2px;
      }
    </style>
  </defs>
  <path class="cls-1" d="M169.02,116.44H10.98C4.92,116.44,0,111.52,0,105.47v-30.01C0,69.41,4.92,64.48,10.98,64.48h158.05c6.05,0,10.98,4.92,10.98,10.98v30.01c0,6.05-4.92,10.98-10.98,10.98ZM10.98,68.87c-3.63,0-6.59,2.95-6.59,6.59v30.01c0,3.63,2.95,6.59,6.59,6.59h158.05c3.63,0,6.59-2.95,6.59-6.59v-30.01c0-3.63-2.95-6.59-6.59-6.59H10.98Z"/>
  <path class="cls-1" d="M169.02,52.42H10.98C4.92,52.42,0,47.5,0,41.45V11.44C0,5.39,4.92.46,10.98.46h158.05c6.05,0,10.98,4.92,10.98,10.98v30.01c0,6.05-4.92,10.98-10.98,10.98ZM10.98,4.85c-3.63,0-6.59,2.95-6.59,6.59v30.01c0,3.63,2.95,6.59,6.59,6.59h158.05c3.63,0,6.59-2.95,6.59-6.59V11.44c0-3.63-2.95-6.59-6.59-6.59H10.98Z"/>
  <path class="cls-1" d="M169.02,180.46H10.98C4.92,180.46,0,175.54,0,169.49v-30.01C0,133.43,4.92,128.5,10.98,128.5h158.05c6.05,0,10.98,4.92,10.98,10.98v30.01c0,6.05-4.92,10.98-10.98,10.98ZM10.98,132.89c-3.63,0-6.59,2.95-6.59,6.59v30.01c0,3.63,2.95,6.59,6.59,6.59h158.05c3.63,0,6.59-2.95,6.59-6.59v-30.01c0-3.63-2.95-6.59-6.59-6.59H10.98Z"/>
  <g>
    <path class="cls-1" d="M35.18,37c-.73,0-1.41-.36-1.82-.96l-11.35-16.73c-.68-1-.42-2.37.58-3.05,1-.68,2.37-.42,3.05.58l9.54,14.05,9.54-14.05c.68-1,2.04-1.27,3.05-.58,1,.68,1.26,2.05.58,3.05l-11.35,16.73c-.41.6-1.09.96-1.82.96Z"/>
    <g>
      <path class="cls-1" d="M74.2,20.83h-9.33c-1.21,0-2.2-.98-2.2-2.2s.98-2.2,2.2-2.2h9.33c1.21,0,2.2.98,2.2,2.2s-.98,2.2-2.2,2.2Z"/>
      <path class="cls-1" d="M156.17,20.83h-68.64c-1.21,0-2.2-.98-2.2-2.2s.98-2.2,2.2-2.2h68.64c1.21,0,2.2.98,2.2,2.2s-.98,2.2-2.2,2.2Z"/>
      <path class="cls-1" d="M156.17,36.44h-91.3c-1.21,0-2.2-.98-2.2-2.2s.98-2.2,2.2-2.2h91.3c1.21,0,2.2.98,2.2,2.2s-.98,2.2-2.2,2.2Z"/>
    </g>
  </g>
  <path class="cls-1" d="M35.18,101.02c-.73,0-1.41-.36-1.82-.96l-11.35-16.73c-.68-1-.42-2.37.58-3.05,1-.68,2.37-.42,3.05.58l9.54,14.05,9.54-14.05c.68-1,2.04-1.27,3.05-.58,1,.68,1.26,2.05.58,3.05l-11.35,16.73c-.41.6-1.09.96-1.82.96Z"/>
  <g>
    <path class="cls-1" d="M74.2,84.85h-9.33c-1.21,0-2.2-.98-2.2-2.2s.98-2.2,2.2-2.2h9.33c1.21,0,2.2.98,2.2,2.2s-.98,2.2-2.2,2.2Z"/>
    <path class="cls-1" d="M156.17,84.85h-68.64c-1.21,0-2.2-.98-2.2-2.2s.98-2.2,2.2-2.2h68.64c1.21,0,2.2.98,2.2,2.2s-.98,2.2-2.2,2.2Z"/>
    <path class="cls-1" d="M156.17,100.46h-91.3c-1.21,0-2.2-.98-2.2-2.2s.98-2.2,2.2-2.2h91.3c1.21,0,2.2.98,2.2,2.2s-.98,2.2-2.2,2.2Z"/>
  </g>
  <g>
    <path class="cls-1" d="M74.2,148.87h-9.33c-1.21,0-2.2-.98-2.2-2.2s.98-2.2,2.2-2.2h9.33c1.21,0,2.2.98,2.2,2.2s-.98,2.2-2.2,2.2Z"/>
    <path class="cls-1" d="M156.17,148.87h-68.64c-1.21,0-2.2-.98-2.2-2.2s.98-2.2,2.2-2.2h68.64c1.21,0,2.2.98,2.2,2.2s-.98,2.2-2.2,2.2Z"/>
    <path class="cls-1" d="M156.17,164.48h-91.3c-1.21,0-2.2-.98-2.2-2.2s.98-2.2,2.2-2.2h91.3c1.21,0,2.2.98,2.2,2.2s-.98,2.2-2.2,2.2Z"/>
  </g>
</svg>