<?xml version="1.0" encoding="UTF-8"?>
<svg id="Remote_Work" data-name="Remote Work" xmlns="http://www.w3.org/2000/svg" viewBox="0 0 180 180">
  <defs>
    <style>
      .cls-1 {
        stroke: #000;
        stroke-miterlimit: 10;
        stroke-width: 2px;
      }
    </style>
  </defs>
  <path class="cls-1" d="M113.32,50.07c-1-.58-2.27-.23-2.84.76l-19.83,34.35c-.21-.03-.43-.04-.64-.04-1.2,0-2.3.4-3.19,1.07l-19.84-11.45c-1-.58-2.27-.23-2.84.76-.57,1-.23,2.27.76,2.84l19.84,11.45c-.03.21-.04.43-.04.64,0,2.93,2.39,5.32,5.32,5.32s5.32-2.39,5.32-5.32c0-1.2-.4-2.3-1.07-3.19l19.84-34.36c.57-1,.23-2.27-.76-2.84Z"/>
  <path class="cls-1" d="M140.78,135.27c-4.13-2.23-6.65-3.76-6.67-7.09,0-1.11.54-2.33,1.46-3.25.92-.92,2.06-1.43,3.23-1.43,2.58,0,4.69,2.1,4.69,4.69,0,1.15.93,2.08,2.08,2.08s2.08-.93,2.08-2.08c0-4.16-2.89-7.65-6.77-8.59v-3.67c0-1.15-.93-2.08-2.08-2.08s-2.08.93-2.08,2.08v3.69c-1.51.39-2.92,1.2-4.1,2.38-1.71,1.71-2.68,3.98-2.67,6.21.03,5.97,4.72,8.51,8.85,10.74,4,2.16,7.46,4.03,7.62,8.53.07,1.91-.64,3.74-2.01,5.17-1.46,1.51-3.5,2.38-5.61,2.38-4.2,0-7.62-3.42-7.62-7.62,0-1.15-.93-2.08-2.08-2.08s-2.08.93-2.08,2.08c0,5.79,4.2,10.61,9.71,11.59v3.6c0,1.15.93,2.08,2.08,2.08s2.08-.93,2.08-2.08v-3.61c2.47-.44,4.77-1.64,6.53-3.46,2.16-2.24,3.29-5.16,3.18-8.21-.26-6.89-5.55-9.75-9.81-12.05Z"/>
  <path class="cls-1" d="M138.8,98.06c-22.72,0-41.2,18.48-41.2,41.2s18.48,41.2,41.2,41.2,41.2-18.48,41.2-41.2-18.48-41.2-41.2-41.2ZM138.8,176.3c-20.42,0-37.04-16.61-37.04-37.04s16.61-37.04,37.04-37.04,37.04,16.61,37.04,37.04-16.61,37.04-37.04,37.04Z"/>
  <path class="cls-1" d="M103.05,175.31c-4.29.65-8.68.99-13.05.99-47.33,0-85.84-38.51-85.84-85.84S42.67,4.63,90,4.63s85.84,38.51,85.84,85.84c0,4.37-.33,8.76-.99,13.05-.17,1.14.61,2.2,1.74,2.37,1.14.17,2.2-.61,2.37-1.74.69-4.5,1.03-9.1,1.03-13.68C180,40.84,139.63.46,90,.46S0,40.84,0,90.46s40.37,90,90,90c4.58,0,9.18-.35,13.68-1.03,1.14-.17,1.92-1.24,1.74-2.37-.17-1.14-1.23-1.92-2.37-1.74Z"/>
  <path class="cls-1" d="M159.13,92.21c-.03,1.15.88,2.1,2.03,2.13,1.14.03,2.1-.88,2.13-2.03,0,0,.05-1.43.05-1.85,0-40.44-32.9-73.34-73.34-73.34h0c-40.44,0-73.34,32.9-73.34,73.34s32.9,73.34,73.34,73.34c.42,0,1.85-.05,1.85-.05,1.15-.03,2.06-.98,2.03-2.13-.03-1.15-.95-2.07-2.13-2.03,0,0-1.38.05-1.75.05-11.85,0-23-3-32.76-8.27l3.91-6.77c.57-1,.23-2.27-.76-2.84-1-.58-2.27-.23-2.84.76l-3.9,6.75c-9.1-5.65-16.8-13.35-22.45-22.45l6.75-3.9c1-.58,1.34-1.85.76-2.84-.58-1-1.85-1.34-2.84-.76l-6.77,3.91c-4.96-9.18-7.88-19.61-8.21-30.68h7.81c1.15,0,2.08-.93,2.08-2.08s-.93-2.08-2.08-2.08h-7.81c.33-11.07,3.25-21.5,8.21-30.68l6.77,3.91c.33.19.69.28,1.04.28.72,0,1.42-.37,1.81-1.04.57-1,.23-2.27-.76-2.84l-6.75-3.9c5.65-9.1,13.35-16.8,22.45-22.45l3.9,6.75c.39.67,1.09,1.04,1.81,1.04.35,0,.71-.09,1.04-.28,1-.58,1.34-1.85.76-2.84l-3.91-6.76c9.18-4.96,19.61-7.88,30.68-8.21v7.8c0,1.15.93,2.08,2.08,2.08s2.08-.93,2.08-2.08v-7.8c11.07.33,21.5,3.25,30.68,8.21l-3.91,6.76c-.57,1-.23,2.27.76,2.84.33.19.69.28,1.04.28.72,0,1.42-.37,1.81-1.04l3.9-6.75c9.1,5.65,16.8,13.35,22.45,22.45l-6.75,3.9c-1,.58-1.34,1.85-.76,2.84.39.67,1.09,1.04,1.81,1.04.35,0,.71-.09,1.04-.28l6.77-3.91c5.27,9.76,8.27,20.92,8.27,32.76,0,.38-.05,1.75-.05,1.75Z"/>
</svg>