<?xml version="1.0" encoding="UTF-8"?>
<svg id="Remote_Work" data-name="Remote Work" xmlns="http://www.w3.org/2000/svg" viewBox="0 0 180 180">
  <defs>
    <style>
      .cls-1 {
        stroke: #000;
        stroke-miterlimit: 10;
        stroke-width: 2px;
      }
    </style>
  </defs>
  <path class="cls-1" d="M179.41,137.76l-35.04-36.78c-.6-.63-1.53-.84-2.34-.51-.81.32-1.34,1.11-1.34,1.99v17.38h-46.34c-1.18,0-2.14.96-2.14,2.14v34.52c0,1.18.96,2.14,2.14,2.14h46.34v17.38c0,.87.53,1.66,1.34,1.99.26.1.53.15.79.15.57,0,1.14-.23,1.55-.66l35.04-36.78c.79-.83.79-2.12,0-2.95ZM96.48,124.11h10.15v30.24h-10.15v-30.24ZM121.05,154.36h-10.15v-30.24h10.15v30.24ZM144.96,170.67v-14.17c0-1.18-.96-2.14-2.14-2.14h-17.23v-30.24h17.23c1.18,0,2.14-.96,2.14-2.14v-14.17l29.95,31.43-29.95,31.43Z"/>
  <path class="cls-1" d="M128.02,173.87H10.46c-3.41,0-6.19-2.77-6.19-6.19V13.24c0-3.41,2.77-6.19,6.19-6.19h95.95v32.13c0,1.18.96,2.14,2.14,2.14h32.13v42.16c0,1.18.96,2.14,2.14,2.14s2.14-.96,2.14-2.14v-44.3c0-.57-.23-1.11-.63-1.51L110.06,3.4c-.4-.4-.94-.63-1.51-.63H10.46C4.69,2.77,0,7.47,0,13.24v154.45C0,173.46,4.69,178.15,10.46,178.15h117.56c1.18,0,2.14-.96,2.14-2.14s-.96-2.14-2.14-2.14ZM110.69,10.08l26.97,26.97h-26.97V10.08Z"/>
  <path class="cls-1" d="M85.41,41c1.18,0,2.14-.96,2.14-2.14s-.96-2.14-2.14-2.14h-25.86c-1.18,0-2.14.96-2.14,2.14s.96,2.14,2.14,2.14h25.86Z"/>
  <path class="cls-1" d="M123.19,55.22H21.77c-1.18,0-2.14.96-2.14,2.14s.96,2.14,2.14,2.14h101.43c1.18,0,2.14-.96,2.14-2.14s-.96-2.14-2.14-2.14Z"/>
  <path class="cls-1" d="M123.19,73.72H21.77c-1.18,0-2.14.96-2.14,2.14s.96,2.14,2.14,2.14h101.43c1.18,0,2.14-.96,2.14-2.14s-.96-2.14-2.14-2.14Z"/>
  <path class="cls-1" d="M123.19,92.22H21.77c-1.18,0-2.14.96-2.14,2.14s.96,2.14,2.14,2.14h101.43c1.18,0,2.14-.96,2.14-2.14s-.96-2.14-2.14-2.14Z"/>
</svg>