<?xml version="1.0" encoding="UTF-8"?>
<svg id="Remote_Work" data-name="Remote Work" xmlns="http://www.w3.org/2000/svg" viewBox="0 0 180 180">
  <defs>
    <style>
      .cls-1 {
        stroke: #000;
        stroke-miterlimit: 10;
        stroke-width: 2px;
      }
    </style>
  </defs>
  <path class="cls-1" d="M52.77,32.14c1.9-3.15,3-6.83,3-10.77C55.77,9.84,46.39.46,34.87.46S13.96,9.84,13.96,21.37c0,3.94,1.1,7.62,3,10.77C6.92,37.15,0,47.51,0,59.47c0,1.04.85,1.89,1.89,1.89h65.95c1.04,0,1.89-.85,1.89-1.89,0-11.96-6.92-22.32-16.96-27.33ZM34.87,4.24c9.44,0,17.13,7.68,17.13,17.13s-7.68,17.13-17.13,17.13-17.13-7.68-17.13-17.13S25.42,4.24,34.87,4.24ZM3.84,57.58c.69-9.91,6.81-18.34,15.39-22.35,3.83,4.32,9.42,7.04,15.63,7.04s11.8-2.73,15.63-7.04c8.58,4.01,14.7,12.44,15.4,22.35H3.84Z"/>
  <path class="cls-1" d="M52.77,151.25c1.9-3.15,3-6.84,3-10.77,0-11.53-9.38-20.91-20.91-20.91s-20.91,9.38-20.91,20.91c0,3.94,1.1,7.63,3,10.77C6.92,156.25,0,166.62,0,178.57c0,1.04.85,1.89,1.89,1.89h65.95c1.04,0,1.89-.85,1.89-1.89,0-11.96-6.92-22.32-16.96-27.33ZM34.87,123.34c9.44,0,17.13,7.68,17.13,17.13s-7.68,17.13-17.13,17.13-17.13-7.68-17.13-17.13,7.68-17.13,17.13-17.13ZM3.84,176.69c.69-9.91,6.81-18.34,15.39-22.35,3.83,4.32,9.42,7.04,15.63,7.04s11.8-2.73,15.63-7.04c8.58,4.01,14.7,12.44,15.4,22.35H3.84Z"/>
  <path class="cls-1" d="M178.11,65.54h-72.04c-1.04,0-1.89.85-1.89,1.89v46.07c0,1.04.85,1.89,1.89,1.89h72.04c1.04,0,1.89-.85,1.89-1.89v-46.07c0-1.04-.85-1.89-1.89-1.89ZM107.96,71.24l25.24,19.22-25.24,19.22v-38.44ZM142.09,92.48l-30.42-23.17h60.84l-30.42,23.17ZM136.32,92.84l4.63,3.52c.34.26.74.39,1.14.39s.81-.13,1.14-.39l4.63-3.52,24.65,18.77h-60.84l24.65-18.77ZM150.98,90.46l25.24-19.22v38.44l-25.24-19.22Z"/>
  <path class="cls-1" d="M82.26,22.1h57.95v25.85c0,1.04.85,1.89,1.89,1.89s1.89-.85,1.89-1.89v-27.73c0-1.04-.85-1.89-1.89-1.89h-59.83c-1.04,0-1.89.85-1.89,1.89s.85,1.89,1.89,1.89Z"/>
  <path class="cls-1" d="M142.09,131.09c-1.04,0-1.89.85-1.89,1.89v25.84h-57.95c-1.04,0-1.89.85-1.89,1.89s.85,1.89,1.89,1.89h59.83c1.04,0,1.89-.85,1.89-1.89v-27.73c0-1.04-.85-1.89-1.89-1.89Z"/>
</svg>