<?xml version="1.0" encoding="UTF-8"?>
<svg id="Remote_Work" data-name="Remote Work" xmlns="http://www.w3.org/2000/svg" viewBox="0 0 180 180">
  <defs>
    <style>
      .cls-1 {
        stroke: #000;
        stroke-miterlimit: 10;
        stroke-width: 2px;
      }
    </style>
  </defs>
  <path class="cls-1" d="M179.21,90.46c0-7.39-5.81-13.42-13.1-13.82C159.5,37.3,125.23,7.22,84.04,7.22,38.14,7.22.79,44.56.79,90.46s37.34,83.24,83.24,83.24c41.19,0,75.46-30.08,82.07-69.43,7.29-.39,13.1-6.43,13.1-13.82ZM162.25,76.97c-5.54,1.27-9.81,5.87-10.6,11.57h-21.5c-.16-13.03-1.95-25.56-5.21-36.81h28.38c4.33,7.71,7.39,16.22,8.94,25.24ZM84.04,39.8c5.52,0,10,4.49,10,10s-4.49,10-10,10-10-4.49-10-10,4.49-10,10-10ZM85.96,92.39h40.35c-.17,13.25-2.08,25.7-5.31,36.58h-35.04v-36.58ZM85.96,88.54v-25.03c6.1-.85,10.92-5.68,11.78-11.78h23.2c3.27,10.94,5.2,23.47,5.37,36.81h-40.35ZM151.01,47.88h-27.27c-1.87-5.69-4.13-11.01-6.75-15.84-4.61-8.49-10.07-14.95-16.05-19.15,20.97,4.57,38.88,17.44,50.07,34.99ZM119.71,47.88h-21.97c-.85-6.1-5.68-10.92-11.78-11.78V11.16c14.18,1.2,26.56,15.56,33.75,36.72ZM82.11,36.1c-6.1.85-10.92,5.68-11.78,11.78h-21.97c7.19-21.16,19.57-35.52,33.75-36.72v24.94ZM67.14,12.89c-5.98,4.2-11.44,10.67-16.05,19.15-2.63,4.83-4.88,10.15-6.75,15.84h-27.27c11.2-17.55,29.1-30.42,50.07-34.99ZM14.76,51.73h28.38c-3.26,11.24-5.05,23.78-5.21,36.81H4.67c.32-13.34,3.95-25.87,10.09-36.81ZM4.67,92.39h33.25c.11,8.88.99,17.52,2.57,25.69-4.48,1.84-7.77,5.95-8.47,10.89H14.63c-6.06-10.89-9.65-23.34-9.96-36.58ZM45.73,140.9c-5.52,0-10-4.49-10-10s4.49-10,10-10,10,4.49,10,10-4.49,10-10,10ZM16.92,132.82h15.1c.94,6.73,6.72,11.93,13.7,11.93,1.07,0,2.11-.13,3.12-.37.72,1.54,1.45,3.05,2.24,4.5,4.61,8.49,10.07,14.95,16.05,19.15-21.06-4.58-39.02-17.55-50.21-35.21ZM82.11,169.77c-11.81-1-22.37-11.14-29.72-26.73,3.75-2.06,6.43-5.81,7.04-10.22h22.68v36.94ZM82.11,128.97h-22.68c-.94-6.73-6.72-11.93-13.7-11.93-.51,0-1,.03-1.49.08-1.48-7.77-2.36-16.07-2.47-24.74h40.35v36.58ZM41.76,88.54c.17-13.34,2.1-25.87,5.37-36.81h23.2c.85,6.1,5.68,10.92,11.78,11.78v25.03h-40.35ZM85.96,132.82h33.82c-7.18,21.28-19.6,35.74-33.82,36.94v-36.94ZM100.94,168.04c5.98-4.2,11.44-10.67,16.05-19.15,2.66-4.89,4.94-10.28,6.83-16.06h27.33c-11.19,17.66-29.15,30.63-50.21,35.21ZM125,128.97c3.22-11.19,4.99-23.64,5.15-36.58h21.5c.8,5.7,5.07,10.29,10.61,11.57-1.54,8.93-4.55,17.37-8.82,25.02h-28.44ZM165.35,100.46c-5.52,0-10-4.49-10-10s4.49-10,10-10,10,4.49,10,10-4.49,10-10,10Z"/>
</svg>