<?xml version="1.0" encoding="UTF-8"?>
<svg id="Remote_Work" data-name="Remote Work" xmlns="http://www.w3.org/2000/svg" viewBox="0 0 180 180">
  <defs>
    <style>
      .cls-1 {
        stroke: #000;
        stroke-miterlimit: 10;
        stroke-width: 2px;
      }
    </style>
  </defs>
  <path class="cls-1" d="M90,90.43C41.47,90.43,2,129.9,2,178.43c0,1.12.91,2.04,2.04,2.04h171.93c1.12,0,2.04-.91,2.04-2.04,0-48.52-39.48-88-88-88ZM16.76,137.48h30c-3.45,11.89-5.34,25.14-5.51,38.91H6.09c.34-14.1,4.17-27.35,10.66-38.91ZM50.99,137.48h36.97v38.91h-42.65c.18-14.1,2.22-27.35,5.68-38.91ZM92.03,94.59c14.99,1.27,28.08,16.45,35.68,38.82h-35.68v-38.82ZM87.96,133.41h-35.68c7.6-22.37,20.69-37.55,35.68-38.82v38.82ZM92.03,137.48h36.97c3.46,11.56,5.5,24.81,5.68,38.91h-42.65v-38.91ZM133.24,137.48h30c6.49,11.56,10.33,24.81,10.66,38.91h-35.15c-.17-13.77-2.06-27.02-5.51-38.91ZM160.8,133.41h-28.82c-1.98-6.01-4.37-11.64-7.14-16.74-4.88-8.97-10.65-15.81-16.97-20.25,22.17,4.83,41.1,18.43,52.94,36.99ZM72.13,96.42c-6.32,4.44-12.09,11.28-16.97,20.25-2.78,5.1-5.16,10.73-7.14,16.74h-28.83c11.84-18.55,30.77-32.16,52.94-36.99Z"/>
  <path class="cls-1" d="M11.22,76.69c-4.91,8.08-5.28,18.55-.07,27.18.28.46.73.79,1.26.92.16.04.32.06.49.06.37,0,.73-.1,1.05-.29l47.58-28.77c.96-.58,1.27-1.83.69-2.8-5.22-8.63-14.67-13.17-24.1-12.57-.08-3.09-.95-6.11-2.59-8.83-5.16-8.53-16.29-11.27-24.81-6.11-8.53,5.16-11.27,16.29-6.11,24.81,1.67,2.77,3.98,4.92,6.61,6.4ZM37.61,65.27c.06-.23.09-.47.14-.71,7.53-.7,15.16,2.48,19.85,8.84l-43.94,26.57c-3.45-7.11-2.73-15.34,1.39-21.69,1.63.47,3.33.72,5.04.72,3.18,0,6.4-.84,9.32-2.6,4.13-2.5,7.04-6.45,8.2-11.14ZM12.83,48.97c2.26-1.37,4.75-2.02,7.22-2.02,4.74,0,9.37,2.41,12,6.75,1.94,3.2,2.51,6.96,1.61,10.59-.89,3.63-3.15,6.69-6.35,8.63-3.2,1.94-6.96,2.51-10.59,1.61-3.63-.89-6.69-3.15-8.63-6.35-3.99-6.6-1.87-15.23,4.73-19.22Z"/>
  <path class="cls-1" d="M144.46,51.6c-1.64,2.71-2.5,5.73-2.59,8.82-2.64-.17-5.32.06-7.96.71-6.79,1.67-12.52,5.89-16.14,11.87-.58.96-.27,2.21.69,2.8l47.58,28.77c.33.2.69.29,1.05.29.69,0,1.36-.35,1.74-.98,3.62-5.98,4.69-13.02,3.02-19.81-.65-2.64-1.7-5.12-3.07-7.38,2.63-1.48,4.93-3.63,6.61-6.39,2.5-4.13,3.24-8.99,2.08-13.67-1.15-4.69-4.06-8.64-8.2-11.14-8.52-5.15-19.65-2.41-24.81,6.11ZM166.33,99.98l-43.94-26.57c3.06-4.15,7.43-7.08,12.5-8.33,2.44-.6,4.92-.78,7.35-.55.05.25.08.5.15.74,1.15,4.69,4.06,8.64,8.2,11.14,2.92,1.76,6.14,2.6,9.32,2.6,1.71,0,3.41-.25,5.04-.72,4.12,6.35,4.85,14.58,1.39,21.69ZM159.95,46.95c2.46,0,4.96.65,7.22,2.02,6.6,3.99,8.73,12.62,4.73,19.22-3.99,6.6-12.62,8.73-19.22,4.73-3.2-1.93-5.45-5-6.35-8.63-.89-3.63-.32-7.39,1.61-10.59,2.63-4.35,7.26-6.75,12-6.75Z"/>
  <path class="cls-1" d="M36.03,34.24c9.34-5.87,18.9-10.16,28.61-12.9-.31,1.61-.48,3.27-.48,4.97,0,3.33.64,6.52,1.8,9.45-6.68,1.86-13.27,4.49-19.72,7.9-.99.53-1.37,1.76-.85,2.75.36.69,1.07,1.08,1.8,1.08.32,0,.65-.08.95-.24,6.42-3.4,12.98-5.98,19.64-7.77,4.51,7.58,12.78,12.67,22.22,12.67s17.71-5.09,22.22-12.67c6.65,1.79,13.22,4.37,19.64,7.77.99.53,2.23.15,2.75-.85.53-.99.15-2.23-.85-2.75-6.45-3.41-13.03-6.04-19.72-7.9,1.15-2.93,1.8-6.11,1.8-9.45,0-1.7-.17-3.36-.48-4.97,9.71,2.74,19.27,7.03,28.61,12.9.34.21.71.31,1.08.31.68,0,1.34-.34,1.72-.95.6-.95.31-2.21-.64-2.81-10.46-6.58-21.21-11.28-32.14-14.07C110.18,7.21,100.86.46,90,.46s-20.18,6.74-24,16.27c-10.93,2.79-21.68,7.49-32.14,14.07-.95.6-1.24,1.86-.64,2.81.6.95,1.86,1.24,2.81.64ZM90,4.53c12.01,0,21.77,9.77,21.77,21.77s-9.77,21.77-21.77,21.77-21.77-9.77-21.77-21.77,9.77-21.77,21.77-21.77Z"/>
  <path class="cls-1" d="M88.37,35.83c.38.51.99.81,1.63.81s1.24-.3,1.63-.81l9.73-12.98c.67-.9.49-2.18-.41-2.85-.9-.68-2.18-.49-2.85.41l-8.1,10.8-8.1-10.8c-.67-.9-1.95-1.08-2.85-.41-.9.67-1.08,1.95-.41,2.85l9.73,12.98Z"/>
</svg>