<?xml version="1.0" encoding="UTF-8"?>
<svg id="Remote_Work" data-name="Remote Work" xmlns="http://www.w3.org/2000/svg" viewBox="0 0 180 180">
  <defs>
    <style>
      .cls-1 {
        stroke: #000;
        stroke-miterlimit: 10;
        stroke-width: 2px;
      }
    </style>
  </defs>
  <path class="cls-1" d="M127.43,154.98h-11.5v-57.35c0-5.51-4.48-9.99-9.99-9.99h-14.4c-1.03,0-1.86.83-1.86,1.86s.83,1.86,1.86,1.86h6.04l-37.46,48.8c-.62.81-.47,1.98.34,2.6.34.26.74.38,1.13.38.56,0,1.11-.25,1.48-.73l39.19-51.06h3.68c3.46,0,6.27,2.81,6.27,6.27v57.35H17.07v-57.35c0-3.46,2.81-6.27,6.27-6.27h27.68c1.03,0,1.86-.83,1.86-1.86s-.83-1.86-1.86-1.86h-27.68c-5.51,0-9.99,4.48-9.99,9.99v57.35H1.86C.83,154.98,0,155.81,0,156.83v7.82C0,170.28,4.58,174.86,10.21,174.86h108.87c5.63,0,10.21-4.58,10.21-10.21v-7.82c0-1.03-.83-1.86-1.86-1.86ZM125.58,164.65c0,3.58-2.91,6.5-6.5,6.5H10.21c-3.58,0-6.5-2.91-6.5-6.5v-5.96h121.86v5.96Z"/>
  <path class="cls-1" d="M47.56,117.65c.34.26.74.38,1.13.38.56,0,1.11-.25,1.48-.73l7.23-9.42c.62-.81.47-1.98-.34-2.6-.81-.63-1.98-.47-2.6.34l-7.23,9.42c-.62.81-.47,1.98.34,2.6Z"/>
  <path class="cls-1" d="M179.68,45.66c-10.8-15.97-30.29-23.4-48.71-19.05,5.21-7.52,12.69-13.15,21.47-16.06.8-.27,1.32-1.04,1.27-1.88-.05-.84-.67-1.54-1.5-1.7-17.43-3.36-34.26,2.94-43.69,16.12-6.78-8.8-17.41-12.44-17.9-12.61-.47-.16-.99-.12-1.44.11-.45.23-.78.63-.93,1.11-.15.49-3.35,11.26-.11,21.89-16.21.05-31.1,10.1-38.47,26.24-.35.77-.14,1.68.52,2.21.66.53,1.59.56,2.27.06,7.46-5.47,16.39-8.29,25.53-8.18-14.22,12.49-19.48,32.66-12.73,50.72.27.73.97,1.21,1.74,1.21.01,0,.03,0,.04,0,.79-.02,1.48-.54,1.73-1.29,6.82-21.34,27.38-39.07,50.17-32.27,3.14,5.69,25.77,48.56,25.77,99.94,0,1.03.83,1.86,1.86,1.86s1.86-.83,1.86-1.86c0-52.01-22.81-95.5-26.21-101.69,7.71-22.45,34.05-28.89,55.36-22.08.75.24,1.58-.02,2.05-.66.47-.63.5-1.5.05-2.15ZM142.57,45.47c-11.33,4.28-19.63,12.4-23.56,22.98-10.9-2.93-22.33-.87-32.38,5.87-8.33,5.58-15.22,14.11-19.44,23.91-3.91-16.63,2.57-34.26,16.81-44.3.63-.44.92-1.22.73-1.97-.19-.74-.81-1.3-1.57-1.39-1.91-.24-3.83-.36-5.73-.36-7.33,0-14.52,1.75-21.02,5.1,7.86-11.96,20.73-18.85,34.28-17.92.65.04,1.26-.25,1.64-.77.37-.52.45-1.2.21-1.8-3.19-7.68-1.99-16.27-1.2-20.06,3.55,1.55,11.25,5.56,15.65,12.61.34.54.93.87,1.58.87h0c.64,0,1.24-.34,1.58-.89,7.11-11.59,20.19-18.07,34.48-17.54-8.18,4.22-14.93,10.8-19.38,19.04-.37.68-.28,1.5.22,2.09.5.59,1.31.8,2.03.55,16.43-5.78,34.55-.84,45.83,12-10.43-2.24-21.38-1.58-30.75,1.97Z"/>
  <path class="cls-1" d="M28.09,13.08c1.93,0,3.51-1.57,3.51-3.51s-1.57-3.51-3.51-3.51-3.51,1.57-3.51,3.51,1.57,3.51,3.51,3.51Z"/>
  <path class="cls-1" d="M64.64,22.19c1.93,0,3.51-1.57,3.51-3.51s-1.57-3.51-3.51-3.51-3.51,1.57-3.51,3.51,1.57,3.51,3.51,3.51Z"/>
  <path class="cls-1" d="M151.34,65.78c-1.93,0-3.51,1.57-3.51,3.51s1.57,3.51,3.51,3.51,3.51-1.57,3.51-3.51-1.57-3.51-3.51-3.51Z"/>
  <path class="cls-1" d="M165.61,100.45c-1.93,0-3.51,1.57-3.51,3.51s1.57,3.51,3.51,3.51,3.51-1.57,3.51-3.51-1.57-3.51-3.51-3.51Z"/>
  <path class="cls-1" d="M28.09,59.47c1.93,0,3.51-1.57,3.51-3.51s-1.57-3.51-3.51-3.51-3.51,1.57-3.51,3.51,1.57,3.51,3.51,3.51Z"/>
</svg>