<?xml version="1.0" encoding="UTF-8"?>
<svg id="Remote_Work" data-name="Remote Work" xmlns="http://www.w3.org/2000/svg" viewBox="0 0 180 180">
  <defs>
    <style>
      .cls-1 {
        stroke: #000;
        stroke-miterlimit: 10;
        stroke-width: 2px;
      }
    </style>
  </defs>
  <path class="cls-1" d="M30.72,80.44c.42,0,.84-.13,1.2-.4,1.21-.91,29.53-22.68,29.53-48.85C61.45,14.24,47.66.46,30.72.46S0,14.24,0,31.19C0,57.36,28.32,79.12,29.53,80.04c.35.27.78.4,1.2.4ZM3.96,31.19C3.96,16.43,15.97,4.42,30.72,4.42s26.76,12.01,26.76,26.76c0,21.28-21.42,40.32-26.76,44.73-5.35-4.41-26.76-23.43-26.76-44.73Z"/>
  <path class="cls-1" d="M45.6,31.19c0-8.2-6.67-14.87-14.87-14.87s-14.87,6.67-14.87,14.87,6.67,14.87,14.87,14.87,14.87-6.67,14.87-14.87ZM19.81,31.19c0-6.02,4.9-10.91,10.91-10.91s10.91,4.9,10.91,10.91-4.9,10.91-10.91,10.91-10.91-4.9-10.91-10.91Z"/>
  <path class="cls-1" d="M149.28.46c-16.94,0-30.72,13.78-30.72,30.72,0,26.17,28.32,47.94,29.53,48.85.35.27.78.4,1.2.4s.84-.13,1.2-.4c1.21-.91,29.53-22.68,29.53-48.85,0-16.94-13.78-30.72-30.72-30.72ZM149.28,75.92c-5.35-4.41-26.76-23.43-26.76-44.73,0-14.76,12.01-26.76,26.76-26.76s26.76,12.01,26.76,26.76c0,21.28-21.42,40.32-26.76,44.73Z"/>
  <path class="cls-1" d="M149.28,16.31c-8.2,0-14.87,6.67-14.87,14.87s6.67,14.87,14.87,14.87,14.87-6.67,14.87-14.87-6.67-14.87-14.87-14.87ZM149.28,42.1c-6.02,0-10.91-4.9-10.91-10.91s4.9-10.91,10.91-10.91,10.91,4.9,10.91,10.91-4.9,10.91-10.91,10.91Z"/>
  <path class="cls-1" d="M149.28,93.34c-1.09,0-1.98.89-1.98,1.98v65.16h-39.4c-.99-9-8.63-16.03-17.89-16.03s-16.9,7.03-17.89,16.03h-39.41v-65.16c0-1.09-.89-1.98-1.98-1.98s-1.98.89-1.98,1.98v67.14c0,1.09.89,1.98,1.98,1.98h41.39c.99,9,8.63,16.03,17.89,16.03s16.9-7.03,17.89-16.03h41.39c1.09,0,1.98-.89,1.98-1.98v-67.14c0-1.09-.89-1.98-1.98-1.98ZM90,176.5c-7.74,0-14.05-6.3-14.05-14.05s6.3-14.05,14.05-14.05,14.05,6.3,14.05,14.05-6.3,14.05-14.05,14.05Z"/>
  <path class="cls-1" d="M72.68,33.17h34.64c1.09,0,1.98-.89,1.98-1.98s-.89-1.98-1.98-1.98h-34.64c-1.09,0-1.98.89-1.98,1.98s.89,1.98,1.98,1.98Z"/>
  <path class="cls-1" d="M71.49,114.96c-.45-1-1.63-1.44-2.62-.99-1,.45-1.44,1.62-.99,2.62l1.81,4.01c.33.73,1.05,1.17,1.81,1.17.27,0,.55-.06.81-.18,1-.45,1.44-1.62.99-2.62l-1.81-4.01Z"/>
  <path class="cls-1" d="M75.13,132.63c.33.73,1.05,1.17,1.81,1.17.27,0,.55-.06.81-.18,1-.45,1.44-1.62.99-2.62l-1.81-4.01c-.45-1-1.63-1.44-2.62-.99-1,.45-1.44,1.62-.99,2.62l1.81,4.01Z"/>
  <path class="cls-1" d="M55.19,78.86c-.45-1-1.63-1.44-2.62-.99-1,.45-1.44,1.62-.99,2.62l1.81,4.01c.33.73,1.05,1.17,1.81,1.17.27,0,.55-.06.81-.18,1-.45,1.44-1.62.99-2.62l-1.81-4.01Z"/>
  <path class="cls-1" d="M62.45,104.56l1.81,4.01c.33.73,1.05,1.17,1.81,1.17.27,0,.55-.06.81-.18,1-.45,1.44-1.62.99-2.62l-1.81-4.01c-.45-1-1.63-1.44-2.62-.99-1,.45-1.44,1.62-.99,2.62Z"/>
  <path class="cls-1" d="M58,89.9c-1,.45-1.44,1.62-.99,2.62l1.81,4.01c.33.73,1.05,1.17,1.81,1.17.27,0,.55-.06.81-.18,1-.45,1.44-1.62.99-2.62l-1.81-4.01c-.45-1-1.62-1.44-2.62-.99Z"/>
  <path class="cls-1" d="M108.51,114.96l-1.81,4.01c-.45,1,0,2.17.99,2.62.26.12.54.18.81.18.75,0,1.48-.43,1.81-1.17l1.81-4.01c.45-1,0-2.17-.99-2.62-1-.45-2.17,0-2.62.99Z"/>
  <path class="cls-1" d="M113.12,109.56c.26.12.54.18.81.18.75,0,1.47-.43,1.81-1.17l1.81-4.01c.45-1,0-2.17-.99-2.62-1-.45-2.17,0-2.62.99l-1.81,4.01c-.45,1,0,2.17.99,2.62Z"/>
  <path class="cls-1" d="M123.99,85.49c.26.12.54.18.81.18.75,0,1.47-.43,1.81-1.17l1.81-4.01c.45-1,0-2.17-.99-2.62-1-.45-2.17,0-2.62.99l-1.81,4.01c-.45,1,0,2.17.99,2.62Z"/>
  <path class="cls-1" d="M105.7,126c-1-.45-2.17,0-2.62.99l-1.81,4.01c-.45,1,0,2.17.99,2.62.26.12.54.18.81.18.75,0,1.47-.43,1.81-1.17l1.81-4.01c.45-1,0-2.17-.99-2.62Z"/>
  <path class="cls-1" d="M118.56,97.52c.26.12.54.18.81.18.75,0,1.47-.43,1.81-1.17l1.81-4.01c.45-1,0-2.17-.99-2.62-1-.45-2.17,0-2.62.99l-1.81,4.01c-.45,1,0,2.17.99,2.62Z"/>
  <path class="cls-1" d="M103.39,60.76c0,1.09.89,1.98,1.98,1.98h4.4c1.09,0,1.98-.89,1.98-1.98s-.89-1.98-1.98-1.98h-4.4c-1.09,0-1.98.89-1.98,1.98Z"/>
  <path class="cls-1" d="M65.77,62.74h4.4c1.09,0,1.98-.89,1.98-1.98s-.89-1.98-1.98-1.98h-4.4c-1.09,0-1.98.89-1.98,1.98s.89,1.98,1.98,1.98Z"/>
  <path class="cls-1" d="M83.37,62.74c1.09,0,1.98-.89,1.98-1.98s-.89-1.98-1.98-1.98h-4.4c-1.09,0-1.98.89-1.98,1.98s.89,1.98,1.98,1.98h4.4Z"/>
  <path class="cls-1" d="M92.17,58.78c-1.09,0-1.98.89-1.98,1.98s.89,1.98,1.98,1.98h4.4c1.09,0,1.98-.89,1.98-1.98s-.89-1.98-1.98-1.98h-4.4Z"/>
</svg>