<?xml version="1.0" encoding="UTF-8"?>
<svg id="Remote_Work" data-name="Remote Work" xmlns="http://www.w3.org/2000/svg" viewBox="0 0 180 180">
  <defs>
    <style>
      .cls-1 {
        stroke: #000;
        stroke-miterlimit: 10;
        stroke-width: 2px;
      }
    </style>
  </defs>
  <path class="cls-1" d="M178.84,98.58c-1.56-2.31-4.47-3.49-8.66-3.49h-59.45c-5.54,0-7.97,5.38-9.59,8.97-1.09,2.41-12.32,30.95-19.27,48.64h-23.83c.95-4.13-.63-8.62-4.37-11.18l-25.74-16.51v-17.88c0-1.07-.87-1.93-1.93-1.93s-1.93.87-1.93,1.93v18.93c0,.66.34,1.27.89,1.63l26.58,17.05c3.07,2.1,3.85,6.3,1.75,9.37-1.76,2.58-5.15,3.61-8.05,2.45l-35.75-14.23c-3.4-1.35-5.6-4.59-5.61-8.23v-31.3c0-15.68,10.28-26.44,29.72-31.18,5.29,5.18,12.52,8.38,20.49,8.38s15.2-3.2,20.49-8.38c11.22,2.73,19.4,7.42,24.32,13.96.38.51.96.77,1.55.77.4,0,.81-.13,1.16-.39.85-.64,1.03-1.85.38-2.71-5.17-6.88-13.42-11.88-24.54-14.89,3.72-4.91,5.94-11.03,5.94-17.66,0-16.15-13.14-29.3-29.3-29.3s-29.3,13.14-29.3,29.3c0,6.63,2.22,12.75,5.94,17.66C10.61,73.81,0,85.66,0,102.79v31.31c.01,5.24,3.17,9.88,8.04,11.82l22,8.76c-2.66,1.91-4.4,5.02-4.4,8.54,0,5.84,4.82,10.77,10.53,10.77h108.78c3.57,0,8.45-1.57,11.37-9.06,1.89-4.86,19.87-50.4,22.42-56.69,1.65-4.06,1.68-7.31.09-9.66ZM54.07,25.27c14.02,0,25.43,11.41,25.43,25.43s-11.41,25.43-25.43,25.43-25.43-11.41-25.43-25.43,11.41-25.43,25.43-25.43ZM175.16,106.79c-2.55,6.3-20.54,51.87-22.44,56.73-1.73,4.44-4.27,6.6-7.77,6.6H36.17c-3.61,0-6.66-3.16-6.66-6.9,0-3.28,2.39-6.02,5.52-6.56l8.76,3.49c1.26.5,2.57.74,3.87.74,3.32,0,6.56-1.57,8.59-4.33h26.93c.79,0,1.51-.49,1.8-1.23,11.72-29.83,18.89-47.94,19.69-49.71,1.65-3.65,3.24-6.67,6.06-6.67h59.45c1.94,0,4.46.31,5.45,1.78,1.02,1.52.31,4.13-.47,6.05Z"/>
  <path class="cls-1" d="M68.93,100.94c-1.07,0-1.93.87-1.93,1.93s.87,1.93,1.93,1.93h15.81c1.07,0,1.93-.87,1.93-1.93s-.87-1.93-1.93-1.93h-15.81Z"/>
  <path class="cls-1" d="M76.83,10.8h33.49l-13.78,22.06c-.57.91-.29,2.1.62,2.66.32.2.67.29,1.02.29.64,0,1.27-.32,1.64-.91l15.06-24.11h19.29l-22.95,36.74c-.57.91-.29,2.1.62,2.66.32.2.67.29,1.02.29.64,0,1.27-.32,1.64-.91l24.22-38.79h15.74v70.99c0,1.07.87,1.93,1.93,1.93s1.93-.87,1.93-1.93V8.87c0-1.07-.87-1.93-1.93-1.93h-79.57c-1.07,0-1.93.87-1.93,1.93s.87,1.93,1.93,1.93Z"/>
</svg>