<?xml version="1.0" encoding="UTF-8"?>
<svg id="Remote_Work" data-name="Remote Work" xmlns="http://www.w3.org/2000/svg" viewBox="0 0 180 180">
  <defs>
    <style>
      .cls-1 {
        stroke: #000;
        stroke-miterlimit: 10;
        stroke-width: 2px;
      }
    </style>
  </defs>
  <path class="cls-1" d="M172.5,64.91c-.94-.5-2.11-.14-2.61.8l-15.84,29.74h-32.82c-1.07,0-1.93.87-1.93,1.93s.87,1.93,1.93,1.93h33.98c.71,0,1.37-.39,1.71-1.02l16.39-30.76c.5-.94.15-2.11-.8-2.62Z"/>
  <path class="cls-1" d="M147.79,113.77c-2.16-4.75-6.93-7.82-12.16-7.82h-25.27c-6.4,0-9.78-4.98-9.82-9.9-.01-1.3-.01-4.37-.02-8.15,1.55.92,3.35,1.43,5.25,1.43h30.76c5.67,0,10.28-4.61,10.28-10.28s-4.61-10.28-10.28-10.28h-23.78l-8.23-20.71c7.87-4.31,13.23-12.67,13.23-22.26,0-13.98-11.37-25.35-25.35-25.35s-25.35,11.37-25.35,25.35c0,5.38,1.69,10.38,4.57,14.49-3.54,2.49-11.38,8.91-16.09,19.64-3.06-6.75-6.26-11.54-11.07-12.54-4.6-.96-9.87,1.73-16.59,8.44-13.79,13.79-21.38,32.12-21.38,51.62s7.59,37.83,21.38,51.62c13.79,13.79,32.12,21.38,51.62,21.38s37.83-7.59,51.62-21.38c1.57-1.57,2.93-3.19,4.09-4.85l8.08,17.73c2.17,4.75,6.94,7.82,12.16,7.82,1.91,0,3.77-.41,5.53-1.2,3.25-1.48,5.72-4.13,6.97-7.48,1.25-3.34,1.12-6.97-.33-10.16l-19.8-47.17ZM92.39,4.33c11.85,0,21.49,9.64,21.49,21.49s-9.64,21.49-21.49,21.49-21.49-9.64-21.49-21.49,9.64-21.49,21.49-21.49ZM128.35,156.35c-13.06,13.06-30.42,20.25-48.88,20.25s-35.83-7.19-48.88-20.25c-13.06-13.06-20.25-30.42-20.25-48.88s7.19-35.83,20.25-48.88c5.03-5.03,8.98-7.5,12.02-7.5.36,0,.71.04,1.05.11,4.82,1,8.25,9.7,12.22,19.76,4.72,11.98,10.6,26.89,21.91,38.21,10.95,10.95,22.79,13.15,35.32,15.48,3.53.66,7.19,1.33,10.87,2.23,5.96,1.44,10.19,5.16,11.6,10.2,1.68,5.99-.95,13.02-7.22,19.29ZM164.3,169.75c-.89,2.37-2.65,4.26-4.96,5.31-1.25.57-2.57.86-3.93.86-3.71,0-7.11-2.18-8.64-5.56l-9.19-20.16c2.34-4.79,2.98-9.68,1.71-14.19-1.78-6.33-7.17-11.16-14.42-12.91-3.78-.91-7.49-1.6-11.07-2.27-12.44-2.31-23.19-4.31-33.29-14.41-10.74-10.74-16.46-25.24-21.04-36.89-.61-1.54-1.2-3.03-1.78-4.47,4.05-12.19,13.03-19.41,16.38-21.75,4.62,4.84,11.12,7.86,18.32,7.86,3.02,0,5.91-.53,8.6-1.5l8.65,21.77c.29.74,1,1.22,1.8,1.22h25.1c3.53,0,6.41,2.88,6.41,6.41s-2.88,6.41-6.41,6.41h-30.76c-2.64,0-4.98-1.59-5.96-4.04l-6.54-16.45c-.39-.99-1.52-1.48-2.51-1.08-.99.39-1.48,1.52-1.08,2.51l6.54,16.45c.13.32.28.63.43.94,0,5.58,0,10.54.02,12.29.06,7.83,5.95,13.74,13.69,13.74h25.27c3.71,0,7.1,2.18,8.61,5.5l19.8,47.17c1.05,2.31,1.14,4.88.25,7.26Z"/>
</svg>