<?xml version="1.0" encoding="UTF-8"?>
<svg id="Remote_Work" data-name="Remote Work" xmlns="http://www.w3.org/2000/svg" viewBox="0 0 180 180">
  <defs>
    <style>
      .cls-1 {
        stroke: #000;
        stroke-miterlimit: 10;
        stroke-width: 2px;
      }
    </style>
  </defs>
  <path class="cls-1" d="M168.66,70.16c6.25,0,11.34-5.09,11.34-11.34V11.8c0-6.25-5.09-11.34-11.34-11.34h-75.26c-6.25,0-11.34,5.09-11.34,11.34v47.02c0,6.25,5.09,11.34,11.34,11.34h29.13v8.16l-10.7,4.11c-.8.31-1.33,1.08-1.33,1.94v5.15h-54.95v-4.48c0-6.25-5.09-11.34-11.34-11.34h-18.39c-1.99,0-3.86.52-5.49,1.42l-15.8-24.37,16.7-27.72h14.72v4.85c-5.16,3.93-8.22,10.04-8.22,16.57,0,1.15.93,2.08,2.08,2.08h37.45c1.15,0,2.08-.93,2.08-2.08,0-6.53-3.05-12.64-8.22-16.57v-7.55c0-6.94-5.65-12.59-12.59-12.59-6.45,0-11.77,4.87-12.5,11.13h-15.99c-.73,0-1.41.38-1.78,1.01L.3,49.74c-.41.68-.4,1.54.04,2.21l16.77,25.87c-1.64,1.97-2.62,4.49-2.62,7.24v4.48H2.08C.93,89.53,0,90.46,0,91.61v14.81c0,1.15.93,2.08,2.08,2.08h5.32v69.88c0,1.15.93,2.08,2.08,2.08s2.08-.93,2.08-2.08v-33.9h156.86v33.9c0,1.15.93,2.08,2.08,2.08s2.08-.93,2.08-2.08v-69.88h5.32c1.15,0,2.08-.93,2.08-2.08v-14.81c0-1.15-.93-2.08-2.08-2.08h-26.35v-5.15c0-.86-.53-1.63-1.33-1.94l-10.7-4.11v-8.16h29.13ZM40.12,20.35c0-4.65,3.78-8.43,8.43-8.43s8.43,3.78,8.43,8.43v8.62c0,.69.34,1.33.91,1.72,3.99,2.71,6.58,6.98,7.17,11.69h-33.03c.59-4.71,3.18-8.98,7.17-11.7.57-.39.91-1.03.91-1.72v-8.62ZM86.23,58.82V11.8c0-3.95,3.22-7.17,7.17-7.17h25.61l-11.06,15.2c-.68.93-.47,2.23.46,2.91.37.27.8.4,1.22.4.64,0,1.28-.3,1.69-.86l12.84-17.65h13.84l-26.42,36.31c-.68.93-.47,2.23.46,2.91.37.27.8.4,1.22.4.64,0,1.28-.3,1.69-.86l28.2-38.76h25.51c3.95,0,7.17,3.22,7.17,7.17v47.02c0,3.95-3.22,7.17-7.17,7.17h-75.26c-3.95,0-7.17-3.22-7.17-7.17ZM18.65,85.05c0-3.95,3.22-7.17,7.17-7.17h18.39c3.95,0,7.17,3.22,7.17,7.17v4.48H18.65v-4.48ZM168.43,140.32H11.57v-31.82h156.86v31.82ZM175.84,104.34H4.16v-10.64h171.67v10.64ZM136.7,81.7l10.7,4.11v3.72h-32.73v-3.72l10.7-4.11c.8-.31,1.33-1.08,1.33-1.94v-9.59h8.67v9.59c0,.86.53,1.63,1.33,1.94Z"/>
</svg>