<?xml version="1.0" encoding="UTF-8"?>
<svg id="Remote_Work" data-name="Remote Work" xmlns="http://www.w3.org/2000/svg" viewBox="0 0 180 180">
  <defs>
    <style>
      .cls-1 {
        stroke: #000;
        stroke-miterlimit: 10;
        stroke-width: 2px;
      }
    </style>
  </defs>
  <path class="cls-1" d="M102.42,123.71c-.22-1.04-1.25-1.71-2.29-1.49-1.04.22-1.71,1.25-1.49,2.29l8.63,40.42c1.24,5.04-1.86,10.15-6.9,11.39-1.32.32-2.66.36-3.99.11-3.62-.68-6.52-3.44-7.4-7.01l-9.55-38.93c-.21-.87-.99-1.47-1.88-1.47h-35.55c-5.68,0-9.8-1.56-12.59-4.77-3.7-4.25-4.89-11.31-3.55-20.98,5.48-39.58,23.9-54.81,28.92-58.27,4.31,4.69,10.27,7.83,16.95,8.49,6.43,6.24,7.12,19.68,7.13,19.82.05,1.04.9,1.85,1.93,1.85.03,0,.06,0,.09,0,1.07-.05,1.89-.95,1.84-2.02-.02-.56-.6-11.94-5.95-19.63,13.52-1.23,24.15-12.62,24.15-26.46,0-14.65-11.92-26.57-26.57-26.57s-26.57,11.92-26.57,26.57c0,5.52,1.69,10.64,4.58,14.9-6.04,4.15-24.68,20.03-30.33,60.8-1.5,10.84,0,18.93,4.47,24.05.93,1.06,1.98,1.98,3.13,2.77-6.82,1.98-10.97,9.13-12.54,15.39-1.69,6.73-7.46,31.41-7.52,31.66-.24,1.04.4,2.08,1.44,2.32.15.03.3.05.44.05.88,0,1.67-.6,1.88-1.49.04-.15,2.22-9.52,4.3-18.27h49.83c2.07,8.75,4.26,18.12,4.3,18.27.21.89,1,1.49,1.88,1.49.15,0,.29-.02.44-.05,1.04-.24,1.69-1.28,1.44-2.32-.06-.25-5.82-24.93-7.52-31.66-1.07-4.24-3.31-8.88-6.77-12.06h14.8l9.18,37.46c1.24,5.04,5.33,8.93,10.44,9.89.82.15,1.64.23,2.46.23,1.06,0,2.12-.13,3.17-.39,7.11-1.74,11.48-8.95,9.75-16.01l-8.62-40.36ZM74.34,4.33c12.52,0,22.7,10.19,22.7,22.7s-10.19,22.7-22.7,22.7-22.7-10.19-22.7-22.7,10.19-22.7,22.7-22.7ZM64.26,145.88c.49,1.97,1.34,5.48,2.29,9.46H18.55c.95-3.98,1.79-7.5,2.29-9.46,1.51-6,5.71-13,12.59-13h18.25c6.88,0,11.08,7,12.59,13Z"/>
  <path class="cls-1" d="M89.32,104.45c-.07,0-.14,0-.21.01-1.47.16-35.97,3.39-41.19-34.36-.15-1.06-1.12-1.8-2.18-1.65-1.06.15-1.8,1.12-1.65,2.18,4.83,34.93,33.41,37.78,42.6,37.78,1.43,0,2.4-.07,2.72-.1,4.88-.05,8.84-4.04,8.84-8.93s-3.96-8.89-8.85-8.93c-1.28-.11-17.62-1.83-18.48-20.18-.05-1.07-.94-1.87-2.02-1.84-1.07.05-1.89.95-1.84,2.02,1.04,22.18,21.92,23.85,22.13,23.86.04,0,.09,0,.13,0,2.79,0,5.06,2.27,5.06,5.06s-2.27,5.06-5.06,5.06Z"/>
  <path class="cls-1" d="M168.55,96.83h-19.97c.64-.93,1.22-2.02,1.69-3.24,1.42-3.65,14.91-37.82,16.82-42.53,1.3-3.21,1.31-5.8.02-7.7-1.27-1.88-3.59-2.83-6.9-2.83h-23.58c-4.47,0-6.45,4.38-7.64,7.01-.79,1.76-4.6,11.39-10.07,25.3-.39.99.1,2.12,1.09,2.51.99.39,2.12-.1,2.51-1.09,4.71-11.99,9.18-23.34,10-25.14,1.21-2.68,2.28-4.72,4.11-4.72h23.58c1.89,0,3.2.4,3.69,1.13.51.75.36,2.2-.4,4.09-1.91,4.72-15.42,38.92-16.84,42.57-1.34,3.43-3.17,4.64-4.33,4.64h-29.12c-1.07,0-1.93.87-1.93,1.93s.87,1.93,1.93,1.93h53.39v74.41h-43.96c-1.07,0-1.93.87-1.93,1.93s.87,1.93,1.93,1.93h45.89c1.07,0,1.93-.87,1.93-1.93v-78.28c0-1.07-.87-1.93-1.93-1.93Z"/>
</svg>