<?xml version="1.0" encoding="UTF-8"?>
<svg id="Remote_Work" data-name="Remote Work" xmlns="http://www.w3.org/2000/svg" viewBox="0 0 180 180">
  <defs>
    <style>
      .cls-1 {
        stroke: #000;
        stroke-miterlimit: 10;
        stroke-width: 2px;
      }
    </style>
  </defs>
  <path class="cls-1" d="M154.39,159.92h-11.71v-58.74c0-5.69-4.63-10.32-10.32-10.32H47.64c-5.69,0-10.32,4.63-10.32,10.32v58.74h-11.71c-1.09,0-1.98.89-1.98,1.98v8.02c0,5.82,4.73,10.55,10.55,10.55h111.66c5.82,0,10.55-4.73,10.55-10.55v-8.02c0-1.09-.89-1.98-1.98-1.98ZM41.28,101.18c0-3.51,2.85-6.36,6.36-6.36h35.94l-18.56,24.17c-.67.87-.5,2.11.37,2.78.36.28.78.41,1.2.41.59,0,1.18-.27,1.57-.77l20.41-26.59h22.18l-38.32,49.93c-.67.87-.5,2.11.37,2.78.36.28.78.41,1.2.41.59,0,1.18-.27,1.57-.77l40.17-52.34h16.61c3.51,0,6.36,2.85,6.36,6.36v58.74H41.28v-58.74ZM152.41,169.92c0,3.63-2.95,6.59-6.59,6.59H34.17c-3.63,0-6.59-2.95-6.59-6.59v-6.04h124.83v6.04Z"/>
  <path class="cls-1" d="M88.02,40.83v34.41c0,1.09.89,1.98,1.98,1.98s1.98-.89,1.98-1.98v-34.41c10.23-1,18.25-9.65,18.25-20.13,0-11.16-9.08-20.23-20.23-20.23s-20.23,9.08-20.23,20.23c0,10.49,8.02,19.14,18.25,20.13ZM90,4.42c8.97,0,16.27,7.3,16.27,16.27s-7.3,16.27-16.27,16.27-16.27-7.3-16.27-16.27,7.3-16.27,16.27-16.27Z"/>
  <path class="cls-1" d="M54.13,75.24c0,1.09.89,1.98,1.98,1.98s1.98-.89,1.98-1.98v-21.08c0-1.09-.89-1.98-1.98-1.98H22.21v-11.34c10.23-1,18.25-9.65,18.25-20.13C40.46,9.54,31.39.46,20.23.46S0,9.54,0,20.7C0,31.18,8.02,39.83,18.25,40.83v13.33c0,1.09.89,1.98,1.98,1.98h33.9v19.1ZM3.96,20.7C3.96,11.72,11.26,4.42,20.23,4.42s16.27,7.3,16.27,16.27-7.3,16.27-16.27,16.27S3.96,29.67,3.96,20.7Z"/>
  <path class="cls-1" d="M180,20.7c0-11.16-9.08-20.23-20.23-20.23s-20.23,9.08-20.23,20.23c0,10.49,8.02,19.14,18.25,20.13v11.34h-33.9c-1.09,0-1.98.89-1.98,1.98v21.08c0,1.09.89,1.98,1.98,1.98s1.98-.89,1.98-1.98v-19.1h33.9c1.09,0,1.98-.89,1.98-1.98v-13.33c10.23-1,18.25-9.65,18.25-20.13ZM159.77,36.97c-8.97,0-16.27-7.3-16.27-16.27s7.3-16.27,16.27-16.27,16.27,7.3,16.27,16.27-7.3,16.27-16.27,16.27Z"/>
</svg>