<?xml version="1.0" encoding="UTF-8"?>
<svg id="Remote_Work" data-name="Remote Work" xmlns="http://www.w3.org/2000/svg" viewBox="0 0 180 180">
  <defs>
    <style>
      .cls-1 {
        stroke: #000;
        stroke-miterlimit: 10;
        stroke-width: 2px;
      }
    </style>
  </defs>
  <path class="cls-1" d="M171.93,81.72h-6.33v-32.21c0-.47-.17-.93-.49-1.29l-15.04-16.96V10.16c0-5.35-4.35-9.7-9.7-9.7h-8.62c-1.07,0-1.94.87-1.94,1.94v64.35c0,1.07.87,1.94,1.94,1.94h8.62c5.35,0,9.7-4.35,9.7-9.7v-21.89l11.64,13.14v31.48h-56.3c1.41-1.77,2.27-4,2.27-6.43,0-5.69-4.63-10.32-10.32-10.32h-24.17l-12.11-17.55c7.13-4.51,11.88-12.47,11.88-21.52C72.96,11.88,61.54.46,47.51.46s-25.45,11.42-25.45,25.45c0,5.46,1.74,10.52,4.68,14.67-5.45,4.66-22.33,22.84-20.47,68.14.93,22.55,19.69,27.11,25.39,27.97l-10.83,41.34c-.27,1.04.35,2.1,1.39,2.37.17.04.33.06.49.06.86,0,1.65-.58,1.88-1.45l11.03-42.12h35.83v41.63c0,1.07.87,1.94,1.94,1.94h98.54c1.07,0,1.94-.87,1.94-1.94v-94.86c0-1.07-.87-1.94-1.94-1.94ZM146.19,58.99c0,3.21-2.61,5.82-5.82,5.82h-6.68V4.34h6.68c3.21,0,5.82,2.61,5.82,5.82v48.83ZM47.51,4.34c11.89,0,21.57,9.68,21.57,21.57s-9.67,21.57-21.57,21.57-21.57-9.68-21.57-21.57S35.62,4.34,47.51,4.34ZM33.46,133.01c-1.44-.09-22.38-1.77-23.31-24.45-1.78-43.28,14.36-60.8,19.08-64.97,4.63,4.78,11.11,7.77,18.28,7.77,3.59,0,7.01-.75,10.11-2.1l12.95,18.76c.36.52.96.84,1.6.84h25.19c3.55,0,6.43,2.89,6.43,6.43s-2.89,6.43-6.43,6.43h-28.09c-4.61,0-5.85-1.28-9.18-4.7l-12.11-12.45c-.75-.77-1.98-.78-2.74-.04-.77.75-.78,1.98-.04,2.74l6.6,6.77c0,8.62-.02,19.58,0,22.38.06,7.86,5.98,13.79,13.75,13.79h5.9v22.78h-37.99ZM55.68,78.05l1.63,1.69c3.75,3.86,5.99,5.87,11.96,5.87h2.18v20.75h-5.9c-6.42,0-9.83-5-9.87-9.94-.02-2.37,0-10.64,0-18.36ZM169.99,176.58h-94.66v-90.98h94.66v90.98Z"/>
</svg>