<?xml version="1.0" encoding="UTF-8"?>
<svg id="Remote_Work" data-name="Remote Work" xmlns="http://www.w3.org/2000/svg" viewBox="0 0 180 180">
  <defs>
    <style>
      .cls-1 {
        stroke: #000;
        stroke-miterlimit: 10;
        stroke-width: 2px;
      }
    </style>
  </defs>
  <path class="cls-1" d="M19.9,69.22h52.35c1.18,0,2.14-.96,2.14-2.14,0-9.5-5.36-17.77-13.21-21.95,1.36-2.46,2.13-5.29,2.13-8.29,0-9.5-7.73-17.23-17.23-17.23s-17.23,7.73-17.23,17.23c0,3,.78,5.83,2.13,8.29-7.85,4.19-13.21,12.45-13.21,21.95,0,1.18.96,2.14,2.14,2.14ZM46.07,23.88c7.14,0,12.96,5.81,12.96,12.96s-5.81,12.96-12.96,12.96-12.96-5.81-12.96-12.96,5.81-12.96,12.96-12.96ZM33.54,48.64c3.14,3.34,7.59,5.44,12.53,5.44s9.38-2.1,12.53-5.44c6.2,3.06,10.66,9.13,11.4,16.31H22.14c.74-7.18,5.2-13.25,11.4-16.31Z"/>
  <path class="cls-1" d="M106.13,67.08c0,1.18.96,2.14,2.14,2.14h52.35c1.18,0,2.14-.96,2.14-2.14,0-9.5-5.36-17.76-13.21-21.95,1.36-2.46,2.13-5.29,2.13-8.29,0-9.5-7.73-17.23-17.23-17.23s-17.23,7.73-17.23,17.23c0,3,.78,5.83,2.13,8.29-7.85,4.19-13.21,12.45-13.21,21.95ZM134.44,23.88c7.14,0,12.96,5.81,12.96,12.96s-5.81,12.96-12.96,12.96-12.96-5.81-12.96-12.96,5.81-12.96,12.96-12.96ZM121.92,48.64c3.14,3.34,7.59,5.44,12.53,5.44s9.38-2.1,12.53-5.44c6.2,3.06,10.66,9.13,11.4,16.31h-47.85c.74-7.18,5.2-13.25,11.4-16.31Z"/>
  <path class="cls-1" d="M149.54,133c1.36-2.46,2.13-5.29,2.13-8.29,0-9.5-7.73-17.23-17.23-17.23s-17.23,7.73-17.23,17.23c0,3,.78,5.83,2.13,8.29-7.85,4.19-13.21,12.45-13.21,21.95,0,1.18.96,2.14,2.14,2.14h52.35c1.18,0,2.14-.96,2.14-2.14,0-9.5-5.36-17.76-13.21-21.95ZM134.44,111.75c7.14,0,12.96,5.81,12.96,12.96s-5.81,12.96-12.96,12.96-12.96-5.81-12.96-12.96,5.81-12.96,12.96-12.96ZM110.52,152.81c.74-7.18,5.2-13.25,11.4-16.31,3.14,3.34,7.59,5.44,12.53,5.44s9.38-2.1,12.53-5.44c6.2,3.06,10.66,9.13,11.4,16.31h-47.85Z"/>
  <path class="cls-1" d="M158.87.46H21.13C9.48.46,0,9.94,0,21.6v137.73C0,170.98,9.48,180.46,21.13,180.46h137.73c11.65,0,21.13-9.48,21.13-21.13V21.6c0-11.65-9.48-21.13-21.13-21.13ZM175.73,21.6v66.73h-83.59V4.74h66.73c9.3,0,16.86,7.56,16.86,16.86ZM21.13,4.74h66.73v83.59H4.27V21.6c0-9.3,7.56-16.86,16.86-16.86ZM4.27,159.33v-66.73h83.59v83.59H21.13c-9.3,0-16.86-7.56-16.86-16.86ZM158.87,176.19h-66.73v-83.59h83.59v66.73c0,9.3-7.56,16.86-16.86,16.86Z"/>
  <path class="cls-1" d="M22.38,120.82h8.88c1.18,0,2.14-.96,2.14-2.14s-.96-2.14-2.14-2.14h-8.88c-1.18,0-2.14.96-2.14,2.14s.96,2.14,2.14,2.14Z"/>
  <path class="cls-1" d="M46.36,120.82h23.4c1.18,0,2.14-.96,2.14-2.14s-.96-2.14-2.14-2.14h-23.4c-1.18,0-2.14.96-2.14,2.14s.96,2.14,2.14,2.14Z"/>
  <path class="cls-1" d="M69.75,130.27H22.38c-1.18,0-2.14.96-2.14,2.14s.96,2.14,2.14,2.14h47.37c1.18,0,2.14-.96,2.14-2.14s-.96-2.14-2.14-2.14Z"/>
  <path class="cls-1" d="M31.27,143.99h-8.88c-1.18,0-2.14.96-2.14,2.14s.96,2.14,2.14,2.14h8.88c1.18,0,2.14-.96,2.14-2.14s-.96-2.14-2.14-2.14Z"/>
  <path class="cls-1" d="M69.75,143.99h-23.4c-1.18,0-2.14.96-2.14,2.14s.96,2.14,2.14,2.14h23.4c1.18,0,2.14-.96,2.14-2.14s-.96-2.14-2.14-2.14Z"/>
</svg>