<?xml version="1.0" encoding="UTF-8"?>
<svg id="Remote_Work" data-name="Remote Work" xmlns="http://www.w3.org/2000/svg" viewBox="0 0 180 180">
  <defs>
    <style>
      .cls-1 {
        stroke: #000;
        stroke-miterlimit: 10;
        stroke-width: 2px;
      }
    </style>
  </defs>
  <path class="cls-1" d="M166.94,77.43c-6.6,0-12.06,4.92-12.93,11.29h-22.98v-2.45c0-.98-.8-1.78-1.78-1.78s-1.78.8-1.78,1.78v2.45h-35.7v-2.45c0-.98-.8-1.78-1.78-1.78s-1.78.8-1.78,1.78v2.45h-35.7v-2.45c0-.98-.8-1.78-1.78-1.78s-1.78.8-1.78,1.78v2.45h-22.98c-.87-6.36-6.33-11.29-12.93-11.29C5.86,77.43,0,83.29,0,90.49s5.86,13.06,13.06,13.06c6.6,0,12.06-4.92,12.93-11.29h22.98v2.69c0,.98.8,1.78,1.78,1.78s1.78-.8,1.78-1.78v-2.69h35.7v2.69c0,.98.8,1.78,1.78,1.78s1.78-.8,1.78-1.78v-2.69h35.7v2.69c0,.98.8,1.78,1.78,1.78s1.78-.8,1.78-1.78v-2.69h22.98c.87,6.36,6.33,11.29,12.93,11.29,7.2,0,13.06-5.86,13.06-13.06s-5.86-13.06-13.06-13.06ZM13.06,100c-5.24,0-9.51-4.27-9.51-9.51s4.27-9.51,9.51-9.51,9.51,4.27,9.51,9.51-4.27,9.51-9.51,9.51ZM166.94,100c-5.24,0-9.51-4.27-9.51-9.51s4.27-9.51,9.51-9.51,9.51,4.27,9.51,9.51-4.27,9.51-9.51,9.51Z"/>
  <path class="cls-1" d="M103.27,151.92c1.24-2.2,1.95-4.73,1.95-7.43,0-8.39-6.83-15.22-15.22-15.22s-15.22,6.83-15.22,15.22c0,2.7.71,5.23,1.95,7.43-7.02,3.68-11.81,11.04-11.81,19.5,0,.98.8,1.78,1.78,1.78h46.61c.98,0,1.78-.8,1.78-1.78,0-8.46-4.8-15.81-11.81-19.5ZM90,132.84c6.43,0,11.66,5.23,11.66,11.66s-5.23,11.66-11.66,11.66-11.66-5.23-11.66-11.66,5.23-11.66,11.66-11.66ZM68.56,169.64c.63-6.53,4.68-12.05,10.32-14.8,2.78,2.99,6.73,4.87,11.12,4.87s8.34-1.88,11.12-4.87c5.64,2.75,9.69,8.27,10.32,14.8h-42.88Z"/>
  <path class="cls-1" d="M27.45,51.64h46.61c.98,0,1.78-.8,1.78-1.78,0-8.46-4.8-15.81-11.81-19.5,1.24-2.2,1.95-4.73,1.95-7.43,0-8.39-6.83-15.22-15.22-15.22s-15.22,6.83-15.22,15.22c0,2.7.71,5.23,1.95,7.43-7.01,3.68-11.81,11.04-11.81,19.5,0,.98.8,1.78,1.78,1.78ZM50.75,11.28c6.43,0,11.66,5.23,11.66,11.66s-5.23,11.66-11.66,11.66-11.66-5.23-11.66-11.66,5.23-11.66,11.66-11.66ZM39.63,33.29c2.78,2.99,6.73,4.87,11.12,4.87s8.34-1.88,11.12-4.87c5.64,2.75,9.69,8.27,10.32,14.8H29.31c.63-6.53,4.68-12.05,10.32-14.8Z"/>
  <path class="cls-1" d="M105.95,51.64h46.61c.98,0,1.78-.8,1.78-1.78,0-8.46-4.8-15.81-11.81-19.5,1.24-2.2,1.95-4.73,1.95-7.43,0-8.39-6.83-15.22-15.22-15.22s-15.22,6.83-15.22,15.22c0,2.7.71,5.23,1.95,7.43-7.02,3.68-11.81,11.04-11.81,19.5,0,.98.8,1.78,1.78,1.78ZM129.25,11.28c6.43,0,11.66,5.23,11.66,11.66s-5.23,11.66-11.66,11.66-11.66-5.23-11.66-11.66,5.23-11.66,11.66-11.66ZM118.13,33.29c2.78,2.99,6.73,4.87,11.12,4.87s8.34-1.88,11.12-4.87c5.64,2.75,9.69,8.27,10.32,14.8h-42.88c.63-6.53,4.68-12.05,10.32-14.8Z"/>
  <circle class="cls-1" cx="50.75" cy="62.61" r="3.4"/>
  <circle class="cls-1" cx="50.75" cy="75.25" r="3.4"/>
  <circle class="cls-1" cx="129.25" cy="62.61" r="3.4"/>
  <circle class="cls-1" cx="129.25" cy="75.25" r="3.4"/>
  <circle class="cls-1" cx="90" cy="106.64" r="3.4"/>
  <path class="cls-1" d="M90,122.67c1.87,0,3.4-1.52,3.4-3.4s-1.52-3.4-3.4-3.4-3.4,1.52-3.4,3.4,1.52,3.4,3.4,3.4Z"/>
</svg>