<?xml version="1.0" encoding="UTF-8"?>
<svg id="Remote_Work" data-name="Remote Work" xmlns="http://www.w3.org/2000/svg" viewBox="0 0 180 180">
  <defs>
    <style>
      .cls-1 {
        stroke: #000;
        stroke-miterlimit: 10;
        stroke-width: 2px;
      }
    </style>
  </defs>
  <path class="cls-1" d="M117.25,121.27c-1.07,0-1.94.87-1.94,1.94v39.9c0,6.44-5.24,11.68-11.68,11.68H15.56c-6.44,0-11.68-5.24-11.68-11.68V17.82c0-6.44,5.24-11.68,11.68-11.68h88.06c6.44,0,11.68,5.24,11.68,11.68v21.37c0,1.07.87,1.94,1.94,1.94s1.94-.87,1.94-1.94v-21.37c0-8.58-6.98-15.56-15.56-15.56H15.56C6.98,2.25,0,9.23,0,17.82v145.29C0,171.69,6.98,178.67,15.56,178.67h88.06c8.58,0,15.56-6.98,15.56-15.56v-39.9c0-1.07-.87-1.94-1.94-1.94Z"/>
  <path class="cls-1" d="M66.51,164.14c1.07,0,1.94-.87,1.94-1.94s-.87-1.94-1.94-1.94h-13.83c-1.07,0-1.94.87-1.94,1.94s.87,1.94,1.94,1.94h13.83Z"/>
  <path class="cls-1" d="M125.43,49.82h0c-3.59,0-7.41,3.52-7.86,11.35-.73,12.81-8.43,28.21-21.75,32.89-6.28,2.2-11.49.27-15.39-2.65,5.4-4.74,8.82-11.68,8.82-19.42,0-14.24-11.59-25.83-25.83-25.83s-25.83,11.59-25.83,25.83c0,7.94,3.6,15.04,9.25,19.79-3.02,1.56-5.9,3.15-8.33,4.66-9.72,6.06-12.1,11.66-12.12,28.52,0,8.08-.01,17.13-.01,20.77h-7.94V20.66h82.37v49.32c0,1.07.87,1.94,1.94,1.94s1.94-.87,1.94-1.94V18.72c0-1.07-.87-1.94-1.94-1.94H16.47c-1.07,0-1.94.87-1.94,1.94v128.95c0,1.07.87,1.94,1.94,1.94h86.25c1.07,0,1.94-.87,1.94-1.94v-9.1c0-1.07-.87-1.94-1.94-1.94s-1.94.87-1.94,1.94v7.16h-8.31v-8.92c1.07-7.77,4.35-11,8.89-15.47,20.32-20.01,33.52-34.97,32.03-59.46-.54-8.9-4.62-12.05-7.96-12.05ZM41.46,72c0-12.1,9.85-21.95,21.95-21.95s21.95,9.85,21.95,21.95-9.85,21.95-21.95,21.95-21.95-9.85-21.95-21.95ZM98.63,118.57c-4.72,4.65-8.8,8.67-10.03,17.85-.01.09-.02.17-.02.26v9.05H30.23c0-2.72,0-8.51.01-20.76.02-16.35,2.34-20.26,10.29-25.23,2.8-1.75,6.28-3.62,9.88-5.43,3.82,2.23,8.26,3.52,12.99,3.52,5.1,0,9.86-1.49,13.87-4.06,3.44,2.81,7.89,5.12,13.19,5.12,2.08,0,4.29-.36,6.62-1.17,15.61-5.48,23.56-22.68,24.34-36.33.28-4.99,2.27-7.69,3.99-7.69h0c1.44,0,3.71,2.24,4.09,8.41,1.39,22.86-11.33,37.2-30.88,56.46Z"/>
  <path class="cls-1" d="M138.09,107.38c-.76.76-.76,1.99,0,2.74,2.25,2.25,3.49,5.24,3.49,8.41s-1.24,6.17-3.49,8.41c-.76.76-.76,1.99,0,2.74.38.38.88.57,1.37.57s.99-.19,1.37-.57c2.98-2.98,4.62-6.94,4.62-11.16s-1.64-8.18-4.62-11.16c-.76-.76-1.99-.76-2.74,0Z"/>
  <path class="cls-1" d="M152.14,93.35c-.76-.76-1.99-.76-2.74,0-.76.76-.76,1.99,0,2.74,12.37,12.37,12.37,32.51,0,44.88-.76.76-.76,1.99,0,2.74.38.38.88.57,1.37.57s.99-.19,1.37-.57c13.89-13.89,13.89-36.48,0-50.37Z"/>
  <path class="cls-1" d="M164.46,81.03c-.76-.76-1.99-.76-2.74,0-.76.76-.76,1.99,0,2.74,9.29,9.29,14.4,21.63,14.4,34.76s-5.11,25.48-14.4,34.76c-.76.76-.76,1.99,0,2.74.38.38.88.57,1.37.57s.99-.19,1.37-.57c10.02-10.02,15.54-23.34,15.54-37.51s-5.52-27.49-15.54-37.51Z"/>
</svg>