<?xml version="1.0" encoding="UTF-8"?>
<svg id="Robotics_Machinery" data-name="Robotics &amp;amp; Machinery" xmlns="http://www.w3.org/2000/svg" viewBox="0 0 180 180">
  <defs>
    <style>
      .cls-1 {
        stroke: #000;
        stroke-miterlimit: 10;
        stroke-width: 2px;
      }
    </style>
  </defs>
  <path class="cls-1" d="M78.27,96.07l-11.92-11.92c-.54-.54-1.41-.54-1.95,0-.54.54-.54,1.41,0,1.95l11.92,11.92c.27.27.62.4.97.4s.7-.13.97-.4c.54-.54.54-1.41,0-1.95Z"/>
  <path class="cls-1" d="M59.2,91.3c-.54-.54-1.41-.54-1.95,0-.54.54-.54,1.41,0,1.95l11.92,11.92c.27.27.62.4.97.4s.7-.13.97-.4c.54-.54.54-1.41,0-1.95l-11.92-11.92Z"/>
  <path class="cls-1" d="M52.05,98.45c-.54-.54-1.41-.54-1.95,0-.54.54-.54,1.41,0,1.95l11.92,11.92c.27.27.62.4.97.4s.7-.13.97-.4c.54-.54.54-1.41,0-1.95l-11.92-11.92Z"/>
  <path class="cls-1" d="M179.6,58.38c-.54-.54-1.41-.54-1.95,0l-12.39,12.39-13.77-2.83c-.45-.09-.92.05-1.25.38l-4.59,4.59-6.1-6.1,14.83-14.83c.54-.54.54-1.41,0-1.95l-25.26-25.26c-.33-.33-.8-.47-1.26-.37l-28.71,6.11c-.26.06-.5.18-.69.37L30.75,98.6l-6.05-1.07c-.44-.08-.89.06-1.21.38l-13.68,13.68c-.32.32-.46.77-.38,1.21l1.07,6.05-8.61,8.61c-2.51,2.51-2.51,6.59,0,9.1l17.19,17.19c1.21,1.21,2.83,1.88,4.55,1.89h.02c1.72,0,3.33-.66,4.54-1.87l19.88-19.88,15.89-2.7c.28-.05.54-.18.74-.38l41.39-41.39,4.46,4.46c.26.26.61.4.97.4s.72-.15.97-.4l14.83-14.83,6.1,6.1-6.21,6.21c-.54.54-.54,1.41,0,1.95.27.27.62.4.97.4s.7-.13.97-.4l22.52-22.52,13.77,2.83c.45.09.92-.05,1.25-.38l12.91-12.91c.54-.54.54-1.41,0-1.95ZM63.06,128.54l-15.89,2.7c-.28.05-.54.18-.74.38l-20.19,20.19c-.69.69-1.61,1.06-2.59,1.06h-.01c-.99,0-1.92-.39-2.61-1.08l-17.19-17.19c-1.43-1.43-1.43-3.77,0-5.2l9.12-9.12c.32-.32.46-.77.38-1.21l-1.07-6.05,12.67-12.67,6.05,1.07c.44.08.89-.06,1.21-.38l42.76-42.76,29.18,29.18-41.08,41.08ZM111.51,90.95l-34.61-34.61,23.23-23.23,27.58-5.87,23.76,23.76-39.95,39.95ZM135.36,83.19l-6.09-6.1,8.35-8.35,6.1,6.1-8.35,8.35Z"/>
</svg>