<?xml version="1.0" encoding="UTF-8"?>
<svg id="Robotics_Machinery" data-name="Robotics &amp;amp; Machinery" xmlns="http://www.w3.org/2000/svg" viewBox="0 0 180 180">
  <defs>
    <style>
      .cls-1 {
        stroke: #000;
        stroke-miterlimit: 10;
        stroke-width: 2px;
      }
    </style>
  </defs>
  <path class="cls-1" d="M145.48,64.12V21.74c0-11.99-9.75-21.74-21.74-21.74H57.92c-1.02,0-1.85.83-1.85,1.85v1.5H3.53c-1.02,0-1.85.83-1.85,1.85s.83,1.85,1.85,1.85h52.54v10.78H3.53c-1.02,0-1.85.83-1.85,1.85v63.41c0,1.02.83,1.85,1.85,1.85h52.54v6.93c0,.38.12.75.33,1.06l18.29,26.37c.35.5.92.8,1.52.8h2.91v18.06c0,1.02.83,1.85,1.85,1.85h6.67l4.97,38.38c.12.92.91,1.62,1.84,1.62h12.65c.93,0,1.72-.69,1.84-1.62l4.97-38.38h6.67c1.02,0,1.85-.83,1.85-1.85v-6.94h22.34c18.5,0,33.56-15.05,33.56-33.56s-14.67-33.16-32.85-33.54ZM5.38,21.54h92.96c16.46,0,29.85,13.39,29.85,29.85s-13.39,29.85-29.85,29.85H5.38V21.54ZM59.78,91.29v-6.35h38.57c18.5,0,33.56-15.05,33.56-33.56s-15.05-33.56-33.56-33.56h-38.57V3.71h63.96c9.95,0,18.04,8.09,18.04,18.04v69.55l-17.41,25.1h-47.18l-17.41-25.1ZM105.47,176.29h-9.39l-4.7-36.29h18.78l-4.7,36.29ZM118.72,136.3h-35.9v-16.2h35.9v16.2ZM144.77,127.51h-22.34v-7.41h2.91c.61,0,1.18-.3,1.52-.8l18.29-26.37c.21-.31.33-.68.33-1.06v-24.05c16.13.38,29.14,13.61,29.14,29.83s-13.39,29.85-29.85,29.85Z"/>
  <path class="cls-1" d="M113.44,51.39c0-8.32-6.77-15.09-15.09-15.09s-15.09,6.77-15.09,15.09,6.77,15.09,15.09,15.09,15.09-6.77,15.09-15.09ZM86.96,51.39c0-6.28,5.11-11.39,11.39-11.39s11.39,5.11,11.39,11.39-5.11,11.39-11.39,11.39-11.39-5.11-11.39-11.39Z"/>
  <path class="cls-1" d="M30.72,44.22c-1.02,0-1.85.83-1.85,1.85v10.63c0,1.02.83,1.85,1.85,1.85s1.85-.83,1.85-1.85v-10.63c0-1.02-.83-1.85-1.85-1.85Z"/>
  <path class="cls-1" d="M43.9,44.22c-1.02,0-1.85.83-1.85,1.85v10.63c0,1.02.83,1.85,1.85,1.85s1.85-.83,1.85-1.85v-10.63c0-1.02-.83-1.85-1.85-1.85Z"/>
  <path class="cls-1" d="M57.08,44.22c-1.02,0-1.85.83-1.85,1.85v10.63c0,1.02.83,1.85,1.85,1.85s1.85-.83,1.85-1.85v-10.63c0-1.02-.83-1.85-1.85-1.85Z"/>
</svg>