<?xml version="1.0" encoding="UTF-8"?>
<svg id="Robotics_Machinery" data-name="Robotics &amp;amp; Machinery" xmlns="http://www.w3.org/2000/svg" viewBox="0 0 180 180">
  <defs>
    <style>
      .cls-1 {
        stroke: #000;
        stroke-miterlimit: 10;
        stroke-width: 2px;
      }
    </style>
  </defs>
  <path class="cls-1" d="M163.14,117.81c.79-.21,1.34-.93,1.34-1.75V41.56c0-2.91-1.08-5.7-3.04-7.85l-27.28-29.9c-3.2-3.51-8.14-4.72-12.61-3.09L23.18,36.65c-4.58,1.67-7.65,6.07-7.65,10.95v68.46c0,.51.22,1,.6,1.35l10.93,9.88v10.7h-9.71c-1,0-1.82.81-1.82,1.82v12.27c0,1,.81,1.82,1.82,1.82h118.83v24.3c0,.68.38,1.3.98,1.61.26.14.55.2.83.2.37,0,.74-.11,1.05-.33l12.27-8.69c.48-.34.77-.89.77-1.48v-15.61h10.58c1,0,1.82-.81,1.82-1.82v-12.27c0-1-.81-1.82-1.82-1.82h-10.58v-17.16l11.06-3.01ZM30.09,125.12l-10.93-9.88V47.59c0-3.35,2.12-6.38,5.27-7.53L122.79,4.13c3.07-1.12,6.48-.29,8.68,2.13l27.28,29.9c1.35,1.48,2.1,3.4,2.1,5.41v73.11l-36.96,10.05c-.79.21-1.34.93-1.34,1.75v11.51H30.68v-11.51c0-.51-.22-1-.6-1.35ZM126.18,137.98v-10.12l9.99-2.72v12.84h-9.99ZM148.44,168.55l-8.64,6.12v-20.78h8.64v14.67ZM160.84,150.25H19.16v-8.64h141.68v8.64ZM148.44,137.98h-8.64v-13.82l8.64-2.35v16.18Z"/>
  <path class="cls-1" d="M37.01,79.83h105.97c1,0,1.82-.81,1.82-1.82v-32.65c0-.45-.17-.89-.47-1.22l-20.26-22.21c-.5-.54-1.27-.74-1.97-.48l-85.71,31.31c-.72.26-1.19.94-1.19,1.71v23.54c0,1,.81,1.82,1.82,1.82ZM122.2,25.29l7.97,8.73-17.7,6.31c-2.57.91-4.17-1.14-7.77-6.8-.31-.49-.63-.99-.96-1.5l18.45-6.74ZM38.83,55.74l61.41-22.44c.48.74.95,1.47,1.39,2.16,2.94,4.63,5.54,8.74,9.61,8.74.76,0,1.58-.14,2.45-.46l19.13-6.82,8.34,9.14v30.12H38.83v-20.45Z"/>
  <path class="cls-1" d="M79.22,95.44c-1,0-1.82.81-1.82,1.82v22.95c0,1,.81,1.82,1.82,1.82s1.82-.81,1.82-1.82v-22.95c0-1-.81-1.82-1.82-1.82Z"/>
  <path class="cls-1" d="M65.45,95.44c-1,0-1.82.81-1.82,1.82v22.95c0,1,.81,1.82,1.82,1.82s1.82-.81,1.82-1.82v-22.95c0-1-.81-1.82-1.82-1.82Z"/>
  <path class="cls-1" d="M51.69,95.44c-1,0-1.82.81-1.82,1.82v22.95c0,1,.81,1.82,1.82,1.82s1.82-.81,1.82-1.82v-22.95c0-1-.81-1.82-1.82-1.82Z"/>
</svg>