<?xml version="1.0" encoding="UTF-8"?>
<svg id="Robotics_Machinery" data-name="Robotics &amp;amp; Machinery" xmlns="http://www.w3.org/2000/svg" viewBox="0 0 180 180">
  <defs>
    <style>
      .cls-1 {
        stroke: #000;
        stroke-miterlimit: 10;
        stroke-width: 2px;
      }
    </style>
  </defs>
  <path class="cls-1" d="M155.56,117.33h-2.25v-8.33c0-.34-.11-.66-.3-.94l-19.79-27.33c.28-1.72.43-3.48.43-5.27,0-18.21-14.81-33.02-33.02-33.02-.05,0-.09,0-.14,0l-31.45-26.37c-3.06-2.57-7.32-3.02-10.86-1.15-1.87.99-45.94,24.83-57.95,81.12-.68,3.2.27,6.51,2.55,8.86,7.47,7.7,13.25,13.65,16.34,16.82,1.39,4.66,2.74,8.44,3.8,11.17-1.08,2.76-1.68,5.75-1.68,8.89,0,13.48,10.97,24.44,24.44,24.44h109.88c13.48,0,24.44-10.97,24.44-24.44s-10.97-24.44-24.44-24.44ZM130.44,75.47c0,16.44-13.38,29.82-29.82,29.82s-29.82-13.38-29.82-29.82,13.38-29.82,29.82-29.82,29.82,13.38,29.82,29.82ZM31.96,106.86c-2.65-2.72-6.59-6.78-11.4-11.74,4.93-18.63,14.15-32.81,23.11-42.95.7.43,1.39.86,2.05,1.28,3.17,2.01,6.22,3.95,8.99,3.95,1.39,0,2.7-.49,3.92-1.71l12.41-12.41,8.3,6.96c-7.17,6.06-11.73,15.11-11.73,25.21,0,5.47,1.34,10.63,3.71,15.17l-13.73,13.59h-11.9c-4.73,0-9.38.92-13.72,2.63ZM45.86,49.77c6.18-6.59,12.06-11.25,16.09-14.09l6.62,5.55-12.22,12.22c-1.66,1.66-3.88.52-8.93-2.69-.51-.33-1.03-.66-1.57-.99ZM3.34,96.71C15.04,41.87,57.84,18.71,59.66,17.75c.97-.51,2.03-.77,3.08-.77,1.51,0,3.01.52,4.23,1.54l28.94,24.26c-5.13.74-9.89,2.66-13.98,5.48l-18.87-15.82c-.55-.46-1.34-.5-1.93-.09-10.15,6.96-34.75,27.01-43.9,62.85-.14.54.01,1.11.4,1.51.1.1,6.57,6.77,11.21,11.54-3.91,1.96-7.49,4.6-10.53,7.84-.04.04-.06.09-.1.13-3.26-3.35-7.77-7.99-13.16-13.55-1.53-1.58-2.17-3.81-1.71-5.96ZM21.26,117.64c6.43-6.5,15.28-10.21,24.41-10.21h12.51c.4,0,.78-.15,1.07-.42l13.72-13.5c5.9,9.01,16.08,14.97,27.63,14.97,14.94,0,27.59-9.97,31.65-23.61l17.85,24.64v7.81H45.68c-8.79,0-16.5,4.66-20.81,11.64-1.09-3.01-2.36-6.82-3.6-11.33ZM155.56,163.02H45.68c-11.72,0-21.25-9.53-21.25-21.25s9.53-21.25,21.25-21.25h109.88c11.72,0,21.25,9.53,21.25,21.25s-9.53,21.25-21.25,21.25Z"/>
  <path class="cls-1" d="M86.73,68.1c0,.88.72,1.6,1.6,1.6h24.57c.88,0,1.6-.72,1.6-1.6s-.72-1.6-1.6-1.6h-24.57c-.88,0-1.6.72-1.6,1.6Z"/>
  <path class="cls-1" d="M112.9,81.24h-24.57c-.88,0-1.6.72-1.6,1.6s.72,1.6,1.6,1.6h24.57c.88,0,1.6-.72,1.6-1.6s-.72-1.6-1.6-1.6Z"/>
  <path class="cls-1" d="M155.56,129.27c-6.9,0-12.51,5.61-12.51,12.51s5.61,12.51,12.51,12.51,12.51-5.61,12.51-12.51-5.61-12.51-12.51-12.51ZM155.56,151.09c-5.13,0-9.31-4.18-9.31-9.31s4.18-9.31,9.31-9.31,9.31,4.18,9.31,9.31-4.18,9.31-9.31,9.31Z"/>
  <path class="cls-1" d="M45.68,129.27c-6.9,0-12.51,5.61-12.51,12.51s5.61,12.51,12.51,12.51,12.51-5.61,12.51-12.51-5.61-12.51-12.51-12.51ZM45.68,151.09c-5.13,0-9.31-4.18-9.31-9.31s4.18-9.31,9.31-9.31,9.31,4.18,9.31,9.31-4.18,9.31-9.31,9.31Z"/>
  <path class="cls-1" d="M131.7,140.18h-62.17c-.88,0-1.6.72-1.6,1.6s.72,1.6,1.6,1.6h62.17c.88,0,1.6-.72,1.6-1.6s-.72-1.6-1.6-1.6Z"/>
</svg>