<?xml version="1.0" encoding="UTF-8"?>
<svg id="Robotics_Machinery" data-name="Robotics &amp;amp; Machinery" xmlns="http://www.w3.org/2000/svg" viewBox="0 0 180 180">
  <defs>
    <style>
      .cls-1 {
        stroke: #000;
        stroke-miterlimit: 10;
        stroke-width: 2px;
      }
    </style>
  </defs>
  <path class="cls-1" d="M46.76,95.13c6.88,0,12.48-5.6,12.48-12.48s-5.6-12.48-12.48-12.48-12.48,5.6-12.48,12.48,5.6,12.48,12.48,12.48ZM46.76,74.1c4.71,0,8.54,3.83,8.54,8.54s-3.83,8.54-8.54,8.54-8.54-3.83-8.54-8.54,3.83-8.54,8.54-8.54Z"/>
  <path class="cls-1" d="M172.79,158.2c1.15-2.66,3-7.42,2.81-10.21-.47-7.17-11.77-18.75-16.03-22.87l4.24-5.77c.51-.69.51-1.64,0-2.33l-4.29-5.84,4.29-5.84c.51-.69.51-1.64,0-2.33l-4.29-5.84,4.29-5.84c.51-.69.51-1.64,0-2.33l-5.15-7.01c-.37-.51-.96-.8-1.59-.8h-7.97v-26.58c3.93-3.47,6.43-8.53,6.43-14.17,0-10.43-8.48-18.91-18.91-18.91-6.67,0-12.54,3.48-15.9,8.72l-43.35,20.37V6.77c0-1.09-.88-1.97-1.97-1.97H18.12c-1.09,0-1.97.88-1.97,1.97v32.13l-8.32,2.73V6.77c0-1.09-.88-1.97-1.97-1.97s-1.97.88-1.97,1.97v36.15l-2.53.83c-.81.27-1.36,1.02-1.36,1.87v10.6c0,.85.55,1.61,1.36,1.87l2.53.83v23.71c0,23.64,19.23,42.87,42.87,42.87s42.87-19.23,42.87-42.87v-2.48l34.5-16.21v17.22h-7.97c-.63,0-1.22.3-1.59.8l-5.15,7.01c-.51.69-.51,1.64,0,2.33l4.29,5.84-4.29,5.84c-.51.69-.51,1.64,0,2.33l4.29,5.84-4.29,5.84c-.51.69-.51,1.64,0,2.33l4.24,5.77c-4.26,4.12-15.56,15.7-16.03,22.87-.18,2.79,1.66,7.55,2.81,10.21-3.38,1.89-7.52,6.48-7.2,15.11.04,1.06.91,1.9,1.97,1.9h82.79c1.06,0,1.93-.84,1.97-1.9.32-8.63-3.82-13.22-7.2-15.11ZM136.62,25.45c8.25,0,14.97,6.71,14.97,14.97s-6.71,14.97-14.97,14.97-14.97-6.71-14.97-14.97,6.71-14.97,14.97-14.97ZM20.09,8.74h53.33v73.91c0,14.7-11.96,26.67-26.66,26.67s-26.67-11.96-26.67-26.67V8.74ZM16.15,58.81l-12.21-4.01v-7.75l12.21-4.01v15.76ZM85.69,82.65c0,21.47-17.46,38.93-38.93,38.93S7.83,104.11,7.83,82.65v-22.42l8.32,2.73v19.69c0,16.88,13.73,30.61,30.61,30.61,15.74,0,28.73-11.94,30.42-27.24l8.51-4v.63ZM77.36,81.57v-26.62l40.96-19.25c-.39,1.51-.62,3.08-.62,4.72,0,5.64,2.5,10.7,6.42,14.17v5.01l-46.77,21.98ZM128.07,57.26c2.57,1.31,5.47,2.06,8.54,2.06s5.97-.75,8.54-2.06v23.9h-17.08v-23.9ZM117.16,85.11h38.91l3.7,5.04-3.7,5.04h-38.91l-3.7-5.04,3.7-5.04ZM117.16,99.13h38.91l3.7,5.04-3.7,5.04h-38.91l-3.7-5.04,3.7-5.04ZM117.16,113.14h38.91l3.7,5.04-3.7,5.04h-38.91l-3.7-5.04,3.7-5.04ZM101.57,148.24c.36-5.52,10.94-16.61,15.67-21.08h38.77c6.12,5.77,15.34,16.13,15.66,21.08.12,1.84-1.47,6.09-2.76,9h-64.57c-1.3-2.9-2.89-7.16-2.76-9ZM97.2,171.26c.41-7.56,5.12-9.69,6.18-10.08h66.47c1.09.4,5.77,2.54,6.18,10.08h-78.82Z"/>
</svg>