<?xml version="1.0" encoding="UTF-8"?>
<svg id="Robotics_Machinery" data-name="Robotics &amp;amp; Machinery" xmlns="http://www.w3.org/2000/svg" viewBox="0 0 180 180">
  <defs>
    <style>
      .cls-1 {
        stroke: #000;
        stroke-miterlimit: 10;
        stroke-width: 2px;
      }
    </style>
  </defs>
  <path class="cls-1" d="M162.72,158.59l-11.52-30.09c15.39-13.68,24.56-33.45,24.56-54.93C175.77,33,142.77,0,102.2,0c-12.46,0-24.78,3.18-35.62,9.19-23.41,12.98-37.95,37.65-37.95,64.38,0,5.14.54,10.28,1.6,15.29.18.85.93,1.45,1.79,1.45h9.29c7.36,26.72,31.85,46.42,60.88,46.42,7.36,0,14.43-1.29,21-3.62l3.99,7.45v16.84H51.04l-8.51-18.08c-.3-.64-.95-1.05-1.66-1.05h-9c-1.01,0-1.83.82-1.83,1.83v4.47h-15.75c-1.01,0-1.83.82-1.83,1.83s.82,1.83,1.83,1.83h15.75v9.16H6.07c-1.01,0-1.83.82-1.83,1.83v18.92c0,1.01.82,1.83,1.83,1.83h154.94c1.01,0,1.83-.82,1.83-1.83v-18.92c0-.23-.05-.45-.12-.65,0,0,0,0,0,0ZM102.2,3.67c38.54,0,69.9,31.36,69.9,69.9,0,28.11-16.52,53.13-42.23,64.21l-25.49-47.6c3.65-.47,7.03-2.12,9.67-4.77,6.51-6.51,6.53-17.1.05-23.64L70.37,11.33c9.8-5.02,20.76-7.66,31.84-7.66ZM32.31,73.57c0-24.9,13.28-47.92,34.77-60.43l44.29,51.09s.06.07.09.1c5.1,5.1,5.1,13.4,0,18.5-2.47,2.47-5.75,3.83-9.25,3.83H33.53c-.81-4.3-1.23-8.69-1.23-13.08ZM102.2,133.06c-26.99,0-49.83-18.07-57.09-42.75h55.17l21.17,39.53c-6.04,2.08-12.51,3.22-19.25,3.22ZM130.87,141.32c6.35-2.68,12.17-6.17,17.37-10.32l10.11,26.41h-27.48v-16.09ZM33.7,141.94h6.01l7.28,15.47h-13.28v-15.47ZM159.18,176.33H7.9v-15.25h151.27v15.25Z"/>
  <path class="cls-1" d="M106.07,73.57c0-2.14-1.74-3.87-3.87-3.87s-3.87,1.74-3.87,3.87,1.74,3.87,3.87,3.87,3.87-1.74,3.87-3.87Z"/>
</svg>