<?xml version="1.0" encoding="UTF-8"?>
<svg id="Robotics_Machinery" data-name="Robotics &amp;amp; Machinery" xmlns="http://www.w3.org/2000/svg" viewBox="0 0 180 180">
  <defs>
    <style>
      .cls-1 {
        stroke: #000;
        stroke-miterlimit: 10;
        stroke-width: 2px;
      }
    </style>
  </defs>
  <path class="cls-1" d="M152.71,81.54s.04-.04.06-.06l5.68-5.68c3-2.57,5.7-3.69,8.31-4.77,2.79-1.15,5.67-2.35,8.52-5.2,3.05-3.05,4.73-7.1,4.73-11.41s-1.68-8.36-4.73-11.41c-3.05-3.05-7.1-4.73-11.41-4.73s-8.36,1.68-11.41,4.73c-2.85,2.85-4.05,5.73-5.2,8.52-1.08,2.61-2.2,5.31-4.77,8.31l-8.08,8.08c-6.23-6.47-13.8-11.63-22.26-15.04l-30.1-37.29c-2.13-2.64-5.53-3.93-8.88-3.36-.64.11-15.94,2.8-32.39,12.99C18.64,38.91,4.59,59.69.14,85.29c-.57,3.31.67,6.7,3.26,8.84l20.99,17.4c0,.24,0,.47,0,.71,0,2.11.11,4.21.32,6.3h-7.61c-.88,0-1.6.71-1.6,1.6v11.38c0,.88.71,1.6,1.6,1.6h19.67c8.45,20.85,29.03,34.79,51.59,34.79s43.14-13.94,51.59-34.79h27.72c.88,0,1.6-.71,1.6-1.6v-25.07c0-.88-.71-1.6-1.6-1.6s-1.6.71-1.6,1.6v12.1h-14.08c.21-2.09.32-4.19.32-6.3,0-7.77-1.39-15.22-3.94-22.11.07-2.6,1.09-5.64,4.36-8.59ZM5.43,91.68c-1.71-1.42-2.53-3.65-2.15-5.84,4.29-24.68,17.83-44.71,39.17-57.91,15.93-9.86,30.63-12.45,31.25-12.55.35-.06.69-.09,1.04-.09,1.86,0,3.64.84,4.83,2.31l26.88,33.3c-5.73-1.69-11.79-2.61-18.06-2.61l-15.39-19.07c-.4-.5-1.06-.7-1.67-.53-5.54,1.55-14.01,4.56-22.82,10.1-16.9,10.61-27.7,25.66-32.1,44.74-.14.59.07,1.2.54,1.59l10.22,8.47c-1.37,4.47-2.26,9.14-2.61,13.95l-19.12-15.85ZM28.25,90.33l-8.51-7.05c4.34-17.77,14.59-31.83,30.46-41.8,8.3-5.21,16.37-8.08,20.98-9.44l13.21,16.36c-25.86,1.58-47.61,18.59-56.14,41.92ZM88.34,164.71c-20.83,0-39.89-12.61-48.14-31.6h96.28c-8.25,19-27.31,31.6-48.14,31.6ZM100.04,118.54c-.88,0-1.6.71-1.6,1.6s.71,1.6,1.6,1.6h66.02v8.19H18.68v-8.19h57.96c.88,0,1.6-.71,1.6-1.6s-.71-1.6-1.6-1.6H27.91c-.22-2.09-.34-4.19-.34-6.3,0-33.51,27.26-60.77,60.77-60.77s60.77,27.26,60.77,60.77c0,2.11-.12,4.21-.34,6.3h-48.73ZM146.23,85.07c-2.54-5.38-5.8-10.36-9.67-14.8,0,0,8.27-8.28,8.3-8.31,2.93-3.4,4.21-6.49,5.34-9.21,1.13-2.73,2.1-5.08,4.51-7.48,5.05-5.05,13.26-5.05,18.3,0,2.44,2.44,3.79,5.69,3.79,9.15s-1.35,6.71-3.79,9.15c-2.4,2.4-4.76,3.38-7.48,4.51-2.72,1.13-5.81,2.41-9.21,5.34-.03.03-5.78,5.77-5.78,5.77-2.14,1.94-3.5,3.94-4.31,5.88Z"/>
  <path class="cls-1" d="M117.39,80.78c-7.93-7.33-18.25-11.37-29.06-11.37s-21.13,4.04-29.06,11.37c-7.88,7.29-12.72,17.18-13.61,27.84-.04.44.11.88.42,1.21.3.33.73.52,1.17.52h29.37c.71,0,1.33-.46,1.53-1.14,1.33-4.47,5.51-7.59,10.18-7.59s8.85,3.12,10.18,7.59c.2.68.82,1.14,1.53,1.14h29.37c.45,0,.87-.19,1.17-.52.3-.33.45-.77.42-1.21-.89-10.66-5.73-20.55-13.61-27.84ZM101.18,107.16c-2.06-5.2-7.18-8.73-12.84-8.73s-10.78,3.53-12.84,8.73h-26.47c2.51-19.51,19.45-34.56,39.3-34.56s36.79,15.04,39.3,34.56h-26.47Z"/>
  <path class="cls-1" d="M88.34,108.87c-1.86,0-3.37,1.51-3.37,3.37s1.51,3.37,3.37,3.37,3.37-1.51,3.37-3.37-1.51-3.37-3.37-3.37Z"/>
</svg>