<?xml version="1.0" encoding="UTF-8"?>
<svg id="Robotics_Machinery" data-name="Robotics &amp;amp; Machinery" xmlns="http://www.w3.org/2000/svg" viewBox="0 0 180 180">
  <defs>
    <style>
      .cls-1 {
        stroke: #000;
        stroke-miterlimit: 10;
        stroke-width: 2px;
      }
    </style>
  </defs>
  <path class="cls-1" d="M173.65,27.49c1.04,0,1.88-.84,1.88-1.88v-14.09c0-1.04-.84-1.88-1.88-1.88h-32.1V1.88c0-1.04-.84-1.88-1.88-1.88H40.34c-1.04,0-1.88.84-1.88,1.88v7.76H6.35c-1.04,0-1.88.84-1.88,1.88v14.09c0,1.04.84,1.88,1.88,1.88h32.1v22.75H6.35c-1.04,0-1.88.84-1.88,1.88v14.09c0,1.04.84,1.88,1.88,1.88h32.1v7.75c0,1.04.84,1.88,1.88,1.88h32.46v13.85h-6.04c-1.04,0-1.88.84-1.88,1.88v24.65c0,.58.27,1.12.72,1.48l12.89,10.13v39.46c0,.52.22,1.02.6,1.38l9.64,8.94c.36.33.82.5,1.28.5s.92-.17,1.28-.5l9.63-8.94c.38-.36.6-.86.6-1.38v-39.46s12.9-10.13,12.9-10.13c.45-.36.72-.9.72-1.48v-24.65c0-1.04-.84-1.88-1.88-1.88h-6.04v-13.85h32.46c1.04,0,1.88-.84,1.88-1.88v-7.75h32.1c1.04,0,1.88-.84,1.88-1.88v-14.09c0-1.04-.84-1.88-1.88-1.88h-32.1v-22.75h32.1ZM8.23,23.73v-10.32h30.22v10.32H8.23ZM8.23,64.33v-10.32h30.22v10.32H8.23ZM171.77,13.4v10.32h-30.22v-10.32h30.22ZM82.25,149.29l15.51-8.68v12.43s-15.51,8.68-15.51,8.68v-12.43ZM97.75,136.29l-15.51,8.68v-14.29h15.51v5.61ZM90,175.55l-7.75-7.19v-2.33l15.51-8.68v11.01s-7.75,7.19-7.75,7.19ZM111.37,117.19l-12.38,9.72h-17.97l-12.38-9.72v-21.86h42.73v21.86ZM103.44,91.57h-26.89v-13.85h26.89v13.85ZM137.78,73.96H42.22V3.76h95.56v70.2ZM171.77,54v10.32h-30.22v-10.32h30.22Z"/>
  <path class="cls-1" d="M66.75,53.07h46.5c1.04,0,1.88-.84,1.88-1.88v-24.65c0-1.04-.84-1.88-1.88-1.88h-46.5c-1.04,0-1.88.84-1.88,1.88v24.65c0,1.04.84,1.88,1.88,1.88ZM68.63,28.42h42.73v20.89h-42.73v-20.89Z"/>
  <path class="cls-1" d="M90,106.19c-2.25,0-4.08,1.83-4.08,4.08s1.83,4.08,4.08,4.08,4.08-1.83,4.08-4.08-1.83-4.08-4.08-4.08Z"/>
</svg>