<?xml version="1.0" encoding="UTF-8"?>
<svg id="Robotics_Machinery" data-name="Robotics &amp;amp; Machinery" xmlns="http://www.w3.org/2000/svg" viewBox="0 0 180 180">
  <defs>
    <style>
      .cls-1 {
        stroke: #000;
        stroke-miterlimit: 10;
        stroke-width: 2px;
      }
    </style>
  </defs>
  <path class="cls-1" d="M168,147.22s0-.08,0-.11c-.18-2.05-1.07-3.97-2.52-5.42l-16.37-16.37,3.41-3.41c.55-.54.68-1.38.35-2.07l-10.35-21.22,5.51-5.51c4.79-4.79,7.42-11.15,7.42-17.92s-2.64-13.14-7.42-17.92c-6.4-6.4-12.27-7.07-17.96-7.72-5.19-.6-10.09-1.16-15.36-6.43l-16.75-16.75c-.7-.7-1.85-.7-2.55,0s-.7,1.85,0,2.55l16.75,16.75c6.16,6.16,11.92,6.82,17.5,7.46,5.3.61,10.31,1.18,15.82,6.69,4.11,4.11,6.37,9.56,6.37,15.37s-2.26,11.26-6.37,15.37l-4.64,4.64-5.32-10.9,4.35-4.35c.34-.34.53-.8.53-1.28s-.19-.94-.53-1.28l-13.29-13.28c-.27-.27-.63-.45-1.01-.51l-15.21-2.25-21.87-21.87c0-.29.02-.58.02-.88,0-10.31-4.02-20-11.31-27.29C69.92,4.02,60.22,0,49.91,0s-20,4.02-27.29,11.31c-7.29,7.29-11.31,16.98-11.31,27.29s4.02,20,11.31,27.3c7.29,7.29,16.98,11.31,27.29,11.31.29,0,.58-.01.87-.02l21.87,21.87,2.25,15.21c.06.38.23.74.51,1.01l13.29,13.28c.35.35.81.53,1.28.53s.92-.18,1.28-.53l4.35-4.35,35.54,17.35c.25.12.52.18.79.18.47,0,.93-.18,1.28-.53l3.55-3.55,14.18,14.18,4.79,26.68c.15.86.9,1.49,1.78,1.49h9.37c.49,0,.95-.2,1.29-.54.34-.35.52-.82.51-1.3l-.69-30.93ZM14.92,38.6c0-9.35,3.64-18.13,10.25-24.74,6.61-6.61,15.4-10.25,24.74-10.25s18.13,3.64,24.74,10.25c6.61,6.61,10.25,15.4,10.25,24.74s-3.64,18.13-10.25,24.74c-13.64,13.64-35.84,13.64-49.49,0-6.61-6.61-10.25-15.4-10.25-24.74ZM77.21,65.9c5.95-5.95,9.72-13.51,10.9-21.7l18.85,18.85-32.6,32.6-18.85-18.85c8.19-1.18,15.75-4.95,21.7-10.9ZM89.98,124.73l-11.59-11.59-2.12-14.31,33.87-33.87,14.31,2.12,11.59,11.59-9.6,9.6-10.14-10.14c-.7-.7-1.85-.7-2.55,0-.7.7-.7,1.85,0,2.55l10.14,10.14-9.6,9.6-10.14-10.14c-.7-.7-1.85-.7-2.55,0-.7.7-.7,1.85,0,2.55l10.14,10.14-9.6,9.6-10.14-10.14c-.7-.7-1.85-.7-2.55,0-.7.7-.7,1.85,0,2.55l10.14,10.14-9.6,9.6ZM131.58,137.74l-33.27-16.24,34.51-34.51,16.24,33.27-17.48,17.48ZM159.02,176.39l-4.62-25.75c-.06-.36-.24-.7-.5-.96l-14.58-14.58,7.24-7.24,16.37,16.37c.84.84,1.36,1.95,1.47,3.13l.64,29.03h-6.02Z"/>
  <path class="cls-1" d="M63.29,51.97c7.37-7.37,7.37-19.37,0-26.74-7.37-7.37-19.37-7.37-26.75,0-7.37,7.37-7.37,19.37,0,26.74,3.69,3.69,8.53,5.53,13.37,5.53s9.69-1.84,13.37-5.53ZM39.09,27.78c2.98-2.98,6.9-4.47,10.82-4.47s7.84,1.49,10.82,4.47c5.97,5.97,5.97,15.68,0,21.64-5.97,5.97-15.68,5.97-21.64,0-5.97-5.97-5.97-15.68,0-21.64Z"/>
  <path class="cls-1" d="M135.17,103.41c-.7-.7-1.85-.7-2.55,0l-17.9,17.9c-.7.7-.7,1.85,0,2.55.35.35.81.53,1.28.53s.92-.18,1.28-.53l17.9-17.9c.7-.7.7-1.85,0-2.55Z"/>
  <path class="cls-1" d="M136.4,119.56c-.72-.72-1.68-1.12-2.69-1.12s-1.97.4-2.69,1.12c-.72.72-1.12,1.68-1.12,2.69s.4,1.97,1.12,2.69c.72.72,1.68,1.12,2.69,1.12s1.97-.4,2.69-1.12c.72-.72,1.12-1.68,1.12-2.69s-.4-1.97-1.11-2.69Z"/>
</svg>