<?xml version="1.0" encoding="UTF-8"?>
<svg id="Robotics_Machinery" data-name="Robotics &amp;amp; Machinery" xmlns="http://www.w3.org/2000/svg" viewBox="0 0 180 180">
  <defs>
    <style>
      .cls-1 {
        stroke: #000;
        stroke-miterlimit: 10;
        stroke-width: 2px;
      }
    </style>
  </defs>
  <path class="cls-1" d="M178.3,40.54h-46.37c-2.95-.17-4.43-2.41-5.99-4.77-1.81-2.75-4.3-6.51-9.45-3.68-.54.3-.88.87-.88,1.49v6.97h-12.66v-4.28c0-.05,0-.1,0-.16-.31-3.31-3.8-4.63-7.18-5.92-3.9-1.48-7.94-3.01-8.46-7.12-.36-2.84-1.17-5.34-2.35-7.47h51.4c-.14,5.38-.92,10.71-2.32,15.87-.25.9.29,1.84,1.19,2.08.9.24,1.83-.29,2.08-1.19,1.63-5.99,2.46-12.2,2.46-18.46,0-.94-.76-1.7-1.7-1.7h-55.61c-3.05-3.15-7.35-4.89-12.58-4.89s-9.53,1.74-12.58,4.89H1.7c-.94,0-1.7.76-1.7,1.7,0,21.79,9.9,41.95,27.16,55.31.31.24.67.35,1.04.35.51,0,1.01-.23,1.34-.66.57-.74.44-1.81-.3-2.38C13.26,54.17,3.91,35.69,3.41,15.6h51.4c-1.18,2.13-1.99,4.63-2.35,7.47-.52,4.11-4.56,5.64-8.46,7.12-3.38,1.28-6.87,2.61-7.18,5.92,0,.05,0,.1,0,.16v42.3c0,2.95,3,4.58,6.18,6.32,3.53,1.92,7.19,3.91,7.19,7.4,0,2.91,0,54.15,0,54.15-.47,6.4-1.88,8.22-3.01,9.68-.99,1.28-2.01,2.6-1.94,5.65.13,5.51,4.57,10.93,8.97,10.93h31.35c4.4,0,8.85-5.41,8.97-10.93.07-3.04-.95-4.37-1.94-5.65-1.13-1.46-2.54-3.28-3.01-9.68,0,0,0-51.25,0-54.15,0-3.49,3.66-5.48,7.19-7.4,3.18-1.73,6.18-3.37,6.18-6.32v-16.07h12.66v6.97c0,.62.34,1.19.88,1.49,1.29.71,2.42,1,3.4,1,2.95,0,4.69-2.63,6.05-4.69,1.56-2.36,3.04-4.6,5.99-4.77h46.37c.94,0,1.7-.76,1.7-1.7v-18.55c0-.94-.76-1.7-1.7-1.7ZM89.91,158.18c.85,1.1,1.28,1.65,1.24,3.49-.09,3.85-3.27,7.62-5.59,7.62h-31.35c-2.31,0-5.5-3.77-5.59-7.62-.04-1.84.38-2.39,1.24-3.49,1.34-1.73,3.18-4.1,3.72-11.57,0-.04,0-.08,0-.12v-46.75h32.61v46.75s0,.08,0,.12c.54,7.47,2.37,9.84,3.72,11.57ZM99.56,78.56c0,.93-2.45,2.27-4.41,3.34-3.99,2.17-8.95,4.87-8.96,10.38,0,1.5,0,2.99,0,4.08h-32.6c0-1.09,0-2.58,0-4.08,0-5.5-4.97-8.2-8.96-10.38-1.97-1.07-4.41-2.4-4.41-3.34v-42.2c.18-1.17,2.63-2.1,5-3,4.15-1.58,9.84-3.73,10.62-9.86,1.03-8.13,6.16-12.79,14.06-12.79s13.03,4.66,14.06,12.79c.78,6.13,6.47,8.29,10.62,9.86,2.37.9,4.82,1.83,5,3v42.2ZM102.95,59.09v-15.16h12.66v15.16h-12.66ZM176.61,59.09h-44.72s-.06,0-.09,0c-4.69.24-7,3.74-8.69,6.29-1.81,2.74-2.56,3.57-4.11,3v-33.74c1.55-.57,2.3.25,4.11,3,1.69,2.55,4,6.05,8.69,6.29.03,0,.06,0,.09,0h44.72v15.16Z"/>
  <path class="cls-1" d="M80.95,44.9h-22.12c-.94,0-1.7.76-1.7,1.7s.76,1.7,1.7,1.7h22.12c.94,0,1.7-.76,1.7-1.7s-.76-1.7-1.7-1.7Z"/>
  <path class="cls-1" d="M80.95,58.17h-22.12c-.94,0-1.7.76-1.7,1.7s.76,1.7,1.7,1.7h22.12c.94,0,1.7-.76,1.7-1.7s-.76-1.7-1.7-1.7Z"/>
  <path class="cls-1" d="M80.95,71.44h-22.12c-.94,0-1.7.76-1.7,1.7s.76,1.7,1.7,1.7h22.12c.94,0,1.7-.76,1.7-1.7s-.76-1.7-1.7-1.7Z"/>
  <path class="cls-1" d="M69.89,28.55c1.95,0,3.54-1.59,3.54-3.54s-1.59-3.54-3.54-3.54-3.54,1.59-3.54,3.54,1.59,3.54,3.54,3.54Z"/>
</svg>