<?xml version="1.0" encoding="UTF-8"?>
<svg id="Robotics_Machinery" data-name="Robotics &amp;amp; Machinery" xmlns="http://www.w3.org/2000/svg" viewBox="0 0 180 180">
  <defs>
    <style>
      .cls-1 {
        stroke: #000;
        stroke-miterlimit: 10;
        stroke-width: 2px;
      }
    </style>
  </defs>
  <path class="cls-1" d="M63.69,101.94c.42,0,.83-.16,1.15-.48l15.8-15.8c.63-.63.63-1.66,0-2.3-.63-.63-1.66-.63-2.3,0l-15.8,15.8c-.63.63-.63,1.66,0,2.3.32.32.73.48,1.15.48Z"/>
  <path class="cls-1" d="M72.01,108.65c-.63.63-.63,1.66,0,2.3.32.32.73.48,1.15.48s.83-.16,1.15-.48l15.8-15.8c.63-.63.63-1.66,0-2.3-.63-.63-1.66-.63-2.3,0l-15.8,15.8Z"/>
  <path class="cls-1" d="M81.49,120.42c.32.32.73.48,1.15.48s.83-.16,1.15-.48l15.8-15.8c.63-.63.63-1.66,0-2.3-.63-.63-1.66-.63-2.3,0l-15.8,15.8c-.63.63-.63,1.66,0,2.3Z"/>
  <path class="cls-1" d="M40.94,103.14c-1.48-1.48-3.97-1.48-5.45,0l-17.99,17.99c-1.48,1.48-1.48,3.98,0,5.45l35.92,35.92c.74.74,1.73,1.11,2.73,1.11s1.99-.37,2.73-1.11l17.99-17.99c.72-.72,1.12-1.69,1.12-2.73s-.4-2.01-1.12-2.73l-35.92-35.92ZM19.79,123.42l6.4-6.4,11.7,11.7c1.25,1.25-.33,3.9-2.87,7.81-.39.6-.78,1.2-1.17,1.82l-14.07-14.07c-.22-.22-.22-.64,0-.86ZM74.56,142.22l-17.99,17.99c-.22.22-.64.22-.86,0l-19.49-19.49c.5-.81,1.02-1.62,1.53-2.41,2.78-4.27,5.65-8.68,2.45-11.88l-11.7-11.7,9.29-9.29c.11-.11.27-.17.43-.17s.32.06.43.17l35.92,35.92c.11.11.17.26.17.43s-.06.33-.17.43Z"/>
  <path class="cls-1" d="M179.52.48c-.36-.36-.87-.53-1.37-.46l-13.84,1.95c-.35.05-.67.21-.92.46l-22.54,22.54-1.75-1.75c-.43-.43-1.06-.58-1.64-.4l-21.96,6.99c-.25.08-.47.22-.66.4l-26.2,26.2-34.35,5.2c-.34.05-.66.21-.9.46L5.92,109.55c-7.89,7.89-7.89,20.73,0,28.61l35.92,35.92c3.94,3.94,9.13,5.92,14.31,5.92s10.36-1.97,14.31-5.92l47.47-47.47c.25-.24.41-.56.46-.9l5.2-34.35,26.2-26.2c.18-.18.32-.41.4-.66l6.99-21.96c.18-.58.03-1.21-.4-1.64l-1.75-1.75,22.54-22.54c.25-.25.41-.57.46-.92l1.95-13.84c.07-.5-.1-1.01-.46-1.37ZM115.25,124.69l-47.1,47.1c-3.2,3.2-7.47,4.97-12.01,4.97s-8.81-1.76-12.01-4.97l-35.92-35.92c-3.2-3.2-4.97-7.47-4.97-12.01s1.76-8.81,4.97-12.01l47.1-47.1,33.54-5.08,31.48,31.48-5.08,33.54ZM147.21,63.13l-25.16,25.16-30.34-30.34,24.29-24.29,22.13,22.13c.32.32.73.48,1.15.48s.83-.16,1.15-.48c.63-.63.63-1.66,0-2.3l-21.39-21.39,18.48-5.88,16.28,16.28-6.57,20.64ZM174.89,14.7l-22.16,22.16-9.59-9.59,22.16-22.16,11.16-1.58-1.58,11.16Z"/>
</svg>