<?xml version="1.0" encoding="UTF-8"?>
<svg id="Robotics_Machinery" data-name="Robotics &amp;amp; Machinery" xmlns="http://www.w3.org/2000/svg" viewBox="0 0 180 180">
  <defs>
    <style>
      .cls-1 {
        stroke: #000;
        stroke-miterlimit: 10;
        stroke-width: 2px;
      }
    </style>
  </defs>
  <path class="cls-1" d="M178.49,43.37l-25.55-3.5v-3.99c0-.75-.48-1.42-1.19-1.65l-52.45-17.55c-.18-.06-.36-.09-.55-.09h-14.1c-.69,0-1.31.4-1.59,1.03l-2.43,5.4H1.74c-.96,0-1.74.78-1.74,1.74v14.2c0,.96.78,1.74,1.74,1.74h70.95l-3.24,7.2H1.74c-.96,0-1.74.78-1.74,1.74v22.03c0,6.09,4.95,11.04,11.04,11.04h10.4c1.67,3.79,2.19,7.08,1.65,10.29l-10.41,61.75c-.02.1-.02.19-.02.29,0,4.61,3.75,8.36,8.36,8.36h36.08c6.06,0,7.65-4.58,8.32-8.02.52-2.68-.74-5.26-1.95-7.75-1.37-2.81-2.79-5.71-1.99-8.98.21-.86.53-2.35.92-4.33h10.3c3.07,0,5.22-.7,6.56-2.14,1.61-1.72,1.66-4.1,1.53-5.98-.24-3.44-.8-6.45-1.35-9.36-1.55-8.33-3.02-16.21,2.33-34.12h16.99c.19,0,.37-.03.55-.09l52.45-17.55c.71-.24,1.19-.9,1.19-1.65v-3.99l25.55-3.5c.86-.12,1.51-.86,1.51-1.73v-9.13c0-.87-.64-1.61-1.51-1.73ZM3.49,37.23v-10.72h75.59l-4.82,10.72H3.49ZM61.99,154.72c-.84,4.33-2.5,5.2-4.9,5.2H21c-2.64,0-4.8-2.11-4.87-4.73l10.39-61.59c.58-3.44.13-7.01-1.34-10.87h45.03c-1.75,1.96-2.79,4.51-3.21,6.98-2.61,15.16-8.69,47.14-8.93,48.13-1.09,4.49.76,8.28,2.25,11.33,1.05,2.16,1.96,4.02,1.67,5.56ZM76,117.48c.55,2.95,1.07,5.73,1.3,8.97.12,1.77-.06,2.77-.6,3.36-.63.67-2.02,1.03-4.01,1.03h-9.61c1.91-9.82,4.92-26.31,7.37-40.55.39-2.26,1.92-7.47,7.68-7.56-5.24,18.03-3.66,26.52-2.12,34.75ZM149.46,62.18l-48.96,16.38v-44.74c0-.96-.78-1.74-1.74-1.74s-1.74.78-1.74,1.74v45.42H11.04c-4.17,0-7.55-3.39-7.55-7.55v-20.28h67.09c.69,0,1.31-.4,1.59-1.03l13.62-30.3h12.69l50.99,17.06v25.04ZM176.51,52.7l-23.57,3.23v-12.53l23.57,3.23v6.08Z"/>
</svg>