<?xml version="1.0" encoding="UTF-8"?>
<svg id="Robotics_Machinery" data-name="Robotics &amp;amp; Machinery" xmlns="http://www.w3.org/2000/svg" viewBox="0 0 180 180">
  <defs>
    <style>
      .cls-1 {
        stroke: #000;
        stroke-miterlimit: 10;
        stroke-width: 2px;
      }
    </style>
  </defs>
  <path class="cls-1" d="M87.69,95.92c-1.21,0-2.4.06-3.58.17l-25.27-45.26,3.1-1.73c.97-.54,1.32-1.77.78-2.73l-10.09-18.08c-5.64-10.09-18.43-13.72-28.52-8.09-4.89,2.73-8.42,7.2-9.95,12.59-1.53,5.39-.86,11.05,1.87,15.94l10.09,18.08c.26.47.69.81,1.21.95.18.05.36.08.55.08.34,0,.68-.09.98-.25l3.1-1.73,24.83,44.48c-5.95,7.05-9.55,16.15-9.55,26.07v12.59h-15.66c2.04-1.61,3.81-3.69,5.24-6.2,6.61-11.62,5.16-29.94-3.53-44.56-13.1-22.04-19.92-33.44-19.92-33.44-.57-.95-1.8-1.26-2.76-.69-.95.57-1.26,1.8-.69,2.76,0,0,6.82,11.4,19.92,33.43,7.86,13.22,9.33,30.26,3.49,40.52-2.12,3.73-6.22,8.19-13.65,8.19H2.01c-1.11,0-2.01.9-2.01,2.01v23.87c0,1.11.9,2.01,2.01,2.01h124.14c1.11,0,2.01-.9,2.01-2.01v-38.47c0-22.32-18.16-40.48-40.48-40.48ZM28.63,63.08l-9.12-16.33c-2.21-3.95-2.74-8.53-1.51-12.88s4.09-7.97,8.04-10.17c8.16-4.56,18.5-1.62,23.06,6.54l9.12,16.33-29.59,16.52ZM55.33,52.78l24.51,43.9c-7.75,1.53-14.71,5.28-20.19,10.56l-24.2-43.36,19.89-11.1ZM124.14,172.85H4.02v-19.85h45.2c1.11,0,2.01-.9,2.01-2.01v-14.6c0-20.1,16.36-36.46,36.46-36.46s36.46,16.35,36.46,36.46v36.46Z"/>
  <path class="cls-1" d="M87.69,119.08c-9.55,0-17.31,7.77-17.31,17.31s7.77,17.31,17.31,17.31,17.31-7.77,17.31-17.31-7.77-17.31-17.31-17.31ZM87.69,149.68c-7.33,0-13.29-5.96-13.29-13.29s5.96-13.29,13.29-13.29,13.29,5.96,13.29,13.29-5.96,13.29-13.29,13.29Z"/>
  <path class="cls-1" d="M34.31,34.25c-2.34,0-4.24,1.9-4.24,4.24s1.9,4.24,4.24,4.24,4.24-1.9,4.24-4.24-1.9-4.24-4.24-4.24Z"/>
  <path class="cls-1" d="M179.38,42.58l-22.5-21.5s-.06-.06-.09-.08c-1.65-1.39-3.74-2.15-5.9-2.15h-23.75v-8.75c0-1.11-.9-2.01-2.01-2.01h-21.81c-1.11,0-2.01.9-2.01,2.01v6.48h-34.82l-12.53-12.84c-.38-.39-.9-.61-1.44-.61H8.26C3.71,3.13,0,6.84,0,11.39v33.93c0,3.08,1.71,5.88,4.45,7.32.3.16.62.23.93.23.72,0,1.42-.39,1.78-1.08.51-.98.14-2.2-.85-2.71-1.42-.74-2.3-2.18-2.3-3.76V11.39c0-2.34,1.9-4.24,4.24-4.24h43.41l12.53,12.84c.38.39.9.61,1.44.61h35.66v14.81h-31.57c-1.11,0-2.01.9-2.01,2.01s.9,2.01,2.01,2.01h31.57v6.48c0,1.11.9,2.01,2.01,2.01h21.81c1.11,0,2.01-.9,2.01-2.01v-8.75h20.51l22.93,15.95c.35.24.75.36,1.15.36.57,0,1.14-.25,1.54-.72l6.26-7.43c.68-.81.62-2.01-.15-2.75ZM123.12,43.9h-17.79V12.11h17.79v31.79ZM171.38,48.77l-21.95-15.27c-.34-.23-.74-.36-1.15-.36h-21.14v-10.27h23.75c1.19,0,2.35.42,3.26,1.17l21.08,20.15-3.86,4.58Z"/>
</svg>