<?xml version="1.0" encoding="UTF-8"?>
<svg id="Robotics_Machinery" data-name="Robotics &amp;amp; Machinery" xmlns="http://www.w3.org/2000/svg" viewBox="0 0 180 180">
  <defs>
    <style>
      .cls-1 {
        stroke: #000;
        stroke-miterlimit: 10;
        stroke-width: 2px;
      }
    </style>
  </defs>
  <path class="cls-1" d="M179.06,22.33c0-5.97-2.32-11.58-6.54-15.8-8.71-8.71-22.89-8.71-31.6,0l-57.03,57.03c-2.58-1.41-5.39-2.37-8.33-2.82-.16-.59-.27-1.23-.34-1.93,0-.03,0-.05,0-.08l-.93-6.27c-.21-3.05.34-5.27.88-7.41.59-2.34,1.19-4.77.72-7.98-1.06-7.14-7.71-12.08-14.86-11.03-3.46.51-6.51,2.34-8.59,5.15-2.08,2.81-2.95,6.26-2.43,9.71.48,3.22,1.76,5.36,3,7.43,1.13,1.89,2.3,3.85,2.98,6.83l1.42,9.6c-1.36.92-2.64,1.97-3.83,3.16-4.55,4.55-8.39,13.55-11.28,26.31L6.55,129.98c-7.48,7.48-7.48,19.64,0,27.12l17.3,17.3c3.74,3.74,8.65,5.61,13.56,5.61s9.82-1.87,13.56-5.61l64.69-64.69c2.1-2.1,3.26-4.91,3.26-7.91,0-2.73-.97-5.3-2.74-7.33l56.33-56.33c4.22-4.22,6.54-9.83,6.54-15.8ZM59.1,54.66s-.01-.08-.02-.12c-.79-3.52-2.16-5.81-3.37-7.83-1.18-1.97-2.2-3.67-2.58-6.27-.39-2.62.27-5.23,1.84-7.35,1.58-2.12,3.88-3.51,6.5-3.89,5.4-.8,10.44,2.94,11.25,8.34.38,2.59-.1,4.52-.66,6.74-.57,2.28-1.22,4.87-.96,8.47,0,.04,0,.08.01.12l.93,6.29c.05.45.12.88.19,1.3-.2,0-.4-.01-.6-.01-3.98,0-7.82.91-11.29,2.62l-1.25-8.41ZM48.72,172.14c-6.24,6.23-16.38,6.23-22.61,0l-17.3-17.3c-6.23-6.24-6.23-16.38,0-22.62l32.3-32.3c-.36,1.93-1.16,6.79-1.19,6.94-.69,3.5.31,7.07,2.67,9.68l-24.74,24.74h0c-1.24,1.24-1.24,3.27,0,4.51l17.3,17.3c.62.62,1.44.93,2.26.93s1.63-.31,2.26-.93l24.73-24.73,3.4,3.4c2.1,2.1,4.91,3.26,7.91,3.26.05,0,.1,0,.15,0l-27.13,27.13ZM27.2,136.43c.61.4,1.22.79,1.79,1.17,3.43,2.26,6.54,4.31,9.38,4.31,1.4,0,2.74-.5,4.02-1.72l12.2-11.63,7.55,7.55-24.74,24.73-17.29-17.32,7.09-7.08ZM40.2,137.89c-1.86,1.77-4.07.6-9.45-2.95-.4-.27-.82-.54-1.24-.81l15.33-15.32,7.51,7.51-12.14,11.58ZM113.41,107.45l-32.06,32.06c-3.12,3.12-8.19,3.12-11.31,0l-24.82-24.82c-1.88-1.88-2.7-4.58-2.18-7.22.03-.17.09-.53.17-1.06,2.84-18.08,7.31-30.94,12.59-36.22,4.23-4.23,9.85-6.56,15.83-6.56s11.6,2.33,15.83,6.56l25.95,25.95c3.12,3.12,3.12,8.19,0,11.31ZM113.95,92.19l-24.24-24.24c-.97-.97-2-1.84-3.08-2.63l56.53-56.53c7.47-7.47,19.63-7.47,27.1,0,3.62,3.62,5.61,8.43,5.61,13.55s-1.99,9.93-5.61,13.55l-56.31,56.3Z"/>
  <path class="cls-1" d="M62.23,79.32c-6.02,6.02-6.02,15.82,0,21.84,3.01,3.01,6.97,4.52,10.92,4.52s7.91-1.51,10.92-4.52c6.02-6.02,6.02-15.82,0-21.84-6.02-6.02-15.82-6.02-21.84,0ZM81.82,98.92c-4.78,4.78-12.56,4.78-17.34,0-4.78-4.78-4.78-12.56,0-17.34,2.39-2.39,5.53-3.59,8.67-3.59s6.28,1.2,8.67,3.59c4.78,4.78,4.78,12.56,0,17.34Z"/>
  <path class="cls-1" d="M148.82,14.44c-4.35,4.35-4.35,11.43,0,15.79,2.18,2.18,5.03,3.26,7.89,3.26s5.72-1.09,7.89-3.26c4.35-4.35,4.35-11.43,0-15.79-4.35-4.35-11.43-4.35-15.79,0ZM162.35,27.98c-3.11,3.11-8.18,3.11-11.29,0-3.11-3.11-3.11-8.17,0-11.29,1.56-1.56,3.6-2.33,5.64-2.33s4.09.78,5.64,2.33c3.11,3.11,3.11,8.17,0,11.29Z"/>
</svg>