<?xml version="1.0" encoding="UTF-8"?>
<svg id="Robotics_Machinery" data-name="Robotics &amp;amp; Machinery" xmlns="http://www.w3.org/2000/svg" viewBox="0 0 180 180">
  <defs>
    <style>
      .cls-1 {
        stroke: #000;
        stroke-miterlimit: 10;
        stroke-width: 2px;
      }
    </style>
  </defs>
  <path class="cls-1" d="M179.56,54.21l-5.74-5.74c-.28-.28-.66-.44-1.06-.44h-25.32v-4.55c0-.41-.17-.8-.46-1.08l-8.8-8.42c-.28-.27-.65-.42-1.04-.42h-32.87c-.01-3.73-3.05-6.76-6.78-6.76H15.05C6.61,26.8,0,39.3,0,55.27c0,7.76,1.58,14.99,4.44,20.35.41.77.93,1.62,1.48,2.52,2.29,3.75,5.42,8.88,4.48,14.45L1.44,145.76c-.01.08-.02.17-.02.25,0,3.97,3.23,7.19,7.19,7.19h31.07c5.22,0,6.59-3.94,7.17-6.91.45-2.31-.63-4.53-1.68-6.67-1.18-2.42-2.4-4.92-1.72-7.73.72-2.96,2.91-14.49,5.16-27.03,1.33.04,2.65.08,3.92.08,5.4,0,9.93-.69,11.1-4.81.87-3.05,3.69-13.31,4.56-16.38h29.28c3.73,0,6.77-3.03,6.78-6.76h5.57v12.88h-7.07c-.55,0-1.05.3-1.32.78-2.72,4.95.92,7.36,3.59,9.12,2.38,1.57,4.63,3.06,4.8,6.07v45.88c0,.83.67,1.5,1.5,1.5h18.35c.83,0,1.5-.67,1.5-1.5v-45.88c.17-3.01,2.42-4.5,4.8-6.07,2.66-1.76,6.31-4.17,3.59-9.12-.26-.48-.77-.78-1.32-.78h-7.07v-12.88h5.94c.39,0,.76-.15,1.04-.42l8.8-8.42c.3-.28.46-.67.46-1.08v-4.55h25.32c.4,0,.78-.16,1.06-.44l5.74-5.74c.59-.59.59-1.54,0-2.12ZM60.75,99.3c-.79,2.79-5.97,2.74-11.61,2.57.7-3.91,1.39-7.86,2.04-11.62.34-1.96,1.67-6.51,6.74-6.51h7.16c-.77,2.72-3.46,12.52-4.33,15.56ZM101.27,76.95c0,2.09-1.7,3.78-3.78,3.78h-39.56c-6.01,0-8.95,4.65-9.7,9.01-2.9,16.86-6.71,37.38-7.69,41.44-.94,3.87.65,7.13,1.93,9.75.91,1.86,1.69,3.46,1.43,4.78-.73,3.73-2.15,4.48-4.22,4.48H8.62c-2.27,0-4.13-1.82-4.19-4.08l8.94-53.03c1.12-6.67-2.35-12.36-4.88-16.51-.53-.86-1.03-1.68-1.4-2.38-2.6-4.87-4.09-11.77-4.09-18.94,0-13.81,5.52-25.47,12.05-25.47h82.43c2.09,0,3.78,1.7,3.78,3.78v43.37ZM104.27,36.56h14.75v37.41h-14.75v-37.41ZM137.32,92.85c.72,1.82-.3,2.62-2.98,4.39-2.63,1.74-5.91,3.91-6.14,8.46,0,.03,0,.05,0,.08v44.42h-15.35v-44.42s0-.05,0-.08c-.23-4.55-3.51-6.72-6.14-8.46-2.68-1.77-3.7-2.57-2.98-4.39h33.61ZM128.19,89.85h-15.35v-12.88h15.35v12.88ZM144.43,66.42l-7.9,7.56h-14.51v-37.41h14.51l7.9,7.56v22.29ZM172.14,59.51h-24.7v-8.48h24.7l4.24,4.24-4.24,4.24Z"/>
  <path class="cls-1" d="M47.16,46.65h-26.38c-.83,0-1.5.67-1.5,1.5s.67,1.5,1.5,1.5h26.38c.83,0,1.5-.67,1.5-1.5s-.67-1.5-1.5-1.5Z"/>
  <path class="cls-1" d="M47.16,60.88h-26.38c-.83,0-1.5.67-1.5,1.5s.67,1.5,1.5,1.5h26.38c.83,0,1.5-.67,1.5-1.5s-.67-1.5-1.5-1.5Z"/>
  <path class="cls-1" d="M74.96,43.09c-6.71,0-12.17,5.46-12.17,12.18s5.46,12.17,12.17,12.17,12.18-5.46,12.18-12.17-5.46-12.18-12.18-12.18ZM74.96,64.44c-5.06,0-9.17-4.12-9.17-9.17s4.12-9.17,9.17-9.17,9.17,4.12,9.17,9.17-4.12,9.17-9.17,9.17Z"/>
</svg>