<?xml version="1.0" encoding="UTF-8"?>
<svg id="Robotics_Machinery" data-name="Robotics &amp;amp; Machinery" xmlns="http://www.w3.org/2000/svg" viewBox="0 0 180 180">
  <defs>
    <style>
      .cls-1 {
        stroke: #000;
        stroke-miterlimit: 10;
        stroke-width: 2px;
      }
    </style>
  </defs>
  <path class="cls-1" d="M79.73,126.81l-37.19-37.19c-.59-.59-1.62-.59-2.21,0l-21.38,21.38c-2.83,2.83-2.83,7.43,0,10.26l42.71,42.71c1.37,1.37,3.19,2.12,5.13,2.12s3.76-.75,5.13-2.12l10.12-10.12c.33-.33.49-.79.45-1.25l-2.31-24.83c-.03-.36-.19-.7-.45-.96ZM21.16,113.2l3.65-3.65,11.97,11.97c1.66,1.66.64,3.67-2.46,8.59-.26.42-.53.85-.81,1.29l-12.36-12.36c-1.61-1.61-1.61-4.23,0-5.85ZM69.71,161.76c-.78.78-1.82,1.21-2.92,1.21s-2.14-.43-2.92-1.21l-28.08-28.08c.4-.65.8-1.29,1.18-1.89,3.01-4.77,5.6-8.88,2.02-12.46l-11.97-11.97,14.42-14.42,35.69,35.69,2.19,23.54-9.6,9.6Z"/>
  <path class="cls-1" d="M176.63,6.29l-5.83-5.83c-.35-.35-.84-.51-1.32-.44-17.57,2.48-32.32,15.04-36.44,18.84l-6.61-6.61c-2.33-2.34-6.13-2.34-8.47,0L51.41,78.8l-.37-.37c-2.56-2.56-5.97-3.97-9.6-3.97s-7.04,1.41-9.6,3.97l-22.72,22.72c-8.26,8.26-8.26,21.69,0,29.95l42.71,42.71c4.13,4.13,9.55,6.19,14.97,6.19s10.85-2.06,14.97-6.19l12.43-12.43c1.8-1.8,2.7-4.28,2.46-6.82l-2.85-30.59c-.13-1.45-.64-2.84-1.46-4.03l20.63-20.63c.32-.32.49-.77.45-1.23l-.96-12.3,39.52-39.52c1.13-1.13,1.75-2.63,1.75-4.24s-.62-3.11-1.75-4.23l-2.33-2.33,26.98-26.98c.61-.61.61-1.6,0-2.21ZM91.99,159.17l-12.43,12.43c-7.04,7.04-18.49,7.04-25.53,0l-42.71-42.71c-7.04-7.04-7.04-18.49,0-25.53l22.72-22.72c1.97-1.97,4.6-3.06,7.4-3.06s5.43,1.09,7.4,3.06l40.31,40.31c.89.89,1.44,2.07,1.56,3.32l2.85,30.59c.15,1.6-.42,3.18-1.56,4.32ZM150.61,42.04c0,.77-.3,1.49-.83,2.03l-40.03,40.03c-.32.32-.49.77-.45,1.23l.96,12.3-20.01,20.02-36.63-36.63L120.16,14.46c1.12-1.12,2.94-1.12,4.06,0l25.55,25.55c.54.54.83,1.26.83,2.03ZM147.44,33.27l-12.19-12.19c3.98-3.61,17.86-15.29,33.89-17.85l4.17,4.17-25.87,25.87Z"/>
  <path class="cls-1" d="M107.37,44.25c-.61-.61-1.6-.61-2.21,0s-.61,1.6,0,2.21l13.43,13.43c.3.3.7.46,1.1.46s.8-.15,1.1-.46c.61-.61.61-1.6,0-2.21l-13.43-13.43Z"/>
  <path class="cls-1" d="M99.32,52.3c-.61-.61-1.6-.61-2.21,0-.61.61-.61,1.6,0,2.21l13.43,13.43c.3.3.7.46,1.1.46s.8-.15,1.1-.46c.61-.61.61-1.6,0-2.21l-13.43-13.43Z"/>
  <path class="cls-1" d="M91.27,60.35c-.61-.61-1.6-.61-2.21,0s-.61,1.6,0,2.21l13.43,13.43c.3.3.7.46,1.1.46s.8-.15,1.1-.46c.61-.61.61-1.6,0-2.21l-13.43-13.43Z"/>
</svg>