<?xml version="1.0" encoding="UTF-8"?>
<svg id="Robotics_Machinery" data-name="Robotics &amp;amp; Machinery" xmlns="http://www.w3.org/2000/svg" viewBox="0 0 180 180">
  <defs>
    <style>
      .cls-1 {
        stroke: #000;
        stroke-miterlimit: 10;
        stroke-width: 2px;
      }
    </style>
  </defs>
  <path class="cls-1" d="M168.66,0H11.34C5.09,0,0,5.09,0,11.34v117.89c0,6.25,5.09,11.34,11.34,11.34h157.33c6.25,0,11.34-5.09,11.34-11.34V11.34C180,5.09,174.91,0,168.66,0ZM175.84,129.22c0,3.95-3.22,7.17-7.17,7.17H11.34c-3.95,0-7.17-3.22-7.17-7.17V11.34c0-3.95,3.22-7.17,7.17-7.17h157.33c3.95,0,7.17,3.22,7.17,7.17v117.89Z"/>
  <path class="cls-1" d="M161.26,16.66H18.74c-1.15,0-2.08.93-2.08,2.08v103.08c0,1.15.93,2.08,2.08,2.08h142.52c1.15,0,2.08-.93,2.08-2.08V18.74c0-1.15-.93-2.08-2.08-2.08ZM159.18,119.74H20.82V20.82h138.35v98.92Z"/>
  <path class="cls-1" d="M35.4,105.39h109.2c1.15,0,2.08-.93,2.08-2.08s-.93-2.08-2.08-2.08H35.4c-1.15,0-2.08.93-2.08,2.08s.93,2.08,2.08,2.08Z"/>
  <path class="cls-1" d="M35.4,83.37h9.43c1.15,0,2.08-.93,2.08-2.08s-.93-2.08-2.08-2.08h-9.43c-1.15,0-2.08.93-2.08,2.08s.93,2.08,2.08,2.08Z"/>
  <path class="cls-1" d="M35.4,61.35h9.43c1.15,0,2.08-.93,2.08-2.08s-.93-2.08-2.08-2.08h-9.43c-1.15,0-2.08.93-2.08,2.08s.93,2.08,2.08,2.08Z"/>
  <path class="cls-1" d="M35.4,39.33h9.43c1.15,0,2.08-.93,2.08-2.08s-.93-2.08-2.08-2.08h-9.43c-1.15,0-2.08.93-2.08,2.08s.93,2.08,2.08,2.08Z"/>
  <path class="cls-1" d="M62.61,83.37h23.14c.6,0,1.17-.26,1.56-.7l18.81-21.32h19.83c.75,1.37,2.18,2.31,3.85,2.31,2.42,0,4.4-1.97,4.4-4.4s-1.97-4.4-4.4-4.4c-1.67,0-3.1.94-3.85,2.31h-20.77c-.6,0-1.17.26-1.56.7l-18.81,21.32h-22.2c-1.15,0-2.08.93-2.08,2.08s.93,2.08,2.08,2.08Z"/>
  <path class="cls-1" d="M44.93,155.69H14.74c-1.15,0-2.08.93-2.08,2.08v20.15c0,1.15.93,2.08,2.08,2.08h30.19c1.15,0,2.08-.93,2.08-2.08v-20.15c0-1.15-.93-2.08-2.08-2.08ZM42.85,175.84h-26.03v-15.99h26.03v15.99Z"/>
  <path class="cls-1" d="M165.26,155.69h-30.19c-1.15,0-2.08.93-2.08,2.08v20.15c0,1.15.93,2.08,2.08,2.08h30.19c1.15,0,2.08-.93,2.08-2.08v-20.15c0-1.15-.93-2.08-2.08-2.08ZM163.18,175.84h-26.03v-15.99h26.03v15.99Z"/>
  <path class="cls-1" d="M113,163.45c-2.42,0-4.4,1.97-4.4,4.4s1.97,4.4,4.4,4.4,4.4-1.97,4.4-4.4-1.97-4.4-4.4-4.4Z"/>
  <path class="cls-1" d="M90,163.45c-2.42,0-4.4,1.97-4.4,4.4s1.97,4.4,4.4,4.4,4.4-1.97,4.4-4.4-1.97-4.4-4.4-4.4Z"/>
  <path class="cls-1" d="M67,163.45c-2.42,0-4.4,1.97-4.4,4.4s1.97,4.4,4.4,4.4,4.4-1.97,4.4-4.4-1.97-4.4-4.4-4.4Z"/>
</svg>