<?xml version="1.0" encoding="UTF-8"?>
<svg id="Robotics_Machinery" data-name="Robotics &amp;amp; Machinery" xmlns="http://www.w3.org/2000/svg" viewBox="0 0 180 180">
  <defs>
    <style>
      .cls-1 {
        stroke: #000;
        stroke-miterlimit: 10;
        stroke-width: 2px;
      }
    </style>
  </defs>
  <path class="cls-1" d="M179.8,130.48l-21.25-36.8c-.27-.47-.78-.77-1.33-.77h-5.41v-29.62c-.02-4.57,3.61-8.3,7.45-12.24,3.87-3.97,7.88-8.08,7.88-13.32,0-8.42-6.62-13.87-16.86-13.87h-44.09c-.06,0-.13,0-.19.01l-46.47,5.74c-.77.09-1.34.75-1.34,1.52v18.91c0,.77.58,1.42,1.34,1.52l33.85,4.18c.45.06,11.03,1.59,11.28,12.54v24.63h-5.41c-.55,0-1.05.29-1.33.77l-5.82,10.08-8.18-4.72,3.08-5.34c2.3-3.98.93-9.08-3.05-11.38l-53.5-30.89c-1.92-1.11-4.16-1.4-6.32-.82-2.15.58-3.95,1.95-5.06,3.87L1.11,85.6c-2.3,3.98-.93,9.08,3.05,11.38l53.5,30.89c1.28.74,2.7,1.11,4.14,1.11.73,0,1.46-.1,2.18-.29,2.15-.58,3.95-1.95,5.06-3.87l3.08-5.34,8.18,4.72-3.62,6.28c-.13.23-.2.5-.2.77v23.36c0,.85.68,1.53,1.53,1.53h100.46c.85,0,1.53-.68,1.53-1.53v-23.36c0-.27-.07-.53-.2-.77ZM107.73,68.25c-.31-13.63-13.81-15.52-13.96-15.54l-32.52-4.02v-16.2l45.04-5.56h43.99c8.51,0,13.8,4.14,13.8,10.81,0,3.99-3.4,7.49-7.01,11.18-4.1,4.21-8.35,8.56-8.32,14.38v29.61h-41.03v-24.66ZM66.4,123.29c-1.45,2.52-4.68,3.38-7.2,1.93L5.69,94.33c-2.52-1.45-3.38-4.68-1.93-7.2l17.97-31.13c.7-1.21,1.84-2.08,3.2-2.45,1.37-.37,2.78-.18,4,.52l53.5,30.89c1.21.7,2.08,1.84,2.45,3.2.37,1.36.18,2.78-.52,4l-17.97,31.13ZM73.66,116.83l8.75-15.15,8.18,4.72-8.75,15.15-8.18-4.72ZM100.14,95.97h56.2l20.6,35.68v5.16h-97.4v-5.16l20.6-35.68ZM79.54,153.07v-13.19h97.4v13.19h-97.4Z"/>
  <path class="cls-1" d="M100.84,123.29h54.81c.85,0,1.53-.68,1.53-1.53s-.68-1.53-1.53-1.53h-54.81c-.85,0-1.53.68-1.53,1.53s.68,1.53,1.53,1.53Z"/>
  <path class="cls-1" d="M114.67,38.18c-.85,0-1.53.68-1.53,1.53v6.29c0,.85.68,1.53,1.53,1.53s1.53-.68,1.53-1.53v-6.29c0-.85-.68-1.53-1.53-1.53Z"/>
  <path class="cls-1" d="M128.24,38.18c-.85,0-1.53.68-1.53,1.53v6.29c0,.85.68,1.53,1.53,1.53s1.53-.68,1.53-1.53v-6.29c0-.85-.68-1.53-1.53-1.53Z"/>
  <path class="cls-1" d="M141.81,38.18c-.85,0-1.53.68-1.53,1.53v6.29c0,.85.68,1.53,1.53,1.53s1.53-.68,1.53-1.53v-6.29c0-.85-.68-1.53-1.53-1.53Z"/>
</svg>