<?xml version="1.0" encoding="UTF-8"?>
<svg id="Robotics_Machinery" data-name="Robotics &amp;amp; Machinery" xmlns="http://www.w3.org/2000/svg" viewBox="0 0 180 180">
  <defs>
    <style>
      .cls-1 {
        stroke: #000;
        stroke-miterlimit: 10;
        stroke-width: 2px;
      }
    </style>
  </defs>
  <path class="cls-1" d="M169.64,139.48l-9.68-11.47V49.74c0-7.35-5.98-13.33-13.33-13.33h-13.9v-20.16c0-8.74-7.11-15.85-15.85-15.85h-53.76c-8.74,0-15.85,7.11-15.85,15.85v20.16h-13.9c-7.35,0-13.33,5.98-13.33,13.33v78.27l-9.68,11.47c-.27.32-.42.73-.42,1.16v18.41c0,.99.8,1.8,1.8,1.8h6.16c-.35,1.27-.56,2.59-.56,3.97,0,8.16,6.64,14.8,14.8,14.8s14.8-6.64,14.8-14.8c0-1.38-.2-2.7-.56-3.97h8.35l6.56,11.37c.32.56.91.9,1.56.9h54.33c.64,0,1.23-.34,1.56-.9l6.56-11.37h8.35c-.35,1.27-.56,2.59-.56,3.97,0,8.16,6.64,14.8,14.8,14.8s14.8-6.64,14.8-14.8c0-1.38-.2-2.7-.56-3.97h6.16c.99,0,1.8-.8,1.8-1.8v-18.41c0-.42-.15-.83-.42-1.16ZM50.86,16.24c0-6.76,5.5-12.26,12.26-12.26h53.76c6.76,0,12.26,5.5,12.26,12.26v20.16h-10.46v-20.16c0-.99-.8-1.8-1.8-1.8h-53.76c-.99,0-1.8.8-1.8,1.8v20.16h-10.46v-20.16ZM115.08,36.41h-50.16v-18.37h50.16v18.37ZM33.37,40h113.26c5.37,0,9.74,4.37,9.74,9.74v19.96h-25.43c-.99,0-1.8.8-1.8,1.8s.8,1.8,1.8,1.8h25.43v13.99h-25.43c-.99,0-1.8.8-1.8,1.8s.8,1.8,1.8,1.8h25.43v36H23.63v-36h25.43c.99,0,1.8-.8,1.8-1.8s-.8-1.8-1.8-1.8h-25.43v-13.99h25.43c.99,0,1.8-.8,1.8-1.8s-.8-1.8-1.8-1.8h-25.43v-19.96c0-5.37,4.37-9.74,9.74-9.74ZM43.33,164.81c0,6.18-5.03,11.2-11.2,11.2s-11.2-5.03-11.2-11.2c0-1.4.27-2.73.74-3.97h20.93c.47,1.23.74,2.57.74,3.97ZM159.08,164.81c0,6.18-5.03,11.2-11.2,11.2s-11.2-5.03-11.2-11.2c0-1.4.27-2.73.74-3.97h20.93c.47,1.23.74,2.57.74,3.97ZM166.47,157.25h-42.23c-.64,0-1.23.34-1.56.9l-6.56,11.37h-52.26l-6.56-11.37c-.32-.56-.91-.9-1.56-.9H13.53v-15.96l9.15-10.83h134.66l9.15,10.83v15.96Z"/>
  <path class="cls-1" d="M90,105.31c13.8,0,25.04-11.23,25.04-25.04s-11.23-25.04-25.04-25.04-25.04,11.23-25.04,25.04,11.23,25.04,25.04,25.04ZM90,58.84c11.82,0,21.44,9.62,21.44,21.44s-9.62,21.44-21.44,21.44-21.44-9.62-21.44-21.44,9.62-21.44,21.44-21.44Z"/>
</svg>