<?xml version="1.0" encoding="UTF-8"?>
<svg id="Robotics_Machinery" data-name="Robotics &amp;amp; Machinery" xmlns="http://www.w3.org/2000/svg" viewBox="0 0 180 180">
  <defs>
    <style>
      .cls-1 {
        stroke: #000;
        stroke-miterlimit: 10;
        stroke-width: 2px;
      }
    </style>
  </defs>
  <path class="cls-1" d="M179.44,33.98l-6.95-6.95c-.36-.36-.84-.56-1.34-.56h-20.9v-5.43c0-.52-.21-1.01-.58-1.37l-10.66-10.19c-.35-.34-.82-.53-1.31-.53h-15.49c-.06-4.53-3.75-8.19-8.29-8.19H18.31C8.04.76,0,15.94,0,35.32c0,9.41,1.92,18.18,5.39,24.68.09.16.18.34.28.54,1.42,2.79,4.75,9.33,14.4,9.33h4.27v52.31c0,4.59-3.74,8.33-8.33,8.33h-1.78c-5.69,0-10.32,4.63-10.32,10.32v28.08c0,5.69,4.63,10.32,10.32,10.32h63.93c5.69,0,10.32-4.63,10.32-10.32v-28.08c0-5.69-4.63-10.32-10.32-10.32h-8.52c-4.59,0-8.33-3.74-8.33-8.33v-22.16c.9-.22,1.79-.42,2.64-.61,6.68-1.51,12.44-2.82,12.44-8.97v-20.57h37.52c4.54,0,8.23-3.67,8.29-8.19h15.49c.49,0,.96-.19,1.31-.53l10.66-10.19c.37-.36.58-.85.58-1.37v-5.43h20.9c.5,0,.98-.2,1.34-.56l6.95-6.95c.36-.36.56-.84.56-1.34s-.2-.98-.56-1.34ZM84.7,140.83v12.15h-50.3c-1.05,0-1.9.85-1.9,1.9s.85,1.9,1.9,1.9h50.3v12.15c0,3.6-2.93,6.53-6.53,6.53H14.24c-3.6,0-6.53-2.93-6.53-6.53v-28.08c0-3.6,2.93-6.53,6.53-6.53h63.93c3.6,0,6.53,2.93,6.53,6.53ZM24.8,130.51c2.06-2.17,3.34-5.1,3.34-8.33v-52.31h29.4v52.31c0,3.23,1.28,6.16,3.34,8.33H24.8ZM72.61,90.44c0,2.85-2.6,3.71-9.49,5.27-.58.13-1.19.27-1.8.41v-26.25h11.29v20.57ZM118.42,61.58c0,2.48-2.02,4.5-4.5,4.5H20.08c-7.33,0-9.73-4.72-11.03-7.26-.11-.22-.22-.43-.32-.61-3.14-5.88-4.94-14.23-4.94-22.9,0-16.68,6.65-30.77,14.52-30.77h71.01v45.88c0,1.05.85,1.9,1.9,1.9s1.9-.85,1.9-1.9V4.55h20.81c2.48,0,4.5,2.02,4.5,4.5v52.52ZM146.47,48.79l-9.52,9.11h-14.73V12.74h14.73l9.52,9.11v26.93ZM170.37,40.37h-20.11v-10.11h20.11l5.06,5.05-5.06,5.05Z"/>
  <path class="cls-1" d="M57.19,24.81h-31.95c-1.05,0-1.9.85-1.9,1.9s.85,1.9,1.9,1.9h31.95c1.05,0,1.9-.85,1.9-1.9s-.85-1.9-1.9-1.9Z"/>
  <path class="cls-1" d="M57.19,42.04h-31.95c-1.05,0-1.9.85-1.9,1.9s.85,1.9,1.9,1.9h31.95c1.05,0,1.9-.85,1.9-1.9s-.85-1.9-1.9-1.9Z"/>
</svg>