<?xml version="1.0" encoding="UTF-8"?>
<svg id="Robotics_Machinery" data-name="Robotics &amp;amp; Machinery" xmlns="http://www.w3.org/2000/svg" viewBox="0 0 180 180">
  <defs>
    <style>
      .cls-1 {
        stroke: #000;
        stroke-miterlimit: 10;
        stroke-width: 2px;
      }
    </style>
  </defs>
  <path class="cls-1" d="M22.06,111.45c-1.12,0-2.03.91-2.03,2.03v11.65c0,1.12.91,2.03,2.03,2.03s2.03-.91,2.03-2.03v-11.65c0-1.12-.91-2.03-2.03-2.03Z"/>
  <path class="cls-1" d="M38.54,125.13v-11.65c0-1.12-.91-2.03-2.03-2.03s-2.03.91-2.03,2.03v11.65c0,1.12.91,2.03,2.03,2.03s2.03-.91,2.03-2.03Z"/>
  <path class="cls-1" d="M175.74,161.5h-53.24v-14.89h18.11c15.82,0,28.69-12.87,28.69-28.69s-12.87-28.69-28.69-28.69c-.64,0-1.27.03-1.9.07l-35.21-43.73h20.48l6.22,5.78c.38.35.87.54,1.38.54h9.71c1.12,0,2.03-.91,2.03-2.03v-7.11l20.57-7.2c.81-.29,1.36-1.05,1.36-1.92v-5.65h10.49c1.12,0,2.03-.91,2.03-2.03s-.91-2.03-2.03-2.03h-10.49v-5.65c0-.86-.55-1.63-1.36-1.92l-20.57-7.2V2.03c0-1.12-.91-2.03-2.03-2.03h-9.71c-.51,0-1.01.19-1.38.54l-6.22,5.78h-57.43c-10.52,0-19.12,8.32-19.6,18.72-13.89,12.92-7.18,25.66-1.25,36.91,5.75,10.9,10.71,20.33-.33,30.05H4.26c-1.12,0-2.03.91-2.03,2.03v50.54c0,1.12.91,2.03,2.03,2.03h30.22v14.89H4.26c-1.12,0-2.03.91-2.03,2.03v14.44c0,1.12.91,2.03,2.03,2.03h171.48c1.12,0,2.03-.91,2.03-2.03v-14.44c0-1.12-.91-2.03-2.03-2.03ZM165.24,117.92c0,13.58-11.05,24.63-24.63,24.63s-24.63-11.05-24.63-24.63,11.05-24.63,24.63-24.63,24.63,11.05,24.63,24.63ZM134.05,89.99c-8.54,2-15.62,7.82-19.33,15.56l-48.3-59.99s.09,0,.14,0h31.73l35.77,44.43ZM161.19,19.7v12.48l-17.87,6.26V13.44l17.87,6.26ZM66.55,10.38h58.22c.51,0,1.01-.19,1.38-.54l6.22-5.78h6.89v43.76h-6.89l-6.22-5.78c-.38-.35-.87-.54-1.38-.54h-58.22c-8.58,0-15.56-6.98-15.56-15.56s6.98-15.56,15.56-15.56ZM49.3,60.05c-5.57-10.56-10.44-19.8-1.86-29.7,1.54,6.69,6.52,12.09,12.97,14.22l52.64,65.38c-.1.33-.19.67-.27,1h-47.42l-16.29-16.82c12.11-11.55,5.82-23.49.24-34.08ZM6.29,96.06h38.99l17.75,18.34c.38.39.91.62,1.46.62h47.57c-.1.95-.15,1.92-.15,2.9,0,10.45,5.62,19.61,14,24.63H6.29v-46.48ZM38.54,146.61h79.9v14.89H38.54v-14.89ZM173.71,175.94H6.29v-10.38h167.42v10.38Z"/>
  <path class="cls-1" d="M140.61,130.05c6.69,0,12.13-5.44,12.13-12.13s-5.44-12.13-12.13-12.13-12.13,5.44-12.13,12.13,5.44,12.13,12.13,12.13ZM140.61,109.84c4.45,0,8.07,3.62,8.07,8.07s-3.62,8.07-8.07,8.07-8.07-3.62-8.07-8.07,3.62-8.07,8.07-8.07Z"/>
  <path class="cls-1" d="M66.55,30.23c2.36,0,4.29-1.92,4.29-4.29s-1.92-4.29-4.29-4.29-4.29,1.92-4.29,4.29,1.92,4.29,4.29,4.29Z"/>
</svg>