<?xml version="1.0" encoding="UTF-8"?>
<svg id="Robotics_Machinery" data-name="Robotics &amp;amp; Machinery" xmlns="http://www.w3.org/2000/svg" viewBox="0 0 180 180">
  <defs>
    <style>
      .cls-1 {
        stroke: #000;
        stroke-miterlimit: 10;
        stroke-width: 2px;
      }
    </style>
  </defs>
  <path class="cls-1" d="M67.56,110.72c0,7.95,6.47,14.42,14.42,14.42s14.42-6.47,14.42-14.42-6.47-14.42-14.42-14.42-14.42,6.47-14.42,14.42ZM92.23,110.72c0,5.65-4.6,10.25-10.25,10.25s-10.25-4.6-10.25-10.25,4.6-10.25,10.25-10.25,10.25,4.6,10.25,10.25Z"/>
  <path class="cls-1" d="M24.99,14.68c-5.64,0-10.24,4.59-10.24,10.24s4.59,10.24,10.24,10.24,10.24-4.59,10.24-10.24-4.59-10.24-10.24-10.24ZM24.99,30.99c-3.35,0-6.07-2.72-6.07-6.07s2.72-6.07,6.07-6.07,6.07,2.72,6.07,6.07-2.72,6.07-6.07,6.07Z"/>
  <path class="cls-1" d="M159.88,28.68c2.42,0,4.4-1.97,4.4-4.4s-1.97-4.4-4.4-4.4-4.4,1.97-4.4,4.4,1.97,4.4,4.4,4.4Z"/>
  <path class="cls-1" d="M177.92,161.02h-44.75v-8.32c0-.86-.52-1.63-1.32-1.94l-26.44-10.38v-7.5c5.48-5.79,8.85-13.59,8.85-22.17,0-14.35-9.42-26.54-22.39-30.73l-23.71-35.59h70.8v5.91l-5.03,5.69c-.34.38-.52.87-.52,1.38v9.69c0,1.15.93,2.08,2.08,2.08h5.3l5.93,18.74c.27.87,1.08,1.45,1.99,1.45h2.75v7.02c0,1.15.93,2.08,2.08,2.08s2.08-.93,2.08-2.08v-7.02h2.75c.91,0,1.71-.59,1.99-1.45l5.93-18.74h5.3c1.15,0,2.08-.93,2.08-2.08v-9.69c0-.51-.19-1-.52-1.38l-5.03-5.69v-7.68c7-3.15,11.89-10.19,11.89-18.35,0-11.09-9.03-20.12-20.12-20.12H38.99c-8.16-5.39-19.1-5.71-27.74.04C-.25,11.87-3.37,27.46,4.29,38.96l45.58,68.41c-.11,1.1-.17,2.22-.17,3.35,0,2.67.33,5.26.95,7.75H12.67c-1.15,0-2.08.93-2.08,2.08v40.47H2.08c-1.15,0-2.08.93-2.08,2.08v14.81c0,1.15.93,2.08,2.08,2.08h175.84c1.15,0,2.08-.93,2.08-2.08v-14.81c0-1.15-.93-2.08-2.08-2.08ZM110.1,110.72c0,15.5-12.61,28.12-28.12,28.12s-28.12-12.61-28.12-28.12,12.61-28.12,28.12-28.12,28.12,12.61,28.12,28.12ZM156.84,85.19h-6.61l-5.07-16.03h16.75l-5.07,16.03ZM164.47,52.49l5.03,5.69v6.82h-31.93v-6.82l5.03-5.69c.34-.38.52-.87.52-1.38v-6.7h16.75c1.39,0,2.75-.14,4.07-.41v7.11c0,.51.19,1,.52,1.38ZM175.84,24.29c0,8.8-7.16,15.96-15.96,15.96h-94.5l-19.37-29.08c-.67-1.01-1.41-1.96-2.2-2.84h116.07c8.8,0,15.96,7.16,15.96,15.96ZM7.76,36.65C1.37,27.06,3.97,14.06,13.57,7.67c3.47-2.31,7.46-3.51,11.54-3.51,1.38,0,2.77.14,4.15.41,5.47,1.1,10.19,4.26,13.29,8.91l43.45,65.22c-1.32-.16-2.66-.26-4.02-.26-14.63,0-27.01,9.78-30.96,23.15L7.76,36.65ZM14.75,122.64h37.23c4.75,11.92,16.4,20.37,29.99,20.37,7.22,0,13.88-2.38,19.27-6.4v5.2c0,.86.52,1.63,1.32,1.94l26.44,10.38v6.9H14.75v-38.39ZM175.84,175.83H4.16v-10.64h171.67v10.64Z"/>
  <path class="cls-1" d="M79.53,26.37h62.79c1.15,0,2.08-.93,2.08-2.08s-.93-2.08-2.08-2.08h-62.79c-1.15,0-2.08.93-2.08,2.08s.93,2.08,2.08,2.08Z"/>
  <path class="cls-1" d="M28.87,134.97c-1.15,0-2.08.93-2.08,2.08v11.94c0,1.15.93,2.08,2.08,2.08s2.08-.93,2.08-2.08v-11.94c0-1.15-.93-2.08-2.08-2.08Z"/>
  <path class="cls-1" d="M43.67,134.97c-1.15,0-2.08.93-2.08,2.08v11.94c0,1.15.93,2.08,2.08,2.08s2.08-.93,2.08-2.08v-11.94c0-1.15-.93-2.08-2.08-2.08Z"/>
</svg>