<?xml version="1.0" encoding="UTF-8"?>
<svg id="Robotics_Machinery" data-name="Robotics &amp;amp; Machinery" xmlns="http://www.w3.org/2000/svg" viewBox="0 0 180 180">
  <defs>
    <style>
      .cls-1 {
        stroke: #000;
        stroke-miterlimit: 10;
        stroke-width: 2px;
      }
    </style>
  </defs>
  <path class="cls-1" d="M175.32,156.45h-17.41l-10.65-17.34c-.35-.58-.98-.93-1.65-.93h-18.03c-1.07,0-1.94.87-1.94,1.94v3.02h-13.88l3.94-12.19h26.69c20.75,0,37.63-16.88,37.63-37.63s-16.88-37.63-37.63-37.63h-33.21v-6.02c8.52-4.1,14.41-12.82,14.41-22.89,0-14-11.39-25.39-25.39-25.39s-25.39,11.39-25.39,25.39c0,10.07,5.89,18.79,14.41,22.89v6.02H30.76c-.52,0-1.01.2-1.37.57L.57,85.09c-.76.76-.76,1.99,0,2.75.76.76,1.99.76,2.75,0l28.25-28.25h55.64v8.2h-51.44c-.52,0-1.01.2-1.37.57L.57,102.18c-.36.36-.57.86-.57,1.37v66.76c0,.79.47,1.49,1.2,1.79.24.1.49.15.74.15.51,0,1-.2,1.37-.57l52.81-52.81h20.65l7.84,24.27h-15.82c-1.07,0-1.94.87-1.94,1.94v26.6c0,1.07.87,1.94,1.94,1.94h56.84v3.02c0,1.07.87,1.94,1.94,1.94h18.03c.67,0,1.3-.35,1.65-.93l10.65-17.34h17.41c1.07,0,1.94-.87,1.94-1.94s-.87-1.94-1.94-1.94ZM142.37,59.58c18.61,0,33.75,15.14,33.75,33.75s-15.14,33.75-33.75,33.75h-25.43l2.65-8.2h22.78c14.09,0,25.55-11.46,25.55-25.55s-11.46-25.55-25.55-25.55h-33.21v-8.2h33.21ZM76.68,26.79c0-11.86,9.65-21.5,21.5-21.5s21.5,9.65,21.5,21.5-9.65,21.5-21.5,21.5-21.5-9.65-21.5-21.5ZM91.09,51.16c2.25.66,4.63,1.01,7.09,1.01s4.84-.36,7.09-1.01v16.62h-14.17v-16.62ZM55.32,114.99c-.52,0-1.01.2-1.37.57L3.88,165.62v-28.03l33.26-33.26c.76-.76.76-1.99,0-2.75-.76-.76-1.99-.76-2.75,0l-30.51,30.51v-27.74l32.69-32.69h105.79c11.94,0,21.66,9.72,21.66,21.66s-9.72,21.66-21.66,21.66H55.32ZM80.86,118.88h34.64l-7.84,24.27h-18.97l-7.84-24.27ZM70.74,169.75v-22.71h54.89v22.71h-54.89ZM144.51,174.71h-15v-32.64h15l10.03,16.32-10.03,16.32Z"/>
  <path class="cls-1" d="M99.56,28.16l9.26-9.26c.76-.76.76-1.99,0-2.75-.76-.76-1.99-.76-2.75,0l-9.26,9.26c-.76.76-.76,1.99,0,2.75.38.38.88.57,1.37.57s.99-.19,1.37-.57Z"/>
  <path class="cls-1" d="M142.2,107.01c7.54,0,13.68-6.14,13.68-13.68s-6.14-13.68-13.68-13.68-13.68,6.14-13.68,13.68,6.14,13.68,13.68,13.68ZM142.2,83.53c5.4,0,9.8,4.4,9.8,9.8s-4.4,9.8-9.8,9.8-9.8-4.4-9.8-9.8,4.4-9.8,9.8-9.8Z"/>
</svg>