<?xml version="1.0" encoding="UTF-8"?>
<svg id="Robotics_Machinery" data-name="Robotics &amp;amp; Machinery" xmlns="http://www.w3.org/2000/svg" viewBox="0 0 180 180">
  <defs>
    <style>
      .cls-1 {
        stroke: #000;
        stroke-miterlimit: 10;
        stroke-width: 2px;
      }
    </style>
  </defs>
  <path class="cls-1" d="M26.39,140.21c-7.05,0-12.79,5.74-12.79,12.79s5.74,12.79,12.79,12.79,12.78-5.74,12.78-12.79-5.74-12.79-12.78-12.79ZM26.39,161.85c-4.88,0-8.85-3.97-8.85-8.85s3.97-8.85,8.85-8.85,8.85,3.97,8.85,8.85-3.97,8.85-8.85,8.85Z"/>
  <path class="cls-1" d="M178.03,124.72h-14.86v-9.55c0-.69-.36-1.33-.95-1.69l-18.77-11.26c-.31-.18-.66-.28-1.01-.28h-12.89c-1.09,0-1.97.88-1.97,1.97v5.32h-20.65c-5.16,0-9.79,2.26-12.99,5.83l-27.78,9.08,14.6-36.84h23.48c1.09,0,1.97-.88,1.97-1.97v-22.36h9.64c10.59,0,19.2-8.61,19.2-19.2,0-6.85-2.89-10.49-5.44-13.7-2.41-3.03-4.48-5.65-4.48-10.88V2.58c0-1.09-.88-1.97-1.97-1.97s-1.97.88-1.97,1.97v16.6c0,6.6,2.84,10.17,5.34,13.32,2.46,3.1,4.58,5.77,4.58,11.25,0,8.42-6.85,15.27-15.27,15.27h-9.64v-20.67c0-1.09-.88-1.97-1.97-1.97h-15.15v-11.8h15.15c1.09,0,1.97-.88,1.97-1.97V2.58c0-1.09-.88-1.97-1.97-1.97s-1.97.88-1.97,1.97v18.08H4.31V2.58c0-1.09-.88-1.97-1.97-1.97S.38,1.5.38,2.58v20.04c0,1.09.88,1.97,1.97,1.97h15.15v12C7.62,37.98,0,46.47,0,56.72v96.28c0,14.55,11.84,26.39,26.39,26.39,11.35,0,21.4-7.22,25.01-17.98l.33-.83,51.52-16.84c1.19.26,2.42.4,3.69.4h20.65v5.32c0,1.09.88,1.97,1.97,1.97h12.89c.36,0,.71-.1,1.01-.28l18.77-11.26c.59-.36.95-1,.95-1.69v-9.55h14.86c1.09,0,1.97-.88,1.97-1.97s-.88-1.97-1.97-1.97ZM85.17,24.59v11.8H21.43v-11.8h63.74ZM47.69,160.11c-3.06,9.18-11.62,15.34-21.3,15.34-12.38,0-22.46-10.07-22.46-22.45V56.72c0-9.04,7.35-16.39,16.39-16.39h81.96v43.03h-22.85c-.81,0-1.53.49-1.83,1.24l-29.88,75.4s-.03.07-.04.1ZM53.61,155.83l10.68-26.94,26.43-8.64c-.79,1.99-1.24,4.16-1.24,6.44,0,6.21,3.27,11.66,8.16,14.75l-44.03,14.39ZM106.94,140.21c-7.46,0-13.53-6.07-13.53-13.53s6.07-13.53,13.53-13.53h20.65v27.05h-20.65ZM159.24,137.09l-17.35,10.41h-10.37v-41.63h10.37l17.35,10.41v20.81Z"/>
  <path class="cls-1" d="M106.91,122.53c-2.29,0-4.15,1.86-4.15,4.15s1.86,4.15,4.15,4.15,4.15-1.86,4.15-4.15-1.86-4.15-4.15-4.15Z"/>
  <path class="cls-1" d="M26.39,80.26c1.09,0,1.97-.88,1.97-1.97v-11.28c0-1.09-.88-1.97-1.97-1.97s-1.97.88-1.97,1.97v11.28c0,1.09.88,1.97,1.97,1.97Z"/>
  <path class="cls-1" d="M40.38,65.04c-1.09,0-1.97.88-1.97,1.97v11.28c0,1.09.88,1.97,1.97,1.97s1.97-.88,1.97-1.97v-11.28c0-1.09-.88-1.97-1.97-1.97Z"/>
  <path class="cls-1" d="M54.36,65.04c-1.09,0-1.97.88-1.97,1.97v11.28c0,1.09.88,1.97,1.97,1.97s1.97-.88,1.97-1.97v-11.28c0-1.09-.88-1.97-1.97-1.97Z"/>
</svg>