<?xml version="1.0" encoding="UTF-8"?>
<svg id="Robotics_Machinery" data-name="Robotics &amp;amp; Machinery" xmlns="http://www.w3.org/2000/svg" viewBox="0 0 180 180">
  <defs>
    <style>
      .cls-1 {
        stroke: #000;
        stroke-miterlimit: 10;
        stroke-width: 2px;
      }
    </style>
  </defs>
  <path class="cls-1" d="M179.25,33.44l-6.72-6.72c-.38-.38-.9-.6-1.44-.6s-1.06.22-1.44.6l-4.2,4.2-9.9-9.9c.35-1.35.56-2.77.56-4.23,0-9.26-7.53-16.79-16.79-16.79-4.42,0-8.44,1.73-11.44,4.53H22.04C9.97,4.53.15,14.36.15,26.43c0,10.04,6.8,18.52,16.03,21.09l14.28,13.49c7.77,7.34,6.26,15.54,4.66,24.21-1.92,10.43-4.09,22.21,11.52,31.77-2.38,4.8-3.1,10.24-2.07,15.47v28.95H2.19c-1.13,0-2.04.91-2.04,2.04v14.51c0,1.13.91,2.04,2.04,2.04h172.29c1.13,0,2.04-.91,2.04-2.04v-14.51c0-1.13-.91-2.04-2.04-2.04h-60.36v-22.91c1.59-.76,3-1.51,4.16-2.25,15.75-10.05,20.38-31.04,10.33-46.78-4.58-7.18-11.44-12.04-19.04-14.26L60.72,29.05h67.16c3,2.8,7.02,4.53,11.44,4.53,1.47,0,2.88-.21,4.24-.56l9.9,9.9-4.2,4.2c-.8.8-.8,2.09,0,2.89l6.72,6.72c.4.4.92.6,1.44.6s1.04-.2,1.44-.6c.8-.8.8-2.09,0-2.89l-5.28-5.28,17.52-17.51,5.28,5.28c.8.8,2.09.8,2.89,0,.8-.8.8-2.09,0-2.89ZM4.23,26.43c0-9.82,7.99-17.81,17.81-17.81h102.62c-1.36,2.42-2.14,5.21-2.14,8.18s.78,5.75,2.14,8.18H59.25c-.38,0-.75.11-1.07.3-.22.14-22.59,13.95-27.34,16.65-2.66,1.52-5.7,2.32-8.79,2.32-9.82,0-17.81-7.99-17.81-17.81ZM68.33,91.17L22.94,48.29c3.48-.14,6.89-1.1,9.91-2.82,1.11-.63,3.13-1.84,5.59-3.32l40.97,38.7c-3.29,2.54-7.16,6.24-11.08,10.32ZM39.13,85.96c.93-5.07,1.93-10.51.91-15.9l25.49,24.08c-5.32,5.73-14.57,16.7-14.57,16.7h0c-.81.84-1.54,1.74-2.21,2.66-13.2-8.07-11.54-17.12-9.62-27.54ZM172.44,175.92H4.23v-10.43h168.21v10.43ZM110.04,161.41h-61.39v-19.45c4.67,6.58,12.12,10.3,19.85,10.3,2.65,0,5.33-.44,7.94-1.34.07-.02.29-.08.63-.17,8.86-2.34,22.95-6.33,32.97-10.45v21.11ZM125.18,91.66c8.84,13.85,4.76,32.31-9.09,41.15-5.8,3.7-20.4,8.81-40.06,14-.51.14-.8.22-.84.23-8.92,3.09-18.71-.32-23.79-8.29-5.09-7.97-4.06-18.28,2.5-25.07.03-.03.22-.26.56-.66,12.99-15.64,23.77-26.73,29.57-30.44,13.85-8.84,32.31-4.76,41.15,9.09ZM82.87,78.51l-40.81-38.55c5.13-3.13,11.03-6.75,14.71-9.02l45.49,42.97c-6.58-.44-13.33,1.04-19.38,4.61ZM126.6,16.79c0-7.01,5.7-12.71,12.71-12.71s12.71,5.7,12.71,12.71-5.7,12.71-12.71,12.71-12.71-5.7-12.71-12.71ZM153.87,25.12l8.69,8.69-6.23,6.23-8.69-8.69c2.59-1.49,4.74-3.64,6.23-6.23Z"/>
  <circle class="cls-1" cx="22.04" cy="26.43" r="4.31"/>
  <path class="cls-1" d="M83.5,107.57c0,9.26,7.53,16.79,16.79,16.79s16.79-7.53,16.79-16.79-7.53-16.79-16.79-16.79-16.79,7.53-16.79,16.79ZM100.29,94.86c7.01,0,12.71,5.7,12.71,12.71s-5.7,12.71-12.71,12.71-12.71-5.7-12.71-12.71,5.7-12.71,12.71-12.71Z"/>
</svg>