<?xml version="1.0" encoding="UTF-8"?>
<svg id="Robotics_Machinery" data-name="Robotics &amp;amp; Machinery" xmlns="http://www.w3.org/2000/svg" viewBox="0 0 180 180">
  <defs>
    <style>
      .cls-1 {
        stroke: #000;
        stroke-miterlimit: 10;
        stroke-width: 2px;
      }
    </style>
  </defs>
  <path class="cls-1" d="M143.96,112.88c-.12-.58-.51-1.06-1.04-1.31l-14.36-6.72,2.33-1.89c.44-.36.7-.9.7-1.47v-7.26h6.44c10.43,0,18.91-8.48,18.91-18.91,0-6.91-3.91-10.52-7.36-13.7-3.23-2.98-6.01-5.55-6.01-10.56v-28.05h11.12c1.04,0,1.89-.85,1.89-1.89V1.89c0-1.04-.85-1.89-1.89-1.89s-1.89.85-1.89,1.89v17.35H27.2V1.89c0-1.04-.85-1.89-1.89-1.89s-1.89.85-1.89,1.89v19.24c0,1.04.85,1.89,1.89,1.89h11.12v28.05c0,5.02-2.79,7.59-6.01,10.56-3.45,3.18-7.36,6.79-7.36,13.7,0,10.43,8.48,18.91,18.91,18.91h6.44v7.26c0,.57.26,1.11.7,1.47l2.33,1.89-14.36,6.72c-.53.25-.92.73-1.04,1.31l-12.69,58.4c-.15.67.08,1.36.59,1.81l7.22,6.43c.36.32.81.48,1.26.48.52,0,1.04-.21,1.41-.63l14.1-15.82c.26-.29.42-.65.47-1.03l1.46-12.17,24.24-27.2,2.54,2.05c.34.27.75.42,1.19.42h24.37c.43,0,.85-.15,1.19-.42l2.54-2.05,24.24,27.2,1.46,12.17c.05.38.21.74.47,1.03l14.1,15.82c.37.42.89.63,1.41.63.45,0,.9-.16,1.26-.48l7.22-6.43c.51-.45.73-1.14.59-1.81l-12.69-58.4ZM147.02,64.4c3.3,3.04,6.15,5.67,6.15,10.93,0,8.34-6.79,15.13-15.13,15.13h-6.44v-6.63c0-1.04-.85-1.89-1.89-1.89h-9.4c1.28-1.65,2.05-3.71,2.05-5.95,0-3.22-1.58-6.07-3.99-7.84,2.41-1.77,3.99-4.62,3.99-7.84s-1.58-6.07-3.99-7.84c2.41-1.77,3.99-4.62,3.99-7.84s-1.58-6.07-3.99-7.84c2.41-1.77,3.99-4.62,3.99-7.84,0-2.24-.77-4.3-2.05-5.95h19.49v28.05c0,6.67,3.84,10.21,7.23,13.34ZM61.43,76c0-3.28,2.67-5.95,5.95-5.95h45.24c3.28,0,5.95,2.67,5.95,5.95s-2.67,5.95-5.95,5.95h-45.24c-3.28,0-5.95-2.67-5.95-5.95ZM61.43,60.32c0-3.28,2.67-5.95,5.95-5.95h45.24c3.28,0,5.95,2.67,5.95,5.95s-2.67,5.95-5.95,5.95h-45.24c-3.28,0-5.95-2.67-5.95-5.95ZM61.43,44.64c0-3.28,2.67-5.95,5.95-5.95h45.24c3.28,0,5.95,2.67,5.95,5.95s-2.67,5.95-5.95,5.95h-45.24c-3.28,0-5.95-2.67-5.95-5.95ZM112.62,23.02c3.28,0,5.95,2.67,5.95,5.95s-2.67,5.95-5.95,5.95h-45.24c-3.28,0-5.95-2.67-5.95-5.95s2.67-5.95,5.95-5.95h45.24ZM41.97,90.46c-8.34,0-15.13-6.79-15.13-15.13,0-5.26,2.85-7.89,6.15-10.93,3.39-3.13,7.23-6.67,7.23-13.34v-28.05h19.49c-1.28,1.65-2.05,3.71-2.05,5.95,0,3.22,1.58,6.07,3.99,7.84-2.41,1.77-3.99,4.62-3.99,7.84s1.58,6.07,3.99,7.84c-2.41,1.77-3.99,4.62-3.99,7.84s1.58,6.07,3.99,7.84c-2.41,1.77-3.99,4.62-3.99,7.84,0,2.24.77,4.3,2.05,5.95h-9.4c-1.04,0-1.89.85-1.89,1.89v6.63h-6.44ZM46.64,148.28c-.26.29-.42.65-.47,1.03l-1.46,12.16-12.45,13.97-4.99-4.44,12.25-56.41,15.18-7.1,16.43,13.28-24.51,27.51ZM101.52,121.85h-23.04l-26.29-21.25v-14.87h75.62v14.87l-26.29,21.25ZM147.73,175.45l-12.45-13.97-1.46-12.16c-.05-.38-.21-.74-.47-1.03l-24.51-27.51,16.43-13.28,15.18,7.1,12.25,56.41-4.99,4.44Z"/>
  <path class="cls-1" d="M74.79,97.26c-2.2,0-3.99,1.79-3.99,3.99s1.79,3.99,3.99,3.99,3.99-1.79,3.99-3.99-1.79-3.99-3.99-3.99Z"/>
  <path class="cls-1" d="M105.21,97.26c-2.2,0-3.99,1.79-3.99,3.99s1.79,3.99,3.99,3.99,3.99-1.79,3.99-3.99-1.79-3.99-3.99-3.99Z"/>
</svg>