<?xml version="1.0" encoding="UTF-8"?>
<svg id="Robotics_Machinery" data-name="Robotics &amp;amp; Machinery" xmlns="http://www.w3.org/2000/svg" viewBox="0 0 180 180">
  <defs>
    <style>
      .cls-1 {
        stroke: #000;
        stroke-miterlimit: 10;
        stroke-width: 2px;
      }
    </style>
  </defs>
  <path class="cls-1" d="M164.88,94.19c1.12,0,2.03-.91,2.03-2.03v-9.09h3.43c.99,0,1.84-.72,2.01-1.7l5.44-33.12s.06-.37.06-.45v-25.11c0-1.12-.91-2.03-2.03-2.03h-9.85V6.03c0-1.12-.91-2.03-2.03-2.03h-58.86l-.86-2.6c-.27-.83-1.05-1.4-1.93-1.4h-10.93c-.88,0-1.66.56-1.93,1.4l-.86,2.6h-10.26c-.16,0-.32,0-.43,0-12.33.14-23.66,5.86-31.09,15.69L12.66,64.89c-5.49,7.06-8.45,15.91-8.31,24.91.03,1.7.16,3.41.41,5.1,1.21,8.25,5.41,14.94,9.47,21.4l16.45,26.21h-14.44c-1.12,0-2.03.91-2.03,2.03v16.94H4.19c-1.12,0-2.03.91-2.03,2.03v14.45c0,1.12.91,2.03,2.03,2.03h171.62c1.12,0,2.03-.91,2.03-2.03v-14.45c0-1.12-.91-2.03-2.03-2.03h-44.18v-16.94c0-1.12-.91-2.03-2.03-2.03h-20.58l-32.61-51.95,27.75-36.75h40.2c1.12,0,2.03-.91,2.03-2.03v-1.96h5.82l5.18,31.54c.16.98,1.01,1.7,2.01,1.7h3.43v9.09c0,1.12.91,2.03,2.03,2.03ZM161.89,8.07v12.57h-15.49v-1.96c0-1.12-.91-2.03-2.03-2.03h-35.15l-2.82-8.58h55.49ZM92.82,4.06h7.99l4.13,12.58h-16.25l4.13-12.58ZM17.67,114.14c-4.02-6.39-7.81-12.42-8.89-19.83-.22-1.52-.35-3.05-.37-4.58-.12-8.08,2.53-16.02,7.47-22.38L50.02,22.15c6.66-8.82,16.82-13.95,27.93-14.08.11,0,.23,0,.35,0h8.93l-2.82,8.58h-6.11s-.1,0-.15,0c-8.45.05-16.2,3.94-21.28,10.67l-34.47,45.65s0,0,0,0c-6.51,8.64-7.4,20.76-1.32,30.45l24.53,39.08h-10.13l-17.81-28.38ZM43.83,96.98c-4.32,0-7.83-3.51-7.83-7.83s3.51-7.83,7.83-7.83,7.83,3.51,7.83,7.83-3.51,7.83-7.83,7.83ZM173.78,175.94H6.22v-10.39h167.56v10.39ZM127.57,161.48H18.28v-14.9h109.29v14.9ZM79.57,142.28l-27.8-44.29c2.42-2.18,3.95-5.32,3.95-8.83,0-6.56-5.33-11.89-11.89-11.89s-11.89,5.33-11.89,11.89,5.33,11.89,11.89,11.89c1.59,0,3.11-.32,4.51-.89l26.44,42.12h-24.51l-25.74-41.01c-6.68-10.64-3.46-24.74,7.19-31.41,10.64-6.68,24.74-3.46,31.42,7.19l40.94,65.24h-24.5ZM103.16,49.74c-.64,0-1.24.3-1.62.81l-27.43,36.33-7.53-12c-6.93-11.04-20.63-15.3-32.37-10.79l25.91-34.32c4.32-5.72,10.92-9.02,18.09-9.05.05,0,.1,0,.14,0h49.22v29.03h-24.41ZM142.34,49.74h-10.7v-29.03h10.7v29.03ZM146.4,24.7h27.38v21.05h-27.38v-21.05ZM156.35,49.82h17.06l-4.79,29.18h-7.48l-4.79-29.18Z"/>
</svg>