<?xml version="1.0" encoding="UTF-8"?>
<svg id="Robotics_Machinery" data-name="Robotics &amp;amp; Machinery" xmlns="http://www.w3.org/2000/svg" viewBox="0 0 180 180">
  <defs>
    <style>
      .cls-1 {
        stroke: #000;
        stroke-miterlimit: 10;
        stroke-width: 2px;
      }
    </style>
  </defs>
  <path class="cls-1" d="M108.27,139.31c7.49,0,13.58-6.09,13.58-13.58s-6.09-13.58-13.58-13.58-13.59,6.09-13.59,13.58,6.09,13.58,13.59,13.58ZM108.27,115.92c5.41,0,9.81,4.4,9.81,9.81s-4.4,9.81-9.81,9.81-9.81-4.4-9.81-9.81,4.4-9.81,9.81-9.81Z"/>
  <path class="cls-1" d="M178.02,39.79c0-11.41-9.28-20.69-20.69-20.69-2.92,0-5.81.64-8.47,1.84l-5.72-15.66c-.27-.74-.98-1.24-1.77-1.24h-10c-1.04,0-1.89.85-1.89,1.89v7.69h-44.14c-7.58,0-11.52-3.08-15.68-6.34-4.57-3.58-9.3-7.28-18.52-7.28-10.24,0-19.1,5.99-23.29,14.64-.23,0-.46-.02-.7-.02C13.27,14.62,1.98,25.91,1.98,39.79s11.22,25.09,25.03,25.17l.85.9,14.27,54.36h-11.46l-10.9-11.21c-.36-.37-.84-.57-1.35-.57H3.87c-1.04,0-1.89.85-1.89,1.89v38.78c0,1.04.85,1.89,1.89,1.89h25.91v10.73h-12.02c-1.04,0-1.89.85-1.89,1.89v14.51c0,1.04.85,1.89,1.89,1.89h85.1c1.04,0,1.89-.85,1.89-1.89v-14.51c0-1.04-.85-1.89-1.89-1.89h-12.02v-10.73h.32c4.89,3.32,10.78,5.27,17.12,5.27,16.83,0,30.53-13.69,30.53-30.53s-13.69-30.53-30.53-30.53c-1.56,0-3.09.12-4.59.35l-51.39-54.44c.02-.43.03-.87.03-1.31,0-3.09-.56-6.05-1.59-8.79h78.74v17.59h-53.49c-1.04,0-1.89.85-1.89,1.89s.85,1.89,1.89,1.89h53.49v3.62c0,1.04.85,1.89,1.89,1.89h14.76l5.73,17.57c.25.78.98,1.3,1.8,1.3h7.36c.82,0,1.54-.53,1.8-1.3l6.02-18.46c5.54-3.72,9.19-10.03,9.19-17.19ZM133.25,7.82h6.79l5.08,13.89h-11.87V7.82ZM5.75,39.79c0-11.8,9.6-21.4,21.4-21.4s21.4,9.6,21.4,21.4-9.6,21.4-21.4,21.4S5.75,51.59,5.75,39.79ZM78.25,120.22h-32.22l-12.77-48.63,45.14,47.82c-.06.27-.1.54-.15.81ZM5.75,112.21h11.86l10.9,11.21c.36.37.84.57,1.35.57h47.93c-.03.57-.05,1.15-.05,1.73,0,8.37,3.39,15.96,8.86,21.48H5.75v-35ZM100.97,176.22H19.64v-10.73h81.33v10.73ZM87.05,161.72h-53.5v-10.73h53.5v10.73ZM135.03,125.73c0,14.75-12,26.75-26.75,26.75s-26.75-12-26.75-26.75,12-26.75,26.75-26.75,26.75,12,26.75,26.75ZM99.41,96.52c-9.15,2.78-16.49,9.75-19.79,18.67l-47.83-50.67c9.69-1.81,17.43-9.19,19.79-18.67l47.83,50.67ZM48.94,27.22c-3.6-6.22-9.78-10.76-17.06-12.15,3.79-6.73,10.99-11.3,19.26-11.3s11.94,3.15,16.2,6.48c4.48,3.51,9.12,7.14,18.01,7.14h44.14v9.83H48.94ZM133.25,25.49h14.57c.34,0,.67-.09.96-.26,2.6-1.53,5.56-2.34,8.56-2.34,9.32,0,16.91,7.59,16.91,16.91s-7.59,16.91-16.91,16.91c-2.99,0-5.95-.81-8.56-2.34-.29-.17-.62-.26-.96-.26h-14.57v-28.61ZM159.65,72.97h-4.62l-4.45-13.65c2.17.76,4.46,1.16,6.76,1.16s4.64-.4,6.76-1.14l-4.44,13.63Z"/>
  <path class="cls-1" d="M157.34,43.95c2.29,0,4.15-1.86,4.15-4.15s-1.86-4.15-4.15-4.15-4.15,1.86-4.15,4.15,1.86,4.15,4.15,4.15Z"/>
</svg>