<?xml version="1.0" encoding="UTF-8"?>
<svg id="Robotics_Machinery" data-name="Robotics &amp;amp; Machinery" xmlns="http://www.w3.org/2000/svg" viewBox="0 0 180 180">
  <defs>
    <style>
      .cls-1 {
        stroke: #000;
        stroke-miterlimit: 10;
        stroke-width: 2px;
      }
    </style>
  </defs>
  <path class="cls-1" d="M140.96,53.61h6.62l3.62,22.7c.15.96.98,1.67,1.96,1.67h8.5c.98,0,1.81-.71,1.96-1.67l3.62-22.7h6.62c1.1,0,1.99-.89,1.99-1.99v-26.29c0-1.1-.89-1.99-1.99-1.99h-14.54c-1.02-13.04-11.95-23.35-25.25-23.35-9.04,0-13.87,3.84-18.13,7.22-4.03,3.2-7.84,6.22-15.16,6.22h-39.08v-3.11c0-1.1-.89-1.99-1.99-1.99h-12.36c-1.1,0-1.99.89-1.99,1.99v13.02h-25.56c-8.61,0-15.62,7.01-15.62,15.62s7.01,15.62,15.62,15.62h3.83l48.17,73.98-33.35,33.35H6.16c-1.1,0-1.99.89-1.99,1.99v14.12c0,1.1.89,1.99,1.99,1.99h167.68c1.1,0,1.99-.89,1.99-1.99v-14.12c0-1.1-.89-1.99-1.99-1.99h-48.32l13.72-13.72c5.81-5.81,9.02-13.54,9.02-21.77s-3.2-15.95-9.02-21.77c-4.31-4.31-9.68-7.18-15.52-8.38l-31.74-48.75h47v4.1c0,1.1.89,1.99,1.99,1.99ZM159.95,74.01h-5.11l-3.25-20.4h11.61l-3.25,20.4ZM171.86,49.64h-28.91v-22.32h28.91v22.32ZM100.76,17.41c8.71,0,13.24-3.6,17.63-7.08,4.12-3.27,8.01-6.36,15.66-6.36,11.11,0,20.26,8.53,21.27,19.38h-14.36c-1.1,0-1.99.89-1.99,1.99v4.1h-58.78l-3.37-5.18c-.37-.56-.99-.9-1.66-.9h-13.48v-5.94h39.08ZM49.32,12.32h8.38v11.03h-8.38v-11.03ZM28.36,54.59h12.36l41.42,63.62-7.49,7.49L28.36,54.59ZM171.86,176.03H8.14v-10.15h163.71v10.15ZM144.28,126.42c0,7.16-2.79,13.9-7.85,18.96l-16.52,16.52H44.06l54.44-54.44c5.06-5.06,11.8-7.85,18.96-7.85s13.9,2.79,18.96,7.85c5.06,5.06,7.85,11.8,7.85,18.96ZM117.46,95.64c-8.22,0-15.95,3.2-21.77,9.02l-10.68,10.68-41.55-63.82c-.37-.56-.99-.9-1.66-.9h-22.01c-6.42,0-11.65-5.22-11.65-11.65s5.22-11.65,11.65-11.65h54.29l44.5,68.35c-.37-.01-.74-.03-1.11-.03ZM89.39,43.56l-6.61-10.15h56.19v10.15h-49.58Z"/>
  <path class="cls-1" d="M19.79,34.29c-2.31,0-4.19,1.88-4.19,4.19s1.88,4.19,4.19,4.19,4.19-1.88,4.19-4.19-1.88-4.19-4.19-4.19Z"/>
  <path class="cls-1" d="M107.74,116.7c-2.6,2.6-4.03,6.05-4.03,9.72s1.43,7.12,4.03,9.72c2.6,2.6,6.05,4.03,9.72,4.03s7.12-1.43,9.72-4.03c2.6-2.6,4.03-6.05,4.03-9.72s-1.43-7.12-4.03-9.72c-2.6-2.6-6.05-4.03-9.72-4.03s-7.12,1.43-9.72,4.03ZM127.24,126.42c0,2.61-1.02,5.07-2.86,6.91-1.85,1.85-4.3,2.86-6.91,2.86s-5.07-1.02-6.91-2.86c-1.85-1.85-2.86-4.3-2.86-6.91s1.02-5.07,2.86-6.91c1.85-1.85,4.3-2.86,6.91-2.86s5.07,1.02,6.91,2.86c1.85,1.85,2.86,4.3,2.86,6.91Z"/>
</svg>