<?xml version="1.0" encoding="UTF-8"?>
<svg id="Robotics_Machinery" data-name="Robotics &amp;amp; Machinery" xmlns="http://www.w3.org/2000/svg" viewBox="0 0 180 180">
  <defs>
    <style>
      .cls-1 {
        stroke: #000;
        stroke-miterlimit: 10;
        stroke-width: 2px;
      }
    </style>
  </defs>
  <path class="cls-1" d="M176.24,95.63h-6.72v-25.23c0-5.07-4.13-9.2-9.2-9.2h-3.95v-25.1c0-11.18-3.17-19.72-9.41-25.38-8.91-8.08-20.85-7.33-22.17-7.21h-28.6l-.66-2c-.26-.8-1-1.33-1.84-1.33h-11.68c-.84,0-1.58.54-1.84,1.34l-.66,2H3.76c-1.07,0-1.94.87-1.94,1.94s.87,1.94,1.94,1.94h74.47l-3.47,10.56H3.76c-1.07,0-1.94.87-1.94,1.94v63.23c0,1.07.87,1.94,1.94,1.94h76.79v26.14c0,.51.2,1.01.57,1.37l23.16,23.16c.36.36.86.57,1.37.57h28.11l8.22,22.18c.28.76,1.01,1.27,1.82,1.27h8.68v18.18c0,1.07.87,1.94,1.94,1.94s1.94-.87,1.94-1.94v-18.18h8.68c.81,0,1.54-.5,1.82-1.27l8.22-22.18h1.14c1.07,0,1.94-.87,1.94-1.94v-36.78c0-1.07-.87-1.94-1.94-1.94ZM165.64,70.39v25.23h-22.43v-25.23c0-2.93,2.39-5.32,5.32-5.32h11.79c2.93,0,5.32,2.39,5.32,5.32ZM124.87,7.37c.06,0,.13,0,.19,0,.11-.01,11.3-1.02,19.29,6.22,5.4,4.9,8.14,12.47,8.14,22.51v25.1h-3.95c-5.08,0-9.2,4.13-9.2,9.2v25.23h-18.12v-17.46c8.03-6.14,13.23-15.81,13.23-26.68,0-18.49-15.03-33.53-33.51-33.56l-3.47-10.56h27.41ZM83.41,4.03h8.87l4.56,13.9h-17.99l4.56-13.9ZM5.7,21.81h95.18c16.36,0,29.68,13.31,29.68,29.68s-13.31,29.68-29.68,29.68H5.7V21.81ZM84.43,110.38v-25.33h16.45c5.97,0,11.58-1.58,16.45-4.32v16.84c0,1.07.87,1.94,1.94,1.94h55.03v14.5c-17.59-.03-53.74-.08-54.61.02-1.07.12-1.87,1.08-1.75,2.15.11.99.92,1.73,1.89,1.73.07,0,.14,0,.22-.01,1.46-.07,37.96-.03,54.26,0v14.51h-67.84l-22.02-22.02ZM163.7,155.85h-18.55l-7.25-19.56h33.06l-7.25,19.56Z"/>
  <path class="cls-1" d="M116.03,51.49c0-8.35-6.79-15.15-15.14-15.15s-15.15,6.79-15.15,15.15,6.79,15.15,15.15,15.15,15.14-6.79,15.14-15.15ZM89.62,51.49c0-6.21,5.05-11.26,11.27-11.26s11.26,5.05,11.26,11.26-5.05,11.26-11.26,11.26-11.27-5.05-11.27-11.26Z"/>
</svg>