<?xml version="1.0" encoding="UTF-8"?>
<svg id="Robotics_Machinery" data-name="Robotics &amp;amp; Machinery" xmlns="http://www.w3.org/2000/svg" viewBox="0 0 180 180">
  <defs>
    <style>
      .cls-1 {
        stroke: #000;
        stroke-miterlimit: 10;
        stroke-width: 2px;
      }
    </style>
  </defs>
  <path class="cls-1" d="M110.66,95.32c-10.65,0-19.32,8.67-19.32,19.32s8.67,19.32,19.32,19.32,19.32-8.67,19.32-19.32-8.67-19.32-19.32-19.32ZM110.66,130.66c-8.83,0-16.02-7.19-16.02-16.02s7.19-16.02,16.02-16.02,16.02,7.19,16.02,16.02-7.19,16.02-16.02,16.02Z"/>
  <path class="cls-1" d="M178.35,142.63h-5.86v-41.76c0-.48-.21-.93-.56-1.24l-17.33-15.18c-1-6.03-3.02-14.89-7.09-23.99-9.94-22.27-27.04-35.45-49.45-38.1-1.81-.21-3.64.07-5.3.81-3.55,1.59-30.32,21.42-79.56,58.95-3.29,2.51-4.72,6.86-3.56,10.82l8.62,29.55h-8.69c-.91,0-1.65.74-1.65,1.65v18.48H1.65c-.91,0-1.65.74-1.65,1.65v11.78c0,.91.74,1.65,1.65,1.65h176.7c.91,0,1.65-.74,1.65-1.65v-11.78c0-.91-.74-1.65-1.65-1.65ZM169.18,142.63h-24.94v-27.99c0-11.8-6.12-22.19-15.35-28.18l13.53-8.29,26.77,23.45v41.01ZM84.01,53.92c.59.51,1.17,1.02,1.71,1.51,3.34,2.97,6.36,5.65,9.44,5.65,1.13,0,2.27-.36,3.44-1.2,2.84-2.03,12.3-8.75,15.18-10.81,6.25,4.38,11.33,10.78,15.15,19.18,1.85,4.06,3.18,8.13,4.13,11.76l-7.46,4.57c-4.51-2.25-9.59-3.53-14.96-3.53s-10.24,1.61-14.64,3.36c-7.27,2.88-43.37,18.07-44.26,18.42-6.8,2.69-11.85,7.48-14.38,13.33l-6.48-22.22c14.78-11.24,37.34-28.31,53.12-40.03ZM86.73,51.9c5.33-3.94,9.68-7.12,12.39-9.02,4.22.83,8.12,2.26,11.67,4.28-2.4,1.71-11.26,8.01-14.1,10.03-2.03,1.45-4.02,0-8.77-4.23-.39-.34-.79-.7-1.19-1.06ZM38.85,124.99c0-8.33,5.41-15.64,14.12-19.08.92-.36,37.03-15.55,44.26-18.42,4.1-1.62,8.56-3.13,13.43-3.13,16.7,0,30.28,13.58,30.28,30.28v27.99H38.85v-17.64ZM12.81,92.02c-.78-2.67.18-5.59,2.39-7.27C79.51,35.74,92.25,27.02,94.11,26.18c.87-.39,1.82-.59,2.77-.59.26,0,.53.02.79.05,21.19,2.51,37.38,15.01,46.82,36.16,3.1,6.95,4.97,13.73,6.1,19.14l-6.91-6.05c-.54-.48-1.34-.54-1.95-.17l-5.7,3.5c-.98-3.53-2.29-7.41-4.07-11.32-7.05-15.49-18.12-24.71-32.91-27.38-.43-.08-.87.02-1.23.27-10.16,7.03-48.66,36.13-69.82,52.23-.54.41-.78,1.12-.59,1.78l8.32,28.52c0,.06-.02.13-.02.19h-14.01l-8.89-30.48ZM11.22,125.8h24.33v16.83H11.22v-16.83ZM176.7,154.41H3.3v-8.48h173.39v8.48Z"/>
  <path class="cls-1" d="M77.53,114.95h-17.17c-.91,0-1.65.74-1.65,1.65s.74,1.65,1.65,1.65h17.17c.91,0,1.65-.74,1.65-1.65s-.74-1.65-1.65-1.65Z"/>
  <path class="cls-1" d="M77.53,127.8h-17.17c-.91,0-1.65.74-1.65,1.65s.74,1.65,1.65,1.65h17.17c.91,0,1.65-.74,1.65-1.65s-.74-1.65-1.65-1.65Z"/>
</svg>