<?xml version="1.0" encoding="UTF-8"?>
<svg id="Robotics_Machinery" data-name="Robotics &amp;amp; Machinery" xmlns="http://www.w3.org/2000/svg" viewBox="0 0 180 180">
  <defs>
    <style>
      .cls-1 {
        stroke: #000;
        stroke-miterlimit: 10;
        stroke-width: 2px;
      }
    </style>
  </defs>
  <path class="cls-1" d="M174.81,161.7h-45.9v-14.79c18.03-1.04,32.39-16.04,32.39-34.33s-15.43-34.4-34.4-34.4c-.46,0-.92.02-1.38.03l-20.91-27.43h33.92l12.19,14.52c.38.45.94.72,1.54.72h15.41c1.11,0,2.01-.9,2.01-2.01v-17.85c0-1.11-.9-2.01-2.01-2.01h-11.25v-22.28h11.25c1.11,0,2.01-.9,2.01-2.01V2.01c0-1.11-.9-2.01-2.01-2.01h-15.41c-.59,0-1.16.26-1.54.72l-12.19,14.52H18.05c-1.11,0-2.01.9-2.01,2.01v31.52c0,1.11.9,2.01,2.01,2.01h13.84l52.72,69.14h-34.75c-1.11,0-2.01.9-2.01,2.01v39.76h-8.38l-17.33-17.6c-.38-.38-.89-.6-1.43-.6H5.19c-1.11,0-2.01.9-2.01,2.01v32.49c0,1.11.9,2.01,2.01,2.01h169.62c1.11,0,2.01-.9,2.01-2.01v-14.28c0-1.11-.9-2.01-2.01-2.01ZM94.45,101.18l-32.78-42.99c-2.8-3.67-4-8.22-3.38-12.81.62-4.59,2.98-8.66,6.65-11.45,3.18-2.42,6.97-3.64,10.94-3.54,5.27.14,10.13,2.62,13.32,6.81l31.65,41.51c-12.29,2.19-22.34,10.92-26.4,22.46ZM153.19,4.02h12.47v13.84h-11.25c-1.11,0-2.01.9-2.01,2.01v26.3c0,1.11.9,2.01,2.01,2.01h11.25v13.84h-12.47l-11.72-13.96v-30.06l11.72-13.96ZM20.06,19.26h117.39v27.51h-35.91l-9.15-12c-3.93-5.16-9.91-8.22-16.41-8.39-4.94-.12-9.57,1.38-13.48,4.36-4.52,3.45-7.43,8.46-8.2,14.11-.09.64-.14,1.28-.17,1.91H20.06v-27.51ZM36.94,50.78h17.4c.51,3.55,1.91,6.92,4.14,9.85l34.65,45.44c-.4,2.11-.62,4.28-.62,6.5,0,2.48.27,4.94.79,7.35h-3.63L36.94,50.78ZM51.87,123.94h44.02c.64,0,1.23-.3,1.61-.81.38-.51.49-1.17.31-1.78-.86-2.85-1.29-5.81-1.29-8.78,0-16.75,13.63-30.38,30.38-30.38s30.38,13.63,30.38,30.38-13.63,30.38-30.38,30.38H51.87v-19.01ZM51.87,146.97h73.02v14.73H51.87v-14.73ZM172.8,175.98H7.2v-28.47h12.67l17.33,17.6c.38.38.89.6,1.43.6h134.17v10.27Z"/>
  <path class="cls-1" d="M141.18,112.57c0-7.88-6.41-14.28-14.28-14.28s-14.28,6.41-14.28,14.28,6.41,14.28,14.28,14.28,14.28-6.41,14.28-14.28ZM116.63,112.57c0-5.66,4.6-10.26,10.27-10.26s10.26,4.6,10.26,10.26-4.6,10.27-10.26,10.27-10.27-4.6-10.27-10.27Z"/>
  <path class="cls-1" d="M75.81,44.53c-2.34,0-4.24,1.9-4.24,4.24s1.9,4.24,4.24,4.24,4.24-1.9,4.24-4.24-1.9-4.24-4.24-4.24Z"/>
</svg>