<?xml version="1.0" encoding="UTF-8"?>
<svg id="Robotics_Machinery" data-name="Robotics &amp;amp; Machinery" xmlns="http://www.w3.org/2000/svg" viewBox="0 0 180 180">
  <defs>
    <style>
      .cls-1 {
        stroke: #000;
        stroke-miterlimit: 10;
        stroke-width: 2px;
      }
    </style>
  </defs>
  <path class="cls-1" d="M173.63,110.97h-4.53v-11.47c1.87-1.08,3.58-2.43,5.07-4.04,3.96-4.27,6.03-9.83,5.81-15.65-.22-5.82-2.69-11.21-6.96-15.18l-39.73-36.87c-.92-8.42-5.54-16.3-13.18-21.18-12.45-7.95-28.79-5.26-38.01,6.26-.01.01-.05.06-.1.13-2.44-1.74-4.81-3.39-7.1-4.85-8.88-5.67-20.67-3.1-27.43,5.96-6.2,8.31-5.35,16.6-4.46,25.38,1.03,10.13,2.08,20.61-7.4,33.09-8.14,10.65-14.75,19.52-17.05,23.12-9.77,15.31-7.06,35.08,5.48,47.27l-3.74,8.82-19.1,7.78c-.73.3-1.2,1.01-1.2,1.79v14.7c0,1.07.87,1.94,1.94,1.94h96.15c1.07,0,1.94-.87,1.94-1.94v-14.7c0-.79-.48-1.5-1.2-1.79l-19.1-7.78-3.56-8.41c2.21-2.09,4.22-4.47,5.93-7.14,4.65-7.29,21.67-40.19,34.21-64.7l27.05,25.1c1.2,1.11,2.52,2.06,3.91,2.87v11.49h-4.53c-1.07,0-1.94.87-1.94,1.94v14.73c0,1.07.87,1.94,1.94,1.94h13.52v14.04c0,1.07.87,1.94,1.94,1.94s1.94-.87,1.94-1.94v-14.04h13.52c1.07,0,1.94-.87,1.94-1.94v-14.73c0-1.07-.87-1.94-1.94-1.94ZM46.86,39.07c-.85-8.36-1.58-15.58,3.72-22.68,3.58-4.8,8.85-7.4,14.05-7.4,2.84,0,5.67.77,8.19,2.38,2.19,1.4,4.42,2.94,6.78,4.63-5.59,7.1-19.66,25.01-32.98,42.23,1.48-6.9.84-13.26.24-19.17ZM76.47,154.01c.2.47.58.84,1.05,1.04l18.63,7.6v11.46H3.87v-11.46l18.63-7.6c.47-.19.85-.57,1.05-1.04l3.56-8.39c.94.73,1.92,1.43,2.94,2.08,6.27,4,13.28,5.91,20.21,5.91,8.16,0,16.2-2.66,22.8-7.64l3.41,8.05ZM78.82,134.12c-10.03,15.71-30.97,20.34-46.69,10.31-15.71-10.03-20.34-30.97-10.31-46.69,7.39-11.58,62.77-81.84,63.3-82.49,4.9-6.12,12.12-9.36,19.46-9.36,4.62,0,9.29,1.28,13.45,3.94,10.78,6.88,14.63,20.69,8.95,32.13-.37.75-40.66,80.4-48.16,92.15ZM118.12,67.93c6.99-13.68,12.19-23.97,12.32-24.23,1.69-3.4,2.64-6.99,2.92-10.58l37.02,34.34c3.51,3.26,5.55,7.69,5.73,12.48.18,4.79-1.52,9.36-4.78,12.88-3.38,3.65-8.18,5.74-13.16,5.74-4.54,0-8.87-1.7-12.2-4.79l-27.85-25.84ZM151.13,101.24c2.25.77,4.62,1.19,7.05,1.19s4.8-.41,7.05-1.18v9.72h-14.11v-9.73ZM171.7,125.7h-27.04v-10.86h27.04v10.86Z"/>
  <path class="cls-1" d="M161.71,82.87h0c1.24-1.95.67-4.55-1.28-5.79-.94-.6-2.06-.8-3.16-.56-1.09.24-2.03.89-2.63,1.84-1.24,1.95-.67,4.55,1.28,5.79.7.45,1.48.66,2.25.66,1.39,0,2.74-.68,3.54-1.94Z"/>
  <path class="cls-1" d="M111.64,19.86c-6.08-3.88-14.19-2.09-18.07,3.99-3.54,5.54-2.35,12.76,2.49,16.93l-36.41,57.58c-9.01-4.55-20.21-1.61-25.76,7.08-5.91,9.26-3.18,21.6,6.08,27.51,3.31,2.11,7.02,3.12,10.69,3.12,6.58,0,13.03-3.25,16.83-9.2,5.57-8.73,3.46-20.21-4.56-26.44l36.41-57.57c1.66.74,3.45,1.12,5.26,1.12.95,0,1.9-.1,2.85-.31,3.41-.75,6.33-2.79,8.21-5.74,1.88-2.95,2.5-6.45,1.75-9.86-.75-3.41-2.79-6.33-5.74-8.21ZM64.21,124.8c-4.76,7.46-14.71,9.66-22.17,4.9-7.46-4.76-9.66-14.71-4.9-22.17,3.06-4.79,8.25-7.41,13.56-7.41,2.95,0,5.94.81,8.61,2.52,7.46,4.76,9.66,14.71,4.9,22.17ZM112.36,35.85c-1.32,2.08-3.38,3.51-5.78,4.04-2.41.53-4.87.09-6.95-1.23-4.28-2.73-5.54-8.44-2.81-12.73,1.76-2.75,4.74-4.26,7.79-4.26,1.7,0,3.41.47,4.94,1.44,2.08,1.32,3.51,3.38,4.04,5.78.53,2.4.09,4.87-1.23,6.95Z"/>
</svg>