<?xml version="1.0" encoding="UTF-8"?>
<svg id="Robotics_Machinery" data-name="Robotics &amp;amp; Machinery" xmlns="http://www.w3.org/2000/svg" viewBox="0 0 180 180">
  <defs>
    <style>
      .cls-1 {
        stroke: #000;
        stroke-miterlimit: 10;
        stroke-width: 2px;
      }
    </style>
  </defs>
  <path class="cls-1" d="M179.57,52.42l-5.56-5.56c-.27-.27-.64-.43-1.03-.43h-24.52v-4.4c0-.4-.16-.78-.45-1.05l-8.52-8.15c-.27-.26-.63-.4-1-.4h-17.36l-7.96-6.76c-.26-.22-.6-.35-.94-.35H22.77C10.21,25.32,0,35.53,0,48.09v73.31c0,12.55,10.21,22.77,22.77,22.77h28.19v3.89c0,3.65,2.97,6.62,6.62,6.62h36.43c3.65,0,6.62-2.97,6.62-6.62v-26.8l5.45-5.42c.27-.27.43-.64.43-1.03v-33.23h5.72c.34,0,.68-.12.94-.35l7.96-6.76h17.36c.37,0,.73-.14,1-.4l8.52-8.15c.29-.27.45-.65.45-1.05v-4.4h24.52c.39,0,.76-.15,1.03-.43l5.56-5.56c.57-.57.57-1.49,0-2.06ZM50.96,127.05h-28.19c-3.12,0-5.65-2.54-5.65-5.65v-55.48c.69-.16,1.36-.32,2-.46,5.12-1.16,9.54-2.16,9.54-6.87v-16.15h16.43v72.37c0,.39.15.76.43,1.03l5.45,5.42v5.8ZM17.12,62.93v-14.84c0-3.12,2.54-5.65,5.65-5.65h2.98v16.15c0,2.18-2,2.84-7.28,4.04-.44.1-.9.2-1.36.31ZM22.77,141.26c-10.95,0-19.86-8.91-19.86-19.86V48.09c0-10.95,8.91-19.86,19.86-19.86h22.32v11.3h-22.32c-4.72,0-8.56,3.84-8.56,8.56v73.31c0,4.72,3.84,8.56,8.56,8.56h28.19v11.3h-28.19ZM103.6,114.2l-5.45,5.42c-.27.27-.43.64-.43,1.03v27.41c0,2.05-1.67,3.71-3.71,3.71h-36.43c-2.05,0-3.71-1.67-3.71-3.71v-27.41c0-.39-.15-.76-.43-1.03l-5.45-5.42v-32.63h55.61v32.63ZM120.6,71.56c-.34,0-.68.12-.94.35l-7.96,6.76h-63.7V28.23h63.7l7.96,6.76c.26.22.6.35.94.35h5.12v36.23h-5.12ZM145.56,64.24l-7.65,7.32h-9.28v-36.23h9.28l7.65,7.32v21.59ZM172.39,57.55h-23.92v-8.21h23.92l4.1,4.1-4.1,4.1Z"/>
  <path class="cls-1" d="M88.39,114.73c.8,0,1.45-.65,1.45-1.45v-19.38c0-.8-.65-1.45-1.45-1.45s-1.45.65-1.45,1.45v19.38c0,.8.65,1.45,1.45,1.45Z"/>
  <path class="cls-1" d="M76.76,114.73c.8,0,1.45-.65,1.45-1.45v-19.38c0-.8-.65-1.45-1.45-1.45s-1.45.65-1.45,1.45v19.38c0,.8.65,1.45,1.45,1.45Z"/>
  <path class="cls-1" d="M65.13,114.73c.8,0,1.45-.65,1.45-1.45v-19.38c0-.8-.65-1.45-1.45-1.45s-1.45.65-1.45,1.45v19.38c0,.8.65,1.45,1.45,1.45Z"/>
  <path class="cls-1" d="M89.03,43.23c.57-.57.57-1.49,0-2.06-.57-.57-1.49-.57-2.06,0l-.69.69c-2.59-2.14-5.92-3.42-9.53-3.42-8.28,0-15.01,6.73-15.01,15.01,0,3.62,1.29,6.94,3.42,9.53l-.69.69c-.57.57-.57,1.49,0,2.06.28.28.66.43,1.03.43s.74-.14,1.03-.43l.69-.69c2.59,2.14,5.92,3.42,9.53,3.42,8.28,0,15.01-6.73,15.01-15.01,0-3.62-1.29-6.94-3.42-9.53l.69-.69ZM64.66,53.44c0-6.67,5.43-12.1,12.1-12.1,2.81,0,5.4.97,7.46,2.59l-16.97,16.97c-1.62-2.06-2.59-4.64-2.59-7.46ZM88.87,53.44c0,6.67-5.43,12.1-12.1,12.1-2.81,0-5.4-.97-7.46-2.59l16.97-16.97c1.62,2.06,2.59,4.64,2.59,7.46Z"/>
</svg>