<?xml version="1.0" encoding="UTF-8"?>
<svg id="Robotics_Machinery" data-name="Robotics &amp;amp; Machinery" xmlns="http://www.w3.org/2000/svg" viewBox="0 0 180 180">
  <defs>
    <style>
      .cls-1 {
        stroke: #000;
        stroke-miterlimit: 10;
        stroke-width: 2px;
      }
    </style>
  </defs>
  <path class="cls-1" d="M105.1,31.91c-1.04,0-1.89.85-1.89,1.89v47.65c0,1.04.85,1.89,1.89,1.89s1.89-.85,1.89-1.89v-47.65c0-1.04-.85-1.89-1.89-1.89Z"/>
  <path class="cls-1" d="M90,31.91c-1.04,0-1.89.85-1.89,1.89v47.65c0,1.04.85,1.89,1.89,1.89s1.89-.85,1.89-1.89v-47.65c0-1.04-.85-1.89-1.89-1.89Z"/>
  <path class="cls-1" d="M74.9,31.91c-1.04,0-1.89.85-1.89,1.89v47.65c0,1.04.85,1.89,1.89,1.89s1.89-.85,1.89-1.89v-47.65c0-1.04-.85-1.89-1.89-1.89Z"/>
  <path class="cls-1" d="M167.84,38.52c-3.99,0-7.54,3.38-9.04,8.62-.04.14-.09.33-.15.55-1.48,5.58-2.62,5.75-2.79,5.75h-6.6V19.51c.01-.5-.19-.98-.54-1.34-.35-.35-.83-.55-1.33-.55h-16.38L120.28.87c-.35-.54-.95-.87-1.59-.87h-57.35c-.64,0-1.24.33-1.59.87l-10.73,16.75h-16.38c-1.04,0-1.89.84-1.89,1.89v33.93h-6.62s-.02,0-.03,0c-.14,0-1.28-.18-2.76-5.76-.06-.22-.11-.41-.15-.55-1.49-5.23-5.04-8.61-9.03-8.61-5.48,0-9.77,6.14-9.77,13.99v32.71c0,7.84,4.29,13.99,9.77,13.99,3.99,0,7.54-3.38,9.03-8.62.04-.14.09-.33.15-.55,1.48-5.58,2.62-5.75,2.79-5.75h6.6v22.8c0,.5.19.98.55,1.34.35.35.83.55,1.33.55h4.92v49.59h-10.47c-1.04,0-1.89.85-1.89,1.89v17.66c0,1.04.85,1.89,1.89,1.89h125.87c1.04,0,1.89-.85,1.89-1.89v-17.66c0-1.04-.85-1.89-1.89-1.89h-10.47v-49.59h4.89c1.04,0,1.89-.84,1.89-1.89v-22.8h6.64c.14,0,1.28.18,2.76,5.75.06.22.11.41.15.55,1.49,5.23,5.04,8.61,9.03,8.61,5.48,0,9.77-6.14,9.77-13.99v-32.71c0-7.84-4.29-13.99-9.77-13.99ZM30.72,80.5h-6.62c-4.14,0-5.72,6-6.41,8.56-.05.19-.09.36-.13.48-1,3.51-3.17,5.88-5.4,5.88-3.25,0-5.99-4.68-5.99-10.21v-32.71c0-5.53,2.74-10.21,5.99-10.21,2.23,0,4.4,2.36,5.4,5.87.04.13.08.29.13.48.68,2.57,2.27,8.56,6.41,8.56h6.62v23.28ZM41.31,109.01h9.69v49.55h-9.69v-49.55ZM151.05,176.22H28.95v-13.89h122.1v13.89ZM129,158.56v-49.55h9.69v49.55h-9.69ZM125.22,158.56H54.78v-49.59h24.78v24.1c0,1.04.85,1.89,1.89,1.89h17.12c1.04,0,1.89-.85,1.89-1.89v-24.1h24.78v49.59ZM83.33,108.97h13.34v22.21h-13.34v-22.21ZM145.47,105.19H34.5l.03-83.79h15.52c.64,0,1.24-.33,1.59-.87L62.37,3.78h55.29l10.73,16.75c.35.54.95.87,1.59.87h15.52l-.03,83.79ZM173.83,85.21c0,5.53-2.74,10.21-5.99,10.21-2.23,0-4.4-2.36-5.4-5.87-.04-.13-.08-.29-.13-.48-.68-2.57-2.27-8.56-6.41-8.56h-6.62v-23.28h6.62c4.14,0,5.72-6,6.41-8.56.05-.19.09-.36.13-.48,1-3.51,3.17-5.88,5.4-5.88,3.25,0,5.99,4.68,5.99,10.21v32.71Z"/>
</svg>