<?xml version="1.0" encoding="UTF-8"?>
<svg id="Machine_Learning" data-name="Machine Learning" xmlns="http://www.w3.org/2000/svg" viewBox="0 0 180 180">
  <defs>
    <style>
      .cls-1 {
        stroke: #000;
        stroke-miterlimit: 10;
        stroke-width: 2px;
      }
    </style>
  </defs>
  <path class="cls-1" d="M90,.46c-1.09,0-1.98.89-1.98,1.98s.89,1.98,1.98,1.98c47.44,0,86.04,38.6,86.04,86.04s-38.6,86.04-86.04,86.04S3.96,137.9,3.96,90.46c0-1.09-.89-1.98-1.98-1.98S0,89.37,0,90.46C0,140.09,40.37,180.46,90,180.46s90-40.37,90-90S139.63.46,90,.46Z"/>
  <path class="cls-1" d="M90,162.82c18.54,0,37.08-7.06,51.19-21.17.77-.77.77-2.03,0-2.8-.77-.77-2.03-.77-2.8,0-26.68,26.68-70.1,26.68-96.78,0-26.68-26.68-26.68-70.1,0-96.78,26.68-26.68,70.1-26.68,96.78,0,.77.77,2.03.77,2.8,0,.77-.77.77-2.03,0-2.8-28.23-28.23-74.16-28.23-102.38,0-28.23,28.23-28.23,74.16,0,102.38,14.11,14.11,32.65,21.17,51.19,21.17Z"/>
  <path class="cls-1" d="M90,145.25c30.21,0,54.79-24.58,54.79-54.79s-24.58-54.79-54.79-54.79-54.79,24.58-54.79,54.79c0,1.09.89,1.98,1.98,1.98s1.98-.89,1.98-1.98c0-28.03,22.8-50.83,50.83-50.83s50.83,22.8,50.83,50.83-22.8,50.83-50.83,50.83c-1.09,0-1.98.89-1.98,1.98s.89,1.98,1.98,1.98Z"/>
  <path class="cls-1" d="M128.42,91.69c.57-.72.57-1.74,0-2.46-.7-.88-17.35-21.53-38.42-21.53s-37.72,20.65-38.42,21.53c-.57.72-.57,1.74,0,2.46.7.88,17.34,21.53,38.42,21.53s37.72-20.65,38.42-21.53ZM71.2,90.46c0-10.37,8.44-18.8,18.8-18.8s18.8,8.44,18.8,18.8-8.43,18.8-18.8,18.8-18.8-8.43-18.8-18.8ZM124.27,90.46c-2.26,2.55-8,8.53-15.64,13.07,2.61-3.7,4.14-8.21,4.14-13.07s-1.55-9.38-4.16-13.09c7.65,4.54,13.4,10.53,15.66,13.09ZM55.73,90.46c2.26-2.55,8.01-8.56,15.68-13.1-2.62,3.71-4.17,8.23-4.17,13.1s1.55,9.38,4.16,13.08c-7.65-4.54-13.4-10.54-15.66-13.09Z"/>
  <path class="cls-1" d="M90,80.56c-5.46,0-9.9,4.44-9.9,9.9s4.44,9.9,9.9,9.9,9.9-4.44,9.9-9.9-4.44-9.9-9.9-9.9ZM90,96.4c-3.28,0-5.94-2.67-5.94-5.94s2.67-5.94,5.94-5.94,5.94,2.67,5.94,5.94-2.67,5.94-5.94,5.94Z"/>
</svg>