<?xml version="1.0" encoding="UTF-8"?>
<svg id="Machine_Learning" data-name="Machine Learning" xmlns="http://www.w3.org/2000/svg" viewBox="0 0 180 180">
  <defs>
    <style>
      .cls-1 {
        stroke: #000;
        stroke-miterlimit: 10;
        stroke-width: 2px;
      }
    </style>
  </defs>
  <path class="cls-1" d="M114.54,117.19c-5.92,0-10.74,4.82-10.74,10.74,0,5.26,3.81,9.64,8.81,10.56v9.86l-9.95,10.94c-.32.36-.5.82-.5,1.3v17.95c0,1.07.87,1.93,1.93,1.93s1.93-.87,1.93-1.93v-17.2l9.95-10.94c.32-.36.5-.82.5-1.3v-10.61c5-.91,8.81-5.3,8.81-10.56,0-5.92-4.82-10.74-10.74-10.74ZM114.54,134.8c-3.79,0-6.87-3.08-6.87-6.87s3.08-6.87,6.87-6.87,6.87,3.08,6.87,6.87-3.08,6.87-6.87,6.87Z"/>
  <path class="cls-1" d="M90,97.82c-5.92,0-10.74,4.82-10.74,10.74,0,5.26,3.81,9.64,8.81,10.56v59.42c0,1.07.87,1.93,1.93,1.93s1.93-.87,1.93-1.93v-59.42c5-.91,8.81-5.3,8.81-10.56,0-5.92-4.82-10.74-10.74-10.74ZM90,115.43c-3.79,0-6.87-3.08-6.87-6.87s3.08-6.87,6.87-6.87,6.87,3.08,6.87,6.87-3.08,6.87-6.87,6.87Z"/>
  <path class="cls-1" d="M67.39,148.34v-9.86c5-.91,8.81-5.3,8.81-10.56,0-5.92-4.82-10.74-10.74-10.74s-10.74,4.82-10.74,10.74c0,5.26,3.81,9.64,8.81,10.56v10.61c0,.48.18.94.5,1.3l9.95,10.94v17.2c0,1.07.87,1.93,1.93,1.93s1.93-.87,1.93-1.93v-17.95c0-.48-.18-.94-.5-1.3l-9.95-10.94ZM58.58,127.93c0-3.79,3.08-6.87,6.87-6.87s6.87,3.08,6.87,6.87-3.08,6.87-6.87,6.87-6.87-3.08-6.87-6.87Z"/>
  <path class="cls-1" d="M79.21,81.01c-7.79-6.73-20.46-6.73-28.25,0-.81.7-.9,1.92-.2,2.73.7.81,1.92.9,2.73.2,2.35-2.03,5.24-3.31,8.28-3.84-.23.48-.38,1.02-.38,1.59,0,2.04,1.66,3.69,3.69,3.69s3.7-1.66,3.7-3.69c0-.57-.14-1.11-.38-1.59,3.04.54,5.93,1.81,8.28,3.84.37.32.81.47,1.26.47.54,0,1.08-.23,1.46-.67.7-.81.61-2.03-.2-2.73Z"/>
  <path class="cls-1" d="M129.24,83.74c.7-.81.61-2.03-.2-2.73-7.79-6.73-20.46-6.73-28.25,0-.81.7-.9,1.92-.2,2.73.7.81,1.92.9,2.73.2,2.35-2.03,5.24-3.31,8.28-3.84-.23.48-.38,1.02-.38,1.59,0,2.04,1.66,3.69,3.69,3.69s3.69-1.66,3.69-3.69c0-.57-.14-1.11-.38-1.59,3.04.54,5.93,1.81,8.28,3.84.37.32.81.47,1.26.47.54,0,1.08-.23,1.46-.67Z"/>
  <path class="cls-1" d="M169.14,83.28c-.27-3.56-1.92-6.81-4.63-9.13-2.67-2.29-6.07-3.42-9.58-3.19.15-1.81.23-3.6.23-5.34C155.16,29.69,125.93.46,90,.46S24.84,29.69,24.84,65.62c0,1.73.08,3.52.23,5.34-7.32-.47-13.65,5.02-14.21,12.34-.36,5.02,2.24,8.95,5,13.11,3.04,4.59,6.49,9.8,6.74,17.69-.19,2.81.72,5.53,2.55,7.67,1.86,2.17,4.45,3.48,7.3,3.7,1.78.14,3.53-.17,5.13-.88,1.78,6.67,3.43,12.65,4.92,17.8,1.76,6.1,4.11,11.57,6.98,16.26.36.6,1,.93,1.65.93.34,0,.69-.09,1.01-.28.91-.56,1.2-1.75.64-2.66-2.69-4.4-4.9-9.55-6.57-15.31-1.67-5.76-3.54-12.56-5.56-20.21-.17-.63-.65-1.14-1.27-1.34-.62-.2-1.31-.08-1.82.34-1.37,1.11-3.08,1.65-4.82,1.51-1.82-.14-3.47-.98-4.66-2.36-1.19-1.38-1.76-3.15-1.62-4.97,0-.07,0-.14,0-.2-.26-9.05-4.21-15.02-7.39-19.81-2.59-3.91-4.63-6.99-4.36-10.69.4-5.23,4.99-9.16,10.21-8.76.6.05,1.2.15,1.81.32.62.17,1.29.02,1.78-.4.49-.42.74-1.06.66-1.7-.31-2.54-.46-5.04-.46-7.43,0-33.8,27.49-61.29,61.29-61.29s61.29,27.49,61.29,61.29c0,2.39-.16,4.89-.46,7.43-.08.64.17,1.28.66,1.7.49.42,1.15.57,1.78.4.6-.17,1.21-.27,1.81-.32,2.53-.2,4.99.61,6.92,2.26,1.93,1.65,3.1,3.96,3.29,6.49.27,3.7-1.78,6.79-4.36,10.7-3.17,4.79-7.12,10.76-7.39,19.81,0,.07,0,.14,0,.2.29,3.75-2.53,7.04-6.29,7.33-1.75.13-3.46-.4-4.82-1.52-.51-.41-1.2-.54-1.82-.34-.62.2-1.1.71-1.27,1.34-2.03,7.65-3.9,14.45-5.56,20.21-1.67,5.77-3.88,10.92-6.57,15.31-.56.91-.27,2.1.64,2.66.91.56,2.1.27,2.66-.64,2.87-4.69,5.22-10.16,6.98-16.26,1.49-5.15,3.14-11.13,4.92-17.8,1.6.71,3.35,1.02,5.13.88,5.84-.45,10.24-5.54,9.85-11.37.26-7.9,3.7-13.1,6.74-17.69,2.76-4.16,5.36-8.09,5-13.12Z"/>
</svg>