<?xml version="1.0" encoding="UTF-8"?>
<svg id="Machine_Learning" data-name="Machine Learning" xmlns="http://www.w3.org/2000/svg" viewBox="0 0 180 180">
  <defs>
    <style>
      .cls-1 {
        stroke: #000;
        stroke-miterlimit: 10;
        stroke-width: 2px;
      }
    </style>
  </defs>
  <path class="cls-1" d="M160.58,59.01c-6.42,0-12.01,3.61-14.85,8.91-2.84-5.3-8.43-8.91-14.85-8.91s-12.01,3.61-14.85,8.91c-2.84-5.3-8.43-8.91-14.84-8.91-5.16,0-9.78,2.33-12.87,5.99V17.29c0-9.28-7.55-16.83-16.83-16.83s-16.83,7.55-16.83,16.83v97.81c-5.78-12.39-18.58-31.85-42.04-32.51-.4-.03-.79.1-1.12.31-5.37,3.43-8.26,6.83-8.82,10.4-.69,4.35,2.11,7.75,4.57,10.74.52.63,2.95,3.8,2.95,3.8,8.17,10.82,16.61,22,19.96,44.45,3.82,25.54,26.68,28.14,26.91,28.16.07,0,.13.01.2.01,1,0,1.86-.76,1.97-1.78.11-1.09-.68-2.06-1.77-2.17-.2-.02-20.02-2.28-23.39-24.81-3.5-23.45-12.26-35.04-20.72-46.25,0,0-2.5-3.25-3.05-3.93-2.03-2.47-4.13-5.02-3.72-7.61.36-2.25,2.55-4.72,6.53-7.34,30.89,1.35,41.51,39.27,41.61,39.66.26.96,1.19,1.58,2.17,1.45.99-.13,1.72-.97,1.72-1.96V17.29c0-7.09,5.77-12.87,12.86-12.87s12.87,5.77,12.87,12.87v66.8c0,1.09.89,1.98,1.99,1.98s1.98-.89,1.98-1.98v-8.26c0-7.09,5.77-12.86,12.87-12.86s12.86,5.77,12.86,12.86v8.26c0,1.09.89,1.98,1.98,1.98s1.98-.89,1.98-1.98v-8.26c0-7.09,5.77-12.86,12.87-12.86s12.87,5.77,12.87,12.86v8.26c0,1.09.89,1.98,1.98,1.98s1.98-.89,1.98-1.98v-8.26c0-7.09,5.77-12.86,12.87-12.86s12.87,5.77,12.87,12.86v70.89c0,8.87-3.06,11.23-6.6,13.97-3.91,3.02-8.34,6.45-8.34,17.8,0,1.09.89,1.98,1.98,1.98s1.98-.89,1.98-1.98c0-9.41,3.15-11.85,6.8-14.67,3.81-2.95,8.14-6.29,8.14-17.1v-70.89c0-9.28-7.55-16.83-16.83-16.83Z"/>
  <path class="cls-1" d="M160.8,125.39v-18.14c0-1.09-.89-1.98-1.98-1.98s-1.98.89-1.98,1.98v18.14c0,5.79-3.85,10.68-9.12,12.28v-8.18c0-1.09-.89-1.98-1.98-1.98h-13.74v-20.27c0-1.09-.89-1.98-1.98-1.98s-1.98.89-1.98,1.98v20.27h-23.97v-20.27c0-1.09-.89-1.98-1.98-1.98s-1.98.89-1.98,1.98v20.27h-13.74c-1.09,0-1.98.89-1.98,1.98v8.18c-5.27-1.61-9.12-6.49-9.12-12.28v-18.14c0-1.09-.89-1.98-1.98-1.98s-1.98.89-1.98,1.98v18.14c0,7.99,5.6,14.68,13.09,16.39v12.36c0,1.09.89,1.98,1.98,1.98h27.71v22.36c0,1.09.89,1.98,1.98,1.98s1.98-.89,1.98-1.98v-22.36h27.71c1.09,0,1.98-.89,1.98-1.98v-12.36c7.48-1.71,13.09-8.4,13.09-16.39ZM143.76,152.16h-55.42v-20.68h55.42v20.68Z"/>
</svg>