<?xml version="1.0" encoding="UTF-8"?>
<svg id="Machine_Learning" data-name="Machine Learning" xmlns="http://www.w3.org/2000/svg" viewBox="0 0 180 180">
  <defs>
    <style>
      .cls-1 {
        stroke: #000;
        stroke-miterlimit: 10;
        stroke-width: 2px;
      }
    </style>
  </defs>
  <path class="cls-1" d="M73.06,146.81c-6.19,0-11.22,5.03-11.22,11.22v11.2c0,6.19,5.03,11.22,11.22,11.22s11.22-5.04,11.22-11.22v-11.2c0-6.19-5.03-11.22-11.22-11.22ZM80.32,169.24c0,4-3.26,7.26-7.26,7.26s-7.26-3.26-7.26-7.26v-11.2c0-4,3.26-7.26,7.26-7.26s7.26,3.26,7.26,7.26v11.2Z"/>
  <path class="cls-1" d="M20.95,176.5h-4.85v-27.71c0-.8-.48-1.52-1.22-1.83-.74-.31-1.59-.14-2.16.42l-6.83,6.77c-.78.77-.78,2.02-.01,2.8.77.78,2.02.78,2.8.01l3.45-3.42v22.96h-4.85c-1.09,0-1.98.89-1.98,1.98s.89,1.98,1.98,1.98h13.66c1.09,0,1.98-.89,1.98-1.98s-.89-1.98-1.98-1.98Z"/>
  <path class="cls-1" d="M111.35,176.5h-4.85v-27.71c0-.8-.48-1.52-1.22-1.83-.74-.31-1.59-.14-2.16.42l-6.83,6.77c-.78.77-.78,2.02-.01,2.8.77.78,2.02.78,2.8.01l3.45-3.42v22.96h-4.85c-1.09,0-1.98.89-1.98,1.98s.89,1.98,1.98,1.98h13.66c1.09,0,1.98-.89,1.98-1.98s-.89-1.98-1.98-1.98Z"/>
  <path class="cls-1" d="M49.76,176.5h-4.85v-27.71c0-.8-.48-1.52-1.22-1.83-.74-.31-1.59-.14-2.16.42l-6.83,6.77c-.78.77-.78,2.02-.01,2.8.77.78,2.02.78,2.8.01l3.45-3.42v22.96h-4.85c-1.09,0-1.98.89-1.98,1.98s.89,1.98,1.98,1.98h13.66c1.09,0,1.98-.89,1.98-1.98s-.89-1.98-1.98-1.98Z"/>
  <path class="cls-1" d="M163.47,146.81c-6.19,0-11.22,5.03-11.22,11.22v11.2c0,6.19,5.03,11.22,11.22,11.22s11.22-5.04,11.22-11.22v-11.2c0-6.19-5.03-11.22-11.22-11.22ZM170.73,169.24c0,4-3.26,7.26-7.26,7.26s-7.26-3.26-7.26-7.26v-11.2c0-4,3.26-7.26,7.26-7.26s7.26,3.26,7.26,7.26v11.2Z"/>
  <path class="cls-1" d="M140.17,176.5h-4.85v-27.71c0-.8-.48-1.52-1.22-1.83-.74-.31-1.59-.14-2.16.42l-6.83,6.77c-.78.77-.78,2.02-.01,2.8.77.78,2.02.78,2.8.01l3.45-3.42v22.96h-4.85c-1.09,0-1.98.89-1.98,1.98s.89,1.98,1.98,1.98h13.66c1.09,0,1.98-.89,1.98-1.98s-.89-1.98-1.98-1.98Z"/>
  <path class="cls-1" d="M69.66,64.53c.25.11.52.16.78.16.77,0,1.5-.45,1.82-1.2.43-1.01-.03-2.17-1.04-2.6-5.1-2.19-7.47-8.12-5.28-13.23.43-1-.03-2.17-1.04-2.6-1-.43-2.17.03-2.6,1.04-3.05,7.11.25,15.38,7.36,18.43Z"/>
  <path class="cls-1" d="M115.1,45.06c-1.01.43-1.47,1.6-1.04,2.6,2.19,5.1-.18,11.04-5.28,13.23-1,.43-1.47,1.6-1.04,2.6.32.75,1.05,1.2,1.82,1.2.26,0,.53-.05.78-.16,7.11-3.05,10.41-11.32,7.36-18.43-.43-1-1.6-1.47-2.6-1.04Z"/>
  <path class="cls-1" d="M38.23,69.3c-1.09,0-1.98.89-1.98,1.98,0,5.55-4.52,10.07-10.07,10.07-1.09,0-1.98.89-1.98,1.98s.89,1.98,1.98,1.98c7.74,0,14.03-6.29,14.03-14.03,0-1.09-.89-1.98-1.98-1.98Z"/>
  <path class="cls-1" d="M153.82,81.35c-5.55,0-10.07-4.52-10.07-10.07,0-1.09-.89-1.98-1.98-1.98s-1.98.89-1.98,1.98c0,7.74,6.29,14.03,14.03,14.03,1.09,0,1.98-.89,1.98-1.98s-.89-1.98-1.98-1.98Z"/>
  <path class="cls-1" d="M180,78.96c0-13.21-8.5-24.98-20.87-29.22.14-1.2.21-2.4.21-3.58,0-17.04-13.86-30.89-30.89-30.89-3.77,0-7.44.67-10.93,2C112.24,6.99,101.64.46,90,.46s-22.24,6.53-27.51,16.79c-3.49-1.33-7.16-2-10.93-2-17.03,0-30.89,13.86-30.89,30.89,0,1.18.07,2.38.21,3.58C8.5,53.97,0,65.75,0,78.96,0,95.99,13.86,109.85,30.89,109.85h118.21c17.03,0,30.89-13.86,30.89-30.89ZM3.96,78.96c0-12.02,8.08-22.69,19.65-25.93.98-.27,1.59-1.24,1.42-2.25-.27-1.55-.41-3.11-.41-4.63,0-3.1.53-6.09,1.51-8.86,2.58,6.77,9.12,11.6,16.78,11.6,1.09,0,1.98-.89,1.98-1.98s-.89-1.98-1.98-1.98c-7.51,0-13.64-5.94-13.98-13.37,4.8-7.42,13.14-12.34,22.62-12.34,3.85,0,7.59.81,11.09,2.39.48.22,1.03.23,1.53.05.49-.19.89-.57,1.1-1.05,4.03-9.22,12.82-15.37,22.74-16.1v101.39h-35.7c1.03-1.18,1.87-2.53,2.47-4.02,1.39-3.48,1.34-7.29-.14-10.74-.43-1.01-1.6-1.47-2.6-1.04-1,.43-1.47,1.6-1.04,2.6,1.06,2.47,1.1,5.21.1,7.71-.99,2.48-2.88,4.43-5.33,5.49h-14.9c-14.85,0-26.93-12.08-26.93-26.93ZM149.11,105.89h-14.9c-5.06-2.21-7.41-8.11-5.23-13.2.43-1-.03-2.17-1.04-2.6-1-.43-2.17.03-2.6,1.04-2.2,5.12-1.09,10.82,2.35,14.76h-35.71V4.5c9.92.73,18.71,6.89,22.74,16.1.21.48.61.86,1.1,1.05.49.19,1.04.17,1.53-.05,3.51-1.59,7.24-2.39,11.09-2.39,9.48,0,17.82,4.92,22.62,12.34-.34,7.43-6.47,13.37-13.98,13.37-1.09,0-1.98.89-1.98,1.98s.89,1.98,1.98,1.98c7.66,0,14.21-4.83,16.78-11.6.97,2.78,1.51,5.76,1.51,8.86,0,1.52-.14,3.08-.41,4.63-.17,1,.44,1.97,1.42,2.25,11.57,3.24,19.65,13.9,19.65,25.93,0,14.85-12.08,26.93-26.93,26.93Z"/>
</svg>