<?xml version="1.0" encoding="UTF-8"?>
<svg id="Machine_Learning" data-name="Machine Learning" xmlns="http://www.w3.org/2000/svg" viewBox="0 0 180 180">
  <defs>
    <style>
      .cls-1 {
        stroke: #000;
        stroke-miterlimit: 10;
        stroke-width: 2px;
      }
    </style>
  </defs>
  <path class="cls-1" d="M71.16,36.72c6.44,0,11.68-5.24,11.68-11.68v-11.6c0-6.44-5.24-11.68-11.68-11.68s-11.68,5.24-11.68,11.68v11.6c0,6.44,5.24,11.68,11.68,11.68ZM63.69,13.44c0-4.12,3.35-7.47,7.47-7.47s7.47,3.35,7.47,7.47v11.6c0,4.12-3.35,7.47-7.47,7.47s-7.47-3.35-7.47-7.47v-11.6Z"/>
  <path class="cls-1" d="M3.04,32.51c-1.16,0-2.11.94-2.11,2.11s.94,2.11,2.11,2.11h14.14c1.16,0,2.11-.94,2.11-2.11s-.94-2.11-2.11-2.11h-4.97V3.87c0-.85-.51-1.62-1.3-1.94-.78-.33-1.69-.15-2.29.45L1.56,9.38c-.83.82-.83,2.15-.01,2.98.82.83,2.15.83,2.98.01l3.48-3.45v23.59H3.04Z"/>
  <path class="cls-1" d="M112.92,34.61c0-1.16-.94-2.11-2.11-2.11h-4.97V3.87c0-.85-.51-1.62-1.3-1.94-.79-.33-1.69-.15-2.29.45l-7.07,7.01c-.83.82-.83,2.15-.01,2.98.82.83,2.15.83,2.98.01l3.48-3.45v23.59h-4.97c-1.16,0-2.11.94-2.11,2.11s.94,2.11,2.11,2.11h14.14c1.16,0,2.11-.94,2.11-2.11Z"/>
  <path class="cls-1" d="M32.89,32.51c-1.16,0-2.11.94-2.11,2.11s.94,2.11,2.11,2.11h14.14c1.16,0,2.11-.94,2.11-2.11s-.94-2.11-2.11-2.11h-4.97V3.87c0-.85-.51-1.62-1.3-1.94-.79-.33-1.69-.15-2.29.45l-7.07,7.01c-.83.82-.83,2.15-.01,2.98.82.83,2.15.83,2.98.01l3.48-3.45v23.59h-4.97Z"/>
  <path class="cls-1" d="M164.79,36.72c6.44,0,11.68-5.24,11.68-11.68v-11.6c0-6.44-5.24-11.68-11.68-11.68s-11.68,5.24-11.68,11.68v11.6c0,6.44,5.24,11.68,11.68,11.68ZM157.32,13.44c0-4.12,3.35-7.47,7.47-7.47s7.47,3.35,7.47,7.47v11.6c0,4.12-3.35,7.47-7.47,7.47s-7.47-3.35-7.47-7.47v-11.6Z"/>
  <path class="cls-1" d="M126.51,32.51c-1.16,0-2.11.94-2.11,2.11s.94,2.11,2.11,2.11h14.14c1.16,0,2.11-.94,2.11-2.11s-.94-2.11-2.11-2.11h-4.97V3.87c0-.85-.51-1.62-1.3-1.94-.79-.33-1.69-.15-2.29.45l-7.07,7.01c-.83.82-.83,2.15-.01,2.98.82.83,2.15.83,2.98.01l3.48-3.45v23.59h-4.97Z"/>
  <path class="cls-1" d="M74.7,69.28c-6.44,0-11.68,5.24-11.68,11.68v11.6c0,6.44,5.24,11.68,11.68,11.68s11.68-5.24,11.68-11.68v-11.6c0-6.44-5.24-11.68-11.68-11.68ZM82.16,92.56c0,4.12-3.35,7.47-7.47,7.47s-7.47-3.35-7.47-7.47v-11.6c0-4.12,3.35-7.47,7.47-7.47s7.47,3.35,7.47,7.47v11.6Z"/>
  <path class="cls-1" d="M54.6,92.56v-11.6c0-6.44-5.24-11.68-11.68-11.68s-11.68,5.24-11.68,11.68v11.6c0,6.44,5.24,11.68,11.68,11.68s11.68-5.24,11.68-11.68ZM50.39,92.56c0,4.12-3.35,7.47-7.47,7.47s-7.47-3.35-7.47-7.47v-11.6c0-4.12,3.35-7.47,7.47-7.47s7.47,3.35,7.47,7.47v11.6Z"/>
  <path class="cls-1" d="M15.76,71.38c0-.85-.51-1.62-1.3-1.94-.78-.33-1.69-.15-2.29.45l-7.07,7.01c-.83.82-.83,2.15-.01,2.98.82.83,2.15.83,2.98.01l3.48-3.45v23.59h-4.97c-1.16,0-2.11.94-2.11,2.11s.94,2.11,2.11,2.11h14.14c1.16,0,2.11-.94,2.11-2.11s-.94-2.11-2.11-2.11h-4.97v-28.64Z"/>
  <path class="cls-1" d="M114.35,100.02h-4.97v-28.64c0-.85-.51-1.62-1.3-1.94-.78-.33-1.69-.15-2.29.45l-7.07,7.01c-.83.82-.83,2.15-.01,2.98.82.83,2.15.83,2.98.01l3.48-3.45v23.59h-4.97c-1.16,0-2.11.94-2.11,2.11s.94,2.11,2.11,2.11h14.14c1.16,0,2.11-.94,2.11-2.11s-.94-2.11-2.11-2.11Z"/>
  <path class="cls-1" d="M150.73,80.95c0-6.44-5.24-11.68-11.68-11.68s-11.68,5.24-11.68,11.68v11.6c0,6.44,5.24,11.68,11.68,11.68s11.68-5.24,11.68-11.68v-11.6ZM146.52,92.56c0,4.12-3.35,7.47-7.47,7.47s-7.47-3.35-7.47-7.47v-11.6c0-4.12,3.35-7.47,7.47-7.47s7.47,3.35,7.47,7.47v11.6Z"/>
  <path class="cls-1" d="M177.89,100.02h-4.97v-28.64c0-.85-.51-1.62-1.3-1.94-.78-.33-1.69-.15-2.29.45l-7.07,7.01c-.83.82-.83,2.15-.01,2.98.82.83,2.15.83,2.98.01l3.48-3.45v23.59h-4.97c-1.16,0-2.11.94-2.11,2.11s.94,2.11,2.11,2.11h14.14c1.16,0,2.11-.94,2.11-2.11s-.94-2.11-2.11-2.11Z"/>
  <circle class="cls-1" cx="126.81" cy="175.18" r="3.98"/>
  <circle class="cls-1" cx="104.57" cy="175.18" r="3.98"/>
  <path class="cls-1" d="M82.32,171.21c-2.19,0-3.98,1.78-3.98,3.98s1.79,3.98,3.98,3.98,3.98-1.78,3.98-3.98-1.79-3.98-3.98-3.98Z"/>
  <path class="cls-1" d="M26.38,129.99c-.82-.82-2.16-.82-2.98,0L.62,152.78c-.82.82-.82,2.16,0,2.98l22.79,22.79c.41.41.95.62,1.49.62s1.08-.21,1.49-.62c.82-.82.82-2.16,0-2.98l-21.3-21.3,21.3-21.3c.82-.82.82-2.16,0-2.98Z"/>
  <path class="cls-1" d="M154,129.99c-.82-.82-2.16-.82-2.98,0-.82.82-.82,2.16,0,2.98l21.3,21.3-21.3,21.3c-.82.82-.82,2.16,0,2.98.41.41.95.62,1.49.62s1.08-.21,1.49-.62l22.79-22.79c.4-.39.62-.93.62-1.49s-.22-1.09-.62-1.49l-22.79-22.79Z"/>
  <path class="cls-1" d="M71.99,129.56c-1.06-.48-2.31,0-2.78,1.06l-20.42,45.58c-.48,1.06,0,2.31,1.06,2.78.28.13.57.18.86.18.8,0,1.57-.46,1.92-1.25l20.42-45.58c.48-1.06,0-2.31-1.06-2.78Z"/>
</svg>