<?xml version="1.0" encoding="UTF-8"?>
<svg id="Machine_Learning" data-name="Machine Learning" xmlns="http://www.w3.org/2000/svg" viewBox="0 0 180 180">
  <defs>
    <style>
      .cls-1 {
        stroke: #000;
        stroke-miterlimit: 10;
        stroke-width: 2px;
      }
    </style>
  </defs>
  <path class="cls-1" d="M115.93,53.01c2.78-.33,4.94-2.7,4.94-5.56,0-3.09-2.51-5.6-5.6-5.6s-5.6,2.51-5.6,5.6c0,1.82.88,3.44,2.24,4.47-6.27,22.63-14.03,42.06-20.88,58.26-8.57,20.26-20.36,37.7-33.19,49.1-12.42,11.04-24.22,15.02-33.21,11.22-9.16-3.88-14.68-15.95-15.13-33.13-.03-1.13-.96-2.03-2.09-2.03-.02,0-.04,0-.06,0-1.15.03-2.06.99-2.03,2.14.51,19.16,6.78,32.26,17.68,36.87,2.74,1.16,5.67,1.73,8.74,1.73,8.77,0,18.73-4.66,28.87-13.67,13.29-11.8,25.46-29.77,34.27-50.6,6.91-16.33,14.73-35.93,21.06-58.79Z"/>
  <path class="cls-1" d="M159.55,12.28c0-3.09-2.51-5.6-5.6-5.6s-5.6,2.51-5.6,5.6c0,2.02,1.08,3.79,2.69,4.78-9.98,58.47-24.92,95.43-35.84,116.31-13.45,25.71-26.41,37.88-33.27,38.53-1.15.11-1.99,1.13-1.88,2.28.1,1.08,1.01,1.89,2.08,1.89.07,0,.13,0,.2,0,16.45-1.56,54.3-49.63,72.84-158.3,2.51-.55,4.4-2.79,4.4-5.47Z"/>
  <path class="cls-1" d="M180,59.02c0-3.09-2.51-5.6-5.6-5.6s-5.6,2.51-5.6,5.6c0,1.85.9,3.49,2.29,4.51-10.81,58.35-29.01,98.77-49.02,108.57-1.04.51-1.46,1.76-.96,2.79.36.74,1.1,1.17,1.88,1.17.31,0,.62-.07.92-.21,10.25-5.02,20.3-17.56,29.06-36.26,9.1-19.45,16.55-44.67,22.18-75.01,2.74-.36,4.86-2.71,4.86-5.55Z"/>
  <path class="cls-1" d="M59.67,35.02c5.61,0,10.18-4.57,10.18-10.18v-9.81c0-5.61-4.57-10.18-10.18-10.18s-10.18,4.57-10.18,10.18v9.81c0,5.61,4.57,10.18,10.18,10.18ZM53.66,15.03c0-3.31,2.69-6,6-6s6,2.69,6,6v9.81c0,3.31-2.69,6-6,6s-6-2.69-6-6v-9.81Z"/>
  <path class="cls-1" d="M2.09,30.84C.94,30.84,0,31.78,0,32.93s.94,2.09,2.09,2.09h11.96c1.15,0,2.09-.94,2.09-2.09s-.94-2.09-2.09-2.09h-3.89V6.94c0-.84-.51-1.6-1.29-1.93-.78-.32-1.67-.15-2.27.44L.62,11.39c-.82.81-.82,2.13-.01,2.95.81.82,2.13.83,2.95.01l2.42-2.4v18.89h-3.89Z"/>
  <path class="cls-1" d="M81.23,30.84c-1.15,0-2.09.94-2.09,2.09s.94,2.09,2.09,2.09h11.96c1.15,0,2.09-.94,2.09-2.09s-.94-2.09-2.09-2.09h-3.89V6.94c0-.84-.51-1.6-1.29-1.93-.78-.32-1.68-.15-2.27.44l-5.98,5.93c-.82.81-.82,2.13-.01,2.95.81.82,2.13.83,2.95.01l2.42-2.4v18.89h-3.89Z"/>
  <path class="cls-1" d="M27.31,30.84c-1.15,0-2.09.94-2.09,2.09s.94,2.09,2.09,2.09h11.96c1.15,0,2.09-.94,2.09-2.09s-.94-2.09-2.09-2.09h-3.89V6.94c0-.84-.51-1.6-1.29-1.93-.78-.32-1.67-.15-2.27.44l-5.98,5.93c-.82.81-.82,2.13-.01,2.95.81.82,2.13.83,2.95.01l2.42-2.4v18.89h-3.89Z"/>
  <path class="cls-1" d="M59.67,78.5c5.61,0,10.18-4.57,10.18-10.18v-9.81c0-5.61-4.57-10.18-10.18-10.18s-10.18,4.57-10.18,10.18v9.81c0,5.61,4.57,10.18,10.18,10.18ZM53.66,58.52c0-3.31,2.69-6,6-6s6,2.69,6,6v9.81c0,3.31-2.69,6-6,6s-6-2.69-6-6v-9.81Z"/>
  <path class="cls-1" d="M2.09,74.33C.94,74.33,0,75.26,0,76.42s.94,2.09,2.09,2.09h11.96c1.15,0,2.09-.94,2.09-2.09s-.94-2.09-2.09-2.09h-3.89v-23.9c0-.84-.51-1.6-1.29-1.93-.78-.32-1.67-.15-2.27.44l-5.98,5.93c-.82.81-.82,2.13-.01,2.95.81.82,2.13.83,2.95.01l2.42-2.4v18.89h-3.89Z"/>
  <path class="cls-1" d="M27.31,74.33c-1.15,0-2.09.94-2.09,2.09s.94,2.09,2.09,2.09h11.96c1.15,0,2.09-.94,2.09-2.09s-.94-2.09-2.09-2.09h-3.89v-23.9c0-.84-.51-1.6-1.29-1.93s-1.67-.15-2.27.44l-5.98,5.93c-.82.81-.82,2.13-.01,2.95.81.82,2.13.83,2.95.01l2.42-2.4v18.89h-3.89Z"/>
  <path class="cls-1" d="M34.47,121c5.61,0,10.18-4.57,10.18-10.18v-9.81c0-5.61-4.57-10.18-10.18-10.18s-10.18,4.57-10.18,10.18v9.81c0,5.61,4.57,10.18,10.18,10.18ZM28.47,101.01c0-3.31,2.69-6,6-6s6,2.69,6,6v9.81c0,3.31-2.69,6-6,6s-6-2.69-6-6v-9.81Z"/>
  <path class="cls-1" d="M14.08,121c1.15,0,2.09-.94,2.09-2.09s-.94-2.09-2.09-2.09h-3.89v-23.9c0-.84-.51-1.6-1.28-1.93-.78-.32-1.67-.15-2.27.44l-5.98,5.93c-.82.81-.82,2.13-.01,2.95.81.82,2.13.83,2.95.01l2.42-2.4v18.89h-3.89c-1.15,0-2.09.94-2.09,2.09s.94,2.09,2.09,2.09h11.96Z"/>
</svg>