<?xml version="1.0" encoding="UTF-8"?>
<svg id="Machine_Learning" data-name="Machine Learning" xmlns="http://www.w3.org/2000/svg" viewBox="0 0 180 180">
  <defs>
    <style>
      .cls-1 {
        stroke: #000;
        stroke-miterlimit: 10;
        stroke-width: 2px;
      }
    </style>
  </defs>
  <path class="cls-1" d="M70.73,154.3c-2.04-.44-4.08-.99-6.05-1.62-.66-.21-1.39-.06-1.9.41l-12.16,10.92-12.71-7.34,3.37-16.01c.14-.68-.08-1.38-.6-1.85-1.54-1.4-3.02-2.88-4.42-4.42-.47-.51-1.17-.74-1.85-.6l-16.01,3.37-7.34-12.71,10.91-12.17c.46-.52.62-1.24.41-1.9-.63-1.97-1.17-4-1.61-6.05-.15-.68-.64-1.23-1.3-1.45l-15.54-5.08v-14.68l15.54-5.08c.66-.22,1.16-.77,1.3-1.45.44-2.04.98-4.07,1.61-6.05.21-.66.06-1.39-.41-1.9l-10.91-12.16,7.34-12.71,16.01,3.37c.68.15,1.38-.08,1.85-.6,1.4-1.54,2.89-3.03,4.42-4.42.51-.47.74-1.17.6-1.85l-3.37-16.01,12.71-7.34,12.17,10.92c.52.46,1.24.62,1.9.41,1.98-.63,4.01-1.18,6.05-1.62,1.06-.23,1.73-1.27,1.5-2.33-.23-1.06-1.27-1.73-2.33-1.5-1.79.39-3.58.85-5.34,1.38l-12.39-11.12c-.63-.57-1.55-.66-2.29-.24l-15.17,8.76c-.73.42-1.11,1.27-.94,2.1l3.44,16.31c-1.06.99-2.09,2.03-3.09,3.09l-16.31-3.44c-.83-.18-1.68.2-2.1.94l-8.76,15.17c-.42.73-.33,1.66.24,2.29l11.12,12.39c-.42,1.39-.8,2.81-1.13,4.24l-15.83,5.17C.54,80.11,0,80.86,0,81.7v17.52c0,.85.54,1.6,1.35,1.86l15.83,5.17c.33,1.43.71,2.84,1.13,4.24l-11.12,12.39c-.56.63-.66,1.55-.24,2.29l8.76,15.17c.42.73,1.26,1.11,2.1.94l16.31-3.44c.99,1.06,2.03,2.09,3.09,3.09l-3.44,16.31c-.18.83.2,1.68.94,2.1l15.17,8.76c.3.18.64.26.98.26.47,0,.94-.17,1.31-.5l12.4-11.12c1.75.53,3.54.99,5.33,1.38,1.05.23,2.1-.44,2.33-1.5.23-1.06-.44-2.1-1.5-2.33Z"/>
  <path class="cls-1" d="M71.84,73.3c.87-.65,1.05-1.87.4-2.74-.64-.87-1.87-1.05-2.74-.4-6.39,4.76-10.2,12.34-10.2,20.3s3.81,15.54,10.2,20.3c.35.26.76.39,1.17.39.6,0,1.19-.27,1.57-.79.65-.87.47-2.09-.4-2.74-5.48-4.08-8.63-10.34-8.63-17.16s3.14-13.08,8.63-17.16Z"/>
  <path class="cls-1" d="M71.26,133.15c-18.77-5.86-31.38-23.01-31.38-42.69s12.61-36.83,31.38-42.69c1.03-.32,1.61-1.42,1.29-2.45-.32-1.03-1.43-1.61-2.45-1.29-20.41,6.37-34.13,25.03-34.13,46.43s13.71,40.06,34.13,46.43c.19.06.39.09.58.09.83,0,1.61-.54,1.87-1.38.32-1.03-.25-2.13-1.29-2.45Z"/>
  <path class="cls-1" d="M110.91,73.69c1.08,0,1.96-.88,1.96-1.96,0-6.27,5.11-11.38,11.38-11.38,1.08,0,1.96-.88,1.96-1.96s-.88-1.96-1.96-1.96c-8.43,0-15.3,6.86-15.3,15.29,0,1.08.88,1.96,1.96,1.96Z"/>
  <path class="cls-1" d="M134.82,125.97c-8.43,0-15.29,6.86-15.29,15.29,0,1.08.88,1.96,1.96,1.96s1.96-.88,1.96-1.96c0-6.27,5.11-11.38,11.38-11.38,1.08,0,1.96-.88,1.96-1.96s-.88-1.96-1.96-1.96Z"/>
  <path class="cls-1" d="M132.06,79.23c6.28,0,11.38,5.11,11.38,11.38,0,1.08.88,1.96,1.96,1.96s1.96-.88,1.96-1.96c0-8.43-6.86-15.29-15.3-15.29-1.08,0-1.96.88-1.96,1.96s.88,1.96,1.96,1.96Z"/>
  <path class="cls-1" d="M102.79,93.95c0,1.08.88,1.96,1.96,1.96s1.96-.88,1.96-1.96c0-4.76-3.87-8.63-8.63-8.63-1.08,0-1.96.88-1.96,1.96s.88,1.96,1.96,1.96c2.6,0,4.71,2.11,4.71,4.71Z"/>
  <path class="cls-1" d="M127.42,97.23c0-1.08-.88-1.96-1.96-1.96s-1.96.88-1.96,1.96c0,7.13-5.8,12.93-12.93,12.93-5.62,0-10.19,4.57-10.19,10.19,0,1.08.88,1.96,1.96,1.96s1.96-.88,1.96-1.96c0-3.46,2.82-6.28,6.28-6.28,9.29,0,16.84-7.56,16.84-16.84Z"/>
  <path class="cls-1" d="M95.41,5.87h0c-3.41,0-6.62,1.33-9.03,3.74-2.41,2.41-3.74,5.62-3.74,9.03v143.64c0,7.04,5.73,12.77,12.77,12.77h0c22.59,0,43.84-8.8,59.81-24.78,15.98-15.98,24.78-37.22,24.78-59.82,0-46.64-37.95-84.59-84.59-84.59ZM95.41,171.14c-4.89,0-8.86-3.97-8.86-8.9v-15.11c3.19,3.91,8.04,6.41,13.47,6.41,1.08,0,1.96-.88,1.96-1.96s-.88-1.96-1.96-1.96c-7.43,0-13.47-6.04-13.47-13.47V43.63c2.8,3.13,6.86,5.11,11.38,5.11,1.08,0,1.96-.88,1.96-1.96s-.88-1.96-1.96-1.96c-6.28,0-11.38-5.11-11.38-11.38v-14.8c0-2.37.92-4.59,2.6-6.26,1.67-1.67,3.9-2.59,6.26-2.59h0c12.45,0,24.25,2.84,34.79,7.89-.06.18-.09.37-.09.57,0,6.45-5.25,11.69-11.69,11.69-1.08,0-1.96.88-1.96,1.96s.88,1.96,1.96,1.96c8.15,0,14.85-6.28,15.54-14.26,15.45,8.44,27.85,21.78,35.1,37.92-6.43-2.72-14.15-1.48-19.38,3.75-.76.76-.76,2,0,2.77.76.76,2,.76,2.77,0,5.25-5.25,13.72-5.34,19.1-.3,2.94,8.37,4.55,17.36,4.55,26.72,0,11-2.2,21.65-6.36,31.48-7.75-.61-13.88-7.09-13.88-15,0-1.08-.88-1.96-1.96-1.96s-1.96.88-1.96,1.96c0,9.48,6.99,17.36,16.08,18.75-2.94,6.04-6.65,11.72-11.07,16.92-1.85,1.79-4.28,2.78-6.86,2.78s-5.13-1.03-7-2.9c-.76-.76-2-.76-2.77,0-.76.76-.76,2,0,2.77,2.61,2.61,6.08,4.05,9.77,4.05.17,0,.34-.01.51-.02-15.01,14.1-34.5,21.85-55.18,21.85Z"/>
</svg>