<?xml version="1.0" encoding="UTF-8"?>
<svg id="Machine_Learning" data-name="Machine Learning" xmlns="http://www.w3.org/2000/svg" viewBox="0 0 180 180">
  <defs>
    <style>
      .cls-1 {
        stroke: #000;
        stroke-miterlimit: 10;
        stroke-width: 2px;
      }
    </style>
  </defs>
  <path class="cls-1" d="M72.17,35.67c6.46,0,11.71-5.25,11.71-11.71v-11.79c0-6.46-5.25-11.71-11.71-11.71s-11.71,5.25-11.71,11.71v11.79c0,6.46,5.25,11.71,11.71,11.71ZM64.42,12.17c0-4.27,3.48-7.75,7.75-7.75s7.75,3.48,7.75,7.75v11.79c0,4.27-3.48,7.75-7.75,7.75s-7.75-3.48-7.75-7.75v-11.79Z"/>
  <path class="cls-1" d="M17.31,35.67c1.09,0,1.98-.89,1.98-1.98s-.89-1.98-1.98-1.98h-5.21V2.44c0-.8-.48-1.52-1.22-1.83-.74-.31-1.59-.14-2.16.42L1.54,8.16c-.78.77-.78,2.02-.01,2.8.77.78,2.02.78,2.8.01l3.81-3.78v24.52H2.93c-1.09,0-1.98.89-1.98,1.98s.89,1.98,1.98,1.98h14.38Z"/>
  <path class="cls-1" d="M98.1,31.71c-1.09,0-1.98.89-1.98,1.98s.89,1.98,1.98,1.98h14.38c1.09,0,1.98-.89,1.98-1.98s-.89-1.98-1.98-1.98h-5.21V2.44c0-.8-.48-1.52-1.22-1.83-.74-.31-1.59-.14-2.16.42l-7.19,7.13c-.78.77-.78,2.02-.01,2.8.77.78,2.02.78,2.8.01l3.81-3.78v24.52h-5.21Z"/>
  <path class="cls-1" d="M33.27,31.71c-1.09,0-1.98.89-1.98,1.98s.89,1.98,1.98,1.98h14.38c1.09,0,1.98-.89,1.98-1.98s-.89-1.98-1.98-1.98h-5.21V2.44c0-.8-.48-1.52-1.22-1.83-.74-.31-1.59-.14-2.16.42l-7.19,7.13c-.78.77-.78,2.02-.01,2.8.77.78,2.02.78,2.8.01l3.81-3.78v24.52h-5.21Z"/>
  <path class="cls-1" d="M167.34.46c-6.46,0-11.71,5.25-11.71,11.71v11.79c0,6.46,5.25,11.71,11.71,11.71s11.71-5.25,11.71-11.71v-11.79c0-6.46-5.25-11.71-11.71-11.71ZM175.08,23.97c0,4.27-3.48,7.75-7.75,7.75s-7.75-3.48-7.75-7.75v-11.79c0-4.27,3.48-7.75,7.75-7.75s7.75,3.48,7.75,7.75v11.79Z"/>
  <path class="cls-1" d="M128.43,31.71c-1.09,0-1.98.89-1.98,1.98s.89,1.98,1.98,1.98h14.38c1.09,0,1.98-.89,1.98-1.98s-.89-1.98-1.98-1.98h-5.21V2.44c0-.8-.48-1.52-1.22-1.83s-1.59-.14-2.16.42l-7.19,7.13c-.78.77-.78,2.02-.01,2.8.77.78,2.02.78,2.8.01l3.81-3.78v24.52h-5.21Z"/>
  <path class="cls-1" d="M173.63,91.96l-82.97-29.46c-.43-.15-.9-.15-1.33,0L6.36,91.96c-.79.28-1.32,1.03-1.32,1.87v13.95c0,1.09.89,1.98,1.98,1.98s1.98-.89,1.98-1.98v-11.14l79.01,28.06v20.57l-8.86-3.15c-1.03-.37-2.16.17-2.53,1.2-.37,1.03.17,2.16,1.2,2.53l11.5,4.08s0,0,.01,0c.21.07.43.12.65.12s.44-.04.66-.12l11.5-4.08c1.03-.37,1.57-1.5,1.2-2.53-.37-1.03-1.5-1.57-2.53-1.2l-8.86,3.15v-20.57l79.01-28.06v11.14c0,1.09.89,1.98,1.98,1.98s1.98-.89,1.98-1.98v-13.95c0-.84-.53-1.59-1.32-1.87ZM90,121.19L12.95,93.83l77.05-27.36,77.05,27.36-77.05,27.36Z"/>
  <path class="cls-1" d="M73.37,129.62l-22.86,8.12c-.79.28-1.32,1.03-1.32,1.87v38.88c0,1.09.89,1.98,1.98,1.98s1.98-.89,1.98-1.98v-37.48l21.54-7.65c1.03-.37,1.57-1.5,1.2-2.53-.37-1.03-1.5-1.57-2.53-1.2Z"/>
  <path class="cls-1" d="M31.76,114.3c-.37-1.03-1.5-1.57-2.53-1.2l-22.86,8.12c-.79.28-1.32,1.03-1.32,1.87v38.88c0,1.09.89,1.98,1.98,1.98s1.98-.89,1.98-1.98v-37.48l21.54-7.65c1.03-.37,1.57-1.5,1.2-2.53Z"/>
  <path class="cls-1" d="M52.43,122.33c-.37-1.03-1.5-1.57-2.53-1.2l-22.86,8.12c-.79.28-1.32,1.03-1.32,1.87v38.88c0,1.09.89,1.98,1.98,1.98s1.98-.89,1.98-1.98v-37.49l21.54-7.65c1.03-.37,1.57-1.5,1.2-2.53Z"/>
  <path class="cls-1" d="M129.49,137.73l-22.86-8.12c-1.03-.37-2.16.17-2.53,1.2-.37,1.03.17,2.16,1.2,2.53l21.54,7.65v37.48c0,1.09.89,1.98,1.98,1.98s1.98-.89,1.98-1.98v-38.88c0-.84-.53-1.59-1.32-1.87Z"/>
  <path class="cls-1" d="M173.63,121.22l-22.86-8.12c-1.03-.37-2.16.17-2.53,1.2-.37,1.03.17,2.16,1.2,2.53l21.54,7.65v37.48c0,1.09.89,1.98,1.98,1.98s1.98-.89,1.98-1.98v-38.88c0-.84-.53-1.59-1.32-1.87Z"/>
  <path class="cls-1" d="M152.96,129.24l-22.86-8.12c-1.03-.37-2.16.17-2.53,1.2-.37,1.03.17,2.16,1.2,2.53l21.54,7.65v37.49c0,1.09.89,1.98,1.98,1.98s1.98-.89,1.98-1.98v-38.88c0-.84-.53-1.59-1.32-1.87Z"/>
</svg>