<?xml version="1.0" encoding="UTF-8"?>
<svg id="Machine_Learning" data-name="Machine Learning" xmlns="http://www.w3.org/2000/svg" viewBox="0 0 180 180">
  <defs>
    <style>
      .cls-1 {
        stroke: #000;
        stroke-miterlimit: 10;
        stroke-width: 2px;
      }
    </style>
  </defs>
  <path class="cls-1" d="M168.88,127.19V54.25c6.28-.94,11.12-6.36,11.12-12.9,0-7.2-5.86-13.06-13.06-13.06-4.98,0-9.32,2.81-11.52,6.92l-52.72-18.72c.22-.96.35-1.95.35-2.97,0-7.2-5.86-13.06-13.06-13.06s-13.06,5.86-13.06,13.06c0,1.02.13,2.02.35,2.97l-52.72,18.72c-2.2-4.11-6.54-6.92-11.52-6.92C5.86,28.3,0,34.15,0,41.35,0,47.9,4.84,53.31,11.12,54.25v72.93C4.84,128.12,0,133.54,0,140.08,0,147.28,5.86,153.14,13.06,153.14c4.98,0,9.32-2.81,11.52-6.92l52.61,18.68c-.16.81-.25,1.64-.25,2.5,0,7.2,5.86,13.06,13.06,13.06s13.06-5.86,13.06-13.06c0-.85-.09-1.69-.25-2.5l52.61-18.68c2.2,4.11,6.54,6.92,11.52,6.92,7.2,0,13.06-5.86,13.06-13.06,0-6.54-4.84-11.96-11.12-12.9ZM166.94,32.16c5.07,0,9.19,4.12,9.19,9.19s-4.12,9.19-9.19,9.19-9.19-4.12-9.19-9.19,4.12-9.19,9.19-9.19ZM90,4.33c5.07,0,9.19,4.12,9.19,9.19s-4.12,9.19-9.19,9.19-9.19-4.12-9.19-9.19,4.12-9.19,9.19-9.19ZM78.73,20.09c1.96,3.34,5.35,5.74,9.33,6.33v17.39c0,1.07.87,1.93,1.93,1.93s1.93-.87,1.93-1.93v-17.39c3.98-.6,7.38-2.99,9.33-6.33l52.86,18.77c-.16.81-.25,1.64-.25,2.5s.09,1.69.25,2.5l-52.61,18.68c-2.2-4.11-6.54-6.92-11.52-6.92s-9.32,2.81-11.52,6.92l-52.61-18.68c.16-.81.25-1.64.25-2.5s-.09-1.69-.25-2.5l52.86-18.77ZM90,77.87c-5.07,0-9.19-4.12-9.19-9.19s4.12-9.19,9.19-9.19,9.19,4.12,9.19,9.19-4.12,9.19-9.19,9.19ZM3.87,41.35c0-5.07,4.12-9.19,9.19-9.19s9.19,4.12,9.19,9.19-4.12,9.19-9.19,9.19-9.19-4.12-9.19-9.19ZM13.06,149.27c-5.07,0-9.19-4.12-9.19-9.19s4.12-9.19,9.19-9.19,9.19,4.12,9.19,9.19-4.12,9.19-9.19,9.19ZM78.48,161.26l-52.61-18.68c.16-.81.25-1.64.25-2.5s-.09-1.69-.25-2.5l51.03-18.12c1.01-.36,1.53-1.46,1.17-2.47-.36-1.01-1.46-1.53-2.47-1.17l-51.03,18.12c-1.91-3.57-5.43-6.14-9.58-6.76V54.25c4.15-.62,7.67-3.19,9.58-6.76l52.61,18.68c-.16.81-.25,1.64-.25,2.5,0,6.54,4.84,11.96,11.12,12.9v72.93c-4.15.62-7.67,3.19-9.58,6.76ZM90,176.6c-5.07,0-9.19-4.12-9.19-9.19s4.12-9.19,9.19-9.19,9.19,4.12,9.19,9.19-4.12,9.19-9.19,9.19ZM155.43,133.94l-51.03-18.12c-1.01-.36-2.11.17-2.47,1.17-.36,1.01.17,2.11,1.17,2.47l51.03,18.12c-.16.81-.25,1.64-.25,2.5s.09,1.69.25,2.5l-52.61,18.68c-1.91-3.57-5.43-6.14-9.58-6.76v-72.93c6.28-.94,11.12-6.36,11.12-12.9,0-.85-.09-1.69-.25-2.5l52.61-18.68c1.91,3.57,5.43,6.14,9.58,6.76v72.93c-4.15.62-7.67,3.19-9.58,6.76ZM166.94,149.27c-5.07,0-9.19-4.12-9.19-9.19s4.12-9.19,9.19-9.19,9.19,4.12,9.19,9.19-4.12,9.19-9.19,9.19Z"/>
</svg>