<?xml version="1.0" encoding="UTF-8"?>
<svg id="Machine_Learning" data-name="Machine Learning" xmlns="http://www.w3.org/2000/svg" viewBox="0 0 180 180">
  <defs>
    <style>
      .cls-1 {
        stroke: #000;
        stroke-miterlimit: 10;
        stroke-width: 2px;
      }
    </style>
  </defs>
  <path class="cls-1" d="M64.87,45.08c-.98-.42-2.12.03-2.54,1.01-1.47,3.43-1.52,7.24-.14,10.71,1.39,3.47,4.04,6.19,7.47,7.67.25.11.51.16.76.16.75,0,1.46-.44,1.78-1.17.42-.98-.03-2.12-1.01-2.54-2.48-1.07-4.41-3.04-5.41-5.55-1-2.51-.97-5.26.1-7.75.42-.98-.03-2.12-1.01-2.54Z"/>
  <path class="cls-1" d="M108.81,60.92c-.98.42-1.44,1.56-1.01,2.54.31.73,1.03,1.17,1.78,1.17.25,0,.51-.05.76-.16,7.09-3.04,10.38-11.29,7.34-18.37-.42-.98-1.56-1.43-2.54-1.01-.98.42-1.44,1.56-1.01,2.54,2.2,5.13-.18,11.09-5.31,13.3Z"/>
  <path class="cls-1" d="M36.27,71.27c0,5.58-4.54,10.12-10.12,10.12-1.07,0-1.93.87-1.93,1.93s.87,1.93,1.93,1.93c7.71,0,13.99-6.28,13.99-13.99,0-1.07-.87-1.93-1.93-1.93s-1.93.87-1.93,1.93Z"/>
  <path class="cls-1" d="M155.79,83.33c0-1.07-.87-1.93-1.93-1.93-5.58,0-10.12-4.54-10.12-10.12,0-1.07-.87-1.93-1.93-1.93s-1.93.87-1.93,1.93c0,7.71,6.28,13.99,13.99,13.99,1.07,0,1.93-.87,1.93-1.93Z"/>
  <path class="cls-1" d="M159.11,49.75c.14-1.21.22-2.43.22-3.62,0-17.02-13.84-30.86-30.86-30.86-3.78,0-7.46.68-10.96,2.01C112.24,7,101.64.46,90,.46s-22.24,6.54-27.51,16.81c-3.5-1.34-7.18-2.01-10.96-2.01-17.02,0-30.86,13.85-30.86,30.86,0,1.19.07,2.41.22,3.62C8.51,53.97,0,65.75,0,78.95,0,95.97,13.84,109.81,30.86,109.81h9.93c1.07,0,1.93-.87,1.93-1.93s-.87-1.93-1.93-1.93h-9.93c-14.89,0-27-12.11-27-27,0-12.05,8.1-22.74,19.7-25.99.95-.27,1.55-1.21,1.38-2.19-.27-1.55-.41-3.12-.41-4.64,0-3.16.55-6.19,1.55-9.01,2.54,6.82,9.1,11.7,16.79,11.7,1.07,0,1.93-.87,1.93-1.93s-.87-1.93-1.93-1.93c-7.54,0-13.7-5.97-14.03-13.44,4.81-7.44,13.18-12.39,22.68-12.39,3.86,0,7.6.81,11.12,2.4.47.21,1.01.23,1.49.04.48-.19.87-.56,1.08-1.03,4.05-9.25,12.88-15.43,22.85-16.14v69.14c0,1.07.87,1.93,1.93,1.93s1.93-.87,1.93-1.93V4.4c9.96.71,18.8,6.89,22.85,16.14.21.47.6.84,1.08,1.03.48.18,1.02.17,1.49-.04,3.51-1.59,7.25-2.4,11.12-2.4,9.5,0,17.87,4.94,22.68,12.39-.33,7.46-6.49,13.44-14.04,13.44-1.07,0-1.93.87-1.93,1.93s.87,1.93,1.93,1.93c7.7,0,14.26-4.88,16.8-11.7,1,2.82,1.55,5.85,1.55,9.01,0,1.53-.14,3.09-.41,4.64-.17.98.43,1.92,1.38,2.19,11.6,3.25,19.7,13.94,19.7,25.99,0,14.89-12.11,27-27,27h-9.92c-1.07,0-1.93.87-1.93,1.93s.87,1.93,1.93,1.93h9.92c17.02,0,30.86-13.84,30.86-30.86,0-13.21-8.51-24.98-20.89-29.2Z"/>
  <path class="cls-1" d="M136.24,126.91l-12.27-5.47c-.48-1.4-1.06-2.79-1.72-4.14l4.82-12.56c.27-.71.1-1.52-.44-2.06l-6.22-6.22c-.54-.54-1.35-.71-2.06-.44l-12.55,4.81c-1.35-.66-2.74-1.24-4.14-1.72l-5.47-12.27c-.31-.7-1-1.15-1.77-1.15h-8.8c-.76,0-1.45.45-1.77,1.15l-5.47,12.27c-1.4.48-2.79,1.06-4.14,1.72l-12.56-4.81c-.71-.27-1.52-.1-2.06.44l-6.22,6.22c-.54.54-.71,1.35-.44,2.06l4.81,12.55c-.66,1.35-1.24,2.74-1.72,4.14l-12.27,5.47c-.7.31-1.15,1-1.15,1.77v8.8c0,.76.45,1.45,1.15,1.77l12.27,5.47c.48,1.4,1.06,2.79,1.73,4.15l-4.81,12.55c-.27.71-.1,1.52.44,2.06l6.22,6.22c.54.54,1.35.71,2.06.44l12.56-4.81c1.35.67,2.74,1.24,4.14,1.72l5.47,12.27c.31.7,1,1.15,1.77,1.15h8.8c.76,0,1.45-.45,1.77-1.15l5.47-12.27c1.4-.48,2.79-1.06,4.15-1.72l12.55,4.81c.71.27,1.52.1,2.06-.44l6.22-6.22c.54-.54.71-1.35.44-2.06l-4.81-12.56c.66-1.35,1.24-2.74,1.72-4.14l12.27-5.47c.7-.31,1.15-1,1.15-1.77v-8.8c0-.76-.45-1.45-1.15-1.77ZM133.52,136.23l-11.91,5.31c-.51.23-.89.66-1.06,1.18-.55,1.75-1.27,3.48-2.14,5.14-.26.49-.29,1.07-.09,1.59l4.67,12.18-4.45,4.45-12.18-4.67c-.52-.2-1.09-.17-1.58.09-1.67.87-3.4,1.59-5.14,2.14-.53.17-.96.55-1.18,1.06l-5.31,11.91h-6.29l-5.31-11.91c-.23-.51-.66-.89-1.18-1.06-1.74-.55-3.47-1.27-5.14-2.14-.49-.26-1.07-.29-1.59-.09l-12.18,4.67-4.45-4.45,4.67-12.18c.2-.52.17-1.09-.09-1.59-.87-1.66-1.59-3.39-2.14-5.14-.17-.53-.55-.96-1.06-1.18l-11.91-5.31v-6.29l11.91-5.31c.51-.22.89-.66,1.06-1.18.55-1.75,1.27-3.48,2.14-5.14.26-.49.29-1.07.09-1.59l-4.67-12.18,4.45-4.45,12.18,4.67c.52.2,1.09.17,1.59-.09,1.67-.87,3.4-1.59,5.14-2.14.53-.17.96-.55,1.18-1.06l5.31-11.91h6.29l5.31,11.91c.23.51.66.89,1.18,1.06,1.75.55,3.48,1.27,5.14,2.14.49.26,1.07.29,1.59.09l12.18-4.67,4.45,4.45-4.67,12.18c-.2.52-.17,1.09.09,1.59.87,1.67,1.59,3.4,2.14,5.14.17.53.55.96,1.06,1.19l11.91,5.31v6.29Z"/>
  <path class="cls-1" d="M90,115.81c-9.52,0-17.27,7.75-17.27,17.27s7.75,17.27,17.27,17.27,17.27-7.75,17.27-17.27-7.75-17.27-17.27-17.27ZM90,146.48c-7.39,0-13.4-6.01-13.4-13.4s6.01-13.4,13.4-13.4,13.4,6.01,13.4,13.4-6.01,13.4-13.4,13.4Z"/>
  <circle class="cls-1" cx="155.31" cy="132.2" r="3.65"/>
  <circle class="cls-1" cx="176.35" cy="132.2" r="3.65"/>
  <circle class="cls-1" cx="3.65" cy="132.2" r="3.65" transform="translate(-5.34 .26) rotate(-2.32)"/>
  <circle class="cls-1" cx="24.69" cy="132.2" r="3.65"/>
</svg>