<?xml version="1.0" encoding="UTF-8"?>
<svg id="Machine_Learning" data-name="Machine Learning" xmlns="http://www.w3.org/2000/svg" viewBox="0 0 180 180">
  <defs>
    <style>
      .cls-1 {
        stroke: #000;
        stroke-miterlimit: 10;
        stroke-width: 2px;
      }
    </style>
  </defs>
  <path class="cls-1" d="M154.12,50c0-2.9-2.36-5.26-5.26-5.26-.65,0-1.26.12-1.84.34l-20.76-21.64c.27-.63.42-1.32.42-2.05,0-2.9-2.36-5.26-5.26-5.26-1.79,0-3.37.9-4.32,2.26l-21.95-4.48c-.5-2.39-2.62-4.19-5.15-4.19s-4.65,1.8-5.15,4.19l-21.95,4.48c-.95-1.36-2.53-2.26-4.32-2.26-2.9,0-5.26,2.36-5.26,5.26,0,.73.15,1.42.42,2.05l-20.76,21.64c-.57-.21-1.19-.34-1.84-.34-2.9,0-5.26,2.36-5.26,5.26,0,2.16,1.31,4.02,3.18,4.83v34.31c-1.87.81-3.18,2.67-3.18,4.83,0,2.9,2.36,5.26,5.26,5.26.04,0,.07,0,.1,0l22.31,49.01c-.81.93-1.31,2.14-1.31,3.46,0,2.9,2.36,5.26,5.26,5.26,1.37,0,2.62-.53,3.56-1.39l23.67,10.36s0,.02,0,.03c0,2.9,2.36,5.26,5.26,5.26s5.26-2.36,5.26-5.26c0,0,0-.02,0-.03l23.67-10.36c.94.86,2.18,1.39,3.56,1.39,2.9,0,5.26-2.36,5.26-5.26,0-1.33-.5-2.54-1.31-3.46l22.31-49.01s.07,0,.1,0c2.9,0,5.26-2.36,5.26-5.26,0-2.16-1.31-4.02-3.18-4.83v-34.31c1.87-.81,3.18-2.67,3.18-4.83ZM90,160.69c-1.38,0-2.64.54-3.58,1.42l-23.65-10.35s0-.04,0-.07c0-.91-.23-1.77-.64-2.52l9.9-12.27c.45.13.92.2,1.41.2,2.16,0,4.02-1.31,4.83-3.18h23.47c.81,1.87,2.67,3.18,4.83,3.18.49,0,.96-.07,1.41-.2l9.9,12.27c-.41.75-.64,1.6-.64,2.52,0,.02,0,.04,0,.07l-23.65,10.35c-.94-.88-2.2-1.42-3.58-1.42ZM58.58,26.64c2.53,0,4.65-1.8,5.15-4.18l21.96-4.48c.18.25.37.49.59.71l-17.4,43.79c-1.28.04-2.44.53-3.33,1.32l-29.16-13.65c0-.05,0-.11,0-.16,0-.72-.15-1.42-.41-2.04l20.76-21.64c.57.21,1.19.34,1.83.34ZM121.42,26.64c.65,0,1.26-.12,1.83-.34l20.76,21.64c-.27.63-.41,1.32-.41,2.05,0,.05,0,.11,0,.16l-29.16,13.65c-.89-.79-2.05-1.28-3.33-1.32l-17.4-43.79c.22-.22.42-.46.59-.71l21.96,4.48c.5,2.38,2.62,4.18,5.15,4.18ZM101.73,129.76h-23.47c-.43-.98-1.14-1.81-2.04-2.37l2.63-17.21c1.57-.41,2.86-1.53,3.5-3h15.3c.64,1.47,1.93,2.59,3.5,3l2.63,17.21c-.9.56-1.62,1.39-2.04,2.37ZM101.52,99.92c-1.74.32-3.18,1.5-3.87,3.09h-15.3c-.69-1.58-2.13-2.76-3.87-3.09l-6.35-27.94c.75-.55,1.36-1.29,1.73-2.16h32.27c.37.87.98,1.61,1.73,2.16l-6.35,27.94ZM107.24,64.02c-.47.47-.85,1.02-1.11,1.64h-32.27c-.27-.61-.64-1.17-1.11-1.64l17.24-43.41,17.24,43.41ZM34.63,53.93l29.16,13.65c0,.05,0,.11,0,.16,0,2.57,1.86,4.72,4.3,5.17l6.35,27.94c-.42.31-.79.68-1.1,1.09l-37-8.87c-.31-1.77-1.49-3.24-3.09-3.93v-34.31c.52-.22.99-.53,1.4-.9ZM35.35,97.11l37,8.87c.26,1.5,1.15,2.78,2.39,3.55l-2.63,17.21c-2.26.59-3.93,2.64-3.93,5.08,0,.88.22,1.72.61,2.45l-9.94,12.32c-.43-.11-.87-.18-1.34-.18-.06,0-.12,0-.19,0l-22.29-48.95c.11-.12.21-.25.31-.38ZM122.49,146.43c-.46,0-.91.07-1.34.18l-9.94-12.32c.39-.73.61-1.57.61-2.45,0-2.44-1.67-4.49-3.93-5.08l-2.63-17.21c1.24-.78,2.13-2.06,2.39-3.55l37-8.87c.1.13.2.26.31.38l-22.29,48.95c-.06,0-.12,0-.19,0ZM143.68,93.06l-37,8.87c-.31-.42-.68-.78-1.1-1.09l6.35-27.94c2.44-.45,4.3-2.6,4.3-5.17,0-.05,0-.11,0-.16l29.16-13.65c.42.37.89.67,1.4.9v34.31c-1.6.69-2.79,2.16-3.1,3.93Z"/>
  <path class="cls-1" d="M18.39,4.63c1.15,0,2.08-.93,2.08-2.08s-.93-2.08-2.08-2.08H2.08C.93.46,0,1.39,0,2.54v175.84c0,1.15.93,2.08,2.08,2.08h16.3c1.15,0,2.08-.93,2.08-2.08s-.93-2.08-2.08-2.08H4.16V4.63h14.22Z"/>
  <path class="cls-1" d="M177.92.46h-16.3c-1.15,0-2.08.93-2.08,2.08s.93,2.08,2.08,2.08h14.22v171.67h-14.22c-1.15,0-2.08.93-2.08,2.08s.93,2.08,2.08,2.08h16.3c1.15,0,2.08-.93,2.08-2.08V2.54c0-1.15-.93-2.08-2.08-2.08Z"/>
</svg>