<?xml version="1.0" encoding="UTF-8"?>
<svg id="Machine_Learning" data-name="Machine Learning" xmlns="http://www.w3.org/2000/svg" viewBox="0 0 180 180">
  <defs>
    <style>
      .cls-1 {
        stroke: #000;
        stroke-miterlimit: 10;
        stroke-width: 2px;
      }
    </style>
  </defs>
  <path class="cls-1" d="M90,.46c-7.17,0-13,5.83-13,13,0,6.51,4.81,11.9,11.07,12.84v152.23c0,1.07.87,1.93,1.93,1.93s1.93-.87,1.93-1.93V26.3c6.25-.94,11.07-6.33,11.07-12.84,0-7.17-5.83-13-13-13ZM90,22.59c-5.04,0-9.13-4.1-9.13-9.13s4.1-9.13,9.13-9.13,9.13,4.1,9.13,9.13-4.1,9.13-9.13,9.13Z"/>
  <path class="cls-1" d="M58.2,106.88v-42.96c6.25-.94,11.07-6.33,11.07-12.84,0-7.17-5.83-13-13-13s-13,5.83-13,13c0,6.51,4.81,11.9,11.07,12.84v43.63c0,.43.15.86.42,1.2l12.72,16.12v53.66c0,1.07.87,1.93,1.93,1.93s1.93-.87,1.93-1.93v-54.33c0-.43-.15-.86-.42-1.2l-12.72-16.12ZM47.13,51.08c0-5.04,4.1-9.13,9.13-9.13s9.13,4.1,9.13,9.13-4.1,9.13-9.13,9.13-9.13-4.1-9.13-9.13Z"/>
  <path class="cls-1" d="M27.81,120.2v-21.97c6.25-.94,11.07-6.33,11.07-12.84,0-7.17-5.83-13-13-13s-13,5.83-13,13c0,6.51,4.81,11.9,11.07,12.84v22.6c0,.41.13.81.37,1.14l22.55,30.88v25.67c0,1.07.87,1.93,1.93,1.93s1.93-.87,1.93-1.93v-26.3c0-.41-.13-.81-.37-1.14l-22.55-30.88ZM16.74,85.39c0-5.04,4.1-9.13,9.13-9.13s9.13,4.1,9.13,9.13-4.1,9.13-9.13,9.13-9.13-4.1-9.13-9.13Z"/>
  <path class="cls-1" d="M136.73,51.08c0-7.17-5.83-13-13-13s-13,5.83-13,13c0,6.51,4.81,11.9,11.07,12.84v42.96l-12.72,16.12c-.27.34-.42.76-.42,1.2v54.33c0,1.07.87,1.93,1.93,1.93s1.93-.87,1.93-1.93v-53.66l12.72-16.12c.27-.34.42-.76.42-1.2v-43.63c6.25-.94,11.07-6.33,11.07-12.84ZM114.6,51.08c0-5.04,4.1-9.13,9.13-9.13s9.13,4.1,9.13,9.13-4.1,9.13-9.13,9.13-9.13-4.1-9.13-9.13Z"/>
  <path class="cls-1" d="M167.12,85.39c0-7.17-5.83-13-13-13s-13,5.83-13,13c0,6.51,4.81,11.9,11.07,12.84v21.97l-22.55,30.88c-.24.33-.37.73-.37,1.14v26.3c0,1.07.87,1.93,1.93,1.93s1.93-.87,1.93-1.93v-25.67l22.55-30.88c.24-.33.37-.73.37-1.14v-22.6c6.25-.94,11.07-6.33,11.07-12.84ZM154.13,94.52c-5.04,0-9.13-4.1-9.13-9.13s4.1-9.13,9.13-9.13,9.13,4.1,9.13,9.13-4.1,9.13-9.13,9.13Z"/>
</svg>