<?xml version="1.0" encoding="UTF-8"?>
<svg id="Machine_Learning" data-name="Machine Learning" xmlns="http://www.w3.org/2000/svg" viewBox="0 0 180 180">
  <defs>
    <style>
      .cls-1 {
        stroke: #000;
        stroke-miterlimit: 10;
        stroke-width: 2px;
      }
    </style>
  </defs>
  <path class="cls-1" d="M180,41.12c0-5.9-4.8-10.7-10.7-10.7s-10.7,4.8-10.7,10.7c0,5.25,3.81,9.63,8.81,10.52v14.4l-10.05,12.74c-.26.33-.41.75-.41,1.17v24.61c0,1.04.85,1.89,1.89,1.89s1.89-.85,1.89-1.89v-23.96l10.05-12.74c.26-.33.41-.75.41-1.17v-15.06c5-.9,8.81-5.27,8.81-10.52ZM169.3,48.04c-3.82,0-6.92-3.11-6.92-6.92s3.11-6.92,6.92-6.92,6.92,3.11,6.92,6.92-3.11,6.92-6.92,6.92Z"/>
  <path class="cls-1" d="M144.75.46c-5.9,0-10.7,4.8-10.7,10.7,0,5.25,3.81,9.63,8.81,10.52v82.88c0,1.04.85,1.89,1.89,1.89s1.89-.85,1.89-1.89V21.68c5-.9,8.81-5.27,8.81-10.52,0-5.9-4.8-10.7-10.7-10.7ZM144.75,18.08c-3.82,0-6.92-3.11-6.92-6.92s3.11-6.92,6.92-6.92,6.92,3.11,6.92,6.92-3.11,6.92-6.92,6.92Z"/>
  <path class="cls-1" d="M122.08,66.04v-14.4c5-.9,8.81-5.27,8.81-10.52,0-5.9-4.8-10.7-10.7-10.7s-10.7,4.8-10.7,10.7c0,5.25,3.81,9.63,8.81,10.52v15.06c0,.42.14.84.41,1.17l10.05,12.74v23.96c0,1.04.85,1.89,1.89,1.89s1.89-.85,1.89-1.89v-24.61c0-.42-.14-.84-.41-1.17l-10.05-12.74ZM113.27,41.12c0-3.82,3.11-6.92,6.92-6.92s6.92,3.11,6.92,6.92-3.11,6.92-6.92,6.92-6.92-3.11-6.92-6.92Z"/>
  <path class="cls-1" d="M120.19,159.84h-5.81c-.68-17.55-10.82-30.9-25.52-34.66-10.43-7.53-10.39-17.01-10.34-26.99,0-.69,0-1.38,0-2.07,0-8.1,3.87-16.6,10.61-23.31,1.93-1.92,2.64-3.98,1.96-5.65-1.16-2.81-5.45-2.81-6.86-2.81h-9.67c7.57-4.59,12.63-12.91,12.63-22.38,0-14.43-11.74-26.16-26.16-26.16s-26.16,11.74-26.16,26.16c0,9.48,5.07,17.79,12.63,22.38h-9.67c-1.41,0-5.7,0-6.85,2.81-.69,1.67.02,3.73,1.95,5.65,6.74,6.71,10.61,15.21,10.61,23.31,0,.69,0,1.38,0,2.07.06,11.17.11,21.73-14.53,29.6-.02,0-.03.02-.05.03-12.07,5.83-20.58,17.92-21.28,32.02H1.89C.85,159.84,0,160.69,0,161.73v16.84c0,1.04.85,1.89,1.89,1.89h118.3c1.04,0,1.89-.85,1.89-1.89v-16.84c0-1.04-.85-1.89-1.89-1.89ZM38.66,41.96c0-12.34,10.04-22.38,22.38-22.38s22.38,10.04,22.38,22.38-10.04,22.38-22.38,22.38-22.38-10.04-22.38-22.38ZM47.34,98.17c0-.69,0-1.37,0-2.06,0-9.1-4.27-18.57-11.72-25.99-.67-.67-.99-1.24-1.07-1.51.27-.15,1.11-.49,3.31-.49h46.39c2.2,0,3.04.34,3.31.49-.09.27-.4.84-1.07,1.51-7.45,7.41-11.72,16.89-11.72,25.99,0,.68,0,1.37,0,2.06-.04,8.96-.08,18.15,7.2,25.98-.58-.03-1.17-.04-1.76-.04h-34.89c-1.86,0-3.69.14-5.48.4,7.61-7.9,7.57-17.24,7.53-26.34ZM45.29,127.88h34.89c17.08,0,29.63,13.33,30.43,31.97H11.48c.98-17.79,15.77-31.97,33.8-31.97ZM118.3,176.69H3.78v-13.07h114.53v13.07Z"/>
  <circle class="cls-1" cx="144.75" cy="124.12" r="3.57"/>
  <path class="cls-1" d="M144.75,138.15c-1.97,0-3.57,1.6-3.57,3.57s1.6,3.57,3.57,3.57,3.57-1.6,3.57-3.57-1.6-3.57-3.57-3.57Z"/>
  <circle class="cls-1" cx="144.75" cy="159.3" r="3.57"/>
  <circle class="cls-1" cx="144.75" cy="176.9" r="3.57"/>
</svg>