<?xml version="1.0" encoding="UTF-8"?>
<svg id="Machine_Learning" data-name="Machine Learning" xmlns="http://www.w3.org/2000/svg" viewBox="0 0 180 180">
  <defs>
    <style>
      .cls-1 {
        stroke: #000;
        stroke-miterlimit: 10;
        stroke-width: 2px;
      }
    </style>
  </defs>
  <path class="cls-1" d="M177.92,157.79H22.67V2.54c0-1.15-.93-2.08-2.08-2.08H2.08C.93.46,0,1.39,0,2.54v157.33c0,1.15.93,2.08,2.08,2.08h16.43v16.43c0,1.15.93,2.08,2.08,2.08h157.33c1.15,0,2.08-.93,2.08-2.08v-18.51c0-1.15-.93-2.08-2.08-2.08ZM4.16,57.07h14.34v48.28H4.16v-48.28ZM4.16,4.63h14.34v48.28H4.16V4.63ZM4.16,109.51h14.34v48.28H4.16v-48.28ZM22.67,161.95h48.28v14.34H22.67v-14.34ZM75.12,161.95h48.28v14.34h-48.28v-14.34ZM175.84,176.3h-48.28v-14.34h48.28v14.34Z"/>
  <path class="cls-1" d="M39.88,142.7c.36.02.72.03,1.07.03,15.92,0,22.97-22.04,29.8-43.37,5.5-17.18,11.18-34.94,20.6-34.94.08,0,.16,0,.24,0,6.49,0,10.1,8.4,13.91,17.3,4.24,9.89,8.63,20.11,18.12,19.73,12.47-.06,18.05-21.57,24.51-46.47,1.07-4.14,2.18-8.39,3.32-12.53.57.07,1.14.13,1.73.13,7.27,0,13.19-5.92,13.19-13.19,0-4.83-2.62-9.05-6.5-11.34,4.48-9.34,9.35-13.73,14.86-13.39,1.16.07,2.14-.8,2.2-1.95.07-1.15-.81-2.13-1.95-2.2-7.44-.45-13.66,4.8-18.99,16.02-.91-.2-1.85-.31-2.82-.31-7.27,0-13.19,5.92-13.19,13.19,0,5.22,3.06,9.73,7.47,11.87-1.16,4.19-2.28,8.49-3.36,12.68-5.53,21.31-11.24,43.35-20.52,43.35-.03,0-.06,0-.09,0-6.65.3-10.29-8.2-14.16-17.21-4.24-9.89-8.61-20.1-18.04-19.81-12.4,0-18.28,18.38-24.51,37.83-6.49,20.29-13.22,41.27-26.65,40.45-1.15-.05-2.13.81-2.2,1.95-.07,1.15.81,2.13,1.95,2.2ZM144.15,29.38c0-4.98,4.05-9.02,9.02-9.02s9.02,4.05,9.02,9.02-4.05,9.02-9.02,9.02-9.02-4.05-9.02-9.02Z"/>
  <path class="cls-1" d="M44.27,31.47h12.28c1.15,0,2.08-.93,2.08-2.08s-.93-2.08-2.08-2.08h-12.28c-1.15,0-2.08.93-2.08,2.08s.93,2.08,2.08,2.08Z"/>
  <path class="cls-1" d="M76.84,31.47h12.28c1.15,0,2.08-.93,2.08-2.08s-.93-2.08-2.08-2.08h-12.28c-1.15,0-2.08.93-2.08,2.08s.93,2.08,2.08,2.08Z"/>
  <path class="cls-1" d="M109.41,31.47h12.28c1.15,0,2.08-.93,2.08-2.08s-.93-2.08-2.08-2.08h-12.28c-1.15,0-2.08.93-2.08,2.08s.93,2.08,2.08,2.08Z"/>
</svg>