<?xml version="1.0" encoding="UTF-8"?>
<svg id="Machine_Learning" data-name="Machine Learning" xmlns="http://www.w3.org/2000/svg" viewBox="0 0 180 180">
  <defs>
    <style>
      .cls-1 {
        stroke: #000;
        stroke-miterlimit: 10;
        stroke-width: 2px;
      }
    </style>
  </defs>
  <path class="cls-1" d="M46.89,108.28c0,7.36,5.99,13.34,13.34,13.34s13.35-5.99,13.35-13.34-5.99-13.35-13.35-13.35-13.34,5.99-13.34,13.35ZM60.23,98.85c5.2,0,9.43,4.23,9.43,9.43s-4.23,9.43-9.43,9.43-9.43-4.23-9.43-9.43,4.23-9.43,9.43-9.43Z"/>
  <path class="cls-1" d="M179.58,85.53l-12.47-15.97c1.56-1.91,2.49-4.35,2.49-7.01,0-5.74-4.36-10.47-9.95-11.07v-25.19c0-7.99-6.5-14.49-14.49-14.49-2.49,0-4.84.63-6.89,1.74H41.71c-4.13-5.98-11.03-9.91-18.83-9.91-6.11,0-11.86,2.38-16.18,6.7C2.38,14.66,0,20.41,0,26.52c0,6.11,2.38,11.85,6.7,16.18,2.52,2.52,5.52,4.37,8.79,5.48l18.92,41.41c-3.82,5.26-6.08,11.72-6.08,18.7,0,7.56,2.61,14.71,7.4,20.43l-9.28,22.3h-8.04c-.68,0-1.31.35-1.66.93l-5.26,8.48h-5.73c-1.08,0-1.96.88-1.96,1.96v12.95c0,1.08.88,1.96,1.96,1.96h108.93c1.08,0,1.96-.88,1.96-1.96v-12.95c0-1.08-.88-1.96-1.96-1.96h-5.73l-5.26-8.48c-.36-.58-.99-.93-1.66-.93h-8.04l-9.29-22.31c4.62-5.54,7.41-12.65,7.41-20.41,0-16.66-12.84-30.37-29.14-31.78l-16.92-37.02h84.61v12c-5.58.59-9.95,5.33-9.95,11.07,0,2.65.94,5.09,2.49,7.01l-12.47,15.97c-.55.71-.55,1.7,0,2.41l15.32,19.62c.39.49.96.75,1.55.75.42,0,.85-.14,1.2-.41.85-.67,1-1.9.34-2.75l-14.38-18.42,11.41-14.62c1.66.99,3.6,1.57,5.67,1.57h26.6c2.07,0,4.01-.58,5.67-1.57l11.41,14.62-14.38,18.42c-.67.85-.51,2.08.34,2.75.36.28.78.41,1.2.41.58,0,1.16-.26,1.55-.75l15.32-19.62c.55-.71.55-1.7,0-2.41ZM145.18,15.72c5.83,0,10.57,4.74,10.57,10.57v25.13h-21.14v-25.13c0-5.83,4.74-10.57,10.57-10.57ZM3.92,26.52c0-5.07,1.97-9.83,5.55-13.41,3.58-3.58,8.34-5.55,13.41-5.55,10.45,0,18.96,8.51,18.96,18.96s-8.51,18.96-18.96,18.96c-5.06,0-9.83-1.97-13.41-5.55-3.58-3.58-5.55-8.34-5.55-13.41ZM106.21,163.41c.36.58.99.93,1.66.93h4.86v9.04H7.73v-9.04h4.86c.68,0,1.31-.35,1.66-.93l5.26-8.48h81.45l5.26,8.48ZM30.7,151.01l7.99-19.2c5.9,5.41,13.49,8.37,21.54,8.37s15.86-3.18,21.54-8.39l8,19.22H30.7ZM88.22,108.28c0,15.43-12.55,27.98-27.99,27.98-7.47,0-14.5-2.91-19.79-8.19-5.29-5.29-8.2-12.31-8.2-19.79,0-15.43,12.55-27.99,27.98-27.99s27.99,12.56,27.99,27.99ZM58.65,76.42c-8.42.41-15.99,4.11-21.46,9.83l-16.91-37.01c.85.1,1.72.15,2.59.15,7.8,0,14.7-3.93,18.83-9.91h.07l16.88,36.93ZM44.29,35.57l-.22-.47c1.08-2.65,1.67-5.54,1.67-8.58,0-3.21-.67-6.27-1.87-9.05h89.83c-1.89,2.45-3.02,5.5-3.02,8.82v9.28H44.29ZM131.88,69.77c-3.98,0-7.22-3.24-7.22-7.22s3.24-7.22,7.22-7.22h26.6c3.98,0,7.22,3.24,7.22,7.22s-3.24,7.22-7.22,7.22h-26.6Z"/>
  <path class="cls-1" d="M26.58,26.52c0-2.04-1.66-3.7-3.7-3.7s-3.7,1.66-3.7,3.7,1.66,3.7,3.7,3.7,3.7-1.66,3.7-3.7Z"/>
</svg>