<?xml version="1.0" encoding="UTF-8"?>
<svg id="Machine_Learning" data-name="Machine Learning" xmlns="http://www.w3.org/2000/svg" viewBox="0 0 180 180">
  <defs>
    <style>
      .cls-1 {
        stroke: #000;
        stroke-miterlimit: 10;
        stroke-width: 2px;
      }
    </style>
  </defs>
  <path class="cls-1" d="M97.7,158.85c-1.07,0-1.93.87-1.93,1.93v17.75c0,1.07.87,1.93,1.93,1.93s1.93-.87,1.93-1.93v-17.75c0-1.07-.87-1.93-1.93-1.93Z"/>
  <path class="cls-1" d="M162.28,97.73c-6.82-13.89-14.83-30.22-16.06-32.8C145.76,19.75,126.33.46,81.32.46,45.53.46,16.42,29.58,16.42,65.36v2.73c0,9.32,7.58,16.9,16.91,16.9h25.11c.93,10.91,9.64,19.63,20.55,20.58v18.72c0,12.82,10.43,23.25,23.26,23.25h8.25v30.98c0,1.07.87,1.93,1.93,1.93s1.93-.87,1.93-1.93v-30.98h19.65c6.74,0,12.22-5.48,12.22-12.22v-28.02c2.79,0,7.94.02,11.19,0,2.67-.02,4.52-.83,5.49-2.41,1.09-1.76.88-4.1-.62-7.16ZM62.21,83.05c0-10.34,8.41-18.75,18.75-18.75s18.75,8.41,18.75,18.75-8.41,18.75-18.75,18.75-18.75-8.41-18.75-18.75ZM159.61,102.86c-.16.26-.84.56-2.24.57-4.57.04-12.99,0-13.07,0-.48,0-1.01.2-1.37.56-.36.36-.57.86-.57,1.37v29.96c0,4.61-3.75,8.36-8.36,8.36h-31.77c-10.69,0-19.39-8.7-19.39-19.39v-18.71c11.59-.96,20.73-10.7,20.73-22.53,0-12.47-10.15-22.62-22.62-22.62-11.82,0-21.55,9.12-22.53,20.7h-25.11c-7.19,0-13.04-5.85-13.04-13.04v-2.73c0-33.66,27.38-61.04,61.04-61.04,43.03,0,60.71,17.69,61.04,61.04q0,.55,16.46,34.07c1.25,2.55.85,3.34.8,3.43Z"/>
  <path class="cls-1" d="M34.53,101.45c-.6-.88-1.8-1.11-2.68-.52-.88.6-1.11,1.8-.52,2.68l.87,1.28c7.64,11.24,14.86,21.86,14.85,39.89v33.74c0,1.07.87,1.93,1.93,1.93s1.93-.87,1.93-1.93v-33.74c0-19.23-7.88-30.84-15.52-42.07l-.86-1.27Z"/>
  <path class="cls-1" d="M50.36,100.92c-.89.59-1.14,1.79-.55,2.68,6.43,9.78,12.71,20.8,12.71,38.29v36.64c0,1.07.87,1.93,1.93,1.93s1.93-.87,1.93-1.93v-36.64c.01-18.56-6.88-30.59-13.34-40.42-.59-.89-1.79-1.14-2.68-.55Z"/>
  <path class="cls-1" d="M66.87,39.85c-1.07,0-1.93.87-1.93,1.93v8c0,1.07.87,1.93,1.93,1.93s1.93-.87,1.93-1.93v-8c0-1.07-.87-1.93-1.93-1.93Z"/>
  <path class="cls-1" d="M80.96,39.85c-1.07,0-1.93.87-1.93,1.93v8c0,1.07.87,1.93,1.93,1.93s1.93-.87,1.93-1.93v-8c0-1.07-.87-1.93-1.93-1.93Z"/>
  <path class="cls-1" d="M95.05,39.85c-1.07,0-1.93.87-1.93,1.93v8c0,1.07.87,1.93,1.93,1.93s1.93-.87,1.93-1.93v-8c0-1.07-.87-1.93-1.93-1.93Z"/>
</svg>