<?xml version="1.0" encoding="UTF-8"?>
<svg id="Finance_Investment_Economics" data-name="Finance, Investment &amp;amp; Economics" xmlns="http://www.w3.org/2000/svg" viewBox="0 0 180 180">
  <defs>
    <style>
      .cls-1 {
        stroke: #000;
        stroke-miterlimit: 10;
        stroke-width: 2px;
      }
    </style>
  </defs>
  <path class="cls-1" d="M142.34,71.84h-39.9c-2.55,0-4.62,2.07-4.62,4.62v1.5c-4.83-2.74-10.79-2.74-15.62,0v-1.5c0-2.55-2.07-4.62-4.62-4.62h-39.9c-2.55,0-4.62,2.07-4.62,4.62v20.58c0,2.55,2.07,4.62,4.62,4.62h39.9c2.55,0,4.62-2.07,4.62-4.62v-14.25c4.46-3.91,11.16-3.91,15.62,0v14.25c0,2.55,2.07,4.62,4.62,4.62h39.9c2.55,0,4.62-2.07,4.62-4.62v-20.58c0-2.55-2.07-4.62-4.62-4.62ZM78.23,97.04c0,.36-.3.66-.66.66h-39.9c-.36,0-.66-.3-.66-.66v-20.58c0-.36.3-.66.66-.66h39.9c.36,0,.66.3.66.66v20.58ZM143,97.04c0,.36-.3.66-.66.66h-39.9c-.36,0-.66-.3-.66-.66v-20.58c0-.36.3-.66.66-.66h39.9c.36,0,.66.3.66.66v20.58Z"/>
  <path class="cls-1" d="M126.89,0H53.11C33.94,0,18.34,15.6,18.34,34.77v73.57c0,39.51,32.14,71.66,71.66,71.66s71.66-32.14,71.66-71.66V34.77c0-19.17-15.6-34.77-34.77-34.77ZM53.11,3.96h73.77c16.99,0,30.81,13.82,30.81,30.81v14.97c-11.35-.45-20.66-4.89-27.7-13.23-.46-.54-1.17-.8-1.87-.67-.7.13-1.28.62-1.51,1.29-.15.43-1.36,5.11-3.28,12.63-11.54-.36-20.99-4.81-28.11-13.25-.46-.54-1.17-.8-1.87-.67-.7.13-1.28.62-1.51,1.29-.15.43-1.37,5.11-3.28,12.63-11.54-.36-20.99-4.81-28.11-13.25-.46-.54-1.17-.8-1.87-.67-.7.13-1.28.62-1.51,1.29-.15.43-1.36,5.11-3.28,12.63-16.79-.52-26.27-9.6-31.37-17.49,1.28-15.82,14.55-28.31,30.7-28.31ZM90,176.04c-37.33,0-67.7-30.37-67.7-67.7V38.82c6.32,7.64,16.64,14.93,33.02,14.93.91,0,1.7-.61,1.92-1.49,1.31-5.17,2.15-8.42,2.68-10.46,7.9,7.94,18.04,11.95,30.18,11.95.91,0,1.7-.61,1.92-1.49,1.31-5.17,2.15-8.42,2.68-10.46,7.9,7.94,18.04,11.95,30.18,11.95.91,0,1.7-.61,1.92-1.49,1.31-5.17,2.15-8.42,2.68-10.46,7.48,7.51,16.95,11.5,28.23,11.91v54.64c0,37.33-30.37,67.7-67.7,67.7Z"/>
  <path class="cls-1" d="M104.41,141.03h-28.82c-1.09,0-1.98.89-1.98,1.98s.89,1.98,1.98,1.98h28.82c1.09,0,1.98-.89,1.98-1.98s-.89-1.98-1.98-1.98Z"/>
</svg>