<?xml version="1.0" encoding="UTF-8"?>
<svg id="Finance_Investment_Economics" data-name="Finance, Investment &amp;amp; Economics" xmlns="http://www.w3.org/2000/svg" viewBox="0 0 180 180">
  <defs>
    <style>
      .cls-1 {
        stroke: #000;
        stroke-miterlimit: 10;
        stroke-width: 2px;
      }
    </style>
  </defs>
  <path class="cls-1" d="M142.34,71.84h-39.9c-2.55,0-4.62,2.07-4.62,4.62v1.5c-4.83-2.74-10.79-2.74-15.62,0v-1.5c0-2.55-2.07-4.62-4.62-4.62h-39.9c-2.55,0-4.62,2.07-4.62,4.62v20.58c0,2.55,2.07,4.62,4.62,4.62h39.9c2.55,0,4.62-2.07,4.62-4.62v-14.25c4.46-3.91,11.16-3.91,15.62,0v14.25c0,2.55,2.07,4.62,4.62,4.62h39.9c2.55,0,4.62-2.07,4.62-4.62v-20.58c0-2.55-2.07-4.62-4.62-4.62ZM78.23,97.04c0,.36-.3.66-.66.66h-39.9c-.36,0-.66-.3-.66-.66v-20.58c0-.36.3-.66.66-.66h39.9c.36,0,.66.3.66.66v20.58ZM143,97.04c0,.36-.3.66-.66.66h-39.9c-.36,0-.66-.3-.66-.66v-20.58c0-.36.3-.66.66-.66h39.9c.36,0,.66.3.66.66v20.58Z"/>
  <path class="cls-1" d="M109.16,137.6c-5.71,3.75-12.34,5.74-19.16,5.74s-13.46-1.98-19.17-5.74c-.91-.6-2.14-.35-2.74.57-.6.91-.35,2.14.57,2.74,6.36,4.18,13.74,6.39,21.34,6.39s14.98-2.21,21.34-6.39c.91-.6,1.17-1.83.57-2.74-.6-.91-1.83-1.17-2.74-.57Z"/>
  <path class="cls-1" d="M126.89,0H53.11C33.94,0,18.34,15.6,18.34,34.77v73.57c0,39.51,32.14,71.66,71.66,71.66s71.66-32.14,71.66-71.66V34.77c0-19.17-15.6-34.77-34.77-34.77ZM53.11,3.96h73.77c16.99,0,30.81,13.82,30.81,30.81v14.97c-11.34-.46-20.64-4.9-27.67-13.23-.46-.54-1.17-.8-1.87-.67-.7.13-1.28.62-1.51,1.29-.15.43-1.37,5.11-3.28,12.63-11.54-.36-20.99-4.81-28.11-13.25-.46-.54-1.17-.8-1.87-.67-.7.13-1.28.62-1.51,1.29-.15.43-1.37,5.11-3.28,12.62-11.54-.36-20.99-4.81-28.11-13.25-.46-.54-1.17-.8-1.87-.67-.7.13-1.28.62-1.51,1.29-.15.43-1.37,5.11-3.28,12.63-16.82-.52-26.31-9.63-31.4-17.54,1.3-15.8,14.56-28.27,30.7-28.27ZM90,176.04c-37.33,0-67.7-30.37-67.7-67.7V38.78c6.32,7.66,16.64,14.97,33.05,14.97.91,0,1.7-.61,1.92-1.49,1.31-5.17,2.15-8.42,2.68-10.46,7.9,7.94,18.04,11.95,30.18,11.95.91,0,1.7-.61,1.92-1.49,1.32-5.17,2.15-8.42,2.68-10.46,7.9,7.94,18.04,11.95,30.18,11.95.91,0,1.7-.61,1.92-1.49,1.31-5.17,2.15-8.42,2.68-10.46,7.47,7.5,16.93,11.49,28.2,11.91v54.64c0,37.33-30.37,67.7-67.7,67.7Z"/>
</svg>