<?xml version="1.0" encoding="UTF-8"?>
<svg id="Finance_Investment_Economics" data-name="Finance, Investment &amp;amp; Economics" xmlns="http://www.w3.org/2000/svg" viewBox="0 0 180 180">
  <defs>
    <style>
      .cls-1 {
        stroke: #000;
        stroke-miterlimit: 10;
        stroke-width: 2px;
      }
    </style>
  </defs>
  <path class="cls-1" d="M172.38,31.95L90.67.13c-.43-.17-.91-.17-1.33,0L7.62,31.95c-.71.28-1.17.96-1.17,1.71v13.13c0,1.02.82,1.84,1.84,1.84h6.82v9.46c0,.61.31,1.19.82,1.53l5.2,3.47v58.37c0,1.02.82,1.84,1.84,1.84s1.84-.82,1.84-1.84v-59.35c0-.61-.31-1.19-.82-1.53l-5.2-3.47v-8.48h30.15v8.48l-5.2,3.47c-.51.34-.82.92-.82,1.53v32.79c0,1.02.82,1.84,1.84,1.84s1.84-.82,1.84-1.84v-31.8l5.2-3.47c.51-.34.82-.92.82-1.53v-9.46h18.62v9.46c0,.61.31,1.19.82,1.53l5.2,3.47v17.55c0,1.02.82,1.84,1.84,1.84s1.84-.82,1.84-1.84v-18.54c0-.61-.31-1.19-.82-1.53l-5.2-3.47v-8.48h30.15v8.48l-5.2,3.47c-.51.34-.82.92-.82,1.53v18.54c0,1.02.82,1.84,1.84,1.84s1.84-.82,1.84-1.84v-17.55l5.2-3.47c.51-.34.82-.92.82-1.53v-9.46h18.62v9.46c0,.61.31,1.19.82,1.53l5.2,3.47v31.8c0,1.02.82,1.84,1.84,1.84s1.84-.82,1.84-1.84v-32.79c0-.61-.31-1.19-.82-1.53l-5.2-3.47v-8.48h30.15v8.48l-5.2,3.47c-.51.34-.82.92-.82,1.53v59.35c0,1.02.82,1.84,1.84,1.84s1.84-.82,1.84-1.84v-58.37l5.2-3.47c.51-.34.82-.92.82-1.53v-9.46h6.82c1.02,0,1.84-.82,1.84-1.84v-13.13c0-.76-.47-1.44-1.17-1.71ZM169.87,44.96H10.13v-10.04L90,3.81l79.87,31.11v10.04Z"/>
  <path class="cls-1" d="M89.33,18.59l-23.87,9.3c-.95.37-1.41,1.43-1.05,2.38.37.95,1.44,1.41,2.38,1.05l23.2-9.04,23.2,9.04c.22.09.44.13.67.13.74,0,1.43-.45,1.71-1.17.37-.95-.1-2.01-1.05-2.38l-23.87-9.3c-.43-.17-.91-.17-1.33,0Z"/>
  <path class="cls-1" d="M128.37,126.19c0-.12.02-.25.02-.37v-18.77c0-9.83-16.86-17.53-38.39-17.53s-38.39,7.7-38.39,17.53v18.77c0,.12.01.25.02.37-20.65.42-36.57,7.96-36.57,17.51v18.77c0,9.83,16.86,17.53,38.39,17.53,17.33,0,31.64-4.99,36.55-12.07,4.92,7.08,19.22,12.07,36.56,12.07,21.53,0,38.39-7.7,38.39-17.53v-18.77c0-9.55-15.92-17.09-36.57-17.51ZM90,93.19c20.77,0,34.71,7.16,34.71,13.86s-13.95,13.86-34.71,13.86-34.72-7.16-34.72-13.86,13.95-13.86,34.72-13.86ZM90,124.58c15.52,0,28.61-4,34.71-9.92v11.16c0,6.69-13.95,13.86-34.71,13.86s-34.72-7.16-34.72-13.86v-11.16c6.1,5.92,19.2,9.92,34.72,9.92ZM88.16,162.47c0,6.69-13.95,13.86-34.72,13.86s-34.72-7.16-34.72-13.86v-11.16c6.1,5.92,19.2,9.92,34.72,9.92s28.62-4,34.72-9.92v11.16ZM53.45,157.56c-20.77,0-34.72-7.16-34.72-13.86s13.57-13.65,33.87-13.85c3.76,7.56,17.92,13.11,35.54,13.48,0,.12.02.25.02.37,0,6.69-13.95,13.86-34.72,13.86ZM161.27,162.47c0,6.69-13.95,13.86-34.72,13.86s-34.72-7.16-34.72-13.86v-11.16c6.1,5.92,19.2,9.92,34.72,9.92s28.61-4,34.72-9.92v11.16ZM126.56,157.56c-20.77,0-34.72-7.16-34.72-13.86,0-.12.01-.25.02-.37,17.62-.37,31.78-5.92,35.54-13.48,20.3.19,33.87,7.25,33.87,13.85s-13.95,13.86-34.72,13.86Z"/>
</svg>