<?xml version="1.0" encoding="UTF-8"?>
<svg id="Finance_Investment_Economics" data-name="Finance, Investment &amp;amp; Economics" xmlns="http://www.w3.org/2000/svg" viewBox="0 0 180 180">
  <defs>
    <style>
      .cls-1 {
        stroke: #000;
        stroke-miterlimit: 10;
        stroke-width: 2px;
      }
    </style>
  </defs>
  <path class="cls-1" d="M177.8,175.61h-13.9v-56.05c0-1.21-.98-2.2-2.2-2.2h-19.01c-1.21,0-2.2.98-2.2,2.2v56.05h-13.52v-86.33c0-1.21-.98-2.2-2.2-2.2h-19.01c-1.21,0-2.2.98-2.2,2.2v86.33h-13.52V31.46c0-1.21-.98-2.2-2.2-2.2h-19.01c-1.21,0-2.2.98-2.2,2.2v144.15h-13.52v-56.34c0-1.21-.98-2.2-2.2-2.2h-19.01c-1.21,0-2.2.98-2.2,2.2v56.34H4.39v-24.88h8.72c1.21,0,2.2-.98,2.2-2.2s-.98-2.2-2.2-2.2H4.39v-24.88h8.72c1.21,0,2.2-.98,2.2-2.2s-.98-2.2-2.2-2.2H4.39v-24.88h8.72c1.21,0,2.2-.98,2.2-2.2s-.98-2.2-2.2-2.2H4.39v-24.88h8.72c1.21,0,2.2-.98,2.2-2.2s-.98-2.2-2.2-2.2H4.39v-24.88h8.72c1.21,0,2.2-.98,2.2-2.2s-.98-2.2-2.2-2.2H4.39V4.39h8.72c1.21,0,2.2-.98,2.2-2.2S14.32,0,13.11,0H2.2C.98,0,0,.98,0,2.2v175.61c0,1.21.98,2.2,2.2,2.2h175.61c1.21,0,2.2-.98,2.2-2.2s-.98-2.2-2.2-2.2ZM144.89,121.75h14.62v53.86h-14.62v-53.86ZM107.97,91.47h14.62v84.14h-14.62v-84.14ZM71.04,33.66h14.62v141.95h-14.62V33.66ZM34.12,175.61v-54.15h14.62v54.15h-14.62Z"/>
  <path class="cls-1" d="M150.01,63.26v5.85c0,1.21.98,2.2,2.2,2.2s2.2-.98,2.2-2.2v-5.85c3.62-.5,7.03-2.19,9.58-4.83,2.95-3.06,4.49-7.03,4.33-11.19-.35-9.42-7.41-13.24-13.64-16.6-6.17-3.33-9.95-5.64-9.98-10.86,0-1.8.86-3.76,2.32-5.22,1.46-1.47,3.31-2.28,5.19-2.28,4.14,0,7.51,3.37,7.51,7.51,0,1.21.98,2.2,2.2,2.2s2.2-.98,2.2-2.2c0-5.81-4.19-10.65-9.7-11.69V2.2C154.4.98,153.42,0,152.2,0s-2.2.98-2.2,2.2v5.9c-2.25.45-4.37,1.6-6.11,3.35-2.3,2.31-3.61,5.35-3.6,8.34.03,8.1,6.54,11.61,12.28,14.71,5.7,3.08,11.09,5.99,11.34,12.9.11,2.95-1,5.79-3.11,7.98-2.24,2.32-5.38,3.66-8.62,3.66-6.46,0-11.72-5.26-11.72-11.72,0-1.21-.98-2.2-2.2-2.2s-2.2.98-2.2,2.2c0,8.14,6.07,14.87,13.92,15.95Z"/>
  <path class="cls-1" d="M23.32,33.66h11.32c1.21,0,2.2-.98,2.2-2.2s-.98-2.2-2.2-2.2h-11.32c-1.21,0-2.2.98-2.2,2.2s.98,2.2,2.2,2.2Z"/>
  <path class="cls-1" d="M45.27,33.66h11.32c1.21,0,2.2-.98,2.2-2.2s-.98-2.2-2.2-2.2h-11.32c-1.21,0-2.2.98-2.2,2.2s.98,2.2,2.2,2.2Z"/>
</svg>