<?xml version="1.0" encoding="UTF-8"?>
<svg id="Finance_Investment_Economics" data-name="Finance, Investment &amp;amp; Economics" xmlns="http://www.w3.org/2000/svg" viewBox="0 0 180 180">
  <defs>
    <style>
      .cls-1 {
        stroke: #000;
        stroke-miterlimit: 10;
        stroke-width: 2px;
      }
    </style>
  </defs>
  <path class="cls-1" d="M117.43,162.76c-18.14,5.89-22.03,5.88-30.56,5.84-1.4,0-3,0-4.4,0-10.9.05-14.57.06-52.5-13.37C-2.84,143.61,3.35,116.05,6.68,101.24c2.32-10.31,9.54-35,9.66-35.42,3.81-12.36,4.43-18.16,2.24-20.69-1.6-1.84-3.39-3.43-5.12-4.98-4.08-3.64-7.6-6.78-7.6-11.97,0-9.5,7.73-17.23,17.23-17.23,8.54,0,15.88,6.37,17.06,14.81.14.99.81,4.34,3.63,6.11,1.94,1.22,4.35,1.38,7.18.48,8.65-2.77,19.69-4.23,33.69-4.47,14.06.24,25.1,1.71,33.75,4.47,2.82.9,5.23.74,7.18-.48,2.82-1.77,3.5-5.13,3.63-6.11,1.19-8.44,8.52-14.81,17.06-14.81,9.5,0,17.23,7.73,17.23,17.23,0,5.19-3.52,8.33-7.6,11.97-1.73,1.54-3.52,3.14-5.12,4.98-2.2,2.53-1.57,8.33,2.24,20.69.13.42,2.96,10,4.1,14.02.3,1.05,1.38,1.66,2.43,1.36,1.05-.3,1.66-1.39,1.36-2.43-1.14-4.04-3.99-13.68-4.12-14.11-4.26-13.85-3.39-16.47-3.03-16.94,1.43-1.65,3.13-3.16,4.77-4.62,4.39-3.91,8.92-7.96,8.92-14.91,0-11.67-9.5-21.17-21.17-21.17-10.49,0-19.51,7.83-20.96,18.2-.03.24-.38,2.41-1.83,3.32-.91.57-2.22.59-3.88.06-9.02-2.89-20.44-4.41-34.95-4.66-14.45.25-25.86,1.77-34.89,4.66-1.66.53-2.97.51-3.88-.06-1.45-.91-1.79-3.08-1.83-3.32-1.46-10.38-10.47-18.2-20.96-18.2C11.41,7.01,1.92,16.51,1.92,28.18c0,6.96,4.54,11,8.92,14.91,1.64,1.46,3.33,2.97,4.76,4.62.37.47,1.24,3.1-3.03,16.95-.13.43-7.4,25.3-9.74,35.72-3.34,14.86-10.29,45.78,25.83,58.57,36.36,12.87,41.87,13.6,51.93,13.6.61,0,4.88-.01,6.27,0,8.69.04,13.05.06,31.79-6.03,1.04-.34,1.6-1.45,1.27-2.48-.34-1.03-1.45-1.6-2.48-1.27Z"/>
  <path class="cls-1" d="M98.06,98.43c-2.74-3.05-7.23-4.66-13.42-4.78-6.12.12-10.61,1.72-13.35,4.78-2.96,3.3-2.67,7.06-2.66,7.21.04.48.26.92.6,1.26l13.47,12.82v8.18c0,1.09.88,1.97,1.97,1.97s1.97-.88,1.97-1.97v-8.18l13.47-12.82c.35-.33.56-.78.6-1.26.01-.16.31-3.92-2.66-7.21ZM84.68,116.15l-12.09-11.51c.09-.81.43-2.24,1.63-3.58,1.95-2.18,5.58-3.38,10.42-3.47,4.86.09,8.47,1.27,10.44,3.41,1.25,1.36,1.6,2.82,1.69,3.64l-12.09,11.51Z"/>
  <path class="cls-1" d="M85.01,135.9c-.22-.04-.44-.04-.66,0-.28.05-7,1.25-14.68,8.37-.8.74-.85,1.99-.11,2.79.39.42.92.63,1.45.63.48,0,.96-.17,1.34-.53,5.84-5.41,11-6.97,12.33-7.31,1.34.33,6.51,1.9,12.34,7.31.8.74,2.05.69,2.79-.11.74-.8.69-2.05-.11-2.79-7.68-7.12-14.4-8.33-14.68-8.37Z"/>
  <path class="cls-1" d="M115.46,100.18c.69.84,1.93.96,2.77.27.84-.69.96-1.93.27-2.77-7.75-9.43-20.4-15.06-33.83-15.06-15.37,0-29,6.98-36.45,18.67-5.87,9.21-10.47,25.34.97,49.9.33.72,1.05,1.14,1.79,1.14.28,0,.56-.06.83-.18.99-.46,1.41-1.63.95-2.62-10.68-22.94-6.56-37.74-1.22-46.12,6.62-10.39,19.32-16.84,33.13-16.84,12.26,0,23.77,5.09,30.78,13.62Z"/>
  <path class="cls-1" d="M49.3,72.82c0,2.29,1.87,4.16,4.16,4.16s4.16-1.87,4.16-4.16-1.87-4.16-4.16-4.16-4.16,1.87-4.16,4.16Z"/>
  <path class="cls-1" d="M61.85,66.41c.5,0,1.01-.19,1.39-.58.77-.77.77-2.02,0-2.79-5.39-5.39-14.17-5.39-19.56,0-.77.77-.77,2.02,0,2.79.77.77,2.02.77,2.79,0,3.86-3.86,10.13-3.85,13.98,0,.38.38.89.58,1.39.58Z"/>
  <path class="cls-1" d="M115.89,68.66c-2.29,0-4.16,1.87-4.16,4.16s1.87,4.16,4.16,4.16,4.16-1.87,4.16-4.16-1.87-4.16-4.16-4.16Z"/>
  <path class="cls-1" d="M124.28,66.41c.5,0,1.01-.19,1.39-.58.77-.77.77-2.02,0-2.79-5.39-5.39-14.17-5.39-19.56,0-.77.77-.77,2.02,0,2.79.77.77,2.02.77,2.79,0,3.86-3.86,10.13-3.86,13.98,0,.38.38.89.58,1.39.58Z"/>
  <path class="cls-1" d="M179.87,139.98c-.29-.76-1.02-1.27-1.84-1.27h-17.4v-43.09c0-1.09-.88-1.97-1.97-1.97s-1.97.88-1.97,1.97v45.06c0,1.09.88,1.97,1.97,1.97h14.21l-28.77,25.72-28.76-25.72h14.21c1.09,0,1.97-.88,1.97-1.97v-45.06c0-1.09-.88-1.97-1.97-1.97s-1.97.88-1.97,1.97v43.09h-17.4c-.82,0-1.55.5-1.84,1.27-.29.76-.08,1.63.53,2.17l33.93,30.34c.37.33.84.5,1.31.5s.94-.17,1.31-.5l33.93-30.34c.61-.54.82-1.41.53-2.17Z"/>
</svg>