<?xml version="1.0" encoding="UTF-8"?>
<svg id="Finance_Investment_Economics" data-name="Finance, Investment &amp;amp; Economics" xmlns="http://www.w3.org/2000/svg" viewBox="0 0 180 180">
  <defs>
    <style>
      .cls-1 {
        stroke: #000;
        stroke-miterlimit: 10;
        stroke-width: 2px;
      }
    </style>
  </defs>
  <path class="cls-1" d="M72.09,35.56c6.54,0,11.86-5.32,11.86-11.86v-11.85C83.94,5.32,78.62,0,72.09,0s-11.86,5.32-11.86,11.86v11.85c0,6.54,5.32,11.86,11.86,11.86ZM64.39,11.86c0-4.24,3.45-7.69,7.69-7.69s7.69,3.45,7.69,7.69v11.85c0,4.24-3.45,7.69-7.69,7.69s-7.69-3.45-7.69-7.69v-11.85Z"/>
  <path class="cls-1" d="M2.53,31.4c-1.15,0-2.08.93-2.08,2.08s.93,2.08,2.08,2.08h14.44c1.15,0,2.08-.93,2.08-2.08s-.93-2.08-2.08-2.08h-5.14V2.08c0-.84-.51-1.6-1.28-1.92-.78-.32-1.67-.15-2.27.44L1.07,7.76c-.82.81-.82,2.13-.01,2.94.81.82,2.13.82,2.94.01l3.67-3.64v24.32H2.53Z"/>
  <path class="cls-1" d="M98.14,31.4c-1.15,0-2.08.93-2.08,2.08s.93,2.08,2.08,2.08h14.44c1.15,0,2.08-.93,2.08-2.08s-.93-2.08-2.08-2.08h-5.14V2.08c0-.84-.51-1.6-1.28-1.92-.78-.32-1.67-.15-2.27.44l-7.22,7.16c-.82.81-.82,2.13-.01,2.94.81.82,2.13.82,2.94.01l3.67-3.64v24.32h-5.14Z"/>
  <path class="cls-1" d="M33,31.4c-1.15,0-2.08.93-2.08,2.08s.93,2.08,2.08,2.08h14.44c1.15,0,2.08-.93,2.08-2.08s-.93-2.08-2.08-2.08h-5.14V2.08c0-.84-.51-1.6-1.28-1.92-.78-.32-1.67-.15-2.27.44l-7.22,7.16c-.82.81-.82,2.13-.01,2.94.81.82,2.13.82,2.94.01l3.67-3.64v24.32h-5.14Z"/>
  <path class="cls-1" d="M167.69,35.56c6.54,0,11.86-5.32,11.86-11.86v-11.85C179.55,5.32,174.23,0,167.69,0s-11.86,5.32-11.86,11.86v11.85c0,6.54,5.32,11.86,11.86,11.86ZM160,11.86c0-4.24,3.45-7.69,7.69-7.69s7.69,3.45,7.69,7.69v11.85c0,4.24-3.45,7.69-7.69,7.69s-7.69-3.45-7.69-7.69v-11.85Z"/>
  <path class="cls-1" d="M128.61,31.4c-1.15,0-2.08.93-2.08,2.08s.93,2.08,2.08,2.08h14.44c1.15,0,2.08-.93,2.08-2.08s-.93-2.08-2.08-2.08h-5.14V2.08c0-.84-.51-1.6-1.28-1.92-.78-.32-1.67-.15-2.27.44l-7.22,7.16c-.82.81-.82,2.13-.01,2.94.81.82,2.13.82,2.94.01l3.67-3.64v24.32h-5.14Z"/>
  <path class="cls-1" d="M136.84,85.99c6.54,0,11.86-5.32,11.86-11.86v-11.85c0-6.54-5.32-11.86-11.86-11.86s-11.86,5.32-11.86,11.86v11.85c0,6.54,5.32,11.86,11.86,11.86ZM129.15,62.28c0-4.24,3.45-7.69,7.69-7.69s7.69,3.45,7.69,7.69v11.85c0,4.24-3.45,7.69-7.69,7.69s-7.69-3.45-7.69-7.69v-11.85Z"/>
  <path class="cls-1" d="M67.28,81.82c-1.15,0-2.08.93-2.08,2.08s.93,2.08,2.08,2.08h14.44c1.15,0,2.08-.93,2.08-2.08s-.93-2.08-2.08-2.08h-5.14v-29.31c0-.84-.51-1.6-1.28-1.92-.78-.32-1.67-.15-2.27.44l-7.22,7.16c-.82.81-.82,2.13-.01,2.94.81.82,2.13.82,2.94.01l3.67-3.64v24.32h-5.14Z"/>
  <path class="cls-1" d="M162.89,81.82c-1.15,0-2.08.93-2.08,2.08s.93,2.08,2.08,2.08h14.44c1.15,0,2.08-.93,2.08-2.08s-.93-2.08-2.08-2.08h-5.14v-29.31c0-.84-.51-1.6-1.28-1.92-.78-.32-1.67-.15-2.27.44l-7.22,7.16c-.82.81-.82,2.13-.01,2.94.81.82,2.13.82,2.94.01l3.67-3.64v24.32h-5.14Z"/>
  <path class="cls-1" d="M97.76,81.82c-1.15,0-2.08.93-2.08,2.08s.93,2.08,2.08,2.08h14.44c1.15,0,2.08-.93,2.08-2.08s-.93-2.08-2.08-2.08h-5.14v-29.31c0-.84-.51-1.6-1.28-1.92-.78-.32-1.67-.15-2.27.44l-7.22,7.16c-.82.81-.82,2.13-.01,2.94.81.82,2.13.82,2.94.01l3.67-3.64v24.32h-5.14Z"/>
  <path class="cls-1" d="M41.75,85.99c6.54,0,11.86-5.32,11.86-11.86v-11.85c0-6.54-5.32-11.86-11.86-11.86s-11.86,5.32-11.86,11.86v11.85c0,6.54,5.32,11.86,11.86,11.86ZM34.05,62.28c0-4.24,3.45-7.69,7.69-7.69s7.69,3.45,7.69,7.69v11.85c0,4.24-3.45,7.69-7.69,7.69s-7.69-3.45-7.69-7.69v-11.85Z"/>
  <path class="cls-1" d="M2.66,81.82c-1.15,0-2.08.93-2.08,2.08s.93,2.08,2.08,2.08h14.44c1.15,0,2.08-.93,2.08-2.08s-.93-2.08-2.08-2.08h-5.14v-29.31c0-.84-.51-1.6-1.28-1.92-.78-.32-1.67-.15-2.27.44l-7.22,7.16c-.82.81-.82,2.13-.01,2.94.81.82,2.13.82,2.94.01l3.67-3.64v24.32H2.66Z"/>
  <path class="cls-1" d="M177.92,101.78h-18.51c-1.15,0-2.08.93-2.08,2.08v7.17H22.67v-7.17c0-1.15-.93-2.08-2.08-2.08H2.08c-1.15,0-2.08.93-2.08,2.08v18.51c0,1.15.93,2.08,2.08,2.08h18.51c1.15,0,2.08-.93,2.08-2.08v-7.17h11.61v43.94c0,1.15.93,2.08,2.08,2.08s2.08-.93,2.08-2.08v-43.94h49.47v43.94c0,1.15.93,2.08,2.08,2.08s2.08-.93,2.08-2.08v-43.94h49.47v43.94c0,1.15.93,2.08,2.08,2.08s2.08-.93,2.08-2.08v-43.94h11.61v7.17c0,1.15.93,2.08,2.08,2.08h18.51c1.15,0,2.08-.93,2.08-2.08v-18.51c0-1.15-.93-2.08-2.08-2.08ZM18.51,120.29H4.16v-14.34h14.34v14.34ZM175.84,120.29h-14.34v-14.34h14.34v14.34Z"/>
  <path class="cls-1" d="M63.18,138.27c-1.15,0-2.08.93-2.08,2.08v37.57c0,1.15.93,2.08,2.08,2.08s2.08-.93,2.08-2.08v-37.57c0-1.15-.93-2.08-2.08-2.08Z"/>
  <path class="cls-1" d="M116.82,138.27c-1.15,0-2.08.93-2.08,2.08v37.57c0,1.15.93,2.08,2.08,2.08s2.08-.93,2.08-2.08v-37.57c0-1.15-.93-2.08-2.08-2.08Z"/>
</svg>