<?xml version="1.0" encoding="UTF-8"?>
<svg id="Finance_Investment_Economics" data-name="Finance, Investment &amp;amp; Economics" xmlns="http://www.w3.org/2000/svg" viewBox="0 0 180 180">
  <defs>
    <style>
      .cls-1 {
        stroke: #000;
        stroke-miterlimit: 10;
        stroke-width: 2px;
      }
    </style>
  </defs>
  <path class="cls-1" d="M154.82,180H25.18c-6.23,0-11.29-5.06-11.29-11.29V11.29C13.89,5.06,18.95,0,25.18,0h129.64c6.23,0,11.29,5.06,11.29,11.29v157.42c0,6.22-5.06,11.29-11.29,11.29ZM25.18,4.06c-3.99,0-7.23,3.24-7.23,7.23v157.42c0,3.99,3.24,7.23,7.23,7.23h129.64c3.99,0,7.23-3.24,7.23-7.23V11.29c0-3.99-3.24-7.23-7.23-7.23H25.18Z"/>
  <path class="cls-1" d="M146.04,57.97H33.97c-1.12,0-2.03-.91-2.03-2.03V20.08c0-1.12.91-2.03,2.03-2.03h112.07c1.12,0,2.03.91,2.03,2.03v35.86c0,1.12-.91,2.03-2.03,2.03ZM36,53.91h108.01v-31.8H36v31.8Z"/>
  <path class="cls-1" d="M63.06,93.01h-24.79c-1.12,0-2.03-.91-2.03-2.03v-16.24c0-1.12.91-2.03,2.03-2.03h24.79c1.12,0,2.03.91,2.03,2.03v16.24c0,1.12-.91,2.03-2.03,2.03ZM40.3,88.95h20.73v-12.18h-20.73v12.18Z"/>
  <path class="cls-1" d="M102.4,93.01h-24.79c-1.12,0-2.03-.91-2.03-2.03v-16.24c0-1.12.91-2.03,2.03-2.03h24.79c1.12,0,2.03.91,2.03,2.03v16.24c0,1.12-.91,2.03-2.03,2.03ZM79.63,88.95h20.73v-12.18h-20.73v12.18Z"/>
  <path class="cls-1" d="M141.73,93.01h-24.79c-1.12,0-2.03-.91-2.03-2.03v-16.24c0-1.12.91-2.03,2.03-2.03h24.79c1.12,0,2.03.91,2.03,2.03v16.24c0,1.12-.91,2.03-2.03,2.03ZM118.97,88.95h20.73v-12.18h-20.73v12.18Z"/>
  <path class="cls-1" d="M63.06,124.14h-24.79c-1.12,0-2.03-.91-2.03-2.03v-16.24c0-1.12.91-2.03,2.03-2.03h24.79c1.12,0,2.03.91,2.03,2.03v16.24c0,1.12-.91,2.03-2.03,2.03ZM40.3,120.08h20.73v-12.18h-20.73v12.18Z"/>
  <path class="cls-1" d="M102.4,124.14h-24.79c-1.12,0-2.03-.91-2.03-2.03v-16.24c0-1.12.91-2.03,2.03-2.03h24.79c1.12,0,2.03.91,2.03,2.03v16.24c0,1.12-.91,2.03-2.03,2.03ZM79.63,120.08h20.73v-12.18h-20.73v12.18Z"/>
  <path class="cls-1" d="M63.06,155.26h-24.79c-1.12,0-2.03-.91-2.03-2.03v-16.24c0-1.12.91-2.03,2.03-2.03h24.79c1.12,0,2.03.91,2.03,2.03v16.24c0,1.12-.91,2.03-2.03,2.03ZM40.3,151.2h20.73v-12.18h-20.73v12.18Z"/>
  <path class="cls-1" d="M102.4,155.26h-24.79c-1.12,0-2.03-.91-2.03-2.03v-16.24c0-1.12.91-2.03,2.03-2.03h24.79c1.12,0,2.03.91,2.03,2.03v16.24c0,1.12-.91,2.03-2.03,2.03ZM79.64,151.2h20.73v-12.18h-20.73v12.18Z"/>
  <path class="cls-1" d="M141.73,155.26h-24.79c-1.12,0-2.03-.91-2.03-2.03v-47.37c0-1.12.91-2.03,2.03-2.03h24.79c1.12,0,2.03.91,2.03,2.03v47.37c0,1.12-.91,2.03-2.03,2.03ZM118.97,151.2h20.73v-43.31h-20.73v43.31Z"/>
</svg>