<?xml version="1.0" encoding="UTF-8"?>
<svg id="Finance_Investment_Economics" data-name="Finance, Investment &amp;amp; Economics" xmlns="http://www.w3.org/2000/svg" viewBox="0 0 180 180">
  <defs>
    <style>
      .cls-1 {
        stroke: #000;
        stroke-miterlimit: 10;
        stroke-width: 2px;
      }
    </style>
  </defs>
  <path class="cls-1" d="M178.92,168.81l-12.42-7.17c-1.03-.59-2.35-.24-2.94.79-.6,1.03-.24,2.35.79,2.94l5.45,3.15H11.48V10.2l3.15,5.45c.4.69,1.12,1.08,1.87,1.08.37,0,.74-.09,1.08-.29,1.03-.6,1.38-1.91.79-2.94L11.19,1.08C10.81.41,10.09,0,9.32,0s-1.48.41-1.87,1.08L.29,13.49c-.6,1.03-.24,2.35.79,2.94,1.03.59,2.35.24,2.94-.79l3.15-5.45v160.48c0,1.19.97,2.16,2.16,2.16h160.48l-5.45,3.15c-1.03.6-1.38,1.91-.79,2.94.4.69,1.12,1.08,1.87,1.08.37,0,.74-.09,1.08-.29l12.42-7.17c.67-.39,1.08-1.1,1.08-1.87s-.41-1.48-1.08-1.87Z"/>
  <path class="cls-1" d="M32.28,132.44h7.6v15.83c0,1.19.97,2.16,2.16,2.16s2.16-.96,2.16-2.16v-15.83h7.6c1.19,0,2.16-.96,2.16-2.16v-52.96c0-1.19-.97-2.16-2.16-2.16h-7.6v-27.12c0-1.19-.97-2.16-2.16-2.16s-2.16.96-2.16,2.16v27.12h-7.6c-1.19,0-2.16.96-2.16,2.16v52.96c0,1.19.97,2.16,2.16,2.16ZM34.44,79.48h15.2v48.65h-15.2v-48.65Z"/>
  <path class="cls-1" d="M71.31,94.79h7.6v45.1c0,1.19.97,2.16,2.16,2.16s2.16-.96,2.16-2.16v-45.1h7.6c1.19,0,2.16-.96,2.16-2.16v-52.96c0-1.19-.97-2.16-2.16-2.16h-7.6v-19.14c0-1.19-.97-2.16-2.16-2.16s-2.16.96-2.16,2.16v19.14h-7.6c-1.19,0-2.16.96-2.16,2.16v52.96c0,1.19.97,2.16,2.16,2.16ZM73.46,41.82h15.2v48.65h-15.2v-48.65Z"/>
  <path class="cls-1" d="M110.33,120.99h7.6v15.83c0,1.19.97,2.16,2.16,2.16s2.16-.96,2.16-2.16v-15.83h7.6c1.19,0,2.16-.96,2.16-2.16v-52.96c0-1.19-.97-2.16-2.16-2.16h-7.6v-27.12c0-1.19-.97-2.16-2.16-2.16s-2.16.96-2.16,2.16v27.12h-7.6c-1.19,0-2.16.96-2.16,2.16v52.96c0,1.19.97,2.16,2.16,2.16ZM112.49,68.03h15.2v48.65h-15.2v-48.65Z"/>
  <path class="cls-1" d="M149.36,85.01h7.6v37.76c0,1.19.97,2.16,2.16,2.16s2.16-.96,2.16-2.16v-37.76h7.6c1.19,0,2.16-.96,2.16-2.16V29.89c0-1.19-.97-2.16-2.16-2.16h-7.6v-15.83c0-1.19-.97-2.16-2.16-2.16s-2.16.96-2.16,2.16v15.83h-7.6c-1.19,0-2.16.96-2.16,2.16v52.96c0,1.19.97,2.16,2.16,2.16ZM151.51,32.05h15.2v48.65h-15.2v-48.65Z"/>
</svg>