<?xml version="1.0" encoding="UTF-8"?>
<svg id="Finance_Investment_Economics" data-name="Finance, Investment &amp;amp; Economics" xmlns="http://www.w3.org/2000/svg" viewBox="0 0 180 180">
  <defs>
    <style>
      .cls-1 {
        stroke: #000;
        stroke-miterlimit: 10;
        stroke-width: 2px;
      }
    </style>
  </defs>
  <path class="cls-1" d="M178.92,168.81l-12.42-7.17c-1.03-.6-2.35-.24-2.94.79-.6,1.03-.24,2.35.79,2.94l5.45,3.15H11.48V10.2l3.15,5.45c.4.69,1.12,1.08,1.87,1.08.37,0,.74-.09,1.08-.29,1.03-.59,1.38-1.91.79-2.94L11.19,1.08c-.38-.67-1.1-1.08-1.87-1.08s-1.48.41-1.87,1.08L.29,13.49c-.6,1.03-.24,2.35.79,2.94,1.03.6,2.35.24,2.94-.79l3.15-5.45v160.48c0,1.19.97,2.16,2.16,2.16h160.48l-5.45,3.15c-1.03.59-1.38,1.91-.79,2.94.4.69,1.12,1.08,1.87,1.08.37,0,.74-.09,1.08-.29l12.42-7.17c.67-.38,1.08-1.1,1.08-1.87s-.41-1.48-1.08-1.87Z"/>
  <path class="cls-1" d="M91.98,129.5l-4.45,1.78c-1.1.44-1.64,1.7-1.2,2.8.34.84,1.15,1.35,2,1.35.27,0,.54-.05.8-.16l4.45-1.78c1.1-.44,1.64-1.7,1.2-2.8-.44-1.1-1.7-1.64-2.8-1.2Z"/>
  <path class="cls-1" d="M107.1,123.44l-4.45,1.78c-1.1.44-1.64,1.7-1.2,2.8.34.84,1.15,1.35,2,1.35.27,0,.54-.05.8-.16l4.45-1.78c1.1-.44,1.64-1.7,1.2-2.8-.44-1.1-1.7-1.64-2.8-1.2Z"/>
  <path class="cls-1" d="M76.87,135.56l-4.45,1.78c-1.1.44-1.64,1.7-1.2,2.8.34.84,1.15,1.35,2,1.35.27,0,.54-.05.8-.16l4.45-1.78c1.1-.44,1.64-1.7,1.2-2.8-.44-1.1-1.7-1.64-2.8-1.2Z"/>
  <path class="cls-1" d="M122.21,117.38l-4.45,1.78c-1.1.44-1.64,1.7-1.2,2.8.34.84,1.15,1.35,2,1.35.27,0,.54-.05.8-.16l4.45-1.78c1.1-.44,1.64-1.7,1.2-2.8-.44-1.1-1.7-1.64-2.8-1.2Z"/>
  <path class="cls-1" d="M137.32,111.31l-4.45,1.78c-1.1.44-1.64,1.7-1.2,2.8.34.84,1.15,1.35,2,1.35.27,0,.54-.05.8-.16l4.45-1.78c1.1-.44,1.64-1.7,1.2-2.8s-1.7-1.64-2.8-1.2Z"/>
  <path class="cls-1" d="M152.44,105.25l-4.45,1.78c-1.1.44-1.64,1.7-1.2,2.8.34.84,1.15,1.35,2,1.35.27,0,.54-.05.8-.16l4.45-1.78c1.1-.44,1.64-1.7,1.2-2.8-.44-1.1-1.7-1.64-2.8-1.2Z"/>
  <path class="cls-1" d="M167.55,99.19l-4.45,1.78c-1.1.44-1.64,1.7-1.2,2.8.34.84,1.15,1.35,2,1.35.27,0,.54-.05.8-.16l4.45-1.78c1.1-.44,1.64-1.7,1.2-2.8-.44-1.1-1.7-1.64-2.8-1.2Z"/>
  <path class="cls-1" d="M61.75,141.62l-4.45,1.78c-1.1.44-1.64,1.7-1.2,2.8.34.84,1.15,1.35,2,1.35.27,0,.54-.05.8-.16l4.45-1.78c1.1-.44,1.64-1.7,1.2-2.8-.44-1.1-1.7-1.64-2.8-1.2Z"/>
  <path class="cls-1" d="M27.88,159.69c.27,0,.54-.05.8-.16l4.45-1.78c1.1-.44,1.64-1.7,1.2-2.8-.44-1.1-1.7-1.64-2.8-1.2l-4.45,1.78c-1.1.44-1.64,1.7-1.2,2.8.34.84,1.15,1.35,2,1.35Z"/>
  <path class="cls-1" d="M46.64,147.69l-4.45,1.78c-1.1.44-1.64,1.7-1.2,2.8.34.84,1.15,1.35,2,1.35.27,0,.54-.05.8-.16l4.45-1.78c1.1-.44,1.64-1.7,1.2-2.8-.44-1.1-1.7-1.64-2.8-1.2Z"/>
  <path class="cls-1" d="M118.57,37.77c.27,0,.54-.05.8-.16l4.45-1.78c1.1-.44,1.64-1.7,1.2-2.8-.44-1.1-1.7-1.64-2.8-1.2l-4.45,1.78c-1.1.44-1.64,1.7-1.2,2.8.34.84,1.15,1.35,2,1.35Z"/>
  <path class="cls-1" d="M148.79,25.64c.27,0,.54-.05.8-.16l4.45-1.78c1.1-.44,1.64-1.7,1.2-2.8-.44-1.1-1.7-1.64-2.8-1.2l-4.45,1.78c-1.1.44-1.64,1.7-1.2,2.8.34.84,1.15,1.35,2,1.35Z"/>
  <path class="cls-1" d="M103.45,43.83c.27,0,.54-.05.8-.16l4.45-1.78c1.1-.44,1.64-1.7,1.2-2.8-.44-1.1-1.7-1.64-2.8-1.2l-4.45,1.78c-1.1.44-1.64,1.7-1.2,2.8.34.84,1.15,1.35,2,1.35Z"/>
  <path class="cls-1" d="M163.91,19.58c.27,0,.54-.05.8-.16l4.45-1.78c1.1-.44,1.64-1.7,1.2-2.8-.44-1.1-1.7-1.64-2.8-1.2l-4.45,1.78c-1.1.44-1.64,1.7-1.2,2.8.34.84,1.15,1.35,2,1.35Z"/>
  <path class="cls-1" d="M133.68,31.7c.27,0,.54-.05.8-.16l4.45-1.78c1.1-.44,1.64-1.7,1.2-2.8-.44-1.1-1.7-1.64-2.8-1.2l-4.45,1.78c-1.1.44-1.64,1.7-1.2,2.8.34.84,1.15,1.35,2,1.35Z"/>
  <path class="cls-1" d="M88.34,49.89c.27,0,.54-.05.8-.16l4.45-1.78c1.1-.44,1.64-1.7,1.2-2.8-.44-1.1-1.7-1.64-2.8-1.2l-4.45,1.78c-1.1.44-1.64,1.7-1.2,2.8.34.84,1.15,1.35,2,1.35Z"/>
  <path class="cls-1" d="M43,68.08c.27,0,.54-.05.8-.16l4.45-1.78c1.1-.44,1.64-1.7,1.2-2.8-.44-1.1-1.7-1.64-2.8-1.2l-4.45,1.78c-1.1.44-1.64,1.7-1.2,2.8.34.84,1.15,1.35,2,1.35Z"/>
  <path class="cls-1" d="M27.88,74.14c.27,0,.54-.05.8-.16l4.45-1.78c1.1-.44,1.64-1.7,1.2-2.8-.44-1.1-1.7-1.64-2.8-1.2l-4.45,1.78c-1.1.44-1.64,1.7-1.2,2.8.34.84,1.15,1.35,2,1.35Z"/>
  <path class="cls-1" d="M73.23,55.95c.27,0,.54-.05.8-.16l4.45-1.78c1.1-.44,1.64-1.7,1.2-2.8-.44-1.1-1.7-1.64-2.8-1.2l-4.45,1.78c-1.1.44-1.64,1.7-1.2,2.8.34.84,1.15,1.35,2,1.35Z"/>
  <path class="cls-1" d="M58.11,62.01c.27,0,.54-.05.8-.16l4.45-1.78c1.1-.44,1.64-1.7,1.2-2.8-.44-1.1-1.7-1.64-2.8-1.2l-4.45,1.78c-1.1.44-1.64,1.7-1.2,2.8.34.84,1.15,1.35,2,1.35Z"/>
  <path class="cls-1" d="M25.74,145.4c-.11,1.19.77,2.23,1.95,2.34.07,0,.13,0,.2,0,1.1,0,2.04-.84,2.14-1.96,1.55-17.08,8.51-62.05,21.92-65,6.52-1.43,9.53,3.33,13.71,11.35,3.93,7.52,8.81,16.87,20.31,11.07,9.57-4.83,12.08-15.69,14.29-25.27,2.5-10.85,4.41-17.53,11.72-18.04.09,0,.18,0,.27,0,4.58,0,7.98,8.27,11.26,16.28,4.24,10.34,9,21.93,18.52,21.93.9,0,1.84-.1,2.82-.32,18.89-4.16,24.69-62.22,25.29-68.82.11-1.19-.77-2.23-1.95-2.34-1.18-.1-2.23.77-2.34,1.95-1.55,17.08-8.51,62.05-21.92,65-7.33,1.62-11.44-6.87-16.43-19.04-4.11-10.02-8-19.47-15.82-18.94-10.86.75-13.28,11.23-15.62,21.37-2.1,9.08-4.26,18.48-12.03,22.39-7.34,3.71-10.18-.85-14.55-9.22-3.68-7.04-8.26-15.81-18.46-13.56-18.89,4.15-24.69,62.21-25.29,68.82Z"/>
</svg>