<?xml version="1.0" encoding="UTF-8"?>
<svg id="Finance_Investment_Economics" data-name="Finance, Investment &amp;amp; Economics" xmlns="http://www.w3.org/2000/svg" viewBox="0 0 180 180">
  <defs>
    <style>
      .cls-1 {
        stroke: #000;
        stroke-miterlimit: 10;
        stroke-width: 2px;
      }
    </style>
  </defs>
  <path class="cls-1" d="M153.88,0H26.12c-5.46,0-9.9,4.44-9.9,9.9v160.2c0,5.46,4.44,9.9,9.9,9.9h127.77c5.46,0,9.9-4.44,9.9-9.9V9.9c0-5.46-4.44-9.9-9.9-9.9ZM59.05,24.34h61.9c1.09,0,1.98-.89,1.98-1.98v-7.68h.04c5.34,0,9.68,4.34,9.68,9.68s-4.34,9.68-9.68,9.68H57.03c-5.34,0-9.68-4.34-9.68-9.68s4.34-9.68,9.68-9.68h.04v7.68c0,1.09.89,1.98,1.98,1.98ZM118.97,3.96v16.42h-57.94V3.96h57.94ZM159.83,170.1c0,3.28-2.67,5.94-5.94,5.94H26.12c-3.28,0-5.94-2.67-5.94-5.94V9.9c0-3.28,2.67-5.94,5.94-5.94h30.95v6.76h-.04c-7.52,0-13.64,6.12-13.64,13.64s6.12,13.64,13.64,13.64h65.94c7.52,0,13.64-6.12,13.64-13.64s-6.12-13.64-13.64-13.64h-.04V3.96h30.95c3.28,0,5.94,2.67,5.94,5.94v160.2Z"/>
  <path class="cls-1" d="M61.64,56.4c-.91-.61-2.14-.37-2.75.53l-8.39,12.43-8.39-12.43c-.61-.91-1.84-1.15-2.75-.53-.91.61-1.14,1.84-.53,2.75l10.03,14.86c.37.55.98.87,1.64.87s1.27-.33,1.64-.87l10.03-14.86c.61-.91.37-2.14-.53-2.75Z"/>
  <path class="cls-1" d="M139.54,63.49h-64.4c-1.09,0-1.98.89-1.98,1.98s.89,1.98,1.98,1.98h64.4c1.09,0,1.98-.89,1.98-1.98s-.89-1.98-1.98-1.98Z"/>
  <path class="cls-1" d="M61.64,93.28c-.91-.61-2.14-.37-2.75.53l-8.39,12.43-8.39-12.43c-.61-.91-1.84-1.14-2.75-.53-.91.61-1.14,1.84-.53,2.75l10.03,14.86c.37.55.98.87,1.64.87s1.27-.33,1.64-.87l10.03-14.86c.61-.91.37-2.14-.53-2.75Z"/>
  <path class="cls-1" d="M139.54,100.37h-64.4c-1.09,0-1.98.89-1.98,1.98s.89,1.98,1.98,1.98h64.4c1.09,0,1.98-.89,1.98-1.98s-.89-1.98-1.98-1.98Z"/>
  <path class="cls-1" d="M61.64,130.16c-.91-.61-2.14-.37-2.75.53l-8.39,12.43-8.39-12.43c-.61-.91-1.84-1.14-2.75-.53-.91.61-1.14,1.84-.53,2.75l10.03,14.86c.37.55.98.87,1.64.87s1.27-.33,1.64-.87l10.03-14.86c.61-.91.37-2.14-.53-2.75Z"/>
  <path class="cls-1" d="M139.54,137.25h-64.4c-1.09,0-1.98.89-1.98,1.98s.89,1.98,1.98,1.98h64.4c1.09,0,1.98-.89,1.98-1.98s-.89-1.98-1.98-1.98Z"/>
</svg>