<?xml version="1.0" encoding="UTF-8"?>
<svg id="Finance_Investment_Economics" data-name="Finance, Investment &amp;amp; Economics" xmlns="http://www.w3.org/2000/svg" viewBox="0 0 180 180">
  <defs>
    <style>
      .cls-1 {
        stroke: #000;
        stroke-miterlimit: 10;
        stroke-width: 2px;
      }
    </style>
  </defs>
  <path class="cls-1" d="M139.91,85.03c19.72,0,35.17-6.89,35.17-15.69V15.75C175.09,6.95,159.64.05,139.91.05s-35.17,6.89-35.17,15.69v53.59c0,8.8,15.45,15.69,35.17,15.69ZM139.91,81.26c-18.5,0-31.4-6.28-31.4-11.92v-10.59c5.75,5.09,17.51,8.51,31.4,8.51s25.65-3.42,31.4-8.51v10.59c0,5.64-12.89,11.92-31.4,11.92ZM139.91,45.72c-18.5,0-31.4-6.28-31.4-11.92v-10.88c5.75,5.09,17.51,8.51,31.4,8.51s25.65-3.42,31.4-8.51v10.88c0,5.64-12.89,11.92-31.4,11.92ZM139.91,49.5c13.89,0,25.65-3.42,31.4-8.51v10.59c0,5.64-12.89,11.92-31.4,11.92s-31.4-6.28-31.4-11.92v-10.59c5.75,5.09,17.51,8.51,31.4,8.51ZM139.91,3.83c18.5,0,31.4,6.28,31.4,11.92s-12.89,11.92-31.4,11.92-31.4-6.28-31.4-11.92,12.89-11.92,31.4-11.92Z"/>
  <path class="cls-1" d="M40.09,85.14c19.72,0,35.17-6.89,35.17-15.69v-35.83c0-8.8-15.45-15.69-35.17-15.69S4.91,24.82,4.91,33.62v35.83c0,8.8,15.45,15.69,35.17,15.69ZM40.09,81.36c-18.5,0-31.4-6.28-31.4-11.92v-10.59c5.75,5.09,17.51,8.51,31.4,8.51s25.65-3.42,31.4-8.51v10.59c0,5.64-12.89,11.92-31.4,11.92ZM40.09,63.6c-18.5,0-31.4-6.28-31.4-11.92v-10.88c5.75,5.09,17.51,8.51,31.4,8.51s25.65-3.42,31.4-8.51v10.88c0,5.64-12.89,11.92-31.4,11.92ZM40.09,21.71c18.5,0,31.4,6.28,31.4,11.92s-12.89,11.92-31.4,11.92-31.4-6.28-31.4-11.92,12.89-11.92,31.4-11.92Z"/>
  <path class="cls-1" d="M42.05,135.87c-4.57-2.47-7.36-4.17-7.38-7.97,0-1.29.62-2.7,1.68-3.76,1.06-1.06,2.38-1.64,3.74-1.64,2.98,0,5.41,2.43,5.41,5.41,0,1.04.85,1.89,1.89,1.89s1.89-.85,1.89-1.89c0-4.42-3.14-8.12-7.3-8.99v-4.23c0-1.04-.85-1.89-1.89-1.89s-1.89.85-1.89,1.89v4.25c-1.67.38-3.23,1.24-4.53,2.54-1.77,1.78-2.79,4.13-2.78,6.44.03,6.23,4.99,8.91,9.36,11.27,4.41,2.38,8.22,4.44,8.41,9.51.08,2.16-.73,4.23-2.27,5.83-1.64,1.7-3.94,2.68-6.31,2.68-4.73,0-8.58-3.85-8.58-8.58,0-1.04-.85-1.89-1.89-1.89s-1.89.85-1.89,1.89c0,6.17,4.55,11.29,10.47,12.2v4.2c0,1.04.85,1.89,1.89,1.89s1.89-.85,1.89-1.89v-4.2c2.7-.42,5.23-1.69,7.14-3.67,2.26-2.35,3.45-5.4,3.33-8.59-.27-7.23-5.88-10.26-10.39-12.69Z"/>
  <path class="cls-1" d="M40.09,99.77C17.98,99.77,0,117.76,0,139.86s17.98,40.09,40.09,40.09,40.09-17.98,40.09-40.09-17.98-40.09-40.09-40.09ZM40.09,176.17c-20.02,0-36.31-16.29-36.31-36.31s16.29-36.31,36.31-36.31,36.31,16.29,36.31,36.31-16.29,36.31-36.31,36.31Z"/>
  <path class="cls-1" d="M139.91,99.77c-22.1,0-40.09,17.98-40.09,40.09s17.98,40.09,40.09,40.09,40.09-17.98,40.09-40.09-17.98-40.09-40.09-40.09ZM139.91,176.17c-20.02,0-36.31-16.29-36.31-36.31s16.29-36.31,36.31-36.31,36.31,16.29,36.31,36.31-16.29,36.31-36.31,36.31Z"/>
  <path class="cls-1" d="M139.91,121.56c3.88,0,7.58,1.2,10.72,3.47.84.61,2.03.42,2.64-.42.61-.84.42-2.02-.42-2.64-3.78-2.74-8.26-4.19-12.93-4.19-9.72,0-17.99,6.32-20.93,15.07h-4.37c-1.04,0-1.89.85-1.89,1.89s.85,1.89,1.89,1.89h3.47c-.16,1.06-.24,2.13-.24,3.23s.08,2.18.24,3.23h-3.47c-1.04,0-1.89.85-1.89,1.89s.85,1.89,1.89,1.89h4.37c2.94,8.75,11.21,15.07,20.93,15.07,4.68,0,9.15-1.45,12.93-4.19.84-.61,1.03-1.79.42-2.64-.61-.85-1.79-1.04-2.64-.42-3.14,2.27-6.84,3.47-10.72,3.47-7.61,0-14.15-4.67-16.9-11.29h11.47c1.04,0,1.89-.85,1.89-1.89s-.85-1.89-1.89-1.89h-12.58c-.19-1.05-.29-2.13-.29-3.23s.1-2.18.29-3.23h18.01c1.04,0,1.89-.85,1.89-1.89s-.85-1.89-1.89-1.89h-16.9c2.76-6.62,9.29-11.29,16.9-11.29Z"/>
</svg>