<?xml version="1.0" encoding="UTF-8"?>
<svg id="Finance_Investment_Economics" data-name="Finance, Investment &amp;amp; Economics" xmlns="http://www.w3.org/2000/svg" viewBox="0 0 180 180">
  <defs>
    <style>
      .cls-1 {
        stroke: #000;
        stroke-miterlimit: 10;
        stroke-width: 2px;
      }
    </style>
  </defs>
  <path class="cls-1" d="M38.41,57.19v5.26c0,1.09.88,1.97,1.97,1.97s1.97-.88,1.97-1.97v-5.26c3.25-.45,6.32-1.97,8.61-4.34,2.65-2.75,4.04-6.32,3.9-10.06-.31-8.47-6.66-11.9-12.27-14.93-5.55-2.99-8.95-5.07-8.97-9.77,0-1.62.77-3.38,2.09-4.69,1.31-1.32,2.97-2.05,4.66-2.05,3.72,0,6.75,3.03,6.75,6.75,0,1.09.88,1.97,1.97,1.97s1.97-.88,1.97-1.97c0-5.22-3.76-9.58-8.72-10.51V2.29c0-1.09-.88-1.97-1.97-1.97s-1.97.88-1.97,1.97v5.31c-2.03.41-3.93,1.44-5.49,3.01-2.07,2.08-3.25,4.81-3.24,7.5.03,7.28,5.88,10.44,11.04,13.22,5.13,2.77,9.97,5.38,10.2,11.6.1,2.66-.9,5.21-2.8,7.18-2.01,2.09-4.84,3.29-7.75,3.29-5.81,0-10.54-4.73-10.54-10.54,0-1.09-.88-1.97-1.97-1.97s-1.97.88-1.97,1.97c0,7.32,5.46,13.37,12.52,14.34Z"/>
  <path class="cls-1" d="M40.38,82.04C17.74,82.04,0,89.9,0,99.94h0v61.84c0,10.04,17.74,17.9,40.38,17.9s40.38-7.86,40.38-17.9v-61.84h0c0-10.04-17.74-17.9-40.38-17.9ZM40.38,155.24c-21.47,0-36.43-7.36-36.43-13.96v-12.65c6.45,6,20.18,10.05,36.43,10.05s29.98-4.05,36.43-10.05v12.65c0,6.6-14.96,13.96-36.43,13.96ZM40.38,134.74c-21.47,0-36.43-7.35-36.43-13.96v-12.99c6.45,6,20.18,10.05,36.43,10.05s29.98-4.05,36.43-10.05v12.99c0,6.6-14.96,13.96-36.43,13.96ZM40.38,85.99c21.47,0,36.43,7.35,36.43,13.96s-14.96,13.96-36.43,13.96S3.95,106.54,3.95,99.94s14.96-13.96,36.43-13.96ZM40.38,175.74c-21.47,0-36.43-7.35-36.43-13.96v-12.65c6.45,6,20.18,10.05,36.43,10.05s29.98-4.05,36.43-10.05v12.65c0,6.6-14.96,13.96-36.43,13.96Z"/>
  <path class="cls-1" d="M180,43.09C180,19.5,160.81.31,137.23.31s-42.77,19.19-42.77,42.77,18.13,41.69,40.8,42.72v15.23c-6.26.96-11.08,6.36-11.08,12.89v52.7c0,7.2,5.86,13.05,13.05,13.05s13.05-5.86,13.05-13.05v-52.7c0-6.52-4.82-11.93-11.08-12.89v-15.23c22.67-1.04,40.8-19.8,40.8-42.72ZM98.4,43.09c0-21.41,17.42-38.83,38.83-38.83s38.83,17.42,38.83,38.83-17.42,38.83-38.83,38.83-38.83-17.42-38.83-38.83ZM146.33,113.93v52.7c0,5.02-4.08,9.11-9.11,9.11s-9.11-4.09-9.11-9.11v-52.7c0-5.02,4.09-9.11,9.11-9.11s9.11,4.08,9.11,9.11Z"/>
  <path class="cls-1" d="M139.2,18.07c0-1.09-.88-1.97-1.97-1.97-14.88,0-26.99,12.11-26.99,26.99,0,1.09.88,1.97,1.97,1.97s1.97-.88,1.97-1.97c0-12.7,10.34-23.04,23.04-23.04,1.09,0,1.97-.88,1.97-1.97Z"/>
</svg>