<?xml version="1.0" encoding="UTF-8"?>
<svg id="Finance_Investment_Economics" data-name="Finance, Investment &amp;amp; Economics" xmlns="http://www.w3.org/2000/svg" viewBox="0 0 180 180">
  <defs>
    <style>
      .cls-1 {
        stroke: #000;
        stroke-miterlimit: 10;
        stroke-width: 2px;
      }
    </style>
  </defs>
  <path class="cls-1" d="M44.41,70.1v5c0,1.06.86,1.92,1.92,1.92s1.92-.86,1.92-1.92v-5.01c3.11-.43,6.04-1.89,8.23-4.16,2.54-2.64,3.87-6.07,3.74-9.65-.3-8.12-6.38-11.41-11.75-14.31-5.3-2.86-8.55-4.84-8.57-9.32,0-1.54.74-3.21,1.99-4.47,1.25-1.26,2.83-1.95,4.44-1.95,3.55,0,6.43,2.88,6.43,6.43,0,1.06.86,1.92,1.92,1.92s1.92-.86,1.92-1.92c0-5-3.6-9.18-8.34-10.08v-5.04c0-1.06-.86-1.92-1.92-1.92s-1.92.86-1.92,1.92v5.05c-1.94.4-3.75,1.38-5.25,2.88-1.98,1.99-3.12,4.61-3.11,7.19.03,6.98,5.63,10.01,10.58,12.68,4.9,2.64,9.52,5.14,9.74,11.08.09,2.53-.85,4.97-2.67,6.85-1.92,1.99-4.61,3.14-7.39,3.14-5.54,0-10.05-4.51-10.05-10.05,0-1.06-.86-1.92-1.92-1.92s-1.92.86-1.92,1.92c0,7.01,5.22,12.8,11.98,13.74Z"/>
  <path class="cls-1" d="M46.32,91.92c25.14,0,45.59-20.45,45.59-45.59S71.46.73,46.32.73.73,21.19.73,46.33s20.45,45.59,45.59,45.59ZM46.32,4.57c23.03,0,41.76,18.73,41.76,41.76s-18.73,41.76-41.76,41.76S4.57,69.35,4.57,46.33,23.3,4.57,46.32,4.57Z"/>
  <path class="cls-1" d="M133.67,88.08c-25.14,0-45.59,20.45-45.59,45.59s20.45,45.59,45.59,45.59,45.59-20.45,45.59-45.59-20.45-45.59-45.59-45.59ZM133.67,175.43c-23.02,0-41.76-18.73-41.76-41.76s18.73-41.76,41.76-41.76,41.76,18.73,41.76,41.76-18.73,41.76-41.76,41.76Z"/>
  <path class="cls-1" d="M179.87,56.13c-.29-.74-1-1.22-1.79-1.22h-11.69v-6c0-19.69-16.02-35.71-35.71-35.71h-32.29c-1.06,0-1.92.86-1.92,1.92s.86,1.92,1.92,1.92h32.29c17.57,0,31.87,14.3,31.87,31.87v7.91c0,1.06.86,1.92,1.92,1.92h8.69l-18.34,16.82-18.34-16.82h8.68c1.06,0,1.92-.86,1.92-1.92v-7.91c0-9.04-7.36-16.4-16.4-16.4h-23.56c-1.06,0-1.92.86-1.92,1.92s.86,1.92,1.92,1.92h23.56c6.93,0,12.56,5.64,12.56,12.56v6h-11.69c-.79,0-1.5.49-1.79,1.22-.29.74-.09,1.57.49,2.11l23.27,21.34c.37.34.83.5,1.3.5s.93-.17,1.3-.5l23.26-21.34c.58-.53.78-1.37.49-2.11Z"/>
  <path class="cls-1" d="M82.49,162.96h-33.17c-17.57,0-31.87-14.3-31.87-31.87v-7.91c0-1.06-.86-1.92-1.92-1.92H6.84l18.34-16.82,18.34,16.82h-8.68c-1.06,0-1.92.86-1.92,1.92v7.91c0,9.04,7.36,16.4,16.4,16.4h24.43c1.06,0,1.92-.86,1.92-1.92s-.86-1.92-1.92-1.92h-24.43c-6.93,0-12.56-5.64-12.56-12.56v-6h11.69c.79,0,1.5-.49,1.79-1.22.29-.74.09-1.57-.49-2.11l-23.27-21.34c-.73-.67-1.86-.67-2.59,0L.62,121.76c-.58.53-.78,1.37-.49,2.11.29.74,1,1.22,1.79,1.22h11.69v6c0,19.69,16.02,35.71,35.71,35.71h33.17c1.06,0,1.92-.86,1.92-1.92s-.86-1.92-1.92-1.92Z"/>
  <path class="cls-1" d="M133.67,112.51c4.48,0,8.77,1.39,12.4,4.02.86.62,2.06.43,2.68-.43.62-.86.43-2.06-.43-2.68-4.29-3.1-9.35-4.74-14.65-4.74-11.07,0-20.48,7.24-23.76,17.23h-5.17c-1.06,0-1.92.86-1.92,1.92s.86,1.92,1.92,1.92h4.24c-.2,1.28-.31,2.6-.31,3.94s.11,2.65.31,3.94h-4.24c-1.06,0-1.92.86-1.92,1.92s.86,1.92,1.92,1.92h5.17c3.28,9.99,12.69,17.23,23.76,17.23,5.3,0,10.36-1.64,14.65-4.74.86-.62,1.05-1.82.43-2.68-.62-.86-1.82-1.05-2.68-.43-3.63,2.63-7.91,4.02-12.4,4.02-8.93,0-16.58-5.56-19.68-13.39h13.47c1.06,0,1.92-.86,1.92-1.92s-.86-1.92-1.92-1.92h-14.59c-.24-1.28-.37-2.59-.37-3.94s.13-2.66.37-3.94h20.79c1.06,0,1.92-.86,1.92-1.92s-.86-1.92-1.92-1.92h-19.68c3.11-7.84,10.75-13.39,19.68-13.39Z"/>
</svg>