<?xml version="1.0" encoding="UTF-8"?>
<svg id="Finance_Investment_Economics" data-name="Finance, Investment &amp;amp; Economics" xmlns="http://www.w3.org/2000/svg" viewBox="0 0 180 180">
  <defs>
    <style>
      .cls-1 {
        stroke: #000;
        stroke-miterlimit: 10;
        stroke-width: 2px;
      }
    </style>
  </defs>
  <path class="cls-1" d="M178.64,79.08l-16.39-5.36c-.35-1.49-.74-2.97-1.18-4.43l11.51-12.83c.57-.63.67-1.56.24-2.3l-9.05-15.68c-.43-.74-1.28-1.12-2.11-.94l-16.88,3.56c-1.04-1.11-2.12-2.19-3.23-3.23l3.56-16.88c.18-.83-.2-1.69-.94-2.11l-15.67-9.05c-.74-.43-1.67-.33-2.3.24l-12.83,11.51c-1.45-.44-2.94-.84-4.43-1.18l-5.36-16.39c-.27-.81-1.02-1.36-1.87-1.36h-9.06c-1.09,0-1.97.88-1.97,1.97s.88,1.97,1.97,1.97h7.63l5.26,16.09c.22.67.77,1.16,1.45,1.31,2.12.46,4.22,1.02,6.25,1.67.67.21,1.4.06,1.92-.41l12.6-11.3,13.2,7.62-3.49,16.57c-.14.68.09,1.39.6,1.86,1.59,1.44,3.12,2.98,4.57,4.57.47.52,1.18.75,1.86.6l16.58-3.49,7.62,13.2-11.3,12.6c-.47.52-.62,1.25-.41,1.92.65,2.04,1.21,4.14,1.67,6.25.15.68.65,1.24,1.31,1.46l16.09,5.26v15.24l-16.09,5.26c-.67.22-1.17.77-1.31,1.46-.45,2.1-1.02,4.21-1.67,6.25-.21.67-.06,1.39.41,1.92l11.3,12.6-7.62,13.2-16.58-3.49c-.69-.14-1.39.09-1.86.6-1.45,1.6-2.99,3.14-4.57,4.57-.52.47-.75,1.18-.6,1.86l3.49,16.58-13.2,7.62-12.6-11.3c-.52-.47-1.25-.62-1.92-.41-2.03.65-4.13,1.21-6.25,1.67-.68.15-1.24.65-1.46,1.31l-5.26,16.09h-7.63c-1.09,0-1.97.88-1.97,1.97s.88,1.97,1.97,1.97h9.05c.85,0,1.61-.55,1.87-1.36l5.36-16.38c1.49-.35,2.98-.74,4.43-1.18l12.83,11.51c.63.57,1.56.67,2.3.24l15.67-9.05c.74-.43,1.12-1.28.94-2.11l-3.56-16.88c1.1-1.04,2.18-2.12,3.23-3.23l16.88,3.56c.84.18,1.69-.2,2.11-.94l9.05-15.67c.43-.74.33-1.67-.24-2.3l-11.51-12.83c.44-1.46.84-2.94,1.18-4.43l16.39-5.36c.81-.27,1.36-1.02,1.36-1.87v-18.1c0-.85-.55-1.61-1.36-1.87Z"/>
  <path class="cls-1" d="M92.65,111.63c-1.09,0-1.97.88-1.97,1.97s.88,1.97,1.97,1.97c14.1,0,25.57-11.47,25.57-25.57s-11.47-25.57-25.57-25.57h0c-1.09,0-1.97.88-1.97,1.97s.88,1.97,1.97,1.97c11.93,0,21.63,9.7,21.63,21.63s-9.7,21.63-21.63,21.63Z"/>
  <path class="cls-1" d="M92.66,142.93c29.18,0,52.93-23.74,52.93-52.92s-23.74-52.93-52.93-52.93h0c-1.09,0-1.97.88-1.97,1.97s.89,1.97,1.98,1.97c27.01,0,48.99,21.98,48.99,48.99s-21.98,48.98-49,48.98c-1.09,0-1.97.88-1.97,1.97s.89,1.97,1.98,1.97Z"/>
  <path class="cls-1" d="M74.91,79.56V4.62c0-1.09-.88-1.97-1.97-1.97s-1.97.88-1.97,1.97v74.94c-4.92.93-8.66,5.25-8.66,10.44s3.74,9.51,8.66,10.44v74.93c0,1.09.88,1.97,1.97,1.97s1.97-.88,1.97-1.97v-74.93c4.92-.93,8.66-5.25,8.66-10.44s-3.74-9.51-8.66-10.44ZM72.94,96.69c-3.69,0-6.69-3-6.69-6.69s3-6.69,6.69-6.69,6.69,3,6.69,6.69-3,6.69-6.69,6.69Z"/>
  <path class="cls-1" d="M43.75,24.59V4.62c0-1.09-.88-1.97-1.97-1.97s-1.97.88-1.97,1.97v19.97c-4.92.93-8.66,5.25-8.66,10.44s3.74,9.51,8.66,10.44v129.9c0,1.09.88,1.97,1.97,1.97s1.97-.88,1.97-1.97V45.47c4.92-.93,8.66-5.25,8.66-10.44s-3.74-9.51-8.66-10.44ZM41.78,41.72c-3.69,0-6.69-3-6.69-6.69s3-6.69,6.69-6.69,6.69,3,6.69,6.69-3,6.69-6.69,6.69Z"/>
  <path class="cls-1" d="M12.6,134.53V4.62c0-1.09-.88-1.97-1.97-1.97s-1.97.88-1.97,1.97v129.91c-4.92.93-8.66,5.25-8.66,10.44s3.74,9.51,8.66,10.44v19.96c0,1.09.88,1.97,1.97,1.97s1.97-.88,1.97-1.97v-19.96c4.92-.93,8.66-5.25,8.66-10.44s-3.74-9.51-8.66-10.44ZM10.63,151.66c-3.69,0-6.69-3-6.69-6.69s3-6.69,6.69-6.69,6.69,3,6.69,6.69-3,6.69-6.69,6.69Z"/>
</svg>