<?xml version="1.0" encoding="UTF-8"?>
<svg id="Finance_Investment_Economics" data-name="Finance, Investment &amp;amp; Economics" xmlns="http://www.w3.org/2000/svg" viewBox="0 0 180 180">
  <defs>
    <style>
      .cls-1 {
        stroke: #000;
        stroke-miterlimit: 10;
        stroke-width: 2px;
      }
    </style>
  </defs>
  <path class="cls-1" d="M163.06,71.57h-1.26C157.02,31.32,122.71,0,81.2,0,36.43,0,0,36.43,0,81.2c0,41.51,31.32,75.82,71.57,80.6v1.26c0,9.34,7.6,16.94,16.94,16.94h74.54c9.34,0,16.94-7.6,16.94-16.94v-74.54c0-9.34-7.6-16.94-16.94-16.94ZM157.83,71.57h-35.85c-.58-9.86-2.02-19.33-4.29-28h30.95c4.75,8.48,7.94,17.94,9.2,28ZM146.26,39.61h-29.69c-1.65-5.5-3.63-10.63-5.94-15.3-4.15-8.4-9.08-14.78-14.49-18.89,20.98,4.13,38.95,16.78,50.12,34.19ZM83.18,4.07c12.3,1.35,23.02,15.2,29.3,35.54h-29.3V4.07ZM113.61,43.57c2.28,8.48,3.8,17.95,4.4,28h-29.51c-1.86,0-3.65.31-5.33.87v-28.87h30.44ZM74.36,79.22h-30.28c.16-12.91,1.85-25.05,4.7-35.65h30.44v30.79c-1.93,1.27-3.58,2.93-4.86,4.86ZM71.57,118.83h-22.79c-2.86-10.6-4.55-22.73-4.7-35.65h28.36c-.56,1.68-.87,3.47-.87,5.33v30.31ZM79.22,39.61h-29.3c6.27-20.34,17-34.19,29.3-35.54v35.54ZM66.26,5.42c-5.41,4.11-10.34,10.49-14.49,18.89-2.3,4.67-4.29,9.81-5.94,15.3h-29.69C27.31,22.2,45.27,9.55,66.26,5.42ZM13.77,43.57h30.95c-2.86,10.9-4.44,23.03-4.59,35.65H3.99c.33-12.91,3.84-25.05,9.78-35.65ZM3.99,83.18h36.14c.15,12.61,1.73,24.75,4.59,35.65H13.77c-5.94-10.6-9.46-22.73-9.78-35.65ZM16.14,122.79h29.69c1.65,5.5,3.63,10.63,5.94,15.3,4.15,8.4,9.08,14.78,14.49,18.89-20.98-4.13-38.95-16.78-50.12-34.19ZM49.92,122.79h21.65v33c-9.03-5.05-16.72-17.02-21.65-33ZM176.04,163.06c0,7.16-5.82,12.98-12.98,12.98h-74.54c-7.16,0-12.98-5.82-12.98-12.98v-74.54c0-7.16,5.82-12.98,12.98-12.98h74.54c7.16,0,12.98,5.82,12.98,12.98v74.54Z"/>
  <path class="cls-1" d="M128.04,121.18c-4.95-2.67-9.22-4.98-9.24-10.08,0-1.68.8-3.5,2.16-4.86,1.36-1.37,3.08-2.12,4.83-2.12,3.85,0,6.99,3.13,6.99,6.99,0,1.09.89,1.98,1.98,1.98s1.98-.89,1.98-1.98c0-5.36-3.87-9.82-8.96-10.76v-5.49c0-1.09-.89-1.98-1.98-1.98s-1.98.89-1.98,1.98v5.5c-2.09.41-4.05,1.47-5.66,3.09-2.12,2.13-3.32,4.92-3.31,7.67.03,7.45,6.03,10.69,11.32,13.55,5.28,2.85,10.27,5.55,10.51,11.97.1,2.74-.92,5.38-2.89,7.41-2.08,2.16-4.99,3.4-8,3.4-6,0-10.88-4.88-10.88-10.88,0-1.09-.89-1.98-1.98-1.98s-1.98.89-1.98,1.98c0,7.51,5.62,13.72,12.87,14.7v5.44c0,1.09.89,1.98,1.98,1.98s1.98-.89,1.98-1.98v-5.45c3.35-.45,6.51-2.01,8.87-4.46,2.72-2.82,4.13-6.48,3.99-10.31-.32-8.68-6.84-12.2-12.59-15.3Z"/>
</svg>