<?xml version="1.0" encoding="UTF-8"?>
<svg id="Finance_Investment_Economics" data-name="Finance, Investment &amp;amp; Economics" xmlns="http://www.w3.org/2000/svg" viewBox="0 0 180 180">
  <defs>
    <style>
      .cls-1 {
        stroke: #000;
        stroke-miterlimit: 10;
        stroke-width: 2px;
      }
    </style>
  </defs>
  <path class="cls-1" d="M178.83,96.48c-6.38-13-13.28-27.06-14.37-29.34-.41-40.46-17.81-57.72-58.12-57.72-15.71,0-29.95,6.28-40.42,16.44-6.4-3.6-13.77-5.66-21.62-5.66C19.87,20.2,0,40.07,0,64.49s19.87,44.29,44.29,44.29c6.46,0,12.59-1.4,18.13-3.9,6.63,9.66,12.8,18.9,12.53,34.47v29.46c0,.98.79,1.77,1.77,1.77s1.77-.79,1.77-1.77v-29.43c.29-16.42-6.29-26.51-12.87-36.1,13.67-7.55,22.95-22.11,22.95-38.8,0-15.27-7.77-28.76-19.56-36.73,9.77-9.17,22.89-14.8,37.31-14.8,38.48,0,54.29,15.82,54.58,54.6q0,.49,14.73,30.49c.9,1.84.87,2.77.71,3.02-.14.22-.73.48-1.96.49-4.09.04-11.63,0-11.7,0-.48.03-.92.18-1.26.52-.33.33-.52.79-.52,1.26v26.81c0,4.1-3.33,7.43-7.43,7.43h-31.58c-9.54,0-17.31-7.76-17.31-17.31v-9.23c0-.98-.79-1.77-1.77-1.77s-1.77.79-1.77,1.77v9.23c0,11.5,9.36,20.85,20.85,20.85h10.49v27.68c0,.98.79,1.77,1.77,1.77s1.77-.79,1.77-1.77v-27.68h17.54c6.05,0,10.98-4.93,10.98-10.98v-25.03c2.51,0,7.08.02,9.97,0,2.41-.02,4.07-.75,4.95-2.18.98-1.59.8-3.7-.55-6.45ZM85.03,64.49c0,22.47-18.28,40.74-40.74,40.74S3.55,86.96,3.55,64.49,21.82,23.75,44.29,23.75s40.74,18.28,40.74,40.74Z"/>
  <path class="cls-1" d="M42.52,36.47v5c-1.9.37-3.67,1.33-5.14,2.79-1.91,1.92-3.01,4.45-3,6.94.03,6.74,5.46,9.67,10.25,12.26,4.79,2.59,9.32,5.03,9.53,10.86.09,2.49-.84,4.88-2.62,6.73-1.89,1.96-4.53,3.08-7.26,3.08-5.45,0-9.88-4.43-9.88-9.88,0-.98-.79-1.77-1.77-1.77s-1.77.79-1.77,1.77c0,6.8,5.09,12.43,11.66,13.3v4.95c0,.98.79,1.77,1.77,1.77s1.77-.79,1.77-1.77v-4.95c3.04-.4,5.9-1.82,8.04-4.04,2.46-2.55,3.74-5.86,3.61-9.33-.29-7.86-6.19-11.04-11.39-13.85-4.49-2.42-8.37-4.52-8.39-9.15,0-1.53.73-3.18,1.96-4.42,1.24-1.24,2.8-1.93,4.39-1.93,3.5,0,6.35,2.85,6.35,6.35,0,.98.79,1.77,1.77,1.77s1.77-.79,1.77-1.77c0-4.85-3.51-8.89-8.12-9.73v-4.99c0-.98-.79-1.77-1.77-1.77s-1.77.79-1.77,1.77Z"/>
  <path class="cls-1" d="M44.29,122.23c-2.06,0-3.74,1.68-3.74,3.74s1.68,3.74,3.74,3.74,3.74-1.68,3.74-3.74-1.68-3.74-3.74-3.74Z"/>
  <path class="cls-1" d="M44.29,140.88c-2.06,0-3.74,1.68-3.74,3.74s1.68,3.74,3.74,3.74,3.74-1.68,3.74-3.74-1.68-3.74-3.74-3.74Z"/>
  <path class="cls-1" d="M44.29,159.52c-2.06,0-3.74,1.68-3.74,3.74s1.68,3.74,3.74,3.74,3.74-1.68,3.74-3.74-1.68-3.74-3.74-3.74Z"/>
</svg>