<?xml version="1.0" encoding="UTF-8"?>
<svg id="Finance_Investment_Economics" data-name="Finance, Investment &amp;amp; Economics" xmlns="http://www.w3.org/2000/svg" viewBox="0 0 180 180">
  <defs>
    <style>
      .cls-1 {
        stroke: #000;
        stroke-miterlimit: 10;
        stroke-width: 2px;
      }
    </style>
  </defs>
  <path class="cls-1" d="M88.11,72.36v5.19c0,1.04.85,1.89,1.89,1.89s1.89-.85,1.89-1.89v-5.19c3.19-.43,6.2-1.92,8.45-4.25,2.59-2.69,3.94-6.18,3.81-9.83-.31-8.28-6.52-11.63-12-14.59-4.72-2.55-8.79-4.75-8.81-9.61,0-1.6.76-3.33,2.06-4.63,1.3-1.3,2.93-2.02,4.61-2.02,3.67,0,6.66,2.99,6.66,6.66,0,1.04.85,1.89,1.89,1.89s1.89-.85,1.89-1.89c0-5.11-3.69-9.36-8.55-10.26v-5.23c0-1.04-.85-1.89-1.89-1.89s-1.89.85-1.89,1.89v5.24c-1.99.39-3.86,1.4-5.4,2.94-2.02,2.03-3.17,4.69-3.16,7.31.03,7.11,5.75,10.19,10.8,12.92,5.04,2.72,9.79,5.29,10.02,11.41.1,2.62-.88,5.13-2.75,7.07-1.98,2.06-4.76,3.24-7.62,3.24-5.72,0-10.37-4.65-10.37-10.37,0-1.04-.85-1.89-1.89-1.89s-1.89.85-1.89,1.89c0,7.16,5.35,13.08,12.27,14.01Z"/>
  <path class="cls-1" d="M169.72,137.14h-16.59v-14.74c0-1.04-.85-1.89-1.89-1.89h-40.88v-26.5h35.47c18.84,0,34.16-15.33,34.16-34.16s-15.32-34.16-34.16-34.16c-4.88,0-9.73,1.06-14.15,3.07-7.52-16.24-23.67-26.63-41.69-26.63s-34.17,10.39-41.69,26.63c-4.42-2.01-9.27-3.07-14.15-3.07C15.32,25.69,0,41.02,0,59.86s15.32,34.16,34.16,34.16h35.47v26.5H28.76c-1.04,0-1.89.85-1.89,1.89v14.74H10.28c-1.04,0-1.89.85-1.89,1.89v36.95c0,1.04.85,1.89,1.89,1.89h36.95c1.04,0,1.89-.85,1.89-1.89v-36.95c0-1.04-.85-1.89-1.89-1.89h-16.59v-12.86h40.88c1.04,0,1.89-.85,1.89-1.89v-28.38h14.7v43.13h-16.59c-1.04,0-1.89.85-1.89,1.89v36.95c0,1.04.85,1.89,1.89,1.89h36.95c1.04,0,1.89-.85,1.89-1.89v-36.95c0-1.04-.85-1.89-1.89-1.89h-16.59v-43.13h14.7v28.38c0,1.04.85,1.89,1.89,1.89h40.88v12.86h-16.59c-1.04,0-1.89.85-1.89,1.89v36.95c0,1.04.85,1.89,1.89,1.89h36.95c1.04,0,1.89-.85,1.89-1.89v-36.95c0-1.04-.85-1.89-1.89-1.89ZM45.34,174.09H12.17v-33.17h33.17v33.17ZM106.59,174.09h-33.17v-33.17h33.17v33.17ZM3.78,59.86c0-16.75,13.63-30.39,30.39-30.39,4.94,0,9.85,1.22,14.2,3.52.47.25,1.02.29,1.53.11.5-.18.9-.56,1.1-1.06,6.53-15.88,21.84-26.14,39-26.14s32.47,10.26,39.01,26.14c.2.49.6.88,1.1,1.06.5.18,1.05.14,1.53-.11,4.35-2.3,9.26-3.52,14.2-3.52,16.75,0,30.39,13.63,30.39,30.39s-13.63,30.39-30.39,30.39H34.16c-16.75,0-30.39-13.63-30.39-30.39ZM167.83,174.09h-33.17v-33.17h33.17v33.17Z"/>
</svg>