<?xml version="1.0" encoding="UTF-8"?>
<svg id="Finance_Investment_Economics" data-name="Finance, Investment &amp;amp; Economics" xmlns="http://www.w3.org/2000/svg" viewBox="0 0 180 180">
  <defs>
    <style>
      .cls-1 {
        stroke: #000;
        stroke-miterlimit: 10;
        stroke-width: 2px;
      }
    </style>
  </defs>
  <path class="cls-1" d="M90,158.93c12.56,0,22.77-12.33,22.77-27.49s-10.22-27.49-22.77-27.49-22.77,12.33-22.77,27.49,10.22,27.49,22.77,27.49ZM90,108c10.32,0,18.71,10.51,18.71,23.43s-8.39,23.43-18.71,23.43-18.71-10.51-18.71-23.43,8.39-23.43,18.71-23.43Z"/>
  <path class="cls-1" d="M146.62,154.87h-24.64c-1.12,0-2.03.91-2.03,2.03s.91,2.03,2.03,2.03h26.51c1.12,0,2.03-.91,2.03-2.03,0-4.92,4.01-8.93,8.93-8.93,1.12,0,2.03-.91,2.03-2.03v-29.01c0-1.12-.91-2.03-2.03-2.03-4.92,0-8.93-4.01-8.93-8.93,0-1.12-.91-2.03-2.03-2.03h-26.51c-1.12,0-2.03.91-2.03,2.03s.91,2.03,2.03,2.03h24.64c.87,5.54,5.26,9.93,10.8,10.8v25.27c-5.54.87-9.93,5.26-10.8,10.8Z"/>
  <path class="cls-1" d="M20.55,147.97c4.92,0,8.93,4.01,8.93,8.93,0,1.12.91,2.03,2.03,2.03h26.51c1.12,0,2.03-.91,2.03-2.03s-.91-2.03-2.03-2.03h-24.64c-.87-5.54-5.26-9.93-10.8-10.8v-25.27c5.54-.87,9.93-5.26,10.8-10.8h24.64c1.12,0,2.03-.91,2.03-2.03s-.91-2.03-2.03-2.03h-26.51c-1.12,0-2.03.91-2.03,2.03,0,4.92-4.01,8.93-8.93,8.93-1.12,0-2.03.91-2.03,2.03v29.01c0,1.12.91,2.03,2.03,2.03Z"/>
  <path class="cls-1" d="M177.97,85.42H2.03c-1.12,0-2.03.91-2.03,2.03v87.97c0,1.12.91,2.03,2.03,2.03h175.94c1.12,0,2.03-.91,2.03-2.03v-87.97c0-1.12-.91-2.03-2.03-2.03ZM175.94,173.39H4.06v-83.91h171.88v83.91Z"/>
  <path class="cls-1" d="M6.58,38.97c1.01.48,2.22.04,2.7-.97,2.25-4.76,4.03-8.96,5.61-12.65,5.82-13.64,7.99-18.74,17.51-18.74,10.1,0,14.57,10.86,19.75,23.42,1.07,2.6,5.62,13.18,6.68,15.75,5.49,13.34,10.68,25.94,23.5,25.94s18.14-7.49,24.55-23.22c4.61-11.32,7.38-16.64,12.38-16.55,6.07.12,8.47,5.28,11.26,11.26,2.77,5.95,5.92,12.7,13.66,12.84.08,0,.16,0,.25,0,11.12,0,14.56-14.04,17.6-26.44.3-1.23.6-2.43.9-3.61.33.03.67.05,1.01.05,5.6,0,10.15-4.55,10.15-10.15s-4.55-10.15-10.15-10.15-10.15,4.55-10.15,10.15c0,3.82,2.13,7.16,5.26,8.89-.32,1.26-.64,2.54-.96,3.86-2.83,11.55-5.75,23.52-13.83,23.34-4.86-.09-7.04-4.03-10.06-10.5-2.94-6.3-6.26-13.44-14.86-13.61-.08,0-.15,0-.23,0-8.21,0-11.82,8.85-15.99,19.08-6.54,16.05-11.2,20.69-20.79,20.69-10.1,0-14.57-10.86-19.75-23.43-1.07-2.6-5.62-13.18-6.68-15.75-5.49-13.34-10.68-25.94-23.5-25.94s-15.42,7.53-21.25,21.21c-1.56,3.66-3.34,7.82-5.55,12.52-.48,1.01-.04,2.22.97,2.7ZM163.94,9.82c3.36,0,6.09,2.73,6.09,6.09s-2.73,6.09-6.09,6.09-6.09-2.73-6.09-6.09,2.73-6.09,6.09-6.09Z"/>
  <path class="cls-1" d="M133.67,17.94h10.83c1.12,0,2.03-.91,2.03-2.03s-.91-2.03-2.03-2.03h-10.83c-1.12,0-2.03.91-2.03,2.03s.91,2.03,2.03,2.03Z"/>
  <path class="cls-1" d="M110.74,17.94h10.83c1.12,0,2.03-.91,2.03-2.03s-.91-2.03-2.03-2.03h-10.83c-1.12,0-2.03.91-2.03,2.03s.91,2.03,2.03,2.03Z"/>
  <path class="cls-1" d="M87.81,17.94h10.83c1.12,0,2.03-.91,2.03-2.03s-.91-2.03-2.03-2.03h-10.83c-1.12,0-2.03.91-2.03,2.03s.91,2.03,2.03,2.03Z"/>
  <path class="cls-1" d="M64.88,17.94h10.83c1.12,0,2.03-.91,2.03-2.03s-.91-2.03-2.03-2.03h-10.83c-1.12,0-2.03.91-2.03,2.03s.91,2.03,2.03,2.03Z"/>
</svg>