<?xml version="1.0" encoding="UTF-8"?>
<svg id="Finance_Investment_Economics" data-name="Finance, Investment &amp;amp; Economics" xmlns="http://www.w3.org/2000/svg" viewBox="0 0 180 180">
  <defs>
    <style>
      .cls-1 {
        stroke: #000;
        stroke-miterlimit: 10;
        stroke-width: 2px;
      }
    </style>
  </defs>
  <path class="cls-1" d="M92.25,103.52c-4.95-2.67-9.22-4.98-9.24-10.08,0-1.68.8-3.49,2.16-4.86,1.36-1.37,3.08-2.12,4.83-2.12,3.85,0,6.99,3.13,6.99,6.99,0,1.09.89,1.98,1.98,1.98s1.98-.89,1.98-1.98c0-5.36-3.87-9.82-8.96-10.76v-5.49c0-1.09-.89-1.98-1.98-1.98s-1.98.89-1.98,1.98v5.5c-2.09.41-4.05,1.47-5.66,3.09-2.12,2.13-3.32,4.92-3.31,7.67.03,7.45,6.03,10.69,11.32,13.55,5.28,2.85,10.27,5.55,10.51,11.97.1,2.74-.92,5.38-2.89,7.41-2.08,2.16-4.99,3.4-8,3.4-6,0-10.88-4.88-10.88-10.88,0-1.09-.89-1.98-1.98-1.98s-1.98.89-1.98,1.98c0,7.51,5.62,13.72,12.87,14.69v5.44c0,1.09.89,1.98,1.98,1.98s1.98-.89,1.98-1.98v-5.45c3.35-.45,6.5-2.01,8.86-4.46,2.72-2.82,4.13-6.48,3.99-10.31-.32-8.68-6.84-12.2-12.59-15.3Z"/>
  <path class="cls-1" d="M114.74,38.55l19.36-32.57c.51-.86.3-1.96-.48-2.57C131.41,1.69,128.88,0,124.34,0,119.36,0,116.79,2.03,114.53,3.83c-2.01,1.59-3.75,2.97-7.35,2.97s-5.34-1.38-7.35-2.97C97.56,2.03,94.99,0,90.01,0s-7.55,2.03-9.81,3.83c-2.01,1.6-3.75,2.97-7.35,2.97s-5.34-1.38-7.36-2.97C63.22,2.03,60.65,0,55.67,0,51.13,0,48.59,1.69,46.38,3.42c-.79.61-.99,1.72-.48,2.57l19.36,32.57C11.39,65.83,0,100.03,0,124.05c0,13.04,5.84,26.9,16.03,38.04,10.41,11.38,23.68,17.91,36.41,17.91h75.13c12.73,0,26-6.53,36.41-17.91,10.18-11.14,16.03-25.01,16.03-38.04,0-24.02-11.39-58.22-65.26-85.49ZM55.67,3.96c3.6,0,5.34,1.38,7.36,2.97,2.27,1.79,4.83,3.83,9.82,3.83s7.55-2.03,9.81-3.83c2.01-1.6,3.75-2.97,7.35-2.97s5.34,1.38,7.35,2.97c2.26,1.79,4.83,3.83,9.81,3.83s7.55-2.03,9.81-3.83c2.01-1.59,3.75-2.97,7.35-2.97,2.46,0,4.03.62,5.44,1.55l-18.95,31.88h-41.65L50.22,5.51c1.41-.93,2.98-1.55,5.45-1.55ZM127.57,176.04H52.43c-24.01,0-48.47-26.24-48.47-51.99,0-33.13,22.32-61.72,64.55-82.7h42.98c42.23,20.98,64.55,49.57,64.55,82.7,0,25.75-24.46,51.99-48.47,51.99Z"/>
  <path class="cls-1" d="M52.43,158.44c-14.14,0-30.87-18.64-30.87-34.39,0-1.09-.89-1.98-1.98-1.98s-1.98.89-1.98,1.98c0,8.46,4.18,18.14,11.18,25.89,7.05,7.81,15.89,12.47,23.65,12.47,1.09,0,1.98-.89,1.98-1.98s-.89-1.98-1.98-1.98Z"/>
  <path class="cls-1" d="M160.42,122.07c-1.09,0-1.98.89-1.98,1.98,0,15.75-16.73,34.39-30.87,34.39-1.09,0-1.98.89-1.98,1.98s.89,1.98,1.98,1.98c7.76,0,16.6-4.66,23.65-12.47,7-7.75,11.18-17.43,11.18-25.89,0-1.09-.89-1.98-1.98-1.98Z"/>
</svg>