<?xml version="1.0" encoding="UTF-8"?>
<svg id="Finance_Investment_Economics" data-name="Finance, Investment &amp;amp; Economics" xmlns="http://www.w3.org/2000/svg" viewBox="0 0 180 180">
  <defs>
    <style>
      .cls-1 {
        stroke: #000;
        stroke-miterlimit: 10;
        stroke-width: 2px;
      }
    </style>
  </defs>
  <path class="cls-1" d="M177.92,0H36.77C35.62,0,34.69.93,34.69,2.08v158.49c0,8.41-6.85,15.26-15.26,15.26s-15.26-6.85-15.26-15.26V24.57h19.57c1.15,0,2.08-.93,2.08-2.08s-.93-2.08-2.08-2.08H2.08c-1.15,0-2.08.93-2.08,2.08v138.08c0,10.71,8.71,19.43,19.43,19.43h141.15c10.71,0,19.42-8.71,19.42-19.43V2.08C180,.93,179.07,0,177.92,0ZM175.84,4.16v53.28H38.85V4.16h136.99ZM160.58,175.84H31.43c4.52-3.56,7.42-9.08,7.42-15.26V61.61h136.99v98.97c0,8.41-6.85,15.26-15.26,15.26Z"/>
  <path class="cls-1" d="M57.54,43.62c1.15,0,2.08-.93,2.08-2.08v-13.77l12.42,15.09c.4.49,1,.76,1.61.76.24,0,.47-.04.7-.12.83-.3,1.38-1.08,1.38-1.96v-19.58c0-1.15-.93-2.08-2.08-2.08s-2.08.93-2.08,2.08v13.77l-12.42-15.09c-.56-.68-1.48-.93-2.31-.64-.83.3-1.38,1.08-1.38,1.96v19.58c0,1.15.93,2.08,2.08,2.08Z"/>
  <path class="cls-1" d="M85.31,43.62h13.2c1.15,0,2.08-.93,2.08-2.08s-.93-2.08-2.08-2.08h-11.12v-5.62h6.61c1.15,0,2.08-.93,2.08-2.08s-.93-2.08-2.08-2.08h-6.61v-5.62h11.12c1.15,0,2.08-.93,2.08-2.08s-.93-2.08-2.08-2.08h-13.2c-1.15,0-2.08.93-2.08,2.08v19.58c0,1.15.93,2.08,2.08,2.08Z"/>
  <path class="cls-1" d="M111.31,42.2c.28.84,1.06,1.41,1.94,1.42.01,0,.02,0,.04,0,.87,0,1.65-.54,1.95-1.35l5.35-14.34,5.35,14.34c.31.83,1.1,1.38,1.99,1.35.88-.01,1.66-.58,1.94-1.42l6.55-19.58c.36-1.09-.22-2.27-1.31-2.63-1.09-.36-2.27.22-2.63,1.31l-4.68,13.99-5.24-14.06c-.3-.81-1.08-1.35-1.95-1.35s-1.65.54-1.95,1.35l-5.24,14.06-4.68-13.99c-.37-1.09-1.55-1.68-2.63-1.31-1.09.36-1.68,1.54-1.31,2.63l6.55,19.58Z"/>
  <path class="cls-1" d="M154.32,38.82c-1.9,1.46-7.26.74-10.45-.23-1.1-.33-2.26.28-2.6,1.38-.34,1.1.28,2.26,1.38,2.6.61.19,4.21,1.24,7.9,1.24,2.3,0,4.63-.41,6.3-1.68,1.13-.87,2.46-2.51,2.37-5.41-.14-4.37-4.62-5.99-8.22-7.29-3.41-1.23-5.64-2.16-5.63-3.78,0-1.01.35-1.38.65-1.59,1.65-1.17,6.16-.43,8.83.47,1.09.37,2.27-.21,2.64-1.3.37-1.09-.21-2.27-1.3-2.64-.86-.29-8.55-2.79-12.58.08-1.08.77-2.38,2.26-2.4,4.96-.03,4.69,4.63,6.37,8.38,7.73,3.17,1.15,5.42,2.07,5.47,3.51.04,1.21-.37,1.69-.74,1.97Z"/>
  <path class="cls-1" d="M57.54,117.34h59.07c1.15,0,2.08-.93,2.08-2.08v-37.02c0-1.15-.93-2.08-2.08-2.08h-59.07c-1.15,0-2.08.93-2.08,2.08v37.02c0,1.15.93,2.08,2.08,2.08ZM59.63,80.33h54.91v32.85h-54.91v-32.85Z"/>
  <path class="cls-1" d="M157.14,76.16h-24.38c-1.15,0-2.08.93-2.08,2.08s.93,2.08,2.08,2.08h24.38c1.15,0,2.08-.93,2.08-2.08s-.93-2.08-2.08-2.08Z"/>
  <path class="cls-1" d="M157.14,94.67h-24.38c-1.15,0-2.08.93-2.08,2.08s.93,2.08,2.08,2.08h24.38c1.15,0,2.08-.93,2.08-2.08s-.93-2.08-2.08-2.08Z"/>
  <path class="cls-1" d="M157.14,113.18h-24.38c-1.15,0-2.08.93-2.08,2.08s.93,2.08,2.08,2.08h24.38c1.15,0,2.08-.93,2.08-2.08s-.93-2.08-2.08-2.08Z"/>
  <path class="cls-1" d="M157.14,131.69H57.54c-1.15,0-2.08.93-2.08,2.08s.93,2.08,2.08,2.08h99.6c1.15,0,2.08-.93,2.08-2.08s-.93-2.08-2.08-2.08Z"/>
  <path class="cls-1" d="M157.14,150.2H57.54c-1.15,0-2.08.93-2.08,2.08s.93,2.08,2.08,2.08h99.6c1.15,0,2.08-.93,2.08-2.08s-.93-2.08-2.08-2.08Z"/>
</svg>