<?xml version="1.0" encoding="UTF-8"?>
<svg id="Finance_Investment_Economics" data-name="Finance, Investment &amp;amp; Economics" xmlns="http://www.w3.org/2000/svg" viewBox="0 0 180 180">
  <defs>
    <style>
      .cls-1 {
        stroke: #000;
        stroke-miterlimit: 10;
        stroke-width: 2px;
      }
    </style>
  </defs>
  <path class="cls-1" d="M178.16,53.95s-24.36-37.78-29.49-45.01l-.6-.85c-4.86-6.92-8.53-10.9-22.02-5.75-1.07.41-1.61,1.61-1.2,2.69.41,1.08,1.61,1.61,2.69,1.2,11.15-4.26,13.03-1.59,17.13,4.25l.61.86c3.78,5.34,17.29,26.15,24.6,37.45-.41-.05-.83-.07-1.25-.07h-54.9c-5.44,0-10,3.86-11.08,8.99-3.7-2.52-8.07-3.87-12.64-3.87s-8.94,1.36-12.64,3.87c-1.08-5.13-5.64-8.99-11.08-8.99H11.37c-.42,0-.84.03-1.25.07,7.31-11.3,20.82-32.11,24.6-37.45l.61-.87c4.1-5.84,5.98-8.51,17.13-4.25,1.07.41,2.28-.13,2.69-1.2.41-1.07-.13-2.28-1.2-2.69-13.49-5.15-17.16-1.17-22.02,5.75l-.6.85C26.2,16.18,1.84,53.95,1.84,53.95c-1.13,1.76-1.8,3.86-1.8,6.1v21.99c0,6.25,5.08,11.33,11.33,11.33h54.9c6.25,0,11.33-5.08,11.33-11.33v-19.21c7-6.41,17.79-6.41,24.79,0v19.21c0,6.25,5.08,11.33,11.33,11.33h54.9c6.25,0,11.33-5.08,11.33-11.33v-21.99c0-2.25-.67-4.34-1.8-6.1ZM73.44,82.05c0,3.95-3.22,7.17-7.17,7.17H11.37c-3.95,0-7.17-3.22-7.17-7.17v-21.99c0-3.95,3.22-7.17,7.17-7.17h54.9c3.95,0,7.17,3.22,7.17,7.17v21.99ZM175.8,82.05c0,3.95-3.22,7.17-7.17,7.17h-54.9c-3.95,0-7.17-3.22-7.17-7.17v-21.99c0-3.95,3.22-7.17,7.17-7.17h54.9c3.95,0,7.17,3.22,7.17,7.17v21.99Z"/>
  <path class="cls-1" d="M169.59,126.01H27.03c-.55,0-1.08.22-1.47.61L.65,151.54c-.81.81-.81,2.13,0,2.94l24.91,24.91c.39.39.92.61,1.47.61h142.56c5.72,0,10.37-4.65,10.37-10.37v-33.24c0-5.72-4.65-10.37-10.37-10.37ZM18,165.95c2.99-3.64,4.61-8.16,4.61-12.94s-1.63-9.3-4.61-12.94l8.97-8.97c5.36,6.06,8.29,13.76,8.29,21.92s-2.93,15.85-8.28,21.91l-8.98-8.98ZM37.59,164.5h90.88c1.15,0,2.08-.93,2.08-2.08s-.93-2.08-2.08-2.08H38.68c.96-4.84.96-9.83,0-14.67h89.8c1.15,0,2.08-.93,2.08-2.08s-.93-2.08-2.08-2.08H37.59c-1.3-4.02-3.29-7.86-5.98-11.33h111.3v45.66H31.61c2.69-3.47,4.68-7.31,5.98-11.33ZM5.06,153.01l9.98-9.98c2.21,2.84,3.41,6.32,3.41,9.98s-1.2,7.14-3.41,9.98l-9.98-9.98ZM175.8,169.63c0,3.42-2.79,6.21-6.21,6.21h-22.52v-45.66h22.52c3.42,0,6.21,2.79,6.21,6.21v33.24Z"/>
</svg>