<?xml version="1.0" encoding="UTF-8"?>
<svg id="Finance_Investment_Economics" data-name="Finance, Investment &amp;amp; Economics" xmlns="http://www.w3.org/2000/svg" viewBox="0 0 180 180">
  <defs>
    <style>
      .cls-1 {
        stroke: #000;
        stroke-miterlimit: 10;
        stroke-width: 2px;
      }
    </style>
  </defs>
  <path class="cls-1" d="M178.02,0H1.98C.89,0,0,.89,0,1.98v14.82c0,1.09.89,1.98,1.98,1.98h2.65v98.62c0,1.09.89,1.98,1.98,1.98h48.57l-18.09,56.66h-4.04c-1.09,0-1.98.89-1.98,1.98s.89,1.98,1.98,1.98h11.28c1.09,0,1.98-.89,1.98-1.98s-.89-1.98-1.98-1.98h-3.08l18.09-56.66h61.33l18.09,56.66h-3.08c-1.09,0-1.98.89-1.98,1.98s.89,1.98,1.98,1.98h11.28c1.09,0,1.98-.89,1.98-1.98s-.89-1.98-1.98-1.98h-4.04l-18.09-56.66h48.57c1.09,0,1.98-.89,1.98-1.98V18.78h2.65c1.09,0,1.98-.89,1.98-1.98V1.98c0-1.09-.89-1.98-1.98-1.98ZM171.41,115.42H8.59V18.78h162.81v96.64ZM176.04,14.82H3.96V3.96h172.08v10.86Z"/>
  <path class="cls-1" d="M94.17,159.43h-2.19v-27.2c0-1.09-.89-1.98-1.98-1.98s-1.98.89-1.98,1.98v27.2h-2.19c-1.09,0-1.98.89-1.98,1.98s.89,1.98,1.98,1.98h8.34c1.09,0,1.98-.89,1.98-1.98s-.89-1.98-1.98-1.98Z"/>
  <path class="cls-1" d="M128.08,50.18h19.28c1.09,0,1.98-.89,1.98-1.98s-.89-1.98-1.98-1.98h-19.28c-1.09,0-1.98.89-1.98,1.98s.89,1.98,1.98,1.98Z"/>
  <path class="cls-1" d="M128.08,68.71h19.28c1.09,0,1.98-.89,1.98-1.98s-.89-1.98-1.98-1.98h-19.28c-1.09,0-1.98.89-1.98,1.98s.89,1.98,1.98,1.98Z"/>
  <path class="cls-1" d="M128.08,87.24h19.28c1.09,0,1.98-.89,1.98-1.98s-.89-1.98-1.98-1.98h-19.28c-1.09,0-1.98.89-1.98,1.98s.89,1.98,1.98,1.98Z"/>
  <path class="cls-1" d="M30.59,86.92c.33.22.71.32,1.08.32.65,0,1.28-.32,1.66-.9l11.48-17.63h7.99c.67,0,1.29-.34,1.66-.9l11.48-17.63h6.92l11.48,17.63c.37.56.99.9,1.66.9h9.15c.67,0,1.29-.34,1.66-.9l8.64-13.28c.33.64.99,1.09,1.76,1.09,1.09,0,1.98-.89,1.98-1.98v-5.44c0-.67-.34-1.29-.9-1.66-.56-.37-1.27-.42-1.88-.15l-5.03,2.21c-1,.44-1.46,1.61-1.02,2.61.32.72,1.02,1.16,1.76,1.18l-8.05,12.37h-7l-11.48-17.63c-.37-.56-.99-.9-1.66-.9h-9.07c-.67,0-1.29.34-1.66.9l-11.48,17.63h-7.99c-.67,0-1.29.34-1.66.9l-12.06,18.53c-.6.92-.34,2.14.58,2.74Z"/>
  <path class="cls-1" d="M57.89,83.28h-8.57c-1.09,0-1.98.89-1.98,1.98s.89,1.98,1.98,1.98h8.57c1.09,0,1.98-.89,1.98-1.98s-.89-1.98-1.98-1.98Z"/>
  <path class="cls-1" d="M80.06,83.28h-8.57c-1.09,0-1.98.89-1.98,1.98s.89,1.98,1.98,1.98h8.57c1.09,0,1.98-.89,1.98-1.98s-.89-1.98-1.98-1.98Z"/>
  <path class="cls-1" d="M102.23,83.28h-8.57c-1.09,0-1.98.89-1.98,1.98s.89,1.98,1.98,1.98h8.57c1.09,0,1.98-.89,1.98-1.98s-.89-1.98-1.98-1.98Z"/>
</svg>