<?xml version="1.0" encoding="UTF-8"?>
<svg id="Finance_Investment_Economics" data-name="Finance, Investment &amp;amp; Economics" xmlns="http://www.w3.org/2000/svg" viewBox="0 0 180 180">
  <defs>
    <style>
      .cls-1 {
        stroke: #000;
        stroke-miterlimit: 10;
        stroke-width: 2px;
      }
    </style>
  </defs>
  <path class="cls-1" d="M165.52,31.65L134.46.59c-.38-.38-.9-.59-1.44-.59H25.18c-6.23,0-11.29,5.06-11.29,11.29v157.42c0,6.22,5.06,11.29,11.29,11.29h129.64c6.23,0,11.29-5.06,11.29-11.29V33.09c0-.54-.21-1.05-.59-1.44ZM135.05,6.93l24.13,24.13h-24.13V6.93ZM154.82,175.94H25.18c-3.99,0-7.23-3.24-7.23-7.23V11.29c0-3.99,3.24-7.23,7.23-7.23h105.81v29.03c0,1.12.91,2.03,2.03,2.03h29.03v133.59c0,3.99-3.24,7.23-7.23,7.23Z"/>
  <path class="cls-1" d="M36.58,35.12h74.83c1.12,0,2.03-.91,2.03-2.03s-.91-2.03-2.03-2.03H38.61v-12.41c0-1.12-.91-2.03-2.03-2.03s-2.03.91-2.03,2.03v14.44c0,1.12.91,2.03,2.03,2.03Z"/>
  <path class="cls-1" d="M143.42,60.87H36.58c-1.12,0-2.03.91-2.03,2.03v94.74c0,1.12.91,2.03,2.03,2.03h106.84c1.12,0,2.03-.91,2.03-2.03V62.9c0-1.12-.91-2.03-2.03-2.03ZM141.39,108.23h-27.94v-19.62h27.94v19.62ZM109.39,108.23H38.61v-19.62h70.77v19.62ZM38.61,112.29h70.77v19.62H38.61v-19.62ZM113.45,112.29h27.94v19.62h-27.94v-19.62ZM141.39,84.55h-27.94v-19.62h27.94v19.62ZM38.61,64.93h70.77v19.62H38.61v-19.62ZM38.61,135.98h70.77v19.62H38.61v-19.62ZM141.39,155.6h-27.94v-19.62h27.94v19.62Z"/>
  <path class="cls-1" d="M36.58,50.02h74.83c1.12,0,2.03-.91,2.03-2.03s-.91-2.03-2.03-2.03H36.58c-1.12,0-2.03.91-2.03,2.03s.91,2.03,2.03,2.03Z"/>
</svg>