<?xml version="1.0" encoding="UTF-8"?>
<svg id="Finance_Investment_Economics" data-name="Finance, Investment &amp;amp; Economics" xmlns="http://www.w3.org/2000/svg" viewBox="0 0 180 180">
  <defs>
    <style>
      .cls-1 {
        stroke: #000;
        stroke-miterlimit: 10;
        stroke-width: 2px;
      }
    </style>
  </defs>
  <path class="cls-1" d="M172.1,0h-64.31c-.79,0-1.5.47-1.8,1.2-.3.73-.13,1.56.42,2.12l16.99,16.99-37.93,37.93c-.76.76-.76,1.99,0,2.75.76.76,1.99.76,2.75,0l39.31-39.31c.76-.76.76-1.99,0-2.75l-15.04-15.04h57.67v57.67l-15.04-15.04c-.76-.76-1.99-.76-2.75,0l-39.31,39.31c-.76.76-.76,1.99,0,2.75.38.38.88.57,1.37.57s1-.19,1.37-.57l37.93-37.93,16.99,16.99c.56.56,1.39.72,2.12.42.73-.3,1.2-1.01,1.2-1.8V1.94C174.05.87,173.17,0,172.1,0Z"/>
  <path class="cls-1" d="M71.06,88.89v-44.84c0-1.07-.87-1.94-1.94-1.94H24.28c-.79,0-1.5.47-1.8,1.2-.3.73-.13,1.56.42,2.12l11.43,11.43-27.81,27.81c-.76.76-.76,1.99,0,2.75.76.76,1.99.76,2.75,0l29.18-29.18c.76-.76.76-1.99,0-2.75l-9.48-9.48h38.2v38.2l-9.48-9.48c-.76-.76-1.99-.76-2.75,0L6.52,123.13c-.76.76-.76,1.99,0,2.75.38.38.88.57,1.37.57s.99-.19,1.37-.57l47.04-47.04,11.43,11.43c.56.56,1.39.72,2.12.42.73-.3,1.2-1.01,1.2-1.8Z"/>
  <path class="cls-1" d="M55.78,115.51L6.52,164.77c-.76.76-.76,1.99,0,2.75.38.38.88.57,1.37.57s.99-.19,1.37-.57l49.26-49.26c.76-.76.76-1.99,0-2.75-.76-.76-1.99-.76-2.75,0Z"/>
  <path class="cls-1" d="M65.72,24.63c.5,0,1-.19,1.37-.57L87.84,3.32c.76-.76.76-1.99,0-2.75-.76-.76-1.99-.76-2.75,0l-20.74,20.74c-.76.76-.76,1.99,0,2.75.38.38.88.57,1.37.57Z"/>
  <path class="cls-1" d="M170.73,87.07l-20.74,20.74c-.76.76-.76,1.99,0,2.75.38.38.88.57,1.37.57s1-.19,1.37-.57l20.74-20.74c.76-.76.76-1.99,0-2.75-.76-.76-1.99-.76-2.75,0Z"/>
  <path class="cls-1" d="M103.4,99.68c-18.97,0-33.27,6.42-33.27,14.94v50.45c0,8.52,14.31,14.94,33.27,14.94s33.27-6.42,33.27-14.94v-50.45c0-8.52-14.31-14.94-33.27-14.94ZM132.78,165.06c0,5.23-12.07,11.05-29.39,11.05s-29.39-5.82-29.39-11.05v-9.49c5.5,4.67,16.34,7.71,29.39,7.71s23.89-3.04,29.39-7.71v9.49ZM132.78,148.34c0,5.23-12.07,11.05-29.39,11.05s-29.39-5.82-29.39-11.05v-9.49c5.5,4.67,16.34,7.71,29.39,7.71s23.89-3.04,29.39-7.71v9.49ZM132.78,131.62c0,5.23-12.07,11.05-29.39,11.05s-29.39-5.82-29.39-11.05v-9.77c5.5,4.67,16.34,7.71,29.39,7.71s23.89-3.04,29.39-7.71v9.77ZM103.4,125.66c-17.32,0-29.39-5.82-29.39-11.05s12.07-11.05,29.39-11.05,29.39,5.82,29.39,11.05-12.07,11.05-29.39,11.05Z"/>
</svg>