<?xml version="1.0" encoding="UTF-8"?>
<svg id="Finance_Investment_Economics" data-name="Finance, Investment &amp;amp; Economics" xmlns="http://www.w3.org/2000/svg" viewBox="0 0 180 180">
  <defs>
    <style>
      .cls-1 {
        stroke: #000;
        stroke-miterlimit: 10;
        stroke-width: 2px;
      }
    </style>
  </defs>
  <path class="cls-1" d="M136.98,153.91c1.12,0,2.03-.91,2.03-2.03v-5.41c3.35-.46,6.5-2.02,8.86-4.47,2.73-2.83,4.15-6.51,4.01-10.35-.32-8.72-6.85-12.24-12.62-15.35-5.71-3.08-9.2-5.21-9.22-10.05,0-1.67.8-3.47,2.15-4.83,1.35-1.36,3.06-2.11,4.8-2.11,3.83,0,6.94,3.12,6.94,6.94,0,1.12.91,2.03,2.03,2.03s2.03-.91,2.03-2.03c0-5.37-3.87-9.85-8.97-10.81v-5.45c0-1.12-.91-2.03-2.03-2.03s-2.03.91-2.03,2.03v5.46c-2.09.42-4.04,1.48-5.65,3.1-2.13,2.14-3.34,4.95-3.33,7.71.03,7.49,6.05,10.74,11.36,13.6,5.27,2.85,10.25,5.54,10.49,11.93.1,2.73-.92,5.35-2.87,7.38-2.07,2.15-4.98,3.38-7.97,3.38-5.98,0-10.84-4.86-10.84-10.84,0-1.12-.91-2.03-2.03-2.03s-2.03.91-2.03,2.03c0,7.53,5.62,13.75,12.87,14.75v5.41c0,1.12.91,2.03,2.03,2.03Z"/>
  <path class="cls-1" d="M177.97,175.94H4.06V2.03C4.06.91,3.15,0,2.03,0S0,.91,0,2.03v175.94c0,1.12.91,2.03,2.03,2.03h175.94c1.12,0,2.03-.91,2.03-2.03s-.91-2.03-2.03-2.03Z"/>
  <path class="cls-1" d="M24.82,31.63h12.29c1.12,0,2.03-.91,2.03-2.03s-.91-2.03-2.03-2.03h-12.29c-1.12,0-2.03.91-2.03,2.03s.91,2.03,2.03,2.03Z"/>
  <path class="cls-1" d="M57.41,31.63h12.29c1.12,0,2.03-.91,2.03-2.03s-.91-2.03-2.03-2.03h-12.29c-1.12,0-2.03.91-2.03,2.03s.91,2.03,2.03,2.03Z"/>
  <path class="cls-1" d="M90,31.63h12.29c1.12,0,2.03-.91,2.03-2.03s-.91-2.03-2.03-2.03h-12.29c-1.12,0-2.03.91-2.03,2.03s.91,2.03,2.03,2.03Z"/>
  <path class="cls-1" d="M20.43,160.52c.28.02.56.03.83.03,16.15,0,23.2-29.09,30.01-57.23,5.55-22.9,11.28-46.59,20.65-46.59,7-.23,10.45,4.69,14.44,10.38,4.07,5.8,8.66,12.37,17.85,11.98,12.32-.04,18.18-17.63,24.39-36.24.06-.18.12-.37.19-.55,1.07.28,2.19.45,3.34.45,7.25,0,13.14-5.9,13.14-13.14,0-5.06-2.88-9.45-7.08-11.65,4.4-8.52,9.76-14.32,17.16-13.86,1.13.06,2.08-.78,2.15-1.9.07-1.12-.78-2.08-1.9-2.15-.38-.02-.75-.03-1.12-.03-9.08,0-15.27,6.91-20.18,16.65-.71-.12-1.43-.2-2.17-.2-7.25,0-13.14,5.9-13.14,13.14,0,4.64,2.42,8.72,6.06,11.06-.1.3-.2.61-.3.91-5.48,16.45-11.16,33.46-20.58,33.46-.03,0-.06,0-.09,0-6.98.32-10.41-4.58-14.39-10.25-4.08-5.81-8.66-12.39-17.83-12.1-12.5,0-18.07,23.03-24.53,49.69-6.23,25.74-13.29,54.93-26.66,54.11-1.13-.06-2.08.78-2.15,1.9-.07,1.12.78,2.08,1.9,2.15ZM132.13,20.52c5.01,0,9.08,4.07,9.08,9.08s-4.07,9.08-9.08,9.08-9.08-4.07-9.08-9.08,4.07-9.08,9.08-9.08Z"/>
</svg>