<?xml version="1.0" encoding="UTF-8"?>
<svg id="Finance_Investment_Economics" data-name="Finance, Investment &amp;amp; Economics" xmlns="http://www.w3.org/2000/svg" viewBox="0 0 180 180">
  <defs>
    <style>
      .cls-1 {
        stroke: #000;
        stroke-miterlimit: 10;
        stroke-width: 2px;
      }
    </style>
  </defs>
  <path class="cls-1" d="M167.41,0H12.59C5.65,0,0,5.65,0,12.59v154.83c0,6.94,5.65,12.59,12.59,12.59h154.83c6.94,0,12.59-5.65,12.59-12.59V12.59C180,5.65,174.35,0,167.41,0ZM12.59,4.27h154.83c4.58,0,8.31,3.73,8.31,8.31v17.15H4.27V12.59c0-4.58,3.73-8.31,8.31-8.31ZM167.41,175.73H12.59c-4.58,0-8.31-3.73-8.31-8.31V34.01h171.45v133.41c0,4.58-3.73,8.31-8.31,8.31Z"/>
  <path class="cls-1" d="M160.62,21.51c2.49,0,4.51-2.02,4.51-4.51s-2.02-4.51-4.51-4.51-4.51,2.02-4.51,4.51,2.02,4.51,4.51,4.51Z"/>
  <path class="cls-1" d="M139.7,21.51c2.49,0,4.51-2.02,4.51-4.51s-2.02-4.51-4.51-4.51-4.51,2.02-4.51,4.51,2.02,4.51,4.51,4.51Z"/>
  <circle class="cls-1" cx="118.79" cy="17" r="4.51"/>
  <path class="cls-1" d="M100.38,91.07v3.88c0,1.18.96,2.14,2.14,2.14s2.14-.96,2.14-2.14v-3.88c2.62-.46,5.08-1.73,6.94-3.66,2.28-2.36,3.47-5.43,3.35-8.65-.27-7.26-5.86-10.28-10.36-12.71-4.39-2.37-7.09-4.01-7.1-7.58,0-1.2.58-2.51,1.56-3.49.98-.99,2.22-1.53,3.47-1.53,2.78,0,5.04,2.26,5.04,5.04,0,1.18.96,2.14,2.14,2.14s2.14-.96,2.14-2.14c0-4.4-3.07-8.08-7.17-9.05v-3.94c0-1.18-.96-2.14-2.14-2.14s-2.14.96-2.14,2.14v3.96c-1.61.41-3.11,1.26-4.37,2.51-1.8,1.8-2.82,4.18-2.81,6.53.03,6.29,4.98,8.96,9.35,11.32,4.26,2.3,7.94,4.29,8.12,9.1.08,2.04-.69,4.01-2.15,5.52-1.56,1.62-3.75,2.55-6,2.55-4.49,0-8.15-3.66-8.15-8.15,0-1.18-.96-2.14-2.14-2.14s-2.14.96-2.14,2.14c0,6.12,4.46,11.21,10.29,12.23Z"/>
  <path class="cls-1" d="M66.14,61.81l5.95-4.46v30c0,1.18.96,2.14,2.14,2.14s2.14-.96,2.14-2.14v-34.28c0-.81-.46-1.55-1.18-1.91-.72-.36-1.59-.28-2.24.2l-9.37,7.03c-.94.71-1.14,2.05-.43,2.99.71.95,2.05,1.14,2.99.43Z"/>
  <path class="cls-1" d="M29.17,60.89c1.09.46,2.34-.05,2.8-1.14,1.18-2.78,3.89-4.58,6.91-4.58,4.13,0,7.5,3.36,7.5,7.5,0,3.43-3.48,5.99-7.51,8.96-5.16,3.79-11,8.09-11,15.77,0,1.18.96,2.14,2.14,2.14h19.25c1.18,0,2.14-.96,2.14-2.14s-.96-2.14-2.14-2.14h-16.87c.99-4.28,4.91-7.16,9.02-10.19,4.55-3.35,9.25-6.81,9.25-12.4,0-6.49-5.28-11.77-11.77-11.77-4.74,0-9,2.82-10.84,7.19-.46,1.09.05,2.34,1.14,2.8Z"/>
  <path class="cls-1" d="M156.19,86.68c0-1.18-.96-2.14-2.14-2.14s-2.14.96-2.14,2.14v60.8h-21.37v-40.89c0-1.18-.96-2.14-2.14-2.14s-2.14.96-2.14,2.14v40.89h-21.37v-30.05c0-1.18-.96-2.14-2.14-2.14s-2.14.96-2.14,2.14v30.05h-21.37v-20.33c0-1.18-.96-2.14-2.14-2.14s-2.14.96-2.14,2.14v20.33h-21.37v-40.89c0-1.18-.96-2.14-2.14-2.14s-2.14.96-2.14,2.14v40.89h-21.37v-20.33c0-1.18-.96-2.14-2.14-2.14s-2.14.96-2.14,2.14v22.47c0,1.18.96,2.14,2.14,2.14h128.35c1.18,0,2.14-.96,2.14-2.14,0-.24-.05-.47-.12-.68v-62.25Z"/>
</svg>