<?xml version="1.0" encoding="UTF-8"?>
<svg id="Layer_1" data-name="Layer 1" xmlns="http://www.w3.org/2000/svg" viewBox="0 0 180 180">
  <defs>
    <style>
      .cls-1 {
        stroke: #000;
        stroke-miterlimit: 10;
        stroke-width: 3px;
      }
    </style>
  </defs>
  <path d="M179.95,55.01c-.51-3.92-4.19-8.21-8.04-9.16-1.07-.26-3.24-.09-3.73-.67-1.28-7.03-5.21-10.68-12.38-11.22l-57.11-.08c-.88-.25-1.59-.75-2.3-1.3-6.24-4.81-16.46-19.61-23.82-20.57l-63.05.07C4.29,13.11.84,16.98.01,22.18v137.2c.29,4.41,3.72,8.24,8.18,8.6h161.2c5.72-.5,10.11-4.9,10.6-10.6l-.05-102.36ZM12.06,55.82l-.03,103.15c-.31,3.4-4.41,4.14-5.83,1.01l-.19-136.61c.06-2.37,1.43-4.36,3.68-5.11l62.5-.25c1.06.18,2.19,1.11,3.03,1.77,5.22,4.12,15.87,18.04,21.1,19.69.88.28,1.75.45,2.67.53h32.52c8.51-.3,16.99-.54,25.09-.02,2.99.32,4.97,2.23,5.4,5.2H23.41c-5.61,0-10.93,5.09-11.36,10.64ZM169.79,161.96H17.61c.01-.89.39-1.69.42-2.58,1.14-34.03-.9-68.7-.02-102.8.08-1.61,1.62-4.34,3.18-4.82l148.21-.2c2.81,0,4.53,2.85,4.6,5.4v99.62c.4,2.05-2.35,5.38-4.22,5.38Z"/>
  <g>
    <path class="cls-1" d="M83.7,67.3c-1.23-4.46-3.34-7.76-7.73-9.54h-4.37c-10.3,3.16-11.79,16.75-10.55,25.96.63,4.67,3.66,9.83,4.78,14.45l14.9-1.48c3.31-9.08,5.59-19.86,2.96-29.38ZM79.31,94.23l-12.22,1.29c-.92-4.02-3.41-8.52-3.92-12.58-1.02-8.02.2-19.85,8.65-22.6h3.58c3.6,1.55,5.33,4.43,6.34,8.31,2.16,8.29.29,17.67-2.43,25.58Z"/>
    <path class="cls-1" d="M81.34,104.29l-14.03,1.32c-.59,6.72,3.12,16.01,11.35,13.12,5.32-1.87,4.37-10.16,2.67-14.43ZM77.71,116.94c-6.12,2.15-8.88-4.76-8.44-9.75l10.43-.98c1.26,3.18,1.97,9.34-1.99,10.73Z"/>
  </g>
  <path class="cls-1" d="M110.92,133.19l14.9,1.48c1.12-4.61,4.15-9.78,4.78-14.45,1.24-9.21-.25-22.8-10.55-25.96h-4.37c-4.38,1.78-6.49,5.08-7.73,9.54-2.63,9.52-.35,20.3,2.96,29.38ZM109.92,105.17c1.01-3.88,2.74-6.76,6.34-8.31h3.58c8.45,2.75,9.67,14.58,8.65,22.6-.52,4.06-3.01,8.56-3.92,12.58l-12.22-1.29c-2.71-7.9-4.58-17.29-2.43-25.58Z"/>
  <path class="cls-1" d="M112.99,155.23c8.24,2.89,11.94-6.4,11.35-13.12l-14.03-1.32c-1.7,4.27-2.65,12.57,2.67,14.43ZM111.95,142.72l10.43.98c.44,4.99-2.32,11.9-8.44,9.75-3.96-1.39-3.25-7.55-1.99-10.73Z"/>
</svg>