<?xml version="1.0" encoding="UTF-8"?>
<svg id="Layer_1" data-name="Layer 1" xmlns="http://www.w3.org/2000/svg" viewBox="0 0 180 180">
  <defs>
    <style>
      .cls-1 {
        stroke-width: 3px;
      }

      .cls-1, .cls-2, .cls-3 {
        stroke: #000;
        stroke-miterlimit: 10;
      }

      .cls-2 {
        stroke-width: .75px;
      }

      .cls-3 {
        stroke-width: .5px;
      }
    </style>
  </defs>
  <path class="cls-3" d="M157.5,32.14h-8c-12.77,0-25.2-4.5-35.01-12.68L92.06.75c-1.19-1-2.93-1-4.12,0l-22.47,18.73c-9.8,8.17-22.23,12.66-34.98,12.66h-7.98c-1.78,0-3.21,1.44-3.21,3.21v65.46c0,20.47,10.17,39.46,27.2,50.81l41.74,27.82c.54.36,1.16.54,1.78.54s1.24-.18,1.78-.54l41.74-27.82c17.03-11.35,27.2-30.35,27.2-50.81V35.36c0-1.78-1.44-3.21-3.21-3.21ZM154.29,100.82c0,18.31-9.1,35.31-24.33,45.47l-39.95,26.64-39.95-26.64c-15.24-10.16-24.33-27.15-24.33-45.47v-62.25h4.77c14.26,0,28.14-5.03,39.1-14.16l20.42-17.02,20.37,17c10.96,9.14,24.85,14.18,39.12,14.18h4.79v62.25Z"/>
  <path class="cls-1" d="M109.42,117.12h-2.78l-2.65,2.26h5.43c.62,0,1.13-.51,1.13-1.13s-.51-1.13-1.13-1.13Z"/>
  <polygon class="cls-1" points="121.94 136.55 111.29 136.55 111.74 137.12 113.96 137.04 115.95 138.81 119.21 138.81 121.94 136.55"/>
  <path class="cls-1" d="M115.44,82.62h-9.13l2.08,2.26h7.05c.62,0,1.13-.51,1.13-1.13s-.51-1.13-1.13-1.13Z"/>
  <polygon class="cls-1" points="76.5 93.66 73.32 95.92 86.62 95.92 86.94 95.53 89.43 93.66 76.5 93.66"/>
  <path class="cls-1" d="M77.01,118.7l-1.33-1.16-2.75-1.54-3.24-3.45c-.19,2.55-2.3,4.57-4.89,4.57-.62,0-1.13.51-1.13,1.13s.51,1.13,1.13,1.13c2.54,0,4.78-1.33,6.06-3.33,1.28,2,3.52,3.33,6.06,3.33h1.06l-.96-.68Z"/>
  <path class="cls-2" d="M139.33,114.61c-.74-1.23-2.11-3.56-3.69-1.79-1.29,1.44.64,3.12,1.27,4.44,4.88,10.26,1.28,19.28-6.85,26.25-8.01,6.87-18.95,6.14-26.69-.68-4.85-4.27-11.58-11.01-15.85-15.86-4.61-5.24-6.59-11.66-4.9-18.6,1.7-6.96,8.6-13.88,15.33-16.15,2.09,1.35,3.72,3.77,3.93,6.32-9.58,2.23-16.92,13.92-9.91,22.61,5.92,5.1,11.26,12.34,17.22,17.22,11.74,9.63,29.4-7.74,20.17-19.72l-13.66-13.71c-.3-.66.3-2.62.35-3.52.12-2.11-.12-4.21-.46-6.28,5.47,4.19,9.87,9.7,14.96,14.34.25.13.5.19.73.21l1.52-.54s-.95-4.74-.76-4.85c.19-.11-.76-1.83-.76-1.83l-.66,2.43c-4.76-4.65-9.13-10.08-14.6-13.73-.64-.42-1.5-.63-2.05-1.15-.97-.92-2.55-4.21-3.86-5.72-4.64-5.33-14.9-15.84-20.55-19.6-.64-.42-1.5-.63-2.05-1.15-.95-.9-2.49-4.14-3.75-5.6-4.38-5.08-12.04-12.7-17.1-17.11-6.32-5.51-14.58-7.3-22.64-4.84-8.89,2.7-17.44,12.62-18.3,21.96-.13,1.46.1,3.08,0,4.56.32,1.08.39,2.23.65,3.34.5,2.05,1.49,4.52,2.58,6.31.75,1.24,1.96,3.42,3.62,2.12,1.74-1.36-.56-3.51-1.28-4.92-5.25-10.29-.63-20.88,8.13-27.24,8.04-5.84,18.11-4.75,25.41,1.68,4.85,4.28,11.57,11,15.85,15.86.19.22,1.7,2.08,1.59,2.17-3.26-.66-6.37-.5-9.64-.03l-13.87-13.75c-11.94-9.08-28.98,7.99-19.92,19.92,9.07,7.02,20.19,28.26,33.62,17.25,2.97-2.44,5.69-5.82,6.4-9.68,2.55.2,4.97,1.84,6.32,3.93-2.27,6.72-9.19,13.63-16.15,15.33-14.75,3.61-21.7-8.89-31.02-17.34-1.62-.55-2.96.44-2.4,2.17l14.65,14.55c4.36,1.66,5.01,4.9,7.71,8.03,4.38,5.08,12.04,12.7,17.1,17.11,1.48,1.29,5.02,2.96,5.76,3.71.28.28.76,1.67,1.11,2.2,4.87,7.54,13.82,13.79,19.71,20.67,2.83,2.35,6.12,4.2,9.71,5.11,1.17.3,2.37.38,3.52.7h4.56c16.72-1.55,28.99-21.9,19.88-37.11ZM101.66,102.22c-.97,3.77-4.89,7.69-8.66,8.67-1.13-1.12,6.39-9.31,8.66-8.67ZM114.55,108.61l11.97,11.98c3.95,5.5,1.65,10.78-3.07,14.71-9.88,8.24-17.17-5.98-23.84-11.29l-.22-.57c4.98-1.72,8.98-5.78,12.18-9.84l2.99-4.99ZM41.69,66.05c-6.96-8.84,6.23-22.14,15.15-15.16,1.97,1.54,10.48,9.88,11.75,11.74.13.19.32.22.23.57-4.96,1.67-8.98,5.8-12.18,9.84l-2.99,4.99-11.97-11.98ZM66.55,84.42c-.64-2.27,7.54-9.79,8.66-8.67.64,2.27-7.54,9.79-8.66,8.67ZM62.88,84.63c-2.6-.19-4.75-1.82-6.32-3.78,1.2-4.42,4.62-8.33,8.04-11.27,8-6.86,18.96-6.13,26.69.68,4.85,4.28,11.71,11.11,15.96,15.97,5.18,5.93,6.89,13.59,3.93,21.05-2.26,5.71-8.61,11.67-14.47,13.58-2.09-1.35-3.72-3.76-3.93-6.32,3.86-.71,7.24-3.43,9.68-6.4,10.97-13.39-10.05-24.38-16.99-33.43-8.68-7.01-20.37.32-22.6,9.91ZM76.92,116.37c-4.93-4.35-11.44-10.94-15.85-15.86-.2-.22-1.76-2.02-1.59-2.17,2.07.34,4.17.58,6.28.46.9-.05,2.86-.66,3.52-.35l9.48,9.45c.7.91-.07,2.45-.12,3.55-.11,2.19.08,4.35.45,6.5-.09.11-1.95-1.4-2.17-1.59ZM80.46,104.5l-7.52-7.19,4.99-2.99c4.01-3.23,8.18-7.21,9.83-12.18l7.52,7.53c-2.96.88-5.85,3.12-8.1,5.24-2.72,2.57-5.59,6.01-6.72,9.59Z"/>
  <polygon class="cls-1" points="85.57 84.88 92.56 84.88 90.33 82.62 86.89 82.62 85.57 84.88"/>
  <path class="cls-1" d="M115.44,71.58h-17.76l2.36,2.26h15.41c.62,0,1.13-.51,1.13-1.13s-.51-1.13-1.13-1.13Z"/>
  <path class="cls-1" d="M99.05,60.54h-13.55l1.42,2.26h12.13c.62,0,1.13-.51,1.13-1.13s-.51-1.13-1.13-1.13Z"/>
  <path class="cls-1" d="M54.87,136.55c-2.14,0-3.89-1.74-3.89-3.89v-39.13l-2.26-1.72v40.84c0,3.39,2.76,6.15,6.15,6.15h40.83l-2.41-2.26h-38.42Z"/>
  <g>
    <polygon class="cls-1" points="48.72 73.57 50.98 75.82 50.98 48.26 48.72 48.87 48.72 73.57"/>
    <path class="cls-1" d="M130.95,58.36l-16.83-16.83c-.21-.21-.5-.33-.8-.33h-47.52l2.68,2.26h43.71v15.7c0,.62.51,1.13,1.13,1.13h15.7v42.97l2.26,2.29v-46.39c0-.3-.12-.59-.33-.8ZM114.44,58.03v-12.98l12.98,12.98h-12.98Z"/>
  </g>
</svg>