<?xml version="1.0" encoding="UTF-8"?>
<svg id="Layer_1" data-name="Layer 1" xmlns="http://www.w3.org/2000/svg" viewBox="0 0 180 180">
  <defs>
    <style>
      .cls-1 {
        stroke-width: 3px;
      }

      .cls-1, .cls-2 {
        stroke: #000;
        stroke-miterlimit: 10;
      }
    </style>
  </defs>
  <path class="cls-1" d="M173.11,4.51c8.64,7.67,4.21,20.4-2.35,27.79-1.65,1.86-8.04,7.46-10.15,8.2-1.96.68-3.52.19-3.62-2.04-.08-1.75,4-3.55,5.35-4.64,4.53-3.66,10.16-9.86,10.86-15.9,1.56-13.26-11.95-14.84-21.84-12.28-10.05,2.61-19.7,10.28-23.62,19.97,1.56.49,3.21-.44,4.78-.57,4.62-.37,8.75,1.26,12.23,4.2,8.05,11.06,18.59,21.39,26.35,32.53,3.57,5.13,4.04,8.9,2.41,14.96-11.67,29.75-18.96,62.81-30.86,92.27-3.29,8.15-9.07,11.96-18.08,10.8l-66.82-22.28c-7.03-3.48-10.71-11.41-8.3-19.01,11.43-29.91,19.16-62.27,30.76-91.98,1.1-2.81,2.22-5.62,4.49-7.74,5.58-5.22,21.06-6.5,28.74-9.12.5-.17,1.17-.11,1.29-.81l-31.17-4.58c-2.65-.19-5.44.37-7.58,1.97L8.28,103.44c-2.41,3.91-2.06,8.94.77,12.55l30.57,26.78c2.06,1.8.32,4.91-2.23,4.16-.25-.07-1.93-1.51-2.37-1.86-8.55-6.88-19.55-16.27-27.35-23.88-6.5-6.34-7.49-14.54-2.07-21.96,22.18-23.39,41.99-50.26,64.2-73.45,4.1-4.28,7.98-6.51,14.15-6.11l39.19,6.11c4.28-16.85,28.03-30.29,44.46-24.37,1.63.59,4.24,1.96,5.51,3.09ZM56.37,151.07c.75.75,2.58,1.89,3.58,2.35l64.7,21.71c6.29,1.13,10.92-1.06,13.42-6.89l31.74-95.97c.16-2.84-.53-4.87-2-7.21-6.85-10.9-18.66-21.27-25.93-32.19-4.24-4.06-9.36-3.79-14.55-1.87l.77,3.81c7.94-3.64,16.16,4.03,12.18,12.13-3.77,7.67-16.57,5.03-16.72-4.18-.02-1.47,1.18-3.3,1.04-4.46-.2-1.56-2.22-4-1.85-6.01-.66-.1-1.28.05-1.92.17-7.88,1.39-20.16,4.53-27.8,6.99-4.63,1.49-6.27,3.07-8.13,7.55l-31.74,96c.22,2.86,1.14,5.99,3.21,8.07ZM131.57,39.17c2.13.62,5.82,2.06,3.85,4.81-1.52,2.13-4.82-.61-6.33-1.38s-.52,1.83-.16,2.46c1.24,2.12,4.65,2.42,6.42.76,3-2.82.77-7.44-3.2-7.43-.76,0-.62.04-.58.77Z"/>
  <path class="cls-2" d="M124.97,70.24c1.35,1.37-.54,3.83-.13,4.5.67,1.07,8.63,3.25,8.61,5.93,0,1.15-1.9,3.52-3.23,3.47-.96-.04-7-4.39-7.45-4.05-.35,2.73-2.73,6.58-3,9.09-.15,1.42,3.26,3.24,4.35,4.29,3.15,3.04,4.85,6.26,3.36,10.65-2.19,6.45-8.86,6.63-14.6,5.86-.93,1.94-.69,5.27-3.6,4.86l-.85-.71c-.9-1.82,1.29-4.57.8-5.36-1.99-1.19-9.72-3.77-9.74-6.3,0-1.22.94-3.66,2.44-3.67,1.68,0,8.15,5.46,9.36,4.61l3.01-10.24c-13.21-7.14-8.59-23.13,6.93-19.6-.2-1.71,1.93-5.17,3.76-3.32ZM119.33,78.95c-6.96-1.47-8.37,5.09-2.87,8.41l2.87-8.41ZM120.35,103.67c.88-.97,1.11-2.87.71-4.11-.24-.73-3.12-3.8-3.65-3.42l-2.68,8.41c1.73-.13,4.32.53,5.61-.88Z"/>
  <path class="cls-1" d="M64.54,140.19l64.82,21.45c2.59,1.31,1.21,5.19-1.63,4.33l-63.96-21.34c-2.04-1.18-1.39-3.84.77-4.44Z"/>
  <path class="cls-1" d="M68.76,128.33l66.06,22.11c.79,2.01-.21,4.07-2.49,3.68l-64.6-21.85c-1.43-1.32-.79-3.44,1.03-3.93Z"/>
</svg>