<?xml version="1.0" encoding="UTF-8"?>
<svg id="Layer_1" data-name="Layer 1" xmlns="http://www.w3.org/2000/svg" viewBox="0 0 180 180">
  <defs>
    <style>
      .cls-1 {
        stroke-width: 4px;
      }

      .cls-1, .cls-2 {
        stroke: #000;
        stroke-miterlimit: 10;
      }

      .cls-2 {
        fill: none;
        stroke-width: 3px;
      }
    </style>
  </defs>
  <path class="cls-1" d="M150,148.42h-15.79v-3.16h15.79c14.8,0,26.84-12.04,26.84-26.84s-12.04-26.84-26.84-26.84c-1.08,0-2.15.09-3.2.21l-1.97.23.22-1.97c.12-1.05.21-2.12.21-3.2,0-14.8-12.04-26.84-26.84-26.84-1.06,0-2.13.08-3.29.24l-1.06.15-.53-.93c-8.73-15.25-25.01-24.72-42.49-24.72-26.99,0-48.95,21.96-48.95,48.95,0,4.14.56,8.29,1.72,12.67l.43,1.65-1.68.31c-11.25,2.05-19.42,11.83-19.42,23.26,0,13.06,10.62,23.68,23.68,23.68h18.95v3.16h-18.95c-14.8,0-26.84-12.04-26.84-26.84,0-12.39,8.47-23.08,20.37-26.02-.96-4.07-1.42-7.97-1.42-11.88,0-28.73,23.37-52.11,52.11-52.11,18.26,0,35.29,9.7,44.7,25.4.91-.09,1.79-.14,2.67-.14,16.54,0,30,13.46,30,30,0,.55-.02,1.09-.06,1.63.54-.03,1.09-.06,1.63-.06,16.54,0,30,13.46,30,30s-13.46,30-30,30Z"/>
  <g>
    <path d="M56.39,163.03c-.75,0-1.37-.61-1.37-1.37v-28.92h-5.26c-.5,0-.96-.27-1.2-.71-.24-.44-.23-.97.04-1.39l17.99-28.4c.25-.4.68-.64,1.15-.64s.9.24,1.15.64l17.99,28.4c.27.42.28.95.04,1.39-.24.44-.7.71-1.2.71h-5.26v28.92c0,.75-.61,1.37-1.37,1.37h-22.72ZM52.25,130h4.14c.75,0,1.37.61,1.37,1.37v28.92h19.98v-28.92c0-.75.61-1.37,1.37-1.37h4.14l-15.5-24.48-15.5,24.48Z"/>
    <path class="cls-2" d="M56.39,163.03c-.75,0-1.37-.61-1.37-1.37v-28.92h-5.26c-.5,0-.96-.27-1.2-.71-.24-.44-.23-.97.04-1.39l17.99-28.4c.25-.4.68-.64,1.15-.64s.9.24,1.15.64l17.99,28.4c.27.42.28.95.04,1.39-.24.44-.7.71-1.2.71h-5.26v28.92c0,.75-.61,1.37-1.37,1.37h-22.72ZM52.25,130h4.14c.75,0,1.37.61,1.37,1.37v28.92h19.98v-28.92c0-.75.61-1.37,1.37-1.37h4.14l-15.5-24.48-15.5,24.48Z"/>
  </g>
  <g>
    <path d="M113.64,163.03c-.47,0-.9-.24-1.15-.64l-17.98-28.4c-.27-.42-.28-.95-.04-1.39.24-.44.7-.71,1.2-.71h5.26v-28.92c0-.75.61-1.37,1.37-1.37h22.72c.75,0,1.37.61,1.37,1.37v28.92h5.26c.5,0,.96.27,1.2.71s.22.97-.04,1.39l-17.99,28.4c-.25.4-.68.64-1.15.64ZM113.64,159.11l15.5-24.48h-4.14c-.75,0-1.37-.61-1.37-1.37v-28.92h-19.98v28.92c0,.75-.61,1.37-1.37,1.37h-4.14l15.5,24.48Z"/>
    <path class="cls-2" d="M113.64,163.03c-.47,0-.9-.24-1.15-.64l-17.98-28.4c-.27-.42-.28-.95-.04-1.39.24-.44.7-.71,1.2-.71h5.26v-28.92c0-.75.61-1.37,1.37-1.37h22.72c.75,0,1.37.61,1.37,1.37v28.92h5.26c.5,0,.96.27,1.2.71s.22.97-.04,1.39l-17.99,28.4c-.25.4-.68.64-1.15.64ZM113.64,159.11l15.5-24.48h-4.14c-.75,0-1.37-.61-1.37-1.37v-28.92h-19.98v28.92c0,.75-.61,1.37-1.37,1.37h-4.14l15.5,24.48Z"/>
  </g>
</svg>