<?xml version="1.0" encoding="UTF-8"?>
<svg id="Layer_1" data-name="Layer 1" xmlns="http://www.w3.org/2000/svg" viewBox="0 0 180 180">
  <defs>
    <style>
      .cls-1 {
        stroke: #000;
        stroke-width: 2px;
      }

      .cls-1, .cls-2 {
        stroke-miterlimit: 10;
      }

      .cls-2 {
        fill: #010101;
        stroke: #010101;
        stroke-width: 3px;
      }
    </style>
  </defs>
  <g>
    <path class="cls-2" d="M130.09,133.72s-.08,0-.12,0c-1.44-.03-2.86-.61-3.98-1.63l-34.98-31.7c-2.37-2.15-2.74-5.62-.82-7.75.95-1.05,2.3-1.59,3.8-1.58,1.44.03,2.86.61,3.99,1.63l34.98,31.7c1.13,1.02,1.84,2.37,2.01,3.81.18,1.49-.25,2.89-1.2,3.94-.93,1.02-2.23,1.58-3.68,1.58ZM93.88,93.29c-.81,0-1.53.3-2.03.85-1.09,1.21-.8,3.26.66,4.58l34.98,31.7c.73.66,1.62,1.03,2.53,1.05.84.02,1.59-.28,2.1-.84.51-.56.74-1.33.64-2.17-.11-.9-.57-1.75-1.29-2.41l-34.98-31.7c-.73-.66-1.62-1.03-2.53-1.05-.02,0-.05,0-.07,0Z"/>
    <path class="cls-2" d="M75.83,98.89c-2.1,0-4.1-.77-5.67-2.19l-6.68-6.05c-1.68-1.52-2.66-3.6-2.77-5.86-.11-2.26.66-4.42,2.18-6.1l11.04-12.19c3.13-3.46,8.5-3.72,11.95-.59l6.68,6.05c3.46,3.13,3.72,8.5.59,11.96h0l-11.04,12.19c-1.52,1.68-3.6,2.66-5.86,2.77-.14,0-.28.01-.43.01ZM80.21,65.97c-1.7,0-3.39.69-4.61,2.04l-11.04,12.19c-2.3,2.54-2.11,6.49.43,8.79l6.68,6.05c2.54,2.3,6.49,2.11,8.79-.43l11.05-12.19c2.3-2.54,2.11-6.49-.43-8.79l-6.68-6.05c-1.19-1.08-2.68-1.61-4.18-1.61Z"/>
  </g>
  <path class="cls-2" d="M113.39,70.2c-.17-1.43-.89-2.78-2.01-3.81l-7.13-6.47h0s-13.25-12.01-13.25-12.01c-1.13-1.02-2.54-1.6-3.99-1.63-1.51,0-2.85.53-3.8,1.58-1.92,2.12-1.56,5.6.82,7.75l13.73,12.45h0s6.65,6.03,6.65,6.03c1.13,1.02,2.54,1.6,3.98,1.63.04,0,.08,0,.12,0,1.45,0,2.76-.56,3.68-1.58.95-1.05,1.38-2.45,1.2-3.94ZM110.53,72.63c-.51.56-1.25.86-2.1.84-.9-.02-1.8-.39-2.53-1.05l-7.14-6.47h0s-13.25-12.01-13.25-12.01c-1.46-1.32-1.75-3.38-.66-4.58.5-.55,1.21-.85,2.03-.85.02,0,.05,0,.07,0,.9.02,1.8.39,2.53,1.05l13.74,12.45h0s6.65,6.03,6.65,6.03c.73.66,1.19,1.52,1.29,2.41.1.84-.13,1.61-.64,2.17Z"/>
  <path class="cls-2" d="M74.16,111.89c-.17-1.43-.89-2.78-2.01-3.81l-7.13-6.47h0s-13.25-12.01-13.25-12.01c-1.13-1.02-2.54-1.6-3.99-1.63-1.51,0-2.85.53-3.8,1.58-1.92,2.12-1.56,5.6.82,7.75l13.73,12.45h0s6.65,6.03,6.65,6.03c1.13,1.02,2.54,1.6,3.98,1.63.04,0,.08,0,.12,0,1.45,0,2.76-.56,3.68-1.58.95-1.05,1.38-2.45,1.2-3.94ZM71.29,114.33c-.51.56-1.25.86-2.1.84-.9-.02-1.8-.39-2.53-1.05l-7.14-6.47h0s-13.25-12.01-13.25-12.01c-1.46-1.32-1.75-3.38-.66-4.58.5-.55,1.21-.85,2.03-.85.02,0,.05,0,.07,0,.9.02,1.8.39,2.53,1.05l13.74,12.45h0s6.65,6.03,6.65,6.03c.73.66,1.19,1.52,1.29,2.41.1.84-.13,1.61-.64,2.17Z"/>
  <path class="cls-1" d="M165.21,31.65L134.29.61c-.39-.39-.92-.61-1.47-.61H25.48c-6.23,0-11.29,5.09-11.29,11.34v157.33c0,6.25,5.07,11.34,11.29,11.34h129.05c6.23,0,11.29-5.09,11.29-11.34V33.12c0-.55-.22-1.08-.61-1.47ZM134.9,7.11l23.84,23.93h-23.84V7.11ZM161.67,112.91v55.76c0,3.95-3.2,7.17-7.14,7.17H25.48c-3.94,0-7.14-3.22-7.14-7.17V11.34c0-3.95,3.2-7.17,7.14-7.17h105.28v28.96c0,1.15.93,2.08,2.07,2.08h28.84v77.7Z"/>
</svg>