<?xml version="1.0" encoding="UTF-8"?>
<svg id="Layer_1" data-name="Layer 1" xmlns="http://www.w3.org/2000/svg" viewBox="0 0 180 180">
  <defs>
    <style>
      .cls-1 {
        stroke-width: 2.5px;
      }

      .cls-1, .cls-2 {
        stroke: #000;
        stroke-miterlimit: 10;
      }

      .cls-2 {
        stroke-width: .5px;
      }
    </style>
  </defs>
  <path class="cls-2" d="M157.5,32.14h-8c-12.77,0-25.2-4.5-35.01-12.68L92.06.75c-1.19-1-2.93-1-4.12,0l-22.47,18.73c-9.8,8.17-22.23,12.66-34.98,12.66h-7.98c-1.78,0-3.21,1.44-3.21,3.21v65.46c0,20.47,10.17,39.46,27.2,50.81l41.74,27.82c.54.36,1.16.54,1.78.54s1.24-.18,1.78-.54l41.74-27.82c17.03-11.35,27.2-30.35,27.2-50.81V35.36c0-1.78-1.44-3.21-3.21-3.21ZM154.29,100.82c0,18.31-9.1,35.31-24.33,45.47l-39.95,26.64-39.95-26.64c-15.24-10.16-24.33-27.15-24.33-45.47v-62.25h4.77c14.26,0,28.14-5.03,39.1-14.16l20.42-17.02,20.37,17c10.96,9.14,24.85,14.18,39.12,14.18h4.79v62.25Z"/>
  <g>
    <path class="cls-1" d="M105.99,111.56c-2.72.23-4.56,1.53-6.91-.37-.76-.62-4.33-4.21-4.54-4.91-.46-1.55.39-3.75.67-5.3-2.04.09-4.25,1.52-6.15.19-.68-.48-2.88-3.2-3.4-3.21-15.1,7.44-34.14-1.45-37.63-17.96-5.77-27.31,28.16-44.02,46.05-23.36,6.77,7.82,8.16,18.76,4.25,28.28l33.19,33.17c.34.39.74.89.86,1.41.31,1.34.27,8.59.09,10.13-.16,1.32-1.16,2.21-2.41,2.5s-7.32.94-8.45.78c-.66-.09-1.12-.44-1.62-.83-1.3-1.03-7.33-6.96-8.1-8.16-1.18-1.85-.09-3.9-.22-5.93-1.62.16-3.69,1.03-4.99-.4-.16-.17-.68-1.06-.68-1.21v-4.82ZM108.83,110.71c.26,1.31-.19,3.41,0,4.82,1.77,0,3.45-1.07,4.91.47,1.58,1.66.18,4.36.48,6.33l7.94,7.75,7.46-.75-.04-9.13-34.66-34.73c.58-1.67,1.42-3.2,1.9-4.92,4.76-17.3-10.14-33.25-27.71-29.79-9.04,1.78-16.65,9.39-18.43,18.43-4.04,20.51,17.68,35.61,35.56,25.21l4.58,4.45c2.2-.07,5.5-1.98,6.83.72,1.03,2.08-.79,4.23-.32,5.8.08.26,3.55,3.73,3.87,3.9.72.38,3.89-.62,5.04-.54.96.06,2.39,1,2.58,1.97Z"/>
    <path class="cls-1" d="M76.33,66.39c0,4.37-3.54,7.91-7.91,7.91s-7.91-3.54-7.91-7.91,3.54-7.91,7.91-7.91,7.91,3.54,7.91,7.91ZM73.49,66.4c0-2.8-2.27-5.07-5.07-5.07s-5.07,2.27-5.07,5.07,2.27,5.07,5.07,5.07,5.07-2.27,5.07-5.07Z"/>
  </g>
</svg>