<?xml version="1.0" encoding="UTF-8"?>
<svg id="Bluetext" xmlns="http://www.w3.org/2000/svg" viewBox="0 0 180 180">
  <path d="M158.87,12.15c0-6.61-5.37-11.98-11.98-11.98H33.11c-6.61,0-11.98,5.37-11.98,11.98v155.7c0,6.61,5.37,11.98,11.98,11.98h74.86c4.13,0,7.87-1.68,10.58-4.39h0l35.93-35.93h0c2.71-2.72,4.39-6.46,4.39-10.58V12.15ZM107.97,173.84H33.11c-3.3,0-5.99-2.69-5.99-5.99V12.15c0-3.3,2.69-5.99,5.99-5.99h113.78c3.3,0,5.99,2.69,5.99,5.99v116.78c0,4.95-4.03,8.98-8.98,8.98h-17.97c-4.95,0-8.98,4.03-8.98,8.98v17.97c0,4.95-4.03,8.98-8.98,8.98ZM141.63,143.9l-18.69,18.69v-15.7c0-1.65,1.34-2.99,2.99-2.99h15.7Z"/>
  <path d="M119.94,69.04c14.86,0,26.95-12.09,26.95-26.95s-12.09-26.95-26.95-26.95-26.95,12.09-26.95,26.95,12.09,26.95,26.95,26.95ZM119.94,63.05c-4.7,0-9.03-1.57-12.53-4.2l13.77-13.77h19.48c-1.46,10.14-10.18,17.97-20.72,17.97ZM140.66,39.1h-17.73v-17.73c9.16,1.32,16.41,8.57,17.73,17.73ZM116.95,21.37v19.48l-13.77,13.77c-2.62-3.5-4.2-7.83-4.2-12.53,0-10.54,7.83-19.26,17.97-20.72Z"/>
  <path d="M42.09,101.98h5.99c3.3,0,5.99-2.69,5.99-5.99v-47.91c0-3.3-2.69-5.99-5.99-5.99h-5.99c-3.3,0-5.99,2.69-5.99,5.99v47.91c0,3.3,2.69,5.99,5.99,5.99ZM42.09,48.08h5.99v47.91s-5.99,0-5.99,0v-47.91Z"/>
  <path d="M66.05,101.98h5.99c3.3,0,5.99-2.69,5.99-5.99v-32.94c0-3.3-2.69-5.99-5.99-5.99h-5.99c-3.3,0-5.99,2.69-5.99,5.99v32.94c0,3.3,2.69,5.99,5.99,5.99ZM66.05,63.05h5.99v32.94s-5.99,0-5.99,0v-32.94Z"/>
  <path d="M90,101.98h5.99c3.3,0,5.99-2.69,5.99-5.99v-20.96c0-3.3-2.69-5.99-5.99-5.99h-5.99c-3.3,0-5.99,2.69-5.99,5.99v20.96c0,3.3,2.69,5.99,5.99,5.99ZM90,75.03h5.99v20.96s-5.99,0-5.99,0v-20.96Z"/>
  <path d="M113.95,78.02c-3.3,0-5.99,2.69-5.99,5.99v11.98c0,3.3,2.69,5.99,5.99,5.99h5.99c3.3,0,5.99-2.69,5.99-5.99v-11.98c0-3.3-2.69-5.99-5.99-5.99h-5.99ZM113.95,95.99v-11.98h5.99v11.98s-5.99,0-5.99,0Z"/>
  <path d="M39.1,116.95h101.8c1.66,0,2.99-1.34,2.99-2.99s-1.34-2.99-2.99-2.99H39.1c-1.66,0-2.99,1.34-2.99,2.99s1.34,2.99,2.99,2.99Z"/>
  <path d="M113.95,128.93H39.1c-1.66,0-2.99,1.34-2.99,2.99s1.34,2.99,2.99,2.99h74.86c1.66,0,2.99-1.34,2.99-2.99s-1.34-2.99-2.99-2.99Z"/>
  <path d="M101.98,146.89h-62.88c-1.66,0-2.99,1.34-2.99,2.99s1.34,2.99,2.99,2.99h62.88c1.66,0,2.99-1.34,2.99-2.99s-1.34-2.99-2.99-2.99Z"/>
</svg>