<?xml version="1.0" encoding="UTF-8"?>
<svg id="Bluetext" xmlns="http://www.w3.org/2000/svg" viewBox="0 0 180 180">
  <path d="M162,0H18C8.06,0,0,8.06,0,18v144c0,9.94,8.06,17.99,18,18h144c9.94,0,17.99-8.06,18-18V18C179.99,8.06,171.94,0,162,0ZM18,6h144c6.63,0,12,5.37,12,12v6h-57v-6c0-3.31-2.69-6-6-6H27c-3.31,0-6,2.69-6,6v6H6v-6c0-6.63,5.37-12,12-12ZM111,24H27v-6h84v6ZM162,174H18c-6.63,0-12-5.37-12-12V30h168v132c0,6.63-5.37,12-12,12Z"/>
  <path d="M162,45h-54c-3.31,0-6,2.69-6,6v30c0,1.62.66,3.17,1.82,4.29,1.12,1.09,2.61,1.71,4.18,1.71h54c1.87,0,3.62-.88,4.75-2.38.02-.03.05-.06.08-.09.76-1.02,1.17-2.26,1.18-3.53v-30c0-3.31-2.69-6-6-6ZM111.73,81l10.77-12,6.36,6.74-4.28,5.26h-12.84ZM134.86,77.78s.03,0,.05-.03c.07-.06.09-.15.15-.22l11.7-14.53,12.51,18h-27l2.59-3.22ZM162,51v23.42l-10.32-14.84c-1.04-1.55-2.76-2.51-4.63-2.59-1.87-.07-3.66.76-4.81,2.22l-9.58,11.8-5.4-5.7c-1.07-1.4-2.7-2.25-4.45-2.32-1.74-.09-3.43.62-4.58,1.93l-10.23,11.29v-25.22h54Z"/>
  <path d="M159,18h3c1.66,0,3-1.34,3-3s-1.34-3-3-3h-3c-1.66,0-3,1.34-3,3s1.34,3,3,3Z"/>
  <path d="M144,18h3c1.66,0,3-1.34,3-3s-1.34-3-3-3h-3c-1.66,0-3,1.34-3,3s1.34,3,3,3Z"/>
  <path d="M129,18h3c1.66,0,3-1.34,3-3s-1.34-3-3-3h-3c-1.66,0-3,1.34-3,3s1.34,3,3,3Z"/>
  <path d="M15,51h42c1.66,0,3-1.34,3-3s-1.34-3-3-3H15c-1.66,0-3,1.34-3,3s1.34,3,3,3Z"/>
  <path d="M15,63h72c1.66,0,3-1.34,3-3s-1.34-3-3-3H15c-1.66,0-3,1.34-3,3s1.34,3,3,3Z"/>
  <path d="M15,75h72c1.66,0,3-1.34,3-3s-1.34-3-3-3H15c-1.66,0-3,1.34-3,3s1.34,3,3,3Z"/>
  <path d="M15,87h72c1.66,0,3-1.34,3-3s-1.34-3-3-3H15c-1.66,0-3,1.34-3,3s1.34,3,3,3Z"/>
  <path d="M15,108h42c1.66,0,3-1.34,3-3s-1.34-3-3-3H15c-1.66,0-3,1.34-3,3s1.34,3,3,3Z"/>
  <path d="M90,150H15c-1.66,0-3,1.34-3,3s1.34,3,3,3h75c1.66,0,3-1.34,3-3s-1.34-3-3-3Z"/>
  <path d="M165,114H15c-1.66,0-3,1.34-3,3s1.34,3,3,3h150c1.66,0,3-1.34,3-3s-1.34-3-3-3Z"/>
  <path d="M165,126H15c-1.66,0-3,1.34-3,3s1.34,3,3,3h150c1.66,0,3-1.34,3-3s-1.34-3-3-3Z"/>
  <path d="M165,138H15c-1.66,0-3,1.34-3,3s1.34,3,3,3h150c1.66,0,3-1.34,3-3s-1.34-3-3-3Z"/>
</svg>