<?xml version="1.0" encoding="UTF-8"?>
<svg id="Bluetext" xmlns="http://www.w3.org/2000/svg" viewBox="0 0 180 180">
  <path d="M171,0h-66C100.03,0,96,4.03,96,9v19.13l-12-8.66v-10.47c0-4.97-4.03-9-9-9H9C4.03,0,0,4.03,0,9v66C0,79.97,4.03,84,9,84h19.13l-8.66,12h-10.47C4.03,96,0,100.03,0,105v66C0,175.97,4.03,180,9,180h66c4.97,0,9-4.03,9-9v-19.13l12,8.66v10.47c0,4.97,4.03,9,9,9h66c4.97,0,9-4.03,9-9v-66c0-4.97-4.03-9-9-9h-19.13l8.66-12h10.47c4.97,0,9-4.03,9-9V9C180,4.03,175.97,0,171,0h0ZM9,78c-1.66,0-3-1.34-3-3V9c0-1.66,1.34-3,3-3h66c1.66,0,3,1.34,3,3v10.47c0,1.92.92,3.73,2.48,4.86l24.54,17.63-24.55,17.7c-1.55,1.14-2.46,2.94-2.46,4.86v10.47c0,1.66-1.34,3-3,3h-23.46l-4.69-6.5c-1.9-2.68-5.61-3.3-8.29-1.4-.53.38-1.01.85-1.39,1.38l-4.71,6.53H9ZM105,84h10.46l8.67,12h-19.14c-4.97,0-9,4.03-9,9v10.46s-12,8.67-12,8.67v-19.14c0-4.97-4.03-9-9-9h-10.46s-8.67-12-8.67-12h19.14c4.97,0,9-4.03,9-9v-10.46l12-8.67v19.14c0,4.97,4.03,9,9,9h0ZM78,171c0,1.66-1.34,3-3,3H9c-1.66,0-3-1.34-3-3v-66c0-1.66,1.34-3,3-3h10.47c1.92,0,3.73-.92,4.86-2.48l17.63-24.53,17.7,24.55c1.14,1.54,2.95,2.45,4.86,2.45h10.47c1.66,0,3,1.34,3,3v23.46l-6.5,4.69c-2.68,1.9-3.3,5.61-1.4,8.29.38.53.85,1.01,1.38,1.39l6.53,4.71v23.46h0ZM171,102c1.66,0,3,1.34,3,3v66c0,1.66-1.34,3-3,3h-66c-1.66,0-3-1.34-3-3v-10.47c0-1.92-.92-3.73-2.48-4.86l-24.53-17.63,24.55-17.7c1.54-1.14,2.45-2.95,2.45-4.86v-10.47c0-1.66,1.34-3,3-3h23.46l4.69,6.5c1.9,2.68,5.61,3.3,8.29,1.4.53-.38,1.01-.85,1.39-1.38l4.71-6.53h23.46,0ZM174,75c0,1.66-1.34,3-3,3h-10.47c-1.92,0-3.73.92-4.86,2.48l-17.63,24.54-17.7-24.55c-1.14-1.55-2.94-2.46-4.86-2.46h-10.47c-1.66,0-3-1.34-3-3v-23.46l6.5-4.69c2.68-1.9,3.3-5.61,1.4-8.29-.38-.53-.85-1.01-1.38-1.39l-6.53-4.71V9c0-1.66,1.34-3,3-3h66c1.66,0,3,1.34,3,3v66h0Z"/>
  <path d="M21,21h-3c-1.66,0-3,1.34-3,3s1.34,3,3,3h3c1.66,0,3-1.34,3-3s-1.34-3-3-3Z"/>
  <path d="M33,27h33c1.66,0,3-1.34,3-3s-1.34-3-3-3h-33c-1.66,0-3,1.34-3,3s1.34,3,3,3Z"/>
  <path d="M21,33h-3c-1.66,0-3,1.34-3,3s1.34,3,3,3h3c1.66,0,3-1.34,3-3s-1.34-3-3-3Z"/>
  <path d="M33,39h33c1.66,0,3-1.34,3-3s-1.34-3-3-3h-33c-1.66,0-3,1.34-3,3s1.34,3,3,3Z"/>
  <path d="M21,45h-3c-1.66,0-3,1.34-3,3s1.34,3,3,3h3c1.66,0,3-1.34,3-3s-1.34-3-3-3Z"/>
  <path d="M33,51h33c1.66,0,3-1.34,3-3s-1.34-3-3-3h-33c-1.66,0-3,1.34-3,3s1.34,3,3,3Z"/>
  <path d="M21,57h-3c-1.66,0-3,1.34-3,3s1.34,3,3,3h3c1.66,0,3-1.34,3-3s-1.34-3-3-3Z"/>
  <path d="M69,60c0-1.66-1.34-3-3-3h-33c-1.66,0-3,1.34-3,3s1.34,3,3,3h33c1.66,0,3-1.34,3-3Z"/>
  <path d="M114,27h3c1.66,0,3-1.34,3-3s-1.34-3-3-3h-3c-1.66,0-3,1.34-3,3s1.34,3,3,3Z"/>
  <path d="M162,21h-33c-1.66,0-3,1.34-3,3s1.34,3,3,3h33c1.66,0,3-1.34,3-3s-1.34-3-3-3Z"/>
  <path d="M117,36c0,1.66,1.34,3,3,3h3c1.66,0,3-1.34,3-3s-1.34-3-3-3h-3c-1.66,0-3,1.34-3,3Z"/>
  <path d="M162,33h-27c-1.66,0-3,1.34-3,3s1.34,3,3,3h27c1.66,0,3-1.34,3-3s-1.34-3-3-3Z"/>
  <path d="M123,45h-3c-1.66,0-3,1.34-3,3s1.34,3,3,3h3c1.66,0,3-1.34,3-3s-1.34-3-3-3Z"/>
  <path d="M162,45h-27c-1.66,0-3,1.34-3,3s1.34,3,3,3h27c1.66,0,3-1.34,3-3s-1.34-3-3-3Z"/>
  <path d="M117,57h-3c-1.66,0-3,1.34-3,3s1.34,3,3,3h3c1.66,0,3-1.34,3-3s-1.34-3-3-3Z"/>
  <path d="M162,57h-33c-1.66,0-3,1.34-3,3s1.34,3,3,3h33c1.66,0,3-1.34,3-3s-1.34-3-3-3Z"/>
  <path d="M117,117h-3c-1.66,0-3,1.34-3,3s1.34,3,3,3h3c1.66,0,3-1.34,3-3s-1.34-3-3-3Z"/>
  <path d="M126,120c0,1.66,1.34,3,3,3h33c1.66,0,3-1.34,3-3s-1.34-3-3-3h-33c-1.66,0-3,1.34-3,3Z"/>
  <path d="M117,129h-3c-1.66,0-3,1.34-3,3s1.34,3,3,3h3c1.66,0,3-1.34,3-3s-1.34-3-3-3Z"/>
  <path d="M162,129h-33c-1.66,0-3,1.34-3,3s1.34,3,3,3h33c1.66,0,3-1.34,3-3s-1.34-3-3-3Z"/>
  <path d="M117,141h-3c-1.66,0-3,1.34-3,3s1.34,3,3,3h3c1.66,0,3-1.34,3-3s-1.34-3-3-3Z"/>
  <path d="M162,141h-33c-1.66,0-3,1.34-3,3s1.34,3,3,3h33c1.66,0,3-1.34,3-3s-1.34-3-3-3Z"/>
  <path d="M117,153h-3c-1.66,0-3,1.34-3,3s1.34,3,3,3h3c1.66,0,3-1.34,3-3s-1.34-3-3-3Z"/>
  <path d="M162,153h-33c-1.66,0-3,1.34-3,3s1.34,3,3,3h33c1.66,0,3-1.34,3-3s-1.34-3-3-3Z"/>
  <path d="M21,117h-3c-1.66,0-3,1.34-3,3s1.34,3,3,3h3c1.66,0,3-1.34,3-3s-1.34-3-3-3Z"/>
  <path d="M33,123h33c1.66,0,3-1.34,3-3s-1.34-3-3-3h-33c-1.66,0-3,1.34-3,3s1.34,3,3,3Z"/>
  <path d="M21,129h-3c-1.66,0-3,1.34-3,3s1.34,3,3,3h3c1.66,0,3-1.34,3-3s-1.34-3-3-3Z"/>
  <path d="M33,135h27c1.66,0,3-1.34,3-3s-1.34-3-3-3h-27c-1.66,0-3,1.34-3,3s1.34,3,3,3Z"/>
  <path d="M21,141h-3c-1.66,0-3,1.34-3,3s1.34,3,3,3h3c1.66,0,3-1.34,3-3s-1.34-3-3-3Z"/>
  <path d="M33,147h27c1.66,0,3-1.34,3-3s-1.34-3-3-3h-27c-1.66,0-3,1.34-3,3s1.34,3,3,3Z"/>
  <path d="M21,153h-3c-1.66,0-3,1.34-3,3s1.34,3,3,3h3c1.66,0,3-1.34,3-3s-1.34-3-3-3Z"/>
  <path d="M66,153h-33c-1.66,0-3,1.34-3,3s1.34,3,3,3h33c1.66,0,3-1.34,3-3s-1.34-3-3-3Z"/>
</svg>