<?xml version="1.0" encoding="UTF-8"?>
<svg id="Bluetext" xmlns="http://www.w3.org/2000/svg" viewBox="0 0 180 180">
  <path d="M156.31,139.4c15.84-25.04,8.38-58.18-16.66-74.02-6.05-3.83-12.81-6.4-19.87-7.58v-30.71c-.01-8.25-6.7-14.94-14.95-14.95h-21.76c-1.06-1.84-3.02-2.99-5.15-2.99h-6.36c-1.65-6.39-8.17-10.24-14.57-8.59-4.21,1.09-7.5,4.38-8.59,8.59h-6.36c-2.13,0-4.09,1.15-5.15,2.99H15.13c-8.25.01-14.94,6.7-14.95,14.95v119.59c.01,8.25,6.7,14.94,14.95,14.95h78.15c15.38,5.39,32.38,3.43,46.13-5.32l19.73,19.73c4.52,4.82,12.08,5.07,16.91.55,4.82-4.52,5.07-12.08.55-16.91-.17-.19-.35-.36-.54-.54l-19.75-19.75h0ZM113.79,27.09v30.05c-1-.06-1.98-.15-2.99-.15s-1.99.09-2.99.15v-27.06c0-3.3-2.68-5.98-5.98-5.98h-20.37c1.07-1.85,1.8-3.87,2.16-5.98h21.2c4.95,0,8.97,4.02,8.97,8.97h0ZM81.11,65.96h-27.12c-1.65,0-2.99,1.34-2.99,2.99s1.34,2.99,2.99,2.99h19.68c-1.94,1.86-3.74,3.85-5.38,5.98h-14.3c-1.65,0-2.99,1.34-2.99,2.99s1.34,2.99,2.99,2.99h10.27c-1.65,2.86-3.04,5.86-4.14,8.97h-6.13c-1.65,0-2.99,1.34-2.99,2.99s1.34,2.99,2.99,2.99h4.38c-.46,1.97-.8,3.97-1.03,5.98h-3.34c-1.65,0-2.99,1.34-2.99,2.99s1.34,2.99,2.99,2.99h2.99c.02,3.01.29,6.01.81,8.97h-3.8c-1.65,0-2.99,1.34-2.99,2.99s1.34,2.99,2.99,2.99h5.15c.58,2.03,1.28,4.03,2.09,5.98h-7.24c-1.65,0-2.99,1.34-2.99,2.99s1.34,2.99,2.99,2.99h10.27c1.21,2.08,2.55,4.08,4.03,5.98H18.11V30.08h25.98c2.93,1.95,6.37,2.99,9.9,2.99h11.96c3.52,0,6.97-1.04,9.9-2.99h25.98v27.72c-7.4,1.24-14.46,4.02-20.71,8.16h0ZM51,15.13c1.65,0,2.99-1.34,2.99-2.99,0-3.3,2.68-5.98,5.98-5.98s5.98,2.68,5.98,5.98c0,1.65,1.34,2.99,2.99,2.99h8.97c0,6.6-5.35,11.96-11.96,11.96h-11.96c-6.6,0-11.96-5.35-11.96-11.96h8.97,0ZM15.13,155.65c-4.95,0-8.97-4.02-8.97-8.97h0V27.09c0-4.95,4.02-8.97,8.97-8.97h21.2c.36,2.11,1.09,4.13,2.16,5.98h-20.37c-3.3,0-5.98,2.68-5.98,5.98v113.62c0,3.3,2.68,5.98,5.98,5.98h55.56c2.3,2.21,4.79,4.21,7.44,5.98H15.13ZM62.96,110.8c0-26.42,21.42-47.84,47.84-47.84s47.84,21.42,47.84,47.84-21.42,47.84-47.84,47.84c-26.41-.03-47.8-21.43-47.84-47.84h0ZM171.82,171.86c-2.36,2.26-6.08,2.25-8.43-.02l-19.03-19.03c3.12-2.5,5.95-5.33,8.45-8.45l19.03,19.03c2.33,2.34,2.33,6.12,0,8.46h-.01s0,.01,0,.01Z"/>
  <path d="M39.64,40.25l-6.9,9.2-.55-.55c-1.19-1.15-3.08-1.11-4.23.07-1.12,1.16-1.12,3,0,4.16l2.99,2.99c.56.56,1.32.88,2.11.88h.21c.87-.06,1.66-.5,2.18-1.19l8.97-11.96c.99-1.32.72-3.2-.6-4.19-1.32-.99-3.2-.72-4.19.6h0Z"/>
  <path d="M86.88,39.05h-32.89c-1.65,0-2.99,1.34-2.99,2.99s1.34,2.99,2.99,2.99h32.89c1.65,0,2.99-1.34,2.99-2.99s-1.34-2.99-2.99-2.99Z"/>
  <path d="M68.94,51.01h-14.95c-1.65,0-2.99,1.34-2.99,2.99s1.34,2.99,2.99,2.99h14.95c1.65,0,2.99-1.34,2.99-2.99s-1.34-2.99-2.99-2.99Z"/>
  <path d="M39.64,67.15l-6.9,9.2-.55-.55c-1.19-1.15-3.08-1.11-4.23.07-1.12,1.16-1.12,3,0,4.16l2.99,2.99c.56.56,1.32.88,2.11.88h.21c.87-.06,1.66-.5,2.18-1.19l8.97-11.96c.99-1.32.72-3.2-.6-4.19-1.32-.99-3.2-.72-4.19.6h0Z"/>
  <path d="M39.64,94.06l-6.9,9.2-.55-.55c-1.19-1.15-3.08-1.11-4.23.07-1.12,1.16-1.12,3,0,4.16l2.99,2.99c.56.56,1.32.88,2.11.88h.21c.87-.06,1.66-.5,2.18-1.19l8.97-11.96c.99-1.32.72-3.2-.6-4.19-1.32-.99-3.2-.72-4.19.6h0Z"/>
  <path d="M39.64,120.97l-6.9,9.2-.55-.55c-1.19-1.15-3.08-1.11-4.23.07-1.12,1.16-1.12,3,0,4.16l2.99,2.99c.56.56,1.32.88,2.11.88h.21c.87-.06,1.66-.5,2.18-1.19l8.97-11.96c.99-1.32.72-3.2-.6-4.19s-3.2-.72-4.19.6h0Z"/>
  <path d="M110.8,74.92c-13.21.01-23.9,10.71-23.92,23.92,0,1.65,1.34,2.99,2.99,2.99s2.99-1.34,2.99-2.99c0-9.91,8.03-17.94,17.94-17.94s17.94,8.03,17.94,17.94-8.03,17.94-17.94,17.94c-1.65,0-2.99,1.34-2.99,2.99v8.97c0,1.65,1.34,2.99,2.99,2.99s2.99-1.34,2.99-2.99v-6.17c13.11-1.64,22.4-13.6,20.76-26.71-1.5-11.98-11.68-20.96-23.75-20.95h0Z"/>
  <path d="M110.8,137.71c-1.65,0-2.99,1.34-2.99,2.99v2.99c0,1.65,1.34,2.99,2.99,2.99s2.99-1.34,2.99-2.99v-2.99c0-1.65-1.34-2.99-2.99-2.99Z"/>
</svg>