<?xml version="1.0" encoding="UTF-8"?>
<svg id="Bluetext" xmlns="http://www.w3.org/2000/svg" viewBox="0 0 180 180">
  <path id="Path_193" data-name="Path 193" d="M168,0H12C5.37,0,0,5.37,0,12v156c0,6.63,5.37,12,12,12h156c6.63,0,12-5.37,12-12V12C180,5.37,174.63,0,168,0ZM12,6h156c3.31,0,6,2.69,6,6v12H6v-12c0-3.31,2.69-6,6-6ZM168,174H12c-3.31,0-6-2.69-6-6V30h168v138c0,3.31-2.69,6-6,6Z"/>
  <path id="Path_194" data-name="Path 194" d="M144,45h-3c0-3.31-2.69-6-6-6h-36c-3.45,0-6.73,1.48-9,4.07-2.27-2.59-5.55-4.07-9-4.07h-36c-3.31,0-6,2.69-6,6h-3c-4.97,0-9,4.03-9,9v96c0,4.97,4.03,9,9,9h39.51c1.28,3.59,4.67,6,8.49,6h12c3.81,0,7.21-2.41,8.49-6h39.51c4.97,0,9-4.03,9-9V54c0-4.97-4.03-9-9-9ZM99,45h36v96h-36c-2.11.01-4.18.59-6,1.67V51c0-3.31,2.69-6,6-6ZM45,45h36c3.31,0,6,2.69,6,6v91.67c-1.82-1.08-3.89-1.65-6-1.67h-36V45ZM147,150c0,1.66-1.34,3-3,3h-42c-1.66,0-3,1.34-3,3s-1.34,3-3,3h-12c-1.66,0-3-1.34-3-3s-1.34-3-3-3h-42c-1.66,0-3-1.34-3-3V54c0-1.66,1.34-3,3-3h3v90c0,3.31,2.69,6,6,6h36c2.29-.02,4.39,1.28,5.4,3.35.97,1.99,3.37,2.83,5.36,1.86.81-.39,1.47-1.05,1.86-1.86,1.01-2.05,3.1-3.35,5.38-3.35h36c3.31,0,6-2.69,6-6V51h3c1.66,0,3,1.34,3,3v96Z"/>
  <path id="Path_195" data-name="Path 195" d="M15,18h3c1.66,0,3-1.34,3-3s-1.34-3-3-3h-3c-1.66,0-3,1.34-3,3s1.34,3,3,3Z"/>
  <path id="Path_196" data-name="Path 196" d="M30,18h3c1.66,0,3-1.34,3-3s-1.34-3-3-3h-3c-1.66,0-3,1.34-3,3s1.34,3,3,3Z"/>
  <path id="Path_197" data-name="Path 197" d="M45,18h3c1.66,0,3-1.34,3-3s-1.34-3-3-3h-3c-1.66,0-3,1.34-3,3s1.34,3,3,3Z"/>
  <path id="Path_198" data-name="Path 198" d="M147,18h18c1.66,0,3-1.34,3-3s-1.34-3-3-3h-18c-1.66,0-3,1.34-3,3s1.34,3,3,3Z"/>
  <path id="Path_199" data-name="Path 199" d="M54,60h24c1.66,0,3-1.34,3-3s-1.34-3-3-3h-24c-1.66,0-3,1.34-3,3s1.34,3,3,3Z"/>
  <path id="Path_200" data-name="Path 200" d="M54,78h24c1.66,0,3-1.34,3-3s-1.34-3-3-3h-24c-1.66,0-3,1.34-3,3s1.34,3,3,3Z"/>
  <path id="Path_201" data-name="Path 201" d="M54,96h24c1.66,0,3-1.34,3-3s-1.34-3-3-3h-24c-1.66,0-3,1.34-3,3s1.34,3,3,3Z"/>
  <path id="Path_202" data-name="Path 202" d="M78,108h-24c-1.66,0-3,1.34-3,3s1.34,3,3,3h24c1.66,0,3-1.34,3-3s-1.34-3-3-3Z"/>
  <path id="Path_203" data-name="Path 203" d="M69,126h-15c-1.66,0-3,1.34-3,3s1.34,3,3,3h15c1.66,0,3-1.34,3-3s-1.34-3-3-3Z"/>
  <path id="Path_204" data-name="Path 204" d="M102,60h24c1.66,0,3-1.34,3-3s-1.34-3-3-3h-24c-1.66,0-3,1.34-3,3s1.34,3,3,3Z"/>
  <path id="Path_205" data-name="Path 205" d="M102,78h24c1.66,0,3-1.34,3-3s-1.34-3-3-3h-24c-1.66,0-3,1.34-3,3s1.34,3,3,3Z"/>
  <path id="Path_206" data-name="Path 206" d="M102,96h24c1.66,0,3-1.34,3-3s-1.34-3-3-3h-24c-1.66,0-3,1.34-3,3s1.34,3,3,3Z"/>
  <path id="Path_207" data-name="Path 207" d="M102,114h24c1.66,0,3-1.34,3-3s-1.34-3-3-3h-24c-1.66,0-3,1.34-3,3s1.34,3,3,3Z"/>
  <path id="Path_208" data-name="Path 208" d="M102,132h15c1.66,0,3-1.34,3-3s-1.34-3-3-3h-15c-1.66,0-3,1.34-3,3s1.34,3,3,3Z"/>
</svg>