<?xml version="1.0" encoding="UTF-8"?>
<svg id="Bluetext" xmlns="http://www.w3.org/2000/svg" viewBox="0 0 180 180">
  <path id="Path_193" data-name="Path 193" d="M165,0H15C6.72,0,0,6.72,0,15v132c0,8.28,6.72,14.99,15,15h.24c1.5,10.32,10.33,17.98,20.76,18h108c10.43-.02,19.26-7.68,20.76-18h.24c8.28,0,14.99-6.72,15-15V15C179.99,6.72,173.28,0,165,0ZM15,6h150c4.97,0,9,4.03,9,9v9H6v-9c0-4.97,4.03-9,9-9ZM36,174c-8.28,0-14.99-6.72-15-15V51c0-1.66,1.34-3,3-3h96c1.66,0,3,1.34,3,3v108c0,5.64,2.26,11.05,6.3,15H36ZM144,174c-8.28,0-14.99-6.72-15-15v-57h27c1.66,0,3,1.34,3,3v54c0,8.28-6.72,14.99-15,15ZM165,156v-51c0-4.97-4.03-9-9-9h-27v-45c0-4.97-4.03-9-9-9H24c-4.97,0-9,4.03-9,9v105c-4.97,0-9-4.03-9-9h0V30h168v117c0,4.97-4.03,9-9,9Z"/>
  <path id="Path_194" data-name="Path 194" d="M33,126h24c3.31,0,6-2.69,6-6v-18c0-3.31-2.69-6-6-6h-24c-3.31,0-6,2.69-6,6v18c0,3.31,2.69,6,6,6ZM33,102h24v18h-24v-18Z"/>
  <path id="Path_195" data-name="Path 195" d="M111,135h-24c-3.31,0-6,2.69-6,6v18c0,3.31,2.69,6,6,6h24c3.31,0,6-2.69,6-6v-18c0-3.31-2.69-6-6-6ZM111,159h-24v-18h24v18Z"/>
  <path id="Path_196" data-name="Path 196" d="M15,18h3c1.66,0,3-1.34,3-3s-1.34-3-3-3h-3c-1.66,0-3,1.34-3,3s1.34,3,3,3Z"/>
  <path id="Path_197" data-name="Path 197" d="M30,18h3c1.66,0,3-1.34,3-3s-1.34-3-3-3h-3c-1.66,0-3,1.34-3,3s1.34,3,3,3Z"/>
  <path id="Path_198" data-name="Path 198" d="M45,18h3c1.66,0,3-1.34,3-3s-1.34-3-3-3h-3c-1.66,0-3,1.34-3,3s1.34,3,3,3Z"/>
  <path id="Path_199" data-name="Path 199" d="M141,18h24c1.66,0,3-1.34,3-3s-1.34-3-3-3h-24c-1.66,0-3,1.34-3,3s1.34,3,3,3Z"/>
  <path id="Path_200" data-name="Path 200" d="M30,87c1.66,0,3-1.34,3-3v-11.29l6.3,12.63c.51,1.02,1.56,1.67,2.7,1.66.23,0,.46-.03.69-.08,1.36-.32,2.31-1.53,2.31-2.92v-24c0-1.66-1.34-3-3-3s-3,1.34-3,3v11.29l-6.3-12.63c-.72-1.49-2.52-2.11-4.01-1.39-1.05.51-1.71,1.57-1.69,2.73v24c0,1.66,1.34,3,3,3Z"/>
  <path id="Path_201" data-name="Path 201" d="M74.18,86.88c1.29.37,2.66-.16,3.37-1.29l4.96-7.93,4.96,7.93c.88,1.41,2.73,1.83,4.13.95.88-.55,1.41-1.51,1.41-2.54v-24c0-1.66-1.34-3-3-3s-3,1.34-3,3v13.54l-1.96-3.13c-.99-1.41-2.94-1.75-4.35-.75-.29.21-.55.46-.75.75l-1.94,3.13v-13.54c0-1.66-1.34-3-3-3s-3,1.34-3,3v24c0,1.34.89,2.51,2.18,2.88Z"/>
  <path id="Path_202" data-name="Path 202" d="M54,87h9c1.66,0,3-1.34,3-3s-1.34-3-3-3h-6v-6h3c1.66,0,3-1.34,3-3s-1.34-3-3-3h-3v-6h6c1.66,0,3-1.34,3-3s-1.34-3-3-3h-9c-1.66,0-3,1.34-3,3v24c0,1.66,1.34,3,3,3Z"/>
  <path id="Path_203" data-name="Path 203" d="M108,69c-1.66,0-3-1.35-3-3,0-1.66,1.35-3,3-3,1.07,0,2.06.57,2.6,1.5.87,1.41,2.72,1.84,4.13.97,1.35-.83,1.82-2.58,1.06-3.97-2.49-4.3-7.99-5.78-12.29-3.29-4.3,2.49-5.78,7.99-3.29,12.29,1.61,2.78,4.58,4.5,7.79,4.5,1.66,0,3,1.35,3,3,0,1.66-1.35,3-3,3-1.07,0-2.06-.57-2.6-1.5-.87-1.41-2.72-1.84-4.13-.97-1.35.83-1.82,2.58-1.06,3.97,2.49,4.3,7.99,5.78,12.29,3.29,4.3-2.49,5.78-7.99,3.29-12.29-1.61-2.78-4.58-4.5-7.79-4.5Z"/>
  <path id="Path_204" data-name="Path 204" d="M114,96h-42c-1.66,0-3,1.34-3,3s1.34,3,3,3h42c1.66,0,3-1.34,3-3s-1.34-3-3-3Z"/>
  <path id="Path_205" data-name="Path 205" d="M114,108h-42c-1.66,0-3,1.34-3,3s1.34,3,3,3h42c1.66,0,3-1.34,3-3s-1.34-3-3-3Z"/>
  <path id="Path_206" data-name="Path 206" d="M90,126c1.66,0,3-1.34,3-3s-1.34-3-3-3h-18c-1.66,0-3,1.34-3,3s1.34,3,3,3h18Z"/>
  <path id="Path_207" data-name="Path 207" d="M72,135H30c-1.66,0-3,1.34-3,3s1.34,3,3,3h42c1.66,0,3-1.34,3-3s-1.34-3-3-3Z"/>
  <path id="Path_208" data-name="Path 208" d="M72,147H30c-1.66,0-3,1.34-3,3s1.34,3,3,3h42c1.66,0,3-1.34,3-3s-1.34-3-3-3Z"/>
  <path id="Path_209" data-name="Path 209" d="M48,159h-15c-1.66,0-3,1.34-3,3s1.34,3,3,3h15c1.66,0,3-1.34,3-3s-1.34-3-3-3Z"/>
</svg>