<?xml version="1.0" encoding="UTF-8"?>
<svg id="Bluetext" xmlns="http://www.w3.org/2000/svg" viewBox="0 0 180 180">
  <path id="paper-stack" d="M136.5,0H46.5C41.53,0,37.5,4.03,37.5,9v15h-6c-4.97,0-9,4.03-9,9v126c0,4.97,4.03,9,9,9h6v3c0,4.97,4.03,9,9,9h73.77c1.59,0,3.11-.62,4.23-1.75l19.25-19.25c.82-.82,1.38-1.86,1.62-3h3.13c4.97,0,9-4.03,9-9V21c0-4.97-4.03-9-9-9h-3v-3C145.5,4.03,141.47,0,136.5,0ZM43.5,9c0-1.66,1.34-3,3-3h90c1.66,0,3,1.34,3,3v3H58.5c-4.97,0-9,4.03-9,9v3h-6v-15ZM31.5,162c-1.66,0-3-1.34-3-3V33c0-1.66,1.34-3,3-3h90c1.66,0,3,1.34,3,3v3H46.5c-4.97,0-9,4.03-9,9v117h-6ZM43.5,171V45c0-1.66,1.34-3,3-3h90c1.66,0,3,1.34,3,3v108h-12c-4.97,0-9,4.03-9,9v12H46.5c-1.66,0-3-1.34-3-3ZM135.26,159l-10.76,10.77v-7.77c0-1.66,1.34-3,3-3h7.76ZM151.5,21v126c0,1.66-1.34,3-3,3h-3V45c0-4.97-4.03-9-9-9h-6v-3c0-4.97-4.03-9-9-9H55.5v-3c0-1.66,1.34-3,3-3h90c1.66,0,3,1.34,3,3Z"/>
</svg>