<?xml version="1.0" encoding="UTF-8"?>
<svg id="Bluetext" xmlns="http://www.w3.org/2000/svg" viewBox="0 0 180 180">
  <path d="M171,0H9C4.05,0,0,4.05,0,9v126C0,139.95,4.05,144,9,144h162c4.95,0,9-4.05,9-9V9c0-4.95-4.05-9-9-9ZM174,135c0,1.65-1.35,3-3,3H9c-1.65,0-3-1.35-3-3V9c0-1.65,1.35-3,3-3h162c1.65,0,3,1.35,3,3v126Z"/>
  <path d="M165,12H15c-1.65,0-3,1.35-3,3v114c0,1.65,1.35,3,3,3h150c1.65,0,3-1.35,3-3V15c0-1.65-1.35-3-3-3ZM162,126H18V18h144v108Z"/>
  <path d="M74.25,100.92c1.41.72,2.91,1.08,4.44,1.08,1.95,0,3.9-.6,5.55-1.77l28.62-20.22c2.58-1.83,4.11-4.8,4.11-7.98s-1.53-6.18-4.11-7.98l-28.62-20.22c-2.94-2.07-6.78-2.37-9.99-.69-3.24,1.68-5.25,5.01-5.25,8.67v40.47c0,3.69,2.01,6.99,5.25,8.67h0v-.03ZM75,51.78c0-1.44.75-2.7,2.01-3.36.54-.27,1.11-.42,1.68-.42.72,0,1.47.24,2.1.69l28.62,20.22c1.02.72,1.59,1.83,1.59,3.09s-.57,2.37-1.59,3.09l-28.62,20.22c-1.14.81-2.55.9-3.78.27-1.26-.66-2.01-1.92-2.01-3.36v-40.47.03Z"/>
  <path d="M177,165H50.58c-1.35-5.16-6-9-11.58-9s-10.23,3.84-11.58,9H3C1.35,165,0,166.35,0,168s1.35,3,3,3h24.42c1.35,5.16,6,9,11.58,9s10.23-3.84,11.58-9h126.42c1.65,0,3-1.35,3-3s-1.35-3-3-3ZM39,174c-3.3,0-6-2.7-6-6s2.7-6,6-6,6,2.7,6,6-2.7,6-6,6Z"/>
</svg>