<?xml version="1.0" encoding="UTF-8"?>
<svg id="Bluetext" xmlns="http://www.w3.org/2000/svg" viewBox="0 0 180 180">
  <path id="webinar" d="M171,0H9C4.03,0,0,4.03,0,9v135c0,4.97,4.03,9,9,9h59.53c-2.21,6.93-11.67,8.96-12.13,9.06h0c-6.37.32-11.38,5.56-11.41,11.94,0,3.31,2.69,6,6,6h78c3.31,0,6-2.69,6-6-.02-6.38-5.03-11.62-11.4-11.94h0c-.11-.02-9.85-2.07-12.11-9.06h59.51c4.97,0,9-4.03,9-9V9C180,4.03,175.97,0,171,0ZM174,9v57h-18.3c-.2-1.25-.49-2.48-.87-3.68,1.34-.25,2.65-.64,3.9-1.17,2.08-.94,3.57-2.85,3.98-5.1.4-2.2-.31-4.46-1.91-6.04-2.78-2.42-4.51-5.83-4.8-9.5v-7.5c0-11.6-9.4-21-21-21s-21,9.4-21,21v7.5c-.29,3.67-2.02,7.08-4.8,9.5-1.59,1.57-2.3,3.83-1.9,6.03.4,2.26,1.9,4.18,3.99,5.12,1.25.53,2.54.92,3.87,1.16-.38,1.21-.66,2.44-.86,3.68h-21.3V6h78c1.66,0,3,1.34,3,3ZM121.5,102c1.58,0,2.89-1.21,3-2.79.03-.3.07-.6.13-.9.27-1.1,1.38-1.76,2.48-1.49.16.04.32.1.47.18,4.59,2.68,10.27,2.68,14.86,0,.99-.53,2.23-.16,2.76.84.08.15.14.31.18.47.06.3.1.6.13.9.11,1.58,1.42,2.8,3,2.8.83,0,1.5.67,1.5,1.5s-.67,1.5-1.5,1.5c-1.26,0-2.38.79-2.82,1.97l-1.8,4.9c-.47,1.28-1.38,2.36-2.57,3.03-1.91,1.2-4.08,1.92-6.33,2.08-2.25-.17-4.42-.89-6.33-2.1-1.19-.67-2.09-1.75-2.56-3.03l-1.8-4.9c-.43-1.18-1.55-1.96-2.81-1.97-.83,0-1.5-.67-1.5-1.5s.67-1.5,1.5-1.5ZM120.21,93.92c1.01-5.73,5.98-9.9,11.79-9.92h6c5.81.01,10.78,4.19,11.79,9.92-.77-1.03-1.77-1.85-2.93-2.4-2.32-1.09-5.03-1.02-7.29.2-2.81,1.72-6.34,1.72-9.14,0-2.26-1.22-4.97-1.29-7.29-.2-1.16.55-2.16,1.38-2.93,2.4ZM124.23,119.1c.46.38.95.72,1.47,1.02,2.8,1.75,6.01,2.74,9.3,2.88,3.3-.14,6.5-1.13,9.3-2.88.52-.3,1.01-.64,1.47-1.02,5.2,2.43,8.88,7.25,9.86,12.9h-41.27c.98-5.65,4.67-10.47,9.86-12.9ZM161.73,132c-1.08-7.54-5.65-14.14-12.33-17.79.04-.09.09-.18.13-.27l1.2-3.27c3.14-.98,5.27-3.88,5.27-7.16v-7.5c0-9.94-8.06-17.99-18-18h-6c-9.94,0-17.99,8.06-18,18v7.5c0,3.29,2.14,6.19,5.28,7.16l1.2,3.27c.04.1.09.18.13.27-6.69,3.65-11.27,10.25-12.35,17.79h-15.26v-60h81v60h-12.27ZM61.65,118.8c.35-.6.64-1.22.88-1.87l1.2-3.27c.29-.09.57-.21.84-.34,1.24,2.61,2.94,4.96,5.03,6.96.18.18.26.45.21.7-.05.3-.25.56-.52.69-1.32.53-2.7.88-4.11,1.03-.98-1.46-2.16-2.78-3.52-3.9h0ZM39.11,114.87l-1.8-4.9c-.43-1.18-1.55-1.96-2.81-1.97-.83,0-1.5-.67-1.5-1.5s.67-1.5,1.5-1.5c5.61.12,11.13-1.46,15.82-4.55,2.87,3.1,6.97,4.77,11.18,4.55.83,0,1.5.67,1.5,1.5s-.67,1.5-1.5,1.5c-1.26,0-2.38.79-2.82,1.97l-1.8,4.9c-.47,1.28-1.38,2.36-2.57,3.03-1.9,1.2-4.07,1.92-6.31,2.09-2.25-.17-4.42-.89-6.33-2.1-1.18-.67-2.09-1.74-2.56-3.02h0ZM63,99.15c-.49-.1-1-.15-1.5-.15-3.14.43-6.2-1.16-7.66-3.97-.54-1.57-2.24-2.4-3.81-1.87-.49.17-.92.46-1.27.84-3.89,3.51-9.03,5.31-14.26,5-.5,0-1.01.05-1.5.15v-.15c0-8.28,6.72-15,15-15s15,6.72,15,15v.15ZM31.43,113.33c.27.13.56.24.85.34l1.2,3.27c.24.65.53,1.27.88,1.87-1.36,1.12-2.54,2.44-3.52,3.9-1.41-.15-2.79-.49-4.1-1.02-.28-.13-.48-.39-.54-.7-.05-.25.02-.5.2-.68,2.09-2,3.8-4.36,5.03-6.97ZM38.63,123.07s.04.04.07.05c2.8,1.75,6,2.74,9.3,2.89,3.3-.14,6.5-1.13,9.3-2.88l.07-.05c2.76,2.25,4.62,5.42,5.24,8.93h-29.24c.61-3.52,2.48-6.69,5.26-8.93h0ZM68.72,132c-.2-1.25-.49-2.48-.87-3.68,1.34-.25,2.65-.64,3.9-1.17,2.08-.94,3.57-2.85,3.98-5.1.4-2.2-.31-4.46-1.91-6.04-2.79-2.41-4.52-5.83-4.81-9.5v-7.5c0-11.6-9.4-21-21-21s-21,9.4-21,21v7.5c-.29,3.67-2.02,7.08-4.8,9.5-1.59,1.57-2.3,3.83-1.9,6.03.41,2.26,1.9,4.18,4,5.12,1.25.53,2.54.92,3.87,1.16-.38,1.2-.67,2.44-.87,3.68H6v-60h81v60h-18.28ZM34.5,36c1.58,0,2.89-1.21,3-2.79.03-.3.07-.6.14-.9.27-1.09,1.37-1.76,2.47-1.5.17.04.33.1.48.19,4.59,2.68,10.27,2.68,14.86,0,.99-.53,2.23-.16,2.76.84.08.15.14.31.18.47.06.3.1.6.13.9.11,1.58,1.42,2.8,3,2.8.83,0,1.5.67,1.5,1.5s-.67,1.5-1.5,1.5c-1.26,0-2.38.79-2.82,1.97l-1.8,4.91c-.47,1.28-1.38,2.36-2.57,3.03-1.91,1.2-4.08,1.92-6.33,2.08-2.25-.17-4.42-.89-6.33-2.1-1.19-.67-2.09-1.75-2.56-3.03l-1.8-4.91c-.43-1.18-1.55-1.96-2.81-1.97-.83,0-1.5-.67-1.5-1.5s.67-1.5,1.5-1.5ZM33.21,27.92c1.01-5.73,5.98-9.9,11.79-9.92h6c5.81.01,10.78,4.19,11.79,9.92-.77-1.03-1.77-1.85-2.93-2.4-2.32-1.1-5.03-1.02-7.29.19-2.81,1.72-6.34,1.72-9.14,0-2.26-1.22-4.97-1.3-7.29-.21-1.16.56-2.16,1.39-2.93,2.42ZM37.23,53.1c.46.38.95.72,1.47,1.02,2.8,1.75,6.01,2.74,9.3,2.88,3.3-.14,6.5-1.13,9.3-2.88.52-.3,1.01-.64,1.47-1.02,5.2,2.43,8.88,7.25,9.86,12.9H27.37c.98-5.65,4.67-10.47,9.86-12.9ZM148.65,52.8c.35-.6.64-1.22.88-1.87l1.2-3.27c.29-.09.57-.21.84-.34,1.24,2.61,2.94,4.96,5.03,6.96.18.18.26.45.21.7-.05.3-.25.56-.52.69-1.32.53-2.7.88-4.11,1.03-.98-1.46-2.16-2.78-3.52-3.9h0ZM126.11,48.87l-1.8-4.91c-.43-1.18-1.55-1.96-2.81-1.97-.83,0-1.5-.67-1.5-1.5s.67-1.5,1.5-1.5c5.61.12,11.13-1.46,15.82-4.55,2.87,3.1,6.97,4.77,11.18,4.55.83,0,1.5.67,1.5,1.5s-.67,1.5-1.5,1.5c-1.26,0-2.38.79-2.82,1.97l-1.8,4.91c-.47,1.28-1.38,2.36-2.57,3.03-1.9,1.2-4.07,1.92-6.32,2.09-2.25-.17-4.42-.89-6.33-2.1-1.19-.67-2.09-1.74-2.56-3.02h0ZM150,33.15c-.49-.1-1-.15-1.5-.15-3.14.42-6.2-1.17-7.66-3.97-.54-1.57-2.24-2.4-3.81-1.87-.49.17-.92.46-1.27.84-3.89,3.51-9.03,5.31-14.26,5-.5,0-1.01.05-1.5.15v-.15c0-8.28,6.72-15,15-15s15,6.72,15,15v.15ZM118.43,47.32c.27.13.56.24.85.34l1.2,3.27c.24.65.53,1.27.88,1.87-1.36,1.12-2.54,2.44-3.52,3.9-1.41-.15-2.79-.49-4.1-1.02-.28-.13-.48-.39-.54-.7-.05-.25.02-.5.19-.68,2.09-2,3.8-4.36,5.03-6.98ZM125.63,57.07s.04.04.07.05c2.8,1.75,6,2.74,9.3,2.89,3.3-.14,6.5-1.13,9.3-2.88l.07-.05c2.76,2.25,4.62,5.42,5.24,8.93h-29.24c.61-3.52,2.48-6.69,5.26-8.93h0ZM9,6h78v60h-12.26c-1.08-7.54-5.65-14.14-12.34-17.79.04-.09.09-.18.13-.27l1.2-3.27c3.14-.98,5.27-3.88,5.27-7.16v-7.5c0-9.94-8.06-17.99-18-18h-6c-9.94,0-17.99,8.06-18,18v7.5c0,3.29,2.14,6.19,5.28,7.16l1.2,3.27c.04.1.09.18.13.27-6.69,3.65-11.27,10.25-12.35,17.79H6V9c0-1.66,1.34-3,3-3ZM129,174H51c0-3.31,2.69-6,6-6h66c3.31,0,6,2.69,6,6ZM110.52,162h-41.05c2.69-2.34,4.52-5.51,5.23-9h30.6c.7,3.49,2.54,6.66,5.23,9h0ZM171,147H9c-1.66,0-3-1.34-3-3v-6h168v6c0,1.66-1.34,3-3,3Z"/>
</svg>