<?xml version="1.0" encoding="UTF-8"?>
<svg id="Layer_1" data-name="Layer 1" xmlns="http://www.w3.org/2000/svg" viewBox="0 0 180 180">
  <defs>
    <style>
      .cls-1 {
        stroke-width: 3px;
      }

      .cls-1, .cls-2 {
        stroke: #000;
        stroke-miterlimit: 10;
      }

      .cls-2 {
        stroke-width: 4px;
      }
    </style>
  </defs>
  <g>
    <path class="cls-2" d="M127.6,68.75c-2.05-.31-17.42-2.8-30.29-9.46-.27-.14-.58-.19-.89-.14l-23.04,4c-.28.05-.54.18-.75.39-.07.06-3.97,3.94-7.98,7.62-1.51-.24-5.38-.8-12.73-1.85-10.24-1.46-17.35-3.39-21.74-4.87v2.97c4.57,1.48,11.54,3.28,21.34,4.67,5.31.75,8.5,1.22,10.42,1.5-1.71,1.5-3.28,2.79-4.38,3.51-1.35.89-1.47,2.01-1.42,2.6.06.73.43,1.42,1.06,2.02.49.46,1.13.88,1.92,1.22,3.41,1.49,11.49,2.22,20.12-4.51,2.68-2.09,7.29.9,12.63,4.35,6.74,4.36,15.13,9.79,23.64,7.01.74-.24,1.14-1.03.9-1.77-.24-.74-1.03-1.14-1.77-.9-7.24,2.37-14.68-2.45-21.25-6.7-6.24-4.04-11.63-7.53-15.89-4.21-6.41,5-12.68,5.59-16.41,4.46-1.27-.38-1.92-.89-2.11-1.15.03-.02.07-.05.12-.09,4.01-2.64,13.32-11.76,15.19-13.61l22.14-3.84c14.1,7.17,30.32,9.47,31.01,9.56.16.02.31.02.47-.01l20.77-4.19.19-2.9-21.28,4.29Z"/>
    <path class="cls-2" d="M134,99.39c-1,.53-2.51,1.4-4.39,2.51-3.21-3.98-9.15-6.67-10-7.05-.71-.31-1.54.01-1.85.72-.31.71.02,1.54.72,1.85,2.68,1.17,9.76,5.07,10.34,9.05.21,1.43-.49,2.8-2.13,4.19-13.27,11.21-27.44,19.8-41.11,6.88-.56-.53-1.45-.51-1.98.06-.53.56-.51,1.45.05,1.98,0,0,0,0,0,0,1.93,1.82,3.87,3.23,5.81,4.31-2.82,1.12-5.02,1.7-6.21,1.47-3.28-.65-11.78-4.13-19.79-8.62-10.28-5.75-13.91-9.85-13.91-11.62,0-1.96,1.98-4.07,4.92-5.25,6.09-2.44,16.34-1.17,26.84,9.75.53.55,1.42.58,1.98.04.56-.54.58-1.43.04-1.98-11.46-11.92-22.96-13.19-29.9-10.41-1.78.71-3.28,1.7-4.4,2.86-4.74-1.82-11.97-2.54-18.83-2.75v2.82c6.28.19,12.8.81,17.16,2.32-.39.84-.61,1.72-.61,2.61,0,1.8,1.35,3.82,3.56,5.92,8.02,7.61,27.21,16.05,32.41,17.08,2,.4,5.57-.65,10.16-2.64,14.39,5.26,28.29-6.46,35.64-12.66,2.41-2.04,3.45-4.3,3.1-6.74-.09-.61-.27-1.2-.52-1.78,1.82-1.07,3.28-1.91,4.23-2.42,3.31-1.75,9.12-2.03,14.32-1.84l.19-2.8c-5.6-.2-11.98.13-15.82,2.16Z"/>
  </g>
  <path class="cls-1" d="M90.12,12.85L68.01.08c-.39-.23-.88.06-.88.51v26.35c0,.45.49.73.88.51l22.12-12.77c.7-.41.7-1.42,0-1.82ZM87.02,14.27l-17.33,10c-.39.23-.88-.06-.88-.51V3.76c0-.45.49-.73.88-.51l17.33,10c.39.23.39.79,0,1.01Z"/>
  <path class="cls-1" d="M113.68,12.85L91.56.08c-.39-.23-.88.06-.88.51v26.35c0,.45.49.73.88.51l22.12-12.77c.7-.41.7-1.42,0-1.82ZM110.57,14.27l-17.33,10c-.39.23-.88-.06-.88-.51V3.76c0-.45.49-.73.88-.51l17.33,10c.39.23.39.79,0,1.01Z"/>
  <path class="cls-2" d="M120.7,12.98v3.66c30.59,12.2,52.21,42.08,52.21,77.02,0,45.79-37.12,82.91-82.91,82.91S7.09,139.45,7.09,93.66C7.09,58.72,28.71,28.85,59.3,16.64v-3.66C26.78,25.36,3.66,56.8,3.66,93.66c0,47.68,38.65,86.34,86.34,86.34s86.34-38.65,86.34-86.34c0-36.86-23.12-68.3-55.63-80.69Z"/>
</svg>