<?xml version="1.0" encoding="UTF-8"?>
<svg id="Layer_1" data-name="Layer 1" xmlns="http://www.w3.org/2000/svg" viewBox="0 0 180 180">
  <defs>
    <style>
      .cls-1 {
        stroke: #000;
        stroke-miterlimit: 10;
        stroke-width: 2px;
      }
    </style>
  </defs>
  <path class="cls-1" d="M163.79,6.3h-20.53V2.06C143.26.92,142.34,0,141.2,0s-2.06.92-2.06,2.06v4.24h-21.47V2.06C117.66.92,116.74,0,115.6,0s-2.06.92-2.06,2.06v4.24h-21.47V2.06C92.06.92,91.14,0,90,0s-2.06.92-2.06,2.06v4.24h-21.47V2.06C66.46.92,65.54,0,64.4,0s-2.06.92-2.06,2.06v4.24h-21.47V2.06C40.86.92,39.94,0,38.8,0s-2.06.92-2.06,2.06v4.24h-20.53c-7.2,0-13.06,5.86-13.06,13.06v147.58c0,7.2,5.86,13.06,13.06,13.06h147.58c7.2,0,13.06-5.86,13.06-13.06V19.36c0-7.2-5.86-13.06-13.06-13.06ZM16.21,10.42h20.53v4.24c0,1.14.92,2.06,2.06,2.06s2.06-.92,2.06-2.06v-4.24h21.47v4.24c0,1.14.92,2.06,2.06,2.06s2.06-.92,2.06-2.06v-4.24h21.47v4.24c0,1.14.92,2.06,2.06,2.06s2.06-.92,2.06-2.06v-4.24h21.47v4.24c0,1.14.92,2.06,2.06,2.06s2.06-.92,2.06-2.06v-4.24h21.47v4.24c0,1.14.92,2.06,2.06,2.06s2.06-.92,2.06-2.06v-4.24h20.53c4.93,0,8.94,4.01,8.94,8.94v10.11H7.27v-10.11c0-4.93,4.01-8.94,8.94-8.94ZM163.79,175.88H16.21c-4.93,0-8.94-4.01-8.94-8.94V33.6h165.45v133.34c0,4.93-4.01,8.94-8.94,8.94Z"/>
  <path class="cls-1" d="M161.1,43.06h-93.24c-1.14,0-2.06.92-2.06,2.06v24.85h31.08v45.58h64.22c1.14,0,2.06-.92,2.06-2.06V45.12c0-1.14-.92-2.06-2.06-2.06ZM96.88,65.84h-26.96v-18.66h26.96v18.66ZM127.96,111.42h-26.96v-18.66h26.96v18.66ZM127.96,88.63h-26.96v-18.66h26.96v18.66ZM127.96,65.84h-26.96v-18.66h26.96v18.66ZM159.04,111.42h-26.96v-18.66h26.96v18.66ZM159.04,88.63h-26.96v-18.66h26.96v18.66ZM159.04,65.84h-26.96v-18.66h26.96v18.66Z"/>
  <g>
    <path class="cls-1" d="M91.64,115.31l-5.57,13.53-13.43-5.45,7.59-3.31c-2.09-6.86-6.9-12.73-13.16-16.2-14.5-8.02-32.44-1.78-39.14,13.17-.31.68-.52,1.43-.85,2.09l-4.85-1.59c1.23-3.92,3.46-7.7,6.12-10.82,15.69-18.34,45.6-14.06,55.39,7.95.48,1.09.85,2.25,1.34,3.31l6.56-2.69Z"/>
    <path class="cls-1" d="M34.46,133.41l-7.67,3.18c.84,2.68,2.07,5.24,3.65,7.56,4.41,6.47,11.62,10.89,19.4,11.92,13.1,1.73,25.78-6.06,30.05-18.5l4.97,1.67c-3.39,9.55-10.91,17.13-20.51,20.43-17.19,5.93-35.58-3-41.95-19.8-.08-.2-.29-1.22-.47-1.24l-6.57,2.76,5.47-13.54,13.62,5.54Z"/>
  </g>
</svg>