<?xml version="1.0" encoding="UTF-8"?>
<svg id="Layer_1" data-name="Layer 1" xmlns="http://www.w3.org/2000/svg" viewBox="0 0 180 180">
  <defs>
    <style>
      .cls-1 {
        stroke: #000;
        stroke-miterlimit: 10;
        stroke-width: 2px;
      }
    </style>
  </defs>
  <g>
    <path class="cls-1" d="M107.6,49.44c-16.82-16.89-44.2-16.89-61.03,0s-16.83,44.38,0,61.27c16.36,16.42,42.68,16.87,59.6,1.36l11.99,12.04c-3.04,4.38-2.63,10.47,1.26,14.37l38.08,38.23c4.37,4.38,11.47,4.38,15.84,0s4.37-11.52,0-15.9l-38.08-38.23c-3.89-3.91-9.95-4.32-14.31-1.27l-11.99-12.04c15.45-16.98,15-43.41-1.36-59.83ZM49.36,107.91c-15.29-15.35-15.29-40.32,0-55.67,15.29-15.35,40.16-15.35,55.45,0,15.29,15.35,15.29,40.32,0,55.67-15.29,15.35-40.16,15.35-55.45,0ZM132.47,125.38l38.08,38.23c2.83,2.84,2.83,7.46,0,10.3-2.83,2.84-7.43,2.84-10.26,0l-38.08-38.23c-2.83-2.84-2.83-7.46,0-10.3,2.83-2.84,7.43-2.84,10.26,0Z"/>
    <path class="cls-1" d="M61.4,61.53c-.77-.77-2.02-.77-2.79,0-10.19,10.23-10.19,26.87,0,37.09.77.77,2.02.77,2.79,0s.77-2.03,0-2.8c-8.65-8.68-8.65-22.81,0-31.49.77-.77.77-2.03,0-2.8Z"/>
  </g>
  <path d="M177.69,33.27h-11.54v-8.24c0-.09-.74-1.35-.89-1.51-1.12-1.19-9.31-2.98-11.34-3.35-17.43-3.2-35.37-.25-51.62,6.36-4.25,1.73-8.24,3.98-12.42,5.84-20.18-11.01-43.92-16.72-66.79-11.6-1.75.39-7.22,1.7-8.31,2.78-.19.18-.92,1.38-.92,1.48v8.24H2.31c-.63,0-2.65,2.19-2.26,3.13l.25,122.7c.4,1.06,1.12,1.65,2.16,2.04h141.93l-6.2-6.45h-32.89c-.07-.44.5-.39.82-.52,7.58-3,16.47-4.87,25.42-5.65l-6.15-5.96c-7.4,1.06-14.7,2.88-21.79,5.49-3.49,1.28-6.81,2.97-10.29,4.25v-34.47l-6.6,1.54v32.93c-20.61-9.74-43.65-13.21-66.25-9.29V28.17c22.53-6.33,46.08-.73,66.25,9.89v2.53l6.6,1.97v-4.5c20.17-10.62,43.74-16.22,66.25-9.89v114.82c-2.28-.38-4.57-.69-6.86-.94l7.99,8.3c.94.2,1.76.34,2.27.33,1.1-.03,3.2-1.35,3.2-2.45V39.86h7.19v114.82h-8.45l6.29,6.45h6.36c1.15-.4,1.84-1.11,2.25-2.25l.16-122.49c.39-.94-1.64-3.13-2.26-3.13ZM25.15,149.03c15.27-2.28,34.35-.58,48.74,5.12.32.13.89.09.82.52H6.66V39.86h7.19v108.37c0,1.1,2.09,2.41,3.2,2.45,1.54.05,6.06-1.34,8.1-1.65Z"/>
</svg>