<?xml version="1.0" encoding="UTF-8"?>
<svg id="Layer_1" data-name="Layer 1" xmlns="http://www.w3.org/2000/svg" viewBox="0 0 180 180">
  <defs>
    <style>
      .cls-1 {
        stroke: #000;
        stroke-miterlimit: 10;
        stroke-width: 2px;
      }
    </style>
  </defs>
  <g>
    <path class="cls-1" d="M151.02,9.98h-46.5c-2.45-5.6-8.03-9.52-14.52-9.52s-12.08,3.92-14.52,9.52H28.98c-5.89,0-10.68,4.79-10.68,10.68v148.2c0,5.89,4.79,10.68,10.68,10.68h122.05c5.89,0,10.68-4.79,10.68-10.68V20.66c0-5.89-4.79-10.68-10.68-10.68ZM90,4.38c6.57,0,11.92,5.35,11.92,11.92,0,3.32,4.02,4.29,9.59,5.62,7.75,1.86,18.18,4.37,19.33,13.22H49.17c1.15-8.85,11.58-11.36,19.33-13.22,5.57-1.34,9.59-2.3,9.59-5.62,0-6.57,5.35-11.92,11.91-11.92ZM157.78,168.86c0,3.73-3.03,6.76-6.76,6.76H28.98c-3.73,0-6.76-3.03-6.76-6.76V20.66c0-3.73,3.03-6.76,6.76-6.76h45.39c-.11.7-.19,1.42-.2,2.14-.81.68-4.13,1.47-6.58,2.06-9.04,2.17-22.7,5.45-22.44,19.03.02,1.07.89,1.92,1.96,1.92h85.79c1.07,0,1.94-.86,1.96-1.92.27-13.58-13.4-16.86-22.44-19.03-2.45-.59-5.77-1.38-6.58-2.06-.01-.73-.09-1.44-.2-2.15h45.38c3.73,0,6.76,3.03,6.76,6.76v148.2Z"/>
    <path class="cls-1" d="M90,18.71c2.04,0,3.7-1.66,3.7-3.71s-1.66-3.7-3.7-3.7-3.71,1.66-3.71,3.7,1.66,3.71,3.71,3.71Z"/>
  </g>
  <path class="cls-1" d="M130.74,69.49h-4.83c-7.71,0-15.21-2.72-21.13-7.66l-13.54-11.29c-.72-.6-1.77-.6-2.49,0l-13.56,11.31c-5.92,4.93-13.41,7.64-21.11,7.64h-4.82c-1.07,0-1.94.87-1.94,1.94v39.51c0,12.35,6.14,23.82,16.41,30.67l25.19,16.79c.33.22.7.33,1.08.33s.75-.11,1.08-.33l25.19-16.79c10.28-6.85,16.41-18.32,16.41-30.67v-39.51c0-1.07-.87-1.94-1.94-1.94ZM128.8,110.94c0,11.05-5.49,21.31-14.69,27.44l-24.11,16.08-24.11-16.08c-9.2-6.13-14.69-16.39-14.69-27.44v-37.57h2.88c8.6,0,16.99-3.03,23.6-8.54l12.32-10.27,12.29,10.26c6.61,5.52,15,8.56,23.61,8.56h2.89v37.57Z"/>
</svg>