<?xml version="1.0" encoding="UTF-8"?>
<svg id="Layer_1" data-name="Layer 1" xmlns="http://www.w3.org/2000/svg" viewBox="0 0 180 180">
  <defs>
    <style>
      .cls-1 {
        stroke: #000;
        stroke-miterlimit: 10;
        stroke-width: 2px;
      }
    </style>
  </defs>
  <g>
    <path class="cls-1" d="M33.27,23.91c-1.13,0-2.04.91-2.04,2.04v19.41c0,1.13.91,2.04,2.04,2.04s2.04-.91,2.04-2.04v-19.41c0-1.13-.91-2.04-2.04-2.04Z"/>
    <path class="cls-1" d="M47.37,23.91c-1.13,0-2.04.91-2.04,2.04v19.41c0,1.13.91,2.04,2.04,2.04s2.04-.91,2.04-2.04v-19.41c0-1.13-.91-2.04-2.04-2.04Z"/>
    <path class="cls-1" d="M61.47,23.91c-1.13,0-2.04.91-2.04,2.04v19.41c0,1.13.91,2.04,2.04,2.04s2.04-.91,2.04-2.04v-19.41c0-1.13-.91-2.04-2.04-2.04Z"/>
    <path class="cls-1" d="M75.57,23.91c-1.13,0-2.04.91-2.04,2.04v19.41c0,1.13.91,2.04,2.04,2.04s2.04-.91,2.04-2.04v-19.41c0-1.13-.91-2.04-2.04-2.04Z"/>
    <path class="cls-1" d="M146.09,33.61h-17.45c-1.13,0-2.04.91-2.04,2.04s.91,2.04,2.04,2.04h17.45c1.13,0,2.04-.91,2.04-2.04s-.91-2.04-2.04-2.04Z"/>
    <path class="cls-1" d="M33.27,78.26c-1.13,0-2.04.91-2.04,2.04v19.41c0,1.13.91,2.04,2.04,2.04s2.04-.91,2.04-2.04v-19.41c0-1.13-.91-2.04-2.04-2.04Z"/>
    <path class="cls-1" d="M47.37,78.26c-1.13,0-2.04.91-2.04,2.04v19.41c0,1.13.91,2.04,2.04,2.04s2.04-.91,2.04-2.04v-19.41c0-1.13-.91-2.04-2.04-2.04Z"/>
    <path class="cls-1" d="M61.47,78.26c-1.13,0-2.04.91-2.04,2.04v19.41c0,1.13.91,2.04,2.04,2.04s2.04-.91,2.04-2.04v-19.41c0-1.13-.91-2.04-2.04-2.04Z"/>
    <path class="cls-1" d="M33.27,132.61c-1.13,0-2.04.91-2.04,2.04v19.41c0,1.13.91,2.04,2.04,2.04s2.04-.91,2.04-2.04v-19.41c0-1.13-.91-2.04-2.04-2.04Z"/>
    <path class="cls-1" d="M47.37,132.61c-1.13,0-2.04.91-2.04,2.04v19.41c0,1.13.91,2.04,2.04,2.04s2.04-.91,2.04-2.04v-19.41c0-1.13-.91-2.04-2.04-2.04Z"/>
    <path class="cls-1" d="M61.47,132.61c-1.13,0-2.04.91-2.04,2.04v19.41c0,1.13.91,2.04,2.04,2.04s2.04-.91,2.04-2.04v-19.41c0-1.13-.91-2.04-2.04-2.04Z"/>
    <path class="cls-1" d="M75.57,132.61c-1.13,0-2.04.91-2.04,2.04v19.41c0,1.13.91,2.04,2.04,2.04s2.04-.91,2.04-2.04v-19.41c0-1.13-.91-2.04-2.04-2.04Z"/>
    <path class="cls-1" d="M146.09,142.31h-17.45c-1.13,0-2.04.91-2.04,2.04s.91,2.04,2.04,2.04h17.45c1.13,0,2.04-.91,2.04-2.04s-.91-2.04-2.04-2.04Z"/>
  </g>
  <path class="cls-1" d="M150.97,57.12h-4.83c-7.71,0-15.21-2.72-21.13-7.66l-13.54-11.29c-.72-.6-1.77-.6-2.49,0l-13.56,11.31c-5.92,4.93-13.41,7.64-21.11,7.64h-4.82c-1.07,0-1.94.87-1.94,1.94v39.51c0,12.35,6.14,23.82,16.41,30.67l25.19,16.79c.33.22.7.33,1.08.33s.75-.11,1.08-.33l25.19-16.79c10.28-6.85,16.41-18.32,16.41-30.67v-39.51c0-1.07-.87-1.94-1.94-1.94ZM149.03,98.57c0,11.05-5.49,21.31-14.69,27.44l-24.11,16.08-24.11-16.08c-9.2-6.13-14.69-16.39-14.69-27.44v-37.57h2.88c8.6,0,16.99-3.03,23.6-8.54l12.32-10.27,12.29,10.26c6.61,5.52,15,8.56,23.61,8.56h2.89v37.57Z"/>
  <path class="cls-1" d="M179.13,43.73c.54-.38.87-1,.87-1.67v-12.81c0-.67-.32-1.29-.87-1.67l-10.72-7.5v-11.6c0-1.13-.91-2.04-2.04-2.04H13.62c-1.13,0-2.04.91-2.04,2.04v11.6L.87,27.57c-.54.38-.87,1-.87,1.67v12.81c0,.67.32,1.29.87,1.67l10.72,7.5v23.19l-10.72,7.5c-.54.38-.87,1-.87,1.67v12.81c0,.67.32,1.29.87,1.67l10.72,7.5v23.19l-10.72,7.5c-.54.38-.87,1-.87,1.67v12.81c0,.67.32,1.29.87,1.67l10.72,7.5v11.6c0,1.13.91,2.04,2.04,2.04h152.75c1.13,0,2.04-.91,2.04-2.04v-11.6l10.72-7.5c.54-.38.87-1,.87-1.67v-12.81c0-.67-.32-1.29-.87-1.67l-10.72-7.5v-23.19l10.72-7.5c.54-.38.87-1,.87-1.67v-12.81c0-.67-.32-1.29-.87-1.67l-10.72-7.5v-23.19l10.72-7.5ZM164.34,64.86v10.62c0,.67.32,1.29.87,1.67l10.72,7.5v10.69l-10.72,7.5c-.54.38-.87,1-.87,1.67v10.62h-17.77l-2.18,4.08h19.96v10.62c0,.67.32,1.29.87,1.67l10.72,7.5v10.69l-10.72,7.5c-.54.38-.87,1-.87,1.67v10.62H15.66v-10.62c0-.67-.32-1.29-.87-1.67l-10.72-7.5v-10.69l10.72-7.5c.54-.38.87-1,.87-1.67v-10.62h60.87l-2.67-4.08H15.66v-10.62c0-.67-.32-1.29-.87-1.67l-10.72-7.5v-10.69l10.72-7.5c.54-.38.87-1,.87-1.67v-10.62h54.29v-4.08H15.66v-10.62c0-.67-.32-1.29-.87-1.67l-10.72-7.5v-10.69l10.72-7.5c.54-.38.87-1,.87-1.67v-10.62h148.68v10.62c0,.67.32,1.29.87,1.67l10.72,7.5v10.69l-10.72,7.5c-.54.38-.87,1-.87,1.67v10.62h-13.26v4.08h13.26Z"/>
</svg>