<?xml version="1.0" encoding="UTF-8"?>
<svg id="Layer_1" data-name="Layer 1" xmlns="http://www.w3.org/2000/svg" viewBox="0 0 180 180">
  <defs>
    <style>
      .cls-1 {
        stroke: #000;
        stroke-miterlimit: 10;
        stroke-width: 2px;
      }
    </style>
  </defs>
  <path class="cls-1" d="M18.89,122.74c-.35,0-.74-.96-.97-1.27-8.1-10.68-23.4,1.2-15.91,11.56,4.4,6.09,13.74,4.91,16.92-1.76,6.59-.02,13.18.03,19.77,0,2.27,0,4.49.02,6.76,0,.76,0,1.41-.5,2,.41l-27.92,27.1c-.35.06-.19-.07-.25-.22-1.01-2.27-1.9-4.04-4.12-5.38-9.22-5.58-19.37,5.21-13.22,14.02,5.14,7.37,16.51,4.24,17.77-4.41l37.13-.05,8.3.04s.07.02.11.02h5.69s0,0,0,0h9.35c1.08,7.04,8.8,10.84,14.97,6.98,2.62-1.64,3.92-4.04,4.63-6.99h60.48c1.18,7.28,9.34,11.06,15.53,6.67,5.11-3.62,5.43-11.24.73-15.35-5.32-4.67-13.38-2.39-15.76,4.19-.12.34-.21,1.54-.65,1.44l-17.63-17.14,19.88-9.21c3.41,3.83,8.71,4.84,13.1,1.95,4.38-2.87,5.67-8.75,2.98-13.25-4.08-6.83-14.23-6.12-17.38,1.12l-14.23-6.45,18.52-17.95c.46-.19.88.27,1.35.41,11.13,3.29,17.87-10.28,9.34-17.06-2.71-2.15-6.12-2.41-9.34-1.46-.47.14-.89.61-1.35.41l-18.52-17.95,14.23-6.45c2.46,5.78,9.83,7.71,14.88,3.94,5.18-3.86,5.18-11.89,0-15.75-7.14-5.32-16.9.76-15.66,9.41l-15.44,7.05c-3.1-2.85-6.01-5.91-9.12-8.76-.5-.46-.55-.51-1.04-1.04-.48-.51-3.52-3.09-3.46-3.43l28.88-27.95c.44-.1.52,1.1.65,1.44,3.63,10.01,18.03,8,19.05-2.02,1.18-11.7-15.13-15.38-19.09-4.28-.2.56-.21,1.86-.77,1.97l-60.12-.08c-.31-.19-.41-1.4-.57-1.85-3.24-8.99-15.37-9-18.66,0-.16.44-.3,1.78-.67,1.9l-13.42-.14-8.87.18-37.87-.04c-.34-.12-.47-1.52-.63-1.95C16.28,7.03,4.76,6.24,1.03,14.26c-4.15,8.93,5.95,17.79,14.23,12.46,2.29-1.47,2.96-2.94,4.02-5.32.07-.15-.09-.28.25-.22l16.83,16.33-18.83,8.87c-1.42-1.19-2.7-2.33-4.52-2.91-5.75-1.84-12.24,1.95-12.86,8.07-1.03,10.2,11.53,15.18,17.75,6.97.24-.31.62-1.27.97-1.27l12.97,6.04-18.03,17.55c-2.83-.85-5.46-.95-8.2.32-7.22,3.35-7.32,14.02-.21,17.59,2.77,1.39,5.51,1.3,8.42.43,5.72,5.66,11.59,11.16,17.37,16.77.13.13.77.72.66.86l-12.96,5.96ZM9.92,134.52c-4.05,0-7.33-3.28-7.33-7.33s3.28-7.33,7.33-7.33,7.33,3.28,7.33,7.33-3.28,7.33-7.33,7.33ZM9.92,168.85c-4.05,0-7.34-3.28-7.34-7.34s3.28-7.34,7.34-7.34,7.34,3.28,7.34,7.34-3.28,7.34-7.34,7.34ZM170.14,154.18c4.05,0,7.34,3.28,7.34,7.34s-3.28,7.34-7.34,7.34-7.34-3.28-7.34-7.34,3.28-7.34,7.34-7.34ZM170.14,119.85c4.05,0,7.34,3.28,7.34,7.34s-3.28,7.34-7.34,7.34-7.34-3.28-7.34-7.34,3.28-7.34,7.34-7.34ZM170.14,45.46c4.05,0,7.34,3.28,7.34,7.34s-3.28,7.34-7.34,7.34-7.34-3.28-7.34-7.34,3.28-7.34,7.34-7.34ZM170.14,11.13c4.05,0,7.34,3.28,7.34,7.34s-3.28,7.34-7.34,7.34-7.34-3.28-7.34-7.34,3.28-7.34,7.34-7.34ZM9.92,25.8c-4.05,0-7.34-3.28-7.34-7.34s3.28-7.34,7.34-7.34,7.34,3.28,7.34,7.34-3.28,7.34-7.34,7.34ZM9.92,60.13c-4.05,0-7.34-3.28-7.34-7.34s3.28-7.34,7.34-7.34,7.34,3.28,7.34,7.34-3.28,7.34-7.34,7.34ZM46.77,127.46c-1.29-1.14-2.46-2.38-3.73-3.6-2.21-2.13-4.49-4.2-6.68-6.35l12.95-6.05c4.2,1.7,8.26,3.76,12.37,5.68.19.09.57.11.59.13.3.35-.34.57-.48.71-2.98,3.05-6.2,6.13-9.25,8.94-.98.9-1.59,2.08-3.06,2.09-1.52,0-1.75-.7-2.71-1.55ZM50.77,51.27c2.54,2.53,5.13,5.01,7.7,7.51,1.1,1.08,2.23,2.11,3.32,3.21.26.26.64.15.47.7l-12.79,5.81-.55-.07-12.38-5.73c-.32-.47,1.22-1.46,1.53-1.76,2.59-2.5,5.09-5.11,7.72-7.58.39-.37,2.34-2.2,2.58-2.24.45-.09,2.05-.06,2.42.15ZM41.03,38.48l32.03-14.88-23.6,22.84-8.43-7.96ZM88.47,62.5c3.63.61,7.1-.91,9.37-3.74.31-.39.77-1.52,1.21-1.52l12.96,6.03-18.2,17.55c-1.94-.5-3.63-.89-5.63-.5-1.01.2-1.8.67-2.78.87l-18.46-17.77,14.14-6.66c1.23,3.06,4.17,5.2,7.38,5.74ZM82.7,52.8c0-4.05,3.28-7.33,7.33-7.33s7.33,3.28,7.33,7.33-3.28,7.33-7.33,7.33-7.33-3.28-7.33-7.33ZM161.1,94.09l-31.48,14.49-.65-.12-9.74-4.56-20.38-9.55c1.38-2.82,1.32-5.87,0-8.7l30.48-14.24.56.07,31.22,14.42c-1.04,2.8-1.04,5.41,0,8.21ZM129.47,129.98l-12.83-12.51,12.98-5.95c4.32,1.79,8.48,4.04,12.81,5.74l-12.96,12.71ZM130.29,134.23c2,1.69,3.92,3.71,5.86,5.49.19.17,1.85,1.69,2.21,2.28l-5.09,2.39s0,0,0,0l-3.58,1.68c-7.39,3.45-15.19,6.92-22.57,10.18-.64.28-1.36.65-2.04.77l24.38-23.5c.22.3.55.47.82.7ZM81.09,123.21l-14.15-6.51,2.89-3.06,15.58-14.86c2.73,1.12,5.53,1.49,8.31.33,1.81,1.53,3.47,3.23,5.19,4.87,3.83,3.67,7.63,7.37,11.43,11.09l1.67,1.64-12.71,5.97c-.74.24-.98-.87-1.38-1.37-4.74-5.95-13.67-5.03-16.82,1.91ZM97.36,127.18c0,4.05-3.28,7.33-7.33,7.33s-7.33-3.28-7.33-7.33,3.28-7.33,7.33-7.33,7.33,3.28,7.33,7.33ZM83.26,83l-.94.81-29.86-13.78,11.84-5.55c2.68,2.27,5.15,4.89,7.7,7.33,3.76,3.61,7.56,7.19,11.29,10.84l-.02.34ZM90.03,82.67c4.05,0,7.33,3.28,7.33,7.33s-3.28,7.33-7.33,7.33-7.33-3.28-7.33-7.33,3.28-7.33,7.33-7.33ZM82.52,96.21l.83,1.02-.07.08-18.92,18.28-11.91-5.64,30.07-13.73ZM64.9,118.58l14.48,6.77.92.13c-.13,1.18-.13,2.2,0,3.38h-25.91l10.51-10.28ZM80.78,131.27l-20.35,9.51-9.19-8.86c-.27-.24.38-.65.49-.65h29.05ZM111.64,112.87l-15.57-15.16,1.5-1.19,23.38,10.86,3.68,1.73c.42.24.9.47,1.37.64l.33.16c.02.09.02.15.01.19l-3.49,1.62s0,0,0,0l-1.38.64h0l-1.34.62s0,0,0,0l-1.33.61h-.03s-.22.11-.22.11h0l-.83.38-1.9.88s0,0,0,0l-.77.36-.55.25-2.86-2.7ZM97.68,83.41h-.32s-1.29-1.15-1.29-1.15l18.34-17.71,11.92,5.25-28.65,13.62ZM114,61.39l-14.3-6.72c.24-1.28.25-2.28,0-3.56-.13-.7-.63-1.7-.71-2.2-.03-.19-.04-.32.14-.44l19.28-8.91.45.13c2.59,2.47,5.1,5.05,7.7,7.51.28.26,1.21.77,1,1.19l-13.55,13.01ZM80.3,54.5l-.81.07-14.59,6.82-10.51-10.28h25.91c-.13,1.18-.13,2.2,0,3.38ZM49.33,71.4l31.61,14.49-.64,2.89h-43.35s-.01,0-.02,0h-4.91s0,0,0,0h-12.13s-1.06-3.36-1.06-3.36l30.5-14.01ZM19.86,91.19h60.44l.64,2.89-31.61,14.49-30.5-14.02,1.03-3.36ZM49.23,133.6l8.66,8v.44s-32.8,14.98-32.8,14.98l24.14-23.42ZM70.72,160.24H24.45l35.48-16.42,16.99,16.42h-6.2ZM90.03,168.85c-4.05,0-7.33-3.28-7.33-7.33s3.28-7.33,7.33-7.33,7.33,3.28,7.33,7.33-3.28,7.33-7.33,7.33ZM99.69,158.79c-.32.06-.2-.05-.27-.2-1.05-2.09-1.47-3.4-3.45-4.92-6.12-4.7-13.44-1.03-15.5,5.85-.05.18.11.29-.24.23l-17.62-16.99,19.71-9.36c6.87,7.74,19.02,2,17.44-8.18l8.95-4.13,5.29-2.42.99.95h0s12.63,12.18,12.63,12.18l-27.92,26.98ZM157.07,160.24h-52.47l2.7-1.4c2.85-1.33,5.73-2.62,8.6-3.91h0s.03-.01.03-.01c1.24-.56,2.49-1.12,3.73-1.69l2.22-1.03c.59-.28,1.18-.55,1.77-.84.1-.05.2-.1.3-.15l6.06-2.8s.08-.02.11-.03l.72-.34s.03-.02.04-.03c0,0,0-.01.01-.02l1.19-.55s.05,0,.07-.01l.13-.06s.04-.03.05-.04l1.73-.8s.08-.03.13-.04l.38-.17s.07-.04.11-.07l1.57-.73s.03,0,.04,0c0,0,0,0,.01,0l.49-.23s.05-.03.08-.05l3.08-1.42s.07,0,.11,0l16.99,16.42ZM157.13,124.23c.65.27.55.13,1.28.55.59.34,1.21.64,1.88.78l.48,1.37h-.47c-.03.35-.04.7-.01,1.05.09,1.13.64,2.23.73,3.3l-16.78,7.95-3.55,1.67-9.37-9.08,13.61-13.23c4.1,1.69,8.1,3.98,12.19,5.65ZM163.28,97.47c-2.06,1.83-3.96,3.82-5.94,5.74-4.24,4.1-8.57,8.12-12.77,12.27l-11.1-4.91-.83-.39,29.55-13.97c.35-.11,1.17.76,1.17,1.02l-.08.24ZM170.14,82.66c4.05,0,7.34,3.28,7.34,7.34s-3.28,7.34-7.34,7.34-7.34-3.28-7.34-7.34,3.28-7.34,7.34-7.34ZM144.77,64.63c2.91,2.91,5.86,5.79,8.82,8.64,3.21,3.09,6.46,6.16,9.68,9.24l.08.24c0,.26-.82,1.13-1.17,1.02l-29.57-13.98,11.82-5.32.34.16ZM139.44,59.65c.78.76,2.22,1.77,2.82,2.65.09.14.22.16.16.4l-12.96,5.81-12.96-5.81.16-.4c3.75-3.55,7.45-7.32,11.21-10.76.54-.49,1.05-1.05,1.59-1.55.22.3.55.47.82.7,3.08,2.61,6.21,6.1,9.15,8.96ZM129.47,46.45l-8.29-7.97,31.87-14.88-23.58,22.85ZM155.14,19.73l-35.97,16.68-17.3-16.68h53.28ZM90.03,11.13c4.05,0,7.34,3.28,7.34,7.34s-3.28,7.34-7.34,7.34-7.34-3.28-7.34-7.34,3.28-7.34,7.34-7.34ZM80.46,20.22c1.79,9.32,13.88,11.07,18.41,2.55.23-.44.34-.97.55-1.39.08-.15-.04-.26.27-.2l16.82,16.57-18.91,8.65c-.92-.91-2.25-1.97-3.62-2.64h0c-1.43-.76-2.97-.9-4.09-.86-.06,0-.12,0-.18,0-.19,0-.38.03-.57.05-.54.06-.87.14-.87.14,0,0,0,0,0,0-2.05.43-4.13,1.55-5.48,3.03-.51.57-1.29,2.13-1.61,2.42-.1.09-.18.16-.32.16h-28.66s-.96-.32-.96-.32l29.22-28.17ZM21.71,19.73h40.31s0,0,0,0h5.01s7.96,0,7.96,0l-35.95,16.72-17.32-16.72ZM18.81,48.7l19.56-9.17,8.94,8.44.14.3c-.02.08-.36.43-.39.43h-28.25ZM19.78,54.9c-.37-.31,0-1.25,0-1.76,0-.39-.26-2.02.07-2.02h24.55l-10.54,10.25-14.09-6.46ZM34.38,64.5l11.8,5.29-28.65,13.62h-.32s-1.14-1-1.14-1l18.31-17.91ZM9.92,97.33c-4.05,0-7.33-3.28-7.33-7.33s3.28-7.33,7.33-7.33,7.33,3.28,7.33,7.33-3.28,7.33-7.33,7.33ZM16.07,97.56l1.14-.99h.32s28.65,13.61,28.65,13.61l-11.79,5.28-18.32-17.9ZM33.95,118.64c.35.44.81.74,1.22,1.11,3.11,2.75,5.85,5.99,9.02,8.68l.22.43h-24.79c.1-.69.17-1.32.17-2.02,0-.51-.38-1.45,0-1.76l14.17-6.43Z"/>
</svg>