<?xml version="1.0" encoding="UTF-8"?>
<svg id="Layer_1" data-name="Layer 1" xmlns="http://www.w3.org/2000/svg" viewBox="0 0 180 180">
  <defs>
    <style>
      .cls-1 {
        stroke-width: 4px;
      }

      .cls-1, .cls-2 {
        stroke: #000;
        stroke-miterlimit: 10;
      }

      .cls-2 {
        stroke-width: 2px;
      }
    </style>
  </defs>
  <g>
    <g>
      <path class="cls-2" d="M21.49,170.92h-11.61V14.95l2.26,4.22c.51.96,1.7,1.31,2.66.8.96-.51,1.32-1.7.8-2.66l-5.95-11.13c-.34-.64-1.01-1.04-1.73-1.04s-1.39.4-1.73,1.04L.23,17.32c-.51.96-.15,2.15.8,2.66.29.16.61.23.92.23.7,0,1.38-.38,1.73-1.04l2.26-4.22v157.93c0,1.08.88,1.96,1.96,1.96h13.58c1.08,0,1.96-.88,1.96-1.96s-.88-1.96-1.96-1.96Z"/>
      <path class="cls-2" d="M56.84,41.33h-24.14c-1.08,0-1.96.88-1.96,1.96v113.17c0,1.08.88,1.96,1.96,1.96s1.96-.88,1.96-1.96V45.25h20.21v10.54c0,1.08.88,1.96,1.96,1.96s1.96-.88,1.96-1.96v-12.5c0-1.08-.88-1.96-1.96-1.96Z"/>
      <rect class="cls-2" x="43.47" y="139.18" width="3.93" height="67.41" transform="translate(218.31 127.45) rotate(90)"/>
      <path class="cls-2" d="M178.04,170.92h-7.85V43.29c0-1.08-.88-1.96-1.96-1.96h-24.14c-1.08,0-1.96.88-1.96,1.96v127.63h-67.43c-1.08,0-1.96.88-1.96,1.96s.88,1.96,1.96,1.96h103.35c1.08,0,1.96-.88,1.96-1.96s-.88-1.96-1.96-1.96ZM166.26,170.92h-20.21V45.25h20.21v125.66Z"/>
      <rect class="cls-2" x="30.75" y="150.09" width="3.93" height="23.43"/>
      <rect class="cls-2" x="110.57" y="164.47" width="3.93" height="8.41"/>
      <rect class="cls-2" x="54.88" y="163.16" width="3.93" height="9.72"/>
      <rect class="cls-2" x="86.43" y="163.66" width="3.93" height="8.06"/>
    </g>
    <g>
      <path class="cls-1" d="M110.09,155.92h-52.91c-3.04,0-5.51-2.47-5.51-5.51v-44.1c0-3.04,2.47-5.51,5.51-5.51h52.91c3.04,0,5.51,2.47,5.51,5.51v44.1c0,3.04-2.47,5.51-5.51,5.51ZM57.17,103c-1.82,0-3.31,1.48-3.31,3.31v44.1c0,1.82,1.48,3.31,3.31,3.31h52.91c1.82,0,3.31-1.48,3.31-3.31v-44.1c0-1.82-1.48-3.31-3.31-3.31h-52.91Z"/>
      <path class="cls-1" d="M106.78,103h-46.3v-14.33c0-12.77,10.39-23.15,23.15-23.15s23.15,10.38,23.15,23.15v14.33ZM62.68,100.8h41.89v-12.13c0-11.55-9.4-20.95-20.95-20.95s-20.95,9.4-20.95,20.95v12.13Z"/>
      <rect class="cls-1" x="82.53" y="132.77" width="2.2" height="4.41"/>
      <rect class="cls-1" x="82.53" y="123.95" width="2.2" height="8.82"/>
    </g>
  </g>
  <path class="cls-2" d="M112.53,5.16h-24.14c-1.08,0-1.96.88-1.96,1.96v48.67c0,1.08.88,1.96,1.96,1.96s1.96-.88,1.96-1.96V9.08h20.21v63.37c0,1.08.88,1.96,1.96,1.96s1.96-.88,1.96-1.96V7.12c0-1.08-.88-1.96-1.96-1.96Z"/>
</svg>