<?xml version="1.0" encoding="UTF-8"?>
<svg id="Virtual_Meetings_Communication" data-name="Virtual Meetings &amp;amp;Communication" xmlns="http://www.w3.org/2000/svg" viewBox="0 0 180 180">
  <defs>
    <style>
      .cls-1 {
        stroke: #000;
        stroke-miterlimit: 10;
        stroke-width: 2px;
      }
    </style>
  </defs>
  <path class="cls-1" d="M69.33,156.55c0,2.15,1.75,3.9,3.91,3.9s3.91-1.75,3.91-3.9-1.75-3.9-3.91-3.9-3.91,1.75-3.91,3.9Z"/>
  <path class="cls-1" d="M48.15,156.55c0,2.15,1.75,3.9,3.91,3.9s3.91-1.75,3.91-3.9-1.75-3.9-3.91-3.9-3.91,1.75-3.91,3.9Z"/>
  <path class="cls-1" d="M26.97,156.55c0,2.15,1.75,3.9,3.91,3.9s3.91-1.75,3.91-3.9-1.75-3.9-3.91-3.9-3.91,1.75-3.91,3.9Z"/>
  <path class="cls-1" d="M1.77,133.35h89.17c.97,0,1.76-.79,1.76-1.76s-.79-1.76-1.76-1.76H3.53v-29.09c0-16.06,9.24-22.22,16.18-25.45,3.57-1.66,12.26-5.67,21.08-9.72,6.37,5.27,14.54,8.45,23.43,8.45s17.06-3.17,23.43-8.45c8.82,4.06,17.51,8.06,21.08,9.72,8.67,4.04,13.56,9.71,15.39,17.86.21.95,1.16,1.55,2.11,1.33.95-.21,1.55-1.16,1.33-2.11-2.06-9.17-7.73-15.8-17.34-20.28-3.47-1.62-11.79-5.45-19.76-9.12,6.52-6.64,10.54-15.72,10.54-25.73C101.01,16.96,84.5.46,64.22.46S27.43,16.96,27.43,37.23c0,10.01,4.03,19.09,10.54,25.73-8.36,3.85-16.37,7.54-19.76,9.12C5.96,77.79,0,87.16,0,100.73v30.85c0,.97.79,1.76,1.76,1.76ZM64.22,3.99c18.34,0,33.26,14.91,33.26,33.24s-14.92,33.24-33.26,33.24-33.26-14.91-33.26-33.24S45.88,3.99,64.22,3.99Z"/>
  <path class="cls-1" d="M140.63,101.77c-21.71,0-39.37,17.65-39.37,39.35s17.66,39.35,39.37,39.35,39.37-17.65,39.37-39.35-17.66-39.35-39.37-39.35ZM140.63,176.94c-19.76,0-35.84-16.07-35.84-35.82s16.08-35.82,35.84-35.82,35.84,16.07,35.84,35.82-16.08,35.82-35.84,35.82Z"/>
  <path class="cls-1" d="M156.07,139.35h-13.67v-13.67c0-.97-.79-1.76-1.76-1.76s-1.76.79-1.76,1.76v13.67h-13.68c-.97,0-1.76.79-1.76,1.76s.79,1.76,1.76,1.76h13.68v13.67c0,.97.79,1.76,1.76,1.76s1.76-.79,1.76-1.76v-13.67h13.67c.97,0,1.76-.79,1.76-1.76s-.79-1.76-1.76-1.76Z"/>
  <path class="cls-1" d="M173.82,96.58c.97,0,1.76-.79,1.76-1.76V2.23c0-.97-.79-1.76-1.76-1.76s-1.76.79-1.76,1.76v92.59c0,.97.79,1.76,1.76,1.76Z"/>
  <path class="cls-1" d="M157.11,78.7c.97,0,1.76-.79,1.76-1.76V2.23c0-.97-.79-1.76-1.76-1.76s-1.76.79-1.76,1.76v74.71c0,.97.79,1.76,1.76,1.76Z"/>
  <path class="cls-1" d="M102.35,176.94H1.77C.79,176.94,0,177.73,0,178.7s.79,1.76,1.76,1.76h100.58c.97,0,1.76-.79,1.76-1.76s-.79-1.76-1.76-1.76Z"/>
</svg>