<?xml version="1.0" encoding="UTF-8"?>
<svg id="Virtual_Meetings_Communication" data-name="Virtual Meetings &amp;amp;Communication" xmlns="http://www.w3.org/2000/svg" viewBox="0 0 180 180">
  <defs>
    <style>
      .cls-1 {
        stroke: #000;
        stroke-miterlimit: 10;
        stroke-width: 2px;
      }
    </style>
  </defs>
  <path class="cls-1" d="M131.92,61.53V20.47c0-5.26-4.39-9.53-9.78-9.53H57.86c-5.39,0-9.78,4.28-9.78,9.53v41.06c0,5.26,4.39,9.53,9.78,9.53h21.71v6.05l-12.7,4.5c-.62.22-1.03.79-1.03,1.43v8.63c0,.84.7,1.52,1.56,1.52h45.19c.86,0,1.56-.68,1.56-1.52v-8.63c0-.64-.41-1.21-1.03-1.43l-12.7-4.5v-6.05h21.71c5.39,0,9.78-4.28,9.78-9.53ZM128.8,61.53c0,3.58-2.99,6.49-6.66,6.49h-23.27c-.86,0-1.56.68-1.56,1.52v8.64c0,.64.41,1.21,1.03,1.43l12.7,4.51v6.04h-42.07v-6.04l12.7-4.51c.62-.22,1.03-.79,1.03-1.43v-8.64c0-.84-.7-1.52-1.56-1.52h-23.27c-3.67,0-6.66-2.91-6.66-6.49V20.47c0-3.58,2.99-6.49,6.66-6.49h64.28c3.67,0,6.66,2.91,6.66,6.49v41.06Z"/>
  <path class="cls-1" d="M108.24,145.15c-1.17-.53-3.76-1.7-6.6-2.97,2.2-2.57,3.52-5.86,3.52-9.46,0-8.15-6.8-14.78-15.16-14.78s-15.16,6.63-15.16,14.78c0,3.6,1.33,6.89,3.52,9.46-2.84,1.27-5.43,2.44-6.6,2.97-5.1,2.32-7.58,6.12-7.58,11.63v11.69c0,.84.7,1.52,1.56,1.52h48.52c.86,0,1.56-.68,1.56-1.52v-11.69c0-5.51-2.48-9.31-7.58-11.63ZM90,120.98c6.64,0,12.04,5.27,12.04,11.74s-5.4,11.74-12.04,11.74-12.04-5.27-12.04-11.74,5.4-11.74,12.04-11.74ZM112.7,166.95h-45.39v-10.17c0-5.53,3.09-7.65,5.78-8.87,1.32-.6,4.45-2.01,7.71-3.47,2.56,1.91,5.74,3.07,9.21,3.07s6.65-1.15,9.21-3.07c3.26,1.46,6.39,2.87,7.71,3.47,2.69,1.22,5.78,3.34,5.78,8.87v10.17Z"/>
  <path class="cls-1" d="M44.06,145.15c-1.17-.53-3.76-1.7-6.6-2.97,2.2-2.57,3.52-5.86,3.52-9.46,0-8.15-6.8-14.78-15.16-14.78s-15.16,6.63-15.16,14.78c0,3.6,1.33,6.89,3.52,9.46-2.84,1.27-5.43,2.44-6.6,2.97C2.48,147.47,0,151.27,0,156.78v11.69c0,.84.7,1.52,1.56,1.52h48.52c.86,0,1.56-.68,1.56-1.52v-11.69c0-5.51-2.48-9.31-7.58-11.63ZM25.82,120.98c6.64,0,12.04,5.27,12.04,11.74s-5.4,11.74-12.04,11.74-12.04-5.27-12.04-11.74,5.4-11.74,12.04-11.74ZM48.52,166.95H3.12v-10.17c0-5.53,3.09-7.65,5.78-8.87,1.32-.6,4.45-2.01,7.71-3.47,2.56,1.91,5.74,3.07,9.21,3.07s6.65-1.15,9.21-3.07c3.26,1.46,6.39,2.87,7.71,3.47h0c2.69,1.22,5.78,3.34,5.78,8.87v10.17Z"/>
  <path class="cls-1" d="M172.42,145.15c-1.17-.53-3.76-1.7-6.6-2.97,2.2-2.57,3.52-5.86,3.52-9.46,0-8.15-6.8-14.78-15.16-14.78s-15.16,6.63-15.16,14.78c0,3.6,1.33,6.89,3.52,9.46-2.84,1.27-5.43,2.44-6.6,2.97-5.1,2.32-7.58,6.12-7.58,11.63v11.69c0,.84.7,1.52,1.56,1.52h48.52c.86,0,1.56-.68,1.56-1.52v-11.69c0-5.51-2.48-9.31-7.58-11.63ZM154.18,120.98c6.64,0,12.04,5.27,12.04,11.74s-5.4,11.74-12.04,11.74-12.04-5.27-12.04-11.74,5.4-11.74,12.04-11.74ZM176.88,166.95h-45.39v-10.17c0-5.53,3.09-7.65,5.78-8.87,1.32-.6,4.45-2.01,7.71-3.47,2.56,1.91,5.74,3.07,9.21,3.07s6.65-1.15,9.21-3.07c3.26,1.46,6.39,2.87,7.71,3.47h0c2.69,1.22,5.78,3.34,5.78,8.87v10.17Z"/>
  <path class="cls-1" d="M91.56,109.52v-8.36c0-.84-.7-1.52-1.56-1.52s-1.56.68-1.56,1.52v8.36c0,.84.7,1.52,1.56,1.52s1.56-.68,1.56-1.52Z"/>
  <path class="cls-1" d="M25.82,111.04c.86,0,1.56-.68,1.56-1.52V44.23h12.04c.86,0,1.56-.68,1.56-1.52s-.7-1.52-1.56-1.52h-13.6c-.86,0-1.56.68-1.56,1.52v66.82c0,.84.7,1.52,1.56,1.52Z"/>
  <path class="cls-1" d="M140.58,44.23h12.04v65.29c0,.84.7,1.52,1.56,1.52s1.56-.68,1.56-1.52V42.7c0-.84-.7-1.52-1.56-1.52h-13.6c-.86,0-1.56.68-1.56,1.52s.7,1.52,1.56,1.52Z"/>
</svg>