<?xml version="1.0" encoding="UTF-8"?>
<svg id="Virtual_Meetings_Communication" data-name="Virtual Meetings &amp;amp;Communication" xmlns="http://www.w3.org/2000/svg" viewBox="0 0 180 180">
  <defs>
    <style>
      .cls-1 {
        stroke: #000;
        stroke-miterlimit: 10;
        stroke-width: 2px;
      }
    </style>
  </defs>
  <path class="cls-1" d="M134.28,47.74c-1.28-.6-4.11-1.9-7.22-3.33,2.41-2.9,3.86-6.62,3.86-10.68,0-9.24-7.52-16.76-16.77-16.76s-16.76,7.52-16.76,16.76c0,4.05,1.45,7.78,3.86,10.68-3.11,1.43-5.94,2.74-7.22,3.33-5.64,2.63-8.39,6.94-8.39,13.19v13.22c0,.97.79,1.76,1.76,1.76h53.5c.97,0,1.76-.79,1.76-1.76v-13.22c0-6.24-2.74-10.56-8.39-13.19ZM114.15,20.49c7.3,0,13.24,5.93,13.24,13.23s-5.94,13.23-13.24,13.23-13.24-5.93-13.24-13.23,5.94-13.23,13.24-13.23ZM139.14,72.37h-49.97v-11.45c0-6.23,3.39-8.61,6.35-9.99,1.45-.68,4.89-2.26,8.48-3.91,2.82,2.16,6.34,3.46,10.16,3.46s7.34-1.3,10.16-3.46c3.58,1.65,7.02,3.24,8.48,3.91h0c2.96,1.38,6.35,3.76,6.35,9.99v11.45Z"/>
  <path class="cls-1" d="M178.24,157.39H1.77c-.97,0-1.76.79-1.76,1.76v9.88c0,6.28,5.11,11.38,11.39,11.38h157.22c6.28,0,11.39-5.11,11.39-11.38v-9.88c0-.97-.79-1.76-1.76-1.76ZM176.47,169.03c0,4.33-3.53,7.86-7.86,7.86H11.39c-4.33,0-7.86-3.52-7.86-7.86v-8.11h172.94v8.11Z"/>
  <path class="cls-1" d="M26.8,69.23c-.97,0-1.76.79-1.76,1.76v67.73c0,.97.79,1.76,1.76,1.76h93.34c.97,0,1.76-.79,1.76-1.76s-.79-1.76-1.76-1.76H28.57v-65.97c0-.97-.79-1.76-1.76-1.76Z"/>
  <path class="cls-1" d="M13.8,147.92c.97,0,1.76-.79,1.76-1.76V41c0-4.33,3.53-7.86,7.86-7.86h13.64c.97,0,1.76-.79,1.76-1.76s-.79-1.76-1.76-1.76h-13.64c-6.28,0-11.39,5.11-11.39,11.38v105.15c0,.97.79,1.76,1.76,1.76Z"/>
  <path class="cls-1" d="M167.97,146.16v-41.81c0-.97-.79-1.76-1.76-1.76s-1.76.79-1.76,1.76v41.81c0,.97.79,1.76,1.76,1.76s1.76-.79,1.76-1.76Z"/>
  <path class="cls-1" d="M165.49.51H62.81c-8,0-14.51,6.51-14.51,14.5v63.61c0,8,6.51,14.5,14.51,14.5h5.83l7.26,15.57c.29.62.91,1.02,1.6,1.02s1.31-.4,1.6-1.02l7.26-15.57h79.14c8,0,14.51-6.51,14.51-14.5V15.01c0-8-6.51-14.5-14.51-14.5ZM176.47,78.62c0,6.05-4.93,10.97-10.98,10.97h-80.26c-.69,0-1.31.4-1.6,1.02l-6.13,13.16-6.13-13.16c-.29-.62-.91-1.02-1.6-1.02h-6.95c-6.05,0-10.98-4.92-10.98-10.97V15.01c0-6.05,4.93-10.97,10.98-10.97h102.68c6.05,0,10.98,4.92,10.98,10.97v63.61Z"/>
</svg>