<?xml version="1.0" encoding="UTF-8"?>
<svg id="Virtual_Meetings_Communication" data-name="Virtual Meetings &amp;amp;Communication" xmlns="http://www.w3.org/2000/svg" viewBox="0 0 180 180">
  <defs>
    <style>
      .cls-1 {
        stroke: #000;
        stroke-miterlimit: 10;
        stroke-width: 2px;
      }
    </style>
  </defs>
  <path class="cls-1" d="M145.94,92.14H34.06C15.28,92.14,0,77.25,0,58.94S15.28,25.74,34.06,25.74c4.92,0,9.81,1.05,14.26,3.05,7.47-15.89,23.64-26.06,41.69-26.06s34.21,10.17,41.69,26.06c4.45-2,9.34-3.05,14.26-3.05,18.78,0,34.06,14.89,34.06,33.2s-15.28,33.2-34.06,33.2ZM34.06,29.1c-16.88,0-30.61,13.39-30.61,29.84s13.73,29.84,30.61,29.84h111.88c16.88,0,30.61-13.39,30.61-29.84s-13.73-29.84-30.61-29.84c-4.98,0-9.93,1.2-14.31,3.46-.43.22-.93.26-1.39.1-.46-.16-.82-.5-1.01-.94-6.57-15.57-21.97-25.63-39.23-25.63s-32.66,10.06-39.23,25.63c-.19.44-.55.78-1.01.94-.46.16-.96.13-1.39-.1-4.38-2.26-9.33-3.46-14.31-3.46Z"/>
  <g>
    <g>
      <path class="cls-1" d="M113.94,117.74c-2.1,0-3.81-1.67-3.81-3.72s1.71-3.72,3.81-3.72,3.81,1.67,3.81,3.72-1.71,3.72-3.81,3.72Z"/>
      <path class="cls-1" d="M113.94,137.89c-2.1,0-3.81-1.67-3.81-3.72s1.71-3.72,3.81-3.72,3.81,1.67,3.81,3.72-1.71,3.72-3.81,3.72Z"/>
      <path class="cls-1" d="M113.94,158.05c-2.1,0-3.81-1.67-3.81-3.72s1.71-3.72,3.81-3.72,3.81,1.67,3.81,3.72-1.71,3.72-3.81,3.72Z"/>
      <path class="cls-1" d="M113.94,178.2c-2.1,0-3.81-1.67-3.81-3.72s1.71-3.72,3.81-3.72,3.81,1.67,3.81,3.72-1.71,3.72-3.81,3.72Z"/>
    </g>
    <g>
      <path class="cls-1" d="M90,117.74c-2.1,0-3.81-1.67-3.81-3.72s1.71-3.72,3.81-3.72,3.81,1.67,3.81,3.72-1.71,3.72-3.81,3.72Z"/>
      <path class="cls-1" d="M90,137.89c-2.1,0-3.81-1.67-3.81-3.72s1.71-3.72,3.81-3.72,3.81,1.67,3.81,3.72-1.71,3.72-3.81,3.72Z"/>
      <path class="cls-1" d="M90,158.05c-2.1,0-3.81-1.67-3.81-3.72s1.71-3.72,3.81-3.72,3.81,1.67,3.81,3.72-1.71,3.72-3.81,3.72Z"/>
      <path class="cls-1" d="M90,178.2c-2.1,0-3.81-1.67-3.81-3.72s1.71-3.72,3.81-3.72,3.81,1.67,3.81,3.72-1.71,3.72-3.81,3.72Z"/>
    </g>
    <path class="cls-1" d="M66.06,117.74c-2.1,0-3.81-1.67-3.81-3.72s1.71-3.72,3.81-3.72,3.81,1.67,3.81,3.72-1.71,3.72-3.81,3.72Z"/>
    <path class="cls-1" d="M66.06,137.89c-2.1,0-3.81-1.67-3.81-3.72s1.71-3.72,3.81-3.72,3.81,1.67,3.81,3.72-1.71,3.72-3.81,3.72Z"/>
    <path class="cls-1" d="M66.06,158.05c-2.1,0-3.81-1.67-3.81-3.72s1.71-3.72,3.81-3.72,3.81,1.67,3.81,3.72-1.71,3.72-3.81,3.72Z"/>
    <path class="cls-1" d="M66.06,178.2c-2.1,0-3.81-1.67-3.81-3.72s1.71-3.72,3.81-3.72,3.81,1.67,3.81,3.72-1.71,3.72-3.81,3.72Z"/>
    <path class="cls-1" d="M45.39,178.2c-2.1,0-3.81-1.67-3.81-3.72s1.71-3.72,3.81-3.72,3.81,1.67,3.81,3.72-1.71,3.72-3.81,3.72Z"/>
    <path class="cls-1" d="M24.72,178.2c-2.1,0-3.81-1.67-3.81-3.72s1.71-3.72,3.81-3.72,3.81,1.67,3.81,3.72-1.71,3.72-3.81,3.72Z"/>
    <path class="cls-1" d="M155.29,178.2c-2.1,0-3.81-1.67-3.81-3.72s1.71-3.72,3.81-3.72,3.81,1.67,3.81,3.72-1.71,3.72-3.81,3.72Z"/>
    <path class="cls-1" d="M134.61,178.2c-2.1,0-3.81-1.67-3.81-3.72s1.71-3.72,3.81-3.72,3.81,1.67,3.81,3.72-1.71,3.72-3.81,3.72Z"/>
  </g>
</svg>