<?xml version="1.0" encoding="UTF-8"?>
<svg id="Virtual_Meetings_Communication" data-name="Virtual Meetings &amp;amp;Communication" xmlns="http://www.w3.org/2000/svg" viewBox="0 0 180 180">
  <defs>
    <style>
      .cls-1 {
        stroke: #000;
        stroke-miterlimit: 10;
        stroke-width: 2px;
      }
    </style>
  </defs>
  <g>
    <path class="cls-1" d="M50.32,116.47c-1.68,0-3.04-1.3-3.04-2.89s1.36-2.89,3.04-2.89,3.04,1.3,3.04,2.89-1.36,2.89-3.04,2.89Z"/>
    <path class="cls-1" d="M70.16,116.47c-1.68,0-3.04-1.3-3.04-2.89s1.36-2.89,3.04-2.89,3.04,1.3,3.04,2.89-1.36,2.89-3.04,2.89Z"/>
    <path class="cls-1" d="M90,116.47c-1.68,0-3.04-1.3-3.04-2.89s1.36-2.89,3.04-2.89,3.04,1.3,3.04,2.89-1.36,2.89-3.04,2.89Z"/>
    <path class="cls-1" d="M109.84,116.47c-1.68,0-3.04-1.3-3.04-2.89s1.36-2.89,3.04-2.89,3.04,1.3,3.04,2.89-1.36,2.89-3.04,2.89Z"/>
    <path class="cls-1" d="M129.68,116.47c-1.68,0-3.04-1.3-3.04-2.89s1.36-2.89,3.04-2.89,3.04,1.3,3.04,2.89-1.36,2.89-3.04,2.89Z"/>
  </g>
  <path class="cls-1" d="M34.15,72.78c-.22,0-.45-.05-.66-.16-.7-.35-.97-1.17-.6-1.84,11.19-20.26,33.07-32.85,57.11-32.85s45.93,12.59,57.11,32.85c.37.67.1,1.49-.6,1.84-.7.35-1.57.09-1.93-.57-10.69-19.36-31.61-31.39-54.58-31.39s-43.89,12.03-54.58,31.39c-.26.46-.75.73-1.27.73Z"/>
  <path class="cls-1" d="M129.3,75.41c-.45,0-.89-.2-1.17-.58-8.75-11.77-23-18.8-38.13-18.8s-29.39,7.03-38.13,18.8c-.46.61-1.35.76-2,.33-.65-.43-.8-1.28-.34-1.9,9.28-12.49,24.41-19.95,40.47-19.95s31.19,7.46,40.47,19.95c.46.61.3,1.46-.34,1.9-.25.17-.54.25-.82.25Z"/>
  <path class="cls-1" d="M18.69,68.01c-.2,0-.4-.04-.59-.12-.72-.31-1.04-1.12-.71-1.8,12.89-27.06,41.39-44.54,72.61-44.54s59.72,17.48,72.61,44.54c.33.68,0,1.49-.71,1.8-.72.31-1.57,0-1.89-.68-12.43-26.08-39.91-42.94-70-42.94s-57.57,16.85-70,42.94c-.24.5-.76.8-1.3.8Z"/>
  <g>
    <path class="cls-1" d="M54.93,159.37H16.52c-.79,0-1.43-.61-1.43-1.36v-7.15c0-.57.38-1.08.94-1.28l10.72-3.71v-4.85H8.41C3.78,141.03,0,137.44,0,133.02v-37.44C0,91.17,3.78,87.58,8.41,87.58h54.62c4.64,0,8.41,3.59,8.41,8v5.36c0,.75-.64,1.36-1.43,1.36s-1.43-.61-1.43-1.36v-5.36c0-2.91-2.49-5.28-5.55-5.28H8.41c-3.06,0-5.55,2.37-5.55,5.28v37.44c0,2.91,2.49,5.28,5.55,5.28h19.77c.79,0,1.43.61,1.43,1.36v7.16c0,.57-.38,1.08-.94,1.28l-10.72,3.71v4.84h35.54v-4.84l-10.72-3.71c-.57-.2-.94-.71-.94-1.28v-7.16c0-.75.64-1.36,1.43-1.36h19.77c3.06,0,5.55-2.37,5.55-5.28v-5.36c0-.75.64-1.36,1.43-1.36s1.43.61,1.43,1.36v5.36c0,4.41-3.78,8-8.41,8h-18.34v4.85l10.72,3.71c.57.2.94.71.94,1.28v7.15c0,.75-.64,1.36-1.43,1.36Z"/>
    <path class="cls-1" d="M163.48,159.37h-38.4c-.79,0-1.43-.61-1.43-1.36v-7.15c0-.57.38-1.08.94-1.28l10.72-3.71v-4.85h-18.34c-4.64,0-8.41-3.59-8.41-8v-5.36c0-.75.64-1.36,1.43-1.36s1.43.61,1.43,1.36v5.36c0,2.91,2.49,5.28,5.55,5.28h19.77c.79,0,1.43.61,1.43,1.36v7.16c0,.57-.38,1.08-.94,1.28l-10.72,3.71v4.84h35.54v-4.84l-10.72-3.71c-.57-.2-.94-.71-.94-1.28v-7.16c0-.75.64-1.36,1.43-1.36h19.77c3.06,0,5.55-2.37,5.55-5.28v-37.44c0-2.91-2.49-5.28-5.55-5.28h-54.62c-3.06,0-5.55,2.37-5.55,5.28v5.36c0,.75-.64,1.36-1.43,1.36s-1.43-.61-1.43-1.36v-5.36c0-4.41,3.77-8,8.41-8h54.62c4.64,0,8.41,3.59,8.41,8v37.44c0,4.41-3.77,8-8.41,8h-18.34v4.85l10.72,3.71c.57.2.94.71.94,1.28v7.15c0,.75-.64,1.36-1.43,1.36Z"/>
  </g>
</svg>