<?xml version="1.0" encoding="UTF-8"?>
<svg id="Virtual_Meetings_Communication" data-name="Virtual Meetings &amp;amp;Communication" xmlns="http://www.w3.org/2000/svg" viewBox="0 0 180 180">
  <defs>
    <style>
      .cls-1 {
        stroke: #000;
        stroke-miterlimit: 10;
        stroke-width: 2px;
      }
    </style>
  </defs>
  <path class="cls-1" d="M102.83,14.42c-.29-5.31-4.91-9.54-10.56-9.54H10.59C4.75,4.87,0,9.39,0,14.94v77.68C0,98,4.45,102.39,10.03,102.66c4.05,41.11,40.53,73.39,84.79,73.39,46.96,0,85.17-36.34,85.17-81,0-42.1-33.94-76.79-77.17-80.64ZM176.45,93.37h-34.53c-.15-12.86-2.01-25.23-5.42-36.3h29.51c6.38,10.78,10.14,23.14,10.44,36.3ZM102.86,18.76c12.12,4.04,22.49,17.02,28.85,34.96h-28.85V18.76ZM102.86,92.62v-35.55h29.97c3.41,10.78,5.41,23.14,5.57,36.3h-35.58c.02-.25.04-.5.04-.75ZM163.91,53.72h-28.5c-1.92-5.59-4.25-10.81-6.96-15.55-4.95-8.65-10.84-15.14-17.3-19.19,22.15,4.29,41.07,17.14,52.76,34.74ZM101.93,96.73h36.47c-.16,13.07-2.14,25.36-5.5,36.09h-36.3v-31.01c2.37-1.01,4.27-2.82,5.33-5.07ZM3.53,92.62V14.94c0-3.7,3.17-6.71,7.06-6.71h81.68c3.89,0,7.06,3.01,7.06,6.71v77.68c0,3.7-3.17,6.71-7.06,6.71H10.59c-3.89,0-7.06-3.01-7.06-6.71ZM13.59,102.69h34.36c.57,10.63,2.3,20.84,5.14,30.13h-29.57c-5.34-9.08-8.8-19.28-9.92-30.13ZM25.61,136.17h28.57c1.94,5.67,4.29,10.97,7.04,15.77,4.95,8.65,10.84,15.14,17.3,19.19-22.24-4.31-41.22-17.25-52.9-34.96ZM93.06,172.63c-14.83-1.06-27.77-15.37-35.19-36.45h35.19v36.45ZM56.76,132.82c-2.85-9.08-4.68-19.28-5.28-30.13h40.79c.27,0,.53-.02.79-.04v30.17h-36.3ZM96.59,136.17h35.19c-7.42,21.08-20.36,35.39-35.19,36.45v-36.45ZM111.15,171.13c6.46-4.05,12.35-10.54,17.3-19.19,2.74-4.8,5.1-10.1,7.04-15.77h28.57c-11.68,17.71-30.66,30.65-52.9,34.96ZM166.14,132.82h-29.57c3.36-11.02,5.2-23.31,5.35-36.09h34.53c-.29,13.07-4,25.36-10.31,36.09Z"/>
  <path class="cls-1" d="M23.97,82.51h54.91c.97,0,1.76-.75,1.76-1.68v-12.9c0-6.08-2.81-10.28-8.58-12.84-1.32-.59-4.25-1.87-7.47-3.28,2.49-2.83,3.99-6.47,3.99-10.44,0-9-7.7-16.32-17.16-16.32s-17.16,7.32-17.16,16.32c0,3.97,1.5,7.61,3.99,10.44-3.21,1.41-6.14,2.69-7.47,3.28-5.77,2.56-8.58,6.76-8.58,12.84v12.9c0,.93.79,1.68,1.76,1.68ZM51.43,28.41c7.52,0,13.63,5.81,13.63,12.96s-6.11,12.96-13.63,12.96-13.63-5.81-13.63-12.96,6.11-12.96,13.63-12.96ZM25.74,67.93c0-6.11,3.5-8.44,6.54-9.79,1.49-.66,5.04-2.22,8.72-3.83,2.89,2.11,6.5,3.38,10.42,3.38s7.53-1.27,10.42-3.38c3.69,1.61,7.23,3.17,8.72,3.83,3.05,1.35,6.54,3.68,6.54,9.79v11.23H25.74v-11.23Z"/>
</svg>