<?xml version="1.0" encoding="UTF-8"?>
<svg id="Virtual_Meetings_Communication" data-name="Virtual Meetings &amp;amp;Communication" xmlns="http://www.w3.org/2000/svg" viewBox="0 0 180 180">
  <defs>
    <style>
      .cls-1 {
        stroke: #000;
        stroke-miterlimit: 10;
        stroke-width: 2px;
      }
    </style>
  </defs>
  <path class="cls-1" d="M32.16,88.9h10.26c2.89,22.55,23.13,40.09,47.61,40.09,5.07,0,10.09-.76,14.92-2.26.93-.29,1.43-1.24,1.13-2.12-.3-.88-1.3-1.36-2.23-1.07-4.47,1.39-9.12,2.09-13.82,2.09-24.51,0-44.45-18.96-44.45-42.27v-39.67c3.82,4.83,11.79,9.96,28.38,9.96.97,0,1.76-.75,1.76-1.68v-5.03c4.11,3.98,10.37,8.17,24.01,8.17.97,0,1.76-.75,1.76-1.68v-6.85c4.35,3.58,12.31,8.52,23.18,8.52.97,0,1.76-.75,1.76-1.68s-.79-1.68-1.76-1.68c-12.96,0-21.36-7.86-23.63-10.27-.49-.52-1.26-.7-1.94-.45-.68.25-1.13.87-1.13,1.57v9.12c-13.54-.38-18-5.19-21.96-9.46l-.73-.78c-.49-.52-1.26-.7-1.95-.45-.68.25-1.14.87-1.14,1.57v7.67c-25.67-.6-26.59-14.22-26.62-14.97v-1.3c0-8.79,7.52-15.94,16.76-15.94h55.36c9.24,0,16.76,7.15,16.76,15.94v53.22c0,.93.79,1.68,1.76,1.68h7.47c-.48,9.76-8.97,17.56-19.35,17.56h-16.37c-.68-1.48-2.23-2.52-4.04-2.52-2.43,0-4.41,1.88-4.41,4.2s1.98,4.2,4.41,4.2c1.8,0,3.36-1.04,4.04-2.52h16.37c12.32,0,22.4-9.3,22.88-20.91h.65c4.05,0,7.34-3.13,7.34-6.98v-18.9c0-3.03-2.04-5.6-4.88-6.57v-22.46c0-17.12-14.65-31.05-32.65-31.05h-55.36c-18,0-32.65,13.93-32.65,31.05v22.46c-2.84.97-4.87,3.54-4.87,6.57v18.9c0,3.85,3.29,6.98,7.34,6.98ZM151.7,63.02v18.9c0,2-1.71,3.62-3.81,3.62h-9.89v-26.15h9.89c2.1,0,3.81,1.62,3.81,3.62ZM62.35,6.31h55.36c16.06,0,29.12,12.42,29.12,27.69v22.04h-8.82v-22.04c0-10.64-9.1-19.3-20.29-19.3h-55.36c-11.19,0-20.29,8.66-20.29,19.3v22.04h-8.82v-22.04c0-15.27,13.06-27.69,29.12-27.69ZM28.35,63.02c0-2,1.71-3.62,3.81-3.62h9.89v26.15h-9.89c-2.1,0-3.81-1.62-3.81-3.62v-18.9Z"/>
  <path class="cls-1" d="M70.61,62.94c-2.07,0-3.75,1.6-3.75,3.57s1.68,3.57,3.75,3.57,3.75-1.6,3.75-3.57-1.68-3.57-3.75-3.57Z"/>
  <path class="cls-1" d="M113.19,66.51c0-1.97-1.68-3.57-3.75-3.57s-3.75,1.6-3.75,3.57,1.68,3.57,3.75,3.57,3.75-1.6,3.75-3.57Z"/>
  <path class="cls-1" d="M148.83,137.25c-3.2-.85-6.22-1.65-8.71-2.69-.89-.37-1.93.01-2.33.86-.39.85.01,1.84.91,2.21,2.72,1.14,5.86,1.97,9.18,2.85,13.48,3.58,28.72,7.62,28.59,34.13h-70.5l5.59-22.8c.22-.9-.37-1.81-1.32-2.02-.95-.21-1.9.35-2.12,1.25l-5.77,23.56h-24.63l-5.77-23.56c-.22-.9-1.17-1.46-2.12-1.25-.95.21-1.54,1.11-1.32,2.02l5.59,22.8H3.53c-.12-26.43,15.05-30.48,28.48-34.07,3.37-.9,6.55-1.75,9.31-2.92.89-.38,1.29-1.37.89-2.22-.4-.85-1.45-1.23-2.33-.85-2.52,1.07-5.58,1.89-8.82,2.76C17.6,140.91-.81,145.84.03,176.34c.02.91.81,1.63,1.76,1.63h176.42c.96,0,1.74-.73,1.76-1.63.84-30.6-17.65-35.51-31.14-39.09Z"/>
</svg>