<?xml version="1.0" encoding="UTF-8"?>
<svg id="Virtual_Meetings_Communication" data-name="Virtual Meetings &amp;amp;Communication" xmlns="http://www.w3.org/2000/svg" viewBox="0 0 180 180">
  <defs>
    <style>
      .cls-1 {
        stroke: #000;
        stroke-miterlimit: 10;
        stroke-width: 2px;
      }
    </style>
  </defs>
  <path class="cls-1" d="M166.76,73.47h-2.48c-.94-39.16-33.89-70.74-74.29-70.74S16.66,34.3,15.71,73.47h-2.48C5.94,73.47,0,79.26,0,86.37v37.52C0,131,5.94,136.79,13.24,136.79h8.39c7.3,0,13.24-5.79,13.24-12.9v-37.52c0-7.12-5.94-12.9-13.24-12.9h-2.39C20.18,36.2,51.55,6.16,90,6.16s69.82,30.04,70.76,67.3h-2.39c-7.3,0-13.24,5.79-13.24,12.9v37.52c0,7.11,5.94,12.9,13.24,12.9h2.37c-1,16.48-15.07,29.59-32.22,29.59h-21.47c-.84-4.75-5.09-8.39-10.2-8.39h-13.69c-5.72,0-10.37,4.53-10.37,10.11s4.65,10.11,10.37,10.11h13.69c5.11,0,9.36-3.63,10.2-8.39h21.47c19.1,0,34.75-14.65,35.76-33.03h2.49c7.3,0,13.24-5.79,13.24-12.9v-37.52c0-7.12-5.94-12.9-13.24-12.9ZM31.34,86.37v37.52c0,5.22-4.35,9.46-9.71,9.46h-8.39c-5.35,0-9.71-4.24-9.71-9.46v-37.52c0-5.22,4.35-9.46,9.71-9.46h8.39c5.35,0,9.71,4.24,9.71,9.46ZM96.85,174.76h-13.69c-3.77,0-6.84-2.99-6.84-6.66s3.07-6.66,6.84-6.66h13.69c3.77,0,6.84,2.99,6.84,6.66s-3.07,6.66-6.84,6.66ZM176.47,123.89c0,5.22-4.35,9.46-9.71,9.46h-8.39c-5.35,0-9.71-4.24-9.71-9.46v-37.52c0-5.22,4.35-9.46,9.71-9.46h8.39c5.35,0,9.71,4.24,9.71,9.46v37.52Z"/>
  <path class="cls-1" d="M128.59,134.15v-58.04c0-4.74-3.96-8.6-8.82-8.6h-59.54c-4.87,0-8.82,3.86-8.82,8.6v58.04c0,4.74,3.96,8.6,8.82,8.6h59.54c4.87,0,8.82-3.86,8.82-8.6ZM54.94,134.15v-58.04c0-2.85,2.37-5.16,5.29-5.16h59.54c2.92,0,5.29,2.32,5.29,5.16v58.04c0,2.85-2.37,5.16-5.29,5.16h-59.54c-2.92,0-5.29-2.32-5.29-5.16Z"/>
  <path class="cls-1" d="M90,81.38c-14.09,0-25.55,11.17-25.55,24.91s11.46,24.91,25.55,24.91,25.55-11.17,25.55-24.91-11.46-24.91-25.55-24.91ZM90,127.76c-12.14,0-22.02-9.63-22.02-21.47s9.88-21.47,22.02-21.47,22.02,9.63,22.02,21.47-9.88,21.47-22.02,21.47Z"/>
  <path class="cls-1" d="M90,93.8c-7.07,0-12.82,5.61-12.82,12.5,0,.95.79,1.72,1.76,1.72s1.76-.77,1.76-1.72c0-4.99,4.17-9.05,9.29-9.05.97,0,1.76-.77,1.76-1.72s-.79-1.72-1.76-1.72Z"/>
</svg>