<?xml version="1.0" encoding="UTF-8"?>
<svg id="Virtual_Meetings_Communication" data-name="Virtual Meetings &amp;amp;Communication" xmlns="http://www.w3.org/2000/svg" viewBox="0 0 180 180">
  <defs>
    <style>
      .cls-1 {
        stroke: #000;
        stroke-miterlimit: 10;
        stroke-width: 2px;
      }
    </style>
  </defs>
  <path class="cls-1" d="M40.21,92.93h41.81c.89,0,1.61-.7,1.61-1.57v-10.07c0-4.85-2.19-8.21-6.69-10.25-.97-.44-3.06-1.38-5.39-2.43,1.8-2.22,2.89-5.01,2.89-8.05,0-7.17-5.98-13-13.33-13s-13.33,5.83-13.33,13c0,3.04,1.09,5.84,2.89,8.05-2.32,1.04-4.42,1.98-5.39,2.43-4.5,2.05-6.69,5.4-6.69,10.25v10.07c0,.87.72,1.57,1.61,1.57ZM61.12,50.7c5.58,0,10.12,4.42,10.12,9.86s-4.54,9.86-10.12,9.86-10.12-4.42-10.12-9.86,4.54-9.86,10.12-9.86ZM41.82,81.29c0-4.62,2.58-6.39,4.83-7.41,1.12-.51,3.75-1.69,6.5-2.93,2.23,1.63,4.98,2.6,7.97,2.6s5.74-.98,7.97-2.6c2.75,1.24,5.38,2.41,6.5,2.93,2.25,1.02,4.83,2.79,4.83,7.41v8.51h-38.6v-8.51Z"/>
  <path class="cls-1" d="M97.97,92.93h41.81c.89,0,1.61-.7,1.61-1.57v-10.07c0-4.85-2.19-8.21-6.69-10.25-.97-.44-3.06-1.38-5.39-2.43,1.8-2.22,2.89-5.01,2.89-8.05,0-7.17-5.98-13-13.33-13s-13.33,5.83-13.33,13c0,3.04,1.09,5.84,2.89,8.05-2.32,1.04-4.42,1.98-5.39,2.43-4.5,2.05-6.69,5.4-6.69,10.25v10.07c0,.87.72,1.57,1.61,1.57ZM118.88,50.7c5.58,0,10.12,4.42,10.12,9.86s-4.54,9.86-10.12,9.86-10.12-4.42-10.12-9.86,4.54-9.86,10.12-9.86ZM99.58,81.29c0-4.62,2.58-6.39,4.83-7.41,1.12-.51,3.75-1.69,6.5-2.93,2.23,1.63,4.98,2.6,7.97,2.6s5.74-.98,7.97-2.6c2.75,1.24,5.38,2.41,6.5,2.93,2.25,1.02,4.83,2.79,4.83,7.41v8.51h-38.6v-8.51Z"/>
  <path class="cls-1" d="M24.91,27.91c-.89,0-1.61.7-1.61,1.57v96.65c0,.87.72,1.57,1.61,1.57h130.18c.89,0,1.61-.7,1.61-1.57V29.48c0-.87-.72-1.57-1.61-1.57H24.91ZM153.48,124.56H26.52V31.05h126.96v93.52Z"/>
  <path class="cls-1" d="M13.66,133.96c.89,0,1.61-.7,1.61-1.57V27.91c0-4.32,3.61-7.83,8.04-7.83h133.39c4.43,0,8.04,3.51,8.04,7.83v104.48c0,.87.72,1.57,1.61,1.57s1.61-.7,1.61-1.57V27.91c0-6.05-5.05-10.97-11.25-10.97H23.3c-6.2,0-11.25,4.92-11.25,10.97v104.48c0,.87.72,1.57,1.61,1.57Z"/>
  <path class="cls-1" d="M178.39,141.79H1.61C.72,141.79,0,142.5,0,143.36v9.65C0,159.06,5.05,163.98,11.25,163.98h157.5c6.2,0,11.25-4.92,11.25-10.97v-9.65c0-.87-.72-1.57-1.61-1.57ZM176.79,153.01c0,4.32-3.61,7.83-8.04,7.83H11.25c-4.43,0-8.04-3.51-8.04-7.83v-8.08h173.57v8.08Z"/>
  <path class="cls-1" d="M72.24,104.83h-22.24c-.89,0-1.61.7-1.61,1.57s.72,1.57,1.61,1.57h22.24c.89,0,1.61-.7,1.61-1.57s-.72-1.57-1.61-1.57Z"/>
  <path class="cls-1" d="M130,104.83h-22.24c-.89,0-1.61.7-1.61,1.57s.72,1.57,1.61,1.57h22.24c.89,0,1.61-.7,1.61-1.57s-.72-1.57-1.61-1.57Z"/>
</svg>