<?xml version="1.0" encoding="UTF-8"?>
<svg id="Virtual_Meetings_Communication" data-name="Virtual Meetings &amp;amp;Communication" xmlns="http://www.w3.org/2000/svg" viewBox="0 0 180 180">
  <defs>
    <style>
      .cls-1 {
        stroke: #000;
        stroke-miterlimit: 10;
        stroke-width: 2px;
      }
    </style>
  </defs>
  <path class="cls-1" d="M168.87.46H11.13C4.99.46,0,5.21,0,11.05v62.65C0,79.54,4.99,84.29,11.13,84.29h157.73c6.14,0,11.13-4.75,11.13-10.59V11.05c0-5.84-4.99-10.59-11.13-10.59ZM176.29,73.7c0,3.89-3.33,7.06-7.42,7.06H11.13c-4.09,0-7.42-3.17-7.42-7.06V11.05c0-3.89,3.33-7.06,7.42-7.06h157.73c4.09,0,7.42,3.17,7.42,7.06v62.65Z"/>
  <path class="cls-1" d="M58.27,53.49h-16.57v-24.5c0-.97-.83-1.76-1.86-1.76s-1.86.79-1.86,1.76v26.26c0,.97.83,1.76,1.86,1.76h18.43c1.02,0,1.86-.79,1.86-1.76s-.83-1.76-1.86-1.76Z"/>
  <path class="cls-1" d="M71.3,27.23c-1.02,0-1.86.79-1.86,1.76v26.26c0,.97.83,1.76,1.86,1.76s1.86-.79,1.86-1.76v-26.26c0-.97-.83-1.76-1.86-1.76Z"/>
  <path class="cls-1" d="M140.15,30.76c1.02,0,1.86-.79,1.86-1.76s-.83-1.76-1.86-1.76h-18.17c-1.02,0-1.86.79-1.86,1.76v26.26c0,.97.83,1.76,1.86,1.76h18.17c1.02,0,1.86-.79,1.86-1.76s-.83-1.76-1.86-1.76h-16.32v-9.6h10.57c1.02,0,1.86-.79,1.86-1.76s-.83-1.76-1.86-1.76h-10.57v-9.6h16.32Z"/>
  <path class="cls-1" d="M109.67,27.4c-.94-.4-2.03,0-2.45.9l-10.5,22.58-10.5-22.6c-.42-.89-1.51-1.29-2.45-.9-.94.39-1.36,1.44-.95,2.33l12.13,26.11c.2.58.72,1.04,1.38,1.17.13.03.26.04.38.04.72,0,1.39-.4,1.7-1.05l12.2-26.24c.41-.89,0-1.93-.95-2.33Z"/>
  <path class="cls-1" d="M80.81,134.67c-5.06,4.82-5.06,12.65,0,17.47,2.53,2.41,5.86,3.61,9.19,3.61s6.65-1.2,9.19-3.61c5.07-4.82,5.07-12.65,0-17.47-5.07-4.82-13.31-4.82-18.37,0ZM96.56,149.64c-3.62,3.44-9.5,3.44-13.12,0-3.62-3.44-3.62-9.04,0-12.48,1.81-1.72,4.19-2.58,6.56-2.58s4.75.86,6.56,2.58c3.62,3.44,3.62,9.04,0,12.48Z"/>
  <path class="cls-1" d="M31.63,109.04c.54-.83.27-1.92-.6-2.43-.87-.51-2.02-.26-2.55.57-14.32,22-14.32,50.44,0,72.45.35.54.96.84,1.58.84.33,0,.67-.09.97-.26.87-.51,1.14-1.6.6-2.43-13.59-20.88-13.59-47.85,0-68.73Z"/>
  <path class="cls-1" d="M63.18,127.61c.54-.83.27-1.92-.6-2.43-.87-.51-2.02-.26-2.55.57-6.98,10.72-6.98,24.57,0,35.29.35.54.96.84,1.58.84.33,0,.67-.09.98-.26.87-.51,1.14-1.6.6-2.43-6.24-9.59-6.25-21.99,0-31.58Z"/>
  <path class="cls-1" d="M47.41,118.33c.54-.83.27-1.92-.6-2.43-.87-.51-2.02-.26-2.55.57-10.65,16.36-10.65,37.51,0,53.87.35.54.96.84,1.58.84.33,0,.67-.09.97-.26.87-.51,1.14-1.6.6-2.43-9.92-15.23-9.92-34.92,0-50.15Z"/>
  <path class="cls-1" d="M148.97,106.61c-.87.51-1.14,1.6-.6,2.43,13.59,20.88,13.59,47.86,0,68.73-.54.83-.27,1.92.6,2.43.3.18.64.26.98.26.62,0,1.23-.3,1.58-.84,14.32-22,14.33-50.44,0-72.45-.54-.83-1.68-1.08-2.55-.57Z"/>
  <path class="cls-1" d="M133.19,115.9c-.87.51-1.14,1.6-.6,2.43,9.92,15.24,9.92,34.92,0,50.15-.54.83-.27,1.92.6,2.43.3.18.64.26.98.26.62,0,1.23-.3,1.58-.84,10.65-16.36,10.65-37.51,0-53.87-.54-.83-1.68-1.08-2.55-.57Z"/>
  <path class="cls-1" d="M117.42,125.19c-.87.51-1.14,1.6-.6,2.43,6.24,9.59,6.24,21.99,0,31.58-.54.83-.27,1.92.6,2.43.3.18.64.26.98.26.62,0,1.23-.3,1.58-.84,6.98-10.72,6.98-24.57,0-35.29-.54-.83-1.68-1.08-2.55-.57Z"/>
</svg>