<?xml version="1.0" encoding="UTF-8"?>
<svg id="Virtual_Meetings_Communication" data-name="Virtual Meetings &amp;amp;Communication" xmlns="http://www.w3.org/2000/svg" viewBox="0 0 180 180">
  <defs>
    <style>
      .cls-1 {
        stroke: #000;
        stroke-miterlimit: 10;
        stroke-width: 2px;
      }
    </style>
  </defs>
  <path class="cls-1" d="M45.32,120.84c17.45,0,31.64-14.18,31.64-31.62v-50.8c0-17.44-14.19-31.62-31.64-31.62s-31.64,14.18-31.64,31.62v50.8c0,17.44,14.19,31.62,31.64,31.62ZM17.14,88.83h9.78c.95,0,1.73-.77,1.73-1.73s-.77-1.73-1.73-1.73h-9.78v-12.08h9.78c.95,0,1.73-.77,1.73-1.73s-.77-1.73-1.73-1.73h-9.78v-12.08h9.78c.95,0,1.73-.77,1.73-1.73s-.77-1.73-1.73-1.73h-9.78v-12.08h9.78c.95,0,1.73-.77,1.73-1.73s-.77-1.73-1.73-1.73h-9.78v-.39c0-15.53,12.64-28.17,28.19-28.17s28.19,12.64,28.19,28.17v.39h-9.78c-.95,0-1.73.77-1.73,1.73s.77,1.73,1.73,1.73h9.78v12.08h-9.78c-.95,0-1.73.77-1.73,1.73s.77,1.73,1.73,1.73h9.78v12.08h-9.78c-.95,0-1.73.77-1.73,1.73s.77,1.73,1.73,1.73h9.78v12.08h-9.78c-.95,0-1.73.77-1.73,1.73s.77,1.73,1.73,1.73h9.78v.39c0,15.53-12.64,28.17-28.19,28.17s-28.19-12.64-28.19-28.17v-.39Z"/>
  <path class="cls-1" d="M88.92,62.09c-.95,0-1.73.77-1.73,1.73v25.4c0,23.08-18.78,41.85-41.87,41.85S3.45,112.29,3.45,89.22v-25.4c0-.95-.77-1.73-1.73-1.73S0,62.86,0,63.82v25.4C0,109.63,13.59,126.93,32.2,132.57v18.83H10.99c-.95,0-1.73.77-1.73,1.73v19.28c0,.95.77,1.73,1.73,1.73h68.66c.95,0,1.73-.77,1.73-1.73v-19.28c0-.95-.77-1.73-1.73-1.73h-21.21v-18.83c18.61-5.64,32.2-22.94,32.2-43.36v-25.4c0-.95-.77-1.73-1.73-1.73ZM77.93,170.68H12.72v-15.83h65.21v15.83ZM54.99,151.4h-19.34v-17.93c3.12.68,6.35,1.05,9.67,1.05s6.55-.37,9.67-1.05v17.93Z"/>
  <path class="cls-1" d="M104.01,65.54h8.85c2.71,0,3.32,1.77,3.75,6.01l.07.7c3.04,28.01,6.85,28.32,8.73,28.32.01,0,.02,0,.03,0h.05c1.73,0,6.68-.49,9.51-36.61,1.48-18.91,4.23-31.51,6.13-33.32,1.91,1.81,4.65,14.41,6.13,33.32,2.82,36.12,7.78,36.6,9.51,36.61h.02s.03,0,.05,0h.01c1.88,0,5.7-.32,8.73-28.32l.07-.7c.43-4.24,1.04-6.01,3.75-6.01h8.85c.95,0,1.73-.77,1.73-1.73s-.77-1.73-1.73-1.73h-8.85c-6.27,0-6.87,5.93-7.19,9.11l-.07.67c-2.17,20.05-4.63,24.26-5.35,25.09-1.9-1.95-4.62-14.51-6.09-33.28-2.86-36.61-7.91-36.61-9.57-36.61s-6.71,0-9.58,36.61c-1.47,18.77-4.19,31.33-6.09,33.28-.72-.83-3.18-5.04-5.35-25.09l-.07-.67c-.32-3.18-.92-9.11-7.19-9.11h-8.85c-.95,0-1.73.77-1.73,1.73s.77,1.73,1.73,1.73Z"/>
  <path class="cls-1" d="M178.27,140.48h-8.85c-6.16,0-6.84,3.96-7.17,5.87l-.07.38c-2.13,11.57-4.62,14.26-5.36,14.31-1.71-.09-4.63-7.89-6.11-19.07-1.1-8.24-3.8-22.06-9.56-22.06s-8.47,13.82-9.56,22.06c-1.62,12.2-4.63,18.98-6.11,19.07-.74-.05-3.22-2.75-5.36-14.31l-.07-.38c-.33-1.91-1.01-5.87-7.17-5.87h-8.86c-.95,0-1.73.77-1.73,1.73s.77,1.73,1.73,1.73h8.86c3.25,0,3.45,1.13,3.77,3.01l.07.42c2.79,15.09,6.24,17.07,8.65,17.13.03,0,.07,0,.1,0,.05,0,.1,0,.14,0,5.65-.27,8.31-13.9,9.4-22.06,1.5-11.24,4.44-19.07,6.14-19.07,1.47,0,4.51,6.79,6.14,19.07,1.09,8.16,3.75,21.79,9.39,22.06.04,0,.08,0,.12,0h.05s.05,0,.08,0c2.41-.07,5.86-2.05,8.65-17.13l.07-.42c.32-1.87.52-3,3.77-3h8.85c.95,0,1.73-.77,1.73-1.73s-.77-1.73-1.73-1.73Z"/>
</svg>