<?xml version="1.0" encoding="UTF-8"?>
<svg id="Virtual_Meetings_Communication" data-name="Virtual Meetings &amp;amp;Communication" xmlns="http://www.w3.org/2000/svg" viewBox="0 0 180 180">
  <defs>
    <style>
      .cls-1 {
        stroke: #000;
        stroke-miterlimit: 10;
        stroke-width: 2px;
      }
    </style>
  </defs>
  <path class="cls-1" d="M79.25,84.84c-1.61-.72-5.23-2.3-9.16-4.02,3.04-3.37,4.89-7.74,4.89-12.53,0-10.63-9.1-19.28-20.27-19.28s-20.28,8.65-20.28,19.28c0,4.78,1.85,9.15,4.89,12.53-3.93,1.72-7.54,3.31-9.16,4.02-6.81,3.02-10.12,7.97-10.12,15.14v15.4c0,1,.85,1.81,1.9,1.81h65.52c1.05,0,1.9-.81,1.9-1.81v-15.4c0-7.17-3.31-12.12-10.12-15.14ZM54.71,52.63c9.08,0,16.46,7.02,16.46,15.66s-7.39,15.66-16.46,15.66-16.47-7.02-16.47-15.66,7.39-15.66,16.47-15.66ZM85.56,113.57h-11.07v-7.05c0-1-.85-1.81-1.9-1.81s-1.9.81-1.9,1.81v7.05h-31.94v-7.05c0-1-.85-1.81-1.9-1.81s-1.9.81-1.9,1.81v7.05h-11.07v-13.59c0-7.4,4.23-10.23,7.92-11.86,1.8-.8,6.08-2.67,10.52-4.62,3.43,2.54,7.73,4.07,12.41,4.07s8.98-1.53,12.41-4.07c4.44,1.94,8.72,3.82,10.52,4.62h0c3.69,1.63,7.92,4.46,7.92,11.86v13.59Z"/>
  <path class="cls-1" d="M169.52,4.87H10.48C4.7,4.87,0,9.34,0,14.84v151.25C0,171.58,4.7,176.05,10.48,176.05h159.05c5.78,0,10.48-4.47,10.48-9.96V14.84c0-5.49-4.7-9.96-10.48-9.96ZM3.81,136.6V34.75h101.85v101.86H3.81ZM109.47,34.75h66.73v101.86h-66.73V34.75ZM10.48,8.5h159.05c3.68,0,6.67,2.84,6.67,6.34v16.29H3.81V14.84c0-3.5,2.99-6.34,6.67-6.34ZM169.52,172.43H10.48c-3.68,0-6.67-2.84-6.67-6.34v-25.86h172.38v25.86c0,3.5-2.99,6.34-6.67,6.34Z"/>
  <path class="cls-1" d="M163.68,24.1c2.23,0,4.05-1.73,4.05-3.85s-1.82-3.85-4.05-3.85-4.05,1.73-4.05,3.85,1.82,3.85,4.05,3.85Z"/>
  <path class="cls-1" d="M144.73,24.1c2.23,0,4.05-1.73,4.05-3.85s-1.82-3.85-4.05-3.85-4.05,1.73-4.05,3.85,1.82,3.85,4.05,3.85Z"/>
  <path class="cls-1" d="M125.78,24.1c2.23,0,4.05-1.73,4.05-3.85s-1.82-3.85-4.05-3.85-4.05,1.73-4.05,3.85,1.82,3.85,4.05,3.85Z"/>
  <path class="cls-1" d="M125.78,52.63h37.9c1.05,0,1.9-.81,1.9-1.81s-.85-1.81-1.9-1.81h-37.9c-1.05,0-1.9.81-1.9,1.81s.85,1.81,1.9,1.81Z"/>
  <path class="cls-1" d="M163.68,65.31h-37.9c-1.05,0-1.9.81-1.9,1.81s.85,1.81,1.9,1.81h37.9c1.05,0,1.9-.81,1.9-1.81s-.85-1.81-1.9-1.81Z"/>
  <path class="cls-1" d="M163.68,81.62h-37.9c-1.05,0-1.9.81-1.9,1.81s.85,1.81,1.9,1.81h37.9c1.05,0,1.9-.81,1.9-1.81s-.85-1.81-1.9-1.81Z"/>
  <path class="cls-1" d="M163.68,97.92h-37.9c-1.05,0-1.9.81-1.9,1.81s.85,1.81,1.9,1.81h37.9c1.05,0,1.9-.81,1.9-1.81s-.85-1.81-1.9-1.81Z"/>
</svg>