<?xml version="1.0" encoding="UTF-8"?>
<svg id="Virtual_Meetings_Communication" data-name="Virtual Meetings &amp;amp;Communication" xmlns="http://www.w3.org/2000/svg" viewBox="0 0 180 180">
  <defs>
    <style>
      .cls-1 {
        stroke: #000;
        stroke-miterlimit: 10;
        stroke-width: 2px;
      }
    </style>
  </defs>
  <path class="cls-1" d="M16.23,99.98v15.4c0,1,.85,1.81,1.9,1.81h65.52c1.05,0,1.9-.81,1.9-1.81v-15.4c0-7.17-3.31-12.12-10.12-15.14-3.54-1.57-6.56-2.9-9.14-4.04,3.03-3.37,4.87-7.73,4.87-12.51,0-10.63-9.1-19.28-20.27-19.28s-20.27,8.65-20.27,19.28c0,4.78,1.85,9.15,4.89,12.53-3.93,1.72-7.54,3.31-9.16,4.02-6.81,3.02-10.12,7.97-10.12,15.14ZM50.9,52.63c9.08,0,16.47,7.02,16.47,15.66s-7.39,15.66-16.47,15.66-16.47-7.02-16.47-15.66,7.39-15.66,16.47-15.66ZM38.49,83.5c3.43,2.54,7.73,4.07,12.41,4.07s8.98-1.53,12.41-4.07c4.44,1.94,8.72,3.82,10.52,4.62,3.69,1.64,7.92,4.46,7.92,11.86v13.59h-11.07v-7.05c0-1-.85-1.81-1.9-1.81s-1.9.81-1.9,1.81v7.05h-31.94v-7.05c0-1-.85-1.81-1.9-1.81s-1.9.81-1.9,1.81v7.05h-11.07v-13.59c0-7.4,4.23-10.22,7.92-11.86,1.81-.8,6.09-2.68,10.52-4.62Z"/>
  <path class="cls-1" d="M163.68,16.4c-2.23,0-4.05,1.73-4.05,3.85s1.82,3.85,4.05,3.85,4.05-1.73,4.05-3.85-1.82-3.85-4.05-3.85Z"/>
  <path class="cls-1" d="M144.73,16.4c-2.23,0-4.05,1.73-4.05,3.85s1.82,3.85,4.05,3.85,4.05-1.73,4.05-3.85-1.82-3.85-4.05-3.85Z"/>
  <path class="cls-1" d="M125.78,16.4c-2.23,0-4.05,1.73-4.05,3.85s1.82,3.85,4.05,3.85,4.05-1.73,4.05-3.85-1.82-3.85-4.05-3.85Z"/>
  <path class="cls-1" d="M146.87,154.77h-15.8c-1.05,0-1.9.81-1.9,1.81s.85,1.81,1.9,1.81h15.8c1.05,0,1.9-.81,1.9-1.81s-.85-1.81-1.9-1.81Z"/>
  <path class="cls-1" d="M157.16,100.56c-1.1-.49-3.47-1.53-6.11-2.69,2.05-2.48,3.28-5.6,3.28-9,0-8.05-6.89-14.61-15.36-14.61s-15.36,6.55-15.36,14.61c0,3.39,1.23,6.51,3.28,9-2.64,1.16-5.01,2.2-6.11,2.69-5.19,2.3-7.71,6.07-7.71,11.53v11.28c0,1,.85,1.81,1.9,1.81h47.99c1.05,0,1.9-.81,1.9-1.81v-11.28c0-5.46-2.52-9.23-7.71-11.53ZM138.97,77.89c6.37,0,11.55,4.93,11.55,10.98s-5.18,10.98-11.55,10.98-11.55-4.93-11.55-10.98,5.18-10.98,11.55-10.98ZM161.06,121.55h-44.18v-9.47c0-5.15,2.94-7.11,5.51-8.25,1.29-.57,4.28-1.88,7.43-3.26,2.56,1.82,5.72,2.9,9.15,2.9s6.59-1.09,9.15-2.9c3.15,1.38,6.14,2.69,7.43,3.26h0c2.56,1.14,5.51,3.1,5.51,8.25v9.47Z"/>
  <path class="cls-1" d="M169.52,58.3h-61.11c-5.78,0-10.48,4.47-10.48,9.96v97.82c0,5.49,4.7,9.96,10.48,9.96h61.11c5.78,0,10.48-4.47,10.48-9.96v-97.82c0-5.49-4.7-9.96-10.48-9.96ZM176.19,166.09c0,3.5-2.99,6.34-6.67,6.34h-61.11c-3.68,0-6.67-2.84-6.67-6.34v-97.82c0-3.5,2.99-6.34,6.67-6.34h61.11c3.68,0,6.67,2.84,6.67,6.34v97.82Z"/>
  <path class="cls-1" d="M169.52,4.87H10.48C4.7,4.87,0,9.34,0,14.84v151.25c0,5.49,4.7,9.96,10.48,9.96h77.78c1.05,0,1.9-.81,1.9-1.81s-.85-1.81-1.9-1.81H10.48c-3.68,0-6.67-2.84-6.67-6.34v-25.86h79.85c1.05,0,1.9-.81,1.9-1.81s-.85-1.81-1.9-1.81H3.81V34.75h172.38v14.35c0,1,.85,1.81,1.9,1.81s1.9-.81,1.9-1.81V14.84c0-5.49-4.7-9.96-10.48-9.96ZM3.81,31.12V14.84c0-3.5,2.99-6.34,6.67-6.34h159.05c3.68,0,6.67,2.84,6.67,6.34v16.29H3.81Z"/>
</svg>