<?xml version="1.0" encoding="UTF-8"?>
<svg id="Virtual_Meetings_Communication" data-name="Virtual Meetings &amp;amp;Communication" xmlns="http://www.w3.org/2000/svg" viewBox="0 0 180 180">
  <defs>
    <style>
      .cls-1 {
        stroke: #000;
        stroke-miterlimit: 10;
        stroke-width: 2px;
      }
    </style>
  </defs>
  <path class="cls-1" d="M164.3,2.72H52.06c-8.66,0-15.7,6.86-15.7,15.3v4.42H15C6.73,22.45,0,29,0,37.07v94.78C0,139.91,6.73,146.47,15,146.47h51.32v10.06l-19.44,9.23c-.61.29-.99.89-.99,1.55v9.18c0,.95.79,1.72,1.76,1.72h67.28c.97,0,1.76-.77,1.76-1.72v-9.18c0-.66-.39-1.26-.99-1.55l-19.44-9.23v-10.06h51.32c8.27,0,15-6.56,15-14.62v-30.69h1.72c8.66,0,15.7-6.86,15.7-15.3V18.03c0-8.44-7.04-15.3-15.7-15.3ZM52.06,101.15h6.48l7.97,16.7c.29.61.91.99,1.6.99s1.31-.39,1.6-.99l7.97-16.7h66.51v27.39H18.39V40.37h17.98v45.48c0,8.44,7.04,15.3,15.7,15.3ZM93.73,159.15l19.44,9.23v6.38h-63.76v-6.38l19.44-9.23c.61-.29.99-.89.99-1.55v-11.14h22.89v11.14c0,.66.39,1.26.99,1.55ZM159.06,131.84c0,6.17-5.15,11.18-11.47,11.18H15c-6.32,0-11.47-5.02-11.47-11.18V37.07c0-6.17,5.15-11.18,11.47-11.18h21.37v11.05h-19.74c-.97,0-1.76.77-1.76,1.72v91.61c0,.95.79,1.72,1.76,1.72h129.34c.97,0,1.76-.77,1.76-1.72v-29.11h11.33v30.69ZM176.47,85.85c0,6.54-5.46,11.86-12.17,11.86h-87.74c-.69,0-1.31.39-1.6.99l-6.85,14.34-6.85-14.34c-.29-.61-.91-.99-1.6-.99h-7.6c-6.71,0-12.17-5.32-12.17-11.86V18.03c0-6.54,5.46-11.86,12.17-11.86h112.24c6.71,0,12.17,5.32,12.17,11.86v67.82Z"/>
  <path class="cls-1" d="M125.99,51.82c-1.1-.5-3.48-1.57-6.12-2.75,2.05-2.5,3.28-5.65,3.28-9.09,0-8.05-6.72-14.59-14.97-14.59s-14.97,6.55-14.97,14.59c0,3.44,1.23,6.59,3.28,9.09-2.64,1.18-5.01,2.25-6.12,2.75-5.05,2.29-7.5,6.06-7.5,11.51v11.35c0,.95.79,1.72,1.76,1.72h47.09c.97,0,1.76-.77,1.76-1.72v-11.35c0-5.45-2.46-9.21-7.5-11.51ZM108.18,28.83c6.31,0,11.44,5,11.44,11.15s-5.13,11.15-11.44,11.15-11.44-5-11.44-11.15,5.13-11.15,11.44-11.15ZM129.96,72.95h-43.56v-9.62c0-5.23,2.92-7.23,5.47-8.39,1.27-.58,4.24-1.91,7.35-3.31,2.5,1.84,5.6,2.94,8.97,2.94s6.47-1.1,8.97-2.94c3.11,1.4,6.08,2.73,7.35,3.31h0c2.54,1.16,5.47,3.15,5.47,8.39v9.62Z"/>
</svg>