<?xml version="1.0" encoding="UTF-8"?>
<svg id="Virtual_Meetings_Communication" data-name="Virtual Meetings &amp;amp;Communication" xmlns="http://www.w3.org/2000/svg" viewBox="0 0 180 180">
  <defs>
    <style>
      .cls-1 {
        stroke: #000;
        stroke-miterlimit: 10;
        stroke-width: 2px;
      }
    </style>
  </defs>
  <path class="cls-1" d="M27.77,82.26v15.38c0,1,.81,1.81,1.81,1.81h62.23c1,0,1.81-.81,1.81-1.81v-15.38c0-7.16-3.14-12.11-9.61-15.12-1.53-.71-4.96-2.3-8.7-4.02,2.89-3.37,4.65-7.73,4.65-12.51,0-10.62-8.64-19.26-19.26-19.26s-19.26,8.64-19.26,19.26c0,4.78,1.76,9.14,4.65,12.51-3.73,1.72-7.17,3.3-8.7,4.02-6.47,3.02-9.61,7.96-9.61,15.12ZM60.7,34.97c8.62,0,15.64,7.02,15.64,15.64s-7.02,15.64-15.64,15.64-15.64-7.02-15.64-15.64,7.02-15.64,15.64-15.64ZM48.91,65.8c3.26,2.54,7.35,4.06,11.79,4.06s8.53-1.53,11.79-4.06c4.22,1.94,8.29,3.82,9.99,4.61,3.5,1.63,7.52,4.46,7.52,11.84v13.57h-10.52v-7.04c0-1-.81-1.81-1.81-1.81s-1.81.81-1.81,1.81v7.04h-30.34v-7.04c0-1-.81-1.81-1.81-1.81s-1.81.81-1.81,1.81v7.04h-10.52v-13.57c0-7.39,4.02-10.21,7.52-11.84,1.71-.8,5.77-2.67,9.99-4.61Z"/>
  <path class="cls-1" d="M164.62,2.02H15.38C6.9,2.02,0,8.92,0,17.4v110.03c0,8.48,6.9,15.38,15.38,15.38h58.17v11.69l-21.64,10.53c-.62.3-1.02.93-1.02,1.63v10.44c0,1,.81,1.81,1.81,1.81h24.64c1,0,1.81-.81,1.81-1.81s-.81-1.81-1.81-1.81h-22.83v-7.5l21.64-10.53c.62-.3,1.02-.93,1.02-1.63v-14.63c0-1-.81-1.81-1.81-1.81H15.38c-6.48,0-11.76-5.28-11.76-11.76V17.4c0-6.48,5.28-11.76,11.76-11.76h149.25c6.48,0,11.76,5.27,11.76,11.76v96.85c0,1,.81,1.81,1.81,1.81s1.81-.81,1.81-1.81V17.4c0-8.48-6.9-15.38-15.38-15.38Z"/>
  <path class="cls-1" d="M80.15,124.71H18.09V20.11h85.77v32.4c0,1,.81,1.81,1.81,1.81s1.81-.81,1.81-1.81V20.11s54.43,0,54.43,0v53.08c0,1,.81,1.81,1.81,1.81s1.81-.81,1.81-1.81V18.31c0-1-.81-1.81-1.81-1.81H16.28c-1,0-1.81.81-1.81,1.81v108.22c0,1,.81,1.81,1.81,1.81h63.87c1,0,1.81-.81,1.81-1.81s-.81-1.81-1.81-1.81Z"/>
  <path class="cls-1" d="M166.81,120.07c-2.3-1.07-7.6-3.52-13.23-6.11,4.38-4.73,7.06-11.06,7.06-17.99,0-14.63-11.9-26.54-26.54-26.54s-26.54,11.9-26.54,26.54c0,6.94,2.68,13.26,7.06,17.99-5.64,2.6-10.94,5.04-13.23,6.11-8.88,4.14-13.19,10.92-13.19,20.75v36.27c0,1,.81,1.81,1.81,1.81h88.19c1,0,1.81-.81,1.81-1.81v-36.27c0-9.83-4.31-16.61-13.19-20.75ZM134.1,73.05c12.64,0,22.92,10.28,22.92,22.92s-10.28,22.92-22.92,22.92-22.92-10.28-22.92-22.92,10.28-22.92,22.92-22.92ZM134.1,122.5c1.34,0,2.65-.1,3.94-.29l8.36,33.42-12.3,10.91-12.3-10.91,8.36-33.42c1.29.19,2.6.29,3.94.29ZM176.38,175.28h-15.21v-10.13c0-1-.81-1.81-1.81-1.81s-1.81.81-1.81,1.81v10.13h-46.92v-10.13c0-1-.81-1.81-1.81-1.81s-1.81.81-1.81,1.81v10.13h-15.21v-34.46c0-11.02,6.34-15.25,11.1-17.47,2.47-1.15,8.44-3.91,14.56-6.72,2.67,2.16,5.77,3.8,9.15,4.8l-8.6,34.4c-.16.65.05,1.34.55,1.79l14.32,12.7c.34.3.77.46,1.2.46s.86-.15,1.2-.46l14.32-12.7c.5-.45.72-1.14.55-1.79l-8.6-34.4c3.38-.99,6.48-2.64,9.15-4.79,6.12,2.82,12.09,5.57,14.56,6.72,4.76,2.22,11.1,6.45,11.1,17.47v34.46Z"/>
</svg>