<?xml version="1.0" encoding="UTF-8"?>
<svg id="Virtual_Meetings_Communication" data-name="Virtual Meetings &amp;amp;Communication" xmlns="http://www.w3.org/2000/svg" viewBox="0 0 180 180">
  <defs>
    <style>
      .cls-1 {
        stroke: #000;
        stroke-miterlimit: 10;
        stroke-width: 2px;
      }
    </style>
  </defs>
  <path class="cls-1" d="M171.98,153.52h0c-1.21-.56-3.85-1.78-6.76-3.12,2.26-2.76,3.61-6.28,3.61-10.12,0-8.83-7.18-16.02-16.02-16.02s-16.02,7.18-16.02,16.02c0,3.83,1.36,7.36,3.61,10.12-2.91,1.34-5.55,2.56-6.76,3.12-5.39,2.51-8.02,6.64-8.02,12.61v12.56c0,.97.79,1.76,1.76,1.76h50.83c.97,0,1.76-.79,1.76-1.76v-12.56c0-5.97-2.62-10.1-8.02-12.61ZM152.82,127.8c6.88,0,12.49,5.6,12.49,12.49s-5.6,12.49-12.49,12.49-12.49-5.6-12.49-12.49,5.6-12.49,12.49-12.49ZM176.47,176.93h-47.3v-10.8c0-5.87,3.2-8.12,5.98-9.41,1.38-.64,4.62-2.14,8.01-3.7,2.69,2.04,6.03,3.27,9.66,3.27s6.97-1.23,9.66-3.27c3.38,1.56,6.62,3.05,8.01,3.7h0c2.78,1.3,5.98,3.54,5.98,9.41v10.8Z"/>
  <path class="cls-1" d="M127.62,113.32v-12.56c0-5.97-2.62-10.1-8.02-12.61-1.21-.56-3.85-1.78-6.76-3.12,2.26-2.76,3.61-6.28,3.61-10.12,0-8.83-7.18-16.02-16.02-16.02s-16.02,7.18-16.02,16.02c0,3.83,1.36,7.36,3.61,10.12-2.91,1.34-5.55,2.56-6.76,3.12-5.4,2.51-8.02,6.64-8.02,12.61v12.56c0,.97.79,1.76,1.76,1.76h50.83c.97,0,1.76-.79,1.76-1.76ZM100.44,62.42c6.88,0,12.49,5.6,12.49,12.49s-5.6,12.49-12.49,12.49-12.49-5.6-12.49-12.49,5.6-12.49,12.49-12.49ZM124.09,111.55h-47.3v-10.8c0-5.87,3.2-8.12,5.98-9.41,1.38-.64,4.62-2.14,8-3.7,2.69,2.04,6.03,3.27,9.66,3.27s6.97-1.23,9.66-3.27c3.38,1.56,6.62,3.05,8.01,3.7h0c2.78,1.3,5.98,3.54,5.98,9.41v10.8Z"/>
  <path class="cls-1" d="M171.98,29.72c-1.21-.56-3.85-1.78-6.76-3.12,2.26-2.76,3.61-6.28,3.61-10.12,0-8.83-7.18-16.01-16.02-16.01s-16.02,7.18-16.02,16.01c0,3.83,1.36,7.36,3.61,10.12-2.91,1.34-5.55,2.56-6.76,3.12-5.39,2.51-8.02,6.64-8.02,12.61v12.56c0,.97.79,1.76,1.76,1.76h50.83c.97,0,1.76-.79,1.76-1.76v-12.56c0-5.97-2.62-10.1-8.02-12.61ZM152.82,3.99c6.88,0,12.49,5.6,12.49,12.49s-5.6,12.49-12.49,12.49-12.49-5.6-12.49-12.49,5.6-12.49,12.49-12.49ZM176.47,53.13h-47.3v-10.8c0-5.87,3.2-8.12,5.98-9.41,1.38-.64,4.62-2.14,8-3.7,2.69,2.04,6.03,3.27,9.66,3.27s6.97-1.23,9.66-3.27c3.38,1.56,6.62,3.05,8,3.7,2.78,1.3,5.98,3.54,5.98,9.41v10.8Z"/>
  <path class="cls-1" d="M65.55,130.59c-.5-2.37-2.86-6.63-8.29-5.77-2.2.35-17,4.44-19.23,4.7-.79.1-1.65-.27-2.53-1.07-4.45-4.04-8.93-18.71-8.47-37.95,0-.03,0-.06,0-.08-.45-19.24,4.03-33.91,8.47-37.95.89-.81,1.74-1.16,2.54-1.07,2.23.27,17.03,4.35,19.23,4.7,5.42.87,7.8-3.39,8.28-5.71l9.26-38.21c.42-1.75.14-3.56-.8-5.1-.94-1.54-2.42-2.62-4.17-3.04l-6.97-1.69c-16.14-3.84-29.38-1.79-39.36,6.1C7.69,20.95,0,47.77,0,90.46s7.69,69.52,23.51,82.01c6.72,5.31,14.92,7.97,24.49,7.97,4.64,0,9.6-.63,14.87-1.88l6.96-1.69c1.75-.42,3.23-1.5,4.17-3.04.94-1.54,1.22-3.35.8-5.1l-9.25-38.15ZM69,173.45l-6.95,1.68c-15.03,3.58-27.27,1.75-36.35-5.43-14.92-11.78-22.17-37.7-22.17-79.24S10.78,23,25.69,11.22c6.08-4.8,13.56-7.21,22.34-7.21,4.35,0,9.03.59,14.01,1.78l6.96,1.69c1.72.42,2.78,2.16,2.37,3.88l-9.27,38.26c-.08.36-.85,3.55-4.28,3-2.01-.32-16.88-4.42-19.37-4.72-1.28-.15-3.24.06-5.33,1.96-6.1,5.54-10.05,22.23-9.63,40.6-.43,18.37,3.53,35.06,9.63,40.6,2.09,1.9,4.05,2.12,5.33,1.96,2.49-.3,17.36-4.4,19.37-4.72,3.31-.53,4.15,2.42,4.29,3.06l9.26,38.21c.42,1.72-.64,3.46-2.37,3.88Z"/>
</svg>