<?xml version="1.0" encoding="UTF-8"?>
<svg id="Virtual_Meetings_Communication" data-name="Virtual Meetings &amp;amp;Communication" xmlns="http://www.w3.org/2000/svg" viewBox="0 0 180 180">
  <defs>
    <style>
      .cls-1 {
        stroke: #000;
        stroke-miterlimit: 10;
        stroke-width: 2px;
      }
    </style>
  </defs>
  <path class="cls-1" d="M120.49,111.59c.29.17.61.26.93.26.31,0,.61-.08.89-.23.57-.32.92-.92.92-1.57v-39.15c0-.65-.35-1.25-.92-1.57-.57-.32-1.26-.31-1.82.03l-14.09,8.49v-.36c0-5.48-4.46-9.94-9.95-9.94h-31.59c-5.49,0-9.95,4.46-9.95,9.94v25.98c0,5.48,4.46,9.94,9.95,9.94h31.59c5.49,0,9.95-4.46,9.95-9.94v-.36l14.09,8.49ZM119.61,74.09v32.75l-13.21-7.96v-16.82l13.21-7.96ZM102.78,103.45c0,3.49-2.84,6.33-6.33,6.33h-31.59c-3.49,0-6.33-2.84-6.33-6.33v-25.98c0-3.49,2.84-6.33,6.33-6.33h31.59c3.49,0,6.33,2.84,6.33,6.33v25.98Z"/>
  <path class="cls-1" d="M59.48,148.64c-2.42,1.67-5.81,4.18-5.84,4.2-.03.02-.06.05-.1.07-.17.14-4.09,3.38-8.21-.92l-16.92-16.91c-4.15-3.98-1.23-7.77-.9-8.18.03-.03.05-.06.08-.1.03-.03,2.53-3.42,4.21-5.84,1.45-2.09,4.14-5.98-.71-10.83-3.21-3.21-7.36-3.45-11.39-.65,0,0-3.46,2.39-8.54,6.93-6.28,5.63-9.56,11.82-9.74,18.41-.18,6.43,2.65,11.77,5.13,15.2-.54.42-1.07.87-1.56,1.37C1.77,154.61,0,158.87,0,163.41s1.77,8.81,4.98,12.02c3.21,3.21,7.48,4.98,12.03,4.98s8.81-1.77,12.03-4.98c.49-.49.94-1.02,1.37-1.56,3.33,2.41,8.45,5.13,14.63,5.13.19,0,.38,0,.57,0,6.59-.18,12.79-3.46,18.42-9.74,4.55-5.08,6.94-8.54,6.94-8.54,2.8-4.02,2.56-8.17-.65-11.38-4.86-4.84-8.75-2.15-10.84-.71ZM17.01,176.8c-3.58,0-6.94-1.39-9.47-3.92-2.53-2.53-3.92-5.89-3.92-9.46s1.39-6.93,3.92-9.46c2.53-2.53,5.89-3.92,9.47-3.92s6.94,1.39,9.47,3.92c2.53,2.53,3.92,5.89,3.92,9.46s-1.39,6.94-3.92,9.46c-2.53,2.53-5.89,3.92-9.47,3.92ZM68,158.65s-2.27,3.29-6.66,8.19c-4.94,5.51-10.27,8.39-15.83,8.54-5.58.15-10.24-2.4-13.19-4.58,1.1-2.28,1.7-4.78,1.7-7.38,0-4.54-1.77-8.81-4.98-12.02-3.21-3.21-7.48-4.98-12.03-4.98-2.6,0-5.11.6-7.39,1.7-2.19-2.95-4.74-7.62-4.59-13.19.15-5.56,3.03-10.88,8.54-15.82,4.91-4.39,8.19-6.66,8.19-6.66,1.38-.96,2.55-1.29,3.51-1.29,1.72,0,2.79,1.07,3.25,1.53,2.59,2.59,1.84,3.98.29,6.22-1.54,2.22-3.8,5.29-4.11,5.7-1.94,2.33-4.13,7.98,1.17,13.06l16.87,16.86c5.11,5.32,10.76,3.13,13.09,1.19.41-.3,3.48-2.57,5.7-4.1,2.24-1.55,3.63-2.3,6.22.29.72.72,2.92,2.91.24,6.76Z"/>
  <path class="cls-1" d="M120.52,32.29c2.42-1.67,5.81-4.18,5.84-4.2.03-.02.06-.05.09-.08.16-.14,4.08-3.38,8.21.92l16.92,16.91c4.15,3.98,1.23,7.77.9,8.18-.03.03-.05.06-.08.1-.03.03-2.53,3.42-4.21,5.84-1.45,2.09-4.14,5.98.71,10.83,1.72,1.73,3.72,2.59,5.82,2.59,1.81,0,3.7-.65,5.57-1.94,0,0,3.46-2.39,8.54-6.93,6.29-5.63,9.56-11.82,9.74-18.41.18-6.43-2.65-11.77-5.13-15.2.54-.42,1.07-.87,1.56-1.37,3.21-3.21,4.98-7.48,4.98-12.02s-1.77-8.81-4.98-12.02c-3.21-3.21-7.48-4.98-12.03-4.98s-8.81,1.77-12.03,4.98c-.49.49-.94,1.02-1.36,1.56-3.43-2.48-8.77-5.31-15.21-5.12-6.59.18-12.79,3.46-18.42,9.74-4.55,5.08-6.94,8.54-6.94,8.54-2.8,4.02-2.56,8.17.65,11.38,4.85,4.84,8.75,2.15,10.84.7ZM162.99,4.13c3.58,0,6.94,1.39,9.47,3.92,2.53,2.53,3.92,5.89,3.92,9.46s-1.39,6.93-3.92,9.46c-2.53,2.53-5.89,3.92-9.47,3.92s-6.94-1.39-9.47-3.92-3.92-5.89-3.92-9.46,1.39-6.94,3.92-9.46c2.53-2.53,5.89-3.92,9.47-3.92ZM112,22.27s2.27-3.29,6.66-8.19c4.94-5.51,10.27-8.39,15.83-8.54,5.58-.15,10.24,2.4,13.19,4.58-1.1,2.28-1.7,4.78-1.7,7.38,0,4.54,1.77,8.81,4.98,12.02,3.21,3.21,7.48,4.98,12.03,4.98,2.6,0,5.11-.6,7.39-1.7,2.19,2.95,4.74,7.62,4.59,13.19-.15,5.56-3.03,10.88-8.54,15.82-4.91,4.39-8.19,6.66-8.19,6.66-3.85,2.68-6.04.48-6.76-.24-2.59-2.59-1.84-3.98-.29-6.22,1.54-2.22,3.81-5.29,4.11-5.7,1.94-2.33,4.13-7.98-1.17-13.06l-16.87-16.86c-5.11-5.32-10.76-3.13-13.09-1.19-.41.3-3.48,2.57-5.7,4.1-2.24,1.55-3.63,2.3-6.22-.29-.72-.72-2.92-2.91-.24-6.76Z"/>
  <path class="cls-1" d="M6.55,30.9c-2.48,3.43-5.3,8.76-5.13,15.2.18,6.59,3.46,12.78,9.74,18.41,5.08,4.55,8.54,6.93,8.54,6.93,1.86,1.3,3.76,1.94,5.57,1.94,2.1,0,4.1-.87,5.82-2.59,4.85-4.85,2.15-8.74.71-10.83-1.67-2.42-4.18-5.8-4.21-5.84-.02-.03-.05-.06-.07-.09-.35-.42-3.26-4.21.92-8.22l16.92-16.91c3.98-4.15,7.78-1.23,8.19-.9.03.03.06.05.1.08.03.03,3.42,2.53,5.84,4.2,2.09,1.45,5.98,4.14,10.84-.71,3.22-3.21,3.45-7.36.65-11.38,0,0-2.39-3.46-6.94-8.54-5.63-6.28-11.83-9.56-18.42-9.74-6.43-.18-11.78,2.65-15.21,5.13-.42-.54-.87-1.07-1.37-1.56-3.21-3.21-7.48-4.98-12.03-4.98s-8.81,1.77-12.03,4.98C1.77,8.7,0,12.97,0,17.51s1.77,8.81,4.98,12.02c.49.49,1.02.94,1.56,1.37ZM45.03,5.54c.16,0,.32,0,.48,0,5.56.15,10.88,3.02,15.83,8.54,4.4,4.9,6.66,8.19,6.66,8.19,2.68,3.85.48,6.04-.24,6.76-2.59,2.59-3.98,1.84-6.22.29-2.22-1.54-5.3-3.8-5.7-4.1-2.33-1.94-7.98-4.13-13.06,1.16l-16.87,16.86c-5.33,5.11-3.13,10.76-1.19,13.08.3.41,2.57,3.48,4.11,5.7,1.55,2.23,2.3,3.63-.29,6.22-.72.72-2.91,2.92-6.76.24,0,0-3.29-2.27-8.2-6.66-5.52-4.94-8.39-10.26-8.54-15.82-.15-5.57,2.4-10.23,4.59-13.19,2.28,1.1,4.78,1.7,7.39,1.7,4.54,0,8.81-1.77,12.03-4.98,3.21-3.21,4.98-7.48,4.98-12.02,0-2.6-.6-5.11-1.7-7.38,2.87-2.12,7.36-4.59,12.72-4.59ZM7.54,8.05c2.53-2.53,5.89-3.92,9.47-3.92s6.94,1.39,9.47,3.92c2.53,2.53,3.92,5.89,3.92,9.46s-1.39,6.93-3.92,9.46c-2.53,2.53-5.89,3.92-9.47,3.92s-6.94-1.39-9.47-3.92c-2.53-2.53-3.92-5.89-3.92-9.46s1.39-6.94,3.92-9.46Z"/>
  <path class="cls-1" d="M173.45,150.03c2.48-3.43,5.31-8.77,5.13-15.2-.18-6.59-3.46-12.78-9.74-18.41-5.08-4.55-8.54-6.93-8.54-6.93-4.03-2.8-8.18-2.56-11.39.65-4.85,4.85-2.15,8.74-.71,10.83,1.67,2.42,4.18,5.8,4.21,5.84.02.03.05.06.08.1.14.16,3.38,4.08-.92,8.21l-16.92,16.91c-3.98,4.15-7.78,1.23-8.19.9-.03-.03-.06-.05-.09-.07-.03-.03-3.42-2.53-5.84-4.2-2.09-1.45-5.98-4.14-10.84.71-3.22,3.21-3.45,7.36-.65,11.38,0,0,2.39,3.46,6.94,8.54,5.63,6.28,11.83,9.56,18.42,9.74.19,0,.38,0,.57,0,6.18,0,11.31-2.73,14.63-5.13.42.54.87,1.07,1.37,1.56,3.21,3.21,7.48,4.98,12.03,4.98s8.81-1.77,12.03-4.98c3.21-3.21,4.98-7.48,4.98-12.02s-1.77-8.81-4.98-12.02c-.49-.49-1.02-.94-1.56-1.37ZM134.49,175.38c-5.56-.15-10.88-3.02-15.83-8.54-4.4-4.9-6.66-8.19-6.66-8.19-2.68-3.85-.48-6.04.24-6.76,1.23-1.22,2.18-1.7,3.09-1.7,1.01,0,1.95.59,3.13,1.41,2.22,1.54,5.3,3.8,5.7,4.1,2.33,1.94,7.98,4.13,13.06-1.16l16.87-16.86c5.33-5.11,3.13-10.76,1.19-13.08-.3-.41-2.57-3.48-4.11-5.7-1.55-2.24-2.3-3.63.29-6.22.72-.72,2.91-2.91,6.76-.24,0,0,3.29,2.27,8.19,6.66,5.52,4.94,8.39,10.26,8.54,15.82.15,5.57-2.4,10.23-4.59,13.19-2.28-1.1-4.78-1.7-7.39-1.7-4.54,0-8.81,1.77-12.03,4.98-3.21,3.21-4.98,7.48-4.98,12.02,0,2.6.6,5.11,1.7,7.38-2.95,2.18-7.62,4.73-13.19,4.58ZM172.46,172.88c-2.53,2.53-5.89,3.92-9.47,3.92s-6.94-1.39-9.47-3.92c-2.53-2.53-3.92-5.89-3.92-9.46s1.39-6.93,3.92-9.46c2.53-2.53,5.89-3.92,9.47-3.92s6.94,1.39,9.47,3.92c2.53,2.53,3.92,5.89,3.92,9.46s-1.39,6.94-3.92,9.46Z"/>
</svg>