<?xml version="1.0" encoding="UTF-8"?>
<svg id="Virtual_Meetings_Communication" data-name="Virtual Meetings &amp;amp;Communication" xmlns="http://www.w3.org/2000/svg" viewBox="0 0 180 180">
  <defs>
    <style>
      .cls-1 {
        stroke: #000;
        stroke-miterlimit: 10;
        stroke-width: 2px;
      }
    </style>
  </defs>
  <path class="cls-1" d="M87.22,89.74c1.02,0,1.85-.79,1.85-1.76v-14.94c0-6.96-3.21-11.76-9.82-14.69h0c-1.57-.69-5.07-2.23-8.89-3.9,2.95-3.27,4.75-7.51,4.75-12.15,0-10.32-8.83-18.71-19.67-18.71s-19.67,8.39-19.67,18.71c0,4.64,1.8,8.88,4.75,12.15-3.81,1.67-7.32,3.21-8.89,3.9-6.61,2.93-9.82,7.74-9.82,14.69v14.94c0,.97.83,1.76,1.85,1.76h63.57ZM55.43,27.09c8.81,0,15.98,6.82,15.98,15.19s-7.17,15.19-15.98,15.19-15.98-6.82-15.98-15.19,7.17-15.19,15.98-15.19ZM25.5,73.04c0-7.18,4.11-9.92,7.69-11.51,1.74-.77,5.9-2.6,10.21-4.48,3.33,2.46,7.5,3.95,12.04,3.95s8.71-1.48,12.04-3.95c4.31,1.89,8.46,3.71,10.21,4.48h0c3.58,1.59,7.69,4.33,7.69,11.51v13.18h-10.75v-6.84c0-.97-.83-1.76-1.85-1.76s-1.85.79-1.85,1.76v6.84h-30.99v-6.84c0-.97-.83-1.76-1.85-1.76s-1.85.79-1.85,1.76v6.84h-10.75v-13.18Z"/>
  <path class="cls-1" d="M58.77,136.48c0-.97-.83-1.76-1.85-1.76H15.71c-6.43,0-11.66-4.97-11.66-11.09V19.48c0-6.11,5.23-11.09,11.66-11.09h148.57c6.43,0,11.66,4.97,11.66,11.09v68.24c0,.97.83,1.76,1.85,1.76s1.85-.79,1.85-1.76V19.48c0-8.05-6.89-14.6-15.35-14.6H15.71C7.24,4.87.35,11.43.35,19.48v104.16c0,8.05,6.89,14.6,15.35,14.6h41.21c1.02,0,1.85-.79,1.85-1.76Z"/>
  <path class="cls-1" d="M179.52,118c.07-14.87-14.84-19.22-22.8-19.44h-9.48c9.7-4.98,16.31-14.73,16.31-25.93,0-16.24-13.89-29.45-30.96-29.45s-30.96,13.21-30.96,29.45c0,11.2,6.61,20.95,16.31,25.93h-14.46c-17.32,0-22.04,18.97-22.07,19.09-2.39,8.31-7.23,20.99-8.32,23.81l-26.79,15.84c-2.47.91-4.45,2.66-5.57,4.95-1.15,2.35-1.28,4.99-.34,7.42,1.49,3.91,5.38,6.39,9.6,6.39.8,0,1.6-.09,2.41-.27,4.56-1.06,32.85-14.93,36.06-16.51.25-.12.47-.3.64-.52.37-.48,7.39-9.6,12.53-19.38v28.33c0,.97.83,1.76,1.85,1.76s1.85-.79,1.85-1.76v-36.83c0-.86-.65-1.59-1.54-1.73-.89-.15-1.76.34-2.05,1.15-3.92,10.67-13.67,23.82-15.36,26.06-12.47,6.12-31.75,15.3-34.84,16.02-3.24.74-6.54-.94-7.67-3.9-.59-1.55-.52-3.24.22-4.73.74-1.5,2.04-2.64,3.68-3.2.12-.04.24-.09.34-.16l27.49-16.25c.35-.21.61-.52.76-.88.06-.15,5.9-15.17,8.65-24.74.04-.16,4.08-16.43,18.48-16.43h53.2c.79.02,19.27.71,19.15,15.95,0,.04,0,.08,0,.12.02.33,1.82,31.26-10.43,39.88v-26.36c0-.97-.83-1.76-1.85-1.76s-1.85.79-1.85,1.76v36.03c0,.97.83,1.76,1.85,1.76s1.85-.79,1.85-1.76v-5.56c16.03-7.86,14.25-41.95,14.12-44.14ZM105.32,72.63c0-14.3,12.23-25.93,27.27-25.93s27.27,11.63,27.27,25.93-12.23,25.93-27.27,25.93-27.27-11.63-27.27-25.93Z"/>
  <path class="cls-1" d="M26.42,112.53c-1.02,0-1.85.79-1.85,1.76s.83,1.76,1.85,1.76h31.79c1.02,0,1.85-.79,1.85-1.76s-.83-1.76-1.85-1.76h-31.79Z"/>
  <path class="cls-1" d="M111.9,21.82c-1.02,0-1.85.79-1.85,1.76s.83,1.76,1.85,1.76h31.79c1.02,0,1.85-.79,1.85-1.76s-.83-1.76-1.85-1.76h-31.79Z"/>
</svg>