<?xml version="1.0" encoding="UTF-8"?>
<svg id="Virtual_Meetings_Communication" data-name="Virtual Meetings &amp;amp;Communication" xmlns="http://www.w3.org/2000/svg" viewBox="0 0 180 180">
  <defs>
    <style>
      .cls-1 {
        stroke: #000;
        stroke-miterlimit: 10;
        stroke-width: 2px;
      }
    </style>
  </defs>
  <path class="cls-1" d="M167.01,2.72H12.99C5.83,2.72,0,8.4,0,15.39v78.36C0,100.73,5.83,106.41,12.99,106.41c1.02,0,1.86-.81,1.86-1.81s-.83-1.81-1.86-1.81c-5.12,0-9.28-4.06-9.28-9.05V15.39c0-4.99,4.16-9.05,9.28-9.05h154.02c5.12,0,9.28,4.06,9.28,9.05v78.36c0,4.99-4.16,9.05-9.28,9.05-1.02,0-1.86.81-1.86,1.81s.83,1.81,1.86,1.81c7.16,0,12.99-5.68,12.99-12.66V15.39c0-6.98-5.83-12.66-12.99-12.66Z"/>
  <path class="cls-1" d="M56.23,71.42v15.38c0,1,.83,1.81,1.86,1.81h63.83c1.02,0,1.86-.81,1.86-1.81v-15.38c0-7.16-3.23-12.11-9.86-15.12-1.57-.71-5.09-2.3-8.92-4.02,2.96-3.37,4.77-7.73,4.77-12.51,0-10.62-8.86-19.26-19.75-19.26s-19.75,8.64-19.75,19.26c0,4.78,1.8,9.14,4.77,12.51-3.83,1.72-7.35,3.3-8.92,4.02-6.64,3.02-9.86,7.96-9.86,15.12ZM90,24.14c8.84,0,16.04,7.02,16.04,15.64s-7.2,15.64-16.04,15.64-16.04-7.02-16.04-15.64,7.2-15.64,16.04-15.64ZM77.91,54.97c3.35,2.54,7.54,4.06,12.09,4.06s8.75-1.53,12.09-4.06c4.33,1.94,8.5,3.82,10.25,4.61,3.59,1.63,7.72,4.46,7.72,11.84v13.57h-10.79v-7.04c0-1-.83-1.81-1.86-1.81s-1.86.81-1.86,1.81v7.04h-31.12v-7.04c0-1-.83-1.81-1.86-1.81s-1.86.81-1.86,1.81v7.04h-10.79v-13.57c0-7.39,4.12-10.21,7.72-11.84,1.75-.8,5.92-2.67,10.25-4.61Z"/>
  <path class="cls-1" d="M169.93,145.2c-1.62-.73-5.24-2.37-9.18-4.13,3.05-3.45,4.9-7.93,4.9-12.83,0-10.85-9.05-19.67-20.18-19.67s-20.18,8.82-20.18,19.67c0,4.9,1.85,9.38,4.9,12.83-3.94,1.77-7.56,3.4-9.18,4.13-1.2.55-2.28,1.17-3.26,1.84-.99-.68-2.08-1.29-3.29-1.84-1.62-.73-5.24-2.37-9.18-4.13,3.05-3.45,4.9-7.93,4.9-12.83,0-10.85-9.05-19.67-20.18-19.67s-20.18,8.82-20.18,19.67c0,4.9,1.85,9.38,4.9,12.83-3.94,1.77-7.56,3.4-9.18,4.13-1.21.55-2.3,1.16-3.29,1.84-.98-.67-2.06-1.29-3.26-1.84-1.62-.73-5.24-2.37-9.18-4.13,3.05-3.45,4.9-7.93,4.9-12.83,0-10.85-9.05-19.67-20.18-19.67s-20.18,8.82-20.18,19.67c0,4.9,1.85,9.38,4.9,12.83-3.94,1.77-7.56,3.4-9.18,4.13C3.29,148.28,0,153.33,0,160.65v15.74c0,1,.83,1.81,1.86,1.81h176.29c1.02,0,1.86-.81,1.86-1.81v-15.74c0-7.31-3.29-12.37-10.07-15.44ZM145.47,112.19c9.08,0,16.47,7.2,16.47,16.05s-7.39,16.05-16.47,16.05-16.47-7.2-16.47-16.05,7.39-16.05,16.47-16.05ZM90,112.19c9.08,0,16.47,7.2,16.47,16.05s-7.39,16.05-16.47,16.05-16.47-7.2-16.47-16.05,7.39-16.05,16.47-16.05ZM67.11,148.48c1.79-.81,6.07-2.74,10.5-4.73,3.42,2.6,7.72,4.16,12.39,4.16s8.97-1.56,12.39-4.16c4.43,1.99,8.71,3.91,10.5,4.73,3.69,1.68,7.93,4.57,7.93,12.17v13.94h-61.64v-13.94c0-7.59,4.24-10.49,7.93-12.17ZM34.53,112.19c9.08,0,16.47,7.2,16.47,16.05s-7.39,16.05-16.47,16.05-16.47-7.2-16.47-16.05,7.39-16.05,16.47-16.05ZM3.71,160.65c0-7.59,4.24-10.49,7.93-12.17,1.79-.81,6.07-2.74,10.5-4.73,3.42,2.6,7.72,4.16,12.39,4.16s8.97-1.56,12.39-4.16c4.43,1.99,8.71,3.91,10.5,4.73.65.29,1.31.63,1.97,1.02-2.63,2.88-3.92,6.57-3.92,11.14v13.94H3.71v-13.94ZM176.29,174.58h-51.76v-13.94c0-4.58-1.29-8.27-3.92-11.14.66-.39,1.32-.73,1.97-1.02,1.79-.81,6.07-2.74,10.5-4.73,3.42,2.6,7.72,4.16,12.39,4.16s8.97-1.56,12.39-4.16c4.43,1.99,8.71,3.91,10.5,4.73,3.69,1.68,7.93,4.57,7.93,12.17v13.94Z"/>
</svg>