<?xml version="1.0" encoding="UTF-8"?>
<svg id="Virtual_Meetings_Communication" data-name="Virtual Meetings &amp;amp;Communication" xmlns="http://www.w3.org/2000/svg" viewBox="0 0 180 180">
  <defs>
    <style>
      .cls-1 {
        stroke: #000;
        stroke-miterlimit: 10;
        stroke-width: 2px;
      }
    </style>
  </defs>
  <path class="cls-1" d="M80.49,85.64c.97,0,1.76-.79,1.76-1.76v-19.46c0-8.84-3.88-14.94-11.86-18.66-2.03-.95-6.69-3.1-11.67-5.39,3.87-4.24,6.24-9.88,6.24-16.06C64.97,11.16,54.27.46,41.13.46s-23.84,10.69-23.84,23.84c0,6.18,2.37,11.82,6.24,16.06-4.98,2.29-9.64,4.44-11.67,5.39C3.88,49.48,0,55.58,0,64.41v19.46c0,.97.79,1.76,1.76,1.76h78.73ZM41.13,3.99c11.2,0,20.31,9.11,20.31,20.31s-9.11,20.31-20.31,20.31-20.31-9.11-20.31-20.31S29.93,3.99,41.13,3.99ZM3.53,64.41c0-9.75,5.61-13.5,9.82-15.46,2.2-1.03,7.52-3.48,12.97-5.99,4.07,3.24,9.21,5.18,14.8,5.18s10.73-1.94,14.8-5.18c5.45,2.51,10.77,4.96,12.97,5.99h0c4.22,1.97,9.82,5.71,9.82,15.46v17.69h-14.36v-9.43c0-.97-.79-1.76-1.76-1.76s-1.76.79-1.76,1.76v9.43H21.41v-9.43c0-.97-.79-1.76-1.76-1.76s-1.76.79-1.76,1.76v9.43H3.53v-17.69Z"/>
  <path class="cls-1" d="M80.53,161h-5.29c-.97,0-1.76.79-1.76,1.76s.79,1.76,1.76,1.76h5.29c.97,0,1.76-.79,1.76-1.76s-.79-1.76-1.76-1.76Z"/>
  <path class="cls-1" d="M45.06,161h-10.06c-.97,0-1.76.79-1.76,1.76s.79,1.76,1.76,1.76h10.06c.97,0,1.76-.79,1.76-1.76s-.79-1.76-1.76-1.76Z"/>
  <path class="cls-1" d="M65.18,161h-10.06c-.97,0-1.76.79-1.76,1.76s.79,1.76,1.76,1.76h10.06c.97,0,1.76-.79,1.76-1.76s-.79-1.76-1.76-1.76Z"/>
  <path class="cls-1" d="M24.94,161h-3.53v-3.53c0-.97-.79-1.76-1.76-1.76s-1.76.79-1.76,1.76v5.29c0,.97.79,1.76,1.76,1.76h5.29c.97,0,1.76-.79,1.76-1.76s-.79-1.76-1.76-1.76Z"/>
  <path class="cls-1" d="M21.41,117.23c0-.97-.79-1.76-1.76-1.76s-1.76.79-1.76,1.76v10.06c0,.97.79,1.76,1.76,1.76s1.76-.79,1.76-1.76v-10.06Z"/>
  <path class="cls-1" d="M19.65,135.59c-.97,0-1.76.79-1.76,1.76v10.06c0,.97.79,1.76,1.76,1.76s1.76-.79,1.76-1.76v-10.06c0-.97-.79-1.76-1.76-1.76Z"/>
  <path class="cls-1" d="M21.41,101.88c0-.97-.79-1.76-1.76-1.76s-1.76.79-1.76,1.76v5.29c0,.97.79,1.76,1.76,1.76s1.76-.79,1.76-1.76v-5.29Z"/>
  <path class="cls-1" d="M79.44,26.14h27.18c3.58,0,3.8,1.32,4.15,3.31l.08.45c3.34,18.09,7.74,18.37,9.28,18.38,0,0,.02,0,.03,0,.06,0,.11,0,.17,0,6.01-.28,8.86-14.91,10.02-23.67,1.64-12.33,4.79-20.61,6.7-20.61s5.06,8.28,6.7,20.61c1.17,8.76,4.01,23.39,10.02,23.67.04,0,.08,0,.12,0,.02,0,.03,0,.06,0h.02c1.54,0,5.94-.28,9.28-18.38l.08-.45c.34-2,.57-3.31,4.15-3.31h9.53c.97,0,1.76-.79,1.76-1.76s-.79-1.76-1.76-1.76h-9.53c-6.55,0-7.28,4.22-7.63,6.25l-.07.41c-2.32,12.59-4.99,15.44-5.86,15.49-1.92-.09-5.04-8.35-6.67-20.61-1.18-8.84-4.07-23.67-10.2-23.67s-9.02,14.83-10.2,23.68c-1.63,12.26-4.76,20.52-6.67,20.61-.87-.05-3.54-2.9-5.86-15.49l-.07-.41c-.35-2.03-1.07-6.25-7.63-6.25h-27.18c-.97,0-1.76.79-1.76,1.76s.79,1.76,1.76,1.76Z"/>
  <path class="cls-1" d="M162.12,142.53c10.82-7.81,17.88-20.51,17.88-34.85,0-23.69-19.27-42.96-42.96-42.96s-42.96,19.27-42.96,42.96c0,14.33,7.06,27.04,17.88,34.85l-14.67,20.71c-.21.3-.32.65-.32,1.02v14.43c0,.97.79,1.76,1.76,1.76h76.61c.97,0,1.76-.79,1.76-1.76v-14.43c0-.37-.11-.72-.32-1.02l-14.67-20.71ZM97.62,107.69c0-21.74,17.69-39.43,39.43-39.43s39.43,17.69,39.43,39.43-17.69,39.43-39.43,39.43-39.43-17.69-39.43-39.43ZM100.5,176.93v-12.11l14.41-20.34c6.47,3.91,14.04,6.16,22.14,6.16s15.67-2.25,22.14-6.16l12.76,18.01h-51.91c-.97,0-1.76.79-1.76,1.76s.79,1.76,1.76,1.76h53.55v10.9h-73.08Z"/>
  <path class="cls-1" d="M159.29,107.69c0-12.27-9.98-22.25-22.25-22.25s-22.25,9.98-22.25,22.25,9.98,22.25,22.25,22.25,22.25-9.98,22.25-22.25ZM118.33,107.69c0-10.32,8.4-18.72,18.72-18.72s18.72,8.4,18.72,18.72-8.4,18.72-18.72,18.72-18.72-8.4-18.72-18.72Z"/>
  <path class="cls-1" d="M141.13,107.69c0-2.25-1.83-4.09-4.09-4.09s-4.09,1.83-4.09,4.09,1.83,4.09,4.09,4.09,4.09-1.83,4.09-4.09Z"/>
</svg>