<?xml version="1.0" encoding="UTF-8"?>
<svg id="Virtual_Meetings_Communication" data-name="Virtual Meetings &amp;amp;Communication" xmlns="http://www.w3.org/2000/svg" viewBox="0 0 180 180">
  <defs>
    <style>
      .cls-1 {
        stroke: #000;
        stroke-miterlimit: 10;
        stroke-width: 2px;
      }
    </style>
  </defs>
  <path class="cls-1" d="M18.52,76.17h54.86c1.05,0,1.9-.85,1.9-1.9v-13.55c0-6.44-2.83-10.89-8.66-13.61-1.31-.61-4.15-1.92-7.29-3.37,2.44-2.98,3.9-6.78,3.9-10.91,0-9.53-7.75-17.28-17.29-17.28s-17.29,7.75-17.29,17.28c0,4.14,1.47,7.94,3.9,10.91-3.14,1.45-5.99,2.76-7.29,3.37-5.82,2.71-8.65,7.16-8.65,13.61v13.55c0,1.05.85,1.9,1.9,1.9ZM45.95,19.36c7.43,0,13.48,6.04,13.48,13.47s-6.05,13.47-13.48,13.47-13.48-6.04-13.48-13.47,6.05-13.47,13.48-13.47ZM20.43,60.71c0-6.34,3.45-8.76,6.45-10.16,1.49-.69,4.99-2.31,8.64-3.99,2.9,2.21,6.51,3.53,10.43,3.53s7.53-1.33,10.43-3.53c3.65,1.68,7.15,3.29,8.64,3.99,3.01,1.4,6.45,3.82,6.45,10.16v11.65H20.43v-11.65Z"/>
  <path class="cls-1" d="M18.52,163.1h54.86c1.05,0,1.9-.85,1.9-1.9v-13.55c0-6.44-2.83-10.89-8.66-13.61-1.31-.61-4.15-1.92-7.29-3.37,2.43-2.98,3.9-6.78,3.9-10.91,0-9.53-7.75-17.28-17.29-17.28s-17.29,7.75-17.29,17.28c0,4.14,1.47,7.94,3.9,10.91-3.14,1.45-5.99,2.76-7.29,3.37-5.82,2.71-8.65,7.16-8.65,13.61v13.55c0,1.05.85,1.9,1.9,1.9ZM45.95,106.28c7.43,0,13.48,6.04,13.48,13.47s-6.05,13.47-13.48,13.47-13.48-6.04-13.48-13.47,6.05-13.47,13.48-13.47ZM20.43,147.64c0-6.34,3.45-8.76,6.45-10.16,1.49-.69,4.99-2.31,8.64-3.99,2.9,2.21,6.51,3.53,10.43,3.53s7.53-1.33,10.43-3.53c3.65,1.68,7.15,3.29,8.64,3.99,3.01,1.4,6.45,3.82,6.45,10.16v11.65H20.43v-11.65Z"/>
  <path class="cls-1" d="M154.73,47.11c-1.31-.61-4.15-1.92-7.29-3.37,2.44-2.98,3.9-6.78,3.9-10.91,0-9.53-7.75-17.28-17.29-17.28s-17.29,7.75-17.29,17.28c0,4.14,1.47,7.94,3.9,10.91-3.14,1.45-5.99,2.76-7.29,3.37-5.82,2.71-8.65,7.16-8.65,13.61v13.55c0,1.05.85,1.9,1.9,1.9h54.86c1.05,0,1.9-.85,1.9-1.9v-13.55c0-6.44-2.83-10.89-8.66-13.61ZM134.05,19.36c7.43,0,13.48,6.04,13.48,13.47s-6.05,13.47-13.48,13.47-13.48-6.04-13.48-13.47,6.05-13.47,13.48-13.47ZM159.57,72.36h-51.05v-11.65c0-6.34,3.45-8.76,6.45-10.16,1.49-.69,4.99-2.31,8.64-3.99,2.9,2.21,6.51,3.53,10.43,3.53s7.53-1.33,10.43-3.53c3.65,1.68,7.15,3.29,8.64,3.99,3.01,1.4,6.45,3.82,6.45,10.16v11.65Z"/>
  <path class="cls-1" d="M160.99,145.09l7.78-7.78c.46-.46.65-1.12.51-1.75-.14-.63-.59-1.15-1.2-1.38l-50.57-18.66c-.7-.26-1.48-.09-2.01.44-.53.53-.7,1.31-.44,2l18.67,50.54c.22.61.74,1.06,1.38,1.2.63.14,1.3-.05,1.75-.51l7.79-7.78,18.46,18.45c.37.37.86.56,1.35.56s.98-.19,1.35-.56l13.63-13.62c.36-.36.56-.84.56-1.35s-.2-.99-.56-1.35l-18.46-18.45ZM164.46,175.82l-18.46-18.45c-.37-.37-.86-.56-1.35-.56s-.98.19-1.35.56l-7.03,7.02-16.21-43.87,43.9,16.2-7.03,7.03c-.74.74-.74,1.95,0,2.69l18.46,18.45-10.94,10.93Z"/>
  <path class="cls-1" d="M166.67.51H13.33C5.98.51,0,6.49,0,13.84v153.25c0,7.35,5.98,13.33,13.33,13.33h111.92c1.05,0,1.9-.85,1.9-1.9s-.85-1.9-1.9-1.9h-33.35v-84.9h84.29v34c0,1.05.85,1.9,1.9,1.9s1.9-.85,1.9-1.9V13.84c0-7.35-5.98-13.33-13.33-13.33ZM13.33,4.32h74.76v83.58H3.81V13.84c0-5.25,4.27-9.52,9.52-9.52ZM88.1,176.61H13.33c-5.25,0-9.52-4.27-9.52-9.52v-75.39h84.29v84.9ZM91.91,87.89V4.32h74.76c5.25,0,9.52,4.27,9.52,9.52v74.06h-84.29Z"/>
</svg>