<?xml version="1.0" encoding="UTF-8"?>
<svg id="Virtual_Meetings_Communication" data-name="Virtual Meetings &amp;amp;Communication" xmlns="http://www.w3.org/2000/svg" viewBox="0 0 180 180">
  <defs>
    <style>
      .cls-1 {
        stroke: #000;
        stroke-miterlimit: 10;
        stroke-width: 2px;
      }
    </style>
  </defs>
  <path class="cls-1" d="M73.14,57.04c.63.75,1.74.84,2.49.21.75-.63.84-1.74.21-2.49-1.42-1.69-3.27-3.05-5.66-4.16-1.41-.66-4.51-2.09-7.91-3.65,2.71-3.21,4.23-7.28,4.23-11.52,0-9.85-8.02-17.87-17.87-17.87s-17.87,8.02-17.87,17.87c0,4.23,1.52,8.31,4.23,11.52-3.4,1.56-6.51,3-7.91,3.65-6.01,2.8-8.93,7.4-8.93,14.05v14.2c0,.97.79,1.76,1.76,1.76h35.5c.97,0,1.76-.79,1.76-1.76s-.79-1.76-1.76-1.76H21.67v-12.43c0-6.77,3.68-9.35,6.89-10.85,1.71-.8,5.96-2.76,10.17-4.69.54-.25.92-.76,1.01-1.35.09-.59-.13-1.18-.58-1.58-3.1-2.73-4.87-6.65-4.87-10.75,0-7.91,6.43-14.34,14.34-14.34s14.34,6.43,14.34,14.34c0,4.1-1.78,8.02-4.87,10.75-.45.39-.67.99-.58,1.58.09.59.47,1.1,1.01,1.35,4.21,1.94,8.45,3.89,10.17,4.69,1.91.89,3.37,1.95,4.45,3.24Z"/>
  <path class="cls-1" d="M55.4,94.18H9.71c-3.41,0-6.18-2.77-6.18-6.18V10.17c0-3.41,2.77-6.18,6.18-6.18h77.83c3.41,0,6.18,2.77,6.18,6.18v45.69c0,.97.79,1.76,1.76,1.76s1.76-.79,1.76-1.76V10.17c0-5.35-4.35-9.71-9.71-9.71H9.71C4.35.46,0,4.82,0,10.17v77.83C0,93.35,4.35,97.71,9.71,97.71h45.69c.97,0,1.76-.79,1.76-1.76s-.79-1.76-1.76-1.76Z"/>
  <path class="cls-1" d="M170.29,66.45h-94.6c-5.35,0-9.71,4.35-9.71,9.71v94.6c0,5.35,4.35,9.71,9.71,9.71h94.6c5.35,0,9.71-4.35,9.71-9.71v-94.6c0-5.35-4.35-9.71-9.71-9.71ZM176.47,170.76c0,3.41-2.77,6.18-6.18,6.18h-94.6c-3.41,0-6.18-2.77-6.18-6.18v-94.6c0-3.41,2.77-6.18,6.18-6.18h94.6c3.41,0,6.18,2.77,6.18,6.18v94.6Z"/>
  <path class="cls-1" d="M146.87,125.32h0c-1.59-.74-5.16-2.39-9.03-4.17,3-3.45,4.82-7.95,4.82-12.87,0-10.84-8.82-19.67-19.67-19.67s-19.67,8.82-19.67,19.67c0,4.92,1.82,9.42,4.82,12.87-3.87,1.78-7.44,3.43-9.03,4.17-6.6,3.08-9.81,8.13-9.81,15.44v15.78c0,.97.79,1.76,1.76,1.76h63.85c.97,0,1.76-.79,1.76-1.76v-15.78c0-7.31-3.21-12.36-9.81-15.44ZM122.99,92.14c8.9,0,16.14,7.24,16.14,16.14s-7.24,16.14-16.14,16.14-16.14-7.24-16.14-16.14,7.24-16.14,16.14-16.14ZM153.15,154.77h-10.98v-7.32c0-.97-.79-1.76-1.76-1.76s-1.76.79-1.76,1.76v7.32h-31.31v-7.32c0-.97-.79-1.76-1.76-1.76s-1.76.79-1.76,1.76v7.32h-10.98v-14.02c0-7.63,4.15-10.55,7.77-12.24,1.76-.82,5.95-2.75,10.29-4.75,3.34,2.61,7.54,4.18,12.1,4.18s8.76-1.56,12.1-4.18c4.34,2,8.53,3.93,10.29,4.75h0c3.62,1.69,7.77,4.6,7.77,12.24v14.02Z"/>
  <path class="cls-1" d="M54.07,149.55h-5.29c-.97,0-1.76.79-1.76,1.76s.79,1.76,1.76,1.76h5.29c.97,0,1.76-.79,1.76-1.76s-.79-1.76-1.76-1.76Z"/>
  <path class="cls-1" d="M39.03,149.55h-9.75c-.97,0-1.76.79-1.76,1.76s.79,1.76,1.76,1.76h9.75c.97,0,1.76-.79,1.76-1.76s-.79-1.76-1.76-1.76Z"/>
  <path class="cls-1" d="M19.54,149.55h-3.53v-3.53c0-.97-.79-1.76-1.76-1.76s-1.76.79-1.76,1.76v5.29c0,.97.79,1.76,1.76,1.76h5.29c.97,0,1.76-.79,1.76-1.76s-.79-1.76-1.76-1.76Z"/>
  <path class="cls-1" d="M12.48,136.27c0,.97.79,1.76,1.76,1.76s1.76-.79,1.76-1.76v-9.75c0-.97-.79-1.76-1.76-1.76s-1.76.79-1.76,1.76v9.75Z"/>
  <path class="cls-1" d="M14.25,118.55c.97,0,1.76-.79,1.76-1.76v-5.29c0-.97-.79-1.76-1.76-1.76s-1.76.79-1.76,1.76v5.29c0,.97.79,1.76,1.76,1.76Z"/>
  <path class="cls-1" d="M110.38,17.88h5.29c.97,0,1.76-.79,1.76-1.76s-.79-1.76-1.76-1.76h-5.29c-.97,0-1.76.79-1.76,1.76s.79,1.76,1.76,1.76Z"/>
  <path class="cls-1" d="M125.42,17.88h9.75c.97,0,1.76-.79,1.76-1.76s-.79-1.76-1.76-1.76h-9.75c-.97,0-1.76.79-1.76,1.76s.79,1.76,1.76,1.76Z"/>
  <path class="cls-1" d="M144.91,17.88h3.53v3.53c0,.97.79,1.76,1.76,1.76s1.76-.79,1.76-1.76v-5.29c0-.97-.79-1.76-1.76-1.76h-5.29c-.97,0-1.76.79-1.76,1.76s.79,1.76,1.76,1.76Z"/>
  <path class="cls-1" d="M151.97,31.15c0-.97-.79-1.76-1.76-1.76s-1.76.79-1.76,1.76v9.75c0,.97.79,1.76,1.76,1.76s1.76-.79,1.76-1.76v-9.75Z"/>
  <path class="cls-1" d="M150.21,48.88c-.97,0-1.76.79-1.76,1.76v5.29c0,.97.79,1.76,1.76,1.76s1.76-.79,1.76-1.76v-5.29c0-.97-.79-1.76-1.76-1.76Z"/>
</svg>