<?xml version="1.0" encoding="UTF-8"?>
<svg id="Virtual_Meetings_Communication" data-name="Virtual Meetings &amp;amp;Communication" xmlns="http://www.w3.org/2000/svg" viewBox="0 0 180 180">
  <defs>
    <style>
      .cls-1 {
        stroke: #000;
        stroke-miterlimit: 10;
        stroke-width: 2px;
      }
    </style>
  </defs>
  <path class="cls-1" d="M124.19,123.46v-39.15c0-.67-.36-1.29-.94-1.62-.58-.33-1.3-.32-1.87.03l-14.01,8.45v-.06c0-5.63-4.58-10.21-10.21-10.21h-31.15c-5.63,0-10.21,4.58-10.21,10.21v25.56c0,5.63,4.58,10.21,10.21,10.21h31.15c5.63,0,10.21-4.58,10.21-10.21v-.06l14.01,8.45c.29.18.63.27.96.27.31,0,.63-.08.91-.24.58-.33.94-.95.94-1.62ZM103.66,116.66c0,3.58-2.91,6.49-6.49,6.49h-31.15c-3.58,0-6.49-2.91-6.49-6.49v-25.56c0-3.58,2.91-6.49,6.49-6.49h31.15c3.58,0,6.49,2.91,6.49,6.49v25.56ZM120.48,120.17l-13.11-7.9v-16.77l13.11-7.9v32.58Z"/>
  <path class="cls-1" d="M48.73,152.13h0c-1.27-.59-4.05-1.87-7.11-3.28,2.37-2.9,3.8-6.61,3.8-10.64,0-9.29-7.55-16.84-16.84-16.84s-16.84,7.55-16.84,16.84c0,4.03,1.43,7.74,3.8,10.64-3.06,1.41-5.83,2.69-7.11,3.28C2.76,154.78,0,159.12,0,165.4v13.21c0,1.02.83,1.86,1.86,1.86h53.44c1.02,0,1.86-.83,1.86-1.86v-13.21c0-6.28-2.76-10.62-8.43-13.26ZM28.58,125.08c7.24,0,13.13,5.89,13.13,13.13s-5.89,13.13-13.13,13.13-13.13-5.89-13.13-13.13,5.89-13.13,13.13-13.13ZM53.45,176.75H3.71v-11.35c0-6.18,3.36-8.53,6.29-9.9,1.45-.68,4.86-2.25,8.42-3.89,2.83,2.15,6.34,3.44,10.16,3.44s7.33-1.29,10.16-3.44c3.56,1.64,6.97,3.21,8.42,3.89h0c2.93,1.36,6.29,3.72,6.29,9.9v11.35Z"/>
  <path class="cls-1" d="M171.57,152.13h0c-1.27-.59-4.05-1.87-7.11-3.28,2.37-2.9,3.8-6.61,3.8-10.64,0-9.29-7.55-16.84-16.84-16.84s-16.84,7.55-16.84,16.84c0,4.03,1.43,7.74,3.8,10.64-3.06,1.41-5.83,2.69-7.11,3.28-5.67,2.64-8.43,6.98-8.43,13.26v13.21c0,1.02.83,1.86,1.86,1.86h53.44c1.02,0,1.86-.83,1.86-1.86v-13.21c0-6.28-2.76-10.62-8.43-13.26ZM151.42,125.08c7.24,0,13.13,5.89,13.13,13.13s-5.89,13.13-13.13,13.13-13.13-5.89-13.13-13.13,5.89-13.13,13.13-13.13ZM176.29,176.75h-49.73v-11.35c0-6.18,3.36-8.53,6.29-9.9,1.45-.68,4.86-2.25,8.42-3.89,2.83,2.15,6.34,3.44,10.16,3.44s7.33-1.29,10.16-3.44c3.56,1.64,6.97,3.21,8.42,3.89h0c2.93,1.36,6.29,3.72,6.29,9.9v11.35Z"/>
  <path class="cls-1" d="M61.42,57.7c0,1.02.83,1.86,1.86,1.86h53.44c1.02,0,1.86-.83,1.86-1.86v-13.21c0-6.28-2.76-10.62-8.43-13.26-1.27-.59-4.05-1.87-7.11-3.28,2.37-2.9,3.8-6.61,3.8-10.64,0-9.29-7.55-16.84-16.84-16.84s-16.84,7.55-16.84,16.84c0,4.03,1.43,7.74,3.8,10.64-3.06,1.41-5.83,2.69-7.11,3.28-5.67,2.64-8.43,6.98-8.43,13.26v13.21ZM90,4.18c7.24,0,13.13,5.89,13.13,13.13s-5.89,13.13-13.13,13.13-13.13-5.89-13.13-13.13,5.89-13.13,13.13-13.13ZM65.13,44.49c0-6.18,3.36-8.53,6.29-9.9,1.45-.68,4.86-2.25,8.42-3.89,2.83,2.15,6.34,3.44,10.16,3.44s7.33-1.29,10.16-3.44c3.56,1.64,6.96,3.21,8.42,3.89,2.93,1.36,6.29,3.72,6.29,9.9v11.35h-49.73v-11.35Z"/>
  <path class="cls-1" d="M111.71,164.61h-43.42c-1.02,0-1.86.83-1.86,1.86s.83,1.86,1.86,1.86h43.42c1.02,0,1.86-.83,1.86-1.86s-.83-1.86-1.86-1.86Z"/>
  <path class="cls-1" d="M1.86,126.87c1.02,0,1.86-.83,1.86-1.86V19.16h55.85c1.02,0,1.86-.83,1.86-1.86s-.83-1.86-1.86-1.86H1.86C.83,15.45,0,16.28,0,17.31v107.71c0,1.02.83,1.86,1.86,1.86Z"/>
  <path class="cls-1" d="M120.43,19.16h55.85v105.85c0,1.02.83,1.86,1.86,1.86s1.86-.83,1.86-1.86V17.31c0-.49-.2-.96-.54-1.31-.35-.35-.82-.54-1.31-.54h-57.71c-1.02,0-1.86.83-1.86,1.86s.83,1.86,1.86,1.86Z"/>
</svg>