<?xml version="1.0" encoding="UTF-8"?>
<svg id="Virtual_Meetings_Communication" data-name="Virtual Meetings &amp;amp;Communication" xmlns="http://www.w3.org/2000/svg" viewBox="0 0 180 180">
  <defs>
    <style>
      .cls-1 {
        stroke: #000;
        stroke-miterlimit: 10;
        stroke-width: 2px;
      }
    </style>
  </defs>
  <path class="cls-1" d="M62.93,78.96h54.13c1,0,1.81-.81,1.81-1.81v-13.38c0-6.33-2.78-10.7-8.5-13.37h0c-1.3-.61-4.15-1.92-7.28-3.36,2.43-2.94,3.89-6.7,3.89-10.8,0-9.37-7.62-16.99-16.99-16.99s-16.99,7.62-16.99,16.99c0,4.1,1.46,7.86,3.89,10.8-3.13,1.44-5.98,2.76-7.28,3.36-5.72,2.67-8.5,7.04-8.5,13.37v13.38c0,1,.81,1.81,1.81,1.81ZM90,22.87c7.37,0,13.37,6,13.37,13.37s-6,13.37-13.37,13.37-13.37-6-13.37-13.37,6-13.37,13.37-13.37ZM64.74,63.77c0-6.3,3.43-8.7,6.41-10.09,1.48-.69,4.95-2.29,8.56-3.95,2.86,2.18,6.42,3.5,10.28,3.5s7.42-1.31,10.28-3.5c3.62,1.67,7.09,3.27,8.56,3.95h0c2.98,1.39,6.41,3.79,6.41,10.09v11.57h-8.68v-5.89c0-1-.81-1.81-1.81-1.81s-1.81.81-1.81,1.81v5.89h-25.92v-5.89c0-1-.81-1.81-1.81-1.81s-1.81.81-1.81,1.81v5.89h-8.68v-11.57Z"/>
  <path class="cls-1" d="M178.19,118.05h-15.76V51.42c0-1-.81-1.81-1.81-1.81h-21.98V10.41c0-5.49-4.46-9.95-9.95-9.95H51.31c-5.49,0-9.95,4.46-9.95,9.95v39.2h-21.98c-1,0-1.81.81-1.81,1.81v66.63H1.81C.81,118.05,0,118.86,0,119.86v58.79c0,1,.81,1.81,1.81,1.81h176.38c1,0,1.81-.81,1.81-1.81v-58.79c0-1-.81-1.81-1.81-1.81ZM158.81,53.23v64.82h-67v-20.3h36.89c5.49,0,9.95-4.46,9.95-9.95v-34.57h20.17ZM44.97,10.41c0-3.49,2.84-6.33,6.33-6.33h77.39c3.49,0,6.33,2.84,6.33,6.33v77.39c0,3.49-2.84,6.33-6.33,6.33H51.31c-3.49,0-6.33-2.84-6.33-6.33V10.41ZM21.19,53.23h20.17v34.57c0,5.49,4.46,9.95,9.95,9.95h36.89v20.3H21.19V53.23ZM3.62,121.67h55.18v55.18H3.62v-55.18ZM62.41,121.67h55.18v55.18h-55.18v-55.18ZM176.38,176.84h-55.18v-55.18h55.18v55.18Z"/>
</svg>