<?xml version="1.0" encoding="UTF-8"?>
<svg id="Virtual_Meetings_Communication" data-name="Virtual Meetings &amp;amp;Communication" xmlns="http://www.w3.org/2000/svg" viewBox="0 0 180 180">
  <defs>
    <style>
      .cls-1 {
        stroke: #000;
        stroke-miterlimit: 10;
        stroke-width: 2px;
      }
    </style>
  </defs>
  <path class="cls-1" d="M113.91,148.15c-1.57-.71-5.09-2.3-8.92-4.02,2.96-3.37,4.77-7.73,4.77-12.51,0-10.62-8.86-19.26-19.75-19.26s-19.75,8.64-19.75,19.26c0,4.78,1.8,9.14,4.77,12.51-3.83,1.72-7.35,3.3-8.92,4.02-6.64,3.02-9.86,7.96-9.86,15.12v15.38c0,1,.83,1.81,1.86,1.81h63.83c1.02,0,1.86-.81,1.86-1.81v-15.38c0-7.16-3.23-12.11-9.86-15.12ZM90,115.99c8.84,0,16.04,7.02,16.04,15.64s-7.2,15.64-16.04,15.64-16.04-7.02-16.04-15.64,7.2-15.64,16.04-15.64ZM120.06,176.84h-10.79v-7.04c0-1-.83-1.81-1.86-1.81s-1.86.81-1.86,1.81v7.04h-31.12v-7.04c0-1-.83-1.81-1.86-1.81s-1.86.81-1.86,1.81v7.04h-10.79v-13.57c0-7.39,4.12-10.21,7.72-11.84,1.75-.8,5.92-2.67,10.25-4.61,3.35,2.54,7.54,4.06,12.09,4.06s8.75-1.53,12.09-4.06c4.33,1.94,8.5,3.82,10.25,4.61,3.59,1.63,7.72,4.45,7.72,11.84v13.57Z"/>
  <path class="cls-1" d="M49.73,20.34c10.76-10.49,25.06-16.26,40.27-16.26s29.52,5.78,40.27,16.26c.36.35.84.53,1.31.53s.95-.18,1.31-.53c.72-.71.72-1.85,0-2.56C121.44,6.61,106.2.46,90,.46s-31.44,6.15-42.9,17.32c-.72.71-.72,1.85,0,2.56.72.71,1.9.71,2.62,0Z"/>
  <path class="cls-1" d="M118.46,32.76c.47,0,.95-.18,1.31-.53.72-.71.72-1.85,0-2.56-7.95-7.75-18.53-12.02-29.78-12.02s-21.82,4.27-29.78,12.02c-.73.71-.73,1.85,0,2.56.72.71,1.9.71,2.62,0,7.25-7.07,16.9-10.96,27.15-10.96s19.9,3.89,27.15,10.96c.36.35.84.53,1.31.53Z"/>
  <path class="cls-1" d="M73.35,41.56c-.72.71-.72,1.85,0,2.56.36.35.84.53,1.31.53s.95-.18,1.31-.53c7.74-7.54,20.33-7.54,28.06,0,.72.71,1.9.71,2.62,0s.72-1.85,0-2.56c-9.18-8.95-24.13-8.95-33.31,0Z"/>
  <path class="cls-1" d="M166.08,68.8h-35.48v-9.02c0-1-.83-1.81-1.86-1.81H51.25c-1.02,0-1.86.81-1.86,1.81v9.02H13.92C6.24,68.8,0,74.88,0,82.36v96.29c0,1,.83,1.81,1.86,1.81s1.86-.81,1.86-1.81v-96.29c0-5.49,4.58-9.95,10.21-9.95h35.48v10.85H16.7c-1.02,0-1.86.81-1.86,1.81v93.58c0,1,.83,1.81,1.86,1.81s1.86-.81,1.86-1.81v-91.77h30.84v9.02c0,1,.83,1.81,1.86,1.81h77.5c1.02,0,1.86-.81,1.86-1.81v-9.02h30.84v91.77c0,1,.83,1.81,1.86,1.81s1.86-.81,1.86-1.81v-93.58c0-1-.83-1.81-1.86-1.81h-32.69v-10.85h35.48c5.63,0,10.21,4.46,10.21,9.95v96.29c0,1,.83,1.81,1.86,1.81s1.86-.81,1.86-1.81v-96.29c0-7.48-6.24-13.57-13.92-13.57ZM126.9,94.1H53.1v-32.52h73.79v32.52Z"/>
  <path class="cls-1" d="M90,88.7c6.14,0,11.13-4.87,11.13-10.85s-4.99-10.85-11.13-10.85-11.13,4.87-11.13,10.85,4.99,10.85,11.13,10.85ZM90,70.6c4.09,0,7.42,3.25,7.42,7.24s-3.33,7.24-7.42,7.24-7.42-3.25-7.42-7.24,3.33-7.24,7.42-7.24Z"/>
</svg>