<?xml version="1.0" encoding="UTF-8"?>
<svg id="Layer_1" data-name="Layer 1" xmlns="http://www.w3.org/2000/svg" viewBox="0 0 180 180">
  <defs>
    <style>
      .cls-1 {
        stroke-width: 2px;
      }

      .cls-1, .cls-2 {
        stroke: #000;
        stroke-miterlimit: 10;
      }
    </style>
  </defs>
  <g>
    <path class="cls-1" d="M38.44,147.51c-3.49,0-6.32-2.84-6.32-6.32s2.84-6.32,6.32-6.32,6.32,2.84,6.32,6.32-2.84,6.32-6.32,6.32ZM38.44,136.6c-2.53,0-4.6,2.06-4.6,4.6s2.06,4.6,4.6,4.6,4.6-2.06,4.6-4.6-2.06-4.6-4.6-4.6Z"/>
    <path class="cls-1" d="M41.14,131.08h-5.39c-.43,0-.8-.32-.85-.75-.52-3.91-3.79-27.13-3.79-28.5,0-4.05,3.29-7.34,7.34-7.34s7.34,3.29,7.34,7.34c0,1.37-3.27,24.59-3.79,28.5-.06.43-.42.75-.85.75ZM36.5,129.35h3.88c.5-3.73,3.67-26.27,3.67-27.53,0-3.1-2.52-5.61-5.61-5.61s-5.61,2.52-5.61,5.61c0,1.25,3.17,23.8,3.67,27.53Z"/>
    <path class="cls-1" d="M38.44,178.92c-20.8,0-37.73-16.92-37.73-37.73,0-7.68,2.31-15.08,6.67-21.39,4.26-6.16,10.17-10.89,17.1-13.66.44-.18.94.04,1.12.48.18.44-.04.94-.48,1.12-13.78,5.51-22.68,18.64-22.68,33.45,0,19.85,16.15,36,36,36s36-16.15,36-36c0-14.81-8.9-27.94-22.68-33.45-.44-.18-.66-.68-.48-1.12.18-.44.68-.66,1.12-.48,6.93,2.77,12.84,7.49,17.1,13.66,4.36,6.31,6.67,13.71,6.67,21.39,0,20.8-16.92,37.73-37.73,37.73Z"/>
    <path class="cls-1" d="M38.44,163.59c-12.35,0-22.4-10.05-22.4-22.4,0-7.76,3.93-14.85,10.51-18.98.4-.25.94-.13,1.19.27.25.4.13.94-.27,1.19-6.08,3.81-9.7,10.36-9.7,17.52,0,11.4,9.27,20.68,20.68,20.68s20.68-9.27,20.68-20.68c0-7.16-3.63-13.71-9.7-17.52-.4-.25-.52-.79-.27-1.19.25-.4.79-.52,1.19-.27,6.58,4.13,10.51,11.23,10.51,18.98,0,12.35-10.05,22.4-22.4,22.4Z"/>
  </g>
  <g>
    <path class="cls-2" d="M128.92,35.13c16.04,11.42,26.28,29.13,28.09,48.59.1,1.07,1,1.89,2.07,1.89h18.58c.58,0,1.13-.24,1.53-.66.39-.42.59-.99.55-1.57-2.01-27.45-16.28-52.15-39.15-67.76-.48-.33-1.07-.44-1.64-.31-.56.13-1.05.49-1.34.99l-9.29,16.1c-.54.93-.28,2.12.6,2.74ZM140.08,20.34c20.13,14.5,32.88,36.55,35.31,61.1h-14.44c-2.32-19.3-12.45-36.83-28.09-48.59l7.22-12.51Z"/>
    <path class="cls-2" d="M2.3,85.6h18.58c1.08,0,1.97-.82,2.07-1.89,3.18-34.23,32.62-61.04,67.02-61.04,9.76,0,19.2,2.07,28.06,6.15.98.45,2.14.08,2.67-.85l9.29-16.1c.29-.5.36-1.1.19-1.65-.17-.55-.56-1.01-1.08-1.26C116.85,3.02,103.68,0,89.98,0,43.07,0,3.65,36.62.23,83.37c-.04.58.16,1.15.55,1.57.39.42.95.66,1.53.66ZM89.98,4.16c12.31,0,24.17,2.55,35.29,7.59l-7.22,12.51c-8.9-3.82-18.34-5.76-28.07-5.76-17.9,0-35.04,6.68-48.26,18.8-12.66,11.61-20.68,27.22-22.71,44.13H4.57C8.91,37.93,45.99,4.16,89.98,4.16Z"/>
    <path class="cls-2" d="M179.23,94.24c-.39-.42-.94-.66-1.52-.66h-55.94c-1.15,0-2.08.93-2.08,2.08s.93,2.08,2.08,2.08h53.69c-3.93,43.97-41.06,78.09-85.48,78.09-1.15,0-2.08.93-2.08,2.08s.93,2.08,2.08,2.08c47.36,0,86.81-36.99,89.81-84.21.04-.57-.17-1.14-.56-1.56Z"/>
    <path class="cls-2" d="M134.21,62.67c-.64-.95-1.94-1.2-2.89-.56l-27.56,18.65c-3.34-3.88-8.27-6.35-13.78-6.35-10.03,0-18.19,8.16-18.19,18.19s8.16,18.19,18.19,18.19,18.19-8.16,18.19-18.19c0-3.03-.75-5.88-2.07-8.4l27.55-18.64c.95-.64,1.2-1.94.56-2.89ZM89.98,106.62c-7.73,0-14.03-6.29-14.03-14.03s6.29-14.03,14.03-14.03,14.03,6.29,14.03,14.03-6.29,14.03-14.03,14.03Z"/>
  </g>
</svg>