<?xml version="1.0" encoding="UTF-8"?>
<svg id="Layer_1" data-name="Layer 1" xmlns="http://www.w3.org/2000/svg" viewBox="0 0 180 180">
  <defs>
    <style>
      .cls-1 {
        fill: none;
      }

      .cls-1, .cls-2, .cls-3, .cls-4 {
        stroke: #000;
        stroke-miterlimit: 10;
      }

      .cls-2 {
        stroke-linecap: round;
        stroke-width: 4px;
      }

      .cls-3 {
        stroke-width: 2px;
      }

      .cls-4 {
        stroke-width: .5px;
      }
    </style>
  </defs>
  <g>
    <g>
      <path class="cls-3" d="M93.47,102.72c.47.27.88.35,1.07.94l1.31,6.92,4.03,1.52,5.67-3.88,1.42.02c1.35,1.7,3.73,3.3,4.98,4.99.37.5.48.9.27,1.52l-3.78,5.5c-.37.59.32,1.31.56,1.89.14.36.78,2.24.9,2.32l6.83,1.3c.58.27.77.63.83,1.24.15,1.69.16,5.1,0,6.79-.05.5-.14.79-.56,1.1l-7.16,1.49c-.24.62-.4,1.29-.66,1.9-.29.7-1.03,1.74-.74,2.4l3.75,5.53c.22.42-.01.97-.25,1.34-.34.53-4.27,4.45-4.84,4.85s-1.05.49-1.67.14l-5.59-3.82-4,1.49-1.34,6.9-1.04.97h-7.06c-.5-.21-.97-.4-1.18-.97-.68-1.79-.6-4.65-1.21-6.54-.05-.14-.04-.31-.19-.39l-3.69-1.48-5.9,3.92c-.98.32-1.66-.6-2.29-1.18-.98-.89-3.08-2.82-3.8-3.81-.36-.49-.61-1.09-.29-1.67l3.86-5.68-1.53-3.89-6.89-1.34-.97-1.04v-7.2c.26-.46.52-.91,1.07-1.07l6.78-1.31,1.52-3.89-3.88-5.67c-.25-.65-.16-1.09.24-1.63.55-.74,4.05-4.27,4.77-4.78.45-.32.97-.48,1.49-.23l5.68,3.88,4.02-1.73,1.26-6.77c.23-.55.62-.67,1.12-.89h7.06ZM92.49,105.08h-5.25c-.32,1.85-.49,4.03-1.01,5.83-.57,1.98-2.1,1.99-3.83,2.67-1.49.6-1.84,1.38-3.56.5-1.59-.81-3.22-2.31-4.76-3.28h-.27s-3.59,3.6-3.59,3.6c.99,1.57,2.58,3.28,3.4,4.9.87,1.7-.09,2.65-.71,4.17-.49,1.19-.61,2.65-1.98,3.15-1.77.64-4.38.7-6.26,1.14v5.26c1.9.38,4.21.52,6.04,1.09,1.71.53,1.61,1.78,2.2,3.2.54,1.3,1.63,2.66.86,4.05l-3.32,4.86-.04.37,3.49,3.45c.46.08,4.69-3.62,6.09-3.71.83-.06,2.27.81,3.1,1.16,1.28.55,2.64.53,3.12,2.14.43,1.43.75,3.8,1.01,5.35.04.25.01.5.02.74l5.25-.02c.46-1.85.57-3.96,1.08-5.77.56-2.01,1.75-1.79,3.37-2.45,1.26-.51,2.58-1.59,3.93-.88l4.94,3.38h.4s3.47-3.33,3.47-3.33l-.08-.33c-.93-1.54-2.49-3.17-3.3-4.72-.87-1.66.18-2.75.81-4.28.52-1.26.47-2.61,1.98-3.15,1.78-.64,4.38-.7,6.26-1.14v-5.26c-1.89-.38-4.23-.52-6.04-1.09s-1.6-1.77-2.2-3.2c-.35-.84-1.25-2.25-1.17-3.1.75-2.23,2.66-4.02,3.73-6.11l-3.53-3.64c-.3,0-4.22,3-5.01,3.41-1.81.93-2.55-.05-4.2-.73-1.36-.56-2.71-.48-3.28-2.12-.62-1.78-.67-4.25-1.15-6.11Z"/>
      <path class="cls-3" d="M103.43,130.39c0,7.42-6.01,13.43-13.43,13.43s-13.43-6.01-13.43-13.43,6.01-13.43,13.43-13.43,13.43,6.01,13.43,13.43ZM101.12,130.39c0-6.14-4.97-11.11-11.11-11.11s-11.11,4.97-11.11,11.11,4.97,11.11,11.11,11.11,11.11-4.97,11.11-11.11Z"/>
    </g>
    <path class="cls-4" d="M165.21,31.65L134.29.61c-.39-.39-.92-.61-1.47-.61H25.48c-6.23,0-11.29,5.09-11.29,11.34v157.33c0,6.25,5.07,11.34,11.29,11.34h129.05c6.23,0,11.29-5.09,11.29-11.34V33.12c0-.55-.22-1.08-.61-1.47ZM134.9,7.11l23.84,23.93h-23.84V7.11ZM161.67,112.91v55.76c0,3.95-3.2,7.17-7.14,7.17H25.48c-3.94,0-7.14-3.22-7.14-7.17V11.34c0-3.95,3.2-7.17,7.14-7.17h105.28v28.96c0,1.15.93,2.08,2.07,2.08h28.84v77.7Z"/>
  </g>
  <g>
    <path d="M109.89,61.99c-12.45-.08-24.92.12-37.35-.1-1.97-.57-2.85-2.8-1.75-4.58,1.08-1.74,3.11-1.34,4.87-1.35,10.08-.06,20.22.04,30.32,0,.98-.07,1.52-.59,1.64-1.57l3.55-21.01c0-.79-.5-1.52-1.32-1.59h-5.46s0,0,0,0h-26.87s0,0,0,0h-2.67s-.01,0-.01,0h-3.21c-.39-1.51-.39-3.21-.72-4.72-.15-.7-.54-1.24-1.31-1.31-3.26.19-6.79-.24-10.02,0-1.86.14-1.87,2.84.13,3.02,2.61.23,5.55-.17,8.19,0l.17.03,3.6,24.3-.05.1c-3.28.98-5.08,4.48-3.96,7.75.72,2.1,2.84,3.83,5.08,4.02h5.21l-1.41,1.11c-3.61,4.06.29,10.29,5.55,8.76,3.36-.98,4.86-5.03,2.99-7.99-.49-.77-1.21-1.36-1.95-1.88h14.73c-1.04.69-1.92,1.57-2.39,2.75-1.33,3.34,1,7.1,4.58,7.34,5.02.33,7.7-5.6,4.2-9.17l-1.21-.91h6.91s.36-.13.43-.16c1.3-.61.98-2.61-.43-2.85ZM74.81,34.81h33.02l-3.07,18.11-30.13.03-2.62-18.14h2.8ZM80.47,72.06c-1.3,0-2.36-1.05-2.36-2.36s1.05-2.36,2.36-2.36,2.36,1.05,2.36,2.36-1.05,2.36-2.36,2.36ZM100.42,72.06c-1.3,0-2.36-1.05-2.36-2.36s1.05-2.36,2.36-2.36,2.36,1.05,2.36,2.36-1.05,2.36-2.36,2.36Z"/>
    <path class="cls-1" d="M109.89,61.99c-12.45-.08-24.92.12-37.35-.1-1.97-.57-2.85-2.8-1.75-4.58,1.08-1.74,3.11-1.34,4.87-1.35,10.08-.06,20.22.04,30.32,0,.98-.07,1.52-.59,1.64-1.57l3.55-21.01c0-.79-.5-1.52-1.32-1.59h-5.46s0,0,0,0h-26.87s0,0,0,0h-2.67s-.01,0-.01,0h-3.21c-.39-1.51-.39-3.21-.72-4.72-.15-.7-.54-1.24-1.31-1.31-3.26.19-6.79-.24-10.02,0-1.86.14-1.87,2.84.13,3.02,2.61.23,5.55-.17,8.19,0l.17.03,3.6,24.3-.05.1c-3.28.98-5.08,4.48-3.96,7.75.72,2.1,2.84,3.83,5.08,4.02h5.21l-1.41,1.11c-3.61,4.06.29,10.29,5.55,8.76,3.36-.98,4.86-5.03,2.99-7.99-.49-.77-1.21-1.36-1.95-1.88h14.73c-1.04.69-1.92,1.57-2.39,2.75-1.33,3.34,1,7.1,4.58,7.34,5.02.33,7.7-5.6,4.2-9.17l-1.21-.91h6.91s.36-.13.43-.16c1.3-.61.98-2.61-.43-2.85ZM74.81,34.81h33.02l-3.07,18.11-30.13.03-2.62-18.14h2.8ZM80.47,72.06c-1.3,0-2.36-1.05-2.36-2.36s1.05-2.36,2.36-2.36,2.36,1.05,2.36,2.36-1.05,2.36-2.36,2.36ZM100.42,72.06c-1.3,0-2.36-1.05-2.36-2.36s1.05-2.36,2.36-2.36,2.36,1.05,2.36,2.36-1.05,2.36-2.36,2.36Z"/>
  </g>
  <line class="cls-2" x1="29.22" y1="105.07" x2="55.84" y2="105.07"/>
  <line class="cls-2" x1="124" y1="105.07" x2="150.62" y2="105.07"/>
  <line class="cls-2" x1="29.22" y1="119.28" x2="55.84" y2="119.28"/>
  <line class="cls-2" x1="124" y1="119.28" x2="150.62" y2="119.28"/>
</svg>