<?xml version="1.0" encoding="UTF-8"?>
<svg id="Layer_1" data-name="Layer 1" xmlns="http://www.w3.org/2000/svg" viewBox="0 0 180 180">
  <defs>
    <style>
      .cls-1 {
        stroke: #000;
        stroke-miterlimit: 10;
        stroke-width: 3px;
      }
    </style>
  </defs>
  <g>
    <path class="cls-1" d="M130.48,76.65h-13.02v-23.84c0-5.52-4.49-10-10-10h-56.65c-5.52,0-10,4.49-10,10v41.21c0,5.52,4.49,10,10,10h.08l7.32,13.21c.17.31.49.5.84.5s.67-.19.84-.5l7.32-13.21h5.95v16.7c0,4.81,3.91,8.72,8.72,8.72h34.44l6.24,11.26c.17.31.49.5.84.5s.67-.19.84-.5l6.24-11.26c4.8,0,8.71-3.91,8.71-8.72v-35.35c0-4.81-3.91-8.72-8.72-8.72ZM66.65,102.09c-.35,0-.67.19-.84.5l-6.75,12.18-6.75-12.18c-.17-.31-.49-.5-.84-.5h-.65c-4.45,0-8.07-3.62-8.07-8.07v-41.21c0-4.45,3.62-8.07,8.07-8.07h56.65c4.45,0,8.07,3.62,8.07,8.07v41.21c0,4.45-3.62,8.07-8.07,8.07h-40.81ZM137.27,120.72c0,3.74-3.05,6.79-6.79,6.79h-.56c-.35,0-.67.19-.84.5l-5.67,10.23-5.67-10.23c-.17-.31-.49-.5-.84-.5h-35.01c-3.74,0-6.79-3.05-6.79-6.79v-16.7h32.36c5.52,0,10-4.49,10-10v-15.44h13.02c3.74,0,6.79,3.05,6.79,6.79v35.35Z"/>
    <path class="cls-1" d="M59.39,64.39h5.56c.53,0,.96-.43.96-.96s-.43-.96-.96-.96h-5.56c-.53,0-.96.43-.96.96s.43.96.96.96Z"/>
    <path class="cls-1" d="M98.87,62.46h-25.95c-.53,0-.96.43-.96.96s.43.96.96.96h25.95c.53,0,.96-.43.96-.96s-.43-.96-.96-.96Z"/>
    <path class="cls-1" d="M98.87,72.45h-5.56c-.53,0-.96.43-.96.96s.43.96.96.96h5.56c.53,0,.96-.43.96-.96s-.43-.96-.96-.96Z"/>
    <path class="cls-1" d="M86.31,73.41c0-.53-.43-.96-.96-.96h-25.95c-.53,0-.96.43-.96.96s.43.96.96.96h25.95c.53,0,.96-.43.96-.96Z"/>
    <path class="cls-1" d="M64.95,82.44h-5.56c-.53,0-.96.43-.96.96s.43.96.96.96h5.56c.53,0,.96-.43.96-.96s-.43-.96-.96-.96Z"/>
    <path class="cls-1" d="M98.87,82.44h-25.95c-.53,0-.96.43-.96.96s.43.96.96.96h25.95c.53,0,.96-.43.96-.96s-.43-.96-.96-.96Z"/>
  </g>
  <path d="M157.5,32.14h-8c-12.77,0-25.2-4.5-35.01-12.68L92.06.75c-1.19-1-2.93-1-4.12,0l-22.47,18.73c-9.8,8.17-22.23,12.66-34.98,12.66h-7.98c-1.78,0-3.21,1.44-3.21,3.21v65.46c0,20.47,10.17,39.46,27.2,50.81l41.74,27.82c.54.36,1.16.54,1.78.54s1.24-.18,1.78-.54l41.74-27.82c17.03-11.35,27.2-30.35,27.2-50.81V35.36c0-1.78-1.44-3.21-3.21-3.21ZM154.29,100.82c0,18.31-9.1,35.31-24.33,45.47l-39.95,26.64-39.95-26.64c-15.24-10.16-24.33-27.15-24.33-45.47v-62.25h4.77c14.26,0,28.14-5.03,39.1-14.16l20.42-17.02,20.37,17c10.96,9.14,24.85,14.18,39.12,14.18h4.79v62.25Z"/>
</svg>