<?xml version="1.0" encoding="UTF-8"?>
<svg id="Layer_1" data-name="Layer 1" xmlns="http://www.w3.org/2000/svg" viewBox="0 0 180 180">
  <defs>
    <style>
      .cls-1 {
        fill: #231f20;
        stroke: #231f20;
        stroke-miterlimit: 10;
        stroke-width: 3px;
      }
    </style>
  </defs>
  <g>
    <path class="cls-1" d="M93.74,130.55c-.71,0-1.41-.26-1.96-.8l-5.32-5.2c-.54-.52-.83-1.22-.84-1.97,0-.75.27-1.46.8-1.99l33.27-34.07c1.08-1.1,2.86-1.13,3.96-.05l5.32,5.2c.54.52.84,1.22.84,1.97,0,.75-.27,1.46-.8,1.99l-33.27,34.07c-.55.56-1.28.84-2,.84ZM121.68,87.69c-.21,0-.42.08-.57.24l-33.27,34.07c-.15.15-.23.35-.23.57,0,.21.09.41.24.56l5.32,5.2h0c.32.31.83.3,1.13-.01l33.27-34.07c.15-.15.23-.36.23-.57,0-.21-.09-.41-.24-.56l-5.32-5.2c-.16-.15-.36-.23-.56-.23Z"/>
    <path class="cls-1" d="M123.76,153.08c-1.26,0-2.52-.47-3.49-1.42l-24.24-23.67c-.19-.19-.3-.44-.3-.7,0-.27.1-.52.28-.71l29.86-30.58c.39-.39,1.02-.4,1.41-.02l24.24,23.67c1.97,1.93,2.01,5.1.08,7.07l-24.27,24.86c-.98,1-2.28,1.5-3.58,1.5ZM98.14,127.25l23.53,22.97c1.18,1.15,3.09,1.13,4.24-.05l24.27-24.86c1.16-1.18,1.13-3.09-.05-4.24l-23.53-22.97-28.47,29.15Z"/>
    <path class="cls-1" d="M147.49,154.39c-.25,0-.5-.09-.7-.28l-11.94-11.66c-.4-.39-.4-1.02-.02-1.41.39-.4,1.02-.4,1.41-.02l11.94,11.66c.4.39.4,1.02.02,1.41-.2.2-.46.3-.72.3Z"/>
    <path class="cls-1" d="M112.84,95.96c-.25,0-.5-.09-.7-.28l-13.8-13.48c-.4-.39-.4-1.02-.02-1.41.39-.39,1.02-.4,1.41-.02l13.8,13.48c.4.39.4,1.02.02,1.41-.2.2-.46.3-.72.3Z"/>
    <path class="cls-1" d="M94.68,114.57c-.25,0-.5-.09-.7-.28l-13.8-13.48c-.4-.39-.4-1.02-.02-1.41s1.02-.4,1.41-.02l13.8,13.48c.4.39.4,1.02.02,1.41-.2.2-.46.3-.72.3Z"/>
    <path class="cls-1" d="M57.65,94.61c-.75,0-1.45-.29-1.98-.81l-5.27-5.24c-.53-.53-.82-1.23-.83-1.98,0-.75.29-1.45.81-1.98l33.58-33.76c.53-.53,1.23-.82,1.98-.83.72.04,1.45.29,1.98.82h0l5.27,5.24c.53.53.82,1.23.83,1.98,0,.75-.29,1.45-.82,1.98l-33.58,33.76c-.53.53-1.23.82-1.98.83h0ZM85.96,52.01c-.21,0-.41.08-.57.24l-33.58,33.76c-.15.15-.23.35-.23.57,0,.21.08.42.24.57l5.27,5.24c.15.15.35.23.56.23h0c.21,0,.42-.08.57-.24l33.58-33.76c.15-.15.23-.35.23-.57,0-.21-.08-.41-.24-.57l-5.27-5.24c-.16-.16-.36-.23-.57-.23Z"/>
    <path class="cls-1" d="M52.82,84.57c-.25,0-.51-.1-.71-.29l-24.02-23.89c-1.96-1.94-1.96-5.12-.02-7.07l24.5-24.64c1.94-1.96,5.12-1.96,7.07-.02l24.02,23.89c.19.19.29.44.29.71,0,.27-.1.52-.29.71l-30.15,30.31c-.2.2-.45.29-.71.29ZM56.12,29.21c-.77,0-1.54.29-2.13.88l-24.5,24.64c-1.17,1.17-1.16,3.08.01,4.24l23.31,23.19,28.73-28.89-23.31-23.19c-.58-.58-1.35-.87-2.12-.87Z"/>
    <path class="cls-1" d="M153.91,147.81c-.25,0-.5-.09-.7-.28l-11.94-11.66c-.4-.39-.4-1.02-.02-1.41.39-.39,1.02-.4,1.41-.02l11.94,11.66c.4.39.4,1.02.02,1.41-.2.2-.46.3-.72.3Z"/>
    <path class="cls-1" d="M37.79,45.96c-.25,0-.51-.1-.71-.29l-11.83-11.77c-.39-.39-.39-1.02,0-1.41s1.02-.39,1.41,0l11.83,11.77c.39.39.39,1.02,0,1.41-.2.2-.45.29-.71.29Z"/>
    <path class="cls-1" d="M44.27,39.45c-.25,0-.51-.1-.71-.29l-11.83-11.77c-.39-.39-.39-1.02,0-1.41s1.02-.39,1.41,0l11.83,11.77c.39.39.39,1.02,0,1.41-.2.2-.45.29-.71.29Z"/>
  </g>
  <path class="cls-1" d="M19.42,39.69L.22,20.49c-.29-.29-.29-.77,0-1.07L19.42.22c.29-.29.77-.29,1.07,0l19.2,19.2c.29.29.29.77,0,1.07l-19.2,19.2c-.29.29-.77.29-1.07,0ZM1.82,19.96l18.14,18.14,18.14-18.14L19.96,1.82,1.82,19.96Z"/>
  <path class="cls-1" d="M159.51,179.78l-19.2-19.2c-.29-.29-.29-.77,0-1.07l19.2-19.2c.29-.29.77-.29,1.07,0l19.2,19.2c.29.29.29.77,0,1.07l-19.2,19.2c-.29.29-.77.29-1.07,0ZM141.9,160.04l18.14,18.14,18.14-18.14-18.14-18.14-18.14,18.14Z"/>
</svg>