<?xml version="1.0" encoding="UTF-8"?>
<svg id="Layer_1" data-name="Layer 1" xmlns="http://www.w3.org/2000/svg" viewBox="0 0 180 180">
  <defs>
    <style>
      .cls-1 {
        stroke: #000;
        stroke-miterlimit: 10;
        stroke-width: 2px;
      }
    </style>
  </defs>
  <path class="cls-1" d="M167.09,67.57c-1.05,0-2.06.14-3.04.38l-10.24-26.01c7.32-3.59,12.38-11.13,12.38-19.82C166.19,9.95,156.29.05,144.12.05s-22.08,9.9-22.08,22.06,9.9,22.06,22.08,22.06c2.23,0,4.38-.34,6.41-.95l10.24,26c-3.93,2.22-6.59,6.42-6.59,11.24,0,.48.03.95.08,1.42l-40.33,10.18c-2.96-8.7-11.21-14.97-20.9-14.97-8.13,0-15.24,4.42-19.07,10.97l-48.76-23.37c.4-1.24.62-2.56.62-3.93,0-1.86-.41-3.63-1.12-5.23l38.09-23.61c2.37,2.85,5.94,4.67,9.93,4.67,7.12,0,12.91-5.79,12.91-12.9s-5.79-12.9-12.91-12.9-12.91,5.79-12.91,12.9c0,1.86.41,3.63,1.12,5.23l-38.09,23.61c-2.37-2.85-5.94-4.67-9.93-4.67C5.79,47.86,0,53.65,0,60.76s5.79,12.9,12.91,12.9c4.49,0,8.45-2.31,10.76-5.79l48.76,23.37c-.95,2.46-1.48,5.13-1.48,7.92,0,12.17,9.9,22.06,22.08,22.06,2.93,0,5.73-.58,8.29-1.62l18.48,36.82c-3.38,2.33-5.6,6.22-5.6,10.63,0,7.12,5.79,12.9,12.91,12.9s12.91-5.79,12.91-12.9-5.79-12.9-12.91-12.9c-1.45,0-2.85.25-4.15.7l-18.48-36.82c6.37-3.87,10.63-10.88,10.63-18.86,0-1.25-.11-2.48-.31-3.67l40.33-10.18c1.92,4.72,6.55,8.07,11.96,8.07,7.12,0,12.91-5.79,12.91-12.9s-5.79-12.9-12.91-12.9ZM125.57,22.11c0-10.22,8.32-18.54,18.55-18.54s18.55,8.32,18.55,18.54-8.32,18.54-18.55,18.54-18.55-8.32-18.55-18.54ZM72.72,14.32c5.17,0,9.38,4.21,9.38,9.38s-4.21,9.38-9.38,9.38-9.38-4.21-9.38-9.38,4.21-9.38,9.38-9.38ZM12.91,70.14c-5.17,0-9.38-4.21-9.38-9.38s4.21-9.38,9.38-9.38,9.38,4.21,9.38,9.38c0,5.17-4.21,9.38-9.38,9.38ZM136.49,167.05c0,5.17-4.21,9.38-9.38,9.38s-9.38-4.21-9.38-9.38,4.21-9.38,9.38-9.38,9.38,4.21,9.38,9.38ZM93.03,117.7c-10.23,0-18.55-8.32-18.55-18.54s8.32-18.54,18.55-18.54,18.55,8.32,18.55,18.54-8.32,18.54-18.55,18.54ZM167.09,89.84c-5.17,0-9.38-4.21-9.38-9.38s4.21-9.38,9.38-9.38,9.38,4.21,9.38,9.38-4.21,9.38-9.38,9.38Z"/>
</svg>