<?xml version="1.0" encoding="UTF-8"?>
<svg id="Layer_1" data-name="Layer 1" xmlns="http://www.w3.org/2000/svg" viewBox="0 0 180 180">
  <defs>
    <style>
      .cls-1 {
        stroke: #000;
        stroke-miterlimit: 10;
        stroke-width: 2px;
      }
    </style>
  </defs>
  <path d="M157.01,44.49s0,0,0,0c-13.47-10.98-35.89-24.13-66.23-24.35-.27,0-.53,0-.8,0-30.6,0-53.29,13.21-66.97,24.35-3.18,2.59-5.01,6.42-5.01,10.53s1.83,7.94,5.01,10.54c13.69,11.14,36.38,24.34,66.97,24.34.26,0,.53,0,.8,0,30.35-.23,52.77-13.37,66.23-24.36,3.17-2.58,4.99-6.42,4.99-10.51s-1.82-7.93-4.99-10.52ZM26.8,60.88c-1.78-1.45-2.8-3.59-2.8-5.88s1.02-4.43,2.79-5.88c9.53-7.75,23.69-16.56,42.01-20.66-7.63,6.32-12.51,15.87-12.51,26.53s4.87,20.21,12.5,26.53c-18.32-4.1-32.48-12.9-42.01-20.65ZM90.76,83.45c-15.69,0-28.45-12.76-28.45-28.45s12.76-28.45,28.45-28.45,28.45,12.76,28.45,28.45-12.76,28.45-28.45,28.45ZM153.22,60.87c-9.11,7.43-22.57,15.89-39.98,20.18,7.31-6.32,11.96-15.64,11.96-26.04s-4.65-19.72-11.96-26.04c17.4,4.29,30.86,12.74,39.97,20.17,1.77,1.44,2.79,3.58,2.79,5.87s-1.02,4.42-2.78,5.87ZM90.76,40.02c-8.26,0-14.98,6.72-14.98,14.98s6.72,14.98,14.98,14.98,14.97-6.72,14.97-14.98-6.72-14.98-14.97-14.98ZM90.76,63.98c-4.95,0-8.98-4.03-8.98-8.98s4.03-8.98,8.98-8.98,8.97,4.03,8.97,8.98-4.03,8.98-8.97,8.98Z"/>
  <g>
    <path class="cls-1" d="M173.85,165.52h-26.84c-.91-5.98-6.07-10.57-12.3-10.57s-11.39,4.6-12.3,10.57H6.44c-1.04,0-1.89.85-1.89,1.89s.85,1.89,1.89,1.89h115.96c.91,5.98,6.07,10.57,12.3,10.57s11.39-4.6,12.3-10.57h26.84c1.04,0,1.89-.85,1.89-1.89s-.85-1.89-1.89-1.89ZM134.71,176.1c-4.79,0-8.68-3.9-8.68-8.69s3.9-8.68,8.68-8.68,8.68,3.9,8.68,8.68-3.9,8.69-8.68,8.69Z"/>
    <path class="cls-1" d="M174.46,137.69H58.5c-.91-5.98-6.07-10.57-12.3-10.57s-11.39,4.6-12.3,10.57H7.05c-1.04,0-1.89.85-1.89,1.89s.85,1.89,1.89,1.89h26.84c.91,5.98,6.08,10.57,12.3,10.57s11.39-4.6,12.3-10.57h115.96c1.04,0,1.89-.85,1.89-1.89s-.85-1.89-1.89-1.89ZM46.2,148.26c-4.79,0-8.69-3.9-8.69-8.69s3.9-8.68,8.69-8.68,8.69,3.9,8.69,8.68-3.9,8.69-8.69,8.69Z"/>
    <path class="cls-1" d="M175.07,109.85h-26.84c-.91-5.98-6.07-10.57-12.3-10.57s-11.39,4.6-12.3,10.57H7.66c-1.04,0-1.89.85-1.89,1.89s.85,1.89,1.89,1.89h115.96c.91,5.98,6.08,10.57,12.3,10.57s11.39-4.6,12.3-10.57h26.84c1.04,0,1.89-.85,1.89-1.89s-.85-1.89-1.89-1.89ZM135.92,120.42c-4.79,0-8.69-3.9-8.69-8.68s3.9-8.69,8.69-8.69,8.69,3.9,8.69,8.69-3.9,8.68-8.69,8.68Z"/>
  </g>
</svg>