<?xml version="1.0" encoding="UTF-8"?>
<svg id="Layer_1" data-name="Layer 1" xmlns="http://www.w3.org/2000/svg" viewBox="0 0 180 180">
  <defs>
    <style>
      .cls-1 {
        fill: #010101;
        stroke: #010101;
        stroke-miterlimit: 10;
        stroke-width: 3px;
      }
    </style>
  </defs>
  <path d="M157.5,32.14h-8c-12.77,0-25.2-4.5-35.01-12.68L92.06.75c-1.19-1-2.93-1-4.12,0l-22.47,18.73c-9.8,8.17-22.23,12.66-34.98,12.66h-7.98c-1.78,0-3.21,1.44-3.21,3.21v65.46c0,20.47,10.17,39.46,27.2,50.81l41.74,27.82c.54.36,1.16.54,1.78.54s1.24-.18,1.78-.54l41.74-27.82c17.03-11.35,27.2-30.35,27.2-50.81V35.36c0-1.78-1.44-3.21-3.21-3.21ZM154.29,100.82c0,18.31-9.1,35.31-24.33,45.47l-39.95,26.64-39.95-26.64c-15.24-10.16-24.33-27.15-24.33-45.47v-62.25h4.77c14.26,0,28.14-5.03,39.1-14.16l20.42-17.02,20.37,17c10.96,9.14,24.85,14.18,39.12,14.18h4.79v62.25Z"/>
  <g>
    <path class="cls-1" d="M129.07,130.1s-.08,0-.12,0c-1.44-.03-2.86-.61-3.98-1.63l-34.98-31.7c-2.37-2.15-2.74-5.62-.82-7.75.95-1.05,2.3-1.59,3.8-1.58,1.44.03,2.86.61,3.99,1.63l34.98,31.7c1.13,1.02,1.84,2.37,2.01,3.81.18,1.49-.25,2.89-1.2,3.94-.93,1.02-2.23,1.58-3.68,1.58ZM92.86,89.68c-.81,0-1.53.3-2.03.85-1.09,1.21-.8,3.26.66,4.58l34.98,31.7c.73.66,1.62,1.03,2.53,1.05.84.02,1.59-.28,2.1-.84.51-.56.74-1.33.64-2.17-.11-.9-.57-1.75-1.29-2.41l-34.98-31.7c-.73-.66-1.62-1.03-2.53-1.05-.02,0-.05,0-.07,0Z"/>
    <path class="cls-1" d="M74.81,95.28c-2.1,0-4.1-.77-5.67-2.19l-6.68-6.05c-1.68-1.52-2.66-3.6-2.77-5.86-.11-2.26.66-4.42,2.18-6.1l11.04-12.19c3.13-3.46,8.5-3.72,11.95-.59l6.68,6.05c3.46,3.13,3.72,8.5.59,11.96h0l-11.04,12.19c-1.52,1.68-3.6,2.66-5.86,2.77-.14,0-.28.01-.43.01ZM79.19,62.36c-1.7,0-3.39.69-4.61,2.04l-11.04,12.19c-2.3,2.54-2.11,6.49.43,8.79l6.68,6.05c2.54,2.3,6.49,2.11,8.79-.43l11.05-12.19c2.3-2.54,2.11-6.49-.43-8.79l-6.68-6.05c-1.19-1.08-2.68-1.61-4.18-1.61Z"/>
  </g>
  <path class="cls-1" d="M112.37,66.58c-.17-1.43-.89-2.78-2.01-3.81l-7.13-6.47h0s-13.25-12.01-13.25-12.01c-1.13-1.02-2.54-1.6-3.99-1.63-1.51,0-2.85.53-3.8,1.58-1.92,2.12-1.56,5.6.82,7.75l13.73,12.45h0s6.65,6.03,6.65,6.03c1.13,1.02,2.54,1.6,3.98,1.63.04,0,.08,0,.12,0,1.45,0,2.76-.56,3.68-1.58.95-1.05,1.38-2.45,1.2-3.94ZM109.51,69.02c-.51.56-1.25.86-2.1.84-.9-.02-1.8-.39-2.53-1.05l-7.14-6.47h0s-13.25-12.01-13.25-12.01c-1.46-1.32-1.75-3.38-.66-4.58.5-.55,1.21-.85,2.03-.85.02,0,.05,0,.07,0,.9.02,1.8.39,2.53,1.05l13.74,12.45h0s6.65,6.03,6.65,6.03c.73.66,1.19,1.52,1.29,2.41.1.84-.13,1.61-.64,2.17Z"/>
  <path class="cls-1" d="M73.14,108.28c-.17-1.43-.89-2.78-2.01-3.81l-7.13-6.47h0s-13.25-12.01-13.25-12.01c-1.13-1.02-2.54-1.6-3.99-1.63-1.51,0-2.85.53-3.8,1.58-1.92,2.12-1.56,5.6.82,7.75l13.73,12.45h0s6.65,6.03,6.65,6.03c1.13,1.02,2.54,1.6,3.98,1.63.04,0,.08,0,.12,0,1.45,0,2.76-.56,3.68-1.58.95-1.05,1.38-2.45,1.2-3.94ZM70.28,110.71c-.51.56-1.25.86-2.1.84-.9-.02-1.8-.39-2.53-1.05l-7.14-6.47h0s-13.25-12.01-13.25-12.01c-1.46-1.32-1.75-3.38-.66-4.58.5-.55,1.21-.85,2.03-.85.02,0,.05,0,.07,0,.9.02,1.8.39,2.53,1.05l13.74,12.45h0s6.65,6.03,6.65,6.03c.73.66,1.19,1.52,1.29,2.41.1.84-.13,1.61-.64,2.17Z"/>
</svg>