<?xml version="1.0" encoding="UTF-8"?>
<svg id="Layer_1" data-name="Layer 1" xmlns="http://www.w3.org/2000/svg" viewBox="0 0 180 180">
  <defs>
    <style>
      .cls-1 {
        stroke: #000;
        stroke-miterlimit: 10;
        stroke-width: 2px;
      }
    </style>
  </defs>
  <g>
    <path class="cls-1" d="M110.98,39.88c-16.82-16.89-44.2-16.89-61.03,0s-16.83,44.38,0,61.27c16.36,16.42,42.68,16.87,59.6,1.36l11.99,12.04c-3.04,4.38-2.63,10.47,1.26,14.37l38.08,38.23c4.37,4.38,11.47,4.38,15.84,0,4.37-4.38,4.37-11.52,0-15.9l-38.08-38.23c-3.89-3.91-9.95-4.32-14.31-1.27l-11.99-12.04c15.45-16.98,15-43.41-1.36-59.83ZM52.75,98.35c-15.29-15.35-15.29-40.32,0-55.67,15.29-15.35,40.16-15.35,55.45,0,15.29,15.35,15.29,40.32,0,55.67s-40.16,15.35-55.45,0ZM135.86,115.82l38.08,38.23c2.83,2.84,2.83,7.46,0,10.3-2.83,2.84-7.43,2.84-10.26,0l-38.08-38.23c-2.83-2.84-2.83-7.46,0-10.3s7.43-2.84,10.26,0Z"/>
    <path class="cls-1" d="M64.79,51.97c-.77-.77-2.02-.77-2.79,0-10.19,10.23-10.19,26.87,0,37.09.77.77,2.02.77,2.79,0s.77-2.03,0-2.8c-8.65-8.68-8.65-22.81,0-31.49.77-.77.77-2.03,0-2.8Z"/>
  </g>
  <g>
    <path class="cls-1" d="M67.16,140.02h-16.09c-4.99,0-9.06-4.08-9.06-9.09,0-1.15-.93-2.08-2.07-2.08s-2.07.93-2.07,2.08c0,5.01-4.06,9.09-9.06,9.09-1.15,0-2.07.93-2.07,2.08s.93,2.08,2.07,2.08c4.67,0,8.78-2.45,11.13-6.13,2.35,3.68,6.46,6.13,11.13,6.13h16.09c1.15,0,2.07-.93,2.07-2.08s-.93-2.08-2.07-2.08Z"/>
    <path class="cls-1" d="M110.76,140.02h-13.74c-1.15,0-2.07.93-2.07,2.08s.93,2.08,2.07,2.08h13.74c1.14,0,2.07-.93,2.07-2.08s-.93-2.08-2.07-2.08Z"/>
  </g>
  <g>
    <path class="cls-1" d="M121.82,96.75h-11.71c-1.31,1.49-2.73,2.88-4.24,4.16h15.95c1.15,0,2.07-.93,2.07-2.08s-.93-2.08-2.07-2.08Z"/>
    <path class="cls-1" d="M50.82,96.75h-22.46c-1.15,0-2.07.93-2.07,2.08s.93,2.08,2.07,2.08h26.7c-1.52-1.28-2.93-2.67-4.24-4.16Z"/>
  </g>
  <g>
    <path class="cls-1" d="M41.38,76.39h-13.01c-1.15,0-2.07.93-2.07,2.08s.93,2.08,2.07,2.08h13.86c-.35-1.36-.64-2.75-.84-4.16Z"/>
    <path class="cls-1" d="M121.82,76.39h-2.26c-.21,1.41-.49,2.8-.84,4.16h3.11c1.15,0,2.07-.93,2.07-2.08s-.93-2.08-2.07-2.08Z"/>
  </g>
  <g>
    <path class="cls-1" d="M121.82,56.03h-4.56c.53,1.35.99,2.74,1.37,4.16h3.19c1.15,0,2.07-.93,2.07-2.08s-.93-2.08-2.07-2.08Z"/>
    <path class="cls-1" d="M43.68,56.03h-15.31c-1.15,0-2.07.93-2.07,2.08s.93,2.08,2.07,2.08h13.94c.38-1.42.84-2.81,1.37-4.16Z"/>
  </g>
  <path class="cls-1" d="M146.76,161.38v7.28c0,3.95-3.2,7.17-7.14,7.17H10.57c-3.94,0-7.14-3.22-7.14-7.17V11.34c0-3.95,3.2-7.17,7.14-7.17h105.28v28.96c0,1.15.93,2.08,2.07,2.08h28.84v77.7l4.15,4.16V33.12c0-.55-.22-1.08-.61-1.47L119.39.61c-.39-.39-.92-.61-1.47-.61H10.57C4.34,0-.72,5.09-.72,11.34v157.33c0,6.25,5.07,11.34,11.29,11.34h129.05c6.23,0,11.29-5.09,11.29-11.34v-3.11l-4.15-4.16ZM119.99,7.11l23.84,23.93h-23.84V7.11Z"/>
</svg>