<?xml version="1.0" encoding="UTF-8"?>
<svg id="Layer_1" data-name="Layer 1" xmlns="http://www.w3.org/2000/svg" viewBox="0 0 180 180">
  <defs>
    <style>
      .cls-1 {
        stroke: #000;
        stroke-miterlimit: 10;
        stroke-width: 4px;
      }
    </style>
  </defs>
  <path d="M179.95,55.01c-.51-3.92-4.19-8.21-8.04-9.16-1.07-.26-3.24-.09-3.73-.67-1.28-7.03-5.21-10.68-12.38-11.22l-57.11-.08c-.88-.25-1.59-.75-2.3-1.3-6.24-4.81-16.46-19.61-23.82-20.57l-63.05.07C4.29,13.11.84,16.98.01,22.18v137.2c.29,4.41,3.72,8.24,8.18,8.6h161.2c5.72-.5,10.11-4.9,10.6-10.6l-.05-102.36ZM12.06,55.82l-.03,103.15c-.31,3.4-4.41,4.14-5.83,1.01l-.19-136.61c.06-2.37,1.43-4.36,3.68-5.11l62.5-.25c1.06.18,2.19,1.11,3.03,1.77,5.22,4.12,15.87,18.04,21.1,19.69.88.28,1.75.45,2.67.53h32.52c8.51-.3,16.99-.54,25.09-.02,2.99.32,4.97,2.23,5.4,5.2H23.41c-5.61,0-10.93,5.09-11.36,10.64ZM169.79,161.96H17.61c.01-.89.39-1.69.42-2.58,1.14-34.03-.9-68.7-.02-102.8.08-1.61,1.62-4.34,3.18-4.82l148.21-.2c2.81,0,4.53,2.85,4.6,5.4v99.62c.4,2.05-2.35,5.38-4.22,5.38Z"/>
  <g>
    <path class="cls-1" d="M123.33,154.32h-55c-3.16,0-5.73-2.57-5.73-5.73v-45.83c0-3.16,2.57-5.73,5.73-5.73h55c3.16,0,5.73,2.57,5.73,5.73v45.83c0,3.16-2.57,5.73-5.73,5.73ZM68.33,99.32c-1.9,0-3.44,1.54-3.44,3.44v45.83c0,1.9,1.54,3.44,3.44,3.44h55c1.9,0,3.44-1.54,3.44-3.44v-45.83c0-1.9-1.54-3.44-3.44-3.44h-55Z"/>
    <path class="cls-1" d="M119.89,99.32h-48.12v-14.9c0-13.27,10.79-24.06,24.06-24.06s24.06,10.79,24.06,24.06v14.9ZM74.06,97.03h43.54v-12.6c0-12-9.77-21.77-21.77-21.77s-21.77,9.77-21.77,21.77v12.6Z"/>
    <rect class="cls-1" x="94.68" y="130.26" width="2.29" height="4.58"/>
    <rect class="cls-1" x="94.68" y="121.09" width="2.29" height="9.17"/>
  </g>
  <circle class="cls-1" cx="95.83" cy="121.09" r="3.63"/>
</svg>