<?xml version="1.0" encoding="UTF-8"?>
<svg id="Layer_1" data-name="Layer 1" xmlns="http://www.w3.org/2000/svg" viewBox="0 0 180 180">
  <defs>
    <style>
      .cls-1 {
        stroke-width: 2px;
      }

      .cls-1, .cls-2, .cls-3, .cls-4 {
        stroke: #000;
        stroke-miterlimit: 10;
      }

      .cls-3 {
        stroke-width: .75px;
      }

      .cls-4 {
        stroke-width: .5px;
      }
    </style>
  </defs>
  <path class="cls-4" d="M157.5,32.14h-8c-12.77,0-25.2-4.5-35.01-12.68L92.06.75c-1.19-1-2.93-1-4.12,0l-22.47,18.73c-9.8,8.17-22.23,12.66-34.98,12.66h-7.98c-1.78,0-3.21,1.44-3.21,3.21v65.46c0,20.47,10.17,39.46,27.2,50.81l41.74,27.82c.54.36,1.16.54,1.78.54s1.24-.18,1.78-.54l41.74-27.82c17.03-11.35,27.2-30.35,27.2-50.81V35.36c0-1.78-1.44-3.21-3.21-3.21ZM154.29,100.82c0,18.31-9.1,35.31-24.33,45.47l-39.95,26.64-39.95-26.64c-15.24-10.16-24.33-27.15-24.33-45.47v-62.25h4.77c14.26,0,28.14-5.03,39.1-14.16l20.42-17.02,20.37,17c10.96,9.14,24.85,14.18,39.12,14.18h4.79v62.25Z"/>
  <path class="cls-3" d="M90,53.6l-47.55,27.81,18.16,44.99h58.78l18.16-44.99-47.55-27.81ZM115.61,121.72h-51.22l-15.83-39.21,41.44-24.23,41.44,24.23-15.83,39.21Z"/>
  <path class="cls-2" d="M90,64.53l-33.27,19.46,12.71,31.48h41.13l12.71-31.48-33.27-19.46ZM107.92,112.2h-35.84l-11.08-27.44,29-16.96,29,16.96-11.08,27.44Z"/>
  <path class="cls-1" d="M90,73.78l-21.19,12.39,8.09,20.05h26.19l8.09-20.05-21.19-12.39ZM101.41,104.13h-22.82l-7.05-17.47,18.46-10.8,18.46,10.8-7.05,17.47Z"/>
</svg>