<?xml version="1.0" encoding="UTF-8"?>
<svg id="Layer_1" data-name="Layer 1" xmlns="http://www.w3.org/2000/svg" viewBox="0 0 180 180">
  <defs>
    <style>
      .cls-1 {
        stroke: #000;
        stroke-miterlimit: 10;
        stroke-width: 2px;
      }
    </style>
  </defs>
  <g>
    <path class="cls-1" d="M151.02,9.98h-46.5c-2.45-5.6-8.03-9.52-14.52-9.52s-12.08,3.92-14.52,9.52H28.98c-5.89,0-10.68,4.79-10.68,10.68v148.2c0,5.89,4.79,10.68,10.68,10.68h122.05c5.89,0,10.68-4.79,10.68-10.68V20.66c0-5.89-4.79-10.68-10.68-10.68ZM90,4.38c6.57,0,11.92,5.35,11.92,11.92,0,3.32,4.02,4.29,9.59,5.62,7.75,1.86,18.18,4.37,19.33,13.22H49.17c1.15-8.85,11.58-11.36,19.33-13.22,5.57-1.34,9.59-2.3,9.59-5.62,0-6.57,5.35-11.92,11.91-11.92ZM157.78,168.86c0,3.73-3.03,6.76-6.76,6.76H28.98c-3.73,0-6.76-3.03-6.76-6.76V20.66c0-3.73,3.03-6.76,6.76-6.76h45.39c-.11.7-.19,1.42-.2,2.14-.81.68-4.13,1.47-6.58,2.06-9.04,2.17-22.7,5.45-22.44,19.03.02,1.07.89,1.92,1.96,1.92h85.79c1.07,0,1.94-.86,1.96-1.92.27-13.58-13.4-16.86-22.44-19.03-2.45-.59-5.77-1.38-6.58-2.06-.01-.73-.09-1.44-.2-2.15h45.38c3.73,0,6.76,3.03,6.76,6.76v148.2Z"/>
    <path class="cls-1" d="M90,18.71c2.04,0,3.7-1.66,3.7-3.71s-1.66-3.7-3.7-3.7-3.71,1.66-3.71,3.7,1.66,3.71,3.71,3.71Z"/>
    <path class="cls-1" d="M136.39,61.82h-51.49c-1.08,0-1.96.88-1.96,1.96s.88,1.96,1.96,1.96h51.49c1.08,0,1.96-.88,1.96-1.96s-.88-1.96-1.96-1.96Z"/>
    <path class="cls-1" d="M136.39,100.33h-51.49c-1.08,0-1.96.88-1.96,1.96s.88,1.96,1.96,1.96h51.49c1.08,0,1.96-.88,1.96-1.96s-.88-1.96-1.96-1.96Z"/>
  </g>
  <g>
    <path class="cls-1" d="M63.93,55.68l-13.44,13.44c-.28.28.11,1.13.88,1.9s1.62,1.16,1.9.88l13.44-13.44c.28-.28-.11-1.13-.88-1.9s-1.62-1.16-1.9-.88Z"/>
    <path class="cls-1" d="M54.14,68.19l-7.74-7.74c-.16-.16-.92.33-1.68,1.09s-1.26,1.52-1.09,1.68l7.74,7.74c.16.16.92-.33,1.68-1.09s1.26-1.52,1.09-1.68Z"/>
  </g>
  <g>
    <path class="cls-1" d="M63.93,94.18l-13.44,13.44c-.28.28.11,1.13.88,1.9s1.62,1.16,1.9.88l13.44-13.44c.28-.28-.11-1.13-.88-1.9s-1.62-1.16-1.9-.88Z"/>
    <path class="cls-1" d="M54.14,106.69l-7.74-7.74c-.16-.16-.92.33-1.68,1.09s-1.26,1.52-1.09,1.68l7.74,7.74c.16.16.92-.33,1.68-1.09s1.26-1.52,1.09-1.68Z"/>
  </g>
  <g>
    <path class="cls-1" d="M63.93,132.69l-13.44,13.44c-.28.28.11,1.13.88,1.9s1.62,1.16,1.9.88l13.44-13.44c.28-.28-.11-1.13-.88-1.9s-1.62-1.16-1.9-.88Z"/>
    <path class="cls-1" d="M54.14,145.19l-7.74-7.74c-.16-.16-.92.33-1.68,1.09s-1.26,1.52-1.09,1.68l7.74,7.74c.16.16.92-.33,1.68-1.09s1.26-1.52,1.09-1.68Z"/>
  </g>
</svg>