<?xml version="1.0" encoding="UTF-8"?>
<svg id="Layer_1" data-name="Layer 1" xmlns="http://www.w3.org/2000/svg" viewBox="0 0 180 180">
  <defs>
    <style>
      .cls-1 {
        stroke: #000;
        stroke-miterlimit: 10;
        stroke-width: 4px;
      }
    </style>
  </defs>
  <path class="cls-1" d="M148.22,113.37h-15.32v-3.06h15.32c14.36,0,26.05-11.69,26.05-26.05s-11.68-26.05-26.05-26.05c-1.04,0-2.09.09-3.1.21l-1.91.22.22-1.92c.12-1.01.2-2.06.2-3.11,0-14.36-11.68-26.05-26.05-26.05-1.02,0-2.07.07-3.19.23l-1.02.14-.51-.9c-8.47-14.79-24.27-23.99-41.23-23.99-26.19,0-47.49,21.31-47.49,47.49,0,4.02.54,8.04,1.67,12.3l.42,1.6-1.63.3c-10.92,1.99-18.84,11.48-18.84,22.57,0,12.67,10.31,22.98,22.98,22.98h18.39v3.06h-18.39c-14.36,0-26.05-11.69-26.05-26.05,0-12.03,8.22-22.39,19.76-25.25-.93-3.95-1.38-7.74-1.38-11.52C21.06,22.68,43.74,0,71.61,0c17.72,0,34.24,9.42,43.38,24.65.89-.09,1.74-.13,2.59-.13,16.05,0,29.11,13.06,29.11,29.11,0,.53-.02,1.06-.05,1.59.53-.03,1.06-.05,1.59-.05,16.05,0,29.11,13.06,29.11,29.11s-13.06,29.11-29.11,29.11Z"/>
  <path d="M73.1,181c-1.91,0-3.75-.82-5.03-2.25-1.39-1.55-2.01-3.66-1.76-5.94v-.1s15.29-47.1,15.29-47.1h-16.74c-3.27-.18-6.07-1.87-7.55-4.52-1.51-2.69-1.48-5.9.08-8.78.55-1.02,1.24-2.01,1.92-2.97.42-.59.83-1.18,1.19-1.76,10.68-16.93,21.71-34,32.37-50.52l2.34-3.63c.69-1.07,1.38-2.19,2.06-3.32,1.14-1.87,2.32-3.81,3.56-5.55,1.57-2.18,3.69-3.39,5.98-3.39,1.16,0,2.32.31,3.45.92,2.64,1.44,3.96,4.58,3.26,7.81-.45,2.09-1.32,4.59-2.16,7-.38,1.1-.75,2.16-1.06,3.12-.31.96-.65,1.92-.98,2.88-.33.92-.65,1.84-.95,2.77-.94,2.94-1.88,5.88-2.81,8.82-2.31,7.25-4.69,14.74-7.15,22.11h16.73c5.17.27,8.86,4.31,8.65,9.38-.11,2.68-1.95,5.31-3.57,7.63-.44.63-.86,1.23-1.22,1.79-11.37,17.97-23.14,36.22-34.21,53.37-.69,1.07-1.37,2.18-2.05,3.31-1.14,1.88-2.32,3.83-3.58,5.57-1.55,2.15-3.7,3.34-6.06,3.34h0ZM84.92,118.38l.1.02c1.51.3,2.78,1.13,3.57,2.33,1.5,2.29.69,4.55-.03,6.54-.15.41-.29.81-.42,1.21-2.32,7.45-4.77,14.98-7.15,22.27-1.62,4.98-3.25,9.95-4.84,14.93-.27.85-.57,1.73-.87,2.62-.46,1.36-.94,2.75-1.32,4.07.12-.17.25-.33.39-.47l42.03-65.52c.29-.47.36-1.01.17-1.49-.18-.46-.57-.81-1.08-1l-20.4-.07-.1-.02c-1.51-.3-2.78-1.13-3.56-2.33-1.5-2.29-.69-4.55.03-6.54.15-.41.29-.81.42-1.21,1.71-5.51,3.53-11.06,5.28-16.44,1-3.06,2-6.12,2.99-9.19,1.8-5.59,3.81-11.84,5.7-18.01-.05.07-.11.13-.16.19l-40.5,63.37-.04.05c-1.77,2.11-1.83,3.17-1.71,3.6.11.42.53.76,1.24,1.03l20.26.04Z"/>
</svg>