<?xml version="1.0" encoding="UTF-8"?>
<svg id="Layer_1" data-name="Layer 1" xmlns="http://www.w3.org/2000/svg" viewBox="0 0 180 180">
  <defs>
    <style>
      .cls-1 {
        stroke-width: 4px;
      }

      .cls-1, .cls-2 {
        stroke: #000;
        stroke-miterlimit: 10;
      }

      .cls-2 {
        stroke-width: 2px;
      }
    </style>
  </defs>
  <g>
    <g>
      <g>
        <path class="cls-2" d="M119.11,28.5H38.87c-1.24,0-2.24,1-2.24,2.24s1,2.24,2.24,2.24h80.23c1.24,0,2.24-1,2.24-2.24s-1-2.24-2.24-2.24Z"/>
        <path class="cls-2" d="M119.11,47.82H38.87c-1.24,0-2.24,1-2.24,2.24s1,2.24,2.24,2.24h80.23c1.24,0,2.24-1,2.24-2.24s-1-2.24-2.24-2.24Z"/>
        <path class="cls-2" d="M80,67.15h-41.12c-1.24,0-2.24,1-2.24,2.24s1,2.24,2.24,2.24h41.12c1.24,0,2.24-1,2.24-2.24s-1-2.24-2.24-2.24Z"/>
      </g>
      <g>
        <path class="cls-1" d="M170.07,179.81h-57.45c-3.3,0-5.98-2.68-5.98-5.98v-47.88c0-3.3,2.68-5.98,5.98-5.98h57.45c3.3,0,5.98,2.68,5.98,5.98v47.88c0,3.3-2.68,5.98-5.98,5.98ZM112.62,122.36c-1.98,0-3.59,1.61-3.59,3.59v47.88c0,1.98,1.61,3.59,3.59,3.59h57.45c1.98,0,3.59-1.61,3.59-3.59v-47.88c0-1.98-1.61-3.59-3.59-3.59h-57.45Z"/>
        <path class="cls-1" d="M166.48,122.36h-50.27v-15.56c0-13.86,11.28-25.13,25.13-25.13s25.13,11.27,25.13,25.13v15.56ZM118.6,119.97h45.48v-13.17c0-12.54-10.2-22.74-22.74-22.74s-22.74,10.2-22.74,22.74v13.17Z"/>
        <rect class="cls-1" x="140.15" y="154.68" width="2.39" height="4.79"/>
        <rect class="cls-1" x="140.15" y="145.1" width="2.39" height="9.58"/>
      </g>
    </g>
    <g>
      <path class="cls-2" d="M8.42,48.29v-16.55c0-14.93,12.14-27.07,27.07-27.07h89c14.93,0,27.07,12.14,27.07,27.07v16.55h4.48v-16.55C156.04,14.34,141.89.19,124.5.19H35.5C18.1.19,3.95,14.34,3.95,31.74v16.55h4.48Z"/>
      <path class="cls-2" d="M151.57,49.45v18.51c0,1.81-.18,3.58-.52,5.3h0s4.25,1.53,4.25,1.53c.49-2.2.75-4.48.75-6.83v-18.51h-4.48Z"/>
      <path class="cls-2" d="M60.02,96.23l-11.26,21.48-11.26-21.48c-.39-.74-1.17-1.2-2-1.2-14.93,0-27.07-12.14-27.07-27.07v-18.51H3.95v18.51c0,16.94,13.42,30.8,30.2,31.52l12.63,24.09c.39.74,1.15,1.2,1.98,1.2s1.6-.46,1.98-1.2l12.62-24.06h45.67v-4.48h-47.02c-.83,0-1.6.46-1.98,1.2Z"/>
    </g>
  </g>
  <circle class="cls-1" cx="141.34" cy="145.53" r="3.63"/>
</svg>