<?xml version="1.0" encoding="UTF-8"?>
<svg id="Layer_1" data-name="Layer 1" xmlns="http://www.w3.org/2000/svg" viewBox="0 0 180 180">
  <defs>
    <style>
      .cls-1 {
        stroke: #000;
        stroke-miterlimit: 10;
        stroke-width: 2px;
      }
    </style>
  </defs>
  <g>
    <path class="cls-1" d="M139.91,179.47c19.72,0,35.17-6.89,35.17-15.69v-53.59c0-8.8-15.45-15.69-35.17-15.69s-35.17,6.89-35.17,15.69v53.59c0,8.8,15.45,15.69,35.17,15.69ZM139.91,175.69c-18.5,0-31.4-6.28-31.4-11.92v-10.59c5.75,5.09,17.51,8.51,31.4,8.51s25.65-3.42,31.4-8.51v10.59c0,5.64-12.89,11.92-31.4,11.92ZM139.91,140.16c-18.5,0-31.4-6.28-31.4-11.92v-10.88c5.75,5.09,17.51,8.51,31.4,8.51s25.65-3.42,31.4-8.51v10.88c0,5.64-12.89,11.92-31.4,11.92ZM139.91,143.94c13.89,0,25.65-3.42,31.4-8.51v10.59c0,5.64-12.89,11.92-31.4,11.92s-31.4-6.28-31.4-11.92v-10.59c5.75,5.09,17.51,8.51,31.4,8.51ZM139.91,98.27c18.5,0,31.4,6.28,31.4,11.92s-12.89,11.92-31.4,11.92-31.4-6.28-31.4-11.92,12.89-11.92,31.4-11.92Z"/>
    <path class="cls-1" d="M40.09,179.58c19.72,0,35.17-6.89,35.17-15.69v-35.83c0-8.8-15.45-15.69-35.17-15.69s-35.17,6.89-35.17,15.69v35.83c0,8.8,15.45,15.69,35.17,15.69ZM40.09,175.8c-18.5,0-31.4-6.28-31.4-11.92v-10.59c5.75,5.09,17.51,8.51,31.4,8.51s25.65-3.42,31.4-8.51v10.59c0,5.64-12.89,11.92-31.4,11.92ZM40.09,158.03c-18.5,0-31.4-6.28-31.4-11.92v-10.88c5.75,5.09,17.51,8.51,31.4,8.51s25.65-3.42,31.4-8.51v10.88c0,5.64-12.89,11.92-31.4,11.92ZM40.09,116.14c18.5,0,31.4,6.28,31.4,11.92s-12.89,11.92-31.4,11.92-31.4-6.28-31.4-11.92,12.89-11.92,31.4-11.92Z"/>
  </g>
  <g>
    <path d="M130.51,63.99c-1.38,0-2.51-1.13-2.51-2.51v-26.97h-5.21c-.93,0-1.78-.51-2.21-1.33-.44-.82-.39-1.81.14-2.58l18.95-28.07c.47-.69,1.24-1.11,2.08-1.11s1.61.41,2.08,1.1l18.95,28.07c.52.77.57,1.76.14,2.58-.44.82-1.29,1.33-2.21,1.33h-5.21v26.97c0,1.38-1.12,2.51-2.51,2.51h-22.46ZM127.51,29.49h3c1.38,0,2.51,1.13,2.51,2.51v26.97h17.44v-26.97c0-1.38,1.12-2.51,2.51-2.51h3l-14.23-21.08-14.23,21.08Z"/>
    <path d="M23.24,102.99c-1.38,0-2.51-1.12-2.51-2.51v-42.4h-7.32c-.92,0-1.76-.5-2.2-1.3-.44-.8-.41-1.78.08-2.55L37.97,12.12c.46-.73,1.25-1.17,2.12-1.17s1.66.44,2.12,1.17l26.67,42.11c.49.77.52,1.75.08,2.55-.44.8-1.28,1.3-2.2,1.3h-7.32v42.4c0,1.38-1.12,2.51-2.51,2.51H23.24ZM17.98,53.06h5.27c1.38,0,2.51,1.13,2.51,2.51v42.4h28.67v-42.4c0-1.38,1.12-2.51,2.51-2.51h5.27l-22.11-34.91-22.11,34.91Z"/>
  </g>
</svg>