<?xml version="1.0" encoding="UTF-8"?>
<svg id="Risk_Strategy" data-name="Risk &amp;amp; Strategy" xmlns="http://www.w3.org/2000/svg" viewBox="0 0 180 180">
  <defs>
    <style>
      .cls-1 {
        stroke: #000;
        stroke-miterlimit: 10;
        stroke-width: 2px;
      }
    </style>
  </defs>
  <path class="cls-1" d="M99.67,53.45c-3.09-5.35-7.32-8.29-11.92-8.29s-8.84,2.94-11.93,8.29L15.98,157.09c-3.09,5.35-3.52,10.49-1.22,14.47,2.3,3.99,6.97,6.18,13.14,6.18h119.66c6.17,0,10.84-2.2,13.14-6.18,2.3-3.99,1.87-9.13-1.22-14.47l-59.83-103.63ZM157.37,169.63c-1.58,2.74-5.06,4.25-9.8,4.25H27.91c-4.74,0-8.22-1.51-9.8-4.25-1.58-2.74-1.15-6.51,1.22-10.61l59.83-103.63c2.37-4.1,5.42-6.36,8.58-6.36s6.21,2.26,8.58,6.36l59.83,103.63c2.37,4.1,2.8,7.87,1.22,10.61Z"/>
  <path class="cls-1" d="M87.74,142.54c-5.79,0-10.5,4.71-10.5,10.5s4.71,10.5,10.5,10.5,10.5-4.71,10.5-10.5-4.71-10.5-10.5-10.5ZM87.74,159.68c-3.66,0-6.64-2.98-6.64-6.64s2.98-6.64,6.64-6.64,6.64,2.98,6.64,6.64-2.98,6.64-6.64,6.64Z"/>
  <path class="cls-1" d="M87.74,76.49c-6.64,0-12.05,5.4-12.05,12.05,0,2.08,1.22,10.85,3.21,24.99.94,6.64,1.9,13.51,2.71,19.62.13.96.95,1.68,1.91,1.68h8.43c.97,0,1.79-.72,1.91-1.68.81-6.11,1.78-12.98,2.71-19.62,1.99-14.14,3.21-22.91,3.21-24.99,0-6.64-5.4-12.05-12.05-12.05ZM92.76,112.99c-.85,6.05-1.73,12.29-2.49,17.97h-5.05c-.76-5.69-1.64-11.92-2.49-17.97-1.56-11.08-3.17-22.54-3.17-24.46,0-4.51,3.67-8.19,8.19-8.19s8.19,3.67,8.19,8.19c0,1.92-1.61,13.38-3.17,24.46Z"/>
  <path class="cls-1" d="M147.79,20.02l-.68-.58c-.81-.69-2.01-.6-2.71.19l-1.76,2.01C127.6,9.53,108.51,2.26,87.74,2.26,39.36,2.26,0,41.62,0,90c0,1.07.86,1.93,1.93,1.93h20.64c1.07,0,1.93-.86,1.93-1.93,0-34.87,28.37-63.24,63.24-63.24,14.59,0,28.04,4.98,38.75,13.31l-1.65,1.88c-.34.39-.51.9-.47,1.41.04.52.28.99.67,1.33l.7.59c5.72,4.87,10.37,10.69,13.81,17.13l-5.31,2.61c-.96.47-1.35,1.63-.88,2.58.34.68,1.02,1.08,1.73,1.08.29,0,.58-.06.85-.2l5.31-2.61c3.39,7.5,5.21,15.7,5.21,24.12,0,1.07.86,1.93,1.93,1.93h29.67c1.07,0,1.93-.86,1.93-1.93,0-26.89-11.74-52.39-32.21-69.98ZM87.74,22.9c-36.36,0-66.05,29.06-67.08,65.17H3.88C4.91,42.71,42.14,6.12,87.74,6.12c19.79,0,37.99,6.91,52.36,18.42l-11.07,12.63c-11.4-8.93-25.72-14.28-41.29-14.28ZM150.3,88.07c-.26-8.34-2.19-16.44-5.58-23.89l5.67-2.78c.96-.47,1.35-1.63.88-2.58-.47-.96-1.63-1.35-2.58-.88l-5.67,2.78c-3.51-6.61-8.22-12.62-13.99-17.69l17.01-19.41c18.65,16.4,29.53,39.75,30.07,64.46h-25.82Z"/>
</svg>