<?xml version="1.0" encoding="UTF-8"?>
<svg id="Risk_Strategy" data-name="Risk &amp;amp; Strategy" xmlns="http://www.w3.org/2000/svg" viewBox="0 0 180 180">
  <defs>
    <style>
      .cls-1 {
        stroke: #000;
        stroke-miterlimit: 10;
        stroke-width: 2px;
      }
    </style>
  </defs>
  <path class="cls-1" d="M58.14,108.14c-19.81,0-35.93,16.12-35.93,35.93s16.12,35.93,35.93,35.93,35.93-16.12,35.93-35.93-16.12-35.93-35.93-35.93ZM58.14,175.84c-17.51,0-31.76-14.25-31.76-31.76s14.25-31.76,31.76-31.76,31.76,14.25,31.76,31.76-14.25,31.76-31.76,31.76Z"/>
  <path class="cls-1" d="M69.45,152.48c-6.24,6.24-16.39,6.24-22.63,0-.81-.81-2.13-.81-2.94,0-.81.81-.81,2.13,0,2.94,3.93,3.93,9.09,5.9,14.26,5.9s10.33-1.96,14.26-5.9c.81-.81.81-2.13,0-2.94-.81-.81-2.13-.81-2.94,0Z"/>
  <path class="cls-1" d="M47.01,138.71c2.17,0,3.93-1.76,3.93-3.93s-1.76-3.93-3.93-3.93-3.93,1.76-3.93,3.93,1.76,3.93,3.93,3.93Z"/>
  <path class="cls-1" d="M69.27,130.85c-2.17,0-3.93,1.76-3.93,3.93s1.76,3.93,3.93,3.93,3.93-1.76,3.93-3.93-1.76-3.93-3.93-3.93Z"/>
  <path class="cls-1" d="M144.07,108.14c-19.81,0-35.93,16.12-35.93,35.93s16.12,35.93,35.93,35.93,35.93-16.12,35.93-35.93-16.12-35.93-35.93-35.93ZM144.07,175.84c-17.51,0-31.76-14.25-31.76-31.76s14.25-31.76,31.76-31.76,31.76,14.25,31.76,31.76-14.25,31.76-31.76,31.76Z"/>
  <path class="cls-1" d="M129.81,156.18c-.81.81-.81,2.13,0,2.94.81.81,2.13.81,2.94,0,6.24-6.24,16.39-6.24,22.63,0,.41.41.94.61,1.47.61s1.07-.2,1.47-.61c.81-.81.81-2.13,0-2.94-7.86-7.86-20.65-7.86-28.52,0Z"/>
  <path class="cls-1" d="M132.94,138.71c2.17,0,3.93-1.76,3.93-3.93s-1.76-3.93-3.93-3.93-3.93,1.76-3.93,3.93,1.76,3.93,3.93,3.93Z"/>
  <path class="cls-1" d="M155.2,130.85c-2.17,0-3.93,1.76-3.93,3.93s1.76,3.93,3.93,3.93,3.93-1.76,3.93-3.93-1.76-3.93-3.93-3.93Z"/>
  <path class="cls-1" d="M32.85,106.8c1.15,0,2.08-.93,2.08-2.08v-43.8h46.41v43.8c0,1.15.93,2.08,2.08,2.08s2.08-.93,2.08-2.08v-45.88c0-1.15-.93-2.08-2.08-2.08h-50.57c-1.15,0-2.08.93-2.08,2.08v45.88c0,1.15.93,2.08,2.08,2.08Z"/>
  <path class="cls-1" d="M118.78,106.8c1.15,0,2.08-.93,2.08-2.08V4.16h46.41v100.56c0,1.15.93,2.08,2.08,2.08s2.08-.93,2.08-2.08V2.08c0-1.15-.93-2.08-2.08-2.08h-50.57c-1.15,0-2.08.93-2.08,2.08v102.64c0,1.15.93,2.08,2.08,2.08Z"/>
  <path class="cls-1" d="M10.6,172.69H2.08C.93,172.69,0,173.63,0,174.78s.93,2.08,2.08,2.08h8.52c1.15,0,2.08-.93,2.08-2.08s-.93-2.08-2.08-2.08Z"/>
  <path class="cls-1" d="M10.6,143.91H2.08C.93,143.91,0,144.84,0,145.99s.93,2.08,2.08,2.08h8.52c1.15,0,2.08-.93,2.08-2.08s-.93-2.08-2.08-2.08Z"/>
  <path class="cls-1" d="M10.6,115.13H2.08C.93,115.13,0,116.06,0,117.21s.93,2.08,2.08,2.08h8.52c1.15,0,2.08-.93,2.08-2.08s-.93-2.08-2.08-2.08Z"/>
  <path class="cls-1" d="M10.6,86.35H2.08C.93,86.35,0,87.28,0,88.43s.93,2.08,2.08,2.08h8.52c1.15,0,2.08-.93,2.08-2.08s-.93-2.08-2.08-2.08Z"/>
  <path class="cls-1" d="M10.6,57.56H2.08C.93,57.56,0,58.5,0,59.65s.93,2.08,2.08,2.08h8.52c1.15,0,2.08-.93,2.08-2.08s-.93-2.08-2.08-2.08Z"/>
  <path class="cls-1" d="M10.6,28.78H2.08C.93,28.78,0,29.71,0,30.86s.93,2.08,2.08,2.08h8.52c1.15,0,2.08-.93,2.08-2.08s-.93-2.08-2.08-2.08Z"/>
  <path class="cls-1" d="M10.6,0H2.08C.93,0,0,.93,0,2.08s.93,2.08,2.08,2.08h8.52c1.15,0,2.08-.93,2.08-2.08s-.93-2.08-2.08-2.08Z"/>
</svg>