<?xml version="1.0" encoding="UTF-8"?>
<svg id="Risk_Strategy" data-name="Risk &amp;amp; Strategy" xmlns="http://www.w3.org/2000/svg" viewBox="0 0 180 180">
  <defs>
    <style>
      .cls-1 {
        stroke: #000;
        stroke-miterlimit: 10;
        stroke-width: 2px;
      }
    </style>
  </defs>
  <path class="cls-1" d="M72.54,36.58c6.37,0,11.56-5.19,11.56-11.56v-11.55c0-6.37-5.19-11.56-11.56-11.56s-11.56,5.19-11.56,11.56v11.55c0,6.37,5.19,11.56,11.56,11.56ZM65.04,13.47c0-4.14,3.36-7.5,7.5-7.5s7.5,3.36,7.5,7.5v11.55c0,4.14-3.36,7.5-7.5,7.5s-7.5-3.36-7.5-7.5v-11.55Z"/>
  <path class="cls-1" d="M4.72,32.52c-1.12,0-2.03.91-2.03,2.03s.91,2.03,2.03,2.03h14.08c1.12,0,2.03-.91,2.03-2.03s-.91-2.03-2.03-2.03h-5.01V3.94c0-.82-.49-1.56-1.25-1.87-.76-.31-1.63-.15-2.21.43l-7.04,6.98c-.8.79-.8,2.07-.01,2.87.79.8,2.08.8,2.87.01l3.58-3.55v23.71h-5.01Z"/>
  <path class="cls-1" d="M97.93,32.52c-1.12,0-2.03.91-2.03,2.03s.91,2.03,2.03,2.03h14.08c1.12,0,2.03-.91,2.03-2.03s-.91-2.03-2.03-2.03h-5.01V3.94c0-.82-.49-1.56-1.25-1.87-.76-.31-1.63-.15-2.21.43l-7.04,6.98c-.8.79-.8,2.07-.01,2.87.79.8,2.08.8,2.87.01l3.58-3.55v23.71h-5.01Z"/>
  <path class="cls-1" d="M34.43,32.52c-1.12,0-2.03.91-2.03,2.03s.91,2.03,2.03,2.03h14.08c1.12,0,2.03-.91,2.03-2.03s-.91-2.03-2.03-2.03h-5.01V3.94c0-.82-.49-1.56-1.25-1.87-.76-.31-1.63-.15-2.21.43l-7.04,6.98c-.8.79-.8,2.07-.01,2.87.79.8,2.08.8,2.87.01l3.58-3.55v23.71h-5.01Z"/>
  <path class="cls-1" d="M165.75,36.58c6.37,0,11.56-5.19,11.56-11.56v-11.55c0-6.37-5.19-11.56-11.56-11.56s-11.56,5.19-11.56,11.56v11.55c0,6.37,5.19,11.56,11.56,11.56ZM158.25,13.47c0-4.14,3.36-7.5,7.5-7.5s7.5,3.36,7.5,7.5v11.55c0,4.14-3.36,7.5-7.5,7.5s-7.5-3.36-7.5-7.5v-11.55Z"/>
  <path class="cls-1" d="M127.64,32.52c-1.12,0-2.03.91-2.03,2.03s.91,2.03,2.03,2.03h14.08c1.12,0,2.03-.91,2.03-2.03s-.91-2.03-2.03-2.03h-5.01V3.94c0-.82-.49-1.56-1.25-1.87-.76-.31-1.63-.15-2.21.43l-7.04,6.98c-.8.79-.8,2.07-.01,2.87.79.8,2.08.8,2.87.01l3.58-3.55v23.71h-5.01Z"/>
  <path class="cls-1" d="M177.97,55.82c-1.12,0-2.03.91-2.03,2.03v15.12c0,23.49-23.5,32.2-46.22,40.63-5.38,1.99-10.68,3.96-15.61,6.09,1.43-.8,2.89-1.6,4.37-2.41,15.64-8.53,33.36-18.21,33.36-44.31v-15.12c0-1.12-.91-2.03-2.03-2.03s-2.03.91-2.03,2.03v15.12c0,23.7-15.88,32.36-31.24,40.75-6.55,3.57-13.2,7.2-18.42,12.02,2.13-3.21,4.68-5.96,7.36-8.86,7.91-8.54,16.88-18.21,16.88-43.91v-15.12c0-1.12-.91-2.03-2.03-2.03s-2.03.91-2.03,2.03v15.12c0,24.1-8.03,32.77-15.8,41.15-3.82,4.12-7.71,8.33-10.48,14.26V57.85c0-1.12-.91-2.03-2.03-2.03s-2.03.91-2.03,2.03v70.54c-2.77-5.94-6.66-10.14-10.48-14.26-7.77-8.38-15.8-17.05-15.8-41.15v-15.12c0-1.12-.91-2.03-2.03-2.03s-2.03.91-2.03,2.03v15.12c0,25.7,8.97,35.37,16.88,43.91,2.68,2.9,5.23,5.65,7.36,8.86-5.22-4.81-11.87-8.44-18.42-12.02-15.36-8.38-31.24-17.05-31.24-40.75v-15.12c0-1.12-.91-2.03-2.03-2.03s-2.03.91-2.03,2.03v15.12c0,26.1,17.72,35.78,33.36,44.31,1.48.81,2.95,1.61,4.38,2.41-4.93-2.13-10.23-4.1-15.61-6.09-22.72-8.43-46.22-17.14-46.22-40.63v-15.12c0-1.12-.91-2.03-2.03-2.03s-2.03.91-2.03,2.03v15.12c0,26.31,25.96,35.94,48.87,44.43,20.03,7.43,38.94,14.44,38.94,30.89v4.16c-6.08,1.05-10.73,6.34-10.73,12.72,0,7.12,5.8,12.92,12.92,12.92s12.92-5.8,12.92-12.92c0-6.38-4.65-11.67-10.73-12.72v-4.16c0-16.45,18.91-23.46,38.94-30.89,22.91-8.49,48.87-18.12,48.87-44.43v-15.12c0-1.12-.91-2.03-2.03-2.03ZM98.86,165.17c0,4.88-3.97,8.86-8.86,8.86s-8.86-3.97-8.86-8.86,3.97-8.86,8.86-8.86,8.86,3.97,8.86,8.86Z"/>
</svg>