<?xml version="1.0" encoding="UTF-8"?>
<svg id="Risk_Strategy" data-name="Risk &amp;amp; Strategy" xmlns="http://www.w3.org/2000/svg" viewBox="0 0 180 180">
  <defs>
    <style>
      .cls-1 {
        stroke: #000;
        stroke-miterlimit: 10;
        stroke-width: 2px;
      }
    </style>
  </defs>
  <path class="cls-1" d="M177.78,0h-63.77c-1.18,0-2.14.96-2.14,2.14v14.29c0,.14.01.28.04.42l12.59,62.46h-23.32c-1-5.26-5.63-9.25-11.18-9.25s-10.17,3.99-11.18,9.25h-23.32l12.59-62.46c.03-.14.04-.28.04-.42V2.14c0-1.18-.96-2.14-2.14-2.14H2.22C1.04,0,.09.96.09,2.14v14.29c0,.14.01.28.04.42l13.07,64.81v42.77c0,7.91,6.13,14.41,13.89,15.03v18.94c-4.26,1.57-7.32,5.66-7.32,10.45,0,6.15,5,11.15,11.15,11.15h21.19c6.15,0,11.15-5,11.15-11.15,0-4.8-3.05-8.89-7.32-10.45v-18.88h22.68v5.26c0,1.18.96,2.14,2.14,2.14h18.5c1.18,0,2.14-.96,2.14-2.14v-5.26h22.68v18.88c-4.26,1.57-7.32,5.66-7.32,10.45,0,6.15,5,11.15,11.15,11.15h21.19c6.15,0,11.15-5,11.15-11.15,0-4.8-3.05-8.89-7.32-10.45v-18.94c7.76-.61,13.89-7.11,13.89-15.03v-42.77l13.07-64.81c.03-.14.04-.28.04-.42V2.14c0-1.18-.96-2.14-2.14-2.14ZM70.9,120.6v-21.63h38.2v21.63h-38.2ZM90,74.34c3.92,0,7.11,3.19,7.11,7.11v13.25h-14.22v-13.25c0-3.92,3.19-7.11,7.11-7.11ZM63.86,4.27v11.94l-12.72,63.1H17.08L4.84,18.57h25.21c1.18,0,2.14-.96,2.14-2.14s-.96-2.14-2.14-2.14H4.36V4.27h59.5ZM58.98,168.85c0,3.79-3.08,6.87-6.87,6.87h-21.19c-3.79,0-6.87-3.08-6.87-6.87s3.08-6.87,6.87-6.87h21.19c3.79,0,6.87,3.08,6.87,6.87ZM51.66,157.71h-20.3v-18.19h20.3v18.19ZM28.28,135.24c-5.96,0-10.81-4.85-10.81-10.81v-40.85h61.14v11.11h-9.85c-1.18,0-2.14.96-2.14,2.14v25.9c0,1.18.96,2.14,2.14,2.14h9.85v10.37H28.28ZM97.11,142.64h-14.22v-17.77h14.22v17.77ZM148.64,157.71h-20.3v-18.19h20.3v18.19ZM155.96,168.85c0,3.79-3.08,6.87-6.87,6.87h-21.19c-3.79,0-6.87-3.08-6.87-6.87s3.08-6.87,6.87-6.87h21.19c3.79,0,6.87,3.08,6.87,6.87ZM162.53,124.43c0,5.96-4.85,10.81-10.81,10.81h-50.33v-10.37h9.85c1.18,0,2.14-.96,2.14-2.14v-25.9c0-1.18-.96-2.14-2.14-2.14h-9.85v-11.11h61.14v40.85ZM175.64,16.22l-12.72,63.1h-34.05l-12.25-60.75h25.21c1.18,0,2.14-.96,2.14-2.14s-.96-2.14-2.14-2.14h-25.69V4.27h59.5v11.94Z"/>
</svg>