<?xml version="1.0" encoding="UTF-8"?>
<svg id="Risk_Strategy" data-name="Risk &amp;amp; Strategy" xmlns="http://www.w3.org/2000/svg" viewBox="0 0 180 180">
  <defs>
    <style>
      .cls-1 {
        stroke: #000;
        stroke-miterlimit: 10;
        stroke-width: 2px;
      }
    </style>
  </defs>
  <path class="cls-1" d="M118.31,148.33h-7.08c5.54-11.99.47-17.68-4.87-23.68-3.27-3.67-6.65-7.47-8.34-13.25-4.19-14.37-9.61-54.92-9.66-55.33-.01-.07-.02-.15-.04-.22-.65-2.5.55-4.64,2.08-7.36,1.71-3.04,3.77-6.71,2.86-11.51h1.91c1.02,0,1.86-.83,1.86-1.86V13.7c0-1.02-.83-1.86-1.86-1.86h-13.48c-1.02,0-1.86.83-1.86,1.86v5.18h-11.57v-5.18c0-1.02-.83-1.86-1.86-1.86h-12.67c-1.02,0-1.86.83-1.86,1.86v5.18h-11.57v-5.18c0-1.02-.83-1.86-1.86-1.86h-13.48c-1.02,0-1.86.83-1.86,1.86v21.43c0,1.02.83,1.86,1.86,1.86h1.91c-.91,4.8,1.15,8.47,2.86,11.51,1.53,2.71,2.74,4.85,2.08,7.36-.02.07-.03.15-.04.22-.05.41-5.48,40.96-9.66,55.33-1.69,5.78-5.07,9.58-8.34,13.25-5.35,6-10.41,11.7-4.87,23.68H1.86c-1.02,0-1.86.83-1.86,1.86v16.12c0,1.02.83,1.86,1.86,1.86h116.46c1.02,0,1.86-.83,1.86-1.86v-16.12c0-1.02-.83-1.86-1.86-1.86ZM26.85,15.55h9.76v5.18c0,1.02.83,1.86,1.86,1.86h15.28c1.02,0,1.86-.83,1.86-1.86v-5.18h8.96v5.18c0,1.02.83,1.86,1.86,1.86h15.28c1.02,0,1.86-.83,1.86-1.86v-5.18h9.76v17.71H26.85V15.55ZM16.58,127.11c2.54-2.85,5.34-6,7.39-10.18h51.36c1.02,0,1.86-.83,1.86-1.86s-.83-1.86-1.86-1.86H25.47c.08-.26.17-.52.25-.78,4.2-14.41,9.39-52.96,9.77-55.77.97-3.9-.78-7-2.47-10-1.7-3.01-3.3-5.86-2.29-9.69h58.74c1.01,3.82-.6,6.68-2.29,9.69-1.69,3-3.44,6.1-2.47,10,.38,2.81,5.57,41.36,9.77,55.77,1.92,6.59,5.75,10.89,9.13,14.68,5.31,5.96,9.19,10.32,3.51,21.21H13.07c-5.68-10.9-1.8-15.25,3.51-21.21ZM116.46,164.45H3.71v-12.41h112.75v12.41Z"/>
  <path class="cls-1" d="M178.14,149.7h-4.64c-.89-11.24-7.62-21.09-17.89-26.01-12.05-6.49-12.01-14.81-11.96-24.44,0-.58,0-1.15,0-1.73,0-6.69,3.19-13.7,8.77-19.25,1.7-1.69,2.31-3.52,1.69-5.02-1.04-2.52-4.76-2.52-5.98-2.52h-7.1c5.94-3.97,9.86-10.73,9.86-18.39,0-12.19-9.92-22.1-22.1-22.1s-22.1,9.92-22.1,22.1c0,7.66,3.92,14.43,9.86,18.39h-7.1c-1.22,0-4.94,0-5.98,2.51-.62,1.5,0,3.33,1.69,5.02,5.57,5.54,8.77,12.56,8.77,19.25v1.71c.03,6.11.06,11.88-3.22,16.93-.56.86-.31,2.01.55,2.57.86.56,2.01.32,2.57-.55,3.89-5.98,3.85-12.59,3.82-18.97v-1.69c0-7.67-3.6-15.64-9.86-21.88-.37-.36-.6-.69-.72-.92.34-.12,1.04-.27,2.39-.27h38.69c1.34,0,2.05.15,2.39.27-.12.23-.36.56-.72.92-6.27,6.24-9.86,14.21-9.86,21.88,0,.57,0,1.14,0,1.71-.05,9.44-.1,20.15,13.85,27.69.05.03.1.06.15.08,9.59,4.57,15.69,13.99,15.94,24.6.02,1.01.85,1.81,1.86,1.81h4.55v11.04h-46.73c-1.02,0-1.86.83-1.86,1.86s.83,1.86,1.86,1.86h48.58c1.02,0,1.86-.83,1.86-1.86v-14.75c0-1.02-.83-1.86-1.86-1.86ZM110.41,52.34c0-10.14,8.25-18.39,18.39-18.39s18.39,8.25,18.39,18.39-8.25,18.39-18.39,18.39-18.39-8.25-18.39-18.39Z"/>
</svg>