<?xml version="1.0" encoding="UTF-8"?>
<svg id="Risk_Strategy" data-name="Risk &amp;amp; Strategy" xmlns="http://www.w3.org/2000/svg" viewBox="0 0 180 180">
  <defs>
    <style>
      .cls-1 {
        stroke: #000;
        stroke-miterlimit: 10;
        stroke-width: 2px;
      }
    </style>
  </defs>
  <path class="cls-1" d="M173.62,180H6.38c-1.09,0-1.98-.89-1.98-1.98v-106.51c0-1.09.89-1.98,1.98-1.98,7.48,0,11.25,2.1,14.9,4.12,3.35,1.86,6.52,3.63,12.97,3.63s9.62-1.76,12.97-3.63c3.65-2.03,7.42-4.12,14.9-4.12s11.25,2.1,14.9,4.12c3.35,1.86,6.52,3.63,12.97,3.63s9.62-1.76,12.97-3.63c3.65-2.03,7.42-4.12,14.9-4.12s11.25,2.1,14.9,4.12c3.35,1.86,6.52,3.63,12.98,3.63s9.62-1.76,12.98-3.63c3.65-2.03,7.42-4.12,14.9-4.12,1.09,0,1.98.89,1.98,1.98v106.51c0,1.09-.89,1.98-1.98,1.98ZM8.36,176.04h163.28v-102.49c-5.16.32-8,1.9-10.99,3.57-3.65,2.03-7.42,4.12-14.9,4.12s-11.25-2.1-14.9-4.12c-3.35-1.86-6.52-3.63-12.98-3.63s-9.62,1.76-12.97,3.62c-3.65,2.03-7.42,4.13-14.9,4.13s-11.25-2.1-14.9-4.12c-3.35-1.86-6.52-3.63-12.97-3.63s-9.62,1.76-12.97,3.62c-3.65,2.03-7.42,4.13-14.9,4.13s-11.25-2.1-14.9-4.12c-2.99-1.66-5.83-3.24-10.99-3.57v102.49Z"/>
  <path class="cls-1" d="M130.01,151.34H59.84c-.5,0-.99-.19-1.36-.54l-31.4-29.49c-.54-.51-.75-1.27-.55-1.98l8.01-28.34c.3-1.05,1.39-1.67,2.44-1.37,1.05.3,1.66,1.39,1.37,2.44l-7.68,27.19,29.95,28.12h68.4l22.85-30.12-6.5-25.21c-.27-1.06.36-2.14,1.42-2.41,1.06-.28,2.14.36,2.41,1.42l6.74,26.13c.15.59.03,1.21-.34,1.69l-24.02,31.67c-.37.49-.96.78-1.58.78Z"/>
  <path class="cls-1" d="M140.73,68.1c-.88,0-1.69-.59-1.92-1.49l-4.48-17.37-24.2-10c-.41-.17-.75-.47-.97-.86l-16.58-29.41-11.71-4.46-13.74,34.18c-.18.44-.5.8-.92,1.01l-15.35,8.07-4.57,16.17c-.3,1.05-1.39,1.67-2.44,1.37-1.05-.3-1.67-1.39-1.37-2.44l4.8-16.99c.15-.52.5-.96.98-1.22l15.46-8.12L77.93,1.24c.4-1,1.54-1.5,2.54-1.11l14.2,5.41c.43.17.79.48,1.02.88l16.59,29.43,24.48,10.11c.57.24,1.01.73,1.16,1.34l4.72,18.32c.27,1.06-.36,2.14-1.42,2.41-.17.04-.33.06-.5.06Z"/>
  <path class="cls-1" d="M114.9,132.3c-.85,0-1.63-.55-1.89-1.4l-7.53-24.45c-.17-.55-.09-1.15.22-1.64l10.68-16.9c.58-.92,1.81-1.2,2.73-.62.92.58,1.2,1.81.62,2.73l-10.19,16.13,7.26,23.58c.32,1.05-.26,2.15-1.31,2.48-.19.06-.39.09-.58.09Z"/>
  <path class="cls-1" d="M69.55,123.78c-.19,0-.39-.03-.58-.09-1.05-.32-1.63-1.43-1.31-2.48l5.24-17.03-7.33-11.6c-.58-.92-.31-2.15.62-2.73.92-.58,2.15-.31,2.73.62l7.81,12.37c.31.49.39,1.09.22,1.64l-5.51,17.9c-.26.85-1.05,1.4-1.89,1.4Z"/>
</svg>