<?xml version="1.0" encoding="UTF-8"?>
<svg id="Risk_Strategy" data-name="Risk &amp;amp; Strategy" xmlns="http://www.w3.org/2000/svg" viewBox="0 0 180 180">
  <defs>
    <style>
      .cls-1 {
        stroke: #000;
        stroke-miterlimit: 10;
        stroke-width: 2px;
      }
    </style>
  </defs>
  <path class="cls-1" d="M119.77,62.19c-5.32,4.24-2.56,9.95-1.66,11.82.39.8.81,1.58,1.18,2.24,3.19,5.74,5.35,10.96,6.6,15.95,1.66,6.66,1.61,13.08-.14,18.56-2.25,7.01-7.52,12.97-15.67,17.72-1.15.21-6.34.79-10.11-4.52,7.15-4.86,11.85-13.06,11.85-22.34,0-14.89-12.11-27-27-27s-27,12.11-27,27c0,9.28,4.7,17.48,11.85,22.34-3.78,5.33-8.98,4.73-10.11,4.52-8.15-4.75-13.43-10.71-15.67-17.72-1.76-5.48-1.81-11.9-.14-18.56,1.24-4.99,3.4-10.2,6.59-15.95.37-.66.79-1.44,1.18-2.24.91-1.87,3.67-7.58-1.66-11.82-1.84-1.46-4.13-2.12-6.47-1.86-2.33.26-4.42,1.42-5.88,3.26-10.71,13.45-16.16,26.44-16.17,38.6-.04,26.68,9.19,42.17,16.6,54.61,4.53,7.59,8.43,14.15,9.38,21.62.12.92.9,1.59,1.81,1.59.08,0,.15,0,.23-.01,1-.13,1.71-1.04,1.58-2.04-1.05-8.23-5.14-15.09-9.87-23.03-7.56-12.68-16.13-27.05-16.09-52.73.02-11.31,5.19-23.54,15.38-36.33.85-1.07,2.08-1.75,3.44-1.9,1.36-.15,2.71.23,3.78,1.09,2.22,1.77,2.39,3.77.65,7.38-.35.71-.74,1.44-1.09,2.06-3.35,6.03-5.62,11.54-6.95,16.84-1.83,7.32-1.75,14.43.21,20.56,2.56,7.97,8.47,14.67,17.57,19.91.14.08.3.14.46.19,3.13.8,9.89.42,14.39-6.17,3.61,1.8,7.68,2.81,11.98,2.81s8.37-1.02,11.98-2.81c4.5,6.58,11.26,6.97,14.39,6.17.16-.04.31-.1.46-.19,9.11-5.24,15.02-11.94,17.57-19.92,1.96-6.13,2.04-13.24.21-20.56-1.32-5.3-3.59-10.81-6.95-16.84-.34-.62-.74-1.34-1.09-2.06-1.75-3.61-1.57-5.61.64-7.37,2.22-1.77,5.46-1.4,7.22.81,10.19,12.79,15.36,25.01,15.38,36.33.04,25.68-8.53,40.05-16.09,52.73-4.73,7.94-8.82,14.8-9.87,23.03-.13,1,.58,1.91,1.58,2.04.08,0,.16.01.23.01.91,0,1.69-.67,1.81-1.59.95-7.47,4.86-14.03,9.38-21.62,7.42-12.44,16.65-27.92,16.61-54.61-.02-12.16-5.46-25.15-16.17-38.6-3.02-3.79-8.56-4.42-12.35-1.4ZM61.46,101.61c0-12.88,10.48-23.35,23.35-23.35s23.35,10.48,23.35,23.35-10.48,23.35-23.35,23.35-23.35-10.48-23.35-23.35Z"/>
  <path class="cls-1" d="M61.49,64.45c.28,0,.57-.07.84-.2.9-.46,1.25-1.56.79-2.46-4.11-7.96-.27-12.39,4.58-18,3.77-4.36,7.98-9.23,8.5-16.34,3.8,2.49,10.51,8.42,10.42,19.14,0,.92.66,1.69,1.57,1.82.91.13,1.77-.43,2.01-1.31,3.64-12.95.19-19.55-2.59-24.85-2.45-4.68-4.33-8.27-.96-15.3,2.55,8.03,9,12.58,15.26,17,9.29,6.55,17.31,12.21,13.56,28.35-.23.98.38,1.96,1.36,2.19.99.23,1.96-.38,2.19-1.37,4.3-18.53-5.96-25.77-15.01-32.16-7.09-5-13.78-9.72-14.73-19.32-.08-.77-.63-1.41-1.39-1.59-.75-.18-1.54.13-1.96.79-7.53,11.71-4.63,17.24-1.56,23.11,1.77,3.38,3.58,6.83,3.75,11.97-4.16-9.4-12.94-13.22-13.06-13.27-.59-.25-1.27-.17-1.78.2-.52.38-.8.99-.75,1.63.62,7.41-3.56,12.24-7.6,16.91-5.07,5.86-10.3,11.91-5.07,22.07.32.63.96.99,1.62.99Z"/>
  <path class="cls-1" d="M21.88,43.68c4.14-5.13,8.78-10.87,9.7-19.5,3.47,2.49,9.42,8.38,9.42,19.56,0,1.01.82,1.83,1.83,1.83s1.83-.82,1.83-1.83c0-17.87-13.42-24.1-13.99-24.35-.57-.25-1.22-.2-1.74.13-.52.34-.83.91-.83,1.53,0,9.12-4.6,14.82-9.05,20.33-5.45,6.75-11.09,13.73-5.82,25.78.3.69.97,1.1,1.67,1.1.24,0,.49-.05.73-.15.92-.4,1.35-1.48.94-2.4-4.38-10.02-.1-15.32,5.32-22.02Z"/>
  <path class="cls-1" d="M160.96,50.58c-4.45-5.51-9.05-11.21-9.05-20.33,0-.62-.31-1.2-.83-1.53-.52-.34-1.17-.39-1.74-.13-.57.26-13.99,6.49-13.99,24.35,0,1.01.82,1.83,1.83,1.83s1.83-.82,1.83-1.83c0-11.18,5.96-17.08,9.42-19.56.92,8.63,5.56,14.37,9.7,19.5,5.42,6.7,9.7,12,5.32,22.02-.4.92.02,2,.94,2.4.24.1.49.15.73.15.7,0,1.37-.41,1.67-1.1,5.27-12.05-.37-19.03-5.82-25.78Z"/>
</svg>