<?xml version="1.0" encoding="UTF-8"?>
<svg id="Risk_Strategy" data-name="Risk &amp;amp; Strategy" xmlns="http://www.w3.org/2000/svg" viewBox="0 0 180 180">
  <defs>
    <style>
      .cls-1 {
        stroke: #000;
        stroke-miterlimit: 10;
        stroke-width: 2px;
      }
    </style>
  </defs>
  <path class="cls-1" d="M72.08,35.48c6.51,0,11.81-5.3,11.81-11.81v-11.85c0-6.51-5.3-11.81-11.81-11.81s-11.81,5.3-11.81,11.81v11.85c0,6.51,5.3,11.81,11.81,11.81ZM64.33,11.81c0-4.27,3.48-7.75,7.75-7.75s7.75,3.48,7.75,7.75v11.85c0,4.27-3.48,7.75-7.75,7.75s-7.75-3.48-7.75-7.75v-11.85Z"/>
  <path class="cls-1" d="M2.48,31.42c-1.12,0-2.03.91-2.03,2.03s.91,2.03,2.03,2.03h14.45c1.12,0,2.03-.91,2.03-2.03s-.91-2.03-2.03-2.03h-5.2V2.03c0-.82-.49-1.56-1.25-1.87-.76-.31-1.63-.14-2.21.43L1.05,7.75c-.8.79-.8,2.07-.01,2.87.79.8,2.07.8,2.87.01l3.77-3.73v24.51H2.48Z"/>
  <path class="cls-1" d="M98.14,31.42c-1.12,0-2.03.91-2.03,2.03s.91,2.03,2.03,2.03h14.45c1.12,0,2.03-.91,2.03-2.03s-.91-2.03-2.03-2.03h-5.2V2.03c0-.82-.49-1.56-1.25-1.87-.76-.31-1.63-.14-2.21.43l-7.23,7.16c-.8.79-.8,2.07-.01,2.87.79.8,2.07.8,2.87.01l3.77-3.73v24.51h-5.2Z"/>
  <path class="cls-1" d="M32.97,31.42c-1.12,0-2.03.91-2.03,2.03s.91,2.03,2.03,2.03h14.45c1.12,0,2.03-.91,2.03-2.03s-.91-2.03-2.03-2.03h-5.2V2.03c0-.82-.49-1.56-1.25-1.87-.76-.31-1.63-.14-2.21.43l-7.23,7.16c-.8.79-.8,2.08-.01,2.87.79.8,2.07.8,2.87.01l3.77-3.73v24.51h-5.2Z"/>
  <path class="cls-1" d="M167.74,35.48c6.51,0,11.81-5.3,11.81-11.81v-11.85c0-6.51-5.3-11.81-11.81-11.81s-11.81,5.3-11.81,11.81v11.85c0,6.51,5.3,11.81,11.81,11.81ZM159.99,11.81c0-4.27,3.48-7.75,7.75-7.75s7.75,3.48,7.75,7.75v11.85c0,4.27-3.48,7.75-7.75,7.75s-7.75-3.48-7.75-7.75v-11.85Z"/>
  <path class="cls-1" d="M128.63,31.42c-1.12,0-2.03.91-2.03,2.03s.91,2.03,2.03,2.03h14.45c1.12,0,2.03-.91,2.03-2.03s-.91-2.03-2.03-2.03h-5.2V2.03c0-.82-.49-1.56-1.25-1.87-.76-.31-1.63-.14-2.21.43l-7.23,7.16c-.8.79-.8,2.07-.01,2.87.79.8,2.07.8,2.87.01l3.77-3.73v24.51h-5.2Z"/>
  <path class="cls-1" d="M180,77.13v-22.03c0-1.12-.91-2.03-2.03-2.03H2.03c-1.12,0-2.03.91-2.03,2.03v22.03c0,.85.48,1.32.6,1.44,0,0,0,0,0,0l67.65,66.26v33.13c0,1.12.91,2.03,2.03,2.03h39.42c1.12,0,2.03-.91,2.03-2.03v-33.13l67.65-66.26s0,0,0,0c.13-.13.6-.71.6-1.44ZM4.06,57.13h171.88v17.97H4.06v-17.97ZM107.68,175.94h-35.36v-29.92h35.36v29.92ZM108.88,141.96h-37.76L7,79.16h165.99l-64.11,62.8Z"/>
</svg>