<?xml version="1.0" encoding="UTF-8"?>
<svg id="Risk_Strategy" data-name="Risk &amp;amp; Strategy" xmlns="http://www.w3.org/2000/svg" viewBox="0 0 180 180">
  <defs>
    <style>
      .cls-1 {
        stroke: #000;
        stroke-miterlimit: 10;
        stroke-width: 2px;
      }
    </style>
  </defs>
  <path class="cls-1" d="M94.18,8.32c-6.41,0-12.65.72-18.66,2.06l-2.17-8.8c-.27-1.08-1.35-1.74-2.43-1.47C35.84,8.74,8.69,35.89.06,70.97c-.27,1.08.39,2.16,1.47,2.43l8.87,2.19c-1.32,5.97-2.03,12.18-2.03,18.54,0,47.32,38.5,85.82,85.82,85.82s85.82-38.5,85.82-85.82S141.5,8.32,94.18,8.32ZM76.9,32.75l-22.52-22.52c4.95-2.33,10.15-4.26,15.56-5.71l6.97,28.24ZM50.59,12.11l28.18,28.18,7.17,29.06L37.26,20.68c4.17-3.22,8.62-6.08,13.32-8.57ZM34.12,23.23l53.68,53.68,3.59,14.53-14.53-3.59L23.18,34.17c3.34-3.95,7-7.61,10.95-10.95ZM40.24,78.82l-28.18-28.18c2.48-4.7,5.35-9.16,8.57-13.32l48.68,48.68-29.06-7.17ZM10.17,54.43l22.52,22.52-28.24-6.97c1.45-5.41,3.38-10.6,5.71-15.56ZM94.18,175.93c-45.1,0-81.8-36.69-81.8-81.8,0-6.03.67-11.92,1.91-17.58l79.35,19.58c.16.04.32.06.48.06.53,0,1.04-.21,1.42-.59.5-.5.7-1.22.53-1.9L76.49,14.28c5.7-1.26,11.62-1.94,17.7-1.94,45.1,0,81.8,36.69,81.8,81.8s-36.69,81.8-81.8,81.8Z"/>
</svg>