<?xml version="1.0" encoding="UTF-8"?>
<svg id="Risk_Strategy" data-name="Risk &amp;amp; Strategy" xmlns="http://www.w3.org/2000/svg" viewBox="0 0 180 180">
  <defs>
    <style>
      .cls-1 {
        stroke: #000;
        stroke-miterlimit: 10;
        stroke-width: 2px;
      }
    </style>
  </defs>
  <path class="cls-1" d="M35.83,72.09c19.76,0,35.83-16.07,35.83-35.83S55.59.43,35.83.43,0,16.5,0,36.26s16.07,35.83,35.83,35.83ZM35.83,4.28c17.64,0,31.98,14.35,31.98,31.98s-14.35,31.98-31.98,31.98S3.85,53.9,3.85,36.26,18.2,4.28,35.83,4.28Z"/>
  <path class="cls-1" d="M21.66,44.8c-.75.75-.75,1.97,0,2.72,3.91,3.91,9.04,5.86,14.17,5.86s10.26-1.95,14.17-5.86c.75-.75.75-1.97,0-2.72-.75-.75-1.97-.75-2.72,0-6.31,6.31-16.58,6.31-22.9,0-.75-.75-1.97-.75-2.72,0Z"/>
  <path class="cls-1" d="M24.68,30.73c2.08,0,3.78-1.7,3.78-3.78s-1.69-3.78-3.78-3.78-3.78,1.69-3.78,3.78,1.69,3.78,3.78,3.78Z"/>
  <path class="cls-1" d="M46.98,30.73c2.08,0,3.78-1.7,3.78-3.78s-1.69-3.78-3.78-3.78-3.78,1.69-3.78,3.78,1.69,3.78,3.78,3.78Z"/>
  <path class="cls-1" d="M144.17,72.09c19.76,0,35.83-16.07,35.83-35.83S163.93.43,144.17.43s-35.83,16.07-35.83,35.83,16.07,35.83,35.83,35.83ZM144.17,4.28c17.64,0,31.98,14.35,31.98,31.98s-14.35,31.98-31.98,31.98-31.98-14.35-31.98-31.98,14.35-31.98,31.98-31.98Z"/>
  <path class="cls-1" d="M130,51.23c.75.75,1.97.75,2.72,0,6.31-6.31,16.58-6.31,22.9,0,.38.38.87.56,1.36.56s.98-.19,1.36-.56c.75-.75.75-1.97,0-2.72-7.81-7.81-20.53-7.81-28.34,0-.75.75-.75,1.97,0,2.72Z"/>
  <path class="cls-1" d="M133.02,30.73c2.08,0,3.78-1.7,3.78-3.78s-1.69-3.78-3.78-3.78-3.78,1.69-3.78,3.78,1.69,3.78,3.78,3.78Z"/>
  <path class="cls-1" d="M155.32,30.73c2.08,0,3.78-1.7,3.78-3.78s-1.69-3.78-3.78-3.78-3.78,1.69-3.78,3.78,1.69,3.78,3.78,3.78Z"/>
  <path class="cls-1" d="M178.08,83.81h-67.81c-1.06,0-1.92.86-1.92,1.92v8.13c0,5.66,4.61,10.27,10.27,10.27h23.64v8.42l-40.56,11.56c-2.03-4.43-6.5-7.53-11.69-7.53s-9.65,3.09-11.68,7.53l-40.56-11.56v-8.42h23.64c5.66,0,10.27-4.61,10.27-10.27v-8.13c0-1.06-.86-1.92-1.92-1.92H1.92C.86,83.81,0,84.67,0,85.74v8.13C0,99.53,4.61,104.14,10.27,104.14h23.64v9.88c0,.86.57,1.62,1.4,1.85l41.95,11.96c-.07.54-.12,1.08-.12,1.63,0,1.95.45,3.79,1.23,5.45l-7.84,24.34h-6.09c-5.66,0-10.27,4.61-10.27,10.27v8.13c0,1.06.86,1.92,1.92,1.92h67.81c1.06,0,1.92-.86,1.92-1.92v-8.13c0-5.66-4.61-10.27-10.27-10.27h-6.09l-7.84-24.34c.78-1.66,1.23-3.5,1.23-5.45,0-.55-.05-1.1-.12-1.63l41.96-11.96c.83-.24,1.4-.99,1.4-1.85v-9.88h23.64c5.66,0,10.27-4.61,10.27-10.27v-8.13c0-1.06-.86-1.92-1.92-1.92ZM10.27,100.29c-3.54,0-6.42-2.88-6.42-6.42v-6.21h63.97v6.21c0,3.54-2.88,6.42-6.42,6.42H10.27ZM90,120.45c4.97,0,9.01,4.04,9.01,9.01s-4.04,9.01-9.01,9.01-9.01-4.04-9.01-9.01,4.04-9.01,9.01-9.01ZM115.56,163.09c3.54,0,6.42,2.88,6.42,6.42v6.21h-63.97v-6.21c0-3.54,2.88-6.42,6.42-6.42h51.13ZM105.43,159.24h-30.85l6.59-20.47c2.31,2.19,5.41,3.54,8.83,3.54s6.53-1.35,8.83-3.54l6.59,20.47ZM176.15,93.87c0,3.54-2.88,6.42-6.42,6.42h-51.13c-3.54,0-6.42-2.88-6.42-6.42v-6.21h63.97v6.21Z"/>
</svg>