<?xml version="1.0" encoding="UTF-8"?>
<svg id="Risk_Strategy" data-name="Risk &amp;amp; Strategy" xmlns="http://www.w3.org/2000/svg" viewBox="0 0 180 180">
  <defs>
    <style>
      .cls-1 {
        stroke: #000;
        stroke-miterlimit: 10;
        stroke-width: 2px;
      }
    </style>
  </defs>
  <path class="cls-1" d="M178.93,42.06L149.12,2.21c-.38-.51-.99-.81-1.63-.81s-1.24.3-1.63.81l-29.82,39.85c-.46.62-.53,1.44-.19,2.13.34.69,1.05,1.12,1.82,1.12h16.45v13.24l-47.43,29.5-46.83-29.13c-.95-.59-2.2-.3-2.8.65-.59.95-.3,2.2.65,2.8l45.14,28.07-17.63,10.96-44.25-27.52c-2.75-1.71-4.39-4.66-4.39-7.9v-5.33c0-1.12-.91-2.03-2.03-2.03s-2.03.91-2.03,2.03v5.33c0,4.65,2.36,8.9,6.31,11.35l42.55,26.46-49.92,31.05c-3.95,2.46-6.31,6.7-6.31,11.35v31.78c0,1.12.91,2.03,2.03,2.03s2.03-.91,2.03-2.03v-31.78c0-3.24,1.64-6.19,4.39-7.9l123.62-76.89c.6-.37.96-1.02.96-1.72v-16.39c0-1.12-.91-2.03-2.03-2.03h-14.42l25.76-34.43,25.76,34.43h-14.42c-1.12,0-2.03.91-2.03,2.03v22.69c0,3.24-1.64,6.19-4.39,7.9L28.79,150.76c-.6.37-.96,1.02-.96,1.72v25.48c0,1.12.91,2.03,2.03,2.03s2.03-.91,2.03-2.03v-24.35l54.8-34.08,54.8,34.08v24.35c0,1.12.91,2.03,2.03,2.03s2.03-.91,2.03-2.03v-25.48c0-.7-.36-1.35-.96-1.72l-54.06-33.62,17.63-10.96,51.62,32.1c2.75,1.71,4.39,4.66,4.39,7.9v31.78c0,1.12.91,2.03,2.03,2.03s2.03-.91,2.03-2.03v-31.78c0-4.65-2.36-8.9-6.31-11.35l-49.92-31.05,42.55-26.46c3.95-2.46,6.31-6.7,6.31-11.35v-20.66h16.45c.77,0,1.47-.43,1.82-1.12.34-.69.27-1.51-.19-2.13Z"/>
  <path class="cls-1" d="M51.12,48.43V2.03c0-1.12-.91-2.03-2.03-2.03H2.69C1.57,0,.66.91.66,2.03v46.4c0,1.12.91,2.03,2.03,2.03h46.4c1.12,0,2.03-.91,2.03-2.03ZM47.06,46.4H4.72V4.06h42.34v42.34Z"/>
  <path class="cls-1" d="M14.59,36.53c.4.4.92.59,1.44.59s1.04-.2,1.44-.59l8.43-8.43,8.43,8.43c.4.4.92.59,1.44.59s1.04-.2,1.44-.59c.79-.79.79-2.08,0-2.87l-8.43-8.43,8.43-8.43c.79-.79.79-2.08,0-2.87-.79-.79-2.08-.79-2.87,0l-8.43,8.43-8.43-8.43c-.79-.79-2.08-.79-2.87,0-.79.79-.79,2.08,0,2.87l8.43,8.43-8.43,8.43c-.79.79-.79,2.08,0,2.87Z"/>
</svg>