<?xml version="1.0" encoding="UTF-8"?>
<svg id="Risk_Strategy" data-name="Risk &amp;amp; Strategy" xmlns="http://www.w3.org/2000/svg" viewBox="0 0 180 180">
  <defs>
    <style>
      .cls-1 {
        stroke: #000;
        stroke-miterlimit: 10;
        stroke-width: 2px;
      }
    </style>
  </defs>
  <path class="cls-1" d="M43.15,180h0c-.7,0-1.35-.4-1.67-1.02l-10.69-21.17h-5.05c-7.89,0-14.3-6.42-14.3-14.3v-73.04c0-7.89,6.42-14.3,14.3-14.3h128.51c7.89,0,14.3,6.42,14.3,14.3v73.04c0,7.89-6.42,14.3-14.3,14.3H55.51l-10.69,21.17c-.32.63-.96,1.02-1.67,1.02ZM25.74,59.9c-5.83,0-10.57,4.74-10.57,10.57v73.04c0,5.83,4.74,10.57,10.57,10.57h6.2c.7,0,1.35.4,1.67,1.02l9.54,18.9,9.55-18.9c.32-.63.96-1.02,1.66-1.02h99.9c5.83,0,10.57-4.74,10.57-10.57v-73.04c0-5.83-4.74-10.57-10.57-10.57H25.74Z"/>
  <g>
    <path class="cls-1" d="M138.78,92.27H41.22c-1.03,0-1.87-.84-1.87-1.87s.84-1.87,1.87-1.87h97.56c1.03,0,1.87.84,1.87,1.87s-.84,1.87-1.87,1.87Z"/>
    <path class="cls-1" d="M138.78,108.85H41.22c-1.03,0-1.87-.84-1.87-1.87s.84-1.87,1.87-1.87h97.56c1.03,0,1.87.84,1.87,1.87s-.84,1.87-1.87,1.87Z"/>
    <path class="cls-1" d="M117.85,125.43h-55.71c-1.03,0-1.87-.84-1.87-1.87s.84-1.87,1.87-1.87h55.71c1.03,0,1.87.84,1.87,1.87s-.84,1.87-1.87,1.87Z"/>
  </g>
  <path class="cls-1" d="M92.07,43.95c-.26,0-.53-.06-.78-.17-.94-.43-1.34-1.54-.91-2.48l8.09-17.46h-15.72c-.64,0-1.23-.32-1.57-.86-.34-.54-.39-1.21-.12-1.79L90.38,1.08c.43-.94,1.54-1.34,2.48-.91.93.43,1.34,1.54.91,2.48l-8.09,17.46h15.72c.64,0,1.23.32,1.57.86.34.54.39,1.21.12,1.79l-9.32,20.11c-.32.68-.99,1.08-1.69,1.08Z"/>
  <g>
    <g>
      <path class="cls-1" d="M65.86,37.31c-.8,0-1.55-.52-1.79-1.33l-7.88-26.45c-.29-.99.27-2.03,1.25-2.32.99-.29,2.03.27,2.32,1.26l7.88,26.45c.29.99-.27,2.03-1.26,2.32-.18.05-.36.08-.53.08Z"/>
      <path class="cls-1" d="M46.38,41.46c-.54,0-1.08-.24-1.45-.69l-8.08-9.95c-.65-.8-.53-1.97.27-2.62.8-.65,1.98-.53,2.62.27l8.08,9.95c.65.8.53,1.97-.27,2.62-.35.28-.76.42-1.18.42Z"/>
    </g>
    <g>
      <path class="cls-1" d="M118.28,37.31c-.18,0-.36-.02-.53-.08-.99-.29-1.55-1.33-1.26-2.32l7.88-26.45c.29-.99,1.33-1.55,2.32-1.26.99.29,1.55,1.33,1.26,2.32l-7.88,26.45c-.24.81-.98,1.33-1.79,1.33Z"/>
      <path class="cls-1" d="M137.77,41.46c-.41,0-.83-.14-1.18-.42-.8-.65-.92-1.82-.27-2.62l8.08-9.95c.65-.8,1.83-.92,2.62-.27.8.65.92,1.82.27,2.62l-8.08,9.95c-.37.45-.91.69-1.45.69Z"/>
    </g>
  </g>
</svg>