<?xml version="1.0" encoding="UTF-8"?>
<svg id="Risk_Strategy" data-name="Risk &amp;amp; Strategy" xmlns="http://www.w3.org/2000/svg" viewBox="0 0 180 180">
  <defs>
    <style>
      .cls-1 {
        stroke: #000;
        stroke-miterlimit: 10;
        stroke-width: 2px;
      }
    </style>
  </defs>
  <path class="cls-1" d="M178.02,18.79c1.09,0,1.98-.89,1.98-1.98V1.98C180,.89,179.11,0,178.02,0H1.98C.89,0,0,.89,0,1.98v14.82c0,1.09.89,1.98,1.98,1.98h2.65v81.81H1.98c-1.09,0-1.98.89-1.98,1.98v14.82c0,1.09.89,1.98,1.98,1.98h53.2l-18.09,56.66h-4.04c-1.09,0-1.98.89-1.98,1.98s.89,1.98,1.98,1.98h11.28c1.09,0,1.98-.89,1.98-1.98s-.89-1.98-1.98-1.98h-3.08l18.09-56.66h61.33l18.09,56.66h-3.08c-1.09,0-1.98.89-1.98,1.98s.89,1.98,1.98,1.98h11.28c1.09,0,1.98-.89,1.98-1.98s-.89-1.98-1.98-1.98h-4.04l-18.09-56.66h53.2c1.09,0,1.98-.89,1.98-1.98v-14.82c0-1.09-.89-1.98-1.98-1.98h-2.65V18.79h2.65ZM3.96,3.96h172.08v10.86H3.96V3.96ZM176.04,115.42H3.96v-10.86h172.08v10.86ZM171.41,100.6H8.59V18.79h162.81v81.81Z"/>
  <path class="cls-1" d="M94.17,159.43h-2.19v-27.2c0-1.09-.89-1.98-1.98-1.98s-1.98.89-1.98,1.98v27.2h-2.19c-1.09,0-1.98.89-1.98,1.98s.89,1.98,1.98,1.98h8.34c1.09,0,1.98-.89,1.98-1.98s-.89-1.98-1.98-1.98Z"/>
  <path class="cls-1" d="M128.08,43.14h19.28c1.09,0,1.98-.89,1.98-1.98s-.89-1.98-1.98-1.98h-19.28c-1.09,0-1.98.89-1.98,1.98s.89,1.98,1.98,1.98Z"/>
  <path class="cls-1" d="M128.08,61.67h19.28c1.09,0,1.98-.89,1.98-1.98s-.89-1.98-1.98-1.98h-19.28c-1.09,0-1.98.89-1.98,1.98s.89,1.98,1.98,1.98Z"/>
  <path class="cls-1" d="M128.08,80.2h19.28c1.09,0,1.98-.89,1.98-1.98s-.89-1.98-1.98-1.98h-19.28c-1.09,0-1.98.89-1.98,1.98s.89,1.98,1.98,1.98Z"/>
  <path class="cls-1" d="M30.59,79.88c.33.22.71.32,1.08.32.65,0,1.28-.32,1.66-.9l11.48-17.63h7.99c.67,0,1.29-.34,1.66-.9l11.48-17.63h6.92l11.48,17.63c.37.56.99.9,1.66.9h9.15c.67,0,1.29-.34,1.66-.9l8.64-13.28c.33.64.99,1.09,1.76,1.09,1.09,0,1.98-.89,1.98-1.98,0,0,0-5.44,0-5.44,0-.64-.32-1.27-.9-1.65-.58-.38-1.28-.41-1.87-.15,0,0-5.04,2.21-5.04,2.21-1,.44-1.46,1.61-1.02,2.61.32.72,1.02,1.16,1.76,1.18l-8.05,12.37h-7l-11.48-17.63c-.37-.56-.99-.9-1.66-.9h-9.07c-.67,0-1.29.34-1.66.9l-11.48,17.63h-7.99c-.67,0-1.29.34-1.66.9l-12.06,18.53c-.6.92-.34,2.14.58,2.74Z"/>
  <path class="cls-1" d="M57.89,76.24h-8.57c-1.09,0-1.98.89-1.98,1.98s.89,1.98,1.98,1.98h8.57c1.09,0,1.98-.89,1.98-1.98s-.89-1.98-1.98-1.98Z"/>
  <path class="cls-1" d="M80.06,76.24h-8.57c-1.09,0-1.98.89-1.98,1.98s.89,1.98,1.98,1.98h8.57c1.09,0,1.98-.89,1.98-1.98s-.89-1.98-1.98-1.98Z"/>
  <path class="cls-1" d="M102.23,76.24h-8.57c-1.09,0-1.98.89-1.98,1.98s.89,1.98,1.98,1.98h8.57c1.09,0,1.98-.89,1.98-1.98s-.89-1.98-1.98-1.98Z"/>
</svg>