<?xml version="1.0" encoding="UTF-8"?>
<svg id="Risk_Strategy" data-name="Risk &amp;amp; Strategy" xmlns="http://www.w3.org/2000/svg" viewBox="0 0 180 180">
  <defs>
    <style>
      .cls-1 {
        stroke: #000;
        stroke-miterlimit: 10;
        stroke-width: 2px;
      }
    </style>
  </defs>
  <path class="cls-1" d="M63.51,95.84h-21.77c.15-.51.24-1.04.24-1.6v-24.35l8.09-5.18c.5-.32.82-.85.88-1.44.01-.12,1.22-12.24,1.89-20.98.68-8.89-2.29-11-7.21-13.71-.38-.21-5.8-3.25-8.32-4.65,2.23-2.54,3.59-5.86,3.59-9.5,0-7.96-6.48-14.44-14.44-14.44s-14.44,6.48-14.44,14.44c0,3.64,1.36,6.96,3.59,9.5-2.52,1.4-7.95,4.45-8.32,4.65C2.39,31.3-.58,33.41.1,42.3c.67,8.73,1.88,20.86,1.89,20.98.06.59.38,1.12.88,1.44l8.09,5.18v24.35c0,.56.08,1.09.24,1.6H1.93C.87,95.84,0,96.7,0,97.77v80.3c0,1.07.87,1.93,1.93,1.93h27.08c.89,0,1.66-.6,1.87-1.46l5.3-21,19.61-11.61c.48-.28.81-.76.92-1.31l8.7-46.5c.11-.57-.05-1.15-.41-1.59-.37-.44-.91-.7-1.49-.7ZM26.47,3.87c5.83,0,10.57,4.74,10.57,10.57s-4.74,10.57-10.57,10.57-10.57-4.74-10.57-10.57S20.64,3.87,26.47,3.87ZM14.83,94.24v-25.41c0-.66-.34-1.27-.89-1.63l-8.19-5.24c-.29-3.01-1.23-12.67-1.79-19.96-.53-6.86,1.04-7.72,5.22-10.03.39-.21,6.69-3.75,9.58-5.35,2.23,1.42,4.87,2.25,7.71,2.25s5.48-.83,7.71-2.25c2.89,1.6,9.2,5.14,9.58,5.35,4.18,2.31,5.75,3.17,5.22,10.03-.56,7.29-1.49,16.95-1.79,19.96l-8.19,5.24c-.56.35-.89.97-.89,1.63v25.41c0,.88-.72,1.6-1.6,1.6h-20.09c-.88,0-1.6-.72-1.6-1.6ZM53.07,143.05l-19.55,11.57c-.44.26-.76.69-.89,1.19l-5.12,20.32H3.87v-76.43h57.32l-8.11,43.35Z"/>
  <path class="cls-1" d="M178.07,95.84h-61.58c-.57,0-1.12.26-1.49.7-.37.44-.52,1.02-.41,1.59l8.7,46.5c.1.55.44,1.02.92,1.31l19.61,11.61,5.3,21c.22.86.99,1.46,1.87,1.46h27.08c1.07,0,1.93-.87,1.93-1.93v-80.3c0-1.07-.87-1.93-1.93-1.93ZM176.13,176.13h-23.64l-5.12-20.32c-.13-.5-.45-.93-.89-1.19l-19.55-11.57-8.11-43.35h57.32v76.43Z"/>
  <path class="cls-1" d="M66.31,76.3c-1.96,1.37-3.81,2.93-5.51,4.63-.76.75-.76,1.98,0,2.73.38.38.87.57,1.37.57s.99-.19,1.37-.57c1.54-1.54,3.23-2.96,5-4.2.87-.61,1.09-1.82.47-2.69-.61-.87-1.82-1.09-2.69-.47Z"/>
  <path class="cls-1" d="M100.7,70.24c-2.31-.62-4.7-1.04-7.09-1.25-1.06-.08-2,.69-2.09,1.76-.09,1.06.69,2,1.76,2.09,2.17.19,4.33.57,6.43,1.13.17.04.34.07.5.07.85,0,1.64-.57,1.87-1.43.28-1.03-.34-2.09-1.37-2.37Z"/>
  <path class="cls-1" d="M116.79,81.23c.69-.82.58-2.04-.23-2.72-1.84-1.55-3.82-2.94-5.89-4.14-.92-.53-2.11-.22-2.64.71-.53.92-.22,2.11.71,2.64,1.88,1.08,3.67,2.35,5.34,3.75.36.3.8.45,1.24.45.55,0,1.1-.23,1.48-.69Z"/>
  <path class="cls-1" d="M82.83,69.46c-2.36.41-4.71,1.04-6.96,1.86-1,.36-1.52,1.47-1.16,2.48.29.79,1.03,1.27,1.82,1.27.22,0,.44-.04.66-.12,2.04-.74,4.16-1.31,6.31-1.68,1.05-.18,1.75-1.19,1.57-2.24-.18-1.05-1.18-1.75-2.24-1.57Z"/>
</svg>