<?xml version="1.0" encoding="UTF-8"?>
<svg id="Risk_Strategy" data-name="Risk &amp;amp; Strategy" xmlns="http://www.w3.org/2000/svg" viewBox="0 0 180 180">
  <defs>
    <style>
      .cls-1 {
        stroke: #000;
        stroke-miterlimit: 10;
        stroke-width: 2px;
      }
    </style>
  </defs>
  <path class="cls-1" d="M21.53,170.82h-11.55V15.21l2.16,4.03c.53.98,1.75,1.35,2.73.83.98-.52,1.35-1.75.83-2.73l-5.95-11.12c-.35-.66-1.03-1.06-1.78-1.06s-1.43.41-1.78,1.06L.24,17.34c-.53.98-.16,2.2.83,2.73.3.16.63.24.95.24.72,0,1.41-.39,1.78-1.06l2.16-4.04v157.62c0,1.11.9,2.01,2.01,2.01h13.57c1.11,0,2.01-.9,2.01-2.01s-.9-2.01-2.01-2.01Z"/>
  <path class="cls-1" d="M177.99,170.82h-7.79V43.32c0-1.11-.9-2.01-2.01-2.01h-24.12c-1.11,0-2.01.9-2.01,2.01v127.5h-25.98v-19.95c0-1.11-.9-2.01-2.01-2.01s-2.01.9-2.01,2.01v19.95h-23.58v-15.37c0-1.11-.9-2.01-2.01-2.01s-2.01.9-2.01,2.01v15.37h-9.72c-1.11,0-2.01.9-2.01,2.01s.9,2.01,2.01,2.01h103.28c1.11,0,2.01-.9,2.01-2.01s-.9-2.01-2.01-2.01ZM146.07,45.33h20.09v125.48h-20.09V45.33Z"/>
  <path class="cls-1" d="M92.69,145.66c21,0,38.08-17.08,38.08-38.08s-17.08-38.08-38.08-38.08-38.08,17.08-38.08,38.08c0,8.75,2.97,16.81,7.95,23.25l-27.92,40.86c-.63.92-.39,2.17.53,2.8.92.63,2.17.39,2.8-.53l27.32-39.98c3.59,3.72,7.91,6.72,12.75,8.74l-19.79,28.97c-.63.92-.39,2.17.53,2.8.35.24.74.35,1.13.35.64,0,1.27-.31,1.67-.88l20.4-29.85c3.4,1,7,1.55,10.72,1.55ZM58.65,107.58c0-18.77,15.27-34.05,34.05-34.05s34.05,15.27,34.05,34.05-15.27,34.05-34.05,34.05-34.05-15.27-34.05-34.05Z"/>
  <path class="cls-1" d="M94.71,85.47c0-1.11-.9-2.01-2.01-2.01-13.3,0-24.13,10.82-24.13,24.13,0,1.11.9,2.01,2.01,2.01s2.01-.9,2.01-2.01c0-11.08,9.02-20.1,20.1-20.1,1.11,0,2.01-.9,2.01-2.01Z"/>
  <path class="cls-1" d="M34.76,45.33h20.09v29.94c0,1.11.9,2.01,2.01,2.01s2.01-.9,2.01-2.01v-31.96c0-1.11-.9-2.01-2.01-2.01h-24.12c-1.11,0-2.01.9-2.01,2.01v113.11c0,1.11.9,2.01,2.01,2.01s2.01-.9,2.01-2.01V45.33Z"/>
  <path class="cls-1" d="M88.4,61.52c1.11,0,2.01-.9,2.01-2.01V9.18h20.09v54.39c0,1.11.9,2.01,2.01,2.01s2.01-.9,2.01-2.01V7.17c0-1.11-.9-2.01-2.01-2.01h-24.12c-1.11,0-2.01.9-2.01,2.01v52.33c0,1.11.9,2.01,2.01,2.01Z"/>
</svg>