<?xml version="1.0" encoding="UTF-8"?>
<svg id="Risk_Strategy" data-name="Risk &amp;amp; Strategy" xmlns="http://www.w3.org/2000/svg" viewBox="0 0 180 180">
  <defs>
    <style>
      .cls-1 {
        stroke: #000;
        stroke-miterlimit: 10;
        stroke-width: 2px;
      }
    </style>
  </defs>
  <path class="cls-1" d="M170.54,80.54c-2.31,0-10.47.89-17.98,2.27-.34.06-.67.13-.99.19-1.34-11.85-6.03-22.69-13.11-31.57.28-.19.57-.38.86-.59,6.29-4.33,12.69-9.47,14.32-11.11,3.69-3.69,3.69-9.69,0-13.38s-9.69-3.69-13.38,0c-1.64,1.63-6.77,8.03-11.11,14.32-.2.3-.39.58-.59.86-8.87-7.08-19.71-11.77-31.57-13.11.06-.33.13-.65.19-.99,1.39-7.51,2.27-15.67,2.27-17.98,0-5.22-4.25-9.46-9.46-9.46s-9.46,4.25-9.46,9.46c0,2.31.89,10.47,2.27,17.98.06.34.13.67.19.99-11.85,1.34-22.69,6.03-31.57,13.11-.19-.28-.38-.57-.59-.86-4.33-6.29-9.47-12.69-11.11-14.32-3.69-3.69-9.69-3.69-13.38,0-3.69,3.69-3.69,9.69,0,13.38,1.63,1.64,8.03,6.77,14.32,11.11.3.2.58.39.86.59-7.08,8.87-11.77,19.71-13.11,31.57-.33-.06-.65-.13-.99-.19-7.51-1.39-15.67-2.27-17.98-2.27-5.22,0-9.46,4.24-9.46,9.46s4.25,9.46,9.46,9.46c2.31,0,10.47-.89,17.98-2.27.34-.06.67-.13.99-.19,1.34,11.85,6.03,22.69,13.11,31.57-.28.19-.57.38-.86.59-6.29,4.33-12.68,9.47-14.32,11.11-1.79,1.79-2.77,4.16-2.77,6.69s.98,4.9,2.77,6.69c1.84,1.84,4.27,2.77,6.69,2.77s4.85-.92,6.69-2.77c1.64-1.63,6.77-8.03,11.11-14.32.2-.3.39-.58.59-.86,8.87,7.08,19.71,11.77,31.57,13.11-.06.33-.13.65-.19.99-1.39,7.51-2.27,15.67-2.27,17.98,0,5.22,4.24,9.46,9.46,9.46s9.46-4.24,9.46-9.46c0-2.31-.89-10.47-2.27-17.98-.06-.34-.13-.67-.19-.99,11.85-1.34,22.69-6.03,31.57-13.11.19.28.38.57.59.86,4.33,6.29,9.47,12.69,11.11,14.32,1.84,1.84,4.27,2.77,6.69,2.77s4.85-.92,6.69-2.77c3.69-3.69,3.69-9.69,0-13.38-1.64-1.64-8.03-6.77-14.32-11.11-.3-.2-.58-.39-.86-.59,7.08-8.87,11.77-19.71,13.11-31.57.33.06.65.13.99.19,7.51,1.39,15.67,2.27,17.98,2.27,5.22,0,9.46-4.25,9.46-9.46s-4.24-9.46-9.46-9.46ZM142.81,28.91c1.14-1.14,2.64-1.71,4.14-1.71s3,.57,4.14,1.71c2.28,2.28,2.28,6,0,8.28-2.28,2.28-8.92,7.41-14.97,11.47-1.51-1.68-3.1-3.27-4.78-4.78,4.06-6.05,9.18-12.68,11.47-14.97ZM84.15,9.46c0-3.23,2.63-5.86,5.85-5.86s5.86,2.63,5.86,5.86-1.07,11.53-2.47,18.66c-1.12-.06-2.25-.1-3.39-.1s-2.26.04-3.39.1c-1.4-7.13-2.47-15.43-2.47-18.66ZM28.91,37.19c-2.28-2.28-2.28-6,0-8.28,1.14-1.14,2.64-1.71,4.14-1.71s3,.57,4.14,1.71c2.28,2.28,7.41,8.92,11.47,14.97-1.68,1.51-3.27,3.1-4.78,4.78-6.05-4.06-12.68-9.18-14.97-11.47ZM9.46,95.86c-3.23,0-5.86-2.63-5.86-5.86s2.63-5.85,5.86-5.85,11.53,1.07,18.66,2.47c-.06,1.12-.1,2.25-.1,3.39s.04,2.26.1,3.39c-7.13,1.4-15.43,2.47-18.66,2.47ZM37.19,151.09c-2.28,2.28-6,2.28-8.28,0-2.28-2.28-2.28-6,0-8.28,2.28-2.28,8.92-7.41,14.97-11.47,1.51,1.68,3.1,3.27,4.78,4.78-4.06,6.05-9.18,12.68-11.47,14.97ZM95.86,170.54c0,3.23-2.63,5.85-5.86,5.85s-5.85-2.63-5.85-5.85,1.07-11.53,2.47-18.66c1.12.06,2.25.1,3.39.1s2.26-.04,3.39-.1c1.4,7.13,2.47,15.43,2.47,18.66ZM151.09,142.81c2.28,2.28,2.28,6,0,8.28-2.28,2.28-6,2.28-8.28,0-2.28-2.28-7.41-8.92-11.47-14.97,1.68-1.51,3.27-3.1,4.78-4.78,6.04,4.05,12.68,9.18,14.97,11.47ZM90,148.37c-32.18,0-58.36-26.18-58.36-58.37s26.18-58.36,58.36-58.36,58.37,26.18,58.37,58.36-26.18,58.37-58.37,58.37ZM170.54,95.86c-3.23,0-11.53-1.07-18.66-2.47.06-1.12.1-2.25.1-3.39s-.04-2.26-.1-3.39c7.13-1.4,15.43-2.47,18.66-2.47s5.85,2.63,5.85,5.85-2.63,5.86-5.85,5.86Z"/>
  <path class="cls-1" d="M90,44.61c-25.03,0-45.39,20.36-45.39,45.39s20.36,45.39,45.39,45.39,45.39-20.36,45.39-45.39-20.36-45.39-45.39-45.39ZM120.78,118.23l-11.62-11.62c3.5-4.03,5.75-9.16,6.14-14.81h16.43c-.43,10.16-4.51,19.4-10.96,26.42ZM48.26,91.8h16.43c.4,5.64,2.65,10.78,6.14,14.81l-11.62,11.62c-6.45-7.03-10.53-16.26-10.96-26.42ZM59.22,61.77l11.62,11.62c-3.5,4.03-5.75,9.16-6.14,14.81h-16.43c.43-10.16,4.51-19.4,10.96-26.42ZM90,111.77c-12,0-21.77-9.77-21.77-21.77s9.77-21.77,21.77-21.77,21.77,9.77,21.77,21.77-9.77,21.77-21.77,21.77ZM106.61,70.84c-4.03-3.5-9.17-5.75-14.81-6.15v-16.43c10.16.43,19.4,4.51,26.42,10.96l-11.62,11.62ZM88.2,64.69c-5.64.4-10.78,2.65-14.81,6.15l-11.62-11.62c7.03-6.45,16.26-10.53,26.42-10.96v16.43ZM73.39,109.16c4.03,3.5,9.16,5.75,14.81,6.15v16.43c-10.16-.43-19.4-4.51-26.42-10.96l11.62-11.62ZM91.8,115.31c5.64-.4,10.78-2.65,14.81-6.15l11.62,11.62c-7.03,6.45-16.26,10.53-26.42,10.96v-16.43ZM115.31,88.2c-.4-5.64-2.65-10.78-6.14-14.81l11.62-11.62c6.45,7.03,10.53,16.26,10.96,26.42h-16.43Z"/>
  <path class="cls-1" d="M90,78.12c-6.55,0-11.88,5.33-11.88,11.88s5.33,11.88,11.88,11.88,11.88-5.33,11.88-11.88-5.33-11.88-11.88-11.88ZM90,98.27c-4.56,0-8.27-3.71-8.27-8.27s3.71-8.27,8.27-8.27,8.27,3.71,8.27,8.27-3.71,8.27-8.27,8.27Z"/>
</svg>