<?xml version="1.0" encoding="UTF-8"?>
<svg id="Risk_Strategy" data-name="Risk &amp;amp; Strategy" xmlns="http://www.w3.org/2000/svg" viewBox="0 0 180 180">
  <defs>
    <style>
      .cls-1 {
        stroke: #000;
        stroke-miterlimit: 10;
        stroke-width: 2px;
      }
    </style>
  </defs>
  <path class="cls-1" d="M179.77,105.38c.28-.49.3-1.08.06-1.59l-29.73-61.08v-8.14c0-.79-.54-1.47-1.3-1.66l-58.39-14.48c-.27-.07-.55-.07-.82,0l-58.39,14.48c-.76.19-1.3.87-1.3,1.66v8.14L.17,103.79c-.25.51-.22,1.1.06,1.59,0,0,0,0,0,0,.01.02.02.04.03.06,0,0,0,0,0,0,0,0,0,0,0,0,5.45,9.55,17.75,15.72,31.35,15.72s25.89-6.17,31.35-15.72c0,0,0,0,0,0,0,0,0,0,0,0,.01-.02.02-.04.04-.06,0,0,0,0,0,0,.28-.49.3-1.08.06-1.59l-28.71-58.98h47.11v87.54h-5.24c-5.55,0-6.9,3.86-7.35,5.15-1.46,4.19-5.43,7.01-9.87,7.01h-9.81c-.94,0-1.71.77-1.71,1.71v13.68c0,.94.77,1.71,1.71,1.71h81.62c.94,0,1.71-.77,1.71-1.71v-13.68c0-.94-.77-1.71-1.71-1.71h-9.8c-4.44,0-8.41-2.82-9.87-7.02-.44-1.27-1.79-5.14-7.34-5.14h-5.24V44.82h47.11l-28.71,58.98c-.25.51-.22,1.1.06,1.59,0,0,0,0,0,0,.01.02.02.04.04.06,0,0,0,0,0,0,0,0,0,0,0,0,5.45,9.55,17.75,15.72,31.35,15.72s25.89-6.17,31.35-15.72c0,0,0,0,0,0,0,0,0,0,0,0,.01-.02.02-.04.03-.06,0,0,0,0,0,0ZM33.32,35.91l56.68-14.06,56.68,14.06v5.48H33.32v-5.48ZM31.61,117.76c-11.14,0-21.26-4.43-26.72-11.5h53.43c-5.46,7.07-15.58,11.5-26.72,11.5ZM4.44,102.83l27.17-55.82,27.17,55.82H4.44ZM107.91,138.64c1.94,5.56,7.2,9.3,13.1,9.3h8.1v10.26H50.9v-10.26h8.1c5.89,0,11.16-3.74,13.1-9.32.42-1.2.99-2.84,4.11-2.84h27.58c3.12,0,3.7,1.64,4.12,2.86ZM95.13,132.36h-10.26V44.82h10.26v87.54ZM148.39,47.01l27.17,55.82h-54.34l27.17-55.82ZM148.39,117.76c-11.14,0-21.26-4.43-26.72-11.5h53.43c-5.46,7.07-15.58,11.5-26.72,11.5Z"/>
  <path class="cls-1" d="M89.8,35.3c1.78,0,3.23-1.45,3.23-3.23s-1.45-3.23-3.23-3.23-3.23,1.45-3.23,3.23,1.45,3.23,3.23,3.23Z"/>
</svg>