<?xml version="1.0" encoding="UTF-8"?>
<svg id="Risk_Strategy" data-name="Risk &amp;amp; Strategy" xmlns="http://www.w3.org/2000/svg" viewBox="0 0 180 180">
  <defs>
    <style>
      .cls-1 {
        stroke: #000;
        stroke-miterlimit: 10;
        stroke-width: 2px;
      }
    </style>
  </defs>
  <path class="cls-1" d="M140.57,169.56H3.93v-97.05c0-1.08-.88-1.96-1.96-1.96s-1.96.88-1.96,1.96v99.01c0,1.08.88,1.96,1.96,1.96h138.61c1.08,0,1.96-.88,1.96-1.96s-.88-1.96-1.96-1.96Z"/>
  <path class="cls-1" d="M66.22,32.67h9.95c1.08,0,1.96-.88,1.96-1.96s-.88-1.96-1.96-1.96h-9.95c-1.08,0-1.96.88-1.96,1.96s.88,1.96,1.96,1.96Z"/>
  <path class="cls-1" d="M93.27,32.67h9.95c1.08,0,1.96-.88,1.96-1.96s-.88-1.96-1.96-1.96h-9.95c-1.08,0-1.96.88-1.96,1.96s.88,1.96,1.96,1.96Z"/>
  <path class="cls-1" d="M120.32,32.67h9.95c1.08,0,1.96-.88,1.96-1.96s-.88-1.96-1.96-1.96h-9.95c-1.08,0-1.96.88-1.96,1.96s.88,1.96,1.96,1.96Z"/>
  <path class="cls-1" d="M147.38,32.67h9.95c1.08,0,1.96-.88,1.96-1.96s-.88-1.96-1.96-1.96h-9.95c-1.08,0-1.96.88-1.96,1.96s.88,1.96,1.96,1.96Z"/>
  <path class="cls-1" d="M179.98,167.73l-8.14-52.66c-.13-.82-.75-1.47-1.56-1.63-.82-.16-1.64.21-2.06.92l-7.12,11.86-45.83-60.99c-2.17-2.89-5.62-4.61-9.23-4.61h-38.45L27.5,7.3c-.37-.49-.95-.78-1.57-.78H1.96c-.74,0-1.42.42-1.76,1.09-.33.67-.26,1.46.19,2.06l48.22,64.16c.65.87,1.88,1.04,2.75.39.87-.65,1.04-1.88.39-2.75L5.9,10.44h19.06l40.08,53.33c.37.49.95.78,1.57.78h39.43c2.38,0,4.66,1.14,6.09,3.04l47.58,63.32c.39.52,1.01.81,1.67.78.65-.03,1.25-.39,1.58-.95l5.83-9.71,6.75,43.66-40-18.74,10.88-2.85c.63-.17,1.14-.64,1.36-1.25.21-.62.11-1.3-.28-1.83l-44.67-59.44c-.37-.49-.95-.78-1.57-.78h-17.28c-1.08,0-1.96.88-1.96,1.96s.88,1.96,1.96,1.96h16.3l42.32,56.32-13.3,3.48c-.8.21-1.38.9-1.46,1.72-.08.82.37,1.61,1.12,1.96l48.25,22.61c.27.12.55.19.83.19.42,0,.83-.13,1.18-.39.58-.43.87-1.15.76-1.87Z"/>
  <path class="cls-1" d="M26.57,154.76h75.7c2.98,0,5.35-1.16,6.51-3.17,1.16-2.01.98-4.65-.51-7.22l-37.85-65.56c-1.49-2.58-3.67-4.05-6-4.05s-4.51,1.48-6,4.05l-37.85,65.56c-1.49,2.58-1.67,5.21-.51,7.22,1.16,2.01,3.54,3.17,6.51,3.17ZM23.97,146.33l37.85-65.56c.77-1.33,1.71-2.09,2.6-2.09s1.83.76,2.6,2.09l37.85,65.56c.77,1.33.95,2.53.51,3.3-.44.77-1.58,1.21-3.11,1.21H26.57c-1.53,0-2.67-.44-3.11-1.21-.44-.77-.26-1.97.51-3.3Z"/>
  <path class="cls-1" d="M64.42,127c1.08,0,1.96-.88,1.96-1.96v-21c0-1.08-.88-1.96-1.96-1.96s-1.96.88-1.96,1.96v21c0,1.08.88,1.96,1.96,1.96Z"/>
  <path class="cls-1" d="M64.42,140.87c1.83,0,3.32-1.49,3.32-3.32s-1.49-3.32-3.32-3.32-3.32,1.49-3.32,3.32,1.49,3.32,3.32,3.32Z"/>
</svg>