<?xml version="1.0" encoding="UTF-8"?>
<svg id="Risk_Strategy" data-name="Risk &amp;amp; Strategy" xmlns="http://www.w3.org/2000/svg" viewBox="0 0 180 180">
  <defs>
    <style>
      .cls-1 {
        stroke: #000;
        stroke-miterlimit: 10;
        stroke-width: 2px;
      }
    </style>
  </defs>
  <path class="cls-1" d="M53.6,76.93h72.79c2.86,0,5.14-1.11,6.26-3.05,1.12-1.94.94-4.47-.49-6.95L95.77,3.9c-1.43-2.48-3.53-3.9-5.77-3.9s-4.34,1.42-5.77,3.9l-36.4,63.04c-1.43,2.48-1.61,5.01-.49,6.95,1.12,1.94,3.4,3.05,6.26,3.05ZM51.1,68.83L87.5,5.79c.74-1.28,1.65-2.01,2.5-2.01s1.76.73,2.5,2.01l36.4,63.04c.74,1.28.92,2.43.49,3.17-.43.74-1.52,1.16-2.99,1.16H53.6c-1.48,0-2.56-.42-2.99-1.16-.43-.74-.25-1.89.49-3.17Z"/>
  <path class="cls-1" d="M90,50.24c1.04,0,1.89-.85,1.89-1.89v-20.19c0-1.04-.85-1.89-1.89-1.89s-1.89.85-1.89,1.89v20.19c0,1.04.85,1.89,1.89,1.89Z"/>
  <path class="cls-1" d="M90,63.57c1.76,0,3.2-1.43,3.2-3.2s-1.43-3.2-3.2-3.2-3.2,1.43-3.2,3.2,1.43,3.2,3.2,3.2Z"/>
  <path class="cls-1" d="M173.1,165.65h-26.84c-.91-5.98-6.07-10.57-12.3-10.57s-11.39,4.6-12.3,10.57H5.69c-1.04,0-1.89.85-1.89,1.89s.85,1.89,1.89,1.89h115.96c.91,5.98,6.07,10.57,12.3,10.57s11.39-4.6,12.3-10.57h26.84c1.04,0,1.89-.85,1.89-1.89s-.85-1.89-1.89-1.89ZM133.95,176.22c-4.79,0-8.68-3.9-8.68-8.69s3.9-8.68,8.68-8.68,8.68,3.9,8.68,8.68-3.9,8.69-8.68,8.69Z"/>
  <path class="cls-1" d="M173.71,137.81H57.74c-.91-5.98-6.07-10.57-12.3-10.57s-11.39,4.6-12.3,10.57H6.29c-1.04,0-1.89.85-1.89,1.89s.85,1.89,1.89,1.89h26.84c.91,5.98,6.08,10.57,12.3,10.57s11.39-4.6,12.3-10.57h115.96c1.04,0,1.89-.85,1.89-1.89s-.85-1.89-1.89-1.89ZM45.44,148.38c-4.79,0-8.69-3.9-8.69-8.69s3.9-8.68,8.69-8.68,8.69,3.9,8.69,8.68-3.9,8.69-8.69,8.69Z"/>
  <path class="cls-1" d="M174.31,109.97h-26.84c-.91-5.98-6.07-10.57-12.3-10.57s-11.39,4.6-12.3,10.57H6.9c-1.04,0-1.89.85-1.89,1.89s.85,1.89,1.89,1.89h115.96c.91,5.98,6.08,10.57,12.3,10.57s11.39-4.6,12.3-10.57h26.84c1.04,0,1.89-.85,1.89-1.89s-.85-1.89-1.89-1.89ZM135.17,120.55c-4.79,0-8.69-3.9-8.69-8.68s3.9-8.69,8.69-8.69,8.69,3.9,8.69,8.69-3.9,8.68-8.69,8.68Z"/>
</svg>