<?xml version="1.0" encoding="UTF-8"?>
<svg id="Risk_Strategy" data-name="Risk &amp;amp; Strategy" xmlns="http://www.w3.org/2000/svg" viewBox="0 0 180 180">
  <defs>
    <style>
      .cls-1 {
        stroke: #000;
        stroke-miterlimit: 10;
        stroke-width: 2px;
      }
    </style>
  </defs>
  <path class="cls-1" d="M151.72,0H28.28c-8.66,0-15.71,7.05-15.71,15.71v148.58c0,8.66,7.05,15.71,15.71,15.71h123.45c8.66,0,15.71-7.05,15.71-15.71V15.71c0-8.66-7.05-15.71-15.71-15.71ZM62.56,24.37h54.87c1.13,0,2.05-.92,2.05-2.05v-5.26h.71c6.03,0,10.93,4.9,10.93,10.93s-4.9,10.93-10.93,10.93h-60.39c-6.03,0-10.93-4.9-10.93-10.93s4.9-10.93,10.93-10.93h.71v5.26c0,1.13.92,2.05,2.05,2.05ZM115.39,4.1v16.18h-50.77V4.1h50.77ZM163.34,164.29c0,6.4-5.21,11.61-11.61,11.61H28.28c-6.4,0-11.61-5.21-11.61-11.61V15.71c0-6.4,5.21-11.61,11.61-11.61h32.24v8.87h-.71c-8.29,0-15.03,6.74-15.03,15.03s6.74,15.03,15.03,15.03h60.39c8.29,0,15.03-6.74,15.03-15.03s-6.74-15.03-15.03-15.03h-.71V4.1h32.24c6.4,0,11.61,5.21,11.61,11.61v148.58Z"/>
  <path class="cls-1" d="M48.83,78.19c5.3,0,9.61-4.31,9.61-9.61s-4.31-9.61-9.61-9.61-9.61,4.31-9.61,9.61,4.31,9.61,9.61,9.61ZM48.83,63.07c3.04,0,5.51,2.47,5.51,5.51s-2.47,5.51-5.51,5.51-5.51-2.47-5.51-5.51,2.47-5.51,5.51-5.51Z"/>
  <path class="cls-1" d="M66.33,94.49c0,5.3,4.31,9.61,9.61,9.61s9.61-4.31,9.61-9.61-4.31-9.61-9.61-9.61-9.61,4.31-9.61,9.61ZM81.46,94.49c0,3.04-2.47,5.51-5.51,5.51s-5.51-2.47-5.51-5.51,2.47-5.51,5.51-5.51,5.51,2.47,5.51,5.51Z"/>
  <path class="cls-1" d="M49.11,103.82c.33.2.69.29,1.05.29.7,0,1.38-.36,1.76-1l24.46-41.04c.58-.97.26-2.23-.71-2.81-.97-.58-2.23-.26-2.81.71l-24.46,41.04c-.58.97-.26,2.23.71,2.81Z"/>
  <path class="cls-1" d="M139.71,63.52h-35.12c-1.13,0-2.05.92-2.05,2.05s.92,2.05,2.05,2.05h35.12c1.13,0,2.05-.92,2.05-2.05s-.92-2.05-2.05-2.05Z"/>
  <path class="cls-1" d="M139.71,81.74h-35.12c-1.13,0-2.05.92-2.05,2.05s.92,2.05,2.05,2.05h35.12c1.13,0,2.05-.92,2.05-2.05s-.92-2.05-2.05-2.05Z"/>
  <path class="cls-1" d="M139.71,99.95h-35.12c-1.13,0-2.05.92-2.05,2.05s.92,2.05,2.05,2.05h35.12c1.13,0,2.05-.92,2.05-2.05s-.92-2.05-2.05-2.05Z"/>
  <path class="cls-1" d="M139.71,118.17H38.84c-1.13,0-2.05.92-2.05,2.05s.92,2.05,2.05,2.05h100.87c1.13,0,2.05-.92,2.05-2.05s-.92-2.05-2.05-2.05Z"/>
  <path class="cls-1" d="M92.9,136.39h-54.06c-1.13,0-2.05.92-2.05,2.05s.92,2.05,2.05,2.05h54.06c1.13,0,2.05-.92,2.05-2.05s-.92-2.05-2.05-2.05Z"/>
</svg>