<?xml version="1.0" encoding="UTF-8"?>
<svg id="Risk_Strategy" data-name="Risk &amp;amp; Strategy" xmlns="http://www.w3.org/2000/svg" viewBox="0 0 180 180">
  <defs>
    <style>
      .cls-1 {
        stroke: #000;
        stroke-miterlimit: 10;
        stroke-width: 2px;
      }
    </style>
  </defs>
  <path class="cls-1" d="M165.52,31.65L134.46.59c-.38-.38-.9-.59-1.44-.59H25.18c-6.23,0-11.29,5.06-11.29,11.29v157.42c0,6.23,5.06,11.29,11.29,11.29h129.64c6.23,0,11.29-5.06,11.29-11.29V33.09c0-.54-.21-1.05-.59-1.44ZM159.18,31.06h-24.13V6.93l24.13,24.13ZM154.82,175.94H25.18c-3.99,0-7.23-3.24-7.23-7.23V11.29c0-3.99,3.24-7.23,7.23-7.23h105.81v29.03c0,1.12.91,2.03,2.03,2.03h29.03v133.59c0,3.99-3.24,7.23-7.23,7.23Z"/>
  <path class="cls-1" d="M90,32.51c-4.32,0-8.5.65-12.44,1.84l-1.48-4.19c-.18-.51-.55-.92-1.04-1.16-.49-.23-1.04-.26-1.55-.08-13.98,4.94-25.28,16.24-30.22,30.22-.18.51-.15,1.07.08,1.55.23.49.65.86,1.16,1.04l4.19,1.48c-1.19,3.94-1.84,8.11-1.84,12.44,0,23.79,19.35,43.14,43.14,43.14s43.14-19.35,43.14-43.14-19.35-43.14-43.14-43.14ZM72.95,33.47l13.73,38.85-38.85-13.73c4.6-11.33,13.8-20.53,25.13-25.13ZM90,114.74c-21.55,0-39.08-17.53-39.08-39.08,0-3.85.57-7.57,1.62-11.08l36.79,13c.22.08.45.12.68.12.53,0,1.05-.21,1.44-.59.55-.55.74-1.37.48-2.11l-13-36.79c3.52-1.04,7.23-1.61,11.08-1.61,21.55,0,39.08,17.53,39.08,39.08s-17.53,39.08-39.08,39.08Z"/>
  <path class="cls-1" d="M60.12,132.1h-11.23c-1.12,0-2.03.91-2.03,2.03s.91,2.03,2.03,2.03h11.23c1.12,0,2.03-.91,2.03-2.03s-.91-2.03-2.03-2.03Z"/>
  <path class="cls-1" d="M131.11,132.1h-52.35c-1.12,0-2.03.91-2.03,2.03s.91,2.03,2.03,2.03h52.35c1.12,0,2.03-.91,2.03-2.03s-.91-2.03-2.03-2.03Z"/>
  <path class="cls-1" d="M60.12,150.62h-11.23c-1.12,0-2.03.91-2.03,2.03s.91,2.03,2.03,2.03h11.23c1.12,0,2.03-.91,2.03-2.03s-.91-2.03-2.03-2.03Z"/>
  <path class="cls-1" d="M131.11,150.62h-52.35c-1.12,0-2.03.91-2.03,2.03s.91,2.03,2.03,2.03h52.35c1.12,0,2.03-.91,2.03-2.03s-.91-2.03-2.03-2.03Z"/>
</svg>