<?xml version="1.0" encoding="UTF-8"?>
<svg id="Risk_Strategy" data-name="Risk &amp;amp; Strategy" xmlns="http://www.w3.org/2000/svg" viewBox="0 0 180 180">
  <defs>
    <style>
      .cls-1 {
        stroke: #000;
        stroke-miterlimit: 10;
        stroke-width: 2px;
      }
    </style>
  </defs>
  <path class="cls-1" d="M128.31,134.73l-10.01-4.46c-.38-1.08-.82-2.15-1.33-3.2l3.92-10.24c.27-.71.1-1.51-.44-2.05l-5.14-5.14c-.54-.54-1.34-.71-2.05-.44l-10.24,3.92c-1.05-.51-2.12-.95-3.2-1.33l-4.46-10.01c-.31-.69-1-1.14-1.75-1.14h-7.27c-.76,0-1.45.45-1.75,1.14l-4.46,10.01c-1.08.38-2.15.82-3.2,1.33l-10.23-3.92c-.71-.27-1.51-.1-2.05.44l-5.14,5.14c-.54.54-.71,1.34-.44,2.05l3.92,10.24c-.51,1.05-.95,2.12-1.33,3.2l-10.01,4.46c-.69.31-1.14,1-1.14,1.75v7.27c0,.76.45,1.45,1.14,1.75l10.01,4.46c.38,1.08.82,2.15,1.33,3.2l-3.93,10.23c-.27.71-.1,1.51.44,2.05l5.14,5.14c.54.54,1.34.71,2.05.44l10.24-3.92c1.05.51,2.12.95,3.2,1.33l4.46,10.01c.31.69,1,1.14,1.75,1.14h7.27c.76,0,1.45-.45,1.75-1.14l4.46-10.01c1.08-.38,2.15-.82,3.2-1.33l10.24,3.93c.71.27,1.51.1,2.05-.44l5.14-5.14c.54-.54.71-1.34.44-2.05l-3.92-10.24c.51-1.05.95-2.12,1.33-3.2l10.01-4.46c.69-.31,1.14-1,1.14-1.75v-7.27c0-.76-.45-1.45-1.14-1.75ZM125.61,142.51l-9.64,4.3c-.5.22-.88.65-1.05,1.18-.45,1.42-1.04,2.83-1.74,4.19-.25.49-.29,1.06-.09,1.58l3.78,9.86-3.38,3.38-9.86-3.78c-.51-.2-1.09-.17-1.57.09-1.37.71-2.78,1.3-4.19,1.74-.53.17-.96.55-1.18,1.05l-4.3,9.64h-4.77l-4.3-9.64c-.22-.5-.65-.88-1.18-1.05-1.42-.45-2.83-1.03-4.19-1.74-.49-.26-1.06-.29-1.57-.09l-9.86,3.78-3.38-3.38,3.78-9.86c.2-.51.16-1.09-.09-1.57-.71-1.36-1.3-2.77-1.74-4.2-.17-.53-.55-.95-1.05-1.18l-9.64-4.3v-4.77l9.64-4.3c.5-.22.88-.65,1.05-1.18.45-1.42,1.03-2.83,1.74-4.19.25-.49.29-1.06.09-1.58l-3.78-9.86,3.38-3.38,9.86,3.78c.51.2,1.09.16,1.58-.09,1.36-.71,2.77-1.3,4.19-1.74.53-.17.95-.55,1.18-1.05l4.3-9.64h4.77l4.3,9.64c.22.5.65.88,1.18,1.05,1.43.45,2.84,1.04,4.19,1.74.49.25,1.06.29,1.58.09l9.87-3.78,3.38,3.38-3.78,9.86c-.2.51-.16,1.09.09,1.57.71,1.36,1.3,2.77,1.74,4.19.17.53.55.95,1.05,1.18l9.64,4.3v4.77Z"/>
  <path class="cls-1" d="M90,125.22c-8.21,0-14.89,6.68-14.89,14.9s6.68,14.89,14.89,14.89,14.89-6.68,14.89-14.89-6.68-14.9-14.89-14.9ZM90,151.17c-6.1,0-11.05-4.96-11.05-11.05s4.96-11.05,11.05-11.05,11.05,4.96,11.05,11.05-4.96,11.05-11.05,11.05Z"/>
  <path class="cls-1" d="M177.49.43h-37.08c-1.06,0-1.92.86-1.92,1.92v37.08c0,1.06.86,1.92,1.92,1.92h16.62v20.12h-65.11v-20.12h16.62c1.06,0,1.92-.86,1.92-1.92V2.35c0-1.06-.86-1.92-1.92-1.92h-37.08c-1.06,0-1.92.86-1.92,1.92v37.08c0,1.06.86,1.92,1.92,1.92h16.62v20.12H22.97v-20.12h16.62c1.06,0,1.92-.86,1.92-1.92V2.35c0-1.06-.86-1.92-1.92-1.92H2.51C1.45.43.59,1.29.59,2.35v37.08c0,1.06.86,1.92,1.92,1.92h16.62v22.04c0,1.06.86,1.92,1.92,1.92h67.03v22.04c0,1.06.86,1.92,1.92,1.92s1.92-.86,1.92-1.92v-22.04h67.03c1.06,0,1.92-.86,1.92-1.92v-22.04h16.62c1.06,0,1.92-.86,1.92-1.92V2.35c0-1.06-.86-1.92-1.92-1.92ZM73.38,4.27h33.23v33.23h-33.23V4.27ZM4.43,4.27h33.24v33.23H4.43V4.27ZM175.57,37.51h-33.23V4.27h33.23v33.23Z"/>
</svg>