<?xml version="1.0" encoding="UTF-8"?>
<svg id="Risk_Strategy" data-name="Risk &amp;amp; Strategy" xmlns="http://www.w3.org/2000/svg" viewBox="0 0 180 180">
  <defs>
    <style>
      .cls-1 {
        stroke: #000;
        stroke-miterlimit: 10;
        stroke-width: 2px;
      }
    </style>
  </defs>
  <path class="cls-1" d="M2.05,176.53c-.88,0-1.69-.57-1.96-1.45-.33-1.08.27-2.23,1.36-2.57.25-.08,24.87-7.77,30.98-18.78,15.56-28.06,49.41-78.48,101.26-100.84l.19-.08c1.5-.65,4.3-1.87,7.13-.74,1.87.75,3.35,2.36,4.38,4.8,5.57,13.12,10.07,25.76,8.64,47.47-.22,3.41-6.1,11.22-16.46,24.72-7.7,10.03-16.94,22.07-20.58,29.23,3.08-1.99,7.47-5.08,11.01-7.58,15.33-10.82,17.72-12.13,19.68-10.89.81.52,1.21,1.46,1.03,2.47-1.55,8.67-3.49,18.87-5.92,31.18-.22,1.11-1.29,1.84-2.42,1.62-1.11-.22-1.84-1.3-1.62-2.42,2.14-10.81,3.89-19.98,5.33-27.92-3.44,2.06-9.41,6.27-13.72,9.31-14.26,10.06-16.11,11.08-17.94,9.94-.79-.49-1.18-1.39-1.02-2.35,1.09-6.67,12.18-21.12,22.91-35.1,6.87-8.95,15.42-20.08,15.62-22.49,1.36-20.81-2.96-32.96-8.33-45.6-.59-1.39-1.31-2.27-2.12-2.59-1.24-.49-2.88.22-3.97.69l-.2.09c-50.73,21.87-83.98,71.45-99.29,99.05-6.91,12.46-32.29,20.39-33.36,20.72-.2.06-.4.09-.61.09Z"/>
  <path class="cls-1" d="M92.27,118.32c-2.34,0-4.25-1.91-4.25-4.25s1.91-4.25,4.25-4.25,4.25,1.91,4.25,4.25-1.91,4.25-4.25,4.25Z"/>
  <path class="cls-1" d="M148.63,19.88c-8.08,0-12.28-3.52-15.98-6.63-3.63-3.04-6.76-5.67-13.34-5.67s-9.71,2.63-13.34,5.67c-3.7,3.11-7.9,6.63-15.98,6.63s-12.27-3.52-15.98-6.63c-3.63-3.04-6.76-5.67-13.34-5.67s-9.71,2.63-13.34,5.67c-3.7,3.11-7.9,6.63-15.98,6.63s-12.27-3.52-15.98-6.63c-3.63-3.04-6.76-5.67-13.34-5.67C.92,7.58,0,6.66,0,5.53s.92-2.05,2.05-2.05c8.08,0,12.27,3.52,15.98,6.63,3.63,3.04,6.76,5.67,13.34,5.67s9.71-2.63,13.34-5.67c3.7-3.11,7.9-6.63,15.98-6.63s12.27,3.52,15.98,6.63c3.63,3.04,6.76,5.67,13.34,5.67s9.71-2.63,13.34-5.67c3.7-3.11,7.9-6.63,15.98-6.63s12.28,3.52,15.98,6.63c3.63,3.04,6.76,5.67,13.34,5.67s9.71-2.63,13.34-5.67c3.7-3.11,7.9-6.63,15.98-6.63,1.13,0,2.05.92,2.05,2.05s-.92,2.05-2.05,2.05c-6.58,0-9.71,2.63-13.34,5.67-3.7,3.11-7.9,6.63-15.98,6.63Z"/>
  <g>
    <path class="cls-1" d="M24.57,50.64h-9.37c-1.13,0-2.05-.92-2.05-2.05s.92-2.05,2.05-2.05h9.37c1.13,0,2.05.92,2.05,2.05s-.92,2.05-2.05,2.05Z"/>
    <path class="cls-1" d="M69.29,50.64h-9.37c-1.13,0-2.05-.92-2.05-2.05s.92-2.05,2.05-2.05h9.37c1.13,0,2.05.92,2.05,2.05s-.92,2.05-2.05,2.05Z"/>
  </g>
  <path class="cls-1" d="M24.57,108.05h-9.37c-1.13,0-2.05-.92-2.05-2.05s.92-2.05,2.05-2.05h9.37c1.13,0,2.05.92,2.05,2.05s-.92,2.05-2.05,2.05Z"/>
  <path class="cls-1" d="M46.93,79.34h-9.37c-1.13,0-2.05-.92-2.05-2.05s.92-2.05,2.05-2.05h9.37c1.13,0,2.05.92,2.05,2.05s-.92,2.05-2.05,2.05Z"/>
</svg>