<?xml version="1.0" encoding="UTF-8"?>
<svg id="Risk_Strategy" data-name="Risk &amp;amp; Strategy" xmlns="http://www.w3.org/2000/svg" viewBox="0 0 180 180">
  <defs>
    <style>
      .cls-1 {
        stroke: #000;
        stroke-miterlimit: 10;
        stroke-width: 2px;
      }
    </style>
  </defs>
  <path class="cls-1" d="M92.44,82.01c-5.93-3.2-11.05-5.97-11.08-12.21,0-2.08.99-4.33,2.66-6.01,1.68-1.69,3.8-2.62,5.98-2.62,4.76,0,8.64,3.87,8.64,8.64,0,1.04.85,1.89,1.89,1.89s1.89-.85,1.89-1.89c0-6.2-4.57-11.34-10.52-12.25v-6.81c0-1.04-.85-1.89-1.89-1.89s-1.89.85-1.89,1.89v6.82c-2.5.41-4.85,1.63-6.77,3.56-2.4,2.41-3.77,5.58-3.76,8.69.04,8.49,6.66,12.06,13.06,15.52,6.31,3.41,12.28,6.63,12.56,14.41.12,3.34-1.12,6.54-3.51,9.02-2.52,2.62-6.06,4.12-9.7,4.12-7.28,0-13.21-5.93-13.21-13.21,0-1.04-.85-1.89-1.89-1.89s-1.89.85-1.89,1.89c0,8.73,6.62,15.93,15.1,16.87v6.76c0,1.04.85,1.89,1.89,1.89s1.89-.85,1.89-1.89v-6.77c3.98-.44,7.74-2.27,10.53-5.16,3.11-3.22,4.73-7.41,4.56-11.78-.37-9.94-7.9-14.01-14.54-17.6Z"/>
  <path class="cls-1" d="M161.33,25.48c-12.62,0-22.9-10.27-22.9-22.9,0-.14,0-.28,0-.43v-.22c.02-.51-.17-1-.53-1.37-.36-.37-.84-.57-1.35-.57H43.44c-.51,0-1,.21-1.35.57-.36.37-.55.86-.53,1.37v.2c.01.15.02.3.02.44,0,12.62-10.27,22.9-22.89,22.9-1.04,0-1.89.85-1.89,1.89v92.12c0,21.71,10.29,27.1,17.8,31.04,0,0,54.14,29.03,54.52,29.24.28.15.59.23.9.23s.62-.08.9-.23c.38-.21,54.52-29.24,54.52-29.24,7.51-3.94,17.8-9.34,17.8-31.04V27.37c0-1.04-.85-1.89-1.89-1.89ZM159.44,119.49c0,19.42-8.38,23.82-15.78,27.7,0,0-47.79,25.6-53.66,28.78-5.87-3.17-53.66-28.78-53.66-28.78-7.4-3.88-15.78-8.28-15.78-27.7V29.19c13.44-.94,24.16-11.89,24.76-25.42h89.37c.59,13.53,11.32,24.47,24.76,25.42v90.3Z"/>
  <path class="cls-1" d="M122.53,21.21c-.32-.65-.98-1.07-1.7-1.07h-61.67c-.73,0-1.39.42-1.7,1.07-4.11,8.54-11.04,15.58-19.5,19.84-.64.32-1.04.97-1.04,1.69v76.75c0,4.66.69,8.34,1.85,9.86.75.98,2.45,1.92,5.17,3.34,0,0,33.2,17.74,45.17,24.19.28.15.59.23.9.23s.62-.08.9-.23c11.95-6.44,45.17-24.19,45.17-24.19,2.72-1.43,4.42-2.36,5.17-3.34,1.16-1.52,1.85-5.21,1.85-9.86V42.74c0-.71-.4-1.37-1.04-1.69-8.46-4.26-15.39-11.31-19.5-19.84ZM139.3,119.49c0,4.88-.8,7.17-1.05,7.55-.44.48-2.72,1.67-3.94,2.31,0,0-32.2,17.2-44.31,23.73-12.13-6.54-44.31-23.73-44.31-23.73-1.22-.64-3.5-1.83-3.91-2.27-.28-.42-1.08-2.71-1.08-7.59V43.89c8.38-4.49,15.29-11.52,19.64-19.97h59.33c4.35,8.45,11.26,15.48,19.64,19.97v75.6Z"/>
</svg>