<?xml version="1.0" encoding="UTF-8"?>
<svg id="Risk_Strategy" data-name="Risk &amp;amp; Strategy" xmlns="http://www.w3.org/2000/svg" viewBox="0 0 180 180">
  <defs>
    <style>
      .cls-1 {
        stroke: #000;
        stroke-miterlimit: 10;
        stroke-width: 2px;
      }
    </style>
  </defs>
  <path class="cls-1" d="M35.25,12.28c-.81-.81-2.13-.81-2.94,0l-7.16,7.16-7.16-7.16c-.81-.81-2.13-.81-2.94,0-.81.81-.81,2.13,0,2.94l7.16,7.16-7.16,7.16c-.81.81-.81,2.13,0,2.94.41.41.94.61,1.47.61s1.07-.2,1.47-.61l7.16-7.16,7.16,7.16c.41.41.94.61,1.47.61s1.07-.2,1.47-.61c.81-.81.81-2.13,0-2.94l-7.16-7.16,7.16-7.16c.81-.81.81-2.13,0-2.94Z"/>
  <path class="cls-1" d="M45.44,44.77c1.15,0,2.08-.93,2.08-2.08V2.08c0-1.15-.93-2.08-2.08-2.08H4.84c-1.15,0-2.08.93-2.08,2.08v40.61c0,1.15.93,2.08,2.08,2.08h40.61ZM6.92,4.16h36.44v36.44H6.92V4.16Z"/>
  <path class="cls-1" d="M102.87,12.28c-.81-.81-2.13-.81-2.94,0l-7.16,7.16-7.16-7.16c-.81-.81-2.13-.81-2.94,0-.81.81-.81,2.13,0,2.94l7.16,7.16-7.16,7.16c-.81.81-.81,2.13,0,2.94.41.41.94.61,1.47.61s1.07-.2,1.47-.61l7.16-7.16,7.16,7.16c.41.41.94.61,1.47.61s1.07-.2,1.47-.61c.81-.81.81-2.13,0-2.94l-7.16-7.16,7.16-7.16c.81-.81.81-2.13,0-2.94Z"/>
  <path class="cls-1" d="M72.45,44.77h40.61c1.15,0,2.08-.93,2.08-2.08V2.08c0-1.15-.93-2.08-2.08-2.08h-40.61c-1.15,0-2.08.93-2.08,2.08v40.61c0,1.15.93,2.08,2.08,2.08ZM74.54,4.16h36.44v36.44h-36.44V4.16Z"/>
  <path class="cls-1" d="M82.65,167.72c.41.41.94.61,1.47.61s1.07-.2,1.47-.61l7.16-7.16,7.16,7.16c.41.41.94.61,1.47.61s1.07-.2,1.47-.61c.81-.81.81-2.13,0-2.94l-7.16-7.16,7.16-7.16c.81-.81.81-2.13,0-2.94-.81-.81-2.13-.81-2.94,0l-7.16,7.16-7.16-7.16c-.81-.81-2.13-.81-2.94,0-.81.81-.81,2.13,0,2.94l7.16,7.16-7.16,7.16c-.81.81-.81,2.13,0,2.94Z"/>
  <path class="cls-1" d="M113.06,135.23h-40.61c-1.15,0-2.08.93-2.08,2.08v40.61c0,1.15.93,2.08,2.08,2.08h40.61c1.15,0,2.08-.93,2.08-2.08v-40.61c0-1.15-.93-2.08-2.08-2.08ZM110.98,175.84h-36.44v-36.44h36.44v36.44Z"/>
  <path class="cls-1" d="M176.83,21.14L161.72.84c-.39-.53-1.01-.84-1.67-.84s-1.28.31-1.67.84l-15.11,20.3c-.69.92-.5,2.23.43,2.91.93.69,2.23.5,2.91-.43l11.36-15.26v30.64c.71,28.95-32.44,36.28-67.54,44.03-34.13,7.54-69.43,15.34-69.43,45.69v13.49c-9.47,1.04-16.87,9.09-16.87,18.83,0,10.45,8.5,18.95,18.95,18.95s18.95-8.5,18.95-18.95c0-9.75-7.4-17.79-16.87-18.83v-13.49c0-27,32.14-34.1,66.17-41.62,35.2-7.78,71.61-15.82,70.81-48.15V8.37l11.36,15.26c.41.55,1.04.84,1.67.84.43,0,.87-.13,1.24-.41.92-.69,1.11-1.99.43-2.91ZM37.86,161.05c0,8.15-6.63,14.79-14.79,14.79s-14.79-6.63-14.79-14.79,6.63-14.79,14.79-14.79,14.79,6.63,14.79,14.79Z"/>
</svg>