<?xml version="1.0" encoding="UTF-8"?>
<svg id="Risk_Strategy" data-name="Risk &amp;amp; Strategy" xmlns="http://www.w3.org/2000/svg" viewBox="0 0 180 180">
  <defs>
    <style>
      .cls-1 {
        stroke: #000;
        stroke-miterlimit: 10;
        stroke-width: 2px;
      }
    </style>
  </defs>
  <path class="cls-1" d="M67.41,78.97c-1.9-3.29-4.54-5.1-7.45-5.1s-5.56,1.81-7.45,5.1L1.62,167.09c-1.9,3.29-2.14,6.48-.69,9,1.45,2.52,4.35,3.91,8.14,3.91h101.75c3.79,0,6.68-1.39,8.14-3.91,1.45-2.52,1.21-5.72-.69-9l-50.88-88.12ZM115.62,174.16c-.72,1.25-2.47,1.97-4.79,1.97H9.08c-2.32,0-4.07-.72-4.79-1.97-.72-1.25-.47-3.13.69-5.14l50.88-88.12c1.16-2.01,2.66-3.16,4.11-3.16s2.94,1.15,4.1,3.16l50.88,88.12c1.16,2.01,1.41,3.88.69,5.14Z"/>
  <path class="cls-1" d="M59.95,142.68c1.07,0,1.93-.87,1.93-1.93v-28.22c0-1.07-.87-1.93-1.93-1.93s-1.93.87-1.93,1.93v28.22c0,1.07.87,1.93,1.93,1.93Z"/>
  <path class="cls-1" d="M59.95,153.8c-2.07,0-3.76,1.69-3.76,3.76s1.69,3.76,3.76,3.76,3.76-1.69,3.76-3.76-1.69-3.76-3.76-3.76Z"/>
  <path class="cls-1" d="M82.28,80.25c.82,0,1.59-.53,1.85-1.36,3.91-12.56,14.27-22.29,27.04-25.39,1.04-.25,1.67-1.3,1.42-2.33-.25-1.04-1.3-1.68-2.33-1.42-14.08,3.42-25.51,14.15-29.82,27.99-.32,1.02.25,2.1,1.27,2.42.19.06.38.09.57.09Z"/>
  <path class="cls-1" d="M135.8,31.8v-10.19c0-1.07-.87-1.93-1.93-1.93h-11.74c.97-8.87,8.5-15.8,17.62-15.8,10.58,0,14.84,5.51,18.96,10.83,3.36,4.34,6.84,8.84,13.42,8.84,1.07,0,1.93-.87,1.93-1.93s-.87-1.93-1.93-1.93c-4.68,0-7.19-3.24-10.36-7.34C157.51,6.84,152.22,0,139.74,0c-11.26,0-20.53,8.66-21.51,19.67h-11.94c-1.07,0-1.93.87-1.93,1.93v10.19c-16.42,4.45-30.15,15.65-37.84,30.94-.48.95-.1,2.12.86,2.6.95.48,2.12.1,2.6-.86,7.41-14.73,20.82-25.4,36.78-29.3.87-.21,1.48-.99,1.48-1.88v-9.76h23.71v9.76c0,.89.61,1.67,1.47,1.88,25.16,6.14,42.73,28.53,42.73,54.45,0,30.39-24.72,55.52-55.1,56.03-1.07.02-1.92.9-1.9,1.96.02,1.06.88,1.9,1.93,1.9.01,0,.02,0,.03,0,15.79-.26,30.6-6.61,41.69-17.87,11.1-11.27,17.22-26.2,17.22-42.03,0-27.2-18.1-50.76-44.2-57.83Z"/>
  <path class="cls-1" d="M8.99,60.28h6.74v6.74c0,1.07.87,1.93,1.93,1.93s1.93-.87,1.93-1.93v-6.74h6.74c1.07,0,1.93-.87,1.93-1.93s-.87-1.93-1.93-1.93h-6.74v-6.74c0-1.07-.87-1.93-1.93-1.93s-1.93.87-1.93,1.93v6.74h-6.74c-1.07,0-1.93.87-1.93,1.93s.87,1.93,1.93,1.93Z"/>
  <path class="cls-1" d="M46.45,19.59h6.74v6.74c0,1.07.87,1.93,1.93,1.93s1.93-.87,1.93-1.93v-6.74h6.74c1.07,0,1.93-.87,1.93-1.93s-.87-1.93-1.93-1.93h-6.74v-6.74c0-1.07-.87-1.93-1.93-1.93s-1.93.87-1.93,1.93v6.74h-6.74c-1.07,0-1.93.87-1.93,1.93s.87,1.93,1.93,1.93Z"/>
</svg>