<?xml version="1.0" encoding="UTF-8"?>
<svg id="Risk_Strategy" data-name="Risk &amp;amp; Strategy" xmlns="http://www.w3.org/2000/svg" viewBox="0 0 180 180">
  <defs>
    <style>
      .cls-1 {
        stroke: #000;
        stroke-miterlimit: 10;
        stroke-width: 2px;
      }
    </style>
  </defs>
  <g>
    <path class="cls-1" d="M157.12,163.95H22.88c-6.77,0-11.88-2.39-14.39-6.73-2.51-4.34-2.02-9.96,1.37-15.83L76.98,25.14c3.39-5.87,8.01-9.1,13.02-9.1h0c5.01,0,9.64,3.23,13.02,9.1l67.12,116.25c3.39,5.87,3.87,11.49,1.37,15.83-2.51,4.34-7.62,6.73-14.39,6.73ZM90,19.56c-3.7,0-7.25,2.61-9.98,7.34L12.9,143.15c-2.73,4.73-3.22,9.11-1.37,12.31,1.85,3.21,5.88,4.97,11.35,4.97h134.24c5.46,0,9.49-1.77,11.35-4.97,1.85-3.21,1.37-7.58-1.37-12.31L99.98,26.9h0c-2.73-4.73-6.28-7.34-9.98-7.34Z"/>
    <path class="cls-1" d="M90,145.22c-5.46,0-9.91-4.44-9.91-9.91s4.44-9.91,9.91-9.91,9.91,4.44,9.91,9.91-4.44,9.91-9.91,9.91ZM90,128.92c-3.53,0-6.39,2.87-6.39,6.39s2.87,6.39,6.39,6.39,6.39-2.87,6.39-6.39-2.87-6.39-6.39-6.39Z"/>
    <path class="cls-1" d="M94.03,117.82h-8.05c-.88,0-1.63-.65-1.74-1.52-.78-5.84-1.7-12.4-2.59-18.74-1.9-13.51-3.06-21.89-3.06-23.87,0-6.3,5.12-11.42,11.42-11.42s11.42,5.12,11.42,11.42c0,1.98-1.16,10.36-3.06,23.86-.89,6.35-1.82,12.92-2.59,18.76-.12.87-.86,1.52-1.74,1.52ZM87.51,114.31h4.98c.73-5.46,1.58-11.45,2.39-17.26,1.49-10.59,3.03-21.53,3.03-23.37,0-4.36-3.55-7.91-7.91-7.91s-7.91,3.55-7.91,7.91c0,1.84,1.54,12.79,3.03,23.38.82,5.81,1.66,11.79,2.39,17.25Z"/>
  </g>
  <g>
    <g>
      <path class="cls-1" d="M30.01,78.27c-.3,0-.6-.08-.88-.24l-22.56-13.15c-.84-.49-1.12-1.56-.63-2.4.49-.84,1.56-1.12,2.4-.63l22.56,13.15c.84.49,1.12,1.56.63,2.4-.33.56-.91.87-1.52.87Z"/>
      <g>
        <path class="cls-1" d="M20.12,95.24c-.06,0-.12,0-.17,0l-18.37-1.8c-.97-.09-1.67-.95-1.58-1.92.1-.97.96-1.67,1.92-1.58l18.37,1.8c.96.09,1.67.95,1.58,1.92-.09.91-.85,1.58-1.75,1.58Z"/>
        <path class="cls-1" d="M39.9,61.3c-.55,0-1.1-.26-1.44-.75l-10.62-15.09c-.56-.79-.37-1.89.43-2.45.79-.56,1.89-.37,2.45.42l10.62,15.09c.56.79.37,1.89-.43,2.45-.31.22-.66.32-1.01.32Z"/>
      </g>
    </g>
    <g>
      <path class="cls-1" d="M149.99,78.27c-.6,0-1.19-.31-1.52-.87-.49-.84-.2-1.91.63-2.4l22.56-13.15c.84-.49,1.91-.21,2.4.63.49.84.2,1.91-.63,2.4l-22.56,13.15c-.28.16-.58.24-.88.24Z"/>
      <g>
        <path class="cls-1" d="M159.88,95.24c-.89,0-1.66-.68-1.75-1.58-.09-.97.61-1.82,1.58-1.92l18.37-1.8c.97-.09,1.82.61,1.92,1.58.09.97-.61,1.82-1.58,1.92l-18.37,1.8c-.06,0-.12,0-.17,0Z"/>
        <path class="cls-1" d="M140.1,61.3c-.35,0-.7-.1-1.01-.32-.79-.56-.98-1.65-.43-2.45l10.62-15.09c.56-.79,1.65-.98,2.45-.42.79.56.98,1.65.43,2.45l-10.62,15.09c-.34.49-.89.75-1.44.75Z"/>
      </g>
    </g>
  </g>
</svg>