<?xml version="1.0" encoding="UTF-8"?>
<svg id="Risk_Strategy" data-name="Risk &amp;amp; Strategy" xmlns="http://www.w3.org/2000/svg" viewBox="0 0 180 180">
  <defs>
    <style>
      .cls-1 {
        stroke: #000;
        stroke-miterlimit: 10;
        stroke-width: 2px;
      }
    </style>
  </defs>
  <path class="cls-1" d="M179.61,70.1c-15.62-24.9-38.31-50.28-87.88-50.86v-6.91c0-.96-.77-1.73-1.73-1.73s-1.73.77-1.73,1.73v6.91C38.69,19.82,15.99,45.2.38,70.11c-.34.43-.47,1.01-.31,1.57.21.74.9,1.25,1.67,1.25.39,0,.76-.13,1.06-.36,14.42-8.97,37.72-8.96,52.12.03.56.4,1.41.42,1.98.04,18.38-9.08,48.1-9.05,66.39.11.54.27,1.18.24,1.7-.08,14.4-9.06,37.79-9.08,52.24-.08.3.22.67.34,1.05.34.77,0,1.45-.51,1.66-1.25.16-.56.03-1.14-.32-1.57ZM6.74,66.66c14.19-21.14,33.36-39.84,70.28-43.38-11.2,7.8-17.41,25.83-22.23,45.27-13.61-7.44-33.4-8.08-48.05-1.89ZM89.98,62.43c-11.22,0-22.42,1.9-31.52,5.7,5.82-23.03,14.27-45.46,31.54-45.46s25.73,22.44,31.54,45.48c-9.11-3.81-20.33-5.71-31.56-5.71ZM125.21,68.55c-4.65-18.73-11.01-37.33-22.45-45.29,37.06,3.48,56.28,22.22,70.5,43.4-14.65-6.19-34.44-5.54-48.05,1.89Z"/>
  <path class="cls-1" d="M119.1,140.63c-3.92,0-7.11,3.19-7.11,7.11s-3.34,7.44-7.44,7.44-7.44-3.34-7.44-7.44v-20.37c0-.96-.77-1.73-1.73-1.73h-3.65v-50.74c0-.96-.77-1.73-1.73-1.73s-1.73.77-1.73,1.73v50.74h-3.65c-.96,0-1.73.77-1.73,1.73v20.37c0,11.95,9.72,21.67,21.67,21.67s21.67-9.72,21.67-21.67c0-3.92-3.19-7.11-7.11-7.11ZM104.55,165.95c-10.04,0-18.2-8.17-18.2-18.2v-18.64h7.31v18.64c0,6.01,4.89,10.9,10.9,10.9s10.9-4.89,10.9-10.9c0-2.01,1.64-3.65,3.65-3.65s3.65,1.64,3.65,3.65c0,10.04-8.17,18.2-18.21,18.2Z"/>
</svg>