<?xml version="1.0" encoding="UTF-8"?>
<svg id="Risk_Strategy" data-name="Risk &amp;amp; Strategy" xmlns="http://www.w3.org/2000/svg" viewBox="0 0 180 180">
  <defs>
    <style>
      .cls-1 {
        stroke: #000;
        stroke-miterlimit: 10;
        stroke-width: 2px;
      }
    </style>
  </defs>
  <path class="cls-1" d="M172.71,31.93C157.75,6.02,124.51-2.88,98.6,12.07c-3.1,1.79-5.98,3.85-8.62,6.15-2.61-2.28-5.48-4.35-8.59-6.15C55.49-2.88,22.25,6.02,7.29,31.93.05,44.48-1.88,59.1,1.87,73.09c3.75,14,12.73,25.7,25.28,32.94,3.1,1.79,6.33,3.25,9.64,4.39-.67,3.4-1.03,6.92-1.03,10.52,0,29.91,24.34,54.25,54.25,54.25s54.25-24.34,54.25-54.25c0-3.6-.36-7.11-1.03-10.52,3.31-1.14,6.54-2.6,9.64-4.39,12.55-7.25,21.53-18.94,25.28-32.94,3.75-14,1.83-28.62-5.42-41.16ZM104.04,68.54c-4.48-1.2-9.18-1.85-14.04-1.85s-9.56.65-14.04,1.85c-3.11-16.41,2.1-33.54,14.04-45.42,11.94,11.88,17.15,29.01,14.04,45.42ZM98.16,84.39c-2.27,3.94-5.02,7.48-8.16,10.61-3.13-3.12-5.88-6.67-8.16-10.61-2.29-3.97-3.97-8.13-5.09-12.36,4.23-1.15,8.66-1.77,13.25-1.77s9.02.62,13.25,1.77c-1.12,4.23-2.8,8.39-5.09,12.36ZM106.67,73.09c15.77,5.51,28.01,18.59,32.32,34.88-8.55,2.33-17.59,2.38-26.37.03-7.5-2.01-14.29-5.63-19.99-10.56,3.31-3.32,6.22-7.09,8.63-11.26,2.43-4.2,4.22-8.6,5.41-13.08ZM87.38,97.44c-5.71,4.93-12.49,8.55-19.99,10.56-8.78,2.35-17.83,2.3-26.37-.03,4.31-16.28,16.54-29.36,32.31-34.88,1.22,4.52,3.02,8.92,5.43,13.08,2.41,4.17,5.32,7.94,8.63,11.26ZM28.93,102.94c-11.72-6.77-20.11-17.69-23.61-30.77-3.5-13.07-1.71-26.73,5.06-38.45,9.38-16.24,26.44-25.33,43.97-25.33,8.59,0,17.29,2.18,25.25,6.78,2.81,1.62,5.39,3.48,7.75,5.52-6.68,6.66-11.53,14.97-14.03,24.33-2.19,8.16-2.43,16.54-.83,24.59-17,5.81-30.22,19.83-34.9,37.31-2.97-1.04-5.88-2.36-8.67-3.97ZM140.67,120.94c0,27.94-22.73,50.67-50.67,50.67s-50.67-22.73-50.67-50.67c0-3.23.32-6.39.9-9.46,4.55,1.23,9.24,1.85,13.96,1.85,4.71,0,9.46-.62,14.13-1.87,8.15-2.18,15.52-6.15,21.69-11.56,6.17,5.41,13.53,9.38,21.69,11.56,4.67,1.25,9.42,1.87,14.13,1.87s9.4-.62,13.96-1.85c.58,3.07.9,6.23.9,9.46ZM174.68,72.17c-3.5,13.07-11.89,24-23.61,30.77-2.79,1.61-5.69,2.93-8.67,3.97-4.69-17.49-17.92-31.51-34.93-37.32,3.48-17.63-2.05-36.09-14.85-48.9,2.37-2.04,4.96-3.91,7.77-5.53,24.2-13.97,55.25-5.65,69.22,18.55,6.77,11.72,8.57,25.38,5.06,38.45Z"/>
  <path class="cls-1" d="M142.44,42.92c1.25-1.44,2-3.31,2-5.35,0-4.52-3.68-8.2-8.2-8.2h-6.92c-.99,0-1.79.8-1.79,1.79v30.04c0,.99.8,1.79,1.79,1.79h9.3c5.73,0,10.4-4.67,10.4-10.4,0-4.39-2.74-8.14-6.59-9.67ZM140.87,37.56c0,2.55-2.07,4.62-4.62,4.62h-5.13v-9.24h5.13c2.55,0,4.62,2.07,4.62,4.62ZM138.63,59.41h-7.51v-13.65h7.51c3.76,0,6.83,3.06,6.83,6.83s-3.06,6.83-6.83,6.83Z"/>
  <path class="cls-1" d="M90.76,124.86c2.38,0,4.61,1.18,5.94,3.16.55.82,1.66,1.03,2.48.48.82-.55,1.03-1.66.48-2.48-2-2.96-5.33-4.73-8.91-4.73-5.92,0-10.74,4.82-10.74,10.74v12.13c0,5.92,4.82,10.74,10.74,10.74,3.57,0,6.9-1.77,8.91-4.73.55-.82.34-1.93-.48-2.48-.82-.55-1.93-.34-2.48.48-1.34,1.98-3.56,3.16-5.94,3.16-3.95,0-7.17-3.22-7.17-7.17v-12.13c0-3.95,3.22-7.17,7.17-7.17Z"/>
  <path class="cls-1" d="M50.78,53.66l2.09,7.99c.21.8.93,1.34,1.73,1.34.15,0,.3-.02.45-.06.95-.25,1.53-1.23,1.28-2.18l-7.87-30.04c-.21-.79-.92-1.33-1.73-1.33h-7.61c-.81,0-1.52.55-1.73,1.33l-7.87,30.04c-.25.96.32,1.93,1.28,2.18.96.25,1.93-.32,2.18-1.28l2.09-7.99h15.69ZM40.51,32.94h4.85l4.49,17.14h-13.82l4.49-17.14Z"/>
</svg>