<?xml version="1.0" encoding="UTF-8"?>
<svg id="Digital_Security_Malware" data-name="Digital Security &amp;amp; Malware" xmlns="http://www.w3.org/2000/svg" viewBox="0 0 180 180">
  <defs>
    <style>
      .cls-1 {
        stroke: #000;
        stroke-miterlimit: 10;
        stroke-width: 2px;
      }
    </style>
  </defs>
  <path class="cls-1" d="M176.33,94.4c0-10.79-8.78-19.57-19.57-19.57-1.56,0-3.07.19-4.52.53l-37.1-11.92c7.12-6.7,11.58-16.2,11.58-26.73C126.72,16.47,110.24,0,90,0s-36.71,16.47-36.71,36.72c0,10.53,4.46,20.03,11.58,26.73l-37.1,11.92c-1.45-.35-2.97-.53-4.53-.53-10.79,0-19.57,8.78-19.57,19.57,0,6.86,3.55,12.91,8.91,16.4v33.96c0,1.02.83,1.85,1.85,1.85s1.85-.83,1.85-1.85v-32.08c2.17.83,4.52,1.29,6.97,1.29s4.8-.46,6.97-1.29v32.08c0,1.02.83,1.85,1.85,1.85s1.85-.83,1.85-1.85v-33.96c.13-.08.26-.17.38-.25,7.79,6.17,16.53,10.98,25.82,14.26v18.11h-9.41c-1.02,0-1.85.83-1.85,1.85v33.4c0,1.02.83,1.85,1.85,1.85h78.63c1.02,0,1.85-.83,1.85-1.85v-33.4c0-1.02-.83-1.85-1.85-1.85h-9.41v-18.11c9.29-3.28,18.02-8.09,25.82-14.26.13.09.25.17.38.25v33.96c0,1.02.83,1.85,1.85,1.85s1.85-.83,1.85-1.85v-32.08c2.17.83,4.52,1.29,6.97,1.29s4.8-.46,6.97-1.29v32.08c0,1.02.83,1.85,1.85,1.85s1.85-.83,1.85-1.85v-33.96c5.36-3.5,8.91-9.54,8.91-16.4ZM90,3.69c17.59,0,32.01,13.83,32.97,31.18h-10.05c-.89-5.38-5.56-9.5-11.18-9.5h-23.49c-5.63,0-10.3,4.12-11.18,9.5h-10.05c.96-17.35,15.38-31.18,32.97-31.18ZM109.4,36.72c0,4.22-3.43,7.65-7.65,7.65h-23.49c-4.22,0-7.65-3.43-7.65-7.65s3.43-7.65,7.65-7.65h23.49c4.22,0,7.65,3.43,7.65,7.65ZM57.03,38.56h10.05c.89,5.38,5.56,9.5,11.18,9.5h23.49c5.63,0,10.3-4.12,11.18-9.5h10.05c-.96,17.35-15.38,31.18-32.97,31.18s-32.01-13.82-32.97-31.18ZM68.21,66.25c6.1,4.51,13.63,7.18,21.79,7.18s15.69-2.67,21.79-7.18l35.09,11.27c-5.79,3.4-9.69,9.69-9.69,16.88,0,5.34,2.15,10.19,5.64,13.73-3.73,2.9-7.68,5.47-11.8,7.71l-11.34-21.38c-.32-.6-.95-.98-1.63-.98h-56.11c-.68,0-1.31.38-1.63.98l-11.34,21.38c-4.13-2.23-8.07-4.81-11.8-7.71,3.48-3.54,5.64-8.38,5.64-13.73,0-7.19-3.9-13.48-9.69-16.88l35.09-11.27ZM90,126.26c-13.13,0-26.05-3.05-37.74-8.75l10.79-20.36h53.89l10.79,20.36c-11.69,5.7-24.61,8.75-37.74,8.75ZM7.36,94.4c0-8.76,7.12-15.88,15.88-15.88s15.88,7.12,15.88,15.88-7.12,15.88-15.88,15.88-15.88-7.12-15.88-15.88ZM127.47,176.31H52.53v-29.71h74.94v29.71ZM116.21,142.91h-52.42v-16.89c8.45,2.58,17.28,3.93,26.21,3.93s17.76-1.35,26.21-3.93v16.89ZM156.76,110.28c-8.76,0-15.88-7.12-15.88-15.88s7.12-15.88,15.88-15.88,15.88,7.12,15.88,15.88-7.12,15.88-15.88,15.88Z"/>
  <path class="cls-1" d="M98.79,110.28h-17.57c-1.02,0-1.85.83-1.85,1.85s.83,1.85,1.85,1.85h17.57c1.02,0,1.85-.83,1.85-1.85s-.83-1.85-1.85-1.85Z"/>
</svg>