<?xml version="1.0" encoding="UTF-8"?>
<svg id="Digital_Security_Malware" data-name="Digital Security &amp;amp; Malware" xmlns="http://www.w3.org/2000/svg" viewBox="0 0 180 180">
  <defs>
    <style>
      .cls-1 {
        stroke: #000;
        stroke-miterlimit: 10;
        stroke-width: 2px;
      }
    </style>
  </defs>
  <path class="cls-1" d="M82.61,112.36v-11.15c0-6.16-5.01-11.16-11.16-11.16s-11.16,5.01-11.16,11.16v11.15c0,6.16,5.01,11.16,11.16,11.16s11.16-5.01,11.16-11.16ZM64.22,112.36v-11.15c0-3.99,3.24-7.23,7.23-7.23s7.23,3.24,7.23,7.23v11.15c0,3.99-3.24,7.23-7.23,7.23s-7.23-3.24-7.23-7.23Z"/>
  <path class="cls-1" d="M19.59,123.53c1.09,0,1.97-.88,1.97-1.97s-.88-1.97-1.97-1.97h-4.83v-27.57c0-.79-.48-1.51-1.21-1.82-.73-.3-1.58-.14-2.14.42l-6.79,6.74c-.77.76-.78,2.01-.01,2.78.77.77,2.01.78,2.78.01l3.44-3.41v22.85h-4.83c-1.09,0-1.97.88-1.97,1.97s.88,1.97,1.97,1.97h13.59Z"/>
  <path class="cls-1" d="M109.55,123.53c1.09,0,1.97-.88,1.97-1.97s-.88-1.97-1.97-1.97h-4.83v-27.57c0-.79-.48-1.51-1.21-1.82-.73-.3-1.58-.14-2.14.42l-6.79,6.74c-.77.76-.78,2.01-.01,2.78.76.77,2.01.78,2.78.01l3.44-3.41v22.85h-4.83c-1.09,0-1.97.88-1.97,1.97s.88,1.97,1.97,1.97h13.59Z"/>
  <path class="cls-1" d="M34.67,119.59c-1.09,0-1.97.88-1.97,1.97s.88,1.97,1.97,1.97h13.59c1.09,0,1.97-.88,1.97-1.97s-.88-1.97-1.97-1.97h-4.83v-27.57c0-.79-.48-1.51-1.21-1.82-.73-.3-1.58-.14-2.14.42l-6.79,6.74c-.77.76-.78,2.01-.01,2.78.76.77,2.01.78,2.78.01l3.44-3.41v22.85h-4.83Z"/>
  <path class="cls-1" d="M172.57,112.36v-11.15c0-6.16-5.01-11.16-11.16-11.16s-11.16,5.01-11.16,11.16v11.15c0,6.16,5.01,11.16,11.16,11.16s11.16-5.01,11.16-11.16ZM154.17,112.36v-11.15c0-3.99,3.24-7.23,7.23-7.23s7.23,3.24,7.23,7.23v11.15c0,3.99-3.24,7.23-7.23,7.23s-7.23-3.24-7.23-7.23Z"/>
  <path class="cls-1" d="M138.22,123.53c1.09,0,1.97-.88,1.97-1.97s-.88-1.97-1.97-1.97h-4.83v-27.57c0-.79-.48-1.51-1.21-1.82-.73-.3-1.58-.14-2.14.42l-6.79,6.74c-.77.76-.78,2.01-.01,2.78.76.77,2.01.78,2.78.01l3.44-3.41v22.85h-4.83c-1.09,0-1.97.88-1.97,1.97s.88,1.97,1.97,1.97h13.59Z"/>
  <path class="cls-1" d="M74.84,145.93c-6.16,0-11.16,5.01-11.16,11.16v11.15c0,6.16,5.01,11.16,11.16,11.16s11.16-5.01,11.16-11.16v-11.15c0-6.16-5.01-11.16-11.16-11.16ZM82.07,168.24c0,3.99-3.24,7.23-7.23,7.23s-7.23-3.24-7.23-7.23v-11.15c0-3.99,3.24-7.23,7.23-7.23s7.23,3.24,7.23,7.23v11.15Z"/>
  <path class="cls-1" d="M44.32,145.93c-6.16,0-11.16,5.01-11.16,11.16v11.15c0,6.16,5.01,11.16,11.16,11.16s11.16-5.01,11.16-11.16v-11.15c0-6.16-5.01-11.16-11.16-11.16ZM51.55,168.24c0,3.99-3.24,7.23-7.23,7.23s-7.23-3.24-7.23-7.23v-11.15c0-3.99,3.24-7.23,7.23-7.23s7.23,3.24,7.23,7.23v11.15Z"/>
  <path class="cls-1" d="M22.99,175.47h-4.83v-27.57c0-.79-.48-1.51-1.21-1.82-.73-.3-1.58-.14-2.14.42l-6.79,6.74c-.77.77-.78,2.01-.01,2.78.76.77,2.01.78,2.78.01l3.44-3.41v22.85h-4.83c-1.09,0-1.97.88-1.97,1.97s.88,1.97,1.97,1.97h13.59c1.09,0,1.97-.88,1.97-1.97s-.88-1.97-1.97-1.97Z"/>
  <path class="cls-1" d="M112.95,175.47h-4.83v-27.57c0-.79-.48-1.51-1.21-1.82-.73-.3-1.58-.14-2.14.42l-6.79,6.74c-.77.77-.78,2.01-.01,2.78.77.77,2.01.78,2.78.01l3.44-3.41v22.85h-4.83c-1.09,0-1.97.88-1.97,1.97s.88,1.97,1.97,1.97h13.59c1.09,0,1.97-.88,1.97-1.97s-.88-1.97-1.97-1.97Z"/>
  <path class="cls-1" d="M136.68,145.93c-6.16,0-11.16,5.01-11.16,11.16v11.15c0,6.16,5.01,11.16,11.16,11.16s11.16-5.01,11.16-11.16v-11.15c0-6.16-5.01-11.16-11.16-11.16ZM143.91,168.24c0,3.99-3.24,7.23-7.23,7.23s-7.23-3.24-7.23-7.23v-11.15c0-3.99,3.24-7.23,7.23-7.23s7.23,3.24,7.23,7.23v11.15Z"/>
  <path class="cls-1" d="M174,175.47h-4.83v-27.57c0-.79-.48-1.51-1.21-1.82-.73-.3-1.58-.14-2.14.42l-6.79,6.74c-.77.77-.78,2.01-.01,2.78.77.77,2.01.78,2.78.01l3.44-3.41v22.85h-4.83c-1.09,0-1.97.88-1.97,1.97s.88,1.97,1.97,1.97h13.59c1.09,0,1.97-.88,1.97-1.97s-.88-1.97-1.97-1.97Z"/>
  <path class="cls-1" d="M90,24.69c-10.51,0-19.06,8.55-19.06,19.06s8.55,19.05,19.06,19.05,19.06-8.55,19.06-19.05-8.55-19.06-19.06-19.06ZM90,58.87c-8.34,0-15.12-6.78-15.12-15.12s6.78-15.12,15.12-15.12,15.12,6.78,15.12,15.12-6.78,15.12-15.12,15.12Z"/>
  <path class="cls-1" d="M90,39.53c-2.32,0-4.22,1.89-4.22,4.22s1.89,4.22,4.22,4.22,4.22-1.89,4.22-4.22-1.89-4.22-4.22-4.22Z"/>
  <path class="cls-1" d="M142.11,44.97c.57-.72.57-1.73,0-2.45-.41-.51-4.85-6.02-12.05-12.12l5.66-6.44c.72-.82.64-2.06-.18-2.78-.82-.72-2.06-.64-2.78.18l-5.76,6.56c-4.06-3.16-8.79-6.32-14.03-8.89l4.89-9.41c.5-.96.13-2.15-.84-2.65-.96-.5-2.15-.13-2.65.84l-4.99,9.6c-5.4-2.25-11.26-3.79-17.42-4.07V2.57c0-1.09-.88-1.97-1.97-1.97s-1.97.88-1.97,1.97v10.76c-6.16.28-12.02,1.82-17.42,4.07l-4.99-9.6c-.5-.96-1.69-1.34-2.65-.84-.96.5-1.34,1.69-.84,2.65l4.89,9.41c-5.25,2.57-9.98,5.73-14.03,8.89l-5.76-6.56c-.72-.82-1.96-.9-2.78-.18-.82.72-.9,1.96-.18,2.78l5.66,6.44c-7.2,6.1-11.64,11.61-12.05,12.12-.57.72-.57,1.73,0,2.45.95,1.19,23.56,29.25,52.11,29.25s51.17-28.06,52.11-29.25ZM90,70.29c-23.38,0-43.32-21.17-48-26.54,4.67-5.37,24.59-26.54,48-26.54s43.32,21.17,48,26.54c-4.67,5.37-24.59,26.54-48,26.54Z"/>
</svg>