<?xml version="1.0" encoding="UTF-8"?>
<svg id="Digital_Security_Malware" data-name="Digital Security &amp;amp; Malware" xmlns="http://www.w3.org/2000/svg" viewBox="0 0 180 180">
  <defs>
    <style>
      .cls-1 {
        stroke: #000;
        stroke-miterlimit: 10;
        stroke-width: 2px;
      }
    </style>
  </defs>
  <path class="cls-1" d="M173.83,90.03v-.06c0-.24-.3-24.11,4.12-37.92,6.1-19.08-2.56-30.98-10.79-39.21-8.23-8.23-20.12-16.89-39.21-10.79-13.13,4.2-35.31,4.14-37.75,4.12-.07,0-.13,0-.2,0,0,0-.01,0-.02,0,0,0-.01,0-.01,0-.23,0-24.1.3-37.92-4.12-19.08-6.1-30.98,2.56-39.2,10.79C4.62,21.07-4.05,32.97,2.05,52.05c4.25,13.3,4.14,35.91,4.12,37.84,0,.04,0,.07,0,.11,0,0,0,0,0,.01,0,0,0,.01,0,.02,0,.24.3,24.11-4.12,37.92-6.1,19.08,2.56,30.98,10.79,39.2,8.23,8.23,20.12,16.89,39.21,10.79,13.04-4.17,35.04-4.14,37.7-4.12.08,0,.16,0,.25,0,0,0,.01,0,.02,0,0,0,.01,0,.01,0,.24,0,24.11-.3,37.92,4.12,4.49,1.43,8.57,2.05,12.31,2.05,12.16,0,20.6-6.55,26.9-12.84,8.23-8.23,16.89-20.12,10.79-39.21-4.42-13.81-4.12-37.68-4.12-37.92ZM134.27,87.97c-.48-10.67-4.79-21.2-12.92-29.33-7.89-7.9-18.24-12.44-29.32-12.94V10.25c42.38,1.06,76.65,35.34,77.72,77.72h-35.47ZM90,130.28c-10.76,0-20.88-4.19-28.48-11.8-15.71-15.71-15.71-41.26,0-56.97,7.61-7.61,17.72-11.8,28.48-11.8,0,0,0,0,0,0,0,0,0,0,0,0,10.76,0,20.87,4.19,28.48,11.8,15.71,15.71,15.71,41.26,0,56.97-7.61,7.61-17.72,11.8-28.49,11.8ZM87.97,45.71c-11.08.5-21.43,5.04-29.33,12.94-8.13,8.13-12.43,18.66-12.92,29.33H10.25C11.32,45.59,45.59,11.32,87.97,10.25v35.45ZM45.73,92.03c.48,10.67,4.79,21.2,12.92,29.33,7.89,7.89,18.24,12.44,29.33,12.94v35.45c-42.38-1.06-76.65-35.34-77.72-77.72h35.47ZM92.03,134.29c11.08-.5,21.43-5.04,29.32-12.94,8.13-8.13,12.43-18.66,12.92-29.33h35.47c-1.06,42.38-35.34,76.65-77.72,77.72v-35.45ZM129.19,5.92c17-5.43,27.69,2.38,35.1,9.8,7.41,7.41,15.23,18.1,9.8,35.1-1.6,4.99-2.6,11.09-3.24,16.98-7.81-28.41-30.23-50.83-58.64-58.64,5.89-.64,11.99-1.65,16.98-3.24ZM5.92,50.81C.49,33.82,8.3,23.13,15.71,15.71c5.69-5.69,13.3-11.61,24.21-11.61,3.31,0,6.93.55,10.89,1.81,4.99,1.6,11.09,2.6,16.98,3.24-28.41,7.81-50.83,30.23-58.64,58.64-.64-5.89-1.65-11.99-3.24-16.98ZM50.81,174.08c-17,5.43-27.68-2.38-35.1-9.8-7.41-7.41-15.23-18.1-9.8-35.1,1.6-4.99,2.6-11.09,3.24-16.98,7.81,28.41,30.23,50.82,58.64,58.64-5.89.64-11.99,1.65-16.98,3.24ZM164.28,164.28c-7.41,7.41-18.1,15.23-35.1,9.8-4.99-1.6-11.09-2.6-16.98-3.24,28.41-7.81,50.83-30.23,58.64-58.64.64,5.89,1.65,11.99,3.24,16.98,5.43,17-2.38,27.69-9.8,35.1Z"/>
</svg>