<?xml version="1.0" encoding="UTF-8"?>
<svg id="Digital_Security_Malware" data-name="Digital Security &amp;amp; Malware" xmlns="http://www.w3.org/2000/svg" viewBox="0 0 180 180">
  <defs>
    <style>
      .cls-1 {
        stroke: #000;
        stroke-miterlimit: 10;
        stroke-width: 2px;
      }
    </style>
  </defs>
  <path class="cls-1" d="M92.15,51.78h77.35c2.81,6.07,15.42,37.19-5.26,67.88-.62.93-.38,2.18.55,2.8.35.23.74.34,1.13.34.65,0,1.29-.31,1.68-.89,22.87-33.95,7.29-68.36,5.18-72.66-.27-14.77-12.36-26.71-27.2-26.71h-2.46V2.47c0-1.12-.9-2.02-2.02-2.02s-2.02.9-2.02,2.02v20.08h-17.48V2.47c0-1.12-.9-2.02-2.02-2.02s-2.02.9-2.02,2.02v20.08h-2.46c-14.98,0-27.17,12.16-27.21,27.13,0,.17.02.36.03.42.05.32,5.09,32.85-30.66,69.28-.78.8-.77,2.08.03,2.86.39.39.9.58,1.42.58s1.05-.2,1.44-.6c32.04-32.64,32.63-62.02,32.02-70.42ZM115.1,26.58h30.49c12.1,0,22.06,9.32,23.08,21.15h-76.65c1.03-11.83,10.99-21.15,23.08-21.15Z"/>
  <path class="cls-1" d="M106.89,74.29c-1.12.02-2.01.93-1.99,2.05.28,20.32-19.97,42.87-20.17,43.09-.75.83-.69,2.1.14,2.85.39.35.87.52,1.36.52.55,0,1.1-.22,1.49-.66.88-.97,21.52-23.94,21.22-45.87-.02-1.12-.93-1.98-2.05-1.99Z"/>
  <path class="cls-1" d="M123.35,74.29c-1.12.02-2.01.93-1.99,2.05.3,20.42-16.44,43.01-16.61,43.24-.67.89-.49,2.16.41,2.83.36.27.79.4,1.21.4.61,0,1.22-.28,1.62-.81.72-.97,17.74-23.9,17.42-45.72-.02-1.12-.9-2.03-2.05-1.99Z"/>
  <path class="cls-1" d="M140.53,74.29c-1.12.01-2.01.93-1.99,2.05.26,20.5-14.26,43.13-14.41,43.35-.61.94-.34,2.19.59,2.79.34.22.72.33,1.1.33.66,0,1.31-.32,1.7-.92.63-.96,15.34-23.87,15.06-45.61-.01-1.11-.92-1.99-2.02-1.99h-.03Z"/>
  <path class="cls-1" d="M158.86,74.29h-.03c-1.12.01-2.01.93-1.99,2.05.26,20.5-14.26,43.13-14.41,43.35-.61.94-.34,2.19.59,2.79.34.22.72.33,1.1.33.66,0,1.31-.32,1.7-.92.63-.96,15.34-23.87,15.06-45.61-.01-1.11-.92-1.99-2.02-1.99Z"/>
  <path class="cls-1" d="M19.12,62.12c-2.35,0-4.26,1.91-4.26,4.26s1.91,4.26,4.26,4.26,4.26-1.91,4.26-4.26-1.91-4.26-4.26-4.26Z"/>
  <path class="cls-1" d="M37.96,100.84c-2.35,0-4.26,1.91-4.26,4.26s1.91,4.26,4.26,4.26,4.26-1.91,4.26-4.26-1.91-4.26-4.26-4.26Z"/>
  <path class="cls-1" d="M56,58.9c2.35,0,4.26-1.91,4.26-4.26s-1.91-4.26-4.26-4.26-4.26,1.91-4.26,4.26,1.91,4.26,4.26,4.26Z"/>
  <path class="cls-1" d="M53.75,153.49c-2.35,0-4.26,1.91-4.26,4.26s1.91,4.26,4.26,4.26,4.26-1.91,4.26-4.26-1.91-4.26-4.26-4.26Z"/>
  <path class="cls-1" d="M94.4,160.71c-2.35,0-4.26,1.91-4.26,4.26s1.91,4.26,4.26,4.26,4.26-1.91,4.26-4.26-1.91-4.26-4.26-4.26Z"/>
  <path class="cls-1" d="M127.71,145.66c-2.35,0-4.26,1.91-4.26,4.26s1.91,4.26,4.26,4.26,4.26-1.91,4.26-4.26-1.91-4.26-4.26-4.26Z"/>
  <path class="cls-1" d="M23.61,135.35c-2.35,0-4.26,1.91-4.26,4.26s1.91,4.26,4.26,4.26,4.26-1.91,4.26-4.26-1.91-4.26-4.26-4.26Z"/>
  <path class="cls-1" d="M21.8,175.51H4.04v-17.76c0-1.12-.9-2.02-2.02-2.02s-2.02.9-2.02,2.02v19.78c0,1.12.9,2.02,2.02,2.02h19.78c1.12,0,2.02-.9,2.02-2.02s-.9-2.02-2.02-2.02Z"/>
  <path class="cls-1" d="M177.98,155.73c-1.12,0-2.02.9-2.02,2.02v17.76h-17.76c-1.12,0-2.02.9-2.02,2.02s.9,2.02,2.02,2.02h19.78c1.12,0,2.02-.9,2.02-2.02v-19.78c0-1.12-.9-2.02-2.02-2.02Z"/>
  <path class="cls-1" d="M2.02,37.39c1.12,0,2.02-.9,2.02-2.02v-17.76h17.76c1.12,0,2.02-.9,2.02-2.02s-.9-2.02-2.02-2.02H2.02c-1.12,0-2.02.9-2.02,2.02v19.78c0,1.12.9,2.02,2.02,2.02Z"/>
</svg>