<?xml version="1.0" encoding="UTF-8"?>
<svg id="Digital_Security_Malware" data-name="Digital Security &amp;amp; Malware" xmlns="http://www.w3.org/2000/svg" viewBox="0 0 180 180">
  <defs>
    <style>
      .cls-1 {
        stroke: #000;
        stroke-miterlimit: 10;
        stroke-width: 2px;
      }
    </style>
  </defs>
  <path class="cls-1" d="M163.36,102.89c-.08-1.02-.93-1.82-1.96-1.82h-8.63c.89-5.41,1.27-10.84,1.01-16.21-.29-6.02-2.23-23.57-14.68-34.49l17.76,3.83,19.09,30.46c.37.6,1.01.92,1.67.92.36,0,.72-.1,1.04-.3.92-.58,1.2-1.79.62-2.71l-19.53-31.17c-.28-.45-.73-.77-1.25-.88l-25.3-5.45c4.33-3.21,10.8-9.21,12.79-17.47,1.56-6.49.07-13.11-4.45-19.68-.62-.9-1.84-1.12-2.74-.51-.9.62-1.12,1.84-.51,2.74,3.85,5.61,5.15,11.16,3.87,16.51-1.95,8.14-9.37,13.98-12.96,16.39-2.24-5.8-8.81-20.44-19.15-23.41-.55-10.6-9.34-19.06-20.07-19.06s-19.53,8.46-20.07,19.06c-10.34,2.97-16.91,17.61-19.15,23.41-3.58-2.41-11-8.25-12.96-16.39-1.28-5.35.02-10.91,3.87-16.51.61-.9.39-2.12-.51-2.74-.9-.61-2.12-.39-2.74.51-4.51,6.57-6.01,13.19-4.45,19.68,1.99,8.26,8.46,14.26,12.79,17.47l-25.3,5.45c-.52.11-.97.43-1.25.88L.72,82.59c-.58.92-.3,2.13.62,2.71.32.2.69.3,1.04.3.65,0,1.3-.33,1.67-.92l19.09-30.46,17.76-3.83c-12.45,10.92-14.39,28.48-14.68,34.49-.26,5.36.12,10.8,1.01,16.21h-8.63c-1.03,0-1.88.79-1.96,1.82-.02.24-2.04,24.7-15.72,45.52-.6.91-.34,2.13.56,2.72.33.22.71.32,1.08.32.64,0,1.27-.31,1.65-.89,12.19-18.57,15.44-39.35,16.16-45.56h7.6c4.58,21.79,17.12,42.74,29.93,56.18,11.19,11.74,22.59,18.21,32.1,18.21s20.9-6.47,32.1-18.21c12.81-13.44,25.34-34.39,29.93-56.18h7.6c.73,6.21,3.97,26.99,16.16,45.56.38.57,1.01.89,1.65.89.37,0,.75-.1,1.08-.32.91-.6,1.16-1.82.56-2.72-13.65-20.79-15.7-45.28-15.72-45.52ZM90,4.53c8.38,0,15.29,6.41,16.09,14.58h-32.17c.8-8.17,7.71-14.58,16.09-14.58ZM73.65,23.05h32.7c9.7,0,16.6,14.89,19.02,21H54.63c2.42-6.12,9.32-21,19.02-21ZM88.03,175.36c-7.98-.88-17.79-6.92-27.28-16.88-16.17-16.96-31.9-46.24-30.6-73.42.32-6.74,2.87-29.24,22.03-37.07h35.85v127.37ZM119.25,158.48c-9.5,9.96-19.31,16-27.28,16.88V47.99h35.85c19.16,7.83,21.71,30.33,22.03,37.07,1.3,27.18-14.43,56.46-30.6,73.42Z"/>
</svg>