<?xml version="1.0" encoding="UTF-8"?>
<svg id="Digital_Security_Malware" data-name="Digital Security &amp;amp; Malware" xmlns="http://www.w3.org/2000/svg" viewBox="0 0 180 180">
  <defs>
    <style>
      .cls-1 {
        stroke: #000;
        stroke-miterlimit: 10;
        stroke-width: 2px;
      }
    </style>
  </defs>
  <path class="cls-1" d="M137.8,123.47l-8.22,5.82h-8.88c-.25-6.07-1.61-11.77-3.82-16.8l12.56-9.72c.36-.28.61-.66.72-1.1l3.23-12.53c.28-1.09-.37-2.19-1.46-2.47-1.09-.28-2.19.37-2.47,1.46l-3.06,11.86-11.39,8.81c-2.66-4.7-6.12-8.62-10.13-11.44,1.02-2.13,1.6-4.51,1.6-7.03,0-9.09-7.4-16.49-16.49-16.49s-16.49,7.4-16.49,16.49c0,2.52.58,4.9,1.6,7.03-4.01,2.82-7.47,6.74-10.13,11.44l-11.39-8.81-3.06-11.86c-.28-1.09-1.39-1.74-2.47-1.46-1.09.28-1.74,1.39-1.46,2.47l3.23,12.53c.11.44.37.82.72,1.1l12.56,9.72c-2.21,5.02-3.57,10.73-3.82,16.8h-8.88l-8.22-5.82c-.91-.65-2.18-.43-2.83.48-.65.92-.43,2.18.48,2.83l8.74,6.2c.34.24.75.37,1.17.37h9.53c.2,4.88,1.13,9.52,2.64,13.77l-12.18,5.97c-.51.25-.9.71-1.06,1.26l-6.65,23.06c-.31,1.08.31,2.2,1.39,2.51.19.05.38.08.56.08.88,0,1.69-.58,1.95-1.47l6.4-22.19,11.12-5.45c5.34,11.49,15.23,19.23,26.52,19.23s21.18-7.74,26.52-19.23l11.12,5.45,6.4,22.19c.26.89,1.07,1.47,1.95,1.47.19,0,.38-.03.56-.08,1.08-.31,1.7-1.44,1.39-2.51l-6.65-23.06c-.16-.55-.54-1.01-1.06-1.26l-12.18-5.97c1.51-4.25,2.43-8.89,2.64-13.77h9.53c.42,0,.83-.13,1.17-.37l8.74-6.2c.91-.65,1.13-1.92.48-2.83-.65-.91-1.92-1.13-2.83-.48ZM77.57,90.33c0-6.85,5.58-12.43,12.43-12.43s12.43,5.58,12.43,12.43c0,1.75-.38,3.42-1.04,4.93-3.53-1.78-7.37-2.78-11.39-2.78s-7.87.99-11.39,2.78c-.66-1.51-1.04-3.18-1.04-4.93ZM90,166.06c-14.71,0-26.68-15.59-26.68-34.76s10.88-33.29,24.65-34.65v37.88c0,1.12.91,2.03,2.03,2.03s2.03-.91,2.03-2.03v-37.88c13.76,1.36,24.65,16.37,24.65,34.65s-11.97,34.76-26.68,34.76Z"/>
  <path class="cls-1" d="M87.97,22.39v36.5c0,1.12.91,2.03,2.03,2.03s2.03-.91,2.03-2.03V22.39c5.26-.96,9.26-5.57,9.26-11.1C101.29,5.06,96.22,0,90,0s-11.29,5.06-11.29,11.29c0,5.53,4,10.14,9.26,11.1ZM90,4.06c3.99,0,7.23,3.24,7.23,7.23s-3.24,7.23-7.23,7.23-7.23-3.24-7.23-7.23,3.24-7.23,7.23-7.23Z"/>
  <path class="cls-1" d="M13.32,58.91V22.39c5.26-.96,9.26-5.57,9.26-11.1C22.58,5.06,17.51,0,11.29,0S0,5.06,0,11.29c0,5.53,4,10.14,9.26,11.1v37.34c0,.53.2,1.03.57,1.41l12.39,12.82v63.63c0,1.12.91,2.03,2.03,2.03s2.03-.91,2.03-2.03v-64.45c0-.53-.2-1.03-.57-1.41l-12.39-12.82ZM4.06,11.29c0-3.99,3.24-7.23,7.23-7.23s7.23,3.24,7.23,7.23-3.24,7.23-7.23,7.23-7.23-3.24-7.23-7.23Z"/>
  <path class="cls-1" d="M46.6,22.36v16.07c0,.53.2,1.03.57,1.41l12.39,12.82v20.11c0,1.12.91,2.03,2.03,2.03s2.03-.91,2.03-2.03v-20.93c0-.53-.2-1.03-.57-1.41l-12.39-12.82v-15.2c5.34-.89,9.42-5.53,9.42-11.12C60.08,5.06,55.02,0,48.79,0s-11.29,5.06-11.29,11.29c0,5.48,3.92,10.05,9.1,11.07ZM48.79,4.06c3.99,0,7.23,3.24,7.23,7.23s-3.24,7.23-7.23,7.23-7.23-3.24-7.23-7.23,3.24-7.23,7.23-7.23Z"/>
  <path class="cls-1" d="M131.21,0C124.98,0,119.92,5.06,119.92,11.29c0,5.59,4.08,10.23,9.42,11.12v15.2l-12.39,12.82c-.37.38-.57.88-.57,1.41v20.93c0,1.12.91,2.03,2.03,2.03s2.03-.91,2.03-2.03v-20.11l12.39-12.82c.37-.38.57-.88.57-1.41v-16.07c5.18-1.02,9.1-5.6,9.1-11.07C142.5,5.06,137.43,0,131.21,0ZM131.21,18.52c-3.99,0-7.23-3.24-7.23-7.23s3.24-7.23,7.23-7.23,7.23,3.24,7.23,7.23-3.24,7.23-7.23,7.23Z"/>
  <path class="cls-1" d="M180,11.29C180,5.06,174.94,0,168.71,0s-11.29,5.06-11.29,11.29c0,5.53,4,10.14,9.26,11.1v36.52l-12.39,12.82c-.37.38-.57.88-.57,1.41v64.45c0,1.12.91,2.03,2.03,2.03s2.03-.91,2.03-2.03v-63.63l12.39-12.82c.37-.38.57-.88.57-1.41V22.39c5.26-.96,9.26-5.57,9.26-11.1ZM168.71,18.52c-3.99,0-7.23-3.24-7.23-7.23s3.24-7.23,7.23-7.23,7.23,3.24,7.23,7.23-3.24,7.23-7.23,7.23Z"/>
</svg>