<?xml version="1.0" encoding="UTF-8"?>
<svg id="Digital_Security_Malware" data-name="Digital Security &amp;amp; Malware" xmlns="http://www.w3.org/2000/svg" viewBox="0 0 180 180">
  <defs>
    <style>
      .cls-1 {
        stroke: #000;
        stroke-miterlimit: 10;
        stroke-width: 2px;
      }
    </style>
  </defs>
  <path class="cls-1" d="M167.57,55.12h-103.19c-1.09,0-1.98.89-1.98,1.98s.89,1.98,1.98,1.98h103.19c2.48,0,4.51,2.02,4.51,4.51v67.07H7.92V63.59c0-2.48,2.02-4.51,4.5-4.51h26.01c1.09,0,1.98-.89,1.98-1.98s-.89-1.98-1.98-1.98H12.43c-4.67,0-8.47,3.8-8.47,8.47v107.95c0,4.67,3.8,8.47,8.47,8.47h155.15c4.67,0,8.47-3.8,8.47-8.47V63.59c0-4.67-3.8-8.47-8.47-8.47ZM172.08,134.62v24.04H7.92v-24.04h164.16ZM167.57,176.04H12.43c-2.48,0-4.5-2.02-4.5-4.51v-8.91h164.16v8.91c0,2.48-2.02,4.51-4.51,4.51Z"/>
  <path class="cls-1" d="M155.08,114.57c1.09,0,1.98-.89,1.98-1.98v-20.38c0-1.09-.89-1.98-1.98-1.98h-27.8c-1.09,0-1.98.89-1.98,1.98v20.38c0,1.09.89,1.98,1.98,1.98h27.8ZM129.27,94.19h23.83v16.42h-23.83v-16.42Z"/>
  <path class="cls-1" d="M49.43,26.03v57.87c0,15.97,12.99,28.97,28.97,28.97s28.97-12.99,28.97-28.97c0-.81-.49-1.53-1.24-1.84-.75-.3-1.61-.12-2.17.46l-5.9,6.08c-.76.79-.74,2.04.04,2.8.78.76,2.04.74,2.8-.04l1.88-1.94c-2.52,11.14-12.5,19.48-24.39,19.48-13.79,0-25.01-11.22-25.01-25.01V26.03c6.28-.96,11.12-6.38,11.12-12.93,0-7.22-5.88-13.1-13.1-13.1s-13.1,5.88-13.1,13.1c0,6.55,4.83,11.97,11.12,12.93ZM51.41,3.96c5.04,0,9.14,4.1,9.14,9.14s-4.1,9.14-9.14,9.14-9.14-4.1-9.14-9.14,4.1-9.14,9.14-9.14Z"/>
</svg>