<?xml version="1.0" encoding="UTF-8"?>
<svg id="Digital_Security_Malware" data-name="Digital Security &amp;amp; Malware" xmlns="http://www.w3.org/2000/svg" viewBox="0 0 180 180">
  <defs>
    <style>
      .cls-1 {
        stroke: #000;
        stroke-miterlimit: 10;
        stroke-width: 2px;
      }
    </style>
  </defs>
  <path class="cls-1" d="M112.03,107.65l8.92,4.37,5.27,18.26c.24.83.99,1.37,1.81,1.37.17,0,.35-.02.52-.07,1-.29,1.58-1.34,1.29-2.34l-5.5-19.07c-.15-.51-.5-.94-.98-1.17l-9.9-4.85c1.2-3.42,1.93-7.15,2.12-11.07h7.68c.39,0,.77-.12,1.09-.35l7.23-5.12c.85-.6,1.05-1.78.45-2.63-.6-.85-1.78-1.05-2.63-.45l-6.74,4.78h-7.08c-.22-4.91-1.32-9.53-3.1-13.61l10.26-7.94c.33-.26.57-.62.67-1.02l2.67-10.36c.26-1.01-.35-2.04-1.36-2.3-1.01-.26-2.04.35-2.3,1.36l-2.51,9.74-9.17,7.09c-2.16-3.76-4.95-6.91-8.17-9.21.81-1.75,1.26-3.7,1.26-5.75,0-7.63-6.21-13.84-13.84-13.84s-13.84,6.21-13.84,13.84c0,2.05.46,4,1.27,5.75-3.22,2.3-6.01,5.45-8.17,9.21l-9.17-7.09-2.51-9.74c-.26-1.01-1.29-1.62-2.3-1.36-1.01.26-1.62,1.29-1.36,2.3l2.67,10.36c.1.41.34.76.67,1.02l10.26,7.94c-1.78,4.08-2.87,8.7-3.1,13.61h-7.08l-6.74-4.78c-.85-.6-2.03-.4-2.63.45s-.4,2.03.45,2.63l7.23,5.12c.32.23.7.35,1.09.35h7.69c.18,3.92.92,7.65,2.12,11.07l-9.9,4.85c-.48.23-.84.66-.98,1.17l-5.5,19.07c-.29,1,.29,2.05,1.29,2.34.18.05.35.07.52.07.82,0,1.58-.54,1.81-1.37l5.27-18.26,8.92-4.37c4.47,9.47,12.67,15.83,22.03,15.83s17.56-6.36,22.03-15.83ZM79.93,57.29c0-5.55,4.52-10.07,10.07-10.07s10.07,4.52,10.07,10.07c0,1.34-.27,2.62-.75,3.79-2.89-1.43-6.03-2.22-9.31-2.22s-6.43.79-9.31,2.22c-.48-1.17-.75-2.45-.75-3.79ZM90,119.7c-12.05,0-21.85-12.8-21.85-28.53,0-14.9,8.79-27.16,19.96-28.41v31.09c0,1.04.85,1.89,1.89,1.89s1.89-.85,1.89-1.89v-31.09c11.17,1.25,19.96,13.51,19.96,28.41,0,15.73-9.8,28.53-21.85,28.53Z"/>
  <path class="cls-1" d="M179.27,77.48c-.46-.36-1.06-.48-1.62-.34l-2.94.74c-5.34-37.51-35.08-67.25-72.59-72.59l.74-2.94c.14-.56.02-1.16-.34-1.62C102.16.27,101.61,0,101.03,0h-22.06c-.58,0-1.13.27-1.49.73-.36.46-.48,1.06-.34,1.62l.74,2.94C40.37,10.63,10.63,40.37,5.29,77.88l-2.94-.74c-.56-.14-1.16-.02-1.62.34-.46.36-.73.91-.73,1.49v22.06c0,.58.27,1.13.73,1.49.34.26.74.4,1.16.4.15,0,.31-.02.46-.06l2.94-.74c5.34,37.51,35.08,67.25,72.59,72.59l-.74,2.94c-.14.56-.02,1.16.34,1.62.36.46.91.73,1.49.73h22.06c.58,0,1.13-.27,1.49-.73.36-.46.48-1.06.34-1.62l-.74-2.94c37.51-5.34,67.25-35.08,72.59-72.59l2.94.74c.15.04.31.06.46.06.42,0,.83-.14,1.16-.4.46-.36.73-.91.73-1.49v-22.06c0-.58-.27-1.13-.73-1.49ZM98.61,3.78l-5.48,21.73h-6.27l-5.47-21.73h17.22ZM3.78,81.39l21.73,5.48v6.27l-21.73,5.48v-17.22ZM81.39,176.22l5.47-21.73h6.27l5.48,21.73h-17.22ZM101.19,171.03l-4.76-18.89c-.21-.84-.97-1.43-1.83-1.43h-9.21c-.87,0-1.62.59-1.83,1.43l-4.76,18.89c-36.17-4.97-64.86-33.66-69.84-69.84l18.89-4.76c.84-.21,1.43-.97,1.43-1.83v-9.21c0-.87-.59-1.62-1.43-1.83l-18.89-4.76C13.94,42.64,42.63,13.94,78.81,8.97l4.76,18.89c.21.84.97,1.43,1.83,1.43h9.21c.87,0,1.62-.59,1.83-1.43l4.76-18.89c36.17,4.97,64.86,33.66,69.84,69.84l-18.89,4.76c-.84.21-1.43.97-1.43,1.83v9.21c0,.87.59,1.62,1.43,1.83l18.89,4.76c-4.97,36.17-33.66,64.86-69.84,69.84ZM176.22,98.61l-21.73-5.48v-6.27l21.73-5.48v17.22Z"/>
  <path class="cls-1" d="M107.41,24.56c23.4,6.23,41.8,24.64,48.03,48.03.22.84.99,1.4,1.82,1.4.16,0,.32-.02.49-.06,1.01-.27,1.61-1.3,1.34-2.31-6.58-24.7-26.01-44.13-50.71-50.71-1.01-.27-2.04.33-2.31,1.34-.27,1.01.33,2.04,1.34,2.31Z"/>
  <path class="cls-1" d="M107.41,155.44c-1.01.27-1.61,1.3-1.34,2.31.22.84.99,1.4,1.82,1.4.16,0,.32-.02.49-.06,24.7-6.58,44.13-26.01,50.71-50.71.27-1.01-.33-2.04-1.34-2.31-1.01-.27-2.04.33-2.31,1.34-6.23,23.4-24.64,41.8-48.03,48.03Z"/>
  <path class="cls-1" d="M72.59,155.44c-23.4-6.23-41.8-24.63-48.03-48.03-.27-1.01-1.3-1.61-2.31-1.34-1.01.27-1.61,1.3-1.34,2.31,6.58,24.7,26.01,44.13,50.71,50.71.16.04.33.06.49.06.84,0,1.6-.56,1.82-1.4.27-1.01-.33-2.04-1.34-2.31Z"/>
  <path class="cls-1" d="M72.59,24.56c1.01-.27,1.61-1.3,1.34-2.31-.27-1.01-1.3-1.61-2.31-1.34-24.7,6.58-44.13,26.01-50.71,50.71-.27,1.01.33,2.04,1.34,2.31.16.04.33.06.49.06.84,0,1.6-.56,1.82-1.4,6.23-23.4,24.64-41.8,48.03-48.03Z"/>
</svg>