<?xml version="1.0" encoding="UTF-8"?>
<svg id="Digital_Security_Malware" data-name="Digital Security &amp;amp; Malware" xmlns="http://www.w3.org/2000/svg" viewBox="0 0 180 180">
  <defs>
    <style>
      .cls-1 {
        stroke: #000;
        stroke-miterlimit: 10;
        stroke-width: 2px;
      }
    </style>
  </defs>
  <path class="cls-1" d="M52.45,157.33c-1.15,0-2.08.93-2.08,2.08s.93,2.08,2.08,2.08h18.51c1.15,0,2.08-.93,2.08-2.08s-.93-2.08-2.08-2.08h-18.51Z"/>
  <path class="cls-1" d="M173.28,120.18h-8.69v-17.04c0-15.43-12.56-27.99-27.99-27.99s-27.99,12.56-27.99,27.99v17.04h-8.69c-3.7,0-6.71,3.01-6.71,6.71v46.4c0,3.7,3.01,6.71,6.71,6.71h73.35c3.7,0,6.71-3.01,6.71-6.71v-46.4c0-3.7-3.01-6.71-6.71-6.71ZM112.77,103.14c0-13.14,10.69-23.83,23.83-23.83s23.83,10.69,23.83,23.83v17.04h-47.65v-17.04ZM175.82,173.29c0,1.4-1.14,2.54-2.54,2.54h-73.35c-1.4,0-2.54-1.14-2.54-2.54v-46.4c0-1.4,1.14-2.54,2.54-2.54h73.35c1.4,0,2.54,1.14,2.54,2.54v46.4Z"/>
  <path class="cls-1" d="M136.6,140.93c-2.45,0-4.45,2-4.45,4.45,0,1.7.97,3.16,2.37,3.91v7.6c0,1.15.93,2.08,2.08,2.08s2.08-.93,2.08-2.08v-7.6c1.4-.75,2.37-2.21,2.37-3.91,0-2.45-2-4.45-4.45-4.45Z"/>
  <path class="cls-1" d="M104.57,84.42c1.15,0,2.08-.93,2.08-2.08V18.83c0-1.15-.93-2.08-2.08-2.08H18.84c-1.15,0-2.08.93-2.08,2.08v123.82c0,1.15.93,2.08,2.08,2.08h64.14c1.15,0,2.08-.93,2.08-2.08s-.93-2.08-2.08-2.08H20.93V20.91h34.63l-12.02,20.82c-.58,1-.23,2.27.76,2.84.33.19.69.28,1.04.28.72,0,1.42-.37,1.8-1.04l13.22-22.9h16.57l-31.91,55.27c-.58,1-.23,2.27.76,2.84.33.19.69.28,1.04.28.72,0,1.42-.37,1.8-1.04l33.11-57.35h20.75v61.42c0,1.15.93,2.08,2.08,2.08Z"/>
  <path class="cls-1" d="M83.6,175.84H10.01c-3.21,0-5.83-2.62-5.83-5.83V9.99c0-3.21,2.62-5.83,5.83-5.83h103.4c3.22,0,5.83,2.62,5.83,5.83v58.12c0,1.15.93,2.08,2.08,2.08s2.08-.93,2.08-2.08V9.99c0-5.51-4.48-9.99-10-9.99H10.01C4.5,0,.01,4.48.01,9.99v160.01c0,5.51,4.48,9.99,9.99,9.99h73.59c1.15,0,2.08-.93,2.08-2.08s-.93-2.08-2.08-2.08Z"/>
</svg>