<?xml version="1.0" encoding="UTF-8"?>
<svg id="Digital_Security_Malware" data-name="Digital Security &amp;amp; Malware" xmlns="http://www.w3.org/2000/svg" viewBox="0 0 180 180">
  <defs>
    <style>
      .cls-1 {
        stroke: #000;
        stroke-miterlimit: 10;
        stroke-width: 2px;
      }
    </style>
  </defs>
  <path class="cls-1" d="M38.23,89.67c1.31,2.27,3.9,3.51,7.29,3.51h88.97c3.39,0,5.98-1.25,7.29-3.51,1.31-2.27,1.1-5.13-.6-8.07L96.69,4.55C94.99,1.62,92.62,0,90,0,87.38,0,85.01,1.62,83.31,4.55l-44.48,77.05c-1.7,2.94-1.91,5.8-.6,8.07ZM42.1,83.49L86.58,6.44c.98-1.69,2.22-2.67,3.42-2.67,1.19,0,2.44.97,3.42,2.67l44.48,77.05c.98,1.69,1.2,3.26.6,4.29-.6,1.03-2.06,1.63-4.02,1.63H45.52c-1.96,0-3.42-.59-4.02-1.63-.6-1.03-.38-2.6.6-4.29Z"/>
  <path class="cls-1" d="M90,60.56c1.04,0,1.89-.85,1.89-1.89v-24.68c0-1.04-.85-1.89-1.89-1.89s-1.89.85-1.89,1.89v24.68c0,1.04.85,1.89,1.89,1.89Z"/>
  <path class="cls-1" d="M90,77.36c2.2,0,3.99-1.79,3.99-3.99s-1.79-3.99-3.99-3.99-3.99,1.79-3.99,3.99,1.79,3.99,3.99,3.99Z"/>
  <path class="cls-1" d="M27.7,26.49l17.36,10.19c.3.18.63.26.95.26.65,0,1.28-.33,1.63-.93.53-.9.23-2.06-.67-2.58l-17.36-10.19c-.9-.53-2.06-.23-2.58.67-.53.9-.23,2.06.67,2.58Z"/>
  <path class="cls-1" d="M43.15,50.6c-.07-1.04-.98-1.82-2.01-1.76l-11.91.81c-1.04.07-1.83.97-1.76,2.01.07,1,.9,1.76,1.88,1.76.04,0,.09,0,.13,0l11.91-.81c1.04-.07,1.83-.97,1.76-2.01Z"/>
  <path class="cls-1" d="M55.69,24.07c.32.68,1,1.08,1.71,1.08.27,0,.55-.06.81-.18.94-.45,1.35-1.57.9-2.51l-5.1-10.8c-.45-.94-1.57-1.34-2.51-.9-.94.45-1.35,1.57-.9,2.51l5.1,10.8Z"/>
  <path class="cls-1" d="M133.99,36.94c.32,0,.65-.08.95-.26l17.36-10.19c.9-.53,1.2-1.68.67-2.58-.53-.9-1.69-1.2-2.58-.67l-17.36,10.19c-.9.53-1.2,1.68-.67,2.58.35.6.98.93,1.63.93Z"/>
  <path class="cls-1" d="M150.77,49.65l-11.91-.81c-1.02-.06-1.94.72-2.01,1.76-.07,1.04.72,1.94,1.76,2.01l11.91.81s.09,0,.13,0c.99,0,1.81-.76,1.88-1.76.07-1.04-.72-1.94-1.76-2.01Z"/>
  <path class="cls-1" d="M121.8,24.97c.26.12.54.18.81.18.71,0,1.39-.4,1.71-1.08l5.1-10.8c.45-.94.04-2.07-.9-2.51-.94-.44-2.07-.04-2.51.9l-5.1,10.8c-.45.94-.04,2.07.9,2.51Z"/>
  <path class="cls-1" d="M24.37,161.8c0,1.04.85,1.89,1.89,1.89h127.49c1.04,0,1.89-.85,1.89-1.89s-.85-1.89-1.89-1.89H26.26c-1.04,0-1.89.85-1.89,1.89Z"/>
  <path class="cls-1" d="M116.14,122.88h-13.02v-17.45c0-1.04-.85-1.89-1.89-1.89h-22.46c-1.04,0-1.89.85-1.89,1.89v17.45h-13.02c-.8,0-1.52.51-1.78,1.27-.26.76-.02,1.6.61,2.1l26.14,20.82c.34.27.76.41,1.18.41s.83-.14,1.18-.41l26.14-20.82c.63-.5.87-1.34.61-2.1-.26-.76-.98-1.27-1.78-1.27ZM90,143.17l-20.73-16.51h9.51c1.04,0,1.89-.85,1.89-1.89v-17.45h18.68v17.45c0,1.04.85,1.89,1.89,1.89h9.51l-20.73,16.51Z"/>
  <path class="cls-1" d="M176.61,164.01c-1.81-3.84-13.32-26.13-13.8-27.15l-.09-.19c-1.28-2.76-3.21-6.92-7.64-6.92h-28.27c-1.04,0-1.89.85-1.89,1.89s.85,1.89,1.89,1.89h28.27c1.87,0,2.97,2.05,4.21,4.73l.09.2c.5,1.08,12.02,23.39,13.8,27.16,1.51,3.21.83,6.27-.3,8.07-1.02,1.61-2.52,2.53-4.11,2.53H11.22c-1.59,0-3.09-.92-4.11-2.53-1.14-1.79-1.82-4.86-.3-8.07,1.78-3.78,13.3-26.08,13.81-27.17l.09-.19c1.24-2.68,2.34-4.73,4.21-4.73h28.27c1.04,0,1.89-.85,1.89-1.89s-.85-1.89-1.89-1.89h-28.27c-4.43,0-6.36,4.16-7.64,6.92l-.09.19c-.47,1.01-11.99,23.3-13.8,27.15-1.81,3.85-1.61,8.33.53,11.7,1.73,2.72,4.39,4.29,7.3,4.29h157.55c2.91,0,5.57-1.56,7.3-4.29,2.14-3.37,2.34-7.86.53-11.7Z"/>
</svg>