<?xml version="1.0" encoding="UTF-8"?>
<svg id="Digital_Security_Malware" data-name="Digital Security &amp;amp; Malware" xmlns="http://www.w3.org/2000/svg" viewBox="0 0 180 180">
  <defs>
    <style>
      .cls-1 {
        stroke: #000;
        stroke-miterlimit: 10;
        stroke-width: 2px;
      }
    </style>
  </defs>
  <path class="cls-1" d="M53.83,65.64c1.04,0,1.89-.85,1.89-1.89v-9.92c0-1.04-.85-1.89-1.89-1.89s-1.89.85-1.89,1.89v9.92c0,1.04.85,1.89,1.89,1.89Z"/>
  <path class="cls-1" d="M1.89,60.68c1.04,0,1.89-.85,1.89-1.89v-4.96C3.78,26.23,26.23,3.78,53.83,3.78c9.32,0,18.42,2.59,26.31,7.49.89.55,2.05.28,2.6-.61.55-.89.28-2.05-.61-2.6C73.64,2.79,63.85,0,53.83,0,24.15,0,0,24.15,0,53.83v4.96c0,1.04.85,1.89,1.89,1.89Z"/>
  <path class="cls-1" d="M53.83,127.5c8.69,0,17.34-2.13,25-6.16.92-.49,1.28-1.63.79-2.55-.49-.92-1.63-1.28-2.55-.79-7.12,3.75-15.15,5.73-23.24,5.73-27.6,0-50.05-22.45-50.05-50.05,0-1.04-.85-1.89-1.89-1.89S0,72.63,0,73.67C0,103.35,24.15,127.5,53.83,127.5Z"/>
  <path class="cls-1" d="M102.83,43.62c.19.89.97,1.5,1.85,1.5.13,0,.26-.01.39-.04,1.02-.21,1.68-1.21,1.46-2.23-2.17-10.45-7.38-19.95-15.06-27.47-.74-.73-1.94-.72-2.67.03-.73.74-.72,1.94.03,2.67,7.14,6.99,11.99,15.83,14.01,25.54Z"/>
  <path class="cls-1" d="M90.89,53.83c0,1.04.85,1.89,1.89,1.89s1.89-.85,1.89-1.89c0-22.52-18.32-40.84-40.84-40.84-16.69,0-31.54,10.01-37.85,25.49-.39.97.07,2.07,1.04,2.46.97.39,2.07-.07,2.46-1.04,5.72-14.06,19.2-23.14,34.35-23.14,20.44,0,37.07,16.63,37.07,37.07Z"/>
  <path class="cls-1" d="M14.87,51.94c-1.04,0-1.89.85-1.89,1.89v19.84c0,22.52,18.32,40.84,40.84,40.84,9.27,0,18.01-3.04,25.29-8.79.82-.65.96-1.83.31-2.65-.65-.82-1.83-.96-2.65-.31-6.6,5.22-14.53,7.98-22.94,7.98-20.44,0-37.07-16.63-37.07-37.07v-19.84c0-1.04-.85-1.89-1.89-1.89Z"/>
  <path class="cls-1" d="M71.68,37.69c.7.77,1.89.83,2.67.13.77-.7.83-1.89.13-2.67-5.28-5.83-12.81-9.18-20.65-9.18-15.36,0-27.86,12.5-27.86,27.86v7.61c0,1.04.85,1.89,1.89,1.89s1.89-.85,1.89-1.89v-7.61c0-13.28,10.8-24.08,24.08-24.08,6.78,0,13.29,2.89,17.86,7.94Z"/>
  <path class="cls-1" d="M79.8,51.94c-1.04,0-1.89.85-1.89,1.89v19.84c0,13.28-10.8,24.08-24.08,24.08s-24.08-10.8-24.08-24.08c0-1.04-.85-1.89-1.89-1.89s-1.89.85-1.89,1.89c0,15.36,12.5,27.86,27.86,27.86s27.86-12.5,27.86-27.86v-19.84c0-1.04-.85-1.89-1.89-1.89Z"/>
  <path class="cls-1" d="M68.7,73.67v-19.84c0-8.2-6.67-14.87-14.87-14.87s-14.87,6.67-14.87,14.87v19.84c0,1.04.85,1.89,1.89,1.89s1.89-.85,1.89-1.89v-19.84c0-6.12,4.98-11.1,11.1-11.1s11.1,4.98,11.1,11.1v19.84c0,1.04.85,1.89,1.89,1.89s1.89-.85,1.89-1.89Z"/>
  <path class="cls-1" d="M43.1,82.51c-1.04,0-1.89.85-1.89,1.89s.85,1.89,1.89,1.89c4.53,0,8.5-2.41,10.72-6.01,2.22,3.6,6.19,6.01,10.72,6.01,1.04,0,1.89-.85,1.89-1.89s-.85-1.89-1.89-1.89c-4.87,0-8.84-3.96-8.84-8.84,0-1.04-.85-1.89-1.89-1.89s-1.89.85-1.89,1.89c0,4.87-3.96,8.84-8.83,8.84Z"/>
  <path class="cls-1" d="M135.44,47.45c-24.57,0-44.55,19.99-44.55,44.55v86.11c0,1.04.85,1.89,1.89,1.89s1.89-.85,1.89-1.89v-86.11c0-11.7,4.96-22.26,12.89-29.71v40.35c0,.05,0,.1,0,.16.19,15.19,12.67,27.53,27.88,27.53s27.7-12.35,27.88-27.55c0-.04,0-.09,0-.13v-40.35c7.92,7.44,12.89,18,12.89,29.71v86.11c0,1.04.85,1.89,1.89,1.89s1.89-.85,1.89-1.89v-86.11c0-24.57-19.99-44.55-44.55-44.55ZM159.56,102.54s0,.06,0,.1c-.1,13.19-10.92,23.92-24.11,23.92s-24.01-10.73-24.11-23.91c0-.05,0-.09,0-.14v-43.37c6.76-4.97,15.1-7.92,24.11-7.92s17.36,2.95,24.12,7.92v43.39Z"/>
  <path class="cls-1" d="M124.54,103.64c.34.65,1,1.02,1.68,1.02.29,0,.59-.07.86-.21,2.62-1.35,5.43-2.03,8.37-2.03s5.75.68,8.37,2.03c.93.48,2.07.11,2.54-.81.48-.93.11-2.07-.81-2.54-3.16-1.63-6.56-2.45-10.1-2.45s-6.94.83-10.1,2.45c-.93.48-1.29,1.62-.81,2.54Z"/>
  <path class="cls-1" d="M145.19,161.09h-19.49c-1.04,0-1.89.85-1.89,1.89s.85,1.89,1.89,1.89h19.49c1.04,0,1.89-.85,1.89-1.89s-.85-1.89-1.89-1.89Z"/>
  <path class="cls-1" d="M77.94,154.98H3.78v-15.88c0-1.04-.85-1.89-1.89-1.89S0,138.06,0,139.11v17.76c0,1.04.85,1.89,1.89,1.89h76.06c1.04,0,1.89-.85,1.89-1.89s-.85-1.89-1.89-1.89Z"/>
</svg>