<?xml version="1.0" encoding="UTF-8"?>
<svg id="Digital_Security_Malware" data-name="Digital Security &amp;amp; Malware" xmlns="http://www.w3.org/2000/svg" viewBox="0 0 180 180">
  <defs>
    <style>
      .cls-1 {
        stroke: #000;
        stroke-miterlimit: 10;
        stroke-width: 2px;
      }
    </style>
  </defs>
  <path class="cls-1" d="M177.86,6.94H2.14c-1.18,0-2.14.96-2.14,2.14v96.07c0,1.18.96,2.14,2.14,2.14s2.14-.96,2.14-2.14v-13.01h7.22c1.18,0,2.14-.96,2.14-2.14s-.96-2.14-2.14-2.14h-7.22v-36.19h83.59v36.19h-3.16c-1.18,0-2.14.96-2.14,2.14s.96,2.14,2.14,2.14h47.09v36.19h-29.13c-1.18,0-2.14.96-2.14,2.14s.96,2.14,2.14,2.14h73.06v36.19h-81.87c-1.18,0-2.14.96-2.14,2.14s.96,2.14,2.14,2.14h84.01c1.18,0,2.14-.96,2.14-2.14V9.07c0-1.18-.96-2.14-2.14-2.14ZM48.21,11.21h83.59v36.19H48.21V11.21ZM175.73,51.67v36.19h-83.59v-36.19h83.59ZM175.73,92.14v36.19h-39.66v-36.19h39.66ZM175.73,47.4h-39.66V11.21h39.66v36.19ZM4.27,11.21h39.66v36.19H4.27V11.21Z"/>
  <path class="cls-1" d="M71.45,91.73c-.59-.7-1.55-.95-2.41-.63-.85.33-1.4,1.16-1.37,2.08.25,6.69-2.76,17.03-5.32,23.89-1.6-40.25-28.19-54.02-29.39-54.62-.67-.33-1.46-.3-2.09.1-.63.4-1.01,1.09-1,1.84.21,18.99-8.78,32.79-16.72,44.96-11.86,18.19-23.06,35.36,1.75,63,.41.45.98.71,1.59.71h56.3c.36,0,.72-.09,1.04-.27,9.79-5.43,15.72-13.4,17.63-23.68,4.02-21.59-10.69-46.23-20.02-57.39ZM87.27,148.34c-1.64,8.8-6.69,15.68-15.03,20.45H17.46c-21.81-24.76-12.49-39.05-.72-57.1,7.74-11.87,16.44-25.22,17.34-43.51,7.34,5.19,25.38,21.59,24,56.59-.02.48-.08,1.96,1.19,2.72.73.44,1.63.43,2.39-.02,2.69-1.6,8.41-17.29,9.93-28.61,10.09,13.84,18.59,33.8,15.68,49.48Z"/>
</svg>