<?xml version="1.0" encoding="UTF-8"?>
<svg id="Digital_Security_Malware" data-name="Digital Security &amp;amp; Malware" xmlns="http://www.w3.org/2000/svg" viewBox="0 0 180 180">
  <defs>
    <style>
      .cls-1 {
        stroke: #000;
        stroke-miterlimit: 10;
        stroke-width: 2px;
      }
    </style>
  </defs>
  <path class="cls-1" d="M9.17,157.56c-2.24,0-4.06,1.82-4.06,4.06s1.82,4.06,4.06,4.06,4.06-1.82,4.06-4.06-1.82-4.06-4.06-4.06Z"/>
  <path class="cls-1" d="M29.74,157.56c-2.24,0-4.06,1.82-4.06,4.06s1.82,4.06,4.06,4.06,4.06-1.82,4.06-4.06-1.82-4.06-4.06-4.06Z"/>
  <path class="cls-1" d="M50.32,157.56c-2.24,0-4.06,1.82-4.06,4.06s1.82,4.06,4.06,4.06,4.06-1.82,4.06-4.06-1.82-4.06-4.06-4.06Z"/>
  <path class="cls-1" d="M129.68,157.56c-2.24,0-4.06,1.82-4.06,4.06s1.82,4.06,4.06,4.06,4.06-1.82,4.06-4.06-1.82-4.06-4.06-4.06Z"/>
  <path class="cls-1" d="M150.26,157.56c-2.24,0-4.06,1.82-4.06,4.06s1.82,4.06,4.06,4.06,4.06-1.82,4.06-4.06-1.82-4.06-4.06-4.06Z"/>
  <path class="cls-1" d="M170.83,157.56c-2.24,0-4.06,1.82-4.06,4.06s1.82,4.06,4.06,4.06,4.06-1.82,4.06-4.06-1.82-4.06-4.06-4.06Z"/>
  <path class="cls-1" d="M8.75,87.2c1.06-.07,1.86-.99,1.79-2.04-.11-1.7-.11-2.69,0-4.39.02-.24.07-.35.09-.37.03-.02.21-.11.74-.09,6.88-.06,12.94-4.74,14.72-11.39,1.78-6.65-1.12-13.74-7.12-17.26-.39-.21-.51-.38-.52-.41,0-.02,0-.15.11-.36.76-1.55,4.31-7.69,5.27-9.13.14-.2.24-.27.26-.28.03-.01.24.02.68.29,5.99,3.39,13.57,2.36,18.44-2.51,4.87-4.87,5.9-12.45,2.47-18.51-.23-.38-.25-.58-.25-.62,0-.02.07-.13.28-.26,1.44-.96,7.58-4.51,9.13-5.27.22-.11.34-.11.36-.11.03.01.2.13.45.59,3.49,5.93,10.58,8.84,17.23,7.05,6.65-1.78,11.34-7.83,11.39-14.79-.01-.44.07-.63.09-.66.02-.02.13-.07.37-.09,1.72-.12,8.81-.12,10.54,0,.24.02.35.07.37.09.02.03.11.22.09.74.06,6.88,4.74,12.94,11.4,14.72,6.65,1.78,13.74-1.12,17.26-7.12.21-.39.38-.51.41-.52.02,0,.15,0,.36.11,1.55.76,7.69,4.31,9.13,5.27.2.14.27.24.28.26,0,.04-.02.24-.29.68-3.39,5.99-2.36,13.58,2.51,18.44,4.87,4.87,12.45,5.9,18.51,2.47.38-.23.58-.26.62-.25.02,0,.13.07.26.28.96,1.44,4.51,7.58,5.27,9.13.11.22.11.34.11.36-.01.03-.14.2-.59.45-5.93,3.49-8.83,10.58-7.05,17.23,1.78,6.65,7.84,11.34,14.79,11.39.44,0,.63.07.66.09.02.02.07.13.09.37.11,1.7.11,2.69,0,4.39-.07,1.06.73,1.97,1.79,2.04.04,0,.09,0,.13,0,1,0,1.85-.78,1.92-1.8.12-1.88.12-3.02,0-4.9-.17-2.54-2-4.11-4.63-4.05-5.16-.04-9.7-3.56-11.04-8.54-1.34-4.99.84-10.3,5.22-12.88,2.37-1.27,3.17-3.57,2.05-5.86-.82-1.67-4.49-8.02-5.52-9.57-1.42-2.12-3.81-2.57-6.03-1.2-4.49,2.55-10.18,1.77-13.83-1.88-3.65-3.65-4.43-9.34-1.92-13.77,1.41-2.29.96-4.68-1.16-6.1-1.55-1.04-7.89-4.7-9.57-5.52-2.29-1.13-4.59-.32-5.82,1.98-2.62,4.45-7.93,6.62-12.92,5.29-4.99-1.34-8.5-5.88-8.55-10.96.08-2.69-1.51-4.54-4.05-4.7-1.86-.12-9.19-.12-11.05,0-2.54.17-4.14,2.01-4.05,4.63-.04,5.16-3.56,9.7-8.55,11.04-4.99,1.33-10.3-.84-12.88-5.22-1.27-2.37-3.57-3.17-5.86-2.05-1.67.82-8.02,4.49-9.57,5.52-2.12,1.42-2.57,3.81-1.2,6.03,2.54,4.49,1.77,10.18-1.88,13.83-3.65,3.65-9.34,4.43-13.77,1.92-2.28-1.41-4.68-.96-6.1,1.16-1.04,1.55-4.7,7.89-5.52,9.57-1.13,2.29-.32,4.59,1.98,5.82,4.45,2.62,6.62,7.93,5.29,12.92-1.34,4.99-5.88,8.5-10.96,8.55-2.65-.08-4.53,1.51-4.7,4.05-.12,1.88-.12,3.02,0,4.9.07,1.06.96,1.86,2.04,1.79Z"/>
  <path class="cls-1" d="M65.95,86.04c0,1.06.86,1.92,1.92,1.92s1.92-.86,1.92-1.92c0-11.14,9.07-20.21,20.21-20.21s20.21,9.07,20.21,20.21c0,1.06.86,1.92,1.92,1.92s1.92-.86,1.92-1.92c0-13.26-10.79-24.06-24.06-24.06s-24.05,10.79-24.05,24.06Z"/>
  <path class="cls-1" d="M137.95,86.04c0,1.06.86,1.92,1.92,1.92s1.92-.86,1.92-1.92c0-28.56-23.23-51.79-51.79-51.79s-51.79,23.23-51.79,51.79c0,1.06.86,1.92,1.92,1.92s1.92-.86,1.92-1.92c0-26.44,21.51-47.95,47.95-47.95s47.95,21.51,47.95,47.95Z"/>
  <path class="cls-1" d="M167.51,97.99H12.49C5.61,97.99,0,103.59,0,110.48s5.6,12.49,12.49,12.49h155.01c6.89,0,12.49-5.6,12.49-12.49s-5.6-12.49-12.49-12.49ZM39.8,101.83h13.53v17.29h-13.53v-17.29ZM35.95,119.12h-13.53v-17.29h13.53v17.29ZM57.17,101.83h13.53v17.29h-13.53v-17.29ZM74.55,101.83h13.53v17.29h-13.53v-17.29ZM91.92,101.83h13.53v17.29h-13.53v-17.29ZM109.3,101.83h13.53v17.29h-13.53v-17.29ZM126.67,101.83h13.53v17.29h-13.53v-17.29ZM144.05,101.83h13.53v17.29h-13.53v-17.29ZM3.85,110.48c0-4.77,3.88-8.65,8.65-8.65h6.08v17.29h-6.08c-4.77,0-8.65-3.88-8.65-8.65ZM167.51,119.12h-6.08v-17.29h6.08c4.77,0,8.65,3.88,8.65,8.65s-3.88,8.65-8.65,8.65Z"/>
  <path class="cls-1" d="M111.69,143.37c-.88-.59-2.07-.36-2.67.51l-19.02,28.12-19.02-28.12c-.59-.88-1.79-1.11-2.67-.51-.88.59-1.11,1.79-.51,2.67l20.61,30.47c.36.53.95.85,1.59.85s1.23-.32,1.59-.85l20.61-30.47c.59-.88.36-2.07-.51-2.67Z"/>
</svg>