<?xml version="1.0" encoding="UTF-8"?>
<svg id="Digital_Security_Malware" data-name="Digital Security &amp;amp; Malware" xmlns="http://www.w3.org/2000/svg" viewBox="0 0 180 180">
  <defs>
    <style>
      .cls-1 {
        stroke: #000;
        stroke-miterlimit: 10;
        stroke-width: 2px;
      }
    </style>
  </defs>
  <path class="cls-1" d="M100.86,141.6h-21.72c-1.01,0-1.83.82-1.83,1.83s.82,1.83,1.83,1.83h21.72c1.01,0,1.83-.82,1.83-1.83s-.82-1.83-1.83-1.83Z"/>
  <path class="cls-1" d="M179.93,57.23c-.16-.56-.58-1.01-1.12-1.22l-38.67-14.34-4.16-19.45c-1.91-10.73-8.68-17.39-17.69-17.39-.09,0-.18,0-.27.02l-27.62,4.09-28.43-4.09c-.09-.01-.17-.02-.26-.02-9,0-15.78,6.66-17.67,17.33l-4.18,19.52L1.19,56.01c-.55.2-.97.66-1.12,1.22s-.04,1.17.32,1.63c.55.7,8.59,10.62,28.39,18.72-.27.75-.43,1.54-.43,2.37,0,.11,0,.21.03.32l5.21,29.78c.46,2.62,2.32,5.3,4.99,6.52,3.75,33.12,25.37,58.62,51.43,58.62s47.68-25.49,51.43-58.62c2.66-1.22,4.53-3.9,4.99-6.52l5.21-29.78c.02-.1.03-.21.03-.32,0-.83-.16-1.62-.43-2.37,19.8-8.1,27.84-18.02,28.39-18.72.36-.46.48-1.06.32-1.63ZM61.58,8.48l28.55,4.11c.17.03.39.03.56,0l27.73-4.11c8.41.08,12.72,7.46,13.96,14.44l4.08,19.08c-4.07,1.78-18.6,7.15-46.06,7.15s-42.64-5.39-46.87-7.17l2.38-11.12c7.31,2.52,23.43,5.66,44.49,5.66,1.01,0,1.83-.82,1.83-1.83s-.82-1.83-1.83-1.83c-21.17,0-37.04-3.17-43.72-5.6l.94-4.4c1.23-6.91,5.54-14.3,13.96-14.37ZM90,171.52c-23.91,0-43.8-23.52-47.66-54.28h30.84c4.35,0,7.21-2.55,8.04-7.12,0-.03.68-3.13,1.89-7.75.81-3.08,2.87-4.4,6.9-4.4s6.09,1.31,6.9,4.4c1.2,4.6,1.88,7.69,1.88,7.69h0c.84,4.63,3.7,7.18,8.05,7.18h30.83c-3.86,30.77-23.76,54.28-47.66,54.28ZM147.99,79.8l-5.18,29.6c-.29,1.68-1.91,4.17-4.45,4.17h-31.53c-2.59,0-3.92-1.25-4.47-4.24-.03-.13-.7-3.19-1.93-7.9-1.24-4.73-4.75-7.13-10.44-7.13s-9.2,2.4-10.44,7.13c-1.23,4.7-1.9,7.77-1.94,7.96-.53,2.93-1.86,4.18-4.45,4.18h-31.53c-2.54,0-4.16-2.49-4.45-4.17l-5.18-29.6c.01-.31.08-.61.18-.9,13.77,5.13,32.64,9.23,57.81,9.23s44.04-4.1,57.81-9.23c.09.29.17.58.18.9ZM90,84.47c-54.06,0-78.54-19.72-84.95-25.99l36.3-13.46c3.48,1.59,18.94,7.79,49.06,7.79s44.83-6.14,48.26-7.78l36.28,13.45c-6.42,6.27-30.9,25.99-84.95,25.99Z"/>
</svg>