<?xml version="1.0" encoding="UTF-8"?>
<svg id="Digital_Security_Malware" data-name="Digital Security &amp;amp; Malware" xmlns="http://www.w3.org/2000/svg" viewBox="0 0 180 180">
  <defs>
    <style>
      .cls-1 {
        stroke: #000;
        stroke-miterlimit: 10;
        stroke-width: 2px;
      }
    </style>
  </defs>
  <path class="cls-1" d="M179.15,125.4c-.62-.87-1.82-1.08-2.69-.46l-8.03,5.69h-8.73c-.24-5.94-1.57-11.53-3.74-16.44l12.28-9.51c.34-.26.58-.63.69-1.05l3.15-12.23c.27-1.03-.35-2.09-1.39-2.35-1.03-.27-2.09.35-2.36,1.39l-2.99,11.59-11.16,8.64c-2.6-4.61-5.99-8.45-9.92-11.21,1-2.08,1.57-4.41,1.57-6.87,0-8.84-7.2-16.04-16.04-16.04s-16.04,7.2-16.04,16.04c0,2.46.57,4.79,1.57,6.87-3.94,2.76-7.33,6.6-9.92,11.21l-11.16-8.64-2.99-11.59c-.27-1.03-1.32-1.65-2.36-1.39-1.03.27-1.66,1.32-1.39,2.35l3.15,12.23c.11.42.35.78.69,1.05l12.28,9.51c-2.17,4.92-3.5,10.5-3.74,16.44h-8.73l-8.03-5.69c-.87-.62-2.08-.41-2.69.46-.62.87-.41,2.08.46,2.69l8.53,6.04c.33.23.72.36,1.12.36h9.34c.19,4.79,1.1,9.34,2.58,13.5l-11.91,5.84c-.49.24-.85.68-1.01,1.2l-6.49,22.49c-.3,1.03.3,2.1,1.32,2.39.18.05.36.08.54.08.84,0,1.61-.55,1.86-1.4l6.25-21.67,10.91-5.35c5.2,11.22,14.83,18.77,25.85,18.77s20.65-7.56,25.85-18.77l10.91,5.35,6.25,21.67c.24.85,1.02,1.4,1.86,1.4.18,0,.36-.02.54-.08,1.03-.3,1.62-1.37,1.32-2.39l-6.49-22.49c-.15-.52-.52-.96-1.01-1.2l-11.91-5.84c1.48-4.16,2.39-8.71,2.58-13.5h9.34c.4,0,.79-.12,1.12-.36l8.53-6.04c.87-.62,1.08-1.82.46-2.69ZM117.63,92.58c0-6.71,5.46-12.17,12.17-12.17s12.17,5.46,12.17,12.17c0,1.74-.37,3.38-1.03,4.88-3.45-1.75-7.2-2.73-11.14-2.73s-7.69.97-11.14,2.73c-.66-1.49-1.03-3.14-1.03-4.88ZM129.8,166.49c-14.37,0-26.07-15.23-26.07-33.95s10.66-32.55,24.14-33.85v37c0,1.07.87,1.93,1.93,1.93s1.93-.87,1.93-1.93v-37c13.47,1.29,24.14,15.97,24.14,33.85s-11.69,33.95-26.07,33.95Z"/>
  <path class="cls-1" d="M85.49,42.5C85.49,19.06,66.43,0,42.99,0S.5,19.06.5,42.5s18.03,41.43,40.56,42.45v14.37l-11.84,13.46c-.31.35-.48.81-.48,1.28v51.58c0,7.86,6.39,14.25,14.25,14.25s14.25-6.39,14.25-14.25v-51.58c0-.47-.17-.92-.48-1.28l-11.84-13.46v-14.37c22.54-1.01,40.56-19.66,40.56-42.45ZM4.36,42.5C4.36,21.2,21.69,3.87,42.99,3.87s38.63,17.33,38.63,38.63-17.33,38.63-38.63,38.63S4.36,63.8,4.36,42.5ZM53.38,165.63c0,5.73-4.66,10.39-10.39,10.39s-10.39-4.66-10.39-10.39v-50.85l10.39-11.81,10.39,11.81v50.86Z"/>
  <path class="cls-1" d="M44.93,19.54c0-1.07-.87-1.93-1.93-1.93-13.73,0-24.89,11.17-24.89,24.89,0,1.07.87,1.93,1.93,1.93s1.93-.87,1.93-1.93c0-11.59,9.43-21.03,21.03-21.03,1.07,0,1.93-.87,1.93-1.93Z"/>
  <path class="cls-1" d="M129.8,59.91c2.25,0,4.08-1.83,4.08-4.08s-1.83-4.08-4.08-4.08-4.08,1.83-4.08,4.08,1.83,4.08,4.08,4.08Z"/>
  <path class="cls-1" d="M129.8,39.22c2.25,0,4.08-1.83,4.08-4.08s-1.83-4.08-4.08-4.08-4.08,1.83-4.08,4.08,1.83,4.08,4.08,4.08Z"/>
  <path class="cls-1" d="M129.8,18.52c2.25,0,4.08-1.83,4.08-4.08s-1.83-4.08-4.08-4.08-4.08,1.83-4.08,4.08,1.83,4.08,4.08,4.08Z"/>
</svg>