<?xml version="1.0" encoding="UTF-8"?>
<svg id="Digital_Security_Malware" data-name="Digital Security &amp;amp; Malware" xmlns="http://www.w3.org/2000/svg" viewBox="0 0 180 180">
  <defs>
    <style>
      .cls-1 {
        stroke: #000;
        stroke-miterlimit: 10;
        stroke-width: 2px;
      }
    </style>
  </defs>
  <path class="cls-1" d="M90,98.63c20.47,0,37.11-16.65,37.11-37.11,0-15.35-9.47-29.09-23.7-34.6v-7.25c0-1.03-.84-1.87-1.87-1.87h-9.57c.93-7.91,7.66-14.07,15.81-14.07,1.03,0,1.87-.84,1.87-1.87s-.84-1.87-1.87-1.87c-10.21,0-18.63,7.83-19.57,17.8h-9.78c-1.03,0-1.87.84-1.87,1.87v7.25c-14.23,5.51-23.7,19.25-23.7,34.6,0,20.47,16.65,37.11,37.11,37.11ZM79.06,29.98c.75-.26,1.25-.97,1.25-1.76v-6.68h19.37v6.68c0,.79.5,1.5,1.25,1.76,13.42,4.66,22.44,17.33,22.44,31.54,0,18.41-14.98,33.38-33.38,33.38s-33.38-14.98-33.38-33.38c0-14.21,9.02-26.88,22.44-31.54Z"/>
  <path class="cls-1" d="M166.16,81.21c-1.1-.98-10.58-8.86-28.18-23.42-.79-.66-1.97-.55-2.63.25-.66.79-.55,1.97.25,2.63,16.78,13.88,23.89,19.8,26.63,22.1-6.45,5.43-32.02,26.57-51.19,42.4-10.67-8.81-18.89-15.59-19.86-16.39-.69-.57-1.69-.57-2.37,0-.97.8-9.19,7.58-19.86,16.39-19.17-15.83-44.74-36.97-51.19-42.4,2.74-2.3,9.85-8.23,26.63-22.1.79-.66.91-1.83.25-2.63-.66-.8-1.83-.91-2.63-.25-17.6,14.56-27.08,22.44-28.18,23.42-4.02,3.6-4.48,8.58-4.48,12.02v68.29c0,10.19,8.32,18.48,18.54,18.48h124.2c10.23,0,18.54-8.29,18.54-18.48v-68.29c0-3.44-.46-8.42-4.48-12.02ZM13.09,93.23c0-3.46.63-5.95,2-7.84,6.1,5.14,31.6,26.22,50.94,42.2-18.98,15.68-43.9,36.27-50.57,41.89-1.49-2.3-2.36-5.03-2.36-7.96v-68.29ZM27.9,176.27c-3.88,0-7.4-1.5-10.04-3.94,10.03-8.43,63.46-52.53,72.14-59.7,8.68,7.17,62.11,51.26,72.14,59.7-2.64,2.44-6.17,3.94-10.04,3.94H27.9ZM166.91,161.52c0,2.93-.87,5.66-2.36,7.96-6.68-5.62-31.59-26.21-50.57-41.89,19.34-15.97,44.84-37.06,50.94-42.2,1.36,1.89,2,4.38,2,7.84v68.29Z"/>
  <path class="cls-1" d="M68.02,63.38c1.03,0,1.87-.84,1.87-1.87,0-11.09,9.02-20.11,20.11-20.11,1.03,0,1.87-.84,1.87-1.87s-.84-1.87-1.87-1.87c-13.15,0-23.85,10.7-23.85,23.85,0,1.03.84,1.87,1.87,1.87Z"/>
</svg>