<?xml version="1.0" encoding="UTF-8"?>
<svg id="Digital_Security_Malware" data-name="Digital Security &amp;amp; Malware" xmlns="http://www.w3.org/2000/svg" viewBox="0 0 180 180">
  <defs>
    <style>
      .cls-1 {
        stroke: #000;
        stroke-miterlimit: 10;
        stroke-width: 2px;
      }
    </style>
  </defs>
  <path class="cls-1" d="M25.9,124.51V37.24h10.62c1.07,0,1.93-.87,1.93-1.93s-.87-1.93-1.93-1.93h-12.55c-1.07,0-1.93.87-1.93,1.93v91.14c0,1.07.87,1.93,1.93,1.93h132.08c1.07,0,1.93-.87,1.93-1.93V35.31c0-1.07-.87-1.93-1.93-1.93h-12.55c-1.07,0-1.93.87-1.93,1.93s.87,1.93,1.93,1.93h10.62v87.27H25.9Z"/>
  <path class="cls-1" d="M159.26,18.54h-15.79c-1.07,0-1.93.87-1.93,1.93s.87,1.93,1.93,1.93h15.79c5.34,0,9.68,4.34,9.68,9.68v97.58c0,5.34-4.34,9.68-9.68,9.68H20.74c-5.34,0-9.68-4.34-9.68-9.68V32.09c0-5.34,4.34-9.68,9.68-9.68h15.79c1.07,0,1.93-.87,1.93-1.93s-.87-1.93-1.93-1.93h-15.79c-7.47,0-13.55,6.08-13.55,13.55v97.58c0,7.47,6.08,13.55,13.55,13.55h49.09v10.59l-19.49,11.73c-.58.35-.94.98-.94,1.66v10.88c0,1.07.87,1.93,1.93,1.93h77.34c1.07,0,1.93-.87,1.93-1.93v-10.88c0-.68-.36-1.31-.94-1.66l-19.49-11.73v-10.59h49.09c7.47,0,13.55-6.08,13.55-13.55V32.09c0-7.47-6.08-13.55-13.55-13.55ZM107.24,156.55l19.49,11.73v7.85H53.27v-7.85l19.49-11.73c.58-.35.94-.98.94-1.66v-11.68h32.61v11.68c0,.68.36,1.31.94,1.66Z"/>
  <path class="cls-1" d="M89.7,101.78c.1.02.2.02.3.02s.2,0,.3-.02c.43-.07,42.99-17.33,43.07-42.48.06-17.75,0-38.89,0-39.1,0-1.07-.87-1.93-1.93-1.93-9.01,0-16.34-7.33-16.34-16.34,0-1.07-.87-1.93-1.93-1.93h-46.33c-1.07,0-1.93.87-1.93,1.93,0,9.01-7.33,16.34-16.34,16.34-1.07,0-1.93.86-1.93,1.93,0,.21-.06,21.35,0,39.1.08,25.15,42.64,42.41,43.07,42.48ZM50.49,22.05c9.6-.91,17.27-8.58,18.18-18.18h42.64c.92,9.6,8.58,17.27,18.18,18.18.01,5.53.04,22.55,0,37.24-.06,20.32-34.43,36.26-39.5,38.49-5.08-2.23-39.44-18.16-39.5-38.49-.05-14.69-.02-31.71,0-37.24Z"/>
  <path class="cls-1" d="M89.13,86.51c.27.14.57.21.87.21s.59-.07.87-.21c5.52-2.77,11.37-6.44,16.06-10.05.85-.65,1-1.87.35-2.71-.65-.85-1.87-1-2.71-.35-4.26,3.28-9.52,6.61-14.56,9.22-12.79-6.6-25.73-16.97-25.75-23.37-.03-9.48-.03-19.82-.02-27.19,6.16-3.22,11.23-8.28,14.45-14.44h23.85c1.07,0,1.93-.87,1.93-1.93s-.87-1.93-1.93-1.93h-25.04c-.75,0-1.42.43-1.74,1.1-2.97,6.23-8.04,11.29-14.27,14.26-.67.32-1.1,1-1.1,1.74,0,7.43-.01,18.4.02,28.4.03,10.14,18.82,22.26,28.75,27.25Z"/>
</svg>