<?xml version="1.0" encoding="UTF-8"?>
<svg id="Digital_Security_Malware" data-name="Digital Security &amp;amp; Malware" xmlns="http://www.w3.org/2000/svg" viewBox="0 0 180 180">
  <defs>
    <style>
      .cls-1 {
        stroke: #000;
        stroke-miterlimit: 10;
        stroke-width: 2px;
      }
    </style>
  </defs>
  <path class="cls-1" d="M147.93,130.26c6.5,0,11.79-5.29,11.79-11.79v-16.06c0-1.15-.93-2.08-2.08-2.08s-2.08.93-2.08,2.08v16.06c0,4.21-3.42,7.63-7.63,7.63H32.07c-4.21,0-7.63-3.42-7.63-7.63v-16.06c0-1.15-.93-2.08-2.08-2.08s-2.08.93-2.08,2.08v16.06c0,6.5,5.29,11.79,11.79,11.79h40.59v8.13l-16.08,9.68c-.63.38-1.01,1.05-1.01,1.78v9.1c0,1.15.93,2.08,2.08,2.08h64.68c1.15,0,2.08-.93,2.08-2.08v-9.1c0-.73-.38-1.41-1.01-1.78l-16.08-9.68v-8.13h40.59ZM104.18,141.35l16.08,9.68v5.84h-60.52v-5.84l16.08-9.68c.63-.38,1.01-1.05,1.01-1.78v-9.31h26.34v9.31c0,.73.38,1.41,1.01,1.78Z"/>
  <path class="cls-1" d="M20.28,36.85v19.52c0,1.15.93,2.08,2.08,2.08s2.08-.93,2.08-2.08v-19.52c0-4.21,3.42-7.63,7.63-7.63h115.86c4.21,0,7.63,3.42,7.63,7.63v19.52c0,1.15.93,2.08,2.08,2.08s2.08-.93,2.08-2.08v-19.52c0-6.5-5.29-11.79-11.79-11.79H32.07c-6.5,0-11.79,5.29-11.79,11.79Z"/>
  <path class="cls-1" d="M177.91,0h-20.27c-1.15,0-2.08.93-2.08,2.08s.93,2.08,2.08,2.08h18.19v83.2h-22.92v-18.04c0-1.15-.93-2.08-2.08-2.08s-2.08.93-2.08,2.08v18.04h-16.11v-34.93c0-1.15-.93-2.08-2.08-2.08s-2.08.93-2.08,2.08v34.93h-16.11v-18.04c0-1.15-.93-2.08-2.08-2.08s-2.08.93-2.08,2.08v18.04h-16.11v-34.93c0-1.15-.93-2.08-2.08-2.08s-2.08.93-2.08,2.08v34.93h-16.11v-18.04c0-1.15-.93-2.08-2.08-2.08s-2.08.93-2.08,2.08v18.04h-16.11v-34.93c0-1.15-.93-2.08-2.08-2.08s-2.08.93-2.08,2.08v34.93h-16.11v-18.04c0-1.15-.93-2.08-2.08-2.08s-2.08.93-2.08,2.08v18.04H4.17V4.17h18.19c1.15,0,2.08-.93,2.08-2.08S23.51,0,22.36,0H2.09C.94,0,0,.94,0,2.09v175.83c0,1.15.93,2.08,2.08,2.08h20.27c1.15,0,2.08-.93,2.08-2.08s-.93-2.08-2.08-2.08H4.17v-84.3h171.67v84.3h-18.19c-1.15,0-2.08.93-2.08,2.08s.93,2.08,2.08,2.08h20.27c1.15,0,2.08-.93,2.08-2.08V2.09c0-1.15-.93-2.08-2.08-2.08Z"/>
</svg>