<?xml version="1.0" encoding="UTF-8"?>
<svg id="Digital_Security_Malware" data-name="Digital Security &amp;amp; Malware" xmlns="http://www.w3.org/2000/svg" viewBox="0 0 180 180">
  <defs>
    <style>
      .cls-1 {
        stroke: #000;
        stroke-miterlimit: 10;
        stroke-width: 2px;
      }
    </style>
  </defs>
  <path class="cls-1" d="M179.55,123.14c-.63-.89-1.87-1.1-2.76-.47l-8.02,5.68h-8.67c-.24-5.92-1.57-11.49-3.73-16.39l12.26-9.49c.35-.27.6-.65.71-1.07l3.16-12.23c.27-1.06-.36-2.14-1.42-2.41-1.06-.28-2.14.36-2.41,1.42l-2.99,11.58-11.11,8.6c-2.59-4.58-5.97-8.41-9.89-11.16.99-2.08,1.56-4.41,1.56-6.86,0-8.88-7.22-16.1-16.1-16.1s-16.1,7.22-16.1,16.1c0,2.46.57,4.78,1.56,6.86-3.92,2.75-7.29,6.58-9.89,11.16l-11.11-8.6-2.99-11.58c-.27-1.06-1.35-1.7-2.41-1.42-1.06.27-1.7,1.35-1.42,2.41l3.16,12.23c.11.43.36.8.71,1.07l12.26,9.49c-2.16,4.9-3.49,10.47-3.73,16.39h-8.67l-8.02-5.68c-.89-.63-2.13-.42-2.76.47-.63.89-.42,2.13.47,2.76l8.53,6.05c.33.24.74.36,1.15.36h9.31c.2,4.77,1.1,9.3,2.57,13.44l-11.88,5.82c-.5.25-.88.69-1.03,1.23l-6.49,22.51c-.3,1.05.3,2.15,1.35,2.45.18.05.37.08.55.08.86,0,1.65-.57,1.9-1.43l6.25-21.66,10.85-5.32c5.21,11.22,14.86,18.77,25.89,18.77s20.67-7.55,25.89-18.77l10.85,5.32,6.25,21.66c.25.87,1.04,1.43,1.9,1.43.18,0,.37-.03.55-.08,1.05-.3,1.66-1.4,1.35-2.45l-6.49-22.51c-.15-.54-.53-.98-1.03-1.23l-11.88-5.82c1.47-4.14,2.37-8.67,2.57-13.44h9.31c.41,0,.81-.13,1.15-.36l8.53-6.05c.89-.63,1.1-1.87.47-2.76ZM118.01,90.32c0-6.69,5.44-12.13,12.13-12.13s12.13,5.44,12.13,12.13c0,1.71-.37,3.34-1.01,4.81-3.44-1.74-7.19-2.71-11.12-2.71s-7.68.97-11.12,2.71c-.65-1.48-1.01-3.1-1.01-4.81ZM130.14,164.24c-14.36,0-26.04-15.22-26.04-33.92s10.62-32.49,24.06-33.82v36.97c0,1.09.89,1.98,1.98,1.98s1.98-.89,1.98-1.98v-36.97c13.43,1.32,24.06,15.98,24.06,33.82s-11.68,33.92-26.04,33.92Z"/>
  <path class="cls-1" d="M67.59,155.83c1.09,0,1.98-.89,1.98-1.98s-.89-1.98-1.98-1.98h-17.61c-1.09,0-1.98.89-1.98,1.98s.89,1.98,1.98,1.98h17.61Z"/>
  <path class="cls-1" d="M77.02,135.92H19.98V22.06h32.95l-11.44,19.81c-.55.95-.22,2.16.73,2.71.31.18.65.27.99.27.68,0,1.35-.36,1.72-.99l12.58-21.79h15.76l-30.37,52.6c-.55.95-.22,2.16.73,2.71.31.18.65.27.99.27.68,0,1.35-.36,1.72-.99l31.51-54.58h19.74v55.81c0,1.09.89,1.98,1.98,1.98s1.98-.89,1.98-1.98V20.08c0-1.09-.89-1.98-1.98-1.98H18c-1.09,0-1.98.89-1.98,1.98v117.83c0,1.09.89,1.98,1.98,1.98h59.02c1.09,0,1.98-.89,1.98-1.98s-.89-1.98-1.98-1.98Z"/>
  <path class="cls-1" d="M70.86,169.48H9.59c-3.06,0-5.55-2.49-5.55-5.55V11.67c0-3.06,2.49-5.55,5.55-5.55h98.39c3.06,0,5.55,2.49,5.55,5.55v55.76c0,1.09.89,1.98,1.98,1.98s1.98-.89,1.98-1.98V11.67c0-5.25-4.27-9.51-9.51-9.51H9.59C4.35,2.16.08,6.42.08,11.67v152.26c0,5.24,4.27,9.51,9.51,9.51h61.27c1.09,0,1.98-.89,1.98-1.98s-.89-1.98-1.98-1.98Z"/>
</svg>