<?xml version="1.0" encoding="UTF-8"?>
<svg id="Digital_Security_Malware" data-name="Digital Security &amp;amp; Malware" xmlns="http://www.w3.org/2000/svg" viewBox="0 0 180 180">
  <defs>
    <style>
      .cls-1 {
        stroke: #000;
        stroke-miterlimit: 10;
        stroke-width: 2px;
      }
    </style>
  </defs>
  <path class="cls-1" d="M66.65,144.24c-.45,0-.9-.15-1.27-.46-2.02-1.7-3.99-3.46-5.85-5.25-20.59-19.77-31.03-43.84-31.03-71.56v-13.58c0-.74.42-1.42,1.08-1.76,9.7-4.97,17.27-13.72,20.78-24,.2-.57.64-1.03,1.22-1.23,6.68-2.35,20.01-6.28,34.23-6.28s27.55,3.94,34.23,6.28c.57.2,1.02.65,1.22,1.23,3.51,10.28,11.09,19.02,20.78,24,.66.34,1.08,1.02,1.08,1.76v13.58c0,3.32-.15,6.65-.46,9.89-.1,1.09-1.07,1.89-2.16,1.79-1.09-.1-1.89-1.07-1.79-2.16.29-3.12.44-6.32.44-9.52v-12.39c-9.8-5.37-17.49-14.29-21.32-24.75-6.69-2.28-19-5.75-32.02-5.75s-25.33,3.47-32.02,5.75c-3.83,10.46-11.52,19.38-21.32,24.75v12.39c0,26.59,10.03,49.71,29.81,68.7,1.8,1.73,3.7,3.44,5.66,5.08.84.7.95,1.95.24,2.79-.39.47-.95.71-1.52.71Z"/>
  <path class="cls-1" d="M83.82,179.12c-.28,0-.56-.06-.83-.18-12.46-5.76-74.6-38.23-74.6-111.97v-28.85c0-1.09.89-1.98,1.98-1.98,12.2,0,22.13-9.93,22.13-22.13,0-1.38.55-1.78,5.39-3.84,2.4-1.02,6.33-2.58,11.43-4.18C57.98,3.25,71.35,0,85.81,0s27.83,3.25,36.49,5.98c5.1,1.6,9.03,3.16,11.43,4.18,4.83,2.06,5.39,2.45,5.39,3.84,0,12.2,9.93,22.13,22.13,22.13,1.09,0,1.98.89,1.98,1.98v28.85c0,6.21-.46,12.39-1.36,18.38-.16,1.08-1.17,1.83-2.25,1.66-1.08-.16-1.83-1.17-1.66-2.25.87-5.79,1.32-11.78,1.32-17.79v-26.95c-13.09-.99-23.51-11.67-24.09-24.87-4.67-2.37-25.98-11.19-49.37-11.19s-44.7,8.82-49.37,11.19c-.58,13.2-11,23.88-24.09,24.87v26.95c0,71.32,60.23,102.79,72.3,108.37.99.46,1.43,1.64.97,2.63-.33.72-1.05,1.15-1.8,1.15Z"/>
  <path class="cls-1" d="M126.73,180c-24.75,0-44.88-20.13-44.88-44.88s20.14-44.88,44.88-44.88,44.88,20.13,44.88,44.88-20.13,44.88-44.88,44.88ZM126.73,94.19c-22.57,0-40.92,18.36-40.92,40.92s18.36,40.92,40.92,40.92,40.92-18.36,40.92-40.92-18.36-40.92-40.92-40.92Z"/>
  <path class="cls-1" d="M126.73,155.64c-.66,0-1.27-.32-1.64-.87l-18.66-27.51c-.61-.91-.38-2.14.53-2.75.9-.61,2.14-.38,2.75.53l17.02,25.09,17.02-25.09c.61-.91,1.85-1.14,2.75-.53.91.61,1.14,1.85.53,2.75l-18.66,27.51c-.37.54-.98.87-1.64.87Z"/>
</svg>