<?xml version="1.0" encoding="UTF-8"?>
<svg id="Digital_Security_Malware" data-name="Digital Security &amp;amp; Malware" xmlns="http://www.w3.org/2000/svg" viewBox="0 0 180 180">
  <defs>
    <style>
      .cls-1 {
        stroke: #000;
        stroke-miterlimit: 10;
        stroke-width: 2px;
      }
    </style>
  </defs>
  <path class="cls-1" d="M174.97,49.24c-.39-.99-1.5-1.47-2.49-1.08l-7.9,3.11-9.05-2.65c.47-1.09.88-2.2,1.2-3.32.64-2.22.95-4.41.96-6.52,1.56-.35,3.08-1,4.46-2,5.42-3.93,6.64-11.53,2.71-16.96-3.93-5.42-11.54-6.64-16.96-2.71-1.39,1-2.49,2.25-3.3,3.64-3.09-1-6.5-1.34-10.02-1.01l.3-9.45,5.41-6.54c.68-.82.56-2.03-.26-2.7-.82-.68-2.03-.56-2.7.26l-5.83,7.05c-.27.33-.43.74-.44,1.16l-.34,10.85c-3.59.82-7.2,2.32-10.6,4.51l-3.33-4.59-.07-6.96c-.01-1.05-.87-1.9-1.92-1.9h-.02c-1.06.01-1.91.88-1.9,1.94l.08,7.57c0,.4.13.78.37,1.11l3.69,5.09c-2.44,1.98-4.56,4.23-6.29,6.67l-8.07-4.28c-.48-.25-1.04-.3-1.55-.11l-15.96,5.76c-1,.36-1.51,1.46-1.15,2.46.28.78,1.02,1.27,1.81,1.27.22,0,.44-.04.65-.12l15.15-5.47,7.09,3.76c-.95,1.77-1.72,3.62-2.26,5.5-1.9,6.57-.99,12.87,2.54,17.75,3.53,4.88,9.24,7.7,16.07,7.94.32.01.64.02.96.02,1.65,0,3.32-.15,4.98-.45l1.37,7.9-9.91,12.7c-.65.84-.5,2.04.33,2.7.35.27.77.41,1.18.41.57,0,1.14-.25,1.52-.74l10.44-13.37c.33-.43.47-.98.38-1.51l-1.56-9c2.86-.89,5.66-2.2,8.29-3.9l3.69,5.09c.23.32.56.56.94.69l7.17,2.43c.2.07.41.1.62.1.8,0,1.55-.5,1.82-1.3.34-1-.2-2.09-1.2-2.44l-6.59-2.24-3.33-4.59c3.1-2.5,5.68-5.45,7.61-8.66l10.39,3.05c.18.05.36.08.54.08.24,0,.48-.04.7-.13l8.51-3.35c.99-.39,1.47-1.5,1.08-2.49ZM150.16,20.22c1.47-1.06,3.17-1.58,4.86-1.58,2.57,0,5.11,1.19,6.73,3.43,1.3,1.8,1.83,3.99,1.48,6.18-.35,2.19-1.53,4.11-3.33,5.41-.8.58-1.66.97-2.56,1.23-.51-2.66-1.56-5.15-3.15-7.34-1.61-2.22-3.66-3.97-6-5.26.52-.78,1.17-1.49,1.98-2.07ZM142.36,58.8c-5.28,3.82-11.37,5.83-17.18,5.61-5.62-.2-10.27-2.46-13.1-6.36-2.83-3.9-3.52-9.02-1.96-14.43,1.61-5.57,5.4-10.75,10.68-14.58,5.19-3.76,11.05-5.63,16.38-5.63,5,0,9.54,1.64,12.66,4.9l-21.24,15.39c-.86.62-1.05,1.82-.43,2.68.38.52.96.79,1.56.79.39,0,.78-.12,1.13-.37l21.24-15.39c1.95,3.65,2.29,8.11.94,12.79-1.61,5.58-5.4,10.75-10.68,14.58Z"/>
  <path class="cls-1" d="M6.81,8.11c-1.06,0-1.92.86-1.92,1.92v167.45c0,1.06.86,1.92,1.92,1.92s1.92-.86,1.92-1.92V10.03c0-1.06-.86-1.92-1.92-1.92Z"/>
  <path class="cls-1" d="M39.34,8.11c-1.06,0-1.92.86-1.92,1.92v167.45c0,1.06.86,1.92,1.92,1.92s1.92-.86,1.92-1.92V10.03c0-1.06-.86-1.92-1.92-1.92Z"/>
  <path class="cls-1" d="M29.33,65.26l-8.67-27.32,8.67-27.33c.32-1.01-.24-2.09-1.25-2.41-1.01-.32-2.09.24-2.41,1.25l-8.85,27.91c-.12.38-.12.78,0,1.16l8.67,27.32-8.67,27.33c-.12.38-.12.78,0,1.16l8.67,27.33-8.67,27.33c-.12.38-.12.78,0,1.16l8.85,27.91c.26.82,1.02,1.34,1.83,1.34.19,0,.39-.03.58-.09,1.01-.32,1.57-1.4,1.25-2.41l-8.67-27.33,8.67-27.33c.12-.38.12-.78,0-1.16l-8.67-27.33,8.67-27.33c.12-.38.12-.78,0-1.16Z"/>
  <path class="cls-1" d="M150.03,155.23c.86.62,2.06.42,2.68-.45.62-.86.41-2.06-.45-2.68l-75.97-54.2,32.39-23.11c.86-.62,1.06-1.82.45-2.68-.62-.86-1.82-1.06-2.68-.45l-33.47,23.88-13.38-9.55,37.75-26.93c.86-.62,1.06-1.82.45-2.68-.62-.86-1.82-1.06-2.68-.45,0,0-40.04,28.5-40.03,28.5-.47.36-.77.91-.77,1.52v23.82c0,.62.3,1.2.81,1.56l94.91,67.71c.34.24.73.36,1.11.36.6,0,1.19-.28,1.57-.81.62-.86.41-2.06-.45-2.68L58.15,108.78v-19.1l91.88,65.55Z"/>
  <path class="cls-1" d="M56.23,59.42c1.06,0,1.92-.86,1.92-1.92v-12.23c0-1.06-.86-1.92-1.92-1.92s-1.92.86-1.92,1.92v12.23c0,1.06.86,1.92,1.92,1.92Z"/>
  <path class="cls-1" d="M65.05,60.91c.35.28.77.41,1.19.41.57,0,1.13-.25,1.51-.73l6.31-8.02c.66-.83.51-2.04-.32-2.7-.84-.66-2.04-.51-2.7.32l-6.31,8.02c-.66.83-.51,2.04.32,2.7Z"/>
  <path class="cls-1" d="M56.23,134.46c-1.06,0-1.92.86-1.92,1.92v12.23c0,1.06.86,1.92,1.92,1.92s1.92-.86,1.92-1.92v-12.23c0-1.06-.86-1.92-1.92-1.92Z"/>
  <path class="cls-1" d="M67.75,133.28c-.65-.83-1.86-.98-2.7-.32-.83.66-.98,1.86-.32,2.7l6.31,8.02c.38.48.94.73,1.51.73.42,0,.83-.13,1.19-.41.83-.66.98-1.86.32-2.7l-6.31-8.02Z"/>
</svg>