<?xml version="1.0" encoding="UTF-8"?>
<svg id="Digital_Security_Malware" data-name="Digital Security &amp;amp; Malware" xmlns="http://www.w3.org/2000/svg" viewBox="0 0 180 180">
  <defs>
    <style>
      .cls-1 {
        stroke: #000;
        stroke-miterlimit: 10;
        stroke-width: 2px;
      }
    </style>
  </defs>
  <path class="cls-1" d="M99.18,39.61c1.01,0,1.83-.82,1.83-1.83s-.82-1.83-1.83-1.83H16.44c-1.01,0-1.83.82-1.83,1.83v89.24c0,1.01.82,1.83,1.83,1.83h129.33c1.01,0,1.83-.82,1.83-1.83v-44.66c0-1.01-.82-1.83-1.83-1.83s-1.83.82-1.83,1.83v42.83H18.27V39.61h80.91Z"/>
  <path class="cls-1" d="M160.29,61.2c-1.01,0-1.83.82-1.83,1.83v67.14c0,5.26-4.28,9.54-9.54,9.54H13.28c-5.26,0-9.54-4.28-9.54-9.54V34.62c0-5.26,4.28-9.54,9.54-9.54h97.37c1.01,0,1.83-.82,1.83-1.83s-.82-1.83-1.83-1.83H13.28C6,21.42.08,27.34.08,34.62v95.55c0,7.28,5.92,13.2,13.2,13.2h48.13v10.46l-19.12,11.5c-.55.33-.89.93-.89,1.57v10.65c0,1.01.82,1.83,1.83,1.83h75.73c1.01,0,1.83-.82,1.83-1.83v-10.65c0-.64-.34-1.24-.89-1.57l-19.12-11.51v-10.46h48.13c7.28,0,13.2-5.92,13.2-13.2V63.04c0-1.01-.82-1.83-1.83-1.83ZM98.01,156.45l19.12,11.51v7.78H45.07v-7.78l19.12-11.5c.55-.33.89-.93.89-1.57v-11.5h32.05v11.5c0,.64.34,1.24.89,1.57Z"/>
  <path class="cls-1" d="M178.69,33.02l-23.11-8.09-8.09-23.11c-.26-.73-.95-1.23-1.73-1.23s-1.47.49-1.73,1.23l-8.09,23.11-23.11,8.09c-.73.26-1.23.95-1.23,1.73s.49,1.47,1.23,1.73l23.11,8.09,8.09,23.1c.26.74.95,1.23,1.73,1.23s1.47-.49,1.73-1.23l8.09-23.1,23.1-8.09c.74-.26,1.23-.95,1.23-1.73s-.49-1.47-1.23-1.73ZM153.54,41.41c-.53.18-.94.6-1.12,1.12l-6.65,19-6.65-19c-.18-.53-.6-.94-1.12-1.12l-19-6.65,19-6.65c.53-.18.94-.6,1.12-1.12l6.65-19,6.65,19c.18.53.6.94,1.12,1.12l19,6.65-19,6.65Z"/>
  <path class="cls-1" d="M133.52,70.8l-16-5.6-5.6-16c-.26-.74-.95-1.23-1.73-1.23s-1.47.49-1.73,1.23l-5.6,16-16,5.6c-.74.26-1.23.95-1.23,1.73s.49,1.47,1.23,1.73l16,5.6,5.6,16c.26.73.95,1.23,1.73,1.23s1.47-.49,1.73-1.23l5.6-16,16-5.6c.73-.26,1.23-.95,1.23-1.73s-.49-1.47-1.23-1.73ZM115.48,76.69c-.53.18-.94.6-1.12,1.12l-4.16,11.89-4.16-11.89c-.18-.53-.6-.94-1.12-1.12l-11.89-4.17,11.89-4.16c.53-.18.94-.6,1.12-1.12l4.16-11.89,4.16,11.89c.18.53.6.94,1.12,1.12l11.89,4.16-11.89,4.17Z"/>
</svg>