<?xml version="1.0" encoding="UTF-8"?>
<svg id="Digital_Security_Malware" data-name="Digital Security &amp;amp; Malware" xmlns="http://www.w3.org/2000/svg" viewBox="0 0 180 180">
  <defs>
    <style>
      .cls-1 {
        stroke: #000;
        stroke-miterlimit: 10;
        stroke-width: 2px;
      }
    </style>
  </defs>
  <path class="cls-1" d="M173.4,1.18c-.37-.37-.87-.58-1.39-.58h-43.8c-.64,0-1.24.31-1.61.84l-17.61,25.08H41.98c-1.09,0-1.97.88-1.97,1.97v77.95c0,8.28-6.74,15.02-15.02,15.02s-15.02-6.74-15.02-15.02V4.54h96.82c1.09,0,1.97-.88,1.97-1.97s-.88-1.97-1.97-1.97H8c-1.09,0-1.97.88-1.97,1.97v103.87c0,10.46,8.51,18.96,18.96,18.96h24.58c1.09,0,1.97-.88,1.97-1.97s-.88-1.97-1.97-1.97h-13.02c4.5-3.47,7.41-8.91,7.41-15.02V30.47h66.05c.64,0,1.24-.31,1.61-.84l17.61-25.08h40.81v101.9c0,7.04-4.99,13.22-11.87,14.69-1.06.23-1.74,1.27-1.52,2.34.23,1.06,1.28,1.74,2.34,1.52,8.68-1.85,14.99-9.65,14.99-18.54V2.57c0-.52-.21-1.02-.58-1.39Z"/>
  <path class="cls-1" d="M146.37,94.21c-9.19,0-16.66-7.47-16.66-16.66,0-1.09-.88-1.97-1.97-1.97h-47.25c-1.09,0-1.97.88-1.97,1.97,0,9.19-7.47,16.66-16.66,16.66-1.09,0-1.97.88-1.97,1.97,0,.22-.06,21.77,0,39.88.08,25.65,43.48,43.25,43.92,43.32.1.02.2.02.31.02s.21,0,.31-.02c.44-.07,43.84-17.67,43.92-43.32.06-18.11,0-39.66,0-39.88,0-1.09-.88-1.97-1.97-1.97ZM144.39,136.04c-.07,20.73-35.11,36.98-40.29,39.25-5.18-2.27-40.22-18.52-40.29-39.25-.05-14.99-.02-32.34,0-37.98,9.79-.93,17.61-8.75,18.54-18.54h43.49c.93,9.79,8.75,17.61,18.54,18.54.01,5.64.04,23,0,37.98Z"/>
  <path class="cls-1" d="M118.96,150.43c-4.34,3.35-9.71,6.74-14.85,9.4-13.05-6.73-26.24-17.31-26.26-23.83-.03-9.65-.03-20.2-.02-27.74,6.28-3.28,11.45-8.44,14.73-14.72h24.32c1.09,0,1.97-.88,1.97-1.97s-.88-1.97-1.97-1.97h-25.54c-.76,0-1.45.44-1.78,1.12-3.03,6.35-8.2,11.52-14.56,14.55-.69.33-1.12,1.02-1.12,1.78,0,7.59-.01,18.78.02,28.97.03,10.34,19.19,22.7,29.32,27.8.28.14.58.21.89.21s.61-.07.89-.21c5.62-2.83,11.59-6.57,16.38-10.25.86-.66,1.02-1.9.36-2.77-.67-.86-1.9-1.02-2.77-.36Z"/>
</svg>