<?xml version="1.0" encoding="UTF-8"?>
<svg id="Digital_Security_Malware" data-name="Digital Security &amp;amp; Malware" xmlns="http://www.w3.org/2000/svg" viewBox="0 0 180 180">
  <defs>
    <style>
      .cls-1 {
        stroke: #000;
        stroke-miterlimit: 10;
        stroke-width: 2px;
      }
    </style>
  </defs>
  <path class="cls-1" d="M170.21,131.26c-4.54-1.65-9.62-.99-13.59,1.77-.31.22-.68.5-1.09.82-2.24,1.72-5.62,4.33-9.25,3-1.21-.44-9.6-3.49-21.13-7.69,11.6-4.22,20.01-7.28,21.13-7.69,3.63-1.33,7.01,1.28,9.25,3,.41.32.78.6,1.09.82,3.97,2.76,9.05,3.42,13.59,1.77,7.71-2.81,11.69-11.36,8.89-19.06-1.37-3.76-4.19-6.79-7.78-8.43,1.69-3.57,1.91-7.69.54-11.46-2.8-7.71-11.36-11.69-19.06-8.89-1.03.37-1.56,1.51-1.18,2.54.37,1.03,1.51,1.56,2.54,1.18,5.66-2.06,11.93.87,13.99,6.52,1.22,3.35.72,7.1-1.34,10.02-.37.53-.46,1.21-.24,1.82.22.61.73,1.07,1.35,1.24,3.46.92,6.25,3.47,7.47,6.82,2.06,5.65-.87,11.93-6.52,13.99-3.33,1.21-7.06.73-9.97-1.3-.27-.19-.58-.43-.94-.7-2.57-1.98-7.34-5.66-13.03-3.58-1.25.46-11.71,4.26-25.56,9.3-1.85-.67-3.76-1.37-5.71-2.08,2.85-1.34,4.03-2.51,4.14-2.63.49-.51.66-1.24.47-1.92-.01-.05-1.17-4.31.94-8.77,3.85,1.62,7.57,1.68,11.06.17,9.9-4.27,14.19-19.81,14.37-20.47.16-.59.04-1.21-.32-1.7l-3.7-4.97c1.01-2.99,3.64-12.16,4.06-27.55.48-17.79-4.32-31.84-14.29-41.76C114.58-.33,91.65-.04,90,0c-1.66-.04-24.58-.33-40.37,15.38-9.97,9.92-14.78,23.97-14.29,41.76.42,15.38,3.05,24.55,4.06,27.55l-3.7,4.97c-.36.49-.48,1.11-.32,1.7.18.66,4.47,16.2,14.37,20.47,3.49,1.51,7.21,1.45,11.06-.17,2.11,4.45.95,8.72.94,8.76-.2.68-.02,1.41.47,1.93.26.27,6.65,6.69,27.79,6.69,7.78,0,13.56-.87,17.78-1.98,19.18,6.98,35.41,12.89,37.14,13.52,5.68,2.08,10.46-1.61,13.02-3.58.36-.27.67-.52.94-.7,2.91-2.03,6.64-2.51,9.97-1.3,5.65,2.06,8.58,8.33,6.52,13.99-1.22,3.35-4.01,5.9-7.47,6.82-.63.17-1.13.63-1.35,1.24-.22.61-.13,1.29.24,1.82,2.06,2.92,2.56,6.67,1.34,10.02-2.06,5.66-8.34,8.58-13.99,6.52-3.33-1.21-5.87-3.98-6.8-7.41-.09-.32-.17-.7-.27-1.14-.7-3.16-1.99-9.06-7.68-11.12-4.69-1.7-100.24-36.48-104.32-37.97-5.68-2.08-10.46,1.61-13.03,3.58-.35.27-.67.52-.94.7-2.92,2.03-6.65,2.51-9.97,1.3-5.65-2.06-8.58-8.33-6.52-13.99,1.22-3.35,4.01-5.9,7.47-6.82.63-.17,1.13-.63,1.35-1.24.22-.61.13-1.29-.24-1.82-2.06-2.92-2.56-6.67-1.34-10.02,2.06-5.65,8.33-8.58,13.99-6.52.41.15.82.33,1.21.52.98.5,2.17.1,2.66-.87.49-.98.1-2.17-.87-2.66-.53-.27-1.09-.51-1.64-.71-7.71-2.81-16.26,1.18-19.06,8.89-1.37,3.76-1.15,7.89.54,11.46-3.59,1.65-6.41,4.67-7.78,8.43-2.8,7.71,1.18,16.26,8.89,19.06,4.54,1.65,9.62.99,13.59-1.77.31-.22.68-.5,1.09-.82,2.24-1.72,5.61-4.33,9.25-3,1.15.42,9.55,3.48,21.13,7.69-11.54,4.2-19.92,7.25-21.13,7.69-3.64,1.33-7.01-1.28-9.25-3-.41-.32-.78-.6-1.09-.82-3.97-2.76-9.05-3.42-13.59-1.77-7.71,2.81-11.69,11.36-8.89,19.06,1.37,3.76,4.19,6.78,7.78,8.43-1.69,3.57-1.91,7.69-.54,11.46,2.2,6.03,7.91,9.79,13.99,9.79,1.68,0,3.4-.29,5.07-.9,4.54-1.65,8.01-5.42,9.27-10.09.1-.37.2-.82.31-1.33.61-2.76,1.52-6.93,5.16-8.25,2.27-.82,24.61-8.95,48.05-17.49,23.48,8.54,45.85,16.69,48.05,17.49,3.64,1.32,4.55,5.49,5.16,8.25.11.51.21.96.31,1.33,1.27,4.67,4.73,8.44,9.27,10.09,1.67.61,3.39.9,5.07.9,6.08,0,11.8-3.75,13.99-9.79,1.37-3.76,1.15-7.89-.54-11.46,3.59-1.65,6.41-4.67,7.78-8.43,2.8-7.71-1.18-16.26-8.89-19.06ZM65.83,120.17c.37-2.34.62-7.32-2.55-12.18-.56-.86-1.69-1.15-2.6-.66-3.41,1.83-6.47,2.11-9.37.87-6.94-2.99-10.83-13.77-11.85-16.97l3.74-5.02c.41-.55.51-1.28.25-1.92-.04-.09-3.67-9.34-4.16-27.24-.45-16.64,3.96-29.7,13.1-38.82C67.2,3.46,89.71,3.96,89.94,3.97c.04,0,.08,0,.12,0,.22,0,22.73-.51,37.54,14.25,9.15,9.12,13.56,22.18,13.1,38.82-.49,17.9-4.12,27.15-4.16,27.24-.26.64-.17,1.37.25,1.93l3.74,5.02c-1.02,3.2-4.9,13.98-11.85,16.97-2.9,1.25-5.96.96-9.37-.87-.9-.49-2.03-.2-2.6.66-3.17,4.86-2.91,9.84-2.55,12.18-2.11,1.42-8.86,4.9-24.17,4.9s-22.08-3.49-24.17-4.89ZM40.59,155.71c-5.69,2.06-6.98,7.95-7.68,11.12-.1.44-.18.82-.27,1.14-.93,3.43-3.47,6.2-6.8,7.41-5.66,2.06-11.93-.87-13.99-6.52-1.22-3.35-.72-7.1,1.34-10.02.37-.53.46-1.21.24-1.82-.22-.61-.73-1.07-1.35-1.24-3.46-.92-6.25-3.47-7.47-6.82-2.06-5.65.87-11.93,6.52-13.99,3.33-1.21,7.06-.73,9.97,1.3.27.19.58.43.94.7,2.57,1.98,7.34,5.66,13.02,3.58,1.35-.49,11.78-4.29,25.56-9.31,7.27,2.65,15.39,5.6,23.57,8.58-21.75,7.92-41.49,15.1-43.62,15.87Z"/>
  <path class="cls-1" d="M91.74,91.24c-.35-.63-1.01-1.03-1.74-1.03s-1.39.39-1.74,1.03l-7.63,13.9c-.27.5-.32,1.09-.13,1.63.09.25,2.31,6.17,9.42,6.43.02,0,.05,0,.07,0s.05,0,.07,0c7.11-.25,9.33-6.18,9.42-6.43.19-.54.15-1.13-.13-1.63l-7.63-13.9ZM90,109.23c-3.15-.14-4.74-2.03-5.4-3.09l5.4-9.83,5.4,9.83c-.65,1.07-2.24,2.95-5.4,3.09Z"/>
  <path class="cls-1" d="M80.03,75.91c-3.95-6.53-13.54-7.99-21.38-3.26-3.73,2.26-6.54,5.58-7.9,9.35-1.41,3.92-1.12,7.86.84,11.09,1.92,3.18,4.55,4.28,7.31,4.28,4.49,0,9.32-2.92,11.96-4.51,4.37-2.64,7.05-4.83,8.69-7.12,2.28-3.17,2.45-6.57.47-9.83ZM76.34,83.43c-1.3,1.81-3.69,3.73-7.53,6.04-8.99,5.43-12.03,4.56-13.83,1.57-1.32-2.19-1.5-4.93-.5-7.7,1.05-2.92,3.26-5.51,6.22-7.3,2.49-1.5,5.18-2.23,7.68-2.23,3.5,0,6.62,1.43,8.26,4.15h0c1.17,1.93,1.08,3.57-.29,5.47Z"/>
  <path class="cls-1" d="M128.41,93.09c1.95-3.23,2.25-7.17.84-11.09-1.36-3.77-4.16-7.09-7.9-9.35-7.84-4.74-17.43-3.28-21.38,3.26h0c-1.97,3.27-1.81,6.67.47,9.83,1.65,2.28,4.33,4.48,8.69,7.12,2.64,1.59,7.47,4.51,11.96,4.51,2.76,0,5.39-1.1,7.31-4.28ZM111.19,89.47c-3.84-2.32-6.23-4.24-7.53-6.04-1.37-1.9-1.46-3.54-.29-5.47h0c1.64-2.72,4.76-4.15,8.26-4.15,2.5,0,5.19.73,7.68,2.23,2.96,1.79,5.17,4.38,6.22,7.3,1,2.77.82,5.51-.5,7.7-1.8,2.98-4.84,3.86-13.83-1.57Z"/>
</svg>