<?xml version="1.0" encoding="UTF-8"?>
<svg id="Digital_Security_Malware" data-name="Digital Security &amp;amp; Malware" xmlns="http://www.w3.org/2000/svg" viewBox="0 0 180 180">
  <defs>
    <style>
      .cls-1 {
        stroke: #000;
        stroke-miterlimit: 10;
        stroke-width: 2px;
      }
    </style>
  </defs>
  <path class="cls-1" d="M162.61,46.74c0-5.38-3.88-9.87-9-10.83v-2.14c0-9.98-6.76-12.01-9.64-12.87h-.03c-10.69-3.22-21.64-5.46-32.74-6.72V2.02c0-1.12-.91-2.02-2.02-2.02h-38.35c-1.12,0-2.02.91-2.02,2.02v12.16c-11.1,1.26-22.07,3.5-32.77,6.72-2.89.87-9.64,2.9-9.64,12.87v2.14c-5.11.95-9,5.44-9,10.83s3.88,9.87,9,10.83v109.24c0,7.27,6.07,13.19,13.52,13.19h100.18c7.46,0,13.52-5.92,13.52-13.19V57.57c5.11-.95,9-5.44,9-10.83ZM72.85,4.05h34.3v9.72c-5.69-.52-11.41-.78-17.15-.78s-11.46.26-17.15.78V4.05ZM30.43,33.78c0-6.97,4.07-8.19,6.79-9.01,17.06-5.13,34.82-7.73,52.78-7.73s35.71,2.6,52.78,7.73c0,0,.03,0,.03,0,2.69.81,6.76,2.03,6.76,9v1.95H30.43v-1.95ZM149.57,166.81c0,5.04-4.25,9.14-9.47,9.14H39.91c-5.22,0-9.47-4.1-9.47-9.14V57.76h119.13v109.05ZM151.59,53.71H28.41c-3.84,0-6.97-3.13-6.97-6.97s3.13-6.97,6.97-6.97h123.18c3.84,0,6.97,3.13,6.97,6.97s-3.13,6.97-6.97,6.97Z"/>
  <path class="cls-1" d="M47.05,157.18c1.12,0,2.02-.91,2.02-2.02v-78.66c0-1.12-.91-2.02-2.02-2.02s-2.02.91-2.02,2.02v78.66c0,1.12.91,2.02,2.02,2.02Z"/>
  <path class="cls-1" d="M68.52,157.18c1.12,0,2.02-.91,2.02-2.02v-78.66c0-1.12-.91-2.02-2.02-2.02s-2.02.91-2.02,2.02v78.66c0,1.12.91,2.02,2.02,2.02Z"/>
  <path class="cls-1" d="M90,157.18c1.12,0,2.02-.91,2.02-2.02v-78.66c0-1.12-.91-2.02-2.02-2.02s-2.02.91-2.02,2.02v78.66c0,1.12.91,2.02,2.02,2.02Z"/>
  <path class="cls-1" d="M111.48,157.18c1.12,0,2.02-.91,2.02-2.02v-78.66c0-1.12-.91-2.02-2.02-2.02s-2.02.91-2.02,2.02v78.66c0,1.12.91,2.02,2.02,2.02Z"/>
  <path class="cls-1" d="M132.95,157.18c1.12,0,2.02-.91,2.02-2.02v-78.66c0-1.12-.91-2.02-2.02-2.02s-2.02.91-2.02,2.02v78.66c0,1.12.91,2.02,2.02,2.02Z"/>
</svg>