<?xml version="1.0" encoding="UTF-8"?>
<svg id="Digital_Security_Malware" data-name="Digital Security &amp;amp; Malware" xmlns="http://www.w3.org/2000/svg" viewBox="0 0 180 180">
  <defs>
    <style>
      .cls-1 {
        stroke: #000;
        stroke-miterlimit: 10;
        stroke-width: 2px;
      }
    </style>
  </defs>
  <path class="cls-1" d="M145.44,14.77c-1.09,0-1.97.88-1.97,1.97v6.94c0,1.09.88,1.97,1.97,1.97s1.97-.88,1.97-1.97v-6.94c0-1.09-.88-1.97-1.97-1.97Z"/>
  <path class="cls-1" d="M116.66,14.77c-1.09,0-1.97.88-1.97,1.97v6.94c0,1.09.88,1.97,1.97,1.97s1.97-.88,1.97-1.97v-6.94c0-1.09-.88-1.97-1.97-1.97Z"/>
  <path class="cls-1" d="M133.02,116.22v-51.77c0-1.09-.88-1.97-1.97-1.97s-1.97.88-1.97,1.97v51.77c0,1.09.88,1.97,1.97,1.97s1.97-.88,1.97-1.97Z"/>
  <path class="cls-1" d="M158.82,160.39v-16.14c0-1.58-1.28-2.86-2.86-2.86h-44.83c-1.09,0-1.97.88-1.97,1.97s.88,1.97,1.97,1.97h43.76v14h-33.41c-1.09,0-1.97.88-1.97,1.97s.88,1.97,1.97,1.97h34.48c1.58,0,2.86-1.29,2.86-2.86Z"/>
  <path class="cls-1" d="M173.07,35.88h-7.44V2.57c0-1.09-.88-1.97-1.97-1.97h-65.22c-1.09,0-1.97.88-1.97,1.97v33.31h-7.44c-1.09,0-1.97.88-1.97,1.97v67.24c0,1.09.88,1.97,1.97,1.97s1.97-.88,1.97-1.97V39.81h80.1v121.46c0,7.83-6.37,14.2-14.2,14.2h-32.77c-1.09,0-1.97.88-1.97,1.97s.88,1.97,1.97,1.97h32.77c10,0,18.13-8.13,18.13-18.13V37.85c0-1.09-.88-1.97-1.97-1.97ZM100.4,35.88V4.53h61.29v31.35h-61.29Z"/>
  <path class="cls-1" d="M66.76,87.06c-1.77-3.06-4.24-4.74-6.97-4.74s-5.2,1.69-6.97,4.74L6.47,167.33c-1.77,3.06-1.99,6.05-.62,8.41,1.36,2.36,4.06,3.66,7.59,3.66h92.69c3.53,0,6.23-1.3,7.59-3.66,1.36-2.36,1.14-5.35-.63-8.41l-46.35-80.28ZM110.32,173.77c-.62,1.08-2.15,1.69-4.19,1.69H13.44c-2.04,0-3.56-.62-4.19-1.69-.62-1.08-.39-2.71.63-4.47l46.35-80.28c1.02-1.76,2.32-2.78,3.56-2.78s2.54,1.01,3.56,2.78l46.35,80.28c1.02,1.77,1.25,3.4.63,4.47Z"/>
  <path class="cls-1" d="M59.79,145.41c1.09,0,1.97-.88,1.97-1.97v-25.71c0-1.09-.88-1.97-1.97-1.97s-1.97.88-1.97,1.97v25.71c0,1.09.88,1.97,1.97,1.97Z"/>
  <path class="cls-1" d="M59.79,154.6c-2.29,0-4.15,1.86-4.15,4.15s1.86,4.15,4.15,4.15,4.15-1.86,4.15-4.15-1.86-4.15-4.15-4.15Z"/>
</svg>