<?xml version="1.0" encoding="UTF-8"?>
<svg id="AI_Data_Science_Systems" data-name="AI, Data Science &amp;amp; Systems" xmlns="http://www.w3.org/2000/svg" viewBox="0 0 180 180">
  <defs>
    <style>
      .cls-1 {
        stroke: #000;
        stroke-miterlimit: 10;
        stroke-width: 2px;
      }
    </style>
  </defs>
  <path class="cls-1" d="M71.72,50.03c-2.29,0-4.16,1.87-4.16,4.16s1.87,4.16,4.16,4.16,4.16-1.87,4.16-4.16-1.87-4.16-4.16-4.16Z"/>
  <path class="cls-1" d="M108.28,50.03c-2.29,0-4.16,1.87-4.16,4.16s1.87,4.16,4.16,4.16,4.16-1.87,4.16-4.16-1.87-4.16-4.16-4.16Z"/>
  <path class="cls-1" d="M154.97,118.7h-44.04v-18.67h18.32c5.52,0,10.01-4.49,10.01-10.01v-56.17c0-5.52-4.49-10.01-10.01-10.01h-21.57l5.06-21.58c.23-.99-.38-1.98-1.37-2.21-.99-.23-1.98.38-2.21,1.37l-5.26,22.42h-27.8l-5.26-22.42c-.23-.99-1.22-1.6-2.21-1.37-.99.23-1.6,1.22-1.37,2.21l5.06,21.58h-21.57c-5.52,0-10.01,4.49-10.01,10.01v56.17c0,5.52,4.49,10.01,10.01,10.01h18.32v18.67H25.03c-7.99,0-14.49,6.5-14.49,14.49v44.97c0,1.02.82,1.84,1.84,1.84s1.84-.82,1.84-1.84v-34.64c2.11,2.72,4.88,4.95,7.63,6.89,6.61,4.66,11.19,7.84,12.95,9.06v18.69c0,1.02.82,1.84,1.84,1.84s1.84-.82,1.84-1.84v-19.66c0-.61-.3-1.17-.8-1.52-.05-.04-5.19-3.57-13.7-9.58-4.82-3.4-9.75-7.75-9.75-14.22,0-5.96,4.85-10.82,10.82-10.82h129.94c5.96,0,10.82,4.85,10.82,10.82,0,6.46-4.93,10.81-9.75,14.22-8.52,6.01-13.65,9.54-13.7,9.58-.5.34-.8.91-.8,1.52v19.66c0,1.02.82,1.84,1.84,1.84s1.84-.82,1.84-1.84v-18.69c1.76-1.21,6.34-4.39,12.95-9.06,2.74-1.94,5.51-4.16,7.63-6.89v34.64c0,1.02.82,1.84,1.84,1.84s1.84-.82,1.84-1.84v-44.97c0-7.99-6.5-14.49-14.49-14.49ZM107.25,118.7h-34.5v-18.67h34.5v18.67ZM50.76,96.35c-3.49,0-6.33-2.84-6.33-6.33v-56.17c0-3.49,2.84-6.33,6.33-6.33h78.49c3.49,0,6.33,2.84,6.33,6.33v56.17c0,3.49-2.84,6.33-6.33,6.33H50.76Z"/>
  <path class="cls-1" d="M121.57,154.71h-63.14c-1.02,0-1.84.82-1.84,1.84v21.61c0,1.02.82,1.84,1.84,1.84h63.14c1.02,0,1.84-.82,1.84-1.84v-21.61c0-1.02-.82-1.84-1.84-1.84ZM119.73,176.32h-59.46v-17.93h59.46v17.93Z"/>
</svg>