<?xml version="1.0" encoding="UTF-8"?>
<svg id="AI_Data_Science_Systems" data-name="AI, Data Science &amp;amp; Systems" xmlns="http://www.w3.org/2000/svg" viewBox="0 0 180 180">
  <defs>
    <style>
      .cls-1 {
        stroke: #000;
        stroke-miterlimit: 10;
        stroke-width: 2px;
      }
    </style>
  </defs>
  <path class="cls-1" d="M119.01,112.15c6.51,0,11.8-5.29,11.8-11.8v-11.78c0-6.51-5.29-11.8-11.8-11.8s-11.8,5.29-11.8,11.8v11.78c0,6.51,5.29,11.8,11.8,11.8ZM111.37,88.57c0-4.21,3.43-7.64,7.64-7.64s7.64,3.43,7.64,7.64v11.78c0,4.21-3.43,7.64-7.64,7.64s-7.64-3.43-7.64-7.64v-11.78Z"/>
  <path class="cls-1" d="M159.27,107.99h-5.1v-29.13c0-.84-.51-1.6-1.28-1.92-.77-.32-1.67-.15-2.27.44l-7.18,7.12c-.82.81-.82,2.13-.01,2.94.81.82,2.13.82,2.94.01l3.63-3.6v24.14h-5.1c-1.15,0-2.08.93-2.08,2.08s.93,2.08,2.08,2.08h14.36c1.15,0,2.08-.93,2.08-2.08s-.93-2.08-2.08-2.08Z"/>
  <path class="cls-1" d="M94.51,107.99h-5.1v-29.13c0-.84-.51-1.6-1.28-1.92-.78-.32-1.67-.15-2.27.44l-7.18,7.12c-.82.81-.82,2.13-.01,2.94.81.82,2.13.82,2.94.01l3.63-3.6v24.14h-5.1c-1.15,0-2.08.93-2.08,2.08s.93,2.08,2.08,2.08h14.36c1.15,0,2.08-.93,2.08-2.08s-.93-2.08-2.08-2.08Z"/>
  <path class="cls-1" d="M149.38,61.78c6.51,0,11.8-5.29,11.8-11.8v-11.78c0-6.51-5.29-11.8-11.8-11.8s-11.8,5.29-11.8,11.8v11.78c0,6.51,5.29,11.8,11.8,11.8ZM141.74,38.2c0-4.21,3.43-7.64,7.64-7.64s7.64,3.43,7.64,7.64v11.78c0,4.21-3.43,7.64-7.64,7.64s-7.64-3.43-7.64-7.64v-11.78Z"/>
  <path class="cls-1" d="M94.58,57.62h-5.1v-29.13c0-.84-.51-1.6-1.28-1.92-.78-.32-1.67-.15-2.27.44l-7.18,7.12c-.82.81-.82,2.13-.01,2.94.81.82,2.13.82,2.94.01l3.63-3.6v24.14h-5.1c-1.15,0-2.08.93-2.08,2.08s.93,2.08,2.08,2.08h14.36c1.15,0,2.08-.93,2.08-2.08s-.93-2.08-2.08-2.08Z"/>
  <path class="cls-1" d="M110.52,57.62c-1.15,0-2.08.93-2.08,2.08s.93,2.08,2.08,2.08h14.36c1.15,0,2.08-.93,2.08-2.08s-.93-2.08-2.08-2.08h-5.1v-29.13c0-.84-.51-1.6-1.28-1.92-.77-.32-1.67-.15-2.27.44l-7.18,7.12c-.82.81-.82,2.13-.01,2.94.81.82,2.13.82,2.94.01l3.63-3.6v24.14h-5.1Z"/>
  <path class="cls-1" d="M90.61,127.14h-10.38c-1.15,0-2.08.93-2.08,2.08s.93,2.08,2.08,2.08h10.38c1.15,0,2.08-.93,2.08-2.08s-.93-2.08-2.08-2.08Z"/>
  <path class="cls-1" d="M156.19,127.14h-48.36c-1.15,0-2.08.93-2.08,2.08s.93,2.08,2.08,2.08h48.36c1.15,0,2.08-.93,2.08-2.08s-.93-2.08-2.08-2.08Z"/>
  <path class="cls-1" d="M90.61,144.25h-10.38c-1.15,0-2.08.93-2.08,2.08s.93,2.08,2.08,2.08h10.38c1.15,0,2.08-.93,2.08-2.08s-.93-2.08-2.08-2.08Z"/>
  <path class="cls-1" d="M156.19,144.25h-48.36c-1.15,0-2.08.93-2.08,2.08s.93,2.08,2.08,2.08h48.36c1.15,0,2.08-.93,2.08-2.08s-.93-2.08-2.08-2.08Z"/>
  <path class="cls-1" d="M164.66,0H41.85C33.4,0,26.51,6.88,26.51,15.34v124.87c0,6.16-5.01,11.17-11.17,11.17s-11.17-5.01-11.17-11.17V4.16h17.11c1.15,0,2.08-.93,2.08-2.08S22.42,0,21.27,0H2.08C.93,0,0,.93,0,2.08v138.13c0,8.46,6.88,15.34,15.34,15.34h26.29c1.15,0,2.08-.93,2.08-2.08s-.93-2.08-2.08-2.08h-15.82c2.99-2.8,4.86-6.77,4.86-11.17V15.34c0-6.16,5.01-11.17,11.18-11.17s11.17,5.01,11.17,11.17v162.58c0,1.15.93,2.08,2.08,2.08h122.81c1.15,0,2.08-.93,2.08-2.08V15.34C180,6.88,173.12,0,164.66,0ZM175.84,175.84H57.19V15.34c0-4.4-1.86-8.38-4.84-11.17h112.31c6.16,0,11.17,5.01,11.17,11.17v160.5Z"/>
</svg>