<?xml version="1.0" encoding="UTF-8"?>
<svg id="AI_Data_Science_Systems" data-name="AI, Data Science &amp;amp; Systems" xmlns="http://www.w3.org/2000/svg" viewBox="0 0 180 180">
  <defs>
    <style>
      .cls-1 {
        stroke: #000;
        stroke-miterlimit: 10;
        stroke-width: 2px;
      }
    </style>
  </defs>
  <path class="cls-1" d="M166.9,67.39c-7.22,0-13.1,5.88-13.1,13.1,0,.42.02.84.06,1.25l-39.85,10.06c-3.04-8.67-11.3-14.9-20.99-14.9-8.12,0-15.23,4.37-19.11,10.88l-48.29-23.15c.37-1.21.57-2.49.57-3.81,0-1.82-.38-3.56-1.05-5.14l37.67-23.36c2.4,2.81,5.97,4.6,9.95,4.6,7.22,0,13.1-5.88,13.1-13.1s-5.88-13.1-13.1-13.1-13.1,5.88-13.1,13.1c0,1.82.38,3.56,1.05,5.14l-37.67,23.36c-2.4-2.81-5.97-4.6-9.95-4.6-7.22,0-13.1,5.88-13.1,13.1s5.88,13.1,13.1,13.1c4.49,0,8.45-2.27,10.81-5.72l48.28,23.15c-.91,2.43-1.41,5.05-1.41,7.79,0,12.26,9.98,22.24,22.24,22.24,2.88,0,5.63-.56,8.16-1.56l18.26,36.4c-3.34,2.38-5.53,6.27-5.53,10.67,0,7.22,5.88,13.1,13.1,13.1s13.1-5.88,13.1-13.1-5.88-13.1-13.1-13.1c-1.41,0-2.76.23-4.03.64l-18.26-36.4c6.32-3.93,10.54-10.93,10.54-18.91,0-1.19-.1-2.36-.28-3.5l39.84-10.06c1.99,4.7,6.65,8.01,12.07,8.01,7.22,0,13.1-5.88,13.1-13.1s-5.88-13.1-13.1-13.1ZM72.76,14.68c5.04,0,9.14,4.1,9.14,9.14s-4.1,9.14-9.14,9.14-9.14-4.1-9.14-9.14,4.1-9.14,9.14-9.14ZM13.1,69.96c-5.04,0-9.14-4.1-9.14-9.14s4.1-9.14,9.14-9.14,9.14,4.1,9.14,9.14-4.1,9.14-9.14,9.14ZM136.16,166.9c0,5.04-4.1,9.14-9.14,9.14s-9.14-4.1-9.14-9.14,4.1-9.14,9.14-9.14,9.14,4.1,9.14,9.14ZM93.03,117.43c-10.08,0-18.28-8.2-18.28-18.28s8.2-18.28,18.28-18.28,18.28,8.2,18.28,18.28-8.2,18.28-18.28,18.28ZM166.9,89.63c-5.04,0-9.14-4.1-9.14-9.14s4.1-9.14,9.14-9.14,9.14,4.1,9.14,9.14-4.1,9.14-9.14,9.14Z"/>
  <path class="cls-1" d="M158.1,129.27c-2.37,0-4.3,1.93-4.3,4.3s1.93,4.3,4.3,4.3,4.3-1.93,4.3-4.3-1.93-4.3-4.3-4.3Z"/>
  <path class="cls-1" d="M115.9,62.8c2.37,0,4.3-1.93,4.3-4.3s-1.93-4.3-4.3-4.3-4.3,1.93-4.3,4.3,1.93,4.3,4.3,4.3Z"/>
  <path class="cls-1" d="M77.76,151.49c-2.37,0-4.3,1.93-4.3,4.3s1.93,4.3,4.3,4.3,4.3-1.93,4.3-4.3-1.93-4.3-4.3-4.3Z"/>
  <path class="cls-1" d="M17.18,19.89c2.37,0,4.3-1.93,4.3-4.3s-1.93-4.3-4.3-4.3-4.3,1.93-4.3,4.3,1.93,4.3,4.3,4.3Z"/>
  <path class="cls-1" d="M30.62,123.05c-7.22,0-13.1,5.88-13.1,13.1s5.88,13.1,13.1,13.1,13.1-5.88,13.1-13.1-5.88-13.1-13.1-13.1ZM30.62,145.28c-5.04,0-9.14-4.1-9.14-9.14s4.1-9.14,9.14-9.14,9.14,4.1,9.14,9.14-4.1,9.14-9.14,9.14Z"/>
  <path class="cls-1" d="M143.99,44.49c12.27,0,22.24-9.98,22.24-22.24S156.25,0,143.99,0s-22.24,9.98-22.24,22.24,9.98,22.24,22.24,22.24ZM143.99,3.96c10.08,0,18.28,8.2,18.28,18.28s-8.2,18.28-18.28,18.28-18.28-8.2-18.28-18.28,8.2-18.28,18.28-18.28Z"/>
</svg>