<?xml version="1.0" encoding="UTF-8"?>
<svg id="AI_Data_Science_Systems" data-name="AI, Data Science &amp;amp; Systems" xmlns="http://www.w3.org/2000/svg" viewBox="0 0 180 180">
  <defs>
    <style>
      .cls-1 {
        stroke: #000;
        stroke-miterlimit: 10;
        stroke-width: 2px;
      }
    </style>
  </defs>
  <path class="cls-1" d="M21.49,170.92h-11.61V14.95l2.26,4.22c.51.96,1.7,1.31,2.66.8.96-.51,1.32-1.7.8-2.66l-5.95-11.13c-.34-.64-1.01-1.04-1.73-1.04s-1.39.4-1.73,1.04L.23,17.32c-.51.96-.15,2.15.8,2.66.29.16.61.23.92.23.7,0,1.38-.38,1.73-1.04l2.26-4.22v157.93c0,1.08.88,1.96,1.96,1.96h13.58c1.08,0,1.96-.88,1.96-1.96s-.88-1.96-1.96-1.96Z"/>
  <path class="cls-1" d="M178.04,170.92h-7.85V43.29c0-1.08-.88-1.96-1.96-1.96h-24.14c-1.08,0-1.96.88-1.96,1.96v127.63h-26.1v-20.02c0-1.08-.88-1.96-1.96-1.96s-1.96.88-1.96,1.96v20.02h-23.7v-15.43c0-1.08-.88-1.96-1.96-1.96s-1.96.88-1.96,1.96v15.43h-9.78c-1.08,0-1.96.88-1.96,1.96s.88,1.96,1.96,1.96h103.35c1.08,0,1.96-.88,1.96-1.96s-.88-1.96-1.96-1.96ZM146.05,45.25h20.21v125.66h-20.21V45.25Z"/>
  <path class="cls-1" d="M92.7,145.64c20.98,0,38.05-17.07,38.05-38.05s-17.07-38.05-38.05-38.05-38.05,17.07-38.05,38.05c0,8.76,2.98,16.82,7.97,23.26l-27.96,40.92c-.61.9-.38,2.12.51,2.73.9.61,2.12.38,2.73-.51l27.37-40.06c3.61,3.75,7.97,6.77,12.84,8.8l-19.84,29.04c-.61.9-.38,2.12.51,2.73.34.23.72.34,1.11.34.63,0,1.24-.3,1.62-.86l20.43-29.9c3.41,1.01,7.01,1.56,10.75,1.56ZM58.58,107.59c0-18.81,15.31-34.12,34.12-34.12s34.12,15.31,34.12,34.12-15.31,34.12-34.12,34.12-34.12-15.31-34.12-34.12Z"/>
  <path class="cls-1" d="M94.66,85.47c0-1.08-.88-1.96-1.96-1.96-13.28,0-24.09,10.81-24.09,24.09,0,1.08.88,1.96,1.96,1.96s1.96-.88,1.96-1.96c0-11.12,9.04-20.16,20.16-20.16,1.08,0,1.96-.88,1.96-1.96Z"/>
  <path class="cls-1" d="M34.67,45.25h20.21v30.01c0,1.08.88,1.96,1.96,1.96s1.96-.88,1.96-1.96v-31.98c0-1.08-.88-1.96-1.96-1.96h-24.14c-1.08,0-1.96.88-1.96,1.96v113.17c0,1.08.88,1.96,1.96,1.96s1.96-.88,1.96-1.96V45.25Z"/>
  <path class="cls-1" d="M88.4,61.45c1.08,0,1.96-.88,1.96-1.96V9.08h20.21v54.48c0,1.08.88,1.96,1.96,1.96s1.96-.88,1.96-1.96V7.12c0-1.08-.88-1.96-1.96-1.96h-24.14c-1.08,0-1.96.88-1.96,1.96v52.36c0,1.08.88,1.96,1.96,1.96Z"/>
</svg>