<?xml version="1.0" encoding="UTF-8"?>
<svg id="AI_Data_Science_Systems" data-name="AI, Data Science &amp;amp; Systems" xmlns="http://www.w3.org/2000/svg" viewBox="0 0 180 180">
  <defs>
    <style>
      .cls-1 {
        stroke: #000;
        stroke-miterlimit: 10;
        stroke-width: 2px;
      }
    </style>
  </defs>
  <path class="cls-1" d="M46.04,83.79c-18.25,0-37.65,5.04-37.65,14.39v67.43c0,9.35,19.4,14.39,37.65,14.39s37.65-5.04,37.65-14.39v-67.43c0-9.35-19.4-14.39-37.65-14.39ZM46.04,87.95c20.75,0,33.49,5.96,33.49,10.23s-12.74,10.23-33.49,10.23-33.49-5.96-33.49-10.23,12.74-10.23,33.49-10.23ZM46.04,175.84c-20.75,0-33.49-5.96-33.49-10.23v-60.57c6.68,4.93,20.38,7.53,33.49,7.53s26.81-2.6,33.49-7.53v60.57c0,4.27-12.74,10.23-33.49,10.23Z"/>
  <path class="cls-1" d="M142.35,0C124.1,0,104.7,5.04,104.7,14.39v151.22c0,9.35,19.4,14.39,37.65,14.39s37.65-5.04,37.65-14.39V14.39C180,5.04,160.6,0,142.35,0ZM175.84,54.33c0,4.27-12.74,10.23-33.49,10.23s-33.49-5.96-33.49-10.23V21.25c6.68,4.93,20.38,7.53,33.49,7.53s26.81-2.6,33.49-7.53v33.08ZM142.35,4.16c20.75,0,33.49,5.96,33.49,10.23s-12.74,10.23-33.49,10.23-33.49-5.96-33.49-10.23,12.74-10.23,33.49-10.23ZM142.35,175.84c-20.75,0-33.49-5.96-33.49-10.23V61.19c6.68,4.93,20.38,7.53,33.49,7.53s26.81-2.6,33.49-7.53v104.42c0,4.27-12.74,10.23-33.49,10.23Z"/>
  <path class="cls-1" d="M90,52.25h-16.97c-1.15,0-2.08.93-2.08,2.08s.93,2.08,2.08,2.08h16.97c1.15,0,2.08-.93,2.08-2.08s-.93-2.08-2.08-2.08Z"/>
  <path class="cls-1" d="M37.55,56.41h16.97c1.15,0,2.08-.93,2.08-2.08s-.93-2.08-2.08-2.08h-16.97c-1.15,0-2.08.93-2.08,2.08s.93,2.08,2.08,2.08Z"/>
  <path class="cls-1" d="M21.14,54.33c0-1.15-.93-2.08-2.08-2.08H2.08c-1.15,0-2.08.93-2.08,2.08s.93,2.08,2.08,2.08h16.97c1.15,0,2.08-.93,2.08-2.08Z"/>
  <path class="cls-1" d="M90,12.31h-16.97c-1.15,0-2.08.93-2.08,2.08s.93,2.08,2.08,2.08h16.97c1.15,0,2.08-.93,2.08-2.08s-.93-2.08-2.08-2.08Z"/>
  <path class="cls-1" d="M37.55,16.47h16.97c1.15,0,2.08-.93,2.08-2.08s-.93-2.08-2.08-2.08h-16.97c-1.15,0-2.08.93-2.08,2.08s.93,2.08,2.08,2.08Z"/>
  <path class="cls-1" d="M2.08,16.47h16.97c1.15,0,2.08-.93,2.08-2.08s-.93-2.08-2.08-2.08H2.08c-1.15,0-2.08.93-2.08,2.08s.93,2.08,2.08,2.08Z"/>
</svg>