<?xml version="1.0" encoding="UTF-8"?>
<svg id="Layer_1" data-name="Layer 1" xmlns="http://www.w3.org/2000/svg" viewBox="0 0 180 180">
  <defs>
    <style>
      .cls-1 {
        stroke-width: 3px;
      }

      .cls-1, .cls-2 {
        stroke: #000;
        stroke-miterlimit: 10;
      }

      .cls-2 {
        stroke-width: 2px;
      }
    </style>
  </defs>
  <g>
    <path class="cls-1" d="M130.13,33.36h-12.75V10.01c0-5.4-4.39-9.8-9.8-9.8h-55.48c-5.4,0-9.8,4.39-9.8,9.8v40.36c0,5.4,4.4,9.8,9.8,9.8h.08l7.17,12.94c.17.3.48.49.83.49s.66-.19.83-.49l7.17-12.94h5.83v16.35c0,4.71,3.83,8.54,8.54,8.54h33.73l6.11,11.03c.17.3.48.49.83.49s.66-.19.83-.49l6.11-11.03c4.7,0,8.53-3.83,8.53-8.54v-34.62c0-4.71-3.83-8.54-8.54-8.54ZM67.61,58.28c-.34,0-.66.19-.83.49l-6.61,11.93-6.61-11.93c-.17-.3-.48-.49-.83-.49h-.64c-4.36,0-7.91-3.55-7.91-7.91V10.01c0-4.36,3.55-7.91,7.91-7.91h55.48c4.36,0,7.91,3.55,7.91,7.91v40.36c0,4.36-3.55,7.91-7.91,7.91h-39.97ZM136.78,76.52c0,3.67-2.98,6.65-6.65,6.65h-.55c-.34,0-.66.19-.83.49l-5.55,10.02-5.55-10.02c-.17-.3-.48-.49-.83-.49h-34.28c-3.67,0-6.65-2.98-6.65-6.65v-16.35h31.69c5.4,0,9.8-4.39,9.8-9.8v-15.12h12.75c3.67,0,6.65,2.98,6.65,6.65v34.62Z"/>
    <path class="cls-1" d="M60.51,21.35h5.45c.52,0,.94-.42.94-.94s-.42-.94-.94-.94h-5.45c-.52,0-.94.42-.94.94s.42.94.94.94Z"/>
    <path class="cls-1" d="M99.17,19.46h-25.42c-.52,0-.94.42-.94.94s.42.94.94.94h25.42c.52,0,.94-.42.94-.94s-.42-.94-.94-.94Z"/>
    <path class="cls-1" d="M99.17,29.24h-5.45c-.52,0-.94.42-.94.94s.42.94.94.94h5.45c.52,0,.94-.42.94-.94s-.42-.94-.94-.94Z"/>
    <path class="cls-1" d="M86.87,30.19c0-.52-.42-.94-.94-.94h-25.42c-.52,0-.94.42-.94.94s.42.94.94.94h25.42c.52,0,.94-.42.94-.94Z"/>
    <path class="cls-1" d="M65.96,39.03h-5.45c-.52,0-.94.42-.94.94s.42.94.94.94h5.45c.52,0,.94-.42.94-.94s-.42-.94-.94-.94Z"/>
    <path class="cls-1" d="M99.17,39.03h-25.42c-.52,0-.94.42-.94.94s.42.94.94.94h25.42c.52,0,.94-.42.94-.94s-.42-.94-.94-.94Z"/>
  </g>
  <g>
    <path class="cls-2" d="M135.05,106.87c-2.46-.37-20.86-3.35-36.29-11.33-.33-.17-.7-.23-1.06-.16l-27.6,4.79c-.34.06-.65.22-.9.46-.08.08-4.76,4.72-9.56,9.13-1.81-.28-6.45-.96-15.25-2.21-12.27-1.75-20.79-4.06-26.04-5.83v3.56c5.47,1.77,13.83,3.93,25.57,5.6,6.36.9,10.18,1.46,12.49,1.8-2.05,1.8-3.93,3.34-5.25,4.2-1.62,1.07-1.76,2.41-1.7,3.12.07.88.51,1.7,1.27,2.43.58.55,1.36,1.05,2.3,1.46,4.09,1.79,13.77,2.66,24.1-5.41,3.21-2.51,8.74,1.07,15.14,5.22,8.07,5.23,18.12,11.73,28.33,8.4.88-.29,1.36-1.24,1.08-2.12-.29-.88-1.24-1.36-2.12-1.08-8.68,2.84-17.59-2.93-25.45-8.02-7.48-4.84-13.94-9.02-19.03-5.04-7.68,5.99-15.19,6.69-19.67,5.35-1.52-.46-2.3-1.07-2.53-1.38.03-.03.08-.06.14-.1,4.81-3.16,15.96-14.09,18.2-16.3l26.53-4.61c16.9,8.6,36.32,11.34,37.15,11.46.19.03.38.02.56-.02l24.88-5.02.23-3.48-25.49,5.14Z"/>
    <path class="cls-2" d="M142.71,143.57c-1.2.64-3.01,1.68-5.26,3.01-3.85-4.77-10.96-7.99-11.99-8.44-.85-.37-1.84.02-2.21.87-.37.85.02,1.84.87,2.21,3.21,1.4,11.7,6.08,12.39,10.84.25,1.71-.59,3.35-2.55,5.02-15.9,13.43-32.88,23.73-49.26,8.25-.68-.64-1.74-.61-2.38.07-.64.67-.61,1.74.06,2.37,0,0,0,0,0,0,2.31,2.18,4.63,3.86,6.96,5.17-3.38,1.34-6.02,2.04-7.44,1.76-3.93-.78-14.11-4.95-23.72-10.33-12.31-6.89-16.67-11.8-16.66-13.92,0-2.35,2.38-4.87,5.9-6.29,7.3-2.93,19.57-1.4,32.15,11.68.63.66,1.71.69,2.38.05.67-.64.69-1.71.05-2.38-13.72-14.29-27.51-15.8-35.83-12.47-2.13.85-3.93,2.04-5.28,3.42-5.67-2.18-14.34-3.04-22.56-3.3v3.38c7.53.23,15.33.97,20.56,2.77-.47,1.01-.73,2.06-.73,3.12,0,2.15,1.62,4.58,4.26,7.09,9.61,9.12,32.59,19.23,38.82,20.47,2.39.48,6.67-.78,12.18-3.17,17.24,6.31,33.89-7.74,42.7-15.17,2.89-2.44,4.14-5.16,3.71-8.07-.11-.73-.32-1.44-.62-2.13,2.18-1.28,3.92-2.29,5.07-2.9,3.97-2.1,10.93-2.43,17.16-2.2l.22-3.36c-6.7-.24-14.35.15-18.95,2.58Z"/>
  </g>
</svg>