<?xml version="1.0" encoding="UTF-8"?>
<svg id="Layer_1" data-name="Layer 1" xmlns="http://www.w3.org/2000/svg" viewBox="0 0 180 180">
  <defs>
    <style>
      .cls-1 {
        fill: none;
        stroke-width: .5px;
      }

      .cls-1, .cls-2 {
        stroke: #000;
        stroke-miterlimit: 10;
      }

      .cls-2 {
        stroke-width: 2px;
      }
    </style>
  </defs>
  <g>
    <path class="cls-2" d="M151.02,9.98h-46.5c-2.45-5.6-8.03-9.52-14.52-9.52s-12.08,3.92-14.52,9.52H28.98c-5.89,0-10.68,4.79-10.68,10.68v148.2c0,5.89,4.79,10.68,10.68,10.68h122.05c5.89,0,10.68-4.79,10.68-10.68V20.66c0-5.89-4.79-10.68-10.68-10.68ZM90,4.38c6.57,0,11.92,5.35,11.92,11.92,0,3.32,4.02,4.29,9.59,5.62,7.75,1.86,18.18,4.37,19.33,13.22H49.17c1.15-8.85,11.58-11.36,19.33-13.22,5.57-1.34,9.59-2.3,9.59-5.62,0-6.57,5.35-11.92,11.91-11.92ZM157.78,168.86c0,3.73-3.03,6.76-6.76,6.76H28.98c-3.73,0-6.76-3.03-6.76-6.76V20.66c0-3.73,3.03-6.76,6.76-6.76h45.39c-.11.7-.19,1.42-.2,2.14-.81.68-4.13,1.47-6.58,2.06-9.04,2.17-22.7,5.45-22.44,19.03.02,1.07.89,1.92,1.96,1.92h85.79c1.07,0,1.94-.86,1.96-1.92.27-13.58-13.4-16.86-22.44-19.03-2.45-.59-5.77-1.38-6.58-2.06-.01-.73-.09-1.44-.2-2.15h45.38c3.73,0,6.76,3.03,6.76,6.76v148.2Z"/>
    <path class="cls-2" d="M90,18.71c2.04,0,3.7-1.66,3.7-3.71s-1.66-3.7-3.7-3.7-3.71,1.66-3.71,3.7,1.66,3.71,3.71,3.71Z"/>
  </g>
  <g>
    <g>
      <path d="M35.94,162.42c-1.09,0-1.97-.88-1.97-1.97s.88-1.97,1.97-1.97h3.15v-32.71c0-1.09.88-1.97,1.97-1.97h16.21c1.09,0,1.97.88,1.97,1.97v32.71h7.07v-64.5c0-1.09.88-1.97,1.97-1.97h16.21c1.09,0,1.97.88,1.97,1.97v64.5h7.07v-32.71c0-1.09.88-1.97,1.97-1.97h16.21c1.09,0,1.97.88,1.97,1.97v32.71h7.07v-53.64c0-1.09.88-1.97,1.97-1.97h16.21c1.09,0,1.97.88,1.97,1.97v53.64h3.15c1.09,0,1.97.88,1.97,1.97s-.88,1.97-1.97,1.97H35.94ZM136.97,158.48v-51.67h-12.27v51.67h12.27ZM109.75,158.48v-30.74h-12.27v30.74h12.27ZM82.52,158.48v-62.53h-12.27v62.53h12.27ZM55.3,158.48v-30.74h-12.27v30.74h12.27Z"/>
      <path class="cls-1" d="M35.94,162.42c-1.09,0-1.97-.88-1.97-1.97s.88-1.97,1.97-1.97h3.15v-32.71c0-1.09.88-1.97,1.97-1.97h16.21c1.09,0,1.97.88,1.97,1.97v32.71h7.07v-64.5c0-1.09.88-1.97,1.97-1.97h16.21c1.09,0,1.97.88,1.97,1.97v64.5h7.07v-32.71c0-1.09.88-1.97,1.97-1.97h16.21c1.09,0,1.97.88,1.97,1.97v32.71h7.07v-53.64c0-1.09.88-1.97,1.97-1.97h16.21c1.09,0,1.97.88,1.97,1.97v53.64h3.15c1.09,0,1.97.88,1.97,1.97s-.88,1.97-1.97,1.97H35.94ZM136.97,158.48v-51.67h-12.27v51.67h12.27ZM109.75,158.48v-30.74h-12.27v30.74h12.27ZM82.52,158.48v-62.53h-12.27v62.53h12.27ZM55.3,158.48v-30.74h-12.27v30.74h12.27Z"/>
    </g>
    <g>
      <path d="M103.61,96.78c-4.63,0-8.39-3.76-8.39-8.39,0-1.66.5-3.29,1.43-4.67l-16.19-17.63c-1.24.69-2.63,1.06-4.06,1.06s-2.82-.36-4.06-1.06l-16.19,17.63c.92,1.38,1.43,3,1.43,4.67,0,4.63-3.76,8.39-8.39,8.39s-8.39-3.76-8.39-8.39,3.76-8.39,8.39-8.39c1.43,0,2.82.36,4.06,1.06l16.19-17.63c-.92-1.38-1.43-3-1.43-4.67,0-4.63,3.76-8.39,8.39-8.39s8.39,3.76,8.39,8.39c0,1.67-.5,3.29-1.43,4.67l16.19,17.63c1.24-.69,2.63-1.06,4.06-1.06s2.82.36,4.06,1.06l17.03-18.54-4.5-4.5c-.5-.5-.69-1.22-.51-1.9.18-.68.72-1.21,1.39-1.4l16.06-4.3c.17-.04.34-.07.51-.07.53,0,1.02.2,1.39.58.5.49.69,1.22.51,1.9l-4.3,16.06c-.18.68-.72,1.21-1.39,1.39-.16.04-.34.07-.51.07-.52,0-1.03-.21-1.39-.58l-4.47-4.47-16.92,18.42c.92,1.38,1.42,3,1.42,4.67,0,4.63-3.76,8.39-8.39,8.39ZM103.61,83.93c-2.45,0-4.45,2-4.45,4.45s2,4.45,4.45,4.45,4.45-2,4.45-4.45-2-4.45-4.45-4.45ZM49.17,83.93c-2.45,0-4.45,2-4.45,4.45s2,4.45,4.45,4.45,4.45-2,4.45-4.45-2-4.45-4.45-4.45ZM132.34,64.57l2.54-9.47-9.47,2.54,6.93,6.93ZM76.39,54.3c-2.45,0-4.45,2-4.45,4.45s2,4.45,4.45,4.45,4.45-2,4.45-4.45-2-4.45-4.45-4.45Z"/>
      <path class="cls-1" d="M103.61,96.78c-4.63,0-8.39-3.76-8.39-8.39,0-1.66.5-3.29,1.43-4.67l-16.19-17.63c-1.24.69-2.63,1.06-4.06,1.06s-2.82-.36-4.06-1.06l-16.19,17.63c.92,1.38,1.43,3,1.43,4.67,0,4.63-3.76,8.39-8.39,8.39s-8.39-3.76-8.39-8.39,3.76-8.39,8.39-8.39c1.43,0,2.82.36,4.06,1.06l16.19-17.63c-.92-1.38-1.43-3-1.43-4.67,0-4.63,3.76-8.39,8.39-8.39s8.39,3.76,8.39,8.39c0,1.67-.5,3.29-1.43,4.67l16.19,17.63c1.24-.69,2.63-1.06,4.06-1.06s2.82.36,4.06,1.06l17.03-18.54-4.5-4.5c-.5-.5-.69-1.22-.51-1.9.18-.68.72-1.21,1.39-1.4l16.06-4.3c.17-.04.34-.07.51-.07.53,0,1.02.2,1.39.58.5.49.69,1.22.51,1.9l-4.3,16.06c-.18.68-.72,1.21-1.39,1.39-.16.04-.34.07-.51.07-.52,0-1.03-.21-1.39-.58l-4.47-4.47-16.92,18.42c.92,1.38,1.42,3,1.42,4.67,0,4.63-3.76,8.39-8.39,8.39ZM103.61,83.93c-2.45,0-4.45,2-4.45,4.45s2,4.45,4.45,4.45,4.45-2,4.45-4.45-2-4.45-4.45-4.45ZM49.17,83.93c-2.45,0-4.45,2-4.45,4.45s2,4.45,4.45,4.45,4.45-2,4.45-4.45-2-4.45-4.45-4.45ZM132.34,64.57l2.54-9.47-9.47,2.54,6.93,6.93ZM76.39,54.3c-2.45,0-4.45,2-4.45,4.45s2,4.45,4.45,4.45,4.45-2,4.45-4.45-2-4.45-4.45-4.45Z"/>
    </g>
  </g>
</svg>