<?xml version="1.0" encoding="UTF-8"?>
<svg id="Layer_1" data-name="Layer 1" xmlns="http://www.w3.org/2000/svg" viewBox="0 0 180 180">
  <defs>
    <style>
      .cls-1 {
        stroke-width: 3px;
      }

      .cls-1, .cls-2 {
        stroke: #000;
        stroke-miterlimit: 10;
      }

      .cls-2 {
        stroke-width: 2px;
      }
    </style>
  </defs>
  <g>
    <path class="cls-1" d="M140.78,145.91H39.22c-5.11,0-8.97-1.8-10.86-5.07-1.89-3.27-1.52-7.51,1.03-11.94l50.78-87.95c2.56-4.43,6.04-6.86,9.82-6.86s7.27,2.44,9.82,6.86l50.78,87.95c2.56,4.43,2.92,8.67,1.03,11.94-1.89,3.27-5.74,5.07-10.86,5.07ZM90,36.67c-2.81,0-5.51,1.98-7.58,5.57l-50.78,87.95c-2.07,3.59-2.44,6.91-1.03,9.35,1.41,2.44,4.47,3.78,8.61,3.78h101.56c4.15,0,7.21-1.34,8.61-3.78,1.41-2.44,1.04-5.76-1.03-9.35l-50.78-87.95c-2.07-3.59-4.77-5.57-7.58-5.57Z"/>
    <path class="cls-1" d="M134.28,132.12H45.72c-.46,0-.89-.25-1.12-.65-.23-.4-.23-.89,0-1.29l44.28-76.7c.23-.4.66-.65,1.12-.65s.89.25,1.12.65l44.28,76.7c.23.4.23.89,0,1.29-.23.4-.66.65-1.12.65ZM47.96,129.53h84.08l-42.04-72.82-42.04,72.82Z"/>
    <path class="cls-2" d="M90,124c-3.24,0-5.87-2.63-5.87-5.87s2.63-5.87,5.87-5.87,5.87,2.63,5.87,5.87-2.63,5.87-5.87,5.87ZM90,114.84c-1.81,0-3.28,1.47-3.28,3.28s1.47,3.28,3.28,3.28,3.28-1.47,3.28-3.28-1.47-3.28-3.28-3.28Z"/>
    <path class="cls-2" d="M92.26,108.61h-4.52c-.65,0-1.2-.48-1.28-1.12-.44-3.28-3.18-22.84-3.18-23.97,0-3.71,3.02-6.72,6.72-6.72s6.72,3.02,6.72,6.72c0,1.13-2.74,20.69-3.18,23.97-.09.64-.63,1.12-1.28,1.12ZM88.87,106.02h2.26c.4-2.99,3.01-21.5,3.01-22.51,0-2.28-1.85-4.13-4.13-4.13s-4.13,1.85-4.13,4.13c0,1.01,2.6,19.51,3.01,22.51Z"/>
  </g>
  <path class="cls-2" d="M165.21,31.65L134.29.61c-.39-.39-.92-.61-1.47-.61H25.48c-6.23,0-11.29,5.09-11.29,11.34v157.33c0,6.25,5.07,11.34,11.29,11.34h129.05c6.23,0,11.29-5.09,11.29-11.34V33.12c0-.55-.22-1.08-.61-1.47ZM134.9,7.11l23.84,23.93h-23.84V7.11ZM161.67,112.91v55.76c0,3.95-3.2,7.17-7.14,7.17H25.48c-3.94,0-7.14-3.22-7.14-7.17V11.34c0-3.95,3.2-7.17,7.14-7.17h105.28v28.96c0,1.15.93,2.08,2.07,2.08h28.84v77.7Z"/>
</svg>