<?xml version="1.0" encoding="UTF-8"?>
<svg id="Layer_1" data-name="Layer 1" xmlns="http://www.w3.org/2000/svg" viewBox="0 0 180 180">
  <defs>
    <style>
      .cls-1 {
        stroke: #000;
        stroke-miterlimit: 10;
        stroke-width: 2px;
      }
    </style>
  </defs>
  <path class="cls-1" d="M33.75,168.16c.36.02.72.03,1.07.03,15.9,0,22.94-22.02,29.76-43.32,5.49-17.16,11.17-34.9,20.58-34.9,6.66-.21,10.28,8.28,14.13,17.27,4.24,9.88,8.63,20.09,18.1,19.7,12.45-.06,18.03-21.54,24.48-46.42,1.07-4.13,2.18-8.38,3.32-12.51.57.07,1.14.13,1.73.13,7.26,0,13.17-5.91,13.17-13.17,0-4.82-2.61-9.04-6.49-11.33,4.47-9.32,9.35-13.7,14.84-13.37,1.14.06,2.13-.8,2.2-1.95.07-1.15-.8-2.13-1.95-2.2-7.43-.44-13.64,4.8-18.96,16-.91-.2-1.85-.31-2.81-.31-7.26,0-13.17,5.91-13.17,13.17,0,5.22,3.05,9.72,7.46,11.85-1.15,4.19-2.27,8.48-3.36,12.66-5.52,21.29-11.23,43.3-20.5,43.3-.03,0-.06,0-.09,0-6.62.29-10.28-8.19-14.14-17.18-4.24-9.87-8.63-20.06-18.02-19.79-12.39,0-18.26,18.36-24.48,37.79-6.48,20.26-13.2,41.21-26.62,40.4-1.13-.06-2.13.8-2.2,1.95-.07,1.15.8,2.13,1.95,2.2ZM137.9,54.97c0-4.97,4.04-9.01,9.01-9.01s9.01,4.04,9.01,9.01-4.04,9.01-9.01,9.01-9.01-4.04-9.01-9.01Z"/>
  <path class="cls-1" d="M166.49,175.73H9.35v2.08c0,1.15.93,2.08,2.08,2.08h157.14c1.15,0,2.08-.93,2.08-2.08v-2.08h-4.16Z"/>
  <path class="cls-1" d="M4.16,166.49V9.35h-2.08c-1.15,0-2.08.93-2.08,2.08v157.14c0,1.15.93,2.08,2.08,2.08h2.08v-4.16Z"/>
  <g>
    <path class="cls-1" d="M60.52,3.89c-21.58,0-39.13,17.56-39.13,39.13s17.56,39.13,39.13,39.13,39.13-17.56,39.13-39.13S82.1,3.89,60.52,3.89ZM79.92,74.36l-2.15-3.72c-.31-.54-1-.73-1.55-.41-.54.31-.73,1.01-.41,1.55l2.15,3.73c-4.88,2.63-10.42,4.19-16.31,4.37v-4.3c0-.63-.51-1.13-1.13-1.13s-1.13.51-1.13,1.13v4.3c-5.88-.18-11.42-1.73-16.31-4.37l2.15-3.73c.31-.54.13-1.23-.41-1.55-.54-.31-1.23-.13-1.55.41l-2.15,3.72c-4.84-3.01-8.93-7.1-11.94-11.94l3.72-2.15c.54-.31.73-1.01.41-1.55-.31-.54-1.01-.73-1.55-.41l-3.73,2.15c-2.63-4.88-4.19-10.42-4.37-16.31h4.3c.63,0,1.13-.51,1.13-1.13s-.51-1.13-1.13-1.13h-4.3c.18-5.88,1.73-11.42,4.37-16.31l3.73,2.15c.18.1.37.15.57.15.39,0,.77-.2.98-.57.31-.54.13-1.23-.41-1.55l-3.72-2.15c3.01-4.84,7.1-8.93,11.94-11.94l2.15,3.72c.21.36.59.57.98.57.19,0,.39-.05.57-.15.54-.31.73-1.01.41-1.55l-2.15-3.73c4.88-2.63,10.42-4.19,16.31-4.37v4.3c0,.63.51,1.13,1.13,1.13s1.13-.51,1.13-1.13v-4.3c5.88.18,11.43,1.73,16.31,4.37l-2.15,3.73c-.31.54-.13,1.23.41,1.55.18.1.37.15.57.15.39,0,.77-.2.98-.57l2.15-3.72c4.84,3.01,8.93,7.1,11.94,11.94l-3.72,2.15c-.54.31-.73,1.01-.41,1.55.21.36.59.57.98.57.19,0,.39-.05.57-.15l3.73-2.15c2.63,4.88,4.19,10.42,4.37,16.31h-4.3c-.63,0-1.13.51-1.13,1.13s.51,1.13,1.13,1.13h4.3c-.18,5.88-1.73,11.42-4.37,16.31l-3.73-2.15c-.54-.31-1.23-.13-1.55.41-.31.54-.13,1.23.41,1.55l3.72,2.15c-3.01,4.84-7.1,8.93-11.94,11.94Z"/>
    <path class="cls-1" d="M80.98,29.91l-15.78,9.11c-1.13-1.32-2.81-2.16-4.68-2.16s-3.55.84-4.68,2.16l-10.03-5.79c-.54-.31-1.23-.13-1.55.41-.31.54-.13,1.23.41,1.55l10.03,5.79c-.23.64-.36,1.33-.36,2.05,0,3.4,2.77,6.17,6.17,6.17s6.17-2.77,6.17-6.17c0-.72-.13-1.41-.36-2.05l15.78-9.11c.54-.31.73-1.01.41-1.55-.31-.54-1.01-.73-1.55-.41ZM60.52,46.93c-2.15,0-3.9-1.75-3.9-3.9s1.75-3.9,3.9-3.9,3.9,1.75,3.9,3.9-1.75,3.9-3.9,3.9Z"/>
  </g>
</svg>