<?xml version="1.0" encoding="UTF-8"?>
<svg id="Layer_1" data-name="Layer 1" xmlns="http://www.w3.org/2000/svg" viewBox="0 0 180 180">
  <defs>
    <style>
      .cls-1 {
        stroke: #000;
        stroke-miterlimit: 10;
        stroke-width: 2px;
      }
    </style>
  </defs>
  <path d="M38.8,123.11c2.13-11.97,18.08-15.83,25.22-5.78,4.39,6.18,3.1,14.81-2.91,19.37-8.5,6.45-20.21,1.49-22.36-8.61-6.01-.48-12.39.73-18.25-.74-1.21-.87-1.19-11.56-.8-13.3.73-3.27,4.37-1.51,4.37-.54v9.61h14.74ZM62.15,125.57c0-5.28-4.28-9.56-9.56-9.56s-9.56,4.28-9.56,9.56,4.28,9.56,9.56,9.56,9.56-4.28,9.56-9.56Z"/>
  <path d="M179.32,91.84c-8.36-8.89-16.54-18.05-25.47-26.36h-24.8v-22.56c0-1.4-1.9-2.77-3.33-2.48l-103.65.05c-1.22.15-2.11.86-2.39,2.08-.35,1.5-.33,8.52-.07,10.15.6,3.78,4.44,1.93,4.44.92v-8.04l.67-.67h99.41v78.19h-45.35c-2.5,0-4.13,4.39.89,4.91l59.36.06c.68.23,1.54,3.44,2.16,4.54,4.34,7.79,15.69,9.3,22.04,3.01,10.55-10.46-.26-28.49-15.08-23.13-5,1.81-7.21,5.96-9.06,10.6h-10.05v-53.17h9.38v23.46c0,.88,1.6,1.84,2.49,1.98.19.03.42.06.69.09h17.29c.28-.03.53-.06.73-.09,3.49-.54,1.82-4.44.92-4.44h-16.98l-.67-.67v-19.66l.67-.67h8.94l22.78,24.13.26,31.46c.33,2.1,1.6,2.5,3.55,1.82l.69-1.1.22-31.54-.68-2.89ZM153.35,115.98c5.28,0,9.56,4.28,9.56,9.56s-4.28,9.56-9.56,9.56-9.56-4.28-9.56-9.56,4.28-9.56,9.56-9.56Z"/>
  <g>
    <path class="cls-1" d="M105.01,108.9c-.5.29-1.29.46-1.91.65l-99.53.05c-1.52-.36-2.62-.96-3.24-1.9L0,60.81c0-1.72,2.57-3.3,5.34-3.29l97.44.12c2.38.57,3.89,1.81,3.96,3.41v45.86c-.1.48-1.2,1.67-1.73,1.98ZM3.31,59.72v48.05h99.87v-48.05H3.31Z"/>
    <rect x="59.3" y="63.14" width="7.9" height="40.97"/>
    <rect x="18.59" y="63.14" width="7.51" height="40.97"/>
    <rect x="83.8" y="63.14" width="7.51" height="40.97"/>
    <rect x="34.77" y="63.13" width="6.36" height="40.99"/>
    <rect x="44.67" y="63.14" width="5.93" height="40.97"/>
    <rect x="70.76" y="63.13" width="4.74" height="40.99"/>
    <rect x="10.29" y="63.14" width="4.35" height="40.97"/>
    <rect x="54.14" y="63.12" width="2.79" height="41"/>
    <rect x="28.86" y="63.14" width="2.37" height="40.97"/>
    <rect x="94.07" y="63.14" width="2.37" height="40.97"/>
    <rect x="77.46" y="63.13" width="2.39" height="40.99"/>
  </g>
</svg>