<?xml version="1.0" encoding="UTF-8"?>
<svg id="Layer_1" data-name="Layer 1" xmlns="http://www.w3.org/2000/svg" viewBox="0 0 180 180">
  <defs>
    <style>
      .cls-1, .cls-2 {
        stroke: #000;
        stroke-miterlimit: 10;
        stroke-width: 2px;
      }

      .cls-2 {
        fill: none;
      }
    </style>
  </defs>
  <g>
    <g>
      <g>
        <path d="M3.07,76.57c-1.14,0-2.07-.78-2.07-1.74v-26.29c0-.96.93-1.74,2.07-1.74h21.13l1,.07h26.89v3.48h-25.89l-1-.07H5.14v22.81h46.95v3.48H3.07Z"/>
        <path class="cls-2" d="M3.07,76.57c-1.14,0-2.07-.78-2.07-1.74v-26.29c0-.96.93-1.74,2.07-1.74h21.13l1,.07h26.89v3.48h-25.89l-1-.07H5.14v22.81h46.95v3.48H3.07Z"/>
      </g>
      <g>
        <path d="M139.86,84.24c-.36,0-.72-.08-1.04-.24-.63-.31-1.03-.89-1.03-1.5v-5.93h-9.15v-3.48h11.22c1.14,0,2.07.78,2.07,1.74v4.41l31.04-17.55-31.04-17.55v4.4c0,.96-.93,1.74-2.07,1.74h-11.22v-3.48h9.15v-5.93c0-.61.39-1.19,1.03-1.5.32-.16.68-.24,1.04-.24.41,0,.81.1,1.15.3l36.81,20.81c.58.33.92.86.92,1.44s-.34,1.12-.92,1.44l-36.81,20.81c-.34.19-.74.3-1.15.3h0Z"/>
        <path class="cls-2" d="M139.86,84.24c-.36,0-.72-.08-1.04-.24-.63-.31-1.03-.89-1.03-1.5v-5.93h-9.15v-3.48h11.22c1.14,0,2.07.78,2.07,1.74v4.41l31.04-17.55-31.04-17.55v4.4c0,.96-.93,1.74-2.07,1.74h-11.22v-3.48h9.15v-5.93c0-.61.39-1.19,1.03-1.5.32-.16.68-.24,1.04-.24.41,0,.81.1,1.15.3l36.81,20.81c.58.33.92.86.92,1.44s-.34,1.12-.92,1.44l-36.81,20.81c-.34.19-.74.3-1.15.3h0Z"/>
      </g>
    </g>
    <g>
      <g>
        <path d="M155.8,133.19l-1-.07h-26.89v-3.48h25.89l1,.07h20.07v-22.81h-46.95v-3.48h49.02c1.14,0,2.07.78,2.07,1.74v26.29c0,.96-.93,1.74-2.07,1.74h-21.13Z"/>
        <path class="cls-2" d="M155.8,133.19l-1-.07h-26.89v-3.48h25.89l1,.07h20.07v-22.81h-46.95v-3.48h49.02c1.14,0,2.07.78,2.07,1.74v26.29c0,.96-.93,1.74-2.07,1.74h-21.13Z"/>
      </g>
      <g>
        <path d="M39.88,140.86c-.41,0-.81-.1-1.15-.3L1.92,119.75c-.58-.33-.92-.86-.92-1.44s.34-1.12.92-1.44l36.81-20.81c.34-.19.74-.3,1.15-.3.36,0,.72.08,1.04.24.63.31,1.03.89,1.03,1.5v5.93h10.86v3.48h-12.93c-1.14,0-2.07-.78-2.07-1.74v-4.41l-31.04,17.55,31.04,17.55v-4.4c0-.96.93-1.74,2.07-1.74h12.93v3.48h-10.86v5.93c0,.61-.39,1.19-1.03,1.5-.32.16-.68.24-1.04.24Z"/>
        <path class="cls-2" d="M39.88,140.86c-.41,0-.81-.1-1.15-.3L1.92,119.75c-.58-.33-.92-.86-.92-1.44s.34-1.12.92-1.44l36.81-20.81c.34-.19.74-.3,1.15-.3.36,0,.72.08,1.04.24.63.31,1.03.89,1.03,1.5v5.93h10.86v3.48h-12.93c-1.14,0-2.07-.78-2.07-1.74v-4.41l-31.04,17.55,31.04,17.55v-4.4c0-.96.93-1.74,2.07-1.74h12.93v3.48h-10.86v5.93c0,.61-.39,1.19-1.03,1.5-.32.16-.68.24-1.04.24Z"/>
      </g>
    </g>
  </g>
  <path class="cls-1" d="M128.76,95.16l-.05.03c.11-5.42.14-10.84.14-16.27l-.14.09c.09-4.25.12-8.51.13-12.78h0c0-.1,0-.21,0-.31,0-.85,0-1.7,0-2.55h-.02c-.04-8.41-.09-16.82,0-25.21-1-12.6-24.5-17.25-34.41-17.55h-7.84c-9.88.46-33.39,4.78-34.41,17.55v25.21h0v20.15s0,0,0,0v16.35s0,0,0,0v16.18s0,0,0,0v16.84c.38,4.4,3.42,7.66,6.9,10.03,14.96,10.19,47.75,10.18,62.74.07,3.05-2.06,5.75-4.75,6.74-8.41.08-2.31.13-4.62.17-6.94l.04-15.66-.07.04c0-.41.02-.82.03-1.23l.04-15.66ZM61.34,31.11c7.56-5.06,19.94-6.86,28.91-6.88,9.15-.02,21.8,1.74,29.49,6.95,6.83,4.63,7.34,10.16.39,15.05-13.68,9.62-45.74,9.6-59.39-.08-6.97-4.94-6.19-10.5.6-15.05ZM55.73,56.52v-9.54l4.29,3.1c15.26,9.47,47.68,9.55,62.42-1,.98-.7,1.88-1.5,2.8-2.28v19.24c0,6.76-9.61,10.75-15.06,12.39-12.88,3.87-30.12,3.67-42.73-1.12-4.65-1.76-11.72-5.57-11.72-11.27v-9.53ZM125.24,111.67v20.68c0,3.27-3.45,6.33-5.97,7.94-13.94,8.89-44.8,8.96-58.43-.57-2.24-1.57-5.11-4.41-5.11-7.36v-25.21c1,1.03,2.14,1.95,3.33,2.76,14.96,10.19,47.75,10.18,62.74.07,1.24-.83,2.41-1.78,3.44-2.84v4.53ZM125.24,79.01v19.57c0,6.76-9.61,10.75-15.06,12.39-12.88,3.87-30.12,3.67-42.73-1.12-4.65-1.76-11.72-5.57-11.72-11.27v-24.07c3.22,2.88,6.78,4.87,10.83,6.37,14.1,5.22,33.75,5.21,47.85,0,4.05-1.5,7.6-3.5,10.83-6.37v4.5Z"/>
</svg>